g Line001
v -1.08704197 1.66265833 1.04357421
v -1.23660934 1.80885589 1.04357421
v -0.866747677 1.80885589 1.04357421
v -0.792762101 1.66265833 1.04357421
v -0.872475028 1.80106246 1.04357421
v -0.758119047 1.70979285 1.04357421
v -0.850726724 1.82620668 1.04357421
v -0.747104704 1.72252798 1.04357421
v -0.821464479 1.85149062 1.04357421
v -0.735909998 1.73219907 1.04357421
v -0.784061611 1.87348235 1.04357421
v -0.721315861 1.74077749 1.04357421
v -0.738902092 1.89005148 1.04357421
v -0.699090242 1.74893141 1.04357421
v -0.685792267 1.90072799 1.04357421
v -0.665580928 1.75566864 1.04357421
v -0.624494374 1.90555692 1.04357421
v -0.617178082 1.7594825 1.04357421
v -0.561296284 1.90692317 1.04357421
v -0.55939132 1.76073241 1.04357421
v -0.5010252 1.90719771 1.04357421
v -0.50144726 1.76099622 1.04357421
v -0.442083955 1.90659094 1.04357421
v -0.444481015 1.76040995 1.04357421
v -0.384264201 1.9052844 1.04357421
v -0.388240278 1.75913906 1.04357421
v -0.327339619 1.90345764 1.04357421
v -0.332489163 1.75734949 1.04357421
v -0.271105826 1.9012897 1.04357421
v -0.276970506 1.75520909 1.04357421
v -0.230501622 1.89959025 1.04357421
v -0.206283912 1.75225425 1.04357421
v -0.192415461 1.91424966 1.04357421
v -0.139503613 1.77796185 1.04357421
v -0.142662883 1.93371582 1.04357421
v -0.0885443315 1.79790056 1.04357421
v -0.097665377 1.95196819 1.04357421
v -0.0411392823 1.81712961 1.04357421
v -0.0599287041 1.96830034 1.04357421
v 0.00106264104 1.83539414 1.04357421
v -0.0328323171 1.98145962 1.04357421
v 0.0372862183 1.85298395 1.04357421
v -0.0241369735 1.98676646 1.04357421
v 0.0711375922 1.87361836 1.04357421
v 0.00027130128 2.0147264 1.04357421
v 0.0643481091 1.86582935 1.04357421
v 0.0635169446 2.01217985 1.04357421
v 0.0245429073 1.86742711 1.04357421
v 0.108238764 1.98854411 1.04357421
v 0.0361910164 1.8612622 1.04357421
v 0.149794281 1.96341288 1.04357421
v 0.074317582 1.83820438 1.04357421
v 0.195190802 1.93613255 1.04357421
v 0.122298166 1.80937135 1.04357421
v 0.23989962 1.91155446 1.04357421
v 0.17504409 1.78037488 1.04357421
v 0.276356369 1.89546156 1.04357421
v 0.23050265 1.75589538 1.04357421
v 0.300213873 1.89014411 1.04357421
v 0.283403605 1.74410725 1.04357421
v 0.73816216 1.88572049 1.04357421
v 0.716316462 1.73973405 1.04357421
v 0.795791507 1.8687036 1.04357421
v 0.750615239 1.72960508 1.04357421
v 0.846119463 1.8508482 1.04357421
v 0.789599538 1.71577513 1.04357421
v 0.897334874 1.82601643 1.04357421
v 0.822464108 1.69984162 1.04357421
v 0.946880579 1.79067206 1.04357421
v 0.849151373 1.68080401 1.04357421
v 0.990755796 1.74227989 1.04357421
v 0.871045291 1.65665686 1.04357421
v 1.02497244 1.68043327 1.04357421
v 0.88951844 1.6232667 1.04357421
v 1.04458559 1.61550391 1.04357421
v 0.90689975 1.56572366 1.04357421
v 1.05807829 1.58364856 1.04357421
v 0.937928975 1.49245644 1.04357421
v 1.0687412 1.57515216 1.04357421
v 0.997099698 1.44530094 1.04357421
v 1.0976423 1.56507611 1.04357421
v 1.05257368 1.42596042 1.04357421
v 1.1482724 1.54990363 1.04357421
v 1.09008884 1.41471779 1.04357421
v 1.21022868 1.51428521 1.04357421
v 1.10927641 1.40368605 1.04357421
v 1.25963342 1.44402754 1.04357421
v 1.12324321 1.38382375 1.04357421
v 1.2820611 1.34303558 1.04357421
v 1.13564289 1.32799065 1.04357421
v 1.24941838 -1.03992617 1.04357421
v 1.10376513 -0.999453902 1.04357421
v 1.22250366 -1.08605325 1.04357421
v 1.09669912 -1.0115689 1.04357421
v 1.20462751 -1.11581588 1.04357421
v 1.0802865 -1.03889453 1.04357421
v 1.18582416 -1.14532614 1.04357421
v 1.06418538 -1.06416357 1.04357421
v 1.1657455 -1.17408597 1.04357421
v 1.04843664 -1.08672142 1.04357421
v 1.14388371 -1.2016362 1.04357421
v 1.03323984 -1.10587263 1.04357421
v 1.11954236 -1.22744918 1.04357421
v 1.01898396 -1.12099075 1.04357421
v 1.09259391 -1.25010931 1.04357421
v 1.00548887 -1.13233733 1.04357421
v 1.06514752 -1.26786554 1.04357421
v 0.993645847 -1.13999653 1.04357421
v 1.03824663 -1.28070354 1.04357421
v 0.985180914 -1.14403367 1.04357421
v 1.01140392 -1.28886676 1.04357421
v 0.979927301 -1.14562845 1.04357421
v 0.985665619 -1.29241669 1.04357421
v 0.976185858 -1.14614332 1.04357421
v 0.962656736 -1.29224479 1.04357421
v 0.97167623 -1.14610982 1.04357421
v 0.943534255 -1.29001904 1.04357421
v 0.964588702 -1.14528406 1.04357421
v 0.99650836 -1.29929817 1.04357421
v 0.886058331 -1.13152969 1.04357421
v 0.99650836 -1.29929817 1.04357421
v 1.0022074 -1.27528691 1.04357421
v 0.860342741 -1.23991644 1.04357421
v 0.990856349 -1.31868899 1.04357421
v 0.85033083 -1.27819681 1.04357421
v 0.97734344 -1.36154616 1.04357421
v 0.839787304 -1.31163609 1.04357421
v 0.960195363 -1.40318251 1.04357421
v 0.828840494 -1.33821809 1.04357421
v 0.936997712 -1.44298375 1.04357421
v 0.818557203 -1.35586381 1.04357421
v 0.903981924 -1.47909534 1.04357421
v 0.81136018 -1.36373496 1.04357421
v 0.85497582 -1.50733423 1.04357421
v 0.81207484 -1.36332226 1.04357421
v 0.81207484 -1.36332226 1.04357421
v 0.27331987 -1.54011595 1.04357421
v 0.226077214 -1.39634669 1.04357421
v 0.27542007 -1.53874433 1.04357421
v 0.200780198 -1.41287529 1.04357421
v 0.25099501 -1.55183434 1.04357421
v 0.184005022 -1.42186654 1.04357421
v 0.22133258 -1.56653309 1.04357421
v 0.157464132 -1.4350189 1.04357421
v 0.186422139 -1.58315158 1.04357421
v 0.124169052 -1.45086861 1.04357421
v 0.14737244 -1.60132408 1.04357421
v 0.0860114768 -1.46862602 1.04357421
v 0.10553889 -1.62054861 1.04357421
v 0.0446366072 -1.48763967 1.04357421
v 0.0334754176 -1.65347719 1.04357421
v 0.0304910801 -1.49410343 1.04357421
v -0.233980626 -1.5431757 1.04357421
v -0.205987185 -1.396577 1.04357421
v -0.656420887 -1.54902637 1.04357421
v -0.640279293 -1.40259075 1.04357421
v -0.694376588 -1.54000139 1.04357421
v -0.658732057 -1.39820302 1.04357421
v -0.724916577 -1.53190994 1.04357421
v -0.683754206 -1.39157391 1.04357421
v -0.756497443 -1.52174544 1.04357421
v -0.706042409 -1.38440108 1.04357421
v -0.788696587 -1.50840926 1.04357421
v -0.72517395 -1.37647724 1.04357421
v -0.820824027 -1.49065661 1.04357421
v -0.740991592 -1.36773729 1.04357421
v -0.851708651 -1.46731758 1.04357421
v -0.753820598 -1.35804451 1.04357421
v -0.878919721 -1.43852484 1.04357421
v -0.765245318 -1.34595752 1.04357421
v -0.900294721 -1.40791988 1.04357421
v -0.775197089 -1.33170784 1.04357421
v -0.916139603 -1.37782121 1.04357421
v -0.782600284 -1.317644 1.04357421
v -0.927407444 -1.34808326 1.04357421
v -0.787848115 -1.30379593 1.04357421
v -0.934780359 -1.31951582 1.04357421
v -0.791605771 -1.28924012 1.04357421
v -0.939219594 -1.29273474 1.04357421
v -0.794257522 -1.27324355 1.04357421
v -0.941767395 -1.26808774 1.04357421
v -0.796108067 -1.25534391 1.04357421
v -0.796108067 -1.25534391 1.04357421
v -0.94007951 -1.29169655 1.04357421
v -0.800847888 -1.18930399 1.04357421
v -0.918883562 -1.30002522 1.04357421
v -0.863707125 -1.16462576 1.04357421
v -0.942411244 -1.29008162 1.04357421
v -0.882222176 -1.15680039 1.04357421
v -0.967606306 -1.27795064 1.04357421
v -0.899828374 -1.14832258 1.04357421
v -0.99412787 -1.26294172 1.04357421
v -0.917246401 -1.13846457 1.04357421
v -1.02161229 -1.24447298 1.04357421
v -0.935219169 -1.126387 1.04357421
v -1.04980242 -1.22206306 1.04357421
v -0.954382896 -1.11115265 1.04357421
v -1.07883143 -1.19506252 1.04357421
v -0.974983811 -1.09199095 1.04357421
v -1.10567284 -1.16576016 1.04357421
v -0.992882192 -1.07245064 1.04357421
v -1.1272161 -1.13686442 1.04357421
v -1.00499916 -1.05619693 1.04357421
v -1.14373791 -1.10840786 1.04357421
v -1.01290464 -1.04258049 1.04357421
v -1.15559053 -1.08085954 1.04357421
v -1.01809418 -1.03051901 1.04357421
v -1.16342545 -1.0551362 1.04357421
v -1.0217613 -1.01847839 1.04357421
v -1.1683327 -1.03218138 1.04357421
v -1.02466321 -1.00490057 1.04357421
v -1.17244065 -1.00744128 1.04357421
v -1.02651811 -0.993723452 1.04357421
v -1.23660934 1.80885589 1.04357421
v -1.08704197 1.66265833 1.04357421
vt 0.0155110657 0
vt 0.986761093 0
vt 0.986761093 0.0312650129
vt 0.0155110657 0.0312650129
vt 0.986761093 0.0335634649
vt 0.0155110657 0.0335634649
vt 0.986761093 0.0359211378
vt 0.0155110657 0.0359211378
vt 0.986761093 0.0384380929
vt 0.0155110657 0.0384380929
vt 0.986761093 0.0412775986
vt 0.0155110657 0.0412775986
vt 0.986761093 0.0446565747
vt 0.0155110657 0.0446565747
vt 0.986761093 0.0488158241
vt 0.0155110657 0.0488158241
vt 0.986761093 0.0539960787
vt 0.0155110657 0.0539960787
vt 0.986761093 0.0596928746
vt 0.0155110657 0.0596928746
vt 0.986761093 0.0652580112
vt 0.0155110657 0.0652580112
vt 0.986761093 0.0707147345
vt 0.0155110657 0.0707147345
vt 0.986761093 0.0760855973
vt 0.0155110657 0.0760855973
vt 0.986761093 0.0813926309
vt 0.0155110657 0.0813926309
vt 0.986761093 0.0866573751
vt 0.0155110657 0.0866573751
vt 0.986761093 0.0919010639
vt 0.0155110657 0.0919010639
vt 0.986761093 0.0971908644
vt 0.0155110657 0.0971908644
vt 0.986761093 0.102281936
vt 0.0155110657 0.102281936
vt 0.986761093 0.106976107
vt 0.0155110657 0.106976107
vt 0.986761093 0.111076593
vt 0.0155110657 0.111076593
vt 0.986761093 0.114390321
vt 0.0155110657 0.114390321
vt 0.986761093 0.116736174
vt 0.0155110657 0.116736174
vt 0.986761093 0.117996968
vt 0.0155110657 0.117996968
vt 0.986761093 0.119101346
vt 0.0155110657 0.119101346
vt 0.986761093 0.122103028
vt 0.0155110657 0.122103028
vt 0.986761093 0.126486748
vt 0.0155110657 0.126486748
vt 0.986761093 0.131615207
vt 0.0155110657 0.131615207
vt 0.986761093 0.136850506
vt 0.0155110657 0.136850506
vt 0.986761093 0.141580284
vt 0.0155110657 0.141580284
vt 0.986761093 0.145282388
vt 0.0155110657 0.145282388
vt 0.986761093 0.186280996
vt 0.0155110657 0.186280996
vt 0.986761093 0.190793321
vt 0.0155110657 0.190793321
vt 0.986761093 0.19525452
vt 0.0155110657 0.19525452
vt 0.986761093 0.199653342
vt 0.0155110657 0.199653342
vt 0.986761093 0.204061642
vt 0.0155110657 0.204061642
vt 0.986761093 0.208671093
vt 0.0155110657 0.208671093
vt 0.986761093 0.213794857
vt 0.0155110657 0.213794857
vt 0.986761093 0.219817653
vt 0.0155110657 0.219817653
vt 0.986761093 0.225191921
vt 0.0155110657 0.225191921
vt 0.986761093 0.229395643
vt 0.0155110657 0.229395643
vt 0.986761093 0.233602151
vt 0.0155110657 0.233602151
vt 0.986761093 0.237933993
vt 0.0155110657 0.237933993
vt 0.986761093 0.242340192
vt 0.0155110657 0.242340192
vt 0.986761093 0.247526556
vt 0.0155110657 0.247526556
vt 0.986761093 0.255089074
vt 0.0155110657 0.255089074
vt 0.986761093 0.476856142
vt 0.0155110657 0.476856142
vt 0.986761093 0.480030447
vt 0.0155110657 0.480030447
vt 0.986761093 0.483165443
vt 0.0155110657 0.483165443
vt 0.986761093 0.486223221
vt 0.0155110657 0.486223221
vt 0.986761093 0.489169538
vt 0.0155110657 0.489169538
vt 0.986761093 0.491976142
vt 0.0155110657 0.491976142
vt 0.986761093 0.494624585
vt 0.0155110657 0.494624585
vt 0.986761093 0.497112125
vt 0.0155110657 0.497112125
vt 0.986761093 0.499314964
vt 0.0155110657 0.499314964
vt 0.986761093 0.501159668
vt 0.0155110657 0.501159668
vt 0.986761093 0.502738893
vt 0.0155110657 0.502738893
vt 0.986761093 0.504139841
vt 0.0155110657 0.504139841
vt 0.986761093 0.505435348
vt 0.0155110657 0.505435348
vt 0.986761093 0.506677508
vt 0.0155110657 0.506677508
vt 0.986761093 0.507898867
vt 0.0155110657 0.507898867
vt 0.986761093 0.507898867
vt 0.986761093 0.511981189
vt 0.0155110657 0.511981189
vt 0.986761093 0.515955746
vt 0.0155110657 0.515955746
vt 0.986761093 0.519721806
vt 0.0155110657 0.519721806
vt 0.986761093 0.523194909
vt 0.0155110657 0.523194909
vt 0.986761093 0.526325047
vt 0.0155110657 0.526325047
vt 0.986761093 0.529130518
vt 0.0155110657 0.529130518
vt 0.986761093 0.531754255
vt 0.0155110657 0.531754255
vt 0.0155110657 0.531754255
vt 0.986761093 0.586809695
vt 0.0155110657 0.586809695
vt 0.986761093 0.588114202
vt 0.0155110657 0.588114202
vt 0.986761093 0.590314686
vt 0.0155110657 0.590314686
vt 0.986761093 0.59326756
vt 0.0155110657 0.59326756
vt 0.986761093 0.596823633
vt 0.0155110657 0.596823633
vt 0.986761093 0.600832582
vt 0.0155110657 0.600832582
vt 0.986761093 0.605143487
vt 0.0155110657 0.605143487
vt 0.986761093 0.609605432
vt 0.0155110657 0.609605432
vt 0.986761093 0.63526684
vt 0.0155110657 0.63526684
vt 0.986761093 0.675602078
vt 0.0155110657 0.675602078
vt 0.986761093 0.678331554
vt 0.0155110657 0.678331554
vt 0.986761093 0.681037426
vt 0.0155110657 0.681037426
vt 0.986761093 0.683701456
vt 0.0155110657 0.683701456
vt 0.986761093 0.686316967
vt 0.0155110657 0.686316967
vt 0.986761093 0.688895702
vt 0.0155110657 0.688895702
vt 0.986761093 0.691474974
vt 0.0155110657 0.691474974
vt 0.986761093 0.69412291
vt 0.0155110657 0.69412291
vt 0.986761093 0.696698487
vt 0.0155110657 0.696698487
vt 0.986761093 0.699047983
vt 0.0155110657 0.699047983
vt 0.986761093 0.701242149
vt 0.0155110657 0.701242149
vt 0.986761093 0.703338742
vt 0.0155110657 0.703338742
vt 0.986761093 0.705380023
vt 0.0155110657 0.705380023
vt 0.986761093 0.707393646
vt 0.0155110657 0.707393646
vt 0.0155110657 0.707393646
vt 0.986761093 0.709396303
vt 0.0155110657 0.709396303
vt 0.986761093 0.711503267
vt 0.0155110657 0.711503267
vt 0.986761093 0.713651955
vt 0.0155110657 0.713651955
vt 0.986761093 0.715888262
vt 0.0155110657 0.715888262
vt 0.986761093 0.718265057
vt 0.0155110657 0.718265057
vt 0.986761093 0.720843256
vt 0.0155110657 0.720843256
vt 0.986761093 0.723691046
vt 0.0155110657 0.723691046
vt 0.986761093 0.726881862
vt 0.0155110657 0.726881862
vt 0.986761093 0.730000019
vt 0.0155110657 0.730000019
vt 0.986761093 0.732651114
vt 0.0155110657 0.732651114
vt 0.986761093 0.734941363
vt 0.0155110657 0.734941363
vt 0.986761093 0.736971259
vt 0.0155110657 0.736971259
vt 0.986761093 0.738829672
vt 0.0155110657 0.738829672
vt 0.986761093 0.740588248
vt 0.0155110657 0.740588248
vt 0.986761093 0.742302239
vt 0.0155110657 0.742302239
vt 0.986761093 1
vt 0.0155110657 1
vn -0 0 1
vn -0 0 1
vn -0 0 1
vn -0 0 1
vn -0 0 1
vn -0 0 1
vn -0 0 1
vn -0 0 1
vn -0 0 1
vn -0 0 1
vn -0 0 1
vn -0 0 1
vn -0 0 1
vn -0 0 1
vn -0 0 1
vn -0 0 1
vn -0 0 1
vn -0 0 1
vn -0 0 1
vn -0 0 1
vn -0 0 1
vn -0 0 1
vn -0 0 1
vn -0 0 1
vn -0 0 1
vn -0 0 1
vn -0 0 1
vn -0 0 1
vn -0 0 1
vn -0 0 1
vn -0 0 1
vn -0 0 1
vn -0 0 1
vn -0 0 1
vn -0 0 1
vn -0 0 1
vn -0 0 1
vn -0 0 1
vn -0 0 1
vn -0 0 1
vn -0 0 1
vn -0 0 1
vn -0 0 1
vn -0 0 1
vn -0 0 1
vn -0 0 1
vn -0 0 1
vn -0 0 1
vn -0 0 1
vn -0 0 1
vn -0 0 1
vn -0 0 1
vn -0 0 1
vn -0 0 1
vn -0 0 1
vn -0 0 1
vn -0 0 1
vn -0 0 1
vn -0 0 1
vn -0 0 1
vn -0 0 1
vn -0 0 1
vn -0 0 1
vn -0 0 1
vn -0 0 1
vn -0 0 1
vn -0 0 1
vn -0 0 1
vn -0 0 1
vn -0 0 1
vn -0 0 1
vn -0 0 1
vn -0 0 1
vn -0 0 1
vn -0 0 1
vn -0 0 1
vn -0 0 1
vn -0 0 1
vn -0 0 1
vn -0 0 1
vn -0 0 1
vn -0 0 1
vn -0 0 1
vn -0 0 1
vn -0 0 1
vn -0 0 1
vn -0 0 1
vn -0 0 1
vn -0 0 1
vn -0 0 1
vn -0 0 1
vn -0 0 1
vn -0 0 1
vn -0 0 1
vn -0 0 1
vn -0 0 1
vn -0 0 1
vn -0 0 1
vn -0 0 1
vn -0 0 1
vn -0 0 1
vn -0 0 1
vn -0 0 1
vn -0 0 1
vn -0 0 1
vn -0 0 1
vn -0 0 1
vn -0 0 1
vn -0 0 1
vn -0 0 1
vn -0 0 1
vn -0 0 1
vn -0 0 1
vn -0 0 1
vn -0 0 1
vn -0 0 1
vn -0 0 1
vn -0 0 1
vn -0 0 1
vn -0 0 1
vn -0 0 1
vn -0 0 1
vn -0 0 1
vn -0 0 1
vn -0 0 1
vn -0 0 1
vn -0 0 1
vn -0 0 1
vn -0 0 1
vn -0 0 1
vn -0 0 1
vn -0 0 1
vn -0 0 1
vn -0 0 1
vn -0 0 1
vn -0 0 1
vn -0 0 1
vn -0 0 1
vn -0 0 1
vn -0 0 1
vn -0 0 1
vn -0 0 1
vn -0 0 1
vn -0 0 1
vn -0 0 1
vn -0 0 1
vn -0 0 1
vn -0 0 1
vn -0 0 1
vn -0 0 1
vn -0 0 1
vn -0 0 1
vn -0 0 1
vn -0 0 1
vn -0 0 1
vn -0 0 1
vn -0 0 1
vn -0 0 1
vn -0 0 1
vn -0 0 1
vn -0 0 1
vn -0 0 1
vn -0 0 1
vn -0 0 1
vn -0 0 1
vn -0 0 1
vn -0 0 1
vn -0 0 1
vn -0 0 1
vn -0 0 1
vn -0 0 1
vn -0 0 1
vn -0 0 1
vn -0 0 1
vn -0 0 1
vn -0 0 1
vn -0 0 1
vn -0 0 1
vn -0 0 1
vn -0 0 1
vn -0 0 1
vn -0 0 1
vn -0 0 1
vn -0 0 1
vn -0 0 1
vn -0 0 1
vn -0 0 1
vn -0 0 1
vn -0 0 1
vn -0 0 1
vn -0 0 1
vn -0 0 1
vn -0 0 1
vn -0 0 1
vn -0 0 1
vn -0 0 1
vn -0 0 1
vn -0 0 1
vn -0 0 1
vn -0 0 1
vn -0 0 1
vn -0 0 1
vn -0 0 1
vn -0 0 1
vn -0 0 1
vn -0 0 1
vn -0 0 1
vn -0 0 1
vn -0 0 1
vn -0 0 1
vn -0 0 1
vn -0 0 1
vn -0 0 1
vn -0 0 1
vn -0 0 1
g Line001_0
f 3/3/3 2/2/2 1/1/1
f 4/4/4 3/3/3 1/1/1
f 5/5/5 3/3/3 4/4/4
f 6/6/6 5/5/5 4/4/4
f 7/7/7 5/5/5 6/6/6
f 8/8/8 7/7/7 6/6/6
f 9/9/9 7/7/7 8/8/8
f 10/10/10 9/9/9 8/8/8
f 11/11/11 9/9/9 10/10/10
f 12/12/12 11/11/11 10/10/10
f 13/13/13 11/11/11 12/12/12
f 14/14/14 13/13/13 12/12/12
f 15/15/15 13/13/13 14/14/14
f 16/16/16 15/15/15 14/14/14
f 17/17/17 15/15/15 16/16/16
f 18/18/18 17/17/17 16/16/16
f 19/19/19 17/17/17 18/18/18
f 20/20/20 19/19/19 18/18/18
f 21/21/21 19/19/19 20/20/20
f 22/22/22 21/21/21 20/20/20
f 23/23/23 21/21/21 22/22/22
f 24/24/24 23/23/23 22/22/22
f 25/25/25 23/23/23 24/24/24
f 26/26/26 25/25/25 24/24/24
f 27/27/27 25/25/25 26/26/26
f 28/28/28 27/27/27 26/26/26
f 29/29/29 27/27/27 28/28/28
f 30/30/30 29/29/29 28/28/28
f 31/31/31 29/29/29 30/30/30
f 32/32/32 31/31/31 30/30/30
f 33/33/33 31/31/31 32/32/32
f 34/34/34 33/33/33 32/32/32
f 35/35/35 33/33/33 34/34/34
f 36/36/36 35/35/35 34/34/34
f 37/37/37 35/35/35 36/36/36
f 38/38/38 37/37/37 36/36/36
f 39/39/39 37/37/37 38/38/38
f 40/40/40 39/39/39 38/38/38
f 41/41/41 39/39/39 40/40/40
f 42/42/42 41/41/41 40/40/40
f 43/43/43 41/41/41 42/42/42
f 44/44/44 43/43/43 42/42/42
f 45/45/45 43/43/43 44/44/44
f 46/46/46 45/45/45 44/44/44
f 47/47/47 45/45/45 46/46/46
f 48/48/48 47/47/47 46/46/46
f 49/49/49 47/47/47 48/48/48
f 50/50/50 49/49/49 48/48/48
f 51/51/51 49/49/49 50/50/50
f 52/52/52 51/51/51 50/50/50
f 53/53/53 51/51/51 52/52/52
f 54/54/54 53/53/53 52/52/52
f 55/55/55 53/53/53 54/54/54
f 56/56/56 55/55/55 54/54/54
f 57/57/57 55/55/55 56/56/56
f 58/58/58 57/57/57 56/56/56
f 59/59/59 57/57/57 58/58/58
f 60/60/60 59/59/59 58/58/58
f 61/61/61 59/59/59 60/60/60
f 62/62/62 61/61/61 60/60/60
f 63/63/63 61/61/61 62/62/62
f 64/64/64 63/63/63 62/62/62
f 65/65/65 63/63/63 64/64/64
f 66/66/66 65/65/65 64/64/64
f 67/67/67 65/65/65 66/66/66
f 68/68/68 67/67/67 66/66/66
f 69/69/69 67/67/67 68/68/68
f 70/70/70 69/69/69 68/68/68
f 71/71/71 69/69/69 70/70/70
f 72/72/72 71/71/71 70/70/70
f 73/73/73 71/71/71 72/72/72
f 74/74/74 73/73/73 72/72/72
f 75/75/75 73/73/73 74/74/74
f 76/76/76 75/75/75 74/74/74
f 77/77/77 75/75/75 76/76/76
f 78/78/78 77/77/77 76/76/76
f 79/79/79 77/77/77 78/78/78
f 80/80/80 79/79/79 78/78/78
f 81/81/81 79/79/79 80/80/80
f 82/82/82 81/81/81 80/80/80
f 83/83/83 81/81/81 82/82/82
f 84/84/84 83/83/83 82/82/82
f 85/85/85 83/83/83 84/84/84
f 86/86/86 85/85/85 84/84/84
f 87/87/87 85/85/85 86/86/86
f 88/88/88 87/87/87 86/86/86
f 89/89/89 87/87/87 88/88/88
f 90/90/90 89/89/89 88/88/88
f 91/91/91 89/89/89 90/90/90
f 92/92/92 91/91/91 90/90/90
f 93/93/93 91/91/91 92/92/92
f 94/94/94 93/93/93 92/92/92
f 95/95/95 93/93/93 94/94/94
f 96/96/96 95/95/95 94/94/94
f 97/97/97 95/95/95 96/96/96
f 98/98/98 97/97/97 96/96/96
f 99/99/99 97/97/97 98/98/98
f 100/100/100 99/99/99 98/98/98
f 101/101/101 99/99/99 100/100/100
f 102/102/102 101/101/101 100/100/100
f 103/103/103 101/101/101 102/102/102
f 104/104/104 103/103/103 102/102/102
f 105/105/105 103/103/103 104/104/104
f 106/106/106 105/105/105 104/104/104
f 107/107/107 105/105/105 106/106/106
f 108/108/108 107/107/107 106/106/106
f 109/109/109 107/107/107 108/108/108
f 110/110/110 109/109/109 108/108/108
f 111/111/111 109/109/109 110/110/110
f 112/112/112 111/111/111 110/110/110
f 113/113/113 111/111/111 112/112/112
f 114/114/114 113/113/113 112/112/112
f 115/115/115 113/113/113 114/114/114
f 116/116/116 115/115/115 114/114/114
f 117/117/117 115/115/115 116/116/116
f 118/118/118 117/117/117 116/116/116
f 119/119/119 117/117/117 118/118/118
f 120/120/120 119/119/119 118/118/118
f 122/122/122 121/121/121 120/120/120
f 123/123/123 122/122/122 120/120/120
f 124/124/124 122/122/122 123/123/123
f 125/125/125 124/124/124 123/123/123
f 126/126/126 124/124/124 125/125/125
f 127/127/127 126/126/126 125/125/125
f 128/128/128 126/126/126 127/127/127
f 129/129/129 128/128/128 127/127/127
f 130/130/130 128/128/128 129/129/129
f 131/131/131 130/130/130 129/129/129
f 132/132/132 130/130/130 131/131/131
f 133/133/133 132/132/132 131/131/131
f 134/134/134 132/132/132 133/133/133
f 135/135/135 134/134/134 133/133/133
f 137/137/137 134/134/134 136/136/136
f 138/138/138 137/137/137 136/136/136
f 139/139/139 137/137/137 138/138/138
f 140/140/140 139/139/139 138/138/138
f 141/141/141 139/139/139 140/140/140
f 142/142/142 141/141/141 140/140/140
f 143/143/143 141/141/141 142/142/142
f 144/144/144 143/143/143 142/142/142
f 145/145/145 143/143/143 144/144/144
f 146/146/146 145/145/145 144/144/144
f 147/147/147 145/145/145 146/146/146
f 148/148/148 147/147/147 146/146/146
f 149/149/149 147/147/147 148/148/148
f 150/150/150 149/149/149 148/148/148
f 151/151/151 149/149/149 150/150/150
f 152/152/152 151/151/151 150/150/150
f 153/153/153 151/151/151 152/152/152
f 154/154/154 153/153/153 152/152/152
f 155/155/155 153/153/153 154/154/154
f 156/156/156 155/155/155 154/154/154
f 157/157/157 155/155/155 156/156/156
f 158/158/158 157/157/157 156/156/156
f 159/159/159 157/157/157 158/158/158
f 160/160/160 159/159/159 158/158/158
f 161/161/161 159/159/159 160/160/160
f 162/162/162 161/161/161 160/160/160
f 163/163/163 161/161/161 162/162/162
f 164/164/164 163/163/163 162/162/162
f 165/165/165 163/163/163 164/164/164
f 166/166/166 165/165/165 164/164/164
f 167/167/167 165/165/165 166/166/166
f 168/168/168 167/167/167 166/166/166
f 169/169/169 167/167/167 168/168/168
f 170/170/170 169/169/169 168/168/168
f 171/171/171 169/169/169 170/170/170
f 172/172/172 171/171/171 170/170/170
f 173/173/173 171/171/171 172/172/172
f 174/174/174 173/173/173 172/172/172
f 175/175/175 173/173/173 174/174/174
f 176/176/176 175/175/175 174/174/174
f 177/177/177 175/175/175 176/176/176
f 178/178/178 177/177/177 176/176/176
f 179/179/179 177/177/177 178/178/178
f 180/180/180 179/179/179 178/178/178
f 181/181/181 179/179/179 180/180/180
f 182/182/182 181/181/181 180/180/180
f 184/184/184 181/181/181 183/183/183
f 185/185/185 184/184/184 183/183/183
f 186/186/186 184/184/184 185/185/185
f 187/187/187 186/186/186 185/185/185
f 188/188/188 186/186/186 187/187/187
f 189/189/189 188/188/188 187/187/187
f 190/190/190 188/188/188 189/189/189
f 191/191/191 190/190/190 189/189/189
f 192/192/192 190/190/190 191/191/191
f 193/193/193 192/192/192 191/191/191
f 194/194/194 192/192/192 193/193/193
f 195/195/195 194/194/194 193/193/193
f 196/196/196 194/194/194 195/195/195
f 197/197/197 196/196/196 195/195/195
f 198/198/198 196/196/196 197/197/197
f 199/199/199 198/198/198 197/197/197
f 200/200/200 198/198/198 199/199/199
f 201/201/201 200/200/200 199/199/199
f 202/202/202 200/200/200 201/201/201
f 203/203/203 202/202/202 201/201/201
f 204/204/204 202/202/202 203/203/203
f 205/205/205 204/204/204 203/203/203
f 206/206/206 204/204/204 205/205/205
f 207/207/207 206/206/206 205/205/205
f 208/208/208 206/206/206 207/207/207
f 209/209/209 208/208/208 207/207/207
f 210/210/210 208/208/208 209/209/209
f 211/211/211 210/210/210 209/209/209
f 212/212/212 210/210/210 211/211/211
f 213/213/213 212/212/212 211/211/211
f 214/214/214 212/212/212 213/213/213
f 215/215/215 214/214/214 213/213/213
