g quan0903
v 0.00361953001 0.0205274131 0
v -0.00361954235 0.0205274094 0
v -0.0128641734 0.0729562342 0.00843040179
v 0.012864138 0.0729562417 0.00843040179
v 0.0104220342 0.0180515032 0
v -0.022108797 0.125385061 0.0168608036
v 0.0370408446 0.064156644 0.00843040273
v 0.0159674864 0.0133983167 0
v 0.0221087467 0.125385061 0.0168608036
v -0.0313534327 0.177813888 0.02529121
v 0.0567498729 0.0476188064 0.00843040179
v 0.0195870213 0.00712909829 0
v 0.0636596531 0.110261783 0.0168608055
v 0.0313533619 0.177813902 0.02529121
v -0.0405980609 0.230242729 0.0337216072
v 0.069614023 0.0253374409 0.00843040086
v 0.0208440721 0 0
v 0.0975322649 0.0818393007 0.0168608036
v 0.0902784765 0.156366915 0.02529121
v 0.0405979678 0.230242729 0.0337216072
v -0.0498426817 0.282671541 0.0421520136
v 0.0498425774 0.282671571 0.0421520136
v 0.116897285 0.202472076 0.0337216109
v 0.143516093 0.248577222 0.0421520136
v 0.0740816891 -6.67572042E-09 0.00843040179
v 0.0195870101 -0.00712910807 0
v 0.119641028 0.0435457788 0.0168608017
v 0.138314635 0.116059758 0.02529121
v 0.179097041 0.150280267 0.0337216072
v 0.219879448 0.184500769 0.0421520136
v 0.0696140006 -0.0253374912 0.00843040179
v 0.0159674734 -0.013398326 0
v 0.127319321 -6.67572042E-09 0.0168608036
v 0.169668049 0.0617541336 0.02529121
v 0.219695032 0.0799624547 0.0337216035
v 0.269722044 0.0981707945 0.0421520136
v 0.0567498431 -0.0476188473 0.00843040273
v 0.0104220239 -0.018051507 0
v 0.119640984 -0.0435458794 0.0168608036
v 0.180556938 -1.33514408E-08 0.02529121
v 0.233794585 -1.33514408E-08 0.0337216072
v 0.287032187 -2.67028817E-08 0.0421520136
v 0.037040811 -0.0641566664 0.00843040179
v 0.00361952232 -0.0205274094 0
v 0.0975322053 -0.0818393752 0.0168608055
v 0.169667974 -0.0617542602 0.02529121
v 0.219694942 -0.079962641 0.0337216072
v 0.269721955 -0.0981710404 0.0421520136
v 0.0128641138 -0.0729562491 0.00843040179
v -0.003619547 -0.0205274075 0
v 0.0636595935 -0.110261828 0.0168608036
v 0.13831459 -0.116059907 0.02529121
v 0.179096952 -0.150280431 0.0337216109
v 0.219879314 -0.184500948 0.0421520136
v -0.0128641855 -0.0729562491 0.00843040086
v -0.0104220463 -0.0180514958 0
v 0.0221087076 -0.125385106 0.0168608036
v 0.0902783796 -0.156366974 0.0252912119
v 0.116897158 -0.202472165 0.0337216072
v 0.143515974 -0.248577327 0.0421520136
v -0.0370408706 -0.0641566366 0.00843040179
v -0.0159674939 -0.0133983092 0
v -0.0221088268 -0.125385091 0.0168608017
v 0.0313533023 -0.177813962 0.02529121
v 0.0405978933 -0.230242774 0.0337216072
v 0.0498424806 -0.28267163 0.0421520136
v -0.0567499027 -0.047618784 0.00843040086
v -0.0195870269 -0.00712908991 0
v -0.0636597127 -0.110261776 0.0168608036
v -0.0313534774 -0.177813932 0.0252912082
v -0.0405981131 -0.230242744 0.0337216035
v -0.0498427525 -0.282671601 0.0421520099
v -0.0696140304 -0.025337426 0.00843040179
v -0.0208440777 2.86102297E-09 0
v -0.0975323096 -0.0818392783 0.0168608017
v -0.0902785361 -0.156366885 0.02529121
v -0.116897367 -0.202472076 0.0337216072
v -0.143516228 -0.248577192 0.0421520136
v -0.074081704 0 0.00843040179
v -0.019587025 0.00712909643 0
v -0.119641051 -0.0435457639 0.0168608036
v -0.138314709 -0.116059765 0.02529121
v -0.179097131 -0.150280237 0.0337216035
v -0.219879538 -0.184500739 0.0421520099
v -0.0696140304 0.0253374372 0.00843040179
v -0.0159674883 0.0133983148 0
v -0.127319336 0 0.0168608036
v -0.169668064 -0.0617541149 0.02529121
v -0.219695047 -0.0799624398 0.0337216072
v -0.269722134 -0.0981707796 0.0421520099
v -0.0567498766 0.0476188101 0.00843040086
v -0.0104220416 0.0180515032 0
v -0.119641043 0.0435457677 0.0168608036
v -0.180556983 0 0.02529121
v -0.233794585 0 0.0337216072
v -0.287032247 0 0.0421520136
v -0.0370408595 0.0641566366 0.00843040179
v -0.00361954235 0.0205274094 0
v -0.0128641734 0.0729562342 0.00843040179
v -0.0975322723 0.0818393007 0.0168608017
v -0.169668034 0.0617541336 0.02529121
v -0.219695061 0.0799624473 0.0337216072
v -0.269722044 0.0981707796 0.0421520136
v -0.0636596754 0.110261768 0.0168608036
v -0.022108797 0.125385061 0.0168608036
v -0.138314664 0.116059758 0.02529121
v -0.179097041 0.150280282 0.0337216035
v -0.219879434 0.184500754 0.0421520099
v -0.0902784914 0.156366885 0.02529121
v -0.0313534327 0.177813888 0.02529121
v -0.11689733 0.202472031 0.0337216072
v -0.143516153 0.248577163 0.0421520136
v -0.0405980609 0.230242729 0.0337216072
v -0.0498426817 0.282671541 0.0421520136
vt 0.972222209 0
vt 1.02777779 0
vt 1.02777779 0.199999988
vt 0.972222209 0.199999988
vt 0.916666687 0
vt 1.02777779 0.399999976
vt 0.916666687 0.199999988
vt 0.861111104 0
vt 0.972222209 0.399999976
vt 1.02777779 0.600000024
vt 0.861111104 0.199999988
vt 0.805555582 0
vt 0.916666687 0.399999976
vt 0.972222209 0.600000024
vt 1.02777779 0.799999952
vt 0.805555582 0.199999988
vt 0.75 0
vt 0.861111104 0.399999976
vt 0.916666687 0.600000024
vt 0.972222209 0.799999952
vt 1.02777779 1
vt 0.972222209 1
vt 0.916666687 0.799999952
vt 0.916666687 1
vt 0.75 0.199999988
vt 0.694444299 0
vt 0.805555582 0.399999976
vt 0.861111104 0.600000024
vt 0.861111104 0.799999952
vt 0.861111104 1
vt 0.694444299 0.199999988
vt 0.638888776 0
vt 0.75 0.399999976
vt 0.805555582 0.600000024
vt 0.805555582 0.799999952
vt 0.805555582 1
vt 0.638888776 0.199999988
vt 0.583333254 0
vt 0.694444299 0.399999976
vt 0.75 0.600000024
vt 0.75 0.799999952
vt 0.75 1
vt 0.583333254 0.199999988
vt 0.527777672 0
vt 0.638888776 0.399999976
vt 0.694444358 0.600000024
vt 0.694444299 0.799999952
vt 0.694444299 1
vt 0.527777672 0.199999988
vt 0.472222149 0
vt 0.583333254 0.399999976
vt 0.638888776 0.600000024
vt 0.638888776 0.799999952
vt 0.638888776 1
vt 0.472222149 0.199999988
vt 0.416666627 0
vt 0.527777672 0.399999976
vt 0.583333254 0.600000024
vt 0.583333254 0.799999952
vt 0.583333254 1
vt 0.416666627 0.199999988
vt 0.361111075 0
vt 0.472222149 0.399999976
vt 0.527777672 0.600000024
vt 0.527777672 0.799999952
vt 0.527777672 1
vt 0.361111075 0.199999988
vt 0.305555522 0
vt 0.416666627 0.399999976
vt 0.472222149 0.600000024
vt 0.472222149 0.799999952
vt 0.472222149 1
vt 0.305555522 0.199999988
vt 0.24999997 0
vt 0.361111075 0.399999976
vt 0.416666627 0.600000024
vt 0.416666627 0.799999952
vt 0.416666627 1
vt 0.24999997 0.199999988
vt 0.194444448 0
vt 0.305555522 0.399999976
vt 0.361111075 0.600000024
vt 0.361111075 0.799999952
vt 0.361111075 1
vt 0.194444448 0.199999988
vt 0.138888896 0
vt 0.24999997 0.399999976
vt 0.305555522 0.600000024
vt 0.305555522 0.799999952
vt 0.305555522 1
vt 0.138888896 0.199999988
vt 0.0833333433 0
vt 0.194444448 0.399999976
vt 0.24999997 0.600000024
vt 0.24999997 0.799999952
vt 0.24999997 1
vt 0.0833333433 0.199999988
vt 0.0277778208 0
vt 0.0277778208 0.199999988
vt 0.138888896 0.399999976
vt 0.194444448 0.600000024
vt 0.194444448 0.799999952
vt 0.194444448 1
vt 0.0833333433 0.399999976
vt 0.0277778208 0.399999976
vt 0.138888896 0.600000024
vt 0.138888896 0.799999952
vt 0.138888896 1
vt 0.0833333433 0.600000024
vt 0.0277778208 0.600000024
vt 0.0833333433 0.799999952
vt 0.0833333433 1
vt 0.0277778208 0.799999952
vt 0.0277778208 1
vn -0.0271594878 -0.15402922 0.987693012
vn 0.0271595344 -0.15402922 0.987693012
vn 0.0271595307 -0.15402922 0.987693012
vn -0.0271594971 -0.15402922 0.987693012
vn -0.0782026649 -0.135451004 0.987693012
vn 0.0271595363 -0.15402925 0.987693012
vn -0.0782026574 -0.135451034 0.987693012
vn -0.11981342 -0.100535437 0.987693012
vn -0.0271594878 -0.15402922 0.987693012
vn 0.0271595363 -0.154029146 0.987693012
vn -0.119813412 -0.100535437 0.987693012
vn -0.146972924 -0.0534937419 0.987693012
vn -0.0782026723 -0.135451034 0.987693012
vn -0.0271594916 -0.154029176 0.987693012
vn 0.0271595474 -0.154029161 0.987693012
vn -0.146972939 -0.0534937531 0.987693012
vn -0.156405374 8.76540369E-08 0.987693012
vn -0.119813465 -0.100535482 0.987693012
vn -0.0782026723 -0.135450989 0.987693012
vn -0.027159486 -0.154029176 0.987693012
vn 0.0271595567 -0.15402925 0.987693012
vn -0.0271594804 -0.154029161 0.987693012
vn -0.0782026425 -0.135450974 0.987693012
vn -0.07820265 -0.135450974 0.987693012
vn -0.156405345 7.9478589E-08 0.987693012
vn -0.146972924 0.0534938499 0.987693012
vn -0.146972969 -0.0534937866 0.987693012
vn -0.119813435 -0.100535437 0.987693012
vn -0.119813412 -0.100535408 0.987693012
vn -0.119813405 -0.100535393 0.987693012
vn -0.146972924 0.0534938537 0.987693012
vn -0.119813398 0.10053546 0.987693012
vn -0.156405374 7.41404804E-08 0.987693012
vn -0.14697291 -0.0534937754 0.987693012
vn -0.146972939 -0.0534937531 0.987693012
vn -0.146972999 -0.0534937605 0.987693012
vn -0.119813375 0.100535475 0.987693012
vn -0.0782025903 0.135451004 0.987693012
vn -0.146972939 0.0534938574 0.987693012
vn -0.15640533 7.9478589E-08 0.987693012
vn -0.156405374 6.64298696E-08 0.987693012
vn -0.156405434 5.729569E-08 0.987693012
vn -0.0782026052 0.135451034 0.987693012
vn -0.0271594599 0.154029161 0.987693012
vn -0.11981339 0.100535497 0.987693012
vn -0.146972939 0.0534938462 0.987693012
vn -0.146972939 0.0534938425 0.987693012
vn -0.146972924 0.0534938499 0.987693012
vn -0.0271594655 0.154029161 0.987693012
vn 0.0271595567 0.154029131 0.987693012
vn -0.0782026127 0.135451049 0.987693012
vn -0.119813375 0.100535467 0.987693012
vn -0.11981336 0.100535452 0.987693012
vn -0.119813368 0.10053546 0.987693012
vn 0.0271595549 0.154029146 0.987693012
vn 0.0782027245 0.135450944 0.987693012
vn -0.0271594822 0.154029191 0.987693012
vn -0.0782025829 0.135451004 0.987693012
vn -0.0782025754 0.135450989 0.987693012
vn -0.0782025903 0.135451004 0.987693012
vn 0.0782027096 0.135450944 0.987693012
vn 0.119813465 0.100535341 0.987693012
vn 0.027159581 0.154029146 0.987693012
vn -0.0271594729 0.154029176 0.987693012
vn -0.0271594599 0.154029146 0.987693012
vn -0.0271594543 0.154029146 0.987693012
vn 0.119813457 0.100535326 0.987693012
vn 0.146972984 0.0534937121 0.987693012
vn 0.0782027468 0.135450974 0.987693012
vn 0.0271595754 0.154029116 0.987693012
vn 0.0271595549 0.154029101 0.987693012
vn 0.0271595549 0.154029116 0.987693012
vn 0.146972954 0.0534937158 0.987693012
vn 0.15640533 0 0.987693012
vn 0.119813472 0.10053537 0.987693012
vn 0.078202717 0.135450929 0.987693012
vn 0.0782026872 0.135450929 0.987693012
vn 0.0782027245 0.135450959 0.987693012
vn 0.15640533 0 0.987693012
vn 0.146972924 -0.0534937568 0.987693012
vn 0.146972984 0.0534937344 0.987693012
vn 0.119813442 0.100535348 0.987693012
vn 0.119813405 0.100535303 0.987693012
vn 0.119813405 0.100535341 0.987693012
vn 0.146972939 -0.0534937568 0.987693012
vn 0.119813412 -0.100535385 0.987693012
vn 0.156405315 -1.95730863E-08 0.987693012
vn 0.146972969 0.0534937307 0.987693012
vn 0.146972895 0.0534936786 0.987693012
vn 0.14697285 0.0534936599 0.987693012
vn 0.119813435 -0.1005354 0.987693012
vn 0.0782026649 -0.135450989 0.987693012
vn 0.146972969 -0.0534937866 0.987693012
vn 0.156405345 -1.18624763E-08 0.987693012
vn 0.156405285 -2.31318289E-08 0.987693012
vn 0.156405285 -3.59763668E-08 0.987693012
vn 0.07820265 -0.135450989 0.987693012
vn 0.0271595344 -0.15402922 0.987693012
vn 0.0271595307 -0.15402922 0.987693012
vn 0.119813472 -0.100535467 0.987693012
vn 0.146972924 -0.0534937792 0.987693012
vn 0.146972924 -0.0534937531 0.987693012
vn 0.146972984 -0.053493768 0.987693012
vn 0.0782027021 -0.135451049 0.987693012
vn 0.0271595363 -0.15402925 0.987693012
vn 0.119813435 -0.1005354 0.987693012
vn 0.119813412 -0.100535408 0.987693012
vn 0.119813479 -0.100535445 0.987693012
vn 0.0782026798 -0.135450974 0.987693012
vn 0.0271595363 -0.154029146 0.987693012
vn 0.0782026872 -0.135450974 0.987693012
vn 0.078202717 -0.135451049 0.987693012
vn 0.0271595474 -0.154029161 0.987693012
vn 0.0271595567 -0.15402925 0.987693012
g quan0903_0
f 3/3/3 2/2/2 1/1/1
f 4/4/4 3/3/3 1/1/1
f 4/4/4 1/1/1 5/5/5
f 6/6/6 3/3/3 4/4/4
f 7/7/7 4/4/4 5/5/5
f 7/7/7 5/5/5 8/8/8
f 9/9/9 6/6/6 4/4/4
f 9/9/9 4/4/4 7/7/7
f 10/10/10 6/6/6 9/9/9
f 11/11/11 7/7/7 8/8/8
f 11/11/11 8/8/8 12/12/12
f 13/13/13 9/9/9 7/7/7
f 13/13/13 7/7/7 11/11/11
f 14/14/14 10/10/10 9/9/9
f 14/14/14 9/9/9 13/13/13
f 15/15/15 10/10/10 14/14/14
f 16/16/16 11/11/11 12/12/12
f 16/16/16 12/12/12 17/17/17
f 18/18/18 13/13/13 11/11/11
f 18/18/18 11/11/11 16/16/16
f 19/19/19 14/14/14 13/13/13
f 19/19/19 13/13/13 18/18/18
f 20/20/20 15/15/15 14/14/14
f 20/20/20 14/14/14 19/19/19
f 21/21/21 15/15/15 20/20/20
f 22/22/22 21/21/21 20/20/20
f 22/22/22 20/20/20 23/23/23
f 23/23/23 20/20/20 19/19/19
f 24/24/24 22/22/22 23/23/23
f 25/25/25 16/16/16 17/17/17
f 25/25/25 17/17/17 26/26/26
f 27/27/27 18/18/18 16/16/16
f 27/27/27 16/16/16 25/25/25
f 28/28/28 19/19/19 18/18/18
f 23/23/23 19/19/19 28/28/28
f 28/28/28 18/18/18 27/27/27
f 24/24/24 23/23/23 29/29/29
f 29/29/29 23/23/23 28/28/28
f 30/30/30 24/24/24 29/29/29
f 31/31/31 25/25/25 26/26/26
f 31/31/31 26/26/26 32/32/32
f 33/33/33 27/27/27 25/25/25
f 33/33/33 25/25/25 31/31/31
f 34/34/34 28/28/28 27/27/27
f 29/29/29 28/28/28 34/34/34
f 34/34/34 27/27/27 33/33/33
f 30/30/30 29/29/29 35/35/35
f 35/35/35 29/29/29 34/34/34
f 36/36/36 30/30/30 35/35/35
f 37/37/37 31/31/31 32/32/32
f 37/37/37 32/32/32 38/38/38
f 39/39/39 33/33/33 31/31/31
f 39/39/39 31/31/31 37/37/37
f 40/40/40 34/34/34 33/33/33
f 35/35/35 34/34/34 40/40/40
f 40/40/40 33/33/33 39/39/39
f 36/36/36 35/35/35 41/41/41
f 41/41/41 35/35/35 40/40/40
f 42/42/42 36/36/36 41/41/41
f 43/43/43 37/37/37 38/38/38
f 43/43/43 38/38/38 44/44/44
f 45/45/45 39/39/39 37/37/37
f 45/45/45 37/37/37 43/43/43
f 46/46/46 40/40/40 39/39/39
f 41/41/41 40/40/40 46/46/46
f 46/46/46 39/39/39 45/45/45
f 42/42/42 41/41/41 47/47/47
f 47/47/47 41/41/41 46/46/46
f 48/48/48 42/42/42 47/47/47
f 49/49/49 43/43/43 44/44/44
f 49/49/49 44/44/44 50/50/50
f 51/51/51 45/45/45 43/43/43
f 51/51/51 43/43/43 49/49/49
f 52/52/52 46/46/46 45/45/45
f 47/47/47 46/46/46 52/52/52
f 52/52/52 45/45/45 51/51/51
f 48/48/48 47/47/47 53/53/53
f 53/53/53 47/47/47 52/52/52
f 54/54/54 48/48/48 53/53/53
f 55/55/55 49/49/49 50/50/50
f 55/55/55 50/50/50 56/56/56
f 57/57/57 51/51/51 49/49/49
f 57/57/57 49/49/49 55/55/55
f 58/58/58 52/52/52 51/51/51
f 53/53/53 52/52/52 58/58/58
f 58/58/58 51/51/51 57/57/57
f 54/54/54 53/53/53 59/59/59
f 59/59/59 53/53/53 58/58/58
f 60/60/60 54/54/54 59/59/59
f 61/61/61 55/55/55 56/56/56
f 61/61/61 56/56/56 62/62/62
f 63/63/63 57/57/57 55/55/55
f 63/63/63 55/55/55 61/61/61
f 64/64/64 58/58/58 57/57/57
f 59/59/59 58/58/58 64/64/64
f 64/64/64 57/57/57 63/63/63
f 60/60/60 59/59/59 65/65/65
f 65/65/65 59/59/59 64/64/64
f 66/66/66 60/60/60 65/65/65
f 67/67/67 61/61/61 62/62/62
f 67/67/67 62/62/62 68/68/68
f 69/69/69 63/63/63 61/61/61
f 69/69/69 61/61/61 67/67/67
f 70/70/70 64/64/64 63/63/63
f 65/65/65 64/64/64 70/70/70
f 70/70/70 63/63/63 69/69/69
f 66/66/66 65/65/65 71/71/71
f 71/71/71 65/65/65 70/70/70
f 72/72/72 66/66/66 71/71/71
f 73/73/73 67/67/67 68/68/68
f 73/73/73 68/68/68 74/74/74
f 75/75/75 69/69/69 67/67/67
f 75/75/75 67/67/67 73/73/73
f 76/76/76 70/70/70 69/69/69
f 71/71/71 70/70/70 76/76/76
f 76/76/76 69/69/69 75/75/75
f 72/72/72 71/71/71 77/77/77
f 77/77/77 71/71/71 76/76/76
f 78/78/78 72/72/72 77/77/77
f 79/79/79 73/73/73 74/74/74
f 79/79/79 74/74/74 80/80/80
f 81/81/81 75/75/75 73/73/73
f 81/81/81 73/73/73 79/79/79
f 82/82/82 76/76/76 75/75/75
f 77/77/77 76/76/76 82/82/82
f 82/82/82 75/75/75 81/81/81
f 78/78/78 77/77/77 83/83/83
f 83/83/83 77/77/77 82/82/82
f 84/84/84 78/78/78 83/83/83
f 85/85/85 79/79/79 80/80/80
f 85/85/85 80/80/80 86/86/86
f 87/87/87 81/81/81 79/79/79
f 87/87/87 79/79/79 85/85/85
f 88/88/88 82/82/82 81/81/81
f 83/83/83 82/82/82 88/88/88
f 88/88/88 81/81/81 87/87/87
f 84/84/84 83/83/83 89/89/89
f 89/89/89 83/83/83 88/88/88
f 90/90/90 84/84/84 89/89/89
f 91/91/91 85/85/85 86/86/86
f 91/91/91 86/86/86 92/92/92
f 93/93/93 87/87/87 85/85/85
f 93/93/93 85/85/85 91/91/91
f 94/94/94 88/88/88 87/87/87
f 89/89/89 88/88/88 94/94/94
f 94/94/94 87/87/87 93/93/93
f 90/90/90 89/89/89 95/95/95
f 95/95/95 89/89/89 94/94/94
f 96/96/96 90/90/90 95/95/95
f 97/97/97 91/91/91 92/92/92
f 97/97/97 92/92/92 98/98/98
f 99/99/99 97/97/97 98/98/98
f 100/100/100 93/93/93 91/91/91
f 100/100/100 91/91/91 97/97/97
f 101/101/101 94/94/94 93/93/93
f 95/95/95 94/94/94 101/101/101
f 101/101/101 93/93/93 100/100/100
f 96/96/96 95/95/95 102/102/102
f 102/102/102 95/95/95 101/101/101
f 103/103/103 96/96/96 102/102/102
f 104/104/104 97/97/97 99/99/99
f 104/104/104 100/100/100 97/97/97
f 105/105/105 104/104/104 99/99/99
f 106/106/106 101/101/101 100/100/100
f 102/102/102 101/101/101 106/106/106
f 106/106/106 100/100/100 104/104/104
f 103/103/103 102/102/102 107/107/107
f 107/107/107 102/102/102 106/106/106
f 108/108/108 103/103/103 107/107/107
f 109/109/109 104/104/104 105/105/105
f 109/109/109 106/106/106 104/104/104
f 107/107/107 106/106/106 109/109/109
f 110/110/110 109/109/109 105/105/105
f 108/108/108 107/107/107 111/111/111
f 111/111/111 107/107/107 109/109/109
f 111/111/111 109/109/109 110/110/110
f 112/112/112 108/108/108 111/111/111
f 113/113/113 111/111/111 110/110/110
f 112/112/112 111/111/111 113/113/113
f 114/114/114 112/112/112 113/113/113
