g Plane001
v 14.0283155 3.0601325 32.6636505
v 16.1855583 3.61827826 31.9919872
v 11.9151192 4.4252367 32.3775902
v 13.9127522 4.87580442 31.648077
v 19.6769562 7.37930155 29.6927299
v 9.7834816 5.78865767 31.9432468
v 16.8876934 7.98455143 29.6325226
v 21.8479633 12.4410076 26.4210167
v 11.6164179 6.10899115 31.2102375
v 7.63309383 7.17433119 31.3569756
v 18.709446 12.2566252 26.9704151
v 21.6423073 15.3104982 23.4948082
v 14.0403318 8.52218056 29.5503139
v 9.29469776 7.35308599 30.6688747
v 5.4614296 8.60846043 30.6154022
v 18.4594879 14.9305706 24.6189518
v 19.7653008 16.3851662 20.6675816
v 15.4968367 11.8976269 27.4929943
v 11.1358566 9.05099201 29.4279404
v 6.94412041 8.64354992 30.0126553
v 3.26316833 10.1187315 29.7147064
v 4.55935907 10.0155716 29.2280693
v 8.17561054 9.62848186 29.2391262
v 5.16032076 10.3108339 28.9488316
v 16.6462193 16.0874615 22.3860855
v 16.5299606 15.883728 18.3698826
v 15.2477236 14.2802076 25.6367779
v 12.221117 11.4392462 27.9834766
v 8.89279175 10.9611816 28.428194
v 5.52068138 10.5460196 28.7967911
v 13.5945005 15.7840071 20.5381851
v 12.5334253 14.3723602 16.8407192
v 13.5888186 15.4284096 23.8916988
v 12.0175638 13.4404287 26.5605736
v 8.77669525 12.5002356 27.4009743
v 5.52959251 11.5523462 28.1521168
v 9.86257267 14.4181023 19.242857
v 8.56510925 12.3277216 16.0156631
v 10.8067265 15.2745838 22.412508
v 10.5892849 14.5033283 25.2226505
v 7.64124966 13.4108467 26.4125767
v 4.7356348 12.2483006 27.4750423
v 6.12276268 12.407711 18.498188
v 5.25448847 10.05476 15.6862612
v 7.38134766 14.0672493 21.3264561
v 8.14371204 14.4641562 24.0569019
v 5.58252907 13.4560528 25.5171165
v 3.09997511 12.3454638 26.8119316
v 2.91289282 10.0602598 18.1957989
v 2.80839372 7.76852751 15.6578188
v 3.87451077 12.1397953 20.6774788
v 5.05492401 13.4298592 23.1646099
v 2.85039043 12.604784 24.799799
v 0.737010062 11.6787348 26.2442837
v 0.454707891 7.58229065 18.2016678
v 1.05582082 5.00227451 15.8140364
v 0.75846225 9.76811695 20.4292698
v 1.78138578 11.6279783 22.6190014
v -0.192768857 10.9630051 24.3527355
v -2.08052564 10.2221823 25.8788395
v -1.26520264 4.67724943 18.4376907
v 0.195319861 2.76169801 16.0292988
v -1.7153914 7.13847589 20.5001259
v -1.24929428 9.27820301 22.4386215
v -3.14745212 8.67669773 24.2388496
v -4.96898794 8.03579807 25.8158207
v -2.13502169 2.08088994 18.7415886
v 0.0847808719 -0.0942733139 16.2153549
v -3.40698195 4.12198114 20.8358784
v -3.74376416 6.53695917 22.5915394
v -5.66875315 5.8637476 24.4759483
v -7.52427959 5.19053268 26.1232605
v -2.18868566 -0.93478632 19.0491104
v 0.691126823 -2.90529251 16.2580585
v -4.28615427 1.19076455 21.2689991
v -5.41189051 3.43513918 23.0370007
v -7.31869268 2.70156527 25.0320702
v -9.16133499 1.99220705 26.7818871
v -1.51021945 -3.88463259 19.2117405
v 1.37958169 -4.6754756 16.2279949
v -4.28624821 -1.98366809 21.7191963
v -6.29933929 0.18579331 23.6333923
v -8.21255207 -0.851442575 25.8222103
v -10.0593014 -1.8508637 27.794117
v -0.51570648 -6.100595 19.1885967
v 3.15433145 -7.17950583 15.7837172
v -3.54029393 -5.07910061 22.0246239
v -6.24661636 -3.15282297 24.2480927
v -8.10563183 -4.36426687 26.6286449
v -9.89494801 -5.55090475 28.8277836
v 1.45956051 -8.69199944 18.7750835
v 5.42333412 -9.53682899 15.0165386
v -2.26677942 -7.70556831 22.0759182
v -5.43406582 -6.40967226 24.7202606
v -7.22402 -7.80550623 27.2972794
v -8.93925381 -9.20435143 29.7304821
v 3.97339916 -11.1032915 17.9770412
v 8.10098648 -11.746274 13.9301958
v -0.10603229 -10.3766327 21.7258682
v -3.89988947 -9.43672943 24.9085522
v -5.43964243 -11.2450686 27.6854973
v -6.90821171 -13.0864601 30.3828773
v 6.94017792 -13.3430223 16.7827511
v 11.0881233 -13.8070574 12.5639257
v 2.63510656 -12.8231726 20.9324608
v -1.56310308 -12.1935129 24.6551323
v -2.93099618 -14.1055517 27.565834
v -4.22756577 -16.0786152 30.4387627
v 10.2541199 -15.4229479 15.2259731
v 14.2764788 -15.7120667 10.9856081
v 5.87131119 -15.0628958 19.6611443
v 1.39333272 -14.6693602 23.9039211
v 0.2337524 -16.6162357 26.9021225
v -0.857085645 -18.6397667 29.9204922
v 13.7942944 -17.3470459 13.385932
v 17.5558262 -17.4445782 9.27906132
v 9.49034309 -17.1225166 17.9307823
v 4.88430357 -16.8895912 22.5889626
v 3.96948314 -18.8075275 25.585516
v 3.11756325 -20.8016758 28.661171
v 17.433651 -19.104475 11.3741102
v 20.8229809 -18.9790554 7.52942944
v 13.3584032 -19.0213413 15.8279781
v 8.79113483 -18.89785 20.7011127
v 8.15088654 -20.7412663 23.5597935
v 7.56414461 -22.6451283 26.527689
v 21.0506878 -20.6684933 9.3115263
v 23.9887886 -20.2853355 5.81184053
v 17.3311977 -20.7588844 13.4972706
v 12.9669847 -20.7331619 18.3284569
v 12.6180639 -22.4806347 20.905611
v 12.3095016 -24.2617588 23.5785866
v 24.5394459 -22.0011272 7.30684471
v 26.9839401 -21.3350296 4.18484306
v 21.2681084 -22.3101768 11.1070938
v 17.2499161 -22.4103336 15.6562347
v 17.191061 -24.0612221 17.8596573
v 17.1556549 -25.7138348 20.1170959
v 27.8178234 -23.0624027 5.4426055
v 29.7610168 -22.1079159 2.6887126
v 25.0457039 -23.6299381 8.81095219
v 21.4796257 -23.9096203 12.9162254
v 21.6894188 -25.4725838 14.7392082
v 21.9015579 -27.00494 16.5766125
v 30.831686 -23.8211536 3.77077603
v 32.2939339 -22.5967655 1.34660077
v 28.5688725 -24.6650238 6.7213254
v 25.5143757 -25.1791782 10.3209991
v 25.9523888 -26.6571331 11.8340015
v 26.3665028 -28.0728264 13.3470192
v 33.5546761 -24.2641411 2.31498623
v 34.574688 -22.8089619 0.167611867
v 31.7771854 -25.3707695 4.90156651
v 29.2455502 -26.1505032 8.0193882
v 29.8567886 -27.5283203 9.33524609
v 30.4115887 -28.8096485 10.6675453
v 35.9845695 -24.40065 1.07635987
v 36.6082077 -22.7645721 -0.849434972
v 34.6459351 -25.7265034 3.37004113
v 32.6065292 -26.7619514 6.08361292
v 33.3295479 -28.0029049 7.31907272
v 33.9564705 -29.1046257 8.60964298
v 38.1361084 -24.2608967 0.0411606655
v 38.4060783 -22.4910545 -1.71162415
v 37.1818733 -25.7447033 2.11086059
v 35.5757561 -26.9830322 4.51793051
v 36.3529854 -28.0369053 5.76317358
v 36.9874229 -28.8951283 7.10900164
v 40.0325203 -23.8883781 -0.810273767
v 40.9075623 -22.0472641 -2.57201195
v 42.3738899 -23.3968468 -1.49970937
v 39.4140205 -25.4704304 1.08841228
v 38.1718216 -26.8303928 3.27727675
v 38.9607277 -27.6515675 4.57856989
v 39.5553589 -28.2065639 6.01681089
v 41.3818016 -24.9706306 0.264016449
v 43.5586319 -24.4003677 -0.295015723
v 40.4429588 -26.3694935 2.29255271
v 41.224762 -26.9388275 3.65042281
v 41.7613258 -27.1639481 5.16173601
v 42.4503517 -25.6999912 1.49929607
v 44.4592819 -25.0191135 1.02210045
v 43.2347755 -26.0423241 2.8822782
v 43.7308235 -25.9678631 4.41048574
v 45.0728378 -25.2185326 2.4390192
v 45.3941765 -24.9690285 3.96473479
vt 1.00000036 0
vt 0.974342942 0
vt 1.00000036 0.200000003
vt 0.974342942 0.200000003
vt 0.948685527 0
vt 1.00000036 0.400000006
vt 0.948685527 0.200000003
vt 0.923028052 0
vt 0.974342942 0.400000006
vt 1.00000036 0.600000024
vt 0.923028052 0.200000003
vt 0.897370636 0
vt 0.948685527 0.400000006
vt 0.974342942 0.600000024
vt 1.00000036 0.800000012
vt 0.897370636 0.200000003
vt 0.871713221 0
vt 0.923028052 0.400000006
vt 0.948685527 0.600000024
vt 0.974342942 0.800000012
vt 1.00000036 1
vt 0.974342942 1
vt 0.948685527 0.800000012
vt 0.948685527 1
vt 0.871713221 0.200000003
vt 0.846055746 0
vt 0.897370636 0.400000006
vt 0.923028052 0.600000024
vt 0.923028052 0.800000012
vt 0.923028052 1
vt 0.846055746 0.200000003
vt 0.820398331 0
vt 0.871713221 0.400000006
vt 0.897370636 0.600000024
vt 0.897370636 0.800000012
vt 0.897370636 1
vt 0.820398331 0.200000003
vt 0.794740915 0
vt 0.846055746 0.400000006
vt 0.871713221 0.600000024
vt 0.871713221 0.800000012
vt 0.871713221 1
vt 0.794740915 0.200000003
vt 0.76908344 0
vt 0.820398331 0.400000006
vt 0.846055746 0.600000024
vt 0.846055746 0.800000012
vt 0.846055746 1
vt 0.76908344 0.200000003
vt 0.743426025 0
vt 0.794740915 0.400000006
vt 0.820398331 0.600000024
vt 0.820398331 0.800000012
vt 0.820398331 1
vt 0.743426025 0.200000003
vt 0.71776861 0
vt 0.76908344 0.400000006
vt 0.794740915 0.600000024
vt 0.794740915 0.800000012
vt 0.794740915 1
vt 0.71776861 0.200000003
vt 0.692111135 0
vt 0.743426025 0.400000006
vt 0.76908344 0.600000024
vt 0.76908344 0.800000012
vt 0.76908344 1
vt 0.692111135 0.200000003
vt 0.666453719 0
vt 0.71776861 0.400000006
vt 0.743426025 0.600000024
vt 0.743426025 0.800000012
vt 0.743426025 1
vt 0.666453719 0.200000003
vt 0.639005542 0.00436222553
vt 0.692111135 0.400000006
vt 0.71776861 0.600000024
vt 0.71776861 0.800000012
vt 0.71776861 1
vt 0.639005542 0.202617332
vt 0.613571942 0.00436222553
vt 0.666453719 0.400000006
vt 0.692111135 0.600000024
vt 0.692111135 0.800000012
vt 0.692111135 1
vt 0.613571942 0.202617332
vt 0.588138342 0.00436222553
vt 0.639005542 0.400872439
vt 0.666453719 0.600000024
vt 0.666453719 0.800000012
vt 0.666453719 1
vt 0.588138342 0.202617332
vt 0.562704802 0.00436222553
vt 0.613571942 0.400872439
vt 0.639005542 0.599127591
vt 0.639005542 0.797382653
vt 0.639005542 0.995637774
vt 0.562704802 0.202617332
vt 0.537271261 0.00436222553
vt 0.588138342 0.400872439
vt 0.613571942 0.599127591
vt 0.613571942 0.797382653
vt 0.613571942 0.995637774
vt 0.537271261 0.202617332
vt 0.511837721 0.00784497708
vt 0.562704802 0.400872439
vt 0.588138342 0.599127591
vt 0.588138342 0.797382653
vt 0.588138342 0.995637774
vt 0.511837721 0.205403537
vt 0.465201855 0.00784497708
vt 0.537271261 0.400872439
vt 0.562704802 0.599127591
vt 0.562704802 0.797382653
vt 0.562704802 0.995637774
vt 0.465201855 0.205403537
vt 0.418566048 0.00784497708
vt 0.511837721 0.402962089
vt 0.537271261 0.599127591
vt 0.537271261 0.797382653
vt 0.537271261 0.995637774
vt 0.418566048 0.205403537
vt 0.371930271 0.00784497708
vt 0.465201855 0.402962089
vt 0.511837721 0.60052067
vt 0.511837721 0.798079193
vt 0.511837721 0.995637774
vt 0.371930271 0.205403537
vt 0.325294465 0.00784497708
vt 0.418566048 0.402962089
vt 0.465201855 0.60052067
vt 0.465201855 0.798079193
vt 0.465201855 0.995637774
vt 0.325294465 0.205403537
vt 0.278658569 0.00784497708
vt 0.371930271 0.402962089
vt 0.418566048 0.60052067
vt 0.418566048 0.798079193
vt 0.418566048 0.995637774
vt 0.278658569 0.205403537
vt 0.232022807 0.00784497708
vt 0.325294465 0.402962089
vt 0.371930271 0.60052067
vt 0.371930271 0.798079193
vt 0.371930271 0.995637774
vt 0.232022807 0.205403537
vt 0.185387 0.00784497708
vt 0.278658569 0.402962089
vt 0.325294465 0.60052067
vt 0.325294465 0.798079193
vt 0.325294465 0.995637774
vt 0.185387 0.205403537
vt 0.138751149 0.00784497708
vt 0.232022807 0.402962089
vt 0.278658569 0.60052067
vt 0.278658569 0.798079193
vt 0.278658569 0.995637774
vt 0.138751149 0.205403537
vt 0.0921153724 0.00784497708
vt 0.185387 0.402962089
vt 0.232022807 0.60052067
vt 0.232022807 0.798079193
vt 0.232022807 0.995637774
vt 0.0921153724 0.205403537
vt 0.0454795659 0.00784497708
vt 0.138751149 0.402962089
vt 0.185387 0.60052067
vt 0.185387 0.798079193
vt 0.185387 0.995637774
vt 0.0454795659 0.205403537
vt -0.0011562407 0.00784497708
vt -0.0011562407 0.205403537
vt 0.0921153724 0.402962089
vt 0.138751149 0.60052067
vt 0.138751149 0.798079193
vt 0.138751149 0.995637774
vt 0.0454795659 0.402962089
vt -0.0011562407 0.402962089
vt 0.0921153724 0.60052067
vt 0.0921153724 0.798079193
vt 0.0921153724 0.995637774
vt 0.0454795659 0.60052067
vt -0.0011562407 0.60052067
vt 0.0454795659 0.798079193
vt 0.0454795659 0.995637774
vt -0.0011562407 0.798079193
vt -0.0011562407 0.995637774
vn -0.162438214 -0.436855674 -0.884743392
vn -0.129705116 -0.456948668 -0.879985511
vn -0.17601718 -0.527127326 -0.831357241
vn -0.138080925 -0.511829734 -0.847917497
vn -0.0935469344 -0.495129466 -0.863768339
vn -0.192031071 -0.612331986 -0.766924798
vn -0.0841932073 -0.497076005 -0.863612711
vn -0.0931984782 -0.634683907 -0.767131269
vn -0.138300821 -0.571531475 -0.808841527
vn -0.211467654 -0.678521931 -0.703483701
vn -0.096146442 -0.588404894 -0.802829802
vn -0.0721382052 -0.837639213 -0.541439474
vn -0.0679121464 -0.510334074 -0.857290566
vn -0.142463058 -0.622222602 -0.769768298
vn -0.237514123 -0.72883451 -0.642173946
vn -0.0851872414 -0.801785588 -0.591509104
vn 0.0118561741 -0.979452133 -0.201327786
vn -0.0662841871 -0.563368261 -0.823542714
vn -0.0562590286 -0.524071634 -0.849814057
vn -0.152880013 -0.665414214 -0.730651557
vn -0.259801745 -0.766817033 -0.586936712
vn -0.204713851 -0.735682189 -0.645650029
vn -0.0480464213 -0.539525747 -0.840597153
vn -0.0546179526 -0.585746467 -0.808651924
vn 0.0281043593 -0.973043382 -0.228903562
vn 0.147811696 -0.980105221 0.13245894
vn -0.0441565365 -0.7432971 -0.667502522
vn -0.0474631116 -0.544650376 -0.837319136
vn -0.0356023461 -0.532525837 -0.84566462
vn -0.0318040624 -0.520917237 -0.853014469
vn 0.184783578 -0.977698922 0.0997984037
vn 0.279025942 -0.902924538 0.326912284
vn 0.0683034211 -0.930193841 -0.360657901
vn -0.0195912886 -0.689752042 -0.723780572
vn -0.0075504519 -0.646793127 -0.762628138
vn -0.00866037235 -0.61992234 -0.784615397
vn 0.320121288 -0.900506377 0.294296682
vn 0.398382992 -0.811548948 0.427409947
vn 0.221994594 -0.974444509 -0.0342974029
vn 0.0899929553 -0.877301872 -0.471426219
vn 0.0954396129 -0.825258136 -0.556632876
vn 0.101969458 -0.813514292 -0.572535396
vn 0.441082597 -0.801877439 0.403036982
vn 0.513374567 -0.701685309 0.494048953
vn 0.357111752 -0.913393021 0.1954083
vn 0.243287832 -0.95661658 -0.160298586
vn 0.247630954 -0.931114316 -0.267778188
vn 0.271693289 -0.929025948 -0.251184464
vn 0.555884004 -0.679300666 0.479106933
vn 0.627876341 -0.542418718 0.558169603
vn 0.476690114 -0.810656548 0.340003729
vn 0.380879015 -0.919453561 0.097653456
vn 0.389328361 -0.921046436 0.00984496344
vn 0.420945585 -0.905930161 0.0457745306
vn 0.667350531 -0.497048229 0.554604769
vn 0.719143987 -0.33071956 0.611110926
vn 0.58839184 -0.674864233 0.445368767
vn 0.500490308 -0.818304181 0.282644331
vn 0.510555327 -0.826121211 0.238447383
vn 0.540858388 -0.790000319 0.288741529
vn 0.742274106 -0.28212294 0.607812405
vn 0.759140372 -0.123826474 0.639040589
vn 0.691809952 -0.47527343 0.543612063
vn 0.609257102 -0.669553816 0.42485702
vn 0.616009712 -0.662450314 0.426253051
vn 0.637408853 -0.594828129 0.489784986
vn 0.767536938 -0.0666320175 0.637532055
vn 0.756429374 0.0914790779 0.647646725
vn 0.753368497 -0.244293064 0.610538185
vn 0.703605771 -0.449772596 0.550130486
vn 0.697719336 -0.41656813 0.582802355
vn 0.697704315 -0.314858556 0.643484831
vn 0.753460169 0.128918961 0.644730806
vn 0.737596452 0.22703141 0.635930896
vn 0.765001178 -0.0224846639 0.643636346
vn 0.750767052 -0.201639906 0.629039049
vn 0.727784216 -0.149455518 0.669322908
vn 0.711185992 -0.0676426962 0.699742138
vn 0.728288114 0.259816557 0.634107113
vn 0.707192242 0.331884146 0.624285281
vn 0.74049741 0.166364431 0.651142478
vn 0.750915408 0.0242685769 0.659952402
vn 0.71959734 0.0767277479 0.690139592
vn 0.696403265 0.145197168 0.702808738
vn 0.693408608 0.363131642 0.622350276
vn 0.673792481 0.422861516 0.605963588
vn 0.709165394 0.293390095 0.641098022
vn 0.720566392 0.204529062 0.662534356
vn 0.689693332 0.244867146 0.681442022
vn 0.671807051 0.286373407 0.683129311
vn 0.660126448 0.446265638 0.604218662
vn 0.651524484 0.48395732 0.584209919
vn 0.670279443 0.394858658 0.628340781
vn 0.686938763 0.325410098 0.649787128
vn 0.659176469 0.356363922 0.662186563
vn 0.642805099 0.387537003 0.66076982
vn 0.638084054 0.503632188 0.582411587
vn 0.632767677 0.531808078 0.562836885
vn 0.635750115 0.472983569 0.61000675
vn 0.64597863 0.424454719 0.634468138
vn 0.619198322 0.451497197 0.642451286
vn 0.601754427 0.478506774 0.639470816
vn 0.620921254 0.547990084 0.560503006
vn 0.615906119 0.569244862 0.544628322
vn 0.614742994 0.527242839 0.586605549
vn 0.610006869 0.499411911 0.615206718
vn 0.581914961 0.524565995 0.621454298
vn 0.564298928 0.548630774 0.616904318
vn 0.60676223 0.581806779 0.541609228
vn 0.599559367 0.59777683 0.532157421
vn 0.600833714 0.568589687 0.561875939
vn 0.589515328 0.552072048 0.589650691
vn 0.56150502 0.577293396 0.592827559
vn 0.541811109 0.601580918 0.58697629
vn 0.593479156 0.60698688 0.528535187
vn 0.582541227 0.618673861 0.527151167
vn 0.591349483 0.599076629 0.53982687
vn 0.578822672 0.591307759 0.561533213
vn 0.554247499 0.615621924 0.560195684
vn 0.533651948 0.638815701 0.554193079
vn 0.578915238 0.625491023 0.523085356
vn 0.563464046 0.633498728 0.530271173
vn 0.582948387 0.620870888 0.524109304
vn 0.574545324 0.61849004 0.53606689
vn 0.556080341 0.639753163 0.530556798
vn 0.538836896 0.658649623 0.525200546
vn 0.56075424 0.639455378 0.525976658
vn 0.540357232 0.644198596 0.541315258
vn 0.572287321 0.636731207 0.516779065
vn 0.571712852 0.636246145 0.518010795
vn 0.559849083 0.652900994 0.51018548
vn 0.549513698 0.665287733 0.505397618
vn 0.536277533 0.651168048 0.537016451
vn 0.51058042 0.652757943 0.559655786
vn 0.555976748 0.649855614 0.518244743
vn 0.565334499 0.648576319 0.509652555
vn 0.558358014 0.660814464 0.501558185
vn 0.554451287 0.667550325 0.496951103
vn 0.502244949 0.662802398 0.55537641
vn 0.471212447 0.66052562 0.584520817
vn 0.530175567 0.66366905 0.527690649
vn 0.550580084 0.660253465 0.510810137
vn 0.544914305 0.670410395 0.503605366
vn 0.543272495 0.675213397 0.498940736
vn 0.455078185 0.67583859 0.579780996
vn 0.419732869 0.66763258 0.614891052
vn 0.49020502 0.681411028 0.543486893
vn 0.52211988 0.676307678 0.5196141
vn 0.512249887 0.688835144 0.512938797
vn 0.506722629 0.696779966 0.507670939
vn 0.391647637 0.690112472 0.608569622
vn 0.35476473 0.672704995 0.64931494
vn 0.430633664 0.70516628 0.563289583
vn 0.473215699 0.701418459 0.532990634
vn 0.450609565 0.722580016 0.524241507
vn 0.433212876 0.739045858 0.515885413
vn 0.310913771 0.702943146 0.63969022
vn 0.276605964 0.672693133 0.686274767
vn 0.346717775 0.734190881 0.583738446
vn 0.395408541 0.738376617 0.546307683
vn 0.346540779 0.774825513 0.528729498
vn 0.305824518 0.803755045 0.5103423
vn 0.215614274 0.709088504 0.671344817
vn 0.188386202 0.66291821 0.724603355
vn 0.238291681 0.763250947 0.600553989
vn 0.281193793 0.784878373 0.552173853
vn 0.187996998 0.83877784 0.510987997
vn 0.109632239 0.876293957 0.469137192
vn 0.11574246 0.702985764 0.701722622
vn 0.107144177 0.660327077 0.743295431
vn 0.0327403098 0.716994405 0.696309626
vn 0.114327066 0.783276439 0.611070573
vn 0.132800564 0.830424011 0.541073024
vn -0.0157452878 0.891753852 0.452246755
vn -0.136870265 0.918631256 0.370652169
vn 0.0006167799 0.788595796 0.614911675
vn -0.0866046324 0.806841135 0.584385991
vn -0.0274287816 0.860062301 0.50945133
vn -0.214992881 0.910689414 0.352736175
vn -0.355610222 0.906679928 0.226876363
vn -0.150591403 0.872343957 0.465121716
vn -0.236775547 0.885302782 0.400220245
vn -0.33609435 0.910708427 0.240105644
vn -0.465128392 0.882083952 0.0747226179
vn -0.409444928 0.901332974 0.141257122
vn -0.520461023 0.853360593 -0.02993536
g Plane001_0
f 3/3/3 2/2/2 1/1/1
f 2/2/2 3/3/3 4/4/4
f 4/4/4 5/5/5 2/2/2
f 6/6/6 4/4/4 3/3/3
f 5/5/5 4/4/4 7/7/7
f 7/7/7 8/8/8 5/5/5
f 4/4/4 6/6/6 9/9/9
f 9/9/9 7/7/7 4/4/4
f 10/10/10 9/9/9 6/6/6
f 8/8/8 7/7/7 11/11/11
f 11/11/11 12/12/12 8/8/8
f 7/7/7 9/9/9 13/13/13
f 13/13/13 11/11/11 7/7/7
f 9/9/9 10/10/10 14/14/14
f 14/14/14 13/13/13 9/9/9
f 15/15/15 14/14/14 10/10/10
f 12/12/12 11/11/11 16/16/16
f 16/16/16 17/17/17 12/12/12
f 11/11/11 13/13/13 18/18/18
f 18/18/18 16/16/16 11/11/11
f 13/13/13 14/14/14 19/19/19
f 19/19/19 18/18/18 13/13/13
f 14/14/14 15/15/15 20/20/20
f 20/20/20 19/19/19 14/14/14
f 21/21/21 20/20/20 15/15/15
f 20/20/20 21/21/21 22/22/22
f 22/22/22 23/23/23 20/20/20
f 19/19/19 20/20/20 23/23/23
f 23/23/23 22/22/22 24/24/24
f 17/17/17 16/16/16 25/25/25
f 25/25/25 26/26/26 17/17/17
f 16/16/16 18/18/18 27/27/27
f 27/27/27 25/25/25 16/16/16
f 18/18/18 19/19/19 28/28/28
f 23/23/23 28/28/28 19/19/19
f 28/28/28 27/27/27 18/18/18
f 24/24/24 29/29/29 23/23/23
f 28/28/28 23/23/23 29/29/29
f 29/29/29 24/24/24 30/30/30
f 26/26/26 25/25/25 31/31/31
f 31/31/31 32/32/32 26/26/26
f 25/25/25 27/27/27 33/33/33
f 33/33/33 31/31/31 25/25/25
f 27/27/27 28/28/28 34/34/34
f 29/29/29 34/34/34 28/28/28
f 34/34/34 33/33/33 27/27/27
f 30/30/30 35/35/35 29/29/29
f 34/34/34 29/29/29 35/35/35
f 35/35/35 30/30/30 36/36/36
f 32/32/32 31/31/31 37/37/37
f 37/37/37 38/38/38 32/32/32
f 31/31/31 33/33/33 39/39/39
f 39/39/39 37/37/37 31/31/31
f 33/33/33 34/34/34 40/40/40
f 35/35/35 40/40/40 34/34/34
f 40/40/40 39/39/39 33/33/33
f 36/36/36 41/41/41 35/35/35
f 40/40/40 35/35/35 41/41/41
f 41/41/41 36/36/36 42/42/42
f 38/38/38 37/37/37 43/43/43
f 43/43/43 44/44/44 38/38/38
f 37/37/37 39/39/39 45/45/45
f 45/45/45 43/43/43 37/37/37
f 39/39/39 40/40/40 46/46/46
f 41/41/41 46/46/46 40/40/40
f 46/46/46 45/45/45 39/39/39
f 42/42/42 47/47/47 41/41/41
f 46/46/46 41/41/41 47/47/47
f 47/47/47 42/42/42 48/48/48
f 44/44/44 43/43/43 49/49/49
f 49/49/49 50/50/50 44/44/44
f 43/43/43 45/45/45 51/51/51
f 51/51/51 49/49/49 43/43/43
f 45/45/45 46/46/46 52/52/52
f 47/47/47 52/52/52 46/46/46
f 52/52/52 51/51/51 45/45/45
f 48/48/48 53/53/53 47/47/47
f 52/52/52 47/47/47 53/53/53
f 53/53/53 48/48/48 54/54/54
f 50/50/50 49/49/49 55/55/55
f 55/55/55 56/56/56 50/50/50
f 49/49/49 51/51/51 57/57/57
f 57/57/57 55/55/55 49/49/49
f 51/51/51 52/52/52 58/58/58
f 53/53/53 58/58/58 52/52/52
f 58/58/58 57/57/57 51/51/51
f 54/54/54 59/59/59 53/53/53
f 58/58/58 53/53/53 59/59/59
f 59/59/59 54/54/54 60/60/60
f 56/56/56 55/55/55 61/61/61
f 61/61/61 62/62/62 56/56/56
f 55/55/55 57/57/57 63/63/63
f 63/63/63 61/61/61 55/55/55
f 57/57/57 58/58/58 64/64/64
f 59/59/59 64/64/64 58/58/58
f 64/64/64 63/63/63 57/57/57
f 60/60/60 65/65/65 59/59/59
f 64/64/64 59/59/59 65/65/65
f 65/65/65 60/60/60 66/66/66
f 62/62/62 61/61/61 67/67/67
f 67/67/67 68/68/68 62/62/62
f 61/61/61 63/63/63 69/69/69
f 69/69/69 67/67/67 61/61/61
f 63/63/63 64/64/64 70/70/70
f 65/65/65 70/70/70 64/64/64
f 70/70/70 69/69/69 63/63/63
f 66/66/66 71/71/71 65/65/65
f 70/70/70 65/65/65 71/71/71
f 71/71/71 66/66/66 72/72/72
f 68/68/68 67/67/67 73/73/73
f 73/73/73 74/74/74 68/68/68
f 67/67/67 69/69/69 75/75/75
f 75/75/75 73/73/73 67/67/67
f 69/69/69 70/70/70 76/76/76
f 71/71/71 76/76/76 70/70/70
f 76/76/76 75/75/75 69/69/69
f 72/72/72 77/77/77 71/71/71
f 76/76/76 71/71/71 77/77/77
f 77/77/77 72/72/72 78/78/78
f 74/74/74 73/73/73 79/79/79
f 79/79/79 80/80/80 74/74/74
f 73/73/73 75/75/75 81/81/81
f 81/81/81 79/79/79 73/73/73
f 75/75/75 76/76/76 82/82/82
f 77/77/77 82/82/82 76/76/76
f 82/82/82 81/81/81 75/75/75
f 78/78/78 83/83/83 77/77/77
f 82/82/82 77/77/77 83/83/83
f 83/83/83 78/78/78 84/84/84
f 80/80/80 79/79/79 85/85/85
f 85/85/85 86/86/86 80/80/80
f 79/79/79 81/81/81 87/87/87
f 87/87/87 85/85/85 79/79/79
f 81/81/81 82/82/82 88/88/88
f 83/83/83 88/88/88 82/82/82
f 88/88/88 87/87/87 81/81/81
f 84/84/84 89/89/89 83/83/83
f 88/88/88 83/83/83 89/89/89
f 89/89/89 84/84/84 90/90/90
f 86/86/86 85/85/85 91/91/91
f 91/91/91 92/92/92 86/86/86
f 85/85/85 87/87/87 93/93/93
f 93/93/93 91/91/91 85/85/85
f 87/87/87 88/88/88 94/94/94
f 89/89/89 94/94/94 88/88/88
f 94/94/94 93/93/93 87/87/87
f 90/90/90 95/95/95 89/89/89
f 94/94/94 89/89/89 95/95/95
f 95/95/95 90/90/90 96/96/96
f 92/92/92 91/91/91 97/97/97
f 97/97/97 98/98/98 92/92/92
f 91/91/91 93/93/93 99/99/99
f 99/99/99 97/97/97 91/91/91
f 93/93/93 94/94/94 100/100/100
f 95/95/95 100/100/100 94/94/94
f 100/100/100 99/99/99 93/93/93
f 96/96/96 101/101/101 95/95/95
f 100/100/100 95/95/95 101/101/101
f 101/101/101 96/96/96 102/102/102
f 98/98/98 97/97/97 103/103/103
f 103/103/103 104/104/104 98/98/98
f 97/97/97 99/99/99 105/105/105
f 105/105/105 103/103/103 97/97/97
f 99/99/99 100/100/100 106/106/106
f 101/101/101 106/106/106 100/100/100
f 106/106/106 105/105/105 99/99/99
f 102/102/102 107/107/107 101/101/101
f 106/106/106 101/101/101 107/107/107
f 107/107/107 102/102/102 108/108/108
f 104/104/104 103/103/103 109/109/109
f 109/109/109 110/110/110 104/104/104
f 103/103/103 105/105/105 111/111/111
f 111/111/111 109/109/109 103/103/103
f 105/105/105 106/106/106 112/112/112
f 107/107/107 112/112/112 106/106/106
f 112/112/112 111/111/111 105/105/105
f 108/108/108 113/113/113 107/107/107
f 112/112/112 107/107/107 113/113/113
f 113/113/113 108/108/108 114/114/114
f 110/110/110 109/109/109 115/115/115
f 115/115/115 116/116/116 110/110/110
f 109/109/109 111/111/111 117/117/117
f 117/117/117 115/115/115 109/109/109
f 111/111/111 112/112/112 118/118/118
f 113/113/113 118/118/118 112/112/112
f 118/118/118 117/117/117 111/111/111
f 114/114/114 119/119/119 113/113/113
f 118/118/118 113/113/113 119/119/119
f 119/119/119 114/114/114 120/120/120
f 116/116/116 115/115/115 121/121/121
f 121/121/121 122/122/122 116/116/116
f 115/115/115 117/117/117 123/123/123
f 123/123/123 121/121/121 115/115/115
f 117/117/117 118/118/118 124/124/124
f 119/119/119 124/124/124 118/118/118
f 124/124/124 123/123/123 117/117/117
f 120/120/120 125/125/125 119/119/119
f 124/124/124 119/119/119 125/125/125
f 125/125/125 120/120/120 126/126/126
f 122/122/122 121/121/121 127/127/127
f 127/127/127 128/128/128 122/122/122
f 121/121/121 123/123/123 129/129/129
f 129/129/129 127/127/127 121/121/121
f 123/123/123 124/124/124 130/130/130
f 125/125/125 130/130/130 124/124/124
f 130/130/130 129/129/129 123/123/123
f 126/126/126 131/131/131 125/125/125
f 130/130/130 125/125/125 131/131/131
f 131/131/131 126/126/126 132/132/132
f 128/128/128 127/127/127 133/133/133
f 133/133/133 134/134/134 128/128/128
f 127/127/127 129/129/129 135/135/135
f 135/135/135 133/133/133 127/127/127
f 129/129/129 130/130/130 136/136/136
f 131/131/131 136/136/136 130/130/130
f 136/136/136 135/135/135 129/129/129
f 132/132/132 137/137/137 131/131/131
f 136/136/136 131/131/131 137/137/137
f 137/137/137 132/132/132 138/138/138
f 134/134/134 133/133/133 139/139/139
f 139/139/139 140/140/140 134/134/134
f 133/133/133 135/135/135 141/141/141
f 141/141/141 139/139/139 133/133/133
f 135/135/135 136/136/136 142/142/142
f 137/137/137 142/142/142 136/136/136
f 142/142/142 141/141/141 135/135/135
f 138/138/138 143/143/143 137/137/137
f 142/142/142 137/137/137 143/143/143
f 143/143/143 138/138/138 144/144/144
f 140/140/140 139/139/139 145/145/145
f 145/145/145 146/146/146 140/140/140
f 139/139/139 141/141/141 147/147/147
f 147/147/147 145/145/145 139/139/139
f 141/141/141 142/142/142 148/148/148
f 143/143/143 148/148/148 142/142/142
f 148/148/148 147/147/147 141/141/141
f 144/144/144 149/149/149 143/143/143
f 148/148/148 143/143/143 149/149/149
f 149/149/149 144/144/144 150/150/150
f 146/146/146 145/145/145 151/151/151
f 151/151/151 152/152/152 146/146/146
f 145/145/145 147/147/147 153/153/153
f 153/153/153 151/151/151 145/145/145
f 147/147/147 148/148/148 154/154/154
f 149/149/149 154/154/154 148/148/148
f 154/154/154 153/153/153 147/147/147
f 150/150/150 155/155/155 149/149/149
f 154/154/154 149/149/149 155/155/155
f 155/155/155 150/150/150 156/156/156
f 152/152/152 151/151/151 157/157/157
f 157/157/157 158/158/158 152/152/152
f 151/151/151 153/153/153 159/159/159
f 159/159/159 157/157/157 151/151/151
f 153/153/153 154/154/154 160/160/160
f 155/155/155 160/160/160 154/154/154
f 160/160/160 159/159/159 153/153/153
f 156/156/156 161/161/161 155/155/155
f 160/160/160 155/155/155 161/161/161
f 161/161/161 156/156/156 162/162/162
f 158/158/158 157/157/157 163/163/163
f 163/163/163 164/164/164 158/158/158
f 157/157/157 159/159/159 165/165/165
f 165/165/165 163/163/163 157/157/157
f 159/159/159 160/160/160 166/166/166
f 161/161/161 166/166/166 160/160/160
f 166/166/166 165/165/165 159/159/159
f 162/162/162 167/167/167 161/161/161
f 166/166/166 161/161/161 167/167/167
f 167/167/167 162/162/162 168/168/168
f 164/164/164 163/163/163 169/169/169
f 169/169/169 170/170/170 164/164/164
f 170/170/170 169/169/169 171/171/171
f 163/163/163 165/165/165 172/172/172
f 172/172/172 169/169/169 163/163/163
f 165/165/165 166/166/166 173/173/173
f 167/167/167 173/173/173 166/166/166
f 173/173/173 172/172/172 165/165/165
f 168/168/168 174/174/174 167/167/167
f 173/173/173 167/167/167 174/174/174
f 174/174/174 168/168/168 175/175/175
f 176/176/176 171/171/171 169/169/169
f 169/169/169 172/172/172 176/176/176
f 171/171/171 176/176/176 177/177/177
f 172/172/172 173/173/173 178/178/178
f 174/174/174 178/178/178 173/173/173
f 178/178/178 176/176/176 172/172/172
f 175/175/175 179/179/179 174/174/174
f 178/178/178 174/174/174 179/179/179
f 179/179/179 175/175/175 180/180/180
f 181/181/181 177/177/177 176/176/176
f 176/176/176 178/178/178 181/181/181
f 179/179/179 181/181/181 178/178/178
f 177/177/177 181/181/181 182/182/182
f 180/180/180 183/183/183 179/179/179
f 181/181/181 179/179/179 183/183/183
f 183/183/183 182/182/182 181/181/181
f 183/183/183 180/180/180 184/184/184
f 182/182/182 183/183/183 185/185/185
f 184/184/184 185/185/185 183/183/183
f 185/185/185 184/184/184 186/186/186
