g Plane002
v 0.608827651 -0.0160068702 0.00329031819
v 0.496131003 -0.111169167 0.0230100714
v 0.509119928 -0.00852300599 0.00175195572
v 0.593491316 -0.133518964 0.027642088
v 0.708535373 -0.0234907344 0.00482868077
v 0.463791221 -0.209423244 0.0442709327
v 0.690851629 -0.155868769 0.0322741009
v 0.556514442 -0.246067479 0.0519917756
v 0.413234055 -0.299799442 0.0655376539
v 0.649237573 -0.282711715 0.0597126186
v 0.499157965 -0.349803448 0.0763394311
v 0.355307609 -0.367148161 0.0837571919
v 0.585081875 -0.399807453 0.0871412084
v 0.421946466 -0.439761639 0.100684799
v 0.273647308 -0.431138486 0.105061568
v 0.488585353 -0.512375116 0.117612414
v 0.328325838 -0.512450218 0.125027999
v 0.18125163 -0.478387862 0.126383975
v 0.383004367 -0.593761981 0.144994423
v 0.222842574 -0.566375792 0.149369106
v 0.0813762546 -0.507197022 0.14772746
v 0.264433503 -0.654363692 0.172354251
v 0.109102361 -0.599697113 0.173708186
v -0.0081546139 -0.515050173 0.1661544
v 0.136828467 -0.692197204 0.199688911
v -0.00901838299 -0.609824836 0.19804506
v -0.111857124 -0.503018916 0.187580585
v -0.00988215301 -0.7045995 0.229935721
v -0.126707166 -0.595585108 0.222379684
v -0.211446986 -0.471424639 0.209039584
v -0.141557202 -0.6881513 0.257178783
v -0.239605129 -0.559673667 0.246712252
v -0.303393304 -0.42133835 0.230534256
v -0.267763287 -0.647922635 0.284384936
v -0.343857527 -0.50332433 0.271042794
v -0.374343663 -0.363332689 0.249315351
v -0.384321749 -0.58531034 0.311551303
v -0.435304672 -0.427851081 0.295371145
v -0.440224588 -0.281051844 0.270935506
v -0.49626568 -0.492369503 0.341426909
v -0.508936703 -0.334912241 0.319697201
v -0.489317089 -0.187627792 0.292602301
v -0.577648759 -0.388772696 0.368458927
v -0.563910067 -0.229959577 0.344021171
v -0.519838452 -0.0863206238 0.314318508
v -0.638503075 -0.272291362 0.395440042
v -0.598359346 -0.116582833 0.368343145
v -0.530398011 0.00718220323 0.333591193
v -0.67688024 -0.146845028 0.422367811
v -0.61087501 0.00135323696 0.392663032
v -0.519211471 0.113339439 0.355472326
v -0.69135201 -0.00447572954 0.451734871
v -0.597837031 0.119235285 0.416980535
v -0.488037735 0.215612173 0.377412796
v -0.676462591 0.12513113 0.478488773
v -0.563092589 0.232515171 0.441295952
v -0.437898755 0.31039229 0.399414897
v -0.638147354 0.249418184 0.505179107
v -0.507845283 0.337332457 0.465609342
v -0.370448023 0.394307464 0.421480983
v -0.57779187 0.364272594 0.531803787
v -0.43396762 0.430102289 0.489920676
v -0.29436022 0.45572868 0.441506416
v -0.497487217 0.465897143 0.558360398
v -0.342077583 0.505068004 0.514229774
v -0.198818713 0.507339478 0.463779122
v -0.389794946 0.554407358 0.586953104
v -0.237704068 0.561184168 0.538536608
v -0.0949222669 0.540061951 0.486124307
v -0.276589394 0.615028858 0.613294125
v -0.124723919 0.596862793 0.562841475
v 0.0137459273 0.552636743 0.508543909
v -0.154525578 0.653663635 0.639558673
v -0.00698868744 0.610877991 0.587144315
v 0.114730358 0.543313622 0.529314458
v -0.0277233031 0.669119239 0.665744781
v 0.111102894 0.600247264 0.611444831
v 0.22080414 0.512309611 0.551969647
v 0.10747543 0.657180905 0.693575263
v 0.224798009 0.566770852 0.63574326
v 0.319455475 0.461709499 0.574706078
v 0.228791878 0.621232092 0.719516873
v 0.330228388 0.512720644 0.660039604
v 0.407203048 0.393151969 0.597525418
v 0.341001272 0.563731849 0.74537307
v 0.423797131 0.439937949 0.684333861
v 0.475727171 0.312953889 0.619127929
v 0.440391213 0.486723959 0.771142304
v 0.500844359 0.349821657 0.708625913
v 0.530394912 0.214473531 0.642205894
v 0.525961459 0.386689395 0.798123896
v 0.558198333 0.246075317 0.732915878
v 0.565710604 0.107126288 0.665372014
v 0.586001754 0.277677119 0.823625863
v 0.595207512 0.133524373 0.757203758
v 0.580328882 -0.00542603247 0.688627124
v 0.624704361 0.159922466 0.849035501
v 0.610614538 0.0160067659 0.781489491
v 0.640900254 0.0374395624 0.874351799
vt 0.5 0
vt 1 0.03125
vt 1 0
vt 0.5 0.03125
vt 0 0
vt 1 0.0625
vt 0 0.03125
vt 0.5 0.0625
vt 1 0.09375
vt 0 0.0625
vt 0.5 0.09375
vt 1 0.125
vt 0 0.09375
vt 0.5 0.125
vt 1 0.15625
vt 0 0.125
vt 0.5 0.15625
vt 1 0.1875
vt 0 0.15625
vt 0.5 0.1875
vt 1 0.21875
vt 0 0.1875
vt 0.5 0.21875
vt 1 0.25
vt 0 0.21875
vt 0.5 0.25
vt 1 0.28125
vt 0 0.25
vt 0.5 0.28125
vt 1 0.3125
vt 0 0.28125
vt 0.5 0.3125
vt 1 0.34375
vt 0 0.3125
vt 0.5 0.34375
vt 1 0.375
vt 0 0.34375
vt 0.5 0.375
vt 1 0.40625
vt 0 0.375
vt 0.5 0.40625
vt 1 0.4375
vt 0 0.40625
vt 0.5 0.4375
vt 1 0.46875
vt 0 0.4375
vt 0.5 0.46875
vt 1 0.5
vt 0 0.46875
vt 0.5 0.5
vt 1 0.53125
vt 0 0.5
vt 0.5 0.53125
vt 1 0.5625
vt 0 0.53125
vt 0.5 0.5625
vt 1 0.59375
vt 0 0.5625
vt 0.5 0.59375
vt 1 0.625
vt 0 0.59375
vt 0.5 0.625
vt 1 0.65625
vt 0 0.625
vt 0.5 0.65625
vt 1 0.6875
vt 0 0.65625
vt 0.5 0.6875
vt 1 0.71875
vt 0 0.6875
vt 0.5 0.71875
vt 1 0.75
vt 0 0.71875
vt 0.5 0.75
vt 1 0.78125
vt 0 0.75
vt 0.5 0.78125
vt 1 0.8125
vt 0 0.78125
vt 0.5 0.8125
vt 1 0.84375
vt 0 0.8125
vt 0.5 0.84375
vt 1 0.875
vt 0 0.84375
vt 0.5 0.875
vt 1 0.90625
vt 0 0.875
vt 0.5 0.90625
vt 1 0.9375
vt 0 0.90625
vt 0.5 0.9375
vt 1 0.96875
vt 0 0.9375
vt 0.5 0.96875
vt 1 1
vt 0 0.96875
vt 0.5 1
vt 0 1
vn 5.81532186E-05 0.202907711 0.97919786
vn 0.000977606978 0.206832588 0.978375852
vn 4.98241861E-05 0.202854916 0.979208708
vn 0.000986873056 0.206883892 0.978365004
vn 6.59621073E-05 0.202957138 0.979187608
vn 0.0049479655 0.217821822 0.975975931
vn 0.000994816888 0.206928149 0.978355646
vn 0.00485957507 0.217632994 0.976018548
vn 0.0144145107 0.235019594 0.971883714
vn 0.00478354981 0.217470199 0.976055205
vn 0.014159238 0.234589115 0.971991479
vn 0.0317981951 0.254761308 0.966480911
vn 0.0138916736 0.234140098 0.972103655
vn 0.0323362276 0.255219281 0.96634233
vn 0.0591780394 0.275141925 0.959580541
vn 0.032898318 0.25569725 0.966196954
vn 0.0595045984 0.275361806 0.959497333
vn 0.0950709879 0.293118 0.951337636
vn 0.0597879253 0.275552303 0.959425032
vn 0.0946688503 0.292973727 0.951422215
vn 0.141013935 0.307148099 0.941156328
vn 0.0943208039 0.292848796 0.951495171
vn 0.140223548 0.306922346 0.941348016
vn 0.195531383 0.311381429 0.929951191
vn 0.13933745 0.306679368 0.941558778
vn 0.197174788 0.311283976 0.929636657
vn 0.258553147 0.302931696 0.91726917
vn 0.19881615 0.311180025 0.929321826
vn 0.259407133 0.302758634 0.917085111
vn 0.32281369 0.282158881 0.903425574
vn 0.260152876 0.302606523 0.916924059
vn 0.322429746 0.282345951 0.903504193
vn 0.38863638 0.247828096 0.887436211
vn 0.322095782 0.282509059 0.903572321
vn 0.388000369 0.248127893 0.887630701
vn 0.451350242 0.19519724 0.870735943
vn 0.3871966 0.248544827 0.887864888
vn 0.453255206 0.193138704 0.870205224
vn 0.508215368 0.122456528 0.852479577
vn 0.455080092 0.191142201 0.869693518
vn 0.508993268 0.121276155 0.852184176
vn 0.551187158 0.0398013927 0.833431721
vn 0.509677529 0.120233402 0.851922989
vn 0.551121056 0.0400276706 0.833464622
vn 0.581081927 -0.0531836636 0.812105417
vn 0.551064253 0.0402253866 0.833492696
vn 0.580917597 -0.0529764891 0.812236667
vn 0.591404557 -0.159972191 0.790347695
vn 0.580698907 -0.052474983 0.812425435
vn 0.591319144 -0.163956553 0.789594769
vn 0.57818526 -0.27879858 0.766794086
vn 0.591211975 -0.167713538 0.788885593
vn 0.577798307 -0.28068313 0.766398251
vn 0.543843985 -0.389979571 0.743067801
vn 0.577448368 -0.282366812 0.766043425
vn 0.543831885 -0.390065581 0.743031442
vn 0.487093121 -0.497215629 0.717995167
vn 0.543820083 -0.390145957 0.742997944
vn 0.488076359 -0.495722145 0.718360007
vn 0.402198374 -0.603033423 0.688902974
vn 0.488954127 -0.494382948 0.718685865
vn 0.404840708 -0.600278795 0.689760387
vn 0.297459066 -0.689122736 0.660778344
vn 0.407331377 -0.597652733 0.690573871
vn 0.296896428 -0.689397037 0.660745263
vn 0.176386371 -0.752499461 0.634533286
vn 0.29610616 -0.689825237 0.660652936
vn 0.175989196 -0.752683282 0.634425402
vn 0.0421534032 -0.794706762 0.605528116
vn 0.175624162 -0.752852321 0.6343261
vn 0.04350169 -0.794424415 0.605803132
vn -0.10949786 -0.812362611 0.572780252
vn 0.0447282679 -0.79416573 0.606053054
vn -0.106653765 -0.812284768 0.573426843
vn -0.263938576 -0.798669815 0.540798426
vn -0.103875875 -0.812198937 0.574058115
vn -0.265177757 -0.798386812 0.540609956
vn -0.413542718 -0.753920138 0.510476947
vn -0.266565502 -0.798074305 0.540388942
vn -0.414217025 -0.753659248 0.510315597
vn -0.552771032 -0.68240422 0.478297651
vn -0.414845586 -0.753415525 0.510164857
vn -0.552039027 -0.6828776 0.478467286
vn -0.683146775 -0.58059597 0.442965984
vn -0.551360905 -0.683315575 0.478624105
vn -0.681849301 -0.581807613 0.443374932
vn -0.794151783 -0.450516075 0.407870203
vn -0.680544257 -0.583022237 0.443784386
vn -0.795071721 -0.449155718 0.40757823
vn -0.877644241 -0.299848378 0.373940378
vn -0.79602021 -0.447749019 0.407274693
vn -0.877984941 -0.299074501 0.373760492
vn -0.930187523 -0.139870405 0.339392841
vn -0.878307998 -0.298338771 0.373589337
vn -0.930103302 -0.140251681 0.339466274
vn -0.945423245 -0.0570924655 0.320804089
vn -0.930023968 -0.140610531 0.339535117
vn -0.945353329 -0.0576144904 0.320916742
vn -0.945284605 -0.0581254549 0.321026862
g Plane002_0
f 3/3/3 2/2/2 1/1/1
f 2/2/2 4/4/4 1/1/1
f 1/1/1 4/4/4 5/5/5
f 2/2/2 6/6/6 4/4/4
f 4/4/4 7/7/7 5/5/5
f 6/6/6 8/8/8 4/4/4
f 4/4/4 8/8/8 7/7/7
f 6/6/6 9/9/9 8/8/8
f 8/8/8 10/10/10 7/7/7
f 9/9/9 11/11/11 8/8/8
f 8/8/8 11/11/11 10/10/10
f 9/9/9 12/12/12 11/11/11
f 11/11/11 13/13/13 10/10/10
f 12/12/12 14/14/14 11/11/11
f 11/11/11 14/14/14 13/13/13
f 12/12/12 15/15/15 14/14/14
f 14/14/14 16/16/16 13/13/13
f 15/15/15 17/17/17 14/14/14
f 14/14/14 17/17/17 16/16/16
f 15/15/15 18/18/18 17/17/17
f 17/17/17 19/19/19 16/16/16
f 18/18/18 20/20/20 17/17/17
f 17/17/17 20/20/20 19/19/19
f 18/18/18 21/21/21 20/20/20
f 20/20/20 22/22/22 19/19/19
f 21/21/21 23/23/23 20/20/20
f 20/20/20 23/23/23 22/22/22
f 21/21/21 24/24/24 23/23/23
f 23/23/23 25/25/25 22/22/22
f 24/24/24 26/26/26 23/23/23
f 23/23/23 26/26/26 25/25/25
f 24/24/24 27/27/27 26/26/26
f 26/26/26 28/28/28 25/25/25
f 27/27/27 29/29/29 26/26/26
f 26/26/26 29/29/29 28/28/28
f 27/27/27 30/30/30 29/29/29
f 29/29/29 31/31/31 28/28/28
f 30/30/30 32/32/32 29/29/29
f 29/29/29 32/32/32 31/31/31
f 30/30/30 33/33/33 32/32/32
f 32/32/32 34/34/34 31/31/31
f 33/33/33 35/35/35 32/32/32
f 32/32/32 35/35/35 34/34/34
f 33/33/33 36/36/36 35/35/35
f 35/35/35 37/37/37 34/34/34
f 36/36/36 38/38/38 35/35/35
f 35/35/35 38/38/38 37/37/37
f 36/36/36 39/39/39 38/38/38
f 38/38/38 40/40/40 37/37/37
f 39/39/39 41/41/41 38/38/38
f 38/38/38 41/41/41 40/40/40
f 39/39/39 42/42/42 41/41/41
f 41/41/41 43/43/43 40/40/40
f 42/42/42 44/44/44 41/41/41
f 41/41/41 44/44/44 43/43/43
f 42/42/42 45/45/45 44/44/44
f 44/44/44 46/46/46 43/43/43
f 45/45/45 47/47/47 44/44/44
f 44/44/44 47/47/47 46/46/46
f 45/45/45 48/48/48 47/47/47
f 47/47/47 49/49/49 46/46/46
f 48/48/48 50/50/50 47/47/47
f 47/47/47 50/50/50 49/49/49
f 48/48/48 51/51/51 50/50/50
f 50/50/50 52/52/52 49/49/49
f 51/51/51 53/53/53 50/50/50
f 50/50/50 53/53/53 52/52/52
f 51/51/51 54/54/54 53/53/53
f 53/53/53 55/55/55 52/52/52
f 54/54/54 56/56/56 53/53/53
f 53/53/53 56/56/56 55/55/55
f 54/54/54 57/57/57 56/56/56
f 56/56/56 58/58/58 55/55/55
f 57/57/57 59/59/59 56/56/56
f 56/56/56 59/59/59 58/58/58
f 57/57/57 60/60/60 59/59/59
f 59/59/59 61/61/61 58/58/58
f 60/60/60 62/62/62 59/59/59
f 59/59/59 62/62/62 61/61/61
f 60/60/60 63/63/63 62/62/62
f 62/62/62 64/64/64 61/61/61
f 63/63/63 65/65/65 62/62/62
f 62/62/62 65/65/65 64/64/64
f 63/63/63 66/66/66 65/65/65
f 65/65/65 67/67/67 64/64/64
f 66/66/66 68/68/68 65/65/65
f 65/65/65 68/68/68 67/67/67
f 66/66/66 69/69/69 68/68/68
f 68/68/68 70/70/70 67/67/67
f 69/69/69 71/71/71 68/68/68
f 68/68/68 71/71/71 70/70/70
f 69/69/69 72/72/72 71/71/71
f 71/71/71 73/73/73 70/70/70
f 72/72/72 74/74/74 71/71/71
f 71/71/71 74/74/74 73/73/73
f 72/72/72 75/75/75 74/74/74
f 74/74/74 76/76/76 73/73/73
f 75/75/75 77/77/77 74/74/74
f 74/74/74 77/77/77 76/76/76
f 75/75/75 78/78/78 77/77/77
f 77/77/77 79/79/79 76/76/76
f 78/78/78 80/80/80 77/77/77
f 77/77/77 80/80/80 79/79/79
f 78/78/78 81/81/81 80/80/80
f 80/80/80 82/82/82 79/79/79
f 81/81/81 83/83/83 80/80/80
f 80/80/80 83/83/83 82/82/82
f 81/81/81 84/84/84 83/83/83
f 83/83/83 85/85/85 82/82/82
f 84/84/84 86/86/86 83/83/83
f 83/83/83 86/86/86 85/85/85
f 84/84/84 87/87/87 86/86/86
f 86/86/86 88/88/88 85/85/85
f 87/87/87 89/89/89 86/86/86
f 86/86/86 89/89/89 88/88/88
f 87/87/87 90/90/90 89/89/89
f 89/89/89 91/91/91 88/88/88
f 90/90/90 92/92/92 89/89/89
f 89/89/89 92/92/92 91/91/91
f 90/90/90 93/93/93 92/92/92
f 92/92/92 94/94/94 91/91/91
f 93/93/93 95/95/95 92/92/92
f 92/92/92 95/95/95 94/94/94
f 93/93/93 96/96/96 95/95/95
f 95/95/95 97/97/97 94/94/94
f 96/96/96 98/98/98 95/95/95
f 95/95/95 98/98/98 97/97/97
f 98/98/98 99/99/99 97/97/97
