g YiFu2
v -1.72660446 0.49166289 5.60336399
v -1.71134853 0.551801383 5.56881905
v -1.72032821 0.586860299 5.53918076
v -1.79454875 0.524645507 5.54160452
v -1.81601465 0.544093311 5.51282692
v -1.73894572 0.613343954 5.51307011
v -1.83058393 0.575930178 5.48186684
v -1.7650094 0.633754969 5.48083925
v -1.82930076 0.616666079 5.45583868
v -1.79866922 0.641829848 5.45691442
v -1.87473583 0.391209662 5.53233671
v -1.81803834 0.437998503 5.53534222
v -1.79577434 0.480259836 5.52715206
v -1.88882172 0.481695116 5.48954678
v -1.88502526 0.520302057 5.47267771
v -1.78710246 0.521139741 5.5166502
v -1.86843026 0.564296067 5.46110868
v -1.78519249 0.564679027 5.49684572
v -1.83634055 0.602757215 5.46003723
v -1.79901302 0.601013005 5.47711611
v -1.80902886 0.622302771 5.46399355
v -1.87057054 0.574201941 5.47814322
v -1.82857585 0.625943899 5.46223116
v -1.83539689 0.629211903 5.45485878
v -1.87739086 0.577470183 5.47077179
v -1.87645805 0.578796446 5.47806072
v -1.83446419 0.630538404 5.46214914
v -1.89454687 0.555667877 5.48458385
v -1.89778817 0.555683911 5.4736371
v -1.87057054 0.574201941 5.47814322
v -1.82857585 0.625943899 5.46223116
v -1.90107846 0.539562523 5.4836874
v -1.88610518 0.548387587 5.48703051
v -1.88610518 0.548387587 5.48703051
v -1.89778817 0.555683911 5.4736371
v -1.87739086 0.577470183 5.47077179
v -1.85598755 0.563639164 5.50028849
v -1.82882774 0.617853165 5.46839666
v -1.83715439 0.618206322 5.46190786
v -1.86431301 0.563992918 5.49380112
v -1.86268234 0.566944182 5.50046444
v -1.83552384 0.621157587 5.46857119
v -1.87424541 0.542715609 5.51402617
v -1.87890744 0.539870739 5.50400066
v -1.85598755 0.563639164 5.50028849
v -1.82882774 0.617853165 5.46839666
v -1.87719572 0.525846422 5.51712036
v -1.86417127 0.53779161 5.51615143
v -1.86417127 0.53779161 5.51615143
v -1.87890744 0.539870739 5.50400066
v -1.86431301 0.563992918 5.49380112
v -1.87974167 0.589124262 5.46550179
v -1.82013285 0.62289691 5.46581554
v -1.82404733 0.62987113 5.45891571
v -1.88365674 0.59609735 5.45860195
v -1.88351905 0.595543444 5.46604919
v -1.82391107 0.629316032 5.466362
v -1.90943968 0.580299079 5.46539211
v -1.91062784 0.583649457 5.45454264
v -1.87974167 0.589124262 5.46550179
v -1.82013285 0.62289691 5.46581554
v -1.92101669 0.568408132 5.46015692
v -1.90464926 0.570023358 5.46669483
v -1.90464926 0.570023358 5.46669483
v -1.91062784 0.583649457 5.45454264
v -1.88365674 0.59609735 5.45860195
v -1.92046309 0.584733427 5.42829275
v -1.86888361 0.591650963 5.45051575
v -1.84965193 0.688542545 5.40917635
v -1.89644623 0.698644459 5.3777957
v -1.96276927 0.586268485 5.39996767
v -1.94187498 0.694959104 5.3572216
v -2.04793763 0.659569025 5.31508589
v -2.0060544 0.603339434 5.36654329
v -1.87255692 0.527529955 5.46643305
v -1.83552837 0.557842791 5.46522284
v -1.8779434 0.625499606 5.42245245
v -1.92201257 0.60720998 5.41419888
v -1.90895271 0.505581856 5.45934057
v -1.95598829 0.5820086 5.41438961
v -2.02158761 0.50535506 5.42054796
v -1.95441389 0.493207514 5.44798517
v -1.95598829 0.5820086 5.41438961
v -2.0173285 0.509975672 5.42865944
v -2.02158761 0.50535506 5.42054796
v -1.95441389 0.493207514 5.44798517
v -1.95558465 0.499241352 5.45353556
v -1.9162823 0.560081244 5.46163559
v -1.9561578 0.582047701 5.4227252
v -1.90895271 0.505581856 5.45934057
v -1.92297816 0.606833994 5.42240477
v -1.92201257 0.60720998 5.41419888
v -1.91420329 0.514008462 5.46616697
v -1.87255692 0.527529955 5.46643305
v -1.87970579 0.62470907 5.43052578
v -1.8779434 0.625499606 5.42245245
v -1.80156398 0.618648887 5.4544034
v -1.80925214 0.619175315 5.45968723
v -1.83552837 0.557842791 5.46522284
v -1.84033704 0.562863708 5.46979618
v -1.87677109 0.532944262 5.47107267
v -1.94187498 0.694959104 5.3572216
v -2.04540014 0.660987735 5.32686377
v -2.04793763 0.659569025 5.31508589
v -2.0060544 0.603339434 5.36654329
v -2.00649571 0.609755754 5.3739233
v -1.94042981 0.645111442 5.41644382
v -1.9460752 0.694594622 5.36613035
v -1.96276927 0.586268485 5.39996767
v -1.90154815 0.698376358 5.38613033
v -1.89644623 0.698644459 5.3777957
v -1.96627176 0.597570002 5.40789652
v -1.92046309 0.584733427 5.42829275
v -1.85565507 0.688372195 5.41693783
v -1.84965193 0.688542545 5.40917635
v -1.7985363 0.631505132 5.470644
v -1.80791759 0.636562169 5.47354412
v -1.86888361 0.591650963 5.45051575
v -1.8727684 0.599414825 5.45514011
v -1.92361283 0.592510879 5.43333864
v -1.79901302 0.601013005 5.47711611
v -1.81387675 0.619618475 5.47151709
v -1.80902886 0.622302771 5.46399355
v -1.83634055 0.602757215 5.46003723
v -1.83752775 0.602510154 5.46820545
v -1.86843026 0.564296067 5.46110868
v -1.86805105 0.565722108 5.46927929
v -1.88502526 0.520302057 5.47267771
v -1.83854485 0.524345815 5.51595879
v -1.80502379 0.60147202 5.4828558
v -1.88441086 0.522570431 5.48060656
v -1.88882172 0.481695116 5.48954678
v -1.79154766 0.566530228 5.50188875
v -1.78519249 0.564679027 5.49684572
v -1.78710246 0.521139741 5.5166502
v -1.88797224 0.484806359 5.49723387
v -1.87437415 0.400119305 5.53741741
v -1.87473583 0.391209662 5.53233671
v -1.81803834 0.437998503 5.53534222
v -1.82262099 0.443272769 5.53978825
v -1.79577434 0.480259836 5.52715206
v -1.80467582 0.484894902 5.53381872
v -1.79334831 0.523663223 5.52146959
v -1.79454875 0.524645507 5.54160452
v -1.73121941 0.500378728 5.60429049
v -1.72660446 0.49166289 5.60336399
v -1.71134853 0.551801383 5.56881905
v -1.71758866 0.555386961 5.57229662
v -1.77336669 0.58419776 5.54055691
v -1.79513466 0.530982494 5.54653025
v -1.72032821 0.586860299 5.53918076
v -1.81625724 0.54986912 5.51833105
v -1.81601465 0.544093311 5.51282692
v -1.72927213 0.58905977 5.54628181
v -1.73894572 0.613343954 5.51307011
v -1.83048356 0.581145465 5.48794985
v -1.83058393 0.575930178 5.48186684
v -1.82930076 0.616666079 5.45583868
v -1.82142472 0.644491255 5.45120239
v -1.81996703 0.644867003 5.44230986
v -1.79866922 0.641829848 5.45691442
v -1.77050507 0.634483039 5.48665094
v -1.7650094 0.633754969 5.48083925
v -1.74477625 0.614465952 5.51842451
vt 0.621028423 0.354951918
vt 0.642887592 0.347898066
vt 0.65404129 0.337563127
vt 0.625913382 0.323339581
vt 0.630943537 0.311061502
vt 0.661125183 0.326044023
vt 0.64055109 0.299292445
vt 0.666052818 0.311854124
vt 0.65441823 0.291891575
vt 0.665674448 0.298178971
vt 0.621028423 0.354951918
vt 0.642887592 0.347898066
vt 0.65404129 0.337563127
vt 0.625913382 0.323339581
vt 0.630943537 0.311061502
vt 0.661125183 0.326044023
vt 0.64055109 0.299292445
vt 0.666052818 0.311854124
vt 0.65441823 0.291891575
vt 0.665674448 0.298178971
vt 0.664814472 0.289768934
vt 0.830672264 0.52611959
vt 0.82648325 0.505105436
vt 0.823987484 0.505569994
vt 0.828075409 0.52670598
vt 0.825288773 0.527185798
vt 0.821500063 0.50606215
vt 0.82674849 0.535808802
vt 0.830150485 0.535575151
vt 0.822514296 0.527679682
vt 0.818996429 0.506465793
vt 0.827533364 0.541235685
vt 0.833714783 0.538083255
vt 0.823569775 0.537109256
vt 0.819857538 0.538458586
vt 0.819894075 0.52792877
vt 0.830672145 0.526119292
vt 0.82648313 0.505105376
vt 0.823987484 0.505569994
vt 0.828075409 0.52670598
vt 0.825288773 0.527185798
vt 0.821500063 0.50606215
vt 0.82674849 0.535808802
vt 0.830150485 0.535575151
vt 0.822514296 0.527679682
vt 0.818996429 0.506465793
vt 0.827533364 0.541235685
vt 0.833714962 0.538083076
vt 0.823569775 0.537109256
vt 0.819857359 0.538458407
vt 0.819894135 0.527928591
vt 0.830672622 0.52611953
vt 0.826483607 0.505105555
vt 0.823987484 0.505569994
vt 0.828075409 0.52670598
vt 0.825288773 0.527185798
vt 0.821500063 0.50606215
vt 0.82674849 0.535808802
vt 0.830150485 0.535575151
vt 0.822514296 0.527679682
vt 0.818996429 0.506465793
vt 0.827533364 0.541235685
vt 0.833714902 0.538083076
vt 0.823569775 0.537109256
vt 0.819857419 0.538458526
vt 0.819893777 0.527928889
vt 0.661125183 0.326044023
vt 0.666052818 0.311854124
vt 0.64055109 0.299292445
vt 0.630943537 0.311061502
vt 0.65404129 0.337563127
vt 0.625913382 0.323339581
vt 0.621028423 0.354951918
vt 0.642887592 0.347898066
vt 0.661125183 0.326044023
vt 0.666052818 0.311854124
vt 0.64055109 0.299292445
vt 0.630943537 0.311061502
vt 0.65404129 0.337563127
vt 0.625913382 0.323339581
vt 0.621028423 0.354951918
vt 0.642887592 0.347898066
vt 0.763779163 0.740040004
vt 0.763816118 0.757112443
vt 0.765128374 0.758469284
vt 0.752029181 0.755463541
vt 0.752626657 0.754134357
vt 0.751639128 0.741133332
vt 0.762364626 0.740470827
vt 0.74532032 0.749451339
vt 0.759601355 0.733645618
vt 0.760823965 0.732836664
vt 0.74699378 0.748142183
vt 0.741600275 0.742360771
vt 0.754174709 0.727194726
vt 0.755124807 0.726086795
vt 0.740845442 0.721032083
vt 0.741781473 0.7224316
vt 0.738857031 0.734002292
vt 0.740302801 0.733771265
vt 0.742958546 0.741774023
vt 0.763779163 0.740040004
vt 0.763816118 0.757112443
vt 0.765128374 0.758469284
vt 0.752029181 0.755463541
vt 0.752626657 0.754134357
vt 0.751639128 0.741133332
vt 0.762364626 0.740470827
vt 0.74532032 0.749451339
vt 0.759601355 0.733645618
vt 0.760823965 0.732836664
vt 0.74699378 0.748142183
vt 0.741600275 0.742360771
vt 0.754174709 0.727194726
vt 0.755124807 0.726086795
vt 0.740845442 0.721032083
vt 0.741781473 0.7224316
vt 0.738857031 0.734002292
vt 0.740302801 0.733771265
vt 0.742958546 0.741774023
vt 0.739346266 0.725983322
vt 0.741781473 0.7224316
vt 0.740845442 0.721032083
vt 0.747073889 0.721817195
vt 0.746715546 0.723270595
vt 0.755124807 0.726086795
vt 0.754174709 0.727194726
vt 0.760823965 0.732836664
vt 0.750637352 0.738856316
vt 0.740824223 0.726291358
vt 0.759601355 0.733645618
vt 0.763779163 0.740040004
vt 0.740302801 0.733771265
vt 0.738857031 0.734002292
vt 0.741600275 0.742360771
vt 0.762364626 0.740470827
vt 0.763816118 0.757112443
vt 0.765128374 0.758469284
vt 0.752029181 0.755463541
vt 0.752626657 0.754134357
vt 0.74532032 0.749451339
vt 0.74699378 0.748142183
vt 0.742958546 0.741774023
vt 0.763779163 0.740040004
vt 0.763816118 0.757112443
vt 0.765128374 0.758469284
vt 0.752029181 0.755463541
vt 0.752626657 0.754134357
vt 0.751639128 0.741133332
vt 0.762364626 0.740470827
vt 0.74532032 0.749451339
vt 0.759601355 0.733645618
vt 0.760823965 0.732836664
vt 0.74699378 0.748142183
vt 0.741600275 0.742360771
vt 0.754174709 0.727194726
vt 0.755124807 0.726086795
vt 0.747073889 0.721817195
vt 0.741781473 0.7224316
vt 0.740845442 0.721032083
vt 0.739346266 0.725983322
vt 0.740302801 0.733771265
vt 0.738857031 0.734002292
vt 0.742958546 0.741774023
vn 0.414686888 -0.527330279 -0.741591156
vn 0.414686888 -0.527330279 -0.741591156
vn 0.425150484 -0.517584682 -0.742531598
vn 0.424957007 -0.517766654 -0.742515504
vn 0.444590092 -0.514102221 -0.733511209
vn 0.445093006 -0.514259219 -0.733095944
vn 0.446830362 -0.510831654 -0.734434307
vn 0.445415169 -0.507962346 -0.737278581
vn 0.42603755 -0.493932635 -0.757972658
vn 0.425935656 -0.485849172 -0.763236165
vn 0.343348861 -0.355076671 -0.869501054
vn 0.343348861 -0.355076671 -0.869501054
vn 0.356719792 -0.354372233 -0.864390731
vn 0.356472224 -0.354386002 -0.864487231
vn 0.370263159 -0.36720717 -0.853266656
vn 0.370422482 -0.367778271 -0.852951586
vn 0.374799252 -0.36495164 -0.852253377
vn 0.374848783 -0.362708062 -0.853188932
vn 0.375451833 -0.337145299 -0.86334759
vn 0.375489146 -0.338378102 -0.862848878
vn 0.375849605 -0.351644129 -0.857370138
vn 0.793620229 -0.460762262 0.397322416
vn 0.772913218 -0.512107849 0.374634027
vn -0.414087653 0.0566839948 -0.908470333
vn -0.412738949 0.125088409 -0.902219117
vn -0.444605798 0.581969798 0.680908859
vn -0.455312908 0.577833652 0.677346647
vn -0.55485177 0.423947185 0.715827048
vn -0.590403259 0.0296611302 -0.806563258
vn 0.793620229 -0.460762262 0.397322416
vn 0.772913218 -0.512107849 0.374634027
vn -0.526117861 -0.84335798 0.109303571
vn 0.626371086 -0.595285118 0.503284037
vn 0.626371086 -0.595285118 0.503284037
vn -0.590403259 0.0296611302 -0.806563258
vn -0.412738949 0.125088409 -0.902219117
vn 0.922005534 -0.213525787 0.322974682
vn 0.909955323 -0.271384537 0.313578725
vn -0.539042652 -0.209838361 -0.815721095
vn -0.551707685 -0.142551124 -0.821765065
vn -0.460611284 0.617198169 0.637890041
vn -0.470557809 0.610503376 0.637072086
vn -0.52808392 0.452137172 0.718818009
vn -0.68938452 -0.24743852 -0.680825353
vn 0.922005534 -0.213525787 0.322974682
vn 0.909955323 -0.271384537 0.313578725
vn -0.310590923 -0.885255456 0.346202493
vn 0.804285944 -0.351906389 0.478838235
vn 0.804285944 -0.351906389 0.478838235
vn -0.68938452 -0.24743852 -0.680825353
vn -0.551707685 -0.142551124 -0.821765065
vn 0.5022735 -0.795959413 0.337890387
vn 0.468750477 -0.830129564 0.301923752
vn -0.212552816 0.383494556 -0.898750842
vn -0.188088208 0.44364816 -0.876241505
vn -0.31428203 0.56558007 0.762460411
vn -0.325034559 0.566649914 0.757139683
vn -0.477520466 0.458171576 0.749701977
vn -0.401136577 0.40694961 -0.820659161
vn 0.5022735 -0.795959413 0.337890387
vn 0.468750477 -0.830129564 0.301923752
vn -0.801268339 -0.58225596 -0.137648165
vn 0.283301324 -0.873957992 0.394889653
vn 0.283301324 -0.873957992 0.394889653
vn -0.401136577 0.40694961 -0.820659161
vn -0.188088208 0.44364816 -0.876241505
vn 0.435142845 -0.427110672 -0.792607844
vn 0.420318663 -0.43350023 -0.797125936
vn 0.420318693 -0.433500201 -0.797125995
vn 0.435733944 -0.426852286 -0.792422235
vn 0.450816035 -0.411231101 -0.792246163
vn 0.450848728 -0.410989523 -0.792352855
vn 0.452531219 -0.398181558 -0.797914147
vn 0.452531219 -0.398181587 -0.797914147
vn 0.31137836 -0.363076538 -0.878190637
vn 0.301759869 -0.376597643 -0.875851154
vn 0.301759869 -0.376597643 -0.875851154
vn 0.311761826 -0.362532914 -0.878279269
vn 0.315244883 -0.342232108 -0.885154188
vn 0.315106809 -0.342040718 -0.885277212
vn 0.307778001 -0.331892639 -0.891694963
vn 0.30777806 -0.331892699 -0.891694963
vn -0.680939972 0.73226881 -0.0101516051
vn -0.781078756 0.051067505 0.622340739
vn -0.881768882 -0.00585996034 0.471645206
vn -0.207493052 -0.684746861 0.698618889
vn -0.276111811 -0.371103048 0.886591733
vn -0.308427602 0.327594399 0.893058956
vn -0.625123024 0.679152429 0.38467294
vn 0.0854870304 -0.606264532 0.790654957
vn -0.487228036 0.79360199 0.364423901
vn -0.490863234 0.871166825 -0.0110267736
vn -0.0919287875 -0.29409489 0.951344967
vn 0.273690373 -0.488471985 0.828546166
vn -0.252427727 0.879691899 0.403016776
vn -0.176182419 0.983865321 0.0311229527
vn 0.480847776 0.560180306 0.674524486
vn 0.261220515 0.605889022 0.751440108
vn 0.46922338 -0.298971742 0.830930412
vn 0.228191704 -0.0659747645 0.971378267
vn 0.0856497362 -0.204939887 0.975019872
vn -0.183964178 0.982175291 -0.0385866575
vn -0.842720568 0.428084284 0.326444566
vn -0.885814011 0.441809714 0.141907647
vn -0.771504641 -0.503107607 0.389439642
vn -0.755502224 -0.211589083 0.620037496
vn -0.455616653 0.394827843 0.79782474
vn -0.3282049 0.887043953 0.324707091
vn -0.543899894 -0.598200798 0.588497043
vn -0.158479154 0.910982788 0.380781978
vn 0.0300009158 0.997843266 0.0583845973
vn -0.60227865 -0.248371601 0.758664548
vn -0.357326597 -0.601340532 0.714637935
vn 0.0493139811 0.856141746 0.514382422
vn 0.31117636 0.92258805 0.228036404
vn 0.35993135 0.180669785 0.915318429
vn 0.178156942 0.332602769 0.926086068
vn -0.116737448 -0.546060741 0.829572141
vn -0.253578037 -0.228004932 0.940059543
vn -0.431559801 -0.269261628 0.860961318
vn 0.581796944 0.581202984 0.568959892
vn -0.137349486 0.84832567 0.511349857
vn 0.0126202758 0.941009521 0.338144481
vn -0.672458589 0.736131191 -0.0768781602
vn -0.649938583 0.675271988 0.348694026
vn -0.866903007 0.495656997 -0.0529452227
vn -0.787485063 0.520189106 0.330561131
vn -0.971062303 0.23840858 0.0141175138
vn -0.347229809 0.372213334 0.860748887
vn 0.231780604 0.566454768 0.790826619
vn -0.863860309 0.334705532 0.376453817
vn -0.993869901 0.0237022229 0.107984848
vn 0.318526447 0.46658662 0.825128913
vn 0.635302365 0.420166343 0.647959113
vn 0.641160905 0.180747211 0.745817125
vn -0.862203658 0.180891037 0.473163128
vn -0.479697615 -0.235102952 0.845350146
vn -0.522994041 -0.402366936 0.751384079
vn 0.45272848 -0.312661201 0.835032821
vn 0.17950955 -0.0653745309 0.981581569
vn 0.599352002 -0.0338825472 0.79976815
vn 0.237153798 0.122920498 0.963664174
vn 0.312469095 0.296292186 0.902537525
vn -0.783721507 -0.419424921 0.458108395
vn -0.156611517 0.0288631134 0.987238407
vn -0.0984133631 -0.15194802 0.983476698
vn 0.617350161 0.436719418 0.654335439
vn 0.287313461 0.544764161 0.787834406
vn -0.41055873 0.52804774 0.743375421
vn -0.752524674 -0.0699137226 0.654842496
vn 0.557390034 0.685894489 0.46783036
vn -0.8536008 -0.00379602099 0.520913899
vn -0.90607667 -0.306575954 0.291609704
vn 0.221638992 0.706826508 0.671768188
vn 0.453282535 0.828736305 0.328224123
vn -0.907230139 0.159188628 0.389348775
vn -0.988695085 -0.107120946 0.104914784
vn -0.924265742 0.288749784 0.249712572
vn -0.591967404 0.781580627 0.196739018
vn -0.543858945 0.837452531 -0.0537658446
vn 0.0818478242 0.984448791 0.155440181
vn 0.0256355777 0.911400437 0.410721272
vn 0.296022445 0.942170262 0.157117888
vn 0.146080717 0.832021773 0.53516382
g YiFu2_0
f 3/3/3 2/2/2 1/1/1
f 4/4/4 3/3/3 1/1/1
f 4/4/4 5/5/5 3/3/3
f 5/5/5 6/6/6 3/3/3
f 5/5/5 7/7/7 6/6/6
f 7/7/7 8/8/8 6/6/6
f 7/7/7 9/9/9 8/8/8
f 9/9/9 10/10/10 8/8/8
f 13/13/13 12/12/12 11/11/11
f 14/14/14 13/13/13 11/11/11
f 14/14/14 15/15/15 13/13/13
f 15/15/15 16/16/16 13/13/13
f 15/15/15 17/17/17 16/16/16
f 17/17/17 18/18/18 16/16/16
f 17/17/17 19/19/19 18/18/18
f 19/19/19 20/20/20 18/18/18
f 19/19/19 21/21/21 20/20/20
f 24/24/24 23/23/23 22/22/22
f 25/25/25 24/24/24 22/22/22
f 25/25/25 26/26/26 24/24/24
f 26/26/26 27/27/27 24/24/24
f 26/26/26 25/25/25 28/28/28
f 25/25/25 29/29/29 28/28/28
f 26/26/26 30/30/30 27/27/27
f 30/30/30 26/26/26 28/28/28
f 30/30/30 31/31/31 27/27/27
f 32/32/32 28/28/28 29/29/29
f 32/32/32 29/29/29 33/33/33
f 32/32/32 34/34/34 28/28/28
f 34/34/34 30/30/30 28/28/28
f 30/30/30 34/34/34 35/35/35
f 36/36/36 30/30/30 35/35/35
f 39/39/39 38/38/38 37/37/37
f 40/40/40 39/39/39 37/37/37
f 40/40/40 41/41/41 39/39/39
f 41/41/41 42/42/42 39/39/39
f 41/41/41 40/40/40 43/43/43
f 40/40/40 44/44/44 43/43/43
f 41/41/41 45/45/45 42/42/42
f 45/45/45 41/41/41 43/43/43
f 45/45/45 46/46/46 42/42/42
f 47/47/47 43/43/43 44/44/44
f 47/47/47 44/44/44 48/48/48
f 47/47/47 49/49/49 43/43/43
f 49/49/49 45/45/45 43/43/43
f 45/45/45 49/49/49 50/50/50
f 51/51/51 45/45/45 50/50/50
f 54/54/54 53/53/53 52/52/52
f 55/55/55 54/54/54 52/52/52
f 55/55/55 56/56/56 54/54/54
f 56/56/56 57/57/57 54/54/54
f 56/56/56 55/55/55 58/58/58
f 55/55/55 59/59/59 58/58/58
f 56/56/56 60/60/60 57/57/57
f 60/60/60 56/56/56 58/58/58
f 60/60/60 61/61/61 57/57/57
f 62/62/62 58/58/58 59/59/59
f 62/62/62 59/59/59 63/63/63
f 62/62/62 64/64/64 58/58/58
f 64/64/64 60/60/60 58/58/58
f 60/60/60 64/64/64 65/65/65
f 66/66/66 60/60/60 65/65/65
f 69/69/69 68/68/68 67/67/67
f 70/70/70 69/69/69 67/67/67
f 70/70/70 67/67/67 71/71/71
f 72/72/72 70/70/70 71/71/71
f 72/72/72 71/71/71 73/73/73
f 71/71/71 74/74/74 73/73/73
f 77/77/77 76/76/76 75/75/75
f 78/78/78 77/77/77 75/75/75
f 78/78/78 75/75/75 79/79/79
f 80/80/80 78/78/78 79/79/79
f 80/80/80 79/79/79 81/81/81
f 79/79/79 82/82/82 81/81/81
f 85/85/85 84/84/84 83/83/83
f 85/85/85 86/86/86 84/84/84
f 86/86/86 87/87/87 84/84/84
f 88/88/88 84/84/84 87/87/87
f 84/84/84 88/88/88 89/89/89
f 84/84/84 89/89/89 83/83/83
f 86/86/86 90/90/90 87/87/87
f 83/83/83 89/89/89 91/91/91
f 88/88/88 91/91/91 89/89/89
f 92/92/92 83/83/83 91/91/91
f 90/90/90 93/93/93 87/87/87
f 87/87/87 93/93/93 88/88/88
f 90/90/90 94/94/94 93/93/93
f 92/92/92 91/91/91 95/95/95
f 88/88/88 95/95/95 91/91/91
f 96/96/96 92/92/92 95/95/95
f 96/96/96 95/95/95 97/97/97
f 95/95/95 98/98/98 97/97/97
f 98/98/98 95/95/95 88/88/88
f 99/99/99 97/97/97 98/98/98
f 100/100/100 99/99/99 98/98/98
f 99/99/99 100/100/100 94/94/94
f 98/98/98 88/88/88 100/100/100
f 88/88/88 93/93/93 101/101/101
f 94/94/94 101/101/101 93/93/93
f 100/100/100 101/101/101 94/94/94
f 88/88/88 101/101/101 100/100/100
f 104/104/104 103/103/103 102/102/102
f 104/104/104 105/105/105 103/103/103
f 105/105/105 106/106/106 103/103/103
f 107/107/107 103/103/103 106/106/106
f 103/103/103 107/107/107 108/108/108
f 103/103/103 108/108/108 102/102/102
f 105/105/105 109/109/109 106/106/106
f 102/102/102 108/108/108 110/110/110
f 107/107/107 110/110/110 108/108/108
f 111/111/111 102/102/102 110/110/110
f 109/109/109 112/112/112 106/106/106
f 106/106/106 112/112/112 107/107/107
f 109/109/109 113/113/113 112/112/112
f 111/111/111 110/110/110 114/114/114
f 107/107/107 114/114/114 110/110/110
f 115/115/115 111/111/111 114/114/114
f 115/115/115 114/114/114 116/116/116
f 114/114/114 117/117/117 116/116/116
f 117/117/117 114/114/114 107/107/107
f 118/118/118 116/116/116 117/117/117
f 119/119/119 118/118/118 117/117/117
f 118/118/118 119/119/119 113/113/113
f 117/117/117 107/107/107 119/119/119
f 107/107/107 112/112/112 120/120/120
f 113/113/113 120/120/120 112/112/112
f 119/119/119 120/120/120 113/113/113
f 107/107/107 120/120/120 119/119/119
f 123/123/123 122/122/122 121/121/121
f 123/123/123 124/124/124 122/122/122
f 124/124/124 125/125/125 122/122/122
f 124/124/124 126/126/126 125/125/125
f 126/126/126 127/127/127 125/125/125
f 126/126/126 128/128/128 127/127/127
f 129/129/129 122/122/122 125/125/125
f 129/129/129 125/125/125 127/127/127
f 129/129/129 130/130/130 122/122/122
f 122/122/122 130/130/130 121/121/121
f 129/129/129 127/127/127 131/131/131
f 128/128/128 131/131/131 127/127/127
f 128/128/128 132/132/132 131/131/131
f 121/121/121 130/130/130 133/133/133
f 129/129/129 133/133/133 130/130/130
f 134/134/134 121/121/121 133/133/133
f 134/134/134 133/133/133 135/135/135
f 132/132/132 136/136/136 131/131/131
f 129/129/129 131/131/131 136/136/136
f 137/137/137 136/136/136 132/132/132
f 137/137/137 129/129/129 136/136/136
f 138/138/138 137/137/137 132/132/132
f 138/138/138 139/139/139 137/137/137
f 139/139/139 140/140/140 137/137/137
f 129/129/129 137/137/137 140/140/140
f 139/139/139 141/141/141 140/140/140
f 141/141/141 142/142/142 140/140/140
f 141/141/141 135/135/135 142/142/142
f 140/140/140 142/142/142 129/129/129
f 133/133/133 143/143/143 135/135/135
f 129/129/129 143/143/143 133/133/133
f 129/129/129 142/142/142 143/143/143
f 135/135/135 143/143/143 142/142/142
f 146/146/146 145/145/145 144/144/144
f 146/146/146 147/147/147 145/145/145
f 147/147/147 148/148/148 145/145/145
f 149/149/149 145/145/145 148/148/148
f 145/145/145 149/149/149 150/150/150
f 145/145/145 150/150/150 144/144/144
f 147/147/147 151/151/151 148/148/148
f 144/144/144 150/150/150 152/152/152
f 149/149/149 152/152/152 150/150/150
f 153/153/153 144/144/144 152/152/152
f 151/151/151 154/154/154 148/148/148
f 148/148/148 154/154/154 149/149/149
f 151/151/151 155/155/155 154/154/154
f 153/153/153 152/152/152 156/156/156
f 149/149/149 156/156/156 152/152/152
f 157/157/157 153/153/153 156/156/156
f 157/157/157 156/156/156 158/158/158
f 156/156/156 159/159/159 158/158/158
f 159/159/159 156/156/156 149/149/149
f 159/159/159 160/160/160 158/158/158
f 161/161/161 160/160/160 159/159/159
f 161/161/161 159/159/159 162/162/162
f 159/159/159 149/149/149 162/162/162
f 163/163/163 161/161/161 162/162/162
f 163/163/163 162/162/162 155/155/155
f 149/149/149 154/154/154 164/164/164
f 155/155/155 164/164/164 154/154/154
f 162/162/162 164/164/164 155/155/155
f 149/149/149 164/164/164 162/162/162
