g YanJing
v -0.155925348 6.82753658 -0.20514892
v -0.204808846 6.87475157 -0.209273681
v -0.201004177 6.8738718 -0.164857179
v -0.159880877 6.83415079 -0.161389157
v -0.0906618163 6.81543255 -0.189993888
v -0.206026927 6.930161 -0.155531615
v -0.210778803 6.94166231 -0.198187247
v -0.104977548 6.82396936 -0.148636475
v -0.0367672034 6.85123348 -0.168796986
v -0.178988203 6.97795534 -0.139244378
v -0.178637519 6.99847841 -0.178825676
v -0.0596376397 6.85408592 -0.130805656
v -0.0136925373 6.91275787 -0.150966793
v -0.116827637 6.99282503 -0.119166255
v -0.106539495 7.01615143 -0.155559689
v -0.0402252823 6.90584564 -0.115806274
v -0.0415983759 6.97887421 -0.146138906
v -0.0641795844 6.96193457 -0.111821897
v -0.15587616 6.85449409 -0.122512817
v -0.12022686 6.84788322 -0.114232786
v -0.0907900706 6.86743879 -0.102656245
v -0.0781887025 6.90104294 -0.0929193124
v -0.0917851329 6.935534 -0.0900183097
v -0.124592997 6.95751524 -0.0939874277
v -0.182576686 6.88028145 -0.124764405
v -0.168281034 6.94786072 -0.108135983
v -0.185836077 6.91683006 -0.118710935
v -0.129649997 6.8719902 -0.0990716517
v -0.14242658 6.87241936 -0.102409057
v -0.110398993 6.88712215 -0.0910571292
v -0.118218102 6.87723732 -0.0950201377
v -0.137538865 6.89989424 -0.0913989246
v -0.107740641 6.89969158 -0.0879650861
v -0.154023468 6.87844658 -0.104364619
v -0.110769153 6.9124527 -0.0863555893
v -0.162139088 6.8888731 -0.104561768
v -0.118885115 6.92287588 -0.0865484625
v -0.165167615 6.90163517 -0.102952272
v -0.13048172 6.92890263 -0.0885083005
v -0.143258557 6.92933512 -0.0918420404
v -0.154690474 6.92408848 -0.0958935544
v -0.162509307 6.91420078 -0.0998602286
v 0.210778803 6.94166231 -0.198187247
v 0.206026927 6.930161 -0.155531615
v 0.178988203 6.97795534 -0.139244378
v 0.178637519 6.99847841 -0.178825676
v 0.204808846 6.87475157 -0.209273681
v 0.116827637 6.99282503 -0.119166255
v 0.106539495 7.01615143 -0.155559689
v 0.201004177 6.8738718 -0.164857179
v 0.155925348 6.82753658 -0.20514892
v 0.0641795844 6.96193457 -0.111821897
v 0.0415983759 6.97887421 -0.146138906
v 0.159880877 6.83415079 -0.161389157
v 0.0906618163 6.81543255 -0.189993888
v 0.0402252823 6.90584564 -0.115806274
v 0.0136925373 6.91275787 -0.150966793
v 0.104977548 6.82396936 -0.148636475
v 0.0367672034 6.85123348 -0.168796986
v 0.0596376397 6.85408592 -0.130805656
v 0.185836077 6.91683006 -0.118710935
v 0.182576686 6.88028145 -0.124764405
v 0.15587616 6.85449409 -0.122512817
v 0.12022686 6.84788322 -0.114232786
v 0.0907900706 6.86743879 -0.102656245
v 0.0781887025 6.90104294 -0.0929193124
v 0.168281034 6.94786072 -0.108135983
v 0.0917851329 6.935534 -0.0900183097
v 0.124592997 6.95751524 -0.0939874277
v 0.162139088 6.8888731 -0.104561768
v 0.165167615 6.90163517 -0.102952272
v 0.14242658 6.87241936 -0.102409057
v 0.154023468 6.87844658 -0.104364619
v 0.137538865 6.89989424 -0.0913989246
v 0.129649997 6.8719902 -0.0990716517
v 0.162509307 6.91420078 -0.0998602286
v 0.118218102 6.87723732 -0.0950201377
v 0.154690474 6.92408848 -0.0958935544
v 0.110398993 6.88712215 -0.0910571292
v 0.143258557 6.92933512 -0.0918420404
v 0.107740641 6.89969158 -0.0879650861
v 0.13048172 6.92890263 -0.0885083005
v 0.118885115 6.92287588 -0.0865484625
v 0.110769153 6.9124527 -0.0863555893
vt 0.83829999 0.18294999
vt 0.967800021 0.46509999
vt 0.898299992 0.471499979
vt 0.789250016 0.230099991
vt 0.572000027 0.0233999994
vt 0.814599991 0.722849965
vt 0.871450007 0.760200024
vt 0.562849998 0.092550002
vt 0.268150002 0.0868000016
vt 0.60345 0.8829
vt 0.625199974 0.949299991
vt 0.303175002 0.145150006
vt 0.0533000007 0.310900003
vt 0.339774996 0.857225001
vt 0.316049993 0.921000004
vt 0.118699998 0.335299999
vt 0.0475500003 0.62134999
vt 0.112225004 0.60010004
vt 0.677749991 0.331349999
vt 0.538100004 0.245100006
vt 0.377099991 0.276449978
vt 0.261900008 0.393299997
vt 0.256599993 0.557299972
vt 0.396350026 0.717649996
vt 0.744099975 0.481400013
vt 0.559499979 0.734799981
vt 0.691049993 0.636700034
vt 0.516099989 0.369399995
vt 0.567200005 0.391600013
vt 0.411199987 0.397599995
vt 0.460399985 0.371499985
vt 0.493000001 0.492399991
vt 0.378199995 0.442499995
vt 0.603500009 0.433800012
vt 0.367900014 0.497200012
vt 0.617999971 0.487599999
vt 0.382400006 0.550999999
vt 0.60769999 0.542299986
vt 0.41870001 0.593200028
vt 0.469799995 0.615400016
vt 0.5255 0.613200009
vt 0.574699998 0.587199986
vt 0.871450007 0.760200024
vt 0.814599991 0.722849965
vt 0.60345 0.8829
vt 0.625199974 0.949299991
vt 0.967800021 0.46509999
vt 0.339774996 0.857225001
vt 0.316049993 0.921000004
vt 0.898299992 0.471499979
vt 0.83829999 0.18294999
vt 0.112225004 0.60010004
vt 0.0475500003 0.62134999
vt 0.789250016 0.230099991
vt 0.572000027 0.0233999994
vt 0.118699998 0.335299999
vt 0.0533000007 0.310900003
vt 0.562849998 0.092550002
vt 0.268150002 0.0868000016
vt 0.303175002 0.145150006
vt 0.691049993 0.636700034
vt 0.744099975 0.481400013
vt 0.677749991 0.331349999
vt 0.538100004 0.245100006
vt 0.377099991 0.276449978
vt 0.261900008 0.393299997
vt 0.559499979 0.734799981
vt 0.256599993 0.557299972
vt 0.396350026 0.717649996
vt 0.617999971 0.487599999
vt 0.60769999 0.542299986
vt 0.567200005 0.391600013
vt 0.603500009 0.433800012
vt 0.493000001 0.492399991
vt 0.516099989 0.369399995
vt 0.574699998 0.587199986
vt 0.460399985 0.371499985
vt 0.5255 0.613200009
vt 0.411199987 0.397599995
vt 0.469799995 0.615400016
vt 0.378199995 0.442499995
vt 0.41870001 0.593200028
vt 0.382400006 0.550999999
vt 0.367900014 0.497200012
vn -0.4711757 -0.877431393 0.0900423974
vn -0.89756304 -0.435571551 0.0682493374
vn -0.87695384 -0.434068888 0.206243008
vn -0.479038656 -0.847447038 0.228813305
vn 0.118446551 -0.963550389 0.239877298
vn -0.948679447 0.129693896 0.288421065
vn -0.973695755 0.168105304 0.153809234
vn 0.072598584 -0.927526057 0.366639793
vn 0.620444596 -0.66034025 0.423083007
vn -0.626860559 0.6178177 0.474707395
vn -0.634556174 0.687483847 0.35313496
vn 0.541177869 -0.644553423 0.540071785
vn 0.801870227 -0.0738359466 0.592918634
vn -0.0470465161 0.75917989 0.649178386
vn -0.0192171168 0.843037784 0.537510872
vn 0.714774191 -0.0966713801 0.692641616
vn 0.571457982 0.5275684 0.628575683
vn 0.497899592 0.474782854 0.725725293
vn -0.463741064 -0.728507638 0.504203141
vn -0.0325203091 -0.785151541 0.61844933
vn 0.339343727 -0.568762183 0.749236584
vn 0.471317649 -0.142958805 0.870300233
vn 0.32900539 0.295128465 0.897025466
vn -0.101615094 0.53315413 0.83989346
vn -0.771720707 -0.401026577 0.49358362
vn -0.572952986 0.423589617 0.70163846
vn -0.833422303 0.0406730063 0.551137865
vn -0.14591065 -0.538963556 0.829595208
vn -0.289031774 -0.535319269 0.793658614
vn 0.109731965 -0.319619119 0.941170752
vn -0.0182278268 -0.481425077 0.876297712
vn -0.254105955 -0.180103093 0.950259507
vn 0.139003992 -0.178743914 0.974026918
vn -0.478755414 -0.436681777 0.761644542
vn 0.105610482 -0.0363618992 0.993742526
vn -0.568388999 -0.319397599 0.758234203
vn -0.0265458282 0.134512335 0.9905563
vn -0.603421867 -0.17730628 0.777460337
vn -0.0896300226 0.15430288 0.98394978
vn -0.345388234 0.216732234 0.913090467
vn -0.462449223 0.152506426 0.873431385
vn -0.559967399 0.0283120461 0.828030765
vn 0.973695755 0.168105379 0.153808683
vn 0.948679686 0.12969394 0.288420528
vn 0.626860976 0.617818713 0.474705458
vn 0.63455683 0.687485099 0.353131473
vn 0.89756304 -0.435571581 0.0682493523
vn 0.0470467173 0.759182751 0.649175048
vn 0.0192172602 0.843041301 0.537505507
vn 0.87695384 -0.434068978 0.206242591
vn 0.471175522 -0.877431154 0.0900446475
vn -0.497900248 0.474784255 0.725723982
vn -0.571459234 0.527570069 0.62857306
vn 0.479038477 -0.847446799 0.228814438
vn -0.118445724 -0.963547707 0.239888132
vn -0.714772165 -0.0966706052 0.692643881
vn -0.801867902 -0.0738349333 0.592921734
vn -0.0725977495 -0.927522898 0.366648048
vn -0.620441139 -0.660336375 0.423094302
vn -0.541174829 -0.64454937 0.540079653
vn 0.833423018 0.0406731516 0.551136792
vn 0.771721184 -0.401026785 0.493582785
vn 0.463741213 -0.728507638 0.504203081
vn 0.0325207971 -0.785148263 0.618453383
vn -0.339342475 -0.568758786 0.749239683
vn -0.471316218 -0.142958045 0.870301008
vn 0.572953105 0.423589855 0.701638341
vn -0.329004526 0.295128614 0.897025764
vn 0.101614945 0.533154666 0.839893103
vn 0.568388641 -0.319397569 0.75823462
vn 0.603420436 -0.177305683 0.777461529
vn 0.289030164 -0.53531605 0.793661296
vn 0.478755474 -0.436681658 0.761644542
vn 0.254107088 -0.180103779 0.95025897
vn 0.145909801 -0.538958311 0.829598844
vn 0.559973717 0.0283129439 0.828026414
vn 0.0182282794 -0.481420189 0.876300395
vn 0.462452322 0.152506337 0.873429835
vn -0.109729514 -0.31961897 0.941171169
vn 0.345387012 0.21673122 0.913091063
vn -0.139002368 -0.178742036 0.974027574
vn 0.0896308273 0.154301941 0.98394978
vn 0.0265462641 0.134510607 0.990556479
vn -0.105609417 -0.0363616273 0.993742645
g YanJing_0
f 3/3/3 2/2/2 1/1/1
f 4/4/4 3/3/3 1/1/1
f 4/4/4 1/1/1 5/5/5
f 3/3/3 6/6/6 2/2/2
f 6/6/6 7/7/7 2/2/2
f 8/8/8 4/4/4 5/5/5
f 8/8/8 5/5/5 9/9/9
f 6/6/6 10/10/10 7/7/7
f 10/10/10 11/11/11 7/7/7
f 12/12/12 8/8/8 9/9/9
f 12/12/12 9/9/9 13/13/13
f 10/10/10 14/14/14 11/11/11
f 14/14/14 15/15/15 11/11/11
f 16/16/16 12/12/12 13/13/13
f 16/16/16 13/13/13 17/17/17
f 18/18/18 17/17/17 15/15/15
f 14/14/14 18/18/18 15/15/15
f 18/18/18 16/16/16 17/17/17
f 19/19/19 4/4/4 8/8/8
f 20/20/20 8/8/8 12/12/12
f 20/20/20 19/19/19 8/8/8
f 21/21/21 12/12/12 16/16/16
f 21/21/21 20/20/20 12/12/12
f 22/22/22 16/16/16 18/18/18
f 22/22/22 21/21/21 16/16/16
f 23/23/23 18/18/18 14/14/14
f 23/23/23 22/22/22 18/18/18
f 24/24/24 14/14/14 10/10/10
f 24/24/24 23/23/23 14/14/14
f 19/19/19 25/25/25 4/4/4
f 25/25/25 3/3/3 4/4/4
f 26/26/26 24/24/24 10/10/10
f 26/26/26 10/10/10 6/6/6
f 27/27/27 6/6/6 3/3/3
f 25/25/25 27/27/27 3/3/3
f 27/27/27 26/26/26 6/6/6
f 28/28/28 20/20/20 21/21/21
f 29/29/29 19/19/19 20/20/20
f 28/28/28 29/29/29 20/20/20
f 30/30/30 21/21/21 22/22/22
f 31/31/31 28/28/28 21/21/21
f 30/30/30 31/31/31 21/21/21
f 32/32/32 28/28/28 31/31/31
f 32/32/32 29/29/29 28/28/28
f 32/32/32 31/31/31 30/30/30
f 33/33/33 30/30/30 22/22/22
f 32/32/32 30/30/30 33/33/33
f 33/33/33 22/22/22 23/23/23
f 32/32/32 34/34/34 29/29/29
f 29/29/29 34/34/34 19/19/19
f 32/32/32 33/33/33 35/35/35
f 35/35/35 33/33/33 23/23/23
f 32/32/32 36/36/36 34/34/34
f 34/34/34 36/36/36 19/19/19
f 36/36/36 25/25/25 19/19/19
f 37/37/37 35/35/35 23/23/23
f 32/32/32 35/35/35 37/37/37
f 37/37/37 23/23/23 24/24/24
f 36/36/36 38/38/38 25/25/25
f 32/32/32 38/38/38 36/36/36
f 38/38/38 27/27/27 25/25/25
f 39/39/39 37/37/37 24/24/24
f 32/32/32 37/37/37 39/39/39
f 40/40/40 39/39/39 24/24/24
f 32/32/32 39/39/39 40/40/40
f 40/40/40 24/24/24 26/26/26
f 41/41/41 40/40/40 26/26/26
f 41/41/41 26/26/26 27/27/27
f 32/32/32 40/40/40 41/41/41
f 38/38/38 42/42/42 27/27/27
f 42/42/42 41/41/41 27/27/27
f 32/32/32 41/41/41 42/42/42
f 32/32/32 42/42/42 38/38/38
f 45/45/45 44/44/44 43/43/43
f 46/46/46 45/45/45 43/43/43
f 43/43/43 44/44/44 47/47/47
f 48/48/48 45/45/45 46/46/46
f 49/49/49 48/48/48 46/46/46
f 44/44/44 50/50/50 47/47/47
f 47/47/47 50/50/50 51/51/51
f 52/52/52 48/48/48 49/49/49
f 53/53/53 52/52/52 49/49/49
f 50/50/50 54/54/54 51/51/51
f 51/51/51 54/54/54 55/55/55
f 56/56/56 52/52/52 53/53/53
f 57/57/57 56/56/56 53/53/53
f 54/54/54 58/58/58 55/55/55
f 55/55/55 58/58/58 59/59/59
f 59/59/59 60/60/60 57/57/57
f 60/60/60 56/56/56 57/57/57
f 58/58/58 60/60/60 59/59/59
f 44/44/44 61/61/61 50/50/50
f 50/50/50 62/62/62 54/54/54
f 61/61/61 62/62/62 50/50/50
f 54/54/54 63/63/63 58/58/58
f 62/62/62 63/63/63 54/54/54
f 58/58/58 64/64/64 60/60/60
f 63/63/63 64/64/64 58/58/58
f 60/60/60 65/65/65 56/56/56
f 64/64/64 65/65/65 60/60/60
f 56/56/56 66/66/66 52/52/52
f 65/65/65 66/66/66 56/56/56
f 67/67/67 61/61/61 44/44/44
f 45/45/45 67/67/67 44/44/44
f 66/66/66 68/68/68 52/52/52
f 52/52/52 68/68/68 48/48/48
f 48/48/48 69/69/69 45/45/45
f 69/69/69 67/67/67 45/45/45
f 68/68/68 69/69/69 48/48/48
f 62/62/62 70/70/70 63/63/63
f 61/61/61 71/71/71 62/62/62
f 71/71/71 70/70/70 62/62/62
f 63/63/63 72/72/72 64/64/64
f 70/70/70 73/73/73 63/63/63
f 73/73/73 72/72/72 63/63/63
f 70/70/70 74/74/74 73/73/73
f 71/71/71 74/74/74 70/70/70
f 73/73/73 74/74/74 72/72/72
f 72/72/72 75/75/75 64/64/64
f 72/72/72 74/74/74 75/75/75
f 64/64/64 75/75/75 65/65/65
f 76/76/76 74/74/74 71/71/71
f 76/76/76 71/71/71 61/61/61
f 75/75/75 74/74/74 77/77/77
f 75/75/75 77/77/77 65/65/65
f 78/78/78 74/74/74 76/76/76
f 78/78/78 76/76/76 61/61/61
f 67/67/67 78/78/78 61/61/61
f 77/77/77 79/79/79 65/65/65
f 77/77/77 74/74/74 79/79/79
f 65/65/65 79/79/79 66/66/66
f 80/80/80 78/78/78 67/67/67
f 80/80/80 74/74/74 78/78/78
f 69/69/69 80/80/80 67/67/67
f 79/79/79 81/81/81 66/66/66
f 79/79/79 74/74/74 81/81/81
f 66/66/66 81/81/81 68/68/68
f 82/82/82 80/80/80 69/69/69
f 82/82/82 74/74/74 80/80/80
f 83/83/83 82/82/82 69/69/69
f 68/68/68 83/83/83 69/69/69
f 83/83/83 74/74/74 82/82/82
f 81/81/81 84/84/84 68/68/68
f 81/81/81 74/74/74 84/84/84
f 84/84/84 83/83/83 68/68/68
f 84/84/84 74/74/74 83/83/83
