g YanJingTouTie
v -0.188605994 6.88615227 -0.119262084
v -0.179228887 6.89570427 -0.107086182
v -0.181288943 6.87883711 -0.113894649
v -0.175629303 6.87383175 -0.110124506
v -0.186995462 6.89804602 -0.114746705
v -0.192981794 6.89463568 -0.124186397
v -0.169924498 6.8950119 -0.100794673
v -0.166527331 6.8711319 -0.107586667
v -0.192720905 6.90103817 -0.121208496
v -0.196733356 6.90412331 -0.128763422
v -0.192460015 6.90744019 -0.1182312
v -0.185384944 6.90994072 -0.110231318
v -0.177168846 6.91257238 -0.100277707
v -0.164219618 6.91619253 -0.0914648399
v -0.159052804 6.89428759 -0.0960522443
v -0.156614453 6.86938381 -0.103982538
v -0.151578292 6.91744328 -0.0845184326
v -0.145964026 6.8934803 -0.0906030238
v -0.1419525 6.86866999 -0.101332396
v -0.135313585 6.91757488 -0.0772241205
v -0.130305648 6.89097166 -0.0878039524
v -0.125962064 6.87002897 -0.099200435
v -0.119156532 6.91474104 -0.0775952116
v -0.114655718 6.88591337 -0.0891088843
v -0.111945912 6.87161016 -0.0979736298
v -0.100856319 6.90462875 -0.0808343515
v -0.100537509 6.88230991 -0.0901580825
v -0.0946841016 6.87239981 -0.0982623249
v -0.0905320123 6.89500618 -0.0858148187
v -0.0862823054 6.87561226 -0.0945257545
v -0.0742380917 6.86856413 -0.098903805
v -0.0780384392 6.88078499 -0.0923565626
v 0.188605994 6.88615227 -0.119262084
v 0.181288943 6.87883711 -0.113894649
v 0.179228887 6.89570427 -0.107086182
v 0.175629303 6.87383175 -0.110124506
v 0.186995462 6.89804602 -0.114746705
v 0.192981794 6.89463568 -0.124186397
v 0.169924498 6.8950119 -0.100794673
v 0.166527331 6.8711319 -0.107586667
v 0.192720905 6.90103817 -0.121208496
v 0.196733356 6.90412331 -0.128763422
v 0.192460015 6.90744019 -0.1182312
v 0.185384944 6.90994072 -0.110231318
v 0.177168846 6.91257238 -0.100277707
v 0.164219618 6.91619253 -0.0914648399
v 0.159052804 6.89428759 -0.0960522443
v 0.156614468 6.86938381 -0.103982538
v 0.151578277 6.91744328 -0.0845184326
v 0.145964026 6.8934803 -0.0906030238
v 0.1419525 6.86866999 -0.101332396
v 0.135313585 6.91757488 -0.0772241205
v 0.130305648 6.89097166 -0.0878039524
v 0.125962064 6.87002897 -0.099200435
v 0.119156532 6.91474104 -0.0775952116
v 0.114655711 6.88591337 -0.0891088843
v 0.111945905 6.87161016 -0.0979736298
v 0.100856319 6.90462875 -0.0808343515
v 0.100537509 6.88230991 -0.0901580825
v 0.0946841016 6.87239981 -0.0982623249
v 0.0905320123 6.89500618 -0.0858148187
v 0.0862823203 6.87561226 -0.0945257545
v 0.0742380768 6.86856413 -0.098903805
v 0.0780384392 6.88078499 -0.0923565626
vt 0.0926000029 0.472799987
vt 0.1215 0.513549984
vt 0.135700002 0.452399999
vt 0.209999993 0.427399993
vt 0.0732000023 0.511299968
vt 0.0430000015 0.49180001
vt 0.194150001 0.515450001
vt 0.270700008 0.408300012
vt 0.0311000012 0.508000016
vt 0.00800000038 0.507499993
vt 0.0192000009 0.524200022
vt 0.0538000017 0.549799979
vt 0.107299998 0.574699998
vt 0.178299993 0.603500009
vt 0.283299983 0.523100019
vt 0.386599988 0.386799991
vt 0.295899987 0.637899995
vt 0.419349998 0.531199992
vt 0.512199998 0.385399997
vt 0.452100009 0.675599992
vt 0.543250024 0.532350004
vt 0.619700015 0.393299997
vt 0.574299991 0.67930001
vt 0.654999971 0.522199988
vt 0.741299987 0.414999992
vt 0.690299988 0.65109998
vt 0.786949992 0.495199978
vt 0.875800014 0.395300001
vt 0.832599998 0.575399995
vt 0.90534997 0.429350019
vt 0.989899993 0.349400014
vt 0.934899986 0.463400006
vt 0.0926000029 0.472799987
vt 0.135700002 0.452399999
vt 0.1215 0.513549984
vt 0.209999993 0.427399993
vt 0.0732000023 0.511299968
vt 0.0430000015 0.49180001
vt 0.194150001 0.515450001
vt 0.270700008 0.408300012
vt 0.0311000012 0.508000016
vt 0.00800000038 0.507499993
vt 0.0192000009 0.524200022
vt 0.0538000017 0.549799979
vt 0.107299998 0.574699998
vt 0.178299993 0.603500009
vt 0.283299983 0.523100019
vt 0.386599988 0.386799991
vt 0.295899987 0.637899995
vt 0.419349998 0.531199992
vt 0.512199998 0.385399997
vt 0.452100009 0.675599992
vt 0.543250024 0.532350004
vt 0.619700015 0.393299997
vt 0.574299991 0.67930001
vt 0.654999971 0.522199988
vt 0.741299987 0.414999992
vt 0.690299988 0.65109998
vt 0.786949992 0.495199978
vt 0.875800014 0.395300001
vt 0.832599998 0.575399995
vt 0.90534997 0.429350019
vt 0.989899993 0.349400014
vt 0.934899986 0.463400006
vn -0.744425535 -0.169564635 0.645816207
vn -0.646325111 -0.197988465 0.736929059
vn -0.64285785 -0.196023047 0.740478694
vn -0.48513785 -0.258521229 0.835348964
vn -0.746389627 -0.172457054 0.642776191
vn -0.839719832 -0.15196611 0.52132231
vn -0.474410027 -0.261681557 0.840510547
vn -0.37435323 -0.307644278 0.874765575
vn -0.842217147 -0.163617104 0.513711631
vn -0.897319555 -0.155549303 0.413064271
vn -0.791146517 -0.181187868 0.584173024
vn -0.731794298 -0.175113231 0.658644319
vn -0.594544351 -0.218480825 0.773810804
vn -0.454074532 -0.268183917 0.84964329
vn -0.391864181 -0.300902069 0.869425356
vn -0.313744515 -0.354303539 0.880927563
vn -0.397308141 -0.300597936 0.867056608
vn -0.280929804 -0.360905707 0.889283717
vn -0.162836283 -0.441434532 0.882394433
vn -0.227917105 -0.362719804 0.903597414
vn -0.112177528 -0.41904369 0.901009738
vn -0.0696479231 -0.501569927 0.862308979
vn -0.0876880065 -0.382389635 0.919830918
vn -0.0393547341 -0.449965805 0.892178178
vn -0.0337314829 -0.559404433 0.828208208
vn -0.0142237851 -0.380815834 0.924541473
vn 0.0112789171 -0.488764048 0.872343183
vn -0.0236398 -0.635882378 0.771423876
vn 0.0379121117 -0.390597492 0.919780493
vn -0.00102717557 -0.531224251 0.847230613
vn -0.00315689621 -0.531567156 0.847010314
vn 0.0587760769 -0.425398946 0.903095245
vn 0.744425654 -0.169565037 0.645815849
vn 0.64285779 -0.196023107 0.740478694
vn 0.646325052 -0.19798857 0.736929059
vn 0.485137701 -0.25852105 0.835349262
vn 0.746389747 -0.172457039 0.642775953
vn 0.839719594 -0.151966751 0.521322489
vn 0.474409699 -0.261681646 0.840510666
vn 0.37435326 -0.30764398 0.874765575
vn 0.842217267 -0.163616508 0.513711751
vn 0.897319436 -0.155548185 0.413064688
vn 0.791146815 -0.181186497 0.584173083
vn 0.731794536 -0.175112918 0.658644319
vn 0.594543993 -0.218481153 0.773810923
vn 0.454074264 -0.268184304 0.84964335
vn 0.391864151 -0.300901949 0.869425356
vn 0.313744634 -0.35430342 0.880927563
vn 0.397308171 -0.300597906 0.867056608
vn 0.280929923 -0.360905677 0.889283717
vn 0.162836224 -0.441434473 0.882394433
vn 0.227917194 -0.362719715 0.903597414
vn 0.112177506 -0.419043571 0.901009738
vn 0.0696479082 -0.501569927 0.862308979
vn 0.0876880065 -0.382389635 0.919830918
vn 0.0393547229 -0.449965864 0.892178178
vn 0.0337314829 -0.559404492 0.828208208
vn 0.0142237879 -0.380815804 0.924541473
vn -0.0112789171 -0.488764048 0.872343063
vn 0.0236398056 -0.635882378 0.771423876
vn -0.0379121229 -0.390597552 0.919780493
vn 0.001027202 -0.53122437 0.847230494
vn 0.0031568713 -0.531567156 0.847010314
vn -0.0587760434 -0.425399035 0.903095245
g YanJingTouTie_0
f 3/3/3 2/2/2 1/1/1
f 2/2/2 3/3/3 4/4/4
f 2/2/2 5/5/5 1/1/1
f 1/1/1 5/5/5 6/6/6
f 7/7/7 2/2/2 4/4/4
f 7/7/7 4/4/4 8/8/8
f 5/5/5 9/9/9 6/6/6
f 9/9/9 10/10/10 6/6/6
f 9/9/9 11/11/11 10/10/10
f 11/11/11 9/9/9 5/5/5
f 12/12/12 11/11/11 5/5/5
f 12/12/12 5/5/5 2/2/2
f 13/13/13 12/12/12 2/2/2
f 13/13/13 2/2/2 7/7/7
f 14/14/14 13/13/13 7/7/7
f 15/15/15 7/7/7 8/8/8
f 14/14/14 7/7/7 15/15/15
f 15/15/15 8/8/8 16/16/16
f 17/17/17 14/14/14 15/15/15
f 18/18/18 15/15/15 16/16/16
f 17/17/17 15/15/15 18/18/18
f 18/18/18 16/16/16 19/19/19
f 20/20/20 17/17/17 18/18/18
f 21/21/21 18/18/18 19/19/19
f 20/20/20 18/18/18 21/21/21
f 21/21/21 19/19/19 22/22/22
f 23/23/23 20/20/20 21/21/21
f 24/24/24 21/21/21 22/22/22
f 23/23/23 21/21/21 24/24/24
f 24/24/24 22/22/22 25/25/25
f 26/26/26 23/23/23 24/24/24
f 27/27/27 24/24/24 25/25/25
f 26/26/26 24/24/24 27/27/27
f 27/27/27 25/25/25 28/28/28
f 29/29/29 26/26/26 27/27/27
f 30/30/30 27/27/27 28/28/28
f 29/29/29 27/27/27 30/30/30
f 30/30/30 28/28/28 31/31/31
f 32/32/32 29/29/29 30/30/30
f 32/32/32 30/30/30 31/31/31
f 35/35/35 34/34/34 33/33/33
f 36/36/36 34/34/34 35/35/35
f 37/37/37 35/35/35 33/33/33
f 37/37/37 33/33/33 38/38/38
f 39/39/39 36/36/36 35/35/35
f 40/40/40 36/36/36 39/39/39
f 41/41/41 37/37/37 38/38/38
f 42/42/42 41/41/41 38/38/38
f 43/43/43 41/41/41 42/42/42
f 37/37/37 41/41/41 43/43/43
f 44/44/44 37/37/37 43/43/43
f 35/35/35 37/37/37 44/44/44
f 45/45/45 35/35/35 44/44/44
f 39/39/39 35/35/35 45/45/45
f 46/46/46 39/39/39 45/45/45
f 47/47/47 40/40/40 39/39/39
f 47/47/47 39/39/39 46/46/46
f 40/40/40 47/47/47 48/48/48
f 49/49/49 47/47/47 46/46/46
f 47/47/47 50/50/50 48/48/48
f 50/50/50 47/47/47 49/49/49
f 48/48/48 50/50/50 51/51/51
f 52/52/52 50/50/50 49/49/49
f 50/50/50 53/53/53 51/51/51
f 53/53/53 50/50/50 52/52/52
f 51/51/51 53/53/53 54/54/54
f 55/55/55 53/53/53 52/52/52
f 53/53/53 56/56/56 54/54/54
f 56/56/56 53/53/53 55/55/55
f 54/54/54 56/56/56 57/57/57
f 58/58/58 56/56/56 55/55/55
f 56/56/56 59/59/59 57/57/57
f 59/59/59 56/56/56 58/58/58
f 57/57/57 59/59/59 60/60/60
f 61/61/61 59/59/59 58/58/58
f 59/59/59 62/62/62 60/60/60
f 62/62/62 59/59/59 61/61/61
f 60/60/60 62/62/62 63/63/63
f 64/64/64 62/62/62 61/61/61
f 62/62/62 64/64/64 63/63/63
