g YanJing
v -0.204808846 6.87475157 -0.209273681
v -0.215448141 6.9195838 -0.203619987
v -0.214591801 6.91412592 -0.174137563
v -0.204812199 6.8729248 -0.179333493
v -0.176294118 6.83812284 -0.208588868
v -0.20600757 6.95470428 -0.164151609
v -0.206109464 6.96374083 -0.192755118
v -0.178609118 6.83926153 -0.178706661
v -0.135556564 6.81694984 -0.201708972
v -0.180762723 6.98662472 -0.151353762
v -0.178637519 6.99847841 -0.178825676
v -0.141171828 6.81980562 -0.172380984
v -0.0906618163 6.81543255 -0.189993888
v -0.14385733 7.00356722 -0.138272703
v -0.13847889 7.01691341 -0.164592892
v -0.0999128893 6.81841183 -0.161613151
v -0.0505031869 6.83386707 -0.175761104
v -0.102598377 7.00216961 -0.127505496
v -0.0935841128 7.01539087 -0.152878419
v -0.0630071983 6.83535099 -0.148535758
v -0.0230312198 6.86860037 -0.161832273
v -0.065160796 6.98271418 -0.12118347
v -0.0528465919 6.99422169 -0.145997927
v -0.0377626531 6.86727047 -0.135734856
v -0.0136925373 6.91275787 -0.150966793
v -0.0389577113 6.94905519 -0.120556638
v -0.0243318379 6.95759392 -0.145313114
v -0.029178394 6.90785313 -0.125748903
v -0.112273246 6.98220205 -0.107323609
v -0.0811675042 6.96603584 -0.102066651
v -0.0593956634 6.9380703 -0.10154663
v -0.0512721613 6.90383816 -0.105864257
v -0.0584025383 6.87012196 -0.11416015
v -0.0793781728 6.84360027 -0.12479309
v -0.146549627 6.9833622 -0.116267696
v -0.110042185 6.82952738 -0.135659784
v -0.177213669 6.96928501 -0.127134398
v -0.144318268 6.83068848 -0.144608155
v -0.198188975 6.94276428 -0.137770995
v -0.175424322 6.84685087 -0.149860829
v -0.205319375 6.9090476 -0.146066889
v -0.197196141 6.87481928 -0.15038085
v -0.14634715 6.95792913 -0.100363769
v -0.168281034 6.94785976 -0.108135983
v -0.183286875 6.92889166 -0.115744628
v -0.188385293 6.90476847 -0.121677853
v -0.182576686 6.88028145 -0.124764405
v -0.167001128 6.86027575 -0.124392085
v -0.121822849 6.95709991 -0.0939630121
v -0.144751161 6.84871149 -0.120634153
v -0.099572897 6.94553614 -0.0902044624
v -0.12022686 6.84788322 -0.114232786
v -0.0839973614 6.92553091 -0.0898321494
v -0.0982929841 6.85795164 -0.106460571
v -0.0781887025 6.90104294 -0.0929193124
v -0.083287172 6.87692499 -0.0988519266
v -0.118885115 6.92287588 -0.0865484625
v -0.110769153 6.9124527 -0.0863555893
v -0.107740641 6.89969158 -0.0879650861
v -0.110398993 6.88712215 -0.0910571292
v -0.137538865 6.89989424 -0.0913989246
v -0.13048172 6.92890263 -0.0885083005
v -0.118218102 6.87723732 -0.0950201377
v -0.143258557 6.92933512 -0.0918420404
v -0.129649997 6.8719902 -0.0990716517
v -0.154690474 6.92408848 -0.0958935544
v -0.14242658 6.87241936 -0.102409057
v -0.162509307 6.91420078 -0.0998602286
v -0.154023468 6.87844658 -0.104364619
v -0.165167615 6.90163517 -0.102952272
v -0.162139088 6.8888731 -0.104561768
v 0.204808846 6.87475157 -0.209273681
v 0.214591801 6.91412592 -0.174137563
v 0.215448141 6.9195838 -0.203619987
v 0.204812199 6.8729248 -0.179333493
v 0.176294118 6.83812284 -0.208588868
v 0.20600757 6.95470428 -0.164151609
v 0.206109464 6.96374083 -0.192755118
v 0.178609118 6.83926153 -0.178706661
v 0.135556564 6.81694984 -0.201708972
v 0.180762723 6.98662472 -0.151353762
v 0.178637519 6.99847841 -0.178825676
v 0.141171828 6.81980562 -0.172380984
v 0.0906618163 6.81543255 -0.189993888
v 0.14385733 7.00356722 -0.138272703
v 0.13847889 7.01691341 -0.164592892
v 0.0999128893 6.81841183 -0.161613151
v 0.0505031869 6.83386707 -0.175761104
v 0.102598377 7.00216961 -0.127505496
v 0.0935841128 7.01539087 -0.152878419
v 0.0630071983 6.83535099 -0.148535758
v 0.0230312198 6.86860037 -0.161832273
v 0.065160796 6.98271418 -0.12118347
v 0.0528465919 6.99422216 -0.145997927
v 0.0377626531 6.86727047 -0.135734856
v 0.0136925373 6.91275787 -0.150966793
v 0.0389577113 6.94905519 -0.120556638
v 0.0243318379 6.95759392 -0.145313114
v 0.029178394 6.90785313 -0.125748903
v 0.112273246 6.98220205 -0.107323609
v 0.0811675042 6.96603584 -0.102066651
v 0.0593956634 6.9380703 -0.10154663
v 0.0512721613 6.90383816 -0.105864257
v 0.0584025383 6.87012196 -0.11416015
v 0.0793781728 6.84360027 -0.12479309
v 0.146549627 6.9833622 -0.116267696
v 0.110042185 6.82952738 -0.135659784
v 0.177213669 6.96928501 -0.127134398
v 0.144318268 6.83068848 -0.144608155
v 0.198188975 6.94276428 -0.137770995
v 0.175424322 6.84685087 -0.149860829
v 0.205319375 6.9090476 -0.146066889
v 0.197196141 6.87481928 -0.15038085
v 0.14634715 6.95792913 -0.100363769
v 0.168281034 6.94785976 -0.108135983
v 0.183286875 6.92889166 -0.115744628
v 0.188385293 6.90476847 -0.121677853
v 0.182576686 6.88028145 -0.124764405
v 0.167001128 6.86027575 -0.124392085
v 0.121822849 6.95709991 -0.0939630121
v 0.144751161 6.84871149 -0.120634153
v 0.099572897 6.94553614 -0.0902044624
v 0.12022686 6.84788322 -0.114232786
v 0.0839973614 6.92553091 -0.0898321494
v 0.0982929841 6.85795164 -0.106460571
v 0.0781887025 6.90104294 -0.0929193124
v 0.083287172 6.87692499 -0.0988519266
v 0.118885115 6.92287588 -0.0865484625
v 0.110769153 6.9124527 -0.0863555893
v 0.107740641 6.89969158 -0.0879650861
v 0.110398993 6.88712215 -0.0910571292
v 0.137538865 6.89989424 -0.0913989246
v 0.13048172 6.92890263 -0.0885083005
v 0.118218102 6.87723732 -0.0950201377
v 0.143258557 6.92933512 -0.0918420404
v 0.129649997 6.8719902 -0.0990716517
v 0.154690474 6.92408848 -0.0958935544
v 0.14242658 6.87241936 -0.102409057
v 0.162509307 6.91420078 -0.0998602286
v 0.154023468 6.87844658 -0.104364619
v 0.165167615 6.90163517 -0.102952272
v 0.162139088 6.8888731 -0.104561768
vt 0.967800021 0.46509999
vt 0.932600021 0.673799992
vt 0.890900016 0.658299983
vt 0.923500001 0.469199985
vt 0.908900023 0.261799991
vt 0.779500008 0.814499974
vt 0.810299993 0.846599996
vt 0.870800018 0.284700006
vt 0.767700016 0.104099996
vt 0.611299992 0.906899989
vt 0.625199974 0.949299991
vt 0.743300021 0.141399994
vt 0.572000027 0.0233999994
vt 0.419699997 0.917200029
vt 0.413899988 0.961399972
vt 0.566200018 0.0675000027
vt 0.360700011 0.0355000012
vt 0.242599994 0.843400002
vt 0.218199998 0.880599976
vt 0.374599993 0.0777999982
vt 0.175600007 0.138099998
vt 0.115099996 0.699999988
vt 0.0769999996 0.72299999
vt 0.206400007 0.170200005
vt 0.0533000007 0.310900003
vt 0.0625 0.515500009
vt 0.0181000009 0.519699991
vt 0.0949999988 0.326499999
vt 0.270399988 0.801199973
vt 0.158500001 0.674000025
vt 0.112800002 0.510900021
vt 0.142399997 0.344099998
vt 0.241400003 0.206699997
vt 0.390300006 0.1259
vt 0.426400006 0.8671
vt 0.559499979 0.117600001
vt 0.595600009 0.858900011
vt 0.715499997 0.183599994
vt 0.744499981 0.777999997
vt 0.827400029 0.310699999
vt 0.843500018 0.640600026
vt 0.873099983 0.473800004
vt 0.44780001 0.739700019
vt 0.559499979 0.734799981
vt 0.658100009 0.681900024
vt 0.723999977 0.591499984
vt 0.744099975 0.481400013
vt 0.71450001 0.37349999
vt 0.344900012 0.695599973
vt 0.640999973 0.289200008
vt 0.271400005 0.611199975
vt 0.538100004 0.245100006
vt 0.241799995 0.503400028
vt 0.426400006 0.25
vt 0.261900008 0.393299997
vt 0.327800006 0.302899987
vt 0.382400006 0.550999999
vt 0.367900014 0.497200012
vt 0.378199995 0.442499995
vt 0.411199987 0.397599995
vt 0.493000001 0.492399991
vt 0.41870001 0.593200028
vt 0.460399985 0.371499985
vt 0.469799995 0.615400016
vt 0.516099989 0.369399995
vt 0.5255 0.613200009
vt 0.567200005 0.391600013
vt 0.574699998 0.587199986
vt 0.603500009 0.433800012
vt 0.60769999 0.542299986
vt 0.617999971 0.487599999
vt 0.967800021 0.46509999
vt 0.890900016 0.658299983
vt 0.932600021 0.673799992
vt 0.923500001 0.469199985
vt 0.908900023 0.261799991
vt 0.779500008 0.814499974
vt 0.810299993 0.846599996
vt 0.870800018 0.284700006
vt 0.767700016 0.104099996
vt 0.611299992 0.906899989
vt 0.625199974 0.949299991
vt 0.743300021 0.141399994
vt 0.572000027 0.0233999994
vt 0.419699997 0.917200029
vt 0.413899988 0.961399972
vt 0.566200018 0.0675000027
vt 0.360700011 0.0355000012
vt 0.242599994 0.843400002
vt 0.218199998 0.880599976
vt 0.374599993 0.0777999982
vt 0.175600007 0.138099998
vt 0.115099996 0.699999988
vt 0.0769999996 0.72299999
vt 0.206400007 0.170200005
vt 0.0533000007 0.310900003
vt 0.0625 0.515500009
vt 0.0181000009 0.519699991
vt 0.0949999988 0.326499999
vt 0.270399988 0.801199973
vt 0.158500001 0.674000025
vt 0.112800002 0.510900021
vt 0.142399997 0.344099998
vt 0.241400003 0.206699997
vt 0.390300006 0.1259
vt 0.426400006 0.8671
vt 0.559499979 0.117600001
vt 0.595600009 0.858900011
vt 0.715499997 0.183599994
vt 0.744499981 0.777999997
vt 0.827400029 0.310699999
vt 0.843500018 0.640600026
vt 0.873099983 0.473800004
vt 0.44780001 0.739700019
vt 0.559499979 0.734799981
vt 0.658100009 0.681900024
vt 0.723999977 0.591499984
vt 0.744099975 0.481400013
vt 0.71450001 0.37349999
vt 0.344900012 0.695599973
vt 0.640999973 0.289200008
vt 0.271400005 0.611199975
vt 0.538100004 0.245100006
vt 0.241799995 0.503400028
vt 0.426400006 0.25
vt 0.261900008 0.393299997
vt 0.327800006 0.302899987
vt 0.382400006 0.550999999
vt 0.367900014 0.497200012
vt 0.378199995 0.442499995
vt 0.411199987 0.397599995
vt 0.493000001 0.492399991
vt 0.41870001 0.593200028
vt 0.460399985 0.371499985
vt 0.469799995 0.615400016
vt 0.516099989 0.369399995
vt 0.5255 0.613200009
vt 0.567200005 0.391600013
vt 0.574699998 0.587199986
vt 0.603500009 0.433800012
vt 0.60769999 0.542299986
vt 0.617999971 0.487599999
vn -0.901609182 -0.431739897 -0.0264851544
vn -0.999487877 -0.0193488896 0.0254866593
vn -0.986599803 -0.0435937308 0.157227755
vn -0.893469274 -0.436007887 0.107748181
vn -0.639348865 -0.768651247 -0.020208383
vn -0.90484488 0.342895567 0.252345771
vn -0.913574278 0.3868379 0.125452846
vn -0.643915474 -0.756595373 0.113738142
vn -0.264611185 -0.963390172 0.0431317464
vn -0.664439499 0.646883845 0.374247849
vn -0.660900474 0.706321418 0.253615081
vn -0.287357032 -0.941886723 0.173997954
vn 0.148343712 -0.977350354 0.150931761
vn -0.31293273 0.808232427 0.498832166
vn -0.291488439 0.875873029 0.384552807
vn 0.105598807 -0.955184042 0.276536196
vn 0.51770705 -0.807809234 0.281822115
vn 0.0800535753 0.79494375 0.601378262
vn 0.121489897 0.86189568 0.49231708
vn 0.457082361 -0.793863714 0.401068568
vn 0.770388007 -0.488303393 0.409953743
vn 0.436577171 0.609672844 0.66158849
vn 0.496142477 0.667182922 0.555616319
vn 0.697516799 -0.489837319 0.523000658
vn 0.856299102 -0.0821397379 0.509906828
vn 0.686136603 0.289081246 0.667569101
vn 0.758412838 0.330258489 0.561906815
vn 0.77926892 -0.103328533 0.618112624
vn -0.0101466784 0.610696614 0.791799605
vn 0.288284302 0.45562163 0.8422001
vn 0.497177243 0.187272742 0.847197592
vn 0.575125277 -0.141160503 0.805794358
vn 0.506707549 -0.464634567 0.726197064
vn 0.305450916 -0.71912241 0.624149621
vn -0.339038372 0.621807873 0.705980122
vn 0.0112331854 -0.854158521 0.519891322
vn -0.63324213 0.48677212 0.601711929
vn -0.317631543 -0.843027651 0.434067488
vn -0.834475398 0.232315063 0.4996804
vn -0.616064727 -0.68794769 0.383656353
vn -0.902898014 -0.0911732018 0.420074403
vn -0.824956954 -0.419600338 0.378657669
vn -0.338558495 0.385818809 0.858208597
vn -0.552104175 0.28779608 0.782530785
vn -0.69818306 0.10310483 0.70845592
vn -0.747824192 -0.131691188 0.650704563
vn -0.691256523 -0.370090395 0.620642781
vn -0.539629757 -0.56489557 0.624253571
vn -0.099824883 0.377744436 0.920512974
vn -0.323022574 -0.677467048 0.660828888
vn 0.11677254 0.265165895 0.957105637
vn -0.0842978731 -0.685516894 0.723160088
vn 0.268410742 0.070371002 0.960730731
vn 0.129241988 -0.58748877 0.798845112
vn 0.32498309 -0.167982936 0.930681348
vn 0.275332212 -0.402754933 0.87291503
vn -0.0647086129 0.0528510362 0.996503711
vn 0.0173964128 -0.0525950044 0.998464346
vn 0.0479978211 -0.181582287 0.982203722
vn 0.0211084988 -0.308663428 0.950937092
vn -0.254102528 -0.180098087 0.950261354
vn -0.181963816 0.11382135 0.976695359
vn -0.0579724945 -0.408659905 0.91084367
vn -0.311166376 0.118191026 0.942977369
vn -0.173589081 -0.461708665 0.869880497
vn -0.426817924 0.0650907904 0.901992142
vn -0.302760154 -0.457394123 0.83613807
vn -0.505883336 -0.0348974653 0.86189568
vn -0.420015454 -0.396402568 0.816365063
vn -0.532728374 -0.161945701 0.830646813
vn -0.502126634 -0.290954441 0.814379811
vn 0.901609182 -0.431739897 -0.026485147
vn 0.986599803 -0.0435937122 0.15722768
vn 0.999487877 -0.0193488672 0.0254866853
vn 0.893469393 -0.436007887 0.107748181
vn 0.639348865 -0.768651187 -0.0202083755
vn 0.90484488 0.342895538 0.252345651
vn 0.913574278 0.38683787 0.125452906
vn 0.643915534 -0.756595314 0.113738142
vn 0.264611185 -0.963390172 0.0431317426
vn 0.664439499 0.646883845 0.374247849
vn 0.660900414 0.706321359 0.253615081
vn 0.287357002 -0.941886723 0.173998043
vn -0.148343682 -0.977350354 0.150931746
vn 0.31293273 0.808232427 0.498832166
vn 0.291488469 0.875873029 0.384552866
vn -0.105598837 -0.955184042 0.276536196
vn -0.51770705 -0.807809234 0.281822115
vn -0.0800514668 0.794942975 0.601379573
vn -0.121486306 0.861894488 0.492319912
vn -0.45708245 -0.793863714 0.401068568
vn -0.770388007 -0.488303363 0.409953743
vn -0.43657577 0.609670937 0.661591232
vn -0.49613753 0.667181969 0.555621982
vn -0.697516918 -0.489837199 0.523000598
vn -0.856299102 -0.0821397081 0.509906828
vn -0.686136365 0.289079815 0.667569995
vn -0.758412302 0.330256313 0.561908901
vn -0.77926892 -0.103328504 0.618112624
vn 0.0101466822 0.610696614 0.791799605
vn -0.288284302 0.45562163 0.8422001
vn -0.497177333 0.187272757 0.847197592
vn -0.575125277 -0.141160503 0.805794358
vn -0.506707549 -0.464634627 0.726197004
vn -0.305450916 -0.71912235 0.62414968
vn 0.339038402 0.621807992 0.705980122
vn -0.011233204 -0.854158461 0.519891441
vn 0.63324219 0.48677218 0.601711869
vn 0.317631602 -0.843027651 0.434067518
vn 0.834475458 0.232315093 0.49968034
vn 0.616064727 -0.687947631 0.383656323
vn 0.902898133 -0.0911731869 0.420074373
vn 0.824956954 -0.419600308 0.378657639
vn 0.338558495 0.385818809 0.858208597
vn 0.552104175 0.28779608 0.782530725
vn 0.69818306 0.103104845 0.70845592
vn 0.747824192 -0.131691188 0.650704563
vn 0.691256464 -0.370090455 0.620642841
vn 0.539629757 -0.56489557 0.624253571
vn 0.099824883 0.377744496 0.920512974
vn 0.323022634 -0.677467048 0.660828888
vn -0.116772532 0.265165865 0.957105637
vn 0.0842978656 -0.685516894 0.723160028
vn -0.268410742 0.070371002 0.960730731
vn -0.129241973 -0.58748883 0.798845053
vn -0.32498309 -0.167982936 0.930681348
vn -0.275332183 -0.402754933 0.87291503
vn 0.0647086129 0.0528510362 0.996503711
vn -0.0173964128 -0.0525950044 0.998464346
vn -0.0479978211 -0.181582257 0.982203722
vn -0.0211084988 -0.308663428 0.950937092
vn 0.254102528 -0.180098087 0.950261354
vn 0.181963816 0.11382135 0.976695359
vn 0.0579724945 -0.408659905 0.91084367
vn 0.311166376 0.118191026 0.942977369
vn 0.173589081 -0.461708665 0.869880497
vn 0.426817894 0.0650907829 0.901992023
vn 0.302760154 -0.457394123 0.83613807
vn 0.505883336 -0.0348974653 0.86189568
vn 0.420015514 -0.396402568 0.816365063
vn 0.532728374 -0.161945701 0.830646813
vn 0.502126634 -0.290954441 0.814379811
g YanJing_0
f 3/3/3 2/2/2 1/1/1
f 4/4/4 3/3/3 1/1/1
f 4/4/4 1/1/1 5/5/5
f 3/3/3 6/6/6 2/2/2
f 6/6/6 7/7/7 2/2/2
f 8/8/8 4/4/4 5/5/5
f 8/8/8 5/5/5 9/9/9
f 6/6/6 10/10/10 7/7/7
f 10/10/10 11/11/11 7/7/7
f 12/12/12 8/8/8 9/9/9
f 12/12/12 9/9/9 13/13/13
f 10/10/10 14/14/14 11/11/11
f 14/14/14 15/15/15 11/11/11
f 16/16/16 12/12/12 13/13/13
f 16/16/16 13/13/13 17/17/17
f 14/14/14 18/18/18 15/15/15
f 18/18/18 19/19/19 15/15/15
f 20/20/20 16/16/16 17/17/17
f 20/20/20 17/17/17 21/21/21
f 18/18/18 22/22/22 19/19/19
f 22/22/22 23/23/23 19/19/19
f 24/24/24 20/20/20 21/21/21
f 24/24/24 21/21/21 25/25/25
f 22/22/22 26/26/26 23/23/23
f 26/26/26 27/27/27 23/23/23
f 28/28/28 25/25/25 27/27/27
f 28/28/28 24/24/24 25/25/25
f 26/26/26 28/28/28 27/27/27
f 29/29/29 18/18/18 14/14/14
f 30/30/30 22/22/22 18/18/18
f 29/29/29 30/30/30 18/18/18
f 31/31/31 26/26/26 22/22/22
f 30/30/30 31/31/31 22/22/22
f 32/32/32 28/28/28 26/26/26
f 31/31/31 32/32/32 26/26/26
f 33/33/33 24/24/24 28/28/28
f 32/32/32 33/33/33 28/28/28
f 34/34/34 20/20/20 24/24/24
f 33/33/33 34/34/34 24/24/24
f 35/35/35 29/29/29 14/14/14
f 35/35/35 14/14/14 10/10/10
f 34/34/34 36/36/36 20/20/20
f 36/36/36 16/16/16 20/20/20
f 37/37/37 35/35/35 10/10/10
f 37/37/37 10/10/10 6/6/6
f 36/36/36 38/38/38 16/16/16
f 38/38/38 12/12/12 16/16/16
f 39/39/39 37/37/37 6/6/6
f 39/39/39 6/6/6 3/3/3
f 38/38/38 40/40/40 12/12/12
f 40/40/40 8/8/8 12/12/12
f 41/41/41 39/39/39 3/3/3
f 41/41/41 3/3/3 4/4/4
f 42/42/42 4/4/4 8/8/8
f 40/40/40 42/42/42 8/8/8
f 42/42/42 41/41/41 4/4/4
f 43/43/43 35/35/35 37/37/37
f 44/44/44 37/37/37 39/39/39
f 44/44/44 43/43/43 37/37/37
f 45/45/45 39/39/39 41/41/41
f 45/45/45 44/44/44 39/39/39
f 46/46/46 41/41/41 42/42/42
f 46/46/46 45/45/45 41/41/41
f 47/47/47 42/42/42 40/40/40
f 47/47/47 46/46/46 42/42/42
f 48/48/48 40/40/40 38/38/38
f 48/48/48 47/47/47 40/40/40
f 43/43/43 49/49/49 35/35/35
f 49/49/49 29/29/29 35/35/35
f 50/50/50 48/48/48 38/38/38
f 50/50/50 38/38/38 36/36/36
f 49/49/49 51/51/51 29/29/29
f 51/51/51 30/30/30 29/29/29
f 52/52/52 50/50/50 36/36/36
f 52/52/52 36/36/36 34/34/34
f 51/51/51 53/53/53 30/30/30
f 53/53/53 31/31/31 30/30/30
f 54/54/54 52/52/52 34/34/34
f 54/54/54 34/34/34 33/33/33
f 53/53/53 55/55/55 31/31/31
f 55/55/55 32/32/32 31/31/31
f 56/56/56 33/33/33 32/32/32
f 56/56/56 54/54/54 33/33/33
f 55/55/55 56/56/56 32/32/32
f 57/57/57 51/51/51 49/49/49
f 58/58/58 53/53/53 51/51/51
f 57/57/57 58/58/58 51/51/51
f 59/59/59 55/55/55 53/53/53
f 58/58/58 59/59/59 53/53/53
f 60/60/60 56/56/56 55/55/55
f 59/59/59 60/60/60 55/55/55
f 61/61/61 59/59/59 58/58/58
f 61/61/61 58/58/58 57/57/57
f 61/61/61 60/60/60 59/59/59
f 62/62/62 57/57/57 49/49/49
f 61/61/61 57/57/57 62/62/62
f 62/62/62 49/49/49 43/43/43
f 60/60/60 63/63/63 56/56/56
f 61/61/61 63/63/63 60/60/60
f 63/63/63 54/54/54 56/56/56
f 61/61/61 62/62/62 64/64/64
f 64/64/64 62/62/62 43/43/43
f 61/61/61 65/65/65 63/63/63
f 63/63/63 65/65/65 54/54/54
f 64/64/64 43/43/43 44/44/44
f 65/65/65 52/52/52 54/54/54
f 66/66/66 64/64/64 44/44/44
f 61/61/61 64/64/64 66/66/66
f 66/66/66 44/44/44 45/45/45
f 65/65/65 67/67/67 52/52/52
f 61/61/61 67/67/67 65/65/65
f 67/67/67 50/50/50 52/52/52
f 68/68/68 66/66/66 45/45/45
f 61/61/61 66/66/66 68/68/68
f 68/68/68 45/45/45 46/46/46
f 67/67/67 69/69/69 50/50/50
f 61/61/61 69/69/69 67/67/67
f 69/69/69 48/48/48 50/50/50
f 70/70/70 68/68/68 46/46/46
f 61/61/61 68/68/68 70/70/70
f 70/70/70 46/46/46 47/47/47
f 71/71/71 47/47/47 48/48/48
f 69/69/69 71/71/71 48/48/48
f 61/61/61 71/71/71 69/69/69
f 71/71/71 70/70/70 47/47/47
f 61/61/61 70/70/70 71/71/71
f 74/74/74 73/73/73 72/72/72
f 73/73/73 75/75/75 72/72/72
f 72/72/72 75/75/75 76/76/76
f 77/77/77 73/73/73 74/74/74
f 78/78/78 77/77/77 74/74/74
f 75/75/75 79/79/79 76/76/76
f 76/76/76 79/79/79 80/80/80
f 81/81/81 77/77/77 78/78/78
f 82/82/82 81/81/81 78/78/78
f 79/79/79 83/83/83 80/80/80
f 80/80/80 83/83/83 84/84/84
f 85/85/85 81/81/81 82/82/82
f 86/86/86 85/85/85 82/82/82
f 83/83/83 87/87/87 84/84/84
f 84/84/84 87/87/87 88/88/88
f 89/89/89 85/85/85 86/86/86
f 90/90/90 89/89/89 86/86/86
f 87/87/87 91/91/91 88/88/88
f 88/88/88 91/91/91 92/92/92
f 93/93/93 89/89/89 90/90/90
f 94/94/94 93/93/93 90/90/90
f 91/91/91 95/95/95 92/92/92
f 92/92/92 95/95/95 96/96/96
f 97/97/97 93/93/93 94/94/94
f 98/98/98 97/97/97 94/94/94
f 96/96/96 99/99/99 98/98/98
f 95/95/95 99/99/99 96/96/96
f 99/99/99 97/97/97 98/98/98
f 89/89/89 100/100/100 85/85/85
f 93/93/93 101/101/101 89/89/89
f 101/101/101 100/100/100 89/89/89
f 97/97/97 102/102/102 93/93/93
f 102/102/102 101/101/101 93/93/93
f 99/99/99 103/103/103 97/97/97
f 103/103/103 102/102/102 97/97/97
f 95/95/95 104/104/104 99/99/99
f 104/104/104 103/103/103 99/99/99
f 91/91/91 105/105/105 95/95/95
f 105/105/105 104/104/104 95/95/95
f 100/100/100 106/106/106 85/85/85
f 85/85/85 106/106/106 81/81/81
f 107/107/107 105/105/105 91/91/91
f 87/87/87 107/107/107 91/91/91
f 106/106/106 108/108/108 81/81/81
f 81/81/81 108/108/108 77/77/77
f 109/109/109 107/107/107 87/87/87
f 83/83/83 109/109/109 87/87/87
f 108/108/108 110/110/110 77/77/77
f 77/77/77 110/110/110 73/73/73
f 111/111/111 109/109/109 83/83/83
f 79/79/79 111/111/111 83/83/83
f 110/110/110 112/112/112 73/73/73
f 73/73/73 112/112/112 75/75/75
f 75/75/75 113/113/113 79/79/79
f 113/113/113 111/111/111 79/79/79
f 112/112/112 113/113/113 75/75/75
f 106/106/106 114/114/114 108/108/108
f 108/108/108 115/115/115 110/110/110
f 114/114/114 115/115/115 108/108/108
f 110/110/110 116/116/116 112/112/112
f 115/115/115 116/116/116 110/110/110
f 112/112/112 117/117/117 113/113/113
f 116/116/116 117/117/117 112/112/112
f 113/113/113 118/118/118 111/111/111
f 117/117/117 118/118/118 113/113/113
f 111/111/111 119/119/119 109/109/109
f 118/118/118 119/119/119 111/111/111
f 120/120/120 114/114/114 106/106/106
f 100/100/100 120/120/120 106/106/106
f 119/119/119 121/121/121 109/109/109
f 109/109/109 121/121/121 107/107/107
f 122/122/122 120/120/120 100/100/100
f 101/101/101 122/122/122 100/100/100
f 121/121/121 123/123/123 107/107/107
f 107/107/107 123/123/123 105/105/105
f 124/124/124 122/122/122 101/101/101
f 102/102/102 124/124/124 101/101/101
f 123/123/123 125/125/125 105/105/105
f 105/105/105 125/125/125 104/104/104
f 126/126/126 124/124/124 102/102/102
f 103/103/103 126/126/126 102/102/102
f 104/104/104 127/127/127 103/103/103
f 125/125/125 127/127/127 104/104/104
f 127/127/127 126/126/126 103/103/103
f 122/122/122 128/128/128 120/120/120
f 124/124/124 129/129/129 122/122/122
f 129/129/129 128/128/128 122/122/122
f 126/126/126 130/130/130 124/124/124
f 130/130/130 129/129/129 124/124/124
f 127/127/127 131/131/131 126/126/126
f 131/131/131 130/130/130 126/126/126
f 130/130/130 132/132/132 129/129/129
f 129/129/129 132/132/132 128/128/128
f 131/131/131 132/132/132 130/130/130
f 128/128/128 133/133/133 120/120/120
f 128/128/128 132/132/132 133/133/133
f 120/120/120 133/133/133 114/114/114
f 134/134/134 131/131/131 127/127/127
f 134/134/134 132/132/132 131/131/131
f 125/125/125 134/134/134 127/127/127
f 133/133/133 132/132/132 135/135/135
f 133/133/133 135/135/135 114/114/114
f 136/136/136 132/132/132 134/134/134
f 136/136/136 134/134/134 125/125/125
f 114/114/114 135/135/135 115/115/115
f 123/123/123 136/136/136 125/125/125
f 135/135/135 137/137/137 115/115/115
f 135/135/135 132/132/132 137/137/137
f 115/115/115 137/137/137 116/116/116
f 138/138/138 136/136/136 123/123/123
f 138/138/138 132/132/132 136/136/136
f 121/121/121 138/138/138 123/123/123
f 137/137/137 139/139/139 116/116/116
f 137/137/137 132/132/132 139/139/139
f 116/116/116 139/139/139 117/117/117
f 140/140/140 138/138/138 121/121/121
f 140/140/140 132/132/132 138/138/138
f 119/119/119 140/140/140 121/121/121
f 139/139/139 141/141/141 117/117/117
f 139/139/139 132/132/132 141/141/141
f 117/117/117 141/141/141 118/118/118
f 142/142/142 140/140/140 119/119/119
f 142/142/142 132/132/132 140/140/140
f 118/118/118 142/142/142 119/119/119
f 141/141/141 142/142/142 118/118/118
f 141/141/141 132/132/132 142/142/142
