g YanJingTouTie
v -0.188605994 6.88615227 -0.119262084
v -0.179228887 6.89570427 -0.107086182
v -0.181288943 6.87883711 -0.113894649
v -0.175629303 6.87383175 -0.110124506
v -0.186995462 6.89804602 -0.114746705
v -0.192981794 6.89463568 -0.124186397
v -0.169924498 6.8950119 -0.100794673
v -0.166527331 6.8711319 -0.107586667
v -0.192720905 6.90103817 -0.121208496
v -0.196733356 6.90412331 -0.128763422
v -0.192460015 6.90744019 -0.1182312
v -0.185384944 6.90994072 -0.110231318
v -0.177168846 6.91257238 -0.100277707
v -0.164219618 6.91619253 -0.0914648399
v -0.159052804 6.89428759 -0.0960522443
v -0.156614453 6.86938381 -0.103982538
v -0.151578292 6.91744328 -0.0845184326
v -0.145964026 6.8934803 -0.0906030238
v -0.1419525 6.86866999 -0.101332396
v -0.135313585 6.91757488 -0.0772241205
v -0.130305648 6.89097166 -0.0878039524
v -0.125962064 6.87002897 -0.099200435
v -0.119156532 6.91474104 -0.0775952116
v -0.114655718 6.88591337 -0.0891088843
v -0.111945912 6.87161016 -0.0979736298
v -0.100856319 6.90462875 -0.0808343515
v -0.100537509 6.88230991 -0.0901580825
v -0.0946841016 6.87239981 -0.0982623249
v -0.0905320123 6.89500618 -0.0858148187
v -0.0862823054 6.87561226 -0.0945257545
v -0.0742380917 6.86856413 -0.098903805
v -0.0780384392 6.88078499 -0.0923565626
v 0.188605994 6.88615227 -0.119262084
v 0.181288943 6.87883711 -0.113894649
v 0.179228887 6.89570427 -0.107086182
v 0.175629303 6.87383175 -0.110124506
v 0.186995462 6.89804602 -0.114746705
v 0.192981794 6.89463568 -0.124186397
v 0.169924498 6.8950119 -0.100794673
v 0.166527331 6.8711319 -0.107586667
v 0.192720905 6.90103817 -0.121208496
v 0.196733356 6.90412331 -0.128763422
v 0.192460015 6.90744019 -0.1182312
v 0.185384944 6.90994072 -0.110231318
v 0.177168846 6.91257238 -0.100277707
v 0.164219618 6.91619253 -0.0914648399
v 0.159052804 6.89428759 -0.0960522443
v 0.156614468 6.86938381 -0.103982538
v 0.151578277 6.91744328 -0.0845184326
v 0.145964026 6.8934803 -0.0906030238
v 0.1419525 6.86866999 -0.101332396
v 0.135313585 6.91757488 -0.0772241205
v 0.130305648 6.89097166 -0.0878039524
v 0.125962064 6.87002897 -0.099200435
v 0.119156532 6.91474104 -0.0775952116
v 0.114655711 6.88591337 -0.0891088843
v 0.111945905 6.87161016 -0.0979736298
v 0.100856319 6.90462875 -0.0808343515
v 0.100537509 6.88230991 -0.0901580825
v 0.0946841016 6.87239981 -0.0982623249
v 0.0905320123 6.89500618 -0.0858148187
v 0.0862823203 6.87561226 -0.0945257545
v 0.0742380768 6.86856413 -0.098903805
v 0.0780384392 6.88078499 -0.0923565626
vt 0.0926000029 0.472799987
vt 0.1215 0.513549984
vt 0.135700002 0.452399999
vt 0.209999993 0.427399993
vt 0.0732000023 0.511299968
vt 0.0430000015 0.49180001
vt 0.194150001 0.515450001
vt 0.270700008 0.408300012
vt 0.0311000012 0.508000016
vt 0.00800000038 0.507499993
vt 0.0192000009 0.524200022
vt 0.0538000017 0.549799979
vt 0.107299998 0.574699998
vt 0.178299993 0.603500009
vt 0.283299983 0.523100019
vt 0.386599988 0.386799991
vt 0.295899987 0.637899995
vt 0.419349998 0.531199992
vt 0.512199998 0.385399997
vt 0.452100009 0.675599992
vt 0.543250024 0.532350004
vt 0.619700015 0.393299997
vt 0.574299991 0.67930001
vt 0.654999971 0.522199988
vt 0.741299987 0.414999992
vt 0.690299988 0.65109998
vt 0.786949992 0.495199978
vt 0.875800014 0.395300001
vt 0.832599998 0.575399995
vt 0.90534997 0.429350019
vt 0.989899993 0.349400014
vt 0.934899986 0.463400006
vt 0.0926000029 0.472799987
vt 0.135700002 0.452399999
vt 0.1215 0.513549984
vt 0.209999993 0.427399993
vt 0.0732000023 0.511299968
vt 0.0430000015 0.49180001
vt 0.194150001 0.515450001
vt 0.270700008 0.408300012
vt 0.0311000012 0.508000016
vt 0.00800000038 0.507499993
vt 0.0192000009 0.524200022
vt 0.0538000017 0.549799979
vt 0.107299998 0.574699998
vt 0.178299993 0.603500009
vt 0.283299983 0.523100019
vt 0.386599988 0.386799991
vt 0.295899987 0.637899995
vt 0.419349998 0.531199992
vt 0.512199998 0.385399997
vt 0.452100009 0.675599992
vt 0.543250024 0.532350004
vt 0.619700015 0.393299997
vt 0.574299991 0.67930001
vt 0.654999971 0.522199988
vt 0.741299987 0.414999992
vt 0.690299988 0.65109998
vt 0.786949992 0.495199978
vt 0.875800014 0.395300001
vt 0.832599998 0.575399995
vt 0.90534997 0.429350019
vt 0.989899993 0.349400014
vt 0.934899986 0.463400006
vn -0.730729103 -0.17325455 0.660316348
vn -0.634530663 -0.202097297 0.746007681
vn -0.639100075 -0.196919233 0.743487716
vn -0.468583345 -0.265418708 0.842604637
vn -0.737381816 -0.173080936 0.652924955
vn -0.823250055 -0.1507103 0.547307611
vn -0.465657711 -0.265171915 0.844302595
vn -0.374656349 -0.308245808 0.874423862
vn -0.811756015 -0.166716754 0.559694231
vn -0.897335589 -0.15553987 0.41303286
vn -0.761872649 -0.186048403 0.620432079
vn -0.730589926 -0.172548831 0.66065526
vn -0.577996075 -0.223747358 0.784765959
vn -0.450380266 -0.269604385 0.851158679
vn -0.391494036 -0.301790267 0.869284272
vn -0.303318322 -0.360522449 0.882055342
vn -0.394958973 -0.302476376 0.867476523
vn -0.273396432 -0.363743305 0.890474677
vn -0.165891215 -0.439585596 0.882748306
vn -0.221503735 -0.364577055 0.904444396
vn -0.11081136 -0.414651185 0.903208315
vn -0.0726795942 -0.497922122 0.86417079
vn -0.0856509432 -0.382125884 0.920132399
vn -0.0419409275 -0.435645401 0.899140716
vn -0.0355703719 -0.554401815 0.831488669
vn -0.0221427754 -0.379718333 0.924837053
vn 0.0129453167 -0.47071901 0.882188261
vn -0.0125600314 -0.635204017 0.772242308
vn 0.0355830081 -0.389928937 0.920157254
vn 0.0242720544 -0.494102329 0.869064867
vn -0.00112377235 -0.529066682 0.848579586
vn 0.0609218255 -0.409447581 0.910297275
vn 0.73072511 -0.173252791 0.660321414
vn 0.639098465 -0.196918398 0.743489265
vn 0.634530425 -0.202097341 0.74600786
vn 0.468577027 -0.265415967 0.842608988
vn 0.737378597 -0.173079923 0.652928889
vn 0.823246717 -0.150709644 0.547313094
vn 0.46565491 -0.265170813 0.844304383
vn 0.374655694 -0.308244646 0.874424636
vn 0.811752975 -0.16671668 0.559698761
vn 0.897332013 -0.15554066 0.4130404
vn 0.761870146 -0.186048537 0.620435119
vn 0.730587661 -0.172548398 0.660657883
vn 0.577999115 -0.223748907 0.784763277
vn 0.450378537 -0.269603848 0.851159692
vn 0.391492873 -0.301788867 0.869285285
vn 0.303320229 -0.360526323 0.882053077
vn 0.394954473 -0.302472264 0.86747992
vn 0.273395419 -0.363742739 0.890475214
vn 0.165892556 -0.439587355 0.882747173
vn 0.221502617 -0.364575058 0.904445469
vn 0.110811688 -0.414652467 0.90320766
vn 0.0726800486 -0.497927815 0.864167511
vn 0.0856504142 -0.382125825 0.920132518
vn 0.041940812 -0.435646266 0.899140358
vn 0.0355704874 -0.554408908 0.83148396
vn 0.0221429002 -0.379718453 0.924837053
vn -0.0129455114 -0.470727831 0.882183492
vn 0.0125607597 -0.635233939 0.772217572
vn -0.0355830565 -0.389932454 0.920155704
vn -0.0242712665 -0.494115382 0.869057536
vn 0.00112426165 -0.529055715 0.84858638
vn -0.0609224215 -0.409452885 0.910294831
g YanJingTouTie_0
f 3/3/3 2/2/2 1/1/1
f 2/2/2 3/3/3 4/4/4
f 2/2/2 5/5/5 1/1/1
f 1/1/1 5/5/5 6/6/6
f 7/7/7 2/2/2 4/4/4
f 7/7/7 4/4/4 8/8/8
f 5/5/5 9/9/9 6/6/6
f 9/9/9 10/10/10 6/6/6
f 9/9/9 11/11/11 10/10/10
f 11/11/11 9/9/9 5/5/5
f 12/12/12 11/11/11 5/5/5
f 12/12/12 5/5/5 2/2/2
f 13/13/13 12/12/12 2/2/2
f 13/13/13 2/2/2 7/7/7
f 14/14/14 13/13/13 7/7/7
f 15/15/15 7/7/7 8/8/8
f 14/14/14 7/7/7 15/15/15
f 15/15/15 8/8/8 16/16/16
f 17/17/17 14/14/14 15/15/15
f 18/18/18 15/15/15 16/16/16
f 17/17/17 15/15/15 18/18/18
f 18/18/18 16/16/16 19/19/19
f 20/20/20 17/17/17 18/18/18
f 21/21/21 18/18/18 19/19/19
f 20/20/20 18/18/18 21/21/21
f 21/21/21 19/19/19 22/22/22
f 23/23/23 20/20/20 21/21/21
f 24/24/24 21/21/21 22/22/22
f 23/23/23 21/21/21 24/24/24
f 24/24/24 22/22/22 25/25/25
f 26/26/26 23/23/23 24/24/24
f 27/27/27 24/24/24 25/25/25
f 26/26/26 24/24/24 27/27/27
f 27/27/27 25/25/25 28/28/28
f 29/29/29 26/26/26 27/27/27
f 30/30/30 27/27/27 28/28/28
f 29/29/29 27/27/27 30/30/30
f 30/30/30 28/28/28 31/31/31
f 32/32/32 29/29/29 30/30/30
f 32/32/32 30/30/30 31/31/31
f 35/35/35 34/34/34 33/33/33
f 36/36/36 34/34/34 35/35/35
f 37/37/37 35/35/35 33/33/33
f 37/37/37 33/33/33 38/38/38
f 39/39/39 36/36/36 35/35/35
f 40/40/40 36/36/36 39/39/39
f 41/41/41 37/37/37 38/38/38
f 42/42/42 41/41/41 38/38/38
f 43/43/43 41/41/41 42/42/42
f 37/37/37 41/41/41 43/43/43
f 44/44/44 37/37/37 43/43/43
f 35/35/35 37/37/37 44/44/44
f 45/45/45 35/35/35 44/44/44
f 39/39/39 35/35/35 45/45/45
f 46/46/46 39/39/39 45/45/45
f 47/47/47 40/40/40 39/39/39
f 47/47/47 39/39/39 46/46/46
f 40/40/40 47/47/47 48/48/48
f 49/49/49 47/47/47 46/46/46
f 47/47/47 50/50/50 48/48/48
f 50/50/50 47/47/47 49/49/49
f 48/48/48 50/50/50 51/51/51
f 52/52/52 50/50/50 49/49/49
f 50/50/50 53/53/53 51/51/51
f 53/53/53 50/50/50 52/52/52
f 51/51/51 53/53/53 54/54/54
f 55/55/55 53/53/53 52/52/52
f 53/53/53 56/56/56 54/54/54
f 56/56/56 53/53/53 55/55/55
f 54/54/54 56/56/56 57/57/57
f 58/58/58 56/56/56 55/55/55
f 56/56/56 59/59/59 57/57/57
f 59/59/59 56/56/56 58/58/58
f 57/57/57 59/59/59 60/60/60
f 61/61/61 59/59/59 58/58/58
f 59/59/59 62/62/62 60/60/60
f 62/62/62 59/59/59 61/61/61
f 60/60/60 62/62/62 63/63/63
f 64/64/64 62/62/62 61/61/61
f 62/62/62 64/64/64 63/63/63
