g PiFeng
v -0.00972030126 0.812476158 -2.50323248
v -0.00972030126 0.788376749 -2.48480153
v 0.681293726 0.81682533 -2.09168291
v 0.687634647 0.828153491 -2.12635946
v 0.85427326 0.96411854 -2.15756059
v 0.84001857 0.968549013 -2.17728901
v 0.981566608 1.06584704 -2.16593552
v 0.97566551 1.0466845 -2.14387822
v 1.16347015 1.02662075 -1.7714895
v 1.1314193 1.02791476 -1.74619317
v 1.68157911 1.27832544 -1.77665734
v 1.66938019 1.26435494 -1.7587049
v 1.69130027 1.55758572 -1.25414026
v 1.6679734 1.54833508 -1.2228117
v 1.97281301 1.72951257 -1.27448392
v 1.97984815 1.73416591 -1.23893487
v 2.21201491 1.90314269 -1.12637353
v 2.1978035 1.89072931 -1.09976709
v 2.19227815 1.99351335 -0.823915839
v 2.21427822 2.01431441 -0.817515373
v 2.21567678 1.99069226 -0.578641832
v 2.22762394 2.00547671 -0.574828327
v 0.622699857 5.85776854 -0.691953123
v 0.620847106 5.87223577 -0.706074834
v 0.853167415 5.26730824 -0.758107901
v 0.845452249 5.25601721 -0.748208582
v 1.02454019 4.73275042 -0.768026412
v 1.0096451 4.71907806 -0.748505831
v 1.13646448 4.35180426 -0.723576009
v 1.11610925 4.33652925 -0.724389315
v 1.26969171 3.94625354 -0.684800684
v 1.25067794 3.93186259 -0.686301231
v 1.41960108 3.52078128 -0.647074282
v 1.4015702 3.50825548 -0.648789048
v 1.58289123 3.08401036 -0.617379725
v 1.56277764 3.07101774 -0.619285583
v 1.70531988 2.79185033 -0.603453636
v 1.68052471 2.77648187 -0.605907857
v 1.80876267 2.57506704 -0.598056912
v 1.78504288 2.56046629 -0.60146147
v 1.949049 2.32880092 -0.589933753
v 1.92821407 2.31225991 -0.59359479
v 2.07192945 2.16170096 -0.582266808
v 2.05769992 2.14096808 -0.5846591
v 2.22762394 2.00547671 -0.574828327
v 2.21567678 1.99069226 -0.578641832
v -0.00972030126 0.812476158 -2.50323248
v -0.664364517 0.797498763 -2.09403563
v -0.00972030126 0.788376749 -2.48480153
v -0.680182695 0.808385313 -2.12694359
v -0.89046073 0.993610799 -2.15971065
v -0.887179673 0.997717619 -2.182549
v -1.05432832 1.06417072 -2.05665636
v -1.07069933 1.07857621 -2.07270694
v -1.16697037 1.0279181 -1.76887512
v -1.15085983 1.02791476 -1.74619317
v -1.63695955 1.22177517 -1.80545282
v -1.64497507 1.23723352 -1.82686853
v -1.66893327 1.54783022 -1.23266602
v -1.68666911 1.55066967 -1.25538862
v -1.98320186 1.7045716 -1.2413609
v -2.00194812 1.70946372 -1.27305686
v -2.20230961 1.88662827 -1.10521436
v -2.21881294 1.89924216 -1.13112521
v -2.2257607 2.0070715 -0.813316345
v -2.20118713 1.98216879 -0.814791858
v -2.22054982 1.99237716 -0.586959958
v -2.23020077 2.01804471 -0.587130725
v -0.621061921 5.84870815 -0.68722105
v -0.858677566 5.25618696 -0.762227178
v -0.628676236 5.86218357 -0.709542811
v -0.845898569 5.24992418 -0.754973114
v -1.03615832 4.7283802 -0.767575085
v -1.01819766 4.71984434 -0.746404707
v -1.14025986 4.34306288 -0.722673297
v -1.12776709 4.33963108 -0.719287097
v -1.27348709 3.93751216 -0.683897972
v -1.26157033 3.93237329 -0.680550218
v -1.42339647 3.51203966 -0.64617157
v -1.41169715 3.5061748 -0.64238888
v -1.58668649 3.07526875 -0.616477013
v -1.57559884 3.06770563 -0.61217469
v -1.70911515 2.78310895 -0.602550626
v -1.69901633 2.77316976 -0.598050535
v -1.81255794 2.56632566 -0.5971542
v -1.8038702 2.55348897 -0.592499852
v -1.95284438 2.32005954 -0.589030921
v -1.94737685 2.30161715 -0.583529055
v -2.0757246 2.15295959 -0.581364274
v -2.07399321 2.1294086 -0.57470578
v -2.23020077 2.01804471 -0.587130725
v -2.22054982 1.99237716 -0.586959958
v 2.07192945 2.16170096 -0.582266808
v 2.21427822 2.01431441 -0.817515373
v 2.22762394 2.00547671 -0.574828327
v 2.07714701 2.1768117 -0.823581696
v 1.949049 2.32880092 -0.589933753
v 2.06812167 2.11514497 -1.0884192
v 2.21201491 1.90314269 -1.12637353
v 1.97281301 1.72951257 -1.27448392
v 1.94152892 2.31781006 -1.05318296
v 1.60958314 1.81754768 -1.25756729
v 1.69130027 1.55758572 -1.25414026
v 1.80042136 2.55907917 -1.02676177
v 1.80876267 2.57506704 -0.598056912
v 1.54169619 2.04966688 -1.23621166
v 1.5846802 1.59108639 -1.72084653
v 1.68157911 1.27832544 -1.77665734
v 1.46164227 1.85941434 -1.7053833
v 1.11376166 1.38912153 -1.70431471
v 1.16347015 1.02662075 -1.7714895
v 0.925427914 1.40118253 -2.06233478
v 0.981566608 1.06584704 -2.16593552
v 0.84001857 0.968549013 -2.17728901
v 0.687634647 0.828153491 -2.12635946
v 1.06327343 1.71384001 -1.63718843
v 1.44817412 2.36211729 -1.21267068
v 0.870195746 1.72506022 -1.95968366
v 1.32592392 2.28410435 -1.59363151
v 0.638512194 1.17972052 -2.01919818
v 0.594035923 1.55178881 -1.9233284
v 0.78952086 2.19347787 -1.80573404
v 0.989683449 2.17999792 -1.55404842
v 1.21098399 2.62960076 -1.50089264
v 1.35630298 2.67240238 -1.18722618
v -0.00972030126 1.12520266 -2.36359882
v -0.00972030126 0.812476158 -2.50323248
v -0.00972030126 1.50649834 -2.24401855
v -0.613476574 1.55178881 -1.9233284
v -0.657952845 1.17972052 -2.01919818
v -0.680182695 0.808385313 -2.12694359
v -0.887179673 0.997717619 -2.182549
v -0.944868505 1.40118253 -2.06233478
v -1.07069933 1.07857621 -2.07270694
v -0.00972030126 2.06959033 -2.04732943
v -1.13320231 1.38912153 -1.70431471
v -1.16697037 1.0279181 -1.76887512
v 0.54301697 2.10390019 -1.79559004
v -0.889636338 1.72506022 -1.95968366
v -1.56936395 1.55663037 -1.77178383
v -1.64497507 1.23723352 -1.82686853
v -1.08271408 1.71384001 -1.63718843
v -0.80896157 2.19347787 -1.80573404
v -0.562457621 2.10390019 -1.79559004
v -0.00972030126 2.61562467 -1.8422991
v 0.498370856 2.61402893 -1.67167628
v -1.62902355 1.81754768 -1.25756729
v -1.68666911 1.55066967 -1.25538862
v -0.517811477 2.61402893 -1.67167628
v -1.48108268 1.85941434 -1.7053833
v -1.8893013 1.97485459 -1.23655224
v -2.00194812 1.70946372 -1.27305686
v -2.21881294 1.89924216 -1.13112521
v 0.718413353 2.62767291 -1.66661036
v -0.00972030126 3.06122065 -1.68491697
v -1.56113672 2.04966688 -1.23621166
v -2.08756232 2.11514497 -1.0884192
v -2.2257607 2.0070715 -0.813316345
v -1.96096945 2.31781006 -1.05318296
v -2.09658742 2.1768117 -0.823581696
v -2.0757246 2.15295959 -0.581364274
v -2.23020077 2.01804471 -0.587130725
v -1.95284438 2.32005954 -0.589030921
v -1.81986177 2.55907917 -1.02676177
v -1.81255794 2.56632566 -0.5971542
v -1.46761453 2.36211729 -1.21267068
v -1.70188105 2.77800035 -1.01797235
v -1.70911515 2.78310895 -0.602550626
v -1.58668649 3.07526875 -0.616477013
v -1.34536445 2.28410435 -1.59363151
v -1.37574351 2.67240238 -1.18722618
v -1.00912392 2.17999792 -1.55404842
v -1.23042464 2.62960076 -1.50089264
v -0.737854004 2.62767291 -1.66661036
v -0.941799223 2.61787438 -1.47064114
v -1.10733497 3.05904555 -1.39358604
v -1.28014588 3.05423617 -1.14120114
v -0.863980412 3.05540729 -1.38293421
v -0.663324952 3.07570553 -1.53637052
v -1.57142067 3.08439326 -0.98899287
v -1.40852928 3.52248645 -0.958498538
v -1.42339647 3.51203966 -0.64617157
v -1.27348709 3.93751216 -0.683897972
v -1.16074502 3.5136199 -1.10108066
v -0.997854948 3.52617311 -1.28464568
v -1.25767779 3.94769168 -0.939785123
v -1.12077832 4.36769056 -0.925034165
v -1.14025986 4.34306288 -0.722673297
v -1.03615832 4.7283802 -0.767575085
v -1.05976617 3.93546653 -1.05725276
v -0.644983828 4.36431122 -1.15805876
v -1.00733364 4.74519396 -0.896251798
v -0.858677566 5.25618696 -0.762227178
v -0.777178049 3.51602626 -1.29640687
v -0.71377486 3.94628906 -1.23965204
v -0.825826705 5.26713991 -0.835311234
v -0.628676236 5.86218357 -0.709542811
v -0.582368076 5.86717892 -0.720928967
v -0.588014424 3.52740407 -1.41203368
v -0.00972029567 3.94780207 -1.36693513
v -0.268855631 3.52161574 -1.48737848
v -0.471160114 3.05596638 -1.55378354
v -0.00972030126 3.52169919 -1.52824032
v -0.596889734 4.74082994 -1.06169498
v -0.511406898 5.2760973 -0.901592374
v -0.423957139 5.80541468 -0.724168062
v -0.00972030126 5.73720884 -0.772743523
v 0.249415055 3.52161574 -1.48737848
v -0.00972030126 4.73256779 -1.13850284
v -0.00972030126 5.26708412 -0.943688333
v 0.404516488 5.80541468 -0.724168062
v 0.451719493 3.05596638 -1.55378354
v -0.00972030126 4.35269785 -1.2627368
v 0.625543177 4.36431122 -1.15805876
v 0.577449083 4.74082994 -1.06169498
v 0.491966307 5.2760973 -0.901592374
v 0.583755791 5.87927341 -0.714008749
v 0.820316553 5.27826118 -0.831192613
v 0.620847106 5.87223577 -0.706074834
v 0.853167415 5.26730824 -0.758107901
v 0.987892985 4.74519396 -0.896251798
v 1.02454019 4.73275042 -0.768026412
v 1.10133767 4.36769056 -0.925034165
v 1.13646448 4.35180426 -0.723576009
v 1.26969171 3.94625354 -0.684800684
v 1.23823714 3.94769168 -0.939785123
v 1.04032552 3.93546653 -1.05725276
v 1.38908887 3.52248645 -0.958498538
v 1.41960108 3.52078128 -0.647074282
v 1.58289123 3.08401036 -0.617379725
v 1.14130437 3.5136199 -1.10108066
v 1.55198014 3.08439326 -0.98899287
v 1.26070535 3.05423617 -1.14120114
v 1.68244064 2.77800035 -1.01797235
v 1.70531988 2.79185033 -0.603453636
v 1.08789444 3.05904555 -1.39358604
v 0.978414357 3.52617311 -1.28464568
v 0.922358632 2.61787438 -1.47064114
v 0.844539702 3.05540729 -1.38293421
v 0.87984997 3.94784832 -1.20170474
v 0.643884242 3.07570553 -1.53637052
v 0.757737398 3.51602626 -1.29640687
v 0.568573773 3.52740407 -1.41203368
v 0.686062932 3.94129443 -1.21618712
v 0.517089546 3.94972348 -1.30106437
v 2.19227815 1.99351335 -0.823915839
v 2.05769992 2.14096808 -0.5846591
v 2.21567678 1.99069226 -0.578641832
v 2.032161 2.14089203 -0.822693169
v 1.92821407 2.31225991 -0.59359479
v 2.02895427 2.08395982 -1.059991
v 2.1978035 1.89072931 -1.09976709
v 1.97984815 1.73416591 -1.23893487
v 1.90212417 2.28806067 -1.02356851
v 1.78504288 2.56046629 -0.60146147
v 1.57246625 1.80142999 -1.21661222
v 1.6679734 1.54833508 -1.2228117
v 1.55412507 1.57134902 -1.68062782
v 1.66938019 1.26435494 -1.7587049
v 1.08542871 1.37579632 -1.65599835
v 1.1314193 1.02791476 -1.74619317
v 0.911358297 1.38130689 -2.01016402
v 0.97566551 1.0466845 -2.14387822
v 0.85427326 0.96411854 -2.15756059
v 0.629575551 1.16367149 -1.96463311
v 0.681293726 0.81682533 -2.09168291
v -0.00972030126 1.10538733 -2.30954218
v -0.00972030126 0.788376749 -2.48480153
v -0.664364517 0.797498763 -2.09403563
v 0.583924353 1.53682709 -1.86865997
v 0.855547249 1.7058841 -1.9074105
v 1.03823054 1.69935906 -1.58740997
v -0.649016201 1.16367149 -1.96463311
v -0.89046073 0.993610799 -2.15971065
v 0.771590889 2.17478442 -1.75434244
v -0.00972030126 1.48835993 -2.18937683
v -0.930798948 1.38130701 -2.01016378
v -1.05432832 1.06417072 -2.05665636
v 1.44024003 1.83967483 -1.65571392
v 0.530695498 2.08757639 -1.74177229
v -0.603365004 1.53682709 -1.86865997
v -1.10486937 1.37579632 -1.65599835
v -1.15085983 1.02791476 -1.74619317
v 1.50634658 2.03239608 -1.19417703
v 1.75750101 2.53374076 -0.997962654
v 1.41299975 2.34557438 -1.17021179
v 1.63925886 2.7554903 -0.987257659
v 1.68052471 2.77648187 -0.605907857
v 1.56277764 3.07101774 -0.619285583
v -0.874987841 1.7058841 -1.9074105
v -1.55331087 1.53982186 -1.71910989
v -1.63695955 1.22177517 -1.80545282
v -1.66893327 1.54783022 -1.23266602
v -1.05767107 1.69935906 -1.58740997
v -1.59190667 1.80142999 -1.21661222
v -1.98320186 1.7045716 -1.2413609
v 1.3220365 2.65623856 -1.14387512
v -0.79103148 2.17478442 -1.75434244
v -1.45968032 1.83967483 -1.65571392
v -1.88167274 1.96248817 -1.1808418
v -2.20230961 1.88662827 -1.10521436
v -1.525787 2.03239608 -1.19417703
v -2.04839468 2.08395982 -1.059991
v -2.20118713 1.98216879 -0.814791858
v -1.9215647 2.28806067 -1.02356851
v -2.05160141 2.14089203 -0.822693169
v -2.07399321 2.1294086 -0.57470578
v -2.22054982 1.99237716 -0.586959958
v -1.94737685 2.30161715 -0.583529055
v -1.8038702 2.55348897 -0.592499852
v -1.77694154 2.53374076 -0.997962654
v -1.69901633 2.77316976 -0.598050535
v -1.43244016 2.34557438 -1.17021179
v -1.65869927 2.7554903 -0.987257659
v -1.57559884 3.06770563 -0.61217469
v -1.3216958 2.26397133 -1.54516494
v -1.34147716 2.65623856 -1.14387512
v -1.20550871 2.61139607 -1.45228636
v -0.987105012 2.16443777 -1.50323772
v -1.52688956 3.06448913 -0.958421588
v -1.24715579 3.0395906 -1.09635866
v -1.36521995 3.50460863 -0.925040245
v -1.41169715 3.5061748 -0.64238888
v -1.26157033 3.93237329 -0.680550218
v -1.08317399 3.04267573 -1.34396362
v -0.924006462 2.60255384 -1.41807246
v -1.12578475 3.49897671 -1.05774319
v -1.21442521 3.93148255 -0.905418992
v -0.716953337 2.61054349 -1.61577201
v -0.846828878 3.04062891 -1.32999969
v -1.07653081 4.35176945 -0.891815782
v -1.12776709 4.33963108 -0.719287097
v -1.01819766 4.71984434 -0.746404707
v -1.02658701 3.9224124 -1.0120672
v -0.628873348 4.35048008 -1.10478234
v -0.973802865 3.51122737 -1.23451722
v -0.964474082 4.72818279 -0.861791372
v -0.845898569 5.24992418 -0.754973114
v -0.695846915 3.9324584 -1.18682861
v -0.760636151 3.50180554 -1.24312556
v -0.790896893 5.24814081 -0.794258416
v -0.621061921 5.84870815 -0.68722105
v -0.565639138 5.84823608 -0.669197977
v -0.00972030126 3.93099785 -1.31237113
v -0.567506135 3.51191711 -1.36051357
v -0.00972030126 4.33558989 -1.20776308
v -0.643713534 3.05905795 -1.4848721
v -0.5843606 4.72468185 -1.00812495
v -0.512894034 5.20012569 -0.866362274
v -0.42376408 5.78760958 -0.669425666
v -0.00972030126 5.71789026 -0.718507051
v 0.609432638 4.35048008 -1.10478234
v -0.00776488055 4.71409369 -1.08401489
v 0.564920068 4.72468185 -1.00812495
v -0.00972030126 5.2471652 -0.889670372
v 0.486168236 5.25824833 -0.847315669
v 0.404323459 5.78760958 -0.669425666
v 0.567026854 5.86033058 -0.662277818
v 0.785386622 5.25926256 -0.790139735
v 0.622699857 5.85776854 -0.691953123
v 0.845452249 5.25601721 -0.748208582
v 0.945033371 4.72818279 -0.861790776
v 1.0096451 4.71907806 -0.748505831
v 1.05709016 4.35176945 -0.891815782
v 1.11610925 4.33652925 -0.724389315
v 1.19498467 3.93148255 -0.905418992
v 1.25067794 3.93186259 -0.686301231
v 1.00714636 3.9224124 -1.0120672
v 1.34577954 3.50460863 -0.925040245
v 1.4015702 3.50825548 -0.648789048
v 1.1063441 3.49897671 -1.05774319
v 1.50744903 3.06448913 -0.958421588
v 1.22771502 3.0395906 -1.09635866
v 1.06373334 3.04267573 -1.34396362
v 0.954362214 3.51122737 -1.23451722
v 0.858362794 3.93423176 -1.15007663
v 1.18606806 2.61139607 -1.45228636
v 1.30225527 2.26397133 -1.54516494
v 0.96766448 2.16443777 -1.50323772
v 0.904565811 2.60255384 -1.41807246
v 0.827388287 3.04062891 -1.32999969
v 0.697512746 2.61054349 -1.61577201
v 0.7411955 3.50180554 -1.24312556
v 0.486262619 2.59755087 -1.61785579
v 0.624272883 3.05905795 -1.4848721
v 0.671244025 3.92842221 -1.16207278
v 0.548065543 3.51191711 -1.36051357
v 0.499612004 3.93472099 -1.2483362
v 0.439772338 3.03997827 -1.49978173
v 0.238129422 3.50554323 -1.4332577
v -0.00972030126 3.04284406 -1.63035524
v -0.00972030126 2.59618807 -1.78810513
v -0.00972030126 3.50407982 -1.47342861
v -0.257570028 3.50554323 -1.4332577
v -0.459212989 3.03997827 -1.49978173
v -0.50570327 2.59755087 -1.61785579
v -0.550136149 2.08757639 -1.74177229
v -0.00972030126 2.04972339 -1.99329209
vt 0.930175781 0.0661621094
vt 0.920898438 0.0671386719
vt 0.920898438 0.264160156
vt 0.930175781 0.264404297
vt 0.920898438 0.314453125
vt 0.930175781 0.311523438
vt 0.930175781 0.351074219
vt 0.920898438 0.350097656
vt 0.930175781 0.434570312
vt 0.920898438 0.429199219
vt 0.930175781 0.578613281
vt 0.920898438 0.576171875
vt 0.930175781 0.690429688
vt 0.920898438 0.686035156
vt 0.930175781 0.754882812
vt 0.920898438 0.762207031
vt 0.930175781 0.833496094
vt 0.920898438 0.833496094
vt 0.920898438 0.907226562
vt 0.930175781 0.910644531
vt 0.920898438 0.966796875
vt 0.930175781 0.969238281
vt 0.980957031 0.982421875
vt 0.994628906 0.982421875
vt 0.994628906 0.833496094
vt 0.980957031 0.833496094
vt 0.994628906 0.733886719
vt 0.980957031 0.705078125
vt 0.994628906 0.613769531
vt 0.980957031 0.613769531
vt 0.994628906 0.515136719
vt 0.980957031 0.515136719
vt 0.994628906 0.411132812
vt 0.980957031 0.411132812
vt 0.994628906 0.303466797
vt 0.980957031 0.303466797
vt 0.994628906 0.230102539
vt 0.980957031 0.230102539
vt 0.994628906 0.174560547
vt 0.980957031 0.174560547
vt 0.994628906 0.109191895
vt 0.980957031 0.109191895
vt 0.994628906 0.0623168945
vt 0.980957031 0.0623168945
vt 0.994628906 0.0153198242
vt 0.980957031 0.0153198242
vt 0.944824219 0.9375
vt 0.936523438 0.835449219
vt 0.936035156 0.940429688
vt 0.946289062 0.831054688
vt 0.936523438 0.7578125
vt 0.946289062 0.7578125
vt 0.936523438 0.703125
vt 0.946289062 0.698730469
vt 0.946289062 0.662109375
vt 0.936523438 0.669921875
vt 0.936523438 0.532226562
vt 0.946289062 0.528808594
vt 0.936523438 0.347900391
vt 0.946289062 0.341552734
vt 0.936523438 0.243652344
vt 0.946289062 0.25390625
vt 0.936523438 0.150878906
vt 0.946289062 0.157470703
vt 0.946289062 0.0740356445
vt 0.936523438 0.0751953125
vt 0.936523438 0.0136413574
vt 0.946289062 0.0116958618
vt 0.971191406 0.990234375
vt 0.957519531 0.838867188
vt 0.957519531 0.990234375
vt 0.971191406 0.838867188
vt 0.957519531 0.737792969
vt 0.971191406 0.708984375
vt 0.957519531 0.616699219
vt 0.971191406 0.616699219
vt 0.957519531 0.516601562
vt 0.971191406 0.516601562
vt 0.957519531 0.410888672
vt 0.971191406 0.410888672
vt 0.957519531 0.301757812
vt 0.971191406 0.301757812
vt 0.957519531 0.227294922
vt 0.971191406 0.227294922
vt 0.957519531 0.170776367
vt 0.971191406 0.170776367
vt 0.957519531 0.104187012
vt 0.971191406 0.104187012
vt 0.957519531 0.0562133789
vt 0.971191406 0.0562133789
vt 0.957519531 0.00790405273
vt 0.971191406 0.00790405273
vt 0.00698852539 0.067199707
vt 0.0266265869 0.0111465454
vt 0.00698852539 0.0111465454
vt 0.0202484131 0.0777587891
vt 0.00698852539 0.124511719
vt 0.0386962891 0.0748901367
vt 0.0464782715 0.0111465454
vt 0.0681152344 0.0111465454
vt 0.0303955078 0.130493164
vt 0.0791015625 0.0822143555
vt 0.086730957 0.0111465454
vt 0.0306549072 0.209106445
vt 0.00698852539 0.204711914
vt 0.0712280273 0.140991211
vt 0.110046387 0.0690917969
vt 0.117858887 0.0111465454
vt 0.105102539 0.127563477
vt 0.143554688 0.0798339844
vt 0.151489258 0.0111465454
vt 0.164672852 0.0863037109
vt 0.171264648 0.0111465454
vt 0.177978516 0.0111465454
vt 0.186645508 0.0111465454
vt 0.13671875 0.141967773
vt 0.0628662109 0.217285156
vt 0.157104492 0.154785156
vt 0.0961303711 0.219116211
vt 0.175048828 0.0804443359
vt 0.172607422 0.148925781
vt 0.149536133 0.249023438
vt 0.127075195 0.234008789
vt 0.0966796875 0.296386719
vt 0.0617370605 0.295166016
vt 0.231079102 0.0776367188
vt 0.231811523 0.0111465454
vt 0.230224609 0.141357422
vt 0.289306641 0.148803711
vt 0.288818359 0.0804443359
vt 0.275634766 0.0111465454
vt 0.287353516 0.0111465454
vt 0.298339844 0.0848388672
vt 0.297607422 0.0111465454
vt 0.229125977 0.243774414
vt 0.319091797 0.0791015625
vt 0.312255859 0.0111465454
vt 0.172485352 0.250244141
vt 0.303466797 0.155395508
vt 0.349609375 0.0681762695
vt 0.340820312 0.0111465454
vt 0.323242188 0.142578125
vt 0.308105469 0.250976562
vt 0.284667969 0.250244141
vt 0.229003906 0.347900391
vt 0.172485352 0.345458984
vt 0.3828125 0.0783081055
vt 0.375 0.0111465454
vt 0.285888672 0.344726562
vt 0.354492188 0.127197266
vt 0.405517578 0.0772094727
vt 0.392578125 0.0111465454
vt 0.413574219 0.0111465454
vt 0.151123047 0.335205078
vt 0.229248047 0.43359375
vt 0.390136719 0.137329102
vt 0.420654297 0.0734863281
vt 0.432617188 0.0111465454
vt 0.428466797 0.130371094
vt 0.437011719 0.0778808594
vt 0.450683594 0.0653076172
vt 0.450683594 0.0111465454
vt 0.450683594 0.121459961
vt 0.429931641 0.207885742
vt 0.450683594 0.200439453
vt 0.396484375 0.213989258
vt 0.425537109 0.275146484
vt 0.450683594 0.268066406
vt 0.450683594 0.354003906
vt 0.362060547 0.217407227
vt 0.39453125 0.290039062
vt 0.332519531 0.233642578
vt 0.360351562 0.294921875
vt 0.307617188 0.333007812
vt 0.334960938 0.322265625
vt 0.360107422 0.390625
vt 0.392578125 0.377685547
vt 0.335205078 0.411621094
vt 0.307373047 0.424316406
vt 0.423828125 0.356933594
vt 0.423095703 0.463134766
vt 0.450683594 0.471679688
vt 0.450683594 0.574707031
vt 0.390380859 0.477294922
vt 0.360839844 0.491943359
vt 0.416015625 0.564941406
vt 0.408447266 0.661621094
vt 0.450683594 0.665527344
vt 0.442382812 0.742675781
vt 0.387695312 0.572753906
vt 0.331054688 0.6796875
vt 0.407226562 0.744628906
vt 0.450683594 0.852050781
vt 0.334716797 0.506835938
vt 0.332519531 0.593261719
vt 0.409423828 0.853027344
vt 0.450683594 0.9765625
vt 0.419677734 0.9765625
vt 0.306640625 0.516601562
vt 0.228759766 0.607910156
vt 0.264404297 0.522949219
vt 0.285888672 0.429443359
vt 0.229125977 0.523925781
vt 0.334472656 0.758789062
vt 0.34375 0.871582031
vt 0.363525391 0.9765625
vt 0.232543945 0.9765625
vt 0.194091797 0.5234375
vt 0.228759766 0.76953125
vt 0.229248047 0.883300781
vt 0.101928711 0.9765625
vt 0.173706055 0.430175781
vt 0.228393555 0.690429688
vt 0.126098633 0.680664062
vt 0.122741699 0.760253906
vt 0.114685059 0.871582031
vt 0.0397338867 0.9765625
vt 0.0472717285 0.856445312
vt 0.00698852539 0.9765625
vt 0.00698852539 0.856933594
vt 0.0497131348 0.747070312
vt 0.0096206665 0.749511719
vt 0.0481567383 0.665039062
vt 0.00698852539 0.671386719
vt 0.00698852539 0.580566406
vt 0.040435791 0.569824219
vt 0.0693969727 0.576171875
vt 0.0335693359 0.468261719
vt 0.00698852539 0.477539062
vt 0.00698852539 0.359375
vt 0.0667724609 0.481689453
vt 0.0323486328 0.36328125
vt 0.0639648438 0.382568359
vt 0.0328369141 0.280273438
vt 0.00698852539 0.272949219
vt 0.0977783203 0.392089844
vt 0.0966186523 0.493408203
vt 0.122680664 0.321289062
vt 0.122802734 0.410888672
vt 0.0982666016 0.584472656
vt 0.151000977 0.423828125
vt 0.124145508 0.506835938
vt 0.151733398 0.517089844
vt 0.124267578 0.594238281
vt 0.151733398 0.602050781
vt 0.893066406 0.00908660889
vt 0.912597656 0.0592956543
vt 0.912597656 0.00908660889
vt 0.896972656 0.0739135742
vt 0.912597656 0.114379883
vt 0.879394531 0.0695800781
vt 0.873046875 0.00908660889
vt 0.851074219 0.00908660889
vt 0.888183594 0.124816895
vt 0.912597656 0.195922852
vt 0.839355469 0.0825195312
vt 0.832519531 0.00908660889
vt 0.806152344 0.0665283203
vt 0.801269531 0.00908660889
vt 0.773925781 0.077331543
vt 0.767089844 0.00908660889
vt 0.753417969 0.0827636719
vt 0.747558594 0.00908660889
vt 0.740722656 0.00908660889
vt 0.744140625 0.0790405273
vt 0.731933594 0.00908660889
vt 0.6875 0.076171875
vt 0.686523438 0.00908660889
vt 0.642578125 0.00908660889
vt 0.746582031 0.146484375
vt 0.760253906 0.151123047
vt 0.778808594 0.139648438
vt 0.629394531 0.0780029297
vt 0.630859375 0.00908660889
vt 0.768066406 0.245239258
vt 0.687011719 0.138916016
vt 0.62109375 0.0825195312
vt 0.620117188 0.00908660889
vt 0.809570312 0.122680664
vt 0.744628906 0.244995117
vt 0.627929688 0.146362305
vt 0.599121094 0.0763549805
vt 0.60546875 0.00908660889
vt 0.846679688 0.137817383
vt 0.890136719 0.201904297
vt 0.85546875 0.210449219
vt 0.887695312 0.270019531
vt 0.912597656 0.265136719
vt 0.912597656 0.345703125
vt 0.614257812 0.148681641
vt 0.568359375 0.0627441406
vt 0.576660156 0.00908660889
vt 0.542480469 0.00908660889
vt 0.59375 0.136352539
vt 0.538574219 0.0776977539
vt 0.524902344 0.00908660889
vt 0.856445312 0.283935547
vt 0.604003906 0.239746094
vt 0.563964844 0.120727539
vt 0.511230469 0.0745239258
vt 0.50390625 0.00908660889
vt 0.532226562 0.137573242
vt 0.497070312 0.069519043
vt 0.484375 0.00908660889
vt 0.489501953 0.124511719
vt 0.480712891 0.0737915039
vt 0.466308594 0.0628662109
vt 0.466308594 0.00908660889
vt 0.466308594 0.119262695
vt 0.466308594 0.197143555
vt 0.490478516 0.200683594
vt 0.466308594 0.262939453
vt 0.522460938 0.2109375
vt 0.492675781 0.268310547
vt 0.466308594 0.342773438
vt 0.5546875 0.212036133
vt 0.520019531 0.286132812
vt 0.554199219 0.287353516
vt 0.583984375 0.226928711
vt 0.4921875 0.349609375
vt 0.521972656 0.371337891
vt 0.4921875 0.453857422
vt 0.466308594 0.452636719
vt 0.466308594 0.554199219
vt 0.555175781 0.380859375
vt 0.579589844 0.312744141
vt 0.524902344 0.468994141
vt 0.498535156 0.553710938
vt 0.608398438 0.325927734
vt 0.580078125 0.400146484
vt 0.506835938 0.648925781
vt 0.466308594 0.648925781
vt 0.466308594 0.73046875
vt 0.526855469 0.562011719
vt 0.583496094 0.666503906
vt 0.554199219 0.48046875
vt 0.508789062 0.731933594
vt 0.466308594 0.842285156
vt 0.583007812 0.580078125
vt 0.58203125 0.494384766
vt 0.508789062 0.846191406
vt 0.466308594 0.979492188
vt 0.500976562 0.979492188
vt 0.688964844 0.594238281
vt 0.611816406 0.504882812
vt 0.688476562 0.676757812
vt 0.609863281 0.412841797
vt 0.579589844 0.746582031
vt 0.572753906 0.850097656
vt 0.557128906 0.979492188
vt 0.692382812 0.979492188
vt 0.79296875 0.66796875
vt 0.688476562 0.755859375
vt 0.796386719 0.747070312
vt 0.688476562 0.873535156
vt 0.805664062 0.861816406
vt 0.825195312 0.979492188
vt 0.881347656 0.979492188
vt 0.869628906 0.845703125
vt 0.912597656 0.979492188
vt 0.912597656 0.845214844
vt 0.867675781 0.734863281
vt 0.912597656 0.732421875
vt 0.869140625 0.652832031
vt 0.912597656 0.648925781
vt 0.878417969 0.557617188
vt 0.912597656 0.556640625
vt 0.850585938 0.563964844
vt 0.885742188 0.456542969
vt 0.912597656 0.455810547
vt 0.853515625 0.469482422
vt 0.88671875 0.351318359
vt 0.85546875 0.370605469
vt 0.822753906 0.381835938
vt 0.823730469 0.482177734
vt 0.822265625 0.572753906
vt 0.821777344 0.287353516
vt 0.8203125 0.211303711
vt 0.791015625 0.228149414
vt 0.796875 0.314208984
vt 0.797363281 0.401855469
vt 0.768066406 0.324951172
vt 0.797363281 0.495849609
vt 0.74609375 0.3359375
vt 0.768066406 0.413818359
vt 0.795410156 0.582519531
vt 0.767089844 0.504882812
vt 0.766113281 0.589355469
vt 0.746582031 0.418212891
vt 0.724609375 0.510253906
vt 0.688964844 0.421630859
vt 0.6875 0.338134766
vt 0.689453125 0.510742188
vt 0.654296875 0.511230469
vt 0.632324219 0.418945312
vt 0.629882812 0.336669922
vt 0.627441406 0.244506836
vt 0.686523438 0.237548828
vn 0.0172129646 -0.85745573 -0.51426959
vn 0.0110738035 -0.85769999 -0.514031231
vn 0.349187851 -0.807781339 -0.474928617
vn 0.3671408 -0.806750357 -0.462991804
vn 0.549165785 -0.735949278 -0.395974219
vn 0.556266189 -0.747184873 -0.363706768
vn 0.326613992 -0.905577302 -0.27065292
vn 0.307931393 -0.918045759 -0.249740332
vn 0.346349597 -0.937849939 0.021898061
vn 0.311522961 -0.949276149 -0.0427571461
vn 0.671818614 -0.694886446 0.256500751
vn 0.62669754 -0.741310894 0.240225583
vn 0.684045672 -0.70031172 0.204071239
vn 0.692852557 -0.689166784 0.212142304
vn 0.542684317 -0.839043379 0.038730558
vn 0.565587759 -0.824619234 0.0106656626
vn 0.650840104 -0.756493628 0.0642230138
vn 0.675602257 -0.728222668 0.115123056
vn 0.735491455 -0.662648261 0.141242787
vn 0.737986445 -0.670767605 0.0738025531
vn 0.731872201 -0.677701116 -0.0713032857
vn 0.73187232 -0.677701116 -0.0713032931
vn 0.829057515 0.268652111 0.490397394
vn 0.829057515 0.268652141 0.490397483
vn 0.778114617 0.246561319 0.577706814
vn 0.73351723 0.227878705 0.64033103
vn 0.582104802 0.202192932 0.787573457
vn 0.507094026 0.196711332 0.839142561
vn 0.15882583 0.133463904 0.978244245
vn 0.0596841387 0.106480405 0.992521942
vn -0.109822772 0.0542416498 0.992470026
vn -0.112928703 0.051410675 0.992272139
vn -0.115944594 0.037086226 0.992563069
vn -0.114719667 0.0339212567 0.992818594
vn -0.10713844 0.0179790165 0.994081557
vn -0.105708703 0.0154538015 0.99427706
vn -0.101388477 -0.00795154739 0.994815052
vn -0.101673514 -0.0106914304 0.994760334
vn -0.116061985 -0.0344105773 0.992645741
vn -0.117070071 -0.0349949002 0.992506921
vn -0.126693174 -0.042436298 0.991033852
vn -0.126490265 -0.0425734408 0.991053879
vn -0.12373051 -0.0592672005 0.990544319
vn -0.123501949 -0.0652468428 0.990197062
vn -0.122825898 -0.082280241 0.989011526
vn -0.122825906 -0.082280241 0.989011526
vn 0.0172129646 -0.85745573 -0.51426959
vn -0.343472719 -0.837064981 -0.4258506
vn 0.0110738035 -0.85769999 -0.514031231
vn -0.408937961 -0.836961567 -0.363682568
vn -0.592864931 -0.794461906 -0.131687284
vn -0.609128833 -0.785029173 -0.112655684
vn -0.319867402 -0.923512638 -0.211681917
vn -0.328573763 -0.920237422 -0.212608889
vn -0.301515341 -0.941423714 -0.15102905
vn -0.299579203 -0.941906691 -0.15186879
vn -0.654770195 -0.750184119 0.092194207
vn -0.68508637 -0.718594909 0.119490534
vn -0.690188527 -0.687096298 0.227020636
vn -0.687903464 -0.689531028 0.226574212
vn -0.516729712 -0.842415988 0.152727783
vn -0.547098458 -0.824879885 0.142325029
vn -0.66703099 -0.725148201 0.170966744
vn -0.647619724 -0.745457649 0.157739058
vn -0.781898022 -0.614959121 0.102278106
vn -0.768679559 -0.626214445 0.130334303
vn -0.828251541 -0.560089469 -0.0172924958
vn -0.828251541 -0.560089469 -0.017292494
vn -0.732704878 0.211969852 0.646693289
vn -0.678541303 0.209051996 0.704186797
vn -0.732704937 0.211969897 0.646693289
vn -0.672143519 0.208639488 0.710417151
vn -0.590676427 0.213294804 0.778207302
vn -0.586090982 0.215470165 0.781069756
vn -0.4195337 0.205174848 0.884248078
vn -0.42018798 0.205302954 0.883907676
vn -0.212417811 0.161256701 0.963781536
vn -0.21278134 0.16131103 0.963692307
vn -0.230018154 0.159788013 0.959978819
vn -0.232626677 0.159440622 0.959407926
vn -0.253015697 0.157322034 0.954585135
vn -0.255711854 0.157214522 0.953884184
vn -0.268661588 0.156168401 0.950490594
vn -0.270633787 0.155746222 0.950000167
vn -0.272233039 0.167112112 0.947608948
vn -0.270368904 0.176334113 0.946470737
vn -0.263954431 0.196437225 0.944320083
vn -0.255912662 0.21562694 0.942344844
vn -0.216208875 0.185733736 0.958517969
vn -0.171037421 0.127646446 0.976960838
vn -0.15065147 0.101601951 0.983352005
vn -0.15065147 0.101601966 0.983352005
vn 0.757351518 0.652254403 0.031349957
vn 0.76448375 0.635876358 -0.105952933
vn 0.735777915 0.676892877 0.0211366974
vn 0.767629385 0.636352003 -0.0761660933
vn 0.846450686 0.531989574 -0.0225473195
vn 0.472626984 0.44419241 -0.761128724
vn 0.605632961 0.537704408 -0.586585522
vn 0.0736639425 0.33722499 -0.938537717
vn 0.576170444 0.395171285 -0.715448976
vn 0.715851128 0.352124393 -0.602963924
vn 0.881768346 0.289171487 -0.372645169
vn 0.703444183 0.400592983 -0.587104321
vn 0.876839519 0.479210228 -0.0388583727
vn 0.66918242 0.320655674 -0.670354366
vn 0.499020696 0.294364065 -0.815063238
vn 0.263333887 0.253074497 -0.930918157
vn 0.381375104 0.296388954 -0.875617862
vn 0.399864733 0.224977091 -0.888534486
vn 0.482180625 0.23892948 -0.842860937
vn 0.485403061 0.310289741 -0.817376375
vn 0.761621952 0.272774488 -0.587814569
vn -0.381791264 0.268215835 -0.884474754
vn 0.284489512 0.347225964 -0.893588185
vn 0.367744952 0.23440899 -0.899897814
vn 0.67474848 0.303332388 -0.672832787
vn 0.388098359 0.303493768 -0.87021327
vn 0.433986396 0.322322339 -0.841287136
vn 0.233112365 0.309851468 -0.92176497
vn 0.244725227 0.272829443 -0.930415869
vn 0.40257585 0.299633205 -0.864958227
vn 0.333422512 0.258190215 -0.906734407
vn 0.444537908 0.313722461 -0.839025855
vn 0.663756549 0.290777564 -0.689112186
vn -0.00549081061 0.338594854 -0.94091624
vn -0.0127923675 0.366622627 -0.930281699
vn -0 0.299738497 -0.954021394
vn -0.244725168 0.272829503 -0.930415869
vn -0.281922162 0.300081819 -0.911301613
vn -0.374386728 0.319653481 -0.870434523
vn 0.221440092 0.270002127 -0.937050283
vn -0.349216878 0.330336422 -0.876883864
vn -0.775489628 0.248853028 -0.580248177
vn -0 0.3036789 -0.952774405
vn -0.246853843 0.231832564 -0.940912783
vn -0.187504247 0.176313117 -0.966310501
vn 0.236079797 0.279975176 -0.930526912
vn -0.38809821 0.303493917 -0.870213389
vn -0.490215898 0.275080621 -0.827054322
vn -0.253390253 0.22597295 -0.940600693
vn -0.345387161 0.255345702 -0.90305382
vn -0.40257594 0.299633324 -0.864958167
vn -0.236079797 0.279975206 -0.930526912
vn -0 0.311119884 -0.95037061
vn 0.226970553 0.290234059 -0.929649651
vn -0.759902239 0.257483751 -0.596867323
vn -0.829987168 0.225637674 -0.510106802
vn -0.226970524 0.290234119 -0.929649651
vn -0.41043815 0.310454786 -0.857413888
vn -0.163280427 0.270637214 -0.94873333
vn -0.130946875 0.168465704 -0.976970971
vn -0.562651396 0.446148753 -0.695970356
vn 0.394612283 0.296656877 -0.869641244
vn -0 0.298698038 -0.95434767
vn -0.731978774 0.33499071 -0.593286037
vn -0.645183027 0.495828778 -0.581285357
vn -0.784009218 0.613296807 -0.095898293
vn -0.641292632 0.462105006 -0.61253798
vn -0.771362662 0.63401854 -0.0549559854
vn -0.754460216 0.652360082 0.0722216368
vn -0.730841219 0.681105077 0.0443517268
vn -0.843834281 0.536217451 0.0203593988
vn -0.713599682 0.405777484 -0.5710693
vn -0.877898574 0.478840858 0.00235688919
vn -0.674748421 0.303332537 -0.672832727
vn -0.743062675 0.366578877 -0.559890866
vn -0.907940626 0.418784559 -0.0162271541
vn -0.929235578 0.368428946 -0.0279537309
vn -0.433986455 0.322322607 -0.841287076
vn -0.663756549 0.290777504 -0.689112306
vn -0.333422542 0.258190334 -0.906734288
vn -0.444537759 0.313722432 -0.839025855
vn -0.394612223 0.296656847 -0.869641244
vn -0.324225277 0.263388604 -0.908572793
vn -0.458354741 0.289219528 -0.840394497
vn -0.633895457 0.267529517 -0.725675225
vn -0.305705428 0.259941906 -0.915955484
vn -0.406612873 0.291962117 -0.865692854
vn -0.79199481 0.342050135 -0.505713284
vn -0.81554544 0.318260103 -0.483317941
vn -0.938947201 0.342345774 -0.0343150124
vn -0.945310712 0.323315948 -0.0430622771
vn -0.583802402 0.264638871 -0.767555296
vn -0.461867273 0.290901721 -0.837887108
vn -0.844335794 0.305487484 -0.440198272
vn -0.694397092 0.280801237 -0.662542999
vn -0.95250082 0.296857119 -0.0679555386
vn -0.942679405 0.294178784 -0.157525629
vn -0.503125012 0.258190989 -0.824743986
vn -0.244192854 0.247446507 -0.937624633
vn -0.536776185 0.284150839 -0.794436693
vn -0.867008686 0.345768958 -0.358803362
vn -0.305186808 0.22979632 -0.924150765
vn -0.275367677 0.281790942 -0.919111729
vn -0.380210787 0.303252935 -0.873771906
vn -0.713111222 0.363028824 -0.59973532
vn -0.210017383 0.301688164 -0.929987609
vn -0.29343456 0.310721338 -0.904073238
vn -0.0258368328 0.285762876 -0.957951963
vn -0.19827576 0.310589701 -0.92963469
vn -0.207004145 0.283114523 -0.936480343
vn -0 0.29925096 -0.954174399
vn -0.213375539 0.283561081 -0.934913874
vn -0.134038806 0.306298077 -0.942451596
vn -0.0829483196 0.311431855 -0.946641326
vn -0 0.334217668 -0.942495883
vn 0.18822521 0.291675866 -0.937814713
vn -0 0.30649218 -0.951873183
vn -0 0.327214718 -0.944949925
vn 0.0841103643 0.310725927 -0.946770668
vn 0.207004204 0.283114523 -0.936480343
vn -0.0134666795 0.268186182 -0.963272989
vn 0.243561998 0.262151629 -0.933784783
vn 0.213078856 0.282619566 -0.935266554
vn 0.134858534 0.305035591 -0.942744136
vn 0.198597029 0.301168889 -0.932661057
vn 0.371239871 0.298669249 -0.879191518
vn 0.742826104 0.367354512 -0.559696436
vn 0.869591832 0.329984695 -0.367314845
vn 0.524700642 0.278340846 -0.804497123
vn 0.931066871 0.289993405 -0.221400619
vn 0.678837597 0.275922298 -0.680475116
vn 0.944228292 0.295847028 -0.144594669
vn 0.940910459 0.31998533 -0.110891275
vn 0.827574015 0.298401594 -0.475476325
vn 0.556584001 0.244129747 -0.794112682
vn 0.801838338 0.312628597 -0.509233475
vn 0.935856819 0.340619922 -0.0902769789
vn 0.9267084 0.367889822 -0.076607734
vn 0.612189412 0.246007726 -0.751468062
vn 0.779676557 0.3371782 -0.527650714
vn 0.633895338 0.267529488 -0.725675285
vn 0.732215941 0.361744463 -0.57706219
vn 0.906149983 0.418646425 -0.0602276139
vn 0.458354741 0.289219588 -0.840394497
vn 0.440009534 0.263788104 -0.858374834
vn 0.324225217 0.263388574 -0.908572793
vn 0.305705428 0.259941936 -0.915955484
vn 0.417382807 0.287612796 -0.862015367
vn 0.406612933 0.291962177 -0.865692794
vn 0.291547626 0.246653929 -0.92420882
vn 0.327568054 0.287452012 -0.900039136
vn 0.277663022 0.215285152 -0.936245382
vn 0.210067302 0.280194163 -0.936676502
vn -0.688613594 -0.709804058 0.148288578
vn -0.718783021 -0.691562235 0.0713630989
vn -0.68233645 -0.728146791 0.0649544373
vn -0.74033618 -0.660775781 0.123603188
vn -0.846725881 -0.525001466 0.086190857
vn -0.409728795 -0.473299295 0.779814124
vn -0.53966552 -0.616210639 0.573624969
vn -0.0480126441 -0.372123629 0.92694056
vn -0.553881168 -0.381313294 0.740145862
vn -0.871562362 -0.480892211 0.095507957
vn -0.704572618 -0.367476702 0.607073605
vn -0.840910077 -0.351007313 0.411902934
vn -0.456166387 -0.344776452 0.820390999
vn -0.215842754 -0.324526787 0.920920312
vn -0.376515388 -0.263629109 0.888108015
vn -0.474352062 -0.29957822 0.827794075
vn -0.473425955 -0.337200105 0.813734651
vn -0.769165635 -0.319944024 0.553190887
vn 0.4247697 -0.30955565 0.850732625
vn -0.218125612 -0.341486186 0.914225638
vn -0.256109476 -0.409139872 0.875792563
vn 0.00543686049 -0.377603769 0.925951362
vn 0.0116269309 -0.430551618 0.902491033
vn 0.363192916 -0.378512979 0.851363003
vn -0.246357575 -0.272445977 0.930097401
vn -0.390826523 -0.302276373 0.869415641
vn -0.364628077 -0.23916468 0.899914801
vn 0.274112999 -0.328034431 0.904021859
vn -0.280750483 -0.333360225 0.900027871
vn -0.404646844 -0.298932195 0.86423403
vn -0 -0.300524086 0.953774214
vn 0.340346634 -0.354559869 0.870891213
vn 0.762713671 -0.316203356 0.56416595
vn -0.384041727 -0.301314563 0.872766554
vn -0.237962112 -0.279359251 0.930232525
vn 0.246357605 -0.272445977 0.930097401
vn 0.238305941 -0.270432293 0.932779074
vn 0.162211612 -0.261579931 0.951453328
vn -0.67043978 -0.319202423 0.669791281
vn -0.67467761 -0.390029579 0.626647413
vn -0.675420165 -0.303016931 0.672300816
vn -0.705867887 -0.35074088 0.61541158
vn -0.9019292 -0.413962573 0.123120934
vn -0.91971153 -0.360417396 0.155660048
vn 0.390826583 -0.302276313 0.8694157
vn 0.453700751 -0.329774439 0.827891588
vn 0.171109676 -0.304938585 0.936874568
vn 0.782960713 -0.306128114 0.541533172
vn 0.346029222 -0.254146874 0.903146327
vn 0.741738915 -0.304993033 0.597329617
vn 0.0899834558 -0.226330176 0.969885349
vn -0.664995074 -0.290181607 0.688168764
vn 0.404646844 -0.298932135 0.86423403
vn 0.404833943 -0.312675506 0.859269142
vn 0.140095577 -0.298129678 0.944188535
vn 0.50506711 -0.520840585 0.688209414
vn 0.735207498 -0.33241719 0.590735734
vn 0.590886176 -0.55026859 0.58996433
vn 0.725319386 -0.675060213 0.134927869
vn 0.622429907 -0.441781998 0.646072626
vn 0.759355903 -0.641335428 0.109851949
vn 0.739362955 -0.671020925 0.0554385521
vn 0.704930365 -0.706737101 0.0599658452
vn 0.848601043 -0.524419963 0.0697129816
vn 0.873865962 -0.478913844 0.0836655498
vn 0.682941973 -0.392309964 0.616184473
vn 0.902095437 -0.417267352 0.110053897
vn 0.675420165 -0.303016901 0.672300696
vn 0.712509394 -0.355020732 0.605219543
vn 0.921106279 -0.365962118 0.132796362
vn 0.43217352 -0.324159145 0.841514707
vn 0.664995074 -0.290181428 0.688168824
vn 0.443527639 -0.314944863 0.839102447
vn 0.333205193 -0.258483142 0.90673089
vn 0.756664991 -0.329719424 0.564573526
vn 0.633603454 -0.26669237 0.726238132
vn 0.77650243 -0.30384323 0.55201751
vn 0.928865552 -0.336375564 0.155113801
vn 0.929739177 -0.314293563 0.191845387
vn 0.459421694 -0.289978772 0.839549899
vn 0.322001874 -0.263441443 0.909347832
vn 0.583197653 -0.264535874 0.768050253
vn 0.795516074 -0.287234664 0.533526421
vn 0.395397216 -0.296014786 0.869503498
vn 0.304605186 -0.259873718 0.916341305
vn 0.641097844 -0.262518555 0.721164048
vn 0.923628688 -0.28830874 0.252563298
vn 0.870005608 -0.279056072 0.40647009
vn 0.500085652 -0.255966514 0.827282012
vn 0.238296404 -0.247186109 0.939209223
vn 0.461943179 -0.290802151 0.837879837
vn 0.486602157 -0.266337514 0.832035303
vn 0.622192502 -0.285111248 0.729100883
vn 0.275692344 -0.281296521 0.919165909
vn 0.304020315 -0.229703009 0.924558401
vn 0.279937387 -0.27713263 0.91914773
vn 0.18000102 -0.221706897 0.958355665
vn 0.105686463 -0.273321897 0.956099093
vn 0.0265965909 -0.285942614 0.957877576
vn 0.295253545 -0.30932045 0.90396136
vn 0.0140801743 -0.268660933 0.963131905
vn 0.408474326 -0.291517437 0.864966094
vn 0.206151754 -0.283405095 0.936580539
vn 0.130140886 -0.306893408 0.942804217
vn 0.0759234205 -0.313420922 0.94657433
vn 0.00250219135 -0.333876073 0.942613721
vn -0.237124056 -0.261408716 0.935648263
vn -0.00170970953 -0.306759328 0.951785564
vn -0.203778908 -0.283520132 0.937064826
vn -0.0010048137 -0.327731639 0.944770336
vn -0.12530452 -0.306644857 0.943539977
vn -0.0745050535 -0.312280715 0.947063804
vn -0.0920122489 -0.267634898 0.959116876
vn -0.270638078 -0.26941517 0.924213409
vn -0.112826712 -0.190645605 0.975153506
vn -0.599129975 -0.262479484 0.756404459
vn -0.427712858 -0.258166879 0.866263032
vn -0.809253871 -0.272861004 0.520245314
vn -0.60278517 -0.254123479 0.756353974
vn -0.92011869 -0.28279677 0.270938486
vn -0.781422377 -0.283067405 0.556104362
vn -0.921636879 -0.312657028 0.229850098
vn -0.556511164 -0.241842225 0.794863284
vn -0.764975071 -0.299340636 0.57027036
vn -0.923794568 -0.333766192 0.187626764
vn -0.612797916 -0.245738462 0.751060069
vn -0.748472571 -0.323917717 0.578676164
vn -0.633603454 -0.26669234 0.726238191
vn -0.459421694 -0.289978892 0.839549899
vn -0.439308256 -0.264454216 0.85852921
vn -0.41699788 -0.286779553 0.862479091
vn -0.443527699 -0.314945132 0.839102387
vn -0.432173491 -0.324159056 0.841514766
vn -0.333205134 -0.258483112 0.90673089
vn -0.322001994 -0.263441443 0.909347832
vn -0.304605126 -0.259873778 0.916341305
vn -0.395397186 -0.296014726 0.869503558
vn -0.290681273 -0.246872842 0.924423218
vn -0.228264377 -0.289922029 0.929430246
vn -0.408474177 -0.291517437 0.864966154
vn -0.276159346 -0.215054169 0.93674314
vn -0.329329312 -0.286415279 0.899726868
vn -0.212139249 -0.279610157 0.936384082
vn -0.207821116 -0.283178985 0.936279893
vn -0.189464226 -0.291335821 0.937670946
vn -0 -0.299300879 0.954158783
vn -0 -0.311345905 0.9502967
vn -0 -0.299382418 0.954133272
vn 0.19953467 -0.309981644 0.92956835
vn 0.207821116 -0.283178985 0.936279893
vn 0.228264332 -0.289922088 0.929430246
vn 0.237962052 -0.279359251 0.930232525
vn -0 -0.30416888 0.952618062
g PiFeng_0
f 3/3/3 2/2/2 1/1/1
f 4/4/4 3/3/3 1/1/1
f 5/5/5 3/3/3 4/4/4
f 6/6/6 5/5/5 4/4/4
f 5/5/5 6/6/6 7/7/7
f 8/8/8 5/5/5 7/7/7
f 8/8/8 7/7/7 9/9/9
f 10/10/10 8/8/8 9/9/9
f 10/10/10 9/9/9 11/11/11
f 12/12/12 10/10/10 11/11/11
f 12/12/12 11/11/11 13/13/13
f 14/14/14 12/12/12 13/13/13
f 14/14/14 13/13/13 15/15/15
f 16/16/16 14/14/14 15/15/15
f 16/16/16 15/15/15 17/17/17
f 18/18/18 16/16/16 17/17/17
f 18/18/18 17/17/17 19/19/19
f 17/17/17 20/20/20 19/19/19
f 19/19/19 20/20/20 21/21/21
f 20/20/20 22/22/22 21/21/21
f 25/25/25 24/24/24 23/23/23
f 26/26/26 25/25/25 23/23/23
f 25/25/25 26/26/26 27/27/27
f 26/26/26 28/28/28 27/27/27
f 29/29/29 27/27/27 28/28/28
f 30/30/30 29/29/29 28/28/28
f 31/31/31 29/29/29 30/30/30
f 32/32/32 31/31/31 30/30/30
f 33/33/33 31/31/31 32/32/32
f 34/34/34 33/33/33 32/32/32
f 35/35/35 33/33/33 34/34/34
f 36/36/36 35/35/35 34/34/34
f 37/37/37 35/35/35 36/36/36
f 38/38/38 37/37/37 36/36/36
f 37/37/37 38/38/38 39/39/39
f 38/38/38 40/40/40 39/39/39
f 41/41/41 39/39/39 40/40/40
f 42/42/42 41/41/41 40/40/40
f 43/43/43 41/41/41 42/42/42
f 44/44/44 43/43/43 42/42/42
f 45/45/45 43/43/43 44/44/44
f 46/46/46 45/45/45 44/44/44
f 49/49/49 48/48/48 47/47/47
f 48/48/48 50/50/50 47/47/47
f 48/48/48 51/51/51 50/50/50
f 51/51/51 52/52/52 50/50/50
f 51/51/51 53/53/53 52/52/52
f 53/53/53 54/54/54 52/52/52
f 55/55/55 54/54/54 53/53/53
f 56/56/56 55/55/55 53/53/53
f 56/56/56 57/57/57 55/55/55
f 57/57/57 58/58/58 55/55/55
f 57/57/57 59/59/59 58/58/58
f 59/59/59 60/60/60 58/58/58
f 59/59/59 61/61/61 60/60/60
f 61/61/61 62/62/62 60/60/60
f 61/61/61 63/63/63 62/62/62
f 63/63/63 64/64/64 62/62/62
f 65/65/65 64/64/64 63/63/63
f 66/66/66 65/65/65 63/63/63
f 65/65/65 66/66/66 67/67/67
f 68/68/68 65/65/65 67/67/67
f 71/71/71 70/70/70 69/69/69
f 70/70/70 72/72/72 69/69/69
f 72/72/72 70/70/70 73/73/73
f 74/74/74 72/72/72 73/73/73
f 73/73/73 75/75/75 74/74/74
f 75/75/75 76/76/76 74/74/74
f 75/75/75 77/77/77 76/76/76
f 77/77/77 78/78/78 76/76/76
f 77/77/77 79/79/79 78/78/78
f 79/79/79 80/80/80 78/78/78
f 79/79/79 81/81/81 80/80/80
f 81/81/81 82/82/82 80/80/80
f 81/81/81 83/83/83 82/82/82
f 83/83/83 84/84/84 82/82/82
f 84/84/84 83/83/83 85/85/85
f 86/86/86 84/84/84 85/85/85
f 85/85/85 87/87/87 86/86/86
f 87/87/87 88/88/88 86/86/86
f 87/87/87 89/89/89 88/88/88
f 89/89/89 90/90/90 88/88/88
f 89/89/89 91/91/91 90/90/90
f 91/91/91 92/92/92 90/90/90
f 95/95/95 94/94/94 93/93/93
f 94/94/94 96/96/96 93/93/93
f 96/96/96 97/97/97 93/93/93
f 96/96/96 94/94/94 98/98/98
f 94/94/94 99/99/99 98/98/98
f 99/99/99 100/100/100 98/98/98
f 101/101/101 97/97/97 96/96/96
f 98/98/98 101/101/101 96/96/96
f 100/100/100 102/102/102 98/98/98
f 100/100/100 103/103/103 102/102/102
f 101/101/101 104/104/104 97/97/97
f 104/104/104 105/105/105 97/97/97
f 101/101/101 98/98/98 106/106/106
f 98/98/98 102/102/102 106/106/106
f 104/104/104 101/101/101 106/106/106
f 107/107/107 102/102/102 103/103/103
f 108/108/108 107/107/107 103/103/103
f 106/106/106 102/102/102 109/109/109
f 102/102/102 107/107/107 109/109/109
f 107/107/107 108/108/108 110/110/110
f 108/108/108 111/111/111 110/110/110
f 112/112/112 110/110/110 111/111/111
f 113/113/113 112/112/112 111/111/111
f 113/113/113 114/114/114 112/112/112
f 114/114/114 115/115/115 112/112/112
f 107/107/107 110/110/110 116/116/116
f 109/109/109 107/107/107 116/116/116
f 106/106/106 109/109/109 117/117/117
f 117/117/117 104/104/104 106/106/106
f 110/110/110 112/112/112 118/118/118
f 116/116/116 110/110/110 118/118/118
f 109/109/109 119/119/119 117/117/117
f 109/109/109 116/116/116 119/119/119
f 115/115/115 120/120/120 112/112/112
f 118/118/118 112/112/112 121/121/121
f 112/112/112 120/120/120 121/121/121
f 116/116/116 118/118/118 122/122/122
f 118/118/118 121/121/121 122/122/122
f 116/116/116 123/123/123 119/119/119
f 123/123/123 116/116/116 122/122/122
f 119/119/119 124/124/124 117/117/117
f 119/119/119 123/123/123 124/124/124
f 104/104/104 117/117/117 125/125/125
f 124/124/124 125/125/125 117/117/117
f 126/126/126 120/120/120 115/115/115
f 127/127/127 126/126/126 115/115/115
f 128/128/128 121/121/121 120/120/120
f 126/126/126 128/128/128 120/120/120
f 128/128/128 126/126/126 129/129/129
f 126/126/126 127/127/127 130/130/130
f 126/126/126 130/130/130 129/129/129
f 127/127/127 131/131/131 130/130/130
f 131/131/131 132/132/132 130/130/130
f 132/132/132 133/133/133 130/130/130
f 129/129/129 130/130/130 133/133/133
f 134/134/134 133/133/133 132/132/132
f 128/128/128 135/135/135 121/121/121
f 128/128/128 129/129/129 135/135/135
f 134/134/134 136/136/136 133/133/133
f 137/137/137 136/136/136 134/134/134
f 135/135/135 138/138/138 121/121/121
f 121/121/121 138/138/138 122/122/122
f 139/139/139 129/129/129 133/133/133
f 139/139/139 133/133/133 136/136/136
f 140/140/140 136/136/136 137/137/137
f 141/141/141 140/140/140 137/137/137
f 142/142/142 139/139/139 136/136/136
f 142/142/142 136/136/136 140/140/140
f 139/139/139 143/143/143 129/129/129
f 143/143/143 139/139/139 142/142/142
f 129/129/129 144/144/144 135/135/135
f 143/143/143 144/144/144 129/129/129
f 135/135/135 145/145/145 138/138/138
f 145/145/145 135/135/135 144/144/144
f 122/122/122 138/138/138 146/146/146
f 145/145/145 146/146/146 138/138/138
f 147/147/147 140/140/140 141/141/141
f 148/148/148 147/147/147 141/141/141
f 149/149/149 145/145/145 144/144/144
f 144/144/144 143/143/143 149/149/149
f 150/150/150 142/142/142 140/140/140
f 150/150/150 140/140/140 147/147/147
f 151/151/151 147/147/147 148/148/148
f 152/152/152 151/151/151 148/148/148
f 151/151/151 152/152/152 153/153/153
f 154/154/154 122/122/122 146/146/146
f 122/122/122 154/154/154 123/123/123
f 145/145/145 155/155/155 146/146/146
f 145/145/145 149/149/149 155/155/155
f 156/156/156 150/150/150 147/147/147
f 147/147/147 151/151/151 156/156/156
f 157/157/157 151/151/151 153/153/153
f 153/153/153 158/158/158 157/157/157
f 157/157/157 159/159/159 151/151/151
f 151/151/151 159/159/159 156/156/156
f 158/158/158 160/160/160 157/157/157
f 157/157/157 160/160/160 159/159/159
f 161/161/161 160/160/160 158/158/158
f 162/162/162 161/161/161 158/158/158
f 161/161/161 163/163/163 160/160/160
f 160/160/160 163/163/163 159/159/159
f 159/159/159 163/163/163 164/164/164
f 156/156/156 159/159/159 164/164/164
f 163/163/163 165/165/165 164/164/164
f 150/150/150 156/156/156 166/166/166
f 166/166/166 156/156/156 164/164/164
f 164/164/164 165/165/165 167/167/167
f 165/165/165 168/168/168 167/167/167
f 167/167/167 168/168/168 169/169/169
f 170/170/170 150/150/150 166/166/166
f 150/150/150 170/170/170 142/142/142
f 166/166/166 164/164/164 171/171/171
f 164/164/164 167/167/167 171/171/171
f 170/170/170 172/172/172 142/142/142
f 172/172/172 143/143/143 142/142/142
f 173/173/173 170/170/170 166/166/166
f 171/171/171 173/173/173 166/166/166
f 170/170/170 173/173/173 172/172/172
f 174/174/174 143/143/143 172/172/172
f 143/143/143 174/174/174 149/149/149
f 173/173/173 175/175/175 172/172/172
f 175/175/175 174/174/174 172/172/172
f 176/176/176 173/173/173 171/171/171
f 173/173/173 176/176/176 175/175/175
f 177/177/177 171/171/171 167/167/167
f 177/177/177 176/176/176 171/171/171
f 174/174/174 175/175/175 178/178/178
f 176/176/176 178/178/178 175/175/175
f 174/174/174 179/179/179 149/149/149
f 179/179/179 174/174/174 178/178/178
f 180/180/180 177/177/177 167/167/167
f 180/180/180 167/167/167 169/169/169
f 180/180/180 169/169/169 181/181/181
f 177/177/177 180/180/180 181/181/181
f 169/169/169 182/182/182 181/181/181
f 181/181/181 182/182/182 183/183/183
f 177/177/177 184/184/184 176/176/176
f 184/184/184 177/177/177 181/181/181
f 178/178/178 176/176/176 185/185/185
f 184/184/184 185/185/185 176/176/176
f 186/186/186 181/181/181 183/183/183
f 181/181/181 186/186/186 184/184/184
f 186/186/186 183/183/183 187/187/187
f 183/183/183 188/188/188 187/187/187
f 187/187/187 188/188/188 189/189/189
f 186/186/186 190/190/190 184/184/184
f 185/185/185 184/184/184 190/190/190
f 187/187/187 190/190/190 186/186/186
f 190/190/190 187/187/187 191/191/191
f 192/192/192 187/187/187 189/189/189
f 187/187/187 192/192/192 191/191/191
f 192/192/192 189/189/189 193/193/193
f 194/194/194 178/178/178 185/185/185
f 178/178/178 194/194/194 179/179/179
f 195/195/195 185/185/185 190/190/190
f 194/194/194 185/185/185 195/195/195
f 195/195/195 190/190/190 191/191/191
f 196/196/196 192/192/192 193/193/193
f 196/196/196 193/193/193 197/197/197
f 198/198/198 196/196/196 197/197/197
f 194/194/194 199/199/199 179/179/179
f 199/199/199 194/194/194 195/195/195
f 195/195/195 191/191/191 200/200/200
f 199/199/199 195/195/195 200/200/200
f 201/201/201 199/199/199 200/200/200
f 202/202/202 179/179/179 199/199/199
f 201/201/201 202/202/202 199/199/199
f 179/179/179 202/202/202 149/149/149
f 149/149/149 202/202/202 155/155/155
f 202/202/202 201/201/201 203/203/203
f 201/201/201 200/200/200 203/203/203
f 155/155/155 202/202/202 203/203/203
f 204/204/204 192/192/192 196/196/196
f 192/192/192 204/204/204 191/191/191
f 205/205/205 196/196/196 198/198/198
f 205/205/205 204/204/204 196/196/196
f 206/206/206 205/205/205 198/198/198
f 206/206/206 207/207/207 205/205/205
f 203/203/203 208/208/208 155/155/155
f 208/208/208 203/203/203 200/200/200
f 191/191/191 204/204/204 209/209/209
f 204/204/204 205/205/205 209/209/209
f 207/207/207 210/210/210 205/205/205
f 205/205/205 210/210/210 209/209/209
f 210/210/210 207/207/207 211/211/211
f 208/208/208 212/212/212 155/155/155
f 155/155/155 212/212/212 146/146/146
f 213/213/213 191/191/191 209/209/209
f 191/191/191 213/213/213 200/200/200
f 200/200/200 213/213/213 214/214/214
f 215/215/215 214/214/214 213/213/213
f 209/209/209 215/215/215 213/213/213
f 209/209/209 210/210/210 215/215/215
f 216/216/216 210/210/210 211/211/211
f 210/210/210 216/216/216 215/215/215
f 216/216/216 211/211/211 217/217/217
f 218/218/218 216/216/216 217/217/217
f 215/215/215 216/216/216 218/218/218
f 218/218/218 217/217/217 219/219/219
f 220/220/220 218/218/218 219/219/219
f 221/221/221 215/215/215 218/218/218
f 218/218/218 220/220/220 221/221/221
f 215/215/215 221/221/221 214/214/214
f 220/220/220 222/222/222 221/221/221
f 221/221/221 222/222/222 223/223/223
f 221/221/221 223/223/223 214/214/214
f 222/222/222 224/224/224 223/223/223
f 223/223/223 224/224/224 225/225/225
f 226/226/226 223/223/223 225/225/225
f 223/223/223 227/227/227 214/214/214
f 227/227/227 223/223/223 226/226/226
f 228/228/228 226/226/226 225/225/225
f 229/229/229 228/228/228 225/225/225
f 229/229/229 230/230/230 228/228/228
f 227/227/227 226/226/226 231/231/231
f 226/226/226 228/228/228 231/231/231
f 230/230/230 232/232/232 228/228/228
f 228/228/228 232/232/232 233/233/233
f 231/231/231 228/228/228 233/233/233
f 232/232/232 230/230/230 234/234/234
f 232/232/232 234/234/234 233/233/233
f 230/230/230 235/235/235 234/234/234
f 235/235/235 105/105/105 234/234/234
f 105/105/105 104/104/104 234/234/234
f 234/234/234 104/104/104 125/125/125
f 234/234/234 125/125/125 233/233/233
f 233/233/233 125/125/125 236/236/236
f 231/231/231 233/233/233 236/236/236
f 125/125/125 124/124/124 236/236/236
f 231/231/231 237/237/237 227/227/227
f 237/237/237 231/231/231 236/236/236
f 124/124/124 238/238/238 236/236/236
f 123/123/123 238/238/238 124/124/124
f 154/154/154 238/238/238 123/123/123
f 238/238/238 239/239/239 236/236/236
f 239/239/239 238/238/238 154/154/154
f 237/237/237 236/236/236 239/239/239
f 237/237/237 240/240/240 227/227/227
f 227/227/227 240/240/240 214/214/214
f 241/241/241 239/239/239 154/154/154
f 241/241/241 154/154/154 146/146/146
f 212/212/212 241/241/241 146/146/146
f 242/242/242 237/237/237 239/239/239
f 237/237/237 242/242/242 240/240/240
f 239/239/239 241/241/241 242/242/242
f 241/241/241 212/212/212 243/243/243
f 241/241/241 243/243/243 242/242/242
f 212/212/212 208/208/208 243/243/243
f 243/243/243 208/208/208 200/200/200
f 242/242/242 244/244/244 240/240/240
f 240/240/240 244/244/244 214/214/214
f 242/242/242 243/243/243 244/244/244
f 245/245/245 200/200/200 214/214/214
f 244/244/244 245/245/245 214/214/214
f 245/245/245 243/243/243 200/200/200
f 243/243/243 245/245/245 244/244/244
f 248/248/248 247/247/247 246/246/246
f 247/247/247 249/249/249 246/246/246
f 249/249/249 247/247/247 250/250/250
f 246/246/246 249/249/249 251/251/251
f 252/252/252 246/246/246 251/251/251
f 252/252/252 251/251/251 253/253/253
f 254/254/254 249/249/249 250/250/250
f 251/251/251 249/249/249 254/254/254
f 250/250/250 255/255/255 254/254/254
f 251/251/251 256/256/256 253/253/253
f 251/251/251 254/254/254 256/256/256
f 257/257/257 253/253/253 256/256/256
f 257/257/257 256/256/256 258/258/258
f 259/259/259 257/257/257 258/258/258
f 259/259/259 258/258/258 260/260/260
f 261/261/261 259/259/259 260/260/260
f 261/261/261 260/260/260 262/262/262
f 263/263/263 261/261/261 262/262/262
f 263/263/263 262/262/262 264/264/264
f 264/264/264 262/262/262 265/265/265
f 266/266/266 264/264/264 265/265/265
f 266/266/266 265/265/265 267/267/267
f 268/268/268 266/266/266 267/267/267
f 268/268/268 267/267/267 269/269/269
f 270/270/270 265/265/265 262/262/262
f 267/267/267 265/265/265 270/270/270
f 271/271/271 262/262/262 260/260/260
f 271/271/271 270/270/270 262/262/262
f 272/272/272 260/260/260 258/258/258
f 272/272/272 271/271/271 260/260/260
f 267/267/267 273/273/273 269/269/269
f 274/274/274 269/269/269 273/273/273
f 271/271/271 275/275/275 270/270/270
f 275/275/275 271/271/271 272/272/272
f 276/276/276 267/267/267 270/270/270
f 267/267/267 276/276/276 273/273/273
f 274/274/274 273/273/273 277/277/277
f 278/278/278 274/274/274 277/277/277
f 279/279/279 272/272/272 258/258/258
f 258/258/258 256/256/256 279/279/279
f 275/275/275 280/280/280 270/270/270
f 270/270/270 280/280/280 276/276/276
f 276/276/276 281/281/281 273/273/273
f 277/277/277 273/273/273 281/281/281
f 278/278/278 277/277/277 282/282/282
f 283/283/283 278/278/278 282/282/282
f 256/256/256 284/284/284 279/279/279
f 254/254/254 284/284/284 256/256/256
f 284/284/284 254/254/254 285/285/285
f 255/255/255 285/285/285 254/254/254
f 279/279/279 284/284/284 286/286/286
f 286/286/286 284/284/284 285/285/285
f 285/285/285 255/255/255 287/287/287
f 255/255/255 288/288/288 287/287/287
f 287/287/287 288/288/288 289/289/289
f 290/290/290 277/277/277 281/281/281
f 282/282/282 277/277/277 290/290/290
f 283/283/283 282/282/282 291/291/291
f 292/292/292 283/283/283 291/291/291
f 292/292/292 291/291/291 293/293/293
f 294/294/294 282/282/282 290/290/290
f 291/291/291 282/282/282 294/294/294
f 291/291/291 295/295/295 293/293/293
f 296/296/296 293/293/293 295/295/295
f 285/285/285 287/287/287 297/297/297
f 286/286/286 285/285/285 297/297/297
f 290/290/290 281/281/281 298/298/298
f 294/294/294 290/290/290 298/298/298
f 299/299/299 291/291/291 294/294/294
f 291/291/291 299/299/299 295/295/295
f 300/300/300 296/296/296 295/295/295
f 296/296/296 300/300/300 301/301/301
f 299/299/299 302/302/302 295/295/295
f 295/295/295 302/302/302 300/300/300
f 300/300/300 303/303/303 301/301/301
f 304/304/304 301/301/301 303/303/303
f 305/305/305 303/303/303 300/300/300
f 302/302/302 305/305/305 300/300/300
f 306/306/306 304/304/304 303/303/303
f 303/303/303 305/305/305 306/306/306
f 304/304/304 306/306/306 307/307/307
f 308/308/308 304/304/304 307/307/307
f 307/307/307 306/306/306 309/309/309
f 306/306/306 305/305/305 309/309/309
f 309/309/309 305/305/305 310/310/310
f 305/305/305 311/311/311 310/310/310
f 311/311/311 305/305/305 302/302/302
f 312/312/312 310/310/310 311/311/311
f 302/302/302 299/299/299 313/313/313
f 313/313/313 311/311/311 302/302/302
f 314/314/314 312/312/312 311/311/311
f 315/315/315 312/312/312 314/314/314
f 299/299/299 316/316/316 313/313/313
f 299/299/299 294/294/294 316/316/316
f 311/311/311 313/313/313 317/317/317
f 314/314/314 311/311/311 317/317/317
f 316/316/316 318/318/318 313/313/313
f 318/318/318 317/317/317 313/313/313
f 294/294/294 319/319/319 316/316/316
f 316/316/316 319/319/319 318/318/318
f 319/319/319 294/294/294 298/298/298
f 320/320/320 315/315/315 314/314/314
f 314/314/314 317/317/317 321/321/321
f 320/320/320 314/314/314 321/321/321
f 315/315/315 320/320/320 322/322/322
f 322/322/322 320/320/320 321/321/321
f 323/323/323 315/315/315 322/322/322
f 323/323/323 322/322/322 324/324/324
f 317/317/317 318/318/318 325/325/325
f 321/321/321 317/317/317 325/325/325
f 319/319/319 326/326/326 318/318/318
f 318/318/318 326/326/326 325/325/325
f 327/327/327 322/322/322 321/321/321
f 327/327/327 321/321/321 325/325/325
f 322/322/322 328/328/328 324/324/324
f 328/328/328 322/322/322 327/327/327
f 329/329/329 326/326/326 319/319/319
f 298/298/298 329/329/329 319/319/319
f 326/326/326 330/330/330 325/325/325
f 330/330/330 326/326/326 329/329/329
f 328/328/328 331/331/331 324/324/324
f 331/331/331 332/332/332 324/324/324
f 332/332/332 331/331/331 333/333/333
f 334/334/334 328/328/328 327/327/327
f 334/334/334 331/331/331 328/328/328
f 331/331/331 334/334/334 335/335/335
f 336/336/336 327/327/327 325/325/325
f 327/327/327 336/336/336 334/334/334
f 336/336/336 325/325/325 330/330/330
f 331/331/331 337/337/337 333/333/333
f 337/337/337 331/331/331 335/335/335
f 338/338/338 333/333/333 337/337/337
f 336/336/336 339/339/339 334/334/334
f 334/334/334 339/339/339 335/335/335
f 340/340/340 336/336/336 330/330/330
f 336/336/336 340/340/340 339/339/339
f 341/341/341 338/338/338 337/337/337
f 338/338/338 341/341/341 342/342/342
f 341/341/341 343/343/343 342/342/342
f 339/339/339 344/344/344 335/335/335
f 344/344/344 339/339/339 345/345/345
f 345/345/345 339/339/339 340/340/340
f 344/344/344 346/346/346 335/335/335
f 330/330/330 347/347/347 340/340/340
f 347/347/347 345/345/345 340/340/340
f 347/347/347 330/330/330 329/329/329
f 337/337/337 348/348/348 341/341/341
f 348/348/348 337/337/337 335/335/335
f 341/341/341 349/349/349 343/343/343
f 348/348/348 349/349/349 341/341/341
f 349/349/349 350/350/350 343/343/343
f 350/350/350 349/349/349 351/351/351
f 352/352/352 346/346/346 344/344/344
f 346/346/346 352/352/352 353/353/353
f 335/335/335 346/346/346 353/353/353
f 348/348/348 335/335/335 353/353/353
f 352/352/352 354/354/354 353/353/353
f 355/355/355 349/349/349 348/348/348
f 353/353/353 355/355/355 348/348/348
f 349/349/349 355/355/355 351/351/351
f 353/353/353 354/354/354 355/355/355
f 351/351/351 355/355/355 356/356/356
f 354/354/354 356/356/356 355/355/355
f 357/357/357 351/351/351 356/356/356
f 357/357/357 356/356/356 358/358/358
f 356/356/356 359/359/359 358/358/358
f 356/356/356 354/354/354 359/359/359
f 358/358/358 359/359/359 360/360/360
f 359/359/359 361/361/361 360/360/360
f 354/354/354 362/362/362 359/359/359
f 359/359/359 362/362/362 361/361/361
f 362/362/362 354/354/354 352/352/352
f 362/362/362 363/363/363 361/361/361
f 362/362/362 364/364/364 363/363/363
f 364/364/364 362/362/362 352/352/352
f 363/363/363 364/364/364 365/365/365
f 365/365/365 364/364/364 366/366/366
f 367/367/367 365/365/365 366/366/366
f 368/368/368 364/364/364 352/352/352
f 364/364/364 368/368/368 366/366/366
f 366/366/366 369/369/369 367/367/367
f 369/369/369 370/370/370 367/367/367
f 289/289/289 370/370/370 369/369/369
f 366/366/366 368/368/368 371/371/371
f 369/369/369 366/366/366 371/371/371
f 372/372/372 289/289/289 369/369/369
f 372/372/372 287/287/287 289/289/289
f 373/373/373 372/372/372 369/369/369
f 372/372/372 373/373/373 287/287/287
f 371/371/371 373/373/373 369/369/369
f 373/373/373 297/297/297 287/287/287
f 373/373/373 371/371/371 374/374/374
f 373/373/373 374/374/374 297/297/297
f 375/375/375 371/371/371 368/368/368
f 371/371/371 375/375/375 374/374/374
f 376/376/376 368/368/368 352/352/352
f 376/376/376 375/375/375 368/368/368
f 374/374/374 377/377/377 297/297/297
f 297/297/297 377/377/377 286/286/286
f 377/377/377 378/378/378 286/286/286
f 378/378/378 279/279/279 286/286/286
f 279/279/279 378/378/378 272/272/272
f 378/378/378 379/379/379 272/272/272
f 378/378/378 377/377/377 379/379/379
f 379/379/379 275/275/275 272/272/272
f 377/377/377 374/374/374 380/380/380
f 377/377/377 380/380/380 379/379/379
f 381/381/381 374/374/374 375/375/375
f 374/374/374 381/381/381 380/380/380
f 380/380/380 382/382/382 379/379/379
f 382/382/382 275/275/275 379/379/379
f 382/382/382 380/380/380 381/381/381
f 383/383/383 375/375/375 376/376/376
f 383/383/383 381/381/381 375/375/375
f 275/275/275 382/382/382 384/384/384
f 280/280/280 275/275/275 384/384/384
f 385/385/385 382/382/382 381/381/381
f 381/381/381 383/383/383 385/385/385
f 382/382/382 385/385/385 384/384/384
f 386/386/386 383/383/383 376/376/376
f 386/386/386 376/376/376 352/352/352
f 383/383/383 387/387/387 385/385/385
f 387/387/387 383/383/383 386/386/386
f 352/352/352 388/388/388 386/386/386
f 388/388/388 387/387/387 386/386/386
f 388/388/388 352/352/352 344/344/344
f 388/388/388 344/344/344 387/387/387
f 389/389/389 385/385/385 387/387/387
f 385/385/385 389/389/389 384/384/384
f 390/390/390 389/389/389 387/387/387
f 344/344/344 390/390/390 387/387/387
f 384/384/384 389/389/389 391/391/391
f 389/389/389 390/390/390 391/391/391
f 384/384/384 392/392/392 280/280/280
f 392/392/392 384/384/384 391/391/391
f 390/390/390 344/344/344 393/393/393
f 390/390/390 393/393/393 391/391/391
f 394/394/394 393/393/393 344/344/344
f 394/394/394 344/344/344 345/345/345
f 394/394/394 395/395/395 393/393/393
f 395/395/395 394/394/394 345/345/345
f 395/395/395 391/391/391 393/393/393
f 347/347/347 395/395/395 345/345/345
f 391/391/391 395/395/395 396/396/396
f 395/395/395 347/347/347 396/396/396
f 392/392/392 391/391/391 396/396/396
f 347/347/347 329/329/329 396/396/396
f 329/329/329 298/298/298 396/396/396
f 298/298/298 397/397/397 396/396/396
f 392/392/392 396/396/396 397/397/397
f 281/281/281 397/397/397 298/298/298
f 392/392/392 398/398/398 280/280/280
f 398/398/398 392/392/392 397/397/397
f 398/398/398 397/397/397 281/281/281
f 280/280/280 398/398/398 276/276/276
f 276/276/276 398/398/398 281/281/281
