g Plane007
v 0.104276061 -0.329292834 0
v 0.208552122 -0.164646417 0
v 0.208552122 -0.329292834 0
v 0.104276061 -0.164646417 0
v -0 -0.329292834 0
v 0.208552122 0 0
v -0 -0.164646417 0
v -0.104276061 -0.329292834 0
v 0.104276061 0 0
v 0.208552122 0.164646417 0
v -0.104276061 -0.164646417 0
v -0.208552122 -0.329292834 0
v -0.208552122 -0.164646417 0
v -0 0 0
v 0.104276061 0.164646417 0
v 0.208552122 0.329292834 0
v 0.104276061 0.329292834 0
v -0.104276061 0 0
v -0.208552122 0 0
v -0 0.164646417 0
v -0 0.329292834 0
v -0.104276061 0.164646417 0
v -0.208552122 0.164646417 0
v -0.104276061 0.329292834 0
v -0.208552122 0.329292834 0
vt 0.874611616 0.52586174
vt 0.990861654 0.642111659
vt 0.990861654 0.52586174
vt 0.874611616 0.642111659
vt 0.758361638 0.52586174
vt 0.990861654 0.758361697
vt 0.758361638 0.642111659
vt 0.642111659 0.52586174
vt 0.874611616 0.758361697
vt 0.990861654 0.874611735
vt 0.642111659 0.642111659
vt 0.525861621 0.52586174
vt 0.525861621 0.642111659
vt 0.758361638 0.758361697
vt 0.874611616 0.874611735
vt 0.990861654 0.990861654
vt 0.874611616 0.990861654
vt 0.642111659 0.758361697
vt 0.525861621 0.758361697
vt 0.758361638 0.874611735
vt 0.758361638 0.990861654
vt 0.642111659 0.874611735
vt 0.525861621 0.874611735
vt 0.642111659 0.990861654
vt 0.525861621 0.990861654
vn -0 0 1
vn -0 0 1
vn -0 0 1
vn -0 0 1
vn -0 0 1
vn -0 0 1
vn -0 0 1
vn -0 0 1
vn -0 0 1
vn -0 0 1
vn -0 0 1
vn -0 0 1
vn -0 0 1
vn -0 0 1
vn -0 0 1
vn -0 0 1
vn -0 0 1
vn -0 0 1
vn -0 0 1
vn -0 0 1
vn -0 0 1
vn -0 0 1
vn -0 0 1
vn -0 0 1
vn -0 0 1
g Plane007_0
f 3/3/3 2/2/2 1/1/1
f 2/2/2 4/4/4 1/1/1
f 1/1/1 4/4/4 5/5/5
f 2/2/2 6/6/6 4/4/4
f 4/4/4 7/7/7 5/5/5
f 5/5/5 7/7/7 8/8/8
f 6/6/6 9/9/9 4/4/4
f 4/4/4 9/9/9 7/7/7
f 6/6/6 10/10/10 9/9/9
f 7/7/7 11/11/11 8/8/8
f 8/8/8 11/11/11 12/12/12
f 11/11/11 13/13/13 12/12/12
f 9/9/9 14/14/14 7/7/7
f 7/7/7 14/14/14 11/11/11
f 10/10/10 15/15/15 9/9/9
f 9/9/9 15/15/15 14/14/14
f 10/10/10 16/16/16 15/15/15
f 16/16/16 17/17/17 15/15/15
f 11/11/11 18/18/18 13/13/13
f 14/14/14 18/18/18 11/11/11
f 18/18/18 19/19/19 13/13/13
f 15/15/15 20/20/20 14/14/14
f 15/15/15 17/17/17 20/20/20
f 14/14/14 20/20/20 18/18/18
f 17/17/17 21/21/21 20/20/20
f 18/18/18 22/22/22 19/19/19
f 20/20/20 22/22/22 18/18/18
f 20/20/20 21/21/21 22/22/22
f 22/22/22 23/23/23 19/19/19
f 21/21/21 24/24/24 22/22/22
f 22/22/22 24/24/24 23/23/23
f 24/24/24 25/25/25 23/23/23
