g w
v 0.562803388 0.101884678 -1.46879586E-09
v 0.588302612 0.0916947648 4.14995772E-12
v 0.588311911 -0.0985425264 -5.52225154E-10
v 0.562813044 -0.108406477 9.79833326E-10
v 0.586883545 -0.108293191 -4.98432462E-10
v 0.562502444 -0.110750616 1.03452691E-09
v 0.582743526 -0.118450068 -3.34006628E-10
v 0.561785102 -0.112696171 1.09162612E-09
v 0.576553762 -0.127508208 -1.22464358E-10
v 0.560252011 -0.115176663 1.18043253E-09
v 0.568477631 -0.135324761 1.02135272E-10
v 0.558007061 -0.117579401 1.27881605E-09
v 0.558590055 -0.141565487 3.07267461E-10
v 0.555243433 -0.119508728 1.36620026E-09
v 0.547046661 -0.145718634 4.57035798E-10
v 0.552072406 -0.12077067 1.42824375E-09
v 0.535393 -0.147071734 5.28231681E-10
v 0.547178507 -0.12139906 1.4411552E-09
v -0.546928704 -0.146940291 4.91474805E-10
v -0.555187166 -0.121250615 1.44453505E-09
v -0.55400753 -0.144762352 4.69219497E-10
v -0.552846909 -0.122046761 1.45485446E-09
v -0.560544014 -0.141300917 4.2459547E-10
v -0.554187119 -0.121261358 1.42833245E-09
v -0.567073166 -0.136894315 3.6828704E-10
v -0.557243764 -0.118979216 1.36989053E-09
v -0.573852003 -0.131172821 3.04672482E-10
v -0.560338616 -0.116089433 1.30218436E-09
v -0.580502927 -0.123756938 2.37013686E-10
v -0.562444031 -0.113491863 1.24913924E-09
v -0.586269736 -0.113830172 1.69015149E-10
v -0.562921703 -0.112582557 1.24128574E-09
v -0.588547707 -0.102992304 1.53653756E-10
v -0.563030243 -0.112014435 1.2209096E-09
v -0.588870585 0.0906267166 2.34935543E-10
v -0.563351572 0.100787193 -1.73068937E-09
v -0.587719798 0.101927735 2.28166375E-10
v -0.56279093 0.106869392 -1.81193904E-09
v -0.58421886 0.113389567 2.12509829E-10
v -0.561534822 0.111416563 -1.88262606E-09
v -0.578690886 0.123758145 1.86442417E-10
v -0.559669971 0.115285225 -1.94596783E-09
v -0.571253121 0.132776245 1.54572855E-10
v -0.557495952 0.118200339 -1.99523753E-09
v -0.561930597 0.140076965 1.21859342E-10
v -0.5554052 0.120011128 -2.02581929E-09
v -0.550792158 0.145060003 9.49107737E-11
v -0.55374676 0.120831989 -2.03852268E-09
v -0.539735079 0.146682784 9.62057378E-11
v -0.550991654 0.121279426 -2.05715467E-09
v 0.534612477 0.146191284 2.07757811E-10
v 0.546370268 0.120724224 -1.94009364E-09
v 0.546175957 0.144850686 1.9995644E-10
v 0.551133215 0.120113514 -1.92361482E-09
v 0.557911038 0.140597031 2.00399725E-10
v 0.554266751 0.118857287 -1.90620697E-09
v 0.568187535 0.133935824 2.00824204E-10
v 0.557033479 0.116873741 -1.87844806E-09
v 0.576674163 0.125239402 2.00983133E-10
v 0.559363782 0.114232481 -1.84107818E-09
v 0.583078861 0.114852026 2.00849212E-10
v 0.561146498 0.111034818 -1.79550907E-09
v 0.587100387 0.103122756 2.00565745E-10
v 0.562280655 0.107376657 -1.7432461E-09
v 0.588302612 0.0916947648 4.14995772E-12
v 0.562803388 0.101884678 -1.46879586E-09
v 0.588302612 0.0916947648 4.14995772E-12
v 0.562803388 0.101884678 -1.46879586E-09
v 0.562813044 -0.108406477 9.79833326E-10
v 0.588311911 -0.0985425264 -5.52225154E-10
v 0.562502444 -0.110750616 1.03452691E-09
v 0.586883545 -0.108293191 -4.98432462E-10
v 0.561785102 -0.112696171 1.09162612E-09
v 0.582743526 -0.118450068 -3.34006628E-10
v 0.560252011 -0.115176663 1.18043253E-09
v 0.576553762 -0.127508208 -1.22464358E-10
v 0.558007061 -0.117579401 1.27881605E-09
v 0.568477631 -0.135324761 1.02135272E-10
v 0.555243433 -0.119508728 1.36620026E-09
v 0.558590055 -0.141565487 3.07267461E-10
v 0.552072406 -0.12077067 1.42824375E-09
v 0.547046661 -0.145718634 4.57035798E-10
v 0.547178507 -0.12139906 1.4411552E-09
v 0.535393 -0.147071734 5.28231681E-10
v -0.555187166 -0.121250615 1.44453505E-09
v -0.546928704 -0.146940291 4.91474805E-10
v -0.552846909 -0.122046761 1.45485446E-09
v -0.55400753 -0.144762352 4.69219497E-10
v -0.554187119 -0.121261358 1.42833245E-09
v -0.560544014 -0.141300917 4.2459547E-10
v -0.557243764 -0.118979216 1.36989053E-09
v -0.567073166 -0.136894315 3.6828704E-10
v -0.560338616 -0.116089433 1.30218436E-09
v -0.573852003 -0.131172821 3.04672482E-10
v -0.562444031 -0.113491863 1.24913924E-09
v -0.580502927 -0.123756938 2.37013686E-10
v -0.562921703 -0.112582557 1.24128574E-09
v -0.586269736 -0.113830172 1.69015149E-10
v -0.563030243 -0.112014435 1.2209096E-09
v -0.588547707 -0.102992304 1.53653756E-10
v -0.563351572 0.100787193 -1.73068937E-09
v -0.588870585 0.0906267166 2.34935543E-10
v -0.56279093 0.106869392 -1.81193904E-09
v -0.587719798 0.101927735 2.28166375E-10
v -0.561534822 0.111416563 -1.88262606E-09
v -0.58421886 0.113389567 2.12509829E-10
v -0.559669971 0.115285225 -1.94596783E-09
v -0.578690886 0.123758145 1.86442417E-10
v -0.557495952 0.118200339 -1.99523753E-09
v -0.571253121 0.132776245 1.54572855E-10
v -0.5554052 0.120011128 -2.02581929E-09
v -0.561930597 0.140076965 1.21859342E-10
v -0.55374676 0.120831989 -2.03852268E-09
v -0.550792158 0.145060003 9.49107737E-11
v -0.550991654 0.121279426 -2.05715467E-09
v -0.539735079 0.146682784 9.62057378E-11
v 0.546370268 0.120724224 -1.94009364E-09
v 0.534612477 0.146191284 2.07757811E-10
v 0.551133215 0.120113514 -1.92361482E-09
v 0.546175957 0.144850686 1.9995644E-10
v 0.554266751 0.118857287 -1.90620697E-09
v 0.557911038 0.140597031 2.00399725E-10
v 0.557033479 0.116873741 -1.87844806E-09
v 0.568187535 0.133935824 2.00824204E-10
v 0.559363782 0.114232481 -1.84107818E-09
v 0.576674163 0.125239402 2.00983133E-10
v 0.561146498 0.111034818 -1.79550907E-09
v 0.583078861 0.114852026 2.00849212E-10
v 0.562280655 0.107376657 -1.7432461E-09
v 0.587100387 0.103122756 2.00565745E-10
v 0.562803388 0.101884678 -1.46879586E-09
v 0.588302612 0.0916947648 4.14995772E-12
vt 1.00587988 -0.00368022453
vt 1.00587988 0.998766899
vt 0.936653852 0.998766899
vt 0.936653852 -0.00368022756
vt 0.934452116 0.998766899
vt 0.934452176 -0.00368022756
vt 0.932088614 0.998766899
vt 0.932088673 -0.00368022756
vt 0.929577887 0.998766899
vt 0.929577947 -0.00368022779
vt 0.926944494 0.998766899
vt 0.926944554 -0.00368022779
vt 0.924201667 0.998766899
vt 0.924201727 -0.00368022802
vt 0.921334445 0.998766899
vt 0.921334505 -0.00368022826
vt 0.918286383 0.998766899
vt 0.918286443 -0.00368022826
vt 0.520716071 0.998766899
vt 0.520716131 -0.00368024572
vt 0.519790411 0.998766899
vt 0.519790411 -0.00368024572
vt 0.518154204 0.998766899
vt 0.518154263 -0.00368024572
vt 0.516039371 0.998766899
vt 0.516039431 -0.00368024595
vt 0.513676405 0.998766899
vt 0.513676405 -0.00368024595
vt 0.511273146 0.998766899
vt 0.511273205 -0.00368024618
vt 0.508985698 0.998766899
vt 0.508985758 -0.00368024618
vt 0.506849527 0.998766899
vt 0.506849527 -0.00368024618
vt 0.436592162 0.998766899
vt 0.436592221 -0.00368024944
vt 0.433504939 0.998766899
vt 0.433504999 -0.00368024944
vt 0.430523098 0.998766899
vt 0.430523157 -0.00368024968
vt 0.42764467 0.998766899
vt 0.42764473 -0.00368024968
vt 0.424875736 0.998766899
vt 0.424875796 -0.00368024991
vt 0.422215521 0.998766899
vt 0.422215581 -0.00368024991
vt 0.419639349 0.998766899
vt 0.419639409 -0.00368025014
vt 0.417078733 0.998766899
vt 0.417078793 -0.00368025014
vt 0.021877408 0.998766899
vt 0.0218774676 -0.00368026737
vt 0.0188698173 0.998766899
vt 0.0188698769 -0.0036802676
vt 0.0159697533 0.998766899
vt 0.0159698129 -0.0036802676
vt 0.0131195188 0.998766899
vt 0.0131195784 -0.00368026784
vt 0.0102797747 0.998766899
vt 0.0102798343 -0.00368026807
vt 0.0074198246 0.998766899
vt 0.0074198842 -0.00368026807
vt 0.00450569391 0.998766899
vt 0.00450575352 -0.0036802683
vt 0.00149017572 0.998766899
vt 0.00149023533 -0.0036802683
vt 1.00367057 -0.000966595486
vt 1.00367057 1.00148058
vt 0.934444547 1.00148058
vt 0.934444547 -0.000966598513
vt 0.932242811 1.00148058
vt 0.93224287 -0.000966598513
vt 0.929879308 1.00148058
vt 0.929879367 -0.000966598513
vt 0.927368581 1.00148058
vt 0.927368641 -0.000966598745
vt 0.924735188 1.00148058
vt 0.924735188 -0.000966598745
vt 0.921992362 1.00148058
vt 0.921992421 -0.000966598978
vt 0.91912514 1.00148058
vt 0.919125199 -0.000966598978
vt 0.916077077 1.00148058
vt 0.916077137 -0.000966599211
vt 0.518506765 1.00148058
vt 0.518506825 -0.000966616673
vt 0.517581105 1.00148058
vt 0.517581105 -0.000966616673
vt 0.515944898 1.00148058
vt 0.515944958 -0.000966616673
vt 0.513830066 1.00148058
vt 0.513830125 -0.000966616906
vt 0.511467099 1.00148058
vt 0.511467099 -0.000966616906
vt 0.50906384 1.00148058
vt 0.5090639 -0.000966616906
vt 0.506776392 1.00148058
vt 0.506776452 -0.000966617139
vt 0.504640222 1.00148058
vt 0.504640281 -0.000966617139
vt 0.434382856 1.00148058
vt 0.434382915 -0.000966620166
vt 0.431295633 1.00148058
vt 0.431295693 -0.000966620399
vt 0.428313792 1.00148058
vt 0.428313851 -0.000966620632
vt 0.425435364 1.00148058
vt 0.425435424 -0.000966620632
vt 0.42266643 1.00148058
vt 0.42266649 -0.000966620864
vt 0.420006216 1.00148058
vt 0.420006275 -0.000966620864
vt 0.417430043 1.00148058
vt 0.417430103 -0.000966621097
vt 0.414869428 1.00148058
vt 0.414869487 -0.000966621097
vt 0.0196681023 1.00148058
vt 0.0196681619 -0.000966638327
vt 0.0166605115 1.00148058
vt 0.0166605711 -0.000966638559
vt 0.0137604475 1.00148058
vt 0.0137605071 -0.000966638559
vt 0.010910213 1.00148058
vt 0.0109102726 -0.000966638792
vt 0.0080704689 1.00148058
vt 0.00807052851 -0.000966639025
vt 0.00521045923 1.00148058
vt 0.00521051884 -0.000966639025
vt 0.00229638815 1.00148058
vt 0.00229644775 -0.000966639258
vt -0.000719070435 1.00148058
vt -0.000719070435 -0.000966639258
vn -0 0 1
vn -0 0 1
vn -0 0 1
vn -0 0 1
vn -0 0 1
vn -0 0 1
vn -0 0 1
vn -0 0 1
vn -0 0 1
vn -0 0 1
vn -0 0 1
vn -0 0 1
vn -0 0 1
vn -0 0 1
vn -0 0 1
vn -0 0 1
vn -0 0 1
vn -0 0 1
vn -0 0 1
vn -0 0 1
vn -0 0 1
vn -0 0 1
vn -0 0 1
vn -0 0 1
vn -0 0 1
vn -0 0 1
vn -0 0 1
vn -0 0 1
vn -0 0 1
vn -0 0 1
vn -0 0 1
vn -0 0 1
vn -0 0 1
vn -0 0 1
vn -0 0 1
vn -0 0 1
vn -0 0 1
vn -0 0 1
vn -0 0 1
vn -0 0 1
vn -0 0 1
vn -0 0 1
vn -0 0 1
vn -0 0 1
vn -0 0 1
vn -0 0 1
vn -0 0 1
vn -0 0 1
vn -0 0 1
vn -0 0 1
vn -0 0 1
vn -0 0 1
vn -0 0 1
vn -0 0 1
vn -0 0 1
vn -0 0 1
vn -0 0 1
vn -0 0 1
vn -0 0 1
vn -0 0 1
vn -0 0 1
vn -0 0 1
vn -0 0 1
vn -0 0 1
vn -0 0 1
vn -0 0 1
vn -0 0 -1
vn -0 0 -1
vn -0 0 -1
vn -0 0 -1
vn -0 0 -1
vn -0 0 -1
vn -0 0 -1
vn -0 0 -1
vn -0 0 -1
vn -0 0 -1
vn -0 0 -1
vn -0 0 -1
vn -0 0 -1
vn -0 0 -1
vn -0 0 -1
vn -0 0 -1
vn -0 0 -1
vn -0 0 -1
vn -0 0 -1
vn -0 0 -1
vn -0 0 -1
vn -0 0 -1
vn -0 0 -1
vn -0 0 -1
vn -0 0 -1
vn -0 0 -1
vn -0 0 -1
vn -0 0 -1
vn -0 0 -1
vn -0 0 -1
vn -0 0 -1
vn -0 0 -1
vn -0 0 -1
vn -0 0 -1
vn -0 0 -1
vn -0 0 -1
vn -0 0 -1
vn -0 0 -1
vn -0 0 -1
vn -0 0 -1
vn -0 0 -1
vn -0 0 -1
vn -0 0 -1
vn -0 0 -1
vn -0 0 -1
vn -0 0 -1
vn -0 0 -1
vn -0 0 -1
vn -0 0 -1
vn -0 0 -1
vn -0 0 -1
vn -0 0 -1
vn -0 0 -1
vn -0 0 -1
vn -0 0 -1
vn -0 0 -1
vn -0 0 -1
vn -0 0 -1
vn -0 0 -1
vn -0 0 -1
vn -0 0 -1
vn -0 0 -1
vn -0 0 -1
vn -0 0 -1
vn -0 0 -1
vn -0 0 -1
g w_0
f 3/3/3 2/2/2 1/1/1
f 4/4/4 3/3/3 1/1/1
f 5/5/5 3/3/3 4/4/4
f 6/6/6 5/5/5 4/4/4
f 7/7/7 5/5/5 6/6/6
f 8/8/8 7/7/7 6/6/6
f 9/9/9 7/7/7 8/8/8
f 10/10/10 9/9/9 8/8/8
f 11/11/11 9/9/9 10/10/10
f 12/12/12 11/11/11 10/10/10
f 13/13/13 11/11/11 12/12/12
f 14/14/14 13/13/13 12/12/12
f 15/15/15 13/13/13 14/14/14
f 16/16/16 15/15/15 14/14/14
f 17/17/17 15/15/15 16/16/16
f 18/18/18 17/17/17 16/16/16
f 19/19/19 17/17/17 18/18/18
f 20/20/20 19/19/19 18/18/18
f 21/21/21 19/19/19 20/20/20
f 22/22/22 21/21/21 20/20/20
f 23/23/23 21/21/21 22/22/22
f 24/24/24 23/23/23 22/22/22
f 25/25/25 23/23/23 24/24/24
f 26/26/26 25/25/25 24/24/24
f 27/27/27 25/25/25 26/26/26
f 28/28/28 27/27/27 26/26/26
f 29/29/29 27/27/27 28/28/28
f 30/30/30 29/29/29 28/28/28
f 31/31/31 29/29/29 30/30/30
f 32/32/32 31/31/31 30/30/30
f 33/33/33 31/31/31 32/32/32
f 34/34/34 33/33/33 32/32/32
f 35/35/35 33/33/33 34/34/34
f 36/36/36 35/35/35 34/34/34
f 37/37/37 35/35/35 36/36/36
f 38/38/38 37/37/37 36/36/36
f 39/39/39 37/37/37 38/38/38
f 40/40/40 39/39/39 38/38/38
f 41/41/41 39/39/39 40/40/40
f 42/42/42 41/41/41 40/40/40
f 43/43/43 41/41/41 42/42/42
f 44/44/44 43/43/43 42/42/42
f 45/45/45 43/43/43 44/44/44
f 46/46/46 45/45/45 44/44/44
f 47/47/47 45/45/45 46/46/46
f 48/48/48 47/47/47 46/46/46
f 49/49/49 47/47/47 48/48/48
f 50/50/50 49/49/49 48/48/48
f 51/51/51 49/49/49 50/50/50
f 52/52/52 51/51/51 50/50/50
f 53/53/53 51/51/51 52/52/52
f 54/54/54 53/53/53 52/52/52
f 55/55/55 53/53/53 54/54/54
f 56/56/56 55/55/55 54/54/54
f 57/57/57 55/55/55 56/56/56
f 58/58/58 57/57/57 56/56/56
f 59/59/59 57/57/57 58/58/58
f 60/60/60 59/59/59 58/58/58
f 61/61/61 59/59/59 60/60/60
f 62/62/62 61/61/61 60/60/60
f 63/63/63 61/61/61 62/62/62
f 64/64/64 63/63/63 62/62/62
f 65/65/65 63/63/63 64/64/64
f 66/66/66 65/65/65 64/64/64
f 69/69/69 68/68/68 67/67/67
f 70/70/70 69/69/69 67/67/67
f 71/71/71 69/69/69 70/70/70
f 72/72/72 71/71/71 70/70/70
f 73/73/73 71/71/71 72/72/72
f 74/74/74 73/73/73 72/72/72
f 75/75/75 73/73/73 74/74/74
f 76/76/76 75/75/75 74/74/74
f 77/77/77 75/75/75 76/76/76
f 78/78/78 77/77/77 76/76/76
f 79/79/79 77/77/77 78/78/78
f 80/80/80 79/79/79 78/78/78
f 81/81/81 79/79/79 80/80/80
f 82/82/82 81/81/81 80/80/80
f 83/83/83 81/81/81 82/82/82
f 84/84/84 83/83/83 82/82/82
f 85/85/85 83/83/83 84/84/84
f 86/86/86 85/85/85 84/84/84
f 87/87/87 85/85/85 86/86/86
f 88/88/88 87/87/87 86/86/86
f 89/89/89 87/87/87 88/88/88
f 90/90/90 89/89/89 88/88/88
f 91/91/91 89/89/89 90/90/90
f 92/92/92 91/91/91 90/90/90
f 93/93/93 91/91/91 92/92/92
f 94/94/94 93/93/93 92/92/92
f 95/95/95 93/93/93 94/94/94
f 96/96/96 95/95/95 94/94/94
f 97/97/97 95/95/95 96/96/96
f 98/98/98 97/97/97 96/96/96
f 99/99/99 97/97/97 98/98/98
f 100/100/100 99/99/99 98/98/98
f 101/101/101 99/99/99 100/100/100
f 102/102/102 101/101/101 100/100/100
f 103/103/103 101/101/101 102/102/102
f 104/104/104 103/103/103 102/102/102
f 105/105/105 103/103/103 104/104/104
f 106/106/106 105/105/105 104/104/104
f 107/107/107 105/105/105 106/106/106
f 108/108/108 107/107/107 106/106/106
f 109/109/109 107/107/107 108/108/108
f 110/110/110 109/109/109 108/108/108
f 111/111/111 109/109/109 110/110/110
f 112/112/112 111/111/111 110/110/110
f 113/113/113 111/111/111 112/112/112
f 114/114/114 113/113/113 112/112/112
f 115/115/115 113/113/113 114/114/114
f 116/116/116 115/115/115 114/114/114
f 117/117/117 115/115/115 116/116/116
f 118/118/118 117/117/117 116/116/116
f 119/119/119 117/117/117 118/118/118
f 120/120/120 119/119/119 118/118/118
f 121/121/121 119/119/119 120/120/120
f 122/122/122 121/121/121 120/120/120
f 123/123/123 121/121/121 122/122/122
f 124/124/124 123/123/123 122/122/122
f 125/125/125 123/123/123 124/124/124
f 126/126/126 125/125/125 124/124/124
f 127/127/127 125/125/125 126/126/126
f 128/128/128 127/127/127 126/126/126
f 129/129/129 127/127/127 128/128/128
f 130/130/130 129/129/129 128/128/128
f 131/131/131 129/129/129 130/130/130
f 132/132/132 131/131/131 130/130/130
