g Plane001
v -0.926087737 8.04744502E-08 -0.0162242912
v -0.814979672 7.08547176E-08 -0.0142848836
v -0.920995593 -0.0971682593 -0.0161798466
v -0.810496151 -0.085552983 -0.0142457522
v -0.703871548 6.1234978E-08 -0.012345477
v -0.905774832 -0.193272009 -0.0160470083
v -0.699996829 -0.0739377066 -0.012311657
v -0.592763543 5.16152525E-08 -0.0104060695
v -0.797094941 -0.170168698 -0.014128793
v -0.880592287 -0.287258208 -0.0158272367
v -0.589497447 -0.0623224378 -0.0103775617
v -0.481655478 4.19955128E-08 -0.00846666191
v -0.688414931 -0.147065401 -0.0122105777
v -0.77492255 -0.252920032 -0.0139352931
v -0.845723748 -0.378097177 -0.0155229364
v -0.478998095 -0.0507071614 -0.00844346732
v -0.370547324 3.23757767E-08 -0.00652725575
v -0.579735041 -0.123962104 -0.0102923615
v -0.669252932 -0.218581811 -0.0120433467
v -0.744222224 -0.332900286 -0.0136673655
v -0.801551461 -0.464793622 -0.0151374433
v -0.368498713 -0.0390918888 -0.00650937343
v -0.25943926 2.27560442E-08 -0.00458784727
v -0.47105515 -0.100858808 -0.00837414619
v -0.563583314 -0.184243619 -0.0101514012
v -0.64272064 -0.287703425 -0.0118117975
v -0.705330193 -0.409233212 -0.0133279534
v -0.748559237 -0.546397626 -0.0146749793
v -0.257999331 -0.0274766106 -0.00457527814
v -0.14833121 1.31363098E-08 -0.00264844112
v -0.362375259 -0.0777555034 -0.00645592995
v -0.457913697 -0.149905413 -0.0082594566
v -0.541219175 -0.242506519 -0.00995622762
v -0.609108865 -0.353672862 -0.0115184644
v -0.658672452 -0.481082499 -0.0129207708
v -0.687327623 -0.622015297 -0.0141406097
v -0.147500008 -0.0158613399 -0.00264118402
v -0.037223164 3.51657459E-09 -0.000709033804
v -0.0370006487 -0.004246064 -0.000707089319
v -0.253695279 -0.0546522103 -0.00453771371
v -0.145015419 -0.0315489136 -0.00261949841
v -0.0363354757 -0.00844561029 -0.000701282348
v -0.604760289 -0.547661006 -0.0124502797
v -0.618527532 -0.690818012 -0.0135401934
v -0.568785608 -0.415767401 -0.0111665633
v -0.35224399 -0.115567215 -0.00636751112
v -0.140904725 -0.046890825 -0.00258362223
v -0.0352350585 -0.0125526255 -0.000691676512
v -0.246574342 -0.0812290236 -0.00447556702
v -0.544184506 -0.608239114 -0.0119216358
v -0.5429129 -0.75205189 -0.0128803058
v -0.439717531 -0.197309628 -0.00810065679
v -0.135212973 -0.0617189966 -0.00253394758
v -0.0337113626 -0.0165221132 -0.000678377342
v -0.236714467 -0.106915884 -0.00438951747
v -0.338215977 -0.152112752 -0.0062450869
v -0.512887597 -0.298112482 -0.00970897637
v -0.128002405 -0.075870961 -0.00247101905
v -0.0317811519 -0.020310577 -0.000661529833
v -0.224223718 -0.131431341 -0.0042805085
v -0.320445031 -0.186991706 -0.00608999701
v -0.41666624 -0.242552102 -0.00789948553
v -0.478899062 -0.350452244 -0.00941235572
v -0.119352207 -0.0891916677 -0.00239552674
v -0.0294654984 -0.023876518 -0.000641319144
v -0.209238872 -0.154506803 -0.00414973358
v -0.299125642 -0.219821945 -0.00590394158
v -0.389012307 -0.285137087 -0.00765814912
v -0.522193134 -0.473306656 -0.0107599497
v -0.109356984 -0.101535171 -0.00230829674
v -0.0267897882 -0.0271808598 -0.000617966172
v -0.191924185 -0.175889462 -0.00399862695
v -0.274491429 -0.250243783 -0.0056889574
v -0.357058734 -0.324598074 -0.00737928785
v -0.439625859 -0.398952395 -0.00906961877
v -0.469841361 -0.525660336 -0.0103030764
v -0.0981263742 -0.112766236 -0.00221028505
v -0.0237833355 -0.0301874038 -0.000591726857
v -0.172469363 -0.195345044 -0.00382884312
v -0.246812403 -0.277923882 -0.00544740213
v -0.321155399 -0.36050269 -0.00706596067
v -0.395498425 -0.443081528 -0.00868451782
v -0.477608532 -0.662153304 -0.0113406293
v -0.461311847 -0.805046201 -0.0121681783
v -0.412304372 -0.572254717 -0.00980095193
v -0.405761957 -0.708812773 -0.0107136266
v -0.374618798 -0.849220276 -0.011411611
v -0.347000241 -0.482356161 -0.00826127455
v -0.281695932 -0.392457545 -0.0067215981
v -0.350212157 -0.612579405 -0.00925907586
v -0.329431921 -0.747706413 -0.0100474982
v -0.283783197 -0.884090126 -0.0106188944
v -0.294662327 -0.516345978 -0.00780452462
v -0.216391772 -0.302558988 -0.00518192025
v -0.284245253 -0.646192551 -0.00868338533
v -0.249454781 -0.778407931 -0.00934954081
v -0.189800575 -0.909273684 -0.00979871396
v -0.239112586 -0.42011258 -0.00634997245
v -0.151087523 -0.212660387 -0.00364224333
v -0.239058569 -0.544678688 -0.00731927203
v -0.215126351 -0.672725797 -0.00808018632
v -0.166706592 -0.800581038 -0.00862740166
v -0.0937004834 -0.924494922 -0.00896005519
v -0.18356277 -0.323879182 -0.00489542214
v -0.0857833773 -0.122761801 -0.00210256642
v -0.0204791278 -0.0328632072 -0.000562888512
v -0.193871886 -0.443164766 -0.00595515827
v -0.180797875 -0.567043662 -0.00681083277
v -0.143612653 -0.691888571 -0.00745608984
v -0.0820940658 -0.813982844 -0.00788899325
v 0.00346412952 -0.929587364 -0.00811210461
v -0.128012925 -0.22764577 -0.00344087067
v -0.0724631622 -0.131412372 -0.00198632013
v -0.0169133563 -0.0351789556 -0.000531767844
v -0.148685157 -0.341650903 -0.00459104544
v -0.146469444 -0.461361557 -0.00554147922
v -0.120518662 -0.583196104 -0.00628477894
v -0.0704877004 -0.703470886 -0.00681793317
v 0.00345565146 -0.818466485 -0.00714240642
v 0.100628763 -0.924494922 -0.00726415729
v -0.0583117008 -0.138623163 -0.00186281896
v -0.0131250219 -0.0371092744 -0.000498705253
v -0.103498429 -0.240137041 -0.00322693167
v -0.112141021 -0.355679423 -0.0042721252
v -0.0974246711 -0.474503547 -0.00511346711
v -0.0588813387 -0.592958808 -0.0057468731
v 0.00344717316 -0.707345784 -0.00617270777
v 0.0890054703 -0.813982844 -0.00639581913
v 0.196728855 -0.909273684 -0.00642549852
v -0.077812545 -0.249997288 -0.00300277094
v -0.0743307322 -0.36581102 -0.00394215574
v -0.0472749732 -0.48244682 -0.00467581255
v 0.00343879196 -0.596225023 -0.00520300865
v 0.0773821473 -0.703470886 -0.0055274819
v 0.173617959 -0.800581098 -0.00565741258
v 0.290711522 -0.884090126 -0.00560531998
v -0.0434841178 -0.144315153 -0.00173341727
v -0.00915569067 -0.0386330187 -0.000464063516
v -0.051236745 -0.257118523 -0.00277084368
v -0.0281428061 -0.148426011 -0.0015995329
v -0.00504881982 -0.0397334918 -0.000428220868
v 0.256366134 -0.778407931 -0.00493527576
v 0.381547004 -0.849220335 -0.00481260661
v 0.150507107 -0.691888571 -0.00488932664
v -0.0356686078 -0.371934742 -0.00360475201
v -0.0124557801 -0.15091069 -0.00146263139
v -0.000849415199 -0.0403986312 -0.000391570968
v -0.0240621939 -0.261422694 -0.00253369217
v 0.336343378 -0.747706413 -0.00423732121
v 0.468240112 -0.80504626 -0.00405604346
v 0.0034303139 -0.485104263 -0.00423331
v 0.00340492767 -0.151741952 -0.00132421404
v 0.00339644961 -0.0406211615 -0.000354514952
v 0.00341340597 -0.262862712 -0.00229391246
v 0.0034218356 -0.373983473 -0.00326361111
v 0.0657588765 -0.592958868 -0.0046591456
v 0.0192656834 -0.15091069 -0.00118579657
v 0.00764236273 -0.0403986312 -0.000317459315
v 0.0308890063 -0.261422724 -0.00205413392
v 0.042512279 -0.371934742 -0.00292247091
v 0.0541355982 -0.48244682 -0.00379080814
v 0.127396196 -0.583196104 -0.00412124023
v 0.0349526629 -0.148426011 -0.00104889611
v 0.0118417675 -0.0397334918 -0.000280809472
v 0.0580635592 -0.257118523 -0.0018169817
v 0.0811744034 -0.36581105 -0.00258506788
v 0.104285322 -0.474503547 -0.00335315382
v 0.22202079 -0.672725856 -0.00426523155
v 0.050294023 -0.144315168 -0.000915011333
v 0.0159486383 -0.0386330187 -0.000244966941
v 0.0846393332 -0.249997288 -0.00158505538
v 0.118984714 -0.355679423 -0.00225509936
v 0.153330058 -0.461361557 -0.00292514358
v 0.187675416 -0.567043662 -0.00359518803
v 0.291139722 -0.646192551 -0.00366203603
v 0.065121606 -0.138623163 -0.000785610173
v 0.0199179221 -0.0371092781 -0.000210324972
v 0.110325217 -0.240137041 -0.00136089534
v 0.155528873 -0.341650933 -0.00193618063
v 0.200732484 -0.443164796 -0.00251146569
v 0.245936081 -0.544678688 -0.00308675086
v 0.412673414 -0.708812833 -0.00357119553
v 0.549841106 -0.75205195 -0.00334391976
v 0.357106656 -0.612579405 -0.00308634806
v 0.484519929 -0.662153363 -0.00294419727
v 0.625455797 -0.690818071 -0.00268403743
v 0.301539928 -0.516346037 -0.0026015006
v 0.245973215 -0.42011264 -0.00211665267
v 0.419198841 -0.572254777 -0.00254447525
v 0.551095843 -0.608239174 -0.00236319564
v 0.694255888 -0.622015357 -0.00208362658
v 0.353877723 -0.482356161 -0.002144753
v 0.190406501 -0.323879182 -0.00163180521
v 0.47673595 -0.525660396 -0.00204235432
v 0.611671746 -0.547661066 -0.00183455634
v 0.755487502 -0.546397746 -0.001549265
v 0.288556576 -0.392457575 -0.00174503075
v 0.134839728 -0.227645785 -0.00114695763
v 0.402375996 -0.443081528 -0.00172151253
v 0.529087603 -0.473306715 -0.00158548611
v 0.665583849 -0.481082588 -0.00136407092
v 0.808479786 -0.464793682 -0.00108680769
v 0.223235473 -0.302558988 -0.00134530838
v 0.0792730153 -0.131412387 -0.000662110513
v 0.0237062555 -0.0351789556 -0.000177262496
v 0.328016073 -0.36050272 -0.00140067074
v 0.44650346 -0.398952425 -0.00133641611
v 0.575680196 -0.415767461 -0.00117887696
v 0.71224153 -0.409233302 -0.000956894364
v 0.852652133 -0.378097236 -0.000701321114
v 0.15791434 -0.212660387 -0.000945586362
v 0.0925932303 -0.122761816 -0.000545864517
v 0.0272720754 -0.0328632109 -0.000146142062
v 0.253656119 -0.277923912 -0.00107982929
v 0.363919318 -0.324598104 -0.00108734576
v 0.485776603 -0.350452274 -0.000993682886
v 0.616003335 -0.353672922 -0.000826981443
v 0.751133621 -0.332900345 -0.000617487996
v 0.887520611 -0.287258297 -0.000397029362
v 0.104936257 -0.112766236 -0.00043814606
v 0.0305762831 -0.0301874075 -0.000117304298
v 0.179296181 -0.195345059 -0.000758987444
v 0.281335175 -0.250243813 -0.000838275766
v 0.39587298 -0.285137117 -0.000808488869
v 0.519765139 -0.298112512 -0.000697068113
v 0.649615169 -0.287703454 -0.000533654762
v 0.781834066 -0.252920061 -0.000349569804
v 0.912703216 -0.193272084 -0.000177265436
v 0.198751017 -0.175889477 -0.000589205592
v 0.305969328 -0.219821975 -0.000623294851
v 0.423526943 -0.242552131 -0.000567154901
v 0.548096716 -0.242506564 -0.000449821411
v 0.676147461 -0.218581885 -0.00030211077
v 0.804006338 -0.170168772 -0.000156075577
v 0.927923977 -0.0971683413 -4.44372345E-05
v 0.11616689 -0.101535186 -0.000340135535
v 0.0335827358 -0.0271808617 -9.10652743E-05
v 0.21606569 -0.154506817 -0.000438100687
v 0.126162082 -0.0891916752 -0.000252906757
v 0.0362584442 -0.023876518 -6.77126227E-05
v 0.817407668 -0.0855530575 -3.91252615E-05
v 0.933016121 8.34706193E-11 -3.64861593E-18
v 0.69530946 -0.147065461 -0.000134886272
v 0.327288717 -0.186991751 -0.000437241717
v 0.13481231 -0.0758709759 -0.000177415524
v 0.0385740995 -0.0203105807 -4.75018132E-05
v 0.231050521 -0.131431356 -0.000307328475
v 0.821891129 7.34927327E-11 1.89244745E-10
v 0.927923977 0.0971683413 -4.44411817E-05
v 0.446578264 -0.197309688 -0.000365988089
v 0.142022848 -0.0617190078 -0.000114488292
v 0.0405043103 -0.0165221151 -3.06546572E-05
v 0.243541285 -0.106915891 -0.000198321359
v 0.345059752 -0.152112782 -0.000282154797
v 0.570460916 -0.184243664 -0.000254651648
v 0.14771463 -0.0468908437 -6.48150308E-05
v 0.0420280062 -0.0125526292 -1.73558437E-05
v 0.25340116 -0.081229046 -0.000112274036
v 0.359087735 -0.115567252 -0.000159733216
v 0.46477434 -0.149905458 -0.000207192483
v 0.586612642 -0.123962149 -0.000113697082
v 0.151825294 -0.0315489247 -2.89398213E-05
v 0.0431284234 -0.00844561402 -7.75071749E-06
v 0.260522127 -0.054652229 -5.01289214E-05
v 0.369218975 -0.0777555332 -7.13184054E-05
v 0.477915823 -0.100858852 -9.25077547E-05
v 0.706891358 -0.0739377737 -3.3813667E-05
v 0.154309884 -0.0158613529 -7.25570726E-06
v 0.0437935963 -0.00424606772 -1.94373638E-06
v 0.264826179 -0.0274766348 -1.25671104E-05
v 0.375342429 -0.0390919186 -1.78787959E-05
v 0.485858768 -0.0507072024 -2.31904542E-05
v 0.596375048 -0.0623224862 -2.85020778E-05
v 0.710766077 6.35148392E-11 -2.7763215E-18
v 0.155141115 1.36253812E-11 -1.89244745E-10
v 0.0440160632 3.64749203E-12 -1.59437435E-19
v 0.266266078 2.36032738E-11 -1.03173214E-18
v 0.3773911 3.35811656E-11 -1.46787946E-18
v 0.488516092 4.35590557E-11 -1.90402667E-18
v 0.599641085 5.35369492E-11 -2.34017419E-18
v 0.817407668 0.0855530575 -3.91281974E-05
v 0.912703216 0.193272084 -0.000177273236
v 0.706891358 0.0739377737 -3.38155915E-05
v 0.804006338 0.170168772 -0.000156081747
v 0.887520611 0.287258297 -0.000397040829
v 0.596375048 0.0623224862 -2.85031711E-05
v 0.485858768 0.0507072024 -2.31904451E-05
v 0.69530946 0.147065461 -0.000134890433
v 0.781834066 0.252920061 -0.000349578651
v 0.852652133 0.378097236 -0.000701336714
v 0.586612642 0.123962149 -0.000113699025
v 0.375342429 0.0390919223 -1.78778628E-05
v 0.676147461 0.218581885 -0.000302116649
v 0.751133621 0.332900345 -0.000617499347
v 0.808479786 0.464793682 -0.00108682644
v 0.477915823 0.100858852 -9.2507682E-05
v 0.264826179 0.0274766348 -1.25649694E-05
v 0.570460916 0.184243664 -0.0002546545
v 0.649615169 0.287703454 -0.000533662154
v 0.71224153 0.409233302 -0.00095690781
v 0.755487502 0.546397746 -0.00154928619
v 0.369218975 0.0777555332 -7.13163099E-05
v 0.154309884 0.0158613529 -7.25255222E-06
v 0.0437935963 0.00424606772 -1.93956566E-06
v 0.46477434 0.149905458 -0.00020719225
v 0.548096716 0.242506564 -0.000449824816
v 0.616003335 0.353672922 -0.000826989999
v 0.665583849 0.481082588 -0.00136408641
v 0.694255888 0.622015357 -0.00208364986
v 0.260522127 0.054652229 -5.01249961E-05
v 0.151825294 0.0315489247 -2.89338714E-05
v 0.0431284234 0.00844561402 -7.74237105E-06
v 0.359087735 0.115567252 -0.000159730072
v 0.446578264 0.197309688 -0.000365987595
v 0.519765139 0.298112512 -0.000697072013
v 0.575680196 0.415767461 -0.00117888674
v 0.611671746 0.547661066 -0.00183457299
v 0.625455797 0.690818071 -0.00268406235
v 0.14771463 0.0468908437 -6.48058849E-05
v 0.0420280062 0.0125526292 -1.73433145E-05
v 0.25340116 0.081229046 -0.00011226788
v 0.345059752 0.152112782 -0.000282150315
v 0.423526943 0.242552131 -0.000567153853
v 0.485776603 0.350452274 -0.000993686845
v 0.529087603 0.473306715 -0.00158549659
v 0.551095843 0.608239174 -0.00236321311
v 0.549841106 0.75205195 -0.0033439456
v 0.243541285 0.106915891 -0.000198312919
v 0.327288717 0.186991751 -0.000437235925
v 0.39587298 0.285137117 -0.000808487122
v 0.44650346 0.398952425 -0.00133641984
v 0.47673592 0.525660396 -0.00204236456
v 0.484519929 0.662153363 -0.00294421497
v 0.468240112 0.80504626 -0.00405606953
v 0.142022848 0.0617190078 -0.000114475893
v 0.0405043103 0.0165221151 -3.06386901E-05
v 0.231050521 0.131431356 -0.000307317649
v 0.13481231 0.0758709759 -0.000177399823
v 0.0385740995 0.0203105807 -4.7481637E-05
v 0.412673414 0.708812833 -0.00357121346
v 0.381547004 0.849220335 -0.00481263176
v 0.419198841 0.572254777 -0.00254448503
v 0.305969328 0.219821975 -0.000623287342
v 0.126162082 0.0891916752 -0.000252888072
v 0.0362584442 0.023876518 -6.76882119E-05
v 0.21606569 0.154506817 -0.000438087736
v 0.336343378 0.747706413 -0.0042373375
v 0.290711492 0.884090126 -0.00560534419
v 0.363919318 0.324598104 -0.0010873432
v 0.11616689 0.101535186 -0.000340113387
v 0.0335827358 0.0271808617 -9.10366143E-05
v 0.198751017 0.175889477 -0.000589189993
v 0.281335175 0.250243813 -0.000838266686
v 0.402375996 0.443081528 -0.00172151555
v 0.104936257 0.112766236 -0.000438120333
v 0.0305762831 0.0301874075 -0.000117271375
v 0.179296181 0.195345059 -0.000758968876
v 0.253656119 0.277923912 -0.00107981788
v 0.328016073 0.36050272 -0.00140066678
v 0.353877723 0.482356161 -0.0021447551
v 0.0925932303 0.122761816 -0.000545835064
v 0.0272720754 0.0328632109 -0.000146104809
v 0.15791434 0.212660387 -0.000945564767
v 0.223235473 0.302558988 -0.00134529488
v 0.288556576 0.392457575 -0.00174502505
v 0.357106656 0.612579405 -0.00308635714
v 0.0792730153 0.131412387 -0.000662077684
v 0.0237062555 0.0351789556 -0.000177220922
v 0.134839728 0.227645785 -0.00114693318
v 0.190406501 0.323879182 -0.00163178914
v 0.245973215 0.42011264 -0.00211664522
v 0.301539928 0.516346037 -0.00260150107
v 0.291139722 0.646192551 -0.00366204372
v 0.065121606 0.138623163 -0.000785573502
v 0.0199179221 0.0371092781 -0.000210279031
v 0.110325217 0.240137041 -0.00136086752
v 0.155528873 0.341650933 -0.00193616166
v 0.200732484 0.443164796 -0.00251145544
v 0.245936081 0.544678688 -0.00308674993
v 0.256366134 0.778407931 -0.0049352902
v 0.196728855 0.909273684 -0.00642552134
v 0.22202079 0.672725856 -0.0042652376
v 0.173617959 0.800581098 -0.00565742422
v 0.100628763 0.924494922 -0.00726417545
v 0.187675416 0.567043662 -0.00359518384
v 0.153330058 0.461361557 -0.00292513077
v 0.150507107 0.691888571 -0.00488932896
v 0.0890054703 0.813982844 -0.00639582798
v 0.00346412952 0.929587364 -0.00811211951
v 0.127396196 0.583196104 -0.00412123324
v 0.118984714 0.355679423 -0.00225507701
v 0.0773821473 0.703470886 -0.00552748144
v 0.00345565146 0.818466485 -0.00714241061
v -0.0937004834 0.924494922 -0.0089600645
v 0.104285322 0.474503547 -0.00335313799
v 0.0846393332 0.249997288 -0.00158502383
v 0.0657588765 0.592958868 -0.00465913443
v 0.00344717316 0.707345784 -0.00617270311
v -0.0820940658 0.813982844 -0.00788899325
v -0.189800575 0.909273684 -0.00979871862
v 0.0811744034 0.36581105 -0.00258504204
v 0.050294023 0.144315168 -0.000914970646
v 0.0159486383 0.0386330187 -0.000244917319
v 0.0541355982 0.48244682 -0.00379078835
v 0.00343879196 0.596225023 -0.00520299422
v -0.0704877004 0.703470886 -0.00681792432
v -0.166706592 0.800581038 -0.00862739515
v -0.283783197 0.884090126 -0.0106188916
v 0.0580635592 0.257118523 -0.0018169462
v 0.0349526629 0.148426011 -0.00104885129
v 0.0118417675 0.0397334918 -0.000280755397
v 0.042512279 0.371934742 -0.00292244111
v 0.0034303139 0.485104263 -0.00423328578
v -0.0588813387 0.592958808 -0.005746854
v -0.143612653 0.691888571 -0.00745607587
v -0.249454781 0.778407931 -0.0093495287
v -0.374618798 0.849220276 -0.0114116007
v 0.0192656834 0.15091069 -0.00118574779
v 0.00764236273 0.0403986312 -0.000317400787
v 0.0308890063 0.261422724 -0.00205409434
v 0.0034218356 0.373983473 -0.00326357712
v -0.0472749732 0.48244682 -0.00467578368
v -0.120518662 0.583196104 -0.00628475426
v -0.215126351 0.672725797 -0.00808016583
v -0.329431921 0.747706413 -0.0100474777
v -0.461311847 0.805046201 -0.0121681597
v 0.00341340597 0.262862712 -0.00229386892
v -0.0356686078 0.371934742 -0.00360471383
v -0.0974246711 0.474503547 -0.00511343312
v -0.180797875 0.567043662 -0.0068108025
v -0.284245253 0.646192551 -0.00868335646
v -0.405761957 0.708812773 -0.0107135996
v -0.5429129 0.75205189 -0.0128802788
v 0.00340492767 0.151741952 -0.00132416061
v 0.00339644961 0.0406211615 -0.000354451884
v -0.0240621939 0.261422694 -0.00253364374
v -0.0124557801 0.15091069 -0.00146257342
v -0.000849415199 0.0403986312 -0.000391503359
v -0.477608532 0.662153304 -0.0113405939
v -0.618527532 0.690818012 -0.0135401553
v -0.350212157 0.612579405 -0.00925903954
v -0.0743307322 0.36581102 -0.00394211197
v -0.0281428061 0.148426011 -0.0015994705
v -0.00504881982 0.0397334918 -0.000428148691
v -0.051236745 0.257118523 -0.00277079083
v -0.544184506 0.608239114 -0.0119215911
v -0.687327623 0.622015297 -0.0141405631
v -0.146469444 0.461361557 -0.0055414387
v -0.0434841178 0.144315153 -0.00173334999
v -0.00915569067 0.0386330187 -0.000463986682
v -0.077812545 0.249997288 -0.00300271297
v -0.112141021 0.355679423 -0.0042720763
v -0.239058569 0.544678688 -0.00731923431
v -0.0583117008 0.138623163 -0.00186274666
v -0.0131250219 0.0371092744 -0.000498624402
v -0.103498429 0.240137041 -0.00322686858
v -0.148685157 0.341650903 -0.00459099049
v -0.193871886 0.443164766 -0.00595511263
v -0.294662327 0.516345978 -0.00780448038
v -0.0724631622 0.131412372 -0.00198624237
v -0.0169133563 0.0351789556 -0.000531682395
v -0.128012925 0.22764577 -0.00344080129
v -0.18356277 0.323879182 -0.00489536114
v -0.239112586 0.42011258 -0.00634992123
v -0.412304372 0.572254717 -0.00980090909
v -0.0857833773 0.122761801 -0.002102484
v -0.0204791278 0.0328632072 -0.000562798232
v -0.151087523 0.212660387 -0.00364216906
v -0.216391772 0.302558988 -0.00518185366
v -0.281695932 0.392457545 -0.00672153896
v -0.347000241 0.482356161 -0.00826122332
v -0.469841361 0.525660336 -0.0103030242
v -0.0981263742 0.112766236 -0.0022101975
v -0.0237833355 0.0301874038 -0.000591631862
v -0.172469363 0.195345044 -0.00382876303
v -0.246812403 0.277923882 -0.00544732856
v -0.321155399 0.36050269 -0.00706589408
v -0.395498425 0.443081528 -0.00868445914
v -0.604760289 0.547661006 -0.0124502257
v -0.748559237 0.546397626 -0.0146749206
v -0.522193134 0.473306656 -0.0107598882
v -0.658672452 0.481082499 -0.0129207075
v -0.801551461 0.464793622 -0.0151373707
v -0.439625859 0.398952395 -0.00906955171
v -0.357058734 0.324598074 -0.00737921521
v -0.568785608 0.415767401 -0.0111664925
v -0.705330193 0.409233212 -0.0133278789
v -0.845723748 0.378097177 -0.0155228544
v -0.478899062 0.350452244 -0.00941227935
v -0.274491429 0.250243783 -0.00568887731
v -0.609108865 0.353672862 -0.0115183843
v -0.744222224 0.332900286 -0.0136672808
v -0.880592287 0.287258208 -0.0158271417
v -0.389012307 0.285137087 -0.00765806716
v -0.191924185 0.175889462 -0.00399853988
v -0.512887597 0.298112482 -0.00970889069
v -0.64272064 0.287703425 -0.0118117072
v -0.77492255 0.252920032 -0.0139351944
v -0.905774832 0.193271995 -0.0160469022
v -0.299125642 0.219821945 -0.0059038545
v -0.109356984 0.101535171 -0.00230820337
v -0.0267897882 0.0271808598 -0.000617866346
v -0.41666624 0.242552102 -0.00789939705
v -0.541219175 0.242506519 -0.00995613355
v -0.669252932 0.218581811 -0.012043247
v -0.797094941 0.170168698 -0.0141286841
v -0.920995593 0.0971682593 -0.0161797255
v -0.209238872 0.154506803 -0.00414964044
v -0.119352207 0.0891916677 -0.00239542825
v -0.0294654984 0.023876518 -0.000641214487
v -0.320445031 0.186991706 -0.00608990248
v -0.439717531 0.197309628 -0.00810055807
v -0.563583314 0.184243619 -0.0101512987
v -0.688414931 0.147065401 -0.012210466
v -0.810496151 0.085552983 -0.0142456302
v -0.926087737 -8.20597634E-08 -0.0162241571
v -0.814979672 -7.2250522E-08 -0.0142847504
v -0.699996829 0.0739377066 -0.012311534
v -0.703871548 -6.24412806E-08 -0.0123453438
v -0.224223718 0.131431341 -0.00428040884
v -0.338215977 0.152112752 -0.00624498492
v -0.457913697 0.149905413 -0.00825935043
v -0.579735041 0.123962104 -0.0102922479
v -0.589497447 0.0623224378 -0.0103774397
v -0.592763543 -5.26320427E-08 -0.0104059363
v -0.128002405 0.075870961 -0.00247091521
v -0.0317811519 0.020310577 -0.000661420345
v -0.236714467 0.106915884 -0.0043894113
v -0.135212973 0.0617189966 -0.00253383769
v -0.0337113626 0.0165221132 -0.000678262964
v -0.35224399 0.115567215 -0.00636740215
v -0.47105515 0.100858808 -0.0083740307
v -0.478998095 0.0507071614 -0.00844334252
v -0.481655478 -4.28228049E-08 -0.00846652873
v -0.140904725 0.046890825 -0.00258350652
v -0.0352350585 0.0125526255 -0.000691558002
v -0.246574342 0.0812290236 -0.00447545387
v -0.362375259 0.0777555034 -0.00645581214
v -0.368498713 0.0390918888 -0.0065092477
v -0.370547324 -3.3013567E-08 -0.00652712258
v -0.253695279 0.0546522103 -0.00453759404
v -0.145015419 0.0315489136 -0.00261937687
v -0.0363354757 0.00844561029 -0.000701158948
v -0.257999331 0.0274766106 -0.00457515195
v -0.25943926 -2.32043273E-08 -0.00458771409
v -0.147500008 0.0158613399 -0.00264105713
v -0.0370006487 0.004246064 -0.000706961029
v -0.14833121 -1.33950895E-08 -0.00264830817
v -0.037223164 -3.58584917E-09 -0.000708900567
vt 1 0
vt 0.875 0
vt 1 0.0166666675
vt 0.875 0.0166666675
vt 0.75 0
vt 1 0.0333333351
vt 0.75 0.0166666675
vt 0.625 0
vt 0.875 0.0333333351
vt 1 0.0500000045
vt 0.625 0.0166666675
vt 0.5 0
vt 0.75 0.0333333351
vt 0.875 0.0500000045
vt 1 0.0666666701
vt 0.5 0.0166666675
vt 0.375 0
vt 0.625 0.0333333351
vt 0.75 0.0500000045
vt 0.875 0.0666666701
vt 1 0.0833333358
vt 0.375 0.0166666675
vt 0.25 0
vt 0.5 0.0333333351
vt 0.625 0.0500000045
vt 0.75 0.0666666701
vt 0.875 0.0833333358
vt 1 0.100000001
vt 0.25 0.0166666675
vt 0.125 0
vt 0.375 0.0333333351
vt 0.5 0.0500000045
vt 0.625 0.0666666701
vt 0.75 0.0833333358
vt 0.875 0.100000001
vt 1 0.116666667
vt 0.125 0.0166666675
vt 0 0
vt 0 0.0166666675
vt 0.25 0.0333333351
vt 0.125 0.0333333351
vt 0 0.0333333351
vt 0.875 0.116666667
vt 1 0.13333334
vt 0.75 0.100000001
vt 0.375 0.0500000045
vt 0.125 0.0500000045
vt 0 0.0500000045
vt 0.25 0.0500000045
vt 0.875 0.13333334
vt 1 0.150000006
vt 0.5 0.0666666701
vt 0.125 0.0666666701
vt 0 0.0666666701
vt 0.25 0.0666666701
vt 0.375 0.0666666701
vt 0.625 0.0833333358
vt 0.125 0.0833333358
vt 0 0.0833333358
vt 0.25 0.0833333358
vt 0.375 0.0833333358
vt 0.5 0.0833333358
vt 0.625 0.100000001
vt 0.125 0.100000001
vt 0 0.100000001
vt 0.25 0.100000001
vt 0.375 0.100000001
vt 0.5 0.100000001
vt 0.75 0.116666667
vt 0.125 0.116666667
vt 0 0.116666667
vt 0.25 0.116666667
vt 0.375 0.116666667
vt 0.5 0.116666667
vt 0.625 0.116666667
vt 0.75 0.13333334
vt 0.125 0.13333334
vt 0 0.13333334
vt 0.25 0.13333334
vt 0.375 0.13333334
vt 0.5 0.13333334
vt 0.625 0.13333334
vt 0.875 0.150000006
vt 1 0.166666672
vt 0.75 0.150000006
vt 0.875 0.166666672
vt 1 0.183333337
vt 0.625 0.150000006
vt 0.5 0.150000006
vt 0.75 0.166666672
vt 0.875 0.183333337
vt 1 0.200000003
vt 0.625 0.166666672
vt 0.375 0.150000006
vt 0.75 0.183333337
vt 0.875 0.200000003
vt 1 0.216666669
vt 0.5 0.166666672
vt 0.25 0.150000006
vt 0.625 0.183333337
vt 0.75 0.200000003
vt 0.875 0.216666669
vt 1 0.233333334
vt 0.375 0.166666672
vt 0.125 0.150000006
vt 0 0.150000006
vt 0.5 0.183333337
vt 0.625 0.200000003
vt 0.75 0.216666669
vt 0.875 0.233333334
vt 1 0.25
vt 0.25 0.166666672
vt 0.125 0.166666672
vt 0 0.166666672
vt 0.375 0.183333337
vt 0.5 0.200000003
vt 0.625 0.216666669
vt 0.75 0.233333334
vt 0.875 0.25
vt 1 0.266666681
vt 0.125 0.183333337
vt 0 0.183333337
vt 0.25 0.183333337
vt 0.375 0.200000003
vt 0.5 0.216666669
vt 0.625 0.233333334
vt 0.75 0.25
vt 0.875 0.266666681
vt 1 0.283333361
vt 0.25 0.200000003
vt 0.375 0.216666669
vt 0.5 0.233333334
vt 0.625 0.25
vt 0.75 0.266666681
vt 0.875 0.283333361
vt 1 0.300000042
vt 0.125 0.200000003
vt 0 0.200000003
vt 0.25 0.216666669
vt 0.125 0.216666669
vt 0 0.216666669
vt 0.875 0.300000042
vt 1 0.316666722
vt 0.75 0.283333361
vt 0.375 0.233333334
vt 0.125 0.233333334
vt 0 0.233333334
vt 0.25 0.233333334
vt 0.875 0.316666722
vt 1 0.333333403
vt 0.5 0.25
vt 0.125 0.25
vt 0 0.25
vt 0.25 0.25
vt 0.375 0.25
vt 0.625 0.266666681
vt 0.125 0.266666681
vt 0 0.266666681
vt 0.25 0.266666681
vt 0.375 0.266666681
vt 0.5 0.266666681
vt 0.625 0.283333361
vt 0.125 0.283333361
vt 0 0.283333361
vt 0.25 0.283333361
vt 0.375 0.283333361
vt 0.5 0.283333361
vt 0.75 0.300000042
vt 0.125 0.300000042
vt 0 0.300000042
vt 0.25 0.300000042
vt 0.375 0.300000042
vt 0.5 0.300000042
vt 0.625 0.300000042
vt 0.75 0.316666722
vt 0.125 0.316666722
vt 0 0.316666722
vt 0.25 0.316666722
vt 0.375 0.316666722
vt 0.5 0.316666722
vt 0.625 0.316666722
vt 0.875 0.333333403
vt 1 0.350000083
vt 0.75 0.333333403
vt 0.875 0.350000083
vt 1 0.366666764
vt 0.625 0.333333403
vt 0.5 0.333333403
vt 0.75 0.350000083
vt 0.875 0.366666764
vt 1 0.383333445
vt 0.625 0.350000083
vt 0.375 0.333333403
vt 0.75 0.366666764
vt 0.875 0.383333445
vt 1 0.400000125
vt 0.5 0.350000083
vt 0.25 0.333333403
vt 0.625 0.366666764
vt 0.75 0.383333445
vt 0.875 0.400000125
vt 1 0.416666806
vt 0.375 0.350000083
vt 0.125 0.333333403
vt 0 0.333333403
vt 0.5 0.366666764
vt 0.625 0.383333445
vt 0.75 0.400000125
vt 0.875 0.416666806
vt 1 0.433333486
vt 0.25 0.350000083
vt 0.125 0.350000083
vt 0 0.350000083
vt 0.375 0.366666764
vt 0.5 0.383333445
vt 0.625 0.400000125
vt 0.75 0.416666806
vt 0.875 0.433333486
vt 1 0.450000167
vt 0.125 0.366666764
vt 0 0.366666764
vt 0.25 0.366666764
vt 0.375 0.383333445
vt 0.5 0.400000125
vt 0.625 0.416666806
vt 0.75 0.433333486
vt 0.875 0.450000167
vt 1 0.466666847
vt 0.25 0.383333445
vt 0.375 0.400000125
vt 0.5 0.416666806
vt 0.625 0.433333486
vt 0.75 0.450000167
vt 0.875 0.466666847
vt 1 0.483333528
vt 0.125 0.383333445
vt 0 0.383333445
vt 0.25 0.400000125
vt 0.125 0.400000125
vt 0 0.400000125
vt 0.875 0.483333528
vt 1 0.500000179
vt 0.75 0.466666847
vt 0.375 0.416666806
vt 0.125 0.416666806
vt 0 0.416666806
vt 0.25 0.416666806
vt 0.875 0.500000179
vt 1 0.51666683
vt 0.5 0.433333486
vt 0.125 0.433333486
vt 0 0.433333486
vt 0.25 0.433333486
vt 0.375 0.433333486
vt 0.625 0.450000167
vt 0.125 0.450000167
vt 0 0.450000167
vt 0.25 0.450000167
vt 0.375 0.450000167
vt 0.5 0.450000167
vt 0.625 0.466666847
vt 0.125 0.466666847
vt 0 0.466666847
vt 0.25 0.466666847
vt 0.375 0.466666847
vt 0.5 0.466666847
vt 0.75 0.483333528
vt 0.125 0.483333528
vt 0 0.483333528
vt 0.25 0.483333528
vt 0.375 0.483333528
vt 0.5 0.483333528
vt 0.625 0.483333528
vt 0.75 0.500000179
vt 0.125 0.500000179
vt 0 0.500000179
vt 0.25 0.500000179
vt 0.375 0.500000179
vt 0.5 0.500000179
vt 0.625 0.500000179
vt 0.875 0.51666683
vt 1 0.53333348
vt 0.75 0.51666683
vt 0.875 0.53333348
vt 1 0.550000131
vt 0.625 0.51666683
vt 0.5 0.51666683
vt 0.75 0.53333348
vt 0.875 0.550000131
vt 1 0.566666782
vt 0.625 0.53333348
vt 0.375 0.51666683
vt 0.75 0.550000131
vt 0.875 0.566666782
vt 1 0.583333433
vt 0.5 0.53333348
vt 0.25 0.51666683
vt 0.625 0.550000131
vt 0.75 0.566666782
vt 0.875 0.583333433
vt 1 0.600000083
vt 0.375 0.53333348
vt 0.125 0.51666683
vt 0 0.51666683
vt 0.5 0.550000131
vt 0.625 0.566666782
vt 0.75 0.583333433
vt 0.875 0.600000083
vt 1 0.616666734
vt 0.25 0.53333348
vt 0.125 0.53333348
vt 0 0.53333348
vt 0.375 0.550000131
vt 0.5 0.566666782
vt 0.625 0.583333433
vt 0.75 0.600000083
vt 0.875 0.616666734
vt 1 0.633333385
vt 0.125 0.550000131
vt 0 0.550000131
vt 0.25 0.550000131
vt 0.375 0.566666782
vt 0.5 0.583333433
vt 0.625 0.600000083
vt 0.75 0.616666734
vt 0.875 0.633333385
vt 1 0.650000036
vt 0.25 0.566666782
vt 0.375 0.583333433
vt 0.5 0.600000083
vt 0.625 0.616666734
vt 0.75 0.633333385
vt 0.875 0.650000036
vt 1 0.666666687
vt 0.125 0.566666782
vt 0 0.566666782
vt 0.25 0.583333433
vt 0.125 0.583333433
vt 0 0.583333433
vt 0.875 0.666666687
vt 1 0.683333337
vt 0.75 0.650000036
vt 0.375 0.600000083
vt 0.125 0.600000083
vt 0 0.600000083
vt 0.25 0.600000083
vt 0.875 0.683333337
vt 1 0.699999988
vt 0.5 0.616666734
vt 0.125 0.616666734
vt 0 0.616666734
vt 0.25 0.616666734
vt 0.375 0.616666734
vt 0.625 0.633333385
vt 0.125 0.633333385
vt 0 0.633333385
vt 0.25 0.633333385
vt 0.375 0.633333385
vt 0.5 0.633333385
vt 0.625 0.650000036
vt 0.125 0.650000036
vt 0 0.650000036
vt 0.25 0.650000036
vt 0.375 0.650000036
vt 0.5 0.650000036
vt 0.75 0.666666687
vt 0.125 0.666666687
vt 0 0.666666687
vt 0.25 0.666666687
vt 0.375 0.666666687
vt 0.5 0.666666687
vt 0.625 0.666666687
vt 0.75 0.683333337
vt 0.125 0.683333337
vt 0 0.683333337
vt 0.25 0.683333337
vt 0.375 0.683333337
vt 0.5 0.683333337
vt 0.625 0.683333337
vt 0.875 0.699999988
vt 1 0.716666639
vt 0.75 0.699999988
vt 0.875 0.716666639
vt 1 0.73333329
vt 0.625 0.699999988
vt 0.5 0.699999988
vt 0.75 0.716666639
vt 0.875 0.73333329
vt 1 0.74999994
vt 0.625 0.716666639
vt 0.375 0.699999988
vt 0.75 0.73333329
vt 0.875 0.74999994
vt 1 0.766666591
vt 0.5 0.716666639
vt 0.25 0.699999988
vt 0.625 0.73333329
vt 0.75 0.74999994
vt 0.875 0.766666591
vt 1 0.783333242
vt 0.375 0.716666639
vt 0.125 0.699999988
vt 0 0.699999988
vt 0.5 0.73333329
vt 0.625 0.74999994
vt 0.75 0.766666591
vt 0.875 0.783333242
vt 1 0.799999893
vt 0.25 0.716666639
vt 0.125 0.716666639
vt 0 0.716666639
vt 0.375 0.73333329
vt 0.5 0.74999994
vt 0.625 0.766666591
vt 0.75 0.783333242
vt 0.875 0.799999893
vt 1 0.816666543
vt 0.125 0.73333329
vt 0 0.73333329
vt 0.25 0.73333329
vt 0.375 0.74999994
vt 0.5 0.766666591
vt 0.625 0.783333242
vt 0.75 0.799999893
vt 0.875 0.816666543
vt 1 0.833333194
vt 0.25 0.74999994
vt 0.375 0.766666591
vt 0.5 0.783333242
vt 0.625 0.799999893
vt 0.75 0.816666543
vt 0.875 0.833333194
vt 1 0.849999845
vt 0.125 0.74999994
vt 0 0.74999994
vt 0.25 0.766666591
vt 0.125 0.766666591
vt 0 0.766666591
vt 0.875 0.849999845
vt 1 0.866666496
vt 0.75 0.833333194
vt 0.375 0.783333242
vt 0.125 0.783333242
vt 0 0.783333242
vt 0.25 0.783333242
vt 0.875 0.866666496
vt 1 0.883333147
vt 0.5 0.799999893
vt 0.125 0.799999893
vt 0 0.799999893
vt 0.25 0.799999893
vt 0.375 0.799999893
vt 0.625 0.816666543
vt 0.125 0.816666543
vt 0 0.816666543
vt 0.25 0.816666543
vt 0.375 0.816666543
vt 0.5 0.816666543
vt 0.625 0.833333194
vt 0.125 0.833333194
vt 0 0.833333194
vt 0.25 0.833333194
vt 0.375 0.833333194
vt 0.5 0.833333194
vt 0.75 0.849999845
vt 0.125 0.849999845
vt 0 0.849999845
vt 0.25 0.849999845
vt 0.375 0.849999845
vt 0.5 0.849999845
vt 0.625 0.849999845
vt 0.75 0.866666496
vt 0.125 0.866666496
vt 0 0.866666496
vt 0.25 0.866666496
vt 0.375 0.866666496
vt 0.5 0.866666496
vt 0.625 0.866666496
vt 0.875 0.883333147
vt 1 0.899999797
vt 0.75 0.883333147
vt 0.875 0.899999797
vt 1 0.916666448
vt 0.625 0.883333147
vt 0.5 0.883333147
vt 0.75 0.899999797
vt 0.875 0.916666448
vt 1 0.933333099
vt 0.625 0.899999797
vt 0.375 0.883333147
vt 0.75 0.916666448
vt 0.875 0.933333099
vt 1 0.94999975
vt 0.5 0.899999797
vt 0.25 0.883333147
vt 0.625 0.916666448
vt 0.75 0.933333099
vt 0.875 0.94999975
vt 1 0.9666664
vt 0.375 0.899999797
vt 0.125 0.883333147
vt 0 0.883333147
vt 0.5 0.916666448
vt 0.625 0.933333099
vt 0.75 0.94999975
vt 0.875 0.9666664
vt 1 0.983333051
vt 0.25 0.899999797
vt 0.125 0.899999797
vt 0 0.899999797
vt 0.375 0.916666448
vt 0.5 0.933333099
vt 0.625 0.94999975
vt 0.75 0.9666664
vt 0.875 0.983333051
vt 1 0.999999702
vt 0.875 0.999999702
vt 0.75 0.983333051
vt 0.75 0.999999702
vt 0.25 0.916666448
vt 0.375 0.933333099
vt 0.5 0.94999975
vt 0.625 0.9666664
vt 0.625 0.983333051
vt 0.625 0.999999702
vt 0.125 0.916666448
vt 0 0.916666448
vt 0.25 0.933333099
vt 0.125 0.933333099
vt 0 0.933333099
vt 0.375 0.94999975
vt 0.5 0.9666664
vt 0.5 0.983333051
vt 0.5 0.999999702
vt 0.125 0.94999975
vt 0 0.94999975
vt 0.25 0.94999975
vt 0.375 0.9666664
vt 0.375 0.983333051
vt 0.375 0.999999702
vt 0.25 0.9666664
vt 0.125 0.9666664
vt 0 0.9666664
vt 0.25 0.983333051
vt 0.25 0.999999702
vt 0.125 0.983333051
vt 0 0.983333051
vt 0.125 0.999999702
vt 0 0.999999702
vn -0.0174524859 -0.000457266899 0.999847531
vn -0.017452471 -0.000457293674 0.999847531
vn -0.0174046662 -0.000912106363 0.999848127
vn -0.0174046773 -0.000912104209 0.999848127
vn -0.0174524859 -0.000457272632 0.999847531
vn -0.0172617864 -0.00181428646 0.999849319
vn -0.0174046867 -0.000912100135 0.999848127
vn -0.0174524859 -0.000457262824 0.999847531
vn -0.0172617882 -0.00181428436 0.999849319
vn -0.0170253869 -0.00269659888 0.999851465
vn -0.0174046922 -0.000912099204 0.999848127
vn -0.0174524784 -0.000457259564 0.999847531
vn -0.0172617957 -0.00181428494 0.999849319
vn -0.0170253962 -0.00269659143 0.999851465
vn -0.0166980699 -0.00354934623 0.999854326
vn -0.0174046811 -0.000912093383 0.999848127
vn -0.0174524784 -0.00045723471 0.999847531
vn -0.0172618069 -0.00181427307 0.999849319
vn -0.0170254093 -0.00269658165 0.999851465
vn -0.0166980755 -0.00354933809 0.999854326
vn -0.0162834115 -0.00436322251 0.999857903
vn -0.0174046867 -0.00091206294 0.999848127
vn -0.0174524803 -0.000457226677 0.999847531
vn -0.017261805 -0.00181426306 0.999849319
vn -0.0170254111 -0.00269657676 0.999851465
vn -0.0166980699 -0.00354934367 0.999854326
vn -0.0162834004 -0.00436321832 0.999857903
vn -0.0157859363 -0.00512928329 0.999862194
vn -0.0174046867 -0.000912058982 0.999848127
vn -0.0174524952 -0.00045712298 0.999847531
vn -0.017261805 -0.0018142435 0.999849319
vn -0.0170253981 -0.00269657653 0.999851465
vn -0.0166980736 -0.00354934786 0.999854326
vn -0.0162833948 -0.00436321879 0.999857903
vn -0.0157859232 -0.00512928562 0.999862194
vn -0.0152111072 -0.00583914667 0.999867201
vn -0.0174046997 -0.000911978132 0.999848127
vn -0.017452538 -0.000456755515 0.999847531
vn -0.0174047444 -0.000911690993 0.999848127
vn -0.017261805 -0.00181423826 0.999849319
vn -0.0172618199 -0.00181419391 0.999849319
vn -0.0172619149 -0.00181388494 0.999849319
vn -0.0152111137 -0.00583914667 0.999867201
vn -0.014565248 -0.00648503844 0.999872923
vn -0.0157859363 -0.00512928423 0.999862194
vn -0.0170253981 -0.00269656978 0.999851465
vn -0.0170254391 -0.00269647618 0.999851465
vn -0.0170255601 -0.00269615278 0.999851465
vn -0.0170254167 -0.00269653532 0.999851465
vn -0.0145652499 -0.00648504077 0.999872923
vn -0.0138554033 -0.00705987914 0.999879122
vn -0.016698068 -0.003549346 0.999854326
vn -0.0166981164 -0.00354924519 0.999854326
vn -0.0166982971 -0.00354892062 0.999854326
vn -0.0166980997 -0.00354928849 0.999854326
vn -0.0166980848 -0.00354932062 0.999854326
vn -0.0162834078 -0.00436321367 0.999857903
vn -0.0162834581 -0.00436312985 0.999857903
vn -0.0162836965 -0.00436276337 0.999857903
vn -0.0162834283 -0.00436317176 0.999857903
vn -0.0162834208 -0.00436318805 0.999857903
vn -0.0162834134 -0.00436320249 0.999857903
vn -0.0157859456 -0.00512927677 0.999862194
vn -0.015786007 -0.00512919202 0.999862194
vn -0.0157862213 -0.00512893451 0.999862194
vn -0.0157859586 -0.00512924604 0.999862194
vn -0.0157859493 -0.00512926234 0.999862194
vn -0.0157859568 -0.0051292628 0.999862194
vn -0.0152111258 -0.00583914993 0.999867201
vn -0.0152112013 -0.00583906611 0.999867201
vn -0.0152114304 -0.00583884213 0.999867201
vn -0.0152111575 -0.00583911035 0.999867201
vn -0.0152111351 -0.00583913084 0.999867201
vn -0.0152111314 -0.00583913783 0.999867201
vn -0.0152111333 -0.00583914993 0.999867201
vn -0.0145652629 -0.00648504542 0.999872923
vn -0.0145653496 -0.00648496114 0.999872923
vn -0.0145656541 -0.00648472784 0.999872923
vn -0.0145653021 -0.00648500537 0.999872923
vn -0.0145652816 -0.00648502493 0.999872923
vn -0.0145652508 -0.0064850417 0.999872923
vn -0.0145652704 -0.00648504077 0.999872923
vn -0.0138554107 -0.00705988472 0.999879122
vn -0.0130893784 -0.00755736884 0.999885798
vn -0.0138554256 -0.00705988985 0.999879122
vn -0.013089383 -0.00755737536 0.999885798
vn -0.0122755384 -0.00797205511 0.999892831
vn -0.0138554135 -0.00705988379 0.999879122
vn -0.0138554377 -0.00705987448 0.999879122
vn -0.0130893812 -0.00755738141 0.999885798
vn -0.0122755477 -0.00797205977 0.999892831
vn -0.0114228185 -0.00829940848 0.999900341
vn -0.0130893877 -0.00755737908 0.999885798
vn -0.0138554452 -0.00705986796 0.999879122
vn -0.0122755561 -0.00797206443 0.999892831
vn -0.0114228288 -0.00829940941 0.999900341
vn -0.0105405441 -0.00853582844 0.99990809
vn -0.0130894119 -0.00755736884 0.999885798
vn -0.0138554545 -0.00705986004 0.999879122
vn -0.0122755645 -0.00797206629 0.999892831
vn -0.0114228362 -0.00829940941 0.999900341
vn -0.0105405496 -0.00853582937 0.99990809
vn -0.00963840913 -0.00867872778 0.999915957
vn -0.0130894054 -0.00755736185 0.999885798
vn -0.0138554983 -0.00705982838 0.999879122
vn -0.013855909 -0.0070595718 0.999879122
vn -0.0122755608 -0.0079720607 0.999892831
vn -0.0114228362 -0.00829940941 0.999900341
vn -0.0105405571 -0.00853582658 0.99990809
vn -0.00963841006 -0.00867872592 0.999915957
vn -0.00872626156 -0.00872652605 0.999923825
vn -0.013089438 -0.00755734835 0.999885798
vn -0.0130894743 -0.00755732926 0.999885798
vn -0.0130898356 -0.0075571523 0.999885798
vn -0.0122755766 -0.00797205232 0.999892831
vn -0.0114228353 -0.00829940941 0.999900341
vn -0.0105405636 -0.00853582658 0.99990809
vn -0.00963841099 -0.0086787222 0.999915957
vn -0.00872626714 -0.00872652791 0.999923825
vn -0.00781412516 -0.00867873151 0.999931812
vn -0.0122756548 -0.00797202066 0.999892831
vn -0.012275923 -0.00797192566 0.999892831
vn -0.0122756045 -0.00797204021 0.999892831
vn -0.0114228521 -0.00829940476 0.999900341
vn -0.0105405739 -0.00853582565 0.99990809
vn -0.00963842217 -0.0086787222 0.999915957
vn -0.00872627366 -0.00872652885 0.999923825
vn -0.00781412888 -0.00867873244 0.999931812
vn -0.00691197952 -0.00853583869 0.99993968
vn -0.0114228753 -0.00829939637 0.999900341
vn -0.0105405888 -0.00853582378 0.99990809
vn -0.00963843334 -0.00867872313 0.999915957
vn -0.00872628018 -0.00872652885 0.999923825
vn -0.00781412795 -0.00867872592 0.999931812
vn -0.00691197999 -0.00853583682 0.99993968
vn -0.00602970645 -0.00829942618 0.999947429
vn -0.0114229359 -0.00829937682 0.999900341
vn -0.0114232358 -0.00829930883 0.999900341
vn -0.0105406018 -0.00853581633 0.99990809
vn -0.0105406623 -0.00853580702 0.99990809
vn -0.0105410153 -0.00853575394 0.99990797
vn -0.00602970971 -0.00829942897 0.999947429
vn -0.00517697958 -0.00797208399 0.99995482
vn -0.00691198232 -0.00853583869 0.99993968
vn -0.00963844638 -0.0086787194 0.999915957
vn -0.00963852741 -0.00867871102 0.999915957
vn -0.00963892508 -0.00867870077 0.999915957
vn -0.00963846035 -0.00867871474 0.999915957
vn -0.00517698284 -0.00797208771 0.99995482
vn -0.00436314009 -0.0075574033 0.999961972
vn -0.00872628111 -0.00872652885 0.999923825
vn -0.00872638542 -0.00872653071 0.999923825
vn -0.00872678217 -0.00872655306 0.999923825
vn -0.00872632582 -0.00872652791 0.999923825
vn -0.00872629322 -0.00872652791 0.999923825
vn -0.00781413354 -0.00867872778 0.999931812
vn -0.00781422388 -0.00867873989 0.999931812
vn -0.00781455543 -0.0086787995 0.999931812
vn -0.00781417824 -0.00867873244 0.999931812
vn -0.00781415589 -0.00867873151 0.999931812
vn -0.00781414285 -0.00867873151 0.999931812
vn -0.0069119893 -0.00853584055 0.99993968
vn -0.00691208569 -0.00853586197 0.99993968
vn -0.00691243866 -0.00853596628 0.99993968
vn -0.00691203633 -0.00853584893 0.99993968
vn -0.00691201026 -0.00853584427 0.99993968
vn -0.00691199815 -0.00853584427 0.99993968
vn -0.0060297153 -0.0082994299 0.999947429
vn -0.00602982845 -0.00829946809 0.999947429
vn -0.00603017723 -0.00829961058 0.999947429
vn -0.00602976233 -0.00829944573 0.999947429
vn -0.00602973439 -0.00829943642 0.999947429
vn -0.0060297274 -0.00829943642 0.999947429
vn -0.00602971949 -0.00829943269 0.999947429
vn -0.0051769861 -0.00797208864 0.99995482
vn -0.00517708249 -0.00797213148 0.99995482
vn -0.00517741311 -0.0079723103 0.99995482
vn -0.00517703732 -0.00797211193 0.99995482
vn -0.00517701125 -0.00797209982 0.99995482
vn -0.005177001 -0.00797209609 0.99995482
vn -0.00517699542 -0.00797209609 0.99995482
vn -0.00436314382 -0.00755740609 0.999961972
vn -0.00359710492 -0.00705992198 0.999968648
vn -0.00436314754 -0.00755740702 0.999961972
vn -0.00359710655 -0.00705991872 0.999968648
vn -0.00288726529 -0.00648508081 0.999974847
vn -0.0043631508 -0.00755740982 0.999961972
vn -0.00436315872 -0.00755741121 0.999961972
vn -0.00359711051 -0.00705992011 0.999968648
vn -0.00288726599 -0.00648508174 0.999974847
vn -0.00224139798 -0.00583919091 0.99998045
vn -0.00359711261 -0.00705992244 0.999968648
vn -0.00436317315 -0.00755742146 0.999961972
vn -0.00288726925 -0.00648508454 0.999974847
vn -0.00224139914 -0.00583919371 0.99998045
vn -0.00166657823 -0.00512932567 0.999985456
vn -0.00359711866 -0.00705992803 0.999968648
vn -0.00436319225 -0.0075574303 0.999961972
vn -0.00288727321 -0.00648508919 0.999974847
vn -0.0022414017 -0.0058391965 0.99998045
vn -0.00166658009 -0.00512932893 0.999985456
vn -0.00116910634 -0.00436326442 0.999989867
vn -0.00359713193 -0.00705993595 0.999968648
vn -0.00436323415 -0.00755745592 0.999961972
vn -0.00436352426 -0.00755765429 0.999961972
vn -0.00288727856 -0.00648509525 0.999974847
vn -0.00224140473 -0.00583920255 0.99998045
vn -0.00166658254 -0.00512933079 0.999985456
vn -0.00116910832 -0.00436326489 0.999989867
vn -0.000754433509 -0.00354939257 0.999993443
vn -0.00359715102 -0.00705994759 0.999968648
vn -0.00359720178 -0.0070599867 0.999968648
vn -0.00359747163 -0.0070602186 0.999968648
vn -0.00288728788 -0.00648510223 0.999974847
vn -0.00224140915 -0.00583920674 0.99998045
vn -0.00166658475 -0.00512933638 0.999985456
vn -0.00116911018 -0.00436326815 0.999989867
vn -0.00075443415 -0.00354939629 0.999993443
vn -0.000427098101 -0.0026966366 0.999996305
vn -0.00288735749 -0.00648516417 0.999974847
vn -0.00288761733 -0.00648543518 0.999974847
vn -0.0028873079 -0.006485119 0.999974847
vn -0.0022414187 -0.00583921606 0.99998045
vn -0.00166658941 -0.00512934243 0.999985456
vn -0.00116911239 -0.0043632742 0.999989867
vn -0.000754435954 -0.00354940188 0.999993443
vn -0.000427099469 -0.00269664149 0.999996305
vn -0.000190690538 -0.00181433652 0.999998331
vn -0.00224143453 -0.00583923329 0.99998045
vn -0.00166659697 -0.00512935314 0.999985456
vn -0.00116911705 -0.00436328212 0.999989867
vn -0.000754437759 -0.00354940677 0.999993443
vn -0.000427102932 -0.00269664568 0.999996305
vn -0.000190692794 -0.0018143385 0.999998331
vn -4.78030197E-05 -0.000912156538 0.999999642
vn -0.00224147667 -0.00583927985 0.99998045
vn -0.00224170042 -0.00583956763 0.99998045
vn -0.00166661164 -0.00512937317 0.999985456
vn -0.00166664273 -0.00512941461 0.999985456
vn -0.00166684657 -0.00512974663 0.999985456
vn -4.78047441E-05 -0.000912157702 0.999999642
vn -0 0 1
vn -0.000190696301 -0.00181434175 0.999998331
vn -0.00116912345 -0.00436329236 0.999989867
vn -0.00116916362 -0.00436336314 0.999989867
vn -0.00116933673 -0.0043637217 0.999989867
vn -0.00116913591 -0.00436331285 0.999989867
vn -0 0 1
vn -4.77988833E-05 0.000912196178 0.999999642
vn -0.000754441135 -0.00354941445 0.999993443
vn -0.000754482055 -0.00354950642 0.999993443
vn -0.000754597015 -0.00354982167 0.999993443
vn -0.000754458015 -0.00354944961 0.999993443
vn -0.000754446432 -0.0035494261 0.999993443
vn -0.000427104096 -0.00269664964 0.999996305
vn -0.00042713646 -0.00269674906 0.999996305
vn -0.000427209219 -0.00269704335 0.999996305
vn -0.000427118357 -0.00269669271 0.999996305
vn -0.000427109888 -0.00269666989 0.999996305
vn -0.000427106046 -0.00269665732 0.999996305
vn -0.00019069729 -0.00181434758 0.999998331
vn -0.000190719686 -0.00181444676 0.999998331
vn -0.000190769526 -0.00181483943 0.999998331
vn -0.000190706676 -0.0018143917 0.999998331
vn -0.000190700637 -0.00181436783 0.999998331
vn -0.000190698323 -0.00181435596 0.999998331
vn -4.78070506E-05 -0.000912160554 0.999999642
vn -4.7818543E-05 -0.000912268006 0.999999642
vn -4.78352267E-05 -0.000912676333 0.999999642
vn -4.7812402E-05 -0.000912209332 0.999999642
vn -4.78088186E-05 -0.000912187854 0.999999642
vn -4.78078182E-05 -0.000912175106 0.999999642
vn -4.78071634E-05 -0.000912166957 0.999999642
vn -0 0 1
vn -0 0 1
vn -0 -4.70163798E-07 1
vn -0 0 1
vn -0 0 1
vn -0 0 1
vn -0 0 1
vn -4.77997564E-05 0.000912193907 0.999999642
vn -0.00019068316 0.00181437656 0.999998331
vn -4.78011134E-05 0.000912189484 0.999999642
vn -0.000190683699 0.0018143754 0.999998331
vn -0.000427085848 0.00269668107 0.999996305
vn -4.78000038E-05 0.000912183896 0.999999642
vn -4.77986614E-05 0.000912175456 0.999999642
vn -0.000190683801 0.00181437167 0.999998331
vn -0.000427085091 0.00269667874 0.999996305
vn -0.000754414359 0.00354944123 0.999993443
vn -0.000190681778 0.00181436562 0.999998331
vn -4.77968715E-05 0.000912162417 0.999999642
vn -0.000427083956 0.00269667502 0.999996305
vn -0.000754411332 0.00354943681 0.999993443
vn -0.00116907875 0.00436331006 0.999989867
vn -0.000190680366 0.0018143577 0.999998331
vn -4.77955837E-05 0.000912138785 0.999999642
vn -0.000427081686 0.00269666989 0.999996305
vn -0.000754410925 0.00354943215 0.999993443
vn -0.0011690805 0.0043633082 0.999989867
vn -0.00166654924 0.00512937689 0.999985456
vn -0.000190677223 0.00181434455 0.999998331
vn -4.77895592E-05 0.000912082091 0.999999642
vn -4.77292706E-05 0.000911729818 0.999999642
vn -0.000427079067 0.00269666174 0.999996305
vn -0.000754408538 0.00354942773 0.999993443
vn -0.00116908143 0.00436330494 0.999989867
vn -0.00166654994 0.00512937503 0.999985456
vn -0.00224136515 0.00583924446 0.99998045
vn -0.000190674182 0.00181432429 0.999998331
vn -0.000190660867 0.00181426795 0.999998331
vn -0.000190556457 0.00181392557 0.999998331
vn -0.000427075342 0.0026966494 0.999996305
vn -0.000754405395 0.00354942051 0.999993443
vn -0.00116907747 0.00436330028 0.999989867
vn -0.00166654773 0.00512937177 0.999985456
vn -0.00224136328 0.00583924167 0.99998045
vn -0.00288722944 0.00648513809 0.999974847
vn -0.000427047606 0.00269656465 0.999996305
vn -0.000426913815 0.00269622658 0.999996305
vn -0.000427067425 0.00269662333 0.999996305
vn -0.000754400447 0.00354941026 0.999993443
vn -0.0011690734 0.00436329376 0.999989867
vn -0.00166654319 0.00512936665 0.999985456
vn -0.00224135979 0.00583923794 0.99998045
vn -0.00288722618 0.00648513529 0.999974847
vn -0.00359706441 0.00705998018 0.999968648
vn -0.000754390494 0.00354938605 0.999993443
vn -0.00116906641 0.00436328258 0.999989867
vn -0.00166653807 0.0051293592 0.999985456
vn -0.00224135607 0.00583923375 0.99998045
vn -0.00288722268 0.00648512924 0.999974847
vn -0.00359706488 0.00705997692 0.999968648
vn -0.00436309865 0.00755746663 0.999961972
vn -0.000754366978 0.00354933273 0.999993443
vn -0.000754209759 0.00354904472 0.999993443
vn -0.00116905733 0.00436326442 0.999989867
vn -0.00116902788 0.0043632132 0.999989867
vn -0.0011688238 0.00436291052 0.999989867
vn -0.00436309911 0.00755746523 0.999961972
vn -0.00517694047 0.0079721529 0.99995482
vn -0.00359706371 0.00705997273 0.999968648
vn -0.00166653108 0.00512934942 0.999985456
vn -0.00166648172 0.0051292819 0.999985456
vn -0.00166624377 0.00512900157 0.999985456
vn -0.00166652014 0.00512933312 0.999985456
vn -0.00517693488 0.0079721529 0.99995482
vn -0.0060296678 0.00829950254 0.999947429
vn -0.00224135118 0.0058392291 0.99998045
vn -0.00224128482 0.00583915459 0.99998045
vn -0.00224100938 0.00583888916 0.99998045
vn -0.002241323 0.00583919697 0.99998045
vn -0.00224134303 0.00583921932 0.99998045
vn -0.00288722059 0.00648512738 0.999974847
vn -0.00288714492 0.00648505893 0.999974847
vn -0.00288684876 0.00648483029 0.999974847
vn -0.0028871838 0.00648509525 0.999974847
vn -0.00288720173 0.00648511294 0.999974847
vn -0.00288721384 0.00648512319 0.999974847
vn -0.00359705579 0.00705996854 0.999968648
vn -0.00359698152 0.00705991266 0.999968648
vn -0.003596636 0.00705970358 0.999968648
vn -0.0035970225 0.00705994293 0.999968648
vn -0.00359704066 0.00705995644 0.999968648
vn -0.00359704741 0.00705996249 0.999968648
vn -0.00436309585 0.0075574643 0.999961972
vn -0.0043629976 0.00755740935 0.999961972
vn -0.00436262833 0.00755723147 0.999961972
vn -0.00436305581 0.00755743869 0.999961972
vn -0.00436307583 0.00755745173 0.999961972
vn -0.00436308281 0.00755745592 0.999961972
vn -0.00436308887 0.00755746057 0.999961972
vn -0.00517693302 0.0079721529 0.99995482
vn -0.00517682126 0.00797210541 0.99995482
vn -0.00517654559 0.00797200296 0.99995482
vn -0.00517688552 0.00797213241 0.99995482
vn -0.00517690647 0.0079721408 0.99995482
vn -0.00517692138 0.00797214732 0.99995482
vn -0.00517692883 0.0079721529 0.99995482
vn -0.00602965849 0.00829950068 0.999947429
vn -0.00691193016 0.00853592437 0.99993968
vn -0.00602965849 0.00829949696 0.999947429
vn -0.00691193109 0.00853591785 0.99993968
vn -0.00781407487 0.00867881346 0.999931812
vn -0.00602964871 0.00829949975 0.999947429
vn -0.00602964871 0.00829949509 0.999947429
vn -0.00691192178 0.00853591133 0.99993968
vn -0.007814073 0.0086788116 0.999931812
vn -0.00872621872 0.00872661732 0.999923825
vn -0.00691191666 0.00853591412 0.99993968
vn -0.00602962309 0.00829949044 0.999947429
vn -0.00781406928 0.00867881253 0.999931812
vn -0.00872621872 0.00872661732 0.999923825
vn -0.0096383635 0.00867881626 0.999915957
vn -0.0069119148 0.00853590947 0.99993968
vn -0.00602960261 0.00829948112 0.999947429
vn -0.00781406835 0.00867880695 0.999931812
vn -0.00872621872 0.00872661639 0.999923825
vn -0.00963835604 0.00867881626 0.999915957
vn -0.0105404994 0.00853593275 0.99990809
vn -0.0069118985 0.00853591133 0.99993968
vn -0.0060295607 0.00829946715 0.999947429
vn -0.00602927757 0.00829940382 0.999947429
vn -0.00781405345 0.00867880788 0.999931812
vn -0.0087262122 0.00872661732 0.999923825
vn -0.00963835139 0.0086788144 0.999915957
vn -0.0105404984 0.00853592623 0.99990809
vn -0.0114227738 0.00829951465 0.999900341
vn -0.00691188267 0.00853590108 0.99993968
vn -0.00691182027 0.00853589177 0.99993968
vn -0.00691143516 0.00853583962 0.99993968
vn -0.00781404413 0.00867880695 0.999931812
vn -0.00872619264 0.00872662012 0.999923825
vn -0.00963834859 0.00867881905 0.999915957
vn -0.0105404956 0.00853592623 0.99990809
vn -0.0114227766 0.00829951186 0.999900341
vn -0.0122755021 0.00797216687 0.999892831
vn -0.00781394728 0.0086787967 0.999931812
vn -0.00781353191 0.00867878366 0.999931812
vn -0.00781402364 0.00867880229 0.999931812
vn -0.00872618333 0.00872661639 0.999923825
vn -0.00963834301 0.00867881812 0.999915957
vn -0.0105404947 0.00853592809 0.99990809
vn -0.011422771 0.00829951465 0.999900341
vn -0.0122755039 0.0079721678 0.999892831
vn -0.0130893346 0.00755747827 0.999885798
vn -0.00872616004 0.00872661546 0.999923825
vn -0.00963833183 0.00867881905 0.999915957
vn -0.0105404845 0.00853593368 0.99990809
vn -0.0114227636 0.00829952303 0.999900341
vn -0.0122754993 0.00797217805 0.999892831
vn -0.0130893374 0.00755748758 0.999885798
vn -0.013855367 0.00705999509 0.999879122
vn -0.00872609951 0.00872661732 0.999923825
vn -0.00872574188 0.00872663781 0.999923825
vn -0.00963830017 0.00867882185 0.999915957
vn -0.0096382536 0.0086788265 0.999915957
vn -0.00963790994 0.0086788917 0.999915957
vn -0.013855367 0.0070600058 0.999879122
vn -0.0145652117 0.00648515578 0.999872923
vn -0.0130893392 0.00755749736 0.999885798
vn -0.0105404723 0.00853593368 0.99990809
vn -0.0105403913 0.00853595324 0.99990809
vn -0.0105400076 0.00853606313 0.99990809
vn -0.0105404509 0.00853593647 0.99990809
vn -0.0145652145 0.00648516044 0.999872923
vn -0.0152110783 0.00583926309 0.999867201
vn -0.0114227543 0.00829952396 0.999900341
vn -0.0114226667 0.00829955097 0.999900341
vn -0.0114223314 0.00829968881 0.999900341
vn -0.0114227245 0.00829953328 0.999900341
vn -0.0114227468 0.00829952396 0.999900341
vn -0.0122754946 0.00797217991 0.999892831
vn -0.0122753987 0.00797222275 0.999892831
vn -0.0122750606 0.00797240436 0.999892831
vn -0.0122754471 0.00797219574 0.999892831
vn -0.0122754676 0.00797218923 0.999892831
vn -0.0122754918 0.00797217991 0.999892831
vn -0.0130893299 0.00755749969 0.999885798
vn -0.0130892331 0.00755755696 0.999885798
vn -0.0130889351 0.00755775534 0.999885798
vn -0.0130893029 0.00755750947 0.999885798
vn -0.013089316 0.00755750714 0.999885798
vn -0.0130893281 0.00755749829 0.999885798
vn -0.0138553726 0.00706001231 0.999879122
vn -0.0138552859 0.00706007518 0.999879122
vn -0.0138550634 0.00706025725 0.999879122
vn -0.0138553344 0.00706003606 0.999879122
vn -0.0138553558 0.00706001837 0.999879122
vn -0.0138553623 0.00706001231 0.999879122
vn -0.0138553632 0.00706001231 0.999879122
vn -0.0145652164 0.00648517162 0.999872923
vn -0.0145651419 0.00648523681 0.999872923
vn -0.0145648969 0.00648549898 0.999872923
vn -0.0145651754 0.00648521259 0.999872923
vn -0.0145651931 0.00648518745 0.999872923
vn -0.0145651996 0.00648518698 0.999872923
vn -0.0145652164 0.00648516929 0.999872923
vn -0.0152110849 0.00583927333 0.999867201
vn -0.0157858916 0.00512941089 0.999862194
vn -0.0152110867 0.00583928125 0.999867201
vn -0.0157858953 0.00512941368 0.999862194
vn -0.0162833687 0.0043633352 0.999857903
vn -0.0152110755 0.00583929336 0.999867201
vn -0.0152110709 0.00583929149 0.999867201
vn -0.0157859065 0.00512942253 0.999862194
vn -0.0162833706 0.00436334359 0.999857903
vn -0.0166980438 0.00354947266 0.999854326
vn -0.0157859009 0.00512942718 0.999862194
vn -0.0152110625 0.0058393022 0.999867201
vn -0.0162833761 0.00436335709 0.999857903
vn -0.0166980494 0.00354947848 0.999854326
vn -0.0170253739 0.00269672298 0.999851465
vn -0.0157858953 0.00512941647 0.999862194
vn -0.0152110457 0.0058393199 0.999867201
vn -0.0162833724 0.00436335197 0.999857903
vn -0.016698055 0.00354948384 0.999854326
vn -0.0170253795 0.00269673183 0.999851465
vn -0.0172617882 0.00181442441 0.999849319
vn -0.0157858841 0.00512944162 0.999862194
vn -0.0152110141 0.00583936041 0.999867201
vn -0.0152107421 0.0058397064 0.999867201
vn -0.016283365 0.00436336733 0.999857903
vn -0.0166980494 0.00354949059 0.999854326
vn -0.0170253832 0.00269673369 0.999851465
vn -0.0172617864 0.00181442651 0.999849319
vn -0.0174046736 0.000912239193 0.999848127
vn -0.0157858692 0.00512946257 0.999862194
vn -0.0157858469 0.00512949238 0.999862194
vn -0.0157856271 0.00512985745 0.999862194
vn -0.016283365 0.00436337152 0.999857903
vn -0.0166980401 0.00354950712 0.999854326
vn -0.0170253851 0.00269673695 0.999851465
vn -0.0172617864 0.00181443279 0.999849319
vn -0.0174046773 0.000912245712 0.999848127
vn -0.0174524784 0.000457415066 0.999847531
vn -0.0174524784 0.000457423244 0.999847531
vn -0.0174046755 0.000912248739 0.999848127
vn -0.017452471 0.000457410759 0.999847531
vn -0.0162833482 0.00436339853 0.999857903
vn -0.0166980401 0.00354950642 0.999854326
vn -0.0170253776 0.00269674463 0.999851465
vn -0.0172617864 0.00181443 0.999849319
vn -0.0174046811 0.000912254909 0.999848127
vn -0.0174524859 0.000457433198 0.999847531
vn -0.0162833221 0.00436346093 0.999857903
vn -0.0162831713 0.00436375476 0.999857903
vn -0.016698027 0.00354953273 0.999854326
vn -0.0166979991 0.00354959886 0.999854326
vn -0.0166979078 0.00354985823 0.999854326
vn -0.0170253702 0.0026967742 0.999851465
vn -0.0172617882 0.00181444315 0.999849319
vn -0.0174046792 0.000912272604 0.999848127
vn -0.0174524803 0.000457436778 0.999847531
vn -0.0170253515 0.00269683264 0.999851465
vn -0.0170252714 0.0026971458 0.999851465
vn -0.0170253627 0.00269677676 0.999851465
vn -0.0172617808 0.00181445736 0.999849319
vn -0.0174046699 0.000912255549 0.999848127
vn -0.017452471 0.000457427639 0.999847531
vn -0.0172617715 0.00181447668 0.999849319
vn -0.017261764 0.00181454676 0.999849319
vn -0.0172617082 0.00181497249 0.999849319
vn -0.0174046755 0.000912300602 0.999848127
vn -0.0174524784 0.000457474875 0.999847531
vn -0.017404668 0.000912337215 0.999848127
vn -0.0174046475 0.000912817661 0.999848127
vn -0.0174524765 0.000457499526 0.999847531
vn -0.0174524877 0.00045787674 0.999847531
g Plane001_0
f 3/3/3 2/2/2 1/1/1
f 2/2/2 3/3/3 4/4/4
f 4/4/4 5/5/5 2/2/2
f 6/6/6 4/4/4 3/3/3
f 5/5/5 4/4/4 7/7/7
f 7/7/7 8/8/8 5/5/5
f 4/4/4 6/6/6 9/9/9
f 9/9/9 7/7/7 4/4/4
f 10/10/10 9/9/9 6/6/6
f 8/8/8 7/7/7 11/11/11
f 11/11/11 12/12/12 8/8/8
f 7/7/7 9/9/9 13/13/13
f 13/13/13 11/11/11 7/7/7
f 9/9/9 10/10/10 14/14/14
f 14/14/14 13/13/13 9/9/9
f 15/15/15 14/14/14 10/10/10
f 12/12/12 11/11/11 16/16/16
f 16/16/16 17/17/17 12/12/12
f 11/11/11 13/13/13 18/18/18
f 18/18/18 16/16/16 11/11/11
f 13/13/13 14/14/14 19/19/19
f 19/19/19 18/18/18 13/13/13
f 14/14/14 15/15/15 20/20/20
f 20/20/20 19/19/19 14/14/14
f 21/21/21 20/20/20 15/15/15
f 17/17/17 16/16/16 22/22/22
f 22/22/22 23/23/23 17/17/17
f 16/16/16 18/18/18 24/24/24
f 24/24/24 22/22/22 16/16/16
f 18/18/18 19/19/19 25/25/25
f 25/25/25 24/24/24 18/18/18
f 19/19/19 20/20/20 26/26/26
f 26/26/26 25/25/25 19/19/19
f 20/20/20 21/21/21 27/27/27
f 27/27/27 26/26/26 20/20/20
f 28/28/28 27/27/27 21/21/21
f 23/23/23 22/22/22 29/29/29
f 29/29/29 30/30/30 23/23/23
f 22/22/22 24/24/24 31/31/31
f 31/31/31 29/29/29 22/22/22
f 24/24/24 25/25/25 32/32/32
f 32/32/32 31/31/31 24/24/24
f 25/25/25 26/26/26 33/33/33
f 33/33/33 32/32/32 25/25/25
f 26/26/26 27/27/27 34/34/34
f 34/34/34 33/33/33 26/26/26
f 27/27/27 28/28/28 35/35/35
f 35/35/35 34/34/34 27/27/27
f 36/36/36 35/35/35 28/28/28
f 30/30/30 29/29/29 37/37/37
f 37/37/37 38/38/38 30/30/30
f 38/38/38 37/37/37 39/39/39
f 29/29/29 31/31/31 40/40/40
f 40/40/40 37/37/37 29/29/29
f 41/41/41 39/39/39 37/37/37
f 37/37/37 40/40/40 41/41/41
f 39/39/39 41/41/41 42/42/42
f 35/35/35 36/36/36 43/43/43
f 44/44/44 43/43/43 36/36/36
f 34/34/34 35/35/35 45/45/45
f 43/43/43 45/45/45 35/35/35
f 46/46/46 40/40/40 31/31/31
f 31/31/31 32/32/32 46/46/46
f 47/47/47 42/42/42 41/41/41
f 42/42/42 47/47/47 48/48/48
f 49/49/49 41/41/41 40/40/40
f 40/40/40 46/46/46 49/49/49
f 41/41/41 49/49/49 47/47/47
f 43/43/43 44/44/44 50/50/50
f 51/51/51 50/50/50 44/44/44
f 52/52/52 46/46/46 32/32/32
f 32/32/32 33/33/33 52/52/52
f 53/53/53 48/48/48 47/47/47
f 48/48/48 53/53/53 54/54/54
f 55/55/55 47/47/47 49/49/49
f 47/47/47 55/55/55 53/53/53
f 56/56/56 49/49/49 46/46/46
f 46/46/46 52/52/52 56/56/56
f 49/49/49 56/56/56 55/55/55
f 57/57/57 52/52/52 33/33/33
f 33/33/33 34/34/34 57/57/57
f 45/45/45 57/57/57 34/34/34
f 58/58/58 54/54/54 53/53/53
f 54/54/54 58/58/58 59/59/59
f 60/60/60 53/53/53 55/55/55
f 53/53/53 60/60/60 58/58/58
f 61/61/61 55/55/55 56/56/56
f 55/55/55 61/61/61 60/60/60
f 62/62/62 56/56/56 52/52/52
f 52/52/52 57/57/57 62/62/62
f 56/56/56 62/62/62 61/61/61
f 57/57/57 45/45/45 63/63/63
f 63/63/63 62/62/62 57/57/57
f 64/64/64 59/59/59 58/58/58
f 59/59/59 64/64/64 65/65/65
f 66/66/66 58/58/58 60/60/60
f 58/58/58 66/66/66 64/64/64
f 67/67/67 60/60/60 61/61/61
f 60/60/60 67/67/67 66/66/66
f 68/68/68 61/61/61 62/62/62
f 62/62/62 63/63/63 68/68/68
f 61/61/61 68/68/68 67/67/67
f 69/69/69 63/63/63 45/45/45
f 45/45/45 43/43/43 69/69/69
f 50/50/50 69/69/69 43/43/43
f 70/70/70 65/65/65 64/64/64
f 65/65/65 70/70/70 71/71/71
f 72/72/72 64/64/64 66/66/66
f 64/64/64 72/72/72 70/70/70
f 73/73/73 66/66/66 67/67/67
f 66/66/66 73/73/73 72/72/72
f 74/74/74 67/67/67 68/68/68
f 67/67/67 74/74/74 73/73/73
f 75/75/75 68/68/68 63/63/63
f 63/63/63 69/69/69 75/75/75
f 68/68/68 75/75/75 74/74/74
f 69/69/69 50/50/50 76/76/76
f 76/76/76 75/75/75 69/69/69
f 77/77/77 71/71/71 70/70/70
f 71/71/71 77/77/77 78/78/78
f 79/79/79 70/70/70 72/72/72
f 70/70/70 79/79/79 77/77/77
f 80/80/80 72/72/72 73/73/73
f 72/72/72 80/80/80 79/79/79
f 81/81/81 73/73/73 74/74/74
f 73/73/73 81/81/81 80/80/80
f 82/82/82 74/74/74 75/75/75
f 75/75/75 76/76/76 82/82/82
f 74/74/74 82/82/82 81/81/81
f 83/83/83 76/76/76 50/50/50
f 50/50/50 51/51/51 83/83/83
f 84/84/84 83/83/83 51/51/51
f 85/85/85 82/82/82 76/76/76
f 76/76/76 83/83/83 85/85/85
f 83/83/83 84/84/84 86/86/86
f 86/86/86 85/85/85 83/83/83
f 87/87/87 86/86/86 84/84/84
f 88/88/88 81/81/81 82/82/82
f 82/82/82 85/85/85 88/88/88
f 89/89/89 80/80/80 81/81/81
f 81/81/81 88/88/88 89/89/89
f 85/85/85 86/86/86 90/90/90
f 90/90/90 88/88/88 85/85/85
f 86/86/86 87/87/87 91/91/91
f 91/91/91 90/90/90 86/86/86
f 92/92/92 91/91/91 87/87/87
f 88/88/88 90/90/90 93/93/93
f 93/93/93 89/89/89 88/88/88
f 80/80/80 89/89/89 94/94/94
f 94/94/94 79/79/79 80/80/80
f 90/90/90 91/91/91 95/95/95
f 95/95/95 93/93/93 90/90/90
f 91/91/91 92/92/92 96/96/96
f 96/96/96 95/95/95 91/91/91
f 97/97/97 96/96/96 92/92/92
f 89/89/89 93/93/93 98/98/98
f 98/98/98 94/94/94 89/89/89
f 79/79/79 94/94/94 99/99/99
f 99/99/99 77/77/77 79/79/79
f 93/93/93 95/95/95 100/100/100
f 100/100/100 98/98/98 93/93/93
f 95/95/95 96/96/96 101/101/101
f 101/101/101 100/100/100 95/95/95
f 96/96/96 97/97/97 102/102/102
f 102/102/102 101/101/101 96/96/96
f 103/103/103 102/102/102 97/97/97
f 94/94/94 98/98/98 104/104/104
f 104/104/104 99/99/99 94/94/94
f 77/77/77 99/99/99 105/105/105
f 105/105/105 78/78/78 77/77/77
f 78/78/78 105/105/105 106/106/106
f 98/98/98 100/100/100 107/107/107
f 107/107/107 104/104/104 98/98/98
f 100/100/100 101/101/101 108/108/108
f 108/108/108 107/107/107 100/100/100
f 101/101/101 102/102/102 109/109/109
f 109/109/109 108/108/108 101/101/101
f 102/102/102 103/103/103 110/110/110
f 110/110/110 109/109/109 102/102/102
f 111/111/111 110/110/110 103/103/103
f 112/112/112 105/105/105 99/99/99
f 99/99/99 104/104/104 112/112/112
f 113/113/113 106/106/106 105/105/105
f 105/105/105 112/112/112 113/113/113
f 106/106/106 113/113/113 114/114/114
f 104/104/104 107/107/107 115/115/115
f 115/115/115 112/112/112 104/104/104
f 107/107/107 108/108/108 116/116/116
f 116/116/116 115/115/115 107/107/107
f 108/108/108 109/109/109 117/117/117
f 117/117/117 116/116/116 108/108/108
f 109/109/109 110/110/110 118/118/118
f 118/118/118 117/117/117 109/109/109
f 110/110/110 111/111/111 119/119/119
f 119/119/119 118/118/118 110/110/110
f 120/120/120 119/119/119 111/111/111
f 121/121/121 114/114/114 113/113/113
f 114/114/114 121/121/121 122/122/122
f 123/123/123 113/113/113 112/112/112
f 112/112/112 115/115/115 123/123/123
f 113/113/113 123/123/123 121/121/121
f 115/115/115 116/116/116 124/124/124
f 124/124/124 123/123/123 115/115/115
f 116/116/116 117/117/117 125/125/125
f 125/125/125 124/124/124 116/116/116
f 117/117/117 118/118/118 126/126/126
f 126/126/126 125/125/125 117/117/117
f 118/118/118 119/119/119 127/127/127
f 127/127/127 126/126/126 118/118/118
f 119/119/119 120/120/120 128/128/128
f 128/128/128 127/127/127 119/119/119
f 129/129/129 128/128/128 120/120/120
f 130/130/130 121/121/121 123/123/123
f 123/123/123 124/124/124 130/130/130
f 124/124/124 125/125/125 131/131/131
f 131/131/131 130/130/130 124/124/124
f 125/125/125 126/126/126 132/132/132
f 132/132/132 131/131/131 125/125/125
f 126/126/126 127/127/127 133/133/133
f 133/133/133 132/132/132 126/126/126
f 127/127/127 128/128/128 134/134/134
f 134/134/134 133/133/133 127/127/127
f 128/128/128 129/129/129 135/135/135
f 135/135/135 134/134/134 128/128/128
f 136/136/136 135/135/135 129/129/129
f 121/121/121 130/130/130 137/137/137
f 137/137/137 122/122/122 121/121/121
f 122/122/122 137/137/137 138/138/138
f 130/130/130 131/131/131 139/139/139
f 139/139/139 137/137/137 130/130/130
f 140/140/140 138/138/138 137/137/137
f 137/137/137 139/139/139 140/140/140
f 138/138/138 140/140/140 141/141/141
f 135/135/135 136/136/136 142/142/142
f 143/143/143 142/142/142 136/136/136
f 134/134/134 135/135/135 144/144/144
f 142/142/142 144/144/144 135/135/135
f 145/145/145 139/139/139 131/131/131
f 131/131/131 132/132/132 145/145/145
f 146/146/146 141/141/141 140/140/140
f 141/141/141 146/146/146 147/147/147
f 148/148/148 140/140/140 139/139/139
f 139/139/139 145/145/145 148/148/148
f 140/140/140 148/148/148 146/146/146
f 142/142/142 143/143/143 149/149/149
f 150/150/150 149/149/149 143/143/143
f 151/151/151 145/145/145 132/132/132
f 132/132/132 133/133/133 151/151/151
f 152/152/152 147/147/147 146/146/146
f 147/147/147 152/152/152 153/153/153
f 154/154/154 146/146/146 148/148/148
f 146/146/146 154/154/154 152/152/152
f 155/155/155 148/148/148 145/145/145
f 145/145/145 151/151/151 155/155/155
f 148/148/148 155/155/155 154/154/154
f 156/156/156 151/151/151 133/133/133
f 133/133/133 134/134/134 156/156/156
f 144/144/144 156/156/156 134/134/134
f 157/157/157 153/153/153 152/152/152
f 153/153/153 157/157/157 158/158/158
f 159/159/159 152/152/152 154/154/154
f 152/152/152 159/159/159 157/157/157
f 160/160/160 154/154/154 155/155/155
f 154/154/154 160/160/160 159/159/159
f 161/161/161 155/155/155 151/151/151
f 151/151/151 156/156/156 161/161/161
f 155/155/155 161/161/161 160/160/160
f 156/156/156 144/144/144 162/162/162
f 162/162/162 161/161/161 156/156/156
f 163/163/163 158/158/158 157/157/157
f 158/158/158 163/163/163 164/164/164
f 165/165/165 157/157/157 159/159/159
f 157/157/157 165/165/165 163/163/163
f 166/166/166 159/159/159 160/160/160
f 159/159/159 166/166/166 165/165/165
f 167/167/167 160/160/160 161/161/161
f 161/161/161 162/162/162 167/167/167
f 160/160/160 167/167/167 166/166/166
f 168/168/168 162/162/162 144/144/144
f 144/144/144 142/142/142 168/168/168
f 149/149/149 168/168/168 142/142/142
f 169/169/169 164/164/164 163/163/163
f 164/164/164 169/169/169 170/170/170
f 171/171/171 163/163/163 165/165/165
f 163/163/163 171/171/171 169/169/169
f 172/172/172 165/165/165 166/166/166
f 165/165/165 172/172/172 171/171/171
f 173/173/173 166/166/166 167/167/167
f 166/166/166 173/173/173 172/172/172
f 174/174/174 167/167/167 162/162/162
f 162/162/162 168/168/168 174/174/174
f 167/167/167 174/174/174 173/173/173
f 168/168/168 149/149/149 175/175/175
f 175/175/175 174/174/174 168/168/168
f 176/176/176 170/170/170 169/169/169
f 170/170/170 176/176/176 177/177/177
f 178/178/178 169/169/169 171/171/171
f 169/169/169 178/178/178 176/176/176
f 179/179/179 171/171/171 172/172/172
f 171/171/171 179/179/179 178/178/178
f 180/180/180 172/172/172 173/173/173
f 172/172/172 180/180/180 179/179/179
f 181/181/181 173/173/173 174/174/174
f 174/174/174 175/175/175 181/181/181
f 173/173/173 181/181/181 180/180/180
f 182/182/182 175/175/175 149/149/149
f 149/149/149 150/150/150 182/182/182
f 183/183/183 182/182/182 150/150/150
f 184/184/184 181/181/181 175/175/175
f 175/175/175 182/182/182 184/184/184
f 182/182/182 183/183/183 185/185/185
f 185/185/185 184/184/184 182/182/182
f 186/186/186 185/185/185 183/183/183
f 187/187/187 180/180/180 181/181/181
f 181/181/181 184/184/184 187/187/187
f 188/188/188 179/179/179 180/180/180
f 180/180/180 187/187/187 188/188/188
f 184/184/184 185/185/185 189/189/189
f 189/189/189 187/187/187 184/184/184
f 185/185/185 186/186/186 190/190/190
f 190/190/190 189/189/189 185/185/185
f 191/191/191 190/190/190 186/186/186
f 187/187/187 189/189/189 192/192/192
f 192/192/192 188/188/188 187/187/187
f 179/179/179 188/188/188 193/193/193
f 193/193/193 178/178/178 179/179/179
f 189/189/189 190/190/190 194/194/194
f 194/194/194 192/192/192 189/189/189
f 190/190/190 191/191/191 195/195/195
f 195/195/195 194/194/194 190/190/190
f 196/196/196 195/195/195 191/191/191
f 188/188/188 192/192/192 197/197/197
f 197/197/197 193/193/193 188/188/188
f 178/178/178 193/193/193 198/198/198
f 198/198/198 176/176/176 178/178/178
f 192/192/192 194/194/194 199/199/199
f 199/199/199 197/197/197 192/192/192
f 194/194/194 195/195/195 200/200/200
f 200/200/200 199/199/199 194/194/194
f 195/195/195 196/196/196 201/201/201
f 201/201/201 200/200/200 195/195/195
f 202/202/202 201/201/201 196/196/196
f 193/193/193 197/197/197 203/203/203
f 203/203/203 198/198/198 193/193/193
f 176/176/176 198/198/198 204/204/204
f 204/204/204 177/177/177 176/176/176
f 177/177/177 204/204/204 205/205/205
f 197/197/197 199/199/199 206/206/206
f 206/206/206 203/203/203 197/197/197
f 199/199/199 200/200/200 207/207/207
f 207/207/207 206/206/206 199/199/199
f 200/200/200 201/201/201 208/208/208
f 208/208/208 207/207/207 200/200/200
f 201/201/201 202/202/202 209/209/209
f 209/209/209 208/208/208 201/201/201
f 210/210/210 209/209/209 202/202/202
f 211/211/211 204/204/204 198/198/198
f 198/198/198 203/203/203 211/211/211
f 212/212/212 205/205/205 204/204/204
f 204/204/204 211/211/211 212/212/212
f 205/205/205 212/212/212 213/213/213
f 203/203/203 206/206/206 214/214/214
f 214/214/214 211/211/211 203/203/203
f 206/206/206 207/207/207 215/215/215
f 215/215/215 214/214/214 206/206/206
f 207/207/207 208/208/208 216/216/216
f 216/216/216 215/215/215 207/207/207
f 208/208/208 209/209/209 217/217/217
f 217/217/217 216/216/216 208/208/208
f 209/209/209 210/210/210 218/218/218
f 218/218/218 217/217/217 209/209/209
f 219/219/219 218/218/218 210/210/210
f 220/220/220 213/213/213 212/212/212
f 213/213/213 220/220/220 221/221/221
f 222/222/222 212/212/212 211/211/211
f 211/211/211 214/214/214 222/222/222
f 212/212/212 222/222/222 220/220/220
f 214/214/214 215/215/215 223/223/223
f 223/223/223 222/222/222 214/214/214
f 215/215/215 216/216/216 224/224/224
f 224/224/224 223/223/223 215/215/215
f 216/216/216 217/217/217 225/225/225
f 225/225/225 224/224/224 216/216/216
f 217/217/217 218/218/218 226/226/226
f 226/226/226 225/225/225 217/217/217
f 218/218/218 219/219/219 227/227/227
f 227/227/227 226/226/226 218/218/218
f 228/228/228 227/227/227 219/219/219
f 229/229/229 220/220/220 222/222/222
f 222/222/222 223/223/223 229/229/229
f 223/223/223 224/224/224 230/230/230
f 230/230/230 229/229/229 223/223/223
f 224/224/224 225/225/225 231/231/231
f 231/231/231 230/230/230 224/224/224
f 225/225/225 226/226/226 232/232/232
f 232/232/232 231/231/231 225/225/225
f 226/226/226 227/227/227 233/233/233
f 233/233/233 232/232/232 226/226/226
f 227/227/227 228/228/228 234/234/234
f 234/234/234 233/233/233 227/227/227
f 235/235/235 234/234/234 228/228/228
f 220/220/220 229/229/229 236/236/236
f 236/236/236 221/221/221 220/220/220
f 221/221/221 236/236/236 237/237/237
f 229/229/229 230/230/230 238/238/238
f 238/238/238 236/236/236 229/229/229
f 239/239/239 237/237/237 236/236/236
f 236/236/236 238/238/238 239/239/239
f 237/237/237 239/239/239 240/240/240
f 234/234/234 235/235/235 241/241/241
f 242/242/242 241/241/241 235/235/235
f 233/233/233 234/234/234 243/243/243
f 241/241/241 243/243/243 234/234/234
f 244/244/244 238/238/238 230/230/230
f 230/230/230 231/231/231 244/244/244
f 245/245/245 240/240/240 239/239/239
f 240/240/240 245/245/245 246/246/246
f 247/247/247 239/239/239 238/238/238
f 238/238/238 244/244/244 247/247/247
f 239/239/239 247/247/247 245/245/245
f 241/241/241 242/242/242 248/248/248
f 249/249/249 248/248/248 242/242/242
f 250/250/250 244/244/244 231/231/231
f 231/231/231 232/232/232 250/250/250
f 251/251/251 246/246/246 245/245/245
f 246/246/246 251/251/251 252/252/252
f 253/253/253 245/245/245 247/247/247
f 245/245/245 253/253/253 251/251/251
f 254/254/254 247/247/247 244/244/244
f 244/244/244 250/250/250 254/254/254
f 247/247/247 254/254/254 253/253/253
f 255/255/255 250/250/250 232/232/232
f 232/232/232 233/233/233 255/255/255
f 243/243/243 255/255/255 233/233/233
f 256/256/256 252/252/252 251/251/251
f 252/252/252 256/256/256 257/257/257
f 258/258/258 251/251/251 253/253/253
f 251/251/251 258/258/258 256/256/256
f 259/259/259 253/253/253 254/254/254
f 253/253/253 259/259/259 258/258/258
f 260/260/260 254/254/254 250/250/250
f 250/250/250 255/255/255 260/260/260
f 254/254/254 260/260/260 259/259/259
f 255/255/255 243/243/243 261/261/261
f 261/261/261 260/260/260 255/255/255
f 262/262/262 257/257/257 256/256/256
f 257/257/257 262/262/262 263/263/263
f 264/264/264 256/256/256 258/258/258
f 256/256/256 264/264/264 262/262/262
f 265/265/265 258/258/258 259/259/259
f 258/258/258 265/265/265 264/264/264
f 266/266/266 259/259/259 260/260/260
f 260/260/260 261/261/261 266/266/266
f 259/259/259 266/266/266 265/265/265
f 267/267/267 261/261/261 243/243/243
f 243/243/243 241/241/241 267/267/267
f 248/248/248 267/267/267 241/241/241
f 268/268/268 263/263/263 262/262/262
f 263/263/263 268/268/268 269/269/269
f 270/270/270 262/262/262 264/264/264
f 262/262/262 270/270/270 268/268/268
f 271/271/271 264/264/264 265/265/265
f 264/264/264 271/271/271 270/270/270
f 272/272/272 265/265/265 266/266/266
f 265/265/265 272/272/272 271/271/271
f 273/273/273 266/266/266 261/261/261
f 261/261/261 267/267/267 273/273/273
f 266/266/266 273/273/273 272/272/272
f 267/267/267 248/248/248 274/274/274
f 274/274/274 273/273/273 267/267/267
f 275/275/275 269/269/269 268/268/268
f 269/269/269 275/275/275 276/276/276
f 277/277/277 268/268/268 270/270/270
f 268/268/268 277/277/277 275/275/275
f 278/278/278 270/270/270 271/271/271
f 270/270/270 278/278/278 277/277/277
f 279/279/279 271/271/271 272/272/272
f 271/271/271 279/279/279 278/278/278
f 280/280/280 272/272/272 273/273/273
f 273/273/273 274/274/274 280/280/280
f 272/272/272 280/280/280 279/279/279
f 281/281/281 274/274/274 248/248/248
f 248/248/248 249/249/249 281/281/281
f 282/282/282 281/281/281 249/249/249
f 283/283/283 280/280/280 274/274/274
f 274/274/274 281/281/281 283/283/283
f 281/281/281 282/282/282 284/284/284
f 284/284/284 283/283/283 281/281/281
f 285/285/285 284/284/284 282/282/282
f 286/286/286 279/279/279 280/280/280
f 280/280/280 283/283/283 286/286/286
f 287/287/287 278/278/278 279/279/279
f 279/279/279 286/286/286 287/287/287
f 283/283/283 284/284/284 288/288/288
f 288/288/288 286/286/286 283/283/283
f 284/284/284 285/285/285 289/289/289
f 289/289/289 288/288/288 284/284/284
f 290/290/290 289/289/289 285/285/285
f 286/286/286 288/288/288 291/291/291
f 291/291/291 287/287/287 286/286/286
f 278/278/278 287/287/287 292/292/292
f 292/292/292 277/277/277 278/278/278
f 288/288/288 289/289/289 293/293/293
f 293/293/293 291/291/291 288/288/288
f 289/289/289 290/290/290 294/294/294
f 294/294/294 293/293/293 289/289/289
f 295/295/295 294/294/294 290/290/290
f 287/287/287 291/291/291 296/296/296
f 296/296/296 292/292/292 287/287/287
f 277/277/277 292/292/292 297/297/297
f 297/297/297 275/275/275 277/277/277
f 291/291/291 293/293/293 298/298/298
f 298/298/298 296/296/296 291/291/291
f 293/293/293 294/294/294 299/299/299
f 299/299/299 298/298/298 293/293/293
f 294/294/294 295/295/295 300/300/300
f 300/300/300 299/299/299 294/294/294
f 301/301/301 300/300/300 295/295/295
f 292/292/292 296/296/296 302/302/302
f 302/302/302 297/297/297 292/292/292
f 275/275/275 297/297/297 303/303/303
f 303/303/303 276/276/276 275/275/275
f 276/276/276 303/303/303 304/304/304
f 296/296/296 298/298/298 305/305/305
f 305/305/305 302/302/302 296/296/296
f 298/298/298 299/299/299 306/306/306
f 306/306/306 305/305/305 298/298/298
f 299/299/299 300/300/300 307/307/307
f 307/307/307 306/306/306 299/299/299
f 300/300/300 301/301/301 308/308/308
f 308/308/308 307/307/307 300/300/300
f 309/309/309 308/308/308 301/301/301
f 310/310/310 303/303/303 297/297/297
f 297/297/297 302/302/302 310/310/310
f 311/311/311 304/304/304 303/303/303
f 303/303/303 310/310/310 311/311/311
f 304/304/304 311/311/311 312/312/312
f 302/302/302 305/305/305 313/313/313
f 313/313/313 310/310/310 302/302/302
f 305/305/305 306/306/306 314/314/314
f 314/314/314 313/313/313 305/305/305
f 306/306/306 307/307/307 315/315/315
f 315/315/315 314/314/314 306/306/306
f 307/307/307 308/308/308 316/316/316
f 316/316/316 315/315/315 307/307/307
f 308/308/308 309/309/309 317/317/317
f 317/317/317 316/316/316 308/308/308
f 318/318/318 317/317/317 309/309/309
f 319/319/319 312/312/312 311/311/311
f 312/312/312 319/319/319 320/320/320
f 321/321/321 311/311/311 310/310/310
f 310/310/310 313/313/313 321/321/321
f 311/311/311 321/321/321 319/319/319
f 313/313/313 314/314/314 322/322/322
f 322/322/322 321/321/321 313/313/313
f 314/314/314 315/315/315 323/323/323
f 323/323/323 322/322/322 314/314/314
f 315/315/315 316/316/316 324/324/324
f 324/324/324 323/323/323 315/315/315
f 316/316/316 317/317/317 325/325/325
f 325/325/325 324/324/324 316/316/316
f 317/317/317 318/318/318 326/326/326
f 326/326/326 325/325/325 317/317/317
f 327/327/327 326/326/326 318/318/318
f 328/328/328 319/319/319 321/321/321
f 321/321/321 322/322/322 328/328/328
f 322/322/322 323/323/323 329/329/329
f 329/329/329 328/328/328 322/322/322
f 323/323/323 324/324/324 330/330/330
f 330/330/330 329/329/329 323/323/323
f 324/324/324 325/325/325 331/331/331
f 331/331/331 330/330/330 324/324/324
f 325/325/325 326/326/326 332/332/332
f 332/332/332 331/331/331 325/325/325
f 326/326/326 327/327/327 333/333/333
f 333/333/333 332/332/332 326/326/326
f 334/334/334 333/333/333 327/327/327
f 319/319/319 328/328/328 335/335/335
f 335/335/335 320/320/320 319/319/319
f 320/320/320 335/335/335 336/336/336
f 328/328/328 329/329/329 337/337/337
f 337/337/337 335/335/335 328/328/328
f 338/338/338 336/336/336 335/335/335
f 335/335/335 337/337/337 338/338/338
f 336/336/336 338/338/338 339/339/339
f 333/333/333 334/334/334 340/340/340
f 341/341/341 340/340/340 334/334/334
f 332/332/332 333/333/333 342/342/342
f 340/340/340 342/342/342 333/333/333
f 343/343/343 337/337/337 329/329/329
f 329/329/329 330/330/330 343/343/343
f 344/344/344 339/339/339 338/338/338
f 339/339/339 344/344/344 345/345/345
f 346/346/346 338/338/338 337/337/337
f 337/337/337 343/343/343 346/346/346
f 338/338/338 346/346/346 344/344/344
f 340/340/340 341/341/341 347/347/347
f 348/348/348 347/347/347 341/341/341
f 349/349/349 343/343/343 330/330/330
f 330/330/330 331/331/331 349/349/349
f 350/350/350 345/345/345 344/344/344
f 345/345/345 350/350/350 351/351/351
f 352/352/352 344/344/344 346/346/346
f 344/344/344 352/352/352 350/350/350
f 353/353/353 346/346/346 343/343/343
f 343/343/343 349/349/349 353/353/353
f 346/346/346 353/353/353 352/352/352
f 354/354/354 349/349/349 331/331/331
f 331/331/331 332/332/332 354/354/354
f 342/342/342 354/354/354 332/332/332
f 355/355/355 351/351/351 350/350/350
f 351/351/351 355/355/355 356/356/356
f 357/357/357 350/350/350 352/352/352
f 350/350/350 357/357/357 355/355/355
f 358/358/358 352/352/352 353/353/353
f 352/352/352 358/358/358 357/357/357
f 359/359/359 353/353/353 349/349/349
f 349/349/349 354/354/354 359/359/359
f 353/353/353 359/359/359 358/358/358
f 354/354/354 342/342/342 360/360/360
f 360/360/360 359/359/359 354/354/354
f 361/361/361 356/356/356 355/355/355
f 356/356/356 361/361/361 362/362/362
f 363/363/363 355/355/355 357/357/357
f 355/355/355 363/363/363 361/361/361
f 364/364/364 357/357/357 358/358/358
f 357/357/357 364/364/364 363/363/363
f 365/365/365 358/358/358 359/359/359
f 359/359/359 360/360/360 365/365/365
f 358/358/358 365/365/365 364/364/364
f 366/366/366 360/360/360 342/342/342
f 342/342/342 340/340/340 366/366/366
f 347/347/347 366/366/366 340/340/340
f 367/367/367 362/362/362 361/361/361
f 362/362/362 367/367/367 368/368/368
f 369/369/369 361/361/361 363/363/363
f 361/361/361 369/369/369 367/367/367
f 370/370/370 363/363/363 364/364/364
f 363/363/363 370/370/370 369/369/369
f 371/371/371 364/364/364 365/365/365
f 364/364/364 371/371/371 370/370/370
f 372/372/372 365/365/365 360/360/360
f 360/360/360 366/366/366 372/372/372
f 365/365/365 372/372/372 371/371/371
f 366/366/366 347/347/347 373/373/373
f 373/373/373 372/372/372 366/366/366
f 374/374/374 368/368/368 367/367/367
f 368/368/368 374/374/374 375/375/375
f 376/376/376 367/367/367 369/369/369
f 367/367/367 376/376/376 374/374/374
f 377/377/377 369/369/369 370/370/370
f 369/369/369 377/377/377 376/376/376
f 378/378/378 370/370/370 371/371/371
f 370/370/370 378/378/378 377/377/377
f 379/379/379 371/371/371 372/372/372
f 372/372/372 373/373/373 379/379/379
f 371/371/371 379/379/379 378/378/378
f 380/380/380 373/373/373 347/347/347
f 347/347/347 348/348/348 380/380/380
f 381/381/381 380/380/380 348/348/348
f 382/382/382 379/379/379 373/373/373
f 373/373/373 380/380/380 382/382/382
f 380/380/380 381/381/381 383/383/383
f 383/383/383 382/382/382 380/380/380
f 384/384/384 383/383/383 381/381/381
f 385/385/385 378/378/378 379/379/379
f 379/379/379 382/382/382 385/385/385
f 386/386/386 377/377/377 378/378/378
f 378/378/378 385/385/385 386/386/386
f 382/382/382 383/383/383 387/387/387
f 387/387/387 385/385/385 382/382/382
f 383/383/383 384/384/384 388/388/388
f 388/388/388 387/387/387 383/383/383
f 389/389/389 388/388/388 384/384/384
f 385/385/385 387/387/387 390/390/390
f 390/390/390 386/386/386 385/385/385
f 377/377/377 386/386/386 391/391/391
f 391/391/391 376/376/376 377/377/377
f 387/387/387 388/388/388 392/392/392
f 392/392/392 390/390/390 387/387/387
f 388/388/388 389/389/389 393/393/393
f 393/393/393 392/392/392 388/388/388
f 394/394/394 393/393/393 389/389/389
f 386/386/386 390/390/390 395/395/395
f 395/395/395 391/391/391 386/386/386
f 376/376/376 391/391/391 396/396/396
f 396/396/396 374/374/374 376/376/376
f 390/390/390 392/392/392 397/397/397
f 397/397/397 395/395/395 390/390/390
f 392/392/392 393/393/393 398/398/398
f 398/398/398 397/397/397 392/392/392
f 393/393/393 394/394/394 399/399/399
f 399/399/399 398/398/398 393/393/393
f 400/400/400 399/399/399 394/394/394
f 391/391/391 395/395/395 401/401/401
f 401/401/401 396/396/396 391/391/391
f 374/374/374 396/396/396 402/402/402
f 402/402/402 375/375/375 374/374/374
f 375/375/375 402/402/402 403/403/403
f 395/395/395 397/397/397 404/404/404
f 404/404/404 401/401/401 395/395/395
f 397/397/397 398/398/398 405/405/405
f 405/405/405 404/404/404 397/397/397
f 398/398/398 399/399/399 406/406/406
f 406/406/406 405/405/405 398/398/398
f 399/399/399 400/400/400 407/407/407
f 407/407/407 406/406/406 399/399/399
f 408/408/408 407/407/407 400/400/400
f 409/409/409 402/402/402 396/396/396
f 396/396/396 401/401/401 409/409/409
f 410/410/410 403/403/403 402/402/402
f 402/402/402 409/409/409 410/410/410
f 403/403/403 410/410/410 411/411/411
f 401/401/401 404/404/404 412/412/412
f 412/412/412 409/409/409 401/401/401
f 404/404/404 405/405/405 413/413/413
f 413/413/413 412/412/412 404/404/404
f 405/405/405 406/406/406 414/414/414
f 414/414/414 413/413/413 405/405/405
f 406/406/406 407/407/407 415/415/415
f 415/415/415 414/414/414 406/406/406
f 407/407/407 408/408/408 416/416/416
f 416/416/416 415/415/415 407/407/407
f 417/417/417 416/416/416 408/408/408
f 418/418/418 411/411/411 410/410/410
f 411/411/411 418/418/418 419/419/419
f 420/420/420 410/410/410 409/409/409
f 409/409/409 412/412/412 420/420/420
f 410/410/410 420/420/420 418/418/418
f 412/412/412 413/413/413 421/421/421
f 421/421/421 420/420/420 412/412/412
f 413/413/413 414/414/414 422/422/422
f 422/422/422 421/421/421 413/413/413
f 414/414/414 415/415/415 423/423/423
f 423/423/423 422/422/422 414/414/414
f 415/415/415 416/416/416 424/424/424
f 424/424/424 423/423/423 415/415/415
f 416/416/416 417/417/417 425/425/425
f 425/425/425 424/424/424 416/416/416
f 426/426/426 425/425/425 417/417/417
f 427/427/427 418/418/418 420/420/420
f 420/420/420 421/421/421 427/427/427
f 421/421/421 422/422/422 428/428/428
f 428/428/428 427/427/427 421/421/421
f 422/422/422 423/423/423 429/429/429
f 429/429/429 428/428/428 422/422/422
f 423/423/423 424/424/424 430/430/430
f 430/430/430 429/429/429 423/423/423
f 424/424/424 425/425/425 431/431/431
f 431/431/431 430/430/430 424/424/424
f 425/425/425 426/426/426 432/432/432
f 432/432/432 431/431/431 425/425/425
f 433/433/433 432/432/432 426/426/426
f 418/418/418 427/427/427 434/434/434
f 434/434/434 419/419/419 418/418/418
f 419/419/419 434/434/434 435/435/435
f 427/427/427 428/428/428 436/436/436
f 436/436/436 434/434/434 427/427/427
f 437/437/437 435/435/435 434/434/434
f 434/434/434 436/436/436 437/437/437
f 435/435/435 437/437/437 438/438/438
f 432/432/432 433/433/433 439/439/439
f 440/440/440 439/439/439 433/433/433
f 431/431/431 432/432/432 441/441/441
f 439/439/439 441/441/441 432/432/432
f 442/442/442 436/436/436 428/428/428
f 428/428/428 429/429/429 442/442/442
f 443/443/443 438/438/438 437/437/437
f 438/438/438 443/443/443 444/444/444
f 445/445/445 437/437/437 436/436/436
f 436/436/436 442/442/442 445/445/445
f 437/437/437 445/445/445 443/443/443
f 439/439/439 440/440/440 446/446/446
f 447/447/447 446/446/446 440/440/440
f 448/448/448 442/442/442 429/429/429
f 429/429/429 430/430/430 448/448/448
f 449/449/449 444/444/444 443/443/443
f 444/444/444 449/449/449 450/450/450
f 451/451/451 443/443/443 445/445/445
f 443/443/443 451/451/451 449/449/449
f 452/452/452 445/445/445 442/442/442
f 442/442/442 448/448/448 452/452/452
f 445/445/445 452/452/452 451/451/451
f 453/453/453 448/448/448 430/430/430
f 430/430/430 431/431/431 453/453/453
f 441/441/441 453/453/453 431/431/431
f 454/454/454 450/450/450 449/449/449
f 450/450/450 454/454/454 455/455/455
f 456/456/456 449/449/449 451/451/451
f 449/449/449 456/456/456 454/454/454
f 457/457/457 451/451/451 452/452/452
f 451/451/451 457/457/457 456/456/456
f 458/458/458 452/452/452 448/448/448
f 448/448/448 453/453/453 458/458/458
f 452/452/452 458/458/458 457/457/457
f 453/453/453 441/441/441 459/459/459
f 459/459/459 458/458/458 453/453/453
f 460/460/460 455/455/455 454/454/454
f 455/455/455 460/460/460 461/461/461
f 462/462/462 454/454/454 456/456/456
f 454/454/454 462/462/462 460/460/460
f 463/463/463 456/456/456 457/457/457
f 456/456/456 463/463/463 462/462/462
f 464/464/464 457/457/457 458/458/458
f 458/458/458 459/459/459 464/464/464
f 457/457/457 464/464/464 463/463/463
f 465/465/465 459/459/459 441/441/441
f 441/441/441 439/439/439 465/465/465
f 446/446/446 465/465/465 439/439/439
f 466/466/466 461/461/461 460/460/460
f 461/461/461 466/466/466 467/467/467
f 468/468/468 460/460/460 462/462/462
f 460/460/460 468/468/468 466/466/466
f 469/469/469 462/462/462 463/463/463
f 462/462/462 469/469/469 468/468/468
f 470/470/470 463/463/463 464/464/464
f 463/463/463 470/470/470 469/469/469
f 471/471/471 464/464/464 459/459/459
f 459/459/459 465/465/465 471/471/471
f 464/464/464 471/471/471 470/470/470
f 465/465/465 446/446/446 472/472/472
f 472/472/472 471/471/471 465/465/465
f 473/473/473 467/467/467 466/466/466
f 467/467/467 473/473/473 474/474/474
f 475/475/475 466/466/466 468/468/468
f 466/466/466 475/475/475 473/473/473
f 476/476/476 468/468/468 469/469/469
f 468/468/468 476/476/476 475/475/475
f 477/477/477 469/469/469 470/470/470
f 469/469/469 477/477/477 476/476/476
f 478/478/478 470/470/470 471/471/471
f 471/471/471 472/472/472 478/478/478
f 470/470/470 478/478/478 477/477/477
f 479/479/479 472/472/472 446/446/446
f 446/446/446 447/447/447 479/479/479
f 480/480/480 479/479/479 447/447/447
f 481/481/481 478/478/478 472/472/472
f 472/472/472 479/479/479 481/481/481
f 479/479/479 480/480/480 482/482/482
f 482/482/482 481/481/481 479/479/479
f 483/483/483 482/482/482 480/480/480
f 484/484/484 477/477/477 478/478/478
f 478/478/478 481/481/481 484/484/484
f 485/485/485 476/476/476 477/477/477
f 477/477/477 484/484/484 485/485/485
f 481/481/481 482/482/482 486/486/486
f 486/486/486 484/484/484 481/481/481
f 482/482/482 483/483/483 487/487/487
f 487/487/487 486/486/486 482/482/482
f 488/488/488 487/487/487 483/483/483
f 484/484/484 486/486/486 489/489/489
f 489/489/489 485/485/485 484/484/484
f 476/476/476 485/485/485 490/490/490
f 490/490/490 475/475/475 476/476/476
f 486/486/486 487/487/487 491/491/491
f 491/491/491 489/489/489 486/486/486
f 487/487/487 488/488/488 492/492/492
f 492/492/492 491/491/491 487/487/487
f 493/493/493 492/492/492 488/488/488
f 485/485/485 489/489/489 494/494/494
f 494/494/494 490/490/490 485/485/485
f 475/475/475 490/490/490 495/495/495
f 495/495/495 473/473/473 475/475/475
f 489/489/489 491/491/491 496/496/496
f 496/496/496 494/494/494 489/489/489
f 491/491/491 492/492/492 497/497/497
f 497/497/497 496/496/496 491/491/491
f 492/492/492 493/493/493 498/498/498
f 498/498/498 497/497/497 492/492/492
f 499/499/499 498/498/498 493/493/493
f 490/490/490 494/494/494 500/500/500
f 500/500/500 495/495/495 490/490/490
f 473/473/473 495/495/495 501/501/501
f 501/501/501 474/474/474 473/473/473
f 474/474/474 501/501/501 502/502/502
f 494/494/494 496/496/496 503/503/503
f 503/503/503 500/500/500 494/494/494
f 496/496/496 497/497/497 504/504/504
f 504/504/504 503/503/503 496/496/496
f 497/497/497 498/498/498 505/505/505
f 505/505/505 504/504/504 497/497/497
f 498/498/498 499/499/499 506/506/506
f 506/506/506 505/505/505 498/498/498
f 507/507/507 506/506/506 499/499/499
f 508/508/508 501/501/501 495/495/495
f 495/495/495 500/500/500 508/508/508
f 509/509/509 502/502/502 501/501/501
f 501/501/501 508/508/508 509/509/509
f 502/502/502 509/509/509 510/510/510
f 500/500/500 503/503/503 511/511/511
f 511/511/511 508/508/508 500/500/500
f 503/503/503 504/504/504 512/512/512
f 512/512/512 511/511/511 503/503/503
f 504/504/504 505/505/505 513/513/513
f 513/513/513 512/512/512 504/504/504
f 505/505/505 506/506/506 514/514/514
f 514/514/514 513/513/513 505/505/505
f 506/506/506 507/507/507 515/515/515
f 515/515/515 514/514/514 506/506/506
f 516/516/516 515/515/515 507/507/507
f 515/515/515 516/516/516 517/517/517
f 517/517/517 518/518/518 515/515/515
f 514/514/514 515/515/515 518/518/518
f 518/518/518 517/517/517 519/519/519
f 508/508/508 511/511/511 520/520/520
f 520/520/520 509/509/509 508/508/508
f 511/511/511 512/512/512 521/521/521
f 521/521/521 520/520/520 511/511/511
f 512/512/512 513/513/513 522/522/522
f 522/522/522 521/521/521 512/512/512
f 513/513/513 514/514/514 523/523/523
f 518/518/518 523/523/523 514/514/514
f 523/523/523 522/522/522 513/513/513
f 519/519/519 524/524/524 518/518/518
f 523/523/523 518/518/518 524/524/524
f 524/524/524 519/519/519 525/525/525
f 509/509/509 520/520/520 526/526/526
f 526/526/526 510/510/510 509/509/509
f 510/510/510 526/526/526 527/527/527
f 520/520/520 521/521/521 528/528/528
f 528/528/528 526/526/526 520/520/520
f 529/529/529 527/527/527 526/526/526
f 526/526/526 528/528/528 529/529/529
f 527/527/527 529/529/529 530/530/530
f 521/521/521 522/522/522 531/531/531
f 531/531/531 528/528/528 521/521/521
f 522/522/522 523/523/523 532/532/532
f 524/524/524 532/532/532 523/523/523
f 532/532/532 531/531/531 522/522/522
f 525/525/525 533/533/533 524/524/524
f 532/532/532 524/524/524 533/533/533
f 533/533/533 525/525/525 534/534/534
f 535/535/535 530/530/530 529/529/529
f 530/530/530 535/535/535 536/536/536
f 537/537/537 529/529/529 528/528/528
f 528/528/528 531/531/531 537/537/537
f 529/529/529 537/537/537 535/535/535
f 531/531/531 532/532/532 538/538/538
f 533/533/533 538/538/538 532/532/532
f 538/538/538 537/537/537 531/531/531
f 534/534/534 539/539/539 533/533/533
f 538/538/538 533/533/533 539/539/539
f 539/539/539 534/534/534 540/540/540
f 537/537/537 538/538/538 541/541/541
f 541/541/541 535/535/535 537/537/537
f 539/539/539 541/541/541 538/538/538
f 542/542/542 536/536/536 535/535/535
f 535/535/535 541/541/541 542/542/542
f 536/536/536 542/542/542 543/543/543
f 540/540/540 544/544/544 539/539/539
f 541/541/541 539/539/539 544/544/544
f 544/544/544 542/542/542 541/541/541
f 544/544/544 540/540/540 545/545/545
f 546/546/546 543/543/543 542/542/542
f 542/542/542 544/544/544 546/546/546
f 545/545/545 546/546/546 544/544/544
f 543/543/543 546/546/546 547/547/547
f 546/546/546 545/545/545 548/548/548
f 548/548/548 547/547/547 546/546/546
f 547/547/547 548/548/548 549/549/549
