g YuMao
v -0.162870944 -0.0404742882 1.85548079
v -0.0948913544 -0.0291156955 1.84249079
v -0.0894519016 -0.0159168951 1.88757837
v -0.157431796 -0.0272758994 1.90056837
v -0.0814024359 -0.011288953 1.93391371
v -0.149382174 -0.0226475466 1.94690359
v -0.233569935 -0.0236258749 1.95605266
v -0.247059315 -0.0414526165 1.86462963
v -0.24161987 -0.028254224 1.90971732
v -0.310183853 -0.0145001374 1.96056104
v -0.318233788 -0.0191284884 1.9142257
v -0.372146457 -0.0014486271 1.96144223
v -0.323672771 -0.0323268808 1.869138
v -0.380196214 -0.00607657013 1.91510737
v -0.385635227 -0.0192753691 1.87001967
v -0.384705037 0.00511358352 1.98090804
v -0.400443703 -0.00534835132 1.93755472
v -0.316623837 -0.0250824951 1.93929899
v -0.300885469 -0.0146201514 1.98265219
v -0.36672011 0.00681902282 2.02457523
v -0.282900542 -0.0129147107 2.02631927
v -0.237538293 -0.0353959203 1.92481577
v -0.221799612 -0.0249339845 1.96816933
v -0.203814536 -0.0209853407 2.01183629
v -0.133721769 -0.0217718501 1.97929192
v -0.151706547 -0.0287251174 1.93562496
v -0.0965995789 -0.0228436664 1.95860684
v -0.167445526 -0.0391870551 1.89227128
v -0.114584044 -0.0297965277 1.91493988
v -0.130323172 -0.0402584635 1.87158644
v 0.0641706809 -0.0227815453 2.17015505
v 0.0620300286 -0.0269181523 1.99666429
v 0.129830465 -0.0229925886 2.02791452
v -0.00363327027 -0.0312360786 2.13890457
v -0.00576217659 -0.0216927454 1.96541381
v -0.071421355 -0.0214816891 2.10765481
v -0.0372212194 -0.0189681649 2.21199799
v 0.0305833425 -0.0105189309 2.24324822
v -0.104602814 -0.0214563217 2.18074799
v -0.0691487119 -0.0141004333 2.28134537
v -0.00134521478 -0.00571485609 2.31259584
v -0.136937708 -0.00441500871 2.25009537
v -0.129470512 0.0145380804 2.41297436
v -0.061668396 0.021162672 2.4442246
v -0.197260439 0.0224625263 2.38172436
v -0.173017576 -0.027824387 1.77044809
v -0.281363964 -0.0514785945 1.71209002
v -0.214979857 -0.035191644 1.6799742
v -0.239401549 -0.0441113375 1.80256391
v -0.131055295 -0.0204575397 1.86092269
v -0.354810178 -0.069718644 1.74763727
v -0.197439119 -0.0367440842 1.89303803
v -0.312847733 -0.062351387 1.8381114
v -0.432356089 -0.0917873681 1.7853663
v -0.270884842 -0.0549845397 1.92858529
v -0.390393376 -0.0844205096 1.87584031
v -0.509901881 -0.113856077 1.82309484
v -0.348431081 -0.0770532563 1.96631432
v -0.467939436 -0.106489234 1.91356885
v -0.425977021 -0.0991219804 2.00404286
v -0.0289135743 -0.0239954237 2.13870168
v -0.0187762454 -0.0331887864 1.99890363
v 0.0378581211 -0.0313876532 2.02702713
v -0.0855479389 -0.025796961 2.1105783
v -0.0735967979 -0.0469553955 1.97038651
v -0.140367731 -0.039563179 2.08206105
v -0.169993281 -0.0343692638 2.14668703
v -0.115173489 -0.0206026398 2.17520404
v -0.0585388169 -0.0188010968 2.20332766
v -0.200994566 -0.0281241927 2.21689105
v -0.146175236 -0.0143575547 2.2454083
v -0.23427704 -0.0186558794 2.30105615
v -0.0895402506 -0.0125564309 2.27353168
v -0.179457396 -0.00488966191 2.32957339
v -0.122822724 -0.00308811781 2.35769677
v -0.324908584 -0.0930884704 1.88505459
v -0.237148121 -0.0789820179 1.79200852
v -0.168324277 -0.0412371233 1.86151826
v -0.254874259 -0.0480073281 1.95507061
v -0.0905468762 -0.0227751248 1.93504679
v -0.178272247 -0.0368628129 2.02812457
v -0.358412325 -0.0654562637 2.06840396
v -0.424185157 -0.117583968 1.9963696
v -0.277444601 -0.0613060892 2.13951802
v -0.445270211 -0.0932051614 2.16846156
v -0.511573017 -0.145668253 2.09698153
v -0.364848167 -0.0893919915 2.2401607
v -0.538080156 -0.147435293 2.28567266
v -0.608774245 -0.189680442 2.21404934
v -0.462170392 -0.133458853 2.35709167
v -0.00497467024 -0.0152579872 2.02386355
v -0.0166427605 -0.0187647473 1.88803506
v 0.0666049197 -0.012697788 1.93270779
v -0.0829255655 -0.0215876997 1.97234082
v -0.0964776576 -0.0428110398 1.84283185
v -0.0808113068 -0.0154224122 2.10377765
v -0.157434389 -0.0458604321 1.92050493
v -0.15550369 -0.0222131629 2.04784536
v -0.151301414 -0.00683445157 2.16335273
v -0.226615593 -0.043438185 1.99183738
v -0.225209802 -0.0137288356 2.1042974
v -0.218031764 -0.0053484845 2.2163837
v -0.295490563 -0.0385270715 2.04528594
v -0.291354656 -0.0122420527 2.15425777
v -0.293462813 0.00542189926 2.26704383
v -0.361027658 -0.0369986743 2.09227204
v -0.358812243 -0.00253899698 2.19688082
v -0.420216978 -0.0283792671 2.12739134
v -0.311997354 -0.0767745972 1.88133681
v -0.203191221 -0.0788870826 1.78873789
v -0.140456691 -0.04595007 1.86423767
v -0.252944797 -0.0327938274 1.95800161
v -0.363671869 -0.0509020872 2.0539844
v -0.424091339 -0.0899476856 1.97739351
v -0.184293821 -0.0505442768 2.03377628
v -0.0756091326 -0.0526979715 1.94103181
v -0.296447277 -0.063731648 2.12977958
v -0.462726116 -0.0793409124 2.1420362
v -0.526213348 -0.107286051 2.0656333
v -0.398661047 -0.0810961351 2.21789122
v -0.284430832 -0.0522510745 1.97644937
v -0.234054402 -0.0497479625 1.88920152
v -0.120133057 -0.0345377214 1.95380855
v -0.172074273 -0.0282782223 2.04479957
v -0.353135675 -0.0614725538 2.09531236
v -0.062383879 -0.0672210082 2.10338259
v -0.0121517945 -0.0647219643 2.01605272
v -0.131034389 -0.0764396191 2.22227621
v -0.240396723 -0.0318542011 2.16368723
v -0.303526133 -0.0492802896 2.27225018
v -0.41630584 -0.0754893944 2.2040143
v -0.194280386 -0.0904556438 2.33094764
v -0.366498858 -0.0850986093 2.37857366
v -0.480444312 -0.0962512866 2.31317878
v -0.258592665 -0.111213058 2.44000053
v -0.350349873 -0.110633694 2.04009628
v -0.258537591 -0.0937510878 1.87641799
v -0.133262321 -0.0372883752 1.95612741
v -0.223008111 -0.043792285 2.1214726
v 0.0078398129 -0.0102382731 2.03681874
v -0.404242247 -0.141679227 2.14692283
v -0.0839047208 -0.0203343239 2.20054293
v -0.282071829 -0.0639315769 2.23133683
v -0.137638703 -0.0513084605 2.30747032
v -0.469177395 -0.181703597 2.27714992
v -0.202423707 -0.0912655219 2.43779421
v -0.35204345 -0.0935552269 2.3646729
v -0.416831493 -0.139076367 2.5040834
v -0.53512615 -0.22451973 2.41690421
v -0.268420547 -0.134098351 2.57751489
v -0.494836867 -0.2531555 2.71525264
v -0.626013756 -0.313376725 2.63336658
v -0.359636366 -0.223085508 2.79377484
v -0.209367067 -0.0746921599 2.05511689
v -0.187944636 -0.0761483163 1.92969096
v -0.0676756278 -0.0414707661 1.94998312
v -0.0867639109 -0.033158984 2.07397199
v 0.0612657145 -0.0352732427 1.97145021
v 0.0398973078 -0.0338019952 2.09688282
v -0.229145348 -0.0771258846 2.17503285
v -0.10702423 -0.0293466374 2.19530106
v 0.0202555843 -0.0362006277 2.21682453
v -0.126020044 -0.0289435312 2.30795932
v -0.247198477 -0.0811446756 2.28644657
v 0.00231674197 -0.0401900522 2.32825708
v -0.147136375 -0.037135765 2.44235539
v -0.268462658 -0.0886188298 2.42065573
v -0.0190057363 -0.047676038 2.46246028
v -0.166723326 -0.069310233 2.59229851
v -0.291793972 -0.103547551 2.57244802
v -0.0425759889 -0.0626549348 2.61420774
v -0.268661797 -0.232242346 2.96998072
v -0.427207172 -0.284782588 2.92023969
v -0.390439898 -0.233440354 2.75822592
v -0.237913206 -0.165161148 2.81434965
v -0.341997981 -0.167585403 2.55295014
v -0.071704559 -0.14797844 2.85482526
v -0.108701169 -0.214905232 3.01674461
v -0.0232557673 -0.0860739499 2.64954042
v -0.192501977 -0.090610899 2.60885715
v 0.0164489746 -0.0520911142 2.48444486
v -0.153699189 -0.0608593337 2.44377375
v -0.302153617 -0.137493968 2.38789248
v 0.0730722025 -0.0229483787 2.25486326
v -0.0954966694 -0.0307122096 2.19639659
v -0.239482418 -0.0892157331 2.13949561
v 0.0964137241 -0.0178558007 2.16234279
v -0.0729064941 -0.0326523259 2.11456227
v 0.122604214 -0.0243896525 2.05925131
v -0.221371144 -0.087673977 2.06623721
v -0.0437651053 -0.0451662354 2.01196456
v -0.195893243 -0.0942421034 1.96275282
v -0.0832517967 -0.0407977104 2.10926199
v -0.0457199104 -0.0471928157 2.01655412
v -6.86645508E-05 -0.0362419561 2.03400755
v -0.0376002491 -0.0298472214 2.12671542
v -0.111442871 -0.0323735103 2.18114448
v 0.00928161573 -0.0283964034 2.14416885
v 0.0468136594 -0.0347915366 2.05146098
v -0.0189089961 -0.0199726559 2.21605134
v -0.0657910109 -0.0214230772 2.19859791
v -0.139358521 -0.0242155101 2.2524116
v -0.046824798 -0.0118142515 2.28731847
v -0.0937069654 -0.013265078 2.26986504
v -0.154036105 -0.0210696831 2.29041719
v -0.0615028366 -0.00866881385 2.32532406
v -0.108384699 -0.0101192351 2.30787063
v -0.452832937 -0.153721988 2.1409719
v -0.507059038 -0.186418116 2.06939244
v -0.401750475 -0.135154054 1.96856105
v -0.354152828 -0.0950605571 2.04040956
v -0.353193969 -0.113877669 1.92301118
v -0.289500713 -0.089140892 2.11130071
v -0.394910425 -0.13633424 2.2119832
v -0.301473081 -0.0718616769 1.9906286
v -0.231196284 -0.0660121888 2.05668688
v -0.268927008 -0.0806627423 1.84463358
v -0.219420925 -0.058859352 1.9156692
v -0.156695247 -0.0509025306 1.98733592
v -0.100261226 -0.0369908474 1.93497491
v -0.159862816 -0.0502271838 1.86300671
v -0.212439418 -0.0716488063 1.79234874
v -0.223238677 -0.0708534643 1.92105484
v -0.13962692 -0.0568276122 1.79477882
v -0.0573017858 -0.050184872 1.85933518
v -0.139214024 -0.0433794744 1.98728216
v 0.0357394405 -0.0344079211 1.92412329
v -0.0478251651 -0.0350130275 2.05043697
v -0.227552786 -0.0666162074 2.12091613
v -0.305155337 -0.114427239 2.0509305
v -0.129560083 -0.0709450915 2.18045592
v -0.293818206 -0.114129029 2.22898459
v -0.372195274 -0.165945008 2.15922713
v -0.19663544 -0.116419129 2.28872609
v -0.36471054 -0.198434487 2.35840392
v -0.450749665 -0.23453556 2.29201198
v -0.275380999 -0.185074538 2.42136312
v -0.156706393 -0.0364104919 1.92438376
v -0.11217773 -0.0375838988 1.88974845
v -0.0890646353 -0.0282096937 1.92993057
v -0.133593753 -0.0270358752 1.96456599
v -0.0644529685 -0.0240723938 1.97026968
v -0.108981781 -0.0228989851 2.00490499
v -0.225247189 -0.0333492681 1.96767569
v -0.20213455 -0.0239750613 2.00785756
v -0.177522585 -0.0235193241 2.04819655
v -0.247577056 -0.0192940775 2.08368015
v -0.272188872 -0.0197494049 2.0433414
v -0.306087643 -0.00633436535 2.10396624
v -0.295301974 -0.0291236099 2.00315905
v -0.330699295 -0.00678969314 2.063627
v -0.353812099 -0.0161643084 2.02344513
v -0.220130607 -0.208668321 2.591429
v -0.0838812217 -0.115262456 2.46134496
v -0.11835327 -0.171681941 2.63861537
v -0.197030023 -0.145305544 2.43088436
v -0.314609051 -0.269335896 2.54155064
v -0.286010265 -0.214495584 2.38958406
v -0.25165984 -0.163047791 2.25266647
v -0.16405578 -0.10424564 2.30527329
v -0.0552604645 -0.0775310323 2.34980726
v -0.0229551699 -0.035630241 2.22660279
v -0.130403131 -0.0647230893 2.18207288
v -0.219311208 -0.121936001 2.12948036
v 0.00700561516 -0.0175271612 2.14415574
v -0.0989462286 -0.0475917421 2.0968082
v 0.0602833554 -0.00348610757 2.02902484
v -0.191975549 -0.0910010189 2.04706669
v -0.0454661548 -0.033910837 1.98167717
v -0.141702577 -0.0655784756 1.93193579
v -0.138029471 -0.0319190435 2.0787847
v -0.107463837 -0.0352381542 1.99880576
v -0.0669297799 -0.023412684 2.02010894
v -0.0974951163 -0.0200935733 2.10008812
v -0.0247026049 -0.0204677396 2.04111862
v -0.0552683994 -0.0171490386 2.12109733
v -0.0959272757 0.0013847386 2.18408632
v -0.138153985 -0.00156020455 2.16307712
v -0.154696345 0.0456413105 2.24961615
v -0.178687885 -0.0165716819 2.1417737
v -0.196923062 0.042696774 2.22860646
v -0.237457111 0.0308713056 2.20730305
v 0.17992568 -0.0404742882 1.85548079
v 0.106506653 -0.0159168951 1.88757837
v 0.111946106 -0.0291156955 1.84249079
v 0.174486533 -0.0272758994 1.90056837
v 0.09845718 -0.011288953 1.93391371
v 0.166436911 -0.0226475466 1.94690359
v 0.250624686 -0.0236258749 1.95605266
v 0.264114082 -0.0414526165 1.86462963
v 0.258674622 -0.028254224 1.90971732
v 0.32723847 -0.0145001374 1.96056104
v 0.335288376 -0.0191284884 1.9142257
v 0.389201045 -0.0014486271 1.96144223
v 0.340727538 -0.0323268808 1.869138
v 0.39725098 -0.00607657013 1.91510737
v 0.402690113 -0.0192753691 1.87001967
v 0.401759624 0.00511358352 1.98090804
v 0.333678573 -0.0250824951 1.93929899
v 0.417498469 -0.00534835132 1.93755472
v 0.317940056 -0.0146201514 1.98265219
v 0.383774698 0.00681902282 2.02457523
v 0.299955279 -0.0129147107 2.02631927
v 0.254592896 -0.0353959203 1.92481577
v 0.238854364 -0.0249339845 1.96816933
v 0.220869139 -0.0209853407 2.01183629
v 0.15077652 -0.0217718501 1.97929192
v 0.168761283 -0.0287251174 1.93562496
v 0.113654323 -0.0228436664 1.95860684
v 0.184500277 -0.0391870551 1.89227128
v 0.131638795 -0.0297965277 1.91493988
v 0.147377774 -0.0402584635 1.87158644
v -0.0471159369 -0.0227815453 2.17015505
v -0.112775721 -0.0229925886 2.02791452
v -0.0449752808 -0.0269181523 1.99666429
v 0.0206878651 -0.0312360786 2.13890457
v 0.0228167716 -0.0216927454 1.96541381
v 0.0884760991 -0.0214816891 2.10765481
v 0.0542759709 -0.0189681649 2.21199799
v -0.0135285947 -0.0105189309 2.24324822
v 0.121657409 -0.0214563217 2.18074799
v 0.0862034559 -0.0141004333 2.28134537
v 0.0183999632 -0.00571485609 2.31259584
v 0.153992459 -0.00441500871 2.25009537
v 0.146525115 0.0145380804 2.41297436
v 0.0787231401 0.021162672 2.4442246
v 0.214315027 0.0224625263 2.38172436
v 0.190072477 -0.027824387 1.77044809
v 0.232034609 -0.035191644 1.6799742
v 0.298418581 -0.0514785945 1.71209002
v 0.256456286 -0.0441113375 1.80256391
v 0.148109883 -0.0204575397 1.86092269
v 0.371864915 -0.069718644 1.74763727
v 0.214493856 -0.0367440842 1.89303803
v 0.329902649 -0.062351387 1.8381114
v 0.449411005 -0.0917873681 1.7853663
v 0.287939608 -0.0549845397 1.92858529
v 0.407447815 -0.0844205096 1.87584031
v 0.526956797 -0.113856077 1.82309484
v 0.365485817 -0.0770532563 1.96631432
v 0.484994203 -0.106489234 1.91356885
v 0.443031907 -0.0991219804 2.00404286
v 0.0459683202 -0.0239954237 2.13870168
v -0.0208033752 -0.0313876532 2.02702713
v 0.0358309932 -0.0331887864 1.99890363
v 0.10260269 -0.025796961 2.1105783
v 0.0906515494 -0.0469553955 1.97038651
v 0.157422483 -0.039563179 2.08206105
v 0.187048033 -0.0343692638 2.14668703
v 0.13222824 -0.0206026398 2.17520404
v 0.0755935684 -0.0188010968 2.20332766
v 0.218049154 -0.0281241927 2.21689105
v 0.163229972 -0.0143575547 2.2454083
v 0.251331627 -0.0186558794 2.30105615
v 0.106595002 -0.0125564309 2.27353168
v 0.196512148 -0.00488966191 2.32957339
v 0.139877468 -0.00308811781 2.35769677
v 0.341963202 -0.0930884704 1.88505459
v 0.185379028 -0.0412371233 1.86151826
v 0.254202873 -0.0789820179 1.79200852
v 0.271928847 -0.0480073281 1.95507061
v 0.10760162 -0.0227751248 1.93504679
v 0.195326835 -0.0368628129 2.02812457
v 0.375466913 -0.0654562637 2.06840396
v 0.441239923 -0.117583968 1.9963696
v 0.294499338 -0.0613060892 2.13951802
v 0.462325126 -0.0932051614 2.16846156
v 0.528627634 -0.145668253 2.09698153
v 0.381902754 -0.0893919915 2.2401607
v 0.555134892 -0.147435293 2.28567266
v 0.62582916 -0.189680442 2.21404934
v 0.479224831 -0.133458853 2.35709167
v 0.0220294185 -0.0152579872 2.02386355
v -0.0495501682 -0.012697788 1.93270779
v 0.0336973555 -0.0187647473 1.88803506
v 0.0999801606 -0.0215876997 1.97234082
v 0.113532253 -0.0428110398 1.84283185
v 0.0978660583 -0.0154224122 2.10377765
v 0.174488977 -0.0458604321 1.92050493
v 0.172558278 -0.0222131629 2.04784536
v 0.168356016 -0.00683445157 2.16335273
v 0.243670195 -0.043438185 1.99183738
v 0.242264554 -0.0137288356 2.1042974
v 0.235086367 -0.0053484845 2.2163837
v 0.312545151 -0.0385270715 2.04528594
v 0.308409423 -0.0122420527 2.15425777
v 0.310517579 0.00542189926 2.26704383
v 0.378082275 -0.0369986743 2.09227204
v 0.375866681 -0.00253899698 2.19688082
v 0.437271714 -0.0283792671 2.12739134
v 0.32905212 -0.0767745972 1.88133681
v 0.157511294 -0.04595007 1.86423767
v 0.220246121 -0.0788870826 1.78873789
v 0.269999534 -0.0327938274 1.95800161
v 0.380726606 -0.0509020872 2.0539844
v 0.441145927 -0.0899476856 1.97739351
v 0.201348722 -0.0505442768 2.03377628
v 0.0926638767 -0.0526979715 1.94103181
v 0.313501894 -0.063731648 2.12977958
v 0.479780883 -0.0793409124 2.1420362
v 0.543268144 -0.107286051 2.0656333
v 0.415715635 -0.0810961351 2.21789122
v 0.301485449 -0.0522510745 1.97644937
v 0.137187809 -0.0345377214 1.95380855
v 0.251109004 -0.0497479625 1.88920152
v 0.189129174 -0.0282782223 2.04479957
v 0.370190412 -0.0614725538 2.09531236
v 0.0794384778 -0.0672210082 2.10338259
v 0.0292065423 -0.0647219643 2.01605272
v 0.148088992 -0.0764396191 2.22227621
v 0.257451475 -0.0318542011 2.16368723
v 0.320580751 -0.0492802896 2.27225018
v 0.433360577 -0.0754893944 2.2040143
v 0.211334988 -0.0904556438 2.33094764
v 0.383553773 -0.0850986093 2.37857366
v 0.497499079 -0.0962512866 2.31317878
v 0.275647283 -0.111213058 2.44000053
v 0.367404461 -0.110633694 2.04009628
v 0.150317073 -0.0372883752 1.95612741
v 0.275592327 -0.0937510878 1.87641799
v 0.240062863 -0.043792285 2.1214726
v 0.00921493489 -0.0102382731 2.03681874
v 0.421296984 -0.141679227 2.14692283
v 0.100959316 -0.0203343239 2.20054293
v 0.299126744 -0.0639315769 2.23133683
v 0.154693455 -0.0513084605 2.30747032
v 0.486231983 -0.181703597 2.27714992
v 0.219478607 -0.0912655219 2.43779421
v 0.369098186 -0.0935552269 2.3646729
v 0.433886409 -0.139076367 2.5040834
v 0.552180767 -0.22451973 2.41690421
v 0.285475314 -0.134098351 2.57751489
v 0.511891484 -0.2531555 2.71525264
v 0.643068552 -0.313376725 2.63336658
v 0.376690984 -0.223085508 2.79377484
v 0.226421803 -0.0746921599 2.05511689
v 0.0847302228 -0.0414707661 1.94998312
v 0.204999387 -0.0761483163 1.92969096
v 0.103818662 -0.033158984 2.07397199
v -0.0442111194 -0.0352732427 1.97145021
v -0.02284256 -0.0338019952 2.09688282
v 0.2462001 -0.0771258846 2.17503285
v 0.124078974 -0.0293466374 2.19530106
v -0.00320083601 -0.0362006277 2.21682453
v 0.143074647 -0.0289435312 2.30795932
v 0.264252931 -0.0811446756 2.28644657
v 0.0147380065 -0.0401900522 2.32825708
v 0.164191127 -0.037135765 2.44235539
v 0.285517424 -0.0886188298 2.42065573
v 0.0360603333 -0.047676038 2.46246028
v 0.183778077 -0.069310233 2.59229851
v 0.30884856 -0.103547551 2.57244802
v 0.0596307367 -0.0626549348 2.61420774
v 0.285716385 -0.232242346 2.96998072
v 0.407494813 -0.233440354 2.75822592
v 0.444262087 -0.284782588 2.92023969
v 0.254967958 -0.165161148 2.81434965
v 0.359052718 -0.167585403 2.55295014
v 0.0887591541 -0.14797844 2.85482526
v 0.125755921 -0.214905232 3.01674461
v 0.040310517 -0.0860739499 2.64954042
v 0.209556729 -0.090610899 2.60885715
v 0.000605621317 -0.0520911142 2.48444486
v 0.170753926 -0.0608593337 2.44377375
v 0.319208354 -0.137493968 2.38789248
v -0.0560174547 -0.0229483787 2.25486326
v 0.112551421 -0.0307122096 2.19639659
v 0.256537318 -0.0892157331 2.13949561
v -0.0793589801 -0.0178558007 2.16234279
v 0.0899612382 -0.0326523259 2.11456227
v -0.10554947 -0.0243896525 2.05925131
v 0.238425747 -0.087673977 2.06623721
v 0.0608198531 -0.0451662354 2.01196456
v 0.212947994 -0.0942421034 1.96275282
v 0.100306392 -0.0407977104 2.10926199
v 0.0171234123 -0.0362419561 2.03400755
v 0.0627746582 -0.0471928157 2.01655412
v 0.0546549968 -0.0298472214 2.12671542
v 0.128497615 -0.0323735103 2.18114448
v 0.00777313206 -0.0283964034 2.14416885
v -0.0297590625 -0.0347915366 2.05146098
v 0.0359637439 -0.0199726559 2.21605134
v 0.0828456134 -0.0214230772 2.19859791
v 0.156413108 -0.0242155101 2.2524116
v 0.0638795421 -0.0118142515 2.28731847
v 0.110761717 -0.013265078 2.26986504
v 0.171090841 -0.0210696831 2.29041719
v 0.0785574317 -0.00866881385 2.32532406
v 0.125439301 -0.0101192351 2.30787063
v 0.469887674 -0.153721988 2.1409719
v 0.418805242 -0.135154054 1.96856105
v 0.524113774 -0.186418116 2.06939244
v 0.371207565 -0.0950605571 2.04040956
v 0.370248705 -0.113877669 1.92301118
v 0.306555629 -0.089140892 2.11130071
v 0.411965311 -0.13633424 2.2119832
v 0.31852752 -0.0718616769 1.9906286
v 0.248251036 -0.0660121888 2.05668688
v 0.285981745 -0.0806627423 1.84463358
v 0.236475676 -0.058859352 1.9156692
v 0.173749849 -0.0509025306 1.98733592
v 0.117315978 -0.0369908474 1.93497491
v 0.176917568 -0.0502271838 1.86300671
v 0.22949402 -0.0716488063 1.79234874
v 0.240293428 -0.0708534643 1.92105484
v 0.0743563846 -0.050184872 1.85933518
v 0.156681672 -0.0568276122 1.79477882
v 0.156268761 -0.0433794744 1.98728216
v -0.0186846927 -0.0344079211 1.92412329
v 0.0648799092 -0.0350130275 2.05043697
v 0.244607538 -0.0666162074 2.12091613
v 0.322210073 -0.114427239 2.0509305
v 0.146614835 -0.0709450915 2.18045592
v 0.310872793 -0.114129029 2.22898459
v 0.389250189 -0.165945008 2.15922713
v 0.213690341 -0.116419129 2.28872609
v 0.381765127 -0.198434487 2.35840392
v 0.467804253 -0.23453556 2.29201198
v 0.292435765 -0.185074538 2.42136312
v 0.173761129 -0.0364104919 1.92438376
v 0.106119379 -0.0282096937 1.92993057
v 0.129232481 -0.0375838988 1.88974845
v 0.15064849 -0.0270358752 1.96456599
v 0.0815077201 -0.0240723938 1.97026968
v 0.126036525 -0.0228989851 2.00490499
v 0.24230209 -0.0333492681 1.96767569
v 0.219189301 -0.0239750613 2.00785756
v 0.194577172 -0.0235193241 2.04819655
v 0.264631808 -0.0192940775 2.08368015
v 0.28924346 -0.0197494049 2.0433414
v 0.32314238 -0.00633436535 2.10396624
v 0.312356859 -0.0291236099 2.00315905
v 0.347753912 -0.00678969314 2.063627
v 0.370866984 -0.0161643084 2.02344513
v 0.23718521 -0.208668321 2.591429
v 0.135408014 -0.171681941 2.63861537
v 0.100935973 -0.115262456 2.46134496
v 0.214084774 -0.145305544 2.43088436
v 0.331663519 -0.269335896 2.54155064
v 0.303065032 -0.214495584 2.38958406
v 0.268714428 -0.163047791 2.25266647
v 0.181110531 -0.10424564 2.30527329
v 0.0723152161 -0.0775310323 2.34980726
v 0.0400099158 -0.035630241 2.22660279
v 0.147457734 -0.0647230893 2.18207288
v 0.23636581 -0.121936001 2.12948036
v 0.0100491326 -0.0175271612 2.14415574
v 0.116000824 -0.0475917421 2.0968082
v -0.0432286076 -0.00348610757 2.02902484
v 0.2090303 -0.0910010189 2.04706669
v 0.0625209063 -0.033910837 1.98167717
v 0.158757165 -0.0655784756 1.93193579
v 0.155084074 -0.0319190435 2.0787847
v 0.083984375 -0.023412684 2.02010894
v 0.124518432 -0.0352381542 1.99880576
v 0.11454986 -0.0200935733 2.10008812
v 0.0417573527 -0.0204677396 2.04111862
v 0.0723231509 -0.0171490386 2.12109733
v 0.11298202 0.0013847386 2.18408632
v 0.155208588 -0.00156020455 2.16307712
v 0.171750948 0.0456413105 2.24961615
v 0.195742637 -0.0165716819 2.1417737
v 0.21397765 0.042696774 2.22860646
v 0.254511714 0.0308713056 2.20730305
v 0.0189978015 -0.235106736 3.23874879
v -0.167893365 -0.253756016 3.23725677
v -0.168047324 -0.186783627 3.03239608
v 0.0181105044 -0.147650719 3.0423491
v -0.168093413 -0.136037812 2.83600926
v 0.198769525 -0.186757922 3.03240418
v 0.19861114 -0.253743351 3.23725772
v 0.198801875 -0.136010468 2.83601522
v 0.0178398136 -0.0910766274 2.84622622
v 0.198788449 -0.0923114195 2.63775992
v 0.0178057849 -0.0482204892 2.64823103
v -0.168099821 -0.0923350826 2.63775349
v 0.198591307 -0.0516173095 2.44189477
v -0.168002933 -0.0516173095 2.44189477
v 0.017953949 -0.0241976753 2.44401169
v 0.198528439 -0.0455434173 2.29960346
v 0.0144752497 -0.0240222346 2.30215502
v 0.198474273 -0.0402920507 2.17657638
v -0.168009639 -0.0455373004 2.29960418
v 0.0114691155 -0.0238704588 2.17956209
v -0.168015435 -0.0402806289 2.17657828
v 0.0775503516 -0.0364379361 2.11331725
v 0.00811813306 -0.0212000906 1.97861552
v 0.0775503516 -0.0373808779 1.97861552
v 0.00811813306 -0.0202571489 2.11331725
v -0.0613139346 -0.0373808779 1.97861552
v -0.0613139346 -0.0364379361 2.11331725
v -0.0613139346 -0.0309521351 2.20991611
v 0.00811813306 -0.0147713488 2.20991611
v 0.0775503516 -0.0309521351 2.20991611
v 0.0775503516 -0.0235522408 2.303473
v 0.00811813306 -0.00737145403 2.303473
v 0.0775503516 -0.0156223522 2.40666437
v -0.0613139346 -0.0235522408 2.30347347
v 0.00811813306 0.00055843353 2.40666437
v -0.0613139346 -0.0156223522 2.40666461
v -0.134658664 -0.042170886 2.05900097
v -0.134665519 -0.0428346321 1.91554046
v 0.00921768136 -0.032922145 1.91534293
v 0.0127467345 -0.0255239271 2.05661941
v 0.15870513 -0.042843204 1.91554046
v 0.15876922 -0.0421729311 2.05900264
v -0.134698182 -0.0402332954 2.19395375
v 0.0139035033 -0.0186470244 2.19292617
v 0.158876181 -0.0402226932 2.19395232
v 0.0140440362 -0.0141788376 2.30960321
v -0.134733275 -0.0407685935 2.30916643
v 0.158957362 -0.0407473743 2.30916739
v -0.134717703 -0.0444646664 2.44760346
v 0.014182739 -0.0120986998 2.44815016
v 0.158958122 -0.044442229 2.4476037
v 0.0143743893 -0.0208047722 2.60023808
v -0.134674534 -0.0515082553 2.59957981
v 0.15891479 -0.0514886715 2.59958005
v 0.0149661256 -0.0344404913 2.73998094
v -0.134572446 -0.0550502874 2.74162459
v 0.15880996 -0.0550400876 2.74162388
v -0.128030539 -0.0668372437 2.17414522
v -0.127964631 -0.0479148701 2.028126
v 0.00841857865 -0.0288502574 2.03124642
v 0.00870437641 -0.0362474509 2.18468976
v -0.128029928 -0.10218402 2.29404783
v 0.142126158 -0.0668176711 2.17413592
v 0.141983181 -0.0479156859 2.028126
v 0.142140806 -0.10216362 2.2940464
v 0.00879058801 -0.0703122839 2.30429387
v -0.128029168 -0.141271234 2.43321443
v 0.142158046 -0.141249195 2.4332211
v 0.00889022835 -0.107924581 2.44316244
v 0.00974212587 -0.192587003 2.62821531
v -0.127882987 -0.206193805 2.626055
v 0.1420082 -0.206184417 2.62605643
vt 0.490966797 0.844726562
vt 0.490966797 0.80859375
vt 0.466308594 0.80859375
vt 0.466308594 0.844726562
vt 0.441894531 0.80859375
vt 0.441894531 0.844726562
vt 0.441894531 0.888671875
vt 0.490966797 0.888671875
vt 0.466308594 0.888671875
vt 0.441894531 0.928710938
vt 0.466308594 0.928710938
vt 0.441894531 0.961914062
vt 0.490966797 0.928710938
vt 0.466308594 0.961914062
vt 0.490966797 0.961914062
vt 0.649902344 0.936035156
vt 0.674316406 0.936035156
vt 0.674316406 0.892089844
vt 0.649902344 0.892089844
vt 0.625488281 0.936035156
vt 0.625488281 0.892089844
vt 0.674316406 0.850585938
vt 0.649902344 0.850585938
vt 0.625488281 0.850585938
vt 0.625488281 0.810546875
vt 0.649902344 0.810546875
vt 0.625488281 0.7890625
vt 0.674316406 0.810546875
vt 0.649902344 0.7890625
vt 0.674316406 0.7890625
vt 0.891601562 0.0853271484
vt 0.930664062 0.00390625
vt 0.891601562 0.00390625
vt 0.930664062 0.0853271484
vt 0.969726562 0.00390625
vt 0.969726562 0.0853271484
vt 0.930664062 0.127197266
vt 0.891601562 0.127197266
vt 0.969726562 0.127197266
vt 0.930664062 0.166992188
vt 0.891601562 0.166992188
vt 0.969726562 0.166992188
vt 0.930664062 0.243530273
vt 0.891601562 0.243530273
vt 0.969726562 0.243530273
vt 0.380371094 0.80859375
vt 0.432373047 0.848144531
vt 0.432373047 0.80859375
vt 0.380371094 0.848144531
vt 0.328369141 0.80859375
vt 0.432373047 0.891601562
vt 0.328369141 0.848144531
vt 0.380371094 0.891601562
vt 0.432373047 0.9375
vt 0.328369141 0.891601562
vt 0.380371094 0.9375
vt 0.432373047 0.983886719
vt 0.328369141 0.9375
vt 0.380371094 0.983886719
vt 0.328369141 0.983886719
vt 0.551269531 0.856445312
vt 0.583984375 0.7890625
vt 0.551269531 0.7890625
vt 0.583984375 0.856445312
vt 0.6171875 0.7890625
vt 0.6171875 0.856445312
vt 0.6171875 0.893554688
vt 0.583984375 0.893554688
vt 0.551269531 0.893554688
vt 0.6171875 0.93359375
vt 0.583984375 0.93359375
vt 0.6171875 0.98046875
vt 0.551269531 0.93359375
vt 0.583984375 0.98046875
vt 0.551269531 0.98046875
vt 0.319824219 0.605957031
vt 0.319824219 0.539550781
vt 0.262939453 0.539550781
vt 0.262939453 0.605957031
vt 0.207275391 0.539550781
vt 0.207275391 0.605957031
vt 0.262939453 0.685058594
vt 0.319824219 0.685058594
vt 0.207275391 0.685058594
vt 0.262939453 0.755859375
vt 0.319824219 0.755859375
vt 0.207275391 0.755859375
vt 0.262939453 0.838378906
vt 0.319824219 0.838378906
vt 0.207275391 0.838378906
vt 0.852539062 0.324462891
vt 0.901367188 0.269287109
vt 0.852539062 0.269287109
vt 0.901367188 0.324462891
vt 0.950195312 0.269287109
vt 0.852539062 0.378662109
vt 0.950195312 0.324462891
vt 0.901367188 0.378662109
vt 0.852539062 0.424804688
vt 0.950195312 0.378662109
vt 0.901367188 0.424804688
vt 0.852539062 0.467773438
vt 0.950195312 0.424804688
vt 0.901367188 0.467773438
vt 0.852539062 0.509277344
vt 0.950195312 0.467773438
vt 0.901367188 0.509277344
vt 0.950195312 0.509277344
vt 0.959960938 0.592285156
vt 0.959960938 0.517089844
vt 0.905273438 0.517089844
vt 0.905273438 0.592285156
vt 0.905273438 0.668945312
vt 0.959960938 0.668945312
vt 0.852539062 0.592285156
vt 0.852539062 0.517089844
vt 0.852539062 0.668945312
vt 0.905273438 0.739746094
vt 0.959960938 0.739746094
vt 0.852539062 0.739746094
vt 0.879882812 0.0573730469
vt 0.879882812 0.00390625
vt 0.810546875 0.00390625
vt 0.810546875 0.0573730469
vt 0.879882812 0.12890625
vt 0.743164062 0.0573730469
vt 0.743164062 0.00390625
vt 0.743164062 0.12890625
vt 0.810546875 0.12890625
vt 0.810546875 0.194702148
vt 0.879882812 0.194702148
vt 0.743164062 0.194702148
vt 0.810546875 0.261474609
vt 0.879882812 0.261474609
vt 0.743164062 0.261474609
vt 0.570800781 0.101989746
vt 0.570800781 0.00390625
vt 0.484130859 0.00390625
vt 0.484130859 0.101989746
vt 0.398925781 0.00390625
vt 0.570800781 0.166870117
vt 0.398925781 0.101989746
vt 0.484130859 0.166870117
vt 0.398925781 0.166870117
vt 0.570800781 0.24597168
vt 0.398925781 0.24597168
vt 0.484130859 0.24597168
vt 0.484130859 0.331054688
vt 0.570800781 0.331054688
vt 0.398925781 0.331054688
vt 0.484130859 0.468017578
vt 0.570800781 0.468017578
vt 0.398925781 0.468017578
vt 0.714355469 0.507324219
vt 0.714355469 0.441650391
vt 0.645996094 0.441650391
vt 0.645996094 0.507324219
vt 0.578613281 0.441650391
vt 0.578613281 0.507324219
vt 0.714355469 0.570800781
vt 0.645996094 0.570800781
vt 0.578613281 0.570800781
vt 0.645996094 0.629882812
vt 0.714355469 0.629882812
vt 0.578613281 0.629882812
vt 0.645996094 0.700683594
vt 0.714355469 0.700683594
vt 0.578613281 0.700683594
vt 0.645996094 0.780761719
vt 0.714355469 0.780761719
vt 0.578613281 0.780761719
vt 0.297851562 0.531738281
vt 0.387451172 0.531738281
vt 0.387451172 0.440917969
vt 0.297851562 0.440917969
vt 0.387451172 0.326904297
vt 0.207275391 0.440917969
vt 0.207275391 0.531738281
vt 0.207275391 0.326904297
vt 0.297851562 0.326904297
vt 0.207275391 0.236450195
vt 0.297851562 0.236450195
vt 0.387451172 0.236450195
vt 0.207275391 0.104431152
vt 0.297851562 0.104431152
vt 0.387451172 0.104431152
vt 0.207275391 0.059753418
vt 0.297851562 0.059753418
vt 0.207275391 0.00390625
vt 0.387451172 0.059753418
vt 0.297851562 0.00390625
vt 0.387451172 0.00390625
vt 0.794921875 0.321533203
vt 0.794921875 0.269287109
vt 0.769042969 0.269287109
vt 0.769042969 0.321533203
vt 0.794921875 0.362060547
vt 0.743164062 0.321533203
vt 0.743164062 0.269287109
vt 0.743164062 0.362060547
vt 0.769042969 0.362060547
vt 0.794921875 0.401855469
vt 0.743164062 0.401855469
vt 0.769042969 0.401855469
vt 0.794921875 0.423095703
vt 0.743164062 0.423095703
vt 0.769042969 0.423095703
vt 0.901855469 0.967285156
vt 0.953125 0.967285156
vt 0.953125 0.887695312
vt 0.901855469 0.887695312
vt 0.953125 0.848144531
vt 0.852539062 0.887695312
vt 0.852539062 0.967285156
vt 0.901855469 0.848144531
vt 0.852539062 0.848144531
vt 0.953125 0.7890625
vt 0.901855469 0.7890625
vt 0.852539062 0.7890625
vt 0.852539062 0.747558594
vt 0.901855469 0.747558594
vt 0.953125 0.747558594
vt 0.842285156 0.521972656
vt 0.842285156 0.441650391
vt 0.782226562 0.441650391
vt 0.782226562 0.521972656
vt 0.723632812 0.441650391
vt 0.723632812 0.521972656
vt 0.782226562 0.606933594
vt 0.842285156 0.606933594
vt 0.723632812 0.606933594
vt 0.782226562 0.677246094
vt 0.842285156 0.677246094
vt 0.723632812 0.677246094
vt 0.782226562 0.765136719
vt 0.842285156 0.765136719
vt 0.723632812 0.765136719
vt 0.194702148 0.607421875
vt 0.194702148 0.578125
vt 0.170288086 0.578125
vt 0.170288086 0.607421875
vt 0.145751953 0.578125
vt 0.145751953 0.607421875
vt 0.194702148 0.649414062
vt 0.170288086 0.649414062
vt 0.145751953 0.649414062
vt 0.145751953 0.690429688
vt 0.170288086 0.690429688
vt 0.145751953 0.723144531
vt 0.194702148 0.690429688
vt 0.170288086 0.723144531
vt 0.194702148 0.723144531
vt 0.0674438477 0.9375
vt 0.00295257568 0.846679688
vt 0.00295257568 0.9375
vt 0.0674438477 0.846679688
vt 0.133666992 0.9375
vt 0.133666992 0.846679688
vt 0.133666992 0.776367188
vt 0.0674438477 0.776367188
vt 0.00295257568 0.776367188
vt 0.00295257568 0.701660156
vt 0.0674438477 0.701660156
vt 0.133666992 0.701660156
vt 0.00295257568 0.650390625
vt 0.0674438477 0.650390625
vt 0.00295257568 0.578613281
vt 0.133666992 0.650390625
vt 0.0674438477 0.578613281
vt 0.133666992 0.578613281
vt 0.193481445 0.788085938
vt 0.193481445 0.743652344
vt 0.168945312 0.743652344
vt 0.168945312 0.788085938
vt 0.14453125 0.743652344
vt 0.14453125 0.788085938
vt 0.14453125 0.828125
vt 0.168945312 0.828125
vt 0.14453125 0.87890625
vt 0.193481445 0.828125
vt 0.168945312 0.87890625
vt 0.193481445 0.87890625
vt 0.490966797 0.844726562
vt 0.466308594 0.80859375
vt 0.490966797 0.80859375
vt 0.466308594 0.844726562
vt 0.441894531 0.80859375
vt 0.441894531 0.844726562
vt 0.441894531 0.888671875
vt 0.490966797 0.888671875
vt 0.466308594 0.888671875
vt 0.441894531 0.928710938
vt 0.466308594 0.928710938
vt 0.441894531 0.961914062
vt 0.490966797 0.928710938
vt 0.466308594 0.961914062
vt 0.490966797 0.961914062
vt 0.649902344 0.936035156
vt 0.674316406 0.892089844
vt 0.674316406 0.936035156
vt 0.649902344 0.892089844
vt 0.625488281 0.936035156
vt 0.625488281 0.892089844
vt 0.674316406 0.850585938
vt 0.649902344 0.850585938
vt 0.625488281 0.850585938
vt 0.625488281 0.810546875
vt 0.649902344 0.810546875
vt 0.625488281 0.7890625
vt 0.674316406 0.810546875
vt 0.649902344 0.7890625
vt 0.674316406 0.7890625
vt 0.891601562 0.0853271484
vt 0.891601562 0.00390625
vt 0.930664062 0.00390625
vt 0.930664062 0.0853271484
vt 0.969726562 0.00390625
vt 0.969726562 0.0853271484
vt 0.930664062 0.127197266
vt 0.891601562 0.127197266
vt 0.969726562 0.127197266
vt 0.930664062 0.166992188
vt 0.891601562 0.166992188
vt 0.969726562 0.166992188
vt 0.930664062 0.243530273
vt 0.891601562 0.243530273
vt 0.969726562 0.243530273
vt 0.380371094 0.80859375
vt 0.432373047 0.80859375
vt 0.432373047 0.848144531
vt 0.380371094 0.848144531
vt 0.328369141 0.80859375
vt 0.432373047 0.891601562
vt 0.328369141 0.848144531
vt 0.380371094 0.891601562
vt 0.432373047 0.9375
vt 0.328369141 0.891601562
vt 0.380371094 0.9375
vt 0.432373047 0.983886719
vt 0.328369141 0.9375
vt 0.380371094 0.983886719
vt 0.328369141 0.983886719
vt 0.551269531 0.856445312
vt 0.551269531 0.7890625
vt 0.583984375 0.7890625
vt 0.583984375 0.856445312
vt 0.6171875 0.7890625
vt 0.6171875 0.856445312
vt 0.6171875 0.893554688
vt 0.583984375 0.893554688
vt 0.551269531 0.893554688
vt 0.6171875 0.93359375
vt 0.583984375 0.93359375
vt 0.6171875 0.98046875
vt 0.551269531 0.93359375
vt 0.583984375 0.98046875
vt 0.551269531 0.98046875
vt 0.319824219 0.605957031
vt 0.262939453 0.539550781
vt 0.319824219 0.539550781
vt 0.262939453 0.605957031
vt 0.207275391 0.539550781
vt 0.207275391 0.605957031
vt 0.262939453 0.685058594
vt 0.319824219 0.685058594
vt 0.207275391 0.685058594
vt 0.262939453 0.755859375
vt 0.319824219 0.755859375
vt 0.207275391 0.755859375
vt 0.262939453 0.838378906
vt 0.319824219 0.838378906
vt 0.207275391 0.838378906
vt 0.852539062 0.324462891
vt 0.852539062 0.269287109
vt 0.901367188 0.269287109
vt 0.901367188 0.324462891
vt 0.950195312 0.269287109
vt 0.852539062 0.378662109
vt 0.950195312 0.324462891
vt 0.901367188 0.378662109
vt 0.852539062 0.424804688
vt 0.950195312 0.378662109
vt 0.901367188 0.424804688
vt 0.852539062 0.467773438
vt 0.950195312 0.424804688
vt 0.901367188 0.467773438
vt 0.852539062 0.509277344
vt 0.950195312 0.467773438
vt 0.901367188 0.509277344
vt 0.950195312 0.509277344
vt 0.959960938 0.592285156
vt 0.905273438 0.517089844
vt 0.959960938 0.517089844
vt 0.905273438 0.592285156
vt 0.905273438 0.668945312
vt 0.959960938 0.668945312
vt 0.852539062 0.592285156
vt 0.852539062 0.517089844
vt 0.852539062 0.668945312
vt 0.905273438 0.739746094
vt 0.959960938 0.739746094
vt 0.852539062 0.739746094
vt 0.879882812 0.0573730469
vt 0.810546875 0.00390625
vt 0.879882812 0.00390625
vt 0.810546875 0.0573730469
vt 0.879882812 0.12890625
vt 0.743164062 0.0573730469
vt 0.743164062 0.00390625
vt 0.743164062 0.12890625
vt 0.810546875 0.12890625
vt 0.810546875 0.194702148
vt 0.879882812 0.194702148
vt 0.743164062 0.194702148
vt 0.810546875 0.261474609
vt 0.879882812 0.261474609
vt 0.743164062 0.261474609
vt 0.570800781 0.101989746
vt 0.484130859 0.00390625
vt 0.570800781 0.00390625
vt 0.484130859 0.101989746
vt 0.398925781 0.00390625
vt 0.570800781 0.166870117
vt 0.398925781 0.101989746
vt 0.484130859 0.166870117
vt 0.398925781 0.166870117
vt 0.570800781 0.24597168
vt 0.398925781 0.24597168
vt 0.484130859 0.24597168
vt 0.484130859 0.331054688
vt 0.570800781 0.331054688
vt 0.398925781 0.331054688
vt 0.484130859 0.468017578
vt 0.570800781 0.468017578
vt 0.398925781 0.468017578
vt 0.714355469 0.507324219
vt 0.645996094 0.441650391
vt 0.714355469 0.441650391
vt 0.645996094 0.507324219
vt 0.578613281 0.441650391
vt 0.578613281 0.507324219
vt 0.714355469 0.570800781
vt 0.645996094 0.570800781
vt 0.578613281 0.570800781
vt 0.645996094 0.629882812
vt 0.714355469 0.629882812
vt 0.578613281 0.629882812
vt 0.645996094 0.700683594
vt 0.714355469 0.700683594
vt 0.578613281 0.700683594
vt 0.645996094 0.780761719
vt 0.714355469 0.780761719
vt 0.578613281 0.780761719
vt 0.297851562 0.531738281
vt 0.387451172 0.440917969
vt 0.387451172 0.531738281
vt 0.297851562 0.440917969
vt 0.387451172 0.326904297
vt 0.207275391 0.440917969
vt 0.207275391 0.531738281
vt 0.207275391 0.326904297
vt 0.297851562 0.326904297
vt 0.207275391 0.236450195
vt 0.297851562 0.236450195
vt 0.387451172 0.236450195
vt 0.207275391 0.104431152
vt 0.297851562 0.104431152
vt 0.387451172 0.104431152
vt 0.207275391 0.059753418
vt 0.297851562 0.059753418
vt 0.207275391 0.00390625
vt 0.387451172 0.059753418
vt 0.297851562 0.00390625
vt 0.387451172 0.00390625
vt 0.794921875 0.321533203
vt 0.769042969 0.269287109
vt 0.794921875 0.269287109
vt 0.769042969 0.321533203
vt 0.794921875 0.362060547
vt 0.743164062 0.321533203
vt 0.743164062 0.269287109
vt 0.743164062 0.362060547
vt 0.769042969 0.362060547
vt 0.794921875 0.401855469
vt 0.743164062 0.401855469
vt 0.769042969 0.401855469
vt 0.794921875 0.423095703
vt 0.743164062 0.423095703
vt 0.769042969 0.423095703
vt 0.901855469 0.967285156
vt 0.953125 0.887695312
vt 0.953125 0.967285156
vt 0.901855469 0.887695312
vt 0.953125 0.848144531
vt 0.852539062 0.887695312
vt 0.852539062 0.967285156
vt 0.901855469 0.848144531
vt 0.852539062 0.848144531
vt 0.953125 0.7890625
vt 0.901855469 0.7890625
vt 0.852539062 0.7890625
vt 0.852539062 0.747558594
vt 0.901855469 0.747558594
vt 0.953125 0.747558594
vt 0.842285156 0.521972656
vt 0.782226562 0.441650391
vt 0.842285156 0.441650391
vt 0.782226562 0.521972656
vt 0.723632812 0.441650391
vt 0.723632812 0.521972656
vt 0.782226562 0.606933594
vt 0.842285156 0.606933594
vt 0.723632812 0.606933594
vt 0.782226562 0.677246094
vt 0.842285156 0.677246094
vt 0.723632812 0.677246094
vt 0.782226562 0.765136719
vt 0.842285156 0.765136719
vt 0.723632812 0.765136719
vt 0.194702148 0.607421875
vt 0.170288086 0.578125
vt 0.194702148 0.578125
vt 0.170288086 0.607421875
vt 0.145751953 0.578125
vt 0.145751953 0.607421875
vt 0.194702148 0.649414062
vt 0.170288086 0.649414062
vt 0.145751953 0.649414062
vt 0.145751953 0.690429688
vt 0.170288086 0.690429688
vt 0.145751953 0.723144531
vt 0.194702148 0.690429688
vt 0.170288086 0.723144531
vt 0.194702148 0.723144531
vt 0.0674438477 0.9375
vt 0.00295257568 0.9375
vt 0.00295257568 0.846679688
vt 0.0674438477 0.846679688
vt 0.133666992 0.9375
vt 0.133666992 0.846679688
vt 0.133666992 0.776367188
vt 0.0674438477 0.776367188
vt 0.00295257568 0.776367188
vt 0.00295257568 0.701660156
vt 0.0674438477 0.701660156
vt 0.133666992 0.701660156
vt 0.00295257568 0.650390625
vt 0.0674438477 0.650390625
vt 0.00295257568 0.578613281
vt 0.133666992 0.650390625
vt 0.0674438477 0.578613281
vt 0.133666992 0.578613281
vt 0.193481445 0.788085938
vt 0.168945312 0.743652344
vt 0.193481445 0.743652344
vt 0.168945312 0.788085938
vt 0.14453125 0.743652344
vt 0.14453125 0.788085938
vt 0.14453125 0.828125
vt 0.168945312 0.828125
vt 0.14453125 0.87890625
vt 0.193481445 0.828125
vt 0.168945312 0.87890625
vt 0.193481445 0.87890625
vt 0.100158691 0.5703125
vt 0.197998047 0.5703125
vt 0.197998047 0.458740234
vt 0.100158691 0.458740234
vt 0.197998047 0.352783203
vt 0.00390625 0.458740234
vt 0.00390625 0.5703125
vt 0.00390625 0.352783203
vt 0.100158691 0.352783203
vt 0.00390625 0.247070312
vt 0.100158691 0.247070312
vt 0.197998047 0.247070312
vt 0.00390625 0.141723633
vt 0.197998047 0.141723633
vt 0.100158691 0.141723633
vt 0.00390625 0.0678100586
vt 0.100158691 0.0678100586
vt 0.00390625 0.00390625
vt 0.197998047 0.0678100586
vt 0.100158691 0.00390625
vt 0.197998047 0.00390625
vt 0.723632812 0.843261719
vt 0.759277344 0.772949219
vt 0.723632812 0.772949219
vt 0.759277344 0.843261719
vt 0.795410156 0.772949219
vt 0.795410156 0.843261719
vt 0.795410156 0.893554688
vt 0.759277344 0.893554688
vt 0.723632812 0.893554688
vt 0.723632812 0.942382812
vt 0.759277344 0.942382812
vt 0.723632812 0.99609375
vt 0.795410156 0.942382812
vt 0.759277344 0.99609375
vt 0.795410156 0.99609375
vt 0.733886719 0.078125
vt 0.733886719 0.00390625
vt 0.655761719 0.00390625
vt 0.655761719 0.078125
vt 0.578613281 0.00390625
vt 0.578613281 0.078125
vt 0.733886719 0.148681641
vt 0.655761719 0.148681641
vt 0.578613281 0.148681641
vt 0.655761719 0.208984375
vt 0.733886719 0.208984375
vt 0.578613281 0.208984375
vt 0.733886719 0.281005859
vt 0.655761719 0.281005859
vt 0.578613281 0.281005859
vt 0.655761719 0.360107422
vt 0.733886719 0.360107422
vt 0.578613281 0.360107422
vt 0.655761719 0.433837891
vt 0.733886719 0.433837891
vt 0.578613281 0.433837891
vt 0.542480469 0.555664062
vt 0.542480469 0.475830078
vt 0.469726562 0.475830078
vt 0.469726562 0.555664062
vt 0.542480469 0.620117188
vt 0.398925781 0.555664062
vt 0.398925781 0.475830078
vt 0.398925781 0.620117188
vt 0.469726562 0.620117188
vt 0.542480469 0.6953125
vt 0.398925781 0.6953125
vt 0.469726562 0.6953125
vt 0.469726562 0.80078125
vt 0.542480469 0.80078125
vt 0.398925781 0.80078125
vn -0.11514651 0.956897974 -0.266622454
vn -0.20491071 0.945541084 -0.252910316
vn -0.191724598 0.968001068 -0.161912486
vn -0.102987982 0.979252756 -0.174520925
vn -0.176605076 0.981916964 -0.0681897327
vn -0.0937285051 0.992115438 -0.083197102
vn 0.0383029319 0.993666708 -0.105637714
vn 0.0267303381 0.958587825 -0.283539653
vn 0.0353065133 0.980062306 -0.195528194
vn 0.149284825 0.981099963 -0.123113506
vn 0.148734778 0.966460347 -0.209361643
vn 0.203149021 0.970327914 -0.131127223
vn 0.142347202 0.945432901 -0.293076575
vn 0.19910568 0.955083251 -0.219483495
vn 0.194198146 0.935210168 -0.296089411
vn 0.228333965 0.94368726 -0.239411473
vn 0.225727811 0.925555646 -0.303963125
vn 0.16331479 0.944177389 -0.286107421
vn 0.160825446 0.967086375 -0.197177604
vn 0.230379403 0.96420294 -0.13129355
vn 0.150431633 0.98193723 -0.11475911
vn 0.0180245712 0.970507205 -0.2403972
vn 0.0298652612 0.984972537 -0.170109272
vn 0.0355851762 0.993310928 -0.109850615
vn -0.0294348784 0.99197489 -0.122961134
vn -0.0448399112 0.98462683 -0.168817312
vn -0.0475057699 0.989290178 -0.13801533
vn -0.0618370958 0.975126743 -0.212846994
vn -0.0676392838 0.98239249 -0.174154639
vn -0.0846640542 0.975168824 -0.204640821
vn -0.0651466474 0.994764924 -0.0787312612
vn 0.0020748931 0.999878645 0.0154416608
vn -0.0801932812 0.996500969 -0.0235550199
vn 0.00809127279 0.999538064 -0.0292943865
vn 0.0846910998 0.994916558 0.0544825122
vn 0.0821304545 0.996421337 0.0199812911
vn 0.0175916422 0.993555248 -0.111975111
vn -0.0543931797 0.987882853 -0.145357668
vn 0.0903059766 0.992955446 -0.0767088458
vn 0.0634999946 0.987333417 -0.145397067
vn -0.0300556365 0.983969986 -0.175783217
vn 0.158035278 0.980773091 -0.114494495
vn 0.0893533453 0.982142866 -0.165564165
vn -0.00759846997 0.977374971 -0.211377487
vn 0.184612021 0.975679934 -0.118181907
vn -0.226551294 0.97368741 0.0246477425
vn -0.227738634 0.973395765 0.0252142753
vn -0.226552919 0.973686934 0.0246473346
vn -0.227738738 0.973395765 0.0252158009
vn -0.22654964 0.973687589 0.024648143
vn -0.242707223 0.969559014 0.0323826633
vn -0.227738813 0.973395646 0.025217317
vn -0.24270618 0.969559252 0.0323845521
vn -0.255701542 0.965983808 0.0386264846
vn -0.242704555 0.969559431 0.03238618
vn -0.255700886 0.965983868 0.0386283994
vn -0.25570035 0.965984106 0.0386270732
vn -0.25570026 0.965983987 0.0386303253
vn -0.255699515 0.965984225 0.0386281274
vn -0.255698621 0.965984464 0.0386291854
vn 0.00358724734 0.99756515 -0.0696486831
vn -0.0760939941 0.990716398 -0.112653002
vn 0.00147110503 0.997841716 -0.0656484216
vn -0.0816815943 0.989744723 -0.117189735
vn -0.159408301 0.973743439 -0.162520096
vn -0.16057387 0.973902047 -0.160407826
vn -0.161296099 0.974022388 -0.158946142
vn -0.0765574425 0.98974061 -0.120633744
vn 0.00954482146 0.996679544 -0.080863595
vn -0.156224519 0.973341584 -0.167929128
vn -0.0711860433 0.988598824 -0.132683367
vn -0.152727261 0.972796261 -0.174188673
vn 0.0170612372 0.995319664 -0.0951195657
vn -0.0600931831 0.988713503 -0.13723892
vn 0.021575246 0.994373083 -0.103713773
vn -0.378465712 0.900678635 -0.213405162
vn -0.334388912 0.918059886 -0.212955728
vn -0.247387767 0.960704982 -0.125877887
vn -0.267854273 0.958017051 -0.102261141
vn -0.155676752 0.987145662 -0.0361688249
vn -0.150247917 0.988576114 0.0119564906
vn -0.308848441 0.94928658 -0.0588878244
vn -0.445249856 0.872578025 -0.200898498
vn -0.154621169 0.984021366 0.0882852301
vn -0.372045875 0.92814213 0.0115759196
vn -0.502645731 0.855438411 -0.124789685
vn -0.223114222 0.962622285 0.153552622
vn -0.404610425 0.913128674 0.0498639606
vn -0.519575834 0.851355374 -0.0723532885
vn -0.27237916 0.946264148 0.174338311
vn -0.0594073907 0.997717261 -0.0321097001
vn -0.130417183 0.988925993 -0.0708283484
vn -0.0645455942 0.997702897 -0.0205640998
vn -0.123155646 0.988122165 -0.0919094235
vn -0.21652025 0.966640651 -0.136838779
vn -0.0265502129 0.996329844 -0.0813757479
vn -0.192012087 0.968390048 -0.159223005
vn -0.0784426928 0.985769987 -0.14867489
vn -0.00627007009 0.994132578 -0.107986785
vn -0.136424989 0.966293991 -0.218320847
vn -0.0654771402 0.983107686 -0.17091541
vn -0.000165528036 0.994149804 -0.108009838
vn -0.125263184 0.962423801 -0.240934998
vn -0.0432253741 0.980967343 -0.189300478
vn 0.0429829732 0.987179339 -0.153718546
vn -0.0909874737 0.956642985 -0.276686519
vn -0.00486160954 0.971460819 -0.237150267
vn -0.049759075 0.948295176 -0.313465089
vn -0.263479888 0.924015701 -0.277080238
vn -0.196013004 0.929340243 -0.312898576
vn -0.0437793881 0.989914298 -0.134732768
vn -0.105728656 0.991079867 -0.0811305121
vn -0.188009202 0.982081473 -0.0129854139
vn -0.331326336 0.92348671 -0.193378285
vn 0.0670507997 0.990443289 0.120524794
vn 0.116377525 0.991518557 0.0578552298
vn -0.029515516 0.984264433 0.174219579
vn -0.213527456 0.976902485 0.00821538456
vn -0.33210361 0.932458878 -0.14222379
vn -0.0817597434 0.983070135 0.163977042
vn -0.162582889 0.983871102 -0.0745946467
vn -0.118168123 0.9888888 -0.0901955962
vn 0.0605939217 0.998060644 0.0142614013
vn 0.041119609 0.998051643 0.0469269976
vn -0.217412099 0.975488961 -0.0339588113
vn 0.24730888 0.954519033 0.166528478
vn 0.239645809 0.963438272 0.119818829
vn 0.237742513 0.942501545 0.234881237
vn 0.00784528255 0.994686484 0.102650903
vn -0.0378164761 0.983271897 0.178175196
vn -0.235889897 0.970125377 0.0566821508
vn 0.167100608 0.940652907 0.295380205
vn -0.0633023828 0.973539472 0.219575822
vn -0.230507419 0.966269076 0.114849247
vn 0.112398706 0.94107461 0.31897524
vn -0.410805911 0.905901134 -0.102867469
vn -0.362524927 0.921623409 -0.138513625
vn -0.262763053 0.960672975 -0.0897938758
vn -0.293501168 0.955224872 -0.0374499485
vn -0.156545967 0.986920953 -0.0384769514
vn -0.513245523 0.856226623 -0.0587787628
vn -0.172696769 0.984607995 0.0268849358
vn -0.350022376 0.93545568 0.0490605831
vn -0.167891696 0.973337471 0.15629001
vn -0.563257396 0.824959517 -0.0467222258
vn -0.144617721 0.96711731 0.209212273
vn -0.370173872 0.925329626 0.0820754394
vn -0.419276476 0.889602184 0.181149766
vn -0.581725121 0.809847057 0.0757865608
vn -0.232273653 0.930299759 0.283886135
vn -0.437717557 0.868511856 0.232573316
vn -0.576343477 0.804351032 0.144387528
vn -0.286755294 0.905463636 0.312901169
vn -0.30935213 0.947954297 -0.0753921643
vn -0.285431653 0.954554319 -0.0857607648
vn -0.152560174 0.986184418 -0.0645414442
vn -0.15219444 0.987129748 -0.0491076075
vn -0.0141771492 0.999031544 -0.0416523516
vn 0.00749237929 0.99974364 -0.0213661324
vn -0.352017224 0.934090912 -0.0596489348
vn -0.156984076 0.987312078 -0.0238963366
vn 0.0472381525 0.99879384 0.0133938286
vn -0.163836539 0.986446977 0.00894025434
vn -0.382857233 0.923207402 -0.0332933068
vn 0.0695135966 0.996240735 0.0516947061
vn -0.176094353 0.981301427 0.0777059719
vn -0.366355985 0.929578781 0.0408228822
vn 0.0277626142 0.993052423 0.114350557
vn -0.183277562 0.975340247 0.122966558
vn -0.342974484 0.934949696 0.0907613188
vn -0.0124781467 0.988199711 0.152661771
vn -0.311338514 0.904650986 0.290989459
vn -0.423425019 0.875643492 0.232291996
vn -0.457272649 0.866352618 0.200835779
vn -0.31531316 0.913153887 0.258316576
vn -0.479292989 0.869950652 0.116034582
vn -0.159995005 0.937087953 0.310270488
vn -0.193771288 0.918426752 0.344884127
vn -0.111263357 0.96598655 0.233431652
vn -0.301799268 0.936534703 0.178381518
vn -0.0809907392 0.98825711 0.129570156
vn -0.269832194 0.959308505 0.0831731334
vn -0.447859585 0.89350462 0.0327322707
vn -0.077033937 0.994047999 0.077034153
vn -0.248795301 0.967790961 0.0384917334
vn -0.407347113 0.913272023 -0.00161654688
vn -0.0698333755 0.99574548 -0.0601192974
vn -0.178576857 0.979290485 -0.0953961611
vn -0.0723226368 0.991039693 -0.112293161
vn -0.297769785 0.944934011 -0.135767564
vn -0.173904717 0.97495383 -0.13864401
vn -0.274610698 0.947519183 -0.163695797
vn -0.171565101 0.972248733 -0.159052908
vn -0.178599834 0.973594368 -0.142183155
vn -0.0905169472 0.990184903 -0.106492504
vn -0.0848366097 0.988546193 -0.124816902
vn -0.162700981 0.970125914 -0.179955617
vn 0.00319573237 0.996070504 -0.0885061845
vn -0.0037900242 0.997488618 -0.0707252771
vn 0.0120824846 0.993757606 -0.110904008
vn -0.0755459219 0.986392319 -0.146023735
vn -0.166919038 0.97121048 -0.16996558
vn 0.00808809791 0.994908512 -0.100457236
vn -0.0798174143 0.987542331 -0.135607556
vn -0.174253911 0.9728055 -0.152594611
vn 0.00115682441 0.996581733 -0.0826042444
vn -0.0870626941 0.98916769 -0.118183374
vn -0.436008811 0.899196506 0.0366329476
vn -0.520100594 0.851483166 -0.0668717399
vn -0.515608251 0.851874352 -0.0919679105
vn -0.417698324 0.908118427 0.0291359127
vn -0.433782965 0.889516652 -0.143500715
vn -0.310004085 0.939263463 0.147246689
vn -0.342632294 0.928984284 0.139968857
vn -0.313773394 0.949213922 -0.0232182909
vn -0.185577944 0.978760839 0.0871092901
vn -0.326269776 0.936127961 -0.131195918
vn -0.24840346 0.967140138 -0.0541811585
vn -0.159188792 0.986912251 0.0257536154
vn -0.182193756 0.983219683 0.00919600576
vn -0.215694383 0.975046992 -0.0525278486
vn -0.248648226 0.961741209 -0.115011767
vn -0.280826688 0.958433986 -0.0504047982
vn -0.147989422 0.986551046 -0.0693981573
vn -0.113414906 0.990900159 -0.0724837184
vn -0.192207843 0.981340885 -0.00510465354
vn -0.0775441974 0.994120061 -0.0755787641
vn -0.0986416489 0.994350255 0.0392091274
vn -0.315467924 0.942349851 0.1116101
vn -0.477689505 0.878518701 -0.00419040676
vn -0.137214825 0.965784252 0.220074713
vn -0.408682764 0.887141526 0.214378744
vn -0.563020468 0.82114476 0.0934296995
vn -0.233160019 0.91407901 0.331807226
vn -0.436374873 0.864242375 0.250323862
vn -0.563712537 0.813162804 0.144894719
vn -0.291417718 0.889807701 0.351166427
vn -0.0863965228 0.980046272 -0.179011106
vn -0.104081623 0.980124831 -0.168885887
vn -0.0725618824 0.989088714 -0.128211379
vn -0.0530105531 0.991330147 -0.120226629
vn -0.0356029496 0.996126711 -0.0803990215
vn -0.0216730013 0.997885287 -0.061278861
vn -0.0578907132 0.979054928 -0.195192516
vn -0.0206694417 0.992883921 -0.117278382
vn 0.0134457266 0.998981416 -0.0430735089
vn 0.0950606614 0.993105829 -0.068588756
vn 0.0660568401 0.985504448 -0.156260908
vn 0.176333442 0.977296829 -0.117461674
vn 0.0312811024 0.969306946 -0.243855849
vn 0.141734377 0.966673195 -0.213200197
vn 0.113618605 0.951296329 -0.28657636
vn -0.494983971 0.841920316 0.214851469
vn -0.349202454 0.907073855 0.235105947
vn -0.374155849 0.893951058 0.246696085
vn -0.498923182 0.845862865 0.188657597
vn -0.629694104 0.757831395 0.170812517
vn -0.627365053 0.766021132 0.140087932
vn -0.606962383 0.788697481 0.0977389887
vn -0.475304812 0.865609944 0.157495275
vn -0.322553307 0.921801984 0.215036094
vn -0.319477439 0.93389684 0.160533115
vn -0.444607556 0.88745302 0.121455327
vn -0.558337212 0.825719953 0.0802871659
vn -0.284163594 0.958372533 0.0278069843
vn -0.357912749 0.933423638 0.0248745717
vn -0.270648122 0.962602615 -0.0120763415
vn -0.429143697 0.903009534 0.0202346649
vn -0.316745609 0.948449612 -0.0107531929
vn -0.365778774 0.93065542 -0.00929378718
vn -0.176552221 0.958016634 -0.225906178
vn -0.216314867 0.968186617 -0.125787854
vn -0.134953856 0.986340404 -0.0944458321
vn -0.079098776 0.978756964 -0.189151227
vn -0.0405274332 0.997513533 -0.0576573424
vn 0.00680305809 0.988829315 -0.148897007
vn 0.114693545 0.929303586 -0.351055801
vn 0.0435319096 0.906972826 -0.418933511
vn 0.167489707 0.878780007 -0.446870148
vn -0.0388224721 0.881047487 -0.471432149
vn 0.0895175785 0.85358882 -0.513198674
vn 0.0277389064 0.827229857 -0.561178446
vn 0.117720045 0.956895173 -0.265506327
vn 0.193275467 0.968002141 -0.160051659
vn 0.207345471 0.945537984 -0.250929594
vn 0.104688302 0.979252636 -0.173506692
vn 0.177253813 0.981914878 -0.0665147007
vn 0.094503127 0.992117345 -0.0822945684
vn -0.0372714177 0.993668973 -0.105985157
vn -0.0239918549 0.958585978 -0.283790797
vn -0.0334137455 0.980064154 -0.195851207
vn -0.148081288 0.98110193 -0.124542877
vn -0.146704212 0.966461658 -0.210783467
vn -0.201865613 0.970330477 -0.133075222
vn -0.139514059 0.945432723 -0.294436276
vn -0.196972847 0.955085874 -0.221388027
vn -0.191329062 0.93521297 -0.297942609
vn -0.226030633 0.943751514 -0.241336524
vn -0.160553783 0.944253147 -0.287416786
vn -0.222797766 0.925643086 -0.305853158
vn -0.15893276 0.967127442 -0.198506474
vn -0.229124814 0.964219034 -0.13335453
vn -0.149353817 0.981948256 -0.116065666
vn -0.0156440493 0.970552683 -0.240380585
vn -0.02822119 0.985004425 -0.170205489
vn -0.0345606878 0.993327498 -0.110027477
vn 0.0305966921 0.991999984 -0.12247397
vn 0.0465048924 0.984645069 -0.168259442
vn 0.048867166 0.989313662 -0.137369633
vn 0.0639375225 0.975139141 -0.212168843
vn 0.0693263635 0.98240906 -0.173396483
vn 0.0866402313 0.975168467 -0.203813359
vn 0.0671449527 0.994728744 -0.0775007233
vn 0.0807634741 0.996490061 -0.0220178403
vn -0.00270716683 0.999874115 0.0156363249
vn -0.00768808275 0.999543071 -0.0292327534
vn -0.0856182352 0.994921744 0.0529182069
vn -0.0823101029 0.996441066 0.0181711521
vn -0.0148313455 0.993566334 -0.112276748
vn 0.0584730208 0.987985313 -0.14305906
vn -0.0881274715 0.992946327 -0.0793177783
vn -0.059490446 0.987274289 -0.147480145
vn 0.0353110321 0.984009922 -0.174578652
vn -0.154492021 0.980620027 -0.120485298
vn -0.0837837309 0.982014239 -0.169199303
vn 0.0141775869 0.977439642 -0.210738271
vn -0.181219861 0.975396156 -0.125545442
vn 0.226315856 0.973684549 0.026825102
vn 0.226317629 0.973684132 0.026824452
vn 0.227497697 0.973392963 0.0274024643
vn 0.22749728 0.973393083 0.027403852
vn 0.226314038 0.973684907 0.0268257465
vn 0.242397085 0.969555855 0.0347149447
vn 0.227496773 0.973393083 0.0274052415
vn 0.24239561 0.969556212 0.0347150043
vn 0.255329967 0.965980649 0.0410838909
vn 0.242394075 0.96955663 0.034715008
vn 0.255326152 0.965982199 0.041071564
vn 0.255327523 0.965981364 0.0410842039
vn 0.255322337 0.965983808 0.041059237
vn 0.25532034 0.965984225 0.0410598814
vn 0.255313128 0.965987206 0.0410355739
vn -0.00205894536 0.997577131 -0.0695394054
vn -0.000159185365 0.997852921 -0.0654952824
vn 0.0787439123 0.990685642 -0.111091986
vn 0.0844959691 0.989754856 -0.115090065
vn 0.162469357 0.973840237 -0.158868119
vn 0.163901985 0.974035859 -0.156173855
vn 0.16550529 0.97424829 -0.153127819
vn 0.0800263733 0.989810109 -0.117778681
vn -0.00737900939 0.996697426 -0.0808688477
vn 0.161083445 0.973652899 -0.161406621
vn 0.0752644166 0.988710582 -0.129563212
vn 0.157815874 0.973156154 -0.167514563
vn -0.0142804049 0.995332181 -0.0954453424
vn 0.0636848807 0.988907874 -0.134184003
vn -0.0184329916 0.994387269 -0.104184382
vn 0.381891698 0.900806546 -0.206654981
vn 0.249279425 0.960600376 -0.122909345
vn 0.337186009 0.918046236 -0.20855847
vn 0.270052224 0.957811594 -0.0983292833
vn 0.156072691 0.987154841 -0.0341560394
vn 0.149773464 0.988615811 0.0143792899
vn 0.310265511 0.949200511 -0.0524751693
vn 0.44906339 0.872935236 -0.190594509
vn 0.152685091 0.98406893 0.091080226
vn 0.371949226 0.928013384 0.0210973024
vn 0.505490661 0.855595231 -0.111516342
vn 0.219791248 0.962516427 0.158914655
vn 0.403070271 0.91310221 0.0614706837
vn 0.521577775 0.851260364 -0.0575540066
vn 0.268238664 0.946121156 0.181391582
vn 0.0598503649 0.997716427 -0.031301681
vn 0.064763248 0.997702897 -0.0198648144
vn 0.13129507 0.988901615 -0.0695361197
vn 0.124578968 0.988084018 -0.0903878361
vn 0.218080923 0.966599345 -0.134634972
vn 0.028034715 0.996349216 -0.0806370303
vn 0.194201246 0.968401432 -0.156475112
vn 0.0814414918 0.985832453 -0.146634534
vn 0.00876204949 0.994236171 -0.106853046
vn 0.140698001 0.966587961 -0.214270353
vn 0.0694189966 0.983321548 -0.16810666
vn 0.00265003857 0.994211972 -0.107403912
vn 0.130589962 0.962951243 -0.235947654
vn 0.0479246117 0.981239855 -0.186738983
vn -0.039151378 0.987326443 -0.153797135
vn 0.0981244817 0.95738548 -0.271633089
vn 0.0106490226 0.971991599 -0.234774143
vn 0.0576655045 0.949192166 -0.309368938
vn 0.267094374 0.924309909 -0.272601902
vn 0.0457507633 0.989875972 -0.13435936
vn 0.199792385 0.929501414 -0.310016185
vn 0.107173875 0.991016984 -0.079995133
vn 0.188110277 0.982096672 -0.0100345388
vn 0.334304631 0.923758566 -0.186843574
vn -0.0685592592 0.990491807 0.119271226
vn -0.117071904 0.991521716 0.0563807487
vn 0.0268154554 0.984555781 0.17300573
vn 0.212445229 0.977088213 0.0128725143
vn 0.33453536 0.932706058 -0.13470526
vn 0.078636609 0.983358085 0.163777441
vn 0.163868934 0.983926475 -0.0709622428
vn -0.0597617179 0.998134613 0.0124811558
vn 0.119710997 0.988910198 -0.0878968388
vn -0.0409507379 0.998147249 0.0450016633
vn 0.218089029 0.975518346 -0.0283039939
vn -0.25092274 0.954620481 0.160429642
vn -0.241805553 0.963459074 0.115223907
vn -0.243610084 0.942917287 0.227070987
vn -0.00954249408 0.994826853 0.1011355
vn 0.0334379822 0.983418703 0.178239718
vn 0.234566033 0.970026851 0.0634567291
vn -0.174833 0.941331387 0.288666815
vn 0.0567956492 0.973576963 0.221183389
vn 0.227630436 0.966052413 0.122176602
vn -0.12101531 0.941712558 0.313899249
vn 0.412713081 0.906097889 -0.0930297375
vn 0.265350908 0.960413635 -0.0848200843
vn 0.365020722 0.921680093 -0.131398872
vn 0.295016944 0.955008149 -0.0304049477
vn 0.15734373 0.986926496 -0.034914691
vn 0.515021086 0.856188357 -0.0411692634
vn 0.17198129 0.98458612 0.0318207778
vn 0.349760652 0.93489176 0.0603726283
vn 0.163495317 0.973174214 0.161868334
vn 0.564530253 0.82500571 -0.0259051193
vn 0.138687968 0.966831803 0.21448037
vn 0.367970318 0.924908459 0.0956149325
vn 0.413704187 0.889018893 0.196199462
vn 0.579255044 0.809438348 0.0962970927
vn 0.224110305 0.929681599 0.292346925
vn 0.430989653 0.867621779 0.24795261
vn 0.571868122 0.80367887 0.164520711
vn 0.277874678 0.904599786 0.323241323
vn 0.310657084 0.948010445 -0.0690534785
vn 0.15398927 0.986092746 -0.0625175685
vn 0.286607742 0.954544127 -0.0818629786
vn 0.154184148 0.986961603 -0.0461976975
vn 0.014826674 0.999031425 -0.0414277054
vn -0.0071903076 0.99974066 -0.0216078833
vn 0.353423148 0.934219241 -0.0482342988
vn 0.15889895 0.987110853 -0.0190633815
vn -0.0476468541 0.998794794 0.0117768738
vn 0.164163992 0.986314654 0.0152900126
vn 0.383689225 0.923281789 -0.0182574689
vn -0.0709686056 0.996276438 0.0489555337
vn 0.173380598 0.981220007 0.0845355913
vn 0.365234375 0.929305971 0.0547209568
vn -0.0308595654 0.993069828 0.113401301
vn 0.178787038 0.975263238 0.129987299
vn 0.340203583 0.93462956 0.103580922
vn 0.00807565544 0.98815906 0.153219968
vn 0.304920167 0.904605627 0.297846049
vn 0.452175945 0.866062284 0.213243917
vn 0.418049455 0.875664473 0.241756827
vn 0.308571577 0.91299361 0.266882509
vn 0.476053834 0.869457722 0.131969899
vn 0.152617916 0.936963201 0.314337134
vn 0.186238244 0.91838789 0.349111974
vn 0.105113961 0.965781033 0.237103462
vn 0.296122402 0.936343729 0.188605011
vn 0.0773407146 0.988114953 0.132842824
vn 0.267223775 0.95908314 0.0935461968
vn 0.446975887 0.893152595 0.0499094799
vn 0.0749387592 0.993959785 0.0801758245
vn 0.249437645 0.967231274 0.0473765731
vn 0.407300413 0.913204312 0.0128165409
vn 0.0709656626 0.995781541 -0.0581635498
vn 0.181207433 0.979204059 -0.0912324712
vn 0.0744847581 0.99104321 -0.110839739
vn 0.300105929 0.945166528 -0.128828302
vn 0.177098453 0.974841416 -0.135352999
vn 0.277227402 0.947687328 -0.158220083
vn 0.175073087 0.972388983 -0.154302314
vn 0.0932464302 0.990142703 -0.104510807
vn 0.181424797 0.973687053 -0.137907639
vn 0.0880243629 0.98854661 -0.122585647
vn 0.167320177 0.970404327 -0.174124554
vn -0.00105561735 0.996070862 -0.0885530636
vn 0.00534379575 0.997490644 -0.0705964565
vn -0.00902284682 0.99377197 -0.111067481
vn 0.0797167495 0.98646611 -0.143281922
vn 0.171655729 0.971547902 -0.163183674
vn -0.005110275 0.994929671 -0.100442946
vn 0.0838490352 0.987665415 -0.132235497
vn 0.178797349 0.973161817 -0.144871339
vn 0.0013896802 0.996594012 -0.0824517682
vn 0.0902558118 0.98936218 -0.114089154
vn 0.434625149 0.89950794 0.0445691831
vn 0.516952574 0.851922274 -0.0835962445
vn 0.521148801 0.851512313 -0.0577120557
vn 0.417407513 0.908036888 0.0352124795
vn 0.43541792 0.88960731 -0.137877092
vn 0.307834297 0.939338744 0.151263431
vn 0.340101629 0.929121315 0.145136341
vn 0.314050138 0.949203312 -0.0196339674
vn 0.184573397 0.978756189 0.0892684236
vn 0.327605993 0.936151862 -0.127647713
vn 0.249182209 0.967072487 -0.0517606996
vn 0.158625111 0.986961603 0.0272918344
vn 0.181917772 0.983254492 0.0107942028
vn 0.216165364 0.975038826 -0.0507136993
vn 0.249736935 0.961728752 -0.112735227
vn 0.281398356 0.958487391 -0.0460101552
vn 0.114434183 0.990882277 -0.0711141601
vn 0.148832977 0.986538291 -0.0677561313
vn 0.19292596 0.98121053 -0.00236494769
vn 0.0786169991 0.994116783 -0.074505195
vn 0.0976319835 0.994376957 0.0410184003
vn 0.31347695 0.942274988 0.117685974
vn 0.477178633 0.878785729 0.00601769844
vn 0.132107064 0.965903699 0.222660497
vn 0.403478026 0.886749268 0.225568861
vn 0.560683012 0.820795596 0.109220937
vn 0.224748984 0.913864911 0.338140458
vn 0.429273337 0.863711536 0.26405859
vn 0.560000956 0.812409163 0.162451029
vn 0.281978309 0.889352143 0.359917998
vn 0.0883149877 0.980097651 -0.177789405
vn 0.0740092844 0.989086151 -0.127401337
vn 0.105867013 0.980143964 -0.167660251
vn 0.0543039478 0.991352558 -0.119462691
vn 0.0365281031 0.996131778 -0.0799194649
vn 0.0223481562 0.997895956 -0.0608630516
vn 0.0601094589 0.979179025 -0.193894804
vn 0.0219870768 0.992930889 -0.11663948
vn -0.0130939754 0.998989403 -0.0429953076
vn -0.0944841206 0.993099689 -0.0694673955
vn -0.0642559603 0.98564297 -0.156137779
vn -0.17491965 0.977375507 -0.11891263
vn -0.0281166453 0.969643533 -0.242900819
vn -0.139230639 0.966995418 -0.213388845
vn -0.110074386 0.951783299 -0.2863428
vn 0.487823635 0.841233134 0.233141482
vn 0.366461337 0.893238485 0.260444283
vn 0.341873348 0.906406105 0.248094156
vn 0.492807865 0.84506917 0.207360789
vn 0.624096751 0.75687778 0.194008738
vn 0.622796416 0.765111327 0.163490862
vn 0.603891611 0.787992597 0.119927637
vn 0.470723063 0.864763021 0.174941808
vn 0.315963894 0.921221614 0.226974756
vn 0.315011084 0.933415532 0.171765581
vn 0.441987693 0.886750162 0.13535516
vn 0.555907667 0.825545669 0.0971653163
vn 0.283433318 0.958365738 0.034648411
vn 0.357838124 0.933216453 0.0325432085
vn 0.270822972 0.962603271 -0.00706286449
vn 0.42815721 0.903258324 0.0283855721
vn 0.316984564 0.948414087 -0.00561006553
vn 0.365527749 0.930791676 -0.00404205825
vn 0.181737155 0.958225429 -0.220852137
vn 0.137248561 0.986301303 -0.0915020779
vn 0.218835756 0.968232989 -0.120978102
vn 0.0836089477 0.978824496 -0.186848104
vn 0.0417486466 0.997524202 -0.056590382
vn -0.00340671022 0.988864541 -0.148779497
vn -0.106190428 0.929449916 -0.353336126
vn -0.0331397653 0.907436013 -0.418881416
vn -0.156269208 0.879179895 -0.450136244
vn 0.0505967811 0.881928563 -0.468659818
vn -0.0767813697 0.854357362 -0.513982534
vn -0.0136633338 0.828225315 -0.560228705
vn -0.00296227285 0.933248758 0.359218508
vn -0.157119945 0.921992123 0.353897989
vn -0.192520633 0.93228966 0.306221813
vn -0.00346325524 0.949908018 0.312510729
vn -0.235246584 0.944407165 0.22968255
vn 0.192050725 0.931501627 0.308903366
vn 0.155534863 0.921554863 0.355732381
vn 0.235989854 0.943071604 0.234360099
vn -0.00329904538 0.971119642 0.238570407
vn 0.218602732 0.958086848 0.185155094
vn -0.00318964757 0.982385576 0.186837971
vn -0.217883959 0.959437668 0.178902477
vn 0.169739485 0.979983389 0.10402412
vn -0.169480294 0.980456591 0.0999070406
vn -0.000715122966 0.994654655 0.10325481
vn 0.118223242 0.992727399 0.0227082036
vn -0.000439265597 0.999758184 0.0219870619
vn 0.101709597 0.994559109 0.0225264393
vn -0.11968708 0.992590547 0.0209516734
vn -0.00144270947 0.999756992 0.0219951123
vn -0.104859233 0.99426055 0.0212267563
vn 0.22712563 0.973559499 -0.0244103801
vn 0.000564388582 0.999975324 -0.00701457262
vn 0.226994485 0.973884106 -0.00483783288
vn 0.000987293082 0.999610484 -0.0278921332
vn -0.226966798 0.97386235 -0.00883454923
vn -0.226662859 0.973526359 -0.0295011699
vn -0.225698039 0.971704125 -0.069653593
vn 0.00137717777 0.997704685 -0.0677009076
vn 0.22724463 0.971872628 -0.061833363
vn 0.22741361 0.971204937 -0.071020402
vn 0.00147136371 0.996977687 -0.0776750147
vn 0.227513224 0.971270382 -0.0697964728
vn -0.225139439 0.97100687 -0.0803611502
vn 0.000493073894 0.997057438 -0.0766565651
vn -0.225013226 0.971106589 -0.0795057938
vn -0.109363995 0.99353528 -0.0304505024
vn -0.0907920301 0.995487511 -0.0275932141
vn -0.00101724977 0.999598801 -0.0283048768
vn 0.00113227754 0.99953866 -0.0303495731
vn 0.0899946615 0.995525897 -0.0287929364
vn 0.110087313 0.993471026 -0.0299357753
vn -0.142864868 0.989370823 -0.0271117985
vn 0.0011890555 0.9996773 -0.0253731832
vn 0.146277785 0.988975883 -0.0230126958
vn 0.000365063839 0.999989748 -0.00452372944
vn -0.178776309 0.983855665 -0.00819539838
vn 0.183232903 0.983069301 -0.000730860629
vn -0.201522604 0.979153633 0.0254324954
vn -0.000770277868 0.999553978 0.029854307
vn 0.205967829 0.977992356 0.0332902223
vn -0.00149117131 0.998424053 0.0560994931
vn -0.18950589 0.980489552 0.052227281
vn 0.193719015 0.979336202 0.0580829494
vn -0.000578048872 0.998142719 0.0609160326
vn -0.169698611 0.983786523 0.0580219775
vn 0.17372629 0.982836545 0.0620614514
vn -0.208595693 0.963644385 0.166965216
vn -0.183329478 0.979445279 0.0841268525
vn -0.000226396165 0.996166885 0.0874732733
vn -0.00161003752 0.984159648 0.177276984
vn -0.24180612 0.934928775 0.259688526
vn 0.208820909 0.962756157 0.171739101
vn 0.18538177 0.978732228 0.0878460631
vn 0.240137026 0.93307662 0.267772883
vn -0.00337876799 0.962394834 0.271633387
vn -0.206409231 0.925992608 0.316121697
vn 0.203260288 0.924502552 0.322459519
vn -0.00513804657 0.945483744 0.325628757
vn -0.00526144868 0.929795444 0.368039072
vn -0.17779775 0.915975213 0.359690487
vn 0.172969639 0.914773345 0.36506331
g YuMao_0
f 3/3/3 2/2/2 1/1/1
f 4/4/4 3/3/3 1/1/1
f 5/5/5 3/3/3 4/4/4
f 6/6/6 5/5/5 4/4/4
f 6/6/6 4/4/4 7/7/7
f 1/1/1 8/8/8 4/4/4
f 4/4/4 9/9/9 7/7/7
f 8/8/8 9/9/9 4/4/4
f 7/7/7 9/9/9 10/10/10
f 9/9/9 8/8/8 11/11/11
f 9/9/9 11/11/11 10/10/10
f 10/10/10 11/11/11 12/12/12
f 8/8/8 13/13/13 11/11/11
f 11/11/11 14/14/14 12/12/12
f 11/11/11 13/13/13 14/14/14
f 13/13/13 15/15/15 14/14/14
f 18/18/18 17/17/17 16/16/16
f 19/19/19 18/18/18 16/16/16
f 19/19/19 16/16/16 20/20/20
f 21/21/21 19/19/19 20/20/20
f 22/22/22 18/18/18 19/19/19
f 23/23/23 19/19/19 21/21/21
f 23/23/23 22/22/22 19/19/19
f 24/24/24 23/23/23 21/21/21
f 24/24/24 25/25/25 23/23/23
f 23/23/23 26/26/26 22/22/22
f 25/25/25 26/26/26 23/23/23
f 26/26/26 25/25/25 27/27/27
f 26/26/26 28/28/28 22/22/22
f 29/29/29 26/26/26 27/27/27
f 28/28/28 26/26/26 29/29/29
f 30/30/30 28/28/28 29/29/29
f 33/33/33 32/32/32 31/31/31
f 32/32/32 34/34/34 31/31/31
f 32/32/32 35/35/35 34/34/34
f 35/35/35 36/36/36 34/34/34
f 34/34/34 37/37/37 31/31/31
f 34/34/34 36/36/36 37/37/37
f 37/37/37 38/38/38 31/31/31
f 36/36/36 39/39/39 37/37/37
f 38/38/38 37/37/37 40/40/40
f 37/37/37 39/39/39 40/40/40
f 41/41/41 38/38/38 40/40/40
f 39/39/39 42/42/42 40/40/40
f 41/41/41 40/40/40 43/43/43
f 40/40/40 42/42/42 43/43/43
f 44/44/44 41/41/41 43/43/43
f 42/42/42 45/45/45 43/43/43
f 48/48/48 47/47/47 46/46/46
f 47/47/47 49/49/49 46/46/46
f 46/46/46 49/49/49 50/50/50
f 47/47/47 51/51/51 49/49/49
f 49/49/49 52/52/52 50/50/50
f 51/51/51 53/53/53 49/49/49
f 49/49/49 53/53/53 52/52/52
f 51/51/51 54/54/54 53/53/53
f 53/53/53 55/55/55 52/52/52
f 54/54/54 56/56/56 53/53/53
f 53/53/53 56/56/56 55/55/55
f 54/54/54 57/57/57 56/56/56
f 56/56/56 58/58/58 55/55/55
f 57/57/57 59/59/59 56/56/56
f 56/56/56 59/59/59 58/58/58
f 59/59/59 60/60/60 58/58/58
f 63/63/63 62/62/62 61/61/61
f 62/62/62 64/64/64 61/61/61
f 62/62/62 65/65/65 64/64/64
f 65/65/65 66/66/66 64/64/64
f 66/66/66 67/67/67 64/64/64
f 64/64/64 68/68/68 61/61/61
f 67/67/67 68/68/68 64/64/64
f 68/68/68 69/69/69 61/61/61
f 68/68/68 67/67/67 70/70/70
f 69/69/69 68/68/68 71/71/71
f 71/71/71 68/68/68 70/70/70
f 71/71/71 70/70/70 72/72/72
f 73/73/73 69/69/69 71/71/71
f 74/74/74 71/71/71 72/72/72
f 73/73/73 71/71/71 74/74/74
f 75/75/75 73/73/73 74/74/74
f 78/78/78 77/77/77 76/76/76
f 79/79/79 78/78/78 76/76/76
f 80/80/80 78/78/78 79/79/79
f 81/81/81 80/80/80 79/79/79
f 79/79/79 76/76/76 82/82/82
f 81/81/81 79/79/79 82/82/82
f 76/76/76 83/83/83 82/82/82
f 84/84/84 81/81/81 82/82/82
f 82/82/82 83/83/83 85/85/85
f 84/84/84 82/82/82 85/85/85
f 83/83/83 86/86/86 85/85/85
f 87/87/87 84/84/84 85/85/85
f 85/85/85 86/86/86 88/88/88
f 87/87/87 85/85/85 88/88/88
f 86/86/86 89/89/89 88/88/88
f 90/90/90 87/87/87 88/88/88
f 93/93/93 92/92/92 91/91/91
f 92/92/92 94/94/94 91/91/91
f 92/92/92 95/95/95 94/94/94
f 91/91/91 94/94/94 96/96/96
f 95/95/95 97/97/97 94/94/94
f 94/94/94 98/98/98 96/96/96
f 94/94/94 97/97/97 98/98/98
f 96/96/96 98/98/98 99/99/99
f 97/97/97 100/100/100 98/98/98
f 98/98/98 101/101/101 99/99/99
f 98/98/98 100/100/100 101/101/101
f 99/99/99 101/101/101 102/102/102
f 100/100/100 103/103/103 101/101/101
f 101/101/101 104/104/104 102/102/102
f 101/101/101 103/103/103 104/104/104
f 102/102/102 104/104/104 105/105/105
f 103/103/103 106/106/106 104/104/104
f 104/104/104 107/107/107 105/105/105
f 104/104/104 106/106/106 107/107/107
f 106/106/106 108/108/108 107/107/107
f 111/111/111 110/110/110 109/109/109
f 112/112/112 111/111/111 109/109/109
f 112/112/112 109/109/109 113/113/113
f 109/109/109 114/114/114 113/113/113
f 112/112/112 115/115/115 111/111/111
f 115/115/115 112/112/112 113/113/113
f 115/115/115 116/116/116 111/111/111
f 117/117/117 115/115/115 113/113/113
f 113/113/113 114/114/114 118/118/118
f 117/117/117 113/113/113 118/118/118
f 114/114/114 119/119/119 118/118/118
f 120/120/120 117/117/117 118/118/118
f 123/123/123 122/122/122 121/121/121
f 124/124/124 123/123/123 121/121/121
f 121/121/121 125/125/125 124/124/124
f 124/124/124 126/126/126 123/123/123
f 126/126/126 127/127/127 123/123/123
f 128/128/128 126/126/126 124/124/124
f 125/125/125 129/129/129 124/124/124
f 129/129/129 128/128/128 124/124/124
f 129/129/129 125/125/125 130/130/130
f 128/128/128 129/129/129 130/130/130
f 125/125/125 131/131/131 130/130/130
f 132/132/132 128/128/128 130/130/130
f 130/130/130 131/131/131 133/133/133
f 132/132/132 130/130/130 133/133/133
f 131/131/131 134/134/134 133/133/133
f 135/135/135 132/132/132 133/133/133
f 138/138/138 137/137/137 136/136/136
f 139/139/139 138/138/138 136/136/136
f 140/140/140 138/138/138 139/139/139
f 136/136/136 141/141/141 139/139/139
f 142/142/142 140/140/140 139/139/139
f 141/141/141 143/143/143 139/139/139
f 142/142/142 139/139/139 143/143/143
f 144/144/144 142/142/142 143/143/143
f 143/143/143 141/141/141 145/145/145
f 146/146/146 144/144/144 143/143/143
f 147/147/147 143/143/143 145/145/145
f 147/147/147 146/146/146 143/143/143
f 147/147/147 145/145/145 148/148/148
f 146/146/146 147/147/147 148/148/148
f 145/145/145 149/149/149 148/148/148
f 150/150/150 146/146/146 148/148/148
f 148/148/148 149/149/149 151/151/151
f 150/150/150 148/148/148 151/151/151
f 149/149/149 152/152/152 151/151/151
f 153/153/153 150/150/150 151/151/151
f 156/156/156 155/155/155 154/154/154
f 157/157/157 156/156/156 154/154/154
f 158/158/158 156/156/156 157/157/157
f 159/159/159 158/158/158 157/157/157
f 154/154/154 160/160/160 157/157/157
f 159/159/159 157/157/157 161/161/161
f 160/160/160 161/161/161 157/157/157
f 162/162/162 159/159/159 161/161/161
f 161/161/161 160/160/160 163/163/163
f 162/162/162 161/161/161 163/163/163
f 160/160/160 164/164/164 163/163/163
f 165/165/165 162/162/162 163/163/163
f 163/163/163 164/164/164 166/166/166
f 165/165/165 163/163/163 166/166/166
f 164/164/164 167/167/167 166/166/166
f 168/168/168 165/165/165 166/166/166
f 166/166/166 167/167/167 169/169/169
f 168/168/168 166/166/166 169/169/169
f 167/167/167 170/170/170 169/169/169
f 171/171/171 168/168/168 169/169/169
f 174/174/174 173/173/173 172/172/172
f 175/175/175 174/174/174 172/172/172
f 176/176/176 174/174/174 175/175/175
f 177/177/177 175/175/175 172/172/172
f 178/178/178 177/177/177 172/172/172
f 177/177/177 179/179/179 175/175/175
f 179/179/179 180/180/180 175/175/175
f 180/180/180 176/176/176 175/175/175
f 179/179/179 181/181/181 180/180/180
f 176/176/176 180/180/180 182/182/182
f 181/181/181 182/182/182 180/180/180
f 183/183/183 176/176/176 182/182/182
f 181/181/181 184/184/184 182/182/182
f 182/182/182 185/185/185 183/183/183
f 184/184/184 185/185/185 182/182/182
f 185/185/185 186/186/186 183/183/183
f 184/184/184 187/187/187 185/185/185
f 185/185/185 188/188/188 186/186/186
f 187/187/187 188/188/188 185/185/185
f 187/187/187 189/189/189 188/188/188
f 188/188/188 190/190/190 186/186/186
f 189/189/189 191/191/191 188/188/188
f 190/190/190 188/188/188 191/191/191
f 192/192/192 190/190/190 191/191/191
f 195/195/195 194/194/194 193/193/193
f 196/196/196 195/195/195 193/193/193
f 193/193/193 197/197/197 196/196/196
f 195/195/195 196/196/196 198/198/198
f 199/199/199 195/195/195 198/198/198
f 198/198/198 196/196/196 200/200/200
f 197/197/197 201/201/201 196/196/196
f 196/196/196 201/201/201 200/200/200
f 201/201/201 197/197/197 202/202/202
f 200/200/200 201/201/201 203/203/203
f 204/204/204 201/201/201 202/202/202
f 201/201/201 204/204/204 203/203/203
f 204/204/204 202/202/202 205/205/205
f 203/203/203 204/204/204 206/206/206
f 207/207/207 204/204/204 205/205/205
f 204/204/204 207/207/207 206/206/206
f 210/210/210 209/209/209 208/208/208
f 211/211/211 210/210/210 208/208/208
f 212/212/212 210/210/210 211/211/211
f 213/213/213 211/211/211 208/208/208
f 214/214/214 213/213/213 208/208/208
f 215/215/215 212/212/212 211/211/211
f 211/211/211 213/213/213 215/215/215
f 213/213/213 216/216/216 215/215/215
f 217/217/217 212/212/212 215/215/215
f 215/215/215 216/216/216 218/218/218
f 218/218/218 217/217/217 215/215/215
f 216/216/216 219/219/219 218/218/218
f 219/219/219 220/220/220 218/218/218
f 220/220/220 221/221/221 218/218/218
f 217/217/217 218/218/218 221/221/221
f 222/222/222 217/217/217 221/221/221
f 225/225/225 224/224/224 223/223/223
f 226/226/226 225/225/225 223/223/223
f 227/227/227 225/225/225 226/226/226
f 228/228/228 227/227/227 226/226/226
f 226/226/226 223/223/223 229/229/229
f 228/228/228 226/226/226 229/229/229
f 223/223/223 230/230/230 229/229/229
f 231/231/231 228/228/228 229/229/229
f 229/229/229 230/230/230 232/232/232
f 231/231/231 229/229/229 232/232/232
f 230/230/230 233/233/233 232/232/232
f 234/234/234 231/231/231 232/232/232
f 232/232/232 233/233/233 235/235/235
f 234/234/234 232/232/232 235/235/235
f 233/233/233 236/236/236 235/235/235
f 237/237/237 234/234/234 235/235/235
f 240/240/240 239/239/239 238/238/238
f 241/241/241 240/240/240 238/238/238
f 242/242/242 240/240/240 241/241/241
f 243/243/243 242/242/242 241/241/241
f 238/238/238 244/244/244 241/241/241
f 241/241/241 245/245/245 243/243/243
f 244/244/244 245/245/245 241/241/241
f 245/245/245 246/246/246 243/243/243
f 246/246/246 245/245/245 247/247/247
f 245/245/245 244/244/244 248/248/248
f 245/245/245 248/248/248 247/247/247
f 247/247/247 248/248/248 249/249/249
f 244/244/244 250/250/250 248/248/248
f 248/248/248 251/251/251 249/249/249
f 248/248/248 250/250/250 251/251/251
f 250/250/250 252/252/252 251/251/251
f 255/255/255 254/254/254 253/253/253
f 254/254/254 256/256/256 253/253/253
f 253/253/253 256/256/256 257/257/257
f 256/256/256 258/258/258 257/257/257
f 259/259/259 258/258/258 256/256/256
f 256/256/256 254/254/254 260/260/260
f 260/260/260 259/259/259 256/256/256
f 254/254/254 261/261/261 260/260/260
f 261/261/261 262/262/262 260/260/260
f 259/259/259 260/260/260 263/263/263
f 262/262/262 263/263/263 260/260/260
f 264/264/264 259/259/259 263/263/263
f 262/262/262 265/265/265 263/263/263
f 263/263/263 266/266/266 264/264/264
f 265/265/265 266/266/266 263/263/263
f 265/265/265 267/267/267 266/266/266
f 266/266/266 268/268/268 264/264/264
f 267/267/267 269/269/269 266/266/266
f 266/266/266 269/269/269 268/268/268
f 269/269/269 270/270/270 268/268/268
f 273/273/273 272/272/272 271/271/271
f 274/274/274 273/273/273 271/271/271
f 275/275/275 273/273/273 274/274/274
f 276/276/276 275/275/275 274/274/274
f 276/276/276 274/274/274 277/277/277
f 274/274/274 271/271/271 278/278/278
f 274/274/274 278/278/278 277/277/277
f 277/277/277 278/278/278 279/279/279
f 271/271/271 280/280/280 278/278/278
f 278/278/278 281/281/281 279/279/279
f 278/278/278 280/280/280 281/281/281
f 280/280/280 282/282/282 281/281/281
f 285/285/285 284/284/284 283/283/283
f 284/284/284 286/286/286 283/283/283
f 284/284/284 287/287/287 286/286/286
f 287/287/287 288/288/288 286/286/286
f 286/286/286 288/288/288 289/289/289
f 290/290/290 283/283/283 286/286/286
f 291/291/291 286/286/286 289/289/289
f 291/291/291 290/290/290 286/286/286
f 291/291/291 289/289/289 292/292/292
f 290/290/290 291/291/291 293/293/293
f 293/293/293 291/291/291 292/292/292
f 293/293/293 292/292/292 294/294/294
f 295/295/295 290/290/290 293/293/293
f 296/296/296 293/293/293 294/294/294
f 295/295/295 293/293/293 296/296/296
f 297/297/297 295/295/295 296/296/296
f 300/300/300 299/299/299 298/298/298
f 299/299/299 301/301/301 298/298/298
f 298/298/298 301/301/301 302/302/302
f 301/301/301 303/303/303 302/302/302
f 299/299/299 304/304/304 301/301/301
f 301/301/301 305/305/305 303/303/303
f 304/304/304 305/305/305 301/301/301
f 305/305/305 306/306/306 303/303/303
f 307/307/307 306/306/306 305/305/305
f 308/308/308 305/305/305 304/304/304
f 308/308/308 307/307/307 305/305/305
f 307/307/307 308/308/308 309/309/309
f 310/310/310 308/308/308 304/304/304
f 308/308/308 311/311/311 309/309/309
f 308/308/308 310/310/310 311/311/311
f 310/310/310 312/312/312 311/311/311
f 315/315/315 314/314/314 313/313/313
f 316/316/316 315/315/315 313/313/313
f 317/317/317 315/315/315 316/316/316
f 318/318/318 317/317/317 316/316/316
f 319/319/319 316/316/316 313/313/313
f 318/318/318 316/316/316 319/319/319
f 320/320/320 319/319/319 313/313/313
f 321/321/321 318/318/318 319/319/319
f 319/319/319 320/320/320 322/322/322
f 321/321/321 319/319/319 322/322/322
f 320/320/320 323/323/323 322/322/322
f 324/324/324 321/321/321 322/322/322
f 322/322/322 323/323/323 325/325/325
f 324/324/324 322/322/322 325/325/325
f 323/323/323 326/326/326 325/325/325
f 327/327/327 324/324/324 325/325/325
f 330/330/330 329/329/329 328/328/328
f 331/331/331 330/330/330 328/328/328
f 331/331/331 328/328/328 332/332/332
f 333/333/333 330/330/330 331/331/331
f 334/334/334 331/331/331 332/332/332
f 335/335/335 333/333/333 331/331/331
f 335/335/335 331/331/331 334/334/334
f 336/336/336 333/333/333 335/335/335
f 337/337/337 335/335/335 334/334/334
f 338/338/338 336/336/336 335/335/335
f 338/338/338 335/335/335 337/337/337
f 339/339/339 336/336/336 338/338/338
f 340/340/340 338/338/338 337/337/337
f 341/341/341 339/339/339 338/338/338
f 341/341/341 338/338/338 340/340/340
f 342/342/342 341/341/341 340/340/340
f 345/345/345 344/344/344 343/343/343
f 346/346/346 345/345/345 343/343/343
f 347/347/347 345/345/345 346/346/346
f 348/348/348 347/347/347 346/346/346
f 349/349/349 348/348/348 346/346/346
f 350/350/350 346/346/346 343/343/343
f 350/350/350 349/349/349 346/346/346
f 351/351/351 350/350/350 343/343/343
f 349/349/349 350/350/350 352/352/352
f 350/350/350 351/351/351 353/353/353
f 350/350/350 353/353/353 352/352/352
f 352/352/352 353/353/353 354/354/354
f 351/351/351 355/355/355 353/353/353
f 353/353/353 356/356/356 354/354/354
f 353/353/353 355/355/355 356/356/356
f 355/355/355 357/357/357 356/356/356
f 360/360/360 359/359/359 358/358/358
f 359/359/359 361/361/361 358/358/358
f 359/359/359 362/362/362 361/361/361
f 362/362/362 363/363/363 361/361/361
f 358/358/358 361/361/361 364/364/364
f 361/361/361 363/363/363 364/364/364
f 365/365/365 358/358/358 364/364/364
f 363/363/363 366/366/366 364/364/364
f 365/365/365 364/364/364 367/367/367
f 364/364/364 366/366/366 367/367/367
f 368/368/368 365/365/365 367/367/367
f 366/366/366 369/369/369 367/367/367
f 368/368/368 367/367/367 370/370/370
f 367/367/367 369/369/369 370/370/370
f 371/371/371 368/368/368 370/370/370
f 369/369/369 372/372/372 370/370/370
f 375/375/375 374/374/374 373/373/373
f 376/376/376 375/375/375 373/373/373
f 377/377/377 375/375/375 376/376/376
f 376/376/376 373/373/373 378/378/378
f 379/379/379 377/377/377 376/376/376
f 380/380/380 376/376/376 378/378/378
f 379/379/379 376/376/376 380/380/380
f 380/380/380 378/378/378 381/381/381
f 382/382/382 379/379/379 380/380/380
f 383/383/383 380/380/380 381/381/381
f 382/382/382 380/380/380 383/383/383
f 383/383/383 381/381/381 384/384/384
f 385/385/385 382/382/382 383/383/383
f 386/386/386 383/383/383 384/384/384
f 385/385/385 383/383/383 386/386/386
f 386/386/386 384/384/384 387/387/387
f 388/388/388 385/385/385 386/386/386
f 389/389/389 386/386/386 387/387/387
f 388/388/388 386/386/386 389/389/389
f 390/390/390 388/388/388 389/389/389
f 393/393/393 392/392/392 391/391/391
f 392/392/392 394/394/394 391/391/391
f 391/391/391 394/394/394 395/395/395
f 396/396/396 391/391/391 395/395/395
f 397/397/397 394/394/394 392/392/392
f 394/394/394 397/397/397 395/395/395
f 398/398/398 397/397/397 392/392/392
f 397/397/397 399/399/399 395/395/395
f 396/396/396 395/395/395 400/400/400
f 395/395/395 399/399/399 400/400/400
f 401/401/401 396/396/396 400/400/400
f 399/399/399 402/402/402 400/400/400
f 405/405/405 404/404/404 403/403/403
f 404/404/404 406/406/406 403/403/403
f 407/407/407 403/403/403 406/406/406
f 408/408/408 406/406/406 404/404/404
f 409/409/409 408/408/408 404/404/404
f 408/408/408 410/410/410 406/406/406
f 411/411/411 407/407/407 406/406/406
f 410/410/410 411/411/411 406/406/406
f 407/407/407 411/411/411 412/412/412
f 411/411/411 410/410/410 412/412/412
f 413/413/413 407/407/407 412/412/412
f 410/410/410 414/414/414 412/412/412
f 413/413/413 412/412/412 415/415/415
f 412/412/412 414/414/414 415/415/415
f 416/416/416 413/413/413 415/415/415
f 414/414/414 417/417/417 415/415/415
f 420/420/420 419/419/419 418/418/418
f 419/419/419 421/421/421 418/418/418
f 419/419/419 422/422/422 421/421/421
f 423/423/423 418/418/418 421/421/421
f 422/422/422 424/424/424 421/421/421
f 425/425/425 423/423/423 421/421/421
f 421/421/421 424/424/424 425/425/425
f 424/424/424 426/426/426 425/425/425
f 423/423/423 425/425/425 427/427/427
f 426/426/426 428/428/428 425/425/425
f 425/425/425 429/429/429 427/427/427
f 428/428/428 429/429/429 425/425/425
f 427/427/427 429/429/429 430/430/430
f 429/429/429 428/428/428 430/430/430
f 431/431/431 427/427/427 430/430/430
f 428/428/428 432/432/432 430/430/430
f 431/431/431 430/430/430 433/433/433
f 430/430/430 432/432/432 433/433/433
f 434/434/434 431/431/431 433/433/433
f 432/432/432 435/435/435 433/433/433
f 438/438/438 437/437/437 436/436/436
f 437/437/437 439/439/439 436/436/436
f 437/437/437 440/440/440 439/439/439
f 440/440/440 441/441/441 439/439/439
f 442/442/442 436/436/436 439/439/439
f 439/439/439 441/441/441 443/443/443
f 443/443/443 442/442/442 439/439/439
f 441/441/441 444/444/444 443/443/443
f 442/442/442 443/443/443 445/445/445
f 443/443/443 444/444/444 445/445/445
f 446/446/446 442/442/442 445/445/445
f 444/444/444 447/447/447 445/445/445
f 446/446/446 445/445/445 448/448/448
f 445/445/445 447/447/447 448/448/448
f 449/449/449 446/446/446 448/448/448
f 447/447/447 450/450/450 448/448/448
f 449/449/449 448/448/448 451/451/451
f 448/448/448 450/450/450 451/451/451
f 452/452/452 449/449/449 451/451/451
f 450/450/450 453/453/453 451/451/451
f 456/456/456 455/455/455 454/454/454
f 455/455/455 457/457/457 454/454/454
f 455/455/455 458/458/458 457/457/457
f 457/457/457 459/459/459 454/454/454
f 459/459/459 460/460/460 454/454/454
f 461/461/461 459/459/459 457/457/457
f 462/462/462 461/461/461 457/457/457
f 458/458/458 462/462/462 457/457/457
f 463/463/463 461/461/461 462/462/462
f 462/462/462 458/458/458 464/464/464
f 464/464/464 463/463/463 462/462/462
f 458/458/458 465/465/465 464/464/464
f 466/466/466 463/463/463 464/464/464
f 467/467/467 464/464/464 465/465/465
f 467/467/467 466/466/466 464/464/464
f 468/468/468 467/467/467 465/465/465
f 469/469/469 466/466/466 467/467/467
f 470/470/470 467/467/467 468/468/468
f 470/470/470 469/469/469 467/467/467
f 471/471/471 469/469/469 470/470/470
f 472/472/472 470/470/470 468/468/468
f 473/473/473 471/471/471 470/470/470
f 470/470/470 472/472/472 473/473/473
f 472/472/472 474/474/474 473/473/473
f 477/477/477 476/476/476 475/475/475
f 476/476/476 478/478/478 475/475/475
f 479/479/479 475/475/475 478/478/478
f 478/478/478 476/476/476 480/480/480
f 476/476/476 481/481/481 480/480/480
f 478/478/478 480/480/480 482/482/482
f 483/483/483 479/479/479 478/478/478
f 483/483/483 478/478/478 482/482/482
f 479/479/479 483/483/483 484/484/484
f 483/483/483 482/482/482 485/485/485
f 483/483/483 486/486/486 484/484/484
f 486/486/486 483/483/483 485/485/485
f 484/484/484 486/486/486 487/487/487
f 486/486/486 485/485/485 488/488/488
f 486/486/486 489/489/489 487/487/487
f 489/489/489 486/486/486 488/488/488
f 492/492/492 491/491/491 490/490/490
f 491/491/491 493/493/493 490/490/490
f 491/491/491 494/494/494 493/493/493
f 493/493/493 495/495/495 490/490/490
f 495/495/495 496/496/496 490/490/490
f 494/494/494 497/497/497 493/493/493
f 495/495/495 493/493/493 497/497/497
f 498/498/498 495/495/495 497/497/497
f 494/494/494 499/499/499 497/497/497
f 498/498/498 497/497/497 500/500/500
f 499/499/499 500/500/500 497/497/497
f 501/501/501 498/498/498 500/500/500
f 502/502/502 501/501/501 500/500/500
f 503/503/503 502/502/502 500/500/500
f 500/500/500 499/499/499 503/503/503
f 499/499/499 504/504/504 503/503/503
f 507/507/507 506/506/506 505/505/505
f 506/506/506 508/508/508 505/505/505
f 506/506/506 509/509/509 508/508/508
f 509/509/509 510/510/510 508/508/508
f 505/505/505 508/508/508 511/511/511
f 508/508/508 510/510/510 511/511/511
f 512/512/512 505/505/505 511/511/511
f 510/510/510 513/513/513 511/511/511
f 512/512/512 511/511/511 514/514/514
f 511/511/511 513/513/513 514/514/514
f 515/515/515 512/512/512 514/514/514
f 513/513/513 516/516/516 514/514/514
f 515/515/515 514/514/514 517/517/517
f 514/514/514 516/516/516 517/517/517
f 518/518/518 515/515/515 517/517/517
f 516/516/516 519/519/519 517/517/517
f 522/522/522 521/521/521 520/520/520
f 521/521/521 523/523/523 520/520/520
f 521/521/521 524/524/524 523/523/523
f 524/524/524 525/525/525 523/523/523
f 526/526/526 520/520/520 523/523/523
f 527/527/527 523/523/523 525/525/525
f 527/527/527 526/526/526 523/523/523
f 528/528/528 527/527/527 525/525/525
f 527/527/527 528/528/528 529/529/529
f 526/526/526 527/527/527 530/530/530
f 530/530/530 527/527/527 529/529/529
f 530/530/530 529/529/529 531/531/531
f 532/532/532 526/526/526 530/530/530
f 533/533/533 530/530/530 531/531/531
f 532/532/532 530/530/530 533/533/533
f 534/534/534 532/532/532 533/533/533
f 537/537/537 536/536/536 535/535/535
f 538/538/538 537/537/537 535/535/535
f 538/538/538 535/535/535 539/539/539
f 540/540/540 538/538/538 539/539/539
f 540/540/540 541/541/541 538/538/538
f 537/537/537 538/538/538 542/542/542
f 541/541/541 542/542/542 538/538/538
f 543/543/543 537/537/537 542/542/542
f 544/544/544 543/543/543 542/542/542
f 542/542/542 541/541/541 545/545/545
f 545/545/545 544/544/544 542/542/542
f 541/541/541 546/546/546 545/545/545
f 547/547/547 544/544/544 545/545/545
f 548/548/548 545/545/545 546/546/546
f 548/548/548 547/547/547 545/545/545
f 549/549/549 547/547/547 548/548/548
f 550/550/550 548/548/548 546/546/546
f 551/551/551 549/549/549 548/548/548
f 551/551/551 548/548/548 550/550/550
f 552/552/552 551/551/551 550/550/550
f 555/555/555 554/554/554 553/553/553
f 554/554/554 556/556/556 553/553/553
f 554/554/554 557/557/557 556/556/556
f 557/557/557 558/558/558 556/556/556
f 556/556/556 558/558/558 559/559/559
f 553/553/553 556/556/556 560/560/560
f 560/560/560 556/556/556 559/559/559
f 560/560/560 559/559/559 561/561/561
f 562/562/562 553/553/553 560/560/560
f 563/563/563 560/560/560 561/561/561
f 562/562/562 560/560/560 563/563/563
f 564/564/564 562/562/562 563/563/563
f 567/567/567 566/566/566 565/565/565
f 568/568/568 567/567/567 565/565/565
f 569/569/569 567/567/567 568/568/568
f 570/570/570 568/568/568 565/565/565
f 571/571/571 570/570/570 565/565/565
f 570/570/570 572/572/572 568/568/568
f 572/572/572 573/573/573 568/568/568
f 573/573/573 569/569/569 568/568/568
f 572/572/572 574/574/574 573/573/573
f 569/569/569 573/573/573 575/575/575
f 574/574/574 575/575/575 573/573/573
f 576/576/576 569/569/569 575/575/575
f 574/574/574 577/577/577 575/575/575
f 578/578/578 576/576/576 575/575/575
f 577/577/577 579/579/579 575/575/575
f 579/579/579 578/578/578 575/575/575
f 577/577/577 580/580/580 579/579/579
f 579/579/579 581/581/581 578/578/578
f 580/580/580 581/581/581 579/579/579
f 580/580/580 582/582/582 581/581/581
f 581/581/581 583/583/583 578/578/578
f 582/582/582 584/584/584 581/581/581
f 583/583/583 581/581/581 584/584/584
f 585/585/585 583/583/583 584/584/584
f 588/588/588 587/587/587 586/586/586
f 587/587/587 589/589/589 586/586/586
f 587/587/587 590/590/590 589/589/589
f 590/590/590 591/591/591 589/589/589
f 591/591/591 592/592/592 589/589/589
f 589/589/589 593/593/593 586/586/586
f 592/592/592 593/593/593 589/589/589
f 593/593/593 594/594/594 586/586/586
f 594/594/594 593/593/593 595/595/595
f 593/593/593 592/592/592 596/596/596
f 593/593/593 596/596/596 595/595/595
f 595/595/595 596/596/596 597/597/597
f 592/592/592 598/598/598 596/596/596
f 596/596/596 599/599/599 597/597/597
f 596/596/596 598/598/598 599/599/599
f 598/598/598 600/600/600 599/599/599
f 603/603/603 602/602/602 601/601/601
f 604/604/604 603/603/603 601/601/601
f 605/605/605 603/603/603 604/604/604
f 606/606/606 605/605/605 604/604/604
f 601/601/601 607/607/607 604/604/604
f 606/606/606 604/604/604 608/608/608
f 607/607/607 608/608/608 604/604/604
f 609/609/609 606/606/606 608/608/608
f 608/608/608 607/607/607 610/610/610
f 609/609/609 608/608/608 610/610/610
f 607/607/607 611/611/611 610/610/610
f 612/612/612 609/609/609 610/610/610
f 611/611/611 613/613/613 610/610/610
f 612/612/612 610/610/610 614/614/614
f 613/613/613 614/614/614 610/610/610
f 615/615/615 612/612/612 614/614/614
f 614/614/614 613/613/613 616/616/616
f 615/615/615 614/614/614 616/616/616
f 613/613/613 617/617/617 616/616/616
f 618/618/618 615/615/615 616/616/616
f 616/616/616 617/617/617 619/619/619
f 618/618/618 616/616/616 619/619/619
f 617/617/617 620/620/620 619/619/619
f 621/621/621 618/618/618 619/619/619
f 624/624/624 623/623/623 622/622/622
f 625/625/625 624/624/624 622/622/622
f 622/622/622 626/626/626 625/625/625
f 625/625/625 627/627/627 624/624/624
f 627/627/627 628/628/628 624/624/624
f 629/629/629 627/627/627 625/625/625
f 626/626/626 630/630/630 625/625/625
f 630/630/630 629/629/629 625/625/625
f 630/630/630 626/626/626 631/631/631
f 632/632/632 629/629/629 630/630/630
f 633/633/633 630/630/630 631/631/631
f 633/633/633 632/632/632 630/630/630
f 633/633/633 631/631/631 634/634/634
f 632/632/632 633/633/633 634/634/634
f 631/631/631 635/635/635 634/634/634
f 636/636/636 632/632/632 634/634/634
