g Plane001
v 8.44942665 5.45797062 50.3834724
v 10.6626682 6.37793016 49.533947
v 5.61610031 6.12938404 52.3847084
v 7.67237329 6.8605051 51.4689369
v 13.373867 9.86282158 49.7127647
v 2.72719622 6.93455029 54.3556137
v 9.90366173 9.79250622 51.815403
v 14.1738834 13.6605368 50.7956886
v 4.63394213 7.46907902 53.3881836
v -0.224372342 7.88728905 56.3140945
v 10.3991728 13.2278128 53.3657455
v 12.8157644 15.623127 51.5299454
v 6.40758419 9.79027653 53.7936897
v 1.53645504 8.2235508 55.3108292
v -3.25126433 9.00336647 58.2889137
v 8.97996521 15.2458134 54.7280693
v 9.98992538 16.38517 51.7164154
v 6.69601297 12.670619 55.4464073
v 2.87308359 9.88949871 55.6724167
v -1.63627529 9.14657021 57.2659569
v -6.37215996 10.2995329 60.318718
v -4.90555477 10.2621984 59.2908096
v -0.717670918 10.1331301 57.4862022
v -4.38779545 10.570282 59.2758293
v 6.22003412 16.1389523 55.5020561
v 6.17046499 15.9698744 51.274025
v 5.34283352 14.6089125 57.0969849
v 3.05923033 12.0326328 57.0837135
v -0.530469954 11.3831348 58.3586197
v -4.10400391 10.8089552 59.3670006
v 2.63853669 15.8563929 55.3368263
v 2.05522656 14.5959148 50.1218758
v 2.80459785 15.5452681 58.1448593
v 1.89359915 13.758152 58.7166138
v -1.40083694 12.7733469 59.7271461
v -4.58884478 11.7543335 60.2905769
v -1.10258853 14.5654459 54.0707092
v -1.55760717 12.606142 48.167717
v -0.43031171 15.3665438 58.1039085
v -0.297677964 14.6605406 59.802166
v -3.14875269 13.5732708 60.6840706
v -5.82133818 12.3857279 61.0063858
v -4.35571146 12.5827885 51.7802124
v -4.16043425 10.3353872 45.5902061
v -3.78119707 14.1821356 56.7812538
v -3.1135323 14.5709209 59.8124962
v -5.49918127 13.5613337 60.7151566
v -7.67646408 12.4336128 61.0403595
v -6.72426462 10.2289381 48.8056145
v -5.74186087 8.04443264 42.8153839
v -6.71809053 12.255971 54.3220367
v -6.07660484 13.524229 58.5208855
v -8.08577251 12.6791916 59.5355721
v -9.89903927 11.7314138 60.0267982
v -8.16949272 7.74191809 45.5940971
v -6.36534405 5.31130981 39.3853569
v -8.90285969 9.86814213 51.1158257
v -8.74342346 11.7050276 56.0482063
v -10.5254402 11.0106764 57.1716652
v -12.147254 10.2469902 57.8530807
v -8.65958118 4.8558898 41.9239349
v -6.32319546 3.12444806 36.7336006
v -10.2483835 7.22487688 47.6028595
v -10.7941132 9.33312607 52.7551537
v -12.4875278 8.70143127 53.9050751
v -14.0600548 8.0422411 54.6911278
v -8.46703434 2.30388737 38.8535042
v -5.32177591 0.424622148 33.3878059
v -10.6392231 4.21675968 43.8071213
v -12.0775108 6.57642937 49.0614281
v -13.7451191 5.87527561 50.1283455
v -15.3253326 5.19077778 50.9011917
v -7.35673714 -0.588174939 35.4640198
v -3.69963312 -2.12148595 30.2041187
v -10.3203087 1.31887448 40.4348564
v -12.4000673 3.47631168 45.2330551
v -14.026144 2.71190262 46.3364716
v -15.5869474 1.99220705 47.1910896
v -5.63726759 -3.31552482 32.3201828
v -2.41818714 -3.65123439 28.2905769
v -9.12210655 -1.76007545 37.0789909
v -11.9753885 0.249166191 41.6618195
v -13.5122232 -0.829502821 42.6551781
v -14.9961414 -1.84900653 43.4746513
v -3.92878652 -5.26099348 30.0293236
v 0.140678227 -5.60338497 25.3557796
v -7.32383108 -4.6704731 34.0420074
v -10.7018795 -3.01922035 38.399025
v -12.1688385 -4.29597664 39.5343094
v -13.5822735 -5.52649498 40.5395737
v -1.19039559 -7.31813908 27.1919422
v 3.07676244 -7.1806531 22.4697762
v -5.25026608 -7.01499653 31.5521355
v -8.8336277 -6.1253624 35.5180283
v -10.2313614 -7.61962795 36.8492928
v -11.5703545 -9.0960741 38.0874596
v 1.95751619 -8.94857788 24.3799419
v 6.31308413 -8.34516621 19.6089897
v -2.36212564 -9.17104626 28.8917427
v -6.43922853 -8.87201977 32.9740715
v -7.54493618 -10.7910213 34.3724022
v -8.60808563 -12.7323418 35.7820663
v 5.44415617 -10.1126337 21.5344486
v 9.75892353 -9.07806587 16.7857418
v 0.965533316 -10.8404293 26.2354069
v -3.41930294 -11.1345215 30.550848
v -4.40158033 -13.1800232 32.2367363
v -5.34285975 -15.2790346 33.9811821
v 9.17691612 -10.7934608 18.6474266
v 13.3139362 -9.3803606 14.0428476
v 4.66896439 -11.9819031 23.4800739
v 0.0674191415 -12.8402033 28.1153278
v -0.767128348 -14.9307346 30.0811462
v -1.56492925 -17.0942268 32.1687508
v 13.0454845 -10.9972029 15.7643261
v 16.8762856 -9.27229595 11.4374619
v 8.6546917 -12.5834112 20.5849991
v 3.96461225 -13.9456062 25.5101204
v 3.30984902 -15.9955816 27.6806545
v 2.68522525 -18.1228809 30.0343609
v 16.932354 -10.75144 12.9663448
v 20.3528671 -8.78946781 9.02258682
v 12.803133 -12.6603174 17.5916042
v 8.17872524 -14.446002 22.6462765
v 7.73611689 -16.3790073 24.8771782
v 7.31482458 -18.3796711 27.3195839
v 20.7265377 -10.1000576 10.3410931
v 23.666708 -7.97710848 6.83482933
v 16.9811974 -12.2516136 14.6089363
v 12.5815001 -14.3705301 19.5528488
v 12.3752022 -16.1286812 21.6769886
v 12.1789818 -17.935482 23.9931431
v 24.3346157 -9.09583855 7.95741653
v 26.7617455 -6.88408661 4.89056396
v 21.0592022 -11.4125423 11.7706375
v 17.0242958 -13.7745819 16.3728447
v 17.0628242 -15.3221998 18.2669621
v 17.0976391 -16.8964405 20.3013535
v 27.6883812 -7.7929225 5.85375214
v 29.603426 -5.55904531 3.18927479
v 24.9263191 -10.2043848 9.19011784
v 21.3582706 -12.7284031 13.3016748
v 21.6304855 -14.049345 14.9264116
v 21.8819828 -15.3773308 16.6387653
v 30.7470398 -6.24293184 4.03965139
v 32.1766357 -4.04919767 1.7191416
v 28.5014286 -8.68542767 6.93551922
v 25.4541092 -11.3031549 10.5124283
v 25.9293613 -12.3927612 11.9071293
v 26.3624783 -13.4745188 13.3597984
v 33.4952774 -4.49549007 2.50365186
v 34.481926 -2.40048599 0.462271005
v 31.7372627 -6.90765715 5.02836561
v 29.2166843 -9.5597868 8.11106777
v 29.8488255 -10.4144478 9.36052513
v 30.4113102 -11.2490807 10.6684046
v 35.9388847 -2.60072184 1.22143936
v 36.5302544 -0.658220291 -0.601840556
v 34.6193733 -4.92046881 3.45437837
v 32.5916405 -7.54746342 6.13088799
v 33.3264122 -8.15684795 7.32900667
v 33.9564629 -8.73205757 8.60964489
v 38.0979538 -0.611156464 0.162330985
v 38.3374252 1.13363934 -1.49356401
v 37.1612854 -2.77718234 2.17622185
v 35.5661011 -5.31240749 4.5486002
v 36.3507118 -5.66002321 5.7703824
v 36.9873314 -5.95417309 7.10926199
v 39.9992332 1.41970873 -0.704566658
v 40.8561592 3.75840306 -2.40875244
v 42.3509407 4.02567959 -1.42683053
v 39.3960991 -0.538785696 1.14530599
v 38.1634445 -2.91097879 3.30386806
v 38.9576454 -2.98354816 4.5883112
v 39.5542793 -2.98002267 6.02020788
v 41.3659515 1.72893012 0.314337969
v 43.5490417 4.31459856 -0.264598966
v 40.4344635 -0.415205657 2.3194952
v 41.2202377 -0.215220973 3.66475344
v 41.7581444 0.0803361833 5.17181158
v 42.4423828 2.09263802 1.52458835
v 44.455555 4.66161013 1.03388107
v 43.230011 2.54059839 2.89739704
v 43.726963 3.09357858 4.42275906
v 45.0716743 5.09789658 2.44270396
v 45.3941727 5.64076567 3.96473503
vt 1.00000036 0
vt 0.974342942 0
vt 1.00000036 0.200000003
vt 0.974342942 0.200000003
vt 0.948685527 0
vt 1.00000036 0.400000006
vt 0.948685527 0.200000003
vt 0.923028052 0
vt 0.974342942 0.400000006
vt 1.00000036 0.600000024
vt 0.923028052 0.200000003
vt 0.897370636 0
vt 0.948685527 0.400000006
vt 0.974342942 0.600000024
vt 1.00000036 0.800000012
vt 0.897370636 0.200000003
vt 0.871713221 0
vt 0.923028052 0.400000006
vt 0.948685527 0.600000024
vt 0.974342942 0.800000012
vt 1.00000036 1
vt 0.974342942 1
vt 0.948685527 0.800000012
vt 0.948685527 1
vt 0.871713221 0.200000003
vt 0.846055746 0
vt 0.897370636 0.400000006
vt 0.923028052 0.600000024
vt 0.923028052 0.800000012
vt 0.923028052 1
vt 0.846055746 0.200000003
vt 0.820398331 0
vt 0.871713221 0.400000006
vt 0.897370636 0.600000024
vt 0.897370636 0.800000012
vt 0.897370636 1
vt 0.820398331 0.200000003
vt 0.794740915 0
vt 0.846055746 0.400000006
vt 0.871713221 0.600000024
vt 0.871713221 0.800000012
vt 0.871713221 1
vt 0.794740915 0.200000003
vt 0.76908344 0
vt 0.820398331 0.400000006
vt 0.846055746 0.600000024
vt 0.846055746 0.800000012
vt 0.846055746 1
vt 0.76908344 0.200000003
vt 0.743426025 0
vt 0.794740915 0.400000006
vt 0.820398331 0.600000024
vt 0.820398331 0.800000012
vt 0.820398331 1
vt 0.743426025 0.200000003
vt 0.71776861 0
vt 0.76908344 0.400000006
vt 0.794740915 0.600000024
vt 0.794740915 0.800000012
vt 0.794740915 1
vt 0.71776861 0.200000003
vt 0.692111135 0
vt 0.743426025 0.400000006
vt 0.76908344 0.600000024
vt 0.76908344 0.800000012
vt 0.76908344 1
vt 0.692111135 0.200000003
vt 0.666453719 0
vt 0.71776861 0.400000006
vt 0.743426025 0.600000024
vt 0.743426025 0.800000012
vt 0.743426025 1
vt 0.666453719 0.200000003
vt 0.639005542 0.00436222553
vt 0.692111135 0.400000006
vt 0.71776861 0.600000024
vt 0.71776861 0.800000012
vt 0.71776861 1
vt 0.639005542 0.202617332
vt 0.613571942 0.00436222553
vt 0.666453719 0.400000006
vt 0.692111135 0.600000024
vt 0.692111135 0.800000012
vt 0.692111135 1
vt 0.613571942 0.202617332
vt 0.588138342 0.00436222553
vt 0.639005542 0.400872439
vt 0.666453719 0.600000024
vt 0.666453719 0.800000012
vt 0.666453719 1
vt 0.588138342 0.202617332
vt 0.562704802 0.00436222553
vt 0.613571942 0.400872439
vt 0.639005542 0.599127591
vt 0.639005542 0.797382653
vt 0.639005542 0.995637774
vt 0.562704802 0.202617332
vt 0.537271261 0.00436222553
vt 0.588138342 0.400872439
vt 0.613571942 0.599127591
vt 0.613571942 0.797382653
vt 0.613571942 0.995637774
vt 0.537271261 0.202617332
vt 0.511837721 0.00784497708
vt 0.562704802 0.400872439
vt 0.588138342 0.599127591
vt 0.588138342 0.797382653
vt 0.588138342 0.995637774
vt 0.511837721 0.205403537
vt 0.465201855 0.00784497708
vt 0.537271261 0.400872439
vt 0.562704802 0.599127591
vt 0.562704802 0.797382653
vt 0.562704802 0.995637774
vt 0.465201855 0.205403537
vt 0.418566048 0.00784497708
vt 0.511837721 0.402962089
vt 0.537271261 0.599127591
vt 0.537271261 0.797382653
vt 0.537271261 0.995637774
vt 0.418566048 0.205403537
vt 0.371930271 0.00784497708
vt 0.465201855 0.402962089
vt 0.511837721 0.60052067
vt 0.511837721 0.798079193
vt 0.511837721 0.995637774
vt 0.371930271 0.205403537
vt 0.325294465 0.00784497708
vt 0.418566048 0.402962089
vt 0.465201855 0.60052067
vt 0.465201855 0.798079193
vt 0.465201855 0.995637774
vt 0.325294465 0.205403537
vt 0.278658569 0.00784497708
vt 0.371930271 0.402962089
vt 0.418566048 0.60052067
vt 0.418566048 0.798079193
vt 0.418566048 0.995637774
vt 0.278658569 0.205403537
vt 0.232022807 0.00784497708
vt 0.325294465 0.402962089
vt 0.371930271 0.60052067
vt 0.371930271 0.798079193
vt 0.371930271 0.995637774
vt 0.232022807 0.205403537
vt 0.185387 0.00784497708
vt 0.278658569 0.402962089
vt 0.325294465 0.60052067
vt 0.325294465 0.798079193
vt 0.325294465 0.995637774
vt 0.185387 0.205403537
vt 0.138751149 0.00784497708
vt 0.232022807 0.402962089
vt 0.278658569 0.60052067
vt 0.278658569 0.798079193
vt 0.278658569 0.995637774
vt 0.138751149 0.205403537
vt 0.0921153724 0.00784497708
vt 0.185387 0.402962089
vt 0.232022807 0.60052067
vt 0.232022807 0.798079193
vt 0.232022807 0.995637774
vt 0.0921153724 0.205403537
vt 0.0454795659 0.00784497708
vt 0.138751149 0.402962089
vt 0.185387 0.60052067
vt 0.185387 0.798079193
vt 0.185387 0.995637774
vt 0.0454795659 0.205403537
vt -0.0011562407 0.00784497708
vt -0.0011562407 0.205403537
vt 0.0921153724 0.402962089
vt 0.138751149 0.60052067
vt 0.138751149 0.798079193
vt 0.138751149 0.995637774
vt 0.0454795659 0.402962089
vt -0.0011562407 0.402962089
vt 0.0921153724 0.60052067
vt 0.0921153724 0.798079193
vt 0.0921153724 0.995637774
vt 0.0454795659 0.60052067
vt -0.0011562407 0.60052067
vt 0.0454795659 0.798079193
vt 0.0454795659 0.995637774
vt -0.0011562407 0.798079193
vt -0.0011562407 0.995637774
vn -0.0501254685 -0.300752819 -0.952383935
vn -0.0124863517 -0.274699748 -0.961449027
vn 0.00645215064 -0.296798915 -0.954918206
vn 0.0259915665 -0.272911459 -0.961687982
vn 0.037230473 -0.248203143 -0.967992306
vn 0.0253816098 -0.342651755 -0.939119637
vn 0.0565814003 -0.289193809 -0.955596924
vn 0.0355085507 -0.319576949 -0.946894765
vn 0.0584009439 -0.272537738 -0.960371077
vn 0.03571935 -0.369099945 -0.92870307
vn 0.0707970411 -0.296060354 -0.952541888
vn 0.137093619 -0.361428589 -0.922266126
vn 0.0541569516 -0.264767349 -0.96279031
vn 0.0662206188 -0.337123156 -0.939128757
vn 0.0484040231 -0.326727152 -0.943878412
vn 0.145859137 -0.380502075 -0.913205028
vn 0.252148211 -0.411399722 -0.875883222
vn 0.122990876 -0.25892818 -0.958034217
vn 0.0812865272 -0.300134808 -0.950427055
vn 0.074187234 -0.333842576 -0.939704955
vn 0.0490585268 -0.416997433 -0.9075827
vn 0.0668692216 -0.360512316 -0.930354357
vn 0.131159529 -0.301666915 -0.944348574
vn 0.138703376 -0.320558876 -0.937018335
vn 0.227456614 -0.405733407 -0.885236561
vn 0.352437168 -0.469916224 -0.809300125
vn 0.152526945 -0.341660351 -0.927363873
vn 0.100243069 -0.288198799 -0.952309072
vn 0.116032839 -0.280921608 -0.952690661
vn 0.124835022 -0.278701454 -0.952229857
vn 0.364590317 -0.45424366 -0.812857091
vn 0.472784013 -0.491695434 -0.731239319
vn 0.233986437 -0.39597702 -0.887948453
vn 0.15494512 -0.29749462 -0.942066312
vn 0.167224541 -0.322504461 -0.931679547
vn 0.170124993 -0.322342098 -0.931210518
vn 0.466196269 -0.490732908 -0.736099362
vn 0.554122031 -0.473182827 -0.684869945
vn 0.349194914 -0.40940088 -0.842884243
vn 0.235702261 -0.377123624 -0.895668566
vn 0.261156857 -0.360645175 -0.895394981
vn 0.25992614 -0.380379736 -0.887552619
vn 0.564043581 -0.48346591 -0.669414282
vn 0.664918542 -0.463612914 -0.585616291
vn 0.46590519 -0.44430691 -0.765195251
vn 0.348312795 -0.419208348 -0.838416696
vn 0.347057045 -0.458611131 -0.81806308
vn 0.360903203 -0.407172859 -0.839022756
vn 0.735243082 -0.431342602 -0.522839546
vn 0.811604917 -0.442693591 -0.38120839
vn 0.52881074 -0.45412001 -0.717031538
vn 0.44998315 -0.437821448 -0.778349221
vn 0.409516692 -0.436032116 -0.801356375
vn 0.459602654 -0.435413092 -0.7740677
vn 0.882285297 -0.383871496 -0.272424936
vn 0.957613826 -0.286972225 -0.0249541067
vn 0.733062208 -0.455004156 -0.50556016
vn 0.579436064 -0.443284422 -0.683924496
vn 0.560034037 -0.468277037 -0.683431387
vn 0.581700623 -0.448394269 -0.678650796
vn 0.959260583 -0.247551143 0.136153132
vn 0.896796346 -0.110186577 0.428503364
vn 0.880621374 -0.418756992 -0.221694902
vn 0.69810015 -0.42960006 -0.572800159
vn 0.703799009 -0.471213102 -0.531625092
vn 0.797660053 -0.468466997 -0.379838109
vn 0.84795171 0.061223954 0.526525974
vn 0.766180992 0.158730716 0.622712791
vn 0.949919701 -0.208369464 0.232883543
vn 0.890106738 -0.405152023 -0.208714694
vn 0.886497736 -0.431269169 -0.167715788
vn 0.922487497 -0.356695175 0.147597998
vn 0.683310449 0.168569982 0.710402071
vn 0.616315663 0.267171293 0.740793169
vn 0.810298026 0.0365548022 0.584876835
vn 0.932649732 -0.222353578 0.284118503
vn 0.877130985 -0.136857316 0.460338324
vn 0.724154055 -0.0482769385 0.687946379
vn 0.612191796 0.283023357 0.738321781
vn 0.515165746 0.364667863 0.775642753
vn 0.684642196 0.164821267 0.709999263
vn 0.754500508 0.0484819598 0.654506385
vn 0.687059581 0.111415066 0.71800822
vn 0.59385103 0.118770197 0.795760334
vn 0.53293997 0.328900129 0.779615104
vn 0.489379972 0.441635609 0.751974165
vn 0.537207663 0.325228423 0.778225124
vn 0.591584384 0.243952334 0.768449843
vn 0.531577468 0.230350241 0.815085411
vn 0.506398499 0.250073284 0.825241864
vn 0.445215583 0.433343172 0.783579409
vn 0.467764229 0.496999502 0.730881631
vn 0.473491192 0.389250427 0.790120304
vn 0.487145543 0.338376552 0.805102825
vn 0.491849422 0.340044051 0.801532388
vn 0.465443671 0.335119396 0.819180787
vn 0.456546873 0.507908463 0.730475068
vn 0.442479759 0.542775214 0.713867426
vn 0.438254923 0.450600117 0.777748168
vn 0.442819446 0.419513136 0.792413771
vn 0.439219028 0.426669955 0.79059428
vn 0.414063573 0.459399045 0.785814106
vn 0.44113943 0.555721104 0.704677284
vn 0.451360971 0.599979818 0.660528243
vn 0.422108203 0.51255995 0.747734547
vn 0.43552798 0.495189339 0.751733243
vn 0.409620076 0.496327966 0.76542145
vn 0.389055222 0.510997891 0.766496778
vn 0.408823162 0.621871769 0.667936444
vn 0.454133689 0.643356025 0.616324246
vn 0.42713955 0.559899151 0.709975123
vn 0.411935776 0.529631793 0.741484463
vn 0.378797919 0.547800124 0.745940506
vn 0.389981091 0.584971666 0.711142063
vn 0.438576132 0.646618664 0.624127567
vn 0.382614642 0.680828989 0.624562144
vn 0.426241368 0.619987369 0.658736646
vn 0.395345658 0.595883369 0.699017048
vn 0.400897682 0.618527889 0.675798953
vn 0.391453534 0.639557838 0.661611557
vn 0.443840146 0.692823708 0.568332016
vn 0.442494333 0.69975847 0.560835779
vn 0.462332219 0.655866623 0.596731126
vn 0.415645033 0.640318036 0.64593488
vn 0.434999347 0.666264772 0.605695248
vn 0.413247973 0.7132774 0.566093206
vn 0.434855729 0.715920985 0.546221197
vn 0.39949131 0.735904992 0.546672285
vn 0.434300303 0.70441395 0.561412692
vn 0.43210429 0.696768165 0.572538197
vn 0.41973716 0.710324466 0.565030813
vn 0.418532997 0.740481496 0.525849164
vn 0.426447541 0.743682921 0.514857411
vn 0.39949131 0.735904992 0.546672285
vn 0.388265759 0.754961133 0.528472781
vn 0.430708855 0.730104089 0.530507267
vn 0.439429432 0.737613618 0.512667596
vn 0.450416863 0.755699337 0.475439966
vn 0.357621193 0.762574613 0.539061368
vn 0.342686951 0.749627709 0.566236615
vn 0.40713653 0.768470228 0.493653059
vn 0.418236732 0.76506716 0.489642978
vn 0.406952173 0.778295994 0.478168786
vn 0.415324301 0.790129185 0.450778842
vn 0.354272395 0.765853584 0.536618471
vn 0.333691061 0.756018817 0.563103676
vn 0.378709823 0.79230082 0.478370279
vn 0.396824539 0.783474088 0.478224427
vn 0.369678229 0.806103945 0.462097824
vn 0.375841767 0.825862885 0.42034936
vn 0.29687342 0.773991406 0.559288323
vn 0.265921265 0.731283486 0.628100455
vn 0.312677115 0.802537918 0.508100331
vn 0.360486954 0.811095715 0.460622281
vn 0.340323448 0.830789626 0.440418541
vn 0.360887319 0.845236182 0.394126952
vn 0.238498792 0.769700706 0.592181683
vn 0.227434322 0.716418087 0.659559548
vn 0.310393512 0.796676636 0.518615782
vn 0.318941265 0.832237422 0.453494608
vn 0.281346679 0.849063993 0.447140217
vn 0.265551686 0.873256385 0.408540994
vn 0.161370382 0.737693191 0.655567169
vn 0.16826044 0.6610232 0.731256902
vn 0.215499401 0.808122694 0.548176587
vn 0.215850756 0.831025302 0.512645483
vn 0.154738054 0.86763835 0.472503692
vn 0.112764224 0.896475554 0.42850405
vn 0.0974794552 0.694541156 0.712818563
vn 0.101438634 0.60863179 0.786941886
vn 0.0254696831 0.674946606 0.737426937
vn 0.119607121 0.77744627 0.617471755
vn 0.0945930332 0.839513183 0.535041809
vn 0.0489326343 0.880787432 0.470976651
vn -0.173290834 0.880895078 0.440447539
vn -0 0.745241284 0.666794837
vn -0.0859770253 0.716475248 0.69229424
vn 0.0250927694 0.840607762 0.541062772
vn -0.280509979 0.841529906 0.461672664
vn -0.502080679 0.788983822 0.354146153
vn -0.177296892 0.797836006 0.57621491
vn -0.344028771 0.739661813 0.578398287
vn -0.563827813 0.732976198 0.380583763
vn -0.769349754 0.619754016 0.154938504
vn -0.676625311 0.696526051 0.238808945
vn -0.909269333 0.413304269 -0.0490798801
g Plane001_0
f 3/3/3 2/2/2 1/1/1
f 2/2/2 3/3/3 4/4/4
f 4/4/4 5/5/5 2/2/2
f 6/6/6 4/4/4 3/3/3
f 5/5/5 4/4/4 7/7/7
f 7/7/7 8/8/8 5/5/5
f 4/4/4 6/6/6 9/9/9
f 9/9/9 7/7/7 4/4/4
f 10/10/10 9/9/9 6/6/6
f 8/8/8 7/7/7 11/11/11
f 11/11/11 12/12/12 8/8/8
f 7/7/7 9/9/9 13/13/13
f 13/13/13 11/11/11 7/7/7
f 9/9/9 10/10/10 14/14/14
f 14/14/14 13/13/13 9/9/9
f 15/15/15 14/14/14 10/10/10
f 12/12/12 11/11/11 16/16/16
f 16/16/16 17/17/17 12/12/12
f 11/11/11 13/13/13 18/18/18
f 18/18/18 16/16/16 11/11/11
f 13/13/13 14/14/14 19/19/19
f 19/19/19 18/18/18 13/13/13
f 14/14/14 15/15/15 20/20/20
f 20/20/20 19/19/19 14/14/14
f 21/21/21 20/20/20 15/15/15
f 20/20/20 21/21/21 22/22/22
f 22/22/22 23/23/23 20/20/20
f 19/19/19 20/20/20 23/23/23
f 23/23/23 22/22/22 24/24/24
f 17/17/17 16/16/16 25/25/25
f 25/25/25 26/26/26 17/17/17
f 16/16/16 18/18/18 27/27/27
f 27/27/27 25/25/25 16/16/16
f 18/18/18 19/19/19 28/28/28
f 23/23/23 28/28/28 19/19/19
f 28/28/28 27/27/27 18/18/18
f 24/24/24 29/29/29 23/23/23
f 28/28/28 23/23/23 29/29/29
f 29/29/29 24/24/24 30/30/30
f 26/26/26 25/25/25 31/31/31
f 31/31/31 32/32/32 26/26/26
f 25/25/25 27/27/27 33/33/33
f 33/33/33 31/31/31 25/25/25
f 27/27/27 28/28/28 34/34/34
f 29/29/29 34/34/34 28/28/28
f 34/34/34 33/33/33 27/27/27
f 30/30/30 35/35/35 29/29/29
f 34/34/34 29/29/29 35/35/35
f 35/35/35 30/30/30 36/36/36
f 32/32/32 31/31/31 37/37/37
f 37/37/37 38/38/38 32/32/32
f 31/31/31 33/33/33 39/39/39
f 39/39/39 37/37/37 31/31/31
f 33/33/33 34/34/34 40/40/40
f 35/35/35 40/40/40 34/34/34
f 40/40/40 39/39/39 33/33/33
f 36/36/36 41/41/41 35/35/35
f 40/40/40 35/35/35 41/41/41
f 41/41/41 36/36/36 42/42/42
f 38/38/38 37/37/37 43/43/43
f 43/43/43 44/44/44 38/38/38
f 37/37/37 39/39/39 45/45/45
f 45/45/45 43/43/43 37/37/37
f 39/39/39 40/40/40 46/46/46
f 41/41/41 46/46/46 40/40/40
f 46/46/46 45/45/45 39/39/39
f 42/42/42 47/47/47 41/41/41
f 46/46/46 41/41/41 47/47/47
f 47/47/47 42/42/42 48/48/48
f 44/44/44 43/43/43 49/49/49
f 49/49/49 50/50/50 44/44/44
f 43/43/43 45/45/45 51/51/51
f 51/51/51 49/49/49 43/43/43
f 45/45/45 46/46/46 52/52/52
f 47/47/47 52/52/52 46/46/46
f 52/52/52 51/51/51 45/45/45
f 48/48/48 53/53/53 47/47/47
f 52/52/52 47/47/47 53/53/53
f 53/53/53 48/48/48 54/54/54
f 50/50/50 49/49/49 55/55/55
f 55/55/55 56/56/56 50/50/50
f 49/49/49 51/51/51 57/57/57
f 57/57/57 55/55/55 49/49/49
f 51/51/51 52/52/52 58/58/58
f 53/53/53 58/58/58 52/52/52
f 58/58/58 57/57/57 51/51/51
f 54/54/54 59/59/59 53/53/53
f 58/58/58 53/53/53 59/59/59
f 59/59/59 54/54/54 60/60/60
f 56/56/56 55/55/55 61/61/61
f 61/61/61 62/62/62 56/56/56
f 55/55/55 57/57/57 63/63/63
f 63/63/63 61/61/61 55/55/55
f 57/57/57 58/58/58 64/64/64
f 59/59/59 64/64/64 58/58/58
f 64/64/64 63/63/63 57/57/57
f 60/60/60 65/65/65 59/59/59
f 64/64/64 59/59/59 65/65/65
f 65/65/65 60/60/60 66/66/66
f 62/62/62 61/61/61 67/67/67
f 67/67/67 68/68/68 62/62/62
f 61/61/61 63/63/63 69/69/69
f 69/69/69 67/67/67 61/61/61
f 63/63/63 64/64/64 70/70/70
f 65/65/65 70/70/70 64/64/64
f 70/70/70 69/69/69 63/63/63
f 66/66/66 71/71/71 65/65/65
f 70/70/70 65/65/65 71/71/71
f 71/71/71 66/66/66 72/72/72
f 68/68/68 67/67/67 73/73/73
f 73/73/73 74/74/74 68/68/68
f 67/67/67 69/69/69 75/75/75
f 75/75/75 73/73/73 67/67/67
f 69/69/69 70/70/70 76/76/76
f 71/71/71 76/76/76 70/70/70
f 76/76/76 75/75/75 69/69/69
f 72/72/72 77/77/77 71/71/71
f 76/76/76 71/71/71 77/77/77
f 77/77/77 72/72/72 78/78/78
f 74/74/74 73/73/73 79/79/79
f 79/79/79 80/80/80 74/74/74
f 73/73/73 75/75/75 81/81/81
f 81/81/81 79/79/79 73/73/73
f 75/75/75 76/76/76 82/82/82
f 77/77/77 82/82/82 76/76/76
f 82/82/82 81/81/81 75/75/75
f 78/78/78 83/83/83 77/77/77
f 82/82/82 77/77/77 83/83/83
f 83/83/83 78/78/78 84/84/84
f 80/80/80 79/79/79 85/85/85
f 85/85/85 86/86/86 80/80/80
f 79/79/79 81/81/81 87/87/87
f 87/87/87 85/85/85 79/79/79
f 81/81/81 82/82/82 88/88/88
f 83/83/83 88/88/88 82/82/82
f 88/88/88 87/87/87 81/81/81
f 84/84/84 89/89/89 83/83/83
f 88/88/88 83/83/83 89/89/89
f 89/89/89 84/84/84 90/90/90
f 86/86/86 85/85/85 91/91/91
f 91/91/91 92/92/92 86/86/86
f 85/85/85 87/87/87 93/93/93
f 93/93/93 91/91/91 85/85/85
f 87/87/87 88/88/88 94/94/94
f 89/89/89 94/94/94 88/88/88
f 94/94/94 93/93/93 87/87/87
f 90/90/90 95/95/95 89/89/89
f 94/94/94 89/89/89 95/95/95
f 95/95/95 90/90/90 96/96/96
f 92/92/92 91/91/91 97/97/97
f 97/97/97 98/98/98 92/92/92
f 91/91/91 93/93/93 99/99/99
f 99/99/99 97/97/97 91/91/91
f 93/93/93 94/94/94 100/100/100
f 95/95/95 100/100/100 94/94/94
f 100/100/100 99/99/99 93/93/93
f 96/96/96 101/101/101 95/95/95
f 100/100/100 95/95/95 101/101/101
f 101/101/101 96/96/96 102/102/102
f 98/98/98 97/97/97 103/103/103
f 103/103/103 104/104/104 98/98/98
f 97/97/97 99/99/99 105/105/105
f 105/105/105 103/103/103 97/97/97
f 99/99/99 100/100/100 106/106/106
f 101/101/101 106/106/106 100/100/100
f 106/106/106 105/105/105 99/99/99
f 102/102/102 107/107/107 101/101/101
f 106/106/106 101/101/101 107/107/107
f 107/107/107 102/102/102 108/108/108
f 104/104/104 103/103/103 109/109/109
f 109/109/109 110/110/110 104/104/104
f 103/103/103 105/105/105 111/111/111
f 111/111/111 109/109/109 103/103/103
f 105/105/105 106/106/106 112/112/112
f 107/107/107 112/112/112 106/106/106
f 112/112/112 111/111/111 105/105/105
f 108/108/108 113/113/113 107/107/107
f 112/112/112 107/107/107 113/113/113
f 113/113/113 108/108/108 114/114/114
f 110/110/110 109/109/109 115/115/115
f 115/115/115 116/116/116 110/110/110
f 109/109/109 111/111/111 117/117/117
f 117/117/117 115/115/115 109/109/109
f 111/111/111 112/112/112 118/118/118
f 113/113/113 118/118/118 112/112/112
f 118/118/118 117/117/117 111/111/111
f 114/114/114 119/119/119 113/113/113
f 118/118/118 113/113/113 119/119/119
f 119/119/119 114/114/114 120/120/120
f 116/116/116 115/115/115 121/121/121
f 121/121/121 122/122/122 116/116/116
f 115/115/115 117/117/117 123/123/123
f 123/123/123 121/121/121 115/115/115
f 117/117/117 118/118/118 124/124/124
f 119/119/119 124/124/124 118/118/118
f 124/124/124 123/123/123 117/117/117
f 120/120/120 125/125/125 119/119/119
f 124/124/124 119/119/119 125/125/125
f 125/125/125 120/120/120 126/126/126
f 122/122/122 121/121/121 127/127/127
f 127/127/127 128/128/128 122/122/122
f 121/121/121 123/123/123 129/129/129
f 129/129/129 127/127/127 121/121/121
f 123/123/123 124/124/124 130/130/130
f 125/125/125 130/130/130 124/124/124
f 130/130/130 129/129/129 123/123/123
f 126/126/126 131/131/131 125/125/125
f 130/130/130 125/125/125 131/131/131
f 131/131/131 126/126/126 132/132/132
f 128/128/128 127/127/127 133/133/133
f 133/133/133 134/134/134 128/128/128
f 127/127/127 129/129/129 135/135/135
f 135/135/135 133/133/133 127/127/127
f 129/129/129 130/130/130 136/136/136
f 131/131/131 136/136/136 130/130/130
f 136/136/136 135/135/135 129/129/129
f 132/132/132 137/137/137 131/131/131
f 136/136/136 131/131/131 137/137/137
f 137/137/137 132/132/132 138/138/138
f 134/134/134 133/133/133 139/139/139
f 139/139/139 140/140/140 134/134/134
f 133/133/133 135/135/135 141/141/141
f 141/141/141 139/139/139 133/133/133
f 135/135/135 136/136/136 142/142/142
f 137/137/137 142/142/142 136/136/136
f 142/142/142 141/141/141 135/135/135
f 138/138/138 143/143/143 137/137/137
f 142/142/142 137/137/137 143/143/143
f 143/143/143 138/138/138 144/144/144
f 140/140/140 139/139/139 145/145/145
f 145/145/145 146/146/146 140/140/140
f 139/139/139 141/141/141 147/147/147
f 147/147/147 145/145/145 139/139/139
f 141/141/141 142/142/142 148/148/148
f 143/143/143 148/148/148 142/142/142
f 148/148/148 147/147/147 141/141/141
f 144/144/144 149/149/149 143/143/143
f 148/148/148 143/143/143 149/149/149
f 149/149/149 144/144/144 150/150/150
f 146/146/146 145/145/145 151/151/151
f 151/151/151 152/152/152 146/146/146
f 145/145/145 147/147/147 153/153/153
f 153/153/153 151/151/151 145/145/145
f 147/147/147 148/148/148 154/154/154
f 149/149/149 154/154/154 148/148/148
f 154/154/154 153/153/153 147/147/147
f 150/150/150 155/155/155 149/149/149
f 154/154/154 149/149/149 155/155/155
f 155/155/155 150/150/150 156/156/156
f 152/152/152 151/151/151 157/157/157
f 157/157/157 158/158/158 152/152/152
f 151/151/151 153/153/153 159/159/159
f 159/159/159 157/157/157 151/151/151
f 153/153/153 154/154/154 160/160/160
f 155/155/155 160/160/160 154/154/154
f 160/160/160 159/159/159 153/153/153
f 156/156/156 161/161/161 155/155/155
f 160/160/160 155/155/155 161/161/161
f 161/161/161 156/156/156 162/162/162
f 158/158/158 157/157/157 163/163/163
f 163/163/163 164/164/164 158/158/158
f 157/157/157 159/159/159 165/165/165
f 165/165/165 163/163/163 157/157/157
f 159/159/159 160/160/160 166/166/166
f 161/161/161 166/166/166 160/160/160
f 166/166/166 165/165/165 159/159/159
f 162/162/162 167/167/167 161/161/161
f 166/166/166 161/161/161 167/167/167
f 167/167/167 162/162/162 168/168/168
f 164/164/164 163/163/163 169/169/169
f 169/169/169 170/170/170 164/164/164
f 170/170/170 169/169/169 171/171/171
f 163/163/163 165/165/165 172/172/172
f 172/172/172 169/169/169 163/163/163
f 165/165/165 166/166/166 173/173/173
f 167/167/167 173/173/173 166/166/166
f 173/173/173 172/172/172 165/165/165
f 168/168/168 174/174/174 167/167/167
f 173/173/173 167/167/167 174/174/174
f 174/174/174 168/168/168 175/175/175
f 176/176/176 171/171/171 169/169/169
f 169/169/169 172/172/172 176/176/176
f 171/171/171 176/176/176 177/177/177
f 172/172/172 173/173/173 178/178/178
f 174/174/174 178/178/178 173/173/173
f 178/178/178 176/176/176 172/172/172
f 175/175/175 179/179/179 174/174/174
f 178/178/178 174/174/174 179/179/179
f 179/179/179 175/175/175 180/180/180
f 181/181/181 177/177/177 176/176/176
f 176/176/176 178/178/178 181/181/181
f 179/179/179 181/181/181 178/178/178
f 177/177/177 181/181/181 182/182/182
f 180/180/180 183/183/183 179/179/179
f 181/181/181 179/179/179 183/183/183
f 183/183/183 182/182/182 181/181/181
f 183/183/183 180/180/180 184/184/184
f 182/182/182 183/183/183 185/185/185
f 184/184/184 185/185/185 183/183/183
f 185/185/185 184/184/184 186/186/186
