g Plane001
v 0.94973582 -3.55599999 2.62555311E-14
v 0.463305831 -3.66020823 6.45894945E-14
v 0.48928836 -3.41375971 4.73995267E-14
v 0.0109648341 -3.51183987 9.61736794E-14
v -0.0365334302 -3.75766134 1.21315298E-13
v 0.0810547397 -3.27151966 7.08538995E-14
v -0.478825986 -3.60356212 1.63543793E-13
v -0.542181611 -3.8534472 1.96078288E-13
v -0.390049249 -3.36371636 1.28761666E-13
v -0.281539977 -3.12928009 9.46706567E-14
v -0.973356664 -3.69371486 2.49202162E-13
v -1.04747343 -3.95265293 2.88560679E-13
v -1.4670763 -3.78708696 3.52898347E-13
v -0.871220052 -3.44993663 2.05444751E-13
v -0.746310651 -3.21583366 1.60400041E-13
v -0.603909671 -2.98704004 1.17285806E-13
v -1.35647845 -3.5346818 3.0064414E-13
v -1.8408215 -3.62245297 4.14177942E-13
v -1.22016132 -3.29677653 2.45061079E-13
v -1.06316531 -3.06818533 1.895301E-13
v -0.890543878 -2.8448 1.37484926E-13
v -1.69776964 -3.37633491 3.48442656E-13
v -2.17462325 -3.4587338 4.7043001E-13
v -1.5308286 -3.14407134 2.80840265E-13
v -1.34500122 -2.92076778 2.14951415E-13
v -1.14521301 -2.70255971 1.54370169E-13
v -2.00215316 -3.21865845 3.91051314E-13
v -2.47307348 -3.29590893 5.20112761E-13
v -1.80741811 -2.99181128 3.11597509E-13
v -1.59546852 -2.77357507 2.35788169E-13
v -1.37113047 -2.56032014 1.67328431E-13
v -2.27355981 -3.06163907 4.27301017E-13
v -2.73977041 -3.13396025 5.62070898E-13
v -2.05338597 -2.8399868 3.36480355E-13
v -1.81765664 -2.62660289 2.51456245E-13
v -1.5710851 -2.41808057 1.76000897E-13
v -2.51518822 -2.90526223 4.563633E-13
v -2.97759652 -2.9728682 5.95499453E-13
v -2.27163815 -2.68858862 3.54934859E-13
v -2.01424122 -2.47984505 2.61631455E-13
v -1.74754453 -2.27584052 1.80253463E-13
v -2.72970772 -2.74951339 4.77714981E-13
v -3.18893266 -2.81261396 6.19906036E-13
v -2.46468401 -2.53760624 3.66672757E-13
v -2.18759012 -2.33329773 2.66219284E-13
v -1.90273058 -2.13360047 1.80148011E-13
v -2.91941762 -2.59437895 4.91104607E-13
v -3.37582922 -2.65317822 6.35076735E-13
v -2.63475299 -2.38703012 3.716403E-13
v -2.33984828 -2.18695498 2.65325603E-13
v -2.03867841 -1.99136055 1.75915814E-13
v -3.08637309 -2.43984365 4.96520522E-13
v -3.54012895 -2.4945426 6.41042395E-13
v -2.78388262 -2.23685122 3.69988057E-13
v -2.47300029 -2.04081273 2.59228376E-13
v -2.15727568 -1.84912097 1.67931397E-13
v -3.23247194 -2.2858932 4.94159292E-13
v -3.68356609 -2.33668709 6.38047286E-13
v -2.91397548 -2.0870595 3.62042346E-13
v -2.58890581 -1.89486551 2.48351903E-13
v -2.260288 -1.70688069 1.56687163E-13
v -3.35951805 -2.13251495 4.84396106E-13
v -3.80782151 -2.17959356 6.26517555E-13
v -3.02684832 -1.93764603 3.48278155E-13
v -2.68933082 -1.7491082 2.33240429E-13
v -2.34937048 -1.56464028 1.42770547E-13
v -3.46926379 -1.97969329 4.67758753E-13
v -3.91456795 -2.02324247 6.07034496E-13
v -3.1242497 -1.78859937 3.29292366E-13
v -2.77595329 -1.60353625 2.14534567E-13
v -2.42607474 -1.42240119 1.26840744E-13
v -3.56342983 -1.82741368 4.44897781E-13
v -4.00548649 -1.86761451 5.80304522E-13
v -3.20787072 -1.63991094 3.05779734E-13
v -2.85037184 -1.45814395 1.92947763E-13
v -2.49184942 -1.28016114 1.09607676E-13
v -3.64371133 -1.67566299 4.16563539E-13
v -4.0822711 -1.71269083 5.47136121E-13
v -3.27935052 -1.49157119 2.78508716E-13
v -2.91410112 -1.31292725 1.69244745E-13
v -2.5480299 -1.1379205 9.18117307E-14
v -3.71178198 -1.52442551 3.83581133E-13
v -4.14662266 -1.55845368 5.08412214E-13
v -3.34026504 -1.34356976 2.48299997E-13
v -2.96856093 -1.16788077 1.44221034E-13
v -2.59583664 -0.995681286 7.42048973E-14
v -3.76927567 -1.37368798 3.46828171E-13
v -4.20023584 -1.40488172 4.65069823E-13
v -3.39211535 -1.19589758 2.16004731E-13
v -3.01507068 -1.02299881 1.1868337E-13
v -2.63636661 -0.853441119 5.75325039E-14
v -3.81777668 -1.2234354 3.07212995E-13
v -4.24477386 -1.25195706 4.18076272E-13
v -3.4363184 -1.04854572 1.82485659E-13
v -3.05483627 -0.878277004 9.34317863E-14
v -2.67058778 -0.711201549 4.25166494E-14
v -3.85880017 -1.07365501 2.65655363E-13
v -4.28185558 -1.09966195 3.68410733E-13
v -3.47419262 -0.901502907 1.48598134E-13
v -3.08894324 -0.733710647 6.92425379E-14
v -2.69933724 -0.568961799 2.98407844E-14
v -3.89377499 -0.924331546 2.23067387E-13
v -4.313025 -0.947975278 3.17043375E-13
v -3.50694084 -0.754760921 1.15173062E-13
v -3.11835217 -0.589293122 4.68521909E-14
v -2.72332239 -0.426721245 2.01351759E-14
v -3.92402864 -0.775449932 1.80335957E-13
v -4.33973455 -0.796879053 2.64919136E-13
v -3.53564858 -0.608308196 8.30012599E-14
v -3.14389229 -0.445022434 2.69436725E-14
v -2.74312663 -0.284481078 1.39636685E-14
v -3.95077324 -0.626996577 1.38306941E-13
v -4.36332989 -0.646353543 2.12940925E-13
v -3.56127262 -0.462136894 5.28185995E-14
v -3.16627169 -0.300890535 1.01320556E-14
v -2.75922346 -0.142241314 1.1811617E-14
v -3.97509408 -0.478958756 9.77709463E-14
v -4.3850317 -0.49638015 1.61954787E-13
v -3.58464503 -0.316235721 2.52925647E-14
v -3.18608069 -0.156894296 -3.04668624E-15
v -2.77199173 -2.32543948E-06 1.4074939E-14
v -3.99795437 -0.331318527 5.94482823E-14
v -4.40593243 -0.34694007 1.12736277E-13
v -3.60647583 -0.17059733 1.01041946E-15
v -3.20380974 -0.0130282743 -1.21473274E-14
v -2.78174305 0.142238215 2.10502951E-14
v -4.02018642 -0.184065506 2.39785219E-14
v -4.42699575 -0.198013887 6.59780322E-14
v -3.62737083 -0.0252089258 -1.95327322E-14
v -3.2198689 0.130713731 -1.68247442E-14
v -2.78874612 0.284478754 3.29266542E-14
v -4.04250956 -0.0371826142 -8.09222159E-15
v -4.44905663 -0.0495837964 2.2278791E-14
v -3.64783859 0.119935699 -3.5942437E-14
v -3.2346139 0.274335563 -1.68425607E-14
v -2.79326415 0.426718533 4.97777682E-14
v -4.06553888 0.109343328 -3.63194616E-14
v -4.47284031 0.0983711258 -1.78663948E-14
v -3.66832447 0.264849722 -4.79343636E-14
v -3.24837971 0.417841166 -1.20806465E-14
v -2.79559875 0.568957925 7.15558391E-14
v -4.08980942 0.255525887 -6.03700981E-14
v -4.49897003 0.245869488 -5.40739803E-14
v -3.68923473 0.409539729 -5.53413143E-14
v -3.261518 0.561237812 -2.54129747E-15
v -2.79612923 0.711198449 9.80864221E-14
v -4.115798 0.401380926 -8.00289875E-14
v -4.52799797 0.392929494 -8.60804822E-14
v -3.71097231 0.554017365 -5.81192809E-14
v -3.27443814 0.704529107 1.16457857E-14
v -2.79536223 0.853437424 1.29064362E-13
v -4.14396 0.54692167 -9.52053039E-14
v -4.56043339 0.539570928 -1.13747567E-13
v -3.73397446 0.698291063 -5.63525802E-14
v -3.28765035 0.847719967 3.02196521E-14
v -2.79398394 0.995678365 1.64051498E-13
v -4.17475986 0.692160428 -1.05937286E-13
v -4.59677076 0.685812414 -1.37066804E-13
v -3.75875545 0.842371464 -5.02575344E-14
v -3.3018167 0.990815878 5.27854433E-14
v -2.79290342 1.1379174 2.02474363E-13
v -4.20871878 0.837115943 -1.12396339E-13
v -4.63752842 0.831672072 -1.56163426E-13
v -3.78595304 0.986269236 -4.0185198E-14
v -3.31779313 1.13382149 7.88125465E-14
v -2.79331183 1.28015792 2.43623806E-13
v -4.24644327 0.981800139 -1.14888744E-13
v -4.68329096 0.977170944 -1.7129943E-13
v -3.81636286 1.12999105 -2.66222438E-14
v -3.33667803 1.27674222 1.07634862E-13
v -2.79671597 1.42239761 2.86656197E-13
v -4.28867388 1.12622738 -1.13857464E-13
v -4.73473501 1.12232685 -1.82872936E-13
v -3.85099435 1.2735498 -1.0191957E-14
v -3.35985613 1.41958427 1.38450856E-13
v -2.80499029 1.56463742 3.30594954E-13
v -4.33632278 1.27041125 -1.09882128E-13
v -4.79268026 1.26715982 -1.91420407E-13
v -3.89109898 1.41695261 8.34721323E-15
v -3.38902688 1.56234956 1.70326399E-13
v -2.82040071 1.70687675 3.74332997E-13
v -4.39051104 1.41436636 -1.0367808E-13
v -4.85811186 1.41168702 -1.976136E-13
v -3.9382081 1.56021059 2.81036503E-14
v -3.42624617 1.7050463 2.02197119E-13
v -2.84562945 1.8491174 4.16638539E-13
v -4.45259619 1.55810833 -9.60940786E-14
v -4.93221283 1.55593026 -2.02258376E-13
v -3.99415803 1.70333207 4.80555706E-14
v -3.47393441 1.8476764 2.32872776E-13
v -2.88378382 1.99135709 4.56157952E-13
v -4.52419424 1.70164847 -8.81089296E-14
v -5.0163784 1.69990516 -2.06290741E-13
v -4.06110716 1.84632874 6.70558308E-14
v -3.53488612 1.99024665 2.61043411E-13
v -2.93838787 2.13359642 4.91424935E-13
v -4.60719872 1.84500515 -8.08273465E-14
v -5.11222887 1.84363317 -2.10772372E-13
v -4.14153194 1.98920918 8.38369765E-14
v -3.61225581 2.13276291 2.85285223E-13
v -3.0133543 2.27583623 5.20865577E-13
v -4.70376539 1.98818874 -7.54736104E-14
v -5.2216053 1.98713255 -2.16885253E-13
v -4.23821688 2.13198423 9.70182051E-14
v -3.70952702 2.27522922 3.04068267E-13
v -3.11293244 2.41807556 5.42809124E-13
v -4.81630611 2.13121748 -7.33855454E-14
v -5.34653997 2.13042331 -2.25924029E-13
v -4.35421276 2.27466035 1.05113211E-13
v -3.8304584 2.41764975 3.15765318E-13
v -3.24162626 2.56031656 5.55497814E-13
v -4.94744062 2.27410221 -7.60064009E-14
v -5.48922157 2.27352405 -2.39289057E-13
v -4.49278641 2.41724968 1.06538781E-13
v -3.97899771 2.56003046 3.18662956E-13
v -3.40408826 2.70255518 5.5709647E-13
v -5.09993744 2.41685748 -8.48753983E-14
v -5.65192318 2.41645122 -2.58476481E-13
v -4.65732861 2.55976319 9.96250201E-14
v -4.15917015 2.70237541 3.10970976E-13
v -3.60497284 2.84479618 5.45706492E-13
v -5.27663231 2.55949879 -1.01619146E-13
v -5.83691645 2.55922747 -2.850686E-13
v -4.85123444 2.70220709 8.26265732E-14
v -4.37493038 2.84469151 2.90835498E-13
v -3.84874487 2.98703551 5.19377456E-13
v -5.48028946 2.70204115 -1.27938323E-13
v -6.04634237 2.70187068 -3.20723347E-13
v -5.07775927 2.84459448 5.37345098E-14
v -4.62996626 2.98698282 2.56352855E-13
v -4.13944912 3.12927651 4.7612489E-13
v -5.71346378 2.84449768 -1.65597638E-13
v -6.28204966 2.84439921 -3.67160648E-13
v -5.33981276 2.98693228 1.10902066E-14
v -4.92746496 3.12925315 2.05583638E-13
v -4.48043203 3.27151489 4.13941857E-13
v -5.97829103 2.98688364 -2.16411118E-13
v -6.54539967 2.98683238 -4.26150678E-13
v -5.63973188 3.12923288 -4.72006264E-14
v -5.26983643 3.27150965 1.36567691E-13
v -4.8739953 3.41375518 3.30819953E-13
v -6.27624798 3.12921119 -2.82227746E-13
v -6.83701849 3.12919044 -4.99498121E-13
v -5.97898293 3.27150249 -1.23052393E-13
v -5.65835905 3.41375446 4.73418708E-14
v -5.32101154 3.55599523 2.24763554E-13
v -6.0927906 3.55599523 -6.40422096E-14
v -6.60787106 3.27149725 -3.64917704E-13
v -7.15649939 3.2714901 -5.89028284E-13
v -6.35782433 3.41375446 -2.18382306E-13
v -6.77490282 3.55599618 -3.35094555E-13
v -6.97239161 3.41375279 -4.6635303E-13
v -7.50205851 3.41375208 -6.96569809E-13
v -7.36734533 3.55599451 -5.88393104E-13
v -7.87012053 3.55599523 -8.23938248E-13
vt 2.38418579E-07 0.999999821
vt 2.38418579E-07 0.749999821
vt 0.0200002193 0.999999821
vt 0.0200002193 0.749999821
vt 1.78813934E-07 0.499999821
vt 0.0400002003 0.999999821
vt 0.0200002193 0.499999821
vt 1.78813934E-07 0.249999821
vt 0.0400002003 0.749999821
vt 0.0600002408 0.999999821
vt 0.0200002193 0.249999821
vt 1.78813934E-07 -1.78813934E-07
vt 0.0200001597 -1.79688158E-07
vt 0.0400002003 0.499999821
vt 0.0600001812 0.749999821
vt 0.0800002217 0.999999821
vt 0.0400002003 0.249999821
vt 0.0400002003 -1.80562395E-07
vt 0.0600001812 0.499999821
vt 0.0800002217 0.749999821
vt 0.100000203 0.999999821
vt 0.0600001812 0.249999821
vt 0.0600001812 -1.81436619E-07
vt 0.0800002217 0.499999821
vt 0.100000203 0.749999821
vt 0.120000243 0.999999821
vt 0.0800001621 0.249999821
vt 0.0800001621 -1.82310842E-07
vt 0.100000203 0.499999821
vt 0.120000184 0.749999821
vt 0.140000224 0.999999821
vt 0.100000203 0.249999821
vt 0.100000143 -1.8318508E-07
vt 0.120000184 0.499999821
vt 0.140000224 0.749999821
vt 0.160000205 0.999999821
vt 0.120000184 0.249999821
vt 0.120000184 -1.84059303E-07
vt 0.140000165 0.499999821
vt 0.160000205 0.749999821
vt 0.180000186 0.999999821
vt 0.140000165 0.249999821
vt 0.140000165 -1.84933526E-07
vt 0.160000205 0.499999821
vt 0.180000186 0.749999821
vt 0.200000167 0.999999821
vt 0.160000205 0.249999821
vt 0.160000145 -1.8580775E-07
vt 0.180000186 0.499999821
vt 0.200000167 0.749999821
vt 0.220000207 0.999999821
vt 0.180000186 0.249999806
vt 0.180000186 -1.86681987E-07
vt 0.200000167 0.499999821
vt 0.220000148 0.749999821
vt 0.240000188 0.999999821
vt 0.200000167 0.249999806
vt 0.200000167 -1.87556211E-07
vt 0.220000148 0.499999821
vt 0.240000188 0.749999821
vt 0.260000169 0.999999821
vt 0.220000148 0.249999806
vt 0.220000148 -1.88430434E-07
vt 0.240000129 0.499999821
vt 0.260000169 0.749999821
vt 0.28000021 0.999999821
vt 0.240000129 0.249999806
vt 0.240000129 -1.89304671E-07
vt 0.260000169 0.499999821
vt 0.28000021 0.749999821
vt 0.300000191 0.999999821
vt 0.26000011 0.249999806
vt 0.26000011 -1.90178895E-07
vt 0.28000021 0.499999821
vt 0.300000191 0.749999821
vt 0.320000172 0.999999821
vt 0.28000015 0.249999806
vt 0.28000015 -1.91053118E-07
vt 0.300000191 0.499999821
vt 0.320000172 0.749999821
vt 0.340000212 0.999999821
vt 0.300000191 0.249999806
vt 0.300000191 -1.91927356E-07
vt 0.320000172 0.499999821
vt 0.340000212 0.749999821
vt 0.360000253 0.999999821
vt 0.320000172 0.249999806
vt 0.320000172 -1.92801579E-07
vt 0.340000212 0.499999821
vt 0.360000253 0.749999821
vt 0.380000234 0.999999821
vt 0.340000153 0.249999806
vt 0.340000153 -1.93675803E-07
vt 0.360000253 0.499999791
vt 0.380000234 0.749999821
vt 0.400000215 0.999999821
vt 0.360000193 0.249999806
vt 0.360000193 -1.9455004E-07
vt 0.380000234 0.499999791
vt 0.400000215 0.749999821
vt 0.420000255 0.999999821
vt 0.380000234 0.249999806
vt 0.380000234 -1.95424263E-07
vt 0.400000215 0.499999791
vt 0.420000255 0.749999821
vt 0.440000296 0.999999821
vt 0.400000215 0.249999806
vt 0.400000215 -1.96298487E-07
vt 0.420000255 0.499999791
vt 0.440000296 0.749999821
vt 0.460000277 0.999999821
vt 0.420000196 0.249999806
vt 0.420000196 -1.97172724E-07
vt 0.440000296 0.499999791
vt 0.460000277 0.749999821
vt 0.480000257 0.999999821
vt 0.440000236 0.249999806
vt 0.440000236 -1.98046948E-07
vt 0.460000277 0.499999791
vt 0.480000257 0.749999821
vt 0.500000298 0.999999821
vt 0.460000277 0.249999806
vt 0.460000277 -1.98921171E-07
vt 0.480000257 0.499999791
vt 0.500000298 0.749999821
vt 0.520000279 0.999999821
vt 0.480000257 0.249999806
vt 0.480000257 -1.99795409E-07
vt 0.500000238 0.499999791
vt 0.520000279 0.749999821
vt 0.54000026 0.999999821
vt 0.500000238 0.249999806
vt 0.500000238 -2.00669632E-07
vt 0.520000219 0.499999791
vt 0.54000026 0.749999821
vt 0.560000241 0.999999821
vt 0.520000219 0.249999791
vt 0.520000219 -2.01543855E-07
vt 0.5400002 0.499999791
vt 0.560000241 0.749999821
vt 0.580000222 0.999999821
vt 0.5400002 0.249999791
vt 0.5400002 -2.02418079E-07
vt 0.560000181 0.499999791
vt 0.580000222 0.749999821
vt 0.600000203 0.999999821
vt 0.560000181 0.249999791
vt 0.560000181 -2.03292316E-07
vt 0.580000162 0.499999791
vt 0.600000203 0.749999821
vt 0.620000184 0.999999821
vt 0.580000162 0.249999791
vt 0.580000162 -2.0416654E-07
vt 0.600000143 0.499999791
vt 0.620000184 0.749999821
vt 0.640000165 0.999999821
vt 0.600000143 0.249999791
vt 0.600000143 -2.05040763E-07
vt 0.620000124 0.499999791
vt 0.640000165 0.749999821
vt 0.660000145 0.999999821
vt 0.620000124 0.249999791
vt 0.620000124 -2.05915001E-07
vt 0.640000105 0.499999791
vt 0.660000145 0.749999821
vt 0.680000126 0.999999821
vt 0.640000105 0.249999791
vt 0.640000105 -2.06789224E-07
vt 0.660000086 0.499999791
vt 0.680000126 0.749999821
vt 0.700000107 0.999999762
vt 0.660000086 0.249999791
vt 0.660000086 -2.07663447E-07
vt 0.680000067 0.499999791
vt 0.700000107 0.749999762
vt 0.720000088 0.999999762
vt 0.680000067 0.249999791
vt 0.680000067 -2.08537671E-07
vt 0.700000048 0.499999791
vt 0.720000088 0.749999762
vt 0.740000069 0.999999762
vt 0.700000048 0.249999791
vt 0.700000048 -2.09411894E-07
vt 0.720000029 0.499999791
vt 0.740000069 0.749999762
vt 0.76000005 0.999999762
vt 0.720000029 0.249999791
vt 0.720000029 -2.10286132E-07
vt 0.74000001 0.499999791
vt 0.76000005 0.749999762
vt 0.780000031 0.999999762
vt 0.74000001 0.249999791
vt 0.74000001 -2.11160355E-07
vt 0.75999999 0.499999791
vt 0.780000031 0.749999762
vt 0.800000012 0.999999762
vt 0.75999999 0.249999791
vt 0.75999999 -2.12034578E-07
vt 0.779999971 0.499999791
vt 0.800000012 0.749999762
vt 0.819999993 0.999999762
vt 0.779999971 0.249999791
vt 0.779999971 -2.12908816E-07
vt 0.799999952 0.499999791
vt 0.819999993 0.749999762
vt 0.839999974 0.999999762
vt 0.799999952 0.249999791
vt 0.799999952 -2.13783039E-07
vt 0.819999933 0.499999791
vt 0.839999974 0.749999762
vt 0.859999955 0.999999762
vt 0.819999933 0.249999791
vt 0.819999933 -2.14657263E-07
vt 0.839999914 0.499999791
vt 0.859999955 0.749999762
vt 0.879999936 0.999999762
vt 0.839999914 0.249999791
vt 0.839999914 -2.15531486E-07
vt 0.859999895 0.499999791
vt 0.879999936 0.749999762
vt 0.899999917 0.999999762
vt 0.859999895 0.249999776
vt 0.859999895 -2.16405709E-07
vt 0.879999876 0.499999791
vt 0.899999917 0.749999762
vt 0.919999897 0.999999762
vt 0.879999876 0.249999776
vt 0.879999876 -2.17279947E-07
vt 0.899999857 0.499999791
vt 0.919999897 0.749999762
vt 0.939999878 0.999999762
vt 0.899999857 0.249999776
vt 0.899999857 -2.1815417E-07
vt 0.919999838 0.499999791
vt 0.939999878 0.749999762
vt 0.959999859 0.999999762
vt 0.919999838 0.249999776
vt 0.919999838 -2.19028394E-07
vt 0.939999819 0.499999791
vt 0.959999859 0.749999762
vt 0.97999984 0.999999762
vt 0.939999819 0.249999776
vt 0.939999819 -2.19902631E-07
vt 0.9599998 0.499999791
vt 0.97999984 0.749999762
vt 0.999999821 0.999999762
vt 0.999999821 0.749999762
vt 0.9599998 0.249999776
vt 0.9599998 -2.20776855E-07
vt 0.979999781 0.499999791
vt 0.999999762 0.499999791
vt 0.979999781 0.249999776
vt 0.979999781 -2.21651078E-07
vt 0.999999762 0.249999776
vt 0.999999762 -2.22525301E-07
vn 0.999999762 0 0.000793095096
vn 0.999998927 0 0.00147937296
vn 0.999999881 0 0.000645038672
vn 0.999999404 0 0.00107128453
vn 0.99997592 0 0.00695238728
vn 0.999999881 0 0.0005559891
vn 0.999996185 0 0.0027641952
vn -0.999996305 0 0.00273651443
vn 0.999999642 0 0.000867049152
vn 0.999999881 7.53412621E-07 0.000493756495
vn -0.99998641 0 0.00522837788
vn -0.999999404 0 0.00114143558
vn -0.999999166 2.04135222E-06 0.00133782043
vn 0.999998331 0 0.00182578107
vn 0.999999762 1.1260305E-06 0.00073795527
vn 0.999999881 6.79590698E-07 0.000445376558
vn -0.999714196 0 0.0239029042
vn -0.999998808 0 0.00157489628
vn 0.999999046 2.1173646E-06 0.00138763618
vn 0.999999881 4.91146864E-07 0.00064375595
vn 1 6.17794001E-07 0.000404877501
vn 0.999951005 1.51075101E-05 0.00990085676
vn -0.999998212 2.92522873E-06 0.00191707781
vn 0.999999404 1.70569683E-06 0.00111784553
vn 0.999999881 8.67427673E-07 0.000568477379
vn 1 5.6357095E-07 0.000369341811
vn 0.999992013 6.09894414E-06 0.00399700366
vn -0.999996781 3.85518661E-06 0.00252653472
vn 0.999999642 2.12001396E-06 0.000926248205
vn 0.999999881 1.15586522E-06 0.000505005242
vn 1 7.72087617E-07 0.000337330188
vn 0.999997139 3.67833331E-06 0.00241063233
vn -0.999992013 9.16624958E-06 0.0040047951
vn 0.999999762 1.1893037E-06 0.000779422
vn 0.999999881 1.37316135E-06 0.000449957472
vn 1 7.05275909E-07 0.000308139744
vn 0.999998689 3.80757524E-06 0.00166355504
vn -0.99991858 2.92009572E-05 0.0127580902
vn 0.999999762 2.02135311E-06 0.000662356906
vn 1 1.22561107E-06 0.000401608238
vn 1 8.58848296E-07 0.000281427405
vn 0.999999285 2.8146369E-06 0.00122973358
vn 0.999966025 2.51879046E-05 0.00825357158
vn 0.999999881 1.73062449E-06 0.000567091047
vn 1 1.36934761E-06 0.000358966237
vn 1 7.84329075E-07 0.000257008913
vn 0.999999523 3.62037122E-06 0.000949058624
vn 0.999995947 6.52883818E-06 0.0028524925
vn 0.999999881 1.49138191E-06 0.000488696038
vn 1 7.35516664E-07 0.000321352127
vn 1 7.1642512E-07 0.000234758176
vn 0.999999762 2.88055207E-06 0.000755119429
vn 0.999998689 7.49530591E-06 0.0016373744
vn 0.999999881 1.6163857E-06 0.000423725782
vn 1 8.79562833E-07 0.000288215117
vn 1 8.1847918E-07 0.000214559375
vn 0.999999881 1.40753593E-06 0.000614961784
vn 0.999999404 5.07455024E-06 0.00110855256
vn 1 1.40984582E-06 0.000369582616
vn 1 7.90601518E-07 0.000259064313
vn 1 7.48786135E-07 0.000196289795
vn 0.999999881 1.94641257E-06 0.000510240323
vn 0.999999642 4.36024493E-06 0.000816437067
vn 1 1.73157594E-06 0.000324230175
vn 1 8.90524348E-07 0.000233445593
vn 1 5.48757953E-07 0.000179816998
vn 0.999999881 2.29601233E-06 0.000429918437
vn 0.999999881 3.38185123E-06 0.000633237127
vn 1 1.74589127E-06 0.000286046823
vn 1 9.65609729E-07 0.000210940663
vn 1 6.29432463E-07 0.00016500194
vn 1 1.95985444E-06 0.000366974273
vn 0.999999881 3.10553173E-06 0.000508810335
vn 1 1.16150295E-06 0.000253734179
vn 1 5.83399014E-07 0.00019116819
vn 1 8.10185838E-07 0.000151703818
vn 1 1.69164105E-06 0.000316752528
vn 1 1.92043035E-06 0.000419524411
vn 1 1.20830578E-06 0.000226250064
vn 1 7.95529672E-07 0.000173786088
vn 1 5.33236971E-07 0.000139784868
vn 1 1.47433104E-06 0.000276062172
vn 1 2.1534147E-06 0.000352815434
vn 1 1.0828395E-06 0.000202757059
vn 1 1.08827521E-06 0.000158491559
vn 1 7.88046805E-07 0.00012911357
vn 1 1.29593286E-06 0.000242657887
vn 1 1.83967165E-06 0.000301411783
vn 1 8.35789422E-07 0.000182581003
vn 1 7.74485329E-07 0.000145019061
vn 1 6.38555889E-07 0.000119566852
vn 1 8.19862294E-07 0.000214921965
vn 1 1.19397612E-06 0.000260828063
vn 1 1.00816203E-06 0.000165177262
vn 1 8.12605776E-07 0.000133137321
vn 1 5.92970196E-07 0.00011103112
vn 1 8.77376408E-07 0.000191665793
vn 1 1.56661565E-06 0.00022815491
vn 1 8.0164159E-07 0.000150103951
vn 1 7.4857121E-07 0.000122645899
vn 1 7.88902014E-07 0.000103402963
vn 1 1.04980541E-06 0.000172000116
vn 1 1.53677797E-06 0.000201428556
vn 1 9.40711629E-07 0.000137001058
vn 1 6.05468415E-07 0.000113371367
vn 1 5.89530885E-07 9.65887375E-05
vn 1 7.10670747E-07 0.000155248388
vn 1 1.23100438E-06 0.000179278009
vn 1 7.66439371E-07 0.000125573424
vn 1 8.02337468E-07 0.000105163977
vn 1 5.5239434E-07 9.05042834E-05
vn 1 7.52425251E-07 0.000140888398
vn 1 1.22618565E-06 0.000160718599
vn 1 7.93608933E-07 0.000115577677
vn 1 7.46872274E-07 9.78940443E-05
vn 1 5.19251387E-07 8.50741417E-05
vn 1 9.80464392E-07 0.000128511412
vn 1 1.10645738E-06 0.000145025566
vn 1 8.14909129E-07 0.000106811771
vn 1 6.97704593E-07 9.14495322E-05
vn 1 6.12112956E-07 8.02308641E-05
vn 1 8.08820573E-07 0.000117793024
vn 1 1.0044389E-06 0.000131653796
vn 1 7.56127292E-07 9.91071065E-05
vn 1 7.84910128E-07 8.57331179E-05
vn 1 5.7917913E-07 7.59141622E-05
vn 1 8.27584302E-07 0.000108473127
vn 1 7.33552895E-07 0.000120185308
vn 1 5.63488129E-07 9.23218904E-05
vn 1 7.38466838E-07 8.06602693E-05
vn 1 5.49853041E-07 7.2070332E-05
vn 1 7.65536754E-07 0.000100340425
vn 1 8.41478823E-07 0.000110294313
vn 1 7.90433546E-07 8.63364112E-05
vn 1 4.64827195E-07 7.6157281E-05
vn 1 5.23767824E-07 6.8651294E-05
vn 1 5.68981704E-07 9.32219482E-05
vn 1 1.08651716E-06 0.00010172285
vn 1 6.18353454E-07 8.10488127E-05
vn 1 6.60641263E-07 7.21596371E-05
vn 1 6.0071352E-07 6.56139309E-05
vn 1 7.96274776E-07 8.69744326E-05
vn 1 8.63013156E-07 9.42640472E-05
vn 1 6.99206055E-07 7.63719436E-05
vn 1 6.28149394E-07 6.8610665E-05
vn 1 5.76045068E-07 6.29194765E-05
vn 1 4.97304598E-07 8.14783853E-05
vn 1 6.69478425E-07 8.77498751E-05
vn 1 6.61293257E-07 7.22308541E-05
vn 1 5.99306986E-07 6.54602991E-05
vn 1 6.46560636E-07 6.0532846E-05
vn 1 5.84664974E-07 7.66332087E-05
vn 1 7.51119842E-07 8.20423083E-05
vn 1 8.36921686E-07 6.8560621E-05
vn 1 4.78089191E-07 6.26641049E-05
vn 1 5.34868775E-07 5.84219342E-05
vn 1 6.62417278E-07 7.23536286E-05
vn 1 7.05203036E-07 7.70269762E-05
vn 1 6.9752906E-07 6.53046664E-05
vn 1 6.42815564E-07 6.01822248E-05
vn 1 6.04095646E-07 5.65571572E-05
vn 1 6.27746374E-07 6.85666455E-05
vn 1 7.75537615E-07 7.26080543E-05
vn 1 6.66644951E-07 6.24132081E-05
vn 1 6.19279035E-07 5.7978672E-05
vn 1 5.86510623E-07 5.49108008E-05
vn 1 5.97010228E-07 6.52094386E-05
vn 1 9.43513612E-07 6.87045613E-05
vn 1 6.3918452E-07 5.98422739E-05
vn 1 6.83844746E-07 5.60205553E-05
vn 1 4.89409501E-07 5.34565734E-05
vn 1 5.69709016E-07 6.22274165E-05
vn 1 7.9647964E-07 6.5247601E-05
vn 1 6.14726389E-07 5.75524427E-05
vn 1 5.79745574E-07 5.42774324E-05
vn 1 5.5722461E-07 5.21689581E-05
vn 1 6.36305629E-07 5.95727506E-05
vn 1 6.64131846E-07 6.21779109E-05
vn 1 5.92891126E-07 5.55081569E-05
vn 1 6.43564647E-07 5.2720814E-05
vn 1 6.22839252E-07 5.10229911E-05
vn 1 6.10995471E-07 5.72031386E-05
vn 1 7.25636937E-07 5.94441772E-05
vn 1 6.55236136E-07 5.36769403E-05
vn 1 4.69881201E-07 5.13235609E-05
vn 1 5.33990487E-07 4.99937196E-05
vn 1 5.04280536E-07 5.50808763E-05
vn 1 6.0884247E-07 5.70015654E-05
vn 1 6.35117942E-07 5.20288559E-05
vn 1 5.34695118E-07 5.00596761E-05
vn 1 5.23975302E-07 4.90560597E-05
vn 1 6.49073456E-07 5.31720943E-05
vn 1 7.52711458E-07 5.4810771E-05
vn 1 6.16894965E-07 5.05360367E-05
vn 1 5.96972313E-07 4.89039703E-05
vn 1 6.61716172E-07 4.81847019E-05
vn 1 6.28003932E-07 5.14460844E-05
vn 1 6.44982777E-07 5.28369783E-05
vn 1 6.00249166E-07 4.91724095E-05
vn 1 6.56872771E-07 4.78320108E-05
vn 1 6.50311733E-07 4.73542532E-05
vn 1 6.08825758E-07 4.98750051E-05
vn 1 7.0105699E-07 5.10494101E-05
vn 1 5.11772157E-07 4.79135706E-05
vn 1 5.00094643E-07 4.68202888E-05
vn 1 7.81153631E-07 4.65397097E-05
vn 1 5.9122965E-07 4.84335324E-05
vn 1 6.03281478E-07 4.9420818E-05
vn 1 6.41832912E-07 4.67368445E-05
vn 1 4.89693093E-07 4.58464674E-05
vn 1 5.58070894E-07 4.57171664E-05
vn 1 6.46804381E-07 4.70988598E-05
vn 1 5.11918813E-07 4.79272967E-05
vn 1 6.96127813E-07 4.56214329E-05
vn 1 5.47974082E-07 4.48900319E-05
vn 1 6.84584279E-07 4.48649116E-05
vn 1 6.29664555E-07 4.58507748E-05
vn 1 6.39243922E-07 4.65483208E-05
vn 1 6.11785765E-07 4.45488768E-05
vn 1 6.70365523E-07 4.39330688E-05
vn 1 5.36679124E-07 4.39647483E-05
vn 1 7.49802439E-07 4.46718586E-05
vn 1 6.2164338E-07 4.526669E-05
vn 1 6.63813523E-07 4.35036782E-05
vn 1 5.24428629E-07 4.29611937E-05
vn 1 6.56182351E-07 4.30035689E-05
vn 1 5.9804114E-07 4.35480251E-05
vn 1 6.05195055E-07 4.40689582E-05
vn 1 5.83290387E-07 4.24739083E-05
vn 1 6.40330313E-07 4.19646858E-05
vn 1 5.12387089E-07 4.19747448E-05
vn 1 6.48024127E-07 4.24689097E-05
vn 1 5.89770821E-07 4.29457978E-05
vn 1 6.32508772E-07 4.14520946E-05
vn 1 6.24687573E-07 4.09395252E-05
vn 1 7.48525508E-07 4.08794731E-05
vn 1 6.32149977E-07 4.14285787E-05
vn 1 6.39228404E-07 4.18924719E-05
vn 1 4.9360284E-07 4.04359453E-05
vn 1 6.08646246E-07 3.9888233E-05
vn 1 6.0619351E-07 3.97274925E-05
vn 1 6.16854663E-07 4.04261882E-05
vn 1 6.24229472E-07 4.0909501E-05
vn 1 6.01640693E-07 3.94291237E-05
vn 1 5.9235515E-07 3.88205845E-05
vn 1 5.88032947E-07 3.85373278E-05
vn 1 5.7607798E-07 3.77538454E-05
vn 1 6.02212083E-07 3.94665694E-05
vn 1 6.10403958E-07 4.00034296E-05
vn 1 5.86575766E-07 3.84418272E-05
vn 1 5.72071997E-07 3.74913106E-05
vn 1 7.06074388E-07 3.85610765E-05
vn 1 5.97957467E-07 3.91877365E-05
vn 1 6.908258E-07 3.77282995E-05
vn 1 5.87221393E-07 3.84841405E-05
g Plane001_0
f 3/3/3 2/2/2 1/1/1
f 2/2/2 3/3/3 4/4/4
f 4/4/4 5/5/5 2/2/2
f 6/6/6 4/4/4 3/3/3
f 5/5/5 4/4/4 7/7/7
f 7/7/7 8/8/8 5/5/5
f 4/4/4 6/6/6 9/9/9
f 9/9/9 7/7/7 4/4/4
f 10/10/10 9/9/9 6/6/6
f 8/8/8 7/7/7 11/11/11
f 11/11/11 12/12/12 8/8/8
f 12/12/12 11/11/11 13/13/13
f 7/7/7 9/9/9 14/14/14
f 14/14/14 11/11/11 7/7/7
f 9/9/9 10/10/10 15/15/15
f 15/15/15 14/14/14 9/9/9
f 16/16/16 15/15/15 10/10/10
f 17/17/17 13/13/13 11/11/11
f 11/11/11 14/14/14 17/17/17
f 13/13/13 17/17/17 18/18/18
f 14/14/14 15/15/15 19/19/19
f 19/19/19 17/17/17 14/14/14
f 15/15/15 16/16/16 20/20/20
f 20/20/20 19/19/19 15/15/15
f 21/21/21 20/20/20 16/16/16
f 22/22/22 18/18/18 17/17/17
f 17/17/17 19/19/19 22/22/22
f 18/18/18 22/22/22 23/23/23
f 19/19/19 20/20/20 24/24/24
f 24/24/24 22/22/22 19/19/19
f 20/20/20 21/21/21 25/25/25
f 25/25/25 24/24/24 20/20/20
f 26/26/26 25/25/25 21/21/21
f 27/27/27 23/23/23 22/22/22
f 22/22/22 24/24/24 27/27/27
f 23/23/23 27/27/27 28/28/28
f 24/24/24 25/25/25 29/29/29
f 29/29/29 27/27/27 24/24/24
f 25/25/25 26/26/26 30/30/30
f 30/30/30 29/29/29 25/25/25
f 31/31/31 30/30/30 26/26/26
f 32/32/32 28/28/28 27/27/27
f 27/27/27 29/29/29 32/32/32
f 28/28/28 32/32/32 33/33/33
f 29/29/29 30/30/30 34/34/34
f 34/34/34 32/32/32 29/29/29
f 30/30/30 31/31/31 35/35/35
f 35/35/35 34/34/34 30/30/30
f 36/36/36 35/35/35 31/31/31
f 37/37/37 33/33/33 32/32/32
f 32/32/32 34/34/34 37/37/37
f 33/33/33 37/37/37 38/38/38
f 34/34/34 35/35/35 39/39/39
f 39/39/39 37/37/37 34/34/34
f 35/35/35 36/36/36 40/40/40
f 40/40/40 39/39/39 35/35/35
f 41/41/41 40/40/40 36/36/36
f 42/42/42 38/38/38 37/37/37
f 37/37/37 39/39/39 42/42/42
f 38/38/38 42/42/42 43/43/43
f 39/39/39 40/40/40 44/44/44
f 44/44/44 42/42/42 39/39/39
f 40/40/40 41/41/41 45/45/45
f 45/45/45 44/44/44 40/40/40
f 46/46/46 45/45/45 41/41/41
f 47/47/47 43/43/43 42/42/42
f 42/42/42 44/44/44 47/47/47
f 43/43/43 47/47/47 48/48/48
f 44/44/44 45/45/45 49/49/49
f 49/49/49 47/47/47 44/44/44
f 45/45/45 46/46/46 50/50/50
f 50/50/50 49/49/49 45/45/45
f 51/51/51 50/50/50 46/46/46
f 52/52/52 48/48/48 47/47/47
f 47/47/47 49/49/49 52/52/52
f 48/48/48 52/52/52 53/53/53
f 49/49/49 50/50/50 54/54/54
f 54/54/54 52/52/52 49/49/49
f 50/50/50 51/51/51 55/55/55
f 55/55/55 54/54/54 50/50/50
f 56/56/56 55/55/55 51/51/51
f 57/57/57 53/53/53 52/52/52
f 52/52/52 54/54/54 57/57/57
f 53/53/53 57/57/57 58/58/58
f 54/54/54 55/55/55 59/59/59
f 59/59/59 57/57/57 54/54/54
f 55/55/55 56/56/56 60/60/60
f 60/60/60 59/59/59 55/55/55
f 61/61/61 60/60/60 56/56/56
f 62/62/62 58/58/58 57/57/57
f 57/57/57 59/59/59 62/62/62
f 58/58/58 62/62/62 63/63/63
f 59/59/59 60/60/60 64/64/64
f 64/64/64 62/62/62 59/59/59
f 60/60/60 61/61/61 65/65/65
f 65/65/65 64/64/64 60/60/60
f 66/66/66 65/65/65 61/61/61
f 67/67/67 63/63/63 62/62/62
f 62/62/62 64/64/64 67/67/67
f 63/63/63 67/67/67 68/68/68
f 64/64/64 65/65/65 69/69/69
f 69/69/69 67/67/67 64/64/64
f 65/65/65 66/66/66 70/70/70
f 70/70/70 69/69/69 65/65/65
f 71/71/71 70/70/70 66/66/66
f 72/72/72 68/68/68 67/67/67
f 67/67/67 69/69/69 72/72/72
f 68/68/68 72/72/72 73/73/73
f 69/69/69 70/70/70 74/74/74
f 74/74/74 72/72/72 69/69/69
f 70/70/70 71/71/71 75/75/75
f 75/75/75 74/74/74 70/70/70
f 76/76/76 75/75/75 71/71/71
f 77/77/77 73/73/73 72/72/72
f 72/72/72 74/74/74 77/77/77
f 73/73/73 77/77/77 78/78/78
f 74/74/74 75/75/75 79/79/79
f 79/79/79 77/77/77 74/74/74
f 75/75/75 76/76/76 80/80/80
f 80/80/80 79/79/79 75/75/75
f 81/81/81 80/80/80 76/76/76
f 82/82/82 78/78/78 77/77/77
f 77/77/77 79/79/79 82/82/82
f 78/78/78 82/82/82 83/83/83
f 79/79/79 80/80/80 84/84/84
f 84/84/84 82/82/82 79/79/79
f 80/80/80 81/81/81 85/85/85
f 85/85/85 84/84/84 80/80/80
f 86/86/86 85/85/85 81/81/81
f 87/87/87 83/83/83 82/82/82
f 82/82/82 84/84/84 87/87/87
f 83/83/83 87/87/87 88/88/88
f 84/84/84 85/85/85 89/89/89
f 89/89/89 87/87/87 84/84/84
f 85/85/85 86/86/86 90/90/90
f 90/90/90 89/89/89 85/85/85
f 91/91/91 90/90/90 86/86/86
f 92/92/92 88/88/88 87/87/87
f 87/87/87 89/89/89 92/92/92
f 88/88/88 92/92/92 93/93/93
f 89/89/89 90/90/90 94/94/94
f 94/94/94 92/92/92 89/89/89
f 90/90/90 91/91/91 95/95/95
f 95/95/95 94/94/94 90/90/90
f 96/96/96 95/95/95 91/91/91
f 97/97/97 93/93/93 92/92/92
f 92/92/92 94/94/94 97/97/97
f 93/93/93 97/97/97 98/98/98
f 94/94/94 95/95/95 99/99/99
f 99/99/99 97/97/97 94/94/94
f 95/95/95 96/96/96 100/100/100
f 100/100/100 99/99/99 95/95/95
f 101/101/101 100/100/100 96/96/96
f 102/102/102 98/98/98 97/97/97
f 97/97/97 99/99/99 102/102/102
f 98/98/98 102/102/102 103/103/103
f 99/99/99 100/100/100 104/104/104
f 104/104/104 102/102/102 99/99/99
f 100/100/100 101/101/101 105/105/105
f 105/105/105 104/104/104 100/100/100
f 106/106/106 105/105/105 101/101/101
f 107/107/107 103/103/103 102/102/102
f 102/102/102 104/104/104 107/107/107
f 103/103/103 107/107/107 108/108/108
f 104/104/104 105/105/105 109/109/109
f 109/109/109 107/107/107 104/104/104
f 105/105/105 106/106/106 110/110/110
f 110/110/110 109/109/109 105/105/105
f 111/111/111 110/110/110 106/106/106
f 112/112/112 108/108/108 107/107/107
f 107/107/107 109/109/109 112/112/112
f 108/108/108 112/112/112 113/113/113
f 109/109/109 110/110/110 114/114/114
f 114/114/114 112/112/112 109/109/109
f 110/110/110 111/111/111 115/115/115
f 115/115/115 114/114/114 110/110/110
f 116/116/116 115/115/115 111/111/111
f 117/117/117 113/113/113 112/112/112
f 112/112/112 114/114/114 117/117/117
f 113/113/113 117/117/117 118/118/118
f 114/114/114 115/115/115 119/119/119
f 119/119/119 117/117/117 114/114/114
f 115/115/115 116/116/116 120/120/120
f 120/120/120 119/119/119 115/115/115
f 121/121/121 120/120/120 116/116/116
f 122/122/122 118/118/118 117/117/117
f 117/117/117 119/119/119 122/122/122
f 118/118/118 122/122/122 123/123/123
f 119/119/119 120/120/120 124/124/124
f 124/124/124 122/122/122 119/119/119
f 120/120/120 121/121/121 125/125/125
f 125/125/125 124/124/124 120/120/120
f 126/126/126 125/125/125 121/121/121
f 127/127/127 123/123/123 122/122/122
f 122/122/122 124/124/124 127/127/127
f 123/123/123 127/127/127 128/128/128
f 124/124/124 125/125/125 129/129/129
f 129/129/129 127/127/127 124/124/124
f 125/125/125 126/126/126 130/130/130
f 130/130/130 129/129/129 125/125/125
f 131/131/131 130/130/130 126/126/126
f 132/132/132 128/128/128 127/127/127
f 127/127/127 129/129/129 132/132/132
f 128/128/128 132/132/132 133/133/133
f 129/129/129 130/130/130 134/134/134
f 134/134/134 132/132/132 129/129/129
f 130/130/130 131/131/131 135/135/135
f 135/135/135 134/134/134 130/130/130
f 136/136/136 135/135/135 131/131/131
f 137/137/137 133/133/133 132/132/132
f 132/132/132 134/134/134 137/137/137
f 133/133/133 137/137/137 138/138/138
f 134/134/134 135/135/135 139/139/139
f 139/139/139 137/137/137 134/134/134
f 135/135/135 136/136/136 140/140/140
f 140/140/140 139/139/139 135/135/135
f 141/141/141 140/140/140 136/136/136
f 142/142/142 138/138/138 137/137/137
f 137/137/137 139/139/139 142/142/142
f 138/138/138 142/142/142 143/143/143
f 139/139/139 140/140/140 144/144/144
f 144/144/144 142/142/142 139/139/139
f 140/140/140 141/141/141 145/145/145
f 145/145/145 144/144/144 140/140/140
f 146/146/146 145/145/145 141/141/141
f 147/147/147 143/143/143 142/142/142
f 142/142/142 144/144/144 147/147/147
f 143/143/143 147/147/147 148/148/148
f 144/144/144 145/145/145 149/149/149
f 149/149/149 147/147/147 144/144/144
f 145/145/145 146/146/146 150/150/150
f 150/150/150 149/149/149 145/145/145
f 151/151/151 150/150/150 146/146/146
f 152/152/152 148/148/148 147/147/147
f 147/147/147 149/149/149 152/152/152
f 148/148/148 152/152/152 153/153/153
f 149/149/149 150/150/150 154/154/154
f 154/154/154 152/152/152 149/149/149
f 150/150/150 151/151/151 155/155/155
f 155/155/155 154/154/154 150/150/150
f 156/156/156 155/155/155 151/151/151
f 157/157/157 153/153/153 152/152/152
f 152/152/152 154/154/154 157/157/157
f 153/153/153 157/157/157 158/158/158
f 154/154/154 155/155/155 159/159/159
f 159/159/159 157/157/157 154/154/154
f 155/155/155 156/156/156 160/160/160
f 160/160/160 159/159/159 155/155/155
f 161/161/161 160/160/160 156/156/156
f 162/162/162 158/158/158 157/157/157
f 157/157/157 159/159/159 162/162/162
f 158/158/158 162/162/162 163/163/163
f 159/159/159 160/160/160 164/164/164
f 164/164/164 162/162/162 159/159/159
f 160/160/160 161/161/161 165/165/165
f 165/165/165 164/164/164 160/160/160
f 166/166/166 165/165/165 161/161/161
f 167/167/167 163/163/163 162/162/162
f 162/162/162 164/164/164 167/167/167
f 163/163/163 167/167/167 168/168/168
f 164/164/164 165/165/165 169/169/169
f 169/169/169 167/167/167 164/164/164
f 165/165/165 166/166/166 170/170/170
f 170/170/170 169/169/169 165/165/165
f 171/171/171 170/170/170 166/166/166
f 172/172/172 168/168/168 167/167/167
f 167/167/167 169/169/169 172/172/172
f 168/168/168 172/172/172 173/173/173
f 169/169/169 170/170/170 174/174/174
f 174/174/174 172/172/172 169/169/169
f 170/170/170 171/171/171 175/175/175
f 175/175/175 174/174/174 170/170/170
f 176/176/176 175/175/175 171/171/171
f 177/177/177 173/173/173 172/172/172
f 172/172/172 174/174/174 177/177/177
f 173/173/173 177/177/177 178/178/178
f 174/174/174 175/175/175 179/179/179
f 179/179/179 177/177/177 174/174/174
f 175/175/175 176/176/176 180/180/180
f 180/180/180 179/179/179 175/175/175
f 181/181/181 180/180/180 176/176/176
f 182/182/182 178/178/178 177/177/177
f 177/177/177 179/179/179 182/182/182
f 178/178/178 182/182/182 183/183/183
f 179/179/179 180/180/180 184/184/184
f 184/184/184 182/182/182 179/179/179
f 180/180/180 181/181/181 185/185/185
f 185/185/185 184/184/184 180/180/180
f 186/186/186 185/185/185 181/181/181
f 187/187/187 183/183/183 182/182/182
f 182/182/182 184/184/184 187/187/187
f 183/183/183 187/187/187 188/188/188
f 184/184/184 185/185/185 189/189/189
f 189/189/189 187/187/187 184/184/184
f 185/185/185 186/186/186 190/190/190
f 190/190/190 189/189/189 185/185/185
f 191/191/191 190/190/190 186/186/186
f 192/192/192 188/188/188 187/187/187
f 187/187/187 189/189/189 192/192/192
f 188/188/188 192/192/192 193/193/193
f 189/189/189 190/190/190 194/194/194
f 194/194/194 192/192/192 189/189/189
f 190/190/190 191/191/191 195/195/195
f 195/195/195 194/194/194 190/190/190
f 196/196/196 195/195/195 191/191/191
f 197/197/197 193/193/193 192/192/192
f 192/192/192 194/194/194 197/197/197
f 193/193/193 197/197/197 198/198/198
f 194/194/194 195/195/195 199/199/199
f 199/199/199 197/197/197 194/194/194
f 195/195/195 196/196/196 200/200/200
f 200/200/200 199/199/199 195/195/195
f 201/201/201 200/200/200 196/196/196
f 202/202/202 198/198/198 197/197/197
f 197/197/197 199/199/199 202/202/202
f 198/198/198 202/202/202 203/203/203
f 199/199/199 200/200/200 204/204/204
f 204/204/204 202/202/202 199/199/199
f 200/200/200 201/201/201 205/205/205
f 205/205/205 204/204/204 200/200/200
f 206/206/206 205/205/205 201/201/201
f 207/207/207 203/203/203 202/202/202
f 202/202/202 204/204/204 207/207/207
f 203/203/203 207/207/207 208/208/208
f 204/204/204 205/205/205 209/209/209
f 209/209/209 207/207/207 204/204/204
f 205/205/205 206/206/206 210/210/210
f 210/210/210 209/209/209 205/205/205
f 211/211/211 210/210/210 206/206/206
f 212/212/212 208/208/208 207/207/207
f 207/207/207 209/209/209 212/212/212
f 208/208/208 212/212/212 213/213/213
f 209/209/209 210/210/210 214/214/214
f 214/214/214 212/212/212 209/209/209
f 210/210/210 211/211/211 215/215/215
f 215/215/215 214/214/214 210/210/210
f 216/216/216 215/215/215 211/211/211
f 217/217/217 213/213/213 212/212/212
f 212/212/212 214/214/214 217/217/217
f 213/213/213 217/217/217 218/218/218
f 214/214/214 215/215/215 219/219/219
f 219/219/219 217/217/217 214/214/214
f 215/215/215 216/216/216 220/220/220
f 220/220/220 219/219/219 215/215/215
f 221/221/221 220/220/220 216/216/216
f 222/222/222 218/218/218 217/217/217
f 217/217/217 219/219/219 222/222/222
f 218/218/218 222/222/222 223/223/223
f 219/219/219 220/220/220 224/224/224
f 224/224/224 222/222/222 219/219/219
f 220/220/220 221/221/221 225/225/225
f 225/225/225 224/224/224 220/220/220
f 226/226/226 225/225/225 221/221/221
f 227/227/227 223/223/223 222/222/222
f 222/222/222 224/224/224 227/227/227
f 223/223/223 227/227/227 228/228/228
f 224/224/224 225/225/225 229/229/229
f 229/229/229 227/227/227 224/224/224
f 225/225/225 226/226/226 230/230/230
f 230/230/230 229/229/229 225/225/225
f 231/231/231 230/230/230 226/226/226
f 232/232/232 228/228/228 227/227/227
f 227/227/227 229/229/229 232/232/232
f 228/228/228 232/232/232 233/233/233
f 229/229/229 230/230/230 234/234/234
f 234/234/234 232/232/232 229/229/229
f 230/230/230 231/231/231 235/235/235
f 235/235/235 234/234/234 230/230/230
f 236/236/236 235/235/235 231/231/231
f 237/237/237 233/233/233 232/232/232
f 232/232/232 234/234/234 237/237/237
f 233/233/233 237/237/237 238/238/238
f 234/234/234 235/235/235 239/239/239
f 239/239/239 237/237/237 234/234/234
f 235/235/235 236/236/236 240/240/240
f 240/240/240 239/239/239 235/235/235
f 241/241/241 240/240/240 236/236/236
f 242/242/242 238/238/238 237/237/237
f 237/237/237 239/239/239 242/242/242
f 238/238/238 242/242/242 243/243/243
f 239/239/239 240/240/240 244/244/244
f 244/244/244 242/242/242 239/239/239
f 240/240/240 241/241/241 245/245/245
f 245/245/245 244/244/244 240/240/240
f 246/246/246 245/245/245 241/241/241
f 245/245/245 246/246/246 247/247/247
f 248/248/248 243/243/243 242/242/242
f 242/242/242 244/244/244 248/248/248
f 243/243/243 248/248/248 249/249/249
f 247/247/247 250/250/250 245/245/245
f 244/244/244 245/245/245 250/250/250
f 250/250/250 248/248/248 244/244/244
f 250/250/250 247/247/247 251/251/251
f 252/252/252 249/249/249 248/248/248
f 248/248/248 250/250/250 252/252/252
f 251/251/251 252/252/252 250/250/250
f 249/249/249 252/252/252 253/253/253
f 252/252/252 251/251/251 254/254/254
f 254/254/254 253/253/253 252/252/252
f 253/253/253 254/254/254 255/255/255
