g Rectangle001
v 0.643249929 0.393249959 0
v 0.356750011 0.106750011 0
v -0.356750011 0.106750011 1.64864978E-05
v -0.643249929 0.393249959 -1.64864978E-05
v -0.356750011 -0.106750019 2.47297448E-05
v -0.643249929 -0.393249959 -2.47297448E-05
v 0.356750011 -0.106750019 4.12162444E-05
v 0.643249929 -0.393249959 -4.12162444E-05
v 0.356750011 0.106750011 0
v 0.643249929 0.393249959 0
v 0.356750011 0.106750011 0
v 0.643249929 0.393249959 0
v -0.643249929 0.393249959 -1.64864978E-05
v -0.356750011 0.106750011 1.64864978E-05
v -0.643249929 -0.393249959 -2.47297448E-05
v -0.356750011 -0.106750019 2.47297448E-05
v 0.643249929 -0.393249959 -4.12162444E-05
v 0.356750011 -0.106750019 4.12162444E-05
v 0.643249929 0.393249959 0
v 0.356750011 0.106750011 0
vt 1.0007987 -0.000798642635
vt 1.0007987 0.99809438
vt 0.667465329 0.99809438
vt 0.667465329 -0.000798657187
vt 0.500798643 0.99809438
vt 0.500798702 -0.000798664463
vt 0.167465329 0.99809432
vt 0.167465389 -0.000798679073
vt 0.00079870224 0.99809432
vt 0.00079870224 -0.000798686349
vt 1.0007987 0.00190560357
vt 1.0007987 1.0007987
vt 0.667465329 1.0007987
vt 0.667465329 0.0019055889
vt 0.500798643 1.0007987
vt 0.500798702 0.00190558168
vt 0.167465329 1.0007987
vt 0.167465389 0.00190556725
vt 0.00079870224 1.0007987
vt 0.00079870224 0.00190555979
vn 7.19306263E-05 2.8772256E-05 1
vn 7.19306336E-05 2.87722542E-05 1
vn -7.19306263E-05 2.87722542E-05 1
vn -7.19306263E-05 2.8772256E-05 1
vn -7.19306263E-05 -0.000115089017 1
vn -7.19306336E-05 -0.000115089017 1
vn 7.19306263E-05 -0.000115089017 1
vn 7.19306336E-05 -0.000115089017 1
vn 7.19306336E-05 2.87722542E-05 1
vn 7.19306263E-05 2.8772256E-05 1
vn -7.19306336E-05 -2.87722542E-05 -1
vn -7.19306263E-05 -2.8772256E-05 -1
vn 7.19306263E-05 -2.8772256E-05 -1
vn 7.19306263E-05 -2.87722542E-05 -1
vn 7.19306336E-05 0.000115089017 -1
vn 7.19306263E-05 0.000115089017 -1
vn -7.19306336E-05 0.000115089017 -1
vn -7.19306263E-05 0.000115089017 -1
vn -7.19306263E-05 -2.8772256E-05 -1
vn -7.19306336E-05 -2.87722542E-05 -1
g Rectangle001_0
f 3/3/3 2/2/2 1/1/1
f 4/4/4 3/3/3 1/1/1
f 5/5/5 3/3/3 4/4/4
f 6/6/6 5/5/5 4/4/4
f 7/7/7 5/5/5 6/6/6
f 8/8/8 7/7/7 6/6/6
f 9/9/9 7/7/7 8/8/8
f 10/10/10 9/9/9 8/8/8
f 13/13/13 12/12/12 11/11/11
f 14/14/14 13/13/13 11/11/11
f 15/15/15 13/13/13 14/14/14
f 16/16/16 15/15/15 14/14/14
f 17/17/17 15/15/15 16/16/16
f 18/18/18 17/17/17 16/16/16
f 19/19/19 17/17/17 18/18/18
f 20/20/20 19/19/19 18/18/18
