g Plane001
v -0.477704763 4.17622772E-08 0
v -0.393376231 -0.0601284243 -5.25659694E-09
v -0.393376231 0.0666896552 5.83019233E-09
v -0.234999999 0.0666896403 5.83019233E-09
v -0.234999999 -0.0601284392 -5.25659694E-09
v -0.121729895 -0.162499979 -1.42062015E-08
v -0.121729873 0.162500009 1.42062015E-08
v 0.0389470048 0.162499994 1.42062015E-08
v 0.038946975 -0.162499994 -1.42062015E-08
v 0.5 -4.37113883E-08 0
v 0.070688203 0.387748718 3.38980684E-08
v 0.0706881359 -0.387748718 -3.38980684E-08
vt 0.977704763 0.5
vt 0.893376231 0.43987149
vt 0.893376231 0.56668961
vt 0.735000014 0.566689551
vt 0.735000014 0.43987149
vt 0.62172991 0.337500006
vt 0.62172991 0.662500024
vt 0.461053014 0.662500024
vt 0.461053014 0.337500006
vt 0 0.5
vt 0.429311812 0.887748718
vt 0.429311812 0.112251297
vn -0 0 -1
vn -0 0 -1
vn -0 0 -1
vn -0 0 -1
vn -0 0 -1
vn -0 0 -1
vn -0 0 -1
vn -0 0 -1
vn -0 0 -1
vn -0 0 -1
vn -0 0 -1
vn -0 0 -1
g Plane001_0
f 3/3/3 2/2/2 1/1/1
f 2/2/2 3/3/3 4/4/4
f 5/5/5 2/2/2 4/4/4
f 6/6/6 5/5/5 4/4/4
f 7/7/7 6/6/6 4/4/4
f 6/6/6 7/7/7 8/8/8
f 9/9/9 6/6/6 8/8/8
f 10/10/10 9/9/9 8/8/8
f 11/11/11 10/10/10 8/8/8
f 12/12/12 9/9/9 10/10/10
