g Cylinder001
v 0.100000083 -0.049008742 0.00240760716
v 0.100000083 -1.51394573E-07 -2.62268962E-08
v 0.0600000843 -1.5314302E-07 -1.57361626E-08
v 0.0600000843 -0.049008742 0.00240761763
v 0.0200000852 -1.54891495E-07 -5.24542987E-09
v 0.100000083 -0.0980173275 0.00481524039
v 0.0200000871 -0.049008742 0.00240762788
v -0.0199999139 -1.56639942E-07 5.24530375E-09
v 0.0600000881 -0.0980173275 0.0048152511
v -0.0199999139 -0.0490087457 0.00240763859
v -0.059999913 -1.58388403E-07 1.57360365E-08
v 0.0600000955 -0.195090532 0.0192147139
v 0.100000091 -0.195090532 0.0192147028
v 0.0200000908 -0.0980173275 0.00481526088
v -0.059999913 -0.0490087494 0.00240764907
v -0.0999999046 -1.60136864E-07 2.62267665E-08
v -0.0999999046 -0.0490087494 0.00240765978
v -0.0199999139 -0.0980173349 0.00481527159
v -0.059999913 -0.0980173349 0.0048152823
v -0.0999999046 -0.0980173349 0.00481529301
v -0.0999999046 -0.195090532 0.0192147568
v -0.0599999018 -0.195090532 0.0192147456
v -0.0999999046 -0.290284932 0.0430597253
v 0.0200000964 -0.195090532 0.0192147251
v -0.0199999008 -0.195090532 0.0192147363
v -0.0599998906 -0.290284932 0.0430597104
v -0.0999998748 -0.382683665 0.076120533
v -0.0199998934 -0.290284932 0.0430596955
v -0.0599998906 -0.382683665 0.0761205181
v -0.0999998748 -0.471397012 0.118078828
v 0.0200001039 -0.290284932 0.0430596806
v -0.0199998822 -0.382683665 0.0761205032
v -0.0599998832 -0.471397012 0.118078798
v -0.0999998674 -0.555570483 0.168530464
v 0.0600001067 -0.290284932 0.0430596806
v 0.100000091 -0.290284932 0.0430596694
v 0.0200001113 -0.382683665 0.0761205032
v 0.060000103 -0.382683665 0.0761204883
v 0.100000121 -0.382683665 0.0761204734
v -0.0199998822 -0.471397012 0.118078798
v -0.0599998683 -0.555570483 0.168530464
v -0.0999998674 -0.634393692 0.226989701
v 0.0600001141 -0.471397012 0.118078776
v 0.100000113 -0.471397012 0.118078776
v 0.0200001132 -0.471397012 0.118078776
v -0.019999871 -0.555570483 0.168530464
v -0.0599998645 -0.634393692 0.226989642
v -0.0999998376 -0.707107127 0.29289341
v 0.060000129 -0.555570483 0.168530405
v 0.100000143 -0.555570483 0.168530405
v 0.0200001281 -0.555570483 0.168530405
v -0.0199998617 -0.634393692 0.226989642
v -0.0599998608 -0.707107127 0.29289341
v -0.0999998525 -0.773010671 0.365606904
v 0.0600001328 -0.634393692 0.226989642
v 0.100000128 -0.634393692 0.226989642
v 0.0200001337 -0.634393692 0.226989642
v -0.019999858 -0.707107127 0.29289341
v -0.0599998422 -0.773010671 0.365606904
v -0.0999998227 -0.831470072 0.444429994
v -0.0599998347 -0.831470072 0.444429994
v -0.019999845 -0.773010671 0.365606904
v -0.0199998338 -0.831470072 0.444429994
v 0.0200001504 -0.707107127 0.29289341
v 0.0600001365 -0.707107127 0.29289338
v 0.100000151 -0.707107127 0.29289338
v 0.0200001542 -0.773010671 0.365606934
v 0.0200001672 -0.831470072 0.444430023
v 0.0600001626 -0.773010671 0.365606934
v 0.100000143 -0.773010671 0.365606934
v 0.0600001626 -0.831470072 0.444430023
v 0.100000158 -0.831470072 0.444430023
vt 0.0504499748 0.000500000024
vt 0.000500000024 0.000500000024
vt 0.000500000024 0.199728116
vt 0.0504499748 0.199728116
vt 0.000500000024 0.398956299
vt 0.100399949 0.000500000024
vt 0.0504499748 0.398956299
vt 0.000500000024 0.598184645
vt 0.100399949 0.199728116
vt 0.0504499748 0.598184645
vt 0.000500000024 0.797412753
vt 0.200299859 0.199728116
vt 0.200299859 0.000500000024
vt 0.100399949 0.398956299
vt 0.0504499748 0.797412753
vt 0.000500000024 0.996640801
vt 0.0504499748 0.996640801
vt 0.100399949 0.598184645
vt 0.100399949 0.797412753
vt 0.100399949 0.996640801
vt 0.200299859 0.996640801
vt 0.200299859 0.797412753
vt 0.300199896 0.996640801
vt 0.200299859 0.398956299
vt 0.200299859 0.598184645
vt 0.300199896 0.797412753
vt 0.400099814 0.996640801
vt 0.300199896 0.598184645
vt 0.400099814 0.797412753
vt 0.499999881 0.996640801
vt 0.300199896 0.398956299
vt 0.400099814 0.598184645
vt 0.499999881 0.797412753
vt 0.599899948 0.996640801
vt 0.300199896 0.199728116
vt 0.300199896 0.000500000024
vt 0.400099814 0.398956299
vt 0.400099814 0.199728116
vt 0.400099814 0.000500000024
vt 0.499999881 0.598184645
vt 0.599899948 0.797412753
vt 0.699800014 0.996640801
vt 0.499999881 0.199728116
vt 0.499999881 0.000500000024
vt 0.499999881 0.398956299
vt 0.599899948 0.598184645
vt 0.699800014 0.797412753
vt 0.799699843 0.996640801
vt 0.599899948 0.199728116
vt 0.599899948 0.000500000024
vt 0.599899948 0.398956299
vt 0.699800014 0.598184645
vt 0.799699843 0.797412753
vt 0.899600029 0.996640801
vt 0.699800014 0.199728116
vt 0.699800014 0.000500000024
vt 0.699800014 0.398956299
vt 0.799699843 0.598184645
vt 0.899600029 0.797412753
vt 0.999500036 0.996640801
vt 0.999500036 0.797412753
vt 0.899600029 0.598184645
vt 0.999500036 0.598184645
vt 0.799699843 0.398956299
vt 0.799699843 0.199728116
vt 0.799699843 0.000500000024
vt 0.899600029 0.398956299
vt 0.999500036 0.398956299
vt 0.899600029 0.199728116
vt 0.899600029 0.000500000024
vt 0.999500036 0.199728116
vt 0.999500036 0.000500000024
vn -2.61169788E-07 -0.0490675792 -0.998795509
vn -2.58132928E-07 -0.0490675904 -0.998795509
vn -2.57373756E-07 -0.0490675904 -0.998795509
vn -2.57183956E-07 -0.0490675867 -0.998795509
vn -2.58892157E-07 -0.0490675867 -0.998795509
vn -2.66045532E-07 -0.0980171412 -0.99518472
vn -2.56804327E-07 -0.0490675904 -0.998795509
vn -2.58512529E-07 -0.0490675904 -0.998795509
vn -2.59394426E-07 -0.0980171561 -0.99518472
vn -2.58702357E-07 -0.0490675904 -0.998795509
vn -2.59271786E-07 -0.0490675904 -0.998795509
vn -2.40201132E-07 -0.195090443 -0.980785251
vn -2.85808937E-07 -0.195090443 -0.980785251
vn -2.5293329E-07 -0.0980171487 -0.99518472
vn -2.60980016E-07 -0.0490675867 -0.998795509
vn -2.62688303E-07 -0.0490675867 -0.998795509
vn -2.64965934E-07 -0.0490675904 -0.998795509
vn -2.57304066E-07 -0.098017171 -0.99518472
vn -2.63765202E-07 -0.0980171636 -0.99518472
vn -2.66045646E-07 -0.0980171636 -0.99518472
vn -2.8428866E-07 -0.195090473 -0.980785251
vn -2.8428866E-07 -0.195090443 -0.980785251
vn -3.19254667E-07 -0.290284783 -0.956940234
vn -2.3792073E-07 -0.195090413 -0.980785251
vn -2.8276844E-07 -0.195090443 -0.980785251
vn -3.19254667E-07 -0.290284783 -0.956940234
vn -4.16551416E-07 -0.382683516 -0.923879504
vn -2.81248163E-07 -0.290284753 -0.956940234
vn -3.31416828E-07 -0.382683516 -0.923879504
vn -4.07429923E-07 -0.471396834 -0.881921232
vn -1.97633838E-07 -0.290284753 -0.956940234
vn -2.47802461E-07 -0.382683516 -0.923879504
vn -2.43241715E-07 -0.471396744 -0.881921232
vn -4.49996804E-07 -0.555570126 -0.831469715
vn -2.356404E-07 -0.290284753 -0.956940234
vn -3.19254724E-07 -0.290284783 -0.956940234
vn -2.09795971E-07 -0.382683545 -0.923879504
vn -2.08275736E-07 -0.382683545 -0.923879504
vn -2.46282212E-07 -0.382683545 -0.923879445
vn -3.52700511E-07 -0.471396834 -0.881921232
vn -2.24998402E-07 -0.555570066 -0.831469715
vn -5.594556E-07 -0.634393454 -0.773010373
vn -0 -0.471396744 -0.881921232
vn -0 -0.471396744 -0.881921232
vn -3.5574098E-07 -0.471396655 -0.881921291
vn -3.77024463E-07 -0.555570066 -0.831469715
vn -2.79727772E-07 -0.634393394 -0.773010433
vn -2.67565895E-07 -0.707107365 -0.707106113
vn -0 -0.555570185 -0.831469715
vn -0 -0.555570185 -0.831469715
vn -3.7702452E-07 -0.555570066 -0.831469715
vn -1.45944838E-07 -0.634393454 -0.773010373
vn -1.33782947E-07 -0.707107425 -0.707106113
vn -0 -0.773010135 -0.634393632
vn -1.33782933E-07 -0.634393454 -0.773010373
vn -0 -0.634393394 -0.773010433
vn -2.79727715E-07 -0.634393454 -0.773010314
vn -0 -0.707107425 -0.707106054
vn -0 -0.773010135 -0.634393573
vn -0 -0.803206444 -0.595700681
vn -0 -0.803206563 -0.595700681
vn 2.21957791E-07 -0.773010194 -0.634393513
vn 2.85464353E-07 -0.803206563 -0.595700681
vn -1.76350241E-07 -0.707107544 -0.707106054
vn -2.55403876E-07 -0.707107484 -0.707106054
vn -0 -0.707107425 -0.707106054
vn 1.00336983E-07 -0.773010314 -0.634393454
vn 2.85464154E-07 -0.803206563 -0.595700622
vn -1.21620872E-07 -0.773010433 -0.634393394
vn -0 -0.773010433 -0.634393394
vn -0 -0.803206563 -0.595700681
vn -0 -0.803206563 -0.595700681
g Cylinder001_0
f 3/3/3 2/2/2 1/1/1
f 4/4/4 3/3/3 1/1/1
f 5/5/5 3/3/3 4/4/4
f 4/4/4 1/1/1 6/6/6
f 7/7/7 5/5/5 4/4/4
f 8/8/8 5/5/5 7/7/7
f 9/9/9 4/4/4 6/6/6
f 7/7/7 4/4/4 9/9/9
f 10/10/10 8/8/8 7/7/7
f 11/11/11 8/8/8 10/10/10
f 12/12/12 9/9/9 6/6/6
f 13/13/13 12/12/12 6/6/6
f 14/14/14 7/7/7 9/9/9
f 10/10/10 7/7/7 14/14/14
f 15/15/15 11/11/11 10/10/10
f 16/16/16 11/11/11 15/15/15
f 17/17/17 16/16/16 15/15/15
f 15/15/15 10/10/10 18/18/18
f 18/18/18 10/10/10 14/14/14
f 17/17/17 15/15/15 19/19/19
f 19/19/19 15/15/15 18/18/18
f 20/20/20 17/17/17 19/19/19
f 21/21/21 20/20/20 19/19/19
f 22/22/22 21/21/21 19/19/19
f 22/22/22 19/19/19 18/18/18
f 23/23/23 21/21/21 22/22/22
f 24/24/24 14/14/14 9/9/9
f 12/12/12 24/24/24 9/9/9
f 25/25/25 18/18/18 14/14/14
f 25/25/25 22/22/22 18/18/18
f 24/24/24 25/25/25 14/14/14
f 26/26/26 23/23/23 22/22/22
f 26/26/26 22/22/22 25/25/25
f 27/27/27 23/23/23 26/26/26
f 28/28/28 25/25/25 24/24/24
f 28/28/28 26/26/26 25/25/25
f 29/29/29 27/27/27 26/26/26
f 29/29/29 26/26/26 28/28/28
f 30/30/30 27/27/27 29/29/29
f 31/31/31 24/24/24 12/12/12
f 31/31/31 28/28/28 24/24/24
f 32/32/32 29/29/29 28/28/28
f 32/32/32 28/28/28 31/31/31
f 33/33/33 30/30/30 29/29/29
f 33/33/33 29/29/29 32/32/32
f 34/34/34 30/30/30 33/33/33
f 35/35/35 31/31/31 12/12/12
f 35/35/35 12/12/12 13/13/13
f 36/36/36 35/35/35 13/13/13
f 37/37/37 32/32/32 31/31/31
f 37/37/37 31/31/31 35/35/35
f 38/38/38 35/35/35 36/36/36
f 38/38/38 37/37/37 35/35/35
f 39/39/39 38/38/38 36/36/36
f 40/40/40 33/33/33 32/32/32
f 40/40/40 32/32/32 37/37/37
f 41/41/41 34/34/34 33/33/33
f 41/41/41 33/33/33 40/40/40
f 42/42/42 34/34/34 41/41/41
f 43/43/43 38/38/38 39/39/39
f 44/44/44 43/43/43 39/39/39
f 45/45/45 37/37/37 38/38/38
f 45/45/45 40/40/40 37/37/37
f 43/43/43 45/45/45 38/38/38
f 46/46/46 41/41/41 40/40/40
f 46/46/46 40/40/40 45/45/45
f 47/47/47 42/42/42 41/41/41
f 47/47/47 41/41/41 46/46/46
f 48/48/48 42/42/42 47/47/47
f 49/49/49 43/43/43 44/44/44
f 50/50/50 49/49/49 44/44/44
f 51/51/51 45/45/45 43/43/43
f 51/51/51 46/46/46 45/45/45
f 49/49/49 51/51/51 43/43/43
f 52/52/52 47/47/47 46/46/46
f 52/52/52 46/46/46 51/51/51
f 53/53/53 48/48/48 47/47/47
f 53/53/53 47/47/47 52/52/52
f 54/54/54 48/48/48 53/53/53
f 55/55/55 49/49/49 50/50/50
f 56/56/56 55/55/55 50/50/50
f 57/57/57 51/51/51 49/49/49
f 57/57/57 52/52/52 51/51/51
f 55/55/55 57/57/57 49/49/49
f 58/58/58 53/53/53 52/52/52
f 58/58/58 52/52/52 57/57/57
f 59/59/59 54/54/54 53/53/53
f 59/59/59 53/53/53 58/58/58
f 60/60/60 54/54/54 59/59/59
f 61/61/61 60/60/60 59/59/59
f 61/61/61 59/59/59 62/62/62
f 62/62/62 59/59/59 58/58/58
f 63/63/63 61/61/61 62/62/62
f 64/64/64 58/58/58 57/57/57
f 64/64/64 57/57/57 55/55/55
f 62/62/62 58/58/58 64/64/64
f 65/65/65 55/55/55 56/56/56
f 65/65/65 64/64/64 55/55/55
f 66/66/66 65/65/65 56/56/56
f 63/63/63 62/62/62 67/67/67
f 67/67/67 62/62/62 64/64/64
f 67/67/67 64/64/64 65/65/65
f 68/68/68 63/63/63 67/67/67
f 69/69/69 65/65/65 66/66/66
f 69/69/69 67/67/67 65/65/65
f 68/68/68 67/67/67 69/69/69
f 70/70/70 69/69/69 66/66/66
f 71/71/71 68/68/68 69/69/69
f 71/71/71 69/69/69 70/70/70
f 72/72/72 71/71/71 70/70/70
