g button_kuang
v -0.159494966 0.0489175804 2.198395E-13
v -0.159828648 0.0599175431 -2.198395E-13
v 0.15942283 0.0599175543 -1.91963565E-13
v 0.159112215 0.0489175506 1.91963565E-13
v 0.160654843 0.0598478876 -7.64149974E-13
v 0.159414768 0.0489004143 7.64149974E-13
v 0.162017137 0.0596151538 -7.54505887E-13
v 0.159555689 0.0488763712 7.54505887E-13
v 0.163337722 0.0592336468 -7.48755983E-13
v 0.159693584 0.0488366596 7.48755983E-13
v 0.164605424 0.0587084107 -7.48868469E-13
v 0.159826368 0.0487817861 7.48868469E-13
v 0.165809363 0.0580438226 -7.54245733E-13
v 0.159951627 0.0487128645 7.54245733E-13
v 0.16693306 0.0572480038 -7.639282E-13
v 0.160072401 0.0486273244 7.639282E-13
v 0.167853147 0.0564267114 -1.92113063E-13
v 0.160298824 0.048424907 1.92113063E-13
v 0.173437431 0.0508425161 -8.46473567E-14
v 0.165513128 0.043210499 8.46473567E-14
v 0.175793529 0.0483026169 -3.37615705E-13
v 0.167448953 0.0411236212 3.37615705E-13
v 0.17800957 0.0455224365 -3.35945573E-13
v 0.169152752 0.0389859118 3.35945573E-13
v 0.18000856 0.0425893553 -3.34702182E-13
v 0.170688152 0.0367328525 3.34702182E-13
v 0.181782201 0.0395173691 -3.34906229E-13
v 0.172050416 0.0343733653 3.34906229E-13
v 0.183322355 0.0363207459 -3.35786818E-13
v 0.173234344 0.0319160335 3.35786818E-13
v 0.184622303 0.0330111235 -3.37677911E-13
v 0.174233511 0.0293720793 3.37677911E-13
v 0.185644224 0.0296998136 -8.46489017E-14
v 0.175072551 0.0266530775 8.46489017E-14
v 0.18732515 0.0234265346 -2.1035633E-14
v 0.176672876 0.0206806343 2.1035633E-14
v 0.187748328 0.0217198338 -8.41190114E-14
v 0.17702122 0.0192762483 8.41190114E-14
v 0.188116863 0.0199531298 -8.42181346E-14
v 0.177306712 0.0179079119 8.42181346E-14
v 0.188418835 0.0181755815 -8.37744113E-14
v 0.177540734 0.0165297873 8.37744113E-14
v 0.188654974 0.0163826253 -8.4028223E-14
v 0.17772235 0.015149802 8.4028223E-14
v 0.188823804 0.0145825129 -8.39681514E-14
v 0.177852437 0.0137630235 8.39681514E-14
v 0.188925058 0.0127804196 -8.41484678E-14
v 0.177930862 0.0123676239 8.41484678E-14
v 0.188957959 0.0110240178 -2.11173852E-14
v 0.177957967 0.0109192617 2.11173852E-14
v 0.188957959 -0.00963109266 -2.10295767E-14
v 0.177957967 -0.00952698756 2.10295767E-14
v 0.188926846 -0.0112947673 -8.41545665E-14
v 0.177932546 -0.0108847879 8.41545665E-14
v 0.188830659 -0.0130073316 -8.42823871E-14
v 0.177859366 -0.0121868504 8.42823871E-14
v 0.188670442 -0.0147149656 -8.36772939E-14
v 0.177737638 -0.013483841 8.36772939E-14
v 0.188446552 -0.0164158326 -8.42232778E-14
v 0.177567765 -0.0147744613 8.42232778E-14
v 0.188158959 -0.0181081668 -8.39432148E-14
v 0.177349865 -0.0160573162 8.39432148E-14
v 0.187808707 -0.0197867788 -8.41669738E-14
v 0.177083567 -0.0173344519 8.41669738E-14
v 0.18740803 -0.0214022584 -2.11278562E-14
v 0.176756859 -0.0186521299 2.11278562E-14
v 0.184487343 -0.0323023349 -5.17023354E-14
v 0.173904002 -0.0292991456 5.17023354E-14
v 0.183548316 -0.0354362614 -2.06348773E-13
v 0.173103482 -0.0319708213 2.06348773E-13
v 0.182402283 -0.038578894 -2.05709486E-13
v 0.172177479 -0.0345098265 2.05709486E-13
v 0.181075796 -0.041646231 -2.05227491E-13
v 0.171106428 -0.0369862802 2.05227491E-13
v 0.179572597 -0.0446305871 -2.05320095E-13
v 0.169893682 -0.0393940099 2.05320095E-13
v 0.17789799 -0.047521513 -2.05560029E-13
v 0.168540806 -0.041729562 2.05560029E-13
v 0.176055253 -0.0503127985 -2.06385446E-13
v 0.167051584 -0.0439852737 2.06385446E-13
v 0.174095228 -0.0529339686 -5.17078954E-14
v 0.165382117 -0.046217747 5.17078954E-14
v 0.169082507 -0.0592428893 -2.52727716E-13
v 0.160692111 -0.0521204993 2.52727716E-13
v 0.168034405 -0.0603996105 -1.0056051E-12
v 0.160359338 -0.0524875782 1.0056051E-12
v 0.16671899 -0.0615197271 -9.88653061E-13
v 0.160125017 -0.0526869558 9.88653061E-13
v 0.165280163 -0.0624565445 -9.7836626E-13
v 0.159868091 -0.0528543331 9.7836626E-13
v 0.163739756 -0.0632000417 -9.7915274E-13
v 0.159589618 -0.0529887937 9.7915274E-13
v 0.16211234 -0.0637433603 -9.8846376E-13
v 0.159297585 -0.0530862026 9.8846376E-13
v 0.160418838 -0.0640762821 -1.00507525E-12
v 0.158994004 -0.0531457588 1.00507525E-12
v 0.158859104 -0.0641776472 -2.52895876E-13
v 0.158501625 -0.0531776696 2.52895876E-13
v -0.152646124 -0.064177677 -2.95405952E-13
v -0.152260676 -0.0531776696 2.95405952E-13
v -0.155613616 -0.0639693365 -1.17345435E-12
v -0.154076159 -0.0530502051 1.17345435E-12
v -0.158679038 -0.0633170083 -1.15101288E-12
v -0.155644476 -0.0527164601 1.15101288E-12
v -0.161604419 -0.0622560494 -1.1375756E-12
v -0.157142892 -0.0521729924 1.1375756E-12
v -0.164350718 -0.0608075857 -1.13802912E-12
v -0.158549979 -0.0514307618 1.13802912E-12
v -0.166879132 -0.0589917377 -1.15084873E-12
v -0.159843758 -0.050501544 1.15084873E-12
v -0.169148132 -0.0568305701 -1.1733701E-12
v -0.161005169 -0.0493952967 1.1733701E-12
v -0.170995593 -0.0544994585 -2.95508409E-13
v -0.162135735 -0.0479686409 2.95508409E-13
v -0.178393781 -0.0436867364 -4.84232168E-14
v -0.169226453 -0.0376052447 4.84232168E-14
v -0.179669112 -0.0417042449 -1.93323412E-13
v -0.170248523 -0.0360165723 1.93323412E-13
v -0.180865929 -0.0395892672 -1.92817374E-13
v -0.171138838 -0.0344433114 1.92817374E-13
v -0.181939691 -0.0374128707 -1.92247707E-13
v -0.171937868 -0.0328237712 1.92247707E-13
v -0.182889178 -0.0351782963 -1.92463504E-13
v -0.172643006 -0.0311641525 1.92463504E-13
v -0.183710948 -0.0328928381 -1.92632531E-13
v -0.173253536 -0.0294665117 1.92632531E-13
v -0.184402213 -0.0305641796 -1.93291197E-13
v -0.173768327 -0.0277325772 1.93291197E-13
v -0.18494378 -0.0282705985 -4.84280212E-14
v -0.174202591 -0.0258934665 4.84280212E-14
v -0.187751606 -0.014663565 -1.27423698E-14
v -0.17696254 -0.012518282 1.27423698E-14
v -0.188098371 -0.0128504653 -5.08826515E-14
v -0.177264169 -0.0109410072 5.08826515E-14
v -0.188398421 -0.0109896893 -5.08478215E-14
v -0.177513331 -0.00939575862 5.08478215E-14
v -0.188644126 -0.00912189204 -5.06997398E-14
v -0.177717417 -0.00784406625 5.06997398E-14
v -0.188835442 -0.00724830898 -5.08096881E-14
v -0.177876398 -0.00628689583 5.08096881E-14
v -0.188972428 -0.00536707463 -5.07256624E-14
v -0.177989841 -0.00472828839 5.07256624E-14
v -0.189054683 -0.00348243886 -5.07336618E-14
v -0.178058043 -0.00316618499 5.07336618E-14
v -0.18908149 -0.00163809652 -1.27439097E-14
v -0.178081468 -0.00155907834 1.27439097E-14
v -0.18908149 0.00653632497 -2.23215459E-14
v -0.178081468 0.00643161638 2.23215459E-14
v -0.189041764 0.00859936047 -8.8909762E-14
v -0.178047925 0.0081745591 8.8909762E-14
v -0.188919753 0.0107104238 -8.89661473E-14
v -0.177950591 0.0098603135 8.89661473E-14
v -0.188716859 0.0128121246 -8.85498882E-14
v -0.177788407 0.0115420921 8.85498882E-14
v -0.188433409 0.0149048995 -8.8798306E-14
v -0.177561909 0.0132152913 8.8798306E-14
v -0.188070014 0.0169837791 -8.89059673E-14
v -0.177270859 0.0148806917 8.89059673E-14
v -0.187626585 0.0190490764 -8.90308538E-14
v -0.176915944 0.0165338032 8.90308538E-14
v -0.18711631 0.0210478157 -2.23160334E-14
v -0.176484555 0.0182234328 2.23160334E-14
v -0.183837548 0.032931149 -6.58499744E-14
v -0.173282087 0.0298302602 6.58499744E-14
v -0.183195204 0.0349907428 -2.6284278E-13
v -0.172802672 0.0313674882 2.6284278E-13
v -0.182387546 0.0370827131 -2.61943326E-13
v -0.17225711 0.0327808 2.61943326E-13
v -0.181446075 0.0391117744 -2.60846466E-13
v -0.171619639 0.0341546908 2.60846466E-13
v -0.180372521 0.0410755947 -2.61363495E-13
v -0.170894712 0.035480734 2.61363495E-13
v -0.179171219 0.0429654531 -2.61552634E-13
v -0.170083612 0.036756821 2.61552634E-13
v -0.177847072 0.0447732769 -2.62976923E-13
v -0.169187516 0.0379802808 2.62976923E-13
v -0.176460296 0.0464254282 -6.58491951E-14
v -0.168152004 0.0392139517 6.58491951E-14
v -0.167374134 0.0565500446 -2.19614705E-13
v -0.159408391 0.0489567928 2.19614705E-13
v -0.16658923 0.0573250838 -8.74240784E-13
v -0.159330979 0.0490330383 8.74240784E-13
v -0.165590376 0.0580979995 -8.61862231E-13
v -0.159380019 0.0489949398 8.61862231E-13
v -0.164511845 0.0587426685 -8.53466386E-13
v -0.159432992 0.0489633419 8.53466386E-13
v -0.159828648 0.0599175431 -2.198395E-13
v -0.159494966 0.0489175804 2.198395E-13
v 0.159112215 0.0489175506 1.91963565E-13
v 0.15942283 0.0599175543 -1.91963565E-13
v 0.159414768 0.0489004143 7.64149974E-13
v 0.160654843 0.0598478876 -7.64149974E-13
v 0.159555689 0.0488763712 7.54505887E-13
v 0.162017137 0.0596151538 -7.54505887E-13
v 0.159693584 0.0488366596 7.48755983E-13
v 0.163337722 0.0592336468 -7.48755983E-13
v 0.159826368 0.0487817861 7.48868469E-13
v 0.164605424 0.0587084107 -7.48868469E-13
v 0.159951627 0.0487128645 7.54245733E-13
v 0.165809363 0.0580438226 -7.54245733E-13
v 0.160072401 0.0486273244 7.639282E-13
v 0.16693306 0.0572480038 -7.639282E-13
v 0.160298824 0.048424907 1.92113063E-13
v 0.167853147 0.0564267114 -1.92113063E-13
v 0.165513128 0.043210499 8.46473567E-14
v 0.173437431 0.0508425161 -8.46473567E-14
v 0.167448953 0.0411236212 3.37615705E-13
v 0.175793529 0.0483026169 -3.37615705E-13
v 0.169152752 0.0389859118 3.35945573E-13
v 0.17800957 0.0455224365 -3.35945573E-13
v 0.170688152 0.0367328525 3.34702182E-13
v 0.18000856 0.0425893553 -3.34702182E-13
v 0.172050416 0.0343733653 3.34906229E-13
v 0.181782201 0.0395173691 -3.34906229E-13
v 0.173234344 0.0319160335 3.35786818E-13
v 0.183322355 0.0363207459 -3.35786818E-13
v 0.174233511 0.0293720793 3.37677911E-13
v 0.184622303 0.0330111235 -3.37677911E-13
v 0.175072551 0.0266530775 8.46489017E-14
v 0.185644224 0.0296998136 -8.46489017E-14
v 0.176672876 0.0206806343 2.1035633E-14
v 0.18732515 0.0234265346 -2.1035633E-14
v 0.17702122 0.0192762483 8.41190114E-14
v 0.187748328 0.0217198338 -8.41190114E-14
v 0.177306712 0.0179079119 8.42181346E-14
v 0.188116863 0.0199531298 -8.42181346E-14
v 0.177540734 0.0165297873 8.37744113E-14
v 0.188418835 0.0181755815 -8.37744113E-14
v 0.17772235 0.015149802 8.4028223E-14
v 0.188654974 0.0163826253 -8.4028223E-14
v 0.177852437 0.0137630235 8.39681514E-14
v 0.188823804 0.0145825129 -8.39681514E-14
v 0.177930862 0.0123676239 8.41484678E-14
v 0.188925058 0.0127804196 -8.41484678E-14
v 0.177957967 0.0109192617 2.11173852E-14
v 0.188957959 0.0110240178 -2.11173852E-14
v 0.177957967 -0.00952698756 2.10295767E-14
v 0.188957959 -0.00963109266 -2.10295767E-14
v 0.177932546 -0.0108847879 8.41545665E-14
v 0.188926846 -0.0112947673 -8.41545665E-14
v 0.177859366 -0.0121868504 8.42823871E-14
v 0.188830659 -0.0130073316 -8.42823871E-14
v 0.177737638 -0.013483841 8.36772939E-14
v 0.188670442 -0.0147149656 -8.36772939E-14
v 0.177567765 -0.0147744613 8.42232778E-14
v 0.188446552 -0.0164158326 -8.42232778E-14
v 0.177349865 -0.0160573162 8.39432148E-14
v 0.188158959 -0.0181081668 -8.39432148E-14
v 0.177083567 -0.0173344519 8.41669738E-14
v 0.187808707 -0.0197867788 -8.41669738E-14
v 0.176756859 -0.0186521299 2.11278562E-14
v 0.18740803 -0.0214022584 -2.11278562E-14
v 0.173904002 -0.0292991456 5.17023354E-14
v 0.184487343 -0.0323023349 -5.17023354E-14
v 0.173103482 -0.0319708213 2.06348773E-13
v 0.183548316 -0.0354362614 -2.06348773E-13
v 0.172177479 -0.0345098265 2.05709486E-13
v 0.182402283 -0.038578894 -2.05709486E-13
v 0.171106428 -0.0369862802 2.05227491E-13
v 0.181075796 -0.041646231 -2.05227491E-13
v 0.169893682 -0.0393940099 2.05320095E-13
v 0.179572597 -0.0446305871 -2.05320095E-13
v 0.168540806 -0.041729562 2.05560029E-13
v 0.17789799 -0.047521513 -2.05560029E-13
v 0.167051584 -0.0439852737 2.06385446E-13
v 0.176055253 -0.0503127985 -2.06385446E-13
v 0.165382117 -0.046217747 5.17078954E-14
v 0.174095228 -0.0529339686 -5.17078954E-14
v 0.160692111 -0.0521204993 2.52727716E-13
v 0.169082507 -0.0592428893 -2.52727716E-13
v 0.160359338 -0.0524875782 1.0056051E-12
v 0.168034405 -0.0603996105 -1.0056051E-12
v 0.160125017 -0.0526869558 9.88653061E-13
v 0.16671899 -0.0615197271 -9.88653061E-13
v 0.159868091 -0.0528543331 9.7836626E-13
v 0.165280163 -0.0624565445 -9.7836626E-13
v 0.159589618 -0.0529887937 9.7915274E-13
v 0.163739756 -0.0632000417 -9.7915274E-13
v 0.159297585 -0.0530862026 9.8846376E-13
v 0.16211234 -0.0637433603 -9.8846376E-13
v 0.158994004 -0.0531457588 1.00507525E-12
v 0.160418838 -0.0640762821 -1.00507525E-12
v 0.158501625 -0.0531776696 2.52895876E-13
v 0.158859104 -0.0641776472 -2.52895876E-13
v -0.152260676 -0.0531776696 2.95405952E-13
v -0.152646124 -0.064177677 -2.95405952E-13
v -0.154076159 -0.0530502051 1.17345435E-12
v -0.155613616 -0.0639693365 -1.17345435E-12
v -0.155644476 -0.0527164601 1.15101288E-12
v -0.158679038 -0.0633170083 -1.15101288E-12
v -0.157142892 -0.0521729924 1.1375756E-12
v -0.161604419 -0.0622560494 -1.1375756E-12
v -0.158549979 -0.0514307618 1.13802912E-12
v -0.164350718 -0.0608075857 -1.13802912E-12
v -0.159843758 -0.050501544 1.15084873E-12
v -0.166879132 -0.0589917377 -1.15084873E-12
v -0.161005169 -0.0493952967 1.1733701E-12
v -0.169148132 -0.0568305701 -1.1733701E-12
v -0.162135735 -0.0479686409 2.95508409E-13
v -0.170995593 -0.0544994585 -2.95508409E-13
v -0.169226453 -0.0376052447 4.84232168E-14
v -0.178393781 -0.0436867364 -4.84232168E-14
v -0.170248523 -0.0360165723 1.93323412E-13
v -0.179669112 -0.0417042449 -1.93323412E-13
v -0.171138838 -0.0344433114 1.92817374E-13
v -0.180865929 -0.0395892672 -1.92817374E-13
v -0.171937868 -0.0328237712 1.92247707E-13
v -0.181939691 -0.0374128707 -1.92247707E-13
v -0.172643006 -0.0311641525 1.92463504E-13
v -0.182889178 -0.0351782963 -1.92463504E-13
v -0.173253536 -0.0294665117 1.92632531E-13
v -0.183710948 -0.0328928381 -1.92632531E-13
v -0.173768327 -0.0277325772 1.93291197E-13
v -0.184402213 -0.0305641796 -1.93291197E-13
v -0.174202591 -0.0258934665 4.84280212E-14
v -0.18494378 -0.0282705985 -4.84280212E-14
v -0.17696254 -0.012518282 1.27423698E-14
v -0.187751606 -0.014663565 -1.27423698E-14
v -0.177264169 -0.0109410072 5.08826515E-14
v -0.188098371 -0.0128504653 -5.08826515E-14
v -0.177513331 -0.00939575862 5.08478215E-14
v -0.188398421 -0.0109896893 -5.08478215E-14
v -0.177717417 -0.00784406625 5.06997398E-14
v -0.188644126 -0.00912189204 -5.06997398E-14
v -0.177876398 -0.00628689583 5.08096881E-14
v -0.188835442 -0.00724830898 -5.08096881E-14
v -0.177989841 -0.00472828839 5.07256624E-14
v -0.188972428 -0.00536707463 -5.07256624E-14
v -0.178058043 -0.00316618499 5.07336618E-14
v -0.189054683 -0.00348243886 -5.07336618E-14
v -0.178081468 -0.00155907834 1.27439097E-14
v -0.18908149 -0.00163809652 -1.27439097E-14
v -0.178081468 0.00643161638 2.23215459E-14
v -0.18908149 0.00653632497 -2.23215459E-14
v -0.178047925 0.0081745591 8.8909762E-14
v -0.189041764 0.00859936047 -8.8909762E-14
v -0.177950591 0.0098603135 8.89661473E-14
v -0.188919753 0.0107104238 -8.89661473E-14
v -0.177788407 0.0115420921 8.85498882E-14
v -0.188716859 0.0128121246 -8.85498882E-14
v -0.177561909 0.0132152913 8.8798306E-14
v -0.188433409 0.0149048995 -8.8798306E-14
v -0.177270859 0.0148806917 8.89059673E-14
v -0.188070014 0.0169837791 -8.89059673E-14
v -0.176915944 0.0165338032 8.90308538E-14
v -0.187626585 0.0190490764 -8.90308538E-14
v -0.176484555 0.0182234328 2.23160334E-14
v -0.18711631 0.0210478157 -2.23160334E-14
v -0.173282087 0.0298302602 6.58499744E-14
v -0.183837548 0.032931149 -6.58499744E-14
v -0.172802672 0.0313674882 2.6284278E-13
v -0.183195204 0.0349907428 -2.6284278E-13
v -0.17225711 0.0327808 2.61943326E-13
v -0.182387546 0.0370827131 -2.61943326E-13
v -0.171619639 0.0341546908 2.60846466E-13
v -0.181446075 0.0391117744 -2.60846466E-13
v -0.170894712 0.035480734 2.61363495E-13
v -0.180372521 0.0410755947 -2.61363495E-13
v -0.170083612 0.036756821 2.61552634E-13
v -0.179171219 0.0429654531 -2.61552634E-13
v -0.169187516 0.0379802808 2.62976923E-13
v -0.177847072 0.0447732769 -2.62976923E-13
v -0.168152004 0.0392139517 6.58491951E-14
v -0.176460296 0.0464254282 -6.58491951E-14
v -0.159408391 0.0489567928 2.19614705E-13
v -0.167374134 0.0565500446 -2.19614705E-13
v -0.159330979 0.0490330383 8.74240784E-13
v -0.16658923 0.0573250838 -8.74240784E-13
v -0.16658923 0.0573250838 -8.74240784E-13
v -0.159330979 0.0490330383 8.74240784E-13
v -0.159380019 0.0489949398 8.61862231E-13
v -0.165590376 0.0580979995 -8.61862231E-13
v -0.165590376 0.0580979995 -8.61862231E-13
v -0.159380019 0.0489949398 8.61862231E-13
v -0.159432992 0.0489633419 8.53466386E-13
v -0.164511845 0.0587426685 -8.53466386E-13
v -0.159432992 0.0489633419 8.53466386E-13
v -0.164511845 0.0587426685 -8.53466386E-13
v -0.163369149 0.0592524596 -8.5450348E-13
v -0.159486443 0.0489396006 8.5450348E-13
v -0.164511845 0.0587426685 -8.53466386E-13
v -0.159432992 0.0489633419 8.53466386E-13
v -0.159486443 0.0489396006 8.5450348E-13
v -0.163369149 0.0592524596 -8.5450348E-13
v -0.159542501 0.0489221849 8.61265649E-13
v -0.162171856 0.0596236028 -8.61265649E-13
v -0.15960224 0.0489111468 8.73860663E-13
v -0.160930857 0.0598507524 -8.73860663E-13
v -0.159494966 0.0489175804 2.198395E-13
v -0.159828648 0.0599175431 -2.198395E-13
v -0.159486443 0.0489396006 8.5450348E-13
v -0.163369149 0.0592524596 -8.5450348E-13
v -0.162171856 0.0596236028 -8.61265649E-13
v -0.159542501 0.0489221849 8.61265649E-13
v -0.159542501 0.0489221849 8.61265649E-13
v -0.162171856 0.0596236028 -8.61265649E-13
v -0.160930857 0.0598507524 -8.73860663E-13
v -0.15960224 0.0489111468 8.73860663E-13
v -0.15960224 0.0489111468 8.73860663E-13
v -0.160930857 0.0598507524 -8.73860663E-13
v -0.159828648 0.0599175431 -2.198395E-13
v -0.159494966 0.0489175804 2.198395E-13
vt 1.00092292 0.0034133431
vt 0.997848749 1.00420237
vt 0.642657697 1.00311136
vt 0.645731807 0.00232229591
vt 0.641801834 1.00310874
vt 0.644875944 0.00231966679
vt 0.640952647 1.00310612
vt 0.644026756 0.00231705839
vt 0.640107274 1.00310349
vt 0.643181443 0.00231446186
vt 0.639263153 1.00310087
vt 0.642337322 0.00231186883
vt 0.638417721 1.00309837
vt 0.64149189 0.00230927207
vt 0.637568593 1.00309575
vt 0.640642703 0.00230666343
vt 0.63671273 1.00309312
vt 0.639786839 0.00230403477
vt 0.628208756 1.00306702
vt 0.631282926 0.00227791304
vt 0.624694526 1.00305617
vt 0.627768636 0.00226711808
vt 0.621192575 1.00304544
vt 0.624266744 0.00225636107
vt 0.617697835 1.00303471
vt 0.620771945 0.00224562595
vt 0.61420536 1.00302398
vt 0.61727953 0.00223489851
vt 0.610710621 1.00301325
vt 0.61378479 0.00222416362
vt 0.60720861 1.00300252
vt 0.610282779 0.00221340638
vt 0.603694439 1.00299168
vt 0.606768548 0.00220261165
vt 0.596634865 1.00296998
vt 0.599708974 0.0021809265
vt 0.594849944 1.0029645
vt 0.597924113 0.00217544381
vt 0.593066573 1.00295901
vt 0.596140742 0.00216996623
vt 0.591284275 1.00295353
vt 0.594358385 0.00216449099
vt 0.589502156 1.00294805
vt 0.592576265 0.00215901714
vt 0.587719679 1.00294256
vt 0.590793848 0.00215354189
vt 0.585936427 1.00293708
vt 0.589010596 0.00214806409
vt 0.584151506 1.00293159
vt 0.587225676 0.00214258116
vt 0.561264277 1.00286138
vt 0.564338386 0.00207227818
vt 0.559581518 1.00285614
vt 0.562655628 0.0020671091
vt 0.557900071 1.00285101
vt 0.56097424 0.00206194445
vt 0.556219637 1.00284588
vt 0.559293747 0.0020567826
vt 0.554539442 1.00284064
vt 0.557613611 0.00205162168
vt 0.552859008 1.00283551
vt 0.555933118 0.00204645959
vt 0.551177621 1.00283039
vt 0.55425179 0.00204129494
vt 0.549494863 1.00282514
vt 0.552568972 0.00203612586
vt 0.537073076 1.00278699
vt 0.540147185 0.00199796958
vt 0.533698201 1.00277662
vt 0.53677237 0.00198760303
vt 0.530330539 1.00276637
vt 0.533404708 0.00197725859
vt 0.526967227 1.002756
vt 0.530041337 0.0019669272
vt 0.523605227 1.00274563
vt 0.526679397 0.00195660023
vt 0.520241857 1.00273538
vt 0.523316026 0.00194626884
vt 0.516874194 1.00272501
vt 0.519948363 0.00193592452
vt 0.513499379 1.00271463
vt 0.516573548 0.00192555785
vt 0.504814148 1.00268793
vt 0.507888317 0.0018988793
vt 0.503669024 1.00268447
vt 0.506743193 0.00189536181
vt 0.502535641 1.0026809
vt 0.505609751 0.0018918803
vt 0.501408815 1.00267744
vt 0.504482985 0.00188841904
vt 0.500284135 1.00267398
vt 0.503358305 0.00188496429
vt 0.499157369 1.00267053
vt 0.502231538 0.00188150315
vt 0.498023987 1.00266707
vt 0.501098156 0.00187802175
vt 0.496878862 1.00266361
vt 0.499953032 0.00187450426
vt 0.150369704 1.00159919
vt 0.153443873 0.000810125493
vt 0.147699714 1.00159097
vt 0.150773883 0.000801924034
vt 0.145061672 1.00158286
vt 0.148135841 0.000793820596
vt 0.142441213 1.00157475
vt 0.145515382 0.000785771408
vt 0.139826417 1.00156689
vt 0.142900586 0.000777739449
vt 0.137205958 1.00155878
vt 0.140280128 0.000769690261
vt 0.134567857 1.00155067
vt 0.137642026 0.000761586824
vt 0.131897867 1.00154245
vt 0.134972036 0.000753385131
vt 0.117610037 1.00149858
vt 0.120684206 0.000709497021
vt 0.115245461 1.00149131
vt 0.118319631 0.000702233636
vt 0.112885594 1.00148404
vt 0.115959764 0.000694984919
vt 0.110528529 1.00147676
vt 0.113602698 0.000687744585
vt 0.108172536 1.00146961
vt 0.111246705 0.00068050751
vt 0.10581547 1.00146234
vt 0.108889639 0.000673267408
vt 0.103455663 1.00145507
vt 0.106529832 0.000666018692
vt 0.101091087 1.0014478
vt 0.104165256 0.00065875554
vt 0.085749507 1.00140071
vt 0.0888236761 0.000611630385
vt 0.0838273168 1.00139475
vt 0.0869014859 0.000605726033
vt 0.0819062591 1.00138891
vt 0.0849804282 0.00059982494
vt 0.0799856782 1.00138307
vt 0.0830598474 0.000593925477
vt 0.0780652761 1.00137711
vt 0.0811394453 0.00058802648
vt 0.0761447549 1.00137115
vt 0.079218924 0.00058212725
vt 0.074223578 1.0013653
vt 0.0772977471 0.000576225924
vt 0.0723014474 1.00135946
vt 0.0753756166 0.000570321805
vt 0.0632998943 1.00133181
vt 0.0663740635 0.000542671536
vt 0.0611801744 1.00132525
vt 0.0642543435 0.000536160427
vt 0.0590624213 1.00131869
vt 0.0621365905 0.000529655139
vt 0.0569458008 1.00131226
vt 0.0600199699 0.000523153343
vt 0.0548295379 1.0013057
vt 0.057903707 0.000516652944
vt 0.0527129173 1.00129914
vt 0.0557870865 0.000510151149
vt 0.0505951643 1.00129271
vt 0.0536693335 0.000503646093
vt 0.0484754443 1.00128627
vt 0.0515496135 0.000497134984
vt 0.0349062085 1.00124454
vt 0.0379803777 0.000455454108
vt 0.0328081846 1.00123811
vt 0.0358823538 0.000449009589
vt 0.0307158232 1.00123167
vt 0.0337899923 0.000442582299
vt 0.0286269188 1.00122523
vt 0.031701088 0.000436165719
vt 0.0265390277 1.0012188
vt 0.0296131968 0.000429752399
vt 0.0244501233 1.00121236
vt 0.0275242925 0.000423336052
vt 0.0223577619 1.00120592
vt 0.025431931 0.000416908762
vt 0.020259738 1.00119948
vt 0.0233339071 0.000410464243
vt 0.00539469719 1.00115395
vt 0.00846886635 0.000364802894
vt 0.00471991301 1.0011518
vt 0.00779408216 0.000362730236
vt 0.0040512085 1.00114965
vt 0.00712537766 0.000360676204
vt 0.00338590145 1.00114775
vt 0.00646007061 0.000358632416
vt 1.00092816 0.00171995116
vt 0.997853935 1.00250888
vt 0.642662883 1.00141788
vt 0.645737052 0.000628903974
vt 0.64180696 1.00141525
vt 0.644881129 0.00062627485
vt 0.640957832 1.00141263
vt 0.644032001 0.000623666565
vt 0.64011246 1.00141001
vt 0.643186629 0.000621069805
vt 0.639268339 1.00140738
vt 0.642342508 0.000618476886
vt 0.638422966 1.00140476
vt 0.641497135 0.000615880126
vt 0.637573719 1.00140226
vt 0.640647888 0.000613271608
vt 0.636717916 1.00139964
vt 0.639792085 0.000610642717
vt 0.628214002 1.00137353
vt 0.631288171 0.000584520982
vt 0.624699712 1.00136268
vt 0.627773881 0.000573726255
vt 0.62119776 1.00135195
vt 0.624271929 0.00056296913
vt 0.617702961 1.00134122
vt 0.62077713 0.000552234123
vt 0.614210546 1.00133049
vt 0.617284715 0.000541506452
vt 0.610715866 1.00131977
vt 0.613790035 0.000530771562
vt 0.607213855 1.00130892
vt 0.610288024 0.000520014437
vt 0.603699565 1.00129819
vt 0.606773734 0.00050921971
vt 0.596639991 1.00127649
vt 0.59971416 0.000487534679
vt 0.59485513 1.00127101
vt 0.597929299 0.000482051983
vt 0.593071818 1.00126553
vt 0.596145988 0.000476574176
vt 0.591289401 1.00126004
vt 0.59436357 0.000471099163
vt 0.589507341 1.00125456
vt 0.592581511 0.000465625082
vt 0.587724924 1.00124907
vt 0.590799093 0.000460149953
vt 0.585941613 1.00124359
vt 0.589015782 0.000454672147
vt 0.584156692 1.00123811
vt 0.587230861 0.000449189334
vt 0.561269403 1.00116777
vt 0.564343572 0.000378886238
vt 0.559586644 1.00116277
vt 0.562660813 0.000373717165
vt 0.557905316 1.00115752
vt 0.560979486 0.000368552515
vt 0.556224823 1.00115228
vt 0.559298992 0.000363390543
vt 0.554544687 1.00114727
vt 0.557618856 0.000358229619
vt 0.552864194 1.00114202
vt 0.555938363 0.000353067648
vt 0.551182866 1.00113678
vt 0.554257035 0.000347902998
vt 0.549499989 1.00113177
vt 0.552574158 0.000342733925
vt 0.537078261 1.00109363
vt 0.540152431 0.000304577756
vt 0.533703446 1.00108314
vt 0.536777616 0.000294211088
vt 0.530335784 1.00107288
vt 0.533409953 0.000283866655
vt 0.526972413 1.00106251
vt 0.530046582 0.000273535377
vt 0.523610413 1.00105214
vt 0.526684582 0.000263208291
vt 0.520247042 1.00104189
vt 0.523321211 0.000252876896
vt 0.516879439 1.00103152
vt 0.519953609 0.00024253258
vt 0.513504565 1.00102115
vt 0.516578734 0.000232165912
vt 0.504819334 1.00099444
vt 0.507893503 0.000205487362
vt 0.503674269 1.00099087
vt 0.506748438 0.000201969873
vt 0.502540827 1.00098753
vt 0.505614996 0.000198488357
vt 0.501414001 1.00098395
vt 0.50448817 0.000195027096
vt 0.500289321 1.00098062
vt 0.50336349 0.000191572355
vt 0.499162555 1.00097704
vt 0.502236724 0.000188111328
vt 0.498029172 1.00097358
vt 0.501103342 0.000184629811
vt 0.496884048 1.00097013
vt 0.499958217 0.000181112438
vt 0.150374889 0.999905705
vt 0.153449059 -0.00088326633
vt 0.147704899 0.99989748
vt 0.150779068 -0.000891468022
vt 0.145066857 0.999889374
vt 0.148141026 -0.00089957146
vt 0.142446399 0.999881327
vt 0.145520568 -0.000907620415
vt 0.139831603 0.99987334
vt 0.142905772 -0.000915652607
vt 0.137211144 0.999865294
vt 0.140285313 -0.000923701562
vt 0.134573042 0.999857187
vt 0.137647212 -0.000931805
vt 0.131903052 0.999848962
vt 0.134977221 -0.000940006692
vt 0.117615223 0.999805093
vt 0.120689392 -0.000983894803
vt 0.115250647 0.999797821
vt 0.118324816 -0.000991158187
vt 0.11289078 0.999790549
vt 0.115964949 -0.000998407137
vt 0.110533714 0.999783337
vt 0.113607883 -0.00100564724
vt 0.108177722 0.999776065
vt 0.111251891 -0.00101288455
vt 0.105820656 0.999768853
vt 0.108894825 -0.00102012465
vt 0.103460848 0.999761581
vt 0.106535017 -0.00102737313
vt 0.101096272 0.99975431
vt 0.104170442 -0.00103463652
vt 0.0857546926 0.999707222
vt 0.0888288617 -0.00108176144
vt 0.0838325024 0.999701321
vt 0.0869066715 -0.00108766602
vt 0.0819114447 0.99969542
vt 0.0849856138 -0.00109356688
vt 0.0799908638 0.999689519
vt 0.083065033 -0.00109946635
vt 0.0780704618 0.999683619
vt 0.0811446309 -0.00110536534
vt 0.0761499405 0.999677718
vt 0.0792241096 -0.00111126481
vt 0.0742287636 0.999671817
vt 0.0773029327 -0.00111716613
vt 0.072306633 0.999665916
vt 0.0753808022 -0.00112307025
vt 0.0633050799 0.999638259
vt 0.0663792491 -0.00115072029
vt 0.06118536 0.999631763
vt 0.0642595291 -0.00115723163
vt 0.0590676069 0.999625206
vt 0.0621417761 -0.00116373692
vt 0.0569509864 0.999618709
vt 0.0600251555 -0.00117023848
vt 0.0548347235 0.999612212
vt 0.0579088926 -0.00117673911
vt 0.0527181029 0.999605715
vt 0.0557922721 -0.00118324067
vt 0.0506003499 0.999599218
vt 0.0536745191 -0.00118974596
vt 0.0484806299 0.999592721
vt 0.0515547991 -0.00119625684
vt 0.0349113941 0.999550998
vt 0.0379855633 -0.00123793771
vt 0.0328133702 0.999544561
vt 0.0358875394 -0.00124438247
vt 0.0307210088 0.999538183
vt 0.0337951779 -0.00125080952
vt 0.0286321044 0.999531746
vt 0.0317062736 -0.00125722634
vt 0.0265442133 0.999525309
vt 0.0296183825 -0.00126363942
vt 0.0244553089 0.999518931
vt 0.0275294781 -0.00127005577
vt 0.0223629475 0.999512494
vt 0.0254371166 -0.00127648329
vt 0.0202649236 0.999506056
vt 0.0233390927 -0.00128292758
vt 0.00539988279 0.999460399
vt 0.00847405195 -0.00132858893
vt 0.00472509861 0.999458313
vt 0.00779926777 -0.00133066159
vt 0.00779926777 -0.00133066159
vt 0.00472509861 0.999458313
vt 0.0040563941 0.999456227
vt 0.00713056326 -0.00133271562
vt 0.00713056326 -0.00133271562
vt 0.0040563941 0.999456227
vt 0.00339114666 0.9994542
vt 0.00646525621 -0.00133475941
vt 0.00646007061 0.000358632416
vt 0.00338590145 1.00114775
vt 0.00272166729 1.0011456
vt 0.00579589605 0.000356592354
vt 0.00646525621 -0.00133475941
vt 0.00339114666 0.9994542
vt 0.0027269125 0.999452174
vt 0.00580108166 -0.00133679947
vt 0.00206160545 0.999450147
vt 0.00513577461 -0.00133884326
vt 0.00139296055 0.999448061
vt 0.00446712971 -0.00134089729
vt 0.00071823597 0.999445975
vt 0.00379234552 -0.00134296995
vt 0.00579589605 0.000356592354
vt 0.00272166729 1.0011456
vt 0.00205636024 1.00114369
vt 0.00513058901 0.0003545488
vt 0.00513058901 0.0003545488
vt 0.00205636024 1.00114369
vt 0.00138771534 1.00114155
vt 0.0044619441 0.000352494768
vt 0.0044619441 0.000352494768
vt 0.00138771534 1.00114155
vt 0.000712990761 1.0011394
vt 0.00378715992 0.000350422109
vn -0 0 1
vn -0 0 1
vn -0 0 1
vn -0 0 1
vn -0 0 1
vn -0 0 1
vn -0 0 1
vn -0 0 1
vn -0 0 1
vn -0 0 1
vn -0 0 1
vn -0 0 1
vn -0 0 1
vn -0 0 1
vn -0 0 1
vn -0 0 1
vn -0 0 1
vn -0 0 1
vn -0 0 1
vn -0 0 1
vn -0 0 1
vn -0 0 1
vn -0 0 1
vn -0 0 1
vn -0 0 1
vn -0 0 1
vn -0 0 1
vn -0 0 1
vn -0 0 1
vn -0 0 1
vn -0 0 1
vn -0 0 1
vn -0 0 1
vn -0 0 1
vn -0 0 1
vn -0 0 1
vn -0 0 1
vn -0 0 1
vn -0 0 1
vn -0 0 1
vn -0 0 1
vn -0 0 1
vn -0 0 1
vn -0 0 1
vn -0 0 1
vn -0 0 1
vn -0 0 1
vn -0 0 1
vn -0 0 1
vn -0 0 1
vn -0 0 1
vn -0 0 1
vn -0 0 1
vn -0 0 1
vn -0 0 1
vn -0 0 1
vn -0 0 1
vn -0 0 1
vn -0 0 1
vn -0 0 1
vn -0 0 1
vn -0 0 1
vn -0 0 1
vn -0 0 1
vn -0 0 1
vn -0 0 1
vn -0 0 1
vn -0 0 1
vn -0 0 1
vn -0 0 1
vn -0 0 1
vn -0 0 1
vn -0 0 1
vn -0 0 1
vn -0 0 1
vn -0 0 1
vn -0 0 1
vn -0 0 1
vn -0 0 1
vn -0 0 1
vn -0 0 1
vn -0 0 1
vn -0 0 1
vn -0 0 1
vn -0 0 1
vn -0 0 1
vn -0 0 1
vn -0 0 1
vn -0 0 1
vn -0 0 1
vn -0 0 1
vn -0 0 1
vn -0 0 1
vn -0 0 1
vn -0 0 1
vn -0 0 1
vn -0 0 1
vn -0 0 1
vn -0 0 1
vn -0 0 1
vn -0 0 1
vn -0 0 1
vn -0 0 1
vn -0 0 1
vn -0 0 1
vn -0 0 1
vn -0 0 1
vn -0 0 1
vn -0 0 1
vn -0 0 1
vn -0 0 1
vn -0 0 1
vn -0 0 1
vn -0 0 1
vn -0 0 1
vn -0 0 1
vn -0 0 1
vn -0 0 1
vn -0 0 1
vn -0 0 1
vn -0 0 1
vn -0 0 1
vn -0 0 1
vn -0 0 1
vn -0 0 1
vn -0 0 1
vn -0 0 1
vn -0 0 1
vn -0 0 1
vn -0 0 1
vn -0 0 1
vn -0 0 1
vn -0 0 1
vn -0 0 1
vn -0 0 1
vn -0 0 1
vn -0 0 1
vn -0 0 1
vn -0 0 1
vn -0 0 1
vn -0 0 1
vn -0 0 1
vn -0 0 1
vn -0 0 1
vn -0 0 1
vn -0 0 1
vn -0 0 1
vn -0 0 1
vn -0 0 1
vn -0 0 1
vn -0 0 1
vn -0 0 1
vn -0 0 1
vn -0 0 1
vn -0 0 1
vn -0 0 1
vn -0 0 1
vn -0 0 1
vn -0 0 1
vn -0 0 1
vn -0 0 1
vn -0 0 1
vn -0 0 1
vn -0 0 1
vn -0 0 1
vn -0 0 1
vn -0 0 1
vn -0 0 1
vn -0 0 1
vn -0 0 1
vn -0 0 1
vn -0 0 1
vn -0 0 1
vn -0 0 1
vn -0 0 1
vn -0 0 1
vn -0 0 1
vn -0 0 1
vn -0 0 1
vn -0 0 1
vn -0 0 1
vn -0 0 1
vn -0 0 1
vn -0 0 1
vn -0 0 1
vn -0 0 1
vn -0 0 -1
vn -0 0 -1
vn -0 0 -1
vn -0 0 -1
vn -0 0 -1
vn -0 0 -1
vn -0 0 -1
vn -0 0 -1
vn -0 0 -1
vn -0 0 -1
vn -0 0 -1
vn -0 0 -1
vn -0 0 -1
vn -0 0 -1
vn -0 0 -1
vn -0 0 -1
vn -0 0 -1
vn -0 0 -1
vn -0 0 -1
vn -0 0 -1
vn -0 0 -1
vn -0 0 -1
vn -0 0 -1
vn -0 0 -1
vn -0 0 -1
vn -0 0 -1
vn -0 0 -1
vn -0 0 -1
vn -0 0 -1
vn -0 0 -1
vn -0 0 -1
vn -0 0 -1
vn -0 0 -1
vn -0 0 -1
vn -0 0 -1
vn -0 0 -1
vn -0 0 -1
vn -0 0 -1
vn -0 0 -1
vn -0 0 -1
vn -0 0 -1
vn -0 0 -1
vn -0 0 -1
vn -0 0 -1
vn -0 0 -1
vn -0 0 -1
vn -0 0 -1
vn -0 0 -1
vn -0 0 -1
vn -0 0 -1
vn -0 0 -1
vn -0 0 -1
vn -0 0 -1
vn -0 0 -1
vn -0 0 -1
vn -0 0 -1
vn -0 0 -1
vn -0 0 -1
vn -0 0 -1
vn -0 0 -1
vn -0 0 -1
vn -0 0 -1
vn -0 0 -1
vn -0 0 -1
vn -0 0 -1
vn -0 0 -1
vn -0 0 -1
vn -0 0 -1
vn -0 0 -1
vn -0 0 -1
vn -0 0 -1
vn -0 0 -1
vn -0 0 -1
vn -0 0 -1
vn -0 0 -1
vn -0 0 -1
vn -0 0 -1
vn -0 0 -1
vn -0 0 -1
vn -0 0 -1
vn -0 0 -1
vn -0 0 -1
vn -0 0 -1
vn -0 0 -1
vn -0 0 -1
vn -0 0 -1
vn -0 0 -1
vn -0 0 -1
vn -0 0 -1
vn -0 0 -1
vn -0 0 -1
vn -0 0 -1
vn -0 0 -1
vn -0 0 -1
vn -0 0 -1
vn -0 0 -1
vn -0 0 -1
vn -0 0 -1
vn -0 0 -1
vn -0 0 -1
vn -0 0 -1
vn -0 0 -1
vn -0 0 -1
vn -0 0 -1
vn -0 0 -1
vn -0 0 -1
vn -0 0 -1
vn -0 0 -1
vn -0 0 -1
vn -0 0 -1
vn -0 0 -1
vn -0 0 -1
vn -0 0 -1
vn -0 0 -1
vn -0 0 -1
vn -0 0 -1
vn -0 0 -1
vn -0 0 -1
vn -0 0 -1
vn -0 0 -1
vn -0 0 -1
vn -0 0 -1
vn -0 0 -1
vn -0 0 -1
vn -0 0 -1
vn -0 0 -1
vn -0 0 -1
vn -0 0 -1
vn -0 0 -1
vn -0 0 -1
vn -0 0 -1
vn -0 0 -1
vn -0 0 -1
vn -0 0 -1
vn -0 0 -1
vn -0 0 -1
vn -0 0 -1
vn -0 0 -1
vn -0 0 -1
vn -0 0 -1
vn -0 0 -1
vn -0 0 -1
vn -0 0 -1
vn -0 0 -1
vn -0 0 -1
vn -0 0 -1
vn -0 0 -1
vn -0 0 -1
vn -0 0 -1
vn -0 0 -1
vn -0 0 -1
vn -0 0 -1
vn -0 0 -1
vn -0 0 -1
vn -0 0 -1
vn -0 0 -1
vn -0 0 -1
vn -0 0 -1
vn -0 0 -1
vn -0 0 -1
vn -0 0 -1
vn -0 0 -1
vn -0 0 -1
vn -0 0 -1
vn -0 0 -1
vn -0 0 -1
vn -0 0 -1
vn -0 0 -1
vn -0 0 -1
vn -0 0 -1
vn -0 0 -1
vn -0 0 -1
vn -0 0 -1
vn -0 0 -1
vn -0 0 -1
vn -0 0 -1
vn -0 0 -1
vn -0 0 -1
vn -0 0 -1
vn -0 0 -1
vn -0 0 -1
vn -0 0 -1
vn -0 0 -1
vn -0 0 -1
vn -0 0 -1
vn -0 0 -1
vn -0 0 -1
vn -0 0 -1
vn -0 0 -1
vn -0 0 -1
vn -0 0 1
vn -0 0 1
vn -0 0 1
vn -0 0 1
vn -0 0 -1
vn -0 0 -1
vn -0 0 -1
vn -0 0 -1
vn -0 0 -1
vn -0 0 -1
vn -0 0 -1
vn -0 0 -1
vn -0 0 -1
vn -0 0 -1
vn -0 0 1
vn -0 0 1
vn -0 0 1
vn -0 0 1
vn -0 0 1
vn -0 0 1
vn -0 0 1
vn -0 0 1
vn -0 0 1
vn -0 0 1
vn -0 0 1
vn -0 0 1
g button_kuang_0
f 3/3/3 2/2/2 1/1/1
f 4/4/4 3/3/3 1/1/1
f 5/5/5 3/3/3 4/4/4
f 6/6/6 5/5/5 4/4/4
f 7/7/7 5/5/5 6/6/6
f 8/8/8 7/7/7 6/6/6
f 9/9/9 7/7/7 8/8/8
f 10/10/10 9/9/9 8/8/8
f 11/11/11 9/9/9 10/10/10
f 12/12/12 11/11/11 10/10/10
f 13/13/13 11/11/11 12/12/12
f 14/14/14 13/13/13 12/12/12
f 15/15/15 13/13/13 14/14/14
f 16/16/16 15/15/15 14/14/14
f 17/17/17 15/15/15 16/16/16
f 18/18/18 17/17/17 16/16/16
f 19/19/19 17/17/17 18/18/18
f 20/20/20 19/19/19 18/18/18
f 21/21/21 19/19/19 20/20/20
f 22/22/22 21/21/21 20/20/20
f 23/23/23 21/21/21 22/22/22
f 24/24/24 23/23/23 22/22/22
f 25/25/25 23/23/23 24/24/24
f 26/26/26 25/25/25 24/24/24
f 27/27/27 25/25/25 26/26/26
f 28/28/28 27/27/27 26/26/26
f 29/29/29 27/27/27 28/28/28
f 30/30/30 29/29/29 28/28/28
f 31/31/31 29/29/29 30/30/30
f 32/32/32 31/31/31 30/30/30
f 33/33/33 31/31/31 32/32/32
f 34/34/34 33/33/33 32/32/32
f 35/35/35 33/33/33 34/34/34
f 36/36/36 35/35/35 34/34/34
f 37/37/37 35/35/35 36/36/36
f 38/38/38 37/37/37 36/36/36
f 39/39/39 37/37/37 38/38/38
f 40/40/40 39/39/39 38/38/38
f 41/41/41 39/39/39 40/40/40
f 42/42/42 41/41/41 40/40/40
f 43/43/43 41/41/41 42/42/42
f 44/44/44 43/43/43 42/42/42
f 45/45/45 43/43/43 44/44/44
f 46/46/46 45/45/45 44/44/44
f 47/47/47 45/45/45 46/46/46
f 48/48/48 47/47/47 46/46/46
f 49/49/49 47/47/47 48/48/48
f 50/50/50 49/49/49 48/48/48
f 51/51/51 49/49/49 50/50/50
f 52/52/52 51/51/51 50/50/50
f 53/53/53 51/51/51 52/52/52
f 54/54/54 53/53/53 52/52/52
f 55/55/55 53/53/53 54/54/54
f 56/56/56 55/55/55 54/54/54
f 57/57/57 55/55/55 56/56/56
f 58/58/58 57/57/57 56/56/56
f 59/59/59 57/57/57 58/58/58
f 60/60/60 59/59/59 58/58/58
f 61/61/61 59/59/59 60/60/60
f 62/62/62 61/61/61 60/60/60
f 63/63/63 61/61/61 62/62/62
f 64/64/64 63/63/63 62/62/62
f 65/65/65 63/63/63 64/64/64
f 66/66/66 65/65/65 64/64/64
f 67/67/67 65/65/65 66/66/66
f 68/68/68 67/67/67 66/66/66
f 69/69/69 67/67/67 68/68/68
f 70/70/70 69/69/69 68/68/68
f 71/71/71 69/69/69 70/70/70
f 72/72/72 71/71/71 70/70/70
f 73/73/73 71/71/71 72/72/72
f 74/74/74 73/73/73 72/72/72
f 75/75/75 73/73/73 74/74/74
f 76/76/76 75/75/75 74/74/74
f 77/77/77 75/75/75 76/76/76
f 78/78/78 77/77/77 76/76/76
f 79/79/79 77/77/77 78/78/78
f 80/80/80 79/79/79 78/78/78
f 81/81/81 79/79/79 80/80/80
f 82/82/82 81/81/81 80/80/80
f 83/83/83 81/81/81 82/82/82
f 84/84/84 83/83/83 82/82/82
f 85/85/85 83/83/83 84/84/84
f 86/86/86 85/85/85 84/84/84
f 87/87/87 85/85/85 86/86/86
f 88/88/88 87/87/87 86/86/86
f 89/89/89 87/87/87 88/88/88
f 90/90/90 89/89/89 88/88/88
f 91/91/91 89/89/89 90/90/90
f 92/92/92 91/91/91 90/90/90
f 93/93/93 91/91/91 92/92/92
f 94/94/94 93/93/93 92/92/92
f 95/95/95 93/93/93 94/94/94
f 96/96/96 95/95/95 94/94/94
f 97/97/97 95/95/95 96/96/96
f 98/98/98 97/97/97 96/96/96
f 99/99/99 97/97/97 98/98/98
f 100/100/100 99/99/99 98/98/98
f 101/101/101 99/99/99 100/100/100
f 102/102/102 101/101/101 100/100/100
f 103/103/103 101/101/101 102/102/102
f 104/104/104 103/103/103 102/102/102
f 105/105/105 103/103/103 104/104/104
f 106/106/106 105/105/105 104/104/104
f 107/107/107 105/105/105 106/106/106
f 108/108/108 107/107/107 106/106/106
f 109/109/109 107/107/107 108/108/108
f 110/110/110 109/109/109 108/108/108
f 111/111/111 109/109/109 110/110/110
f 112/112/112 111/111/111 110/110/110
f 113/113/113 111/111/111 112/112/112
f 114/114/114 113/113/113 112/112/112
f 115/115/115 113/113/113 114/114/114
f 116/116/116 115/115/115 114/114/114
f 117/117/117 115/115/115 116/116/116
f 118/118/118 117/117/117 116/116/116
f 119/119/119 117/117/117 118/118/118
f 120/120/120 119/119/119 118/118/118
f 121/121/121 119/119/119 120/120/120
f 122/122/122 121/121/121 120/120/120
f 123/123/123 121/121/121 122/122/122
f 124/124/124 123/123/123 122/122/122
f 125/125/125 123/123/123 124/124/124
f 126/126/126 125/125/125 124/124/124
f 127/127/127 125/125/125 126/126/126
f 128/128/128 127/127/127 126/126/126
f 129/129/129 127/127/127 128/128/128
f 130/130/130 129/129/129 128/128/128
f 131/131/131 129/129/129 130/130/130
f 132/132/132 131/131/131 130/130/130
f 133/133/133 131/131/131 132/132/132
f 134/134/134 133/133/133 132/132/132
f 135/135/135 133/133/133 134/134/134
f 136/136/136 135/135/135 134/134/134
f 137/137/137 135/135/135 136/136/136
f 138/138/138 137/137/137 136/136/136
f 139/139/139 137/137/137 138/138/138
f 140/140/140 139/139/139 138/138/138
f 141/141/141 139/139/139 140/140/140
f 142/142/142 141/141/141 140/140/140
f 143/143/143 141/141/141 142/142/142
f 144/144/144 143/143/143 142/142/142
f 145/145/145 143/143/143 144/144/144
f 146/146/146 145/145/145 144/144/144
f 147/147/147 145/145/145 146/146/146
f 148/148/148 147/147/147 146/146/146
f 149/149/149 147/147/147 148/148/148
f 150/150/150 149/149/149 148/148/148
f 151/151/151 149/149/149 150/150/150
f 152/152/152 151/151/151 150/150/150
f 153/153/153 151/151/151 152/152/152
f 154/154/154 153/153/153 152/152/152
f 155/155/155 153/153/153 154/154/154
f 156/156/156 155/155/155 154/154/154
f 157/157/157 155/155/155 156/156/156
f 158/158/158 157/157/157 156/156/156
f 159/159/159 157/157/157 158/158/158
f 160/160/160 159/159/159 158/158/158
f 161/161/161 159/159/159 160/160/160
f 162/162/162 161/161/161 160/160/160
f 163/163/163 161/161/161 162/162/162
f 164/164/164 163/163/163 162/162/162
f 165/165/165 163/163/163 164/164/164
f 166/166/166 165/165/165 164/164/164
f 167/167/167 165/165/165 166/166/166
f 168/168/168 167/167/167 166/166/166
f 169/169/169 167/167/167 168/168/168
f 170/170/170 169/169/169 168/168/168
f 171/171/171 169/169/169 170/170/170
f 172/172/172 171/171/171 170/170/170
f 173/173/173 171/171/171 172/172/172
f 174/174/174 173/173/173 172/172/172
f 175/175/175 173/173/173 174/174/174
f 176/176/176 175/175/175 174/174/174
f 177/177/177 175/175/175 176/176/176
f 178/178/178 177/177/177 176/176/176
f 179/179/179 177/177/177 178/178/178
f 180/180/180 179/179/179 178/178/178
f 181/181/181 179/179/179 180/180/180
f 182/182/182 181/181/181 180/180/180
f 183/183/183 181/181/181 182/182/182
f 184/184/184 183/183/183 182/182/182
f 185/185/185 183/183/183 184/184/184
f 186/186/186 185/185/185 184/184/184
f 189/189/189 188/188/188 187/187/187
f 190/190/190 189/189/189 187/187/187
f 191/191/191 189/189/189 190/190/190
f 192/192/192 191/191/191 190/190/190
f 193/193/193 191/191/191 192/192/192
f 194/194/194 193/193/193 192/192/192
f 195/195/195 193/193/193 194/194/194
f 196/196/196 195/195/195 194/194/194
f 197/197/197 195/195/195 196/196/196
f 198/198/198 197/197/197 196/196/196
f 199/199/199 197/197/197 198/198/198
f 200/200/200 199/199/199 198/198/198
f 201/201/201 199/199/199 200/200/200
f 202/202/202 201/201/201 200/200/200
f 203/203/203 201/201/201 202/202/202
f 204/204/204 203/203/203 202/202/202
f 205/205/205 203/203/203 204/204/204
f 206/206/206 205/205/205 204/204/204
f 207/207/207 205/205/205 206/206/206
f 208/208/208 207/207/207 206/206/206
f 209/209/209 207/207/207 208/208/208
f 210/210/210 209/209/209 208/208/208
f 211/211/211 209/209/209 210/210/210
f 212/212/212 211/211/211 210/210/210
f 213/213/213 211/211/211 212/212/212
f 214/214/214 213/213/213 212/212/212
f 215/215/215 213/213/213 214/214/214
f 216/216/216 215/215/215 214/214/214
f 217/217/217 215/215/215 216/216/216
f 218/218/218 217/217/217 216/216/216
f 219/219/219 217/217/217 218/218/218
f 220/220/220 219/219/219 218/218/218
f 221/221/221 219/219/219 220/220/220
f 222/222/222 221/221/221 220/220/220
f 223/223/223 221/221/221 222/222/222
f 224/224/224 223/223/223 222/222/222
f 225/225/225 223/223/223 224/224/224
f 226/226/226 225/225/225 224/224/224
f 227/227/227 225/225/225 226/226/226
f 228/228/228 227/227/227 226/226/226
f 229/229/229 227/227/227 228/228/228
f 230/230/230 229/229/229 228/228/228
f 231/231/231 229/229/229 230/230/230
f 232/232/232 231/231/231 230/230/230
f 233/233/233 231/231/231 232/232/232
f 234/234/234 233/233/233 232/232/232
f 235/235/235 233/233/233 234/234/234
f 236/236/236 235/235/235 234/234/234
f 237/237/237 235/235/235 236/236/236
f 238/238/238 237/237/237 236/236/236
f 239/239/239 237/237/237 238/238/238
f 240/240/240 239/239/239 238/238/238
f 241/241/241 239/239/239 240/240/240
f 242/242/242 241/241/241 240/240/240
f 243/243/243 241/241/241 242/242/242
f 244/244/244 243/243/243 242/242/242
f 245/245/245 243/243/243 244/244/244
f 246/246/246 245/245/245 244/244/244
f 247/247/247 245/245/245 246/246/246
f 248/248/248 247/247/247 246/246/246
f 249/249/249 247/247/247 248/248/248
f 250/250/250 249/249/249 248/248/248
f 251/251/251 249/249/249 250/250/250
f 252/252/252 251/251/251 250/250/250
f 253/253/253 251/251/251 252/252/252
f 254/254/254 253/253/253 252/252/252
f 255/255/255 253/253/253 254/254/254
f 256/256/256 255/255/255 254/254/254
f 257/257/257 255/255/255 256/256/256
f 258/258/258 257/257/257 256/256/256
f 259/259/259 257/257/257 258/258/258
f 260/260/260 259/259/259 258/258/258
f 261/261/261 259/259/259 260/260/260
f 262/262/262 261/261/261 260/260/260
f 263/263/263 261/261/261 262/262/262
f 264/264/264 263/263/263 262/262/262
f 265/265/265 263/263/263 264/264/264
f 266/266/266 265/265/265 264/264/264
f 267/267/267 265/265/265 266/266/266
f 268/268/268 267/267/267 266/266/266
f 269/269/269 267/267/267 268/268/268
f 270/270/270 269/269/269 268/268/268
f 271/271/271 269/269/269 270/270/270
f 272/272/272 271/271/271 270/270/270
f 273/273/273 271/271/271 272/272/272
f 274/274/274 273/273/273 272/272/272
f 275/275/275 273/273/273 274/274/274
f 276/276/276 275/275/275 274/274/274
f 277/277/277 275/275/275 276/276/276
f 278/278/278 277/277/277 276/276/276
f 279/279/279 277/277/277 278/278/278
f 280/280/280 279/279/279 278/278/278
f 281/281/281 279/279/279 280/280/280
f 282/282/282 281/281/281 280/280/280
f 283/283/283 281/281/281 282/282/282
f 284/284/284 283/283/283 282/282/282
f 285/285/285 283/283/283 284/284/284
f 286/286/286 285/285/285 284/284/284
f 287/287/287 285/285/285 286/286/286
f 288/288/288 287/287/287 286/286/286
f 289/289/289 287/287/287 288/288/288
f 290/290/290 289/289/289 288/288/288
f 291/291/291 289/289/289 290/290/290
f 292/292/292 291/291/291 290/290/290
f 293/293/293 291/291/291 292/292/292
f 294/294/294 293/293/293 292/292/292
f 295/295/295 293/293/293 294/294/294
f 296/296/296 295/295/295 294/294/294
f 297/297/297 295/295/295 296/296/296
f 298/298/298 297/297/297 296/296/296
f 299/299/299 297/297/297 298/298/298
f 300/300/300 299/299/299 298/298/298
f 301/301/301 299/299/299 300/300/300
f 302/302/302 301/301/301 300/300/300
f 303/303/303 301/301/301 302/302/302
f 304/304/304 303/303/303 302/302/302
f 305/305/305 303/303/303 304/304/304
f 306/306/306 305/305/305 304/304/304
f 307/307/307 305/305/305 306/306/306
f 308/308/308 307/307/307 306/306/306
f 309/309/309 307/307/307 308/308/308
f 310/310/310 309/309/309 308/308/308
f 311/311/311 309/309/309 310/310/310
f 312/312/312 311/311/311 310/310/310
f 313/313/313 311/311/311 312/312/312
f 314/314/314 313/313/313 312/312/312
f 315/315/315 313/313/313 314/314/314
f 316/316/316 315/315/315 314/314/314
f 317/317/317 315/315/315 316/316/316
f 318/318/318 317/317/317 316/316/316
f 319/319/319 317/317/317 318/318/318
f 320/320/320 319/319/319 318/318/318
f 321/321/321 319/319/319 320/320/320
f 322/322/322 321/321/321 320/320/320
f 323/323/323 321/321/321 322/322/322
f 324/324/324 323/323/323 322/322/322
f 325/325/325 323/323/323 324/324/324
f 326/326/326 325/325/325 324/324/324
f 327/327/327 325/325/325 326/326/326
f 328/328/328 327/327/327 326/326/326
f 329/329/329 327/327/327 328/328/328
f 330/330/330 329/329/329 328/328/328
f 331/331/331 329/329/329 330/330/330
f 332/332/332 331/331/331 330/330/330
f 333/333/333 331/331/331 332/332/332
f 334/334/334 333/333/333 332/332/332
f 335/335/335 333/333/333 334/334/334
f 336/336/336 335/335/335 334/334/334
f 337/337/337 335/335/335 336/336/336
f 338/338/338 337/337/337 336/336/336
f 339/339/339 337/337/337 338/338/338
f 340/340/340 339/339/339 338/338/338
f 341/341/341 339/339/339 340/340/340
f 342/342/342 341/341/341 340/340/340
f 343/343/343 341/341/341 342/342/342
f 344/344/344 343/343/343 342/342/342
f 345/345/345 343/343/343 344/344/344
f 346/346/346 345/345/345 344/344/344
f 347/347/347 345/345/345 346/346/346
f 348/348/348 347/347/347 346/346/346
f 349/349/349 347/347/347 348/348/348
f 350/350/350 349/349/349 348/348/348
f 351/351/351 349/349/349 350/350/350
f 352/352/352 351/351/351 350/350/350
f 353/353/353 351/351/351 352/352/352
f 354/354/354 353/353/353 352/352/352
f 355/355/355 353/353/353 354/354/354
f 356/356/356 355/355/355 354/354/354
f 357/357/357 355/355/355 356/356/356
f 358/358/358 357/357/357 356/356/356
f 359/359/359 357/357/357 358/358/358
f 360/360/360 359/359/359 358/358/358
f 361/361/361 359/359/359 360/360/360
f 362/362/362 361/361/361 360/360/360
f 363/363/363 361/361/361 362/362/362
f 364/364/364 363/363/363 362/362/362
f 365/365/365 363/363/363 364/364/364
f 366/366/366 365/365/365 364/364/364
f 367/367/367 365/365/365 366/366/366
f 368/368/368 367/367/367 366/366/366
f 371/371/371 370/370/370 369/369/369
f 372/372/372 371/371/371 369/369/369
f 375/375/375 374/374/374 373/373/373
f 376/376/376 375/375/375 373/373/373
f 379/379/379 378/378/378 377/377/377
f 380/380/380 379/379/379 377/377/377
f 383/383/383 382/382/382 381/381/381
f 384/384/384 383/383/383 381/381/381
f 385/385/385 383/383/383 384/384/384
f 386/386/386 385/385/385 384/384/384
f 387/387/387 385/385/385 386/386/386
f 388/388/388 387/387/387 386/386/386
f 389/389/389 387/387/387 388/388/388
f 390/390/390 389/389/389 388/388/388
f 393/393/393 392/392/392 391/391/391
f 394/394/394 393/393/393 391/391/391
f 397/397/397 396/396/396 395/395/395
f 398/398/398 397/397/397 395/395/395
f 401/401/401 400/400/400 399/399/399
f 402/402/402 401/401/401 399/399/399
