g pian_Y1
v 2.13739491 2.84217088E-16 0
v 2.13739491 -2.59655852E-09 0.0488332547
v 0.0747050792 -3.17302451E-09 0.0725903437
v 0.0747051537 -2.84217088E-16 -9.53674295E-09
v 2.13739491 2.59655963E-09 -0.0488332435
v 0.0747051537 3.17302407E-09 -0.0725903437
vt 0.965323269 0.5
vt 0.965323269 0
vt 0.0359114073 0
vt 0.0359114334 0.5
vt 0.965323269 1
vt 0.0359114334 1
vn 0.00152587728 0.999998808 0
vn 1.28455613E-05 0.0042092083 0.999991179
vn -0 1 0
vn -4.76837158E-05 1 9.54111456E-05
vn 1.28455549E-05 0.00420925533 -0.999991179
vn -4.76837267E-05 1 0
g pian_Y1_0
f 3/3/3 2/2/2 1/1/1
f 4/4/4 3/3/3 1/1/1
f 4/4/4 1/1/1 5/5/5
f 6/6/6 4/4/4 5/5/5
