g Cylinder001
v 0.100025326 0.307846397 0
v 0.0733274072 0.463863969 0.0450463183
v 0.0506360978 0.319703758 0
v 0.144849122 0.446693093 0.045046322
v 0.146951631 0.288408875 0
v 0.0906604379 0.573982537 0.110635653
v 0.212804452 0.418545127 0.0450463183
v 0.190259516 0.261869818 0
v 0.179088518 0.552752852 0.110635623
v 0.103209838 0.653710067 0.189738348
v 0.27551958 0.380113274 0.045046322
v 0.228882596 0.22888267 0
v 0.263106912 0.517951369 0.110635661
v 0.203878239 0.629541636 0.189738333
v 0.111550026 0.706696153 0.275324732
v 0.331450611 0.332343578 0.045046322
v 0.261869758 0.190259591 0
v 0.340646625 0.470434934 0.110635631
v 0.299526602 0.589922845 0.189738333
v 0.220353276 0.680574656 0.275324672
v 0.116255604 0.736591339 0.360365093
v 0.379220217 0.276412576 0.0450463183
v 0.288408846 0.146951705 0
v 0.409798682 0.411373675 0.110635638
v 0.387799412 0.535829067 0.189738348
v 0.323730648 0.63775444 0.275324672
v 0.229648665 0.70936805 0.360365093
v 0.117901228 0.747045934 0.437830031
v 0.41765216 0.213697389 0.045046322
v 0.307846338 0.100025401 0
v 0.468859822 0.342221677 0.110635638
v 0.466523707 0.468592525 0.189738348
v 0.419136852 0.579289556 0.275324672
v 0.337386966 0.664741337 0.360365123
v 0.232899234 0.719437301 0.437830091
v 0.117061272 0.741709709 0.500689626
v 0.445800036 0.145742223 0.0450463183
v 0.319703698 0.050636176 0
v 0.516376197 0.264681965 0.110635631
v 0.53376019 0.389868379 0.189738348
v 0.504222512 0.506619632 0.275324732
v 0.436817497 0.603810132 0.360365123
v 0.342162579 0.674178898 0.437830001
v 0.231240034 0.714297771 0.500689626
v 0.114310376 0.724233091 0.541914344
v 0.225806072 0.69746536 0.541914225
v 0.339724928 0.669361889 0.500689626
v 0.33174175 0.653585434 0.541914344
v 0.443000674 0.612385213 0.437830091
v 0.439844757 0.608008385 0.500689566
v 0.429508686 0.593673587 0.541914225
v 0.525492489 0.528074861 0.360365123
v 0.532930732 0.535577774 0.437830091
v 0.529134154 0.531748116 0.500689566
v 0.51669991 0.51920563 0.541914344
v 0.576892436 0.421534032 0.275324672
v 0.60122782 0.439399868 0.360365123
v 0.609738171 0.445647806 0.437830031
v 0.605394304 0.442458719 0.500689566
v 0.591167927 0.432014376 0.541914225
v 0.587854028 0.301595449 0.189738363
v 0.63535732 0.326127857 0.275324732
v 0.662159085 0.339969248 0.360365182
v 0.671531975 0.344809651 0.437830091
v 0.666747868 0.342338949 0.500689626
v 0.651079714 0.33424744 0.541914344
v 0.55117768 0.180663645 0.110635631
v 0.627472758 0.205947191 0.189738348
v 0.678177655 0.222750396 0.275324672
v 0.706785738 0.232230902 0.360365123
v 0.716790318 0.235546336 0.437830031
v 0.711683631 0.2338541 0.500689626
v 0.694959521 0.228311837 0.541914344
v 0.462971002 0.0742204636 0.0450463146
v 0.323688775 0 0
v 0.572407544 0.0922355652 0.110635638
v 0.468741953 0.000892944343 0.0450463146
v 0.319703937 -0.0506354123 0
v 0.739095747 0.119675294 0.500689626
v 0.721727431 0.116816178 0.541914344
v 0.744398773 0.120548286 0.437830091
v 0.651641071 0.105278775 0.189738378
v 0.462971061 -0.0724334866 0.0450463295
v 0.307846636 -0.100024752 0
v 0.579542637 0.00157505029 0.110635631
v 0.748308539 0.00261394493 0.500689626
v 0.730723858 0.00250568381 0.541914344
v 0.704298973 0.113947138 0.275324732
v 0.445800364 -0.143955439 0.0450463183
v 0.288409144 -0.146951124 0
v 0.572407842 -0.0890842229 0.110635661
v 0.659763932 0.00206890097 0.189738363
v 0.734009087 0.118837968 0.360365123
v 0.417652547 -0.211910695 0.045046322
v 0.261870176 -0.190259054 0
v 0.551178336 -0.177512467 0.110635638
v 0.651641548 -0.101139583 0.189738378
v 0.713078141 0.00239711767 0.275324672
v 0.743158579 0.00258224481 0.360365093
v 0.379220843 -0.274625987 0.045046322
v 0.228882939 -0.228882194 0
v 0.516376913 -0.261530906 0.110635661
v 0.627473295 -0.201808184 0.189738348
v 0.70429945 -0.109151497 0.275324672
v 0.753677785 0.00264698034 0.437830031
v 0.331450999 -0.330557138 0.0450463146
v 0.190260038 -0.26186946 0
v 0.468860567 -0.339070797 0.110635631
v 0.587854564 -0.297456592 0.189738348
v 0.678178072 -0.217954934 0.275324672
v 0.734009385 -0.113671891 0.360365212
v 0.74439925 -0.115252666 0.437830091
v 0.275520325 -0.378326833 0.0450463183
v 0.146952093 -0.288408667 0
v 0.409799159 -0.408222824 0.110635638
v 0.533760965 -0.385729671 0.189738348
v 0.635357976 -0.321332544 0.275324732
v 0.706786335 -0.227065057 0.360365182
v 0.739096045 -0.11444582 0.500689626
v 0.721727908 -0.111803226 0.541914344
v 0.716790736 -0.23025088 0.437830031
v 0.711684227 -0.228624791 0.500689566
v 0.694960177 -0.223299101 0.541914344
v 0.662159741 -0.334803492 0.360365123
v 0.57689333 -0.416738778 0.275324732
v 0.671532571 -0.339514375 0.437830091
v 0.666748643 -0.337109864 0.500689626
v 0.65108031 -0.329234838 0.541914344
v 0.601228833 -0.434234351 0.360365182
v 0.466524452 -0.464453846 0.189738303
v 0.609739006 -0.440352619 0.437830091
v 0.605395317 -0.437229782 0.500689566
v 0.591168821 -0.427001983 0.541914344
v 0.504223347 -0.501824498 0.275324643
v 0.340647608 -0.467284292 0.110635638
v 0.525493264 -0.522909284 0.360365182
v 0.532931685 -0.530282795 0.437830001
v 0.529134989 -0.526519239 0.500689626
v 0.516700745 -0.514193237 0.541914344
v 0.387800545 -0.531690717 0.189738348
v 0.212805063 -0.416758895 0.045046322
v 0.100025788 -0.307846248 0
v 0.419137895 -0.57449472 0.275324732
v 0.436818719 -0.598644972 0.360365063
v 0.443001807 -0.607090414 0.437830091
v 0.43984592 -0.602779746 0.500689626
v 0.429509759 -0.588661611 0.541914344
v 0.263107628 -0.514800847 0.110635608
v 0.144849882 -0.44490698 0.0450463109
v 0.050636597 -0.319703639 0
v 0.299527466 -0.585784614 0.189738333
v 0.323731631 -0.632959723 0.275324672
v 0.33738789 -0.659576416 0.360365063
v 0.342163652 -0.668884277 0.437830001
v 0.0733280182 -0.462077975 0.0450463146
v 4.57763662E-07 -0.323688895 0
v 0.179089382 -0.549602568 0.110635631
v 0.203879237 -0.625403583 0.189738378
v 0.220354259 -0.675780296 0.275324613
v 6.86645478E-07 -0.467849106 0.0450463146
v -0.050635621 -0.319703788 0
v 0.0906612352 -0.570832491 0.110635601
v -0.073326759 -0.462078184 0.0450463146
v -0.100024924 -0.307846516 0
v 0.103210829 -0.649572194 0.189738333
v 8.39233394E-07 -0.577967763 0.110635653
v 0.229649723 -0.704203188 0.360365093
v -0.14484863 -0.444907367 0.045046322
v -0.146951258 -0.288409054 0
v -0.0906596929 -0.570832729 0.110635653
v 9.53674316E-07 -0.657695174 0.189738348
v 0.111551054 -0.701901972 0.275324643
v -0.21280387 -0.416759521 0.045046322
v -0.190259203 -0.261870027 0
v -0.179087833 -0.549603045 0.110635668
v -0.103208862 -0.649572492 0.189738333
v 1.02996819E-06 -0.71068126 0.275324732
v 0.116256751 -0.731426656 0.360365093
v -0.275519133 -0.378327668 0.0450463183
v -0.228882328 -0.228882864 0
v -0.263106227 -0.514801621 0.110635638
v -0.203877375 -0.625404179 0.189738408
v -0.111549012 -0.701902151 0.275324732
v -0.331450224 -0.330558121 0.0450463295
v -0.26186958 -0.190259829 0
v -0.340646088 -0.467285335 0.110635623
v -0.299525797 -0.585785449 0.189738333
v -0.37921989 -0.274627119 0.045046322
v -0.288408726 -0.146951914 0
v -0.409798086 -0.408224106 0.110635631
v -0.417651892 -0.211911887 0.0450463183
v -0.307846278 -0.100025572 0
v 1.10626218E-06 -0.740576446 0.360365093
v -0.220352352 -0.675781012 0.275324732
v -0.387798786 -0.53169179 0.189738333
v -0.468859524 -0.339072168 0.110635631
v -0.445799947 -0.143956661 0.0450463146
v -0.319703639 -0.0506363288 0
v -0.116254576 -0.731427133 0.360365033
v -0.323729903 -0.632960796 0.275324672
v -0.466522962 -0.464455217 0.189738348
v -0.516375959 -0.261532366 0.110635638
v -0.462970912 -0.0724348277 0.0450463146
v -0.323688835 -2.6702881E-07 0
v -0.468741983 0.000892600976 0.0450463146
v -0.55117768 -0.177514076 0.110635668
v -0.572407484 -0.0890859216 0.110635623
v -0.579542696 0.00157455436 0.110635638
v -0.533759713 -0.38573128 0.189738333
v -0.419136107 -0.574495852 0.275324672
v -0.587853551 -0.297458261 0.189738348
v -0.651640892 -0.101141505 0.189738303
v -0.659763873 0.00206836686 0.189738348
v -0.627472579 -0.201809958 0.189738333
v -0.504221797 -0.501826048 0.275324643
v -0.704298854 -0.109153576 0.275324672
v -0.713078201 0.00239654537 0.275324732
v -0.57689178 -0.416740477 0.275324732
v -0.678177476 -0.217956856 0.275324613
v -0.635357022 -0.321334332 0.275324672
v -0.734008908 -0.113674067 0.360365033
v -0.74315846 0.00258163456 0.360365123
v -0.706785738 -0.227067068 0.360365212
v -0.662158728 -0.334805369 0.360365123
v -0.601227462 -0.434236199 0.360365093
v -0.525491893 -0.522910953 0.360365212
v -0.744398654 -0.115254842 0.437830001
v -0.753677785 0.00264640804 0.437830091
v -0.71679002 -0.230252907 0.437830031
v -0.671531498 -0.339516252 0.437830091
v -0.609737635 -0.440354466 0.437830001
v -0.739095569 -0.114448011 0.500689626
v -0.748308539 0.00261333468 0.500689626
v -0.711683631 -0.228626817 0.500689626
v -0.721727252 -0.111805402 0.541914344
v -0.730723858 0.00250511174 0.541914344
v -0.694959402 -0.223301083 0.541914344
v -0.651079416 -0.329236716 0.541914344
v -0.66674751 -0.337111771 0.500689626
v -0.591167569 -0.427003741 0.541914403
v -0.605393827 -0.437231541 0.500689626
v -0.516699255 -0.514194846 0.541914344
v -0.529133499 -0.526520848 0.500689507
v -0.429508001 -0.588662922 0.541914225
v -0.532930017 -0.530284464 0.437830031
v -0.439843982 -0.602781057 0.500689566
v -0.331740856 -0.648574531 0.541914344
v -0.442999959 -0.607091725 0.437829971
v -0.339724153 -0.664134502 0.500689507
v -0.225805119 -0.692454338 0.541914344
v -0.436816841 -0.598646283 0.360365123
v -0.342161715 -0.66888535 0.437830001
v -0.23123908 -0.709070086 0.500689626
v -0.114309385 -0.719222009 0.541914225
v -0.337386072 -0.659577489 0.360365182
v -0.23289825 -0.714143515 0.437830091
v -0.117060199 -0.736481965 0.500689566
v 1.06811524E-06 -0.728218317 0.541914344
v -0.229647666 -0.704203904 0.360365123
v -0.117900141 -0.741752148 0.437830001
v 1.10626218E-06 -0.745694697 0.500689626
v 0.114311442 -0.719221652 0.541914225
v 1.10626218E-06 -0.751030862 0.437830031
v 0.1170623 -0.736481607 0.500689626
v 0.225807145 -0.692453682 0.541914225
v 0.117902294 -0.741751671 0.437830001
v 0.231241226 -0.709069371 0.500689507
v 0.331742734 -0.648573518 0.541914344
v 0.232900351 -0.71414274 0.437830091
v 0.33972615 -0.66413343 0.500689626
vt 0.962037265 0.000500000024
vt 0.996377826 0.125375003
vt 0.996377826 0.000500000024
vt 0.962037265 0.125375003
vt 0.927696705 0.000500000024
vt 0.996377826 0.250249982
vt 0.927696705 0.125375003
vt 0.893356144 0.000500000024
vt 0.962037265 0.250249982
vt 0.996377826 0.375124991
vt 0.893356144 0.125375003
vt 0.859015465 0.000500000024
vt 0.927696705 0.250249982
vt 0.962037265 0.375124991
vt 0.996377826 0.49999997
vt 0.859015465 0.125375003
vt 0.824674845 0.000500000024
vt 0.893356144 0.250249982
vt 0.927696705 0.375124991
vt 0.962037265 0.49999997
vt 0.996377826 0.624875009
vt 0.824674845 0.125375003
vt 0.790334225 0.000500000024
vt 0.859015465 0.250249982
vt 0.893356144 0.375124991
vt 0.927696705 0.49999997
vt 0.962037265 0.624875009
vt 0.996377826 0.749750018
vt 0.790334225 0.125375003
vt 0.755993605 0.000500000024
vt 0.824674845 0.250249982
vt 0.859015465 0.375124991
vt 0.893356144 0.49999997
vt 0.927696705 0.624875009
vt 0.962037265 0.749750018
vt 0.996377826 0.874625027
vt 0.755993605 0.125375003
vt 0.721652925 0.000500000024
vt 0.790334225 0.250249982
vt 0.824674845 0.375124991
vt 0.859015465 0.49999997
vt 0.893356144 0.624875009
vt 0.927696705 0.749750018
vt 0.962037265 0.874625027
vt 0.996377826 0.999500036
vt 0.962037265 0.999500036
vt 0.927696705 0.874625027
vt 0.927696705 0.999500036
vt 0.893356144 0.749750018
vt 0.893356144 0.874625027
vt 0.893356144 0.999500036
vt 0.859015465 0.624875009
vt 0.859015465 0.749750018
vt 0.859015465 0.874625027
vt 0.859015465 0.999500036
vt 0.824674845 0.49999997
vt 0.824674845 0.624875009
vt 0.824674845 0.749750018
vt 0.824674845 0.874625027
vt 0.824674845 0.999500036
vt 0.790334225 0.375124991
vt 0.790334225 0.49999997
vt 0.790334225 0.624875009
vt 0.790334225 0.749750018
vt 0.790334225 0.874625027
vt 0.790334225 0.999500036
vt 0.755993605 0.250249982
vt 0.755993605 0.375124991
vt 0.755993605 0.49999997
vt 0.755993605 0.624875009
vt 0.755993605 0.749750018
vt 0.755993605 0.874625027
vt 0.755993605 0.999500036
vt 0.721652925 0.125375003
vt 0.687312365 0.000500000024
vt 0.721652925 0.250249982
vt 0.687312365 0.125375003
vt 0.652972221 0.000500000024
vt 0.721652925 0.874625027
vt 0.721652925 0.999500036
vt 0.721652925 0.749750018
vt 0.721652925 0.375124991
vt 0.652972221 0.125375003
vt 0.618631482 0.000500000024
vt 0.687312365 0.250249982
vt 0.687312365 0.874625027
vt 0.687312365 0.999500036
vt 0.721652925 0.49999997
vt 0.618631482 0.125375003
vt 0.584290802 0.000500000024
vt 0.652972221 0.250249982
vt 0.687312365 0.375124991
vt 0.721652925 0.624875009
vt 0.584290802 0.125375003
vt 0.549950302 0.000500000024
vt 0.618631482 0.250249982
vt 0.652972221 0.375124991
vt 0.687312365 0.49999997
vt 0.687312365 0.624875009
vt 0.549950302 0.125375003
vt 0.515609622 0.000500000024
vt 0.584290802 0.250249982
vt 0.618631482 0.375124991
vt 0.652972221 0.49999997
vt 0.687312365 0.749750018
vt 0.515609622 0.125375003
vt 0.481268913 0.000500000024
vt 0.549950302 0.250249982
vt 0.584290802 0.375124991
vt 0.618631482 0.49999997
vt 0.652972221 0.624875009
vt 0.652972221 0.749750018
vt 0.481268913 0.125375003
vt 0.446928293 0.000500000024
vt 0.515609622 0.250249982
vt 0.549950302 0.375124991
vt 0.584290802 0.49999997
vt 0.618631482 0.624875009
vt 0.652972221 0.874625027
vt 0.652972221 0.999500036
vt 0.618631482 0.749750018
vt 0.618631482 0.874625027
vt 0.618631482 0.999500036
vt 0.584290802 0.624875009
vt 0.549950302 0.49999997
vt 0.584290802 0.749750018
vt 0.584290802 0.874625027
vt 0.584290802 0.999500036
vt 0.549950302 0.624875009
vt 0.515609622 0.375124991
vt 0.549950302 0.749750018
vt 0.549950302 0.874625027
vt 0.549950302 0.999500036
vt 0.515609622 0.49999997
vt 0.481268913 0.250249982
vt 0.515609622 0.624875009
vt 0.515609622 0.749750018
vt 0.515609622 0.874625027
vt 0.515609622 0.999500036
vt 0.481268913 0.375124991
vt 0.446928293 0.125375003
vt 0.412587643 0.000500000024
vt 0.481268913 0.49999997
vt 0.481268913 0.624875009
vt 0.481268913 0.749750018
vt 0.481268913 0.874625027
vt 0.481268913 0.999500036
vt 0.446928293 0.250249982
vt 0.412587643 0.125375003
vt 0.378246993 0.000500000024
vt 0.446928293 0.375124991
vt 0.446928293 0.49999997
vt 0.446928293 0.624875009
vt 0.446928293 0.749750018
vt 0.378246993 0.125375003
vt 0.343906432 0.000500000024
vt 0.412587643 0.250249982
vt 0.412587643 0.375124991
vt 0.412587643 0.49999997
vt 0.343906432 0.125375003
vt 0.309565783 0.000500000024
vt 0.378246993 0.250249982
vt 0.309565783 0.125375003
vt 0.275225103 0.000500000024
vt 0.378246993 0.375124991
vt 0.343906432 0.250249982
vt 0.412587643 0.624875009
vt 0.275225103 0.125375003
vt 0.240884483 0.000500000024
vt 0.309565783 0.250249982
vt 0.343906432 0.375124991
vt 0.378246993 0.49999997
vt 0.240884483 0.125375003
vt 0.206543818 0.000500000024
vt 0.275225103 0.250249982
vt 0.309565783 0.375124991
vt 0.343906432 0.49999997
vt 0.378246993 0.624875009
vt 0.206543818 0.125375003
vt 0.172203273 0.000500000024
vt 0.240884483 0.250249982
vt 0.275225103 0.375124991
vt 0.309565783 0.49999997
vt 0.172203273 0.125375003
vt 0.137862608 0.000500000024
vt 0.206543818 0.250249982
vt 0.240884483 0.375124991
vt 0.137862608 0.125375003
vt 0.103521943 0.000500000024
vt 0.172203273 0.250249982
vt 0.103521943 0.125375003
vt 0.0691813082 0.000500000024
vt 0.343906432 0.624875009
vt 0.275225103 0.49999997
vt 0.206543818 0.375124991
vt 0.137862608 0.250249982
vt 0.0691813082 0.125375003
vt 0.0348406993 0.000500000024
vt 0.309565783 0.624875009
vt 0.240884483 0.49999997
vt 0.172203273 0.375124991
vt 0.103521943 0.250249982
vt 0.0348406993 0.125375003
vt 0.000500000024 0.000500000024
vt 0.000500000024 0.125375003
vt 0.0691813082 0.250249982
vt 0.0348406993 0.250249982
vt 0.000500000024 0.250249982
vt 0.137862608 0.375124991
vt 0.206543818 0.49999997
vt 0.103521943 0.375124991
vt 0.0348406993 0.375124991
vt 0.000500000024 0.375124991
vt 0.0691813082 0.375124991
vt 0.172203273 0.49999997
vt 0.0348406993 0.49999997
vt 0.000500000024 0.49999997
vt 0.137862608 0.49999997
vt 0.0691813082 0.49999997
vt 0.103521943 0.49999997
vt 0.0348406993 0.624875009
vt 0.000500000024 0.624875009
vt 0.0691813082 0.624875009
vt 0.103521943 0.624875009
vt 0.137862608 0.624875009
vt 0.172203273 0.624875009
vt 0.0348406993 0.749750018
vt 0.000500000024 0.749750018
vt 0.0691813082 0.749750018
vt 0.103521943 0.749750018
vt 0.137862608 0.749750018
vt 0.0348406993 0.874625027
vt 0.000500000024 0.874625027
vt 0.0691813082 0.874625027
vt 0.0348406993 0.999500036
vt 0.000500000024 0.999500036
vt 0.0691813082 0.999500036
vt 0.103521943 0.999500036
vt 0.103521943 0.874625027
vt 0.137862608 0.999500036
vt 0.137862608 0.874625027
vt 0.172203273 0.999500036
vt 0.172203273 0.874625027
vt 0.206543818 0.999500036
vt 0.172203273 0.749750018
vt 0.206543818 0.874625027
vt 0.240884483 0.999500036
vt 0.206543818 0.749750018
vt 0.240884483 0.874625027
vt 0.275225103 0.999500036
vt 0.206543818 0.624875009
vt 0.240884483 0.749750018
vt 0.275225103 0.874625027
vt 0.309565783 0.999500036
vt 0.240884483 0.624875009
vt 0.275225103 0.749750018
vt 0.309565783 0.874625027
vt 0.343906432 0.999500036
vt 0.275225103 0.624875009
vt 0.309565783 0.749750018
vt 0.343906432 0.874625027
vt 0.378246993 0.999500036
vt 0.343906432 0.749750018
vt 0.378246993 0.874625027
vt 0.412587643 0.999500036
vt 0.378246993 0.749750018
vt 0.412587643 0.874625027
vt 0.446928293 0.999500036
vt 0.412587643 0.749750018
vt 0.446928293 0.874625027
vn 0.0911881328 0.280555457 -0.95549643
vn 0.0956465825 0.398396432 -0.912212729
vn 0.06905213 0.287622154 -0.955251396
vn 0.126291916 0.388650417 -0.912688911
vn 0.134010807 0.262918562 -0.955465853
vn 0.143124282 0.596155047 -0.79000932
vn 0.185595185 0.364215016 -0.912634611
vn 0.173580125 0.238819823 -0.955423951
vn 0.189100996 0.581969678 -0.790918589
vn 0.182632074 0.760714591 -0.622863412
vn 0.240387484 0.330828846 -0.912560165
vn 0.208929837 0.208836883 -0.955371916
vn 0.277877837 0.545342624 -0.790813148
vn 0.241469309 0.743162632 -0.624020696
vn 0.21048446 0.876727343 -0.432487577
vn 0.289330155 0.289293587 -0.912467659
vn 0.239192203 0.1736902 -0.955310881
vn 0.3598786 0.495307446 -0.790669262
vn 0.354802102 0.696335196 -0.623885155
vn 0.278460383 0.857026696 -0.433549434
vn 0.226926148 0.945213139 -0.234683886
vn 0.33122164 0.240610003 -0.912359059
vn 0.263619453 0.134227499 -0.955242276
vn 0.433096766 0.433073044 -0.790490329
vn 0.459451586 0.632378399 -0.623700023
vn 0.409125865 0.802969515 -0.433423549
vn 0.300329477 0.924343944 -0.235351682
vn 0.233373925 0.972070515 -0.0248074457
vn 0.36502707 0.18595396 -0.912237048
vn 0.281602055 0.0914048627 -0.95516777
vn 0.495732665 0.36014685 -0.790280581
vn 0.552851319 0.552847981 -0.62346977
vn 0.529747665 0.729150474 -0.433251649
vn 0.441236585 0.866000831 -0.235271722
vn 0.30891183 0.950765193 -0.0248821434
vn 0.226593867 0.943829656 0.24050115
vn 0.389903396 0.126650959 -0.912104607
vn 0.292684764 0.0462632477 -0.955089211
vn 0.546240211 0.278299659 -0.790044963
vn 0.632703781 0.459682167 -0.623199999
vn 0.637361467 0.63737607 -0.433038116
vn 0.571288764 0.786338151 -0.235162586
vn 0.453836709 0.890737653 -0.0248735845
vn 0.299882233 0.922982514 0.241192579
vn 0.21463035 0.893998444 0.393320084
vn 0.28401491 0.873993933 0.394297004
vn 0.440579981 0.864727497 0.241113454
vn 0.417279899 0.818843305 0.394174159
vn 0.587587416 0.808778703 -0.0248615853
vn 0.570440054 0.785184443 0.241005599
vn 0.540291905 0.743534386 0.394006729
vn 0.687286794 0.687312961 -0.235027239
vn 0.706871748 0.706905186 -0.0248462055
vn 0.686267376 0.68630743 0.240871832
vn 0.650027752 0.649913132 0.393798113
vn 0.729318798 0.529894888 -0.432788134
vn 0.786374152 0.571359694 -0.234869435
vn 0.808751702 0.58762598 -0.0248283371
vn 0.785209179 0.57052809 0.24071601
vn 0.743784904 0.540276647 0.393554449
vn 0.697039247 0.355155855 -0.62289691
vn 0.803352714 0.409342945 -0.432507515
vn 0.866109908 0.44133094 -0.234692499
vn 0.890718699 0.45387736 -0.0248084068
vn 0.864829302 0.440692931 0.240541309
vn 0.819253623 0.417316437 0.393281817
vn 0.583364367 0.189523086 -0.7897892
vn 0.74426502 0.241822913 -0.622568369
vn 0.857635736 0.278677166 -0.43220365
vn 0.924529672 0.300423741 -0.234500408
vn 0.950754523 0.308952183 -0.0247869734
vn 0.923165262 0.299995244 0.240351185
vn 0.874572277 0.284051746 0.392985761
vn 0.405222595 0.0641445667 -0.911965013
vn 0.296578944 -9.35112621E-05 -0.955008328
vn 0.606173158 0.0959850475 -0.789519489
vn 0.410586834 -3.6397003E-05 -0.911821485
vn 0.29317078 -0.0465269089 -0.954927266
vn 0.958778024 0.151896179 0.240150288
vn 0.908372462 0.143758252 0.392674029
vn 0.987380266 0.156419024 -0.0247645285
vn 0.773203194 0.122460179 -0.622222066
vn 0.405841649 -0.0643147901 -0.911677659
vn 0.282526165 -0.0918917432 -0.954848111
vn 0.614081323 -2.28927765E-05 -0.789242744
vn 0.970786631 4.15853065E-05 0.239944473
vn 0.919814587 -0.000113253234 0.392353356
vn 0.890822828 0.141106963 -0.431883633
vn 0.391081005 -0.127105698 -0.911536992
vn 0.264891088 -0.135062084 -0.954772711
vn 0.6068694 -0.0961408168 -0.788965523
vn 0.783123136 -1.99620104E-06 -0.621866763
vn 0.960192025 0.152105346 -0.234297663
vn 0.366647929 -0.186852068 -0.91140312
vn 0.240686908 -0.174963072 -0.954702914
vn 0.584689021 -0.189999267 -0.788694441
vn 0.7737602 -0.122553021 -0.621511042
vn 0.902086616 1.57272498E-05 -0.431555063
vn 0.972214937 2.68721433E-05 -0.234089985
vn 0.333127201 -0.242067233 -0.911279142
vn 0.210501686 -0.210595459 -0.954640567
vn 0.548063636 -0.279274642 -0.788436413
vn 0.745324314 -0.24217242 -0.621163547
vn 0.891138375 -0.141126186 -0.431226045
vn 0.999693871 3.44987275E-05 -0.0247414932
vn 0.291333854 -0.291369677 -0.911168575
vn 0.175075397 -0.241063938 -0.954587221
vn 0.497875899 -0.361750513 -0.788198054
vn 0.698497355 -0.355903685 -0.620833278
vn 0.858235359 -0.278841704 -0.430905193
vn 0.960298955 -0.152068719 -0.233882353
vn 0.987392008 -0.156352058 -0.0247182697
vn 0.242293715 -0.33352378 -0.911073864
vn 0.135282695 -0.26560092 -0.954544187
vn 0.435350478 -0.435372293 -0.787985325
vn 0.634417593 -0.460932732 -0.6205284
vn 0.804178178 -0.40973255 -0.430600256
vn 0.924733162 -0.300436735 -0.233679935
vn 0.958891273 -0.15183109 0.239739254
vn 0.908607602 -0.144021899 0.39203307
vn 0.950776756 -0.308890879 -0.0246960539
vn 0.923380494 -0.29998225 0.239539385
vn 0.875018239 -0.2844235 0.39172253
vn 0.866390347 -0.441419959 -0.233487204
vn 0.730289042 -0.530569375 -0.430318564
vn 0.890749574 -0.453824073 -0.0246750563
vn 0.865125418 -0.440760553 0.23934941
vn 0.819866717 -0.417855173 0.391427606
vn 0.786703467 -0.57154578 -0.233309224
vn 0.554653883 -0.554654598 -0.620255828
vn 0.808787882 -0.587583482 -0.0246553123
vn 0.785556912 -0.570698202 0.239173129
vn 0.744505525 -0.541027486 0.391153127
vn 0.638382316 -0.638365328 -0.430067182
vn 0.362022698 -0.498302817 -0.787803173
vn 0.687633395 -0.687605321 -0.233150825
vn 0.706910074 -0.706874073 -0.0246375818
vn 0.686633229 -0.686590195 0.239016011
vn 0.650786221 -0.650898218 0.390907586
vn 0.461166322 -0.634742022 -0.620022774
vn 0.187216535 -0.367468745 -0.91099757
vn 0.0921122879 -0.283585459 -0.954512835
vn 0.530718803 -0.730454862 -0.429852515
vn 0.571618855 -0.786737323 -0.233015612
vn 0.587624311 -0.808759212 -0.0246225409
vn 0.570788741 -0.785579741 0.23888211
vn 0.541013956 -0.744753361 0.390699714
vn 0.279701352 -0.548966765 -0.787656426
vn 0.127470255 -0.392347366 -0.91094178
vn 0.0466395989 -0.294562131 -0.954493463
vn 0.356260419 -0.699201405 -0.619835317
vn 0.409951776 -0.804558575 -0.42968002
vn 0.441516757 -0.866497278 -0.232906461
vn 0.453867376 -0.890729308 -0.0246103406
vn 0.0645414516 -0.407531172 -0.910907686
vn 4.279336E-07 -0.298252344 -0.954487085
vn 0.190426752 -0.586092472 -0.78754884
vn 0.242529914 -0.746427238 -0.619698048
vn 0.279061407 -0.858841419 -0.429553449
vn 5.24499569E-07 -0.412635773 -0.910896122
vn -0.0466388389 -0.29456225 -0.954493582
vn 0.0964136347 -0.608748257 -0.787483335
vn -0.0645404756 -0.40753147 -0.910907567
vn -0.092111513 -0.283585727 -0.954512715
vn 0.122787468 -0.775242686 -0.619614422
vn 7.57568955E-07 -0.616364121 -0.787461281
vn 0.300534189 -0.924916804 -0.232826218
vn -0.127469137 -0.392347872 -0.91094172
vn -0.135281861 -0.265601248 -0.954544187
vn -0.096412085 -0.608748376 -0.787483394
vn 8.40057965E-07 -0.784928799 -0.619585931
vn 0.141276553 -0.89195925 -0.429476023
vn -0.187215447 -0.367469311 -0.91099757
vn -0.175074473 -0.241064504 -0.954587221
vn -0.190424964 -0.586093128 -0.78754884
vn -0.122785285 -0.775243342 -0.619614124
vn 1.04298101E-06 -0.903090477 -0.429450214
vn 0.15214327 -0.960555613 -0.232777432
vn -0.242292404 -0.333524674 -0.911073983
vn -0.210501105 -0.210595921 -0.954640567
vn -0.279699862 -0.548967659 -0.787656367
vn -0.242527232 -0.746428072 -0.619698048
vn -0.141273871 -0.891959429 -0.429476529
vn -0.291333169 -0.291370481 -0.911168575
vn -0.240686595 -0.174963579 -0.954702914
vn -0.362021208 -0.498304367 -0.787802994
vn -0.356258571 -0.69920224 -0.619835556
vn -0.333126664 -0.242067724 -0.911279142
vn -0.264890671 -0.135062948 -0.954772711
vn -0.435349524 -0.435373902 -0.787985027
vn -0.366647482 -0.18685323 -0.911403
vn -0.282525718 -0.0918925032 -0.954848111
vn 1.65069116E-06 -0.972533822 -0.232761562
vn -0.279058218 -0.858842254 -0.429553717
vn -0.461164564 -0.634743214 -0.620022893
vn -0.497875363 -0.361751527 -0.788197875
vn -0.391080737 -0.127107039 -0.911536932
vn -0.293170393 -0.0465277992 -0.954927325
vn -0.152140096 -0.960555911 -0.2327784
vn -0.40994978 -0.804559529 -0.429680377
vn -0.554652333 -0.554656506 -0.620255589
vn -0.54806298 -0.279276073 -0.788436353
vn -0.405841559 -0.0643160865 -0.911677599
vn -0.296628535 -0.0233454779 -0.954707503
vn -0.41091463 -0.0323399976 -0.91110003
vn -0.584688783 -0.190001264 -0.788694263
vn -0.6068694 -0.0961427912 -0.788965225
vn -0.613843799 -0.0483110026 -0.787947893
vn -0.63441658 -0.46093449 -0.620527983
vn -0.530716658 -0.730456054 -0.429853171
vn -0.698496103 -0.355905801 -0.620833516
vn -0.773759723 -0.122555211 -0.621511042
vn -0.781960726 -0.0615425147 -0.620282054
vn -0.745323539 -0.242174119 -0.621163905
vn -0.63838011 -0.638366878 -0.430068016
vn -0.891137719 -0.141128272 -0.431226671
vn -0.899979949 -0.0708308667 -0.430138409
vn -0.730287254 -0.530571282 -0.430319339
vn -0.858234406 -0.278843492 -0.430905938
vn -0.804176569 -0.409735322 -0.430600822
vn -0.960298657 -0.15207091 -0.233882219
vn -0.969428599 -0.0762963444 -0.233210668
vn -0.924732685 -0.300438911 -0.233679295
vn -0.866389036 -0.441422641 -0.233487025
vn -0.786701977 -0.571547568 -0.233309552
vn -0.687631428 -0.687607229 -0.233150944
vn -0.987391651 -0.156354487 -0.0247186385
vn -0.996614516 -0.07843595 -0.0246430747
vn -0.950775981 -0.308893293 -0.0246960241
vn -0.890748203 -0.453826725 -0.0246743765
vn -0.808786571 -0.58758539 -0.0246544257
vn -0.958890796 -0.151833475 0.239739507
vn -0.968027174 -0.0761860833 0.238996208
vn -0.923379779 -0.299984515 0.239539385
vn -0.908606231 -0.144024074 0.392035365
vn -0.917481422 -0.072207965 0.391169757
vn -0.875016928 -0.284425408 0.39172399
vn -0.8198663 -0.417858034 0.39142558
vn -0.865124166 -0.440763474 0.239348412
vn -0.744505167 -0.54102993 0.391150266
vn -0.785555899 -0.570700288 0.239172056
vn -0.650784552 -0.650900543 0.390906423
vn -0.686631322 -0.68659234 0.239015222
vn -0.54101193 -0.744755328 0.390698969
vn -0.706907928 -0.706876397 -0.0246368777
vn -0.570786297 -0.785581529 0.238881811
vn -0.417891473 -0.820275486 0.390531451
vn -0.587621868 -0.808760881 -0.0246221814
vn -0.440873951 -0.865226567 0.238774061
vn -0.284459084 -0.87559396 0.390407711
vn -0.57161659 -0.786739051 -0.233015448
vn -0.45386526 -0.890730441 -0.0246099364
vn -0.300095439 -0.923562288 0.238695443
vn -0.144006506 -0.909341991 0.390332431
vn -0.441514701 -0.866498351 -0.232906207
vn -0.308932304 -0.950765848 -0.024600558
vn -0.151919708 -0.959149599 0.238647386
vn 1.49036237E-06 -0.920684636 0.390307486
vn -0.300531209 -0.924917758 -0.23282662
vn -0.156391203 -0.987388849 -0.0245949961
vn 1.68064935E-06 -0.971110284 0.238631144
vn 0.144009441 -0.909341395 0.390332431
vn 1.88290392E-06 -0.999697566 -0.0245933402
vn 0.151922807 -0.959149122 0.238647163
vn 0.284461528 -0.875593245 0.390407562
vn 0.156394437 -0.987388432 -0.0245953016
vn 0.300098181 -0.923561454 0.23869504
vn 0.417893201 -0.820274472 0.390531719
vn 0.308934957 -0.950764954 -0.024600843
vn 0.440875977 -0.865225494 0.238774121
g Cylinder001_0
f 3/3/3 2/2/2 1/1/1
f 2/2/2 4/4/4 1/1/1
f 1/1/1 4/4/4 5/5/5
f 2/2/2 6/6/6 4/4/4
f 4/4/4 7/7/7 5/5/5
f 5/5/5 7/7/7 8/8/8
f 6/6/6 9/9/9 4/4/4
f 4/4/4 9/9/9 7/7/7
f 6/6/6 10/10/10 9/9/9
f 7/7/7 11/11/11 8/8/8
f 8/8/8 11/11/11 12/12/12
f 9/9/9 13/13/13 7/7/7
f 7/7/7 13/13/13 11/11/11
f 10/10/10 14/14/14 9/9/9
f 9/9/9 14/14/14 13/13/13
f 10/10/10 15/15/15 14/14/14
f 11/11/11 16/16/16 12/12/12
f 12/12/12 16/16/16 17/17/17
f 13/13/13 18/18/18 11/11/11
f 11/11/11 18/18/18 16/16/16
f 14/14/14 19/19/19 13/13/13
f 13/13/13 19/19/19 18/18/18
f 15/15/15 20/20/20 14/14/14
f 14/14/14 20/20/20 19/19/19
f 15/15/15 21/21/21 20/20/20
f 16/16/16 22/22/22 17/17/17
f 17/17/17 22/22/22 23/23/23
f 18/18/18 24/24/24 16/16/16
f 16/16/16 24/24/24 22/22/22
f 19/19/19 25/25/25 18/18/18
f 18/18/18 25/25/25 24/24/24
f 20/20/20 26/26/26 19/19/19
f 19/19/19 26/26/26 25/25/25
f 21/21/21 27/27/27 20/20/20
f 20/20/20 27/27/27 26/26/26
f 21/21/21 28/28/28 27/27/27
f 22/22/22 29/29/29 23/23/23
f 23/23/23 29/29/29 30/30/30
f 24/24/24 31/31/31 22/22/22
f 22/22/22 31/31/31 29/29/29
f 25/25/25 32/32/32 24/24/24
f 24/24/24 32/32/32 31/31/31
f 26/26/26 33/33/33 25/25/25
f 25/25/25 33/33/33 32/32/32
f 27/27/27 34/34/34 26/26/26
f 26/26/26 34/34/34 33/33/33
f 28/28/28 35/35/35 27/27/27
f 27/27/27 35/35/35 34/34/34
f 28/28/28 36/36/36 35/35/35
f 29/29/29 37/37/37 30/30/30
f 30/30/30 37/37/37 38/38/38
f 31/31/31 39/39/39 29/29/29
f 29/29/29 39/39/39 37/37/37
f 32/32/32 40/40/40 31/31/31
f 31/31/31 40/40/40 39/39/39
f 33/33/33 41/41/41 32/32/32
f 32/32/32 41/41/41 40/40/40
f 34/34/34 42/42/42 33/33/33
f 33/33/33 42/42/42 41/41/41
f 35/35/35 43/43/43 34/34/34
f 34/34/34 43/43/43 42/42/42
f 36/36/36 44/44/44 35/35/35
f 35/35/35 44/44/44 43/43/43
f 36/36/36 45/45/45 44/44/44
f 45/45/45 46/46/46 44/44/44
f 44/44/44 46/46/46 47/47/47
f 44/44/44 47/47/47 43/43/43
f 46/46/46 48/48/48 47/47/47
f 43/43/43 49/49/49 42/42/42
f 43/43/43 47/47/47 49/49/49
f 47/47/47 48/48/48 50/50/50
f 47/47/47 50/50/50 49/49/49
f 48/48/48 51/51/51 50/50/50
f 42/42/42 52/52/52 41/41/41
f 42/42/42 49/49/49 52/52/52
f 49/49/49 50/50/50 53/53/53
f 49/49/49 53/53/53 52/52/52
f 50/50/50 51/51/51 54/54/54
f 50/50/50 54/54/54 53/53/53
f 51/51/51 55/55/55 54/54/54
f 41/41/41 52/52/52 56/56/56
f 41/41/41 56/56/56 40/40/40
f 52/52/52 53/53/53 57/57/57
f 52/52/52 57/57/57 56/56/56
f 53/53/53 54/54/54 58/58/58
f 53/53/53 58/58/58 57/57/57
f 54/54/54 55/55/55 59/59/59
f 54/54/54 59/59/59 58/58/58
f 55/55/55 60/60/60 59/59/59
f 40/40/40 56/56/56 61/61/61
f 40/40/40 61/61/61 39/39/39
f 56/56/56 57/57/57 62/62/62
f 56/56/56 62/62/62 61/61/61
f 57/57/57 58/58/58 63/63/63
f 57/57/57 63/63/63 62/62/62
f 58/58/58 59/59/59 64/64/64
f 58/58/58 64/64/64 63/63/63
f 59/59/59 60/60/60 65/65/65
f 59/59/59 65/65/65 64/64/64
f 60/60/60 66/66/66 65/65/65
f 39/39/39 61/61/61 67/67/67
f 39/39/39 67/67/67 37/37/37
f 61/61/61 62/62/62 68/68/68
f 61/61/61 68/68/68 67/67/67
f 62/62/62 63/63/63 69/69/69
f 62/62/62 69/69/69 68/68/68
f 63/63/63 64/64/64 70/70/70
f 63/63/63 70/70/70 69/69/69
f 64/64/64 65/65/65 71/71/71
f 64/64/64 71/71/71 70/70/70
f 65/65/65 66/66/66 72/72/72
f 65/65/65 72/72/72 71/71/71
f 66/66/66 73/73/73 72/72/72
f 37/37/37 67/67/67 74/74/74
f 37/37/37 74/74/74 38/38/38
f 38/38/38 74/74/74 75/75/75
f 67/67/67 68/68/68 76/76/76
f 67/67/67 76/76/76 74/74/74
f 74/74/74 77/77/77 75/75/75
f 74/74/74 76/76/76 77/77/77
f 75/75/75 77/77/77 78/78/78
f 72/72/72 73/73/73 79/79/79
f 73/73/73 80/80/80 79/79/79
f 71/71/71 72/72/72 81/81/81
f 72/72/72 79/79/79 81/81/81
f 68/68/68 82/82/82 76/76/76
f 68/68/68 69/69/69 82/82/82
f 77/77/77 83/83/83 78/78/78
f 78/78/78 83/83/83 84/84/84
f 76/76/76 85/85/85 77/77/77
f 76/76/76 82/82/82 85/85/85
f 77/77/77 85/85/85 83/83/83
f 79/79/79 80/80/80 86/86/86
f 80/80/80 87/87/87 86/86/86
f 69/69/69 88/88/88 82/82/82
f 69/69/69 70/70/70 88/88/88
f 83/83/83 89/89/89 84/84/84
f 84/84/84 89/89/89 90/90/90
f 85/85/85 91/91/91 83/83/83
f 83/83/83 91/91/91 89/89/89
f 82/82/82 92/92/92 85/85/85
f 82/82/82 88/88/88 92/92/92
f 85/85/85 92/92/92 91/91/91
f 70/70/70 93/93/93 88/88/88
f 70/70/70 71/71/71 93/93/93
f 71/71/71 81/81/81 93/93/93
f 89/89/89 94/94/94 90/90/90
f 90/90/90 94/94/94 95/95/95
f 91/91/91 96/96/96 89/89/89
f 89/89/89 96/96/96 94/94/94
f 92/92/92 97/97/97 91/91/91
f 91/91/91 97/97/97 96/96/96
f 88/88/88 98/98/98 92/92/92
f 88/88/88 93/93/93 98/98/98
f 92/92/92 98/98/98 97/97/97
f 93/93/93 81/81/81 99/99/99
f 93/93/93 99/99/99 98/98/98
f 94/94/94 100/100/100 95/95/95
f 95/95/95 100/100/100 101/101/101
f 96/96/96 102/102/102 94/94/94
f 94/94/94 102/102/102 100/100/100
f 97/97/97 103/103/103 96/96/96
f 96/96/96 103/103/103 102/102/102
f 98/98/98 104/104/104 97/97/97
f 98/98/98 99/99/99 104/104/104
f 97/97/97 104/104/104 103/103/103
f 81/81/81 105/105/105 99/99/99
f 81/81/81 79/79/79 105/105/105
f 79/79/79 86/86/86 105/105/105
f 100/100/100 106/106/106 101/101/101
f 101/101/101 106/106/106 107/107/107
f 102/102/102 108/108/108 100/100/100
f 100/100/100 108/108/108 106/106/106
f 103/103/103 109/109/109 102/102/102
f 102/102/102 109/109/109 108/108/108
f 104/104/104 110/110/110 103/103/103
f 103/103/103 110/110/110 109/109/109
f 99/99/99 111/111/111 104/104/104
f 99/99/99 105/105/105 111/111/111
f 104/104/104 111/111/111 110/110/110
f 105/105/105 86/86/86 112/112/112
f 105/105/105 112/112/112 111/111/111
f 106/106/106 113/113/113 107/107/107
f 107/107/107 113/113/113 114/114/114
f 108/108/108 115/115/115 106/106/106
f 106/106/106 115/115/115 113/113/113
f 109/109/109 116/116/116 108/108/108
f 108/108/108 116/116/116 115/115/115
f 110/110/110 117/117/117 109/109/109
f 109/109/109 117/117/117 116/116/116
f 111/111/111 118/118/118 110/110/110
f 111/111/111 112/112/112 118/118/118
f 110/110/110 118/118/118 117/117/117
f 86/86/86 119/119/119 112/112/112
f 86/86/86 87/87/87 119/119/119
f 87/87/87 120/120/120 119/119/119
f 112/112/112 121/121/121 118/118/118
f 112/112/112 119/119/119 121/121/121
f 119/119/119 120/120/120 122/122/122
f 119/119/119 122/122/122 121/121/121
f 120/120/120 123/123/123 122/122/122
f 118/118/118 124/124/124 117/117/117
f 118/118/118 121/121/121 124/124/124
f 117/117/117 125/125/125 116/116/116
f 117/117/117 124/124/124 125/125/125
f 121/121/121 122/122/122 126/126/126
f 121/121/121 126/126/126 124/124/124
f 122/122/122 123/123/123 127/127/127
f 122/122/122 127/127/127 126/126/126
f 123/123/123 128/128/128 127/127/127
f 124/124/124 126/126/126 129/129/129
f 124/124/124 129/129/129 125/125/125
f 116/116/116 125/125/125 130/130/130
f 116/116/116 130/130/130 115/115/115
f 126/126/126 127/127/127 131/131/131
f 126/126/126 131/131/131 129/129/129
f 127/127/127 128/128/128 132/132/132
f 127/127/127 132/132/132 131/131/131
f 128/128/128 133/133/133 132/132/132
f 125/125/125 129/129/129 134/134/134
f 125/125/125 134/134/134 130/130/130
f 115/115/115 130/130/130 135/135/135
f 115/115/115 135/135/135 113/113/113
f 129/129/129 131/131/131 136/136/136
f 129/129/129 136/136/136 134/134/134
f 131/131/131 132/132/132 137/137/137
f 131/131/131 137/137/137 136/136/136
f 132/132/132 133/133/133 138/138/138
f 132/132/132 138/138/138 137/137/137
f 133/133/133 139/139/139 138/138/138
f 130/130/130 134/134/134 140/140/140
f 130/130/130 140/140/140 135/135/135
f 113/113/113 135/135/135 141/141/141
f 113/113/113 141/141/141 114/114/114
f 114/114/114 141/141/141 142/142/142
f 134/134/134 136/136/136 143/143/143
f 134/134/134 143/143/143 140/140/140
f 136/136/136 137/137/137 144/144/144
f 136/136/136 144/144/144 143/143/143
f 137/137/137 138/138/138 145/145/145
f 137/137/137 145/145/145 144/144/144
f 138/138/138 139/139/139 146/146/146
f 138/138/138 146/146/146 145/145/145
f 139/139/139 147/147/147 146/146/146
f 135/135/135 148/148/148 141/141/141
f 135/135/135 140/140/140 148/148/148
f 141/141/141 149/149/149 142/142/142
f 141/141/141 148/148/148 149/149/149
f 142/142/142 149/149/149 150/150/150
f 140/140/140 143/143/143 151/151/151
f 140/140/140 151/151/151 148/148/148
f 143/143/143 144/144/144 152/152/152
f 143/143/143 152/152/152 151/151/151
f 144/144/144 145/145/145 153/153/153
f 144/144/144 153/153/153 152/152/152
f 145/145/145 146/146/146 154/154/154
f 145/145/145 154/154/154 153/153/153
f 149/149/149 155/155/155 150/150/150
f 150/150/150 155/155/155 156/156/156
f 148/148/148 157/157/157 149/149/149
f 148/148/148 151/151/151 157/157/157
f 149/149/149 157/157/157 155/155/155
f 151/151/151 152/152/152 158/158/158
f 151/151/151 158/158/158 157/157/157
f 152/152/152 153/153/153 159/159/159
f 152/152/152 159/159/159 158/158/158
f 155/155/155 160/160/160 156/156/156
f 156/156/156 160/160/160 161/161/161
f 157/157/157 162/162/162 155/155/155
f 157/157/157 158/158/158 162/162/162
f 155/155/155 162/162/162 160/160/160
f 160/160/160 163/163/163 161/161/161
f 161/161/161 163/163/163 164/164/164
f 158/158/158 165/165/165 162/162/162
f 158/158/158 159/159/159 165/165/165
f 162/162/162 166/166/166 160/160/160
f 160/160/160 166/166/166 163/163/163
f 162/162/162 165/165/165 166/166/166
f 153/153/153 167/167/167 159/159/159
f 153/153/153 154/154/154 167/167/167
f 163/163/163 168/168/168 164/164/164
f 164/164/164 168/168/168 169/169/169
f 166/166/166 170/170/170 163/163/163
f 163/163/163 170/170/170 168/168/168
f 165/165/165 171/171/171 166/166/166
f 166/166/166 171/171/171 170/170/170
f 159/159/159 172/172/172 165/165/165
f 159/159/159 167/167/167 172/172/172
f 165/165/165 172/172/172 171/171/171
f 168/168/168 173/173/173 169/169/169
f 169/169/169 173/173/173 174/174/174
f 170/170/170 175/175/175 168/168/168
f 168/168/168 175/175/175 173/173/173
f 171/171/171 176/176/176 170/170/170
f 170/170/170 176/176/176 175/175/175
f 172/172/172 177/177/177 171/171/171
f 171/171/171 177/177/177 176/176/176
f 167/167/167 178/178/178 172/172/172
f 172/172/172 178/178/178 177/177/177
f 173/173/173 179/179/179 174/174/174
f 174/174/174 179/179/179 180/180/180
f 175/175/175 181/181/181 173/173/173
f 173/173/173 181/181/181 179/179/179
f 176/176/176 182/182/182 175/175/175
f 175/175/175 182/182/182 181/181/181
f 177/177/177 183/183/183 176/176/176
f 176/176/176 183/183/183 182/182/182
f 179/179/179 184/184/184 180/180/180
f 180/180/180 184/184/184 185/185/185
f 181/181/181 186/186/186 179/179/179
f 179/179/179 186/186/186 184/184/184
f 182/182/182 187/187/187 181/181/181
f 181/181/181 187/187/187 186/186/186
f 184/184/184 188/188/188 185/185/185
f 185/185/185 188/188/188 189/189/189
f 186/186/186 190/190/190 184/184/184
f 184/184/184 190/190/190 188/188/188
f 188/188/188 191/191/191 189/189/189
f 189/189/189 191/191/191 192/192/192
f 177/177/177 193/193/193 183/183/183
f 178/178/178 193/193/193 177/177/177
f 183/183/183 194/194/194 182/182/182
f 182/182/182 194/194/194 187/187/187
f 187/187/187 195/195/195 186/186/186
f 186/186/186 195/195/195 190/190/190
f 190/190/190 196/196/196 188/188/188
f 188/188/188 196/196/196 191/191/191
f 191/191/191 197/197/197 192/192/192
f 192/192/192 197/197/197 198/198/198
f 193/193/193 199/199/199 183/183/183
f 183/183/183 199/199/199 194/194/194
f 194/194/194 200/200/200 187/187/187
f 187/187/187 200/200/200 195/195/195
f 195/195/195 201/201/201 190/190/190
f 190/190/190 201/201/201 196/196/196
f 196/196/196 202/202/202 191/191/191
f 191/191/191 202/202/202 197/197/197
f 197/197/197 203/203/203 198/198/198
f 198/198/198 203/203/203 204/204/204
f 203/203/203 205/205/205 204/204/204
f 197/197/197 206/206/206 203/203/203
f 202/202/202 206/206/206 197/197/197
f 203/203/203 207/207/207 205/205/205
f 206/206/206 207/207/207 203/203/203
f 207/207/207 208/208/208 205/205/205
f 196/196/196 209/209/209 202/202/202
f 201/201/201 209/209/209 196/196/196
f 195/195/195 210/210/210 201/201/201
f 200/200/200 210/210/210 195/195/195
f 202/202/202 211/211/211 206/206/206
f 209/209/209 211/211/211 202/202/202
f 207/207/207 212/212/212 208/208/208
f 212/212/212 213/213/213 208/208/208
f 206/206/206 214/214/214 207/207/207
f 211/211/211 214/214/214 206/206/206
f 214/214/214 212/212/212 207/207/207
f 201/201/201 215/215/215 209/209/209
f 210/210/210 215/215/215 201/201/201
f 212/212/212 216/216/216 213/213/213
f 216/216/216 217/217/217 213/213/213
f 209/209/209 218/218/218 211/211/211
f 215/215/215 218/218/218 209/209/209
f 214/214/214 219/219/219 212/212/212
f 219/219/219 216/216/216 212/212/212
f 211/211/211 220/220/220 214/214/214
f 218/218/218 220/220/220 211/211/211
f 220/220/220 219/219/219 214/214/214
f 216/216/216 221/221/221 217/217/217
f 221/221/221 222/222/222 217/217/217
f 219/219/219 223/223/223 216/216/216
f 223/223/223 221/221/221 216/216/216
f 220/220/220 224/224/224 219/219/219
f 224/224/224 223/223/223 219/219/219
f 218/218/218 225/225/225 220/220/220
f 225/225/225 224/224/224 220/220/220
f 215/215/215 226/226/226 218/218/218
f 226/226/226 225/225/225 218/218/218
f 221/221/221 227/227/227 222/222/222
f 227/227/227 228/228/228 222/222/222
f 223/223/223 229/229/229 221/221/221
f 229/229/229 227/227/227 221/221/221
f 224/224/224 230/230/230 223/223/223
f 230/230/230 229/229/229 223/223/223
f 225/225/225 231/231/231 224/224/224
f 231/231/231 230/230/230 224/224/224
f 227/227/227 232/232/232 228/228/228
f 232/232/232 233/233/233 228/228/228
f 229/229/229 234/234/234 227/227/227
f 234/234/234 232/232/232 227/227/227
f 232/232/232 235/235/235 233/233/233
f 235/235/235 236/236/236 233/233/233
f 237/237/237 235/235/235 232/232/232
f 234/234/234 237/237/237 232/232/232
f 238/238/238 237/237/237 234/234/234
f 239/239/239 234/234/234 229/229/229
f 239/239/239 238/238/238 234/234/234
f 230/230/230 239/239/239 229/229/229
f 240/240/240 238/238/238 239/239/239
f 241/241/241 239/239/239 230/230/230
f 241/241/241 240/240/240 239/239/239
f 231/231/231 241/241/241 230/230/230
f 242/242/242 240/240/240 241/241/241
f 243/243/243 242/242/242 241/241/241
f 243/243/243 241/241/241 231/231/231
f 244/244/244 242/242/242 243/243/243
f 245/245/245 243/243/243 231/231/231
f 245/245/245 231/231/231 225/225/225
f 226/226/226 245/245/245 225/225/225
f 246/246/246 244/244/244 243/243/243
f 246/246/246 243/243/243 245/245/245
f 247/247/247 244/244/244 246/246/246
f 248/248/248 245/245/245 226/226/226
f 248/248/248 246/246/246 245/245/245
f 249/249/249 247/247/247 246/246/246
f 249/249/249 246/246/246 248/248/248
f 250/250/250 247/247/247 249/249/249
f 251/251/251 248/248/248 226/226/226
f 251/251/251 226/226/226 215/215/215
f 210/210/210 251/251/251 215/215/215
f 252/252/252 249/249/249 248/248/248
f 252/252/252 248/248/248 251/251/251
f 253/253/253 250/250/250 249/249/249
f 253/253/253 249/249/249 252/252/252
f 254/254/254 250/250/250 253/253/253
f 255/255/255 251/251/251 210/210/210
f 255/255/255 252/252/252 251/251/251
f 200/200/200 255/255/255 210/210/210
f 256/256/256 253/253/253 252/252/252
f 256/256/256 252/252/252 255/255/255
f 257/257/257 254/254/254 253/253/253
f 257/257/257 253/253/253 256/256/256
f 258/258/258 254/254/254 257/257/257
f 259/259/259 255/255/255 200/200/200
f 259/259/259 256/256/256 255/255/255
f 194/194/194 259/259/259 200/200/200
f 199/199/199 259/259/259 194/194/194
f 260/260/260 256/256/256 259/259/259
f 260/260/260 257/257/257 256/256/256
f 199/199/199 260/260/260 259/259/259
f 261/261/261 258/258/258 257/257/257
f 261/261/261 257/257/257 260/260/260
f 262/262/262 258/258/258 261/261/261
f 263/263/263 260/260/260 199/199/199
f 263/263/263 261/261/261 260/260/260
f 193/193/193 263/263/263 199/199/199
f 264/264/264 262/262/262 261/261/261
f 264/264/264 261/261/261 263/263/263
f 265/265/265 262/262/262 264/264/264
f 266/266/266 263/263/263 193/193/193
f 266/266/266 264/264/264 263/263/263
f 178/178/178 266/266/266 193/193/193
f 267/267/267 265/265/265 264/264/264
f 267/267/267 264/264/264 266/266/266
f 268/268/268 265/265/265 267/267/267
f 269/269/269 266/266/266 178/178/178
f 269/269/269 267/267/267 266/266/266
f 167/167/167 269/269/269 178/178/178
f 154/154/154 269/269/269 167/167/167
f 270/270/270 268/268/268 267/267/267
f 270/270/270 267/267/267 269/269/269
f 154/154/154 270/270/270 269/269/269
f 147/147/147 268/268/268 270/270/270
f 146/146/146 270/270/270 154/154/154
f 146/146/146 147/147/147 270/270/270
