g Plane001
v -0.771201372 -0.157724768 0
v -0.771201372 0.157724768 0
v -0.73264128 0.157724783 -0.0468902849
v -0.73264128 -0.157724768 -0.0468902774
v -0.694081247 0.157724783 -0.0913758948
v -0.694081247 -0.157724768 -0.091375865
v -0.655521214 0.157724783 -0.133456871
v -0.655521214 -0.157724768 -0.133456841
v -0.616961181 0.157724768 -0.173133269
v -0.616961181 -0.157724768 -0.173133239
v -0.578401089 0.157724753 -0.210405007
v -0.578401089 -0.157724768 -0.210404962
v -0.539841115 0.157724753 -0.2452721
v -0.539841115 -0.157724768 -0.24527204
v -0.501281023 0.157724783 -0.277734637
v -0.501281023 -0.157724768 -0.277734578
v -0.462720931 0.157724783 -0.307792515
v -0.462720931 -0.157724768 -0.307792455
v -0.424160838 0.157724768 -0.335445791
v -0.424160838 -0.157724768 -0.335445702
v -0.385600805 0.157724753 -0.360694349
v -0.385600805 -0.157724768 -0.360694259
v -0.347040713 0.157724768 -0.383538395
v -0.347040713 -0.157724768 -0.383538306
v -0.30848068 0.157724768 -0.403977722
v -0.30848068 -0.157724768 -0.403977603
v -0.269920528 0.157724768 -0.422012478
v -0.269920528 -0.157724768 -0.422012359
v -0.23136051 0.157724753 -0.437642515
v -0.23136051 -0.157724768 -0.437642425
v -0.192800447 0.157724753 -0.450867981
v -0.192800447 -0.157724768 -0.450867862
v -0.15424037 0.157724768 -0.461688876
v -0.15424037 -0.157724768 -0.461688757
v -0.115680233 0.157724783 -0.470105082
v -0.115680233 -0.157724768 -0.470104933
v -0.0771202073 0.157724783 -0.476116627
v -0.0771202073 -0.157724768 -0.476116508
v -0.0385601781 0.157724753 -0.479723543
v -0.0385601781 -0.157724768 -0.479723424
v -7.62939436E-08 0.157724753 -0.480925888
v -7.62939436E-08 -0.157724768 -0.480925769
v 0.0385599509 0.157724768 -0.479723573
v 0.0385599509 -0.157724768 -0.479723454
v 0.0771200508 0.157724753 -0.476116627
v 0.0771200508 -0.157724768 -0.476116508
v 0.115680158 0.157724783 -0.470105082
v 0.115680084 -0.157724768 -0.470104933
v 0.154240191 0.157724753 -0.461688876
v 0.154240191 -0.157724768 -0.461688757
v 0.192800209 0.157724768 -0.450868011
v 0.192800209 -0.157724768 -0.450867921
v 0.231360316 0.157724753 -0.437642545
v 0.231360316 -0.157724768 -0.437642455
v 0.269920409 0.157724753 -0.422012478
v 0.269920409 -0.157724768 -0.422012359
v 0.308480442 0.157724753 -0.403977752
v 0.308480442 -0.157724768 -0.403977692
v 0.347040564 0.157724768 -0.383538395
v 0.347040564 -0.157724768 -0.383538306
v 0.385600567 0.157724753 -0.360694408
v 0.385600567 -0.157724768 -0.360694349
v 0.4241606 0.157724783 -0.335445821
v 0.4241606 -0.157724768 -0.335445732
v 0.462720782 0.157724783 -0.307792574
v 0.462720782 -0.157724768 -0.307792485
v 0.501280785 0.157724768 -0.277734637
v 0.501280785 -0.157724768 -0.277734578
v 0.539840937 0.157724768 -0.24527216
v 0.539840937 -0.157724768 -0.2452721
v 0.57840097 0.157724753 -0.210405082
v 0.57840097 -0.157724768 -0.210405022
v 0.616960824 0.157724753 -0.173133373
v 0.616960943 -0.157724768 -0.173133314
v 0.655520976 0.157724768 -0.133456931
v 0.655520976 -0.157724768 -0.133456886
v 0.694081187 0.157724768 -0.0913758427
v 0.694081187 -0.157724768 -0.0913758129
v 0.73264122 0.157724768 -0.046890229
v 0.73264122 -0.157724768 -0.0468902141
v 0.771201253 0.157724768 0
v 0.771201253 -0.157724768 0
vt 0.999999583 1
vt 0.999999583 0
vt 0.974999607 0
vt 0.974999607 1
vt 0.949999571 0
vt 0.949999571 1
vt 0.924999595 0
vt 0.924999595 1
vt 0.899999559 0
vt 0.899999559 1
vt 0.874999583 0
vt 0.874999583 1
vt 0.849999547 0
vt 0.849999547 1
vt 0.824999571 0
vt 0.824999571 1
vt 0.799999595 0
vt 0.799999595 1
vt 0.774999559 0
vt 0.774999559 1
vt 0.749999523 0
vt 0.749999523 1
vt 0.724999547 0
vt 0.724999547 1
vt 0.699999571 0
vt 0.699999571 1
vt 0.674999535 0
vt 0.674999535 1
vt 0.649999499 0
vt 0.649999499 1
vt 0.624999523 0
vt 0.624999523 1
vt 0.599999547 0
vt 0.599999547 1
vt 0.574999511 0
vt 0.574999511 1
vt 0.549999475 0
vt 0.549999475 1
vt 0.524999499 0
vt 0.524999499 1
vt 0.499999523 0
vt 0.499999523 1
vt 0.474999547 0
vt 0.474999547 1
vt 0.449999571 0
vt 0.449999571 1
vt 0.424999595 0
vt 0.424999595 1
vt 0.399999619 0
vt 0.399999619 1
vt 0.374999642 0
vt 0.374999642 1
vt 0.349999666 0
vt 0.349999666 1
vt 0.32499969 0
vt 0.32499969 1
vt 0.299999714 0
vt 0.299999714 1
vt 0.274999738 0
vt 0.274999738 1
vt 0.249999762 0
vt 0.249999762 1
vt 0.224999785 0
vt 0.224999785 1
vt 0.199999809 0
vt 0.199999809 1
vt 0.174999833 0
vt 0.174999833 1
vt 0.149999857 0
vt 0.149999857 1
vt 0.124999881 0
vt 0.124999881 1
vt 0.0999999046 0
vt 0.0999999046 1
vt 0.0749999285 0
vt 0.0749999285 1
vt 0.0499999523 0
vt 0.0499999523 1
vt 0.0249999762 0
vt 0.0249999762 1
vt 0 0
vt 0 1
vn 0.772378027 0 0.635163069
vn 0.772377968 0 0.635163128
vn 0.764073312 0 0.645129442
vn 0.764073312 0 0.645129442
vn 0.746530056 0 0.665351689
vn 0.746530056 0 0.665351689
vn 0.727279246 0 0.686341643
vn 0.727279246 0 0.686341643
vn 0.706144512 0 0.708067775
vn 0.706144512 0 0.708067775
vn 0.682938933 1.00403213E-07 0.730475545
vn 0.682938933 1.00403206E-07 0.730475485
vn 0.657465875 1.25694896E-07 0.753484309
vn 0.657465875 1.25694882E-07 0.753484249
vn 0.629521668 1.40110771E-07 0.776982963
vn 0.629521668 1.40110785E-07 0.776982963
vn 0.598903179 1.57552833E-07 0.800821364
vn 0.598903179 1.57552833E-07 0.800821364
vn 0.565415442 1.88121334E-07 0.824806273
vn 0.565415442 1.88121334E-07 0.824806273
vn 0.528881729 2.0627472E-07 0.848695576
vn 0.528881788 2.0627472E-07 0.848695457
vn 0.489155263 2.38404425E-07 0.872196674
vn 0.489155203 2.38404425E-07 0.872196674
vn 0.446136862 2.98107778E-07 0.894964814
vn 0.446136862 2.98107778E-07 0.894964814
vn 0.399793506 3.04207674E-07 0.916605115
vn 0.399793535 3.04207703E-07 0.916605234
vn 0.350174397 2.82739649E-07 0.936684489
vn 0.350174367 2.82739649E-07 0.936684489
vn 0.297429144 3.17453811E-07 0.954743862
vn 0.297429115 3.17453754E-07 0.954743862
vn 0.241818383 3.81307132E-07 0.970321536
vn 0.241818383 3.81307132E-07 0.970321536
vn 0.183724329 4.15929463E-07 0.982977808
vn 0.183724329 4.15929463E-07 0.982977808
vn 0.123645358 3.89986212E-07 0.992326498
vn 0.123645343 3.89986184E-07 0.992326498
vn 0.0621798523 3.62156527E-07 0.998064935
vn 0.0621798448 3.62156527E-07 0.998064935
vn 4.59126284E-07 3.62858714E-07 1
vn 4.63871828E-07 3.62858657E-07 1
vn -0.062179774 3.62156527E-07 0.998064935
vn -0.0621797815 3.62156527E-07 0.998064935
vn -0.123645693 3.99189275E-07 0.992326498
vn -0.123645686 3.99189219E-07 0.992326498
vn -0.183724433 4.38304539E-07 0.982977808
vn -0.183724433 4.38304625E-07 0.982977808
vn -0.241818205 3.94478946E-07 0.970321536
vn -0.241818234 3.94478889E-07 0.970321536
vn -0.297428668 3.18381268E-07 0.954744101
vn -0.297428697 3.1838124E-07 0.954744101
vn -0.350174278 2.83666623E-07 0.936684549
vn -0.350174308 2.83666594E-07 0.936684549
vn -0.399793535 2.77122524E-07 0.916605115
vn -0.399793535 2.77122524E-07 0.916605115
vn -0.446136922 2.43738754E-07 0.894964695
vn -0.446136922 2.43738754E-07 0.894964695
vn -0.489155084 2.11120565E-07 0.872196853
vn -0.489155084 2.1112055E-07 0.872196853
vn -0.528881788 2.06274891E-07 0.848695457
vn -0.528881788 2.06274933E-07 0.848695457
vn -0.565415323 1.99671703E-07 0.824806333
vn -0.565415323 1.99671703E-07 0.824806333
vn -0.598903298 1.81472586E-07 0.800821364
vn -0.598903298 1.81472572E-07 0.800821364
vn -0.629521668 1.52480141E-07 0.776982903
vn -0.629521668 1.52480155E-07 0.776982903
vn -0.657465339 1.35873478E-07 0.753484786
vn -0.657465339 1.35873478E-07 0.753484786
vn -0.682939291 0 0.730475068
vn -0.682939291 0 0.730475068
vn -0.706144929 0 0.708067298
vn -0.70614481 0 0.708067417
vn -0.727278769 0 0.68634218
vn -0.727278769 0 0.68634218
vn -0.746529818 0 0.665351927
vn -0.746529818 0 0.665351927
vn -0.764073491 0 0.645129204
vn -0.764073491 0 0.645129204
vn -0.772378325 0 0.63516283
vn -0.772378325 0 0.63516283
g Plane001_0
f 3/3/3 2/2/2 1/1/1
f 4/4/4 3/3/3 1/1/1
f 5/5/5 3/3/3 4/4/4
f 6/6/6 5/5/5 4/4/4
f 7/7/7 5/5/5 6/6/6
f 8/8/8 7/7/7 6/6/6
f 9/9/9 7/7/7 8/8/8
f 10/10/10 9/9/9 8/8/8
f 11/11/11 9/9/9 10/10/10
f 12/12/12 11/11/11 10/10/10
f 13/13/13 11/11/11 12/12/12
f 14/14/14 13/13/13 12/12/12
f 15/15/15 13/13/13 14/14/14
f 16/16/16 15/15/15 14/14/14
f 17/17/17 15/15/15 16/16/16
f 18/18/18 17/17/17 16/16/16
f 19/19/19 17/17/17 18/18/18
f 20/20/20 19/19/19 18/18/18
f 21/21/21 19/19/19 20/20/20
f 22/22/22 21/21/21 20/20/20
f 23/23/23 21/21/21 22/22/22
f 24/24/24 23/23/23 22/22/22
f 25/25/25 23/23/23 24/24/24
f 26/26/26 25/25/25 24/24/24
f 27/27/27 25/25/25 26/26/26
f 28/28/28 27/27/27 26/26/26
f 29/29/29 27/27/27 28/28/28
f 30/30/30 29/29/29 28/28/28
f 31/31/31 29/29/29 30/30/30
f 32/32/32 31/31/31 30/30/30
f 33/33/33 31/31/31 32/32/32
f 34/34/34 33/33/33 32/32/32
f 35/35/35 33/33/33 34/34/34
f 36/36/36 35/35/35 34/34/34
f 37/37/37 35/35/35 36/36/36
f 38/38/38 37/37/37 36/36/36
f 39/39/39 37/37/37 38/38/38
f 40/40/40 39/39/39 38/38/38
f 41/41/41 39/39/39 40/40/40
f 42/42/42 41/41/41 40/40/40
f 43/43/43 41/41/41 42/42/42
f 44/44/44 43/43/43 42/42/42
f 45/45/45 43/43/43 44/44/44
f 46/46/46 45/45/45 44/44/44
f 47/47/47 45/45/45 46/46/46
f 48/48/48 47/47/47 46/46/46
f 49/49/49 47/47/47 48/48/48
f 50/50/50 49/49/49 48/48/48
f 51/51/51 49/49/49 50/50/50
f 52/52/52 51/51/51 50/50/50
f 53/53/53 51/51/51 52/52/52
f 54/54/54 53/53/53 52/52/52
f 55/55/55 53/53/53 54/54/54
f 56/56/56 55/55/55 54/54/54
f 57/57/57 55/55/55 56/56/56
f 58/58/58 57/57/57 56/56/56
f 59/59/59 57/57/57 58/58/58
f 60/60/60 59/59/59 58/58/58
f 61/61/61 59/59/59 60/60/60
f 62/62/62 61/61/61 60/60/60
f 63/63/63 61/61/61 62/62/62
f 64/64/64 63/63/63 62/62/62
f 65/65/65 63/63/63 64/64/64
f 66/66/66 65/65/65 64/64/64
f 67/67/67 65/65/65 66/66/66
f 68/68/68 67/67/67 66/66/66
f 69/69/69 67/67/67 68/68/68
f 70/70/70 69/69/69 68/68/68
f 71/71/71 69/69/69 70/70/70
f 72/72/72 71/71/71 70/70/70
f 73/73/73 71/71/71 72/72/72
f 74/74/74 73/73/73 72/72/72
f 75/75/75 73/73/73 74/74/74
f 76/76/76 75/75/75 74/74/74
f 77/77/77 75/75/75 76/76/76
f 78/78/78 77/77/77 76/76/76
f 79/79/79 77/77/77 78/78/78
f 80/80/80 79/79/79 78/78/78
f 81/81/81 79/79/79 80/80/80
f 82/82/82 81/81/81 80/80/80
