g Cylinder001
v 0.0705818087 0.445636272 0
v 0.0705818087 0.445636272 0.939941287
v -7.35083745E-08 0.451191157 0.939941287
v -7.35083745E-08 0.451191157 0
v -0.0705819502 0.445636243 0.939941287
v -0.0705819502 0.445636243 0
v -0.139425859 0.429108262 0.939941287
v -0.139425859 0.429108262 0
v -0.204836652 0.402014196 0.939941287
v -0.204836652 0.402014196 0
v -0.265203685 0.365021199 0.939941287
v -0.265203685 0.365021199 0
v -0.319040477 0.319040209 0.939941287
v -0.319040477 0.319040209 0
v -0.365021467 0.265203327 0.939941287
v -0.365021467 0.265203327 0
v -0.402014405 0.204836249 0.939941287
v -0.402014405 0.204836249 0
v -0.429108381 0.139425442 0.939941287
v -0.429108381 0.139425442 0
v -0.445636332 0.0705815181 0.939941287
v -0.445636332 0.0705815181 0
v -0.451191157 -3.62161472E-07 0.939941287
v -0.451191157 -3.62161472E-07 0
v -0.445636153 -0.0705822334 0.939941287
v -0.445636153 -0.0705822334 0
v -0.429108202 -0.139426127 0.939941287
v -0.429108202 -0.139426127 0
v -0.402014077 -0.204836905 0.939941287
v -0.402014077 -0.204836905 0
v -0.36502105 -0.265203923 0.939941287
v -0.36502105 -0.265203923 0
v -0.31904 -0.319040716 0.939941287
v -0.31904 -0.319040716 0
v -0.265203089 -0.365021646 0.939941287
v -0.265203089 -0.365021646 0
v -0.204835996 -0.402014524 0.939941287
v -0.204835996 -0.402014524 0
v -0.139425173 -0.429108471 0.939941287
v -0.139425173 -0.429108471 0
v -0.070581235 -0.445636362 0.939941287
v -0.070581235 -0.445636362 0
v 6.50814513E-07 -0.451191157 0.939941287
v 6.50814513E-07 -0.451191157 0
v 0.0705825239 -0.445636153 0.939941287
v 0.0705825239 -0.445636153 0
v 0.139426425 -0.429108083 0.939941287
v 0.139426425 -0.429108083 0
v 0.204837158 -0.402013928 0.939941287
v 0.204837158 -0.402013928 0
vt 0.000500000024 0.000500000024
vt 0.000500000024 0.984463334
vt 0.0421251021 0.984463334
vt 0.0421251021 0.000500000024
vt 0.0837500617 0.984463334
vt 0.0837500617 0.000500000024
vt 0.125375018 0.984463334
vt 0.125375018 0.000500000024
vt 0.167000055 0.984463334
vt 0.167000055 0.000500000024
vt 0.208625033 0.984463334
vt 0.208625033 0.000500000024
vt 0.250250071 0.984463334
vt 0.250250071 0.000500000024
vt 0.291875035 0.984463334
vt 0.291875035 0.000500000024
vt 0.333499998 0.984463334
vt 0.333499998 0.000500000024
vt 0.375124991 0.984463334
vt 0.375124991 0.000500000024
vt 0.416750073 0.984463334
vt 0.416750073 0.000500000024
vt 0.458374977 0.984463334
vt 0.458374977 0.000500000024
vt 0.5 0.984463334
vt 0.5 0.000500000024
vt 0.541625082 0.984463334
vt 0.541625082 0.000500000024
vt 0.583250046 0.984463334
vt 0.583250046 0.000500000024
vt 0.624875009 0.984463334
vt 0.624875009 0.000500000024
vt 0.666499972 0.984463334
vt 0.666499972 0.000500000024
vt 0.708125055 0.984463334
vt 0.708125055 0.000500000024
vt 0.749750018 0.984463334
vt 0.749750018 0.000500000024
vt 0.791375041 0.984463334
vt 0.791375041 0.000500000024
vt 0.833000064 0.984463334
vt 0.833000064 0.000500000024
vt 0.874625027 0.984463334
vt 0.874625027 0.000500000024
vt 0.91624999 0.984463334
vt 0.91624999 0.000500000024
vt 0.957874954 0.984463334
vt 0.957874954 0.000500000024
vt 0.999500036 0.984463334
vt 0.999500036 0.000500000024
vn 0.0784586966 0.996917367 0
vn 0.0784586966 0.996917367 0
vn -2.73576575E-07 1 0
vn -2.73576575E-07 1 0
vn -0.156434625 0.987688363 0
vn -0.156434625 0.987688363 0
vn -0.30901736 0.95105648 0
vn -0.30901736 0.95105648 0
vn -0.453990847 0.891006351 0
vn -0.453990847 0.891006351 0
vn -0.587785542 0.809016824 0
vn -0.587785542 0.809016824 0
vn -0.707107186 0.707106352 0
vn -0.707107186 0.707106352 0
vn -0.80901736 0.587784827 0
vn -0.80901736 0.587784827 0
vn -0.891006887 0.453989863 0
vn -0.891006887 0.453989863 0
vn -0.951056659 0.309016317 0
vn -0.951056659 0.309016317 0
vn -0.987688482 0.156433821 0
vn -0.987688482 0.156433821 0
vn -1 -1.07765391E-06 0
vn -1 -1.07765391E-06 0
vn -0.987688243 -0.156435177 0
vn -0.987688243 -0.156435177 0
vn -0.951056361 -0.309017718 0
vn -0.951056361 -0.309017718 0
vn -0.891006052 -0.453991413 0
vn -0.891006052 -0.453991413 0
vn -0.809016407 -0.587785959 0
vn -0.809016407 -0.587785959 0
vn -0.707106054 -0.707107425 0
vn -0.707106054 -0.707107425 0
vn -0.587784171 -0.809017837 0
vn -0.587784171 -0.809017837 0
vn -0.453989089 -0.891007245 0
vn -0.453989089 -0.891007245 0
vn -0.309015751 -0.951056898 0
vn -0.309015751 -0.951056898 0
vn -0.156433284 -0.987688601 0
vn -0.156433284 -0.987688601 0
vn 1.34885147E-06 -1 0
vn 1.34885147E-06 -1 0
vn 0.156435952 -0.987688124 0
vn 0.156435952 -0.987688124 0
vn 0.309018672 -0.951055944 0
vn 0.309018672 -0.951055944 0
vn 0.382685065 -0.923878789 0
vn 0.382685065 -0.923878789 0
g Cylinder001_0
f 3/3/3 2/2/2 1/1/1
f 4/4/4 3/3/3 1/1/1
f 5/5/5 3/3/3 4/4/4
f 6/6/6 5/5/5 4/4/4
f 7/7/7 5/5/5 6/6/6
f 8/8/8 7/7/7 6/6/6
f 9/9/9 7/7/7 8/8/8
f 10/10/10 9/9/9 8/8/8
f 11/11/11 9/9/9 10/10/10
f 12/12/12 11/11/11 10/10/10
f 13/13/13 11/11/11 12/12/12
f 14/14/14 13/13/13 12/12/12
f 15/15/15 13/13/13 14/14/14
f 16/16/16 15/15/15 14/14/14
f 17/17/17 15/15/15 16/16/16
f 18/18/18 17/17/17 16/16/16
f 19/19/19 17/17/17 18/18/18
f 20/20/20 19/19/19 18/18/18
f 21/21/21 19/19/19 20/20/20
f 22/22/22 21/21/21 20/20/20
f 23/23/23 21/21/21 22/22/22
f 24/24/24 23/23/23 22/22/22
f 25/25/25 23/23/23 24/24/24
f 26/26/26 25/25/25 24/24/24
f 27/27/27 25/25/25 26/26/26
f 28/28/28 27/27/27 26/26/26
f 29/29/29 27/27/27 28/28/28
f 30/30/30 29/29/29 28/28/28
f 31/31/31 29/29/29 30/30/30
f 32/32/32 31/31/31 30/30/30
f 33/33/33 31/31/31 32/32/32
f 34/34/34 33/33/33 32/32/32
f 35/35/35 33/33/33 34/34/34
f 36/36/36 35/35/35 34/34/34
f 37/37/37 35/35/35 36/36/36
f 38/38/38 37/37/37 36/36/36
f 39/39/39 37/37/37 38/38/38
f 40/40/40 39/39/39 38/38/38
f 41/41/41 39/39/39 40/40/40
f 42/42/42 41/41/41 40/40/40
f 43/43/43 41/41/41 42/42/42
f 44/44/44 43/43/43 42/42/42
f 45/45/45 43/43/43 44/44/44
f 46/46/46 45/45/45 44/44/44
f 47/47/47 45/45/45 46/46/46
f 48/48/48 47/47/47 46/46/46
f 49/49/49 47/47/47 48/48/48
f 50/50/50 49/49/49 48/48/48
