g Plane002
v -0.244455084 -0.256000012 0.0489718318
v -0.244455084 0.256000012 0.0489718318
v -0.024054097 0.256000012 -0.0364698246
v -0.024054097 -0.256000012 -0.0364698246
v 0.0194034278 0.256000012 -0.0335056148
v 0.0194034278 -0.256000012 -0.0335056148
v 0.216050491 0.256000012 0.0694812313
v 0.216050491 -0.256000012 0.0694812313
vt 0 0
vt 0 1
vt 0.47245267 1
vt 0.47245267 0
vt 0.557591379 1
vt 0.557591379 0
vt 1 1
vt 1 0
vn 0.361454487 0 0.932389736
vn 0.361454487 0 0.932389736
vn 0.150290176 0 0.988641918
vn 0.150290176 0 0.988641918
vn -0.271807879 0 0.962351501
vn -0.271807879 0 0.962351501
vn -0.46394074 0 0.885866284
vn -0.46394074 0 0.885866284
g Plane002_0
f 3/3/3 2/2/2 1/1/1
f 4/4/4 3/3/3 1/1/1
f 5/5/5 3/3/3 4/4/4
f 6/6/6 5/5/5 4/4/4
f 7/7/7 5/5/5 6/6/6
f 8/8/8 7/7/7 6/6/6
