g yuan01
v 0.323048025 0.0569620989 -0.00163428974
v 0.287473857 0.104631945 0.0148739433
v 0.308284938 0.112206548 -0.00339335902
v 0.301240355 0.053116817 0.0164348856
v 0.328069985 -4.76837148E-09 -0.00081714621
v 0.267014414 0.0971853212 0.0333364308
v 0.305923313 -2.38418574E-09 0.0171599928
v 0.27980113 0.0493365079 0.0347008854
v 0.247258261 0.0899946541 0.0521892905
v 0.284150809 -2.98023217E-10 0.0353347175
v 0.259098887 0.0456861444 0.0533605292
v 0.227653444 0.082859084 0.0714324191
v 0.263126761 1.2496616E-09 0.0539046079
v 0.238555253 0.0420637392 0.0724128038
v 0.207648039 0.0755777135 0.0910656899
v 0.242263749 2.98023217E-10 0.0728682205
v 0.217591867 0.0383673236 0.0918566883
v 0.187227398 0.0681452006 0.116438374
v 0.220974475 -4.75693795E-09 0.0922241285
v 0.196193323 0.0345941782 0.117012575
v 0.199243292 -8.04662648E-09 0.117279299
v 0.284083635 0.16401577 -0.00540198805
v 0.23435086 0.19664371 0.0119083496
v 0.25131619 0.210879326 -0.00673536723
v 0.264906317 0.15294373 0.0130915493
v 0.308284938 0.112206548 -0.00339335902
v 0.217672169 0.182648614 0.030744141
v 0.287473857 0.104631945 0.0148739433
v 0.24605301 0.142058775 0.0317784064
v 0.201566786 0.169134587 0.0499640927
v 0.267014414 0.0971853212 0.0333364308
v 0.22784774 0.131547943 0.0508518964
v 0.185584769 0.155724078 0.0695698187
v 0.247258261 0.0899946541 0.0521892905
v 0.209781945 0.121117659 0.070312947
v 0.169276237 0.142039597 0.0895629078
v 0.227653444 0.082859084 0.0714324191
v 0.191347048 0.110474259 0.0901624858
v 0.152629197 0.12807107 0.115347467
v 0.207648039 0.0755777135 0.0910656899
v 0.172529489 0.0996099338 0.115782715
v 0.187227398 0.0681452006 0.116438374
v 0.210854635 0.251286745 -0.00646868907
v 0.152961686 0.264937371 0.0134541048
v 0.164035037 0.284116954 -0.00499341171
v 0.196620703 0.234323397 0.0121449893
v 0.25131619 0.210879326 -0.00673536723
v 0.142075449 0.246081844 0.0320953205
v 0.23435086 0.19664371 0.0119083496
v 0.182627261 0.217646658 0.030950997
v 0.131563395 0.227874428 0.051123932
v 0.217672169 0.182648614 0.030744141
v 0.169114813 0.201543137 0.0501416512
v 0.121131882 0.209806502 0.0705406591
v 0.201566786 0.169134587 0.0499640927
v 0.155705884 0.185562983 0.0697184354
v 0.11048723 0.191369429 0.0903462172
v 0.185584769 0.155724078 0.0695698187
v 0.142022982 0.169256359 0.0896828324
v 0.0996216461 0.172549695 0.115916088
v 0.169276237 0.142039597 0.0895629078
v 0.128056094 0.152611271 0.115434527
v 0.152629197 0.12807107 0.115347467
v 0.112193421 0.308248848 -0.00270099123
v 0.0531230345 0.301275671 0.0172859076
v 0.0569687635 0.323085934 -0.000675248739
v 0.104619689 0.287440211 0.0154883265
v 0.164035037 0.284116954 -0.00499341171
v 0.0493422821 0.279833943 0.0354447775
v 0.152961686 0.264937371 0.0134541048
v 0.0971739367 0.266983151 0.0338734761
v 0.0456914939 0.259129226 0.053999085
v 0.142075449 0.246081844 0.0320953205
v 0.0899841189 0.247229263 0.0526502877
v 0.0420686714 0.238583162 0.0729473084
v 0.131563395 0.227874428 0.051123932
v 0.0828493834 0.227626726 0.0718182921
v 0.0383718275 0.217617318 0.0922879279
v 0.121131882 0.209806502 0.0705406591
v 0.0755688772 0.20762369 0.0913770273
v 0.0345982499 0.19621627 0.117325619
v 0.11048723 0.191369429 0.0903462172
v 0.0681372359 0.187205464 0.11666438
v 0.0996216461 0.172549695 0.115916088
v -4.76837148E-09 0.32803157 -3.67357122E-09
v -0.0531230234 0.301275641 0.0172859021
v -0.0569687635 0.323085904 -0.000675254094
v -0 0.305887461 0.0178850982
v 0.0569687635 0.323085934 -0.000675248739
v -0.0493422672 0.279833913 0.0354447737
v 0.0531230345 0.301275671 0.0172859076
v 5.06639486E-09 0.28411755 0.0359685458
v -0.0456914715 0.259129256 0.0539990813
v 0.0493422821 0.279833943 0.0354447775
v 1.07288356E-08 0.263095915 0.0544486791
v -0.0420686416 0.238583177 0.0729473084
v 0.0456914939 0.259129226 0.053999085
v 1.49011612E-08 0.242235318 0.0733236447
v -0.0383717939 0.217617333 0.0922879353
v 0.0420686714 0.238583162 0.0729473084
v 1.54972071E-08 0.220948517 0.0925915688
v -0.0345982164 0.19621627 0.117325649
v 0.0383718275 0.217617318 0.0922879279
v 1.7434358E-08 0.199219897 0.117546044
v 0.0345982499 0.19621627 0.117325619
v -0.112193391 0.308248848 -0.00270099775
v -0.152961627 0.264937401 0.013454101
v -0.164034992 0.284116983 -0.00499341637
v -0.104619659 0.287440211 0.0154883219
v -0.0569687635 0.323085904 -0.000675254094
v -0.14207536 0.246081859 0.0320953131
v -0.0531230234 0.301275641 0.0172859021
v -0.0971738994 0.266983151 0.0338734686
v -0.131563321 0.227874428 0.0511239246
v -0.0493422672 0.279833913 0.0354447737
v -0.0899840817 0.247229263 0.0526502803
v -0.12113183 0.209806502 0.0705406517
v -0.0456914715 0.259129256 0.0539990813
v -0.0828493461 0.227626741 0.0718182847
v -0.110487193 0.191369414 0.0903462023
v -0.0420686416 0.238583177 0.0729473084
v -0.0755688325 0.20762369 0.0913770273
v -0.0996215865 0.17254968 0.115916088
v -0.0383717939 0.217617333 0.0922879353
v -0.0681371987 0.187205449 0.116664387
v -0.0345982164 0.19621627 0.117325649
v -0.210854605 0.251286775 -0.00646869233
v -0.234350815 0.19664371 0.0119083496
v -0.25131616 0.210879326 -0.0067353677
v -0.196620628 0.234323427 0.0121449884
v -0.164034992 0.284116983 -0.00499341637
v -0.217672095 0.182648614 0.0307441447
v -0.152961627 0.264937401 0.013454101
v -0.182627171 0.217646673 0.0309509933
v -0.201566711 0.169134587 0.0499640927
v -0.14207536 0.246081859 0.0320953131
v -0.169114739 0.201543152 0.0501416475
v -0.185584709 0.155724108 0.0695698187
v -0.131563321 0.227874428 0.0511239246
v -0.155705824 0.185563013 0.0697184354
v -0.169276193 0.142039597 0.0895629078
v -0.12113183 0.209806502 0.0705406517
v -0.142022938 0.169256359 0.0896828249
v -0.152629137 0.128071055 0.11534746
v -0.110487193 0.191369414 0.0903462023
v -0.128056049 0.152611241 0.115434512
v -0.0996215865 0.17254968 0.115916088
v -0.284083635 0.16401577 -0.00540198619
v -0.287473798 0.104631938 0.0148739452
v -0.308284909 0.112206548 -0.00339335739
v -0.264906257 0.152943715 0.0130915521
v -0.25131616 0.210879326 -0.0067353677
v -0.267014325 0.0971853063 0.0333364345
v -0.234350815 0.19664371 0.0119083496
v -0.246052921 0.14205876 0.0317784064
v -0.247258186 0.0899946541 0.0521892905
v -0.217672095 0.182648614 0.0307441447
v -0.227847666 0.131547958 0.0508518964
v -0.227653369 0.082859084 0.0714324191
v -0.201566711 0.169134587 0.0499640927
v -0.20978187 0.121117666 0.070312947
v -0.207648009 0.0755777061 0.0910656899
v -0.185584709 0.155724108 0.0695698187
v -0.191346988 0.110474259 0.0901624858
v -0.187227353 0.0681451783 0.116438366
v -0.169276193 0.142039597 0.0895629078
v -0.172529444 0.0996099263 0.115782708
v -0.152629137 0.128071055 0.11534746
v -0.323047966 0.0569621064 -0.00163428998
v -0.305923253 5.60283659E-08 0.0171599928
v -0.328069985 5.48362706E-08 -0.00081714656
v -0.301240295 0.0531168245 0.0164348856
v -0.308284909 0.112206548 -0.00339335739
v -0.284150749 5.51342936E-08 0.0353347138
v -0.287473798 0.104631938 0.0148739452
v -0.279801071 0.0493365191 0.0347008854
v -0.263126642 5.00814608E-08 0.0539046042
v -0.267014325 0.0971853063 0.0333364345
v -0.259098798 0.0456861518 0.0533605292
v -0.24226366 4.35113883E-08 0.0728682205
v -0.247258186 0.0899946541 0.0521892905
v -0.238555163 0.0420637503 0.0724128038
v -0.220974401 3.7595651E-08 0.0922241285
v -0.227653369 0.082859084 0.0714324191
v -0.217591792 0.0383673273 0.0918566883
v -0.199243218 3.4570693E-08 0.117279306
v -0.207648009 0.0755777061 0.0910656899
v -0.196193248 0.0345941782 0.117012575
v -0.187227353 0.0681451783 0.116438366
v -0.323048025 -0.0569620021 -0.00163428881
v -0.287473828 -0.104631819 0.0148739452
v -0.308284938 -0.112206459 -0.00339335483
v -0.301240295 -0.0531167164 0.0164348856
v -0.328069985 5.48362706E-08 -0.00081714656
v -0.267014354 -0.097185187 0.0333364345
v -0.305923253 5.60283659E-08 0.0171599928
v -0.279801071 -0.0493364036 0.0347008854
v -0.247258201 -0.0899945423 0.0521892905
v -0.284150749 5.51342936E-08 0.0353347138
v -0.259098798 -0.0456860475 0.0533605292
v -0.227653399 -0.0828589872 0.0714324191
v -0.263126642 5.00814608E-08 0.0539046042
v -0.238555178 -0.0420636609 0.0724128038
v -0.207648024 -0.0755776316 0.0910656974
v -0.24226366 4.35113883E-08 0.0728682205
v -0.217591822 -0.0383672528 0.0918566883
v -0.187227383 -0.0681451187 0.116438389
v -0.220974401 3.7595651E-08 0.0922241285
v -0.196193278 -0.0345941149 0.117012583
v -0.199243218 3.4570693E-08 0.117279306
v -0.284083664 -0.164015666 -0.00540198386
v -0.234350845 -0.196643591 0.0119083505
v -0.25131622 -0.210879207 -0.0067353663
v -0.264906287 -0.152943611 0.0130915521
v -0.308284938 -0.112206459 -0.00339335483
v -0.217672139 -0.182648495 0.0307441447
v -0.287473828 -0.104631819 0.0148739452
v -0.246052966 -0.142058641 0.0317784064
v -0.201566771 -0.169134483 0.0499640927
v -0.267014354 -0.097185187 0.0333364345
v -0.22784771 -0.131547824 0.0508518964
v -0.185584769 -0.155724004 0.0695698187
v -0.247258201 -0.0899945423 0.0521892905
v -0.209781945 -0.12111757 0.070312947
v -0.169276237 -0.142039537 0.0895629078
v -0.227653399 -0.0828589872 0.0714324191
v -0.191347048 -0.110474184 0.0901624858
v -0.152629182 -0.12807101 0.115347467
v -0.207648024 -0.0755776316 0.0910656974
v -0.172529489 -0.0996098667 0.115782715
v -0.187227383 -0.0681451187 0.116438389
v -0.210854664 -0.251286626 -0.00646869419
v -0.152961686 -0.264937252 0.0134540973
v -0.164035067 -0.284116834 -0.00499342103
v -0.196620688 -0.234323263 0.0121449875
v -0.25131622 -0.210879207 -0.0067353663
v -0.142075434 -0.24608171 0.0320953131
v -0.234350845 -0.196643591 0.0119083505
v -0.182627216 -0.217646524 0.0309509914
v -0.131563395 -0.227874309 0.0511239246
v -0.217672139 -0.182648495 0.0307441447
v -0.169114798 -0.201543033 0.0501416475
v -0.121131897 -0.209806412 0.0705406517
v -0.201566771 -0.169134483 0.0499640927
v -0.155705884 -0.185562924 0.069718428
v -0.110487252 -0.191369399 0.0903462023
v -0.185584769 -0.155724004 0.0695698187
v -0.142023012 -0.169256315 0.0896828249
v -0.0996216461 -0.17254962 0.115916088
v -0.169276237 -0.142039537 0.0895629078
v -0.128056079 -0.152611226 0.115434527
v -0.152629182 -0.12807101 0.115347467
v -0.112193488 -0.308248729 -0.00270100241
v -0.0531231202 -0.301275551 0.0172858965
v -0.0569688752 -0.323085785 -0.000675257412
v -0.104619741 -0.287440062 0.0154883154
v -0.164035067 -0.284116834 -0.00499342103
v -0.0493423492 -0.279833853 0.03544477
v -0.152961686 -0.264937252 0.0134540973
v -0.0971739665 -0.266983032 0.0338734649
v -0.0456915461 -0.259129167 0.0539990813
v -0.142075434 -0.24608171 0.0320953131
v -0.0899841487 -0.247229174 0.0526502803
v -0.0420687199 -0.238583118 0.0729473084
v -0.131563395 -0.227874309 0.0511239246
v -0.0828494132 -0.227626666 0.0718182847
v -0.0383718759 -0.217617303 0.0922879353
v -0.121131897 -0.209806412 0.0705406517
v -0.0755688995 -0.207623646 0.0913770273
v -0.0345982835 -0.196216241 0.117325619
v -0.110487252 -0.191369399 0.0903462023
v -0.0681372657 -0.187205419 0.116664387
v -0.0996216461 -0.17254962 0.115916088
v -1.33514405E-07 -0.32803148 -5.51035884E-09
v 0.0531229042 -0.301275611 0.0172859076
v 0.0569686219 -0.323085845 -0.000675248622
v -1.14440915E-07 -0.305887401 0.0178850964
v -0.0569688752 -0.323085785 -0.000675257412
v 0.0493421629 -0.279833883 0.0354447775
v -0.0531231202 -0.301275551 0.0172858965
v -9.80496395E-08 -0.28411746 0.0359685421
v 0.0456913859 -0.259129226 0.053999085
v -0.0493423492 -0.279833853 0.03544477
v -8.70227765E-08 -0.263095856 0.0544486791
v 0.0420685671 -0.238583133 0.0729473084
v -0.0456915461 -0.259129167 0.0539990813
v -8.04662719E-08 -0.242235273 0.0733236447
v 0.0383717231 -0.217617318 0.0922879353
v -0.0420687199 -0.238583118 0.0729473084
v -7.74860354E-08 -0.220948502 0.0925915688
v 0.0345981494 -0.1962163 0.117325626
v -0.0383718759 -0.217617303 0.0922879353
v -7.04824927E-08 -0.199219897 0.117546044
v -0.0345982835 -0.196216241 0.117325619
v 0.112193264 -0.308248848 -0.00270098913
v 0.152961537 -0.264937371 0.0134541104
v 0.164034873 -0.284116983 -0.00499340892
v 0.104619555 -0.287440181 0.0154883312
v 0.0569686219 -0.323085845 -0.000675248622
v 0.1420753 -0.246081844 0.032095328
v 0.0531229042 -0.301275611 0.0172859076
v 0.0971738026 -0.266983122 0.0338734798
v 0.131563261 -0.227874443 0.051123932
v 0.0493421629 -0.279833883 0.0354447775
v 0.0899839923 -0.247229263 0.0526502877
v 0.121131763 -0.209806547 0.0705406591
v 0.0456913859 -0.259129226 0.053999085
v 0.0828492716 -0.227626741 0.0718182921
v 0.110487133 -0.191369504 0.0903462172
v 0.0420685671 -0.238583133 0.0729473084
v 0.0755687654 -0.207623705 0.0913770273
v 0.0996215492 -0.172549739 0.115916088
v 0.0383717231 -0.217617318 0.0922879353
v 0.0681371391 -0.187205479 0.116664387
v 0.0345981494 -0.1962163 0.117325626
v 0.210854486 -0.251286834 -0.0064686886
v 0.234350726 -0.1966438 0.0119083486
v 0.251316071 -0.210879475 -0.00673537049
v 0.196620554 -0.234323457 0.0121449931
v 0.164034873 -0.284116983 -0.00499340892
v 0.217672035 -0.182648718 0.030744141
v 0.152961537 -0.264937371 0.0134541104
v 0.182627097 -0.217646703 0.0309509989
v 0.201566666 -0.169134691 0.0499640927
v 0.1420753 -0.246081844 0.032095328
v 0.169114679 -0.201543197 0.0501416512
v 0.185584694 -0.155724213 0.0695698187
v 0.131563261 -0.227874443 0.051123932
v 0.155705795 -0.185563087 0.0697184354
v 0.169276193 -0.142039701 0.0895629302
v 0.121131763 -0.209806547 0.0705406591
v 0.142022923 -0.169256449 0.0896828324
v 0.152629137 -0.128071159 0.11534749
v 0.110487133 -0.191369504 0.0903462172
v 0.128056034 -0.152611345 0.115434527
v 0.0996215492 -0.172549739 0.115916088
v 0.284083545 -0.164015919 -0.00540199457
v 0.287473798 -0.10463205 0.0148739368
v 0.308284879 -0.112206683 -0.0033933674
v 0.264906198 -0.15294385 0.0130915446
v 0.251316071 -0.210879475 -0.00673537049
v 0.267014325 -0.0971854106 0.0333364271
v 0.234350726 -0.1966438 0.0119083486
v 0.246052891 -0.142058879 0.0317784026
v 0.247258216 -0.0899947435 0.0521892905
v 0.217672035 -0.182648718 0.030744141
v 0.227847666 -0.131548062 0.0508518927
v 0.227653399 -0.0828591734 0.0714324117
v 0.201566666 -0.169134691 0.0499640927
v 0.209781915 -0.121117771 0.070312947
v 0.207648039 -0.075577803 0.0910656974
v 0.185584694 -0.155724213 0.0695698187
v 0.191347018 -0.110474363 0.0901624933
v 0.187227398 -0.06814529 0.116438374
v 0.169276193 -0.142039701 0.0895629302
v 0.172529489 -0.0996100307 0.115782738
v 0.152629137 -0.128071159 0.11534749
v 0.323047966 -0.0569621548 -0.0016342951
v 0.305923313 -2.38418574E-09 0.0171599928
v 0.328069985 -4.76837148E-09 -0.00081714621
v 0.301240295 -0.0531168655 0.0164348818
v 0.308284879 -0.112206683 -0.0033933674
v 0.284150809 -2.98023217E-10 0.0353347175
v 0.287473798 -0.10463205 0.0148739368
v 0.2798011 -0.0493365452 0.0347008817
v 0.263126761 1.2496616E-09 0.0539046079
v 0.267014325 -0.0971854106 0.0333364271
v 0.259098858 -0.0456861779 0.0533605292
v 0.242263749 2.98023217E-10 0.0728682205
v 0.247258216 -0.0899947435 0.0521892905
v 0.238555253 -0.0420637801 0.0724128038
v 0.220974475 -4.75693795E-09 0.0922241285
v 0.227653399 -0.0828591734 0.0714324117
v 0.217591867 -0.0383673646 0.0918566883
v 0.199243292 -8.04662648E-09 0.117279299
v 0.207648039 -0.075577803 0.0910656974
v 0.196193323 -0.0345942192 0.117012575
v 0.187227398 -0.06814529 0.116438374
v 0.196193323 0.0345941782 0.117012575
v 0.166376829 0.0605562106 0.152899712
v 0.187227398 0.0681452006 0.116438374
v 0.174344257 0.0307415947 0.153200865
v 0.145311251 0.0528889634 0.19490537
v 0.199243292 -8.04662648E-09 0.117279299
v 0.1522699 0.0268492922 0.19490537
v 0.177054554 -3.71955111E-09 0.153340772
v 0.154637024 4.76837148E-09 0.19490537
v 0.172529489 0.0996099338 0.115782715
v 0.135631636 0.113808431 0.152327538
v 0.152629197 0.12807107 0.115347467
v 0.153315738 0.0885168687 0.152555823
v 0.118458822 0.0993987322 0.194905356
v 0.187227398 0.0681452006 0.116438374
v 0.133903891 0.0773094296 0.19490537
v 0.166376829 0.0605562106 0.152899712
v 0.145311251 0.0528889634 0.19490537
v 0.128056094 0.152611271 0.115434527
v 0.0885272771 0.153333694 0.152625769
v 0.0996216461 0.172549695 0.115916088
v 0.113795124 0.135615721 0.152373195
v 0.0773185194 0.133919567 0.194905356
v 0.152629197 0.12807107 0.115347467
v 0.0993871093 0.118444927 0.194905356
v 0.135631636 0.113808431 0.152327538
v 0.118458822 0.0993987322 0.194905356
v 0.0681372359 0.187205464 0.11666438
v 0.0307452213 0.174364626 0.153365061
v 0.0345982499 0.19621627 0.117325619
v 0.06054914 0.166357309 0.153018236
v 0.0268524736 0.152287692 0.19490537
v 0.0996216461 0.172549695 0.115916088
v 0.0528828055 0.145294204 0.194905356
v 0.0885272771 0.153333694 0.152625769
v 0.0773185194 0.133919567 0.194905356
v 1.7434358E-08 0.199219897 0.117546044
v -0.030745171 0.174364641 0.153365076
v -0.0345982164 0.19621627 0.117325649
v 2.56299959E-08 0.177033737 0.153480679
v -0.0268523972 0.152287707 0.19490537
v 0.0345982499 0.19621627 0.117325619
v 3.695488E-08 0.154618859 0.19490537
v 0.0307452213 0.174364626 0.153365061
v 0.0268524736 0.152287692 0.19490537
v -0.0681371987 0.187205449 0.116664387
v -0.0885272175 0.153333664 0.152625769
v -0.0996215865 0.17254968 0.115916088
v -0.0605490878 0.166357309 0.153018266
v -0.0773184448 0.133919582 0.19490537
v -0.0345982164 0.19621627 0.117325649
v -0.052882731 0.145294219 0.19490537
v -0.030745171 0.174364641 0.153365076
v -0.0268523972 0.152287707 0.19490537
v -0.128056049 0.152611241 0.115434512
v -0.135631561 0.113808416 0.152327538
v -0.152629137 0.128071055 0.11534746
v -0.113795057 0.135615692 0.152373195
v -0.118458748 0.0993987322 0.19490537
v -0.0996215865 0.17254968 0.115916088
v -0.0993870422 0.118444934 0.19490537
v -0.0885272175 0.153333664 0.152625769
v -0.0773184448 0.133919582 0.19490537
v -0.172529444 0.0996099263 0.115782708
v -0.166376755 0.0605561957 0.152899712
v -0.187227353 0.0681451783 0.116438366
v -0.153315678 0.0885168537 0.152555823
v -0.145311177 0.0528889708 0.194905385
v -0.152629137 0.128071055 0.11534746
v -0.133903801 0.0773094296 0.194905385
v -0.135631561 0.113808416 0.152327538
v -0.118458748 0.0993987322 0.19490537
v -0.196193248 0.0345941782 0.117012575
v -0.177054465 3.43702169E-08 0.153340772
v -0.199243218 3.4570693E-08 0.117279306
v -0.174344167 0.0307416003 0.153200865
v -0.154636949 3.51667389E-08 0.194905385
v -0.187227353 0.0681451783 0.116438366
v -0.15226981 0.0268493034 0.194905385
v -0.166376755 0.0605561957 0.152899712
v -0.145311177 0.0528889708 0.194905385
v -0.196193278 -0.0345941149 0.117012583
v -0.166376755 -0.0605561435 0.152899742
v -0.187227383 -0.0681451187 0.116438389
v -0.174344167 -0.0307415351 0.153200895
v -0.145311177 -0.0528889038 0.194905385
v -0.199243218 3.4570693E-08 0.117279306
v -0.15226981 -0.0268492363 0.194905385
v -0.177054465 3.43702169E-08 0.153340772
v -0.154636949 3.51667389E-08 0.194905385
v -0.172529489 -0.0996098667 0.115782715
v -0.135631591 -0.113808364 0.152327552
v -0.152629182 -0.12807101 0.115347467
v -0.153315708 -0.088516809 0.152555838
v -0.118458763 -0.0993986577 0.194905385
v -0.187227383 -0.0681451187 0.116438389
v -0.133903831 -0.0773093626 0.194905385
v -0.166376755 -0.0605561435 0.152899742
v -0.145311177 -0.0528889038 0.194905385
v -0.128056079 -0.152611226 0.115434527
v -0.0885272548 -0.153333634 0.152625784
v -0.0996216461 -0.17254962 0.115916088
v -0.113795094 -0.135615647 0.15237321
v -0.0773184821 -0.133919463 0.194905385
v -0.152629182 -0.12807101 0.115347467
v -0.099387072 -0.118444838 0.194905385
v -0.135631591 -0.113808364 0.152327552
v -0.118458763 -0.0993986577 0.194905385
v -0.0681372657 -0.187205419 0.116664387
v -0.0307452362 -0.174364597 0.153365061
v -0.0345982835 -0.196216241 0.117325619
v -0.06054914 -0.166357264 0.153018251
v -0.0268524513 -0.152287632 0.194905356
v -0.0996216461 -0.17254962 0.115916088
v -0.0528827757 -0.14529413 0.19490537
v -0.0885272548 -0.153333634 0.152625784
v -0.0773184821 -0.133919463 0.194905385
v -7.04824927E-08 -0.199219897 0.117546044
v 0.0307451393 -0.174364626 0.153365076
v 0.0345981494 -0.1962163 0.117325626
v -5.18560412E-08 -0.177033722 0.153480664
v 0.0268524047 -0.152287662 0.19490537
v -0.0345982835 -0.196216241 0.117325619
v -2.74181353E-08 -0.154618815 0.194905356
v -0.0307452362 -0.174364597 0.153365061
v -0.0268524513 -0.152287632 0.194905356
v 0.0681371391 -0.187205479 0.116664387
v 0.0885272101 -0.153333724 0.152625784
v 0.0996215492 -0.172549739 0.115916088
v 0.060549058 -0.166357324 0.153018266
v 0.0773184747 -0.133919552 0.194905385
v 0.0345981494 -0.1962163 0.117325626
v 0.0528827459 -0.145294189 0.194905385
v 0.0307451393 -0.174364626 0.153365076
v 0.0268524047 -0.152287662 0.19490537
v 0.128056034 -0.152611345 0.115434527
v 0.135631591 -0.113808498 0.152327552
v 0.152629137 -0.128071159 0.11534749
v 0.113795064 -0.135615766 0.15237321
v 0.11845877 -0.0993987843 0.194905385
v 0.0996215492 -0.172549739 0.115916088
v 0.099387072 -0.118444942 0.194905385
v 0.0885272101 -0.153333724 0.152625784
v 0.0773184747 -0.133919552 0.194905385
v 0.172529489 -0.0996100307 0.115782738
v 0.166376814 -0.0605562814 0.152899712
v 0.187227398 -0.06814529 0.116438374
v 0.153315708 -0.0885169581 0.152555838
v 0.145311236 -0.052889023 0.194905385
v 0.152629137 -0.128071159 0.11534749
v 0.133903846 -0.0773094967 0.194905385
v 0.135631591 -0.113808498 0.152327552
v 0.11845877 -0.0993987843 0.194905385
v 0.196193323 -0.0345942192 0.117012575
v 0.177054554 -3.71955111E-09 0.153340772
v 0.199243292 -8.04662648E-09 0.117279299
v 0.174344257 -0.0307416283 0.153200865
v 0.154637024 4.76837148E-09 0.19490537
v 0.187227398 -0.06814529 0.116438374
v 0.15226987 -0.0268493127 0.194905385
v 0.166376814 -0.0605562814 0.152899712
v 0.145311236 -0.052889023 0.194905385
vt 0.748260796 0.000500000024
vt 0.775955975 0.0956428126
vt 0.775955975 0.000500000024
vt 0.748260796 0.0956428126
vt 0.720565796 0.000500000024
vt 0.775955975 0.190785706
vt 0.720565796 0.0956428126
vt 0.748260796 0.190785706
vt 0.775955975 0.285928428
vt 0.720565796 0.190785706
vt 0.748260796 0.285928428
vt 0.775955975 0.381071448
vt 0.720565796 0.285928428
vt 0.748260796 0.381071448
vt 0.775955975 0.47621426
vt 0.720565796 0.381071448
vt 0.748260796 0.47621426
vt 0.775955975 0.618928671
vt 0.720565796 0.47621426
vt 0.748260796 0.618928671
vt 0.720565796 0.618928671
vt 0.803650498 0.000500000024
vt 0.83134526 0.0956428126
vt 0.83134526 0.000500000024
vt 0.803650498 0.0956428126
vt 0.775955975 0.000500000024
vt 0.83134526 0.190785706
vt 0.775955975 0.0956428126
vt 0.803650498 0.190785706
vt 0.83134526 0.285928428
vt 0.775955975 0.190785706
vt 0.803650498 0.285928428
vt 0.83134526 0.381071448
vt 0.775955975 0.285928428
vt 0.803650498 0.381071448
vt 0.83134526 0.47621426
vt 0.775955975 0.381071448
vt 0.803650498 0.47621426
vt 0.83134526 0.618928671
vt 0.775955975 0.47621426
vt 0.803650498 0.618928671
vt 0.775955975 0.618928671
vt 0.859040082 0.000500000024
vt 0.886734962 0.0956428126
vt 0.886734962 0.000500000024
vt 0.859040082 0.0956428126
vt 0.83134526 0.000500000024
vt 0.886734962 0.190785706
vt 0.83134526 0.0956428126
vt 0.859040082 0.190785706
vt 0.886734962 0.285928428
vt 0.83134526 0.190785706
vt 0.859040082 0.285928428
vt 0.886734962 0.381071448
vt 0.83134526 0.285928428
vt 0.859040082 0.381071448
vt 0.886734962 0.47621426
vt 0.83134526 0.381071448
vt 0.859040082 0.47621426
vt 0.886734962 0.618928671
vt 0.83134526 0.47621426
vt 0.859040082 0.618928671
vt 0.83134526 0.618928671
vt 0.914429843 0.000500000024
vt 0.942124784 0.0956428126
vt 0.942124784 0.000500000024
vt 0.914429843 0.0956428126
vt 0.886734962 0.000500000024
vt 0.942124784 0.190785706
vt 0.886734962 0.0956428126
vt 0.914429843 0.190785706
vt 0.942124784 0.285928428
vt 0.886734962 0.190785706
vt 0.914429843 0.285928428
vt 0.942124784 0.381071448
vt 0.886734962 0.285928428
vt 0.914429843 0.381071448
vt 0.942124784 0.47621426
vt 0.886734962 0.381071448
vt 0.914429843 0.47621426
vt 0.942124784 0.618928671
vt 0.886734962 0.47621426
vt 0.914429843 0.618928671
vt 0.886734962 0.618928671
vt 0.969819784 0.000500000024
vt 0.997514546 0.0956428126
vt 0.997514546 0.000500000024
vt 0.969819784 0.0956428126
vt 0.942124784 0.000500000024
vt 0.997514546 0.190785706
vt 0.942124784 0.0956428126
vt 0.969819784 0.190785706
vt 0.997514546 0.285928428
vt 0.942124784 0.190785706
vt 0.969819784 0.285928428
vt 0.997514546 0.381071448
vt 0.942124784 0.285928428
vt 0.969819784 0.381071448
vt 0.997514546 0.47621426
vt 0.942124784 0.381071448
vt 0.969819784 0.47621426
vt 0.997514546 0.618928671
vt 0.942124784 0.47621426
vt 0.969819784 0.618928671
vt 0.942124784 0.618928671
vt 0.0281947292 0.000500000024
vt 0.0558895208 0.0956428126
vt 0.0558895208 0.000500000024
vt 0.0281947292 0.0956428126
vt 0.000500000024 0.000500000024
vt 0.0558895208 0.190785706
vt 0.000500000024 0.0956428126
vt 0.0281947292 0.190785706
vt 0.0558895208 0.285928428
vt 0.000500000024 0.190785706
vt 0.0281947292 0.285928428
vt 0.0558895208 0.381071448
vt 0.000500000024 0.285928428
vt 0.0281947292 0.381071448
vt 0.0558895208 0.47621426
vt 0.000500000024 0.381071448
vt 0.0281947292 0.47621426
vt 0.0558895208 0.618928671
vt 0.000500000024 0.47621426
vt 0.0281947292 0.618928671
vt 0.000500000024 0.618928671
vt 0.0835845247 0.000500000024
vt 0.111279249 0.0956428126
vt 0.111279249 0.000500000024
vt 0.0835845247 0.0956428126
vt 0.0558895208 0.000500000024
vt 0.111279249 0.190785706
vt 0.0558895208 0.0956428126
vt 0.0835845247 0.190785706
vt 0.111279249 0.285928428
vt 0.0558895208 0.190785706
vt 0.0835845247 0.285928428
vt 0.111279249 0.381071448
vt 0.0558895208 0.285928428
vt 0.0835845247 0.381071448
vt 0.111279249 0.47621426
vt 0.0558895208 0.381071448
vt 0.0835845247 0.47621426
vt 0.111279249 0.618928671
vt 0.0558895208 0.47621426
vt 0.0835845247 0.618928671
vt 0.0558895208 0.618928671
vt 0.138974085 0.000500000024
vt 0.166669011 0.0956428126
vt 0.166669011 0.000500000024
vt 0.138974085 0.0956428126
vt 0.111279249 0.000500000024
vt 0.166669011 0.190785706
vt 0.111279249 0.0956428126
vt 0.138974085 0.190785706
vt 0.166669011 0.285928428
vt 0.111279249 0.190785706
vt 0.138974085 0.285928428
vt 0.166669011 0.381071448
vt 0.111279249 0.285928428
vt 0.138974085 0.381071448
vt 0.166669011 0.47621426
vt 0.111279249 0.381071448
vt 0.138974085 0.47621426
vt 0.166669011 0.618928671
vt 0.111279249 0.47621426
vt 0.138974085 0.618928671
vt 0.111279249 0.618928671
vt 0.194363788 0.000500000024
vt 0.222058579 0.0956428126
vt 0.222058579 0.000500000024
vt 0.194363788 0.0956428126
vt 0.166669011 0.000500000024
vt 0.222058579 0.190785706
vt 0.166669011 0.0956428126
vt 0.194363788 0.190785706
vt 0.222058579 0.285928428
vt 0.166669011 0.190785706
vt 0.194363788 0.285928428
vt 0.222058579 0.381071448
vt 0.166669011 0.285928428
vt 0.194363788 0.381071448
vt 0.222058579 0.47621426
vt 0.166669011 0.381071448
vt 0.194363788 0.47621426
vt 0.222058579 0.618928671
vt 0.166669011 0.47621426
vt 0.194363788 0.618928671
vt 0.166669011 0.618928671
vt 0.249753416 0.000500000024
vt 0.277448267 0.0956428126
vt 0.277448267 0.000500000024
vt 0.249753416 0.0956428126
vt 0.222058579 0.000500000024
vt 0.277448267 0.190785706
vt 0.222058579 0.0956428126
vt 0.249753416 0.190785706
vt 0.277448267 0.285928428
vt 0.222058579 0.190785706
vt 0.249753416 0.285928428
vt 0.277448267 0.381071448
vt 0.222058579 0.285928428
vt 0.249753416 0.381071448
vt 0.277448267 0.47621426
vt 0.222058579 0.381071448
vt 0.249753416 0.47621426
vt 0.277448267 0.618928671
vt 0.222058579 0.47621426
vt 0.249753416 0.618928671
vt 0.222058579 0.618928671
vt 0.305143148 0.000500000024
vt 0.332838029 0.0956428126
vt 0.332838029 0.000500000024
vt 0.305143148 0.0956428126
vt 0.277448267 0.000500000024
vt 0.332838029 0.190785706
vt 0.277448267 0.0956428126
vt 0.305143148 0.190785706
vt 0.332838029 0.285928428
vt 0.277448267 0.190785706
vt 0.305143148 0.285928428
vt 0.332838029 0.381071448
vt 0.277448267 0.285928428
vt 0.305143148 0.381071448
vt 0.332838029 0.47621426
vt 0.277448267 0.381071448
vt 0.305143148 0.47621426
vt 0.332838029 0.618928671
vt 0.277448267 0.47621426
vt 0.305143148 0.618928671
vt 0.277448267 0.618928671
vt 0.36053282 0.000500000024
vt 0.388227761 0.0956428126
vt 0.388227761 0.000500000024
vt 0.36053282 0.0956428126
vt 0.332838029 0.000500000024
vt 0.388227761 0.190785706
vt 0.332838029 0.0956428126
vt 0.36053282 0.190785706
vt 0.388227761 0.285928428
vt 0.332838029 0.190785706
vt 0.36053282 0.285928428
vt 0.388227761 0.381071448
vt 0.332838029 0.285928428
vt 0.36053282 0.381071448
vt 0.388227761 0.47621426
vt 0.332838029 0.381071448
vt 0.36053282 0.47621426
vt 0.388227761 0.618928671
vt 0.332838029 0.47621426
vt 0.36053282 0.618928671
vt 0.332838029 0.618928671
vt 0.415922463 0.000500000024
vt 0.443617344 0.0956428126
vt 0.443617344 0.000500000024
vt 0.415922463 0.0956428126
vt 0.388227761 0.000500000024
vt 0.443617344 0.190785706
vt 0.388227761 0.0956428126
vt 0.415922463 0.190785706
vt 0.443617344 0.285928428
vt 0.388227761 0.190785706
vt 0.415922463 0.285928428
vt 0.443617344 0.381071448
vt 0.388227761 0.285928428
vt 0.415922463 0.381071448
vt 0.443617344 0.47621426
vt 0.388227761 0.381071448
vt 0.415922463 0.47621426
vt 0.443617344 0.618928671
vt 0.388227761 0.47621426
vt 0.415922463 0.618928671
vt 0.388227761 0.618928671
vt 0.471312225 0.000500000024
vt 0.499006987 0.0956428126
vt 0.499006987 0.000500000024
vt 0.471312225 0.0956428126
vt 0.443617344 0.000500000024
vt 0.499006987 0.190785706
vt 0.443617344 0.0956428126
vt 0.471312225 0.190785706
vt 0.499006987 0.285928428
vt 0.443617344 0.190785706
vt 0.471312225 0.285928428
vt 0.499006987 0.381071448
vt 0.443617344 0.285928428
vt 0.471312225 0.381071448
vt 0.499006987 0.47621426
vt 0.443617344 0.381071448
vt 0.471312225 0.47621426
vt 0.499006987 0.618928671
vt 0.443617344 0.47621426
vt 0.471312225 0.618928671
vt 0.443617344 0.618928671
vt 0.526701987 0.000500000024
vt 0.554396749 0.0956428126
vt 0.554396749 0.000500000024
vt 0.526701987 0.0956428126
vt 0.499006987 0.000500000024
vt 0.554396749 0.190785706
vt 0.499006987 0.0956428126
vt 0.526701987 0.190785706
vt 0.554396749 0.285928428
vt 0.499006987 0.190785706
vt 0.526701987 0.285928428
vt 0.554396749 0.381071448
vt 0.499006987 0.285928428
vt 0.526701987 0.381071448
vt 0.554396749 0.47621426
vt 0.499006987 0.381071448
vt 0.526701987 0.47621426
vt 0.554396749 0.618928671
vt 0.499006987 0.47621426
vt 0.526701987 0.618928671
vt 0.499006987 0.618928671
vt 0.582091689 0.000500000024
vt 0.60978657 0.0956428126
vt 0.60978657 0.000500000024
vt 0.582091689 0.0956428126
vt 0.554396749 0.000500000024
vt 0.60978657 0.190785706
vt 0.554396749 0.0956428126
vt 0.582091689 0.190785706
vt 0.60978657 0.285928428
vt 0.554396749 0.190785706
vt 0.582091689 0.285928428
vt 0.60978657 0.381071448
vt 0.554396749 0.285928428
vt 0.582091689 0.381071448
vt 0.60978657 0.47621426
vt 0.554396749 0.381071448
vt 0.582091689 0.47621426
vt 0.60978657 0.618928671
vt 0.554396749 0.47621426
vt 0.582091689 0.618928671
vt 0.554396749 0.618928671
vt 0.637481451 0.000500000024
vt 0.665176332 0.0956428126
vt 0.665176332 0.000500000024
vt 0.637481451 0.0956428126
vt 0.60978657 0.000500000024
vt 0.665176332 0.190785706
vt 0.60978657 0.0956428126
vt 0.637481451 0.190785706
vt 0.665176332 0.285928428
vt 0.60978657 0.190785706
vt 0.637481451 0.285928428
vt 0.665176332 0.381071448
vt 0.60978657 0.285928428
vt 0.637481451 0.381071448
vt 0.665176332 0.47621426
vt 0.60978657 0.381071448
vt 0.637481451 0.47621426
vt 0.665176332 0.618928671
vt 0.60978657 0.47621426
vt 0.637481451 0.618928671
vt 0.60978657 0.618928671
vt 0.692871213 0.000500000024
vt 0.720565796 0.0956428126
vt 0.720565796 0.000500000024
vt 0.692871213 0.0956428126
vt 0.665176332 0.000500000024
vt 0.720565796 0.190785706
vt 0.665176332 0.0956428126
vt 0.692871213 0.190785706
vt 0.720565796 0.285928428
vt 0.665176332 0.190785706
vt 0.692871213 0.285928428
vt 0.720565796 0.381071448
vt 0.665176332 0.285928428
vt 0.692871213 0.381071448
vt 0.720565796 0.47621426
vt 0.665176332 0.381071448
vt 0.692871213 0.47621426
vt 0.720565796 0.618928671
vt 0.665176332 0.47621426
vt 0.692871213 0.618928671
vt 0.665176332 0.618928671
vt 0.748260796 0.618928671
vt 0.775955975 0.809214532
vt 0.775955975 0.618928671
vt 0.748260796 0.809214532
vt 0.775955975 0.999500036
vt 0.720565796 0.618928671
vt 0.748260796 0.999500036
vt 0.720565796 0.809214532
vt 0.720565796 0.999500036
vt 0.803650498 0.618928671
vt 0.83134526 0.809214532
vt 0.83134526 0.618928671
vt 0.803650498 0.809214532
vt 0.83134526 0.999500036
vt 0.775955975 0.618928671
vt 0.803650498 0.999500036
vt 0.775955975 0.809214532
vt 0.775955975 0.999500036
vt 0.859040082 0.618928671
vt 0.886734962 0.809214532
vt 0.886734962 0.618928671
vt 0.859040082 0.809214532
vt 0.886734962 0.999500036
vt 0.83134526 0.618928671
vt 0.859040082 0.999500036
vt 0.83134526 0.809214532
vt 0.83134526 0.999500036
vt 0.914429843 0.618928671
vt 0.942124784 0.809214532
vt 0.942124784 0.618928671
vt 0.914429843 0.809214532
vt 0.942124784 0.999500036
vt 0.886734962 0.618928671
vt 0.914429843 0.999500036
vt 0.886734962 0.809214532
vt 0.886734962 0.999500036
vt 0.969819784 0.618928671
vt 0.997514546 0.809214532
vt 0.997514546 0.618928671
vt 0.969819784 0.809214532
vt 0.997514546 0.999500036
vt 0.942124784 0.618928671
vt 0.969819784 0.999500036
vt 0.942124784 0.809214532
vt 0.942124784 0.999500036
vt 0.0281947292 0.618928671
vt 0.0558895208 0.809214532
vt 0.0558895208 0.618928671
vt 0.0281947292 0.809214532
vt 0.0558895208 0.999500036
vt 0.000500000024 0.618928671
vt 0.0281947292 0.999500036
vt 0.000500000024 0.809214532
vt 0.000500000024 0.999500036
vt 0.0835845247 0.618928671
vt 0.111279249 0.809214532
vt 0.111279249 0.618928671
vt 0.0835845247 0.809214532
vt 0.111279249 0.999500036
vt 0.0558895208 0.618928671
vt 0.0835845247 0.999500036
vt 0.0558895208 0.809214532
vt 0.0558895208 0.999500036
vt 0.138974085 0.618928671
vt 0.166669011 0.809214532
vt 0.166669011 0.618928671
vt 0.138974085 0.809214532
vt 0.166669011 0.999500036
vt 0.111279249 0.618928671
vt 0.138974085 0.999500036
vt 0.111279249 0.809214532
vt 0.111279249 0.999500036
vt 0.194363788 0.618928671
vt 0.222058579 0.809214532
vt 0.222058579 0.618928671
vt 0.194363788 0.809214532
vt 0.222058579 0.999500036
vt 0.166669011 0.618928671
vt 0.194363788 0.999500036
vt 0.166669011 0.809214532
vt 0.166669011 0.999500036
vt 0.249753416 0.618928671
vt 0.277448267 0.809214532
vt 0.277448267 0.618928671
vt 0.249753416 0.809214532
vt 0.277448267 0.999500036
vt 0.222058579 0.618928671
vt 0.249753416 0.999500036
vt 0.222058579 0.809214532
vt 0.222058579 0.999500036
vt 0.305143148 0.618928671
vt 0.332838029 0.809214532
vt 0.332838029 0.618928671
vt 0.305143148 0.809214532
vt 0.332838029 0.999500036
vt 0.277448267 0.618928671
vt 0.305143148 0.999500036
vt 0.277448267 0.809214532
vt 0.277448267 0.999500036
vt 0.36053282 0.618928671
vt 0.388227761 0.809214532
vt 0.388227761 0.618928671
vt 0.36053282 0.809214532
vt 0.388227761 0.999500036
vt 0.332838029 0.618928671
vt 0.36053282 0.999500036
vt 0.332838029 0.809214532
vt 0.332838029 0.999500036
vt 0.415922463 0.618928671
vt 0.443617344 0.809214532
vt 0.443617344 0.618928671
vt 0.415922463 0.809214532
vt 0.443617344 0.999500036
vt 0.388227761 0.618928671
vt 0.415922463 0.999500036
vt 0.388227761 0.809214532
vt 0.388227761 0.999500036
vt 0.471312225 0.618928671
vt 0.499006987 0.809214532
vt 0.499006987 0.618928671
vt 0.471312225 0.809214532
vt 0.499006987 0.999500036
vt 0.443617344 0.618928671
vt 0.471312225 0.999500036
vt 0.443617344 0.809214532
vt 0.443617344 0.999500036
vt 0.526701987 0.618928671
vt 0.554396749 0.809214532
vt 0.554396749 0.618928671
vt 0.526701987 0.809214532
vt 0.554396749 0.999500036
vt 0.499006987 0.618928671
vt 0.526701987 0.999500036
vt 0.499006987 0.809214532
vt 0.499006987 0.999500036
vt 0.582091689 0.618928671
vt 0.60978657 0.809214532
vt 0.60978657 0.618928671
vt 0.582091689 0.809214532
vt 0.60978657 0.999500036
vt 0.554396749 0.618928671
vt 0.582091689 0.999500036
vt 0.554396749 0.809214532
vt 0.554396749 0.999500036
vt 0.637481451 0.618928671
vt 0.665176332 0.809214532
vt 0.665176332 0.618928671
vt 0.637481451 0.809214532
vt 0.665176332 0.999500036
vt 0.60978657 0.618928671
vt 0.637481451 0.999500036
vt 0.60978657 0.809214532
vt 0.60978657 0.999500036
vt 0.692871213 0.618928671
vt 0.720565796 0.809214532
vt 0.720565796 0.618928671
vt 0.692871213 0.809214532
vt 0.720565796 0.999500036
vt 0.665176332 0.618928671
vt 0.692871213 0.999500036
vt 0.665176332 0.809214532
vt 0.665176332 0.999500036
vn 0.619474351 0.127016291 0.774673104
vn 0.614118874 0.187342227 0.766655684
vn 0.60865432 0.187202871 0.771035075
vn 0.624840438 0.127007291 0.77035284
vn 0.62883544 0.0665534139 0.774684846
vn 0.619634748 0.187321052 0.762209713
vn 0.634126961 0.0664232746 0.770370662
vn 0.630229294 0.126875967 0.765972257
vn 0.645534992 0.192046776 0.739190578
vn 0.639422417 0.0662145093 0.765999138
vn 0.656489015 0.129919693 0.743063211
vn 0.651098788 0.191643208 0.734399974
vn 0.665819526 0.0675501898 0.743048668
vn 0.661893189 0.129503638 0.738326669
vn 0.695351243 0.200491071 0.690137684
vn 0.671100736 0.0671604052 0.738317847
vn 0.706982136 0.135300487 0.694168568
vn 0.731757164 0.206664726 0.649477661
vn 0.716509938 0.0698172748 0.694074333
vn 0.743876457 0.139232293 0.653652847
vn 0.753507793 0.0714711845 0.653542459
vn 0.543732285 0.339913398 0.76734221
vn 0.522739589 0.386083335 0.760054529
vn 0.517936528 0.383896291 0.764437854
vn 0.548823059 0.341455549 0.763021231
vn 0.567475915 0.294886202 0.768773854
vn 0.527618706 0.388169855 0.755607426
vn 0.57275486 0.295752764 0.764514327
vn 0.55399406 0.342859894 0.758642018
vn 0.549545169 0.401552469 0.732636094
vn 0.578108847 0.296442598 0.760205209
vn 0.577319682 0.354004025 0.735787511
vn 0.554500401 0.40334332 0.727903545
vn 0.60259068 0.305216759 0.737378597
vn 0.582591593 0.355048835 0.731113732
vn 0.591794908 0.426778346 0.683841348
vn 0.608060181 0.305480748 0.732764781
vn 0.622330904 0.374840796 0.687167168
vn 0.622783124 0.445293844 0.643315256
vn 0.649840474 0.321383238 0.688781619
vn 0.655343413 0.390136689 0.646775365
vn 0.684434712 0.333228171 0.648465931
vn 0.422537297 0.485354096 0.765436888
vn 0.387058794 0.519412637 0.761837244
vn 0.384990543 0.514612794 0.766130507
vn 0.425357103 0.489693999 0.761098683
vn 0.458499551 0.454071939 0.76393503
vn 0.389009535 0.52428776 0.757491767
vn 0.461990625 0.457839102 0.759570956
vn 0.428113133 0.494086593 0.756701827
vn 0.402298152 0.546317577 0.734638214
vn 0.465463549 0.461623788 0.755147099
vn 0.443755835 0.514357507 0.733837247
vn 0.403932303 0.551294804 0.730008721
vn 0.48327601 0.479912013 0.732208192
vn 0.446297407 0.518786967 0.729162991
vn 0.427325636 0.58883357 0.686052442
vn 0.486627311 0.48365587 0.727510035
vn 0.473483145 0.553394079 0.685250819
vn 0.44568789 0.620005548 0.645720959
vn 0.517308116 0.514989913 0.683504045
vn 0.495323896 0.582059503 0.644872844
vn 0.542293012 0.540738523 0.64305532
vn 0.244505495 0.586182594 0.772403359
vn 0.190550253 0.609231174 0.769758344
vn 0.190613851 0.603801012 0.774009585
vn 0.244830623 0.591671348 0.768103421
vn 0.297825664 0.566840589 0.768109202
vn 0.190297142 0.61470598 0.765456378
vn 0.298561573 0.572348714 0.763726413
vn 0.244961113 0.597233593 0.763744771
vn 0.194771186 0.640783727 0.742603838
vn 0.299103677 0.57795912 0.759276211
vn 0.251478672 0.622777998 0.74088192
vn 0.194081008 0.646341622 0.737953305
vn 0.307594687 0.602730095 0.736275733
vn 0.251148194 0.628455281 0.736185133
vn 0.20265013 0.691037774 0.693829834
vn 0.30765757 0.608483374 0.731501639
vn 0.263247937 0.672067285 0.692117095
vn 0.208399355 0.727728784 0.653437495
vn 0.323110759 0.650537908 0.687313497
vn 0.271859258 0.708115876 0.651662827
vn 0.334472954 0.685517371 0.646679044
vn -2.46270133E-07 0.628326058 0.777950168
vn -0.0636595115 0.633050561 0.771488488
vn -0.0636888742 0.627696216 0.775848687
vn -1.50222846E-07 0.633648038 0.77362138
vn 0.0636883527 0.627696037 0.775848925
vn -0.0635659248 0.638413727 0.767064035
vn 0.0636591911 0.633050501 0.771488547
vn -1.60063394E-07 0.638970912 0.769230843
vn -0.065049246 0.664962351 0.744038701
vn 0.0635656193 0.638413727 0.767064035
vn -0 0.665621579 0.746289432
vn -0.0648060217 0.670320094 0.739236891
vn 0.0650494173 0.664961994 0.744039059
vn 1.53608539E-07 0.670934677 0.741516471
vn -0.0676515177 0.715938985 0.694877386
vn 0.0648063123 0.670319974 0.739236951
vn 2.6437823E-07 0.716821253 0.697256923
vn -0.0695481002 0.753111541 0.654206455
vn 0.0676520094 0.715938866 0.694877446
vn 2.70738752E-07 0.75417006 0.656679213
vn 0.0695486367 0.753111482 0.654206455
vn -0.244505391 0.586182952 0.772403181
vn -0.298561484 0.572348535 0.763726532
vn -0.297825575 0.566840708 0.768109143
vn -0.244830474 0.591671646 0.768103361
vn -0.190613583 0.60380125 0.774009347
vn -0.299103677 0.577958524 0.759276569
vn -0.19054991 0.609231412 0.769758284
vn -0.244961023 0.597233534 0.763744891
vn -0.307594776 0.602729917 0.736275792
vn -0.190296814 0.614706099 0.765456438
vn -0.25147894 0.622777879 0.740881979
vn -0.307658017 0.608483195 0.731501579
vn -0.194771633 0.640783966 0.742603421
vn -0.251148611 0.628455579 0.736184716
vn -0.323111266 0.650537491 0.687313616
vn -0.194081113 0.646341681 0.737953246
vn -0.263248444 0.672066927 0.692117333
vn -0.334473342 0.685517251 0.646678925
vn -0.202650711 0.691037655 0.693829775
vn -0.271859795 0.708115578 0.651663005
vn -0.208400145 0.727728546 0.653437495
vn -0.422537088 0.485353768 0.765437245
vn -0.461990476 0.457838982 0.759571135
vn -0.458499521 0.45407179 0.763935268
vn -0.425357014 0.489693701 0.761098802
vn -0.384990484 0.514612794 0.766130507
vn -0.465463519 0.461623639 0.755147219
vn -0.387058824 0.519412339 0.761837423
vn -0.428113043 0.494086564 0.756701827
vn -0.483276159 0.479911983 0.732208014
vn -0.389009178 0.524287462 0.757492244
vn -0.443755805 0.514357686 0.733837128
vn -0.486627698 0.483656198 0.727509499
vn -0.402297914 0.546317637 0.734638274
vn -0.446297467 0.518787324 0.729162693
vn -0.517307639 0.514989972 0.683504283
vn -0.403931975 0.551295161 0.730008721
vn -0.473482668 0.55339396 0.685251176
vn -0.542292535 0.540738225 0.643055975
vn -0.427325249 0.58883369 0.686052561
vn -0.495323598 0.582059205 0.644873321
vn -0.445688277 0.620005369 0.64572078
vn -0.543731928 0.339913309 0.767342567
vn -0.572754383 0.295752317 0.764514863
vn -0.567475319 0.294885993 0.76877439
vn -0.548822522 0.34145534 0.763021708
vn -0.517936289 0.383896291 0.764438093
vn -0.578108251 0.296442062 0.760205805
vn -0.52273941 0.386083424 0.760054767
vn -0.553993642 0.342859387 0.758642554
vn -0.602590919 0.305216759 0.737378418
vn -0.527618587 0.388169676 0.755607665
vn -0.577319741 0.354004115 0.735787392
vn -0.6080603 0.305480719 0.7327649
vn -0.549545348 0.401552677 0.732635856
vn -0.582591593 0.355048567 0.731113851
vn -0.649840534 0.321383446 0.6887815
vn -0.554500997 0.40334329 0.727903128
vn -0.622331023 0.374840766 0.687166989
vn -0.684434593 0.333227992 0.64846617
vn -0.591794908 0.426778048 0.683841646
vn -0.655343294 0.390136838 0.646775246
vn -0.622782409 0.445293963 0.643315852
vn -0.619473934 0.127016366 0.774673283
vn -0.634126365 0.066423513 0.77037102
vn -0.628834665 0.066553846 0.774685383
vn -0.624840379 0.12700747 0.770353019
vn -0.608653724 0.187202528 0.771035552
vn -0.639421999 0.0662144944 0.765999377
vn -0.614118159 0.187342092 0.76665628
vn -0.630229235 0.126876265 0.765972257
vn -0.665819287 0.0675498769 0.743048966
vn -0.619633794 0.18732138 0.76221031
vn -0.656488717 0.129919544 0.743063569
vn -0.671100855 0.0671604574 0.738317788
vn -0.645535171 0.192046836 0.73919034
vn -0.661892891 0.129503489 0.738326967
vn -0.716510117 0.0698173717 0.694074035
vn -0.651098788 0.19164294 0.734400034
vn -0.706982315 0.135300234 0.694168448
vn -0.753507912 0.0714714602 0.65354234
vn -0.695351601 0.200490475 0.690137446
vn -0.743876517 0.139232203 0.653652847
vn -0.731757164 0.206664219 0.64947772
vn -0.619473696 -0.127016082 0.774673641
vn -0.61411804 -0.187342137 0.766656339
vn -0.608653367 -0.187202394 0.771036029
vn -0.624839962 -0.127007261 0.770353198
vn -0.628834724 -0.0665534064 0.774685442
vn -0.619634211 -0.187321022 0.762210071
vn -0.634126425 -0.0664232746 0.770371199
vn -0.630228996 -0.126875982 0.765972555
vn -0.645535171 -0.192046598 0.73919028
vn -0.639421999 -0.0662144944 0.765999377
vn -0.656489015 -0.129919469 0.74306339
vn -0.651099324 -0.191642761 0.734399557
vn -0.665819287 -0.0675498769 0.743048966
vn -0.661893189 -0.129503265 0.738326609
vn -0.69535166 -0.200490341 0.690137386
vn -0.671100795 -0.0671601668 0.738317847
vn -0.706982434 -0.135300025 0.694168448
vn -0.731757343 -0.206664026 0.649477541
vn -0.716510177 -0.069817014 0.694074094
vn -0.743876755 -0.139231816 0.653652787
vn -0.753507912 -0.0714708567 0.65354234
vn -0.54373157 -0.3399131 0.767342925
vn -0.522739351 -0.386083126 0.760054886
vn -0.517936051 -0.383896232 0.764438391
vn -0.548822463 -0.341455132 0.763021767
vn -0.567474842 -0.294885784 0.768774748
vn -0.527618647 -0.388169557 0.755607724
vn -0.572754264 -0.295752198 0.764514983
vn -0.553993821 -0.342859507 0.758642316
vn -0.549545765 -0.401552498 0.732635736
vn -0.578108549 -0.29644227 0.760205507
vn -0.577320218 -0.354004055 0.735786974
vn -0.554500937 -0.403343558 0.727902889
vn -0.602590978 -0.30521667 0.737378359
vn -0.582592547 -0.355048925 0.731113017
vn -0.591795027 -0.426778197 0.683841288
vn -0.608060896 -0.305480361 0.732764423
vn -0.622331083 -0.374840647 0.687167048
vn -0.622783065 -0.445293903 0.643315375
vn -0.649840891 -0.321383059 0.688781381
vn -0.655343592 -0.390136689 0.646775246
vn -0.68443495 -0.333227932 0.648465931
vn -0.42253679 -0.485353589 0.765437424
vn -0.387058824 -0.51941222 0.761837423
vn -0.384990424 -0.514612794 0.766130567
vn -0.425356776 -0.489693671 0.761098981
vn -0.458499104 -0.454071701 0.763935447
vn -0.389009386 -0.524287343 0.757492185
vn -0.461990267 -0.457839042 0.759571195
vn -0.428112835 -0.494086444 0.756701946
vn -0.402298242 -0.546318054 0.734637737
vn -0.465463191 -0.461623877 0.755147278
vn -0.443756282 -0.514358163 0.733836472
vn -0.403932393 -0.551295638 0.730008125
vn -0.483276367 -0.479912192 0.732207775
vn -0.446297854 -0.518787622 0.729162276
vn -0.427325428 -0.58883357 0.686052442
vn -0.486627996 -0.483656257 0.727509379
vn -0.473483175 -0.55339402 0.685250819
vn -0.445687383 -0.620005429 0.645721376
vn -0.517308354 -0.514989674 0.683503985
vn -0.495323598 -0.582059383 0.644873083
vn -0.542293072 -0.540738344 0.643055499
vn -0.244505525 -0.586182475 0.772403538
vn -0.19055073 -0.609231651 0.769757867
vn -0.190613925 -0.603801429 0.774009228
vn -0.244830832 -0.591671407 0.768103361
vn -0.297825783 -0.56684047 0.768109202
vn -0.190297857 -0.614706397 0.765455902
vn -0.298561484 -0.572348535 0.763726473
vn -0.244961694 -0.597233593 0.763744593
vn -0.194771647 -0.640783966 0.742603421
vn -0.299103916 -0.577958465 0.759276569
vn -0.251479268 -0.622778296 0.740881503
vn -0.194081604 -0.646342218 0.73795265
vn -0.307595253 -0.602730334 0.736275256
vn -0.25114888 -0.628455877 0.736184359
vn -0.202650681 -0.691037476 0.693829834
vn -0.307658255 -0.608483732 0.731501102
vn -0.263248533 -0.672067225 0.692116916
vn -0.208399132 -0.727728248 0.653438032
vn -0.323111117 -0.650537789 0.687313497
vn -0.271859825 -0.708115816 0.651662707
vn -0.334473819 -0.685516536 0.646679521
vn -4.81513666E-07 -0.628326356 0.777949989
vn 0.0636591911 -0.633050621 0.771488428
vn 0.0636883676 -0.627696335 0.775848627
vn -4.11136369E-07 -0.633648038 0.77362138
vn -0.0636893362 -0.627696395 0.775848389
vn 0.0635653064 -0.638413787 0.767064035
vn -0.0636600554 -0.633050978 0.77148813
vn -1.96344388E-07 -0.638970494 0.7692312
vn 0.0650489032 -0.664962351 0.744038701
vn -0.0635657683 -0.638414323 0.767063558
vn -4.55594773E-07 -0.665621996 0.746289015
vn 0.0648060292 -0.670319974 0.739236951
vn -0.0650498345 -0.664962351 0.744038701
vn -1.53608667E-07 -0.670934975 0.741516113
vn 0.0676515624 -0.715939403 0.694877028
vn -0.0648064166 -0.670320749 0.739236295
vn -1.77511239E-07 -0.716821551 0.697256625
vn 0.0695480853 -0.753111839 0.654206038
vn -0.0676518828 -0.715938926 0.694877446
vn -7.13293105E-07 -0.754170358 0.656678855
vn -0.0695494562 -0.753110886 0.654206932
vn 0.244505078 -0.586182952 0.7724033
vn 0.298561186 -0.572348773 0.763726473
vn 0.297825366 -0.566840887 0.768109143
vn 0.244830236 -0.591671586 0.768103361
vn 0.190613344 -0.603801429 0.774009287
vn 0.299103409 -0.577958941 0.75927633
vn 0.190549836 -0.609231532 0.769758165
vn 0.2449608 -0.597233653 0.763744831
vn 0.307594687 -0.602730632 0.736275256
vn 0.190296724 -0.614706159 0.765456438
vn 0.251478612 -0.622778356 0.740881622
vn 0.30765745 -0.608484268 0.731501102
vn 0.194771051 -0.640784085 0.742603481
vn 0.251147836 -0.628455818 0.736184716
vn 0.323109806 -0.650538445 0.687313497
vn 0.194080472 -0.646341741 0.737953365
vn 0.263247401 -0.672067583 0.692117035
vn 0.334472567 -0.685517013 0.64667958
vn 0.202650025 -0.691038132 0.693829417
vn 0.271859229 -0.708116114 0.651662648
vn 0.20839943 -0.727729082 0.653437078
vn 0.422536582 -0.485354125 0.765437305
vn 0.461990148 -0.457839191 0.759571195
vn 0.458498716 -0.454071999 0.763935626
vn 0.425356597 -0.489694089 0.761098862
vn 0.384989977 -0.514613211 0.766130567
vn 0.465463281 -0.461624205 0.75514704
vn 0.387058496 -0.519412816 0.761837363
vn 0.428112656 -0.494086921 0.756701887
vn 0.48327598 -0.479912847 0.732207656
vn 0.389008999 -0.524287939 0.757492065
vn 0.443755746 -0.514358342 0.73383671
vn 0.486627609 -0.483656824 0.72750926
vn 0.402298003 -0.546318114 0.734637856
vn 0.446297586 -0.518788218 0.729162037
vn 0.51730758 -0.514990568 0.683503866
vn 0.403931886 -0.551295877 0.730008125
vn 0.473482579 -0.553394496 0.685250819
vn 0.542292178 -0.540739059 0.643055558
vn 0.42732504 -0.588833869 0.686052561
vn 0.495323032 -0.582060158 0.644873083
vn 0.445686758 -0.620005667 0.645721436
vn 0.543731928 -0.339913577 0.767342329
vn 0.572754443 -0.295752913 0.764514685
vn 0.567475259 -0.29488647 0.768774211
vn 0.548822641 -0.341455817 0.76302135
vn 0.51793611 -0.383896142 0.764438391
vn 0.57810837 -0.296442538 0.760205567
vn 0.522739232 -0.386083513 0.760054767
vn 0.553993821 -0.342859924 0.758642137
vn 0.602590859 -0.305217296 0.73737824
vn 0.527618587 -0.388170034 0.755607426
vn 0.57731998 -0.354004711 0.735786855
vn 0.608060241 -0.305480361 0.732765019
vn 0.549545348 -0.401553154 0.732635677
vn 0.58259213 -0.355049133 0.731113195
vn 0.649840772 -0.321383476 0.688781202
vn 0.554500818 -0.403344154 0.72790271
vn 0.622331083 -0.374841005 0.68716675
vn 0.684434772 -0.333227754 0.648466051
vn 0.591795027 -0.426778615 0.683841109
vn 0.655343592 -0.390137017 0.646775007
vn 0.62278235 -0.44529444 0.643315554
vn 0.619474351 -0.1270165 0.774673104
vn 0.634126902 -0.0664237291 0.770370603
vn 0.62883544 -0.0665538684 0.774684906
vn 0.624840379 -0.127007663 0.7703529
vn 0.608653903 -0.187202781 0.771035373
vn 0.639422357 -0.0662149787 0.765999138
vn 0.614118338 -0.187342405 0.766656041
vn 0.630229235 -0.126876488 0.765972257
vn 0.665819585 -0.0675504208 0.743048608
vn 0.619634211 -0.187321499 0.762210071
vn 0.656489432 -0.129919901 0.743062913
vn 0.671100736 -0.0671603382 0.738317847
vn 0.64553529 -0.192046911 0.739190161
vn 0.661893427 -0.129503936 0.738326311
vn 0.716509938 -0.0698172301 0.694074333
vn 0.65109843 -0.19164364 0.734400153
vn 0.706982255 -0.135300294 0.694168627
vn 0.753507793 -0.0714711249 0.653542459
vn 0.695351779 -0.200490743 0.690137208
vn 0.743876517 -0.139232144 0.653652906
vn 0.731757164 -0.206664428 0.64947772
vn 0.838464141 0.154294208 0.522657871
vn 0.83931762 0.229271531 0.492930502
vn 0.823712409 0.229000151 0.518706977
vn 0.853998423 0.154202491 0.496898681
vn 0.85304749 0.227961719 0.469407588
vn 0.849035382 0.0788822919 0.522414207
vn 0.867453814 0.152955845 0.47342208
vn 0.864371598 0.0784669444 0.49669376
vn 0.877509594 0.0773645416 0.473277599
vn 0.737424314 0.435155839 0.51657027
vn 0.713369906 0.503197849 0.487745106
vn 0.699635983 0.497041583 0.513282716
vn 0.752128661 0.439518064 0.491046309
vn 0.72577256 0.507468104 0.464467615
vn 0.770815253 0.370859534 0.517983794
vn 0.765423536 0.441917807 0.467798501
vn 0.786165535 0.373294383 0.492539465
vn 0.800003052 0.373699933 0.469407588
vn 0.554271221 0.653972208 0.514882267
vn 0.503715813 0.711369336 0.49012652
vn 0.497788191 0.697450876 0.515528083
vn 0.562359929 0.666501522 0.48941502
vn 0.5076648 0.723987818 0.467031151
vn 0.607435942 0.606429815 0.513093114
vn 0.568651795 0.677692473 0.466227442
vn 0.617432833 0.617239118 0.487639844
vn 0.625787377 0.626625896 0.464467645
vn 0.301901489 0.798443794 0.520905852
vn 0.230570301 0.836685836 0.496783823
vn 0.230838567 0.82086581 0.522391677
vn 0.302722782 0.814316392 0.495225012
vn 0.228537157 0.850632906 0.473491877
vn 0.37148729 0.771694779 0.516221106
vn 0.301557779 0.82852304 0.471818328
vn 0.373402148 0.787383974 0.490507066
vn 0.373159617 0.801644444 0.467031181
vn 2.20282757E-07 0.850890934 0.525342405
vn -0.0769015998 0.864293754 0.497073829
vn -0.0770263523 0.848884702 0.522935748
vn 4.21186144E-07 0.866327822 0.499475777
vn -0.0761785656 0.877497613 0.473491967
vn 0.0770267844 0.848884523 0.522935987
vn 3.13397095E-07 0.879500747 0.475897521
vn 0.0769024491 0.864293694 0.497073859
vn 0.0761792138 0.877497733 0.473491877
vn -0.301902086 0.798443794 0.520905614
vn -0.373402834 0.787383854 0.490506738
vn -0.371487647 0.77169466 0.516221106
vn -0.302723408 0.814316273 0.495224804
vn -0.373159707 0.801644683 0.467030585
vn -0.230839297 0.820865631 0.522391498
vn -0.30155763 0.828523219 0.471818119
vn -0.230570838 0.836685658 0.496783853
vn -0.22853671 0.850632787 0.473492146
vn -0.5542714 0.653972089 0.514882147
vn -0.617432773 0.617239356 0.487639666
vn -0.607435822 0.606429935 0.513092935
vn -0.562360048 0.666501641 0.489414632
vn -0.625787795 0.626625717 0.464467466
vn -0.497788489 0.697450697 0.515527964
vn -0.568652213 0.677692533 0.466226995
vn -0.503716052 0.711369336 0.490126222
vn -0.507665038 0.723987877 0.467030734
vn -0.737424016 0.435155869 0.516570628
vn -0.786165535 0.373294324 0.492539525
vn -0.770815074 0.370859325 0.517984092
vn -0.752128541 0.439517885 0.491046429
vn -0.800003052 0.373700321 0.46940735
vn -0.699635744 0.49704206 0.513282657
vn -0.765423536 0.441917896 0.467798471
vn -0.713370025 0.503197789 0.487745017
vn -0.725772798 0.507468045 0.464467496
vn -0.8384642 0.154294059 0.522657871
vn -0.864371598 0.0784664974 0.49669382
vn -0.849035144 0.0788825005 0.522414565
vn -0.853998542 0.154202297 0.496898651
vn -0.877509773 0.0773646235 0.47327733
vn -0.823712289 0.228999496 0.518707275
vn -0.867453694 0.152955756 0.47342214
vn -0.83931756 0.229271546 0.492930651
vn -0.853047669 0.227961481 0.469407409
vn -0.838464022 -0.154293627 0.52265811
vn -0.839317501 -0.229271427 0.492930919
vn -0.82371217 -0.228999272 0.518707633
vn -0.853998542 -0.154202104 0.496898741
vn -0.853047431 -0.227961719 0.469407648
vn -0.849035203 -0.0788818747 0.522414565
vn -0.867453694 -0.152955741 0.47342208
vn -0.864371598 -0.0784661919 0.496693879
vn -0.877509773 -0.0773642883 0.473277301
vn -0.737424195 -0.4351556 0.516570568
vn -0.713369787 -0.503197789 0.487745404
vn -0.699635804 -0.497041583 0.513282955
vn -0.752128541 -0.439517558 0.491046697
vn -0.725772798 -0.507467747 0.464467794
vn -0.770815015 -0.370858967 0.51798439
vn -0.765423536 -0.44191739 0.467798889
vn -0.786165714 -0.373293668 0.492539853
vn -0.800003111 -0.373699754 0.469407618
vn -0.554271102 -0.653972089 0.514882565
vn -0.503715992 -0.711369157 0.490126669
vn -0.497787893 -0.697451234 0.515527844
vn -0.562360048 -0.666501164 0.489415139
vn -0.507664442 -0.723987699 0.467031658
vn -0.607435942 -0.606429636 0.513093352
vn -0.568651736 -0.677692473 0.466227621
vn -0.617432892 -0.617238879 0.487640053
vn -0.625787497 -0.626625597 0.464467764
vn -0.301901996 -0.798443496 0.520906031
vn -0.230570763 -0.836685479 0.49678421
vn -0.230838478 -0.82086587 0.522391379
vn -0.302723169 -0.814315915 0.495225459
vn -0.228536978 -0.85063237 0.473492771
vn -0.371488512 -0.771694422 0.516220868
vn -0.301557779 -0.828522682 0.471819043
vn -0.373402655 -0.787383676 0.490507156
vn -0.373159736 -0.801644087 0.467031687
vn -7.79148593E-07 -0.850890577 0.525342822
vn 0.0769014433 -0.864293575 0.497074187
vn 0.0770261809 -0.848884404 0.522936046
vn -4.23357307E-07 -0.866327524 0.499476284
vn 0.0761782303 -0.877497435 0.473492444
vn -0.0770277604 -0.848884583 0.522935688
vn -6.36219738E-07 -0.879500389 0.475897998
vn -0.0769023076 -0.864293516 0.497074157
vn -0.0761794969 -0.877497196 0.473492742
vn 0.3019014 -0.798443973 0.520905733
vn 0.37340185 -0.787384212 0.490507066
vn 0.371487111 -0.771695077 0.516220927
vn 0.302722365 -0.814316511 0.495224983
vn 0.373159051 -0.801644504 0.467031389
vn 0.230838537 -0.820865631 0.522391737
vn 0.301557004 -0.828523159 0.471818626
vn 0.230569795 -0.836685777 0.49678421
vn 0.22853598 -0.850632787 0.473492444
vn 0.554270446 -0.653972805 0.514882326
vn 0.617432356 -0.617239416 0.487639993
vn 0.607435107 -0.606430292 0.513093352
vn 0.562359512 -0.66650188 0.48941499
vn 0.62578702 -0.626626253 0.464467645
vn 0.497787386 -0.69745177 0.515527785
vn 0.568651259 -0.67769295 0.466227472
vn 0.503715277 -0.711369753 0.490126431
vn 0.507664025 -0.723988175 0.46703136
vn 0.737423897 -0.435155988 0.516570747
vn 0.786165476 -0.373294264 0.492539674
vn 0.770815194 -0.370859087 0.517984152
vn 0.752128243 -0.439518183 0.491046727
vn 0.800002754 -0.373700589 0.469407558
vn 0.699635327 -0.497042328 0.513283014
vn 0.765423179 -0.441917896 0.467798948
vn 0.71336937 -0.503198445 0.487745285
vn 0.72577256 -0.507468104 0.464467615
vn 0.838464141 -0.154294059 0.522657871
vn 0.864371598 -0.0784668848 0.49669376
vn 0.849035382 -0.0788822323 0.522414088
vn 0.853998363 -0.154202536 0.496898741
vn 0.877509594 -0.0773647353 0.473277599
vn 0.823712289 -0.228999794 0.518707216
vn 0.867453694 -0.15295577 0.473422289
vn 0.83931756 -0.229271621 0.492930651
vn 0.85304755 -0.227961376 0.469407499
g yuan01_0
f 3/3/3 2/2/2 1/1/1
f 4/4/4 1/1/1 2/2/2
f 1/1/1 4/4/4 5/5/5
f 2/2/2 6/6/6 4/4/4
f 7/7/7 5/5/5 4/4/4
f 8/8/8 4/4/4 6/6/6
f 4/4/4 8/8/8 7/7/7
f 6/6/6 9/9/9 8/8/8
f 10/10/10 7/7/7 8/8/8
f 11/11/11 8/8/8 9/9/9
f 8/8/8 11/11/11 10/10/10
f 9/9/9 12/12/12 11/11/11
f 13/13/13 10/10/10 11/11/11
f 14/14/14 11/11/11 12/12/12
f 11/11/11 14/14/14 13/13/13
f 12/12/12 15/15/15 14/14/14
f 16/16/16 13/13/13 14/14/14
f 17/17/17 14/14/14 15/15/15
f 14/14/14 17/17/17 16/16/16
f 15/15/15 18/18/18 17/17/17
f 19/19/19 16/16/16 17/17/17
f 20/20/20 17/17/17 18/18/18
f 17/17/17 20/20/20 19/19/19
f 21/21/21 19/19/19 20/20/20
f 24/24/24 23/23/23 22/22/22
f 25/25/25 22/22/22 23/23/23
f 22/22/22 25/25/25 26/26/26
f 23/23/23 27/27/27 25/25/25
f 28/28/28 26/26/26 25/25/25
f 29/29/29 25/25/25 27/27/27
f 25/25/25 29/29/29 28/28/28
f 27/27/27 30/30/30 29/29/29
f 31/31/31 28/28/28 29/29/29
f 32/32/32 29/29/29 30/30/30
f 29/29/29 32/32/32 31/31/31
f 30/30/30 33/33/33 32/32/32
f 34/34/34 31/31/31 32/32/32
f 35/35/35 32/32/32 33/33/33
f 32/32/32 35/35/35 34/34/34
f 33/33/33 36/36/36 35/35/35
f 37/37/37 34/34/34 35/35/35
f 38/38/38 35/35/35 36/36/36
f 35/35/35 38/38/38 37/37/37
f 36/36/36 39/39/39 38/38/38
f 40/40/40 37/37/37 38/38/38
f 41/41/41 38/38/38 39/39/39
f 38/38/38 41/41/41 40/40/40
f 42/42/42 40/40/40 41/41/41
f 45/45/45 44/44/44 43/43/43
f 46/46/46 43/43/43 44/44/44
f 43/43/43 46/46/46 47/47/47
f 44/44/44 48/48/48 46/46/46
f 49/49/49 47/47/47 46/46/46
f 50/50/50 46/46/46 48/48/48
f 46/46/46 50/50/50 49/49/49
f 48/48/48 51/51/51 50/50/50
f 52/52/52 49/49/49 50/50/50
f 53/53/53 50/50/50 51/51/51
f 50/50/50 53/53/53 52/52/52
f 51/51/51 54/54/54 53/53/53
f 55/55/55 52/52/52 53/53/53
f 56/56/56 53/53/53 54/54/54
f 53/53/53 56/56/56 55/55/55
f 54/54/54 57/57/57 56/56/56
f 58/58/58 55/55/55 56/56/56
f 59/59/59 56/56/56 57/57/57
f 56/56/56 59/59/59 58/58/58
f 57/57/57 60/60/60 59/59/59
f 61/61/61 58/58/58 59/59/59
f 62/62/62 59/59/59 60/60/60
f 59/59/59 62/62/62 61/61/61
f 63/63/63 61/61/61 62/62/62
f 66/66/66 65/65/65 64/64/64
f 67/67/67 64/64/64 65/65/65
f 64/64/64 67/67/67 68/68/68
f 65/65/65 69/69/69 67/67/67
f 70/70/70 68/68/68 67/67/67
f 71/71/71 67/67/67 69/69/69
f 67/67/67 71/71/71 70/70/70
f 69/69/69 72/72/72 71/71/71
f 73/73/73 70/70/70 71/71/71
f 74/74/74 71/71/71 72/72/72
f 71/71/71 74/74/74 73/73/73
f 72/72/72 75/75/75 74/74/74
f 76/76/76 73/73/73 74/74/74
f 77/77/77 74/74/74 75/75/75
f 74/74/74 77/77/77 76/76/76
f 75/75/75 78/78/78 77/77/77
f 79/79/79 76/76/76 77/77/77
f 80/80/80 77/77/77 78/78/78
f 77/77/77 80/80/80 79/79/79
f 78/78/78 81/81/81 80/80/80
f 82/82/82 79/79/79 80/80/80
f 83/83/83 80/80/80 81/81/81
f 80/80/80 83/83/83 82/82/82
f 84/84/84 82/82/82 83/83/83
f 87/87/87 86/86/86 85/85/85
f 88/88/88 85/85/85 86/86/86
f 85/85/85 88/88/88 89/89/89
f 86/86/86 90/90/90 88/88/88
f 91/91/91 89/89/89 88/88/88
f 92/92/92 88/88/88 90/90/90
f 88/88/88 92/92/92 91/91/91
f 90/90/90 93/93/93 92/92/92
f 94/94/94 91/91/91 92/92/92
f 95/95/95 92/92/92 93/93/93
f 92/92/92 95/95/95 94/94/94
f 93/93/93 96/96/96 95/95/95
f 97/97/97 94/94/94 95/95/95
f 98/98/98 95/95/95 96/96/96
f 95/95/95 98/98/98 97/97/97
f 96/96/96 99/99/99 98/98/98
f 100/100/100 97/97/97 98/98/98
f 101/101/101 98/98/98 99/99/99
f 98/98/98 101/101/101 100/100/100
f 99/99/99 102/102/102 101/101/101
f 103/103/103 100/100/100 101/101/101
f 104/104/104 101/101/101 102/102/102
f 101/101/101 104/104/104 103/103/103
f 105/105/105 103/103/103 104/104/104
f 108/108/108 107/107/107 106/106/106
f 109/109/109 106/106/106 107/107/107
f 106/106/106 109/109/109 110/110/110
f 107/107/107 111/111/111 109/109/109
f 112/112/112 110/110/110 109/109/109
f 113/113/113 109/109/109 111/111/111
f 109/109/109 113/113/113 112/112/112
f 111/111/111 114/114/114 113/113/113
f 115/115/115 112/112/112 113/113/113
f 116/116/116 113/113/113 114/114/114
f 113/113/113 116/116/116 115/115/115
f 114/114/114 117/117/117 116/116/116
f 118/118/118 115/115/115 116/116/116
f 119/119/119 116/116/116 117/117/117
f 116/116/116 119/119/119 118/118/118
f 117/117/117 120/120/120 119/119/119
f 121/121/121 118/118/118 119/119/119
f 122/122/122 119/119/119 120/120/120
f 119/119/119 122/122/122 121/121/121
f 120/120/120 123/123/123 122/122/122
f 124/124/124 121/121/121 122/122/122
f 125/125/125 122/122/122 123/123/123
f 122/122/122 125/125/125 124/124/124
f 126/126/126 124/124/124 125/125/125
f 129/129/129 128/128/128 127/127/127
f 130/130/130 127/127/127 128/128/128
f 127/127/127 130/130/130 131/131/131
f 128/128/128 132/132/132 130/130/130
f 133/133/133 131/131/131 130/130/130
f 134/134/134 130/130/130 132/132/132
f 130/130/130 134/134/134 133/133/133
f 132/132/132 135/135/135 134/134/134
f 136/136/136 133/133/133 134/134/134
f 137/137/137 134/134/134 135/135/135
f 134/134/134 137/137/137 136/136/136
f 135/135/135 138/138/138 137/137/137
f 139/139/139 136/136/136 137/137/137
f 140/140/140 137/137/137 138/138/138
f 137/137/137 140/140/140 139/139/139
f 138/138/138 141/141/141 140/140/140
f 142/142/142 139/139/139 140/140/140
f 143/143/143 140/140/140 141/141/141
f 140/140/140 143/143/143 142/142/142
f 141/141/141 144/144/144 143/143/143
f 145/145/145 142/142/142 143/143/143
f 146/146/146 143/143/143 144/144/144
f 143/143/143 146/146/146 145/145/145
f 147/147/147 145/145/145 146/146/146
f 150/150/150 149/149/149 148/148/148
f 151/151/151 148/148/148 149/149/149
f 148/148/148 151/151/151 152/152/152
f 149/149/149 153/153/153 151/151/151
f 154/154/154 152/152/152 151/151/151
f 155/155/155 151/151/151 153/153/153
f 151/151/151 155/155/155 154/154/154
f 153/153/153 156/156/156 155/155/155
f 157/157/157 154/154/154 155/155/155
f 158/158/158 155/155/155 156/156/156
f 155/155/155 158/158/158 157/157/157
f 156/156/156 159/159/159 158/158/158
f 160/160/160 157/157/157 158/158/158
f 161/161/161 158/158/158 159/159/159
f 158/158/158 161/161/161 160/160/160
f 159/159/159 162/162/162 161/161/161
f 163/163/163 160/160/160 161/161/161
f 164/164/164 161/161/161 162/162/162
f 161/161/161 164/164/164 163/163/163
f 162/162/162 165/165/165 164/164/164
f 166/166/166 163/163/163 164/164/164
f 167/167/167 164/164/164 165/165/165
f 164/164/164 167/167/167 166/166/166
f 168/168/168 166/166/166 167/167/167
f 171/171/171 170/170/170 169/169/169
f 172/172/172 169/169/169 170/170/170
f 169/169/169 172/172/172 173/173/173
f 170/170/170 174/174/174 172/172/172
f 175/175/175 173/173/173 172/172/172
f 176/176/176 172/172/172 174/174/174
f 172/172/172 176/176/176 175/175/175
f 174/174/174 177/177/177 176/176/176
f 178/178/178 175/175/175 176/176/176
f 179/179/179 176/176/176 177/177/177
f 176/176/176 179/179/179 178/178/178
f 177/177/177 180/180/180 179/179/179
f 181/181/181 178/178/178 179/179/179
f 182/182/182 179/179/179 180/180/180
f 179/179/179 182/182/182 181/181/181
f 180/180/180 183/183/183 182/182/182
f 184/184/184 181/181/181 182/182/182
f 185/185/185 182/182/182 183/183/183
f 182/182/182 185/185/185 184/184/184
f 183/183/183 186/186/186 185/185/185
f 187/187/187 184/184/184 185/185/185
f 188/188/188 185/185/185 186/186/186
f 185/185/185 188/188/188 187/187/187
f 189/189/189 187/187/187 188/188/188
f 192/192/192 191/191/191 190/190/190
f 193/193/193 190/190/190 191/191/191
f 190/190/190 193/193/193 194/194/194
f 191/191/191 195/195/195 193/193/193
f 196/196/196 194/194/194 193/193/193
f 197/197/197 193/193/193 195/195/195
f 193/193/193 197/197/197 196/196/196
f 195/195/195 198/198/198 197/197/197
f 199/199/199 196/196/196 197/197/197
f 200/200/200 197/197/197 198/198/198
f 197/197/197 200/200/200 199/199/199
f 198/198/198 201/201/201 200/200/200
f 202/202/202 199/199/199 200/200/200
f 203/203/203 200/200/200 201/201/201
f 200/200/200 203/203/203 202/202/202
f 201/201/201 204/204/204 203/203/203
f 205/205/205 202/202/202 203/203/203
f 206/206/206 203/203/203 204/204/204
f 203/203/203 206/206/206 205/205/205
f 204/204/204 207/207/207 206/206/206
f 208/208/208 205/205/205 206/206/206
f 209/209/209 206/206/206 207/207/207
f 206/206/206 209/209/209 208/208/208
f 210/210/210 208/208/208 209/209/209
f 213/213/213 212/212/212 211/211/211
f 214/214/214 211/211/211 212/212/212
f 211/211/211 214/214/214 215/215/215
f 212/212/212 216/216/216 214/214/214
f 217/217/217 215/215/215 214/214/214
f 218/218/218 214/214/214 216/216/216
f 214/214/214 218/218/218 217/217/217
f 216/216/216 219/219/219 218/218/218
f 220/220/220 217/217/217 218/218/218
f 221/221/221 218/218/218 219/219/219
f 218/218/218 221/221/221 220/220/220
f 219/219/219 222/222/222 221/221/221
f 223/223/223 220/220/220 221/221/221
f 224/224/224 221/221/221 222/222/222
f 221/221/221 224/224/224 223/223/223
f 222/222/222 225/225/225 224/224/224
f 226/226/226 223/223/223 224/224/224
f 227/227/227 224/224/224 225/225/225
f 224/224/224 227/227/227 226/226/226
f 225/225/225 228/228/228 227/227/227
f 229/229/229 226/226/226 227/227/227
f 230/230/230 227/227/227 228/228/228
f 227/227/227 230/230/230 229/229/229
f 231/231/231 229/229/229 230/230/230
f 234/234/234 233/233/233 232/232/232
f 235/235/235 232/232/232 233/233/233
f 232/232/232 235/235/235 236/236/236
f 233/233/233 237/237/237 235/235/235
f 238/238/238 236/236/236 235/235/235
f 239/239/239 235/235/235 237/237/237
f 235/235/235 239/239/239 238/238/238
f 237/237/237 240/240/240 239/239/239
f 241/241/241 238/238/238 239/239/239
f 242/242/242 239/239/239 240/240/240
f 239/239/239 242/242/242 241/241/241
f 240/240/240 243/243/243 242/242/242
f 244/244/244 241/241/241 242/242/242
f 245/245/245 242/242/242 243/243/243
f 242/242/242 245/245/245 244/244/244
f 243/243/243 246/246/246 245/245/245
f 247/247/247 244/244/244 245/245/245
f 248/248/248 245/245/245 246/246/246
f 245/245/245 248/248/248 247/247/247
f 246/246/246 249/249/249 248/248/248
f 250/250/250 247/247/247 248/248/248
f 251/251/251 248/248/248 249/249/249
f 248/248/248 251/251/251 250/250/250
f 252/252/252 250/250/250 251/251/251
f 255/255/255 254/254/254 253/253/253
f 256/256/256 253/253/253 254/254/254
f 253/253/253 256/256/256 257/257/257
f 254/254/254 258/258/258 256/256/256
f 259/259/259 257/257/257 256/256/256
f 260/260/260 256/256/256 258/258/258
f 256/256/256 260/260/260 259/259/259
f 258/258/258 261/261/261 260/260/260
f 262/262/262 259/259/259 260/260/260
f 263/263/263 260/260/260 261/261/261
f 260/260/260 263/263/263 262/262/262
f 261/261/261 264/264/264 263/263/263
f 265/265/265 262/262/262 263/263/263
f 266/266/266 263/263/263 264/264/264
f 263/263/263 266/266/266 265/265/265
f 264/264/264 267/267/267 266/266/266
f 268/268/268 265/265/265 266/266/266
f 269/269/269 266/266/266 267/267/267
f 266/266/266 269/269/269 268/268/268
f 267/267/267 270/270/270 269/269/269
f 271/271/271 268/268/268 269/269/269
f 272/272/272 269/269/269 270/270/270
f 269/269/269 272/272/272 271/271/271
f 273/273/273 271/271/271 272/272/272
f 276/276/276 275/275/275 274/274/274
f 277/277/277 274/274/274 275/275/275
f 274/274/274 277/277/277 278/278/278
f 275/275/275 279/279/279 277/277/277
f 280/280/280 278/278/278 277/277/277
f 281/281/281 277/277/277 279/279/279
f 277/277/277 281/281/281 280/280/280
f 279/279/279 282/282/282 281/281/281
f 283/283/283 280/280/280 281/281/281
f 284/284/284 281/281/281 282/282/282
f 281/281/281 284/284/284 283/283/283
f 282/282/282 285/285/285 284/284/284
f 286/286/286 283/283/283 284/284/284
f 287/287/287 284/284/284 285/285/285
f 284/284/284 287/287/287 286/286/286
f 285/285/285 288/288/288 287/287/287
f 289/289/289 286/286/286 287/287/287
f 290/290/290 287/287/287 288/288/288
f 287/287/287 290/290/290 289/289/289
f 288/288/288 291/291/291 290/290/290
f 292/292/292 289/289/289 290/290/290
f 293/293/293 290/290/290 291/291/291
f 290/290/290 293/293/293 292/292/292
f 294/294/294 292/292/292 293/293/293
f 297/297/297 296/296/296 295/295/295
f 298/298/298 295/295/295 296/296/296
f 295/295/295 298/298/298 299/299/299
f 296/296/296 300/300/300 298/298/298
f 301/301/301 299/299/299 298/298/298
f 302/302/302 298/298/298 300/300/300
f 298/298/298 302/302/302 301/301/301
f 300/300/300 303/303/303 302/302/302
f 304/304/304 301/301/301 302/302/302
f 305/305/305 302/302/302 303/303/303
f 302/302/302 305/305/305 304/304/304
f 303/303/303 306/306/306 305/305/305
f 307/307/307 304/304/304 305/305/305
f 308/308/308 305/305/305 306/306/306
f 305/305/305 308/308/308 307/307/307
f 306/306/306 309/309/309 308/308/308
f 310/310/310 307/307/307 308/308/308
f 311/311/311 308/308/308 309/309/309
f 308/308/308 311/311/311 310/310/310
f 309/309/309 312/312/312 311/311/311
f 313/313/313 310/310/310 311/311/311
f 314/314/314 311/311/311 312/312/312
f 311/311/311 314/314/314 313/313/313
f 315/315/315 313/313/313 314/314/314
f 318/318/318 317/317/317 316/316/316
f 319/319/319 316/316/316 317/317/317
f 316/316/316 319/319/319 320/320/320
f 317/317/317 321/321/321 319/319/319
f 322/322/322 320/320/320 319/319/319
f 323/323/323 319/319/319 321/321/321
f 319/319/319 323/323/323 322/322/322
f 321/321/321 324/324/324 323/323/323
f 325/325/325 322/322/322 323/323/323
f 326/326/326 323/323/323 324/324/324
f 323/323/323 326/326/326 325/325/325
f 324/324/324 327/327/327 326/326/326
f 328/328/328 325/325/325 326/326/326
f 329/329/329 326/326/326 327/327/327
f 326/326/326 329/329/329 328/328/328
f 327/327/327 330/330/330 329/329/329
f 331/331/331 328/328/328 329/329/329
f 332/332/332 329/329/329 330/330/330
f 329/329/329 332/332/332 331/331/331
f 330/330/330 333/333/333 332/332/332
f 334/334/334 331/331/331 332/332/332
f 335/335/335 332/332/332 333/333/333
f 332/332/332 335/335/335 334/334/334
f 336/336/336 334/334/334 335/335/335
f 339/339/339 338/338/338 337/337/337
f 340/340/340 337/337/337 338/338/338
f 337/337/337 340/340/340 341/341/341
f 338/338/338 342/342/342 340/340/340
f 343/343/343 341/341/341 340/340/340
f 344/344/344 340/340/340 342/342/342
f 340/340/340 344/344/344 343/343/343
f 342/342/342 345/345/345 344/344/344
f 346/346/346 343/343/343 344/344/344
f 347/347/347 344/344/344 345/345/345
f 344/344/344 347/347/347 346/346/346
f 345/345/345 348/348/348 347/347/347
f 349/349/349 346/346/346 347/347/347
f 350/350/350 347/347/347 348/348/348
f 347/347/347 350/350/350 349/349/349
f 348/348/348 351/351/351 350/350/350
f 352/352/352 349/349/349 350/350/350
f 353/353/353 350/350/350 351/351/351
f 350/350/350 353/353/353 352/352/352
f 351/351/351 354/354/354 353/353/353
f 355/355/355 352/352/352 353/353/353
f 356/356/356 353/353/353 354/354/354
f 353/353/353 356/356/356 355/355/355
f 357/357/357 355/355/355 356/356/356
f 360/360/360 359/359/359 358/358/358
f 361/361/361 358/358/358 359/359/359
f 358/358/358 361/361/361 362/362/362
f 359/359/359 363/363/363 361/361/361
f 364/364/364 362/362/362 361/361/361
f 365/365/365 361/361/361 363/363/363
f 361/361/361 365/365/365 364/364/364
f 363/363/363 366/366/366 365/365/365
f 367/367/367 364/364/364 365/365/365
f 368/368/368 365/365/365 366/366/366
f 365/365/365 368/368/368 367/367/367
f 366/366/366 369/369/369 368/368/368
f 370/370/370 367/367/367 368/368/368
f 371/371/371 368/368/368 369/369/369
f 368/368/368 371/371/371 370/370/370
f 369/369/369 372/372/372 371/371/371
f 373/373/373 370/370/370 371/371/371
f 374/374/374 371/371/371 372/372/372
f 371/371/371 374/374/374 373/373/373
f 372/372/372 375/375/375 374/374/374
f 376/376/376 373/373/373 374/374/374
f 377/377/377 374/374/374 375/375/375
f 374/374/374 377/377/377 376/376/376
f 378/378/378 376/376/376 377/377/377
f 381/381/381 380/380/380 379/379/379
f 382/382/382 379/379/379 380/380/380
f 380/380/380 383/383/383 382/382/382
f 379/379/379 382/382/382 384/384/384
f 385/385/385 382/382/382 383/383/383
f 386/386/386 384/384/384 382/382/382
f 382/382/382 385/385/385 386/386/386
f 387/387/387 386/386/386 385/385/385
f 390/390/390 389/389/389 388/388/388
f 391/391/391 388/388/388 389/389/389
f 389/389/389 392/392/392 391/391/391
f 388/388/388 391/391/391 393/393/393
f 394/394/394 391/391/391 392/392/392
f 395/395/395 393/393/393 391/391/391
f 391/391/391 394/394/394 395/395/395
f 396/396/396 395/395/395 394/394/394
f 399/399/399 398/398/398 397/397/397
f 400/400/400 397/397/397 398/398/398
f 398/398/398 401/401/401 400/400/400
f 397/397/397 400/400/400 402/402/402
f 403/403/403 400/400/400 401/401/401
f 404/404/404 402/402/402 400/400/400
f 400/400/400 403/403/403 404/404/404
f 405/405/405 404/404/404 403/403/403
f 408/408/408 407/407/407 406/406/406
f 409/409/409 406/406/406 407/407/407
f 407/407/407 410/410/410 409/409/409
f 406/406/406 409/409/409 411/411/411
f 412/412/412 409/409/409 410/410/410
f 413/413/413 411/411/411 409/409/409
f 409/409/409 412/412/412 413/413/413
f 414/414/414 413/413/413 412/412/412
f 417/417/417 416/416/416 415/415/415
f 418/418/418 415/415/415 416/416/416
f 416/416/416 419/419/419 418/418/418
f 415/415/415 418/418/418 420/420/420
f 421/421/421 418/418/418 419/419/419
f 422/422/422 420/420/420 418/418/418
f 418/418/418 421/421/421 422/422/422
f 423/423/423 422/422/422 421/421/421
f 426/426/426 425/425/425 424/424/424
f 427/427/427 424/424/424 425/425/425
f 425/425/425 428/428/428 427/427/427
f 424/424/424 427/427/427 429/429/429
f 430/430/430 427/427/427 428/428/428
f 431/431/431 429/429/429 427/427/427
f 427/427/427 430/430/430 431/431/431
f 432/432/432 431/431/431 430/430/430
f 435/435/435 434/434/434 433/433/433
f 436/436/436 433/433/433 434/434/434
f 434/434/434 437/437/437 436/436/436
f 433/433/433 436/436/436 438/438/438
f 439/439/439 436/436/436 437/437/437
f 440/440/440 438/438/438 436/436/436
f 436/436/436 439/439/439 440/440/440
f 441/441/441 440/440/440 439/439/439
f 444/444/444 443/443/443 442/442/442
f 445/445/445 442/442/442 443/443/443
f 443/443/443 446/446/446 445/445/445
f 442/442/442 445/445/445 447/447/447
f 448/448/448 445/445/445 446/446/446
f 449/449/449 447/447/447 445/445/445
f 445/445/445 448/448/448 449/449/449
f 450/450/450 449/449/449 448/448/448
f 453/453/453 452/452/452 451/451/451
f 454/454/454 451/451/451 452/452/452
f 452/452/452 455/455/455 454/454/454
f 451/451/451 454/454/454 456/456/456
f 457/457/457 454/454/454 455/455/455
f 458/458/458 456/456/456 454/454/454
f 454/454/454 457/457/457 458/458/458
f 459/459/459 458/458/458 457/457/457
f 462/462/462 461/461/461 460/460/460
f 463/463/463 460/460/460 461/461/461
f 461/461/461 464/464/464 463/463/463
f 460/460/460 463/463/463 465/465/465
f 466/466/466 463/463/463 464/464/464
f 467/467/467 465/465/465 463/463/463
f 463/463/463 466/466/466 467/467/467
f 468/468/468 467/467/467 466/466/466
f 471/471/471 470/470/470 469/469/469
f 472/472/472 469/469/469 470/470/470
f 470/470/470 473/473/473 472/472/472
f 469/469/469 472/472/472 474/474/474
f 475/475/475 472/472/472 473/473/473
f 476/476/476 474/474/474 472/472/472
f 472/472/472 475/475/475 476/476/476
f 477/477/477 476/476/476 475/475/475
f 480/480/480 479/479/479 478/478/478
f 481/481/481 478/478/478 479/479/479
f 479/479/479 482/482/482 481/481/481
f 478/478/478 481/481/481 483/483/483
f 484/484/484 481/481/481 482/482/482
f 485/485/485 483/483/483 481/481/481
f 481/481/481 484/484/484 485/485/485
f 486/486/486 485/485/485 484/484/484
f 489/489/489 488/488/488 487/487/487
f 490/490/490 487/487/487 488/488/488
f 488/488/488 491/491/491 490/490/490
f 487/487/487 490/490/490 492/492/492
f 493/493/493 490/490/490 491/491/491
f 494/494/494 492/492/492 490/490/490
f 490/490/490 493/493/493 494/494/494
f 495/495/495 494/494/494 493/493/493
f 498/498/498 497/497/497 496/496/496
f 499/499/499 496/496/496 497/497/497
f 497/497/497 500/500/500 499/499/499
f 496/496/496 499/499/499 501/501/501
f 502/502/502 499/499/499 500/500/500
f 503/503/503 501/501/501 499/499/499
f 499/499/499 502/502/502 503/503/503
f 504/504/504 503/503/503 502/502/502
f 507/507/507 506/506/506 505/505/505
f 508/508/508 505/505/505 506/506/506
f 506/506/506 509/509/509 508/508/508
f 505/505/505 508/508/508 510/510/510
f 511/511/511 508/508/508 509/509/509
f 512/512/512 510/510/510 508/508/508
f 508/508/508 511/511/511 512/512/512
f 513/513/513 512/512/512 511/511/511
f 516/516/516 515/515/515 514/514/514
f 517/517/517 514/514/514 515/515/515
f 515/515/515 518/518/518 517/517/517
f 514/514/514 517/517/517 519/519/519
f 520/520/520 517/517/517 518/518/518
f 521/521/521 519/519/519 517/517/517
f 517/517/517 520/520/520 521/521/521
f 522/522/522 521/521/521 520/520/520
f 525/525/525 524/524/524 523/523/523
f 526/526/526 523/523/523 524/524/524
f 524/524/524 527/527/527 526/526/526
f 523/523/523 526/526/526 528/528/528
f 529/529/529 526/526/526 527/527/527
f 530/530/530 528/528/528 526/526/526
f 526/526/526 529/529/529 530/530/530
f 531/531/531 530/530/530 529/529/529
f 534/534/534 533/533/533 532/532/532
f 535/535/535 532/532/532 533/533/533
f 533/533/533 536/536/536 535/535/535
f 532/532/532 535/535/535 537/537/537
f 538/538/538 535/535/535 536/536/536
f 539/539/539 537/537/537 535/535/535
f 535/535/535 538/538/538 539/539/539
f 540/540/540 539/539/539 538/538/538
