g Plane_BanQieJiao
v -0.5 0.166666642 0
v -0.166666716 0.5 0
v 0.166666642 0.5 0
v 0.5 0.166666716 0
v -0.5 0.0185203161 0
v 0.5 0.0185203925 0
v 0.5 3.81469718E-08 0
v 3.81469718E-08 0 0
v -0.5 -3.81469718E-08 0
vt 0 0.666666687
vt 0.333333373 1
vt 0.666666687 1
vt 1 0.666666627
vt 0 0.583333373
vt 1 0.583333313
vt 1 0.49999997
vt 0.5 0.5
vt 0 0.5
vn -0 0 1
vn -0 0 1
vn -0 0 1
vn -0 0 1
vn -0 0 1
vn -0 0 1
vn -0 0 1
vn -0 0 1
vn -0 0 1
g Plane_BanQieJiao_0
f 3/3/3 2/2/2 1/1/1
f 4/4/4 3/3/3 1/1/1
f 1/1/1 5/5/5 4/4/4
f 5/5/5 6/6/6 4/4/4
f 7/7/7 6/6/6 5/5/5
f 5/5/5 8/8/8 7/7/7
f 5/5/5 9/9/9 8/8/8
