g Cylinde_Ban
v 0.024503449 0.00382800959 -3.05175774E-07
v 0.106161445 0.000779107097 -2.71267339E-07
v 0.0247433949 0.000779112335 -3.05175774E-07
v 0.104919128 0.0165646076 -2.71267339E-07
v 0.0237894915 0.00680182315 -3.05175774E-07
v 0.187579498 0.000779101858 -2.37358947E-07
v 0.101222724 0.0319614038 -2.71267311E-07
v 0.0226191413 0.00962733105 -3.05175774E-07
v 0.185334742 0.0293011852 -2.37358947E-07
v 0.26899752 0.000779096619 -2.03450497E-07
v 0.0951631889 0.0465903841 -2.71267339E-07
v 0.021021165 0.0122349821 -3.05175774E-07
v 0.265750408 0.0420377813 -2.03450497E-07
v 0.350415528 0.000779091381 -1.69542105E-07
v 0.178655848 0.0571209528 -2.37358918E-07
v 0.0868897215 0.0600913242 -2.71267368E-07
v 0.0190349687 0.0145605356 -3.05175774E-07
v 0.346166044 0.0547743626 -1.69542105E-07
v 0.431833595 0.000779086084 -1.3563367E-07
v 0.256089002 0.0822805315 -2.03450497E-07
v 0.16770713 0.0835533887 -2.37358947E-07
v 0.0766061768 0.0721318051 -2.71267368E-07
v 0.016709378 0.0165467728 -3.05175774E-07
v 0.426581711 0.0675109625 -1.3563367E-07
v 0.513251603 0.000779080903 -1.0172527E-07
v 0.152758285 0.107947655 -2.37358947E-07
v 0.333522141 0.107440077 -1.69542091E-07
v 0.240251154 0.120516434 -2.03450497E-07
v 0.0645656958 0.0824154243 -2.71267339E-07
v 0.0141017633 0.01814471 -3.05175774E-07
v 0.506997347 0.0802475438 -1.01725263E-07
v 0.5946697 0.000779075664 -6.78168348E-08
v 0.134177402 0.12970306 -2.37358947E-07
v 0.218626857 0.155803964 -2.03450526E-07
v 0.41095534 0.132599667 -1.35633655E-07
v 0.312795132 0.15747945 -1.69542105E-07
v 0.0510647371 0.0906887054 -2.71267368E-07
v 0.0112762172 0.0193151366 -3.05175774E-07
v 0.587413013 0.0929841325 -6.78168419E-08
v 0.676087737 0.000779070368 -3.39084352E-08
v 0.112421989 0.148283988 -2.37358918E-07
v 0.191748649 0.187274322 -2.03450526E-07
v 0.284495473 0.203660324 -1.69542105E-07
v 0.385339171 0.194442496 -1.3563367E-07
v 0.488388419 0.157759219 -1.01725249E-07
v 0.667828679 0.105720729 -3.39084281E-08
v 0.757505774 0.000779065187 0
v 0.748244286 0.118457317 0
v 0.565821588 0.182918787 -6.78168419E-08
v 0.643254757 0.208078355 -3.39084245E-08
v 0.720687926 0.233237922 0
v 0.457883149 0.231405526 -1.01725263E-07
v 0.350364059 0.25151667 -1.35633684E-07
v 0.602971077 0.305331558 -3.39084281E-08
v 0.675515115 0.342294604 0
v 0.530427098 0.268368542 -6.78168419E-08
v 0.547969818 0.395085663 -3.39084281E-08
v 0.613838434 0.442942023 0
v 0.416232646 0.299373001 -1.01725263E-07
v 0.482101202 0.347229332 -6.7816849E-08
v 0.249319911 0.244845599 -1.69542105E-07
v 0.4796049 0.475130677 -3.39084281E-08
v 0.537176132 0.532701969 0
v 0.306891173 0.302416891 -1.35633684E-07
v 0.422033638 0.417559415 -6.7816849E-08
v 0.364462435 0.359988153 -1.01725263E-07
v 0.160278291 0.214152604 -2.03450526E-07
v 0.399559885 0.543495595 -3.39084245E-08
v 0.447416216 0.609364212 0
v 0.208134621 0.280021191 -1.69542091E-07
v 0.255990952 0.345889807 -1.3563367E-07
v 0.351703554 0.477627009 -6.78168419E-08
v 0.303847253 0.411758423 -1.01725263E-07
v 0.0880277455 0.163232759 -2.37358947E-07
v 0.309805781 0.598497033 -3.3908421E-08
v 0.346768796 0.671041071 0
v 0.124990746 0.235776782 -2.03450526E-07
v 0.161953747 0.30832085 -1.69542105E-07
v 0.198916778 0.380864888 -1.35633684E-07
v 0.272842795 0.525952995 -6.78168419E-08
v 0.235879779 0.453408957 -1.01725263E-07
v 0.212552488 0.638780713 -3.3908421E-08
v 0.237712011 0.716213882 0
v 0.18739295 0.561347485 -6.78168419E-08
v 0.110194817 0.663354635 -3.39084174E-08
v 0.122931361 0.743770301 0
v 0.0974582657 0.58293891 -6.78168348E-08
v 0.0847217068 0.502523243 -1.01725249E-07
v 0.162233427 0.483914286 -1.01725263E-07
v 0.0719851553 0.422107548 -1.3563367E-07
v 0.137073889 0.406481087 -1.35633684E-07
v 0.0592486076 0.341691852 -1.69542091E-07
v 0.111914359 0.329047889 -1.69542105E-07
v 0.0465120561 0.261276156 -2.03450497E-07
v 0.0867548138 0.25161469 -2.03450526E-07
v 0.033775501 0.180860445 -2.37358918E-07
v 0.0615952872 0.174181476 -2.37358947E-07
v 0.0210389514 0.100444794 -2.71267339E-07
v 0.0364357568 0.0967482701 -2.71267368E-07
v 0.00830240268 0.0200290959 -3.05175774E-07
v 0.00525351055 0.02026904 -3.05175774E-07
v 0.0210389514 0.100444794 -2.71267339E-07
v 0.00830240268 0.0200290959 -3.05175774E-07
v 0.00525346166 0.101687089 -2.71267368E-07
v 0.00220461912 0.0200290959 -3.05175774E-07
v 0.033775501 0.180860445 -2.37358918E-07
v -0.0105320262 0.100444712 -2.71267368E-07
v -0.00076920446 0.0193151366 -3.05175774E-07
v 0.00525341183 0.183105156 -2.37358947E-07
v 0.0465120561 0.261276156 -2.03450497E-07
v -0.02592884 0.0967483148 -2.71267368E-07
v -0.00359473168 0.01814471 -3.05175774E-07
v 0.00525336294 0.264523268 -2.03450497E-07
v 0.0592486076 0.341691852 -1.69542091E-07
v -0.0232686792 0.180860445 -2.37358947E-07
v -0.0405578427 0.0906887427 -2.71267339E-07
v -0.0062023825 0.0165467728 -3.05175774E-07
v 0.00525331404 0.345941335 -1.69542091E-07
v 0.0719851553 0.422107548 -1.3563367E-07
v -0.0360053293 0.261276156 -2.03450497E-07
v -0.0510884672 0.174181521 -2.37358918E-07
v -0.0540587977 0.082415387 -2.71267368E-07
v -0.00852793641 0.0145605356 -3.05175774E-07
v 0.00525326468 0.427359432 -1.35633684E-07
v 0.0847217068 0.502523243 -1.01725249E-07
v -0.0775209591 0.163232803 -2.37358904E-07
v -0.0487419739 0.341691852 -1.69542105E-07
v -0.0762481093 0.25161472 -2.03450497E-07
v -0.0660992786 0.0721317679 -2.71267368E-07
v -0.0105141327 0.0122349821 -3.05175774E-07
v 0.00525321579 0.508777559 -1.01725249E-07
v 0.0974582657 0.58293891 -6.78168348E-08
v -0.101915203 0.148283988 -2.37358918E-07
v -0.114484042 0.235776827 -2.03450497E-07
v -0.0614786185 0.422107488 -1.35633684E-07
v -0.101407737 0.329047889 -1.69542091E-07
v -0.0763828233 0.0600912832 -2.71267368E-07
v -0.0121121472 0.00962733105 -3.05175774E-07
v 0.00525316689 0.590195596 -6.78168277E-08
v 0.110194817 0.663354635 -3.39084174E-08
v -0.123670653 0.12970306 -2.37358918E-07
v -0.149771631 0.21415256 -2.03450497E-07
v -0.151447117 0.30832085 -1.69542091E-07
v -0.126567364 0.406481087 -1.35633684E-07
v -0.0742152706 0.502523243 -1.01725249E-07
v 0.00525311753 0.671613693 -3.39084139E-08
v 0.122931361 0.743770301 0
v 0.00525306864 0.753031731 0
v -0.0869519189 0.58293891 -6.78168348E-08
v -0.0996885672 0.663354635 -3.39084139E-08
v -0.112425208 0.743770301 0
v -0.151726991 0.483914256 -1.01725249E-07
v -0.188410223 0.380864888 -1.35633655E-07
v -0.20204626 0.638780653 -3.39084103E-08
v -0.227205887 0.716213822 0
v -0.176886633 0.561347425 -6.78168277E-08
v -0.299299508 0.598496974 -3.39084139E-08
v -0.336262584 0.671041012 0
v -0.225373298 0.453408927 -1.01725249E-07
v -0.262336403 0.525952995 -6.78168277E-08
v -0.197628021 0.280021131 -1.69542091E-07
v -0.389053643 0.543495476 -3.39084103E-08
v -0.436910033 0.609364033 0
v -0.245484427 0.345889747 -1.35633684E-07
v -0.341197222 0.47762686 -6.78168277E-08
v -0.293340832 0.411758304 -1.01725249E-07
v -0.181241944 0.187274277 -2.03450526E-07
v -0.469098657 0.475130498 -3.39084174E-08
v -0.526669979 0.532701731 0
v -0.238813281 0.244845495 -1.69542105E-07
v -0.296384662 0.302416772 -1.3563367E-07
v -0.411527306 0.417559266 -6.78168348E-08
v -0.353955984 0.359988004 -1.01725263E-07
v -0.142251506 0.107947618 -2.37358918E-07
v -0.537463546 0.395085454 -3.39084174E-08
v -0.603332162 0.442941725 0
v -0.208120182 0.155803904 -2.03450526E-07
v -0.273988843 0.20366019 -1.69542105E-07
v -0.339857519 0.251516521 -1.3563367E-07
v -0.47159484 0.347229153 -6.78168348E-08
v -0.405726165 0.299372822 -1.01725263E-07
v -0.592464924 0.3053312 -3.39084281E-08
v -0.665009081 0.342294186 0
v -0.519920826 0.268368214 -6.78168419E-08
v -0.447376728 0.231405228 -1.01725263E-07
v -0.37483269 0.194442242 -1.3563367E-07
v -0.302288502 0.157479256 -1.69542105E-07
v -0.632748485 0.208077922 -3.39084245E-08
v -0.710181773 0.23323743 0
v -0.555315256 0.182918385 -6.7816849E-08
v -0.477881998 0.157758877 -1.01725263E-07
v -0.40044874 0.132599354 -1.35633698E-07
v -0.657322347 0.105720222 -3.39084245E-08
v -0.737738073 0.118456751 0
v -0.576906621 0.0929836929 -6.78168419E-08
v -0.665581346 0.000778531947 -3.39084245E-08
v -0.746999502 0.000778461399 0
v -0.584163249 0.000778602553 -6.7816849E-08
v -0.502745092 0.0007786731 -1.01725263E-07
v -0.496490896 0.0802471712 -1.01725249E-07
v -0.421326965 0.000778743764 -1.35633698E-07
v -0.41607517 0.0675106496 -1.35633655E-07
v -0.339908898 0.000778814312 -1.69542091E-07
v -0.335659415 0.054774113 -1.69542091E-07
v -0.258490741 0.000778884918 -2.03450526E-07
v -0.323015511 0.107439861 -1.69542091E-07
v -0.255243719 0.0420375913 -2.03450483E-07
v -0.1770726 0.000778955524 -2.37358961E-07
v -0.245582238 0.0822803304 -2.03450526E-07
v -0.174827948 0.0293010604 -2.37358918E-07
v -0.0956545249 0.00077902613 -2.71267368E-07
v -0.229744449 0.1205163 -2.03450497E-07
v -0.09441223 0.0165645406 -2.71267311E-07
v -0.0142363999 0.000779096677 -3.05175774E-07
v -0.0139964558 0.0038279905 -3.05175774E-07
v -0.16814895 0.0571208 -2.37358961E-07
v -0.157200307 0.0835532919 -2.37358947E-07
v -0.0907157511 0.0319613069 -2.71267368E-07
v -0.0132824965 0.00680180406 -3.05175774E-07
v -0.0846562535 0.0465903282 -2.71267339E-07
vt 0.799700022 0.999500036
vt 0.77472508 0.888500094
vt 0.77472508 0.999500036
vt 0.799700022 0.888500094
vt 0.824675083 0.999500036
vt 0.77472508 0.777500033
vt 0.824675083 0.888500094
vt 0.849650145 0.999500036
vt 0.799700022 0.777500033
vt 0.77472508 0.666500032
vt 0.849650145 0.888500094
vt 0.874625087 0.999500036
vt 0.799700022 0.666500032
vt 0.77472508 0.555500031
vt 0.824675083 0.777500033
vt 0.874625087 0.888500094
vt 0.899600089 0.999500036
vt 0.799700022 0.555500031
vt 0.77472508 0.444499969
vt 0.824675083 0.666500032
vt 0.849650145 0.777500033
vt 0.899600089 0.888500094
vt 0.92457515 0.999500036
vt 0.799700022 0.444499999
vt 0.77472508 0.333499968
vt 0.874625087 0.777500033
vt 0.824675083 0.555500031
vt 0.849650145 0.666500032
vt 0.92457515 0.888500094
vt 0.949550033 0.999500036
vt 0.799700022 0.333499968
vt 0.77472508 0.222499952
vt 0.899600089 0.777500033
vt 0.874625087 0.666500032
vt 0.824675083 0.444499999
vt 0.849650145 0.555500031
vt 0.949550033 0.888500094
vt 0.974525034 0.999500036
vt 0.799700022 0.222499952
vt 0.77472508 0.111499965
vt 0.92457515 0.777500033
vt 0.899600089 0.666500032
vt 0.874625087 0.555500031
vt 0.849650145 0.444499999
vt 0.824675083 0.333499968
vt 0.799700022 0.111499965
vt 0.77472508 0.000500000024
vt 0.799700022 0.000500000024
vt 0.824675083 0.222499952
vt 0.824675083 0.111499965
vt 0.824675083 0.000500000024
vt 0.849650145 0.333499968
vt 0.874625087 0.444499999
vt 0.849650145 0.111499965
vt 0.849650145 0.000500000024
vt 0.849650145 0.222499952
vt 0.874625087 0.111499965
vt 0.874625087 0.000500000024
vt 0.874625087 0.333499968
vt 0.874625087 0.222499952
vt 0.899600089 0.555500031
vt 0.899600089 0.111499965
vt 0.899600089 0.000500000024
vt 0.899600089 0.444499999
vt 0.899600089 0.222499952
vt 0.899600089 0.333499968
vt 0.92457515 0.666500032
vt 0.92457515 0.111499965
vt 0.92457515 0.000500000024
vt 0.92457515 0.555500031
vt 0.92457515 0.444499999
vt 0.92457515 0.222499952
vt 0.92457515 0.333499968
vt 0.949550033 0.777500033
vt 0.949550033 0.111499965
vt 0.949550033 0.000500000024
vt 0.949550033 0.666500032
vt 0.949550033 0.555500031
vt 0.949550033 0.444499999
vt 0.949550033 0.222499952
vt 0.949550033 0.333499968
vt 0.974525034 0.111499965
vt 0.974525034 0.000500000024
vt 0.974525034 0.222499952
vt 0.999500036 0.111499965
vt 0.999500036 0.000500000024
vt 0.999500036 0.222499952
vt 0.999500036 0.333499968
vt 0.974525034 0.333499968
vt 0.999500036 0.444499999
vt 0.974525034 0.444499999
vt 0.999500036 0.555500031
vt 0.974525034 0.555500031
vt 0.999500036 0.666500032
vt 0.974525034 0.666500032
vt 0.999500036 0.777500033
vt 0.974525034 0.777500033
vt 0.999500036 0.888500094
vt 0.974525034 0.888500094
vt 0.999500036 0.999500036
vt 0.0254750345 0.999500036
vt 0.000500000024 0.888500094
vt 0.000500000024 0.999500036
vt 0.0254750345 0.888500094
vt 0.0504500717 0.999500036
vt 0.000500000024 0.777500033
vt 0.0504500717 0.888500094
vt 0.0754251108 0.999500036
vt 0.0254750345 0.777500033
vt 0.000500000024 0.666500032
vt 0.0754251108 0.888500094
vt 0.100400083 0.999500036
vt 0.0254750345 0.666500032
vt 0.000500000024 0.555500031
vt 0.0504500717 0.777500033
vt 0.100400083 0.888500094
vt 0.125375122 0.999500036
vt 0.0254750345 0.555500031
vt 0.000500000024 0.444499999
vt 0.0504500717 0.666500032
vt 0.0754251108 0.777500033
vt 0.125375122 0.888500094
vt 0.150350094 0.999500036
vt 0.0254750345 0.444499999
vt 0.000500000024 0.333499968
vt 0.100400083 0.777500033
vt 0.0504500717 0.555500031
vt 0.0754251108 0.666500032
vt 0.150350094 0.888500094
vt 0.175325125 0.999500036
vt 0.0254750345 0.333499968
vt 0.000500000024 0.222499952
vt 0.125375122 0.777500033
vt 0.100400083 0.666500032
vt 0.0504500717 0.444499999
vt 0.0754251108 0.555500031
vt 0.175325125 0.888500094
vt 0.200300097 0.999500036
vt 0.0254750345 0.222499952
vt 0.000500000024 0.111499965
vt 0.150350094 0.777500033
vt 0.125375122 0.666500032
vt 0.100400083 0.555500031
vt 0.0754251108 0.444499999
vt 0.0504500717 0.333499968
vt 0.0254750345 0.111499965
vt 0.000500000024 0.000500000024
vt 0.0254750345 0.000500000024
vt 0.0504500717 0.222499952
vt 0.0504500717 0.111499965
vt 0.0504500717 0.000500000024
vt 0.0754251108 0.333499968
vt 0.100400083 0.444499999
vt 0.0754251108 0.111499965
vt 0.0754251108 0.000500000024
vt 0.0754251108 0.222499952
vt 0.100400083 0.111499965
vt 0.100400083 0.000500000024
vt 0.100400083 0.333499968
vt 0.100400083 0.222499952
vt 0.125375122 0.555500031
vt 0.125375122 0.111499965
vt 0.125375122 0.000500000024
vt 0.125375122 0.444499999
vt 0.125375122 0.222499952
vt 0.125375122 0.333499968
vt 0.150350094 0.666500032
vt 0.150350094 0.111499965
vt 0.150350094 0.000500000024
vt 0.150350094 0.555500031
vt 0.150350094 0.444499999
vt 0.150350094 0.222499952
vt 0.150350094 0.333499968
vt 0.175325125 0.777500033
vt 0.175325125 0.111499965
vt 0.175325125 0.000500000024
vt 0.175325125 0.666500032
vt 0.175325125 0.555500031
vt 0.175325125 0.444499999
vt 0.175325125 0.222499952
vt 0.175325125 0.333499968
vt 0.200300097 0.111499965
vt 0.200300097 0.000500000024
vt 0.200300097 0.222499952
vt 0.200300097 0.333499968
vt 0.200300097 0.444499999
vt 0.200300097 0.555500031
vt 0.225275114 0.111499965
vt 0.225275114 0.000500000024
vt 0.225275114 0.222499952
vt 0.225275114 0.333499968
vt 0.225275114 0.444499999
vt 0.250250161 0.111499965
vt 0.250250161 0.000500000024
vt 0.250250161 0.222499952
vt 0.275225163 0.111499965
vt 0.275225163 0.000500000024
vt 0.275225163 0.222499952
vt 0.275225163 0.333499968
vt 0.250250161 0.333499968
vt 0.275225163 0.444499999
vt 0.250250161 0.444499999
vt 0.275225163 0.555500031
vt 0.250250161 0.555500031
vt 0.275225163 0.666500032
vt 0.225275114 0.555500031
vt 0.250250161 0.666500032
vt 0.275225163 0.777500033
vt 0.225275114 0.666500032
vt 0.250250161 0.777500033
vt 0.275225163 0.888500094
vt 0.200300097 0.666500032
vt 0.250250161 0.888500094
vt 0.275225163 0.999500036
vt 0.250250161 0.999500036
vt 0.225275114 0.777500033
vt 0.200300097 0.777500033
vt 0.225275114 0.888500094
vt 0.225275114 0.999500036
vt 0.200300097 0.888500094
vn -4.11345695E-07 0 1
vn -4.16473057E-07 0 1
vn -4.16473171E-07 0 1
vn -4.11345525E-07 0 1
vn -3.96089604E-07 -1.28696925E-07 1
vn -4.16473057E-07 0 1
vn -3.9608949E-07 -1.28696996E-07 1
vn -3.71080262E-07 -1.89074612E-07 1
vn -4.11345525E-07 0 1
vn -4.16473085E-07 0 1
vn -3.71080205E-07 -1.8907474E-07 1
vn -3.36933681E-07 -2.44796951E-07 1
vn -4.11345638E-07 0 1
vn -4.16473085E-07 0 1
vn -3.96089376E-07 -1.28697138E-07 1
vn -3.36933624E-07 -2.44796922E-07 1
vn -2.94491173E-07 -2.94490746E-07 1
vn -4.11345525E-07 0 1
vn -4.16473057E-07 0 1
vn -3.96089376E-07 -1.28697238E-07 1
vn -3.7108012E-07 -1.89074896E-07 1
vn -2.94491031E-07 -2.94490832E-07 1
vn -2.44796155E-07 -3.3693405E-07 1
vn -4.11345525E-07 0 1
vn -4.16473057E-07 0 1
vn -3.36933653E-07 -2.44796837E-07 1
vn -3.96089462E-07 -1.28697238E-07 1
vn -3.7108012E-07 -1.89074896E-07 1
vn -2.44796382E-07 -3.36933994E-07 1
vn -1.89075195E-07 -3.71080262E-07 1
vn -4.11345525E-07 0 1
vn -4.16473E-07 0 1
vn -2.94490945E-07 -2.94490832E-07 1
vn -3.36933624E-07 -2.44796695E-07 1
vn -3.96089405E-07 -1.2869728E-07 1
vn -3.71080176E-07 -1.89074768E-07 1
vn -1.89074967E-07 -3.71080205E-07 1
vn -1.28698716E-07 -3.96089007E-07 1
vn -4.11345525E-07 0 1
vn -4.16473E-07 0 1
vn -2.4479661E-07 -3.36933738E-07 1
vn -2.94490917E-07 -2.94490718E-07 1
vn -3.36933653E-07 -2.4479661E-07 1
vn -3.7108029E-07 -1.89074768E-07 1
vn -3.96089376E-07 -1.28697323E-07 1
vn -4.11345525E-07 0 1
vn -4.16473E-07 0 1
vn -4.11345638E-07 0 1
vn -3.96089348E-07 -1.28697351E-07 1
vn -3.96089376E-07 -1.28697337E-07 1
vn -3.96089376E-07 -1.28697337E-07 1
vn -3.7108029E-07 -1.89074768E-07 1
vn -3.36933738E-07 -2.44796581E-07 1
vn -3.71080205E-07 -1.89074768E-07 1
vn -3.71080233E-07 -1.8907474E-07 1
vn -3.71080205E-07 -1.8907474E-07 1
vn -3.36933795E-07 -2.44796553E-07 1
vn -3.36933795E-07 -2.44796524E-07 1
vn -3.36933851E-07 -2.4479661E-07 1
vn -3.36933795E-07 -2.44796581E-07 1
vn -2.94490832E-07 -2.94490775E-07 1
vn -2.94490917E-07 -2.94490832E-07 1
vn -2.9449086E-07 -2.94490832E-07 1
vn -2.94490832E-07 -2.94490832E-07 1
vn -2.94490889E-07 -2.94490832E-07 1
vn -2.94490917E-07 -2.9449086E-07 1
vn -2.44796581E-07 -3.36933624E-07 1
vn -2.44796695E-07 -3.36933653E-07 1
vn -2.44796695E-07 -3.36933653E-07 1
vn -2.44796666E-07 -3.36933653E-07 1
vn -2.44796666E-07 -3.36933624E-07 1
vn -2.44796695E-07 -3.36933653E-07 1
vn -2.44796666E-07 -3.36933624E-07 1
vn -1.89074868E-07 -3.71080091E-07 1
vn -1.89074782E-07 -3.71080034E-07 1
vn -1.89074782E-07 -3.71080034E-07 1
vn -1.89074868E-07 -3.71080063E-07 1
vn -1.89074868E-07 -3.71080034E-07 1
vn -1.89074811E-07 -3.71079949E-07 1
vn -1.89074811E-07 -3.71080091E-07 1
vn -1.89074811E-07 -3.71080063E-07 1
vn -1.28697252E-07 -3.96089206E-07 1
vn -1.28697224E-07 -3.96089263E-07 1
vn -1.28697252E-07 -3.96089234E-07 1
vn -0 -4.11345383E-07 1
vn -0 -4.11345496E-07 1
vn -0 -4.11345383E-07 1
vn -0 -4.11345439E-07 1
vn -1.28697266E-07 -3.9608932E-07 1
vn -0 -4.11345439E-07 1
vn -1.28697266E-07 -3.96089206E-07 1
vn -0 -4.11345326E-07 1
vn -1.28697351E-07 -3.96089206E-07 1
vn -0 -4.11345326E-07 1
vn -1.28697394E-07 -3.96089121E-07 1
vn -0 -4.11345383E-07 1
vn -1.28697465E-07 -3.96089092E-07 1
vn -0 -4.11345496E-07 1
vn -1.28698019E-07 -3.96089121E-07 1
vn -0 -4.11345525E-07 1
vn -0 -4.16473E-07 1
vn -0 -4.11345496E-07 1
vn -0 -4.11345525E-07 1
vn -0 -4.16472943E-07 1
vn -0 -4.11345468E-07 1
vn -0 -4.11345383E-07 1
vn -0 -4.11345439E-07 1
vn 1.28698787E-07 -3.96088666E-07 1
vn -0 -4.1647283E-07 1
vn -0 -4.11345326E-07 1
vn 1.28698247E-07 -3.96088751E-07 1
vn 1.89075109E-07 -3.71080063E-07 1
vn -0 -4.1647283E-07 1
vn -0 -4.11345326E-07 1
vn -0 -4.11345326E-07 1
vn 1.8907491E-07 -3.71080063E-07 1
vn 2.44796155E-07 -3.36933624E-07 1
vn -0 -4.16472801E-07 1
vn -0 -4.11345439E-07 1
vn -0 -4.11345241E-07 1
vn 1.28697721E-07 -3.96088865E-07 1
vn 2.44796269E-07 -3.36933624E-07 1
vn 2.94491457E-07 -2.94489979E-07 1
vn -0 -4.16472801E-07 1
vn -0 -4.11345439E-07 1
vn 1.89074811E-07 -3.71079921E-07 1
vn -0 -4.11345269E-07 1
vn 1.28697565E-07 -3.9608895E-07 1
vn 2.9449123E-07 -2.9449015E-07 1
vn 3.36933368E-07 -2.4479678E-07 1
vn -0 -4.1647283E-07 1
vn -0 -4.11345383E-07 1
vn 2.44796439E-07 -3.36933596E-07 1
vn 1.8907491E-07 -3.71079864E-07 1
vn -0 -4.11345326E-07 1
vn 1.28697522E-07 -3.96089007E-07 1
vn 3.36933567E-07 -2.44796496E-07 1
vn 3.71079835E-07 -1.89074797E-07 1
vn -0 -4.1647283E-07 1
vn -0 -4.11345383E-07 1
vn 2.94490974E-07 -2.94490405E-07 1
vn 2.4479661E-07 -3.36933567E-07 1
vn 1.89074896E-07 -3.71079807E-07 1
vn 1.28697437E-07 -3.96089092E-07 1
vn -0 -4.11345269E-07 1
vn -0 -4.16472801E-07 1
vn -0 -4.11345496E-07 1
vn -0 -4.16472915E-07 1
vn -0 -4.11345269E-07 1
vn -0 -4.11345269E-07 1
vn -0 -4.11345326E-07 1
vn 1.2869738E-07 -3.96089121E-07 1
vn 1.89074896E-07 -3.71079864E-07 1
vn 1.28697337E-07 -3.96089092E-07 1
vn 1.28697351E-07 -3.96089007E-07 1
vn 1.28697337E-07 -3.96089064E-07 1
vn 1.8907491E-07 -3.71079778E-07 1
vn 1.89074939E-07 -3.71079778E-07 1
vn 1.89074896E-07 -3.71079864E-07 1
vn 1.89074896E-07 -3.71079778E-07 1
vn 2.44796666E-07 -3.36933397E-07 1
vn 2.44796752E-07 -3.36933368E-07 1
vn 2.44796752E-07 -3.3693334E-07 1
vn 2.44796666E-07 -3.36933397E-07 1
vn 2.4479678E-07 -3.36933368E-07 1
vn 2.44796752E-07 -3.36933454E-07 1
vn 2.9449086E-07 -2.94490604E-07 1
vn 2.94490832E-07 -2.94490548E-07 1
vn 2.94490832E-07 -2.94490548E-07 1
vn 2.94490917E-07 -2.94490604E-07 1
vn 2.94490917E-07 -2.94490519E-07 1
vn 2.94490832E-07 -2.94490548E-07 1
vn 2.94490917E-07 -2.94490548E-07 1
vn 3.36933624E-07 -2.44796297E-07 1
vn 3.36933596E-07 -2.44796411E-07 1
vn 3.36933624E-07 -2.44796439E-07 1
vn 3.36933624E-07 -2.44796297E-07 1
vn 3.36933624E-07 -2.44796382E-07 1
vn 3.36933624E-07 -2.44796411E-07 1
vn 3.36933624E-07 -2.44796411E-07 1
vn 3.36933624E-07 -2.44796382E-07 1
vn 3.71079949E-07 -1.89074569E-07 1
vn 3.71079949E-07 -1.89074569E-07 1
vn 3.71079921E-07 -1.89074541E-07 1
vn 3.71079921E-07 -1.89074569E-07 1
vn 3.71079864E-07 -1.89074484E-07 1
vn 3.71079949E-07 -1.89074413E-07 1
vn 3.96089092E-07 -1.28696925E-07 1
vn 3.96089121E-07 -1.28696897E-07 1
vn 3.96089064E-07 -1.28696882E-07 1
vn 3.96089121E-07 -1.28696868E-07 1
vn 3.96089092E-07 -1.28696826E-07 1
vn 4.11345241E-07 0 1
vn 4.11345212E-07 0 1
vn 4.11345184E-07 0 1
vn 4.16472659E-07 0 1
vn 4.16472602E-07 0 1
vn 4.16472659E-07 0 1
vn 4.16472659E-07 0 1
vn 4.11345184E-07 0 1
vn 4.16472574E-07 0 1
vn 4.11345241E-07 0 1
vn 4.16472574E-07 0 1
vn 4.11345241E-07 0 1
vn 4.16472687E-07 0 1
vn 3.96089007E-07 -1.28696811E-07 1
vn 4.11345269E-07 0 1
vn 4.16472602E-07 0 1
vn 3.96089149E-07 -1.28696911E-07 1
vn 4.11345241E-07 0 1
vn 4.16472659E-07 0 1
vn 3.71080063E-07 -1.89074356E-07 1
vn 4.11345269E-07 0 1
vn 4.16472687E-07 0 1
vn 4.11345354E-07 0 1
vn 3.96089092E-07 -1.28696854E-07 1
vn 3.71080034E-07 -1.89074484E-07 1
vn 3.96089149E-07 -1.28696698E-07 1
vn 3.96089263E-07 -1.2869657E-07 1
vn 3.71079921E-07 -1.8907464E-07 1
g Cylinde_Ban_0
f 3/3/3 2/2/2 1/1/1
f 2/2/2 4/4/4 1/1/1
f 1/1/1 4/4/4 5/5/5
f 2/2/2 6/6/6 4/4/4
f 4/4/4 7/7/7 5/5/5
f 5/5/5 7/7/7 8/8/8
f 6/6/6 9/9/9 4/4/4
f 4/4/4 9/9/9 7/7/7
f 6/6/6 10/10/10 9/9/9
f 7/7/7 11/11/11 8/8/8
f 8/8/8 11/11/11 12/12/12
f 10/10/10 13/13/13 9/9/9
f 10/10/10 14/14/14 13/13/13
f 9/9/9 15/15/15 7/7/7
f 7/7/7 15/15/15 11/11/11
f 9/9/9 13/13/13 15/15/15
f 11/11/11 16/16/16 12/12/12
f 12/12/12 16/16/16 17/17/17
f 14/14/14 18/18/18 13/13/13
f 14/14/14 19/19/19 18/18/18
f 13/13/13 20/20/20 15/15/15
f 13/13/13 18/18/18 20/20/20
f 15/15/15 21/21/21 11/11/11
f 11/11/11 21/21/21 16/16/16
f 15/15/15 20/20/20 21/21/21
f 16/16/16 22/22/22 17/17/17
f 17/17/17 22/22/22 23/23/23
f 19/19/19 24/24/24 18/18/18
f 24/24/24 19/19/19 25/25/25
f 21/21/21 26/26/26 16/16/16
f 16/16/16 26/26/26 22/22/22
f 18/18/18 27/27/27 20/20/20
f 18/18/18 24/24/24 27/27/27
f 20/20/20 28/28/28 21/21/21
f 21/21/21 28/28/28 26/26/26
f 20/20/20 27/27/27 28/28/28
f 22/22/22 29/29/29 23/23/23
f 23/23/23 29/29/29 30/30/30
f 31/31/31 24/24/24 25/25/25
f 31/31/31 25/25/25 32/32/32
f 26/26/26 33/33/33 22/22/22
f 22/22/22 33/33/33 29/29/29
f 28/28/28 34/34/34 26/26/26
f 26/26/26 34/34/34 33/33/33
f 24/24/24 35/35/35 27/27/27
f 35/35/35 24/24/24 31/31/31
f 27/27/27 36/36/36 28/28/28
f 28/28/28 36/36/36 34/34/34
f 27/27/27 35/35/35 36/36/36
f 29/29/29 37/37/37 30/30/30
f 30/30/30 37/37/37 38/38/38
f 39/39/39 31/31/31 32/32/32
f 39/39/39 32/32/32 40/40/40
f 33/33/33 41/41/41 29/29/29
f 29/29/29 41/41/41 37/37/37
f 34/34/34 42/42/42 33/33/33
f 33/33/33 42/42/42 41/41/41
f 36/36/36 43/43/43 34/34/34
f 34/34/34 43/43/43 42/42/42
f 35/35/35 44/44/44 36/36/36
f 36/36/36 44/44/44 43/43/43
f 45/45/45 35/35/35 31/31/31
f 45/45/45 31/31/31 39/39/39
f 44/44/44 35/35/35 45/45/45
f 46/46/46 39/39/39 40/40/40
f 46/46/46 40/40/40 47/47/47
f 48/48/48 46/46/46 47/47/47
f 49/49/49 45/45/45 39/39/39
f 49/49/49 39/39/39 46/46/46
f 50/50/50 46/46/46 48/48/48
f 50/50/50 49/49/49 46/46/46
f 51/51/51 50/50/50 48/48/48
f 52/52/52 44/44/44 45/45/45
f 52/52/52 45/45/45 49/49/49
f 44/44/44 53/53/53 43/43/43
f 53/53/53 44/44/44 52/52/52
f 54/54/54 50/50/50 51/51/51
f 55/55/55 54/54/54 51/51/51
f 56/56/56 49/49/49 50/50/50
f 56/56/56 52/52/52 49/49/49
f 54/54/54 56/56/56 50/50/50
f 57/57/57 54/54/54 55/55/55
f 58/58/58 57/57/57 55/55/55
f 59/59/59 52/52/52 56/56/56
f 59/59/59 53/53/53 52/52/52
f 60/60/60 56/56/56 54/54/54
f 57/57/57 60/60/60 54/54/54
f 60/60/60 59/59/59 56/56/56
f 43/43/43 53/53/53 61/61/61
f 43/43/43 61/61/61 42/42/42
f 62/62/62 57/57/57 58/58/58
f 63/63/63 62/62/62 58/58/58
f 64/64/64 53/53/53 59/59/59
f 53/53/53 64/64/64 61/61/61
f 65/65/65 60/60/60 57/57/57
f 62/62/62 65/65/65 57/57/57
f 66/66/66 59/59/59 60/60/60
f 66/66/66 64/64/64 59/59/59
f 65/65/65 66/66/66 60/60/60
f 42/42/42 61/61/61 67/67/67
f 42/42/42 67/67/67 41/41/41
f 68/68/68 62/62/62 63/63/63
f 69/69/69 68/68/68 63/63/63
f 61/61/61 64/64/64 70/70/70
f 61/61/61 70/70/70 67/67/67
f 71/71/71 64/64/64 66/66/66
f 64/64/64 71/71/71 70/70/70
f 72/72/72 65/65/65 62/62/62
f 68/68/68 72/72/72 62/62/62
f 73/73/73 66/66/66 65/65/65
f 73/73/73 71/71/71 66/66/66
f 72/72/72 73/73/73 65/65/65
f 41/41/41 67/67/67 74/74/74
f 41/41/41 74/74/74 37/37/37
f 75/75/75 68/68/68 69/69/69
f 76/76/76 75/75/75 69/69/69
f 67/67/67 70/70/70 77/77/77
f 67/67/67 77/77/77 74/74/74
f 70/70/70 71/71/71 78/78/78
f 70/70/70 78/78/78 77/77/77
f 79/79/79 71/71/71 73/73/73
f 71/71/71 79/79/79 78/78/78
f 80/80/80 72/72/72 68/68/68
f 75/75/75 80/80/80 68/68/68
f 81/81/81 73/73/73 72/72/72
f 81/81/81 79/79/79 73/73/73
f 80/80/80 81/81/81 72/72/72
f 82/82/82 75/75/75 76/76/76
f 83/83/83 82/82/82 76/76/76
f 84/84/84 80/80/80 75/75/75
f 82/82/82 84/84/84 75/75/75
f 85/85/85 82/82/82 83/83/83
f 86/86/86 85/85/85 83/83/83
f 85/85/85 87/87/87 82/82/82
f 87/87/87 84/84/84 82/82/82
f 87/87/87 88/88/88 84/84/84
f 84/84/84 89/89/89 80/80/80
f 88/88/88 89/89/89 84/84/84
f 89/89/89 81/81/81 80/80/80
f 88/88/88 90/90/90 89/89/89
f 89/89/89 91/91/91 81/81/81
f 90/90/90 91/91/91 89/89/89
f 91/91/91 79/79/79 81/81/81
f 91/91/91 90/90/90 92/92/92
f 79/79/79 91/91/91 93/93/93
f 93/93/93 91/91/91 92/92/92
f 78/78/78 79/79/79 93/93/93
f 93/93/93 92/92/92 94/94/94
f 78/78/78 93/93/93 95/95/95
f 95/95/95 93/93/93 94/94/94
f 77/77/77 78/78/78 95/95/95
f 95/95/95 94/94/94 96/96/96
f 77/77/77 95/95/95 97/97/97
f 97/97/97 95/95/95 96/96/96
f 74/74/74 77/77/77 97/97/97
f 97/97/97 96/96/96 98/98/98
f 74/74/74 97/97/97 99/99/99
f 99/99/99 97/97/97 98/98/98
f 37/37/37 74/74/74 99/99/99
f 99/99/99 98/98/98 100/100/100
f 37/37/37 99/99/99 38/38/38
f 38/38/38 99/99/99 100/100/100
f 103/103/103 102/102/102 101/101/101
f 102/102/102 104/104/104 101/101/101
f 101/101/101 104/104/104 105/105/105
f 102/102/102 106/106/106 104/104/104
f 104/104/104 107/107/107 105/105/105
f 105/105/105 107/107/107 108/108/108
f 106/106/106 109/109/109 104/104/104
f 104/104/104 109/109/109 107/107/107
f 106/106/106 110/110/110 109/109/109
f 107/107/107 111/111/111 108/108/108
f 108/108/108 111/111/111 112/112/112
f 110/110/110 113/113/113 109/109/109
f 110/110/110 114/114/114 113/113/113
f 109/109/109 115/115/115 107/107/107
f 107/107/107 115/115/115 111/111/111
f 109/109/109 113/113/113 115/115/115
f 111/111/111 116/116/116 112/112/112
f 112/112/112 116/116/116 117/117/117
f 114/114/114 118/118/118 113/113/113
f 114/114/114 119/119/119 118/118/118
f 113/113/113 120/120/120 115/115/115
f 113/113/113 118/118/118 120/120/120
f 115/115/115 121/121/121 111/111/111
f 111/111/111 121/121/121 116/116/116
f 115/115/115 120/120/120 121/121/121
f 116/116/116 122/122/122 117/117/117
f 117/117/117 122/122/122 123/123/123
f 119/119/119 124/124/124 118/118/118
f 124/124/124 119/119/119 125/125/125
f 121/121/121 126/126/126 116/116/116
f 116/116/116 126/126/126 122/122/122
f 118/118/118 127/127/127 120/120/120
f 118/118/118 124/124/124 127/127/127
f 120/120/120 128/128/128 121/121/121
f 121/121/121 128/128/128 126/126/126
f 120/120/120 127/127/127 128/128/128
f 122/122/122 129/129/129 123/123/123
f 123/123/123 129/129/129 130/130/130
f 131/131/131 124/124/124 125/125/125
f 131/131/131 125/125/125 132/132/132
f 126/126/126 133/133/133 122/122/122
f 122/122/122 133/133/133 129/129/129
f 128/128/128 134/134/134 126/126/126
f 126/126/126 134/134/134 133/133/133
f 124/124/124 135/135/135 127/127/127
f 135/135/135 124/124/124 131/131/131
f 127/127/127 136/136/136 128/128/128
f 128/128/128 136/136/136 134/134/134
f 127/127/127 135/135/135 136/136/136
f 129/129/129 137/137/137 130/130/130
f 130/130/130 137/137/137 138/138/138
f 139/139/139 131/131/131 132/132/132
f 139/139/139 132/132/132 140/140/140
f 133/133/133 141/141/141 129/129/129
f 129/129/129 141/141/141 137/137/137
f 134/134/134 142/142/142 133/133/133
f 133/133/133 142/142/142 141/141/141
f 136/136/136 143/143/143 134/134/134
f 134/134/134 143/143/143 142/142/142
f 135/135/135 144/144/144 136/136/136
f 136/136/136 144/144/144 143/143/143
f 145/145/145 135/135/135 131/131/131
f 145/145/145 131/131/131 139/139/139
f 144/144/144 135/135/135 145/145/145
f 146/146/146 139/139/139 140/140/140
f 146/146/146 140/140/140 147/147/147
f 148/148/148 146/146/146 147/147/147
f 149/149/149 145/145/145 139/139/139
f 149/149/149 139/139/139 146/146/146
f 150/150/150 146/146/146 148/148/148
f 150/150/150 149/149/149 146/146/146
f 151/151/151 150/150/150 148/148/148
f 152/152/152 144/144/144 145/145/145
f 152/152/152 145/145/145 149/149/149
f 144/144/144 153/153/153 143/143/143
f 153/153/153 144/144/144 152/152/152
f 154/154/154 150/150/150 151/151/151
f 155/155/155 154/154/154 151/151/151
f 156/156/156 149/149/149 150/150/150
f 156/156/156 152/152/152 149/149/149
f 154/154/154 156/156/156 150/150/150
f 157/157/157 154/154/154 155/155/155
f 158/158/158 157/157/157 155/155/155
f 159/159/159 152/152/152 156/156/156
f 159/159/159 153/153/153 152/152/152
f 160/160/160 156/156/156 154/154/154
f 157/157/157 160/160/160 154/154/154
f 160/160/160 159/159/159 156/156/156
f 143/143/143 153/153/153 161/161/161
f 143/143/143 161/161/161 142/142/142
f 162/162/162 157/157/157 158/158/158
f 163/163/163 162/162/162 158/158/158
f 164/164/164 153/153/153 159/159/159
f 153/153/153 164/164/164 161/161/161
f 165/165/165 160/160/160 157/157/157
f 162/162/162 165/165/165 157/157/157
f 166/166/166 159/159/159 160/160/160
f 166/166/166 164/164/164 159/159/159
f 165/165/165 166/166/166 160/160/160
f 142/142/142 161/161/161 167/167/167
f 142/142/142 167/167/167 141/141/141
f 168/168/168 162/162/162 163/163/163
f 169/169/169 168/168/168 163/163/163
f 161/161/161 164/164/164 170/170/170
f 161/161/161 170/170/170 167/167/167
f 171/171/171 164/164/164 166/166/166
f 164/164/164 171/171/171 170/170/170
f 172/172/172 165/165/165 162/162/162
f 168/168/168 172/172/172 162/162/162
f 173/173/173 166/166/166 165/165/165
f 173/173/173 171/171/171 166/166/166
f 172/172/172 173/173/173 165/165/165
f 141/141/141 167/167/167 174/174/174
f 141/141/141 174/174/174 137/137/137
f 175/175/175 168/168/168 169/169/169
f 176/176/176 175/175/175 169/169/169
f 167/167/167 170/170/170 177/177/177
f 167/167/167 177/177/177 174/174/174
f 170/170/170 171/171/171 178/178/178
f 170/170/170 178/178/178 177/177/177
f 179/179/179 171/171/171 173/173/173
f 171/171/171 179/179/179 178/178/178
f 180/180/180 172/172/172 168/168/168
f 175/175/175 180/180/180 168/168/168
f 181/181/181 173/173/173 172/172/172
f 181/181/181 179/179/179 173/173/173
f 180/180/180 181/181/181 172/172/172
f 182/182/182 175/175/175 176/176/176
f 183/183/183 182/182/182 176/176/176
f 184/184/184 180/180/180 175/175/175
f 182/182/182 184/184/184 175/175/175
f 185/185/185 181/181/181 180/180/180
f 184/184/184 185/185/185 180/180/180
f 186/186/186 179/179/179 181/181/181
f 185/185/185 186/186/186 181/181/181
f 178/178/178 179/179/179 187/187/187
f 179/179/179 186/186/186 187/187/187
f 188/188/188 182/182/182 183/183/183
f 189/189/189 188/188/188 183/183/183
f 190/190/190 184/184/184 182/182/182
f 188/188/188 190/190/190 182/182/182
f 191/191/191 185/185/185 184/184/184
f 190/190/190 191/191/191 184/184/184
f 192/192/192 186/186/186 185/185/185
f 191/191/191 192/192/192 185/185/185
f 193/193/193 188/188/188 189/189/189
f 194/194/194 193/193/193 189/189/189
f 195/195/195 190/190/190 188/188/188
f 193/193/193 195/195/195 188/188/188
f 196/196/196 193/193/193 194/194/194
f 197/197/197 196/196/196 194/194/194
f 196/196/196 198/198/198 193/193/193
f 198/198/198 195/195/195 193/193/193
f 198/198/198 199/199/199 195/195/195
f 195/195/195 200/200/200 190/190/190
f 199/199/199 200/200/200 195/195/195
f 200/200/200 191/191/191 190/190/190
f 199/199/199 201/201/201 200/200/200
f 200/200/200 202/202/202 191/191/191
f 201/201/201 202/202/202 200/200/200
f 202/202/202 192/192/192 191/191/191
f 202/202/202 201/201/201 203/203/203
f 204/204/204 202/202/202 203/203/203
f 192/192/192 202/202/202 204/204/204
f 204/204/204 203/203/203 205/205/205
f 206/206/206 192/192/192 204/204/204
f 186/186/186 192/192/192 206/206/206
f 187/187/187 186/186/186 206/206/206
f 207/207/207 204/204/204 205/205/205
f 206/206/206 204/204/204 207/207/207
f 207/207/207 205/205/205 208/208/208
f 187/187/187 206/206/206 209/209/209
f 209/209/209 206/206/206 207/207/207
f 210/210/210 207/207/207 208/208/208
f 209/209/209 207/207/207 210/210/210
f 210/210/210 208/208/208 211/211/211
f 212/212/212 187/187/187 209/209/209
f 178/178/178 187/187/187 212/212/212
f 177/177/177 178/178/178 212/212/212
f 213/213/213 210/210/210 211/211/211
f 213/213/213 211/211/211 214/214/214
f 215/215/215 213/213/213 214/214/214
f 216/216/216 209/209/209 210/210/210
f 212/212/212 209/209/209 216/216/216
f 216/216/216 210/210/210 213/213/213
f 177/177/177 212/212/212 217/217/217
f 217/217/217 212/212/212 216/216/216
f 174/174/174 177/177/177 217/217/217
f 218/218/218 213/213/213 215/215/215
f 218/218/218 216/216/216 213/213/213
f 217/217/217 216/216/216 218/218/218
f 219/219/219 218/218/218 215/215/215
f 174/174/174 217/217/217 220/220/220
f 220/220/220 217/217/217 218/218/218
f 220/220/220 218/218/218 219/219/219
f 137/137/137 174/174/174 220/220/220
f 138/138/138 220/220/220 219/219/219
f 137/137/137 220/220/220 138/138/138
