g ZhangFei_jiuping
v -0.165057659 0.436272115 -0.911319017
v 0.0139601268 0.466862708 -0.911327243
v 0.0160689857 0.538332105 -0.888612866
v -0.190644756 0.503592968 -0.888525665
v -0.319275916 0.340362042 -0.911332667
v 0.0224933736 0.763787091 -0.652724087
v -0.368822694 0.392951995 -0.888514459
v -0.424235702 0.192149594 -0.911321104
v -0.272699714 0.718425333 -0.651495636
v -0.490046263 0.221729562 -0.888517797
v -0.465466797 0.0152817536 -0.911333501
v -0.333855778 0.879808187 -0.35931769
v 0.0281099714 0.940551043 -0.35988453
v -0.537694216 0.0174264815 -0.888519287
v -0.43488121 -0.163734525 -0.911321342
v -0.367131263 0.967471242 -0.0722695366
v 0.030965073 1.03526187 -0.0724784434
v 0.0309532657 1.03490412 0.153764173
v -0.502343595 -0.189358771 -0.888520181
v -0.338970661 -0.31795609 -0.911333501
v -0.391570717 -0.367514133 -0.888522089
v -0.190762803 -0.422911316 -0.911321938
v -0.220355138 -0.488734782 -0.888522625
v -0.0138943549 -0.464145511 -0.911333501
v -0.0160529632 -0.536383271 -0.888523757
v 0.1651209 -0.433558613 -0.911321938
v 0.190729931 -0.501033485 -0.888522625
v 0.319345057 -0.337651283 -0.911333501
v 0.368885934 -0.390265048 -0.888522089
v 0.42430231 -0.189439178 -0.911321342
v 0.490109533 -0.219050542 -0.888520181
v 0.465533435 -0.0125714345 -0.911333501
v 0.537759125 -0.01474836 -0.888519287
v 0.434949517 0.166445255 -0.911321104
v 0.502412796 0.192042753 -0.888515055
v 0.339040667 0.320669383 -0.911329091
v 0.391563147 0.370093614 -0.888525248
v 0.190826893 0.425628573 -0.911315203
v 0.220138445 0.49073711 -0.888610959
v 0.0139601268 0.466862708 -0.911327243
v 0.0160689857 0.538332105 -0.888612866
v 0.0224933736 0.763787091 -0.652724087
v 0.312897891 0.696015 -0.652742743
v 0.0281099714 0.940551043 -0.35988453
v 0.559679985 0.527634859 -0.651464462
v 0.3853167 0.857180774 -0.359914452
v 0.030965073 1.03526187 -0.0724784434
v 0.718991995 0.273857385 -0.651089668
v 0.685619593 0.646132469 -0.359259516
v 0.424179226 0.943554997 -0.0724780262
v 0.769672096 -0.0220969748 -0.651060343
v 0.880046129 0.334453613 -0.358932763
v 0.70146513 -0.314514726 -0.651064157
v 0.424045175 0.943233848 0.153766707
v 0.0309532657 1.03490412 0.153764173
v 0.0283620916 0.948266268 0.378001422
v 0.753942072 0.710442185 -0.0722391754
v 0.94209516 -0.0277932622 -0.358864903
v 0.527993917 -0.559614658 -0.651051462
v 0.388541937 0.864280283 0.377995938
v 0.0237851683 0.795258999 0.567228317
v 0.753515482 0.710025549 0.153792858
v 0.967385471 0.367524445 -0.0720793977
v 0.858587384 -0.385718763 -0.358877748
v 0.272978812 -0.718172312 -0.651046634
v 0.966689825 0.367236406 0.153803796
v 0.690412402 0.650586009 0.378023773
v 1.03548372 -0.0306690037 -0.0720572621
v 0.646261215 -0.685725749 -0.358846545
v -0.0230153203 -0.768891037 -0.6510005
v 1.03469694 -0.0306671448 0.153801918
v 0.943734348 -0.424090832 -0.0720515698
v 0.334120542 -0.879824281 -0.358827353
v -0.315448612 -0.700567663 -0.651047111
v 0.885742843 0.336504549 0.378027976
v 0.943027794 -0.423794925 0.153806135
v 0.710300267 -0.753798664 -0.0720519945
v -0.0281900782 -0.941938102 -0.35872829
v -0.560530782 -0.527048528 -0.651051462
v 0.948044777 -0.028079709 0.378030121
v 0.709752202 -0.753241837 0.153801918
v 0.367225677 -0.967115402 -0.0720458701
v -0.386142194 -0.858275831 -0.358827353
v -0.719036698 -0.272016764 -0.651064157
v 0.86406064 -0.388287723 0.378028452
v 0.366948277 -0.966405034 0.153806135
v -0.0309810899 -1.03526163 -0.0719864294
v -0.686118782 -0.645864248 -0.358846545
v -0.769643843 0.0239553563 -0.651060343
v 0.650311172 -0.690139174 0.378029287
v -0.030956639 -1.0344193 0.153811812
v -0.424406052 -0.943431735 -0.0720458701
v -0.880127549 -0.333700716 -0.358877927
v -0.701370239 0.316347361 -0.651083767
v 0.336220175 -0.885460436 0.378028452
v -0.424083918 -0.942739189 0.153806552
v -0.754112005 -0.709987342 -0.0720519945
v -0.94208926 0.0285764504 -0.358865082
v -0.527884305 0.561402559 -0.651081443
v -0.858542681 0.386482924 -0.358900696
v -0.646172345 0.686425745 -0.358913362
v -0.967417061 -0.366913795 -0.0720515698
v -0.753531873 -0.709464073 0.153801918
v -1.03548455 0.0312891118 -0.0720566288
v -0.943702281 0.424697727 -0.0720755979
v -0.710266948 0.754386604 -0.072088033
v -0.966689408 -0.366660714 0.153806135
v -1.03469408 0.0312440246 0.153801918
v -0.943017185 0.424367368 0.153802752
v -0.709749222 0.753813684 0.153799593
v -0.366938174 0.966950953 0.15379411
v -0.336210012 0.885999799 0.378015369
v 0.0283620916 0.948266268 0.378001422
v -0.650305212 0.690700233 0.378025472
v -0.864050508 0.388849944 0.378023356
v -0.948044479 0.0286465492 0.378030121
v -0.885742486 -0.335937917 0.378028452
v -0.281982571 0.743137062 0.567180276
v 0.0237851683 0.795258999 0.567228317
v 0.0185615048 0.620676339 0.719124377
v -0.220027134 0.579919815 0.719117641
v -0.545318484 0.579235733 0.567231715
v -0.425561249 0.452091068 0.719124377
v -0.724672318 0.326168716 0.567182362
v -0.565449178 0.254565418 0.719117641
v -0.794980168 0.0240652487 0.567231715
v -0.620395064 0.0188418236 0.719124377
v -0.742857754 -0.281701267 0.567182362
v -0.579639494 -0.219744951 0.719117641
v -0.578954816 -0.545037806 0.567231715
v -0.451810241 -0.425279975 0.719124377
v -0.690423369 -0.650027812 0.378029287
v -0.325888336 -0.724389553 0.567182362
v -0.254285783 -0.56516701 0.719117641
v -0.388570637 -0.863776386 0.378028452
v -0.0237834807 -0.794700503 0.567232549
v -0.018560661 -0.620114148 0.719124377
v -0.0283637773 -0.947764277 0.378032207
v 0.281980902 -0.742575526 0.567182362
v 0.220027134 -0.579357147 0.719117641
v 0.545319319 -0.578673303 0.567231715
v 0.425560355 -0.451528728 0.719124377
v 0.724671006 -0.325606197 0.567182362
v 0.565447509 -0.254003167 0.719117641
v 0.794982612 -0.0235023536 0.567231715
v 0.620395064 -0.0182794761 0.719124377
v 0.742858946 0.282264113 0.567182362
v 0.57963866 0.220307305 0.719117641
v 0.578952312 0.545600295 0.56723088
v 0.451808572 0.425842315 0.719124377
v 0.325884074 0.724948406 0.567178667
v 0.254284918 0.565729558 0.719117641
v 0.0185615048 0.620676339 0.719124377
v 0.01565497 0.523543835 0.85931462
v -0.216383636 0.570319712 0.949724078
v 0.0182571057 0.610461473 0.949725688
v -0.185560226 0.489121646 0.859312594
v 0.0152181899 0.508898854 0.739792228
v -0.418555051 0.444651872 0.949725688
v -0.180365235 0.475439429 0.73979938
v 0.017847307 0.596765637 0.410395354
v -0.211525068 0.557528734 0.410396188
v -0.358931929 0.381353021 0.85931462
v -0.556080282 0.250353694 0.949724078
v -0.348885953 0.370687783 0.739792228
v -0.409158349 0.43467769 0.410395354
v -0.476870388 0.214732885 0.859312594
v -0.610177934 0.0185361356 0.949725688
v -0.463523239 0.208730489 0.73979938
v -0.543601692 0.244742617 0.410396188
v -0.523258567 0.0159359239 0.859315455
v -0.570035398 -0.216100872 0.949724078
v -0.508616269 0.0154976714 0.739792228
v -0.596482575 0.0181266125 0.410395354
v -0.488837957 -0.185278788 0.859312594
v -0.444370627 -0.418273121 0.949725688
v -0.475155234 -0.180085048 0.73979938
v -0.557244778 -0.211245686 0.410396188
v -0.381071121 -0.358652115 0.85931462
v -0.250073105 -0.555802166 0.949724078
v -0.370405406 -0.348606259 0.739792228
v -0.434394687 -0.408878475 0.410395354
v -0.214451015 -0.476592064 0.859312594
v -0.0182545763 -0.609899044 0.949725688
v -0.208448216 -0.463244736 0.73979938
v -0.244460732 -0.54332453 0.410396188
v -0.0156532861 -0.522981584 0.85931462
v 0.216382802 -0.569757283 0.949724078
v -0.0152139729 -0.508336425 0.739792228
v -0.0178439356 -0.596203089 0.410395354
v 0.185561895 -0.488559335 0.859312594
v 0.418553352 -0.444089562 0.949725688
v 0.180369452 -0.474877149 0.73979938
v 0.21152845 -0.556966484 0.410397023
v 0.358934432 -0.380791157 0.85931462
v 0.556083679 -0.249791667 0.949724078
v 0.348887622 -0.370125681 0.739792228
v 0.409160018 -0.434115678 0.410395354
v 0.476873726 -0.21417059 0.859312594
v 0.610183001 -0.0179738235 0.949725688
v 0.463527441 -0.208168268 0.73979938
v 0.543607652 -0.244180307 0.410397023
v 0.523265243 -0.0153735047 0.85931462
v 0.57003963 0.216663033 0.949724078
v 0.508619606 -0.0149353957 0.739792228
v 0.596485913 -0.0175640471 0.410395354
v 0.488842219 0.185841024 0.859312594
v 0.444370627 0.418835253 0.949725688
v 0.475158602 0.180647403 0.73979938
v 0.557248116 0.211807787 0.410397023
v 0.381073684 0.359213948 0.85931462
v 0.250073969 0.556364536 0.949724078
v 0.370407939 0.349168211 0.739792228
v 0.434396356 0.409440517 0.410395354
v 0.214452699 0.477154315 0.859312594
v 0.0182571057 0.610461473 0.949725688
v 0.01565497 0.523543835 0.85931462
v 0.208451584 0.463806987 0.73979938
v 0.244464085 0.543886542 0.410396188
v 0.0152181899 0.508898854 0.739792228
v 0.017847307 0.596765637 0.410395354
v 0.250073969 0.556364536 0.949724078
v 0.0182571057 0.610461473 0.949725688
v 0.0205953196 0.688701212 0.937393844
v 0.282148689 0.627691209 0.937398076
v 0.444370627 0.418835253 0.949725688
v 0.296336502 0.659243286 0.871291578
v 0.0216316171 0.72331059 0.871290326
v 0.0185615048 0.620676339 0.719124377
v 0.254284918 0.565729558 0.719117641
v 0.526554644 0.496244371 0.871289909
v 0.451808572 0.425842315 0.719124377
v 0.50134778 0.472504139 0.937393844
v 0.57003963 0.216663033 0.949724078
v 0.67549783 0.256695092 0.871291578
v 0.57963866 0.220307305 0.719117641
v 0.643154919 0.244417563 0.937398076
v 0.610183001 -0.0179738235 0.949725688
v 0.723029256 -0.0213500001 0.871290326
v 0.620395064 -0.0182794761 0.719124377
v 0.688422382 -0.0203145612 0.937393844
v 0.556083679 -0.249791667 0.949724078
v 0.658959925 -0.296056777 0.871291578
v 0.565447509 -0.254003167 0.719117641
v 0.627408862 -0.281867564 0.937398076
v 0.418553352 -0.444089562 0.949725688
v 0.495963097 -0.526273549 0.871290326
v 0.425560355 -0.451528728 0.719124377
v 0.472221732 -0.501068711 0.937393844
v 0.216382802 -0.569757283 0.949724078
v 0.256413192 -0.675218105 0.871291578
v 0.220027134 -0.579357147 0.719117641
v 0.244134426 -0.642874062 0.937398076
v -0.0182545763 -0.609899044 0.949725688
v -0.0216299314 -0.72274822 0.871289909
v -0.018560661 -0.620114148 0.719124377
v -0.0205944739 -0.688138962 0.937393844
v -0.250073105 -0.555802166 0.949724078
v -0.296339005 -0.658681095 0.871291578
v -0.254285783 -0.56516701 0.719117641
v -0.282149523 -0.62712878 0.937398076
v -0.444370627 -0.418273121 0.949725688
v -0.526555419 -0.49568221 0.871290326
v -0.451810241 -0.425279975 0.719124377
v -0.501350343 -0.471942097 0.937393844
v -0.570035398 -0.216100872 0.949724078
v -0.675496876 -0.25613302 0.871291578
v -0.579639494 -0.219744951 0.719117641
v -0.643151939 -0.243855417 0.937398076
v -0.610177934 0.0185361356 0.949725688
v -0.723029673 0.0219124202 0.871290326
v -0.620395064 0.0188418236 0.719124377
v -0.68841821 0.0208770223 0.937393844
v -0.556080282 0.250353694 0.949724078
v -0.65896076 0.2966187 0.871291578
v -0.565449178 0.254565418 0.719117641
v -0.62740761 0.282429546 0.937398076
v -0.418555051 0.444651872 0.949725688
v -0.495964736 0.526835561 0.871290326
v -0.425561249 0.452091068 0.719124377
v -0.472224295 0.501630902 0.937393844
v -0.216383636 0.570319712 0.949724078
v -0.256415695 0.675780237 0.871291578
v -0.220027134 0.579919815 0.719117641
v -0.244137794 0.643436253 0.937398076
v 0.0182571057 0.610461473 0.949725688
v 0.0205953196 0.688701212 0.937393844
v 0.0216316171 0.72331059 0.871290326
v 0.0185615048 0.620676339 0.719124377
v 0.0139601268 0.466862708 -0.911327243
v 0.0135756237 0.454039901 -0.949725628
v 0.185567811 0.413926989 -0.949725628
v 0.190826893 0.425628573 -0.911315203
v 0.329704702 0.311875105 -0.949725628
v 0.339040667 0.320669383 -0.911329091
v 0.422958255 0.161894277 -0.949725926
v 0.434949517 0.166445255 -0.911321104
v 0.452717543 -0.0121880537 -0.949725926
v 0.465533435 -0.0125714345 -0.911333501
v 0.412605345 -0.18418029 -0.949725926
v 0.42430231 -0.189439178 -0.911321342
v 0.310553759 -0.32831794 -0.949725688
v 0.319345057 -0.337651283 -0.911333501
v 0.160571799 -0.421570659 -0.949725628
v 0.1651209 -0.433558613 -0.911321938
v -0.0135098537 -0.451329857 -0.949725628
v -0.0138943549 -0.464145511 -0.911333501
v -0.185501203 -0.411216885 -0.949725628
v -0.190762803 -0.422911316 -0.911321938
v -0.329638094 -0.309164852 -0.949725688
v -0.338970661 -0.31795609 -0.911333501
v -0.422891647 -0.159184188 -0.949725926
v -0.43488121 -0.163734525 -0.911321342
v -0.452648431 0.0148982638 -0.949725926
v -0.465466797 0.0152817536 -0.911333501
v -0.412537903 0.186890274 -0.949725688
v -0.424235702 0.192149594 -0.911321104
v -0.310486317 0.331027895 -0.949725628
v -0.319275916 0.340362042 -0.911332667
v -0.160506874 0.424280614 -0.949725628
v -0.165057659 0.436272115 -0.911319017
v 0.0135756237 0.454039901 -0.949725628
v 0.0139601268 0.466862708 -0.911327243
v -0.557244778 -0.211245686 0.410396188
v -0.596482575 0.0181266125 0.410395354
v -0.543601692 0.244742617 0.410396188
v -0.434394687 -0.408878475 0.410395354
v -0.409158349 0.43467769 0.410395354
v -0.211525068 0.557528734 0.410396188
v -0.244460732 -0.54332453 0.410396188
v 0.017847307 0.596765637 0.410395354
v -0.0178439356 -0.596203089 0.410395354
v 0.244464085 0.543886542 0.410396188
v 0.21152845 -0.556966484 0.410397023
v 0.434396356 0.409440517 0.410395354
v 0.409160018 -0.434115678 0.410395354
v 0.557248116 0.211807787 0.410397023
v 0.543607652 -0.244180307 0.410397023
v 0.596485913 -0.0175640471 0.410395354
v 0.0135756237 0.454039901 -0.949725628
v 3.2041844E-05 0.00135501381 -0.949726164
v 0.185567811 0.413926989 -0.949725628
v -0.160506874 0.424280614 -0.949725628
v 0.329704702 0.311875105 -0.949725628
v -0.310486317 0.331027895 -0.949725628
v 0.422958255 0.161894277 -0.949725926
v -0.412537903 0.186890274 -0.949725688
v 0.452717543 -0.0121880537 -0.949725926
v -0.452648431 0.0148982638 -0.949725926
v 0.412605345 -0.18418029 -0.949725926
v -0.422891647 -0.159184188 -0.949725926
v 0.310553759 -0.32831794 -0.949725688
v -0.329638094 -0.309164852 -0.949725688
v 0.160571799 -0.421570659 -0.949725628
v -0.185501203 -0.411216885 -0.949725628
v -0.0135098537 -0.451329857 -0.949725628
vt 0.0791015625 0.0181121826
vt 0.0447998047 0.0181121826
vt 0.0390625 0.0308990479
vt 0.0761108398 0.0308990479
vt 0.11541748 0.0181121826
vt 0.0157623291 0.0797119141
vt 0.114013672 0.0308990479
vt 0.153198242 0.0181121826
vt 0.0633544922 0.0797119141
vt 0.152709961 0.0308990479
vt 0.192138672 0.0181121826
vt 0.0577697754 0.12878418
vt 0.00518035889 0.12878418
vt 0.192260742 0.0308990479
vt 0.232299805 0.0181121826
vt 0.0578308105 0.171142578
vt 0.00571060181 0.171142578
vt 0.00901031494 0.199462891
vt 0.232666016 0.0308990479
vt 0.273925781 0.0181121826
vt 0.274169922 0.0308990479
vt 0.316162109 0.0181121826
vt 0.316162109 0.0308990479
vt 0.358642578 0.0181121826
vt 0.358642578 0.0308990479
vt 0.401367188 0.0181121826
vt 0.401123047 0.0308990479
vt 0.443603516 0.0181121826
vt 0.443115234 0.0308990479
vt 0.485107422 0.0181121826
vt 0.484619141 0.0308990479
vt 0.525390625 0.0181121826
vt 0.524902344 0.0308990479
vt 0.563964844 0.0181121826
vt 0.564453125 0.0308990479
vt 0.602050781 0.0181121826
vt 0.603515625 0.0308990479
vt 0.638183594 0.0181121826
vt 0.641113281 0.0308990479
vt 0.672851562 0.0181121826
vt 0.678222656 0.0308990479
vt 0.701660156 0.0797119141
vt 0.653808594 0.0797119141
vt 0.711914062 0.12878418
vt 0.609863281 0.0797119141
vt 0.659667969 0.12878418
vt 0.711425781 0.171142578
vt 0.567382812 0.0797119141
vt 0.612792969 0.12878418
vt 0.659667969 0.171142578
vt 0.525878906 0.0797119141
vt 0.568847656 0.12878418
vt 0.484619141 0.0797119141
vt 0.657714844 0.199462891
vt 0.708496094 0.199462891
vt 0.701171875 0.229125977
vt 0.612792969 0.171142578
vt 0.526367188 0.12878418
vt 0.442871094 0.0797119141
vt 0.653808594 0.229125977
vt 0.690917969 0.260009766
vt 0.611328125 0.199462891
vt 0.568847656 0.171142578
vt 0.484619141 0.12878418
vt 0.400878906 0.0797119141
vt 0.567871094 0.199462891
vt 0.609375 0.229125977
vt 0.525878906 0.171142578
vt 0.442626953 0.12878418
vt 0.358642578 0.0797119141
vt 0.525390625 0.199462891
vt 0.484130859 0.171142578
vt 0.400634766 0.12878418
vt 0.316650391 0.0797119141
vt 0.566894531 0.229125977
vt 0.483642578 0.199462891
vt 0.442382812 0.171142578
vt 0.358642578 0.12878418
vt 0.274658203 0.0797119141
vt 0.524902344 0.229125977
vt 0.442138672 0.199462891
vt 0.400634766 0.171142578
vt 0.316650391 0.12878418
vt 0.232910156 0.0797119141
vt 0.483154297 0.229125977
vt 0.400390625 0.199462891
vt 0.358642578 0.171142578
vt 0.274658203 0.12878418
vt 0.19140625 0.0797119141
vt 0.441894531 0.229125977
vt 0.358642578 0.199462891
vt 0.316894531 0.171142578
vt 0.232788086 0.12878418
vt 0.149780273 0.0797119141
vt 0.400390625 0.229125977
vt 0.316894531 0.199462891
vt 0.274902344 0.171142578
vt 0.190795898 0.12878418
vt 0.107421875 0.0797119141
vt 0.14831543 0.12878418
vt 0.104553223 0.12878418
vt 0.233276367 0.171142578
vt 0.275146484 0.199462891
vt 0.19128418 0.171142578
vt 0.148681641 0.171142578
vt 0.104675293 0.171142578
vt 0.233642578 0.199462891
vt 0.191772461 0.199462891
vt 0.149414062 0.199462891
vt 0.105773926 0.199462891
vt 0.0596923828 0.199462891
vt 0.063293457 0.229125977
vt 0.0161743164 0.229125977
vt 0.107788086 0.229125977
vt 0.150634766 0.229125977
vt 0.192504883 0.229125977
vt 0.234130859 0.229125977
vt 0.0686645508 0.260009766
vt 0.0264282227 0.260009766
vt 0.0377807617 0.290527344
vt 0.0749511719 0.290527344
vt 0.110839844 0.260009766
vt 0.114685059 0.290527344
vt 0.15246582 0.260009766
vt 0.154785156 0.290527344
vt 0.193603516 0.260009766
vt 0.194946289 0.290527344
vt 0.234741211 0.260009766
vt 0.235351562 0.290527344
vt 0.275878906 0.260009766
vt 0.276123047 0.290527344
vt 0.275634766 0.229125977
vt 0.317138672 0.260009766
vt 0.317138672 0.290527344
vt 0.317138672 0.229125977
vt 0.358642578 0.260009766
vt 0.358642578 0.290527344
vt 0.358642578 0.229125977
vt 0.400146484 0.260009766
vt 0.400146484 0.290527344
vt 0.44140625 0.260009766
vt 0.44140625 0.290527344
vt 0.482666016 0.260009766
vt 0.481933594 0.290527344
vt 0.523925781 0.260009766
vt 0.522460938 0.290527344
vt 0.564941406 0.260009766
vt 0.5625 0.290527344
vt 0.606445312 0.260009766
vt 0.602539062 0.290527344
vt 0.6484375 0.260009766
vt 0.642089844 0.290527344
vt 0.6796875 0.290527344
vt 0.483398438 0.977050781
vt 0.454101562 0.993164062
vt 0.483398438 0.993164062
vt 0.454101562 0.977050781
vt 0.483398438 0.959960938
vt 0.424560547 0.993164062
vt 0.454101562 0.959960938
vt 0.483398438 0.9140625
vt 0.454101562 0.9140625
vt 0.424560547 0.977050781
vt 0.394775391 0.993164062
vt 0.424560547 0.959960938
vt 0.424560547 0.9140625
vt 0.394775391 0.977050781
vt 0.365234375 0.993164062
vt 0.394775391 0.959960938
vt 0.394775391 0.9140625
vt 0.365234375 0.977050781
vt 0.335693359 0.993164062
vt 0.365234375 0.959960938
vt 0.365234375 0.9140625
vt 0.335693359 0.977050781
vt 0.306396484 0.993164062
vt 0.335693359 0.959960938
vt 0.335693359 0.9140625
vt 0.306396484 0.977050781
vt 0.276855469 0.993164062
vt 0.306396484 0.959960938
vt 0.306396484 0.9140625
vt 0.276855469 0.977050781
vt 0.247192383 0.993164062
vt 0.276855469 0.959960938
vt 0.276855469 0.9140625
vt 0.247192383 0.977050781
vt 0.217651367 0.993164062
vt 0.247192383 0.959960938
vt 0.247192383 0.9140625
vt 0.217651367 0.977050781
vt 0.188110352 0.993164062
vt 0.217651367 0.959960938
vt 0.217651367 0.9140625
vt 0.188110352 0.977050781
vt 0.158569336 0.993164062
vt 0.188110352 0.959960938
vt 0.188110352 0.9140625
vt 0.158569336 0.977050781
vt 0.12902832 0.993164062
vt 0.158569336 0.959960938
vt 0.158569336 0.9140625
vt 0.12902832 0.977050781
vt 0.099609375 0.993164062
vt 0.12902832 0.959960938
vt 0.12902832 0.9140625
vt 0.099609375 0.977050781
vt 0.0699462891 0.993164062
vt 0.099609375 0.959960938
vt 0.099609375 0.9140625
vt 0.0699462891 0.977050781
vt 0.040222168 0.993164062
vt 0.0699462891 0.959960938
vt 0.0699462891 0.9140625
vt 0.040222168 0.977050781
vt 0.0108795166 0.993164062
vt 0.0108795166 0.977050781
vt 0.040222168 0.959960938
vt 0.040222168 0.9140625
vt 0.0108795166 0.959960938
vt 0.0108795166 0.9140625
vt 0.642578125 0.345703125
vt 0.681152344 0.345703125
vt 0.685546875 0.333251953
vt 0.64453125 0.333251953
vt 0.603027344 0.345703125
vt 0.645996094 0.322021484
vt 0.687988281 0.322021484
vt 0.6796875 0.295410156
vt 0.642089844 0.295410156
vt 0.60546875 0.322021484
vt 0.602539062 0.295410156
vt 0.604492188 0.333251953
vt 0.563964844 0.345703125
vt 0.565429688 0.322021484
vt 0.5625 0.295410156
vt 0.564941406 0.333251953
vt 0.524902344 0.345703125
vt 0.525390625 0.322021484
vt 0.522460938 0.295410156
vt 0.524902344 0.333251953
vt 0.484863281 0.345703125
vt 0.484863281 0.322021484
vt 0.481933594 0.295410156
vt 0.484863281 0.333251953
vt 0.443847656 0.345703125
vt 0.443359375 0.322021484
vt 0.44140625 0.295410156
vt 0.443603516 0.333251953
vt 0.401611328 0.345703125
vt 0.401367188 0.322021484
vt 0.400146484 0.295410156
vt 0.401367188 0.333251953
vt 0.358642578 0.345703125
vt 0.358642578 0.322021484
vt 0.358642578 0.295410156
vt 0.358642578 0.333251953
vt 0.315917969 0.345703125
vt 0.316162109 0.322021484
vt 0.317138672 0.295410156
vt 0.315917969 0.333251953
vt 0.273681641 0.345703125
vt 0.273925781 0.322021484
vt 0.276123047 0.295410156
vt 0.273681641 0.333251953
vt 0.232543945 0.345703125
vt 0.232543945 0.322021484
vt 0.235351562 0.295410156
vt 0.232543945 0.333251953
vt 0.192504883 0.345703125
vt 0.191894531 0.322021484
vt 0.194946289 0.295410156
vt 0.192260742 0.333251953
vt 0.153442383 0.345703125
vt 0.151733398 0.322021484
vt 0.154785156 0.295410156
vt 0.15246582 0.333251953
vt 0.114257812 0.345703125
vt 0.111633301 0.322021484
vt 0.114685059 0.295410156
vt 0.112854004 0.333251953
vt 0.0748291016 0.345703125
vt 0.0713500977 0.322021484
vt 0.0749511719 0.295410156
vt 0.0729370117 0.333251953
vt 0.036315918 0.345703125
vt 0.031829834 0.333251953
vt 0.0292663574 0.322021484
vt 0.0377807617 0.295410156
vt 0.672851562 0.0142669678
vt 0.672851562 0.00457000732
vt 0.638183594 0.00457000732
vt 0.638183594 0.0142669678
vt 0.602050781 0.00457000732
vt 0.602050781 0.0142669678
vt 0.564453125 0.00457000732
vt 0.564453125 0.0142669678
vt 0.525390625 0.00457000732
vt 0.525390625 0.0142669678
vt 0.485107422 0.00457000732
vt 0.485107422 0.0142669678
vt 0.443603516 0.00457000732
vt 0.443603516 0.0142669678
vt 0.401367188 0.00457000732
vt 0.401367188 0.0142669678
vt 0.358642578 0.00457000732
vt 0.358642578 0.0142669678
vt 0.316162109 0.00457000732
vt 0.316162109 0.0142669678
vt 0.273925781 0.00457000732
vt 0.273925781 0.0142669678
vt 0.232299805 0.00457000732
vt 0.232299805 0.0142669678
vt 0.192138672 0.00457000732
vt 0.192138672 0.0142669678
vt 0.153198242 0.00457000732
vt 0.153198242 0.0142669678
vt 0.11541748 0.00457000732
vt 0.11541748 0.0142669678
vt 0.0791015625 0.00457000732
vt 0.0791015625 0.0142669678
vt 0.0446777344 0.00457000732
vt 0.0446777344 0.0142669678
vt 0.739746094 0.41015625
vt 0.767578125 0.415039062
vt 0.794921875 0.408935547
vt 0.715820312 0.395019531
vt 0.818359375 0.392822266
vt 0.833496094 0.368896484
vt 0.700195312 0.371826172
vt 0.838378906 0.341064453
vt 0.693847656 0.344238281
vt 0.83203125 0.313720703
vt 0.698730469 0.316650391
vt 0.815917969 0.290527344
vt 0.713867188 0.292724609
vt 0.792480469 0.275390625
vt 0.736816406 0.276611328
vt 0.764648438 0.270507812
vt 0.775878906 0.231201172
vt 0.745605469 0.228149414
vt 0.775878906 0.244140625
vt 0.775878906 0.217895508
vt 0.767578125 0.254638672
vt 0.775878906 0.206054688
vt 0.755859375 0.260498047
vt 0.76171875 0.197631836
vt 0.7421875 0.260498047
vt 0.748535156 0.197631836
vt 0.729492188 0.260498047
vt 0.735351562 0.197631836
vt 0.71484375 0.250244141
vt 0.723632812 0.197631836
vt 0.71484375 0.23828125
vt 0.71484375 0.212036133
vt 0.71484375 0.224975586
vn -0.106933065 0.28241998 -0.953312218
vn 0.00925424602 0.302307367 -0.953165531
vn 0.01853377 0.549834669 -0.835067809
vn -0.191856787 0.512744486 -0.836829841
vn -0.206456572 0.219279453 -0.953568161
vn 0.0270543303 0.798867166 -0.600898743
vn -0.37399742 0.397877514 -0.83774668
vn -0.274869949 0.123626217 -0.95350045
vn -0.280095041 0.749352396 -0.600014865
vn -0.497439981 0.223792881 -0.838135004
vn -0.30090186 0.00901508518 -0.953612506
vn -0.321641952 0.854423463 -0.408052683
vn 0.0291404556 0.911127329 -0.411093295
vn -0.545238793 0.0164047666 -0.838120222
vn -0.281710207 -0.106922224 -0.953523397
vn -0.350028813 0.924123585 -0.153216839
vn 0.029987609 0.987556279 -0.154380798
vn 0.0295486245 0.98318094 0.180228025
vn -0.509633362 -0.193369493 -0.838380575
vn -0.2190945 -0.206354335 -0.953632772
vn -0.396871656 -0.373726934 -0.838344216
vn -0.123571374 -0.274766892 -0.953537285
vn -0.223498687 -0.496858507 -0.838558137
vn -0.00900082383 -0.300812751 -0.953640699
vn -0.0162948351 -0.544726551 -0.838455379
vn 0.106920525 -0.28166151 -0.95353806
vn 0.19340007 -0.509333074 -0.838555992
vn 0.206369087 -0.219084352 -0.953631938
vn 0.3738271 -0.39678973 -0.838338375
vn 0.274822026 -0.12357337 -0.953521132
vn 0.497173429 -0.223493516 -0.838372946
vn 0.300911874 -0.00898658112 -0.953609586
vn 0.545258582 -0.0162173454 -0.838111103
vn 0.281828463 0.107049212 -0.953474224
vn 0.509977281 0.19419384 -0.837980926
vn 0.219404534 0.207025409 -0.953416049
vn 0.396779239 0.37737596 -0.836751759
vn 0.123992346 0.276217103 -0.953063548
vn 0.223612323 0.502383709 -0.835229397
vn 0.00925424602 0.302307367 -0.953165531
vn 0.01853377 0.549834669 -0.835067809
vn 0.0270543303 0.798867166 -0.600898743
vn 0.324921101 0.730435252 -0.600741684
vn 0.0291404556 0.911127329 -0.411093295
vn 0.579271019 0.551283538 -0.600442827
vn 0.372172415 0.83224088 -0.410929054
vn 0.029987609 0.987556279 -0.154380798
vn 0.74742794 0.284757435 -0.600220501
vn 0.6627267 0.627673924 -0.408434629
vn 0.404799104 0.901293755 -0.154296085
vn 0.799041092 -0.0237860288 -0.6008057
vn 0.854017317 0.3248505 -0.406357616
vn 0.729003966 -0.327741146 -0.600948334
vn 0.403292328 0.897158146 0.180173501
vn 0.0295486245 0.98318094 0.180228025
vn 0.0260821097 0.869951725 0.492446691
vn 0.718840182 0.678065181 -0.153285608
vn 0.913246155 -0.0273104664 -0.406491935
vn 0.547819078 -0.581483662 -0.601474106
vn 0.356944442 0.793878376 0.492288262
vn 0.0216990504 0.724508584 0.688924074
vn 0.715802848 0.674540162 0.180615142
vn 0.923903644 0.350996971 -0.152325988
vn 0.833260536 -0.374741197 -0.406504542
vn 0.283621699 -0.746839583 -0.601489305
vn 0.919458985 0.349110514 0.180878222
vn 0.633465588 0.596784949 0.492513061
vn 0.987910271 -0.0295243803 -0.152189612
vn 0.626318753 -0.664930522 -0.406930268
vn -0.0238836948 -0.798294187 -0.601793945
vn 0.983033359 -0.0294010323 0.18105486
vn 0.901410699 -0.405360043 -0.152125508
vn 0.32429409 -0.854015291 -0.406806231
vn -0.327761889 -0.728546798 -0.601491272
vn 0.813711643 0.308900088 0.492396206
vn 0.896959364 -0.403368562 0.180990785
vn 0.67766875 -0.719440877 -0.1522163
vn -0.0273138192 -0.912997544 -0.407049537
vn -0.581602931 -0.547690749 -0.601475596
vn 0.869891226 -0.0260235723 0.492556602
vn 0.674312174 -0.715907395 0.181051388
vn 0.350836873 -0.924005806 -0.152075157
vn -0.374768943 -0.833101928 -0.406804144
vn -0.747293115 -0.283573747 -0.600948334
vn 0.79379487 -0.356975794 0.492400289
vn 0.349052101 -0.919454098 0.181016237
vn -0.0295552481 -0.987927258 -0.152072936
vn -0.664952576 -0.626298308 -0.406925559
vn -0.799029171 0.0240081958 -0.600812793
vn 0.596703827 -0.633511484 0.49255228
vn -0.0294096041 -0.983020246 0.181124821
vn -0.405448794 -0.901379406 -0.152073637
vn -0.854175746 -0.324258476 -0.406497568
vn -0.729411006 0.328130186 -0.60024178
vn 0.308888555 -0.813713551 0.492400348
vn -0.403393567 -0.896942616 0.181018397
vn -0.719468951 -0.677639663 -0.152213126
vn -0.913252115 0.0273094606 -0.406478405
vn -0.547743261 0.582933664 -0.600137949
vn -0.833469689 0.37482208 -0.406001061
vn -0.626009107 0.665571094 -0.406359106
vn -0.924033105 -0.350745767 -0.152119026
vn -0.715906978 -0.674311697 0.18105495
vn -0.987912714 0.0295774415 -0.152162805
vn -0.901402712 0.405397683 -0.152072206
vn -0.677431822 0.719629526 -0.152379125
vn -0.91946888 -0.349023432 0.18099618
vn -0.983030617 0.0294234511 0.181066409
vn -0.896955073 0.40337801 0.180990964
vn -0.674261153 0.715982437 0.18094492
vn -0.348846555 0.919627964 0.180528417
vn -0.308823466 0.81376642 0.492353737
vn 0.0260821097 0.869951725 0.492446691
vn -0.596689761 0.633527637 0.492548436
vn -0.79379499 0.356981218 0.492396176
vn -0.869893312 0.0260338876 0.492552489
vn -0.813717902 -0.308881402 0.492397666
vn -0.257278234 0.677856326 0.688708067
vn 0.0216990504 0.724508584 0.688924074
vn 0.0196260065 0.655868113 0.754620314
vn -0.232995704 0.613818884 0.754280686
vn -0.496924937 0.527592361 0.688993335
vn -0.449882925 0.477636367 0.754631519
vn -0.661215723 0.297355801 0.688747704
vn -0.598783016 0.269274175 0.754287899
vn -0.724425554 0.0216770023 0.68901211
vn -0.655854762 0.0196211543 0.754631996
vn -0.677801847 -0.257288396 0.688757896
vn -0.613810599 -0.232996061 0.754287302
vn -0.527571201 -0.496921211 0.689012289
vn -0.47763294 -0.449884117 0.754633129
vn -0.633511066 -0.596704423 0.492552191
vn -0.297351152 -0.661206722 0.688758373
vn -0.269276202 -0.598782063 0.754287899
vn -0.356980443 -0.793792188 0.492400974
vn -0.021672193 -0.724420607 0.689017475
vn -0.0196210369 -0.655852377 0.754634142
vn -0.0260249022 -0.869888127 0.492561877
vn 0.257290393 -0.677800417 0.688758433
vn 0.232999265 -0.613809168 0.754287541
vn 0.496919721 -0.527571499 0.689013243
vn 0.449883044 -0.477632761 0.754633784
vn 0.661205947 -0.297349513 0.688759744
vn 0.598780572 -0.269275367 0.754289508
vn 0.724421144 -0.0216738023 0.689016819
vn 0.655850232 -0.0196234323 0.75463587
vn 0.677800894 0.257297903 0.688755214
vn 0.613806069 0.232999593 0.754289865
vn 0.527567267 0.49697271 0.688978016
vn 0.477631509 0.449893504 0.75462836
vn 0.297359169 0.66129601 0.688669086
vn 0.269279182 0.59879756 0.754274726
vn 0.0196260065 0.655868113 0.754620314
vn -0.0267671142 -0.894733906 0.445796788
vn 0.255928576 -0.67421633 0.692771852
vn -0.0215551164 -0.720424533 0.693198264
vn 0.317822427 -0.837270498 0.444934785
vn -0.0298292264 -0.997024953 -0.0710734874
vn 0.494178683 -0.524651825 0.693201125
vn 0.353990793 -0.932555258 -0.0709307641
vn -0.0288932342 -0.965753675 -0.257847071
vn 0.342911303 -0.903368175 -0.257561356
vn 0.613746822 -0.651596189 0.44579947
vn 0.657711983 -0.295771003 0.692773044
vn 0.683914125 -0.726092398 -0.0710722134
vn 0.662463307 -0.703319013 -0.257846355
vn 0.816776812 -0.367303222 0.444931448
vn 0.720421016 -0.0215531718 0.693202019
vn 0.909725785 -0.409105331 -0.0709339529
vn 0.881253064 -0.396303207 -0.257559568
vn 0.894734919 -0.026768392 0.445794761
vn 0.674218297 0.255923986 0.692771673
vn 0.997024596 -0.0298286341 -0.071078442
vn 0.965753794 -0.0288937185 -0.257846236
vn 0.837274015 0.317817718 0.444931775
vn 0.524659812 0.494173557 0.6931988
vn 0.932555795 0.353988886 -0.0709333196
vn 0.903368056 0.34291178 -0.257561028
vn 0.651602209 0.61374104 0.445798755
vn 0.295776308 0.657712042 0.692770779
vn 0.726097703 0.683908522 -0.0710717812
vn 0.703323603 0.66245836 -0.257846773
vn 0.367305994 0.816774189 0.444933921
vn 0.0215536822 0.720425308 0.693197429
vn 0.409106433 0.909725606 -0.0709310099
vn 0.39630276 0.881252587 -0.257561922
vn 0.0267679784 0.894734085 0.4457964
vn -0.255929232 0.674221218 0.692766905
vn 0.0298272949 0.997025073 -0.0710731372
vn 0.0288933981 0.965753555 -0.257847071
vn -0.31782347 0.837272763 0.444929868
vn -0.494179815 0.524661899 0.69319278
vn -0.353992999 0.932554364 -0.0709323213
vn -0.342912525 0.903367639 -0.257561296
vn -0.61374706 0.651600182 0.445793301
vn -0.657714128 0.295780718 0.692766845
vn -0.683911502 0.726094782 -0.0710732043
vn -0.662460446 0.703321517 -0.257846981
vn -0.816774428 0.36731112 0.444929391
vn -0.720425129 0.0215544961 0.693197668
vn -0.909724236 0.409109384 -0.0709327981
vn -0.881251574 0.396304518 -0.257562518
vn -0.894732952 0.026768906 0.445798755
vn -0.674220145 -0.255932033 0.692766905
vn -0.997025192 0.0298268218 -0.0710717365
vn -0.965753675 0.0288898777 -0.257847428
vn -0.837270558 -0.317824394 0.444933295
vn -0.524659514 -0.494179964 0.693194509
vn -0.932554364 -0.353993714 -0.0709279776
vn -0.903367162 -0.342914194 -0.257560909
vn -0.651601672 -0.613744259 0.445795089
vn -0.295777112 -0.657712996 0.692769408
vn -0.726096451 -0.683910012 -0.0710716173
vn -0.703322649 -0.662459612 -0.2578457
vn -0.367307246 -0.816775203 0.444930971
vn -0.0215551164 -0.720424533 0.693198264
vn -0.0267671142 -0.894733906 0.445796788
vn -0.409108996 -0.909724295 -0.0709329545
vn -0.396305412 -0.881251574 -0.257561237
vn -0.0298292264 -0.997024953 -0.0710734874
vn -0.0288932342 -0.965753675 -0.257847071
vn 0.0638780519 0.142042935 0.987797201
vn 0.00465295184 0.155498654 0.987825096
vn 0.0184805971 0.617741704 0.786163926
vn 0.253187418 0.563005269 0.786715508
vn 0.113245361 0.106665663 0.987824917
vn 0.409579068 0.910776913 -0.0522522293
vn 0.0298648365 0.998190582 -0.0521873981
vn 0.0247910935 0.828604758 -0.559284985
vn 0.340116322 0.756307781 -0.558855593
vn 0.7269454 0.68470943 -0.0521870963
vn 0.603440583 0.568382978 -0.559285402
vn 0.449875712 0.42374137 0.78616482
vn 0.145608485 0.0552730486 0.987797081
vn 0.933632016 0.354401648 -0.0522560962
vn 0.775288522 0.294293791 -0.558854938
vn 0.577137172 0.219078735 0.786712825
vn 0.155499801 -0.00465241913 0.987825036
vn 0.998190224 -0.0298648346 -0.0521952696
vn 0.828606129 -0.0247912854 -0.559282899
vn 0.617751956 -0.0184824225 0.78615576
vn 0.142043382 -0.0638785809 0.987797201
vn 0.910775423 -0.409581929 -0.0522567779
vn 0.756308913 -0.340115756 -0.558854222
vn 0.56300813 -0.253188729 0.786713064
vn 0.106665373 -0.113244608 0.987825036
vn 0.68471235 -0.726942718 -0.0521848798
vn 0.56838429 -0.603440046 -0.559284866
vn 0.42373994 -0.449876428 0.786165118
vn 0.0552723482 -0.145607173 0.98779732
vn 0.354400456 -0.933632851 -0.052250836
vn 0.294295132 -0.775286973 -0.558856428
vn 0.219073549 -0.57713294 0.786717415
vn -0.00465212017 -0.155498341 0.987825215
vn -0.0298617408 -0.998190701 -0.0521881357
vn -0.0247896183 -0.828604162 -0.55928582
vn -0.018480124 -0.617741525 0.786164045
vn -0.063876532 -0.142041862 0.987797558
vn -0.409579635 -0.910776615 -0.0522523671
vn -0.3401151 -0.756307304 -0.558856845
vn -0.253184706 -0.56300503 0.786716521
vn -0.113243505 -0.106663056 0.987825334
vn -0.726947188 -0.684707582 -0.0521839969
vn -0.603443205 -0.568381667 -0.559283853
vn -0.449878305 -0.423737586 0.786165297
vn -0.145606831 -0.0552705117 0.987797439
vn -0.933633685 -0.354399204 -0.0522444658
vn -0.775291264 -0.294293165 -0.558851421
vn -0.577128232 -0.219072506 0.78672117
vn -0.155497536 0.00465186825 0.987825334
vn -0.998191297 0.0298623517 -0.0521758273
vn -0.828607261 0.024789229 -0.559281051
vn -0.617733836 0.0184803102 0.786170125
vn -0.142041847 0.0638759434 0.987797558
vn -0.910777509 0.409578592 -0.0522458218
vn -0.756310165 0.340114444 -0.558853447
vn -0.563000083 0.253181905 0.786720932
vn -0.106664725 0.113242321 0.987825334
vn -0.684713721 0.726941347 -0.0521853715
vn -0.568384051 0.603439689 -0.559285283
vn -0.423742652 0.449874431 0.78616488
vn -0.0552712381 0.145606667 0.987797439
vn -0.354400307 0.933632731 -0.052253101
vn -0.294292748 0.77528733 -0.558857262
vn -0.219075128 0.577133954 0.786716282
vn 0.00465295184 0.155498654 0.987825096
vn 0.0184805971 0.617741704 0.786163926
vn 0.0298648365 0.998190582 -0.0521873981
vn 0.0247910935 0.828604758 -0.559284985
vn 0.0283627212 0.948004365 -0.316991091
vn 0.0283559188 0.948004484 -0.316991091
vn 0.389044315 0.86508286 -0.316664279
vn 0.389028251 0.865089953 -0.316664189
vn 0.690403938 0.650291026 -0.316960305
vn 0.690400422 0.6502949 -0.316960394
vn 0.886811376 0.336626649 -0.316619664
vn 0.886812329 0.336624146 -0.316619635
vn 0.948027253 -0.0283619035 -0.316922635
vn 0.948027253 -0.0283616725 -0.316922605
vn 0.865108728 -0.389042765 -0.316595435
vn 0.865111411 -0.389036924 -0.316595405
vn 0.650301814 -0.690420687 -0.316902012
vn 0.650302649 -0.690419793 -0.316901952
vn 0.33663404 -0.886827826 -0.316565931
vn 0.336627066 -0.886830449 -0.316565961
vn -0.0283591822 -0.948036611 -0.316894799
vn -0.0283656418 -0.948036492 -0.316894799
vn -0.389041901 -0.865113437 -0.316583365
vn -0.389053881 -0.865108073 -0.316583335
vn -0.690417528 -0.650304377 -0.316903621
vn -0.690415144 -0.650307 -0.316903621
vn -0.886817694 -0.336631805 -0.316596746
vn -0.886819184 -0.336627781 -0.316596687
vn -0.948019683 0.0283597745 -0.316945434
vn -0.948019683 0.0283600725 -0.316945463
vn -0.865102589 0.389041811 -0.316613436
vn -0.865104973 0.389036477 -0.316613495
vn -0.650307417 0.69040972 -0.31691426
vn -0.650299668 0.690416992 -0.316914201
vn -0.336638272 0.886805117 -0.31662485
vn -0.336630374 0.886808217 -0.31662485
vn 0.0283559188 0.948004484 -0.316991091
vn 0.0283627212 0.948004365 -0.316991091
vn 4.7288645E-06 -1.41474018E-07 1
vn -1.82044114E-05 5.44672162E-07 1
vn 4.72886859E-06 -1.4147416E-07 1
vn -2.00980594E-06 0 1
vn -2.00981435E-06 0 1
vn 8.16404111E-07 0 1
vn 8.16404622E-07 0 1
vn -9.13943381E-07 2.10276937E-07 1
vn -9.1393963E-07 2.10276667E-07 1
vn -1.21296239E-06 4.25658982E-07 1
vn -1.21295363E-06 4.25658811E-07 1
vn 2.32863408E-06 2.69720914E-07 1
vn 2.32860475E-06 2.69721141E-07 1
vn -9.45746888E-06 2.82931239E-07 1
vn -9.45746251E-06 2.82931069E-07 1
vn 3.64098414E-05 -1.08917129E-06 1
vn -0 1.17870081E-06 -1
vn -0 0 -1
vn 4.84202758E-07 1.07671065E-06 -1
vn -4.18970643E-07 1.10373196E-06 -1
vn 2.54058136E-07 1.45015281E-06 -1
vn -6.48130595E-07 1.00948932E-06 -1
vn 1.6058118E-07 1.00266948E-06 -1
vn -5.6180437E-07 1.21798996E-06 -1
vn 5.05156834E-07 0 -1
vn -4.85393343E-07 6.75888032E-07 -1
vn 1.90625173E-07 -8.09737855E-07 -1
vn -2.38693502E-07 -7.96893744E-07 -1
vn -0 -1.34012089E-06 -1
vn -1.31429246E-07 -1.33465005E-06 -1
vn 2.13189523E-07 -1.18184414E-06 -1
vn -2.83463066E-07 -1.16698641E-06 -1
vn -0 -1.17870093E-06 -1
g ZhangFei_jiuping_0
f 3/3/3 2/2/2 1/1/1
f 4/4/4 3/3/3 1/1/1
f 4/4/4 1/1/1 5/5/5
f 6/6/6 3/3/3 4/4/4
f 7/7/7 4/4/4 5/5/5
f 7/7/7 5/5/5 8/8/8
f 9/9/9 6/6/6 4/4/4
f 9/9/9 4/4/4 7/7/7
f 10/10/10 7/7/7 8/8/8
f 10/10/10 8/8/8 11/11/11
f 6/6/6 9/9/9 12/12/12
f 13/13/13 6/6/6 12/12/12
f 14/14/14 10/10/10 11/11/11
f 14/14/14 11/11/11 15/15/15
f 13/13/13 12/12/12 16/16/16
f 17/17/17 13/13/13 16/16/16
f 18/18/18 17/17/17 16/16/16
f 19/19/19 14/14/14 15/15/15
f 19/19/19 15/15/15 20/20/20
f 21/21/21 19/19/19 20/20/20
f 21/21/21 20/20/20 22/22/22
f 23/23/23 21/21/21 22/22/22
f 23/23/23 22/22/22 24/24/24
f 25/25/25 23/23/23 24/24/24
f 25/25/25 24/24/24 26/26/26
f 27/27/27 25/25/25 26/26/26
f 27/27/27 26/26/26 28/28/28
f 29/29/29 27/27/27 28/28/28
f 29/29/29 28/28/28 30/30/30
f 31/31/31 29/29/29 30/30/30
f 31/31/31 30/30/30 32/32/32
f 33/33/33 31/31/31 32/32/32
f 33/33/33 32/32/32 34/34/34
f 35/35/35 33/33/33 34/34/34
f 35/35/35 34/34/34 36/36/36
f 37/37/37 35/35/35 36/36/36
f 37/37/37 36/36/36 38/38/38
f 39/39/39 37/37/37 38/38/38
f 39/39/39 38/38/38 40/40/40
f 41/41/41 39/39/39 40/40/40
f 39/39/39 41/41/41 42/42/42
f 43/43/43 39/39/39 42/42/42
f 37/37/37 39/39/39 43/43/43
f 43/43/43 42/42/42 44/44/44
f 35/35/35 37/37/37 45/45/45
f 45/45/45 37/37/37 43/43/43
f 46/46/46 43/43/43 44/44/44
f 45/45/45 43/43/43 46/46/46
f 46/46/46 44/44/44 47/47/47
f 33/33/33 35/35/35 48/48/48
f 48/48/48 35/35/35 45/45/45
f 49/49/49 45/45/45 46/46/46
f 48/48/48 45/45/45 49/49/49
f 50/50/50 46/46/46 47/47/47
f 49/49/49 46/46/46 50/50/50
f 51/51/51 33/33/33 48/48/48
f 31/31/31 33/33/33 51/51/51
f 52/52/52 48/48/48 49/49/49
f 51/51/51 48/48/48 52/52/52
f 53/53/53 31/31/31 51/51/51
f 29/29/29 31/31/31 53/53/53
f 54/54/54 50/50/50 47/47/47
f 55/55/55 54/54/54 47/47/47
f 54/54/54 55/55/55 56/56/56
f 57/57/57 49/49/49 50/50/50
f 52/52/52 49/49/49 57/57/57
f 58/58/58 51/51/51 52/52/52
f 53/53/53 51/51/51 58/58/58
f 59/59/59 29/29/29 53/53/53
f 27/27/27 29/29/29 59/59/59
f 60/60/60 54/54/54 56/56/56
f 60/60/60 56/56/56 61/61/61
f 54/54/54 62/62/62 50/50/50
f 62/62/62 57/57/57 50/50/50
f 62/62/62 54/54/54 60/60/60
f 63/63/63 52/52/52 57/57/57
f 58/58/58 52/52/52 63/63/63
f 64/64/64 53/53/53 58/58/58
f 59/59/59 53/53/53 64/64/64
f 65/65/65 27/27/27 59/59/59
f 25/25/25 27/27/27 65/65/65
f 62/62/62 66/66/66 57/57/57
f 66/66/66 63/63/63 57/57/57
f 67/67/67 62/62/62 60/60/60
f 66/66/66 62/62/62 67/67/67
f 68/68/68 58/58/58 63/63/63
f 64/64/64 58/58/58 68/68/68
f 69/69/69 59/59/59 64/64/64
f 65/65/65 59/59/59 69/69/69
f 70/70/70 25/25/25 65/65/65
f 23/23/23 25/25/25 70/70/70
f 66/66/66 71/71/71 63/63/63
f 71/71/71 68/68/68 63/63/63
f 72/72/72 64/64/64 68/68/68
f 69/69/69 64/64/64 72/72/72
f 73/73/73 65/65/65 69/69/69
f 70/70/70 65/65/65 73/73/73
f 74/74/74 23/23/23 70/70/70
f 21/21/21 23/23/23 74/74/74
f 71/71/71 66/66/66 75/75/75
f 75/75/75 66/66/66 67/67/67
f 71/71/71 76/76/76 68/68/68
f 76/76/76 72/72/72 68/68/68
f 77/77/77 69/69/69 72/72/72
f 73/73/73 69/69/69 77/77/77
f 78/78/78 70/70/70 73/73/73
f 74/74/74 70/70/70 78/78/78
f 79/79/79 21/21/21 74/74/74
f 19/19/19 21/21/21 79/79/79
f 80/80/80 71/71/71 75/75/75
f 76/76/76 71/71/71 80/80/80
f 76/76/76 81/81/81 72/72/72
f 81/81/81 77/77/77 72/72/72
f 82/82/82 73/73/73 77/77/77
f 78/78/78 73/73/73 82/82/82
f 83/83/83 74/74/74 78/78/78
f 79/79/79 74/74/74 83/83/83
f 84/84/84 19/19/19 79/79/79
f 14/14/14 19/19/19 84/84/84
f 85/85/85 76/76/76 80/80/80
f 81/81/81 76/76/76 85/85/85
f 81/81/81 86/86/86 77/77/77
f 86/86/86 82/82/82 77/77/77
f 87/87/87 78/78/78 82/82/82
f 83/83/83 78/78/78 87/87/87
f 88/88/88 79/79/79 83/83/83
f 84/84/84 79/79/79 88/88/88
f 89/89/89 14/14/14 84/84/84
f 10/10/10 14/14/14 89/89/89
f 90/90/90 81/81/81 85/85/85
f 86/86/86 81/81/81 90/90/90
f 86/86/86 91/91/91 82/82/82
f 91/91/91 87/87/87 82/82/82
f 92/92/92 83/83/83 87/87/87
f 88/88/88 83/83/83 92/92/92
f 93/93/93 84/84/84 88/88/88
f 89/89/89 84/84/84 93/93/93
f 94/94/94 10/10/10 89/89/89
f 7/7/7 10/10/10 94/94/94
f 95/95/95 86/86/86 90/90/90
f 91/91/91 86/86/86 95/95/95
f 91/91/91 96/96/96 87/87/87
f 96/96/96 92/92/92 87/87/87
f 97/97/97 88/88/88 92/92/92
f 93/93/93 88/88/88 97/97/97
f 98/98/98 89/89/89 93/93/93
f 94/94/94 89/89/89 98/98/98
f 99/99/99 7/7/7 94/94/94
f 99/99/99 9/9/9 7/7/7
f 99/99/99 94/94/94 100/100/100
f 100/100/100 94/94/94 98/98/98
f 9/9/9 99/99/99 101/101/101
f 101/101/101 99/99/99 100/100/100
f 12/12/12 9/9/9 101/101/101
f 98/98/98 93/93/93 102/102/102
f 102/102/102 93/93/93 97/97/97
f 103/103/103 97/97/97 92/92/92
f 96/96/96 103/103/103 92/92/92
f 100/100/100 98/98/98 104/104/104
f 104/104/104 98/98/98 102/102/102
f 101/101/101 100/100/100 105/105/105
f 105/105/105 100/100/100 104/104/104
f 12/12/12 101/101/101 106/106/106
f 106/106/106 101/101/101 105/105/105
f 16/16/16 12/12/12 106/106/106
f 107/107/107 102/102/102 97/97/97
f 103/103/103 107/107/107 97/97/97
f 108/108/108 104/104/104 102/102/102
f 107/107/107 108/108/108 102/102/102
f 109/109/109 105/105/105 104/104/104
f 108/108/108 109/109/109 104/104/104
f 110/110/110 106/106/106 105/105/105
f 109/109/109 110/110/110 105/105/105
f 111/111/111 16/16/16 106/106/106
f 110/110/110 111/111/111 106/106/106
f 111/111/111 18/18/18 16/16/16
f 18/18/18 111/111/111 112/112/112
f 113/113/113 18/18/18 112/112/112
f 111/111/111 110/110/110 114/114/114
f 112/112/112 111/111/111 114/114/114
f 110/110/110 109/109/109 115/115/115
f 114/114/114 110/110/110 115/115/115
f 109/109/109 108/108/108 116/116/116
f 115/115/115 109/109/109 116/116/116
f 108/108/108 107/107/107 117/117/117
f 116/116/116 108/108/108 117/117/117
f 113/113/113 112/112/112 118/118/118
f 119/119/119 113/113/113 118/118/118
f 120/120/120 119/119/119 118/118/118
f 121/121/121 120/120/120 118/118/118
f 118/118/118 112/112/112 122/122/122
f 121/121/121 118/118/118 122/122/122
f 112/112/112 114/114/114 122/122/122
f 123/123/123 121/121/121 122/122/122
f 122/122/122 114/114/114 124/124/124
f 123/123/123 122/122/122 124/124/124
f 114/114/114 115/115/115 124/124/124
f 125/125/125 123/123/123 124/124/124
f 124/124/124 115/115/115 126/126/126
f 125/125/125 124/124/124 126/126/126
f 115/115/115 116/116/116 126/126/126
f 127/127/127 125/125/125 126/126/126
f 126/126/126 116/116/116 128/128/128
f 127/127/127 126/126/126 128/128/128
f 129/129/129 127/127/127 128/128/128
f 116/116/116 117/117/117 128/128/128
f 129/129/129 128/128/128 130/130/130
f 128/128/128 117/117/117 130/130/130
f 131/131/131 129/129/129 130/130/130
f 117/117/117 132/132/132 130/130/130
f 117/117/117 107/107/107 132/132/132
f 107/107/107 103/103/103 132/132/132
f 131/131/131 130/130/130 133/133/133
f 130/130/130 132/132/132 133/133/133
f 134/134/134 131/131/131 133/133/133
f 132/132/132 103/103/103 135/135/135
f 132/132/132 135/135/135 133/133/133
f 103/103/103 96/96/96 135/135/135
f 134/134/134 133/133/133 136/136/136
f 133/133/133 135/135/135 136/136/136
f 137/137/137 134/134/134 136/136/136
f 135/135/135 96/96/96 138/138/138
f 135/135/135 138/138/138 136/136/136
f 96/96/96 91/91/91 138/138/138
f 138/138/138 91/91/91 95/95/95
f 137/137/137 136/136/136 139/139/139
f 136/136/136 138/138/138 139/139/139
f 138/138/138 95/95/95 139/139/139
f 140/140/140 137/137/137 139/139/139
f 139/139/139 95/95/95 141/141/141
f 140/140/140 139/139/139 141/141/141
f 95/95/95 90/90/90 141/141/141
f 142/142/142 140/140/140 141/141/141
f 141/141/141 90/90/90 143/143/143
f 142/142/142 141/141/141 143/143/143
f 90/90/90 85/85/85 143/143/143
f 144/144/144 142/142/142 143/143/143
f 143/143/143 85/85/85 145/145/145
f 144/144/144 143/143/143 145/145/145
f 85/85/85 80/80/80 145/145/145
f 146/146/146 144/144/144 145/145/145
f 145/145/145 80/80/80 147/147/147
f 146/146/146 145/145/145 147/147/147
f 80/80/80 75/75/75 147/147/147
f 148/148/148 146/146/146 147/147/147
f 147/147/147 75/75/75 149/149/149
f 148/148/148 147/147/147 149/149/149
f 75/75/75 67/67/67 149/149/149
f 150/150/150 148/148/148 149/149/149
f 149/149/149 67/67/67 151/151/151
f 150/150/150 149/149/149 151/151/151
f 67/67/67 60/60/60 151/151/151
f 152/152/152 150/150/150 151/151/151
f 151/151/151 60/60/60 61/61/61
f 152/152/152 151/151/151 61/61/61
f 153/153/153 152/152/152 61/61/61
f 156/156/156 155/155/155 154/154/154
f 155/155/155 157/157/157 154/154/154
f 158/158/158 154/154/154 157/157/157
f 155/155/155 159/159/159 157/157/157
f 160/160/160 158/158/158 157/157/157
f 158/158/158 160/160/160 161/161/161
f 160/160/160 162/162/162 161/161/161
f 159/159/159 163/163/163 157/157/157
f 160/160/160 157/157/157 163/163/163
f 159/159/159 164/164/164 163/163/163
f 160/160/160 165/165/165 162/162/162
f 165/165/165 160/160/160 163/163/163
f 165/165/165 166/166/166 162/162/162
f 164/164/164 167/167/167 163/163/163
f 165/165/165 163/163/163 167/167/167
f 164/164/164 168/168/168 167/167/167
f 165/165/165 169/169/169 166/166/166
f 169/169/169 165/165/165 167/167/167
f 169/169/169 170/170/170 166/166/166
f 168/168/168 171/171/171 167/167/167
f 169/169/169 167/167/167 171/171/171
f 168/168/168 172/172/172 171/171/171
f 169/169/169 173/173/173 170/170/170
f 173/173/173 169/169/169 171/171/171
f 173/173/173 174/174/174 170/170/170
f 172/172/172 175/175/175 171/171/171
f 173/173/173 171/171/171 175/175/175
f 172/172/172 176/176/176 175/175/175
f 173/173/173 177/177/177 174/174/174
f 177/177/177 173/173/173 175/175/175
f 177/177/177 178/178/178 174/174/174
f 176/176/176 179/179/179 175/175/175
f 177/177/177 175/175/175 179/179/179
f 176/176/176 180/180/180 179/179/179
f 177/177/177 181/181/181 178/178/178
f 181/181/181 177/177/177 179/179/179
f 181/181/181 182/182/182 178/178/178
f 180/180/180 183/183/183 179/179/179
f 181/181/181 179/179/179 183/183/183
f 180/180/180 184/184/184 183/183/183
f 181/181/181 185/185/185 182/182/182
f 185/185/185 181/181/181 183/183/183
f 185/185/185 186/186/186 182/182/182
f 184/184/184 187/187/187 183/183/183
f 185/185/185 183/183/183 187/187/187
f 184/184/184 188/188/188 187/187/187
f 185/185/185 189/189/189 186/186/186
f 189/189/189 185/185/185 187/187/187
f 189/189/189 190/190/190 186/186/186
f 188/188/188 191/191/191 187/187/187
f 189/189/189 187/187/187 191/191/191
f 188/188/188 192/192/192 191/191/191
f 189/189/189 193/193/193 190/190/190
f 193/193/193 189/189/189 191/191/191
f 193/193/193 194/194/194 190/190/190
f 192/192/192 195/195/195 191/191/191
f 193/193/193 191/191/191 195/195/195
f 192/192/192 196/196/196 195/195/195
f 193/193/193 197/197/197 194/194/194
f 197/197/197 193/193/193 195/195/195
f 197/197/197 198/198/198 194/194/194
f 196/196/196 199/199/199 195/195/195
f 197/197/197 195/195/195 199/199/199
f 196/196/196 200/200/200 199/199/199
f 197/197/197 201/201/201 198/198/198
f 201/201/201 197/197/197 199/199/199
f 201/201/201 202/202/202 198/198/198
f 200/200/200 203/203/203 199/199/199
f 201/201/201 199/199/199 203/203/203
f 200/200/200 204/204/204 203/203/203
f 201/201/201 205/205/205 202/202/202
f 205/205/205 201/201/201 203/203/203
f 205/205/205 206/206/206 202/202/202
f 204/204/204 207/207/207 203/203/203
f 205/205/205 203/203/203 207/207/207
f 204/204/204 208/208/208 207/207/207
f 205/205/205 209/209/209 206/206/206
f 209/209/209 205/205/205 207/207/207
f 209/209/209 210/210/210 206/206/206
f 208/208/208 211/211/211 207/207/207
f 209/209/209 207/207/207 211/211/211
f 208/208/208 212/212/212 211/211/211
f 209/209/209 213/213/213 210/210/210
f 213/213/213 209/209/209 211/211/211
f 213/213/213 214/214/214 210/210/210
f 212/212/212 215/215/215 211/211/211
f 213/213/213 211/211/211 215/215/215
f 212/212/212 216/216/216 215/215/215
f 216/216/216 217/217/217 215/215/215
f 213/213/213 218/218/218 214/214/214
f 218/218/218 213/213/213 215/215/215
f 218/218/218 215/215/215 217/217/217
f 218/218/218 219/219/219 214/214/214
f 220/220/220 218/218/218 217/217/217
f 218/218/218 220/220/220 219/219/219
f 220/220/220 221/221/221 219/219/219
f 224/224/224 223/223/223 222/222/222
f 225/225/225 224/224/224 222/222/222
f 225/225/225 222/222/222 226/226/226
f 225/225/225 227/227/227 224/224/224
f 227/227/227 228/228/228 224/224/224
f 229/229/229 228/228/228 227/227/227
f 230/230/230 229/229/229 227/227/227
f 230/230/230 227/227/227 231/231/231
f 231/231/231 227/227/227 225/225/225
f 232/232/232 230/230/230 231/231/231
f 233/233/233 225/225/225 226/226/226
f 233/233/233 231/231/231 225/225/225
f 233/233/233 226/226/226 234/234/234
f 232/232/232 231/231/231 235/235/235
f 235/235/235 231/231/231 233/233/233
f 236/236/236 232/232/232 235/235/235
f 237/237/237 233/233/233 234/234/234
f 237/237/237 235/235/235 233/233/233
f 237/237/237 234/234/234 238/238/238
f 236/236/236 235/235/235 239/239/239
f 239/239/239 235/235/235 237/237/237
f 240/240/240 236/236/236 239/239/239
f 241/241/241 237/237/237 238/238/238
f 241/241/241 239/239/239 237/237/237
f 241/241/241 238/238/238 242/242/242
f 240/240/240 239/239/239 243/243/243
f 243/243/243 239/239/239 241/241/241
f 244/244/244 240/240/240 243/243/243
f 245/245/245 241/241/241 242/242/242
f 245/245/245 243/243/243 241/241/241
f 245/245/245 242/242/242 246/246/246
f 244/244/244 243/243/243 247/247/247
f 247/247/247 243/243/243 245/245/245
f 248/248/248 244/244/244 247/247/247
f 249/249/249 245/245/245 246/246/246
f 249/249/249 247/247/247 245/245/245
f 249/249/249 246/246/246 250/250/250
f 248/248/248 247/247/247 251/251/251
f 251/251/251 247/247/247 249/249/249
f 252/252/252 248/248/248 251/251/251
f 253/253/253 249/249/249 250/250/250
f 253/253/253 251/251/251 249/249/249
f 253/253/253 250/250/250 254/254/254
f 252/252/252 251/251/251 255/255/255
f 255/255/255 251/251/251 253/253/253
f 256/256/256 252/252/252 255/255/255
f 257/257/257 253/253/253 254/254/254
f 257/257/257 255/255/255 253/253/253
f 257/257/257 254/254/254 258/258/258
f 256/256/256 255/255/255 259/259/259
f 259/259/259 255/255/255 257/257/257
f 260/260/260 256/256/256 259/259/259
f 261/261/261 257/257/257 258/258/258
f 261/261/261 259/259/259 257/257/257
f 261/261/261 258/258/258 262/262/262
f 260/260/260 259/259/259 263/263/263
f 263/263/263 259/259/259 261/261/261
f 264/264/264 260/260/260 263/263/263
f 265/265/265 261/261/261 262/262/262
f 265/265/265 263/263/263 261/261/261
f 265/265/265 262/262/262 266/266/266
f 264/264/264 263/263/263 267/267/267
f 267/267/267 263/263/263 265/265/265
f 268/268/268 264/264/264 267/267/267
f 269/269/269 265/265/265 266/266/266
f 269/269/269 267/267/267 265/265/265
f 269/269/269 266/266/266 270/270/270
f 268/268/268 267/267/267 271/271/271
f 271/271/271 267/267/267 269/269/269
f 272/272/272 268/268/268 271/271/271
f 273/273/273 269/269/269 270/270/270
f 273/273/273 271/271/271 269/269/269
f 273/273/273 270/270/270 274/274/274
f 272/272/272 271/271/271 275/275/275
f 275/275/275 271/271/271 273/273/273
f 276/276/276 272/272/272 275/275/275
f 277/277/277 273/273/273 274/274/274
f 277/277/277 275/275/275 273/273/273
f 277/277/277 274/274/274 278/278/278
f 276/276/276 275/275/275 279/279/279
f 279/279/279 275/275/275 277/277/277
f 280/280/280 276/276/276 279/279/279
f 281/281/281 277/277/277 278/278/278
f 281/281/281 279/279/279 277/277/277
f 281/281/281 278/278/278 282/282/282
f 280/280/280 279/279/279 283/283/283
f 283/283/283 279/279/279 281/281/281
f 284/284/284 280/280/280 283/283/283
f 285/285/285 281/281/281 282/282/282
f 285/285/285 283/283/283 281/281/281
f 285/285/285 282/282/282 286/286/286
f 287/287/287 285/285/285 286/286/286
f 287/287/287 288/288/288 285/285/285
f 288/288/288 283/283/283 285/285/285
f 284/284/284 283/283/283 288/288/288
f 289/289/289 284/284/284 288/288/288
f 292/292/292 291/291/291 290/290/290
f 293/293/293 292/292/292 290/290/290
f 294/294/294 292/292/292 293/293/293
f 295/295/295 294/294/294 293/293/293
f 296/296/296 294/294/294 295/295/295
f 297/297/297 296/296/296 295/295/295
f 298/298/298 296/296/296 297/297/297
f 299/299/299 298/298/298 297/297/297
f 300/300/300 298/298/298 299/299/299
f 301/301/301 300/300/300 299/299/299
f 302/302/302 300/300/300 301/301/301
f 303/303/303 302/302/302 301/301/301
f 304/304/304 302/302/302 303/303/303
f 305/305/305 304/304/304 303/303/303
f 306/306/306 304/304/304 305/305/305
f 307/307/307 306/306/306 305/305/305
f 308/308/308 306/306/306 307/307/307
f 309/309/309 308/308/308 307/307/307
f 310/310/310 308/308/308 309/309/309
f 311/311/311 310/310/310 309/309/309
f 312/312/312 310/310/310 311/311/311
f 313/313/313 312/312/312 311/311/311
f 314/314/314 312/312/312 313/313/313
f 315/315/315 314/314/314 313/313/313
f 316/316/316 314/314/314 315/315/315
f 317/317/317 316/316/316 315/315/315
f 318/318/318 316/316/316 317/317/317
f 319/319/319 318/318/318 317/317/317
f 320/320/320 318/318/318 319/319/319
f 321/321/321 320/320/320 319/319/319
f 322/322/322 320/320/320 321/321/321
f 323/323/323 322/322/322 321/321/321
f 326/326/326 325/325/325 324/324/324
f 326/326/326 324/324/324 327/327/327
f 328/328/328 326/326/326 327/327/327
f 328/328/328 327/327/327 329/329/329
f 327/327/327 330/330/330 329/329/329
f 329/329/329 330/330/330 331/331/331
f 330/330/330 332/332/332 331/331/331
f 331/331/331 332/332/332 333/333/333
f 332/332/332 334/334/334 333/333/333
f 333/333/333 334/334/334 335/335/335
f 334/334/334 336/336/336 335/335/335
f 335/335/335 336/336/336 337/337/337
f 336/336/336 338/338/338 337/337/337
f 338/338/338 339/339/339 337/337/337
f 342/342/342 341/341/341 340/340/340
f 340/340/340 341/341/341 343/343/343
f 344/344/344 341/341/341 342/342/342
f 343/343/343 341/341/341 345/345/345
f 346/346/346 341/341/341 344/344/344
f 345/345/345 341/341/341 347/347/347
f 348/348/348 341/341/341 346/346/346
f 347/347/347 341/341/341 349/349/349
f 350/350/350 341/341/341 348/348/348
f 349/349/349 341/341/341 351/351/351
f 352/352/352 341/341/341 350/350/350
f 351/351/351 341/341/341 353/353/353
f 354/354/354 341/341/341 352/352/352
f 353/353/353 341/341/341 355/355/355
f 356/356/356 341/341/341 354/354/354
f 355/355/355 341/341/341 356/356/356
