g LiuXuanDe_Eye
v -0.17679055 -0.0635332316 6.92772102
v -0.164005697 -0.0661809444 6.95659113
v -0.160190806 -0.0969338119 6.95189428
v -0.170220748 -0.094010219 6.92648411
v -0.174234003 -0.0611974113 6.89575672
v -0.138342142 -0.0990758389 6.96670294
v -0.138939872 -0.0689141005 6.97405148
v -0.168871 -0.0915901735 6.8984375
v -0.160671771 -0.0618553683 6.86853695
v -0.112199388 -0.100861117 6.970191
v -0.10918124 -0.0712554082 6.97828245
v -0.157641992 -0.0925700814 6.87442255
v -0.135746256 -0.0637578294 6.85268307
v -0.0877907947 -0.102976903 6.96127319
v -0.0815057009 -0.073545441 6.96860886
v -0.136636451 -0.0945094749 6.85937595
v -0.107157797 -0.067051284 6.85008955
v -0.0658188984 -0.103695884 6.93499231
v -0.0566248894 -0.0745848715 6.93947172
v -0.110975146 -0.0979033336 6.85686398
v -0.0801976696 -0.0703453496 6.86014223
v -0.0613631234 -0.102972314 6.90967989
v -0.051344797 -0.0738652572 6.91080236
v -0.0874142051 -0.100786634 6.86518288
v -0.059995804 -0.0727873743 6.88203764
v -0.069564186 -0.102881983 6.88416004
v -0.149989665 -0.115761623 6.88362169
v -0.13409245 -0.117131852 6.87178755
v -0.114372864 -0.118448377 6.87019634
v -0.0964875072 -0.120157972 6.87609053
v -0.0837049931 -0.122233786 6.89057827
v -0.0776242986 -0.122502953 6.90963793
v -0.158635065 -0.114507958 6.90191841
v -0.0807922632 -0.123013206 6.9286685
v -0.158932179 -0.116104029 6.92283249
v -0.0967742354 -0.122689731 6.94841671
v -0.151007369 -0.118028477 6.94129324
v -0.114968136 -0.121477574 6.95512152
v -0.134717122 -0.120105505 6.95215273
v -0.0921360627 -0.13048391 6.92384386
v -0.103575617 -0.130245268 6.93776512
v -0.116601467 -0.129735023 6.94233704
v -0.130705342 -0.128616855 6.939888
v -0.142512545 -0.127062887 6.93216133
v -0.14867878 -0.126144305 6.91934013
v -0.0897431895 -0.130319118 6.9100194
v -0.148390487 -0.124665432 6.90466642
v -0.0940578431 -0.129788116 6.89645195
v -0.141747624 -0.124904685 6.89183474
v -0.103322707 -0.128121853 6.88604164
v -0.130699053 -0.12605153 6.88325357
v -0.116573237 -0.126804709 6.88197565
v -0.135036573 -0.133119404 6.91526604
v -0.135211363 -0.132632956 6.90788269
v -0.131798148 -0.132735491 6.90147257
v -0.126110569 -0.13345632 6.89714336
v -0.120625615 -0.136217549 6.91144657
v -0.131792247 -0.133618072 6.9218545
v -0.118843764 -0.134210721 6.89633226
v -0.111811064 -0.134635523 6.89857531
v -0.125682846 -0.134319976 6.92592144
v -0.106857151 -0.134890035 6.90400743
v -0.118429981 -0.134943143 6.92735767
v -0.10446766 -0.1351116 6.9109149
v -0.111659989 -0.135253191 6.92511892
v -0.105681263 -0.135304466 6.91800451
v 0.17679055 -0.0635332316 6.92772102
v 0.160190806 -0.0969338119 6.95189428
v 0.164005697 -0.0661809444 6.95659113
v 0.170220748 -0.094010219 6.92648411
v 0.174234003 -0.0611974113 6.89575672
v 0.138342142 -0.0990758389 6.96670294
v 0.138939872 -0.0689141005 6.97405148
v 0.168871 -0.0915901735 6.8984375
v 0.160671771 -0.0618553683 6.86853695
v 0.112199388 -0.100861117 6.970191
v 0.10918124 -0.0712554082 6.97828245
v 0.157641992 -0.0925700814 6.87442255
v 0.135746256 -0.0637578294 6.85268307
v 0.0877907947 -0.102976903 6.96127319
v 0.0815057009 -0.073545441 6.96860886
v 0.136636451 -0.0945094749 6.85937595
v 0.107157797 -0.067051284 6.85008955
v 0.0658188984 -0.103695884 6.93499231
v 0.0566248894 -0.0745848715 6.93947172
v 0.110975146 -0.0979033336 6.85686398
v 0.0801976696 -0.0703453496 6.86014223
v 0.0613631234 -0.102972314 6.90967989
v 0.051344797 -0.0738652572 6.91080236
v 0.0874142051 -0.100786634 6.86518288
v 0.059995804 -0.0727873743 6.88203764
v 0.069564186 -0.102881983 6.88416004
v 0.149989665 -0.115761623 6.88362169
v 0.13409245 -0.117131852 6.87178755
v 0.114372864 -0.118448377 6.87019634
v 0.0964875072 -0.120157972 6.87609053
v 0.0837049931 -0.122233786 6.89057827
v 0.0776242986 -0.122502953 6.90963793
v 0.158635065 -0.114507958 6.90191841
v 0.0807922632 -0.123013206 6.9286685
v 0.158932179 -0.116104029 6.92283249
v 0.0967742354 -0.122689731 6.94841671
v 0.151007369 -0.118028477 6.94129324
v 0.114968136 -0.121477574 6.95512152
v 0.134717122 -0.120105505 6.95215273
v 0.0921360627 -0.13048391 6.92384386
v 0.103575617 -0.130245268 6.93776512
v 0.116601467 -0.129735023 6.94233704
v 0.130705342 -0.128616855 6.939888
v 0.142512545 -0.127062887 6.93216133
v 0.14867878 -0.126144305 6.91934013
v 0.0897431895 -0.130319118 6.9100194
v 0.148390487 -0.124665432 6.90466642
v 0.0940578431 -0.129788116 6.89645195
v 0.141747624 -0.124904685 6.89183474
v 0.103322707 -0.128121853 6.88604164
v 0.130699053 -0.12605153 6.88325357
v 0.116573237 -0.126804709 6.88197565
v 0.135036573 -0.133119404 6.91526604
v 0.135211363 -0.132632956 6.90788269
v 0.131798148 -0.132735491 6.90147257
v 0.126110569 -0.13345632 6.89714336
v 0.120625615 -0.136217549 6.91144657
v 0.131792247 -0.133618072 6.9218545
v 0.118843764 -0.134210721 6.89633226
v 0.111811064 -0.134635523 6.89857531
v 0.125682846 -0.134319976 6.92592144
v 0.106857151 -0.134890035 6.90400743
v 0.118429981 -0.134943143 6.92735767
v 0.10446766 -0.1351116 6.9109149
v 0.111659989 -0.135253191 6.92511892
v 0.105681263 -0.135304466 6.91800451
vt 0.901906848 0.505155563
vt 0.853157401 0.695159197
vt 0.737547994 0.638410807
vt 0.771762013 0.514278829
vt 0.857491851 0.314924717
vt 0.651259899 0.726913989
vt 0.723863125 0.838397264
vt 0.74567467 0.383554041
vt 0.734592557 0.176037431
vt 0.534006417 0.769365191
vt 0.54368782 0.895952225
vt 0.662090063 0.284306496
vt 0.567671597 0.108413219
vt 0.409790456 0.749240041
vt 0.362482846 0.86575532
vt 0.545164585 0.23235473
vt 0.388665229 0.116682053
vt 0.280072272 0.64772594
vt 0.179065645 0.726598024
vt 0.421022534 0.242457226
vt 0.22514385 0.206588924
vt 0.233086228 0.533305705
vt 0.107832491 0.558365822
vt 0.318837106 0.303479731
vt 0.1242522 0.370295644
vt 0.249455601 0.406557918
vt 0.603293538 0.366059691
vt 0.528954625 0.329989851
vt 0.44845289 0.336204618
vt 0.382737815 0.371963918
vt 0.342788637 0.438410163
vt 0.331175148 0.518535554
vt 0.656395674 0.431107074
vt 0.36195296 0.590452075
vt 0.671493649 0.512573659
vt 0.44255504 0.655309975
vt 0.652629614 0.588827789
vt 0.521076322 0.668708801
vt 0.596445739 0.642766654
vt 0.406369925 0.561177909
vt 0.4611727 0.603434801
vt 0.513866544 0.611975789
vt 0.565077603 0.59468925
vt 0.603493512 0.558925331
vt 0.616052389 0.50782907
vt 0.385818481 0.512066782
vt 0.605543911 0.453628391
vt 0.39196074 0.458058119
vt 0.569957197 0.410488278
vt 0.418633699 0.412133873
vt 0.520468771 0.385237604
vt 0.465365261 0.387767851
vt 0.557919085 0.503094614
vt 0.552894711 0.476649672
vt 0.535424292 0.455917925
vt 0.511178911 0.443661273
vt 0.500578046 0.499916673
vt 0.551516056 0.528694212
vt 0.484035969 0.444914341
vt 0.460169077 0.457041085
vt 0.532506585 0.54669416
vt 0.446329832 0.479717553
vt 0.507275164 0.555642545
vt 0.44312197 0.506249368
vt 0.481003135 0.551541448
vt 0.453286111 0.530608296
vt 0.901906848 0.505155563
vt 0.737547994 0.638410807
vt 0.853157401 0.695159197
vt 0.771762013 0.514278829
vt 0.857491851 0.314924717
vt 0.651259899 0.726913989
vt 0.723863125 0.838397264
vt 0.74567467 0.383554041
vt 0.734592557 0.176037431
vt 0.534006417 0.769365191
vt 0.54368782 0.895952225
vt 0.662090063 0.284306496
vt 0.567671597 0.108413219
vt 0.409790456 0.749240041
vt 0.362482846 0.86575532
vt 0.545164585 0.23235473
vt 0.388665229 0.116682053
vt 0.280072272 0.64772594
vt 0.179065645 0.726598024
vt 0.421022534 0.242457226
vt 0.22514385 0.206588924
vt 0.233086228 0.533305705
vt 0.107832491 0.558365822
vt 0.318837106 0.303479731
vt 0.1242522 0.370295644
vt 0.249455601 0.406557918
vt 0.603293538 0.366059691
vt 0.528954625 0.329989851
vt 0.44845289 0.336204618
vt 0.382737815 0.371963918
vt 0.342788637 0.438410163
vt 0.331175148 0.518535554
vt 0.656395674 0.431107074
vt 0.36195296 0.590452075
vt 0.671493649 0.512573659
vt 0.44255504 0.655309975
vt 0.652629614 0.588827789
vt 0.521076322 0.668708801
vt 0.596445739 0.642766654
vt 0.406369925 0.561177909
vt 0.4611727 0.603434801
vt 0.513866544 0.611975789
vt 0.565077603 0.59468925
vt 0.603493512 0.558925331
vt 0.616052389 0.50782907
vt 0.385818481 0.512066782
vt 0.605543911 0.453628391
vt 0.39196074 0.458058119
vt 0.569957197 0.410488278
vt 0.418633699 0.412133873
vt 0.520468771 0.385237604
vt 0.465365261 0.387767851
vt 0.557919085 0.503094614
vt 0.552894711 0.476649672
vt 0.535424292 0.455917925
vt 0.511178911 0.443661273
vt 0.500578046 0.499916673
vt 0.551516056 0.528694212
vt 0.484035969 0.444914341
vt 0.460169077 0.457041085
vt 0.532506585 0.54669416
vt 0.446329832 0.479717553
vt 0.507275164 0.555642545
vt 0.44312197 0.506249368
vt 0.481003135 0.551541448
vt 0.453286111 0.530608296
vn -0.971078455 -0.196818084 0.135163337
vn -0.776280344 -0.202170491 0.597089529
vn -0.740268767 -0.364963859 0.564626932
vn -0.934780002 -0.327923 0.136575267
vn -0.945957065 -0.19021818 -0.262644798
vn -0.359190196 -0.397839755 0.844219148
vn -0.371314794 -0.225892335 0.900609732
vn -0.921849549 -0.304617345 -0.239586309
vn -0.744217038 -0.189249665 -0.640566707
vn 0.0608602129 -0.430438399 0.900565743
vn 0.0765096992 -0.270428896 0.959694922
vn -0.735408247 -0.31422177 -0.600365996
vn -0.346905142 -0.199916601 -0.916346133
vn 0.487244815 -0.465589821 0.7387954
vn 0.525283039 -0.310317129 0.792326391
vn -0.353781492 -0.33961904 -0.871491551
vn 0.0942471027 -0.223308951 -0.97018069
vn 0.794845283 -0.483200073 0.367067695
vn 0.853780031 -0.329889268 0.402781427
vn 0.072653994 -0.379485697 -0.922340453
vn 0.512293696 -0.25884217 -0.818874776
vn 0.876917899 -0.475763142 -0.0682965368
vn 0.944500029 -0.322540313 -0.0623494089
vn 0.462191045 -0.421175569 -0.78037852
vn 0.821242213 -0.295606703 -0.488034755
vn 0.755793989 -0.458340645 -0.467653066
vn -0.637707651 -0.605840921 -0.475695014
vn -0.319112659 -0.643706799 -0.695563495
vn 0.0246347263 -0.675694883 -0.736769676
vn 0.325095057 -0.705481648 -0.629768908
vn 0.56585151 -0.732593358 -0.3783108
vn 0.670518219 -0.739172995 -0.0634715632
vn -0.794272721 -0.573872387 -0.199502647
vn 0.607481539 -0.745229602 0.27495262
vn -0.793632627 -0.600607932 0.0970433578
vn 0.365796447 -0.738319278 0.566637039
vn -0.620037973 -0.6587165 0.42619881
vn 0.0216233507 -0.719765067 0.693880916
vn -0.312433213 -0.700655699 0.641457021
vn 0.395029664 -0.901426971 0.177147016
vn 0.229267329 -0.900962055 0.3683801
vn -0.0157965962 -0.892828643 0.450119317
vn -0.248972937 -0.876909018 0.411148518
vn -0.452011496 -0.847948253 0.276892066
vn -0.579759836 -0.813105226 0.0523305386
vn 0.437805384 -0.897456348 -0.0538376495
vn -0.586061418 -0.793614507 -0.163425416
vn 0.361472547 -0.891441226 -0.273258448
vn -0.477427036 -0.813427031 -0.332264662
vn 0.192220539 -0.8706581 -0.452775568
vn -0.254184067 -0.840000093 -0.479364455
vn -0.00977880508 -0.850978732 -0.525109112
vn -0.353349894 -0.935450852 0.00868352316
vn -0.371579289 -0.920245469 -0.122788578
vn -0.328315794 -0.92146486 -0.207632467
vn -0.207222104 -0.934716046 -0.288729817
vn -0.0808594227 -0.996289015 -0.0294971038
vn -0.286214292 -0.94776392 0.140801385
vn -0.0437983051 -0.947414398 -0.316997945
vn 0.0877740532 -0.959702313 -0.266959161
vn -0.18066074 -0.961137474 0.208749756
vn 0.171992347 -0.97258538 -0.156513616
vn -0.0452452339 -0.972076595 0.230260432
vn 0.2079501 -0.977213085 -0.0425620005
vn 0.0995715633 -0.977636278 0.185237169
vn 0.187871426 -0.978840351 0.08109124
vn 0.971078455 -0.196818084 0.135163337
vn 0.740268767 -0.364963859 0.564626932
vn 0.776280344 -0.202170491 0.597089529
vn 0.934780002 -0.32792303 0.136575282
vn 0.945957065 -0.190218151 -0.262644798
vn 0.359190196 -0.397839755 0.844219148
vn 0.371314794 -0.225892335 0.900609732
vn 0.921849549 -0.304617345 -0.239586309
vn 0.744217038 -0.189249665 -0.640566707
vn -0.0608602203 -0.430438429 0.900565863
vn -0.0765096992 -0.270428896 0.959694922
vn 0.735408247 -0.31422177 -0.600365996
vn 0.346905082 -0.199916586 -0.916346133
vn -0.487244815 -0.465589762 0.7387954
vn -0.525283039 -0.310317129 0.792326391
vn 0.353781521 -0.33961904 -0.871491551
vn -0.0942471027 -0.223308951 -0.97018069
vn -0.794845283 -0.483200014 0.367067695
vn -0.853780031 -0.329889238 0.402781427
vn -0.0726540089 -0.379485697 -0.922340453
vn -0.512293696 -0.25884217 -0.818874776
vn -0.876917899 -0.475763142 -0.0682965517
vn -0.944500029 -0.322540313 -0.0623494238
vn -0.462191045 -0.421175569 -0.78037852
vn -0.821242213 -0.295606703 -0.488034755
vn -0.755793989 -0.458340645 -0.467653066
vn 0.637707651 -0.605840921 -0.475695014
vn 0.319112599 -0.643706799 -0.695563555
vn -0.0246347301 -0.675694883 -0.736769676
vn -0.325095057 -0.705481648 -0.629768908
vn -0.56585151 -0.732593358 -0.3783108
vn -0.670518219 -0.739172995 -0.0634715557
vn 0.794272721 -0.573872387 -0.199502647
vn -0.607481539 -0.745229602 0.27495262
vn 0.793632627 -0.600607932 0.0970433578
vn -0.365796417 -0.738319278 0.566637039
vn 0.620037973 -0.658716559 0.42619884
vn -0.0216233544 -0.719765067 0.693880916
vn 0.312433213 -0.700655699 0.641457021
vn -0.395029694 -0.901426971 0.177147031
vn -0.229267329 -0.900962055 0.3683801
vn 0.0157965869 -0.892828643 0.450119317
vn 0.248972997 -0.876909018 0.411148518
vn 0.452011496 -0.847948253 0.276892066
vn 0.579759836 -0.813105226 0.0523305386
vn -0.437805384 -0.897456348 -0.053837657
vn 0.586061418 -0.793614507 -0.163425416
vn -0.361472607 -0.891441226 -0.273258448
vn 0.477427036 -0.813427031 -0.332264662
vn -0.192220539 -0.8706581 -0.452775657
vn 0.254184067 -0.840000093 -0.479364455
vn 0.00977880973 -0.850978732 -0.525109112
vn 0.353349894 -0.935450852 0.00868352316
vn 0.371579289 -0.920245469 -0.122788578
vn 0.328315794 -0.92146486 -0.207632497
vn 0.207222089 -0.934716046 -0.288729817
vn 0.0808594227 -0.996289015 -0.0294971038
vn 0.286214322 -0.94776392 0.140801385
vn 0.0437982939 -0.947414398 -0.316997945
vn -0.0877740532 -0.959702313 -0.266959161
vn 0.18066074 -0.961137474 0.208749756
vn -0.171992362 -0.97258538 -0.156513616
vn 0.0452452302 -0.972076595 0.230260447
vn -0.207950115 -0.977212965 -0.0425619967
vn -0.0995715633 -0.977636278 0.185237184
vn -0.187871426 -0.978840351 0.08109124
g LiuXuanDe_Eye_0
f 3/3/3 2/2/2 1/1/1
f 4/4/4 3/3/3 1/1/1
f 4/4/4 1/1/1 5/5/5
f 3/3/3 6/6/6 2/2/2
f 6/6/6 7/7/7 2/2/2
f 8/8/8 4/4/4 5/5/5
f 8/8/8 5/5/5 9/9/9
f 6/6/6 10/10/10 7/7/7
f 10/10/10 11/11/11 7/7/7
f 12/12/12 8/8/8 9/9/9
f 12/12/12 9/9/9 13/13/13
f 10/10/10 14/14/14 11/11/11
f 14/14/14 15/15/15 11/11/11
f 16/16/16 12/12/12 13/13/13
f 16/16/16 13/13/13 17/17/17
f 14/14/14 18/18/18 15/15/15
f 18/18/18 19/19/19 15/15/15
f 20/20/20 16/16/16 17/17/17
f 20/20/20 17/17/17 21/21/21
f 18/18/18 22/22/22 19/19/19
f 22/22/22 23/23/23 19/19/19
f 24/24/24 20/20/20 21/21/21
f 24/24/24 21/21/21 25/25/25
f 26/26/26 25/25/25 23/23/23
f 22/22/22 26/26/26 23/23/23
f 26/26/26 24/24/24 25/25/25
f 27/27/27 12/12/12 16/16/16
f 28/28/28 16/16/16 20/20/20
f 28/28/28 27/27/27 16/16/16
f 29/29/29 20/20/20 24/24/24
f 29/29/29 28/28/28 20/20/20
f 30/30/30 24/24/24 26/26/26
f 30/30/30 29/29/29 24/24/24
f 31/31/31 26/26/26 22/22/22
f 31/31/31 30/30/30 26/26/26
f 32/32/32 22/22/22 18/18/18
f 32/32/32 31/31/31 22/22/22
f 27/27/27 33/33/33 12/12/12
f 33/33/33 8/8/8 12/12/12
f 34/34/34 32/32/32 18/18/18
f 34/34/34 18/18/18 14/14/14
f 33/33/33 35/35/35 8/8/8
f 35/35/35 4/4/4 8/8/8
f 36/36/36 34/34/34 14/14/14
f 36/36/36 14/14/14 10/10/10
f 35/35/35 37/37/37 4/4/4
f 37/37/37 3/3/3 4/4/4
f 38/38/38 36/36/36 10/10/10
f 38/38/38 10/10/10 6/6/6
f 39/39/39 6/6/6 3/3/3
f 37/37/37 39/39/39 3/3/3
f 39/39/39 38/38/38 6/6/6
f 34/34/34 40/40/40 32/32/32
f 36/36/36 41/41/41 34/34/34
f 41/41/41 40/40/40 34/34/34
f 38/38/38 42/42/42 36/36/36
f 42/42/42 41/41/41 36/36/36
f 39/39/39 43/43/43 38/38/38
f 43/43/43 42/42/42 38/38/38
f 37/37/37 44/44/44 39/39/39
f 44/44/44 43/43/43 39/39/39
f 35/35/35 45/45/45 37/37/37
f 45/45/45 44/44/44 37/37/37
f 40/40/40 46/46/46 32/32/32
f 32/32/32 46/46/46 31/31/31
f 47/47/47 45/45/45 35/35/35
f 33/33/33 47/47/47 35/35/35
f 46/46/46 48/48/48 31/31/31
f 31/31/31 48/48/48 30/30/30
f 49/49/49 47/47/47 33/33/33
f 27/27/27 49/49/49 33/33/33
f 48/48/48 50/50/50 30/30/30
f 30/30/30 50/50/50 29/29/29
f 51/51/51 49/49/49 27/27/27
f 28/28/28 51/51/51 27/27/27
f 29/29/29 52/52/52 28/28/28
f 50/50/50 52/52/52 29/29/29
f 52/52/52 51/51/51 28/28/28
f 53/53/53 45/45/45 47/47/47
f 54/54/54 47/47/47 49/49/49
f 54/54/54 53/53/53 47/47/47
f 55/55/55 49/49/49 51/51/51
f 55/55/55 54/54/54 49/49/49
f 56/56/56 51/51/51 52/52/52
f 56/56/56 55/55/55 51/51/51
f 54/54/54 55/55/55 57/57/57
f 53/53/53 54/54/54 57/57/57
f 55/55/55 56/56/56 57/57/57
f 53/53/53 58/58/58 45/45/45
f 58/58/58 53/53/53 57/57/57
f 56/56/56 59/59/59 57/57/57
f 59/59/59 56/56/56 52/52/52
f 59/59/59 52/52/52 50/50/50
f 59/59/59 60/60/60 57/57/57
f 60/60/60 59/59/59 50/50/50
f 58/58/58 44/44/44 45/45/45
f 60/60/60 50/50/50 48/48/48
f 58/58/58 61/61/61 44/44/44
f 58/58/58 57/57/57 61/61/61
f 61/61/61 43/43/43 44/44/44
f 62/62/62 60/60/60 48/48/48
f 60/60/60 62/62/62 57/57/57
f 62/62/62 48/48/48 46/46/46
f 61/61/61 63/63/63 43/43/43
f 63/63/63 61/61/61 57/57/57
f 63/63/63 42/42/42 43/43/43
f 64/64/64 62/62/62 46/46/46
f 62/62/62 64/64/64 57/57/57
f 64/64/64 46/46/46 40/40/40
f 63/63/63 65/65/65 42/42/42
f 65/65/65 63/63/63 57/57/57
f 65/65/65 41/41/41 42/42/42
f 66/66/66 40/40/40 41/41/41
f 66/66/66 64/64/64 40/40/40
f 64/64/64 66/66/66 57/57/57
f 65/65/65 66/66/66 41/41/41
f 66/66/66 65/65/65 57/57/57
f 69/69/69 68/68/68 67/67/67
f 68/68/68 70/70/70 67/67/67
f 67/67/67 70/70/70 71/71/71
f 72/72/72 68/68/68 69/69/69
f 73/73/73 72/72/72 69/69/69
f 70/70/70 74/74/74 71/71/71
f 71/71/71 74/74/74 75/75/75
f 76/76/76 72/72/72 73/73/73
f 77/77/77 76/76/76 73/73/73
f 74/74/74 78/78/78 75/75/75
f 75/75/75 78/78/78 79/79/79
f 80/80/80 76/76/76 77/77/77
f 81/81/81 80/80/80 77/77/77
f 78/78/78 82/82/82 79/79/79
f 79/79/79 82/82/82 83/83/83
f 84/84/84 80/80/80 81/81/81
f 85/85/85 84/84/84 81/81/81
f 82/82/82 86/86/86 83/83/83
f 83/83/83 86/86/86 87/87/87
f 88/88/88 84/84/84 85/85/85
f 89/89/89 88/88/88 85/85/85
f 86/86/86 90/90/90 87/87/87
f 87/87/87 90/90/90 91/91/91
f 91/91/91 92/92/92 89/89/89
f 92/92/92 88/88/88 89/89/89
f 90/90/90 92/92/92 91/91/91
f 78/78/78 93/93/93 82/82/82
f 82/82/82 94/94/94 86/86/86
f 93/93/93 94/94/94 82/82/82
f 86/86/86 95/95/95 90/90/90
f 94/94/94 95/95/95 86/86/86
f 90/90/90 96/96/96 92/92/92
f 95/95/95 96/96/96 90/90/90
f 92/92/92 97/97/97 88/88/88
f 96/96/96 97/97/97 92/92/92
f 88/88/88 98/98/98 84/84/84
f 97/97/97 98/98/98 88/88/88
f 99/99/99 93/93/93 78/78/78
f 74/74/74 99/99/99 78/78/78
f 98/98/98 100/100/100 84/84/84
f 84/84/84 100/100/100 80/80/80
f 101/101/101 99/99/99 74/74/74
f 70/70/70 101/101/101 74/74/74
f 100/100/100 102/102/102 80/80/80
f 80/80/80 102/102/102 76/76/76
f 103/103/103 101/101/101 70/70/70
f 68/68/68 103/103/103 70/70/70
f 102/102/102 104/104/104 76/76/76
f 76/76/76 104/104/104 72/72/72
f 72/72/72 105/105/105 68/68/68
f 105/105/105 103/103/103 68/68/68
f 104/104/104 105/105/105 72/72/72
f 106/106/106 100/100/100 98/98/98
f 107/107/107 102/102/102 100/100/100
f 106/106/106 107/107/107 100/100/100
f 108/108/108 104/104/104 102/102/102
f 107/107/107 108/108/108 102/102/102
f 109/109/109 105/105/105 104/104/104
f 108/108/108 109/109/109 104/104/104
f 110/110/110 103/103/103 105/105/105
f 109/109/109 110/110/110 105/105/105
f 111/111/111 101/101/101 103/103/103
f 110/110/110 111/111/111 103/103/103
f 112/112/112 106/106/106 98/98/98
f 112/112/112 98/98/98 97/97/97
f 111/111/111 113/113/113 101/101/101
f 113/113/113 99/99/99 101/101/101
f 114/114/114 112/112/112 97/97/97
f 114/114/114 97/97/97 96/96/96
f 113/113/113 115/115/115 99/99/99
f 115/115/115 93/93/93 99/99/99
f 116/116/116 114/114/114 96/96/96
f 116/116/116 96/96/96 95/95/95
f 115/115/115 117/117/117 93/93/93
f 117/117/117 94/94/94 93/93/93
f 118/118/118 95/95/95 94/94/94
f 118/118/118 116/116/116 95/95/95
f 117/117/117 118/118/118 94/94/94
f 111/111/111 119/119/119 113/113/113
f 113/113/113 120/120/120 115/115/115
f 119/119/119 120/120/120 113/113/113
f 115/115/115 121/121/121 117/117/117
f 120/120/120 121/121/121 115/115/115
f 117/117/117 122/122/122 118/118/118
f 121/121/121 122/122/122 117/117/117
f 121/121/121 120/120/120 123/123/123
f 120/120/120 119/119/119 123/123/123
f 122/122/122 121/121/121 123/123/123
f 124/124/124 119/119/119 111/111/111
f 119/119/119 124/124/124 123/123/123
f 125/125/125 122/122/122 123/123/123
f 122/122/122 125/125/125 118/118/118
f 118/118/118 125/125/125 116/116/116
f 126/126/126 125/125/125 123/123/123
f 125/125/125 126/126/126 116/116/116
f 110/110/110 124/124/124 111/111/111
f 116/116/116 126/126/126 114/114/114
f 127/127/127 124/124/124 110/110/110
f 123/123/123 124/124/124 127/127/127
f 109/109/109 127/127/127 110/110/110
f 126/126/126 128/128/128 114/114/114
f 128/128/128 126/126/126 123/123/123
f 114/114/114 128/128/128 112/112/112
f 129/129/129 127/127/127 109/109/109
f 127/127/127 129/129/129 123/123/123
f 108/108/108 129/129/129 109/109/109
f 128/128/128 130/130/130 112/112/112
f 130/130/130 128/128/128 123/123/123
f 112/112/112 130/130/130 106/106/106
f 131/131/131 129/129/129 108/108/108
f 129/129/129 131/131/131 123/123/123
f 107/107/107 131/131/131 108/108/108
f 106/106/106 132/132/132 107/107/107
f 130/130/130 132/132/132 106/106/106
f 132/132/132 130/130/130 123/123/123
f 132/132/132 131/131/131 107/107/107
f 131/131/131 132/132/132 123/123/123
