g ZhangFei_baozi
v 3.31498704E-05 -0.00103847496 -0.516421556
v 0.247567669 -0.247198045 -0.50432092
v 0.349153012 -5.69072836E-05 -0.505066335
v 0.539202094 -0.222310975 -0.414164126
v 0.413345337 -0.411775619 -0.413598359
v 0.493815064 -0.491479456 -0.309405863
v 0.644153297 -0.265111834 -0.310133845
v 0.686763287 -0.282287508 -0.182294682
v 0.526494682 -0.523650229 -0.18147257
v 0.683488905 -0.280577093 -0.0545127578
v 0.525030315 -0.521792471 -0.0507814065
v 0.629476309 -0.258006155 0.0733390078
v 0.484569818 -0.481148899 0.0796472132
v 0.740513742 0.00241873902 -0.0523684025
v 0.742569923 0.00201132707 -0.183058679
v 0.696472168 0.00154254644 -0.310892969
v 0.58297056 0.000891151431 -0.41484192
v 0.537989259 0.223853931 -0.415529013
v 0.558464408 -0.240988433 0.152386203
v 0.429148078 -0.442510664 0.158560261
v 0.246229306 0.246531531 -0.505831242
v 3.31498704E-05 -0.00103847496 -0.516421556
v 0.458478659 -0.211811915 0.231527984
v 0.351436377 -0.381374836 0.237266675
v 0.140163854 -0.174605653 0.341996193
v 0.685228169 0.286003619 -0.184035718
v 0.642710149 0.267910153 -0.311765939
v 0.681996763 0.285029888 -0.0562493652
v 0.522207737 0.525463641 -0.0539984889
v 0.523654401 0.526493728 -0.18468833
v 0.491149396 0.493458062 -0.312420756
v 0.628136575 0.262929142 0.0717363283
v 0.411111444 0.412631154 -0.416120172
v 0.221649781 0.538483024 -0.416526377
v 0.282289296 0.68676126 -0.185305566
v 0.683457553 0.00267780526 0.0781771243
v 0.617337227 -0.00905180722 0.157251507
v -0.000907422509 0.348114699 -0.506168723
v 0.264782608 0.643792927 -0.312957108
v 0.566368639 0.224917695 0.150985301
v 0.519548237 -0.0206340291 0.23618643
v 0.47551325 0.175015941 0.23040244
v 0.238389581 -0.00722337095 0.323540747
v 0.176009461 0.16293323 0.336766243
v 0.112389565 -0.00200678292 0.418148935
v 0.0723352358 -0.0884733871 0.419175476
v 0.00105018797 0.0039208564 0.516421735
v 0.383302689 0.353345215 0.235050708
v 0.443886518 0.430536002 0.155893907
v 0.0885371193 0.0828979686 0.418759793
v 0.481974393 0.485437602 0.0766676962
v 0.213962972 0.460609704 0.229536563
v 0.0195663814 0.118283689 0.420528442
v 0.242474511 0.559965789 0.149940625
v 0.25882712 0.630346537 0.0705663487
v 0.0394501165 0.240322426 0.335109621
v 0.0224813595 0.52143234 0.234507933
v -0.0371888541 0.106475979 0.422318757
v -0.10516201 0.233210862 0.346988559
v 0.010377679 0.618713379 0.155274227
v 0.280988932 0.683923483 -0.0575161353
v -0.00201418623 0.740945935 -0.0547171757
v -0.0937115923 0.041842103 0.423432827
v -0.172895148 0.477558047 0.229440212
v -0.00187097874 0.684326172 0.0760029331
v -0.223451793 0.567821443 0.149865493
v -0.351475716 0.385118484 0.234882101
v -0.262119144 0.628997564 0.0705155283
v -0.00200844021 0.742565453 -0.185407028
v -0.235461324 0.109713674 0.331945807
v -0.429199368 0.445217073 0.155759543
v -0.284624368 0.682424247 -0.0575724877
v -0.525062144 0.522630692 -0.0541021377
v -0.0018718628 0.696112514 -0.313094348
v -0.286002517 0.685222387 -0.185362816
v -0.00155185605 0.582255244 -0.416684419
v -0.268240809 0.642350078 -0.313010603
v -0.224516138 0.537275732 -0.416571021
v -0.526495099 0.523654878 -0.184793741
v -0.49379164 0.490792632 -0.312519312
v -0.247496501 0.245192423 -0.505881011
v -0.484632134 0.482821107 0.0765735507
v -0.68676281 0.282291383 -0.184172735
v -0.413295805 0.410397291 -0.41620326
v -0.644129038 0.264426231 -0.311894536
v -0.539151728 0.220935658 -0.415637076
v -0.34908098 -0.00194947491 -0.505135953
v -0.246157691 -0.248532191 -0.504370451
v 0.000978142256 -0.350119531 -0.504033208
v -0.558441401 0.24392502 0.150799438
v -0.629528463 0.259682953 0.0716101378
v -0.683515429 0.28141737 -0.0563855022
v -0.740537643 -0.00158749218 -0.0525149256
v -0.742569506 -0.00200842647 -0.183207855
v -0.696447432 -0.00222921837 -0.311032444
v -0.582920194 -0.0022674927 -0.414959073
v -0.537940204 -0.225228339 -0.414271712
v -0.685227334 -0.286005795 -0.182432592
v -0.642685354 -0.268598378 -0.310262918
v -0.411060184 -0.414004922 -0.413681239
v -0.221599817 -0.539860606 -0.41327548
v -0.491124213 -0.494145483 -0.309504688
v -0.264758319 -0.644480705 -0.309071511
v -0.523654401 -0.52649492 -0.181578428
v 0.00160135981 -0.583629608 -0.413117021
v -0.282290608 -0.686758935 -0.181161404
v -0.522223175 -0.524626315 -0.0508861579
v -0.682015777 -0.284194231 -0.0546491146
v -0.628174603 -0.261255294 0.0732150301
v -0.281008363 -0.683074832 -0.053381905
v 0.00198987639 -0.740100443 -0.0501681305
v 0.00200932426 -0.742565393 -0.180859968
v -0.258865565 -0.628652513 0.0743834525
v 0.0018970567 -0.696799576 -0.308830857
v 0.28600207 -0.68522191 -0.181105033
v 0.268265128 -0.643036723 -0.309018463
v -0.683504879 -0.00101738342 0.0780440867
v -0.617330611 0.0117186457 0.157064319
v -0.482006222 -0.48376143 0.0795510784
v -0.566294372 -0.221955314 0.152201667
v -0.443844974 -0.427809566 0.158426344
v 0.224566072 -0.538649619 -0.413230628
v 0.247567669 -0.247198045 -0.50432092
v 3.31498704E-05 -0.00103847496 -0.516421556
v 0.413345337 -0.411775619 -0.413598359
v 0.493815064 -0.491479456 -0.309405863
v 0.526494682 -0.523650229 -0.18147257
v 0.525030315 -0.521792471 -0.0507814065
v 0.284597397 -0.681578577 -0.0533262081
v 0.262066096 -0.627307177 0.0744345039
v 0.484569818 -0.481148899 0.0796472132
v 0.429148078 -0.442510664 0.158560261
v 0.00182235893 -0.682635665 0.0802149549
v 0.223430127 -0.564836621 0.153319702
v 0.351436377 -0.381374836 0.237266675
v -0.0104064085 -0.615947306 0.159041598
v 0.172903985 -0.47328192 0.232250661
v 0.140163854 -0.174605653 0.341996193
v -0.0781952441 -0.210844442 0.331483692
v -0.242449328 -0.556935966 0.153245673
v -0.0224888716 -0.51758939 0.237635747
v -0.213873684 -0.456247598 0.232156292
v -0.383188188 -0.349565983 0.23710005
v -0.475328922 -0.170767039 0.231290206
v -0.212216645 -0.09711463 0.347794533
v -0.519487202 0.0243112613 0.235953063
v -0.458380967 0.216006681 0.230163991
v -0.106632538 -0.0477040894 0.423764527
v -0.0363198854 -0.0975816771 0.421961635
v 0.0723352358 -0.0884733871 0.419175476
vt 0.191919982 0.356150001
vt 0.0976899862 0.356150001
vt 0.115429997 0.379409999
vt 0.0623499751 0.407900006
vt 0.0371999741 0.394639999
vt 0.0249199867 0.423345
vt 0.0534349978 0.429975003
vt 0.0445200205 0.45205
vt 0.0126399994 0.45205
vt 0.0475200117 0.4736
vt 0.0169149935 0.478275001
vt 0.0505200028 0.49515
vt 0.0211899877 0.504499972
vt 0.0736799836 0.470799983
vt 0.0706099868 0.45205
vt 0.077275008 0.433465004
vt 0.0839400291 0.414880008
vt 0.104870021 0.419420004
vt 0.0596100092 0.513984978
vt 0.0355550051 0.525555015
vt 0.141110003 0.390430003
vt 0.191919982 0.356150001
vt 0.0687000155 0.532819986
vt 0.0499200225 0.546609998
vt 0.110279977 0.578079998
vt 0.0937799811 0.45205
vt 0.0993250012 0.435735017
vt 0.0959299803 0.468889982
vt 0.117130011 0.468020022
vt 0.115050018 0.45205
vt 0.119235009 0.437184989
vt 0.0980799794 0.485729992
vt 0.12342 0.422320008
vt 0.141690016 0.424380004
vt 0.135150015 0.45205
vt 0.0767499804 0.489549994
vt 0.08197999 0.505840003
vt 0.166869998 0.395049989
vt 0.138420016 0.438215017
vt 0.102334976 0.501760006
vt 0.0872099996 0.522130013
vt 0.106589973 0.51779002
vt 0.121330023 0.556540012
vt 0.143149972 0.54776001
vt 0.148679972 0.570739985
vt 0.142929971 0.581610024
vt 0.189230025 0.576590002
vt 0.123870015 0.512579978
vt 0.12154001 0.498284996
vt 0.158900023 0.562300026
vt 0.119210005 0.483990014
vt 0.141309977 0.511489987
vt 0.171840012 0.558799982
vt 0.139539987 0.496794999
vt 0.137769997 0.48210001
vt 0.162370026 0.54211998
vt 0.15741998 0.508830011
vt 0.182529986 0.558189988
vt 0.180159986 0.540189981
vt 0.156975001 0.495285004
vt 0.136460006 0.46707499
vt 0.155470014 0.466894984
vt 0.198300004 0.559610009
vt 0.173780024 0.508329988
vt 0.156530023 0.481739998
vt 0.17394501 0.494435012
vt 0.189589977 0.507390022
vt 0.174109995 0.480540007
vt 0.154410005 0.45205
vt 0.202470005 0.53858
vt 0.190739989 0.494190007
vt 0.173774987 0.466295004
vt 0.191974998 0.466520011
vt 0.156520009 0.438825011
vt 0.17343998 0.45205
vt 0.158630013 0.425599992
vt 0.174274981 0.439040005
vt 0.175109982 0.42603001
vt 0.192059994 0.45205
vt 0.191854984 0.439180017
vt 0.19186002 0.396380007
vt 0.191890001 0.480989993
vt 0.210560024 0.45205
vt 0.191649973 0.426310003
vt 0.209375024 0.439005017
vt 0.208190024 0.425960004
vt 0.216899991 0.395099998
vt 0.242680013 0.390460014
vt 0.268209994 0.379449993
vt 0.207524985 0.49437499
vt 0.209519982 0.480580002
vt 0.210040003 0.466315001
vt 0.22834 0.466904998
vt 0.229420006 0.45205
vt 0.227340013 0.438614994
vt 0.225260019 0.425179988
vt 0.242470026 0.424180001
vt 0.248600006 0.45205
vt 0.245535016 0.438115001
vt 0.259899974 0.422839999
vt 0.279579997 0.419129997
vt 0.264709979 0.437444985
vt 0.284570009 0.435589999
vt 0.269519985 0.45205
vt 0.29885 0.41595
vt 0.28956002 0.45205
vt 0.267120004 0.468115002
vt 0.247274995 0.467095017
vt 0.245949984 0.482140005
vt 0.287650019 0.468989998
vt 0.311010003 0.470910013
vt 0.314429998 0.45205
vt 0.285740018 0.485929996
vt 0.306639999 0.434000015
vt 0.338660002 0.45205
vt 0.330159992 0.429764986
vt 0.227259994 0.481759995
vt 0.224474996 0.495190024
vt 0.264720023 0.484180003
vt 0.241964996 0.496475011
vt 0.259955019 0.49842
vt 0.321659982 0.407480001
vt 0.286270022 0.356150001
vt 0.191919982 0.356150001
vt 0.346629977 0.394360006
vt 0.358644992 0.423205018
vt 0.370660007 0.45205
vt 0.366955012 0.47734499
vt 0.336129993 0.473735005
vt 0.333599985 0.495420009
vt 0.363250017 0.502640009
vt 0.348295003 0.523149967
vt 0.307590008 0.489769995
vt 0.322524995 0.513440013
vt 0.333339989 0.543659985
vt 0.299910009 0.505234957
vt 0.311450005 0.531459987
vt 0.270519972 0.572950006
vt 0.249249995 0.554090023
vt 0.279190004 0.501254976
vt 0.29223001 0.520699978
vt 0.27263999 0.516579986
vt 0.255190015 0.512660027
vt 0.237980008 0.510810018
vt 0.227299988 0.546320021
vt 0.221689999 0.508620024
vt 0.205529988 0.508170009
vt 0.214999974 0.561190009
vt 0.226419985 0.568099976
vt 0.237150013 0.578949988
vn 0.000107945663 -0.00305874925 -0.999995351
vn 0.154923692 -0.156976074 -0.975375414
vn 0.218445197 -0.00240022945 -0.975846291
vn 0.498472661 -0.207439795 -0.8417207
vn 0.385163248 -0.385570824 -0.83844167
vn 0.596256137 -0.594607294 -0.539370835
vn 0.777775645 -0.3213045 -0.540211499
vn 0.913271785 -0.375892013 -0.156970501
vn 0.70009613 -0.69682318 -0.155893385
vn 0.903801203 -0.37089467 0.213496044
vn 0.692293823 -0.68796736 0.217784822
vn 0.786218524 -0.320442915 0.52837193
vn 0.601524711 -0.592289686 0.536060631
vn 0.976480722 0.00326428213 0.215580121
vn 0.987441897 0.00214838935 -0.157967865
vn 0.840953946 0.000649139227 -0.541106343
vn 0.543147147 -0.0011022425 -0.839636803
vn 0.497301936 0.204948068 -0.843022645
vn 0.640634835 -0.276782334 0.716225147
vn 0.478997648 -0.495167911 0.724824071
vn 0.154067054 0.151804656 -0.976329088
vn 0.000107945663 -0.00305874925 -0.999995351
vn 0.453314364 -0.198523149 0.868961811
vn 0.336130351 -0.366445959 0.867602289
vn 0.241664499 -0.329834223 0.912582994
vn 0.911244988 0.379832923 -0.159246668
vn 0.77604872 0.322265208 -0.542119384
vn 0.901825607 0.377034396 0.211081877
vn 0.688646078 0.693012714 0.213307053
vn 0.696364462 0.699602962 -0.160100803
vn 0.593065023 0.594602287 -0.542883039
vn 0.784134865 0.330084383 0.525525331
vn 0.383014798 0.382426351 -0.840862453
vn 0.204916224 0.495708585 -0.843968153
vn 0.375410974 0.912784755 -0.160905257
vn 0.845837295 0.0070221941 0.533394754
vn 0.691650212 -0.0107613178 0.722152472
vn -0.000483994372 0.215323269 -0.976542652
vn 0.319752008 0.776123703 -0.543498516
vn 0.65141803 0.258423507 0.713352621
vn 0.489475071 -0.0225625429 0.87172538
vn 0.470162153 0.168031543 0.866436899
vn 0.420116425 -0.024229221 0.907146752
vn 0.333044499 0.266986728 0.904322624
vn 0.623004556 -0.0503032319 0.780599058
vn 0.351667106 -0.487881005 0.798938155
vn 0.00106351823 -0.00636619702 0.999979258
vn 0.371048063 0.339300185 0.864406586
vn 0.499030858 0.48297137 0.719518483
vn 0.473913699 0.36568737 0.801048458
vn 0.59457159 0.603958964 0.530771255
vn 0.213600814 0.464282274 0.859544456
vn 0.130603477 0.574742854 0.807844877
vn 0.279781252 0.644758463 0.71134311
vn 0.322248518 0.788714468 0.523531497
vn 0.102709316 0.428880095 0.897503614
vn 0.0359758064 0.511827767 0.858334422
vn -0.244017705 0.502883255 0.829194605
vn -0.170933723 0.378894597 0.909516573
vn 0.0128346272 0.695454836 0.718455195
vn 0.37154454 0.904512882 0.209310755
vn -0.00264290767 0.977196693 0.212319896
vn -0.539874494 0.222884014 0.811700881
vn -0.181441128 0.481127083 0.857668877
vn -0.00563009782 0.848150671 0.529725015
vn -0.256436527 0.654362619 0.71137172
vn -0.355739802 0.374497235 0.856271625
vn -0.328767389 0.785993218 0.523571014
vn -0.00264904415 0.986945927 -0.161030352
vn -0.375234872 0.15573819 0.913752913
vn -0.480741054 0.501048446 0.719609916
vn -0.37641108 0.902510822 0.209257901
vn -0.692385197 0.689310193 0.213199914
vn -0.00221821014 0.839300573 -0.543663144
vn -0.380340517 0.910731375 -0.160963938
vn -0.00137734751 0.54040724 -0.841402411
vn -0.323839545 0.774382949 -0.543561399
vn -0.207425356 0.494590938 -0.844010949
vn -0.700100064 0.695838571 -0.16021426
vn -0.596171141 0.591384053 -0.542996109
vn -0.15468958 0.15096654 -0.976360679
vn -0.602450311 0.59599489 0.530889511
vn -0.913270295 0.374871701 -0.159400746
vn -0.384908497 0.380344689 -0.840941966
vn -0.777682185 0.318058401 -0.542263031
vn -0.498234868 0.202247784 -0.843123794
vn -0.218231991 -0.00358699611 -0.975890338
vn -0.153876796 -0.157809064 -0.975406706
vn 0.000696271891 -0.221354172 -0.975193322
vn -0.641572535 0.281736732 0.713448703
vn -0.786749363 0.323634475 0.525629282
vn -0.903862834 0.372212261 0.210926816
vn -0.976520479 -0.00196554163 0.215415478
vn -0.987411737 -0.00317569217 -0.158139259
vn -0.840839863 -0.00390339014 -0.541269839
vn -0.542957366 -0.00404994329 -0.839750409
vn -0.497161001 -0.210135177 -0.841827929
vn -0.911185026 -0.380856365 -0.157131568
vn -0.775911152 -0.325508863 -0.54037571
vn -0.382896394 -0.387640774 -0.838525534
vn -0.204778463 -0.500990272 -0.840877235
vn -0.592916667 -0.597822547 -0.539498031
vn -0.319613487 -0.779323041 -0.538983226
vn -0.696291327 -0.700597584 -0.156017482
vn 0.00156345253 -0.545695901 -0.83798182
vn -0.375350505 -0.913749993 -0.155476391
vn -0.68863374 -0.691665292 0.217675641
vn -0.901842296 -0.375714123 0.21335265
vn -0.78355664 -0.326728463 0.528476536
vn -0.3715657 -0.90314424 0.215103015
vn 0.00259197736 -0.97579807 0.218658343
vn 0.00268102461 -0.987897396 -0.155085444
vn -0.321836591 -0.784244239 0.530454755
vn 0.0023345761 -0.842488289 -0.538709641
vn 0.380347878 -0.911692262 -0.155411765
vn 0.32393387 -0.777580321 -0.538920939
vn -0.845748663 -0.00406393083 0.533565938
vn -0.691421092 0.0150378328 0.722295463
vn -0.593726397 -0.60000211 0.536177516
vn -0.65018779 -0.253282458 0.716312647
vn -0.497199565 -0.476749182 0.724915743
vn 0.207655951 -0.499876082 -0.840834677
vn 0.154923692 -0.156976074 -0.975375414
vn 0.000107945663 -0.00305874925 -0.999995351
vn 0.385163248 -0.385570824 -0.83844167
vn 0.596256137 -0.594607294 -0.539370835
vn 0.70009613 -0.69682318 -0.155893385
vn 0.692293823 -0.68796736 0.217784822
vn 0.376345724 -0.901148081 0.215165257
vn 0.328060359 -0.78168726 0.53041631
vn 0.601524711 -0.592289686 0.536060631
vn 0.478997648 -0.495167911 0.724824071
vn 0.00546389213 -0.843425691 0.537218213
vn 0.255279362 -0.647232533 0.718277454
vn 0.336130351 -0.366445959 0.867602289
vn -0.0129718957 -0.687603116 0.725970805
vn 0.163347498 -0.464705646 0.870267987
vn 0.241664499 -0.329834223 0.912582994
vn -0.101277314 -0.416138619 0.903643548
vn -0.27875194 -0.637440562 0.71830833
vn -0.0189004 -0.479992241 0.877069175
vn -0.207509682 -0.451596677 0.86775583
vn -0.367528319 -0.340658396 0.865375578
vn -0.486139625 -0.160369426 0.859040082
vn -0.360348016 -0.194182321 0.912382901
vn -0.5066818 0.0339975134 0.861462533
vn -0.470058918 0.219109893 0.855006039
vn -0.501680136 -0.250200689 0.828079998
vn -0.143107668 -0.609553695 0.779720724
vn 0.351667106 -0.487881005 0.798938155
g ZhangFei_baozi_0
f 3/3/3 2/2/2 1/1/1
f 2/2/2 3/3/3 4/4/4
f 5/5/5 2/2/2 4/4/4
f 5/5/5 4/4/4 6/6/6
f 4/4/4 7/7/7 6/6/6
f 7/7/7 8/8/8 6/6/6
f 8/8/8 9/9/9 6/6/6
f 9/9/9 8/8/8 10/10/10
f 11/11/11 9/9/9 10/10/10
f 10/10/10 12/12/12 11/11/11
f 12/12/12 13/13/13 11/11/11
f 10/10/10 8/8/8 14/14/14
f 12/12/12 10/10/10 14/14/14
f 8/8/8 7/7/7 15/15/15
f 8/8/8 15/15/15 14/14/14
f 7/7/7 4/4/4 16/16/16
f 7/7/7 16/16/16 15/15/15
f 3/3/3 17/17/17 4/4/4
f 4/4/4 17/17/17 16/16/16
f 18/18/18 17/17/17 3/3/3
f 17/17/17 18/18/18 16/16/16
f 13/13/13 12/12/12 19/19/19
f 20/20/20 13/13/13 19/19/19
f 18/18/18 3/3/3 21/21/21
f 21/21/21 3/3/3 22/22/22
f 19/19/19 23/23/23 20/20/20
f 23/23/23 24/24/24 20/20/20
f 24/24/24 23/23/23 25/25/25
f 26/26/26 15/15/15 16/16/16
f 18/18/18 27/27/27 16/16/16
f 27/27/27 26/26/26 16/16/16
f 15/15/15 26/26/26 28/28/28
f 28/28/28 26/26/26 29/29/29
f 14/14/14 15/15/15 28/28/28
f 26/26/26 27/27/27 30/30/30
f 26/26/26 30/30/30 29/29/29
f 27/27/27 18/18/18 31/31/31
f 27/27/27 31/31/31 30/30/30
f 28/28/28 32/32/32 14/14/14
f 32/32/32 28/28/28 29/29/29
f 18/18/18 33/33/33 31/31/31
f 33/33/33 18/18/18 21/21/21
f 34/34/34 33/33/33 21/21/21
f 33/33/33 34/34/34 31/31/31
f 35/35/35 30/30/30 31/31/31
f 30/30/30 35/35/35 29/29/29
f 32/32/32 36/36/36 14/14/14
f 36/36/36 12/12/12 14/14/14
f 12/12/12 36/36/36 37/37/37
f 19/19/19 12/12/12 37/37/37
f 34/34/34 21/21/21 38/38/38
f 21/21/21 22/22/22 38/38/38
f 34/34/34 39/39/39 31/31/31
f 39/39/39 35/35/35 31/31/31
f 36/36/36 32/32/32 40/40/40
f 37/37/37 36/36/36 40/40/40
f 37/37/37 41/41/41 19/19/19
f 41/41/41 23/23/23 19/19/19
f 42/42/42 41/41/41 37/37/37
f 40/40/40 42/42/42 37/37/37
f 41/41/41 43/43/43 23/23/23
f 43/43/43 41/41/41 42/42/42
f 44/44/44 43/43/43 42/42/42
f 43/43/43 25/25/25 23/23/23
f 43/43/43 45/45/45 25/25/25
f 43/43/43 44/44/44 45/45/45
f 45/45/45 46/46/46 25/25/25
f 45/45/45 47/47/47 46/46/46
f 48/48/48 42/42/42 40/40/40
f 44/44/44 42/42/42 48/48/48
f 40/40/40 32/32/32 49/49/49
f 49/49/49 48/48/48 40/40/40
f 50/50/50 47/47/47 45/45/45
f 44/44/44 50/50/50 45/45/45
f 32/32/32 51/51/51 49/49/49
f 51/51/51 32/32/32 29/29/29
f 52/52/52 48/48/48 49/49/49
f 48/48/48 52/52/52 44/44/44
f 53/53/53 50/50/50 44/44/44
f 50/50/50 53/53/53 47/47/47
f 49/49/49 51/51/51 54/54/54
f 54/54/54 52/52/52 49/49/49
f 55/55/55 51/51/51 29/29/29
f 51/51/51 55/55/55 54/54/54
f 52/52/52 56/56/56 44/44/44
f 56/56/56 53/53/53 44/44/44
f 57/57/57 52/52/52 54/54/54
f 56/56/56 52/52/52 57/57/57
f 58/58/58 53/53/53 56/56/56
f 53/53/53 58/58/58 47/47/47
f 59/59/59 58/58/58 56/56/56
f 59/59/59 56/56/56 57/57/57
f 60/60/60 57/57/57 54/54/54
f 54/54/54 55/55/55 60/60/60
f 61/61/61 55/55/55 29/29/29
f 35/35/35 61/61/61 29/29/29
f 61/61/61 62/62/62 55/55/55
f 62/62/62 61/61/61 35/35/35
f 58/58/58 63/63/63 47/47/47
f 63/63/63 58/58/58 59/59/59
f 64/64/64 59/59/59 57/57/57
f 64/64/64 57/57/57 60/60/60
f 55/55/55 65/65/65 60/60/60
f 62/62/62 65/65/65 55/55/55
f 66/66/66 64/64/64 60/60/60
f 60/60/60 65/65/65 66/66/66
f 64/64/64 67/67/67 59/59/59
f 67/67/67 64/64/64 66/66/66
f 65/65/65 68/68/68 66/66/66
f 68/68/68 65/65/65 62/62/62
f 69/69/69 62/62/62 35/35/35
f 35/35/35 39/39/39 69/69/69
f 70/70/70 63/63/63 59/59/59
f 67/67/67 70/70/70 59/59/59
f 71/71/71 67/67/67 66/66/66
f 66/66/66 68/68/68 71/71/71
f 72/72/72 68/68/68 62/62/62
f 62/62/62 69/69/69 72/72/72
f 68/68/68 72/72/72 73/73/73
f 39/39/39 74/74/74 69/69/69
f 39/39/39 34/34/34 74/74/74
f 69/69/69 75/75/75 72/72/72
f 72/72/72 75/75/75 73/73/73
f 75/75/75 69/69/69 74/74/74
f 34/34/34 76/76/76 74/74/74
f 76/76/76 34/34/34 38/38/38
f 77/77/77 75/75/75 74/74/74
f 77/77/77 74/74/74 76/76/76
f 76/76/76 38/38/38 78/78/78
f 78/78/78 77/77/77 76/76/76
f 75/75/75 77/77/77 79/79/79
f 75/75/75 79/79/79 73/73/73
f 77/77/77 80/80/80 79/79/79
f 77/77/77 78/78/78 80/80/80
f 38/38/38 81/81/81 78/78/78
f 81/81/81 38/38/38 22/22/22
f 82/82/82 68/68/68 73/73/73
f 68/68/68 82/82/82 71/71/71
f 79/79/79 83/83/83 73/73/73
f 79/79/79 80/80/80 83/83/83
f 78/78/78 84/84/84 80/80/80
f 81/81/81 84/84/84 78/78/78
f 80/80/80 84/84/84 85/85/85
f 80/80/80 85/85/85 83/83/83
f 86/86/86 84/84/84 81/81/81
f 84/84/84 86/86/86 85/85/85
f 87/87/87 81/81/81 22/22/22
f 86/86/86 81/81/81 87/87/87
f 88/88/88 87/87/87 22/22/22
f 22/22/22 89/89/89 88/88/88
f 71/71/71 82/82/82 90/90/90
f 91/91/91 82/82/82 73/73/73
f 82/82/82 91/91/91 90/90/90
f 83/83/83 92/92/92 73/73/73
f 92/92/92 91/91/91 73/73/73
f 92/92/92 83/83/83 93/93/93
f 91/91/91 92/92/92 93/93/93
f 83/83/83 85/85/85 94/94/94
f 83/83/83 94/94/94 93/93/93
f 85/85/85 86/86/86 95/95/95
f 85/85/85 95/95/95 94/94/94
f 96/96/96 86/86/86 87/87/87
f 86/86/86 96/96/96 95/95/95
f 96/96/96 87/87/87 97/97/97
f 96/96/96 97/97/97 95/95/95
f 87/87/87 88/88/88 97/97/97
f 98/98/98 94/94/94 95/95/95
f 94/94/94 98/98/98 93/93/93
f 97/97/97 99/99/99 95/95/95
f 99/99/99 98/98/98 95/95/95
f 88/88/88 100/100/100 97/97/97
f 97/97/97 100/100/100 99/99/99
f 100/100/100 88/88/88 101/101/101
f 88/88/88 89/89/89 101/101/101
f 100/100/100 102/102/102 99/99/99
f 100/100/100 101/101/101 103/103/103
f 102/102/102 100/100/100 103/103/103
f 102/102/102 104/104/104 99/99/99
f 104/104/104 98/98/98 99/99/99
f 89/89/89 105/105/105 101/101/101
f 101/101/101 105/105/105 103/103/103
f 102/102/102 103/103/103 106/106/106
f 104/104/104 102/102/102 106/106/106
f 98/98/98 104/104/104 107/107/107
f 98/98/98 108/108/108 93/93/93
f 108/108/108 98/98/98 107/107/107
f 108/108/108 109/109/109 93/93/93
f 109/109/109 108/108/108 107/107/107
f 104/104/104 106/106/106 110/110/110
f 107/107/107 104/104/104 110/110/110
f 110/110/110 106/106/106 111/111/111
f 112/112/112 106/106/106 103/103/103
f 106/106/106 112/112/112 111/111/111
f 110/110/110 113/113/113 107/107/107
f 113/113/113 110/110/110 111/111/111
f 114/114/114 112/112/112 103/103/103
f 105/105/105 114/114/114 103/103/103
f 112/112/112 114/114/114 115/115/115
f 112/112/112 115/115/115 111/111/111
f 114/114/114 105/105/105 116/116/116
f 114/114/114 116/116/116 115/115/115
f 109/109/109 117/117/117 93/93/93
f 117/117/117 91/91/91 93/93/93
f 91/91/91 117/117/117 118/118/118
f 90/90/90 91/91/91 118/118/118
f 113/113/113 119/119/119 107/107/107
f 119/119/119 109/109/109 107/107/107
f 117/117/117 109/109/109 120/120/120
f 118/118/118 117/117/117 120/120/120
f 109/109/109 119/119/119 121/121/121
f 120/120/120 109/109/109 121/121/121
f 105/105/105 122/122/122 116/116/116
f 105/105/105 89/89/89 122/122/122
f 89/89/89 123/123/123 122/122/122
f 123/123/123 89/89/89 124/124/124
f 123/123/123 125/125/125 122/122/122
f 122/122/122 125/125/125 126/126/126
f 116/116/116 122/122/122 126/126/126
f 116/116/116 126/126/126 127/127/127
f 115/115/115 116/116/116 127/127/127
f 115/115/115 127/127/127 128/128/128
f 129/129/129 115/115/115 128/128/128
f 115/115/115 129/129/129 111/111/111
f 130/130/130 129/129/129 128/128/128
f 129/129/129 130/130/130 111/111/111
f 131/131/131 130/130/130 128/128/128
f 130/130/130 131/131/131 132/132/132
f 130/130/130 133/133/133 111/111/111
f 133/133/133 113/113/113 111/111/111
f 134/134/134 130/130/130 132/132/132
f 133/133/133 130/130/130 134/134/134
f 132/132/132 135/135/135 134/134/134
f 113/113/113 133/133/133 136/136/136
f 136/136/136 133/133/133 134/134/134
f 135/135/135 137/137/137 134/134/134
f 134/134/134 137/137/137 136/136/136
f 138/138/138 137/137/137 135/135/135
f 138/138/138 139/139/139 137/137/137
f 140/140/140 113/113/113 136/136/136
f 119/119/119 113/113/113 140/140/140
f 121/121/121 119/119/119 140/140/140
f 137/137/137 141/141/141 136/136/136
f 136/136/136 141/141/141 140/140/140
f 141/141/141 137/137/137 139/139/139
f 141/141/141 142/142/142 140/140/140
f 140/140/140 142/142/142 121/121/121
f 142/142/142 141/141/141 139/139/139
f 142/142/142 143/143/143 121/121/121
f 142/142/142 139/139/139 143/143/143
f 121/121/121 143/143/143 120/120/120
f 143/143/143 144/144/144 120/120/120
f 120/120/120 144/144/144 118/118/118
f 145/145/145 144/144/144 143/143/143
f 139/139/139 145/145/145 143/143/143
f 144/144/144 146/146/146 118/118/118
f 146/146/146 144/144/144 145/145/145
f 118/118/118 146/146/146 90/90/90
f 146/146/146 147/147/147 90/90/90
f 90/90/90 147/147/147 71/71/71
f 147/147/147 67/67/67 71/71/71
f 67/67/67 147/147/147 70/70/70
f 147/147/147 146/146/146 70/70/70
f 70/70/70 146/146/146 145/145/145
f 63/63/63 70/70/70 145/145/145
f 148/148/148 63/63/63 145/145/145
f 148/148/148 145/145/145 139/139/139
f 63/63/63 148/148/148 47/47/47
f 149/149/149 148/148/148 139/139/139
f 148/148/148 149/149/149 47/47/47
f 149/149/149 139/139/139 138/138/138
f 149/149/149 150/150/150 47/47/47
f 150/150/150 149/149/149 138/138/138
