g Cylinder001
v 0.121069305 0.634668171 0
v 0.0405695811 0.644837618 0.0547783002
v 0.0405695811 0.644837618 0
v 0.121069305 0.634668171 0.0547783002
v 0.199659675 0.614489615 0
v 0.0405695848 0.644837677 0.1095566
v 0.199659675 0.614489615 0.0547783002
v 0.275101304 0.584620178 0
v 0.121069305 0.634668231 0.1095566
v 0.0405695811 0.644837618 0.164334908
v 0.275101304 0.584620178 0.0547783002
v 0.3462044 0.545530915 0
v 0.19965969 0.614489675 0.1095566
v 0.121069305 0.634668171 0.164334908
v 0.0405695811 0.644837618 0.219113201
v 0.3462044 0.545530915 0.0547783002
v 0.411847681 0.497838318 0
v 0.275101334 0.584620237 0.1095566
v 0.199659675 0.614489615 0.164334908
v 0.121069305 0.634668171 0.219113201
v 0.0405695811 0.644837618 0.273891479
v 0.411847681 0.497838318 0.0547783002
v 0.470995814 0.442294508 0
v 0.34620443 0.545530915 0.1095566
v 0.275101304 0.584620178 0.164334908
v 0.199659675 0.614489615 0.219113201
v 0.121069305 0.634668171 0.273891479
v 0.0405695811 0.644837618 0.328669816
v 0.470995814 0.442294508 0.0547783002
v 0.522716045 0.379775465 0
v 0.411847681 0.497838348 0.1095566
v 0.3462044 0.545530915 0.164334908
v 0.275101304 0.584620178 0.219113201
v 0.199659675 0.614489615 0.273891479
v 0.121069305 0.634668171 0.328669816
v 0.0405695811 0.644837618 0.383448064
v 0.522716045 0.379775465 0.0547783002
v 0.566192746 0.311267138 0
v 0.470995843 0.442294568 0.1095566
v 0.411847681 0.497838318 0.164334908
v 0.3462044 0.545530915 0.219113201
v 0.275101304 0.584620178 0.273891479
v 0.199659675 0.614489615 0.328669816
v 0.121069305 0.634668171 0.383448064
v 0.0405695811 0.644837618 0.438226402
v 0.121069305 0.634668171 0.438226402
v 0.0405695811 0.644837618 0.49300468
v 0.199659675 0.614489615 0.383448064
v 0.275101304 0.584620178 0.328669816
v 0.3462044 0.545530915 0.273891479
v 0.411847681 0.497838318 0.219113201
v 0.121069305 0.634668171 0.49300468
v 0.0405695811 0.644837618 0.547782958
v 0.121069305 0.634668171 0.547782958
v 0.199659675 0.614489615 0.438226402
v 0.199659675 0.614489615 0.49300468
v 0.199659675 0.614489615 0.547782958
v 0.275101304 0.584620178 0.383448064
v 0.3462044 0.545530915 0.328669816
v 0.275101304 0.584620178 0.438226402
v 0.275101304 0.584620178 0.49300468
v 0.275101304 0.584620178 0.547782958
v 0.3462044 0.545530915 0.383448064
v 0.411847681 0.497838318 0.273891479
v 0.3462044 0.545530915 0.438226402
v 0.3462044 0.545530915 0.49300468
v 0.3462044 0.545530915 0.547782958
v 0.411847681 0.497838318 0.328669816
v 0.411847681 0.497838318 0.383448064
v 0.411847681 0.497838318 0.438226402
v 0.411847681 0.497838318 0.49300468
v 0.411847681 0.497838318 0.547782958
v 0.470995814 0.442294508 0.49300468
v 0.470995814 0.442294508 0.547782958
v 0.470995814 0.442294508 0.438226402
v 0.470995814 0.442294508 0.383448064
v 0.470995814 0.442294508 0.328669816
v 0.470995814 0.442294508 0.273891479
v 0.522716045 0.379775465 0.49300468
v 0.522716045 0.379775465 0.547782958
v 0.522716045 0.379775465 0.438226402
v 0.522716045 0.379775465 0.383448064
v 0.522716045 0.379775465 0.328669816
v 0.566192746 0.311267138 0.49300468
v 0.566192746 0.311267138 0.547782958
v 0.566192746 0.311267138 0.438226402
v 0.566192746 0.311267138 0.383448064
v 0.600740314 0.237849921 0.49300468
v 0.600740314 0.237849921 0.547782958
v 0.600740314 0.237849921 0.438226402
v 0.625813782 0.16068168 0.49300468
v 0.625813782 0.16068168 0.547782958
v 0.522716045 0.379775465 0.273891479
v 0.566192746 0.311267138 0.328669816
v 0.600740314 0.237849921 0.383448064
v 0.625813782 0.16068168 0.438226402
v 0.641017795 0.0809793845 0.49300468
v 0.641017795 0.0809793845 0.547782958
v 0.566192746 0.311267138 0.273891479
v 0.600740314 0.237849921 0.328669816
v 0.625813782 0.16068168 0.383448064
v 0.641017795 0.0809793845 0.438226402
v 0.646112561 0 0.49300468
v 0.646112561 0 0.547782958
v 0.600740314 0.237849921 0.273891479
v 0.625813782 0.16068168 0.328669816
v 0.641017795 0.0809793845 0.383448064
v 0.646112561 0 0.438226402
v 0.641017973 -0.0809780806 0.49300468
v 0.641017973 -0.0809780806 0.547782958
v 0.625813782 0.16068168 0.273891479
v 0.641017795 0.0809793845 0.328669816
v 0.646112561 0 0.383448064
v 0.641017973 -0.0809780806 0.438226402
v 0.62581408 -0.160680428 0.49300468
v 0.62581408 -0.160680428 0.547782958
v 0.641017795 0.0809793845 0.273891479
v 0.646112561 0 0.328669816
v 0.641017973 -0.0809780806 0.383448064
v 0.62581408 -0.160680428 0.438226402
v 0.600740731 -0.237848759 0.49300468
v 0.600740731 -0.237848759 0.547782958
v 0.646112561 0 0.273891479
v 0.641017973 -0.0809780806 0.328669816
v 0.62581408 -0.160680428 0.383448064
v 0.600740731 -0.237848759 0.438226402
v 0.566193402 -0.311266065 0.49300468
v 0.566193402 -0.311266065 0.547782958
v 0.641017973 -0.0809780806 0.273891479
v 0.62581408 -0.160680428 0.328669816
v 0.600740731 -0.237848759 0.383448064
v 0.566193402 -0.311266065 0.438226402
v 0.522716761 -0.379774481 0.49300468
v 0.522716761 -0.379774481 0.547782958
v 0.62581408 -0.160680428 0.273891479
v 0.600740731 -0.237848759 0.328669816
v 0.566193402 -0.311266065 0.383448064
v 0.522716761 -0.379774481 0.438226402
v 0.470996618 -0.442293674 0.49300468
v 0.470996618 -0.442293674 0.547782958
v 0.600740731 -0.237848759 0.273891479
v 0.566193402 -0.311266065 0.328669816
v 0.522716761 -0.379774481 0.383448064
v 0.470996618 -0.442293674 0.438226402
v 0.411848485 -0.497837633 0.49300468
v 0.411848485 -0.497837633 0.547782958
v 0.566193402 -0.311266065 0.273891479
v 0.522716761 -0.379774481 0.328669816
v 0.470996618 -0.442293674 0.383448064
v 0.411848485 -0.497837633 0.438226402
v 0.346205354 -0.545530319 0.49300468
v 0.346205354 -0.545530319 0.547782958
v 0.522716761 -0.379774481 0.273891479
v 0.470996618 -0.442293674 0.328669816
v 0.411848485 -0.497837633 0.383448064
v 0.346205354 -0.545530319 0.438226402
v 0.275102317 -0.584619701 0.49300468
v 0.275102317 -0.584619701 0.547782958
v 0.470996618 -0.442293674 0.273891479
v 0.411848485 -0.497837633 0.328669816
v 0.346205354 -0.545530319 0.383448064
v 0.275102317 -0.584619701 0.438226402
v 0.199660733 -0.614489257 0.49300468
v 0.199660733 -0.614489257 0.547782958
v 0.411848485 -0.497837633 0.273891479
v 0.346205354 -0.545530319 0.328669816
v 0.275102317 -0.584619701 0.383448064
v 0.199660733 -0.614489257 0.438226402
v 0.121070385 -0.634667993 0.49300468
v 0.121070385 -0.634667993 0.547782958
v 0.346205354 -0.545530319 0.273891479
v 0.275102317 -0.584619701 0.328669816
v 0.199660733 -0.614489257 0.383448064
v 0.121070385 -0.634667993 0.438226402
v 0.040570695 -0.644837558 0.49300468
v 0.040570695 -0.644837558 0.547782958
v 0.275102317 -0.584619701 0.273891479
v 0.199660733 -0.614489257 0.328669816
v 0.121070385 -0.634667993 0.383448064
v 0.040570695 -0.644837558 0.438226402
v -0.0405688323 -0.644837677 0.49300468
v -0.0405688323 -0.644837677 0.547782958
v 0.199660733 -0.614489257 0.273891479
v 0.121070385 -0.634667993 0.328669816
v 0.040570695 -0.644837558 0.383448064
v -0.0405688323 -0.644837677 0.438226402
v -0.121068552 -0.63466835 0.49300468
v -0.121068552 -0.63466835 0.547782958
v 0.121070385 -0.634667993 0.273891479
v 0.040570695 -0.644837558 0.328669816
v -0.0405688323 -0.644837677 0.383448064
v -0.121068552 -0.63466835 0.438226402
v -0.199658975 -0.614489794 0.49300468
v -0.199658975 -0.614489794 0.547782958
v 0.040570695 -0.644837558 0.273891479
v -0.0405688323 -0.644837677 0.328669816
v -0.121068552 -0.63466835 0.383448064
v -0.199658975 -0.614489794 0.438226402
v -0.275100619 -0.584620535 0.49300468
v -0.275100619 -0.584620535 0.547782958
v -0.0405688323 -0.644837677 0.273891479
v -0.121068552 -0.63466835 0.328669816
v -0.199658975 -0.614489794 0.383448064
v -0.275100619 -0.584620535 0.438226402
v -0.346203804 -0.545531332 0.49300468
v -0.346203804 -0.545531332 0.547782958
v -0.121068552 -0.63466835 0.273891479
v -0.199658975 -0.614489794 0.328669816
v -0.275100619 -0.584620535 0.383448064
v -0.346203804 -0.545531332 0.438226402
v -0.411847085 -0.497838795 0.49300468
v -0.411847085 -0.497838795 0.547782958
v -0.199658975 -0.614489794 0.273891479
v -0.275100619 -0.584620535 0.328669816
v -0.346203804 -0.545531332 0.383448064
v -0.411847085 -0.497838795 0.438226402
v -0.470995337 -0.442294985 0.49300468
v -0.470995337 -0.442294985 0.547782958
v -0.275100619 -0.584620535 0.273891479
v -0.346203804 -0.545531332 0.328669816
v -0.411847085 -0.497838795 0.383448064
v -0.470995337 -0.442294985 0.438226402
v -0.522715688 -0.379776001 0.49300468
v -0.522715688 -0.379776001 0.547782958
v -0.346203804 -0.545531332 0.273891479
v -0.411847085 -0.497838795 0.328669816
v -0.470995337 -0.442294985 0.383448064
v -0.522715688 -0.379776001 0.438226402
v -0.566192448 -0.311267704 0.49300468
v -0.566192448 -0.311267704 0.547782958
v -0.411847085 -0.497838795 0.273891479
v -0.470995337 -0.442294985 0.328669816
v -0.522715688 -0.379776001 0.383448064
v -0.566192448 -0.311267704 0.438226402
v -0.600740075 -0.237850472 0.49300468
v -0.600740075 -0.237850472 0.547782958
v -0.470995337 -0.442294985 0.273891479
v -0.522715688 -0.379776001 0.328669816
v -0.566192448 -0.311267704 0.383448064
v -0.600740075 -0.237850472 0.438226402
v -0.625813663 -0.160682231 0.49300468
v -0.625813663 -0.160682231 0.547782958
v -0.522715688 -0.379776001 0.273891479
v -0.566192448 -0.311267704 0.328669816
v -0.600740075 -0.237850472 0.383448064
v -0.625813663 -0.160682231 0.438226402
v -0.641017735 -0.0809799284 0.49300468
v -0.641017735 -0.0809799284 0.547782958
v -0.566192448 -0.311267704 0.273891479
v -0.600740075 -0.237850472 0.328669816
v -0.625813663 -0.160682231 0.383448064
v -0.641017735 -0.0809799284 0.438226402
v -0.646112561 -5.18620709E-07 0.49300468
v -0.646112561 -5.18620709E-07 0.547782958
v -0.600740075 -0.237850472 0.273891479
v -0.625813663 -0.160682231 0.328669816
v -0.641017735 -0.0809799284 0.383448064
v -0.646112561 -5.18620709E-07 0.438226402
v -0.641017854 0.0809789002 0.49300468
v -0.641017854 0.0809789002 0.547782958
v -0.625813663 -0.160682231 0.273891479
v -0.641017735 -0.0809799284 0.328669816
v -0.646112561 -5.18620709E-07 0.383448064
v -0.641017854 0.0809789002 0.438226402
v -0.625813901 0.160681233 0.49300468
v -0.625813901 0.160681233 0.547782958
v -0.641017735 -0.0809799284 0.273891479
v -0.646112561 -5.18620709E-07 0.328669816
v -0.641017854 0.0809789002 0.383448064
v -0.625813901 0.160681233 0.438226402
v -0.600740433 0.237849534 0.49300468
v -0.600740433 0.237849534 0.547782958
v -0.646112561 -5.18620709E-07 0.273891479
v -0.641017854 0.0809789002 0.328669816
v -0.625813901 0.160681233 0.383448064
v -0.600740433 0.237849534 0.438226402
v -0.566192925 0.31126678 0.49300468
v -0.566192925 0.31126678 0.547782958
v -0.641017854 0.0809789002 0.273891479
v -0.625813901 0.160681233 0.328669816
v -0.600740433 0.237849534 0.383448064
v -0.566192925 0.31126678 0.438226402
v -0.522716224 0.379775167 0.49300468
v -0.522716224 0.379775167 0.547782958
v -0.625813901 0.160681233 0.273891479
v -0.600740433 0.237849534 0.328669816
v -0.566192925 0.31126678 0.383448064
v -0.522716224 0.379775167 0.438226402
v -0.470996052 0.44229427 0.49300468
v -0.470996052 0.44229427 0.547782958
v -0.600740433 0.237849534 0.273891479
v -0.566192925 0.31126678 0.328669816
v -0.522716224 0.379775167 0.383448064
v -0.470996052 0.44229427 0.438226402
v -0.411847919 0.49783811 0.49300468
v -0.411847919 0.49783811 0.547782958
v -0.566192925 0.31126678 0.273891479
v -0.522716224 0.379775167 0.328669816
v -0.470996052 0.44229427 0.383448064
v -0.411847919 0.49783811 0.438226402
v -0.346204638 0.545530736 0.49300468
v -0.346204638 0.545530736 0.547782958
v -0.522716224 0.379775167 0.273891479
v -0.470996052 0.44229427 0.328669816
v -0.411847919 0.49783811 0.383448064
v -0.346204638 0.545530736 0.438226402
v -0.275101572 0.584619999 0.49300468
v -0.275101572 0.584619999 0.547782958
v -0.470996052 0.44229427 0.273891479
v -0.411847919 0.49783811 0.328669816
v -0.346204638 0.545530736 0.383448064
v -0.275101572 0.584619999 0.438226402
v -0.199660018 0.614489496 0.49300468
v -0.199660018 0.614489496 0.547782958
v -0.411847919 0.49783811 0.273891479
v -0.346204638 0.545530736 0.328669816
v -0.275101572 0.584619999 0.383448064
v -0.199660018 0.614489496 0.438226402
v -0.121069655 0.634668112 0.49300468
v -0.121069655 0.634668112 0.547782958
v -0.346204638 0.545530736 0.273891479
v -0.275101572 0.584619999 0.328669816
v -0.199660018 0.614489496 0.383448064
v -0.121069655 0.634668112 0.438226402
v -0.0405699424 0.644837618 0.49300468
v -0.0405699424 0.644837618 0.547782958
v 0.0405695811 0.644837618 0.49300468
v 0.0405695811 0.644837618 0.547782958
v 0.0405695811 0.644837618 0.438226402
v -0.0405699424 0.644837618 0.438226402
v 0.0405695811 0.644837618 0.383448064
v -0.0405699424 0.644837618 0.383448064
v 0.0405695811 0.644837618 0.328669816
v -0.121069655 0.634668112 0.383448064
v -0.0405699424 0.644837618 0.328669816
v 0.0405695811 0.644837618 0.273891479
v -0.121069655 0.634668112 0.328669816
v -0.0405699424 0.644837618 0.273891479
v 0.0405695811 0.644837618 0.219113201
v -0.199660018 0.614489496 0.328669816
v -0.0405699424 0.644837618 0.219113201
v 0.0405695811 0.644837618 0.164334908
v -0.121069655 0.634668112 0.273891479
v -0.199660018 0.614489496 0.273891479
v -0.0405699424 0.644837618 0.164334908
v 0.0405695848 0.644837677 0.1095566
v -0.121069655 0.634668112 0.219113201
v -0.275101572 0.584619999 0.273891479
v -0.0405699462 0.644837677 0.1095566
v 0.0405695811 0.644837618 0.0547783002
v -0.121069655 0.634668112 0.164334908
v -0.199660018 0.614489496 0.219113201
v -0.275101572 0.584619999 0.219113201
v -0.0405699424 0.644837618 0.0547783002
v 0.0405695811 0.644837618 0
v -0.0405699424 0.644837618 0
v -0.12106967 0.634668112 0.1095566
v -0.199660018 0.614489496 0.164334908
v -0.121069655 0.634668112 0.0547783002
v -0.121069655 0.634668112 0
v -0.346204638 0.545530736 0.219113201
v -0.199660033 0.614489496 0.1095566
v -0.199660018 0.614489496 0.0547783002
v -0.199660018 0.614489496 0
v -0.275101572 0.584619999 0.164334908
v -0.411847919 0.49783811 0.219113201
v -0.275101572 0.584619999 0.0547783002
v -0.275101572 0.584619999 0
v -0.275101602 0.584620059 0.1095566
v -0.346204638 0.545530736 0.164334908
v -0.470996052 0.44229427 0.219113201
v -0.346204638 0.545530736 0.0547783002
v -0.346204638 0.545530736 0
v -0.346204668 0.545530796 0.1095566
v -0.411847919 0.49783811 0.164334908
v -0.522716224 0.379775167 0.219113201
v -0.411847919 0.49783811 0.0547783002
v -0.411847919 0.49783811 0
v -0.411847919 0.497838169 0.1095566
v -0.470996052 0.44229427 0.164334908
v -0.566192925 0.31126678 0.219113201
v -0.470996052 0.44229427 0.0547783002
v -0.470996052 0.44229427 0
v -0.470996052 0.442294329 0.1095566
v -0.522716224 0.379775167 0.164334908
v -0.600740433 0.237849534 0.219113201
v -0.522716224 0.379775167 0.0547783002
v -0.522716224 0.379775167 0
v -0.522716284 0.379775226 0.1095566
v -0.566192925 0.31126678 0.164334908
v -0.625813901 0.160681233 0.219113201
v -0.566192925 0.31126678 0.0547783002
v -0.566192925 0.31126678 0
v -0.566192985 0.31126681 0.1095566
v -0.600740433 0.237849534 0.164334908
v -0.641017854 0.0809789002 0.219113201
v -0.600740433 0.237849534 0.0547783002
v -0.600740433 0.237849534 0
v -0.600740492 0.237849534 0.1095566
v -0.625813901 0.160681233 0.164334908
v -0.646112561 -5.18620709E-07 0.219113201
v -0.625813901 0.160681233 0.0547783002
v -0.625813901 0.160681233 0
v -0.625813901 0.160681233 0.1095566
v -0.641017854 0.0809789002 0.164334908
v -0.641017735 -0.0809799284 0.219113201
v -0.641017854 0.0809789002 0.0547783002
v -0.641017854 0.0809789002 0
v -0.641017914 0.0809789076 0.1095566
v -0.646112561 -5.18620709E-07 0.164334908
v -0.625813663 -0.160682231 0.219113201
v -0.646112561 -5.18620709E-07 0.0547783002
v -0.646112561 -5.18620709E-07 0
v -0.646112621 -5.18620766E-07 0.1095566
v -0.641017735 -0.0809799284 0.164334908
v -0.600740075 -0.237850472 0.219113201
v -0.641017735 -0.0809799284 0.0547783002
v -0.641017735 -0.0809799284 0
v -0.641017795 -0.0809799358 0.1095566
v -0.625813663 -0.160682231 0.164334908
v -0.566192448 -0.311267704 0.219113201
v -0.625813663 -0.160682231 0.0547783002
v -0.625813663 -0.160682231 0
v -0.625813663 -0.160682246 0.1095566
v -0.600740075 -0.237850472 0.164334908
v -0.522715688 -0.379776001 0.219113201
v -0.600740075 -0.237850472 0.0547783002
v -0.600740075 -0.237850472 0
v -0.600740135 -0.237850502 0.1095566
v -0.566192448 -0.311267704 0.164334908
v -0.470995337 -0.442294985 0.219113201
v -0.566192448 -0.311267704 0.0547783002
v -0.566192448 -0.311267704 0
v -0.566192508 -0.311267734 0.1095566
v -0.522715688 -0.379776001 0.164334908
v -0.411847085 -0.497838795 0.219113201
v -0.522715688 -0.379776001 0.0547783002
v -0.522715688 -0.379776001 0
v -0.522715688 -0.379776061 0.1095566
v -0.470995337 -0.442294985 0.164334908
v -0.346203804 -0.545531332 0.219113201
v -0.470995337 -0.442294985 0.0547783002
v -0.470995337 -0.442294985 0
v -0.470995337 -0.442295045 0.1095566
v -0.411847085 -0.497838795 0.164334908
v -0.275100619 -0.584620535 0.219113201
v -0.411847085 -0.497838795 0.0547783002
v -0.411847085 -0.497838795 0
v -0.411847144 -0.497838855 0.1095566
v -0.346203804 -0.545531332 0.164334908
v -0.199658975 -0.614489794 0.219113201
v -0.346203804 -0.545531332 0.0547783002
v -0.346203804 -0.545531332 0
v -0.346203804 -0.545531392 0.1095566
v -0.275100619 -0.584620535 0.164334908
v -0.121068552 -0.63466835 0.219113201
v -0.275100619 -0.584620535 0.0547783002
v -0.275100619 -0.584620535 0
v -0.275100648 -0.584620535 0.1095566
v -0.199658975 -0.614489794 0.164334908
v -0.0405688323 -0.644837677 0.219113201
v -0.199658975 -0.614489794 0.0547783002
v -0.199658975 -0.614489794 0
v -0.19965899 -0.614489853 0.1095566
v -0.121068552 -0.63466835 0.164334908
v 0.040570695 -0.644837558 0.219113201
v -0.121068552 -0.63466835 0.0547783002
v -0.121068552 -0.63466835 0
v -0.121068567 -0.63466835 0.1095566
v -0.0405688323 -0.644837677 0.164334908
v 0.121070385 -0.634667993 0.219113201
v -0.0405688323 -0.644837677 0.0547783002
v -0.0405688323 -0.644837677 0
v -0.040568836 -0.644837737 0.1095566
v 0.040570695 -0.644837558 0.164334908
v 0.199660733 -0.614489257 0.219113201
v 0.040570695 -0.644837558 0.0547783002
v 0.040570695 -0.644837558 0
v 0.0405706987 -0.644837618 0.1095566
v 0.121070385 -0.634667993 0.164334908
v 0.275102317 -0.584619701 0.219113201
v 0.121070385 -0.634667993 0.0547783002
v 0.121070385 -0.634667993 0
v 0.121070392 -0.634668052 0.1095566
v 0.199660733 -0.614489257 0.164334908
v 0.346205354 -0.545530319 0.219113201
v 0.199660733 -0.614489257 0.0547783002
v 0.199660733 -0.614489257 0
v 0.199660748 -0.614489317 0.1095566
v 0.275102317 -0.584619701 0.164334908
v 0.411848485 -0.497837633 0.219113201
v 0.275102317 -0.584619701 0.0547783002
v 0.275102317 -0.584619701 0
v 0.275102347 -0.584619761 0.1095566
v 0.346205354 -0.545530319 0.164334908
v 0.470996618 -0.442293674 0.219113201
v 0.346205354 -0.545530319 0.0547783002
v 0.346205354 -0.545530319 0
v 0.346205384 -0.545530379 0.1095566
v 0.411848485 -0.497837633 0.164334908
v 0.522716761 -0.379774481 0.219113201
v 0.411848485 -0.497837633 0.0547783002
v 0.411848485 -0.497837633 0
v 0.411848545 -0.497837633 0.1095566
v 0.470996618 -0.442293674 0.164334908
v 0.566193402 -0.311266065 0.219113201
v 0.470996618 -0.442293674 0.0547783002
v 0.470996618 -0.442293674 0
v 0.470996618 -0.442293674 0.1095566
v 0.522716761 -0.379774481 0.164334908
v 0.600740731 -0.237848759 0.219113201
v 0.522716761 -0.379774481 0.0547783002
v 0.522716761 -0.379774481 0
v 0.522716761 -0.379774511 0.1095566
v 0.566193402 -0.311266065 0.164334908
v 0.62581408 -0.160680428 0.219113201
v 0.566193402 -0.311266065 0.0547783002
v 0.566193402 -0.311266065 0
v 0.566193461 -0.311266065 0.1095566
v 0.600740731 -0.237848759 0.164334908
v 0.641017973 -0.0809780806 0.219113201
v 0.600740731 -0.237848759 0.0547783002
v 0.600740731 -0.237848759 0
v 0.60074079 -0.237848759 0.1095566
v 0.62581408 -0.160680428 0.164334908
v 0.646112561 0 0.219113201
v 0.62581408 -0.160680428 0.0547783002
v 0.62581408 -0.160680428 0
v 0.62581414 -0.160680443 0.1095566
v 0.641017973 -0.0809780806 0.164334908
v 0.641017795 0.0809793845 0.219113201
v 0.641017973 -0.0809780806 0.0547783002
v 0.641017973 -0.0809780806 0
v 0.641018033 -0.0809780881 0.1095566
v 0.646112561 0 0.164334908
v 0.625813782 0.16068168 0.219113201
v 0.646112561 0 0.0547783002
v 0.646112561 0 0
v 0.646112621 0 0.1095566
v 0.641017795 0.0809793845 0.164334908
v 0.600740314 0.237849921 0.219113201
v 0.641017795 0.0809793845 0.0547783002
v 0.641017795 0.0809793845 0
v 0.641017854 0.0809793919 0.1095566
v 0.625813782 0.16068168 0.164334908
v 0.566192746 0.311267138 0.219113201
v 0.625813782 0.16068168 0.0547783002
v 0.625813782 0.16068168 0
v 0.625813842 0.160681695 0.1095566
v 0.600740314 0.237849921 0.164334908
v 0.522716045 0.379775465 0.219113201
v 0.600740314 0.237849921 0.0547783002
v 0.600740314 0.237849921 0
v 0.600740373 0.237849936 0.1095566
v 0.566192746 0.311267138 0.164334908
v 0.470995814 0.442294508 0.219113201
v 0.566192746 0.311267138 0.0547783002
v 0.566192806 0.311267167 0.1095566
v 0.522716045 0.379775465 0.164334908
v 0.470995814 0.442294508 0.164334908
v 0.522716105 0.379775494 0.1095566
vt 0.970000088 0
vt 0.990000069 0.099999994
vt 0.990000069 0
vt 0.970000088 0.099999994
vt 0.950000048 0
vt 0.990000069 0.199999988
vt 0.950000048 0.099999994
vt 0.930000067 0
vt 0.970000088 0.199999988
vt 0.990000069 0.300000012
vt 0.930000067 0.099999994
vt 0.910000026 0
vt 0.950000048 0.199999988
vt 0.970000088 0.300000012
vt 0.990000069 0.400000006
vt 0.910000026 0.099999994
vt 0.890000045 0
vt 0.930000067 0.199999988
vt 0.950000048 0.300000012
vt 0.970000088 0.400000006
vt 0.990000069 0.49999997
vt 0.890000045 0.099999994
vt 0.870000005 0
vt 0.910000026 0.199999988
vt 0.930000067 0.300000012
vt 0.950000048 0.400000006
vt 0.970000088 0.49999997
vt 0.990000069 0.600000024
vt 0.870000005 0.099999994
vt 0.850000024 0
vt 0.890000045 0.199999988
vt 0.910000026 0.300000012
vt 0.930000067 0.400000006
vt 0.950000048 0.49999997
vt 0.970000088 0.600000024
vt 0.990000069 0.699999928
vt 0.850000024 0.099999994
vt 0.829999983 0
vt 0.870000005 0.199999988
vt 0.890000045 0.300000012
vt 0.910000026 0.400000006
vt 0.930000067 0.49999997
vt 0.950000048 0.600000024
vt 0.970000088 0.699999928
vt 0.990000069 0.800000012
vt 0.970000088 0.800000012
vt 0.990000069 0.899999976
vt 0.950000048 0.699999928
vt 0.930000067 0.600000024
vt 0.910000026 0.49999997
vt 0.890000045 0.400000006
vt 0.970000088 0.899999976
vt 0.990000069 0.99999994
vt 0.970000088 0.99999994
vt 0.950000048 0.800000012
vt 0.950000048 0.899999976
vt 0.950000048 0.99999994
vt 0.930000067 0.699999928
vt 0.910000026 0.600000024
vt 0.930000067 0.800000012
vt 0.930000067 0.899999976
vt 0.930000067 0.99999994
vt 0.910000026 0.699999928
vt 0.890000045 0.49999997
vt 0.910000026 0.800000012
vt 0.910000026 0.899999976
vt 0.910000026 0.99999994
vt 0.890000045 0.600000024
vt 0.890000045 0.699999928
vt 0.890000045 0.800000012
vt 0.890000045 0.899999976
vt 0.890000045 0.99999994
vt 0.870000005 0.899999976
vt 0.870000005 0.99999994
vt 0.870000005 0.800000012
vt 0.870000005 0.699999928
vt 0.870000005 0.600000024
vt 0.870000005 0.49999997
vt 0.850000024 0.899999976
vt 0.850000024 0.99999994
vt 0.850000024 0.800000012
vt 0.850000024 0.699999928
vt 0.850000024 0.600000024
vt 0.829999983 0.899999976
vt 0.829999983 0.99999994
vt 0.829999983 0.800000012
vt 0.829999983 0.699999928
vt 0.810000002 0.899999976
vt 0.810000002 0.99999994
vt 0.810000002 0.800000012
vt 0.790000021 0.899999976
vt 0.790000021 0.99999994
vt 0.850000024 0.49999997
vt 0.829999983 0.600000024
vt 0.810000002 0.699999928
vt 0.790000021 0.800000012
vt 0.769999981 0.899999976
vt 0.769999981 0.99999994
vt 0.829999983 0.49999997
vt 0.810000002 0.600000024
vt 0.790000021 0.699999928
vt 0.769999981 0.800000012
vt 0.75 0.899999976
vt 0.75 0.99999994
vt 0.810000002 0.49999997
vt 0.790000021 0.600000024
vt 0.769999981 0.699999928
vt 0.75 0.800000012
vt 0.730000377 0.899999976
vt 0.730000377 0.99999994
vt 0.790000021 0.49999997
vt 0.769999981 0.600000024
vt 0.75 0.699999928
vt 0.730000377 0.800000012
vt 0.710000277 0.899999976
vt 0.710000277 0.99999994
vt 0.769999981 0.49999997
vt 0.75 0.600000024
vt 0.730000377 0.699999928
vt 0.710000277 0.800000012
vt 0.690000236 0.899999976
vt 0.690000236 0.99999994
vt 0.75 0.49999997
vt 0.730000377 0.600000024
vt 0.710000277 0.699999928
vt 0.690000236 0.800000012
vt 0.670000315 0.899999976
vt 0.670000315 0.99999994
vt 0.730000377 0.49999997
vt 0.710000277 0.600000024
vt 0.690000236 0.699999928
vt 0.670000315 0.800000012
vt 0.650000334 0.899999976
vt 0.650000334 0.99999994
vt 0.710000277 0.49999997
vt 0.690000236 0.600000024
vt 0.670000315 0.699999928
vt 0.650000334 0.800000012
vt 0.630000293 0.899999976
vt 0.630000293 0.99999994
vt 0.690000236 0.49999997
vt 0.670000315 0.600000024
vt 0.650000334 0.699999928
vt 0.630000293 0.800000012
vt 0.610000253 0.899999976
vt 0.610000253 0.99999994
vt 0.670000315 0.49999997
vt 0.650000334 0.600000024
vt 0.630000293 0.699999928
vt 0.610000253 0.800000012
vt 0.590000272 0.899999976
vt 0.590000272 0.99999994
vt 0.650000334 0.49999997
vt 0.630000293 0.600000024
vt 0.610000253 0.699999928
vt 0.590000272 0.800000012
vt 0.570000231 0.899999976
vt 0.570000231 0.99999994
vt 0.630000293 0.49999997
vt 0.610000253 0.600000024
vt 0.590000272 0.699999928
vt 0.570000231 0.800000012
vt 0.55000025 0.899999976
vt 0.55000025 0.99999994
vt 0.610000253 0.49999997
vt 0.590000272 0.600000024
vt 0.570000231 0.699999928
vt 0.55000025 0.800000012
vt 0.53000021 0.899999976
vt 0.53000021 0.99999994
vt 0.590000272 0.49999997
vt 0.570000231 0.600000024
vt 0.55000025 0.699999928
vt 0.53000021 0.800000012
vt 0.510000229 0.899999976
vt 0.510000229 0.99999994
vt 0.570000231 0.49999997
vt 0.55000025 0.600000024
vt 0.53000021 0.699999928
vt 0.510000229 0.800000012
vt 0.490000218 0.899999976
vt 0.490000218 0.99999994
vt 0.55000025 0.49999997
vt 0.53000021 0.600000024
vt 0.510000229 0.699999928
vt 0.490000218 0.800000012
vt 0.470000207 0.899999976
vt 0.470000207 0.99999994
vt 0.53000021 0.49999997
vt 0.510000229 0.600000024
vt 0.490000218 0.699999928
vt 0.470000207 0.800000012
vt 0.450000197 0.899999976
vt 0.450000197 0.99999994
vt 0.510000229 0.49999997
vt 0.490000218 0.600000024
vt 0.470000207 0.699999928
vt 0.450000197 0.800000012
vt 0.430000216 0.899999976
vt 0.430000216 0.99999994
vt 0.490000218 0.49999997
vt 0.470000207 0.600000024
vt 0.450000197 0.699999928
vt 0.430000216 0.800000012
vt 0.410000205 0.899999976
vt 0.410000205 0.99999994
vt 0.470000207 0.49999997
vt 0.450000197 0.600000024
vt 0.430000216 0.699999928
vt 0.410000205 0.800000012
vt 0.390000194 0.899999976
vt 0.390000194 0.99999994
vt 0.450000197 0.49999997
vt 0.430000216 0.600000024
vt 0.410000205 0.699999928
vt 0.390000194 0.800000012
vt 0.370000184 0.899999976
vt 0.370000184 0.99999994
vt 0.430000216 0.49999997
vt 0.410000205 0.600000024
vt 0.390000194 0.699999928
vt 0.370000184 0.800000012
vt 0.350000173 0.899999976
vt 0.350000173 0.99999994
vt 0.410000205 0.49999997
vt 0.390000194 0.600000024
vt 0.370000184 0.699999928
vt 0.350000173 0.800000012
vt 0.330000162 0.899999976
vt 0.330000162 0.99999994
vt 0.390000194 0.49999997
vt 0.370000184 0.600000024
vt 0.350000173 0.699999928
vt 0.330000162 0.800000012
vt 0.310000151 0.899999976
vt 0.310000151 0.99999994
vt 0.370000184 0.49999997
vt 0.350000173 0.600000024
vt 0.330000162 0.699999928
vt 0.310000151 0.800000012
vt 0.290000141 0.899999976
vt 0.290000141 0.99999994
vt 0.350000173 0.49999997
vt 0.330000162 0.600000024
vt 0.310000151 0.699999928
vt 0.290000141 0.800000012
vt 0.27000013 0.899999976
vt 0.27000013 0.99999994
vt 0.330000162 0.49999997
vt 0.310000151 0.600000024
vt 0.290000141 0.699999928
vt 0.27000013 0.800000012
vt 0.250000119 0.899999976
vt 0.250000119 0.99999994
vt 0.310000151 0.49999997
vt 0.290000141 0.600000024
vt 0.27000013 0.699999928
vt 0.250000119 0.800000012
vt 0.230000123 0.899999976
vt 0.230000123 0.99999994
vt 0.290000141 0.49999997
vt 0.27000013 0.600000024
vt 0.250000119 0.699999928
vt 0.230000123 0.800000012
vt 0.210000113 0.899999976
vt 0.210000113 0.99999994
vt 0.27000013 0.49999997
vt 0.250000119 0.600000024
vt 0.230000123 0.699999928
vt 0.210000113 0.800000012
vt 0.190000117 0.899999976
vt 0.190000117 0.99999994
vt 0.250000119 0.49999997
vt 0.230000123 0.600000024
vt 0.210000113 0.699999928
vt 0.190000117 0.800000012
vt 0.170000106 0.899999976
vt 0.170000106 0.99999994
vt 0.230000123 0.49999997
vt 0.210000113 0.600000024
vt 0.190000117 0.699999928
vt 0.170000106 0.800000012
vt 0.150000095 0.899999976
vt 0.150000095 0.99999994
vt 0.210000113 0.49999997
vt 0.190000117 0.600000024
vt 0.170000106 0.699999928
vt 0.150000095 0.800000012
vt 0.130000129 0.899999976
vt 0.130000129 0.99999994
vt 0.190000117 0.49999997
vt 0.170000106 0.600000024
vt 0.150000095 0.699999928
vt 0.130000129 0.800000012
vt 0.110000119 0.899999976
vt 0.110000119 0.99999994
vt 0.170000106 0.49999997
vt 0.150000095 0.600000024
vt 0.130000129 0.699999928
vt 0.110000119 0.800000012
vt 0.0900000706 0.899999976
vt 0.0900000706 0.99999994
vt 0.150000095 0.49999997
vt 0.130000129 0.600000024
vt 0.110000119 0.699999928
vt 0.0900000706 0.800000012
vt 0.0700000674 0.899999976
vt 0.0700000674 0.99999994
vt 0.130000129 0.49999997
vt 0.110000119 0.600000024
vt 0.0900000706 0.699999928
vt 0.0700000674 0.800000012
vt 0.0500000939 0.899999976
vt 0.0500000939 0.99999994
vt 0.110000119 0.49999997
vt 0.0900000706 0.600000024
vt 0.0700000674 0.699999928
vt 0.0500000939 0.800000012
vt 0.0300000869 0.899999976
vt 0.0300000869 0.99999994
vt 0.0900000706 0.49999997
vt 0.0700000674 0.600000024
vt 0.0500000939 0.699999928
vt 0.0300000869 0.800000012
vt 0.0100000799 0.899999976
vt 0.0100000799 0.99999994
vt -0.00999993086 0.899999976
vt -0.00999993086 0.99999994
vt -0.00999993086 0.800000012
vt 0.0100000799 0.800000012
vt -0.00999993086 0.699999928
vt 0.0100000799 0.699999928
vt -0.00999993086 0.600000024
vt 0.0300000869 0.699999928
vt 0.0100000799 0.600000024
vt -0.00999993086 0.49999997
vt 0.0300000869 0.600000024
vt 0.0100000799 0.49999997
vt -0.00999993086 0.400000006
vt 0.0500000939 0.600000024
vt 0.0100000799 0.400000006
vt -0.00999993086 0.300000012
vt 0.0300000869 0.49999997
vt 0.0500000939 0.49999997
vt 0.0100000799 0.300000012
vt -0.00999993086 0.199999988
vt 0.0300000869 0.400000006
vt 0.0700000674 0.49999997
vt 0.0100000799 0.199999988
vt -0.00999993086 0.099999994
vt 0.0300000869 0.300000012
vt 0.0500000939 0.400000006
vt 0.0700000674 0.400000006
vt 0.0100000799 0.099999994
vt -0.00999993086 0
vt 0.0100000799 0
vt 0.0300000869 0.199999988
vt 0.0500000939 0.300000012
vt 0.0300000869 0.099999994
vt 0.0300000869 0
vt 0.0900000706 0.400000006
vt 0.0500000939 0.199999988
vt 0.0500000939 0.099999994
vt 0.0500000939 0
vt 0.0700000674 0.300000012
vt 0.110000119 0.400000006
vt 0.0700000674 0.099999994
vt 0.0700000674 0
vt 0.0700000674 0.199999988
vt 0.0900000706 0.300000012
vt 0.130000129 0.400000006
vt 0.0900000706 0.099999994
vt 0.0900000706 0
vt 0.0900000706 0.199999988
vt 0.110000119 0.300000012
vt 0.150000095 0.400000006
vt 0.110000119 0.099999994
vt 0.110000119 0
vt 0.110000081 0.199999988
vt 0.130000129 0.300000012
vt 0.170000106 0.400000006
vt 0.130000129 0.099999994
vt 0.130000129 0
vt 0.130000085 0.199999988
vt 0.150000095 0.300000012
vt 0.190000117 0.400000006
vt 0.150000095 0.099999994
vt 0.150000095 0
vt 0.150000095 0.199999988
vt 0.170000106 0.300000012
vt 0.210000113 0.400000006
vt 0.170000106 0.099999994
vt 0.170000106 0
vt 0.170000106 0.199999988
vt 0.190000117 0.300000012
vt 0.230000123 0.400000006
vt 0.190000117 0.099999994
vt 0.190000117 0
vt 0.190000117 0.199999988
vt 0.210000113 0.300000012
vt 0.250000119 0.400000006
vt 0.210000113 0.099999994
vt 0.210000113 0
vt 0.210000113 0.199999988
vt 0.230000123 0.300000012
vt 0.27000013 0.400000006
vt 0.230000123 0.099999994
vt 0.230000123 0
vt 0.230000123 0.199999988
vt 0.250000119 0.300000012
vt 0.290000141 0.400000006
vt 0.250000119 0.099999994
vt 0.250000119 0
vt 0.250000119 0.199999988
vt 0.27000013 0.300000012
vt 0.310000151 0.400000006
vt 0.27000013 0.099999994
vt 0.27000013 0
vt 0.27000013 0.199999988
vt 0.290000141 0.300000012
vt 0.330000162 0.400000006
vt 0.290000141 0.099999994
vt 0.290000141 0
vt 0.290000141 0.199999988
vt 0.310000151 0.300000012
vt 0.350000173 0.400000006
vt 0.310000151 0.099999994
vt 0.310000151 0
vt 0.310000151 0.199999988
vt 0.330000162 0.300000012
vt 0.370000184 0.400000006
vt 0.330000162 0.099999994
vt 0.330000162 0
vt 0.330000162 0.199999988
vt 0.350000173 0.300000012
vt 0.390000194 0.400000006
vt 0.350000173 0.099999994
vt 0.350000173 0
vt 0.350000203 0.199999988
vt 0.370000184 0.300000012
vt 0.410000205 0.400000006
vt 0.370000184 0.099999994
vt 0.370000184 0
vt 0.370000213 0.199999988
vt 0.390000194 0.300000012
vt 0.430000216 0.400000006
vt 0.390000194 0.099999994
vt 0.390000194 0
vt 0.390000194 0.199999988
vt 0.410000205 0.300000012
vt 0.450000197 0.400000006
vt 0.410000205 0.099999994
vt 0.410000205 0
vt 0.410000205 0.199999988
vt 0.430000216 0.300000012
vt 0.470000207 0.400000006
vt 0.430000216 0.099999994
vt 0.430000216 0
vt 0.430000216 0.199999988
vt 0.450000197 0.300000012
vt 0.490000218 0.400000006
vt 0.450000197 0.099999994
vt 0.450000197 0
vt 0.450000197 0.199999988
vt 0.470000207 0.300000012
vt 0.510000229 0.400000006
vt 0.470000207 0.099999994
vt 0.470000207 0
vt 0.470000207 0.199999988
vt 0.490000218 0.300000012
vt 0.53000021 0.400000006
vt 0.490000218 0.099999994
vt 0.490000218 0
vt 0.490000218 0.199999988
vt 0.510000229 0.300000012
vt 0.55000025 0.400000006
vt 0.510000229 0.099999994
vt 0.510000229 0
vt 0.510000229 0.199999988
vt 0.53000021 0.300000012
vt 0.570000231 0.400000006
vt 0.53000021 0.099999994
vt 0.53000021 0
vt 0.53000021 0.199999988
vt 0.55000025 0.300000012
vt 0.590000272 0.400000006
vt 0.55000025 0.099999994
vt 0.55000025 0
vt 0.55000025 0.199999988
vt 0.570000231 0.300000012
vt 0.610000253 0.400000006
vt 0.570000231 0.099999994
vt 0.570000231 0
vt 0.570000231 0.199999988
vt 0.590000272 0.300000012
vt 0.630000293 0.400000006
vt 0.590000272 0.099999994
vt 0.590000272 0
vt 0.590000272 0.199999988
vt 0.610000253 0.300000012
vt 0.650000334 0.400000006
vt 0.610000253 0.099999994
vt 0.610000253 0
vt 0.610000253 0.199999988
vt 0.630000293 0.300000012
vt 0.670000315 0.400000006
vt 0.630000293 0.099999994
vt 0.630000293 0
vt 0.630000293 0.199999988
vt 0.650000334 0.300000012
vt 0.690000236 0.400000006
vt 0.650000334 0.099999994
vt 0.650000334 0
vt 0.650000334 0.199999988
vt 0.670000315 0.300000012
vt 0.710000277 0.400000006
vt 0.670000315 0.099999994
vt 0.670000315 0
vt 0.670000255 0.199999988
vt 0.690000236 0.300000012
vt 0.730000377 0.400000006
vt 0.690000236 0.099999994
vt 0.690000236 0
vt 0.690000236 0.199999988
vt 0.710000277 0.300000012
vt 0.75 0.400000006
vt 0.710000277 0.099999994
vt 0.710000277 0
vt 0.710000277 0.199999988
vt 0.730000377 0.300000012
vt 0.769999981 0.400000006
vt 0.730000377 0.099999994
vt 0.730000377 0
vt 0.730000257 0.199999988
vt 0.75 0.300000012
vt 0.790000021 0.400000006
vt 0.75 0.099999994
vt 0.75 0
vt 0.75 0.199999988
vt 0.769999981 0.300000012
vt 0.810000002 0.400000006
vt 0.769999981 0.099999994
vt 0.769999981 0
vt 0.769999981 0.199999988
vt 0.790000021 0.300000012
vt 0.829999983 0.400000006
vt 0.790000021 0.099999994
vt 0.790000021 0
vt 0.790000021 0.199999988
vt 0.810000002 0.300000012
vt 0.850000024 0.400000006
vt 0.810000002 0.099999994
vt 0.810000002 0
vt 0.810000002 0.199999988
vt 0.829999983 0.300000012
vt 0.870000005 0.400000006
vt 0.829999983 0.099999994
vt 0.829999983 0.199999988
vt 0.850000024 0.300000012
vt 0.870000005 0.300000012
vt 0.850000024 0.199999988
vn 0.187380984 0.982287347 0
vn 0.0627902672 0.998026669 -4.42055722E-07
vn 0.0627902672 0.998026669 0
vn 0.187380984 0.982287347 -4.48074104E-07
vn 0.309016883 0.95105654 0
vn 0.0627902597 0.998026669 0
vn 0.309016883 0.95105654 -4.74622567E-07
vn 0.425779343 0.904827058 0
vn 0.187380955 0.982287347 0
vn 0.0627902597 0.998026669 4.42597496E-07
vn 0.425779402 0.904827058 -4.94127733E-07
vn 0.535826623 0.844327986 0
vn 0.309016883 0.95105654 0
vn 0.187380955 0.982287347 4.48615907E-07
vn 0.0627902597 0.998026669 0
vn 0.535826683 0.844327986 -4.55117572E-07
vn 0.637423873 0.770513415 0
vn 0.425779402 0.904827058 0
vn 0.309016824 0.95105654 4.74622567E-07
vn 0.187380999 0.982287347 0
vn 0.0627902597 0.998026669 0
vn 0.637423873 0.770513415 -4.44281596E-07
vn 0.72896862 0.684547067 0
vn 0.535826802 0.844327986 0
vn 0.425779313 0.904827058 4.96294888E-07
vn 0.309016883 0.95105654 0
vn 0.187381014 0.982287347 0
vn 0.0627902597 0.998026669 0
vn 0.72896862 0.684547126 -5.09298502E-07
vn 0.809017062 0.587785184 0
vn 0.637423694 0.770513475 0
vn 0.535826743 0.844327986 4.57284813E-07
vn 0.425779313 0.904827058 0
vn 0.309016883 0.95105654 0
vn 0.187380984 0.982287347 0
vn 0.0627902597 0.998026669 0
vn 0.809017062 0.587785184 -5.2013479E-07
vn 0.876306593 0.481753856 0
vn 0.72896862 0.684547067 0
vn 0.637423873 0.770513296 4.48616021E-07
vn 0.535826743 0.844327986 0
vn 0.425779313 0.904827058 0
vn 0.309016824 0.95105654 0
vn 0.187380984 0.982287347 0
vn 0.0627902597 0.998026669 0
vn 0.187380955 0.982287347 0
vn 0.0627902448 0.998026669 0
vn 0.309016883 0.95105654 0
vn 0.425779343 0.904827058 0
vn 0.535826683 0.844327986 0
vn 0.637423873 0.770513415 0
vn 0.187380955 0.982287347 0
vn 0.0627902597 0.998026669 0
vn 0.187380955 0.982287347 0
vn 0.309016824 0.95105654 0
vn 0.309016883 0.95105654 0
vn 0.309016883 0.95105654 0
vn 0.425779313 0.904827058 0
vn 0.535826683 0.844327986 0
vn 0.425779343 0.904827058 0
vn 0.425779313 0.904827058 0
vn 0.425779343 0.904827058 0
vn 0.535826683 0.844327986 0
vn 0.637423873 0.770513415 0
vn 0.535826683 0.844327986 0
vn 0.535826683 0.844327986 0
vn 0.535826683 0.844327986 0
vn 0.637423873 0.770513415 0
vn 0.637423873 0.770513415 0
vn 0.637423873 0.770513415 0
vn 0.637423873 0.770513415 0
vn 0.637423873 0.770513415 0
vn 0.72896874 0.684547007 0
vn 0.72896874 0.684547007 0
vn 0.72896868 0.684547007 0
vn 0.72896874 0.684547007 0
vn 0.72896868 0.684547007 0
vn 0.72896874 0.684547007 0
vn 0.809017062 0.587785184 0
vn 0.809017062 0.587785184 0
vn 0.809017062 0.587785184 0
vn 0.809017062 0.587785184 0
vn 0.809017062 0.587785184 0
vn 0.876306593 0.481753856 0
vn 0.876306593 0.481753856 0
vn 0.876306593 0.481753856 0
vn 0.876306593 0.481753856 0
vn 0.92977649 0.368124664 0
vn 0.92977649 0.368124664 0
vn 0.92977649 0.368124664 0
vn 0.968583167 0.248689756 0
vn 0.968583167 0.248689756 0
vn 0.809017062 0.587785184 0
vn 0.876306593 0.481753856 0
vn 0.92977649 0.368124664 0
vn 0.968583167 0.248689756 0
vn 0.992114604 0.125333175 0
vn 0.992114604 0.125333175 0
vn 0.876306593 0.481753856 0
vn 0.92977649 0.368124664 0
vn 0.968583167 0.248689771 0
vn 0.992114604 0.12533319 0
vn 1 6.8674558E-07 0
vn 1 6.86745636E-07 0
vn 0.92977649 0.368124664 0
vn 0.968583167 0.248689756 0
vn 0.992114604 0.12533319 0
vn 1 6.8674558E-07 0
vn 0.992114842 -0.125331849 0
vn 0.992114842 -0.125331849 0
vn 0.968583167 0.248689771 0
vn 0.992114604 0.125333205 0
vn 1 6.89121919E-07 0
vn 0.992114842 -0.125331849 0
vn 0.968583584 -0.248688146 0
vn 0.968583584 -0.248688146 0
vn 0.992114604 0.12533319 0
vn 1 6.89121919E-07 0
vn 0.992114842 -0.125331849 0
vn 0.968583584 -0.248688146 0
vn 0.929777324 -0.368122548 0
vn 0.929777324 -0.368122548 0
vn 1 6.86745636E-07 0
vn 0.992114842 -0.125331849 0
vn 0.968583584 -0.248688132 0
vn 0.929777324 -0.368122578 0
vn 0.876307726 -0.481751978 0
vn 0.876307726 -0.481751978 0
vn 0.992114842 -0.125331879 0
vn 0.968583584 -0.248688146 0
vn 0.929777324 -0.368122518 0
vn 0.876307726 -0.481751978 0
vn 0.809018135 -0.587783575 0
vn 0.809018135 -0.587783575 0
vn 0.968583584 -0.248688132 0
vn 0.929777324 -0.368122578 0
vn 0.876307726 -0.481751978 0
vn 0.809018135 -0.587783635 0
vn 0.728969812 -0.684545755 0
vn 0.728969812 -0.684545755 0
vn 0.929777324 -0.368122518 0
vn 0.876307726 -0.481751978 0
vn 0.809018135 -0.587783694 0
vn 0.728969812 -0.684545755 0
vn 0.637425184 -0.770512283 0
vn 0.637425184 -0.770512283 0
vn 0.876307726 -0.481751978 0
vn 0.809018135 -0.587783694 0
vn 0.728969872 -0.684545755 0
vn 0.637425184 -0.770512283 0
vn 0.535828054 -0.844327152 0
vn 0.535828054 -0.844327152 0
vn 0.809018135 -0.587783635 0
vn 0.728969812 -0.684545755 0
vn 0.637425184 -0.770512283 0
vn 0.535828054 -0.844327152 0
vn 0.425780833 -0.904826343 0
vn 0.425780833 -0.904826343 0
vn 0.728969812 -0.684545755 0
vn 0.637425184 -0.770512283 0
vn 0.535828054 -0.844327152 0
vn 0.425780833 -0.904826343 0
vn 0.309018642 -0.951056004 0
vn 0.309018642 -0.951056004 0
vn 0.637425184 -0.770512283 0
vn 0.535828054 -0.844327152 0
vn 0.425780833 -0.904826343 0
vn 0.309018642 -0.951056004 0
vn 0.187382758 -0.98228699 0
vn 0.187382758 -0.98228699 0
vn 0.535828054 -0.844327152 0
vn 0.425780773 -0.904826343 0
vn 0.309018642 -0.951056004 0
vn 0.187382743 -0.98228699 0
vn 0.0627917573 -0.99802655 0
vn 0.0627917573 -0.99802655 0
vn 0.425780833 -0.904826343 0
vn 0.309018642 -0.951056004 0
vn 0.187382743 -0.98228699 0
vn 0.0627917573 -0.99802655 0
vn -0.0627890676 -0.998026788 0
vn -0.0627890676 -0.998026788 0
vn 0.309018642 -0.951056004 0
vn 0.187382743 -0.98228699 0
vn 0.0627917573 -0.99802655 0
vn -0.0627890676 -0.998026788 0
vn -0.187380031 -0.982287467 0
vn -0.187380031 -0.982287467 0
vn 0.187382728 -0.98228699 0
vn 0.0627917573 -0.99802655 0
vn -0.0627890751 -0.998026788 0
vn -0.187380031 -0.982287467 0
vn -0.309015691 -0.951056898 0
vn -0.309015691 -0.951056898 0
vn 0.0627917573 -0.99802655 0
vn -0.0627890751 -0.998026788 0
vn -0.187380046 -0.982287467 0
vn -0.309015691 -0.951056898 0
vn -0.425777912 -0.904827714 0
vn -0.425777912 -0.904827714 0
vn -0.0627890751 -0.998026788 0
vn -0.187380046 -0.982287467 0
vn -0.309015721 -0.951056898 0
vn -0.425777912 -0.904827714 0
vn -0.535825729 -0.844328582 0
vn -0.535825729 -0.844328582 0
vn -0.187380031 -0.982287467 0
vn -0.309015721 -0.951056898 0
vn -0.425777912 -0.904827714 0
vn -0.535825729 -0.844328582 0
vn -0.637423217 -0.770513892 0
vn -0.637423217 -0.770513892 0
vn -0.309015721 -0.951056898 0
vn -0.425777912 -0.904827714 0
vn -0.535825729 -0.844328582 0
vn -0.637423217 -0.770513892 0
vn -0.728967845 -0.684547842 0
vn -0.728967845 -0.684547842 0
vn -0.425777912 -0.904827714 0
vn -0.535825729 -0.844328582 0
vn -0.637423217 -0.770513892 0
vn -0.728967845 -0.684547842 0
vn -0.809016347 -0.587786257 0
vn -0.809016347 -0.587786257 0
vn -0.535825729 -0.844328582 0
vn -0.637423217 -0.770513833 0
vn -0.728967845 -0.684547842 0
vn -0.809016347 -0.587786257 0
vn -0.876306236 -0.481754541 0
vn -0.876306236 -0.481754541 0
vn -0.637423217 -0.770513892 0
vn -0.728967845 -0.684547842 0
vn -0.809016347 -0.587786257 0
vn -0.876306236 -0.481754541 0
vn -0.929776192 -0.368125468 0
vn -0.929776192 -0.368125468 0
vn -0.728967845 -0.684547842 0
vn -0.809016347 -0.587786257 0
vn -0.876306236 -0.481754541 0
vn -0.929776192 -0.368125468 0
vn -0.968582928 -0.248690844 0
vn -0.968582928 -0.248690844 0
vn -0.809016347 -0.587786257 0
vn -0.876306236 -0.481754541 0
vn -0.929776192 -0.368125468 0
vn -0.968582928 -0.248690873 0
vn -0.992114604 -0.125334039 0
vn -0.992114604 -0.125334039 0
vn -0.876306236 -0.481754541 0
vn -0.929776192 -0.368125439 0
vn -0.968582928 -0.248690873 0
vn -0.992114604 -0.125334039 0
vn -1 -5.9644691E-07 0
vn -1 -5.9644691E-07 0
vn -0.929776192 -0.368125468 0
vn -0.968582928 -0.248690873 0
vn -0.992114604 -0.125334039 0
vn -1 -6.02387615E-07 0
vn -0.992114723 0.125332549 0
vn -0.992114723 0.125332534 0
vn -0.968582928 -0.248690873 0
vn -0.992114604 -0.125334039 0
vn -1 -6.04763898E-07 0
vn -0.992114723 0.125332549 0
vn -0.968583345 0.248689011 0
vn -0.968583345 0.248689011 0
vn -0.992114604 -0.125334024 0
vn -1 -6.04763898E-07 0
vn -0.992114723 0.125332549 0
vn -0.968583345 0.24868907 0
vn -0.929776669 0.368123949 0
vn -0.929776669 0.368123949 0
vn -1 -6.02387615E-07 0
vn -0.992114723 0.125332549 0
vn -0.968583345 0.24868907 0
vn -0.929776669 0.368123978 0
vn -0.876306891 0.481753409 0
vn -0.876306891 0.481753409 0
vn -0.992114723 0.125332549 0
vn -0.968583345 0.248689011 0
vn -0.929776669 0.368123949 0
vn -0.876306891 0.481753349 0
vn -0.80901736 0.587784648 0
vn -0.80901736 0.587784648 0
vn -0.968583345 0.24868907 0
vn -0.929776669 0.368123949 0
vn -0.876306891 0.48175329 0
vn -0.80901742 0.587784648 0
vn -0.728969216 0.68454653 0
vn -0.728969216 0.68454653 0
vn -0.929776669 0.368123949 0
vn -0.876306891 0.48175329 0
vn -0.80901736 0.587784648 0
vn -0.728969157 0.68454653 0
vn -0.637424231 0.770513058 0
vn -0.637424231 0.770513058 0
vn -0.876306891 0.48175329 0
vn -0.80901742 0.587784648 0
vn -0.728969157 0.68454659 0
vn -0.637424231 0.770513058 0
vn -0.535826921 0.844327807 0
vn -0.535826921 0.844327807 0
vn -0.80901742 0.587784648 0
vn -0.728969157 0.68454653 0
vn -0.637424231 0.770513058 0
vn -0.535826862 0.844327807 0
vn -0.425779581 0.904826939 0
vn -0.425779581 0.904826939 0
vn -0.728969157 0.68454653 0
vn -0.637424231 0.770513058 0
vn -0.535826862 0.844327807 0
vn -0.42577967 0.904826939 0
vn -0.30901736 0.95105648 0
vn -0.30901736 0.95105648 0
vn -0.637424231 0.770513058 0
vn -0.535826862 0.844327807 0
vn -0.42577967 0.904826939 0
vn -0.30901736 0.95105648 0
vn -0.187381849 0.982287109 0
vn -0.187381849 0.982287109 0
vn -0.535826921 0.844327807 0
vn -0.42577967 0.904826939 0
vn -0.30901739 0.95105648 0
vn -0.187381864 0.982287109 0
vn -0.0627908558 0.998026669 0
vn -0.0627908558 0.998026669 0
vn 0.0627902448 0.998026669 0
vn 0.0627902597 0.998026669 0
vn 0.0627902597 0.998026669 0
vn -0.0627908558 0.998026669 0
vn 0.0627902597 0.998026669 0
vn -0.0627908558 0.998026669 0
vn 0.0627902597 0.998026669 0
vn -0.187381834 0.982287109 0
vn -0.0627908558 0.998026669 0
vn 0.0627902597 0.998026669 0
vn -0.187381864 0.982287109 0
vn -0.0627908558 0.998026669 0
vn 0.0627902597 0.998026669 0
vn -0.30901736 0.95105648 0
vn -0.0627908558 0.998026669 0
vn 0.0627902597 0.998026669 4.42597496E-07
vn -0.187381834 0.982287109 0
vn -0.30901736 0.95105648 0
vn -0.0627908558 0.998026669 4.45848315E-07
vn 0.0627902597 0.998026669 0
vn -0.187381849 0.982287109 0
vn -0.425779581 0.904826939 0
vn -0.0627908483 0.998026669 0
vn 0.0627902672 0.998026669 -4.42055722E-07
vn -0.187381849 0.982287109 4.54033852E-07
vn -0.30901736 0.95105648 0
vn -0.425779521 0.904826939 0
vn -0.0627908483 0.998026669 -4.45848315E-07
vn 0.0627902672 0.998026669 0
vn -0.0627908558 0.998026669 0
vn -0.187381849 0.982287109 0
vn -0.30901739 0.95105648 4.6703758E-07
vn -0.187381834 0.982287109 -4.54033938E-07
vn -0.187381849 0.982287109 0
vn -0.535826921 0.844327807 0
vn -0.30901739 0.95105648 0
vn -0.30901736 0.95105648 -4.65954031E-07
vn -0.30901736 0.95105648 0
vn -0.425779521 0.904826939 4.8654266E-07
vn -0.637424231 0.770513058 0
vn -0.425779581 0.904826939 -4.85459111E-07
vn -0.425779581 0.904826939 0
vn -0.425779521 0.904826939 0
vn -0.535826921 0.844327807 4.59452025E-07
vn -0.728969157 0.68454653 0
vn -0.535826921 0.844327807 -4.5945211E-07
vn -0.535826921 0.844327807 0
vn -0.535826981 0.844327748 0
vn -0.637424231 0.770513058 3.74930181E-07
vn -0.80901742 0.587784648 0
vn -0.637424231 0.770513058 -3.66261304E-07
vn -0.637424171 0.770513058 0
vn -0.637424171 0.770513058 0
vn -0.728969097 0.68454659 3.94435318E-07
vn -0.876306891 0.481753349 0
vn -0.728969097 0.68454659 -3.81432073E-07
vn -0.728969157 0.68454659 0
vn -0.728969038 0.684546709 0
vn -0.80901736 0.587784708 5.02796524E-07
vn -0.929776669 0.368123949 0
vn -0.80901736 0.587784767 -5.00629426E-07
vn -0.80901736 0.587784708 0
vn -0.80901736 0.587784767 0
vn -0.876306891 0.481753349 4.98462043E-07
vn -0.968583345 0.24868907 0
vn -0.876306891 0.48175329 -4.99545706E-07
vn -0.876306891 0.48175329 0
vn -0.876306891 0.48175329 0
vn -0.929776669 0.368123949 4.42114185E-07
vn -0.992114723 0.125332549 0
vn -0.929776669 0.368123949 -4.41030636E-07
vn -0.929776669 0.368123949 0
vn -0.929776788 0.368123949 0
vn -0.968583345 0.24868907 4.42114185E-07
vn -1 -5.9644691E-07 0
vn -0.968583345 0.248689011 -4.42114185E-07
vn -0.968583345 0.248689011 0
vn -0.968583345 0.248689011 0
vn -0.992114723 0.125332549 4.46990498E-07
vn -0.992114604 -0.125334039 0
vn -0.992114723 0.125332519 -4.46990413E-07
vn -0.992114723 0.125332519 0
vn -0.992114723 0.125332534 0
vn -1 -5.9644691E-07 4.43739651E-07
vn -0.968582928 -0.248690844 0
vn -1 -5.97635051E-07 -4.43739708E-07
vn -1 -6.03575756E-07 0
vn -1 -5.94070684E-07 0
vn -0.992114604 -0.125334039 4.47532273E-07
vn -0.929776192 -0.368125468 0
vn -0.992114604 -0.125334039 -4.48074104E-07
vn -0.992114604 -0.125334039 0
vn -0.992114604 -0.125334039 0
vn -0.968582928 -0.248690844 4.61619265E-07
vn -0.876306236 -0.481754541 0
vn -0.968582928 -0.248690844 -4.62161182E-07
vn -0.968582928 -0.248690844 0
vn -0.968582928 -0.248690844 0
vn -0.929776192 -0.368125439 4.84375164E-07
vn -0.809016347 -0.587786257 0
vn -0.929776192 -0.368125439 -4.84375164E-07
vn -0.929776192 -0.368125439 0
vn -0.929776192 -0.368125439 0
vn -0.876306236 -0.481754541 4.30194405E-07
vn -0.728967845 -0.684547842 0
vn -0.876306236 -0.481754541 -4.30194461E-07
vn -0.876306236 -0.481754541 0
vn -0.876306176 -0.481754571 0
vn -0.809016287 -0.587786317 3.20749592E-07
vn -0.637423217 -0.770513833 0
vn -0.809016287 -0.587786317 -3.20749621E-07
vn -0.809016347 -0.587786257 0
vn -0.809016168 -0.587786317 0
vn -0.728967965 -0.684547842 3.77097422E-07
vn -0.535825789 -0.844328582 0
vn -0.728967965 -0.684547901 -3.7709745E-07
vn -0.728967845 -0.684547842 0
vn -0.728967965 -0.684547842 0
vn -0.637423337 -0.770513773 5.13632642E-07
vn -0.425777912 -0.904827714 0
vn -0.637423277 -0.770513773 -5.13632642E-07
vn -0.637423277 -0.770513773 0
vn -0.637423277 -0.770513773 0
vn -0.535825849 -0.844328523 5.2446876E-07
vn -0.309015691 -0.951056898 0
vn -0.535825729 -0.844328582 -5.24468817E-07
vn -0.535825729 -0.844328582 0
vn -0.535825789 -0.844328582 0
vn -0.425777912 -0.904827714 4.86542376E-07
vn -0.187380031 -0.982287467 0
vn -0.425777853 -0.904827714 -4.85458827E-07
vn -0.425777853 -0.904827714 0
vn -0.425777853 -0.904827714 0
vn -0.309015691 -0.951056898 4.64870084E-07
vn -0.0627890751 -0.998026788 0
vn -0.309015691 -0.951056898 -4.63786535E-07
vn -0.309015691 -0.951056898 0
vn -0.309015691 -0.951057017 0
vn -0.187380046 -0.982287467 4.51866725E-07
vn 0.0627917573 -0.99802655 0
vn -0.187380031 -0.982287467 -4.51866782E-07
vn -0.187380031 -0.982287467 0
vn -0.187380031 -0.982287467 0
vn -0.0627890676 -0.998026788 4.45848372E-07
vn 0.187382728 -0.98228699 0
vn -0.0627890751 -0.998026788 -4.45848428E-07
vn -0.0627890751 -0.998026788 0
vn -0.0627890751 -0.998026788 0
vn 0.0627917573 -0.99802655 4.458484E-07
vn 0.309018642 -0.951056004 0
vn 0.0627917647 -0.99802655 -4.44764879E-07
vn 0.0627917796 -0.99802655 0
vn 0.0627917573 -0.99802655 0
vn 0.187382728 -0.98228699 4.52950331E-07
vn 0.425780833 -0.904826343 0
vn 0.187382743 -0.98228699 -4.51866811E-07
vn 0.187382773 -0.98228699 0
vn 0.187382743 -0.98228699 0
vn 0.309018642 -0.951056004 4.64870084E-07
vn 0.535828054 -0.844327152 0
vn 0.309018642 -0.951056004 -4.64870084E-07
vn 0.309018642 -0.951056004 0
vn 0.309018642 -0.951056004 0
vn 0.425780833 -0.904826343 4.83291444E-07
vn 0.637425184 -0.770512283 0
vn 0.425780773 -0.904826343 -4.83291501E-07
vn 0.425780773 -0.904826343 0
vn 0.425780833 -0.904826343 0
vn 0.535828054 -0.844327152 4.3561252E-07
vn 0.728969812 -0.684545755 0
vn 0.535828054 -0.844327033 -4.35612606E-07
vn 0.535828054 -0.844327152 0
vn 0.535828114 -0.844327033 0
vn 0.637425184 -0.770512283 2.64401734E-07
vn 0.809018135 -0.587783635 0
vn 0.637425184 -0.770512283 -2.6440182E-07
vn 0.637425184 -0.770512283 0
vn 0.637425244 -0.770512223 0
vn 0.728969872 -0.684545755 0
vn 0.876307726 -0.481751978 0
vn 0.728969872 -0.684545755 0
vn 0.728969872 -0.684545755 0
vn 0.728969812 -0.684545755 0
vn 0.809018075 -0.587783754 0
vn 0.929777324 -0.368122518 0
vn 0.809018135 -0.587783694 0
vn 0.809018195 -0.587783575 0
vn 0.809018016 -0.587783873 0
vn 0.876307607 -0.481751949 3.74930181E-07
vn 0.968583584 -0.248688132 0
vn 0.876307726 -0.481751978 -3.7493021E-07
vn 0.876307726 -0.481751919 0
vn 0.876307607 -0.481751949 0
vn 0.929777324 -0.368122548 4.3994703E-07
vn 0.992114842 -0.125331849 0
vn 0.929777324 -0.368122488 -4.44281568E-07
vn 0.929777324 -0.368122488 0
vn 0.929777324 -0.368122488 0
vn 0.968583584 -0.248688132 4.42114185E-07
vn 1 6.8674558E-07 0
vn 0.968583584 -0.248688132 -4.46448666E-07
vn 0.968583584 -0.248688132 0
vn 0.968583584 -0.248688146 0
vn 0.992114842 -0.125331849 4.47535882E-07
vn 0.992114604 0.12533319 0
vn 0.992114842 -0.125331849 -4.47535967E-07
vn 0.992114842 -0.125331849 0
vn 0.992114842 -0.125331864 0
vn 1 6.89121862E-07 4.4401429E-07
vn 0.968583167 0.248689756 0
vn 1 6.89121919E-07 -4.44285206E-07
vn 1 6.86745636E-07 0
vn 1 6.91498258E-07 0
vn 0.992114604 0.12533319 4.46719753E-07
vn 0.92977649 0.368124664 0
vn 0.992114604 0.12533319 -4.46990612E-07
vn 0.992114604 0.125333175 0
vn 0.992114604 0.12533319 0
vn 0.968583167 0.248689756 4.61077605E-07
vn 0.876306593 0.481753856 0
vn 0.968583167 0.248689756 -4.59994055E-07
vn 0.968583167 0.248689756 0
vn 0.968583167 0.248689756 0
vn 0.92977649 0.368124664 4.85458827E-07
vn 0.809017062 0.587785184 0
vn 0.92977649 0.368124664 -4.82208122E-07
vn 0.92977649 0.368124604 0
vn 0.92977649 0.368124604 0
vn 0.876306593 0.481753856 4.96295058E-07
vn 0.72896874 0.684546947 0
vn 0.876306593 0.481753796 -4.94127846E-07
vn 0.876306593 0.481753856 0
vn 0.809017062 0.587785184 5.24469158E-07
vn 0.72896868 0.684547007 5.17967351E-07
vn 0.809017062 0.587785125 0
g Cylinder001_0
f 3/3/3 2/2/2 1/1/1
f 2/2/2 4/4/4 1/1/1
f 1/1/1 4/4/4 5/5/5
f 2/2/2 6/6/6 4/4/4
f 4/4/4 7/7/7 5/5/5
f 5/5/5 7/7/7 8/8/8
f 6/6/6 9/9/9 4/4/4
f 4/4/4 9/9/9 7/7/7
f 6/6/6 10/10/10 9/9/9
f 7/7/7 11/11/11 8/8/8
f 8/8/8 11/11/11 12/12/12
f 9/9/9 13/13/13 7/7/7
f 7/7/7 13/13/13 11/11/11
f 10/10/10 14/14/14 9/9/9
f 9/9/9 14/14/14 13/13/13
f 10/10/10 15/15/15 14/14/14
f 11/11/11 16/16/16 12/12/12
f 12/12/12 16/16/16 17/17/17
f 13/13/13 18/18/18 11/11/11
f 11/11/11 18/18/18 16/16/16
f 14/14/14 19/19/19 13/13/13
f 13/13/13 19/19/19 18/18/18
f 15/15/15 20/20/20 14/14/14
f 14/14/14 20/20/20 19/19/19
f 15/15/15 21/21/21 20/20/20
f 16/16/16 22/22/22 17/17/17
f 17/17/17 22/22/22 23/23/23
f 18/18/18 24/24/24 16/16/16
f 16/16/16 24/24/24 22/22/22
f 19/19/19 25/25/25 18/18/18
f 18/18/18 25/25/25 24/24/24
f 20/20/20 26/26/26 19/19/19
f 19/19/19 26/26/26 25/25/25
f 21/21/21 27/27/27 20/20/20
f 20/20/20 27/27/27 26/26/26
f 21/21/21 28/28/28 27/27/27
f 22/22/22 29/29/29 23/23/23
f 23/23/23 29/29/29 30/30/30
f 24/24/24 31/31/31 22/22/22
f 22/22/22 31/31/31 29/29/29
f 25/25/25 32/32/32 24/24/24
f 24/24/24 32/32/32 31/31/31
f 26/26/26 33/33/33 25/25/25
f 25/25/25 33/33/33 32/32/32
f 27/27/27 34/34/34 26/26/26
f 26/26/26 34/34/34 33/33/33
f 28/28/28 35/35/35 27/27/27
f 27/27/27 35/35/35 34/34/34
f 28/28/28 36/36/36 35/35/35
f 29/29/29 37/37/37 30/30/30
f 30/30/30 37/37/37 38/38/38
f 31/31/31 39/39/39 29/29/29
f 29/29/29 39/39/39 37/37/37
f 32/32/32 40/40/40 31/31/31
f 31/31/31 40/40/40 39/39/39
f 33/33/33 41/41/41 32/32/32
f 32/32/32 41/41/41 40/40/40
f 34/34/34 42/42/42 33/33/33
f 33/33/33 42/42/42 41/41/41
f 35/35/35 43/43/43 34/34/34
f 34/34/34 43/43/43 42/42/42
f 36/36/36 44/44/44 35/35/35
f 35/35/35 44/44/44 43/43/43
f 36/36/36 45/45/45 44/44/44
f 45/45/45 46/46/46 44/44/44
f 45/45/45 47/47/47 46/46/46
f 44/44/44 48/48/48 43/43/43
f 44/44/44 46/46/46 48/48/48
f 43/43/43 49/49/49 42/42/42
f 43/43/43 48/48/48 49/49/49
f 42/42/42 50/50/50 41/41/41
f 42/42/42 49/49/49 50/50/50
f 41/41/41 51/51/51 40/40/40
f 41/41/41 50/50/50 51/51/51
f 47/47/47 52/52/52 46/46/46
f 47/47/47 53/53/53 52/52/52
f 53/53/53 54/54/54 52/52/52
f 46/46/46 55/55/55 48/48/48
f 46/46/46 52/52/52 55/55/55
f 52/52/52 54/54/54 56/56/56
f 52/52/52 56/56/56 55/55/55
f 54/54/54 57/57/57 56/56/56
f 48/48/48 58/58/58 49/49/49
f 48/48/48 55/55/55 58/58/58
f 49/49/49 59/59/59 50/50/50
f 49/49/49 58/58/58 59/59/59
f 55/55/55 56/56/56 60/60/60
f 55/55/55 60/60/60 58/58/58
f 56/56/56 57/57/57 61/61/61
f 56/56/56 61/61/61 60/60/60
f 57/57/57 62/62/62 61/61/61
f 58/58/58 60/60/60 63/63/63
f 58/58/58 63/63/63 59/59/59
f 50/50/50 59/59/59 64/64/64
f 50/50/50 64/64/64 51/51/51
f 60/60/60 61/61/61 65/65/65
f 60/60/60 65/65/65 63/63/63
f 61/61/61 62/62/62 66/66/66
f 61/61/61 66/66/66 65/65/65
f 62/62/62 67/67/67 66/66/66
f 59/59/59 63/63/63 68/68/68
f 59/59/59 68/68/68 64/64/64
f 63/63/63 65/65/65 69/69/69
f 63/63/63 69/69/69 68/68/68
f 65/65/65 66/66/66 70/70/70
f 65/65/65 70/70/70 69/69/69
f 66/66/66 67/67/67 71/71/71
f 66/66/66 71/71/71 70/70/70
f 67/67/67 72/72/72 71/71/71
f 71/71/71 72/72/72 73/73/73
f 72/72/72 74/74/74 73/73/73
f 70/70/70 71/71/71 75/75/75
f 71/71/71 73/73/73 75/75/75
f 69/69/69 70/70/70 76/76/76
f 70/70/70 75/75/75 76/76/76
f 68/68/68 69/69/69 77/77/77
f 69/69/69 76/76/76 77/77/77
f 64/64/64 68/68/68 78/78/78
f 68/68/68 77/77/77 78/78/78
f 73/73/73 74/74/74 79/79/79
f 74/74/74 80/80/80 79/79/79
f 75/75/75 73/73/73 81/81/81
f 73/73/73 79/79/79 81/81/81
f 76/76/76 75/75/75 82/82/82
f 75/75/75 81/81/81 82/82/82
f 77/77/77 76/76/76 83/83/83
f 76/76/76 82/82/82 83/83/83
f 79/79/79 80/80/80 84/84/84
f 80/80/80 85/85/85 84/84/84
f 81/81/81 79/79/79 86/86/86
f 79/79/79 84/84/84 86/86/86
f 82/82/82 81/81/81 87/87/87
f 81/81/81 86/86/86 87/87/87
f 84/84/84 85/85/85 88/88/88
f 85/85/85 89/89/89 88/88/88
f 86/86/86 84/84/84 90/90/90
f 84/84/84 88/88/88 90/90/90
f 88/88/88 89/89/89 91/91/91
f 89/89/89 92/92/92 91/91/91
f 77/77/77 83/83/83 93/93/93
f 78/78/78 77/77/77 93/93/93
f 83/83/83 82/82/82 94/94/94
f 82/82/82 87/87/87 94/94/94
f 87/87/87 86/86/86 95/95/95
f 86/86/86 90/90/90 95/95/95
f 90/90/90 88/88/88 96/96/96
f 88/88/88 91/91/91 96/96/96
f 91/91/91 92/92/92 97/97/97
f 92/92/92 98/98/98 97/97/97
f 93/93/93 83/83/83 99/99/99
f 83/83/83 94/94/94 99/99/99
f 94/94/94 87/87/87 100/100/100
f 87/87/87 95/95/95 100/100/100
f 95/95/95 90/90/90 101/101/101
f 90/90/90 96/96/96 101/101/101
f 96/96/96 91/91/91 102/102/102
f 91/91/91 97/97/97 102/102/102
f 97/97/97 98/98/98 103/103/103
f 98/98/98 104/104/104 103/103/103
f 99/99/99 94/94/94 105/105/105
f 94/94/94 100/100/100 105/105/105
f 100/100/100 95/95/95 106/106/106
f 95/95/95 101/101/101 106/106/106
f 101/101/101 96/96/96 107/107/107
f 96/96/96 102/102/102 107/107/107
f 102/102/102 97/97/97 108/108/108
f 97/97/97 103/103/103 108/108/108
f 103/103/103 104/104/104 109/109/109
f 104/104/104 110/110/110 109/109/109
f 105/105/105 100/100/100 111/111/111
f 100/100/100 106/106/106 111/111/111
f 106/106/106 101/101/101 112/112/112
f 101/101/101 107/107/107 112/112/112
f 107/107/107 102/102/102 113/113/113
f 102/102/102 108/108/108 113/113/113
f 108/108/108 103/103/103 114/114/114
f 103/103/103 109/109/109 114/114/114
f 109/109/109 110/110/110 115/115/115
f 110/110/110 116/116/116 115/115/115
f 111/111/111 106/106/106 117/117/117
f 106/106/106 112/112/112 117/117/117
f 112/112/112 107/107/107 118/118/118
f 107/107/107 113/113/113 118/118/118
f 113/113/113 108/108/108 119/119/119
f 108/108/108 114/114/114 119/119/119
f 114/114/114 109/109/109 120/120/120
f 109/109/109 115/115/115 120/120/120
f 115/115/115 116/116/116 121/121/121
f 116/116/116 122/122/122 121/121/121
f 117/117/117 112/112/112 123/123/123
f 112/112/112 118/118/118 123/123/123
f 118/118/118 113/113/113 124/124/124
f 113/113/113 119/119/119 124/124/124
f 119/119/119 114/114/114 125/125/125
f 114/114/114 120/120/120 125/125/125
f 120/120/120 115/115/115 126/126/126
f 115/115/115 121/121/121 126/126/126
f 121/121/121 122/122/122 127/127/127
f 122/122/122 128/128/128 127/127/127
f 123/123/123 118/118/118 129/129/129
f 118/118/118 124/124/124 129/129/129
f 124/124/124 119/119/119 130/130/130
f 119/119/119 125/125/125 130/130/130
f 125/125/125 120/120/120 131/131/131
f 120/120/120 126/126/126 131/131/131
f 126/126/126 121/121/121 132/132/132
f 121/121/121 127/127/127 132/132/132
f 127/127/127 128/128/128 133/133/133
f 128/128/128 134/134/134 133/133/133
f 129/129/129 124/124/124 135/135/135
f 124/124/124 130/130/130 135/135/135
f 130/130/130 125/125/125 136/136/136
f 125/125/125 131/131/131 136/136/136
f 131/131/131 126/126/126 137/137/137
f 126/126/126 132/132/132 137/137/137
f 132/132/132 127/127/127 138/138/138
f 127/127/127 133/133/133 138/138/138
f 133/133/133 134/134/134 139/139/139
f 134/134/134 140/140/140 139/139/139
f 135/135/135 130/130/130 141/141/141
f 130/130/130 136/136/136 141/141/141
f 136/136/136 131/131/131 142/142/142
f 131/131/131 137/137/137 142/142/142
f 137/137/137 132/132/132 143/143/143
f 132/132/132 138/138/138 143/143/143
f 138/138/138 133/133/133 144/144/144
f 133/133/133 139/139/139 144/144/144
f 139/139/139 140/140/140 145/145/145
f 140/140/140 146/146/146 145/145/145
f 141/141/141 136/136/136 147/147/147
f 136/136/136 142/142/142 147/147/147
f 142/142/142 137/137/137 148/148/148
f 137/137/137 143/143/143 148/148/148
f 143/143/143 138/138/138 149/149/149
f 138/138/138 144/144/144 149/149/149
f 144/144/144 139/139/139 150/150/150
f 139/139/139 145/145/145 150/150/150
f 145/145/145 146/146/146 151/151/151
f 146/146/146 152/152/152 151/151/151
f 147/147/147 142/142/142 153/153/153
f 142/142/142 148/148/148 153/153/153
f 148/148/148 143/143/143 154/154/154
f 143/143/143 149/149/149 154/154/154
f 149/149/149 144/144/144 155/155/155
f 144/144/144 150/150/150 155/155/155
f 150/150/150 145/145/145 156/156/156
f 145/145/145 151/151/151 156/156/156
f 151/151/151 152/152/152 157/157/157
f 152/152/152 158/158/158 157/157/157
f 153/153/153 148/148/148 159/159/159
f 148/148/148 154/154/154 159/159/159
f 154/154/154 149/149/149 160/160/160
f 149/149/149 155/155/155 160/160/160
f 155/155/155 150/150/150 161/161/161
f 150/150/150 156/156/156 161/161/161
f 156/156/156 151/151/151 162/162/162
f 151/151/151 157/157/157 162/162/162
f 157/157/157 158/158/158 163/163/163
f 158/158/158 164/164/164 163/163/163
f 159/159/159 154/154/154 165/165/165
f 154/154/154 160/160/160 165/165/165
f 160/160/160 155/155/155 166/166/166
f 155/155/155 161/161/161 166/166/166
f 161/161/161 156/156/156 167/167/167
f 156/156/156 162/162/162 167/167/167
f 162/162/162 157/157/157 168/168/168
f 157/157/157 163/163/163 168/168/168
f 163/163/163 164/164/164 169/169/169
f 164/164/164 170/170/170 169/169/169
f 165/165/165 160/160/160 171/171/171
f 160/160/160 166/166/166 171/171/171
f 166/166/166 161/161/161 172/172/172
f 161/161/161 167/167/167 172/172/172
f 167/167/167 162/162/162 173/173/173
f 162/162/162 168/168/168 173/173/173
f 168/168/168 163/163/163 174/174/174
f 163/163/163 169/169/169 174/174/174
f 169/169/169 170/170/170 175/175/175
f 170/170/170 176/176/176 175/175/175
f 171/171/171 166/166/166 177/177/177
f 166/166/166 172/172/172 177/177/177
f 172/172/172 167/167/167 178/178/178
f 167/167/167 173/173/173 178/178/178
f 173/173/173 168/168/168 179/179/179
f 168/168/168 174/174/174 179/179/179
f 174/174/174 169/169/169 180/180/180
f 169/169/169 175/175/175 180/180/180
f 175/175/175 176/176/176 181/181/181
f 176/176/176 182/182/182 181/181/181
f 177/177/177 172/172/172 183/183/183
f 172/172/172 178/178/178 183/183/183
f 178/178/178 173/173/173 184/184/184
f 173/173/173 179/179/179 184/184/184
f 179/179/179 174/174/174 185/185/185
f 174/174/174 180/180/180 185/185/185
f 180/180/180 175/175/175 186/186/186
f 175/175/175 181/181/181 186/186/186
f 181/181/181 182/182/182 187/187/187
f 182/182/182 188/188/188 187/187/187
f 183/183/183 178/178/178 189/189/189
f 178/178/178 184/184/184 189/189/189
f 184/184/184 179/179/179 190/190/190
f 179/179/179 185/185/185 190/190/190
f 185/185/185 180/180/180 191/191/191
f 180/180/180 186/186/186 191/191/191
f 186/186/186 181/181/181 192/192/192
f 181/181/181 187/187/187 192/192/192
f 187/187/187 188/188/188 193/193/193
f 188/188/188 194/194/194 193/193/193
f 189/189/189 184/184/184 195/195/195
f 184/184/184 190/190/190 195/195/195
f 190/190/190 185/185/185 196/196/196
f 185/185/185 191/191/191 196/196/196
f 191/191/191 186/186/186 197/197/197
f 186/186/186 192/192/192 197/197/197
f 192/192/192 187/187/187 198/198/198
f 187/187/187 193/193/193 198/198/198
f 193/193/193 194/194/194 199/199/199
f 194/194/194 200/200/200 199/199/199
f 195/195/195 190/190/190 201/201/201
f 190/190/190 196/196/196 201/201/201
f 196/196/196 191/191/191 202/202/202
f 191/191/191 197/197/197 202/202/202
f 197/197/197 192/192/192 203/203/203
f 192/192/192 198/198/198 203/203/203
f 198/198/198 193/193/193 204/204/204
f 193/193/193 199/199/199 204/204/204
f 199/199/199 200/200/200 205/205/205
f 200/200/200 206/206/206 205/205/205
f 201/201/201 196/196/196 207/207/207
f 196/196/196 202/202/202 207/207/207
f 202/202/202 197/197/197 208/208/208
f 197/197/197 203/203/203 208/208/208
f 203/203/203 198/198/198 209/209/209
f 198/198/198 204/204/204 209/209/209
f 204/204/204 199/199/199 210/210/210
f 199/199/199 205/205/205 210/210/210
f 205/205/205 206/206/206 211/211/211
f 206/206/206 212/212/212 211/211/211
f 207/207/207 202/202/202 213/213/213
f 202/202/202 208/208/208 213/213/213
f 208/208/208 203/203/203 214/214/214
f 203/203/203 209/209/209 214/214/214
f 209/209/209 204/204/204 215/215/215
f 204/204/204 210/210/210 215/215/215
f 210/210/210 205/205/205 216/216/216
f 205/205/205 211/211/211 216/216/216
f 211/211/211 212/212/212 217/217/217
f 212/212/212 218/218/218 217/217/217
f 213/213/213 208/208/208 219/219/219
f 208/208/208 214/214/214 219/219/219
f 214/214/214 209/209/209 220/220/220
f 209/209/209 215/215/215 220/220/220
f 215/215/215 210/210/210 221/221/221
f 210/210/210 216/216/216 221/221/221
f 216/216/216 211/211/211 222/222/222
f 211/211/211 217/217/217 222/222/222
f 217/217/217 218/218/218 223/223/223
f 218/218/218 224/224/224 223/223/223
f 219/219/219 214/214/214 225/225/225
f 214/214/214 220/220/220 225/225/225
f 220/220/220 215/215/215 226/226/226
f 215/215/215 221/221/221 226/226/226
f 221/221/221 216/216/216 227/227/227
f 216/216/216 222/222/222 227/227/227
f 222/222/222 217/217/217 228/228/228
f 217/217/217 223/223/223 228/228/228
f 223/223/223 224/224/224 229/229/229
f 224/224/224 230/230/230 229/229/229
f 225/225/225 220/220/220 231/231/231
f 220/220/220 226/226/226 231/231/231
f 226/226/226 221/221/221 232/232/232
f 221/221/221 227/227/227 232/232/232
f 227/227/227 222/222/222 233/233/233
f 222/222/222 228/228/228 233/233/233
f 228/228/228 223/223/223 234/234/234
f 223/223/223 229/229/229 234/234/234
f 229/229/229 230/230/230 235/235/235
f 230/230/230 236/236/236 235/235/235
f 231/231/231 226/226/226 237/237/237
f 226/226/226 232/232/232 237/237/237
f 232/232/232 227/227/227 238/238/238
f 227/227/227 233/233/233 238/238/238
f 233/233/233 228/228/228 239/239/239
f 228/228/228 234/234/234 239/239/239
f 234/234/234 229/229/229 240/240/240
f 229/229/229 235/235/235 240/240/240
f 235/235/235 236/236/236 241/241/241
f 236/236/236 242/242/242 241/241/241
f 237/237/237 232/232/232 243/243/243
f 232/232/232 238/238/238 243/243/243
f 238/238/238 233/233/233 244/244/244
f 233/233/233 239/239/239 244/244/244
f 239/239/239 234/234/234 245/245/245
f 234/234/234 240/240/240 245/245/245
f 240/240/240 235/235/235 246/246/246
f 235/235/235 241/241/241 246/246/246
f 241/241/241 242/242/242 247/247/247
f 242/242/242 248/248/248 247/247/247
f 243/243/243 238/238/238 249/249/249
f 238/238/238 244/244/244 249/249/249
f 244/244/244 239/239/239 250/250/250
f 239/239/239 245/245/245 250/250/250
f 245/245/245 240/240/240 251/251/251
f 240/240/240 246/246/246 251/251/251
f 246/246/246 241/241/241 252/252/252
f 241/241/241 247/247/247 252/252/252
f 247/247/247 248/248/248 253/253/253
f 248/248/248 254/254/254 253/253/253
f 249/249/249 244/244/244 255/255/255
f 244/244/244 250/250/250 255/255/255
f 250/250/250 245/245/245 256/256/256
f 245/245/245 251/251/251 256/256/256
f 251/251/251 246/246/246 257/257/257
f 246/246/246 252/252/252 257/257/257
f 252/252/252 247/247/247 258/258/258
f 247/247/247 253/253/253 258/258/258
f 253/253/253 254/254/254 259/259/259
f 254/254/254 260/260/260 259/259/259
f 255/255/255 250/250/250 261/261/261
f 250/250/250 256/256/256 261/261/261
f 256/256/256 251/251/251 262/262/262
f 251/251/251 257/257/257 262/262/262
f 257/257/257 252/252/252 263/263/263
f 252/252/252 258/258/258 263/263/263
f 258/258/258 253/253/253 264/264/264
f 253/253/253 259/259/259 264/264/264
f 259/259/259 260/260/260 265/265/265
f 260/260/260 266/266/266 265/265/265
f 261/261/261 256/256/256 267/267/267
f 256/256/256 262/262/262 267/267/267
f 262/262/262 257/257/257 268/268/268
f 257/257/257 263/263/263 268/268/268
f 263/263/263 258/258/258 269/269/269
f 258/258/258 264/264/264 269/269/269
f 264/264/264 259/259/259 270/270/270
f 259/259/259 265/265/265 270/270/270
f 265/265/265 266/266/266 271/271/271
f 266/266/266 272/272/272 271/271/271
f 267/267/267 262/262/262 273/273/273
f 262/262/262 268/268/268 273/273/273
f 268/268/268 263/263/263 274/274/274
f 263/263/263 269/269/269 274/274/274
f 269/269/269 264/264/264 275/275/275
f 264/264/264 270/270/270 275/275/275
f 270/270/270 265/265/265 276/276/276
f 265/265/265 271/271/271 276/276/276
f 271/271/271 272/272/272 277/277/277
f 272/272/272 278/278/278 277/277/277
f 273/273/273 268/268/268 279/279/279
f 268/268/268 274/274/274 279/279/279
f 274/274/274 269/269/269 280/280/280
f 269/269/269 275/275/275 280/280/280
f 275/275/275 270/270/270 281/281/281
f 270/270/270 276/276/276 281/281/281
f 276/276/276 271/271/271 282/282/282
f 271/271/271 277/277/277 282/282/282
f 277/277/277 278/278/278 283/283/283
f 278/278/278 284/284/284 283/283/283
f 279/279/279 274/274/274 285/285/285
f 274/274/274 280/280/280 285/285/285
f 280/280/280 275/275/275 286/286/286
f 275/275/275 281/281/281 286/286/286
f 281/281/281 276/276/276 287/287/287
f 276/276/276 282/282/282 287/287/287
f 282/282/282 277/277/277 288/288/288
f 277/277/277 283/283/283 288/288/288
f 283/283/283 284/284/284 289/289/289
f 284/284/284 290/290/290 289/289/289
f 285/285/285 280/280/280 291/291/291
f 280/280/280 286/286/286 291/291/291
f 286/286/286 281/281/281 292/292/292
f 281/281/281 287/287/287 292/292/292
f 287/287/287 282/282/282 293/293/293
f 282/282/282 288/288/288 293/293/293
f 288/288/288 283/283/283 294/294/294
f 283/283/283 289/289/289 294/294/294
f 289/289/289 290/290/290 295/295/295
f 290/290/290 296/296/296 295/295/295
f 291/291/291 286/286/286 297/297/297
f 286/286/286 292/292/292 297/297/297
f 292/292/292 287/287/287 298/298/298
f 287/287/287 293/293/293 298/298/298
f 293/293/293 288/288/288 299/299/299
f 288/288/288 294/294/294 299/299/299
f 294/294/294 289/289/289 300/300/300
f 289/289/289 295/295/295 300/300/300
f 295/295/295 296/296/296 301/301/301
f 296/296/296 302/302/302 301/301/301
f 297/297/297 292/292/292 303/303/303
f 292/292/292 298/298/298 303/303/303
f 298/298/298 293/293/293 304/304/304
f 293/293/293 299/299/299 304/304/304
f 299/299/299 294/294/294 305/305/305
f 294/294/294 300/300/300 305/305/305
f 300/300/300 295/295/295 306/306/306
f 295/295/295 301/301/301 306/306/306
f 301/301/301 302/302/302 307/307/307
f 302/302/302 308/308/308 307/307/307
f 303/303/303 298/298/298 309/309/309
f 298/298/298 304/304/304 309/309/309
f 304/304/304 299/299/299 310/310/310
f 299/299/299 305/305/305 310/310/310
f 305/305/305 300/300/300 311/311/311
f 300/300/300 306/306/306 311/311/311
f 306/306/306 301/301/301 312/312/312
f 301/301/301 307/307/307 312/312/312
f 307/307/307 308/308/308 313/313/313
f 308/308/308 314/314/314 313/313/313
f 309/309/309 304/304/304 315/315/315
f 304/304/304 310/310/310 315/315/315
f 310/310/310 305/305/305 316/316/316
f 305/305/305 311/311/311 316/316/316
f 311/311/311 306/306/306 317/317/317
f 306/306/306 312/312/312 317/317/317
f 312/312/312 307/307/307 318/318/318
f 307/307/307 313/313/313 318/318/318
f 313/313/313 314/314/314 319/319/319
f 314/314/314 320/320/320 319/319/319
f 315/315/315 310/310/310 321/321/321
f 310/310/310 316/316/316 321/321/321
f 316/316/316 311/311/311 322/322/322
f 311/311/311 317/317/317 322/322/322
f 317/317/317 312/312/312 323/323/323
f 312/312/312 318/318/318 323/323/323
f 318/318/318 313/313/313 324/324/324
f 313/313/313 319/319/319 324/324/324
f 319/319/319 320/320/320 325/325/325
f 320/320/320 326/326/326 325/325/325
f 325/325/325 326/326/326 327/327/327
f 326/326/326 328/328/328 327/327/327
f 325/325/325 327/327/327 329/329/329
f 319/319/319 325/325/325 330/330/330
f 330/330/330 325/325/325 329/329/329
f 324/324/324 319/319/319 330/330/330
f 330/330/330 329/329/329 331/331/331
f 332/332/332 330/330/330 331/331/331
f 324/324/324 330/330/330 332/332/332
f 332/332/332 331/331/331 333/333/333
f 318/318/318 324/324/324 334/334/334
f 334/334/334 324/324/324 332/332/332
f 323/323/323 318/318/318 334/334/334
f 335/335/335 332/332/332 333/333/333
f 334/334/334 332/332/332 335/335/335
f 335/335/335 333/333/333 336/336/336
f 323/323/323 334/334/334 337/337/337
f 337/337/337 334/334/334 335/335/335
f 338/338/338 335/335/335 336/336/336
f 337/337/337 335/335/335 338/338/338
f 338/338/338 336/336/336 339/339/339
f 340/340/340 323/323/323 337/337/337
f 317/317/317 323/323/323 340/340/340
f 322/322/322 317/317/317 340/340/340
f 341/341/341 338/338/338 339/339/339
f 341/341/341 339/339/339 342/342/342
f 343/343/343 337/337/337 338/338/338
f 340/340/340 337/337/337 343/343/343
f 343/343/343 338/338/338 341/341/341
f 322/322/322 340/340/340 344/344/344
f 344/344/344 340/340/340 343/343/343
f 345/345/345 341/341/341 342/342/342
f 345/345/345 342/342/342 346/346/346
f 347/347/347 343/343/343 341/341/341
f 344/344/344 343/343/343 347/347/347
f 347/347/347 341/341/341 345/345/345
f 348/348/348 322/322/322 344/344/344
f 316/316/316 322/322/322 348/348/348
f 321/321/321 316/316/316 348/348/348
f 349/349/349 345/345/345 346/346/346
f 349/349/349 346/346/346 350/350/350
f 351/351/351 347/347/347 345/345/345
f 351/351/351 345/345/345 349/349/349
f 352/352/352 344/344/344 347/347/347
f 348/348/348 344/344/344 352/352/352
f 352/352/352 347/347/347 351/351/351
f 321/321/321 348/348/348 353/353/353
f 353/353/353 348/348/348 352/352/352
f 354/354/354 349/349/349 350/350/350
f 354/354/354 350/350/350 355/355/355
f 356/356/356 354/354/354 355/355/355
f 357/357/357 351/351/351 349/349/349
f 357/357/357 349/349/349 354/354/354
f 358/358/358 352/352/352 351/351/351
f 353/353/353 352/352/352 358/358/358
f 358/358/358 351/351/351 357/357/357
f 359/359/359 354/354/354 356/356/356
f 359/359/359 357/357/357 354/354/354
f 360/360/360 359/359/359 356/356/356
f 361/361/361 321/321/321 353/353/353
f 315/315/315 321/321/321 361/361/361
f 362/362/362 358/358/358 357/357/357
f 362/362/362 357/357/357 359/359/359
f 363/363/363 359/359/359 360/360/360
f 363/363/363 362/362/362 359/359/359
f 364/364/364 363/363/363 360/360/360
f 365/365/365 353/353/353 358/358/358
f 365/365/365 358/358/358 362/362/362
f 361/361/361 353/353/353 365/365/365
f 366/366/366 315/315/315 361/361/361
f 309/309/309 315/315/315 366/366/366
f 367/367/367 363/363/363 364/364/364
f 368/368/368 367/367/367 364/364/364
f 369/369/369 362/362/362 363/363/363
f 369/369/369 365/365/365 362/362/362
f 367/367/367 369/369/369 363/363/363
f 370/370/370 361/361/361 365/365/365
f 370/370/370 365/365/365 369/369/369
f 366/366/366 361/361/361 370/370/370
f 371/371/371 309/309/309 366/366/366
f 303/303/303 309/309/309 371/371/371
f 372/372/372 367/367/367 368/368/368
f 373/373/373 372/372/372 368/368/368
f 374/374/374 369/369/369 367/367/367
f 374/374/374 370/370/370 369/369/369
f 372/372/372 374/374/374 367/367/367
f 375/375/375 366/366/366 370/370/370
f 375/375/375 370/370/370 374/374/374
f 371/371/371 366/366/366 375/375/375
f 376/376/376 303/303/303 371/371/371
f 297/297/297 303/303/303 376/376/376
f 377/377/377 372/372/372 373/373/373
f 378/378/378 377/377/377 373/373/373
f 379/379/379 374/374/374 372/372/372
f 379/379/379 375/375/375 374/374/374
f 377/377/377 379/379/379 372/372/372
f 380/380/380 371/371/371 375/375/375
f 380/380/380 375/375/375 379/379/379
f 376/376/376 371/371/371 380/380/380
f 381/381/381 297/297/297 376/376/376
f 291/291/291 297/297/297 381/381/381
f 382/382/382 377/377/377 378/378/378
f 383/383/383 382/382/382 378/378/378
f 384/384/384 379/379/379 377/377/377
f 384/384/384 380/380/380 379/379/379
f 382/382/382 384/384/384 377/377/377
f 385/385/385 376/376/376 380/380/380
f 385/385/385 380/380/380 384/384/384
f 381/381/381 376/376/376 385/385/385
f 386/386/386 291/291/291 381/381/381
f 285/285/285 291/291/291 386/386/386
f 387/387/387 382/382/382 383/383/383
f 388/388/388 387/387/387 383/383/383
f 389/389/389 384/384/384 382/382/382
f 389/389/389 385/385/385 384/384/384
f 387/387/387 389/389/389 382/382/382
f 390/390/390 381/381/381 385/385/385
f 390/390/390 385/385/385 389/389/389
f 386/386/386 381/381/381 390/390/390
f 391/391/391 285/285/285 386/386/386
f 279/279/279 285/285/285 391/391/391
f 392/392/392 387/387/387 388/388/388
f 393/393/393 392/392/392 388/388/388
f 394/394/394 389/389/389 387/387/387
f 394/394/394 390/390/390 389/389/389
f 392/392/392 394/394/394 387/387/387
f 395/395/395 386/386/386 390/390/390
f 395/395/395 390/390/390 394/394/394
f 391/391/391 386/386/386 395/395/395
f 396/396/396 279/279/279 391/391/391
f 273/273/273 279/279/279 396/396/396
f 397/397/397 392/392/392 393/393/393
f 398/398/398 397/397/397 393/393/393
f 399/399/399 394/394/394 392/392/392
f 399/399/399 395/395/395 394/394/394
f 397/397/397 399/399/399 392/392/392
f 400/400/400 391/391/391 395/395/395
f 400/400/400 395/395/395 399/399/399
f 396/396/396 391/391/391 400/400/400
f 401/401/401 273/273/273 396/396/396
f 267/267/267 273/273/273 401/401/401
f 402/402/402 397/397/397 398/398/398
f 403/403/403 402/402/402 398/398/398
f 404/404/404 399/399/399 397/397/397
f 404/404/404 400/400/400 399/399/399
f 402/402/402 404/404/404 397/397/397
f 405/405/405 396/396/396 400/400/400
f 405/405/405 400/400/400 404/404/404
f 401/401/401 396/396/396 405/405/405
f 406/406/406 267/267/267 401/401/401
f 261/261/261 267/267/267 406/406/406
f 407/407/407 402/402/402 403/403/403
f 408/408/408 407/407/407 403/403/403
f 409/409/409 404/404/404 402/402/402
f 409/409/409 405/405/405 404/404/404
f 407/407/407 409/409/409 402/402/402
f 410/410/410 401/401/401 405/405/405
f 410/410/410 405/405/405 409/409/409
f 406/406/406 401/401/401 410/410/410
f 411/411/411 261/261/261 406/406/406
f 255/255/255 261/261/261 411/411/411
f 412/412/412 407/407/407 408/408/408
f 413/413/413 412/412/412 408/408/408
f 414/414/414 409/409/409 407/407/407
f 414/414/414 410/410/410 409/409/409
f 412/412/412 414/414/414 407/407/407
f 415/415/415 406/406/406 410/410/410
f 415/415/415 410/410/410 414/414/414
f 411/411/411 406/406/406 415/415/415
f 416/416/416 255/255/255 411/411/411
f 249/249/249 255/255/255 416/416/416
f 417/417/417 412/412/412 413/413/413
f 418/418/418 417/417/417 413/413/413
f 419/419/419 414/414/414 412/412/412
f 419/419/419 415/415/415 414/414/414
f 417/417/417 419/419/419 412/412/412
f 420/420/420 411/411/411 415/415/415
f 420/420/420 415/415/415 419/419/419
f 416/416/416 411/411/411 420/420/420
f 421/421/421 249/249/249 416/416/416
f 243/243/243 249/249/249 421/421/421
f 422/422/422 417/417/417 418/418/418
f 423/423/423 422/422/422 418/418/418
f 424/424/424 419/419/419 417/417/417
f 424/424/424 420/420/420 419/419/419
f 422/422/422 424/424/424 417/417/417
f 425/425/425 416/416/416 420/420/420
f 425/425/425 420/420/420 424/424/424
f 421/421/421 416/416/416 425/425/425
f 426/426/426 243/243/243 421/421/421
f 237/237/237 243/243/243 426/426/426
f 427/427/427 422/422/422 423/423/423
f 428/428/428 427/427/427 423/423/423
f 429/429/429 424/424/424 422/422/422
f 429/429/429 425/425/425 424/424/424
f 427/427/427 429/429/429 422/422/422
f 430/430/430 421/421/421 425/425/425
f 430/430/430 425/425/425 429/429/429
f 426/426/426 421/421/421 430/430/430
f 431/431/431 237/237/237 426/426/426
f 231/231/231 237/237/237 431/431/431
f 432/432/432 427/427/427 428/428/428
f 433/433/433 432/432/432 428/428/428
f 434/434/434 429/429/429 427/427/427
f 434/434/434 430/430/430 429/429/429
f 432/432/432 434/434/434 427/427/427
f 435/435/435 426/426/426 430/430/430
f 435/435/435 430/430/430 434/434/434
f 431/431/431 426/426/426 435/435/435
f 436/436/436 231/231/231 431/431/431
f 225/225/225 231/231/231 436/436/436
f 437/437/437 432/432/432 433/433/433
f 438/438/438 437/437/437 433/433/433
f 439/439/439 434/434/434 432/432/432
f 439/439/439 435/435/435 434/434/434
f 437/437/437 439/439/439 432/432/432
f 440/440/440 431/431/431 435/435/435
f 440/440/440 435/435/435 439/439/439
f 436/436/436 431/431/431 440/440/440
f 441/441/441 225/225/225 436/436/436
f 219/219/219 225/225/225 441/441/441
f 442/442/442 437/437/437 438/438/438
f 443/443/443 442/442/442 438/438/438
f 444/444/444 439/439/439 437/437/437
f 444/444/444 440/440/440 439/439/439
f 442/442/442 444/444/444 437/437/437
f 445/445/445 436/436/436 440/440/440
f 445/445/445 440/440/440 444/444/444
f 441/441/441 436/436/436 445/445/445
f 446/446/446 219/219/219 441/441/441
f 213/213/213 219/219/219 446/446/446
f 447/447/447 442/442/442 443/443/443
f 448/448/448 447/447/447 443/443/443
f 449/449/449 444/444/444 442/442/442
f 449/449/449 445/445/445 444/444/444
f 447/447/447 449/449/449 442/442/442
f 450/450/450 441/441/441 445/445/445
f 450/450/450 445/445/445 449/449/449
f 446/446/446 441/441/441 450/450/450
f 451/451/451 213/213/213 446/446/446
f 207/207/207 213/213/213 451/451/451
f 452/452/452 447/447/447 448/448/448
f 453/453/453 452/452/452 448/448/448
f 454/454/454 449/449/449 447/447/447
f 454/454/454 450/450/450 449/449/449
f 452/452/452 454/454/454 447/447/447
f 455/455/455 446/446/446 450/450/450
f 455/455/455 450/450/450 454/454/454
f 451/451/451 446/446/446 455/455/455
f 456/456/456 207/207/207 451/451/451
f 201/201/201 207/207/207 456/456/456
f 457/457/457 452/452/452 453/453/453
f 458/458/458 457/457/457 453/453/453
f 459/459/459 454/454/454 452/452/452
f 459/459/459 455/455/455 454/454/454
f 457/457/457 459/459/459 452/452/452
f 460/460/460 451/451/451 455/455/455
f 460/460/460 455/455/455 459/459/459
f 456/456/456 451/451/451 460/460/460
f 461/461/461 201/201/201 456/456/456
f 195/195/195 201/201/201 461/461/461
f 462/462/462 457/457/457 458/458/458
f 463/463/463 462/462/462 458/458/458
f 464/464/464 459/459/459 457/457/457
f 464/464/464 460/460/460 459/459/459
f 462/462/462 464/464/464 457/457/457
f 465/465/465 456/456/456 460/460/460
f 465/465/465 460/460/460 464/464/464
f 461/461/461 456/456/456 465/465/465
f 466/466/466 195/195/195 461/461/461
f 189/189/189 195/195/195 466/466/466
f 467/467/467 462/462/462 463/463/463
f 468/468/468 467/467/467 463/463/463
f 469/469/469 464/464/464 462/462/462
f 469/469/469 465/465/465 464/464/464
f 467/467/467 469/469/469 462/462/462
f 470/470/470 461/461/461 465/465/465
f 470/470/470 465/465/465 469/469/469
f 466/466/466 461/461/461 470/470/470
f 471/471/471 189/189/189 466/466/466
f 183/183/183 189/189/189 471/471/471
f 472/472/472 467/467/467 468/468/468
f 473/473/473 472/472/472 468/468/468
f 474/474/474 469/469/469 467/467/467
f 474/474/474 470/470/470 469/469/469
f 472/472/472 474/474/474 467/467/467
f 475/475/475 466/466/466 470/470/470
f 475/475/475 470/470/470 474/474/474
f 471/471/471 466/466/466 475/475/475
f 476/476/476 183/183/183 471/471/471
f 177/177/177 183/183/183 476/476/476
f 477/477/477 472/472/472 473/473/473
f 478/478/478 477/477/477 473/473/473
f 479/479/479 474/474/474 472/472/472
f 479/479/479 475/475/475 474/474/474
f 477/477/477 479/479/479 472/472/472
f 480/480/480 471/471/471 475/475/475
f 480/480/480 475/475/475 479/479/479
f 476/476/476 471/471/471 480/480/480
f 481/481/481 177/177/177 476/476/476
f 171/171/171 177/177/177 481/481/481
f 482/482/482 477/477/477 478/478/478
f 483/483/483 482/482/482 478/478/478
f 484/484/484 479/479/479 477/477/477
f 484/484/484 480/480/480 479/479/479
f 482/482/482 484/484/484 477/477/477
f 485/485/485 476/476/476 480/480/480
f 485/485/485 480/480/480 484/484/484
f 481/481/481 476/476/476 485/485/485
f 486/486/486 171/171/171 481/481/481
f 165/165/165 171/171/171 486/486/486
f 487/487/487 482/482/482 483/483/483
f 488/488/488 487/487/487 483/483/483
f 489/489/489 484/484/484 482/482/482
f 489/489/489 485/485/485 484/484/484
f 487/487/487 489/489/489 482/482/482
f 490/490/490 481/481/481 485/485/485
f 490/490/490 485/485/485 489/489/489
f 486/486/486 481/481/481 490/490/490
f 491/491/491 165/165/165 486/486/486
f 159/159/159 165/165/165 491/491/491
f 492/492/492 487/487/487 488/488/488
f 493/493/493 492/492/492 488/488/488
f 494/494/494 489/489/489 487/487/487
f 494/494/494 490/490/490 489/489/489
f 492/492/492 494/494/494 487/487/487
f 495/495/495 486/486/486 490/490/490
f 495/495/495 490/490/490 494/494/494
f 491/491/491 486/486/486 495/495/495
f 496/496/496 159/159/159 491/491/491
f 153/153/153 159/159/159 496/496/496
f 497/497/497 492/492/492 493/493/493
f 498/498/498 497/497/497 493/493/493
f 499/499/499 494/494/494 492/492/492
f 499/499/499 495/495/495 494/494/494
f 497/497/497 499/499/499 492/492/492
f 500/500/500 491/491/491 495/495/495
f 500/500/500 495/495/495 499/499/499
f 496/496/496 491/491/491 500/500/500
f 501/501/501 153/153/153 496/496/496
f 147/147/147 153/153/153 501/501/501
f 502/502/502 497/497/497 498/498/498
f 503/503/503 502/502/502 498/498/498
f 504/504/504 499/499/499 497/497/497
f 504/504/504 500/500/500 499/499/499
f 502/502/502 504/504/504 497/497/497
f 505/505/505 496/496/496 500/500/500
f 505/505/505 500/500/500 504/504/504
f 501/501/501 496/496/496 505/505/505
f 506/506/506 147/147/147 501/501/501
f 141/141/141 147/147/147 506/506/506
f 507/507/507 502/502/502 503/503/503
f 508/508/508 507/507/507 503/503/503
f 509/509/509 504/504/504 502/502/502
f 509/509/509 505/505/505 504/504/504
f 507/507/507 509/509/509 502/502/502
f 510/510/510 501/501/501 505/505/505
f 510/510/510 505/505/505 509/509/509
f 506/506/506 501/501/501 510/510/510
f 511/511/511 141/141/141 506/506/506
f 135/135/135 141/141/141 511/511/511
f 512/512/512 507/507/507 508/508/508
f 513/513/513 512/512/512 508/508/508
f 514/514/514 509/509/509 507/507/507
f 514/514/514 510/510/510 509/509/509
f 512/512/512 514/514/514 507/507/507
f 515/515/515 506/506/506 510/510/510
f 515/515/515 510/510/510 514/514/514
f 511/511/511 506/506/506 515/515/515
f 516/516/516 135/135/135 511/511/511
f 129/129/129 135/135/135 516/516/516
f 517/517/517 512/512/512 513/513/513
f 518/518/518 517/517/517 513/513/513
f 519/519/519 514/514/514 512/512/512
f 519/519/519 515/515/515 514/514/514
f 517/517/517 519/519/519 512/512/512
f 520/520/520 511/511/511 515/515/515
f 520/520/520 515/515/515 519/519/519
f 516/516/516 511/511/511 520/520/520
f 521/521/521 129/129/129 516/516/516
f 123/123/123 129/129/129 521/521/521
f 522/522/522 517/517/517 518/518/518
f 523/523/523 522/522/522 518/518/518
f 524/524/524 519/519/519 517/517/517
f 524/524/524 520/520/520 519/519/519
f 522/522/522 524/524/524 517/517/517
f 525/525/525 516/516/516 520/520/520
f 525/525/525 520/520/520 524/524/524
f 521/521/521 516/516/516 525/525/525
f 526/526/526 123/123/123 521/521/521
f 117/117/117 123/123/123 526/526/526
f 527/527/527 522/522/522 523/523/523
f 528/528/528 527/527/527 523/523/523
f 529/529/529 524/524/524 522/522/522
f 529/529/529 525/525/525 524/524/524
f 527/527/527 529/529/529 522/522/522
f 530/530/530 521/521/521 525/525/525
f 530/530/530 525/525/525 529/529/529
f 526/526/526 521/521/521 530/530/530
f 531/531/531 117/117/117 526/526/526
f 111/111/111 117/117/117 531/531/531
f 532/532/532 527/527/527 528/528/528
f 533/533/533 532/532/532 528/528/528
f 534/534/534 529/529/529 527/527/527
f 534/534/534 530/530/530 529/529/529
f 532/532/532 534/534/534 527/527/527
f 535/535/535 526/526/526 530/530/530
f 535/535/535 530/530/530 534/534/534
f 531/531/531 526/526/526 535/535/535
f 536/536/536 111/111/111 531/531/531
f 105/105/105 111/111/111 536/536/536
f 537/537/537 532/532/532 533/533/533
f 538/538/538 537/537/537 533/533/533
f 539/539/539 534/534/534 532/532/532
f 539/539/539 535/535/535 534/534/534
f 537/537/537 539/539/539 532/532/532
f 540/540/540 531/531/531 535/535/535
f 540/540/540 535/535/535 539/539/539
f 536/536/536 531/531/531 540/540/540
f 541/541/541 105/105/105 536/536/536
f 99/99/99 105/105/105 541/541/541
f 542/542/542 537/537/537 538/538/538
f 543/543/543 542/542/542 538/538/538
f 544/544/544 539/539/539 537/537/537
f 544/544/544 540/540/540 539/539/539
f 542/542/542 544/544/544 537/537/537
f 545/545/545 536/536/536 540/540/540
f 545/545/545 540/540/540 544/544/544
f 541/541/541 536/536/536 545/545/545
f 546/546/546 99/99/99 541/541/541
f 93/93/93 99/99/99 546/546/546
f 547/547/547 542/542/542 543/543/543
f 548/548/548 547/547/547 543/543/543
f 549/549/549 544/544/544 542/542/542
f 549/549/549 545/545/545 544/544/544
f 547/547/547 549/549/549 542/542/542
f 550/550/550 541/541/541 545/545/545
f 550/550/550 545/545/545 549/549/549
f 546/546/546 541/541/541 550/550/550
f 551/551/551 93/93/93 546/546/546
f 78/78/78 93/93/93 551/551/551
f 552/552/552 547/547/547 548/548/548
f 553/553/553 552/552/552 548/548/548
f 554/554/554 549/549/549 547/547/547
f 554/554/554 550/550/550 549/549/549
f 552/552/552 554/554/554 547/547/547
f 555/555/555 546/546/546 550/550/550
f 555/555/555 550/550/550 554/554/554
f 551/551/551 546/546/546 555/555/555
f 556/556/556 78/78/78 551/551/551
f 64/64/64 78/78/78 556/556/556
f 51/51/51 64/64/64 556/556/556
f 557/557/557 552/552/552 553/553/553
f 38/38/38 557/557/557 553/553/553
f 37/37/37 557/557/557 38/38/38
f 558/558/558 554/554/554 552/552/552
f 558/558/558 555/555/555 554/554/554
f 557/557/557 558/558/558 552/552/552
f 559/559/559 551/551/551 555/555/555
f 556/556/556 551/551/551 559/559/559
f 559/559/559 555/555/555 558/558/558
f 51/51/51 556/556/556 560/560/560
f 560/560/560 556/556/556 559/559/559
f 40/40/40 51/51/51 560/560/560
f 40/40/40 560/560/560 39/39/39
f 37/37/37 561/561/561 557/557/557
f 561/561/561 558/558/558 557/557/557
f 561/561/561 559/559/559 558/558/558
f 39/39/39 561/561/561 37/37/37
f 560/560/560 559/559/559 561/561/561
f 39/39/39 560/560/560 561/561/561
