g Sphere001
v 4.84466547E-08 4.84466547E-08 0.575891674
v -0.0341064446 0.171464816 0.574933529
v 4.84466547E-08 0.174824014 0.574933767
v -0.0645058975 0.324293137 0.571339607
v 4.84466547E-08 0.330646485 0.571339607
v -0.088301897 0.443923831 0.563161135
v 4.84466547E-08 0.452620864 0.563161135
v -0.103979647 0.522741199 0.547797322
v -7.26699838E-08 0.532982051 0.547797441
v -0.111575961 0.560930252 0.522774518
v -4.84466547E-08 0.571919382 0.522774398
v -0.11242114 0.565179288 0.486516386
v -4.84466547E-08 0.576251805 0.486516327
v -0.108559698 0.545766413 0.438903004
v -9.68933094E-08 0.556458414 0.438903064
v -0.102052175 0.513051689 0.381483316
v -7.26699838E-08 0.523102582 0.381483287
v -0.0943845734 0.474503934 0.31730625
v -4.84466547E-08 0.483799666 0.317306221
v -0.0861563683 0.433136791 0.250449985
v -9.68933094E-08 0.441622406 0.250450015
v -0.077116996 0.387693375 0.185392559
v -7.26699838E-08 0.395288616 0.185392529
v -0.0664999634 0.334317803 0.126398683
v -0 0.34086743 0.126398683
v -0.0535073206 0.268999666 0.0770639479
v -9.68933094E-08 0.274269849 0.0770639479
v -0.0377664194 0.189864665 0.040086288
v 4.84466547E-08 0.193584397 0.040086288
v -0.0195957273 0.0985148177 0.017249262
v 9.68933094E-08 0.100444838 0.017249262
v -2.42233273E-08 0 0.00953401066
v -0.0384384729 0.0927988887 0.017249262
v -2.42233273E-08 0 0.00953401066
v -0.0740815252 0.178848535 0.040086288
v -0.10495849 0.25339219 0.0770639479
v -0.130444363 0.314920455 0.126398727
v -0.0558039807 0.0835169926 0.017249262
v -2.42233273E-08 0 0.00953401066
v -0.107549585 0.160959452 0.040086288
v -0.151270464 0.365199178 0.185392559
v -0.152376115 0.228047118 0.0770639479
v -0.0710250959 0.0710251704 0.017249262
v -2.42233273E-08 0 0.00953401066
v -0.136884734 0.13688466 0.040086288
v -0.189375713 0.28342098 0.126398683
v -0.169001654 0.408005953 0.250450015
v -0.0835166797 0.0558040552 0.017249262
v -2.42233273E-08 0 0.00953401066
v -0.193937942 0.193938106 0.0770639256
v -0.219610646 0.328670532 0.185392603
v -0.185142085 0.44697246 0.317306161
v -0.160959363 0.107549585 0.0400863141
v -0.241029665 0.24102971 0.126398727
v -0.245352298 0.367195755 0.250449985
v -0.200182661 0.483284116 0.381483346
v -0.0927987695 0.03843835 0.017249262
v -2.42233273E-08 0 0.00953401066
v -0.228046983 0.15237616 0.0770639479
v -0.279511362 0.279511273 0.185392514
v -0.268784642 0.402264982 0.31730628
v -0.212947518 0.514100611 0.438903064
v -0.17884855 0.0740813762 0.040086288
v -0.283420891 0.189375699 0.126398683
v -0.312274307 0.312274188 0.250449926
v -0.290620267 0.434944034 0.381483287
v -0.220521957 0.532387316 0.486516416
v -0.0985146984 0.0195958484 0.017249262
v -2.42233273E-08 0 0.00953401066
v -0.328670591 0.219610766 0.185392559
v -0.342097998 0.342097968 0.317306221
v -0.309151798 0.462678283 0.438903064
v -0.218864053 0.528384864 0.522774458
v -0.367195755 0.245352313 0.250449955
v -0.369889438 0.369889528 0.381483287
v -0.320148259 0.47913602 0.486516386
v -0.203963473 0.492411077 0.547797382
v -0.402264714 0.268784761 0.317306191
v -0.393475652 0.393475533 0.438903093
v -0.317741394 0.475533515 0.522774577
v -0.173210472 0.418167263 0.563161135
v -0.434943974 0.290620327 0.381483287
v -0.407471478 0.407471597 0.486516386
v -0.296108931 0.443158567 0.547797382
v -0.126532823 0.305477321 0.571339548
v -0.462678403 0.309151769 0.438903064
v -0.404408097 0.404408067 0.522774518
v -0.251462549 0.3763403 0.563161135
v -0.0669021904 0.161516309 0.574933648
v 4.84466547E-08 4.84466547E-08 0.575891674
v -0.183697239 0.274922371 0.571339488
v -0.376875281 0.376875192 0.547797263
v -0.479135811 0.320148289 0.486516327
v -0.0971269906 0.145360887 0.574933708
v 4.84466547E-08 4.84466547E-08 0.575891674
v -0.320051253 0.320051253 0.563161254
v -0.475533664 0.317741662 0.522774518
v -0.233802244 0.233802199 0.571339488
v -0.443158448 0.296108902 0.547797382
v -0.123619296 0.123619296 0.574933767
v 4.84466547E-08 4.84466547E-08 0.575891674
v -0.376340449 0.251462519 0.563161135
v -0.274922401 0.183697015 0.571339548
v -0.145360872 0.0971271098 0.574933589
v 4.84466547E-08 4.84466547E-08 0.575891674
v -0.532387197 0.220522001 0.486516476
v -0.528384686 0.218864009 0.522774458
v -0.492411375 0.203963473 0.547797441
v -0.418167055 0.173210353 0.563161135
v -0.305477321 0.126532778 0.571339488
v -0.51410079 0.212947324 0.438903064
v -0.161516428 0.0669022128 0.574933529
v 4.84466547E-08 4.84466547E-08 0.575891674
v -0.483283907 0.20018284 0.381483316
v -0.446972698 0.185142189 0.317306221
v -0.408006042 0.169001698 0.250449985
v -0.365199208 0.151270226 0.185392514
v -0.314920485 0.130444452 0.126398697
v -0.253392279 0.104958564 0.0770639256
v -0.189864576 0.037766397 0.040086288
v -0.268999755 0.0535076335 0.0770639479
v -0.334317774 0.0664998665 0.126398697
v -0.387693375 0.0771168992 0.185392633
v -0.43313694 0.0861562192 0.250450015
v -0.100444719 0 0.017249262
v -2.42233273E-08 0 0.00953401066
v -0.193584263 -4.84466547E-08 0.040086288
v -0.27426973 -1.21116642E-07 0.0770639479
v -0.34086743 -1.21116642E-07 0.126398683
v -0.0985146463 -0.0195958484 0.017249262
v -2.42233273E-08 0 0.00953401066
v -0.189864546 -0.0377664939 0.040086288
v -0.474503577 0.0943844989 0.317306161
v -0.395288736 -2.18009944E-07 0.185392588
v -0.268999726 -0.0535074882 0.0770639479
v -0.092798695 -0.0384385213 0.017249262
v -2.42233273E-08 0 0.00953401066
v -0.178848475 -0.0740815476 0.040086288
v -0.334317744 -0.066500105 0.126398697
v -0.441622555 -1.69563293E-07 0.250449985
v -0.51305145 0.102052487 0.381483406
v -0.0835167021 -0.055804126 0.017249262
v -2.42233273E-08 0 0.00953401066
v -0.25339216 -0.104958586 0.0770639479
v -0.387693346 -0.0771171898 0.185392603
v -0.483799666 -7.26699838E-08 0.31730631
v -0.545766413 0.108559653 0.438903153
v -0.160959259 -0.107549682 0.040086288
v -0.314920306 -0.130444512 0.126398683
v -0.43313688 -0.0861564651 0.250450104
v -0.523102641 -1.69563293E-07 0.381483257
v -0.565179229 0.11242085 0.486516237
v -0.071024999 -0.0710250959 0.017249262
v -2.42233273E-08 0 0.00953401066
v -0.365199059 -0.151270688 0.185392559
v -0.474503577 -0.0943848118 0.31730625
v -0.556458592 -2.66456595E-07 0.438903302
v -0.560930192 0.111575991 0.522774458
v -0.408005953 -0.169001862 0.250449985
v -0.513051331 -0.102052443 0.381483376
v -0.576251805 -1.21116642E-07 0.486516267
v -0.52274102 0.103979506 0.547797382
v -0.446972519 -0.185142204 0.317306221
v -0.545766413 -0.108559921 0.438903093
v -0.571919441 -2.90679935E-07 0.522774458
v -0.443923771 0.0883019269 0.563161254
v -0.483283728 -0.200182959 0.381483406
v -0.565179229 -0.112421289 0.486516327
v -0.532982111 -1.45339968E-07 0.54779768
v -0.324293077 0.0645059422 0.571339607
v -0.514100611 -0.212947756 0.438903004
v -0.560930073 -0.111576207 0.522774279
v -0.452620775 -9.68933094E-08 0.563161194
v -0.171464801 0.0341064446 0.574933708
v 4.84466547E-08 4.84466547E-08 0.575891674
v -0.330646366 -2.42233273E-08 0.571339607
v -0.52274096 -0.103979915 0.547797382
v -0.532387078 -0.220522195 0.486516327
v -0.174824014 -4.84466547E-08 0.574933529
v 4.84466547E-08 4.84466547E-08 0.575891674
v -0.443923682 -0.0883021206 0.563161194
v -0.528384566 -0.218864307 0.522774339
v -0.324293047 -0.0645060167 0.571339488
v -0.492411166 -0.203963712 0.547797441
v -0.171464801 -0.0341065899 0.574933529
v 4.84466547E-08 4.84466547E-08 0.575891674
v -0.418166965 -0.173210666 0.563161135
v -0.305477262 -0.126532972 0.571339548
v -0.161516279 -0.0669022352 0.574933708
v 4.84466547E-08 4.84466547E-08 0.575891674
v -0.479135633 -0.320148617 0.486516237
v -0.475533456 -0.317741662 0.522774458
v -0.443158299 -0.296109289 0.547797322
v -0.37634027 -0.251462907 0.563161075
v -0.274922222 -0.183697432 0.571339607
v -0.462678254 -0.309152097 0.438903093
v -0.145360753 -0.0971270427 0.574933767
v 4.84466547E-08 4.84466547E-08 0.575891674
v -0.434943795 -0.290620506 0.381483287
v -0.402264535 -0.26878491 0.31730628
v -0.367195606 -0.245352507 0.250449926
v -0.328670472 -0.21961081 0.185392559
v -0.283420801 -0.189376011 0.126398623
v -0.228046879 -0.152376235 0.0770639703
v -0.136884615 -0.136884809 0.040086288
v -0.193937823 -0.193938032 0.0770639479
v -0.241029516 -0.241029814 0.126398757
v -0.279511154 -0.279511482 0.185392559
v -0.312274098 -0.312274516 0.250449955
v -0.0558040291 -0.0835167244 0.017249262
v -2.42233273E-08 0 0.00953401066
v -0.107549541 -0.160959482 0.040086288
v -0.152375996 -0.228047073 0.0770639479
v -0.189375624 -0.28342104 0.126398653
v -0.038438376 -0.0927987471 0.017249262
v -2.42233273E-08 0 0.00953401066
v -0.0740813091 -0.178848505 0.040086288
v -0.342097789 -0.342098266 0.317306221
v -0.219610408 -0.32867074 0.185392559
v -0.104958177 -0.25339222 0.0770639703
v -0.0195956305 -0.0985146761 0.017249262
v -2.42233273E-08 0 0.00953401066
v -0.0377663486 -0.189864621 0.040086288
v -0.130444139 -0.314920574 0.126398683
v -0.245352045 -0.367195904 0.250449985
v -0.36988923 -0.369889706 0.381483316
v 2.42233284E-07 -0.100444622 0.017249262
v -2.42233273E-08 0 0.00953401066
v -0.0535071492 -0.268999815 0.0770639479
v -0.151270226 -0.365199298 0.185392559
v -0.268784404 -0.402264893 0.317306221
v -0.393475384 -0.39347592 0.438903064
v 2.90679935E-07 -0.193584204 0.040086288
v -0.066499643 -0.334317803 0.126398727
v -0.169001266 -0.408006191 0.250450015
v -0.290619969 -0.434944183 0.381483346
v -0.40747124 -0.407471776 0.486516386
v 0.0195959453 -0.0985147208 0.017249262
v -2.42233273E-08 0 0.00953401066
v -0.0771166086 -0.387693405 0.185392603
v -0.185141742 -0.446972758 0.317306191
v -0.3091515 -0.462678641 0.438903093
v -0.404407859 -0.404408365 0.522774577
v -0.0861558095 -0.43313697 0.250450075
v -0.200182334 -0.483284056 0.381483287
v -0.320147932 -0.47913605 0.486516416
v -0.376875043 -0.376875579 0.547797382
v -0.0943840891 -0.474503696 0.31730631
v -0.21294713 -0.514100909 0.438903064
v -0.317741126 -0.475533843 0.522774518
v -0.320051014 -0.320051432 0.563161254
v -0.102051839 -0.51305145 0.381483257
v -0.220521525 -0.532387376 0.486516267
v -0.296108663 -0.443158656 0.547797382
v -0.233802155 -0.233802438 0.571339488
v -0.108559191 -0.545766532 0.438903153
v -0.218863666 -0.528384864 0.522774458
v -0.25146237 -0.376340628 0.563161135
v -0.123619221 -0.12361937 0.574933708
v 4.84466547E-08 4.84466547E-08 0.575891674
v -0.183697015 -0.27492252 0.571339607
v -0.203963086 -0.492411494 0.547797203
v -0.112420581 -0.565179408 0.486516327
v -0.0971269682 -0.145361036 0.574933708
v 4.84466547E-08 4.84466547E-08 0.575891674
v -0.173210144 -0.418167204 0.563161194
v -0.11157541 -0.560930312 0.522774458
v -0.126532584 -0.30547747 0.571339488
v -0.103979193 -0.522741139 0.547797382
v -0.0669020936 -0.161516428 0.574933767
v 4.84466547E-08 4.84466547E-08 0.575891674
v -0.0883015618 -0.443923861 0.563161135
v -0.0645056069 -0.324293077 0.571339607
v -0.0341062024 -0.171464846 0.574933589
v 4.84466547E-08 4.84466547E-08 0.575891674
v 5.32913191E-07 -0.576251805 0.486516386
v 5.8135987E-07 -0.571919501 0.522774458
v 5.8135987E-07 -0.532982171 0.547797441
v 5.32913191E-07 -0.452620775 0.563161135
v 3.87573238E-07 -0.330646336 0.571339726
v 5.32913191E-07 -0.556458592 0.438903093
v 2.42233284E-07 -0.174823999 0.574933708
v 4.84466547E-08 4.84466547E-08 0.575891674
v 4.84466568E-07 -0.523102641 0.381483287
v 4.84466568E-07 -0.483799666 0.31730628
v 4.84466568E-07 -0.441622555 0.250450015
v 2.90679935E-07 -0.395288736 0.185392588
v 4.36019889E-07 -0.34086743 0.126398683
v 2.42233284E-07 -0.274269789 0.0770639479
v 0.0377666391 -0.189864516 0.040086288
v 0.0535077304 -0.268999726 0.0770639479
v 0.0665003508 -0.334317684 0.126398697
v 0.0771172419 -0.387693256 0.185392603
v 0.0861566067 -0.433136821 0.250450015
v 0.0384385437 -0.0927987471 0.017249262
v -2.42233273E-08 0 0.00953401066
v 0.0740816668 -0.178848401 0.040086288
v 0.104958855 -0.2533921 0.0770639479
v 0.130444646 -0.314920276 0.126398683
v 0.0558042973 -0.0835166276 0.017249262
v -2.42233273E-08 0 0.00953401066
v 0.107549734 -0.160959214 0.040086288
v 0.0943851769 -0.474503487 0.317306161
v 0.151270851 -0.365199029 0.185392588
v 0.152376398 -0.22804679 0.0770639479
v 0.0710253641 -0.0710249767 0.017249262
v -2.42233273E-08 0 0.00953401066
v 0.136884913 -0.13688454 0.040086288
v 0.189376324 -0.283420682 0.126398727
v 0.169002175 -0.408005863 0.250450015
v 0.102052972 -0.513051331 0.381483406
v 0.0835169479 -0.0558039322 0.017249262
v -2.42233273E-08 0 0.00953401066
v 0.19393836 -0.193937719 0.0770639479
v 0.219611108 -0.328670323 0.185392559
v 0.185142666 -0.44697243 0.31730625
v 0.108560234 -0.545766354 0.438903153
v 0.160959512 -0.107549444 0.040086288
v 0.241030097 -0.241029367 0.126398697
v 0.245352849 -0.367195427 0.250449985
v 0.200183421 -0.483283639 0.381483316
v 0.112421677 -0.56517911 0.486516327
v 0.0927989408 -0.0384383984 0.017249262
v -2.42233273E-08 0 0.00953401066
v 0.27951166 -0.279510975 0.185392603
v 0.268785238 -0.402264416 0.31730625
v 0.212948039 -0.514100492 0.438903093
v 0.111576617 -0.560930073 0.522774458
v 0.312274843 -0.31227389 0.250450045
v 0.290620863 -0.434943646 0.381483346
v 0.220522687 -0.532386899 0.486516237
v 0.103980325 -0.52274096 0.54779768
v 0.342098594 -0.34209758 0.317306221
v 0.309152395 -0.462678045 0.438903153
v 0.218864739 -0.528384447 0.522774458
v 0.0883024558 -0.443923682 0.563161135
v 0.369889855 -0.369888991 0.381483227
v 0.320148855 -0.479135424 0.486516267
v 0.203963995 -0.492411107 0.547797382
v 0.0645062849 -0.324292988 0.571339488
v 0.393476158 -0.393475175 0.438903093
v 0.31774199 -0.475533277 0.522774398
v 0.173210844 -0.418166876 0.563161194
v 0.0341067836 -0.171464801 0.574933708
v 4.84466547E-08 4.84466547E-08 0.575891674
v 0.12653327 -0.305477232 0.571339667
v 0.296109647 -0.44315812 0.547797441
v 0.407472074 -0.407471001 0.486516327
v 0.0669024587 -0.161516234 0.574933767
v 4.84466547E-08 4.84466547E-08 0.575891674
v 0.251463026 -0.376340151 0.563161254
v 0.404408634 -0.404407591 0.522774518
v 0.183697596 -0.274922132 0.571339548
v 0.376875788 -0.376874864 0.547797322
v 0.0971272588 -0.145360827 0.574933589
v 4.84466547E-08 4.84466547E-08 0.575891674
v 0.320051789 -0.320050806 0.563161314
v 0.233802482 -0.233801931 0.571339548
v 0.123619393 -0.123619102 0.574933529
v 4.84466547E-08 4.84466547E-08 0.575891674
v 0.479136497 -0.320147663 0.486516386
v 0.475534111 -0.317740768 0.522774458
v 0.443158954 -0.296108425 0.547797441
v 0.376340747 -0.251462132 0.563161194
v 0.274922788 -0.183696881 0.571339607
v 0.462678671 -0.309151232 0.438903004
v 0.145360991 -0.0971268937 0.574933648
v 4.84466547E-08 4.84466547E-08 0.575891674
v 0.43494463 -0.290619671 0.381483346
v 0.402265072 -0.268784136 0.317306221
v 0.367196083 -0.245351851 0.250450045
v 0.32867083 -0.219610214 0.185392559
v 0.283421218 -0.189375401 0.126398683
v 0.228047222 -0.152375773 0.0770639479
v 0.178848475 -0.074081257 0.040086288
v 0.253392518 -0.104958154 0.0770639479
v 0.314920753 -0.130443856 0.126398683
v 0.365199417 -0.151269928 0.185392559
v 0.408006251 -0.169001013 0.250449985
v 0.098514773 -0.019595582 0.017249262
v -2.42233273E-08 0 0.00953401066
v 0.189864621 -0.0377661772 0.040086288
v 0.268999845 -0.0535069555 0.0770639479
v 0.334317923 -0.0664994046 0.126398697
v 0.100444838 2.42233284E-07 0.017249262
v -2.42233273E-08 0 0.00953401066
v 0.193584308 3.39126586E-07 0.040086288
v 0.446973056 -0.185141429 0.317306221
v 0.387693375 -0.0771164373 0.185392559
v 0.274269789 4.36019889E-07 0.0770639479
v 0.0985146761 0.0195960421 0.017249262
v -2.42233273E-08 0 0.00953401066
v 0.189864427 0.037766736 0.040086288
v 0.340867549 5.8135987E-07 0.126398683
v 0.433137059 -0.0861556381 0.250450015
v 0.483284205 -0.200182021 0.381483287
v 0.0927987918 0.038438689 0.017249262
v -2.42233273E-08 0 0.00953401066
v 0.268999606 0.0535078272 0.0770639479
v 0.395288646 5.8135987E-07 0.185392559
v 0.474503726 -0.0943838954 0.317306221
v 0.514101148 -0.212946743 0.438903153
v 0.178848341 0.0740819126 0.040086288
v 0.334317803 0.0665005893 0.126398683
v 0.441622496 7.26699795E-07 0.250449985
v 0.513051867 -0.102051452 0.381483376
v 0.532387614 -0.220521182 0.486516327
v 0.0835166574 0.0558042973 0.017249262
v -2.42233273E-08 0 0.00953401066
v 0.387693226 0.0771176293 0.185392559
v 0.483799666 7.75146475E-07 0.317306221
v 0.545766413 -0.108558901 0.438903064
v 0.528384924 -0.218863308 0.522774458
v 0.43313688 0.0861570463 0.250450045
v 0.52310282 8.72039777E-07 0.381483287
v 0.565179229 -0.112420268 0.486516267
v 0.492411643 -0.203962743 0.547797441
v 0.474503547 0.0943855196 0.317306221
v 0.556458712 9.20486457E-07 0.438903064
v 0.560930431 -0.111575067 0.522774458
v 0.418167442 -0.173209846 0.563161135
v 0.513051212 0.102053121 0.381483287
v 0.576251805 9.20486457E-07 0.486516267
v 0.522741079 -0.103978872 0.547797322
v 0.305477679 -0.126532465 0.571339607
v 0.545766234 0.10856057 0.438903153
v 0.57191956 9.20486457E-07 0.522774458
v 0.44392392 -0.0883012488 0.563161135
v 0.161516353 -0.0669020414 0.574933589
v 4.84466547E-08 4.84466547E-08 0.575891674
v 0.324293137 -0.0645054355 0.571339548
v 0.532982171 9.20486457E-07 0.547797382
v 0.56517899 0.112422109 0.486516386
v 0.17146492 -0.034106154 0.574933529
v 4.84466547E-08 4.84466547E-08 0.575891674
v 0.452620864 7.26699795E-07 0.563161194
v 0.560929954 0.111576907 0.522774458
v 0.330646396 4.84466568E-07 0.571339607
v 0.522740901 0.103980571 0.547797441
v 0.17482397 3.87573238E-07 0.574933767
v 4.84466547E-08 4.84466547E-08 0.575891674
v 0.443923622 0.0883027017 0.563161135
v 0.324293047 0.0645064265 0.571339667
v 0.171464816 0.0341067836 0.574933589
v 4.84466547E-08 4.84466547E-08 0.575891674
v 0.53238672 0.220522925 0.486516327
v 0.528384268 0.218865037 0.522774458
v 0.492410988 0.203964248 0.547797441
v 0.418166965 0.173211277 0.563161135
v 0.305477232 0.126533464 0.571339607
v 0.514100373 0.212948382 0.438903093
v 0.161516353 0.0669026971 0.574933648
v 4.84466547E-08 4.84466547E-08 0.575891674
v 0.483283639 0.200183615 0.381483316
v 0.44697237 0.185142964 0.317306221
v 0.408005774 0.169002429 0.250450045
v 0.36519888 0.151271045 0.185392559
v 0.314920247 0.130444899 0.126398727
v 0.25339219 0.104958996 0.0770639479
v 0.160959318 0.107549928 0.040086288
v 0.22804679 0.152376458 0.0770639479
v 0.283420622 0.189376429 0.126398683
v 0.328670144 0.219611153 0.185392559
v 0.367195308 0.245353088 0.250449985
v 0.0710250214 0.0710254088 0.017249262
v -2.42233273E-08 0 0.00953401066
v 0.136884332 0.136884958 0.040086288
v 0.193937778 0.193938598 0.0770639479
v 0.241029277 0.241030246 0.126398683
v 0.0558040552 0.0835168511 0.017249262
v -2.42233273E-08 0 0.00953401066
v 0.107549295 0.160959557 0.040086288
v 0.402264208 0.268785477 0.317306221
v 0.279510736 0.279511899 0.185392559
v 0.152375773 0.228047311 0.0770639479
v 0.0384383984 0.0927988887 0.017249262
v -2.42233273E-08 0 0.00953401066
v 0.0740810856 0.178848669 0.040086288
v 0.189375311 0.283421308 0.126398697
v 0.312273622 0.312274963 0.250450015
v 0.434943467 0.290621161 0.381483316
v 0.0195956547 0.0985148177 0.017249262
v -2.42233273E-08 0 0.00953401066
v 0.104957886 0.253392518 0.0770639479
v 0.219609946 0.328670979 0.185392588
v 0.342097342 0.342098653 0.317306221
v 0.462677807 0.309152693 0.438903093
v 0.0377659611 0.189864665 0.040086288
v 0.130443677 0.314920753 0.126398683
v 0.245351598 0.367196172 0.250450015
v 0.369888693 0.369890153 0.381483287
v 0.479135245 0.320149213 0.486516327
v 9.68933094E-08 0.100444838 0.017249262
v -2.42233273E-08 0 0.00953401066
v 4.84466547E-08 0.193584397 0.040086288
v 0.0535068586 0.268999845 0.0770639479
v -9.68933094E-08 0.274269849 0.0770639479
v 0.0664992332 0.334317952 0.126398683
v -0 0.34086743 0.126398683
v 0.151269689 0.365199506 0.185392529
v 0.0771160275 0.387693435 0.185392588
v -7.26699838E-08 0.395288616 0.185392529
v 0.169000819 0.40800643 0.250450015
v 0.0861553475 0.433137178 0.250450015
v -9.68933094E-08 0.441622406 0.250450015
v 0.268783927 0.402265459 0.31730625
v 0.185141265 0.446972966 0.317306221
v 0.0943836793 0.474503934 0.317306221
v -4.84466547E-08 0.483799666 0.317306221
v 0.290619433 0.43494463 0.381483316
v 0.200181723 0.483284295 0.381483316
v 0.102051035 0.513051689 0.381483287
v -7.26699838E-08 0.523102582 0.381483287
v 0.393474907 0.393476456 0.438903093
v 0.309150904 0.462679178 0.438903093
v 0.212946445 0.514101148 0.438903064
v 0.108558491 0.54576683 0.438903153
v -9.68933094E-08 0.556458414 0.438903064
v 0.407470703 0.407472253 0.486516386
v 0.320147425 0.479136497 0.486516386
v 0.220520943 0.532387674 0.486516386
v 0.112419926 0.565179527 0.486516386
v -4.84466547E-08 0.576251805 0.486516327
v 0.475533128 0.317742288 0.522774518
v 0.404407382 0.404408932 0.522774518
v 0.443157881 0.296109885 0.547797382
v 0.31774044 0.47553429 0.522774458
v 0.21886304 0.528385222 0.522774458
v 0.111574776 0.560930312 0.522774398
v -4.84466547E-08 0.571919382 0.522774398
v 0.376339972 0.251463175 0.563161135
v 0.376874566 0.376876026 0.547797441
v 0.296108276 0.443159044 0.547797441
v 0.203962445 0.492411762 0.547797441
v 0.103978537 0.522741377 0.547797441
v -7.26699838E-08 0.532982051 0.547797441
v 0.274922162 0.183697745 0.571339667
v 0.320050657 0.320052028 0.563161254
v 0.251461923 0.376341015 0.563161254
v 0.173209682 0.418167531 0.563161135
v 0.0883010551 0.44392401 0.563161135
v 4.84466547E-08 0.452620864 0.563161135
v 0.145360842 0.0971274003 0.574933708
v 4.84466547E-08 4.84466547E-08 0.575891674
v 0.233801857 0.233802825 0.571339607
v 0.183696687 0.274922699 0.571339548
v 0.123619244 0.123619586 0.574933589
v 4.84466547E-08 4.84466547E-08 0.575891674
v 0.126532301 0.305477679 0.571339607
v 0.0645051673 0.324293226 0.571339607
v 4.84466547E-08 0.330646485 0.571339607
v 0.0971268192 0.14536123 0.574933648
v 4.84466547E-08 4.84466547E-08 0.575891674
v 0.0669019744 0.161516741 0.574933648
v 4.84466547E-08 4.84466547E-08 0.575891674
v 0.0341061056 0.171465009 0.574933529
v 4.84466547E-08 4.84466547E-08 0.575891674
v 4.84466547E-08 0.174824014 0.574933767
v 4.84466547E-08 4.84466547E-08 0.575891674
vt 0 1
vt 0.03125 0.9375
vt 0 0.9375
vt 0.03125 0.875
vt 0 0.875
vt 0.03125 0.8125
vt 0 0.8125
vt 0.03125 0.75
vt 0 0.75
vt 0.03125 0.6875
vt 0 0.6875
vt 0.03125 0.625
vt 0 0.625
vt 0.03125 0.5625
vt 0 0.5625
vt 0.03125 0.5
vt 0 0.5
vt 0.03125 0.4375
vt 0 0.4375
vt 0.03125 0.375
vt 0 0.375
vt 0.03125 0.3125
vt 0 0.3125
vt 0.03125 0.25
vt 0 0.25
vt 0.03125 0.1875
vt 0 0.1875
vt 0.03125 0.125
vt 0 0.125
vt 0.03125 0.0625
vt 0 0.0625
vt 0 -1.1920929E-07
vt 0.0625 0.0625
vt 0.03125 -1.1920929E-07
vt 0.0625 0.125
vt 0.0625 0.1875
vt 0.0625 0.25
vt 0.09375 0.0625
vt 0.0625 -1.1920929E-07
vt 0.09375 0.125
vt 0.0625 0.3125
vt 0.09375 0.1875
vt 0.125 0.0625
vt 0.09375 -1.1920929E-07
vt 0.125 0.125
vt 0.09375 0.25
vt 0.0625 0.375
vt 0.15625 0.0625
vt 0.125 -1.1920929E-07
vt 0.125 0.1875
vt 0.09375 0.3125
vt 0.0625 0.4375
vt 0.15625 0.125
vt 0.125 0.25
vt 0.09375 0.375
vt 0.0625 0.5
vt 0.1875 0.0625
vt 0.15625 -1.1920929E-07
vt 0.15625 0.1875
vt 0.125 0.3125
vt 0.09375 0.4375
vt 0.0625 0.5625
vt 0.1875 0.125
vt 0.15625 0.25
vt 0.125 0.375
vt 0.09375 0.5
vt 0.0625 0.625
vt 0.21875 0.0625
vt 0.1875 -1.1920929E-07
vt 0.15625 0.3125
vt 0.125 0.4375
vt 0.09375 0.5625
vt 0.0625 0.6875
vt 0.15625 0.375
vt 0.125 0.5
vt 0.09375 0.625
vt 0.0625 0.75
vt 0.15625 0.4375
vt 0.125 0.5625
vt 0.09375 0.6875
vt 0.0625 0.8125
vt 0.15625 0.5
vt 0.125 0.625
vt 0.09375 0.75
vt 0.0625 0.875
vt 0.15625 0.5625
vt 0.125 0.6875
vt 0.09375 0.8125
vt 0.0625 0.9375
vt 0.03125 1
vt 0.09375 0.875
vt 0.125 0.75
vt 0.15625 0.625
vt 0.09375 0.9375
vt 0.0625 1
vt 0.125 0.8125
vt 0.15625 0.6875
vt 0.125 0.875
vt 0.15625 0.75
vt 0.125 0.9375
vt 0.09375 1
vt 0.15625 0.8125
vt 0.15625 0.875
vt 0.15625 0.9375
vt 0.125 1
vt 0.1875 0.625
vt 0.1875 0.6875
vt 0.1875 0.75
vt 0.1875 0.8125
vt 0.1875 0.875
vt 0.1875 0.5625
vt 0.1875 0.9375
vt 0.15625 1
vt 0.1875 0.5
vt 0.1875 0.4375
vt 0.1875 0.375
vt 0.1875 0.3125
vt 0.1875 0.25
vt 0.1875 0.1875
vt 0.21875 0.125
vt 0.21875 0.1875
vt 0.21875 0.25
vt 0.21875 0.3125
vt 0.21875 0.375
vt 0.25 0.0625
vt 0.21875 -1.1920929E-07
vt 0.25 0.125
vt 0.25 0.1875
vt 0.25 0.25
vt 0.28125 0.0625
vt 0.25 -1.1920929E-07
vt 0.28125 0.125
vt 0.21875 0.4375
vt 0.25 0.3125
vt 0.28125 0.1875
vt 0.3125 0.0625
vt 0.28125 -1.1920929E-07
vt 0.3125 0.125
vt 0.28125 0.25
vt 0.25 0.375
vt 0.21875 0.5
vt 0.34375 0.0625
vt 0.3125 -1.1920929E-07
vt 0.3125 0.1875
vt 0.28125 0.3125
vt 0.25 0.4375
vt 0.21875 0.5625
vt 0.34375 0.125
vt 0.3125 0.25
vt 0.28125 0.375
vt 0.25 0.5
vt 0.21875 0.625
vt 0.375 0.0625
vt 0.34375 -1.1920929E-07
vt 0.3125 0.3125
vt 0.28125 0.4375
vt 0.25 0.5625
vt 0.21875 0.6875
vt 0.3125 0.375
vt 0.28125 0.5
vt 0.25 0.625
vt 0.21875 0.75
vt 0.3125 0.4375
vt 0.28125 0.5625
vt 0.25 0.6875
vt 0.21875 0.8125
vt 0.3125 0.5
vt 0.28125 0.625
vt 0.25 0.75
vt 0.21875 0.875
vt 0.3125 0.5625
vt 0.28125 0.6875
vt 0.25 0.8125
vt 0.21875 0.9375
vt 0.1875 1
vt 0.25 0.875
vt 0.28125 0.75
vt 0.3125 0.625
vt 0.25 0.9375
vt 0.21875 1
vt 0.28125 0.8125
vt 0.3125 0.6875
vt 0.28125 0.875
vt 0.3125 0.75
vt 0.28125 0.9375
vt 0.25 1
vt 0.3125 0.8125
vt 0.3125 0.875
vt 0.3125 0.9375
vt 0.28125 1
vt 0.34375 0.625
vt 0.34375 0.6875
vt 0.34375 0.75
vt 0.34375 0.8125
vt 0.34375 0.875
vt 0.34375 0.5625
vt 0.34375 0.9375
vt 0.3125 1
vt 0.34375 0.5
vt 0.34375 0.4375
vt 0.34375 0.375
vt 0.34375 0.3125
vt 0.34375 0.25
vt 0.34375 0.1875
vt 0.375 0.125
vt 0.375 0.1875
vt 0.375 0.25
vt 0.375 0.3125
vt 0.375 0.375
vt 0.40625 0.0625
vt 0.375 -1.1920929E-07
vt 0.40625 0.125
vt 0.40625 0.1875
vt 0.40625 0.25
vt 0.4375 0.0625
vt 0.40625 -1.1920929E-07
vt 0.4375 0.125
vt 0.375 0.4375
vt 0.40625 0.3125
vt 0.4375 0.1875
vt 0.46875 0.0625
vt 0.4375 -1.1920929E-07
vt 0.46875 0.125
vt 0.4375 0.25
vt 0.40625 0.375
vt 0.375 0.5
vt 0.5 0.0625
vt 0.46875 -1.1920929E-07
vt 0.46875 0.1875
vt 0.4375 0.3125
vt 0.40625 0.4375
vt 0.375 0.5625
vt 0.5 0.125
vt 0.46875 0.25
vt 0.4375 0.375
vt 0.40625 0.5
vt 0.375 0.625
vt 0.53125 0.0625
vt 0.5 -1.1920929E-07
vt 0.46875 0.3125
vt 0.4375 0.4375
vt 0.40625 0.5625
vt 0.375 0.6875
vt 0.46875 0.375
vt 0.4375 0.5
vt 0.40625 0.625
vt 0.375 0.75
vt 0.46875 0.4375
vt 0.4375 0.5625
vt 0.40625 0.6875
vt 0.375 0.8125
vt 0.46875 0.5
vt 0.4375 0.625
vt 0.40625 0.75
vt 0.375 0.875
vt 0.46875 0.5625
vt 0.4375 0.6875
vt 0.40625 0.8125
vt 0.375 0.9375
vt 0.34375 1
vt 0.40625 0.875
vt 0.4375 0.75
vt 0.46875 0.625
vt 0.40625 0.9375
vt 0.375 1
vt 0.4375 0.8125
vt 0.46875 0.6875
vt 0.4375 0.875
vt 0.46875 0.75
vt 0.4375 0.9375
vt 0.40625 1
vt 0.46875 0.8125
vt 0.46875 0.875
vt 0.46875 0.9375
vt 0.4375 1
vt 0.5 0.625
vt 0.5 0.6875
vt 0.5 0.75
vt 0.5 0.8125
vt 0.5 0.875
vt 0.5 0.5625
vt 0.5 0.9375
vt 0.46875 1
vt 0.5 0.5
vt 0.5 0.4375
vt 0.5 0.375
vt 0.5 0.3125
vt 0.5 0.25
vt 0.5 0.1875
vt 0.53125 0.125
vt 0.53125 0.1875
vt 0.53125 0.25
vt 0.53125 0.3125
vt 0.53125 0.375
vt 0.5625 0.0625
vt 0.53125 -1.1920929E-07
vt 0.5625 0.125
vt 0.5625 0.1875
vt 0.5625 0.25
vt 0.59375 0.0625
vt 0.5625 -1.1920929E-07
vt 0.59375 0.125
vt 0.53125 0.4375
vt 0.5625 0.3125
vt 0.59375 0.1875
vt 0.625 0.0625
vt 0.59375 -1.1920929E-07
vt 0.625 0.125
vt 0.59375 0.25
vt 0.5625 0.375
vt 0.53125 0.5
vt 0.65625 0.0625
vt 0.625 -1.1920929E-07
vt 0.625 0.1875
vt 0.59375 0.3125
vt 0.5625 0.4375
vt 0.53125 0.5625
vt 0.65625 0.125
vt 0.625 0.25
vt 0.59375 0.375
vt 0.5625 0.5
vt 0.53125 0.625
vt 0.6875 0.0625
vt 0.65625 -1.1920929E-07
vt 0.625 0.3125
vt 0.59375 0.4375
vt 0.5625 0.5625
vt 0.53125 0.6875
vt 0.625 0.375
vt 0.59375 0.5
vt 0.5625 0.625
vt 0.53125 0.75
vt 0.625 0.4375
vt 0.59375 0.5625
vt 0.5625 0.6875
vt 0.53125 0.8125
vt 0.625 0.5
vt 0.59375 0.625
vt 0.5625 0.75
vt 0.53125 0.875
vt 0.625 0.5625
vt 0.59375 0.6875
vt 0.5625 0.8125
vt 0.53125 0.9375
vt 0.5 1
vt 0.5625 0.875
vt 0.59375 0.75
vt 0.625 0.625
vt 0.5625 0.9375
vt 0.53125 1
vt 0.59375 0.8125
vt 0.625 0.6875
vt 0.59375 0.875
vt 0.625 0.75
vt 0.59375 0.9375
vt 0.5625 1
vt 0.625 0.8125
vt 0.625 0.875
vt 0.625 0.9375
vt 0.59375 1
vt 0.65625 0.625
vt 0.65625 0.6875
vt 0.65625 0.75
vt 0.65625 0.8125
vt 0.65625 0.875
vt 0.65625 0.5625
vt 0.65625 0.9375
vt 0.625 1
vt 0.65625 0.5
vt 0.65625 0.4375
vt 0.65625 0.375
vt 0.65625 0.3125
vt 0.65625 0.25
vt 0.65625 0.1875
vt 0.6875 0.125
vt 0.6875 0.1875
vt 0.6875 0.25
vt 0.6875 0.3125
vt 0.6875 0.375
vt 0.71875 0.0625
vt 0.6875 -1.1920929E-07
vt 0.71875 0.125
vt 0.71875 0.1875
vt 0.71875 0.25
vt 0.75 0.0625
vt 0.71875 -1.1920929E-07
vt 0.75 0.125
vt 0.6875 0.4375
vt 0.71875 0.3125
vt 0.75 0.1875
vt 0.78125 0.0625
vt 0.75 -1.1920929E-07
vt 0.78125 0.125
vt 0.75 0.25
vt 0.71875 0.375
vt 0.6875 0.5
vt 0.8125 0.0625
vt 0.78125 -1.1920929E-07
vt 0.78125 0.1875
vt 0.75 0.3125
vt 0.71875 0.4375
vt 0.6875 0.5625
vt 0.8125 0.125
vt 0.78125 0.25
vt 0.75 0.375
vt 0.71875 0.5
vt 0.6875 0.625
vt 0.84375 0.0625
vt 0.8125 -1.1920929E-07
vt 0.78125 0.3125
vt 0.75 0.4375
vt 0.71875 0.5625
vt 0.6875 0.6875
vt 0.78125 0.375
vt 0.75 0.5
vt 0.71875 0.625
vt 0.6875 0.75
vt 0.78125 0.4375
vt 0.75 0.5625
vt 0.71875 0.6875
vt 0.6875 0.8125
vt 0.78125 0.5
vt 0.75 0.625
vt 0.71875 0.75
vt 0.6875 0.875
vt 0.78125 0.5625
vt 0.75 0.6875
vt 0.71875 0.8125
vt 0.6875 0.9375
vt 0.65625 1
vt 0.71875 0.875
vt 0.75 0.75
vt 0.78125 0.625
vt 0.71875 0.9375
vt 0.6875 1
vt 0.75 0.8125
vt 0.78125 0.6875
vt 0.75 0.875
vt 0.78125 0.75
vt 0.75 0.9375
vt 0.71875 1
vt 0.78125 0.8125
vt 0.78125 0.875
vt 0.78125 0.9375
vt 0.75 1
vt 0.8125 0.625
vt 0.8125 0.6875
vt 0.8125 0.75
vt 0.8125 0.8125
vt 0.8125 0.875
vt 0.8125 0.5625
vt 0.8125 0.9375
vt 0.78125 1
vt 0.8125 0.5
vt 0.8125 0.4375
vt 0.8125 0.375
vt 0.8125 0.3125
vt 0.8125 0.25
vt 0.8125 0.1875
vt 0.84375 0.125
vt 0.84375 0.1875
vt 0.84375 0.25
vt 0.84375 0.3125
vt 0.84375 0.375
vt 0.875 0.0625
vt 0.84375 -1.1920929E-07
vt 0.875 0.125
vt 0.875 0.1875
vt 0.875 0.25
vt 0.90625 0.0625
vt 0.875 -1.1920929E-07
vt 0.90625 0.125
vt 0.84375 0.4375
vt 0.875 0.3125
vt 0.90625 0.1875
vt 0.9375 0.0625
vt 0.90625 -1.1920929E-07
vt 0.9375 0.125
vt 0.90625 0.25
vt 0.875 0.375
vt 0.84375 0.5
vt 0.96875 0.0625
vt 0.9375 -1.1920929E-07
vt 0.9375 0.1875
vt 0.90625 0.3125
vt 0.875 0.4375
vt 0.84375 0.5625
vt 0.96875 0.125
vt 0.9375 0.25
vt 0.90625 0.375
vt 0.875 0.5
vt 0.84375 0.625
vt 1 0.0625
vt 0.96875 -1.1920929E-07
vt 1 0.125
vt 0.96875 0.1875
vt 1 0.1875
vt 0.96875 0.25
vt 1 0.25
vt 0.9375 0.3125
vt 0.96875 0.3125
vt 1 0.3125
vt 0.9375 0.375
vt 0.96875 0.375
vt 1 0.375
vt 0.90625 0.4375
vt 0.9375 0.4375
vt 0.96875 0.4375
vt 1 0.4375
vt 0.90625 0.5
vt 0.9375 0.5
vt 0.96875 0.5
vt 1 0.5
vt 0.875 0.5625
vt 0.90625 0.5625
vt 0.9375 0.5625
vt 0.96875 0.5625
vt 1 0.5625
vt 0.875 0.625
vt 0.90625 0.625
vt 0.9375 0.625
vt 0.96875 0.625
vt 1 0.625
vt 0.84375 0.6875
vt 0.875 0.6875
vt 0.84375 0.75
vt 0.90625 0.6875
vt 0.9375 0.6875
vt 0.96875 0.6875
vt 1 0.6875
vt 0.84375 0.8125
vt 0.875 0.75
vt 0.90625 0.75
vt 0.9375 0.75
vt 0.96875 0.75
vt 1 0.75
vt 0.84375 0.875
vt 0.875 0.8125
vt 0.90625 0.8125
vt 0.9375 0.8125
vt 0.96875 0.8125
vt 1 0.8125
vt 0.84375 0.9375
vt 0.8125 1
vt 0.875 0.875
vt 0.90625 0.875
vt 0.875 0.9375
vt 0.84375 1
vt 0.9375 0.875
vt 0.96875 0.875
vt 1 0.875
vt 0.90625 0.9375
vt 0.875 1
vt 0.9375 0.9375
vt 0.90625 1
vt 0.96875 0.9375
vt 0.9375 1
vt 1 0.9375
vt 0.96875 1
vn -0 0 1
vn -0.00289344788 0.0145339966 1
vn 4.17232513E-07 0.0148162842 1
vn -0.00904083252 0.0454711914 0.999023438
vn -0 0.0463562012 0.999023438
vn -0.0256195068 0.12878418 0.991210938
vn -0 0.131347656 0.991210938
vn -0.0743408203 0.373779297 0.924316406
vn -2.38418579E-07 0.381103516 0.924316406
vn -0.166748047 0.838378906 0.519042969
vn -0 0.854980469 0.519042969
vn -0.193359375 0.971679688 -0.135009766
vn -0 0.990722656 -0.135009766
vn -0.174926758 0.879394531 -0.442382812
vn -0 0.896972656 -0.442382812
vn -0.167602539 0.842285156 -0.512207031
vn -0 0.858886719 -0.512207031
vn -0.165771484 0.833007812 -0.527832031
vn -0 0.849609375 -0.527832031
vn -0.162109375 0.814941406 -0.556152344
vn -1.07288361E-06 0.831054688 -0.556152344
vn -0.151733398 0.762695312 -0.628417969
vn -0 0.777832031 -0.628417969
vn -0.130981445 0.658203125 -0.741210938
vn -3.57627869E-07 0.671386719 -0.741210938
vn -0.100158691 0.503417969 -0.857910156
vn -9.53674316E-07 0.513671875 -0.857910156
vn -0.0651855469 0.327636719 -0.942382812
vn -0 0.333984375 -0.942382812
vn -0.0317687988 0.159790039 -0.986816406
vn -0 0.162841797 -0.986816406
vn -0 0 -1
vn -0.0623168945 0.150512695 -0.986816406
vn -0 0 -1
vn -0.127807617 0.30859375 -0.942382812
vn -0.196533203 0.474365234 -0.857910156
vn -0.256835938 0.620117188 -0.741210938
vn -0.0905151367 0.135375977 -0.986816406
vn -0 0 -1
vn -0.185668945 0.277832031 -0.942382812
vn -0.297607422 0.71875 -0.628417969
vn -0.28515625 0.427001953 -0.857910156
vn -0.11517334 0.11517334 -0.986816406
vn -0 0 -1
vn -0.236206055 0.236206055 -0.942382812
vn -0.373046875 0.558105469 -0.741210938
vn -0.318115234 0.767578125 -0.556152344
vn -0.135375977 0.0904541016 -0.986816406
vn -0 0 -1
vn -0.363037109 0.363037109 -0.857910156
vn -0.432128906 0.646972656 -0.628417969
vn -0.324951172 0.784667969 -0.527832031
vn -0.277832031 0.185668945 -0.942382812
vn -0.474609375 0.474609375 -0.741210938
vn -0.461669922 0.690917969 -0.556152344
vn -0.328613281 0.793457031 -0.512207031
vn -0.150512695 0.0623168945 -0.986816406
vn -0 0 -1
vn -0.427001953 0.28515625 -0.857910156
vn -0.549804688 0.549804688 -0.628417969
vn -0.471923828 0.706054688 -0.527832031
vn -0.343261719 0.828613281 -0.442382812
vn -0.30859375 0.127807617 -0.942382812
vn -0.558105469 0.373046875 -0.741210938
vn -0.587402344 0.587402344 -0.556152344
vn -0.477294922 0.714355469 -0.512207031
vn -0.379150391 0.915527344 -0.135009766
vn -0.159790039 0.0317687988 -0.986816406
vn -0 0 -1
vn -0.646972656 0.432128906 -0.628417969
vn -0.600585938 0.600585938 -0.527832031
vn -0.498291016 0.745605469 -0.442382812
vn -0.327148438 0.789550781 0.519042969
vn -0.690917969 0.461669922 -0.556152344
vn -0.607421875 0.607421875 -0.512207031
vn -0.550292969 0.823730469 -0.135009766
vn -0.145874023 0.352050781 0.924316406
vn -0.706054688 0.471923828 -0.527832031
vn -0.634277344 0.634277344 -0.442382812
vn -0.474853516 0.7109375 0.519042969
vn -0.0502624512 0.121337891 0.991210938
vn -0.714355469 0.477294922 -0.512207031
vn -0.700683594 0.700683594 -0.135009766
vn -0.211791992 0.316894531 0.924316406
vn -0.0177459717 0.0428161621 0.999023438
vn -0.745605469 0.498291016 -0.442382812
vn -0.604492188 0.604492188 0.519042969
vn -0.0729370117 0.109191895 0.991210938
vn -0.00566864014 0.0136947632 1
vn -0 0 1
vn -0.0257568359 0.0385437012 0.999023438
vn -0.26953125 0.26953125 0.924316406
vn -0.823730469 0.550292969 -0.135009766
vn -0.0082321167 0.0123214722 1
vn -0 0 1
vn -0.0928344727 0.0928344727 0.991210938
vn -0.7109375 0.474853516 0.519042969
vn -0.0327758789 0.0327758789 0.999023438
vn -0.316894531 0.211791992 0.924316406
vn -0.0104827881 0.0104751587 1
vn -0 0 1
vn -0.109191895 0.0729370117 0.991210938
vn -0.0385437012 0.0257568359 0.999023438
vn -0.0123214722 0.0082321167 1
vn -0 0 1
vn -0.915527344 0.379150391 -0.135009766
vn -0.789550781 0.327148438 0.519042969
vn -0.352050781 0.145874023 0.924316406
vn -0.121337891 0.0502624512 0.991210938
vn -0.0428161621 0.0177459717 0.999023438
vn -0.828613281 0.343261719 -0.442382812
vn -0.0136947632 0.00567245483 1
vn -0 0 1
vn -0.793457031 0.328613281 -0.512207031
vn -0.784667969 0.324951172 -0.527832031
vn -0.767578125 0.318115234 -0.556152344
vn -0.71875 0.297607422 -0.628417969
vn -0.620117188 0.256835938 -0.741210938
vn -0.474365234 0.196533203 -0.857910156
vn -0.327636719 0.0651855469 -0.942382812
vn -0.503417969 0.100158691 -0.857910156
vn -0.658203125 0.130981445 -0.741210938
vn -0.762695312 0.151733398 -0.628417969
vn -0.814941406 0.162109375 -0.556152344
vn -0.162841797 0 -0.986816406
vn -0 0 -1
vn -0.333984375 0 -0.942382812
vn -0.513671875 0 -0.857910156
vn -0.671386719 0 -0.741210938
vn -0.159790039 -0.0317687988 -0.986816406
vn -0 0 -1
vn -0.327636719 -0.0651855469 -0.942382812
vn -0.833007812 0.165771484 -0.527832031
vn -0.777832031 -2.98023224E-07 -0.628417969
vn -0.503417969 -0.100158691 -0.857910156
vn -0.150512695 -0.0623168945 -0.986816406
vn -0 0 -1
vn -0.30859375 -0.127807617 -0.942382812
vn -0.658203125 -0.130981445 -0.741210938
vn -0.831054688 -5.36441803E-07 -0.556152344
vn -0.842285156 0.167602539 -0.512207031
vn -0.135375977 -0.0905151367 -0.986816406
vn -0 0 -1
vn -0.474365234 -0.196533203 -0.857910156
vn -0.762695312 -0.151733398 -0.628417969
vn -0.849609375 0 -0.527832031
vn -0.879394531 0.174926758 -0.442382812
vn -0.277832031 -0.185668945 -0.942382812
vn -0.620117188 -0.256835938 -0.741210938
vn -0.814941406 -0.162109375 -0.556152344
vn -0.858886719 -5.36441803E-07 -0.512207031
vn -0.971679688 0.193359375 -0.135009766
vn -0.11517334 -0.11517334 -0.986816406
vn -0 0 -1
vn -0.71875 -0.297607422 -0.628417969
vn -0.833007812 -0.165771484 -0.527832031
vn -0.896972656 -3.57627869E-07 -0.442382812
vn -0.838378906 0.166748047 0.519042969
vn -0.767578125 -0.318115234 -0.556152344
vn -0.842285156 -0.167602539 -0.512207031
vn -0.990722656 0 -0.135009766
vn -0.373779297 0.0743408203 0.924316406
vn -0.784667969 -0.324951172 -0.527832031
vn -0.879394531 -0.174926758 -0.442382812
vn -0.854980469 -5.96046448E-07 0.519042969
vn -0.12878418 0.0256195068 0.991210938
vn -0.793457031 -0.328613281 -0.512207031
vn -0.971679688 -0.193359375 -0.135009766
vn -0.381103516 -2.98023224E-07 0.924316406
vn -0.0454711914 0.00904846191 0.999023438
vn -0.828613281 -0.343261719 -0.442382812
vn -0.838378906 -0.166748047 0.519042969
vn -0.131347656 -7.74860382E-07 0.991210938
vn -0.0145339966 0.00289154053 1
vn -0 0 1
vn -0.0463562012 -1.07288361E-06 0.999023438
vn -0.373779297 -0.0743408203 0.924316406
vn -0.915527344 -0.379150391 -0.135009766
vn -0.0148162842 -2.2649765E-06 1
vn -0 0 1
vn -0.12878418 -0.0256195068 0.991210938
vn -0.789550781 -0.327148438 0.519042969
vn -0.0454711914 -0.00904083252 0.999023438
vn -0.352050781 -0.145874023 0.924316406
vn -0.0145339966 -0.00288963318 1
vn -0 0 1
vn -0.121337891 -0.0502624512 0.991210938
vn -0.0428161621 -0.0177459717 0.999023438
vn -0.0136947632 -0.00566864014 1
vn -0 0 1
vn -0.823730469 -0.550292969 -0.135009766
vn -0.7109375 -0.474853516 0.519042969
vn -0.316894531 -0.211791992 0.924316406
vn -0.109191895 -0.0729370117 0.991210938
vn -0.0385437012 -0.0257568359 0.999023438
vn -0.745605469 -0.498291016 -0.442382812
vn -0.0123214722 -0.0082321167 1
vn -0 0 1
vn -0.714355469 -0.477294922 -0.512207031
vn -0.706054688 -0.471923828 -0.527832031
vn -0.690917969 -0.461669922 -0.556152344
vn -0.646972656 -0.432128906 -0.628417969
vn -0.558105469 -0.373046875 -0.741210938
vn -0.427001953 -0.28515625 -0.857910156
vn -0.236206055 -0.236206055 -0.942382812
vn -0.363037109 -0.363037109 -0.857910156
vn -0.474609375 -0.474609375 -0.741210938
vn -0.549804688 -0.549804688 -0.628417969
vn -0.587402344 -0.587402344 -0.556152344
vn -0.0904541016 -0.135375977 -0.986816406
vn -0 0 -1
vn -0.185668945 -0.277832031 -0.942382812
vn -0.28515625 -0.427001953 -0.857910156
vn -0.373046875 -0.558105469 -0.741210938
vn -0.0623168945 -0.150512695 -0.986816406
vn -0 0 -1
vn -0.127807617 -0.30859375 -0.942382812
vn -0.600585938 -0.600585938 -0.527832031
vn -0.432128906 -0.646972656 -0.628417969
vn -0.196533203 -0.474365234 -0.857910156
vn -0.0317687988 -0.159790039 -0.986816406
vn -0 0 -1
vn -0.0651855469 -0.327636719 -0.942382812
vn -0.256835938 -0.620117188 -0.741210938
vn -0.461669922 -0.690917969 -0.556152344
vn -0.607421875 -0.607421875 -0.512207031
vn -0 -0.162841797 -0.986816406
vn -0 0 -1
vn -0.100158691 -0.503417969 -0.857910156
vn -0.297607422 -0.71875 -0.628417969
vn -0.471923828 -0.706054688 -0.527832031
vn -0.634277344 -0.634277344 -0.442382812
vn 4.76837158E-07 -0.333984375 -0.942382812
vn -0.130981445 -0.658203125 -0.741210938
vn -0.318115234 -0.767578125 -0.556152344
vn -0.477294922 -0.714355469 -0.512207031
vn -0.700683594 -0.700683594 -0.135009766
vn 0.0317687988 -0.159790039 -0.986816406
vn -0 0 -1
vn -0.151733398 -0.762695312 -0.628417969
vn -0.324951172 -0.784667969 -0.527832031
vn -0.498291016 -0.745605469 -0.442382812
vn -0.604492188 -0.604492188 0.519042969
vn -0.162109375 -0.814941406 -0.556152344
vn -0.328613281 -0.793457031 -0.512207031
vn -0.550292969 -0.823730469 -0.135009766
vn -0.26953125 -0.26953125 0.924316406
vn -0.165649414 -0.833007812 -0.527832031
vn -0.343261719 -0.828613281 -0.442382812
vn -0.474853516 -0.7109375 0.519042969
vn -0.0928344727 -0.0928344727 0.991210938
vn -0.167602539 -0.842285156 -0.512207031
vn -0.379150391 -0.915527344 -0.135009766
vn -0.211791992 -0.316894531 0.924316406
vn -0.0327758789 -0.0327758789 0.999023438
vn -0.174926758 -0.879394531 -0.442382812
vn -0.327148438 -0.789550781 0.519042969
vn -0.0729370117 -0.109191895 0.991210938
vn -0.0104751587 -0.0104827881 1
vn -0 0 1
vn -0.0257568359 -0.0385437012 0.999023438
vn -0.145874023 -0.352050781 0.924316406
vn -0.193359375 -0.971679688 -0.135009766
vn -0.0082321167 -0.0123214722 1
vn -0 0 1
vn -0.0502624512 -0.121337891 0.991210938
vn -0.166748047 -0.838378906 0.519042969
vn -0.0177459717 -0.0428161621 0.999023438
vn -0.0743408203 -0.373779297 0.924316406
vn -0.00566864014 -0.0136947632 1
vn -0 0 1
vn -0.0256195068 -0.12878418 0.991210938
vn -0.00904846191 -0.0454711914 0.999023438
vn -0.00288963318 -0.0145339966 1
vn -0 0 1
vn 9.53674316E-07 -0.990722656 -0.135009766
vn 8.34465027E-07 -0.854980469 0.519042969
vn -4.76837158E-07 -0.381103516 0.924316406
vn -5.36441803E-07 -0.131347656 0.991210938
vn 3.57627869E-07 -0.0463562012 0.999023438
vn 8.94069672E-07 -0.896972656 -0.442382812
vn -1.13248825E-06 -0.0148162842 1
vn -0 0 1
vn 7.15255737E-07 -0.858886719 -0.512207031
vn 4.76837158E-07 -0.849609375 -0.527832031
vn 7.74860382E-07 -0.831054688 -0.556152344
vn 5.96046448E-07 -0.777832031 -0.628417969
vn 5.96046448E-07 -0.671386719 -0.741210938
vn 2.98023224E-07 -0.513671875 -0.857910156
vn 0.0651855469 -0.327636719 -0.942382812
vn 0.100158691 -0.503417969 -0.857910156
vn 0.130981445 -0.658203125 -0.741210938
vn 0.151733398 -0.762695312 -0.628417969
vn 0.162109375 -0.814941406 -0.556152344
vn 0.0623168945 -0.150512695 -0.986816406
vn -0 0 -1
vn 0.127807617 -0.30859375 -0.942382812
vn 0.196533203 -0.474365234 -0.857910156
vn 0.256835938 -0.620117188 -0.741210938
vn 0.0904541016 -0.135375977 -0.986816406
vn -0 0 -1
vn 0.185668945 -0.277832031 -0.942382812
vn 0.165771484 -0.833007812 -0.527832031
vn 0.297607422 -0.71875 -0.628417969
vn 0.28515625 -0.427001953 -0.857910156
vn 0.11517334 -0.11517334 -0.986816406
vn -0 0 -1
vn 0.236206055 -0.236206055 -0.942382812
vn 0.373046875 -0.558105469 -0.741210938
vn 0.318115234 -0.767578125 -0.556152344
vn 0.167602539 -0.842285156 -0.512207031
vn 0.135375977 -0.0904541016 -0.986816406
vn -0 0 -1
vn 0.363037109 -0.363037109 -0.857910156
vn 0.432128906 -0.646972656 -0.628417969
vn 0.324951172 -0.784667969 -0.527832031
vn 0.174926758 -0.879394531 -0.442382812
vn 0.277832031 -0.185668945 -0.942382812
vn 0.474609375 -0.474609375 -0.741210938
vn 0.461669922 -0.690917969 -0.556152344
vn 0.328613281 -0.793457031 -0.512207031
vn 0.193359375 -0.971679688 -0.135009766
vn 0.150512695 -0.0623168945 -0.986816406
vn -0 0 -1
vn 0.549804688 -0.549804688 -0.628417969
vn 0.471923828 -0.706054688 -0.527832031
vn 0.343261719 -0.828613281 -0.442382812
vn 0.166748047 -0.838378906 0.519042969
vn 0.587402344 -0.587402344 -0.556152344
vn 0.477294922 -0.714355469 -0.512207031
vn 0.379150391 -0.915527344 -0.135009766
vn 0.0743408203 -0.373779297 0.924316406
vn 0.600585938 -0.600585938 -0.527832031
vn 0.498291016 -0.745605469 -0.442382812
vn 0.327148438 -0.789550781 0.519042969
vn 0.0256195068 -0.12878418 0.991210938
vn 0.607421875 -0.607421875 -0.512207031
vn 0.550292969 -0.823730469 -0.135009766
vn 0.145874023 -0.352050781 0.924316406
vn 0.00904846191 -0.0454711914 0.999023438
vn 0.634277344 -0.634277344 -0.442382812
vn 0.474853516 -0.7109375 0.519042969
vn 0.0502624512 -0.121337891 0.991210938
vn 0.00288963318 -0.0145339966 1
vn -0 0 1
vn 0.0177459717 -0.0428161621 0.999023438
vn 0.211791992 -0.316894531 0.924316406
vn 0.700683594 -0.700683594 -0.135009766
vn 0.00567245483 -0.0136871338 1
vn -0 0 1
vn 0.0729370117 -0.109191895 0.991210938
vn 0.604492188 -0.604492188 0.519042969
vn 0.0257568359 -0.0385437012 0.999023438
vn 0.26953125 -0.26953125 0.924316406
vn 0.0082321167 -0.0123214722 1
vn -0 0 1
vn 0.0928344727 -0.0928344727 0.991210938
vn 0.0327758789 -0.0327758789 0.999023438
vn 0.0104751587 -0.0104827881 1
vn -0 0 1
vn 0.823730469 -0.550292969 -0.135009766
vn 0.7109375 -0.474853516 0.519042969
vn 0.316894531 -0.211791992 0.924316406
vn 0.109191895 -0.0729370117 0.991210938
vn 0.0385437012 -0.0257568359 0.999023438
vn 0.745605469 -0.498291016 -0.442382812
vn 0.0123214722 -0.0082321167 1
vn -0 0 1
vn 0.714355469 -0.477294922 -0.512207031
vn 0.706054688 -0.471923828 -0.527832031
vn 0.690917969 -0.461669922 -0.556152344
vn 0.646972656 -0.432128906 -0.628417969
vn 0.558105469 -0.373046875 -0.741210938
vn 0.427001953 -0.28515625 -0.857910156
vn 0.30859375 -0.127807617 -0.942382812
vn 0.474365234 -0.196533203 -0.857910156
vn 0.620117188 -0.256835938 -0.741210938
vn 0.71875 -0.297607422 -0.628417969
vn 0.767578125 -0.318115234 -0.556152344
vn 0.159790039 -0.0317687988 -0.986816406
vn -0 0 -1
vn 0.327636719 -0.0651855469 -0.942382812
vn 0.503417969 -0.100158691 -0.857910156
vn 0.658203125 -0.130981445 -0.741210938
vn 0.162841797 4.76837158E-07 -0.986816406
vn -0 0 -1
vn 0.333984375 1.01327896E-06 -0.942382812
vn 0.784667969 -0.324951172 -0.527832031
vn 0.762695312 -0.151733398 -0.628417969
vn 0.513671875 1.07288361E-06 -0.857910156
vn 0.159790039 0.0317687988 -0.986816406
vn -0 0 -1
vn 0.327636719 0.0651855469 -0.942382812
vn 0.671386719 5.36441803E-07 -0.741210938
vn 0.814941406 -0.162109375 -0.556152344
vn 0.793457031 -0.328613281 -0.512207031
vn 0.150512695 0.0623168945 -0.986816406
vn -0 0 -1
vn 0.503417969 0.100158691 -0.857910156
vn 0.777832031 8.34465027E-07 -0.628417969
vn 0.833007812 -0.165649414 -0.527832031
vn 0.828613281 -0.343261719 -0.442382812
vn 0.30859375 0.127807617 -0.942382812
vn 0.658203125 0.130981445 -0.741210938
vn 0.831054688 9.53674316E-07 -0.556152344
vn 0.842285156 -0.167602539 -0.512207031
vn 0.915527344 -0.379150391 -0.135009766
vn 0.135375977 0.0904541016 -0.986816406
vn -0 0 -1
vn 0.762695312 0.151733398 -0.628417969
vn 0.849609375 9.53674316E-07 -0.527832031
vn 0.879394531 -0.174926758 -0.442382812
vn 0.789550781 -0.327148438 0.519042969
vn 0.814941406 0.162109375 -0.556152344
vn 0.858886719 1.84774399E-06 -0.512207031
vn 0.971679688 -0.193359375 -0.135009766
vn 0.352050781 -0.145874023 0.924316406
vn 0.833007812 0.165771484 -0.527832031
vn 0.896972656 1.13248825E-06 -0.442382812
vn 0.838378906 -0.166748047 0.519042969
vn 0.121337891 -0.0502624512 0.991210938
vn 0.842285156 0.167602539 -0.512207031
vn 0.990722656 1.25169754E-06 -0.135009766
vn 0.373779297 -0.0743408203 0.924316406
vn 0.0428161621 -0.0177459717 0.999023438
vn 0.879394531 0.174926758 -0.442382812
vn 0.854980469 1.54972076E-06 0.519042969
vn 0.12878418 -0.0256195068 0.991210938
vn 0.0136947632 -0.00566864014 1
vn -0 0 1
vn 0.0454711914 -0.00904083252 0.999023438
vn 0.381103516 3.57627869E-07 0.924316406
vn 0.971679688 0.193359375 -0.135009766
vn 0.0145339966 -0.00289344788 1
vn -0 0 1
vn 0.131347656 0 0.991210938
vn 0.838378906 0.166748047 0.519042969
vn 0.0463562012 -9.53674316E-07 0.999023438
vn 0.373779297 0.0743408203 0.924316406
vn 0.0148162842 -1.78813934E-06 1
vn -0 0 1
vn 0.12878418 0.0256195068 0.991210938
vn 0.0454711914 0.00904083252 0.999023438
vn 0.0145339966 0.00289344788 1
vn -0 0 1
vn 0.915527344 0.379150391 -0.135009766
vn 0.789550781 0.327148438 0.519042969
vn 0.352050781 0.145874023 0.924316406
vn 0.121337891 0.0502624512 0.991210938
vn 0.0428161621 0.0177459717 0.999023438
vn 0.828613281 0.343261719 -0.442382812
vn 0.0136947632 0.00566864014 1
vn -0 0 1
vn 0.793457031 0.328613281 -0.512207031
vn 0.784667969 0.324951172 -0.527832031
vn 0.767578125 0.318115234 -0.556152344
vn 0.71875 0.297607422 -0.628417969
vn 0.620117188 0.256835938 -0.741210938
vn 0.474365234 0.196533203 -0.857910156
vn 0.277832031 0.185668945 -0.942382812
vn 0.427001953 0.28515625 -0.857910156
vn 0.558105469 0.373046875 -0.741210938
vn 0.646972656 0.432128906 -0.628417969
vn 0.690917969 0.461669922 -0.556152344
vn 0.11517334 0.11517334 -0.986816406
vn -0 0 -1
vn 0.236206055 0.236206055 -0.942382812
vn 0.363037109 0.363037109 -0.857910156
vn 0.474609375 0.474609375 -0.741210938
vn 0.0904541016 0.135375977 -0.986816406
vn -0 0 -1
vn 0.185668945 0.277832031 -0.942382812
vn 0.706054688 0.471923828 -0.527832031
vn 0.549804688 0.549804688 -0.628417969
vn 0.28515625 0.427001953 -0.857910156
vn 0.0623168945 0.150512695 -0.986816406
vn -0 0 -1
vn 0.127807617 0.30859375 -0.942382812
vn 0.373046875 0.558105469 -0.741210938
vn 0.587402344 0.587402344 -0.556152344
vn 0.714355469 0.477294922 -0.512207031
vn 0.0317687988 0.159790039 -0.986816406
vn -0 0 -1
vn 0.196533203 0.474365234 -0.857910156
vn 0.432128906 0.646972656 -0.628417969
vn 0.600585938 0.600585938 -0.527832031
vn 0.745605469 0.498291016 -0.442382812
vn 0.0651855469 0.327636719 -0.942382812
vn 0.256835938 0.620117188 -0.741210938
vn 0.461669922 0.690917969 -0.556152344
vn 0.607421875 0.607421875 -0.512207031
vn 0.823730469 0.550292969 -0.135009766
vn -0 0.162841797 -0.986816406
vn -0 0 -1
vn -0 0.333984375 -0.942382812
vn 0.100158691 0.503417969 -0.857910156
vn -9.53674316E-07 0.513671875 -0.857910156
vn 0.130981445 0.658203125 -0.741210938
vn -3.57627869E-07 0.671386719 -0.741210938
vn 0.297607422 0.71875 -0.628417969
vn 0.151733398 0.762695312 -0.628417969
vn -0 0.777832031 -0.628417969
vn 0.318115234 0.767578125 -0.556152344
vn 0.162109375 0.814941406 -0.556152344
vn -1.07288361E-06 0.831054688 -0.556152344
vn 0.471923828 0.706054688 -0.527832031
vn 0.324951172 0.784667969 -0.527832031
vn 0.165649414 0.833007812 -0.527832031
vn -0 0.849609375 -0.527832031
vn 0.477294922 0.714355469 -0.512207031
vn 0.328613281 0.793457031 -0.512207031
vn 0.167602539 0.842285156 -0.512207031
vn -0 0.858886719 -0.512207031
vn 0.634277344 0.634277344 -0.442382812
vn 0.498291016 0.745605469 -0.442382812
vn 0.343261719 0.828613281 -0.442382812
vn 0.174926758 0.879394531 -0.442382812
vn -0 0.896972656 -0.442382812
vn 0.700683594 0.700683594 -0.135009766
vn 0.550292969 0.823730469 -0.135009766
vn 0.379150391 0.915527344 -0.135009766
vn 0.193359375 0.971679688 -0.135009766
vn -0 0.990722656 -0.135009766
vn 0.7109375 0.474853516 0.519042969
vn 0.604492188 0.604492188 0.519042969
vn 0.316894531 0.211791992 0.924316406
vn 0.474853516 0.7109375 0.519042969
vn 0.327148438 0.789550781 0.519042969
vn 0.166748047 0.838378906 0.519042969
vn -0 0.854980469 0.519042969
vn 0.109191895 0.0729370117 0.991210938
vn 0.26953125 0.26953125 0.924316406
vn 0.211791992 0.316894531 0.924316406
vn 0.145874023 0.352050781 0.924316406
vn 0.0743408203 0.373779297 0.924316406
vn -2.38418579E-07 0.381103516 0.924316406
vn 0.0385437012 0.0257568359 0.999023438
vn 0.0928344727 0.0928344727 0.991210938
vn 0.0729370117 0.109191895 0.991210938
vn 0.0502624512 0.121337891 0.991210938
vn 0.0256195068 0.12878418 0.991210938
vn -0 0.131347656 0.991210938
vn 0.0123214722 0.0082321167 1
vn -0 0 1
vn 0.0327758789 0.0327758789 0.999023438
vn 0.0257568359 0.0385437012 0.999023438
vn 0.0104751587 0.0104827881 1
vn -0 0 1
vn 0.0177459717 0.0428161621 0.999023438
vn 0.00904083252 0.0454711914 0.999023438
vn -0 0.0463562012 0.999023438
vn 0.0082321167 0.0123214722 1
vn -0 0 1
vn 0.00566864014 0.0136947632 1
vn -0 0 1
vn 0.00289154053 0.0145339966 1
vn -0 0 1
vn 4.17232513E-07 0.0148162842 1
vn -0 0 1
g Sphere001_0
f 3/3/3 2/2/2 1/1/1
f 4/4/4 2/2/2 3/3/3
f 5/5/5 4/4/4 3/3/3
f 6/6/6 4/4/4 5/5/5
f 7/7/7 6/6/6 5/5/5
f 8/8/8 6/6/6 7/7/7
f 9/9/9 8/8/8 7/7/7
f 10/10/10 8/8/8 9/9/9
f 11/11/11 10/10/10 9/9/9
f 12/12/12 10/10/10 11/11/11
f 13/13/13 12/12/12 11/11/11
f 14/14/14 12/12/12 13/13/13
f 15/15/15 14/14/14 13/13/13
f 16/16/16 14/14/14 15/15/15
f 17/17/17 16/16/16 15/15/15
f 18/18/18 16/16/16 17/17/17
f 19/19/19 18/18/18 17/17/17
f 20/20/20 18/18/18 19/19/19
f 21/21/21 20/20/20 19/19/19
f 22/22/22 20/20/20 21/21/21
f 23/23/23 22/22/22 21/21/21
f 24/24/24 22/22/22 23/23/23
f 25/25/25 24/24/24 23/23/23
f 26/26/26 24/24/24 25/25/25
f 27/27/27 26/26/26 25/25/25
f 28/28/28 26/26/26 27/27/27
f 29/29/29 28/28/28 27/27/27
f 30/30/30 28/28/28 29/29/29
f 31/31/31 30/30/30 29/29/29
f 30/30/30 31/31/31 32/32/32
f 30/30/30 33/33/33 28/28/28
f 33/33/33 30/30/30 34/34/34
f 28/28/28 35/35/35 26/26/26
f 33/33/33 35/35/35 28/28/28
f 26/26/26 36/36/36 24/24/24
f 35/35/35 36/36/36 26/26/26
f 24/24/24 37/37/37 22/22/22
f 36/36/36 37/37/37 24/24/24
f 33/33/33 38/38/38 35/35/35
f 38/38/38 33/33/33 39/39/39
f 35/35/35 40/40/40 36/36/36
f 38/38/38 40/40/40 35/35/35
f 37/37/37 41/41/41 22/22/22
f 22/22/22 41/41/41 20/20/20
f 36/36/36 42/42/42 37/37/37
f 40/40/40 42/42/42 36/36/36
f 38/38/38 43/43/43 40/40/40
f 43/43/43 38/38/38 44/44/44
f 43/43/43 45/45/45 40/40/40
f 40/40/40 45/45/45 42/42/42
f 42/42/42 46/46/46 37/37/37
f 37/37/37 46/46/46 41/41/41
f 41/41/41 47/47/47 20/20/20
f 20/20/20 47/47/47 18/18/18
f 43/43/43 48/48/48 45/45/45
f 48/48/48 43/43/43 49/49/49
f 45/45/45 50/50/50 42/42/42
f 42/42/42 50/50/50 46/46/46
f 46/46/46 51/51/51 41/41/41
f 41/41/41 51/51/51 47/47/47
f 47/47/47 52/52/52 18/18/18
f 18/18/18 52/52/52 16/16/16
f 48/48/48 53/53/53 45/45/45
f 45/45/45 53/53/53 50/50/50
f 50/50/50 54/54/54 46/46/46
f 46/46/46 54/54/54 51/51/51
f 51/51/51 55/55/55 47/47/47
f 47/47/47 55/55/55 52/52/52
f 52/52/52 56/56/56 16/16/16
f 16/16/16 56/56/56 14/14/14
f 48/48/48 57/57/57 53/53/53
f 57/57/57 48/48/48 58/58/58
f 53/53/53 59/59/59 50/50/50
f 50/50/50 59/59/59 54/54/54
f 54/54/54 60/60/60 51/51/51
f 51/51/51 60/60/60 55/55/55
f 55/55/55 61/61/61 52/52/52
f 52/52/52 61/61/61 56/56/56
f 56/56/56 62/62/62 14/14/14
f 14/14/14 62/62/62 12/12/12
f 57/57/57 63/63/63 53/53/53
f 53/53/53 63/63/63 59/59/59
f 59/59/59 64/64/64 54/54/54
f 54/54/54 64/64/64 60/60/60
f 60/60/60 65/65/65 55/55/55
f 55/55/55 65/65/65 61/61/61
f 61/61/61 66/66/66 56/56/56
f 56/56/56 66/66/66 62/62/62
f 62/62/62 67/67/67 12/12/12
f 12/12/12 67/67/67 10/10/10
f 57/57/57 68/68/68 63/63/63
f 68/68/68 57/57/57 69/69/69
f 64/64/64 70/70/70 60/60/60
f 60/60/60 70/70/70 65/65/65
f 65/65/65 71/71/71 61/61/61
f 61/61/61 71/71/71 66/66/66
f 66/66/66 72/72/72 62/62/62
f 62/62/62 72/72/72 67/67/67
f 67/67/67 73/73/73 10/10/10
f 10/10/10 73/73/73 8/8/8
f 70/70/70 74/74/74 65/65/65
f 65/65/65 74/74/74 71/71/71
f 71/71/71 75/75/75 66/66/66
f 66/66/66 75/75/75 72/72/72
f 72/72/72 76/76/76 67/67/67
f 67/67/67 76/76/76 73/73/73
f 73/73/73 77/77/77 8/8/8
f 8/8/8 77/77/77 6/6/6
f 74/74/74 78/78/78 71/71/71
f 71/71/71 78/78/78 75/75/75
f 75/75/75 79/79/79 72/72/72
f 72/72/72 79/79/79 76/76/76
f 76/76/76 80/80/80 73/73/73
f 73/73/73 80/80/80 77/77/77
f 77/77/77 81/81/81 6/6/6
f 6/6/6 81/81/81 4/4/4
f 78/78/78 82/82/82 75/75/75
f 75/75/75 82/82/82 79/79/79
f 79/79/79 83/83/83 76/76/76
f 76/76/76 83/83/83 80/80/80
f 80/80/80 84/84/84 77/77/77
f 77/77/77 84/84/84 81/81/81
f 81/81/81 85/85/85 4/4/4
f 4/4/4 85/85/85 2/2/2
f 82/82/82 86/86/86 79/79/79
f 79/79/79 86/86/86 83/83/83
f 83/83/83 87/87/87 80/80/80
f 80/80/80 87/87/87 84/84/84
f 84/84/84 88/88/88 81/81/81
f 81/81/81 88/88/88 85/85/85
f 85/85/85 89/89/89 2/2/2
f 2/2/2 89/89/89 90/90/90
f 85/85/85 91/91/91 89/89/89
f 88/88/88 91/91/91 85/85/85
f 84/84/84 92/92/92 88/88/88
f 87/87/87 92/92/92 84/84/84
f 83/83/83 93/93/93 87/87/87
f 86/86/86 93/93/93 83/83/83
f 91/91/91 94/94/94 89/89/89
f 89/89/89 94/94/94 95/95/95
f 88/88/88 96/96/96 91/91/91
f 92/92/92 96/96/96 88/88/88
f 87/87/87 97/97/97 92/92/92
f 93/93/93 97/97/97 87/87/87
f 91/91/91 98/98/98 94/94/94
f 96/96/96 98/98/98 91/91/91
f 92/92/92 99/99/99 96/96/96
f 97/97/97 99/99/99 92/92/92
f 98/98/98 100/100/100 94/94/94
f 94/94/94 100/100/100 101/101/101
f 96/96/96 102/102/102 98/98/98
f 99/99/99 102/102/102 96/96/96
f 98/98/98 103/103/103 100/100/100
f 102/102/102 103/103/103 98/98/98
f 103/103/103 104/104/104 100/100/100
f 100/100/100 104/104/104 105/105/105
f 93/93/93 106/106/106 97/97/97
f 97/97/97 107/107/107 99/99/99
f 106/106/106 107/107/107 97/97/97
f 99/99/99 108/108/108 102/102/102
f 107/107/107 108/108/108 99/99/99
f 102/102/102 109/109/109 103/103/103
f 108/108/108 109/109/109 102/102/102
f 103/103/103 110/110/110 104/104/104
f 109/109/109 110/110/110 103/103/103
f 111/111/111 106/106/106 93/93/93
f 86/86/86 111/111/111 93/93/93
f 110/110/110 112/112/112 104/104/104
f 104/104/104 112/112/112 113/113/113
f 114/114/114 111/111/111 86/86/86
f 82/82/82 114/114/114 86/86/86
f 115/115/115 114/114/114 82/82/82
f 78/78/78 115/115/115 82/82/82
f 116/116/116 115/115/115 78/78/78
f 74/74/74 116/116/116 78/78/78
f 117/117/117 116/116/116 74/74/74
f 70/70/70 117/117/117 74/74/74
f 118/118/118 117/117/117 70/70/70
f 64/64/64 118/118/118 70/70/70
f 119/119/119 118/118/118 64/64/64
f 59/59/59 119/119/119 64/64/64
f 63/63/63 119/119/119 59/59/59
f 63/63/63 120/120/120 119/119/119
f 68/68/68 120/120/120 63/63/63
f 119/119/119 121/121/121 118/118/118
f 120/120/120 121/121/121 119/119/119
f 118/118/118 122/122/122 117/117/117
f 121/121/121 122/122/122 118/118/118
f 117/117/117 123/123/123 116/116/116
f 122/122/122 123/123/123 117/117/117
f 116/116/116 124/124/124 115/115/115
f 123/123/123 124/124/124 116/116/116
f 68/68/68 125/125/125 120/120/120
f 125/125/125 68/68/68 126/126/126
f 120/120/120 127/127/127 121/121/121
f 125/125/125 127/127/127 120/120/120
f 121/121/121 128/128/128 122/122/122
f 127/127/127 128/128/128 121/121/121
f 122/122/122 129/129/129 123/123/123
f 128/128/128 129/129/129 122/122/122
f 125/125/125 130/130/130 127/127/127
f 130/130/130 125/125/125 131/131/131
f 127/127/127 132/132/132 128/128/128
f 130/130/130 132/132/132 127/127/127
f 124/124/124 133/133/133 115/115/115
f 115/115/115 133/133/133 114/114/114
f 123/123/123 134/134/134 124/124/124
f 129/129/129 134/134/134 123/123/123
f 128/128/128 135/135/135 129/129/129
f 132/132/132 135/135/135 128/128/128
f 130/130/130 136/136/136 132/132/132
f 136/136/136 130/130/130 137/137/137
f 136/136/136 138/138/138 132/132/132
f 132/132/132 138/138/138 135/135/135
f 135/135/135 139/139/139 129/129/129
f 129/129/129 139/139/139 134/134/134
f 134/134/134 140/140/140 124/124/124
f 124/124/124 140/140/140 133/133/133
f 133/133/133 141/141/141 114/114/114
f 114/114/114 141/141/141 111/111/111
f 136/136/136 142/142/142 138/138/138
f 142/142/142 136/136/136 143/143/143
f 138/138/138 144/144/144 135/135/135
f 135/135/135 144/144/144 139/139/139
f 139/139/139 145/145/145 134/134/134
f 134/134/134 145/145/145 140/140/140
f 140/140/140 146/146/146 133/133/133
f 133/133/133 146/146/146 141/141/141
f 141/141/141 147/147/147 111/111/111
f 111/111/111 147/147/147 106/106/106
f 142/142/142 148/148/148 138/138/138
f 138/138/138 148/148/148 144/144/144
f 144/144/144 149/149/149 139/139/139
f 139/139/139 149/149/149 145/145/145
f 145/145/145 150/150/150 140/140/140
f 140/140/140 150/150/150 146/146/146
f 146/146/146 151/151/151 141/141/141
f 141/141/141 151/151/151 147/147/147
f 147/147/147 152/152/152 106/106/106
f 106/106/106 152/152/152 107/107/107
f 142/142/142 153/153/153 148/148/148
f 153/153/153 142/142/142 154/154/154
f 149/149/149 155/155/155 145/145/145
f 145/145/145 155/155/155 150/150/150
f 150/150/150 156/156/156 146/146/146
f 146/146/146 156/156/156 151/151/151
f 151/151/151 157/157/157 147/147/147
f 147/147/147 157/157/157 152/152/152
f 152/152/152 158/158/158 107/107/107
f 107/107/107 158/158/158 108/108/108
f 155/155/155 159/159/159 150/150/150
f 150/150/150 159/159/159 156/156/156
f 156/156/156 160/160/160 151/151/151
f 151/151/151 160/160/160 157/157/157
f 157/157/157 161/161/161 152/152/152
f 152/152/152 161/161/161 158/158/158
f 158/158/158 162/162/162 108/108/108
f 108/108/108 162/162/162 109/109/109
f 159/159/159 163/163/163 156/156/156
f 156/156/156 163/163/163 160/160/160
f 160/160/160 164/164/164 157/157/157
f 157/157/157 164/164/164 161/161/161
f 161/161/161 165/165/165 158/158/158
f 158/158/158 165/165/165 162/162/162
f 162/162/162 166/166/166 109/109/109
f 109/109/109 166/166/166 110/110/110
f 163/163/163 167/167/167 160/160/160
f 160/160/160 167/167/167 164/164/164
f 164/164/164 168/168/168 161/161/161
f 161/161/161 168/168/168 165/165/165
f 165/165/165 169/169/169 162/162/162
f 162/162/162 169/169/169 166/166/166
f 166/166/166 170/170/170 110/110/110
f 110/110/110 170/170/170 112/112/112
f 167/167/167 171/171/171 164/164/164
f 164/164/164 171/171/171 168/168/168
f 168/168/168 172/172/172 165/165/165
f 165/165/165 172/172/172 169/169/169
f 169/169/169 173/173/173 166/166/166
f 166/166/166 173/173/173 170/170/170
f 170/170/170 174/174/174 112/112/112
f 112/112/112 174/174/174 175/175/175
f 170/170/170 176/176/176 174/174/174
f 173/173/173 176/176/176 170/170/170
f 169/169/169 177/177/177 173/173/173
f 172/172/172 177/177/177 169/169/169
f 168/168/168 178/178/178 172/172/172
f 171/171/171 178/178/178 168/168/168
f 176/176/176 179/179/179 174/174/174
f 174/174/174 179/179/179 180/180/180
f 173/173/173 181/181/181 176/176/176
f 177/177/177 181/181/181 173/173/173
f 172/172/172 182/182/182 177/177/177
f 178/178/178 182/182/182 172/172/172
f 176/176/176 183/183/183 179/179/179
f 181/181/181 183/183/183 176/176/176
f 177/177/177 184/184/184 181/181/181
f 182/182/182 184/184/184 177/177/177
f 183/183/183 185/185/185 179/179/179
f 179/179/179 185/185/185 186/186/186
f 181/181/181 187/187/187 183/183/183
f 184/184/184 187/187/187 181/181/181
f 183/183/183 188/188/188 185/185/185
f 187/187/187 188/188/188 183/183/183
f 188/188/188 189/189/189 185/185/185
f 185/185/185 189/189/189 190/190/190
f 178/178/178 191/191/191 182/182/182
f 182/182/182 192/192/192 184/184/184
f 191/191/191 192/192/192 182/182/182
f 184/184/184 193/193/193 187/187/187
f 192/192/192 193/193/193 184/184/184
f 187/187/187 194/194/194 188/188/188
f 193/193/193 194/194/194 187/187/187
f 188/188/188 195/195/195 189/189/189
f 194/194/194 195/195/195 188/188/188
f 196/196/196 191/191/191 178/178/178
f 171/171/171 196/196/196 178/178/178
f 195/195/195 197/197/197 189/189/189
f 189/189/189 197/197/197 198/198/198
f 199/199/199 196/196/196 171/171/171
f 167/167/167 199/199/199 171/171/171
f 200/200/200 199/199/199 167/167/167
f 163/163/163 200/200/200 167/167/167
f 201/201/201 200/200/200 163/163/163
f 159/159/159 201/201/201 163/163/163
f 202/202/202 201/201/201 159/159/159
f 155/155/155 202/202/202 159/159/159
f 203/203/203 202/202/202 155/155/155
f 149/149/149 203/203/203 155/155/155
f 204/204/204 203/203/203 149/149/149
f 144/144/144 204/204/204 149/149/149
f 148/148/148 204/204/204 144/144/144
f 148/148/148 205/205/205 204/204/204
f 153/153/153 205/205/205 148/148/148
f 204/204/204 206/206/206 203/203/203
f 205/205/205 206/206/206 204/204/204
f 203/203/203 207/207/207 202/202/202
f 206/206/206 207/207/207 203/203/203
f 202/202/202 208/208/208 201/201/201
f 207/207/207 208/208/208 202/202/202
f 201/201/201 209/209/209 200/200/200
f 208/208/208 209/209/209 201/201/201
f 153/153/153 210/210/210 205/205/205
f 210/210/210 153/153/153 211/211/211
f 205/205/205 212/212/212 206/206/206
f 210/210/210 212/212/212 205/205/205
f 206/206/206 213/213/213 207/207/207
f 212/212/212 213/213/213 206/206/206
f 207/207/207 214/214/214 208/208/208
f 213/213/213 214/214/214 207/207/207
f 210/210/210 215/215/215 212/212/212
f 215/215/215 210/210/210 216/216/216
f 212/212/212 217/217/217 213/213/213
f 215/215/215 217/217/217 212/212/212
f 209/209/209 218/218/218 200/200/200
f 200/200/200 218/218/218 199/199/199
f 208/208/208 219/219/219 209/209/209
f 214/214/214 219/219/219 208/208/208
f 213/213/213 220/220/220 214/214/214
f 217/217/217 220/220/220 213/213/213
f 215/215/215 221/221/221 217/217/217
f 221/221/221 215/215/215 222/222/222
f 221/221/221 223/223/223 217/217/217
f 217/217/217 223/223/223 220/220/220
f 220/220/220 224/224/224 214/214/214
f 214/214/214 224/224/224 219/219/219
f 219/219/219 225/225/225 209/209/209
f 209/209/209 225/225/225 218/218/218
f 218/218/218 226/226/226 199/199/199
f 199/199/199 226/226/226 196/196/196
f 221/221/221 227/227/227 223/223/223
f 227/227/227 221/221/221 228/228/228
f 223/223/223 229/229/229 220/220/220
f 220/220/220 229/229/229 224/224/224
f 224/224/224 230/230/230 219/219/219
f 219/219/219 230/230/230 225/225/225
f 225/225/225 231/231/231 218/218/218
f 218/218/218 231/231/231 226/226/226
f 226/226/226 232/232/232 196/196/196
f 196/196/196 232/232/232 191/191/191
f 227/227/227 233/233/233 223/223/223
f 223/223/223 233/233/233 229/229/229
f 229/229/229 234/234/234 224/224/224
f 224/224/224 234/234/234 230/230/230
f 230/230/230 235/235/235 225/225/225
f 225/225/225 235/235/235 231/231/231
f 231/231/231 236/236/236 226/226/226
f 226/226/226 236/236/236 232/232/232
f 232/232/232 237/237/237 191/191/191
f 191/191/191 237/237/237 192/192/192
f 227/227/227 238/238/238 233/233/233
f 238/238/238 227/227/227 239/239/239
f 234/234/234 240/240/240 230/230/230
f 230/230/230 240/240/240 235/235/235
f 235/235/235 241/241/241 231/231/231
f 231/231/231 241/241/241 236/236/236
f 236/236/236 242/242/242 232/232/232
f 232/232/232 242/242/242 237/237/237
f 237/237/237 243/243/243 192/192/192
f 192/192/192 243/243/243 193/193/193
f 240/240/240 244/244/244 235/235/235
f 235/235/235 244/244/244 241/241/241
f 241/241/241 245/245/245 236/236/236
f 236/236/236 245/245/245 242/242/242
f 242/242/242 246/246/246 237/237/237
f 237/237/237 246/246/246 243/243/243
f 243/243/243 247/247/247 193/193/193
f 193/193/193 247/247/247 194/194/194
f 244/244/244 248/248/248 241/241/241
f 241/241/241 248/248/248 245/245/245
f 245/245/245 249/249/249 242/242/242
f 242/242/242 249/249/249 246/246/246
f 246/246/246 250/250/250 243/243/243
f 243/243/243 250/250/250 247/247/247
f 247/247/247 251/251/251 194/194/194
f 194/194/194 251/251/251 195/195/195
f 248/248/248 252/252/252 245/245/245
f 245/245/245 252/252/252 249/249/249
f 249/249/249 253/253/253 246/246/246
f 246/246/246 253/253/253 250/250/250
f 250/250/250 254/254/254 247/247/247
f 247/247/247 254/254/254 251/251/251
f 251/251/251 255/255/255 195/195/195
f 195/195/195 255/255/255 197/197/197
f 252/252/252 256/256/256 249/249/249
f 249/249/249 256/256/256 253/253/253
f 253/253/253 257/257/257 250/250/250
f 250/250/250 257/257/257 254/254/254
f 254/254/254 258/258/258 251/251/251
f 251/251/251 258/258/258 255/255/255
f 255/255/255 259/259/259 197/197/197
f 197/197/197 259/259/259 260/260/260
f 255/255/255 261/261/261 259/259/259
f 258/258/258 261/261/261 255/255/255
f 254/254/254 262/262/262 258/258/258
f 257/257/257 262/262/262 254/254/254
f 253/253/253 263/263/263 257/257/257
f 256/256/256 263/263/263 253/253/253
f 261/261/261 264/264/264 259/259/259
f 259/259/259 264/264/264 265/265/265
f 258/258/258 266/266/266 261/261/261
f 262/262/262 266/266/266 258/258/258
f 257/257/257 267/267/267 262/262/262
f 263/263/263 267/267/267 257/257/257
f 261/261/261 268/268/268 264/264/264
f 266/266/266 268/268/268 261/261/261
f 262/262/262 269/269/269 266/266/266
f 267/267/267 269/269/269 262/262/262
f 268/268/268 270/270/270 264/264/264
f 264/264/264 270/270/270 271/271/271
f 266/266/266 272/272/272 268/268/268
f 269/269/269 272/272/272 266/266/266
f 268/268/268 273/273/273 270/270/270
f 272/272/272 273/273/273 268/268/268
f 273/273/273 274/274/274 270/270/270
f 270/270/270 274/274/274 275/275/275
f 263/263/263 276/276/276 267/267/267
f 267/267/267 277/277/277 269/269/269
f 276/276/276 277/277/277 267/267/267
f 269/269/269 278/278/278 272/272/272
f 277/277/277 278/278/278 269/269/269
f 272/272/272 279/279/279 273/273/273
f 278/278/278 279/279/279 272/272/272
f 273/273/273 280/280/280 274/274/274
f 279/279/279 280/280/280 273/273/273
f 281/281/281 276/276/276 263/263/263
f 256/256/256 281/281/281 263/263/263
f 280/280/280 282/282/282 274/274/274
f 274/274/274 282/282/282 283/283/283
f 284/284/284 281/281/281 256/256/256
f 252/252/252 284/284/284 256/256/256
f 285/285/285 284/284/284 252/252/252
f 248/248/248 285/285/285 252/252/252
f 286/286/286 285/285/285 248/248/248
f 244/244/244 286/286/286 248/248/248
f 287/287/287 286/286/286 244/244/244
f 240/240/240 287/287/287 244/244/244
f 288/288/288 287/287/287 240/240/240
f 234/234/234 288/288/288 240/240/240
f 289/289/289 288/288/288 234/234/234
f 229/229/229 289/289/289 234/234/234
f 233/233/233 289/289/289 229/229/229
f 233/233/233 290/290/290 289/289/289
f 238/238/238 290/290/290 233/233/233
f 289/289/289 291/291/291 288/288/288
f 290/290/290 291/291/291 289/289/289
f 288/288/288 292/292/292 287/287/287
f 291/291/291 292/292/292 288/288/288
f 287/287/287 293/293/293 286/286/286
f 292/292/292 293/293/293 287/287/287
f 286/286/286 294/294/294 285/285/285
f 293/293/293 294/294/294 286/286/286
f 238/238/238 295/295/295 290/290/290
f 295/295/295 238/238/238 296/296/296
f 290/290/290 297/297/297 291/291/291
f 295/295/295 297/297/297 290/290/290
f 291/291/291 298/298/298 292/292/292
f 297/297/297 298/298/298 291/291/291
f 292/292/292 299/299/299 293/293/293
f 298/298/298 299/299/299 292/292/292
f 295/295/295 300/300/300 297/297/297
f 300/300/300 295/295/295 301/301/301
f 297/297/297 302/302/302 298/298/298
f 300/300/300 302/302/302 297/297/297
f 294/294/294 303/303/303 285/285/285
f 285/285/285 303/303/303 284/284/284
f 293/293/293 304/304/304 294/294/294
f 299/299/299 304/304/304 293/293/293
f 298/298/298 305/305/305 299/299/299
f 302/302/302 305/305/305 298/298/298
f 300/300/300 306/306/306 302/302/302
f 306/306/306 300/300/300 307/307/307
f 306/306/306 308/308/308 302/302/302
f 302/302/302 308/308/308 305/305/305
f 305/305/305 309/309/309 299/299/299
f 299/299/299 309/309/309 304/304/304
f 304/304/304 310/310/310 294/294/294
f 294/294/294 310/310/310 303/303/303
f 303/303/303 311/311/311 284/284/284
f 284/284/284 311/311/311 281/281/281
f 306/306/306 312/312/312 308/308/308
f 312/312/312 306/306/306 313/313/313
f 308/308/308 314/314/314 305/305/305
f 305/305/305 314/314/314 309/309/309
f 309/309/309 315/315/315 304/304/304
f 304/304/304 315/315/315 310/310/310
f 310/310/310 316/316/316 303/303/303
f 303/303/303 316/316/316 311/311/311
f 311/311/311 317/317/317 281/281/281
f 281/281/281 317/317/317 276/276/276
f 312/312/312 318/318/318 308/308/308
f 308/308/308 318/318/318 314/314/314
f 314/314/314 319/319/319 309/309/309
f 309/309/309 319/319/319 315/315/315
f 315/315/315 320/320/320 310/310/310
f 310/310/310 320/320/320 316/316/316
f 316/316/316 321/321/321 311/311/311
f 311/311/311 321/321/321 317/317/317
f 317/317/317 322/322/322 276/276/276
f 276/276/276 322/322/322 277/277/277
f 312/312/312 323/323/323 318/318/318
f 323/323/323 312/312/312 324/324/324
f 319/319/319 325/325/325 315/315/315
f 315/315/315 325/325/325 320/320/320
f 320/320/320 326/326/326 316/316/316
f 316/316/316 326/326/326 321/321/321
f 321/321/321 327/327/327 317/317/317
f 317/317/317 327/327/327 322/322/322
f 322/322/322 328/328/328 277/277/277
f 277/277/277 328/328/328 278/278/278
f 325/325/325 329/329/329 320/320/320
f 320/320/320 329/329/329 326/326/326
f 326/326/326 330/330/330 321/321/321
f 321/321/321 330/330/330 327/327/327
f 327/327/327 331/331/331 322/322/322
f 322/322/322 331/331/331 328/328/328
f 328/328/328 332/332/332 278/278/278
f 278/278/278 332/332/332 279/279/279
f 329/329/329 333/333/333 326/326/326
f 326/326/326 333/333/333 330/330/330
f 330/330/330 334/334/334 327/327/327
f 327/327/327 334/334/334 331/331/331
f 331/331/331 335/335/335 328/328/328
f 328/328/328 335/335/335 332/332/332
f 332/332/332 336/336/336 279/279/279
f 279/279/279 336/336/336 280/280/280
f 333/333/333 337/337/337 330/330/330
f 330/330/330 337/337/337 334/334/334
f 334/334/334 338/338/338 331/331/331
f 331/331/331 338/338/338 335/335/335
f 335/335/335 339/339/339 332/332/332
f 332/332/332 339/339/339 336/336/336
f 336/336/336 340/340/340 280/280/280
f 280/280/280 340/340/340 282/282/282
f 337/337/337 341/341/341 334/334/334
f 334/334/334 341/341/341 338/338/338
f 338/338/338 342/342/342 335/335/335
f 335/335/335 342/342/342 339/339/339
f 339/339/339 343/343/343 336/336/336
f 336/336/336 343/343/343 340/340/340
f 340/340/340 344/344/344 282/282/282
f 282/282/282 344/344/344 345/345/345
f 340/340/340 346/346/346 344/344/344
f 343/343/343 346/346/346 340/340/340
f 339/339/339 347/347/347 343/343/343
f 342/342/342 347/347/347 339/339/339
f 338/338/338 348/348/348 342/342/342
f 341/341/341 348/348/348 338/338/338
f 346/346/346 349/349/349 344/344/344
f 344/344/344 349/349/349 350/350/350
f 343/343/343 351/351/351 346/346/346
f 347/347/347 351/351/351 343/343/343
f 342/342/342 352/352/352 347/347/347
f 348/348/348 352/352/352 342/342/342
f 346/346/346 353/353/353 349/349/349
f 351/351/351 353/353/353 346/346/346
f 347/347/347 354/354/354 351/351/351
f 352/352/352 354/354/354 347/347/347
f 353/353/353 355/355/355 349/349/349
f 349/349/349 355/355/355 356/356/356
f 351/351/351 357/357/357 353/353/353
f 354/354/354 357/357/357 351/351/351
f 353/353/353 358/358/358 355/355/355
f 357/357/357 358/358/358 353/353/353
f 358/358/358 359/359/359 355/355/355
f 355/355/355 359/359/359 360/360/360
f 348/348/348 361/361/361 352/352/352
f 352/352/352 362/362/362 354/354/354
f 361/361/361 362/362/362 352/352/352
f 354/354/354 363/363/363 357/357/357
f 362/362/362 363/363/363 354/354/354
f 357/357/357 364/364/364 358/358/358
f 363/363/363 364/364/364 357/357/357
f 358/358/358 365/365/365 359/359/359
f 364/364/364 365/365/365 358/358/358
f 366/366/366 361/361/361 348/348/348
f 341/341/341 366/366/366 348/348/348
f 365/365/365 367/367/367 359/359/359
f 359/359/359 367/367/367 368/368/368
f 369/369/369 366/366/366 341/341/341
f 337/337/337 369/369/369 341/341/341
f 370/370/370 369/369/369 337/337/337
f 333/333/333 370/370/370 337/337/337
f 371/371/371 370/370/370 333/333/333
f 329/329/329 371/371/371 333/333/333
f 372/372/372 371/371/371 329/329/329
f 325/325/325 372/372/372 329/329/329
f 373/373/373 372/372/372 325/325/325
f 319/319/319 373/373/373 325/325/325
f 374/374/374 373/373/373 319/319/319
f 314/314/314 374/374/374 319/319/319
f 318/318/318 374/374/374 314/314/314
f 318/318/318 375/375/375 374/374/374
f 323/323/323 375/375/375 318/318/318
f 374/374/374 376/376/376 373/373/373
f 375/375/375 376/376/376 374/374/374
f 373/373/373 377/377/377 372/372/372
f 376/376/376 377/377/377 373/373/373
f 372/372/372 378/378/378 371/371/371
f 377/377/377 378/378/378 372/372/372
f 371/371/371 379/379/379 370/370/370
f 378/378/378 379/379/379 371/371/371
f 323/323/323 380/380/380 375/375/375
f 380/380/380 323/323/323 381/381/381
f 375/375/375 382/382/382 376/376/376
f 380/380/380 382/382/382 375/375/375
f 376/376/376 383/383/383 377/377/377
f 382/382/382 383/383/383 376/376/376
f 377/377/377 384/384/384 378/378/378
f 383/383/383 384/384/384 377/377/377
f 380/380/380 385/385/385 382/382/382
f 385/385/385 380/380/380 386/386/386
f 382/382/382 387/387/387 383/383/383
f 385/385/385 387/387/387 382/382/382
f 379/379/379 388/388/388 370/370/370
f 370/370/370 388/388/388 369/369/369
f 378/378/378 389/389/389 379/379/379
f 384/384/384 389/389/389 378/378/378
f 383/383/383 390/390/390 384/384/384
f 387/387/387 390/390/390 383/383/383
f 385/385/385 391/391/391 387/387/387
f 391/391/391 385/385/385 392/392/392
f 391/391/391 393/393/393 387/387/387
f 387/387/387 393/393/393 390/390/390
f 390/390/390 394/394/394 384/384/384
f 384/384/384 394/394/394 389/389/389
f 389/389/389 395/395/395 379/379/379
f 379/379/379 395/395/395 388/388/388
f 388/388/388 396/396/396 369/369/369
f 369/369/369 396/396/396 366/366/366
f 391/391/391 397/397/397 393/393/393
f 397/397/397 391/391/391 398/398/398
f 393/393/393 399/399/399 390/390/390
f 390/390/390 399/399/399 394/394/394
f 394/394/394 400/400/400 389/389/389
f 389/389/389 400/400/400 395/395/395
f 395/395/395 401/401/401 388/388/388
f 388/388/388 401/401/401 396/396/396
f 396/396/396 402/402/402 366/366/366
f 366/366/366 402/402/402 361/361/361
f 397/397/397 403/403/403 393/393/393
f 393/393/393 403/403/403 399/399/399
f 399/399/399 404/404/404 394/394/394
f 394/394/394 404/404/404 400/400/400
f 400/400/400 405/405/405 395/395/395
f 395/395/395 405/405/405 401/401/401
f 401/401/401 406/406/406 396/396/396
f 396/396/396 406/406/406 402/402/402
f 402/402/402 407/407/407 361/361/361
f 361/361/361 407/407/407 362/362/362
f 397/397/397 408/408/408 403/403/403
f 408/408/408 397/397/397 409/409/409
f 404/404/404 410/410/410 400/400/400
f 400/400/400 410/410/410 405/405/405
f 405/405/405 411/411/411 401/401/401
f 401/401/401 411/411/411 406/406/406
f 406/406/406 412/412/412 402/402/402
f 402/402/402 412/412/412 407/407/407
f 407/407/407 413/413/413 362/362/362
f 362/362/362 413/413/413 363/363/363
f 410/410/410 414/414/414 405/405/405
f 405/405/405 414/414/414 411/411/411
f 411/411/411 415/415/415 406/406/406
f 406/406/406 415/415/415 412/412/412
f 412/412/412 416/416/416 407/407/407
f 407/407/407 416/416/416 413/413/413
f 413/413/413 417/417/417 363/363/363
f 363/363/363 417/417/417 364/364/364
f 414/414/414 418/418/418 411/411/411
f 411/411/411 418/418/418 415/415/415
f 415/415/415 419/419/419 412/412/412
f 412/412/412 419/419/419 416/416/416
f 416/416/416 420/420/420 413/413/413
f 413/413/413 420/420/420 417/417/417
f 417/417/417 421/421/421 364/364/364
f 364/364/364 421/421/421 365/365/365
f 418/418/418 422/422/422 415/415/415
f 415/415/415 422/422/422 419/419/419
f 419/419/419 423/423/423 416/416/416
f 416/416/416 423/423/423 420/420/420
f 420/420/420 424/424/424 417/417/417
f 417/417/417 424/424/424 421/421/421
f 421/421/421 425/425/425 365/365/365
f 365/365/365 425/425/425 367/367/367
f 422/422/422 426/426/426 419/419/419
f 419/419/419 426/426/426 423/423/423
f 423/423/423 427/427/427 420/420/420
f 420/420/420 427/427/427 424/424/424
f 424/424/424 428/428/428 421/421/421
f 421/421/421 428/428/428 425/425/425
f 425/425/425 429/429/429 367/367/367
f 367/367/367 429/429/429 430/430/430
f 425/425/425 431/431/431 429/429/429
f 428/428/428 431/431/431 425/425/425
f 424/424/424 432/432/432 428/428/428
f 427/427/427 432/432/432 424/424/424
f 423/423/423 433/433/433 427/427/427
f 426/426/426 433/433/433 423/423/423
f 431/431/431 434/434/434 429/429/429
f 429/429/429 434/434/434 435/435/435
f 428/428/428 436/436/436 431/431/431
f 432/432/432 436/436/436 428/428/428
f 427/427/427 437/437/437 432/432/432
f 433/433/433 437/437/437 427/427/427
f 431/431/431 438/438/438 434/434/434
f 436/436/436 438/438/438 431/431/431
f 432/432/432 439/439/439 436/436/436
f 437/437/437 439/439/439 432/432/432
f 438/438/438 440/440/440 434/434/434
f 434/434/434 440/440/440 441/441/441
f 436/436/436 442/442/442 438/438/438
f 439/439/439 442/442/442 436/436/436
f 438/438/438 443/443/443 440/440/440
f 442/442/442 443/443/443 438/438/438
f 443/443/443 444/444/444 440/440/440
f 440/440/440 444/444/444 445/445/445
f 433/433/433 446/446/446 437/437/437
f 437/437/437 447/447/447 439/439/439
f 446/446/446 447/447/447 437/437/437
f 439/439/439 448/448/448 442/442/442
f 447/447/447 448/448/448 439/439/439
f 442/442/442 449/449/449 443/443/443
f 448/448/448 449/449/449 442/442/442
f 443/443/443 450/450/450 444/444/444
f 449/449/449 450/450/450 443/443/443
f 451/451/451 446/446/446 433/433/433
f 426/426/426 451/451/451 433/433/433
f 450/450/450 452/452/452 444/444/444
f 444/444/444 452/452/452 453/453/453
f 454/454/454 451/451/451 426/426/426
f 422/422/422 454/454/454 426/426/426
f 455/455/455 454/454/454 422/422/422
f 418/418/418 455/455/455 422/422/422
f 456/456/456 455/455/455 418/418/418
f 414/414/414 456/456/456 418/418/418
f 457/457/457 456/456/456 414/414/414
f 410/410/410 457/457/457 414/414/414
f 458/458/458 457/457/457 410/410/410
f 404/404/404 458/458/458 410/410/410
f 459/459/459 458/458/458 404/404/404
f 399/399/399 459/459/459 404/404/404
f 403/403/403 459/459/459 399/399/399
f 403/403/403 460/460/460 459/459/459
f 408/408/408 460/460/460 403/403/403
f 459/459/459 461/461/461 458/458/458
f 460/460/460 461/461/461 459/459/459
f 458/458/458 462/462/462 457/457/457
f 461/461/461 462/462/462 458/458/458
f 457/457/457 463/463/463 456/456/456
f 462/462/462 463/463/463 457/457/457
f 456/456/456 464/464/464 455/455/455
f 463/463/463 464/464/464 456/456/456
f 408/408/408 465/465/465 460/460/460
f 465/465/465 408/408/408 466/466/466
f 460/460/460 467/467/467 461/461/461
f 465/465/465 467/467/467 460/460/460
f 461/461/461 468/468/468 462/462/462
f 467/467/467 468/468/468 461/461/461
f 462/462/462 469/469/469 463/463/463
f 468/468/468 469/469/469 462/462/462
f 465/465/465 470/470/470 467/467/467
f 470/470/470 465/465/465 471/471/471
f 467/467/467 472/472/472 468/468/468
f 470/470/470 472/472/472 467/467/467
f 464/464/464 473/473/473 455/455/455
f 455/455/455 473/473/473 454/454/454
f 463/463/463 474/474/474 464/464/464
f 469/469/469 474/474/474 463/463/463
f 468/468/468 475/475/475 469/469/469
f 472/472/472 475/475/475 468/468/468
f 470/470/470 476/476/476 472/472/472
f 476/476/476 470/470/470 477/477/477
f 476/476/476 478/478/478 472/472/472
f 472/472/472 478/478/478 475/475/475
f 475/475/475 479/479/479 469/469/469
f 469/469/469 479/479/479 474/474/474
f 474/474/474 480/480/480 464/464/464
f 464/464/464 480/480/480 473/473/473
f 473/473/473 481/481/481 454/454/454
f 454/454/454 481/481/481 451/451/451
f 476/476/476 482/482/482 478/478/478
f 482/482/482 476/476/476 483/483/483
f 478/478/478 484/484/484 475/475/475
f 475/475/475 484/484/484 479/479/479
f 479/479/479 485/485/485 474/474/474
f 474/474/474 485/485/485 480/480/480
f 480/480/480 486/486/486 473/473/473
f 473/473/473 486/486/486 481/481/481
f 481/481/481 487/487/487 451/451/451
f 451/451/451 487/487/487 446/446/446
f 482/482/482 488/488/488 478/478/478
f 478/478/478 488/488/488 484/484/484
f 484/484/484 489/489/489 479/479/479
f 479/479/479 489/489/489 485/485/485
f 485/485/485 490/490/490 480/480/480
f 480/480/480 490/490/490 486/486/486
f 486/486/486 491/491/491 481/481/481
f 481/481/481 491/491/491 487/487/487
f 487/487/487 492/492/492 446/446/446
f 446/446/446 492/492/492 447/447/447
f 482/482/482 493/493/493 488/488/488
f 493/493/493 482/482/482 494/494/494
f 493/493/493 495/495/495 488/488/488
f 488/488/488 495/495/495 496/496/496
f 488/488/488 496/496/496 484/484/484
f 495/495/495 497/497/497 496/496/496
f 484/484/484 496/496/496 489/489/489
f 496/496/496 497/497/497 498/498/498
f 496/496/496 498/498/498 489/489/489
f 497/497/497 499/499/499 498/498/498
f 489/489/489 498/498/498 500/500/500
f 489/489/489 500/500/500 485/485/485
f 485/485/485 500/500/500 490/490/490
f 498/498/498 499/499/499 501/501/501
f 498/498/498 501/501/501 500/500/500
f 499/499/499 502/502/502 501/501/501
f 500/500/500 503/503/503 490/490/490
f 500/500/500 501/501/501 503/503/503
f 501/501/501 502/502/502 504/504/504
f 501/501/501 504/504/504 503/503/503
f 502/502/502 505/505/505 504/504/504
f 490/490/490 503/503/503 506/506/506
f 490/490/490 506/506/506 486/486/486
f 486/486/486 506/506/506 491/491/491
f 503/503/503 504/504/504 507/507/507
f 503/503/503 507/507/507 506/506/506
f 504/504/504 505/505/505 508/508/508
f 504/504/504 508/508/508 507/507/507
f 505/505/505 509/509/509 508/508/508
f 506/506/506 510/510/510 491/491/491
f 506/506/506 507/507/507 510/510/510
f 507/507/507 508/508/508 511/511/511
f 507/507/507 511/511/511 510/510/510
f 508/508/508 509/509/509 512/512/512
f 508/508/508 512/512/512 511/511/511
f 509/509/509 513/513/513 512/512/512
f 491/491/491 510/510/510 514/514/514
f 491/491/491 514/514/514 487/487/487
f 487/487/487 514/514/514 492/492/492
f 510/510/510 511/511/511 515/515/515
f 510/510/510 515/515/515 514/514/514
f 511/511/511 512/512/512 516/516/516
f 511/511/511 516/516/516 515/515/515
f 512/512/512 513/513/513 517/517/517
f 512/512/512 517/517/517 516/516/516
f 513/513/513 518/518/518 517/517/517
f 514/514/514 519/519/519 492/492/492
f 514/514/514 515/515/515 519/519/519
f 515/515/515 516/516/516 520/520/520
f 515/515/515 520/520/520 519/519/519
f 516/516/516 517/517/517 521/521/521
f 516/516/516 521/521/521 520/520/520
f 517/517/517 518/518/518 522/522/522
f 517/517/517 522/522/522 521/521/521
f 518/518/518 523/523/523 522/522/522
f 492/492/492 519/519/519 524/524/524
f 492/492/492 524/524/524 447/447/447
f 447/447/447 524/524/524 448/448/448
f 519/519/519 520/520/520 525/525/525
f 519/519/519 525/525/525 524/524/524
f 524/524/524 526/526/526 448/448/448
f 524/524/524 525/525/525 526/526/526
f 448/448/448 526/526/526 449/449/449
f 520/520/520 521/521/521 527/527/527
f 520/520/520 527/527/527 525/525/525
f 521/521/521 522/522/522 528/528/528
f 521/521/521 528/528/528 527/527/527
f 522/522/522 523/523/523 529/529/529
f 522/522/522 529/529/529 528/528/528
f 523/523/523 530/530/530 529/529/529
f 526/526/526 531/531/531 449/449/449
f 449/449/449 531/531/531 450/450/450
f 525/525/525 532/532/532 526/526/526
f 525/525/525 527/527/527 532/532/532
f 526/526/526 532/532/532 531/531/531
f 527/527/527 528/528/528 533/533/533
f 527/527/527 533/533/533 532/532/532
f 528/528/528 529/529/529 534/534/534
f 528/528/528 534/534/534 533/533/533
f 529/529/529 530/530/530 535/535/535
f 529/529/529 535/535/535 534/534/534
f 530/530/530 536/536/536 535/535/535
f 531/531/531 537/537/537 450/450/450
f 450/450/450 537/537/537 452/452/452
f 532/532/532 538/538/538 531/531/531
f 532/532/532 533/533/533 538/538/538
f 531/531/531 538/538/538 537/537/537
f 533/533/533 534/534/534 539/539/539
f 533/533/533 539/539/539 538/538/538
f 534/534/534 535/535/535 540/540/540
f 534/534/534 540/540/540 539/539/539
f 535/535/535 536/536/536 541/541/541
f 535/535/535 541/541/541 540/540/540
f 536/536/536 542/542/542 541/541/541
f 537/537/537 543/543/543 452/452/452
f 452/452/452 543/543/543 544/544/544
f 538/538/538 545/545/545 537/537/537
f 538/538/538 539/539/539 545/545/545
f 537/537/537 545/545/545 543/543/543
f 539/539/539 540/540/540 546/546/546
f 539/539/539 546/546/546 545/545/545
f 545/545/545 547/547/547 543/543/543
f 545/545/545 546/546/546 547/547/547
f 543/543/543 547/547/547 548/548/548
f 540/540/540 541/541/541 549/549/549
f 540/540/540 549/549/549 546/546/546
f 541/541/541 542/542/542 550/550/550
f 541/541/541 550/550/550 549/549/549
f 542/542/542 551/551/551 550/550/550
f 546/546/546 552/552/552 547/547/547
f 546/546/546 549/549/549 552/552/552
f 547/547/547 552/552/552 553/553/553
f 549/549/549 554/554/554 552/552/552
f 549/549/549 550/550/550 554/554/554
f 552/552/552 554/554/554 555/555/555
f 550/550/550 551/551/551 556/556/556
f 550/550/550 556/556/556 554/554/554
f 554/554/554 556/556/556 557/557/557
f 551/551/551 558/558/558 556/556/556
f 556/556/556 558/558/558 559/559/559
