g Plane
v -0.0185480919 -0.321431816 2.35854158E-09
v 0.000901501393 -0.27335465 1.84958682E-09
v 0.000901489286 -0.303383112 1.84958682E-09
v -0.0167607144 -0.288231105 2.22370633E-09
v -0.0379976854 -0.336251259 2.86760926E-09
v 0.000901489286 -0.243326128 1.84958726E-09
v -0.0344228931 -0.301472783 2.59788369E-09
v -0.0574472696 -0.348891526 3.3767511E-09
v -0.0149733163 -0.255523831 2.08885464E-09
v 0.000901489286 -0.213297635 1.84958648E-09
v -0.0520850942 -0.313690841 2.97209701E-09
v -0.0768968761 -0.360402673 3.88593291E-09
v -0.0697473064 -0.325496256 3.34632255E-09
v -0.0131859258 -0.22324127 1.9539883E-09
v 0.000901489286 -0.183269158 1.84958648E-09
v -0.0308481101 -0.267061472 2.32814634E-09
v -0.0467229187 -0.278290868 2.56744914E-09
v -0.0625977367 -0.289563507 2.80674795E-09
v -0.0113985408 -0.191315785 1.81910886E-09
v 0.000901489286 -0.153240681 1.84958648E-09
v -0.0272733495 -0.233050019 2.0583939E-09
v -0.0413607545 -0.242927343 2.16279861E-09
v -0.055448167 -0.253076434 2.26719199E-09
v -0.00961115584 -0.159681559 1.68421932E-09
v 0.000901501393 -0.123212174 1.84958648E-09
v -0.0236985534 -0.199449837 1.78862825E-09
v -0.0359985791 -0.207791239 1.75814052E-09
v -0.0482986048 -0.216459677 1.72764048E-09
v -0.00782375969 -0.128275812 1.54932256E-09
v 0.000901501393 -0.0931837037 1.84958648E-09
v -0.0201237779 -0.166250736 1.51884894E-09
v -0.0306364018 -0.173020065 1.35347111E-09
v -0.0411490314 -0.180061251 1.18808352E-09
v -0.00603636215 -0.097039476 1.41441969E-09
v 0.000901489286 -0.0631552041 1.84958648E-09
v -0.0165489838 -0.133421734 1.24905597E-09
v -0.0252742264 -0.138692632 9.48785051E-10
v -0.0339994654 -0.144130856 6.48508192E-10
v -0.00424897764 -0.0659187213 1.27951294E-09
v 0.000901489286 -0.0331267342 1.84958648E-09
v -0.0129741961 -0.100912653 9.7925279E-10
v -0.0199120473 -0.104826547 5.44084056E-10
v -0.0268499013 -0.108804502 1.08912608E-10
v -0.00246157451 -0.0348660164 1.14460352E-09
v 0.000901489286 -0.00309826038 1.84958682E-09
v -0.000674195762 -0.00384150492 1.00969311E-09
v -0.00939943176 -0.0686564669 7.09439674E-10
v -0.0145498989 -0.0713789985 1.39367531E-10
v -0.019700354 -0.0740970522 -4.30704611E-10
v -0.00582465064 -0.0365725979 4.39621478E-10
v -0.00224987464 -0.00457147462 1.69800243E-10
v -0.0091877142 -0.0382498205 -2.65359484E-10
v -0.0125507843 -0.0399009809 -9.70339475E-10
v -0.00382553553 -0.00528846122 -6.70092093E-10
v -0.00540120853 -0.00599292386 -1.50998414E-09
vt 0.75 0
vt 1 0.100000001
vt 1 0
vt 0.75 0.100000001
vt 0.5 0
vt 1 0.200000003
vt 0.49999997 0.099999994
vt 0.25 0
vt 0.75 0.200000003
vt 1 0.300000012
vt 0.249999985 0.099999994
vt 0 0
vt 0 0.100000001
vt 0.75 0.300000012
vt 1 0.400000036
vt 0.49999997 0.199999988
vt 0.249999985 0.199999988
vt 0 0.200000003
vt 0.75 0.400000006
vt 1 0.5
vt 0.49999997 0.300000012
vt 0.249999985 0.300000012
vt 0 0.300000012
vt 0.75 0.5
vt 1 0.600000024
vt 0.49999997 0.399999976
vt 0.249999985 0.399999976
vt 0 0.400000006
vt 0.75 0.600000024
vt 1 0.700000048
vt 0.49999997 0.5
vt 0.249999985 0.5
vt 0 0.5
vt 0.75 0.700000048
vt 1 0.800000012
vt 0.49999997 0.600000024
vt 0.249999985 0.600000024
vt 0 0.600000024
vt 0.75 0.800000012
vt 1 0.899999976
vt 0.49999997 0.699999988
vt 0.249999985 0.699999988
vt 0 0.699999988
vt 0.75 0.899999976
vt 1 1
vt 0.75 1
vt 0.49999997 0.799999952
vt 0.249999985 0.799999952
vt 0 0.800000012
vt 0.49999997 0.899999976
vt 0.49999997 1
vt 0.249999985 0.899999976
vt 0 0.899999976
vt 0.249999985 1
vt 0 1
vn -5.87114585E-07 0.999901056 0.0140716396
vn -5.96046448E-05 9.53674316E-05 1
vn -1.1920929E-05 9.53674316E-05 1
vn -0 0.999854565 0.0170571059
vn -0 0.999970198 0.00772761554
vn -1.19209308E-05 0 1
vn -5.37927178E-07 0.99995935 0.00902492087
vn -2.66137079E-07 0.999984503 0.00558129884
vn -0 0.999784172 0.0207765102
vn -1.1920929E-05 0 1
vn -2.99982815E-07 0.999980211 0.0062910961
vn -0 0.999990106 0.0044545657
vn -0 0.999988198 0.00486662332
vn -3.03265978E-07 0.999676347 0.0254397951
vn -1.1920929E-05 0 1
vn -7.6376773E-07 0.999943018 0.0106782475
vn -4.32057732E-07 0.999973774 0.00724872574
vn -0 0.99998498 0.00548145548
vn 2.80342022E-07 0.999508262 0.0313557237
vn -1.1920929E-05 4.76837158E-05 1
vn -0 0.999917984 0.0128095206
vn -3.05404996E-07 0.999963522 0.00853974279
vn -3.03325692E-07 0.999979854 0.00636120047
vn 1.39570864E-06 0.999238133 0.0390268378
vn -5.96046448E-05 -4.76837158E-05 1
vn -7.43838655E-07 0.999878287 0.0155994259
vn -3.68159931E-07 0.999947071 0.0102944989
vn -2.72038136E-07 0.999971151 0.00760673732
vn 7.35662809E-07 0.998780549 0.0493694954
vn -5.96046448E-05 -2.38418579E-05 1
vn -0 0.999813139 0.0193339568
vn -6.06539118E-07 0.999919176 0.0127200475
vn -5.59239481E-07 0.999956012 0.00938248169
vn -3.83142122E-07 0.997931957 0.0642805845
vn -1.1920929E-05 -9.53674316E-05 1
vn -1.31487911E-06 0.999699593 0.0245111194
vn -7.71076259E-07 0.999869227 0.0161706433
vn -7.13453062E-07 0.999928355 0.0119697545
vn 1.84325177E-06 0.996088982 0.0883560851
vn -1.2293458E-05 -7.15255737E-05 1
vn -2.29735633E-06 0.999484062 0.0321193673
vn -1.398515E-06 0.999772489 0.0213301703
vn -7.58269266E-07 0.999873519 0.0159020573
vn -3.23997665E-06 0.990723312 0.135894477
vn -1.2293458E-05 -3.57627869E-05 1
vn 7.42654038E-06 0.959771812 0.280781269
vn 2.65286644E-07 0.999009013 0.0445077084
vn 1.0652268E-06 0.999556243 0.0297859013
vn 5.3380603E-07 0.999749362 0.0223894492
vn 8.22890343E-07 0.997614622 0.0690290481
vn 6.08430946E-06 0.989310384 0.145825386
vn -0 0.998919964 0.0464652218
vn 5.23595531E-07 0.999382496 0.0351378955
vn -1.46831485E-06 0.99513334 0.0985369384
vn -1.77897482E-06 0.99721235 0.0746156052
g Plane_0
f 3/3/3 2/2/2 1/1/1
f 2/2/2 4/4/4 1/1/1
f 1/1/1 4/4/4 5/5/5
f 2/2/2 6/6/6 4/4/4
f 4/4/4 7/7/7 5/5/5
f 5/5/5 7/7/7 8/8/8
f 6/6/6 9/9/9 4/4/4
f 4/4/4 9/9/9 7/7/7
f 6/6/6 10/10/10 9/9/9
f 7/7/7 11/11/11 8/8/8
f 8/8/8 11/11/11 12/12/12
f 11/11/11 13/13/13 12/12/12
f 10/10/10 14/14/14 9/9/9
f 10/10/10 15/15/15 14/14/14
f 9/9/9 16/16/16 7/7/7
f 7/7/7 16/16/16 11/11/11
f 9/9/9 14/14/14 16/16/16
f 11/11/11 17/17/17 13/13/13
f 16/16/16 17/17/17 11/11/11
f 17/17/17 18/18/18 13/13/13
f 15/15/15 19/19/19 14/14/14
f 15/15/15 20/20/20 19/19/19
f 14/14/14 21/21/21 16/16/16
f 16/16/16 21/21/21 17/17/17
f 14/14/14 19/19/19 21/21/21
f 17/17/17 22/22/22 18/18/18
f 21/21/21 22/22/22 17/17/17
f 22/22/22 23/23/23 18/18/18
f 20/20/20 24/24/24 19/19/19
f 20/20/20 25/25/25 24/24/24
f 19/19/19 26/26/26 21/21/21
f 21/21/21 26/26/26 22/22/22
f 19/19/19 24/24/24 26/26/26
f 22/22/22 27/27/27 23/23/23
f 26/26/26 27/27/27 22/22/22
f 27/27/27 28/28/28 23/23/23
f 25/25/25 29/29/29 24/24/24
f 25/25/25 30/30/30 29/29/29
f 24/24/24 31/31/31 26/26/26
f 26/26/26 31/31/31 27/27/27
f 24/24/24 29/29/29 31/31/31
f 27/27/27 32/32/32 28/28/28
f 31/31/31 32/32/32 27/27/27
f 32/32/32 33/33/33 28/28/28
f 30/30/30 34/34/34 29/29/29
f 30/30/30 35/35/35 34/34/34
f 29/29/29 36/36/36 31/31/31
f 31/31/31 36/36/36 32/32/32
f 29/29/29 34/34/34 36/36/36
f 32/32/32 37/37/37 33/33/33
f 36/36/36 37/37/37 32/32/32
f 37/37/37 38/38/38 33/33/33
f 35/35/35 39/39/39 34/34/34
f 35/35/35 40/40/40 39/39/39
f 34/34/34 41/41/41 36/36/36
f 36/36/36 41/41/41 37/37/37
f 34/34/34 39/39/39 41/41/41
f 37/37/37 42/42/42 38/38/38
f 41/41/41 42/42/42 37/37/37
f 42/42/42 43/43/43 38/38/38
f 40/40/40 44/44/44 39/39/39
f 40/40/40 45/45/45 44/44/44
f 45/45/45 46/46/46 44/44/44
f 39/39/39 47/47/47 41/41/41
f 41/41/41 47/47/47 42/42/42
f 39/39/39 44/44/44 47/47/47
f 42/42/42 48/48/48 43/43/43
f 47/47/47 48/48/48 42/42/42
f 48/48/48 49/49/49 43/43/43
f 44/44/44 46/46/46 50/50/50
f 44/44/44 50/50/50 47/47/47
f 47/47/47 50/50/50 48/48/48
f 46/46/46 51/51/51 50/50/50
f 48/48/48 52/52/52 49/49/49
f 50/50/50 52/52/52 48/48/48
f 50/50/50 51/51/51 52/52/52
f 52/52/52 53/53/53 49/49/49
f 51/51/51 54/54/54 52/52/52
f 52/52/52 54/54/54 53/53/53
f 54/54/54 55/55/55 53/53/53
