g Plane001
v 0.902264655 -0.2320977 0
v 0.812038243 -0.219008237 0
v 0.902264893 -0.223255828 0
v 0.8120386 -0.207185149 0
v 0.721811771 -0.209047079 0
v 0.902264655 -0.214413941 0
v 0.721812129 -0.194457799 0
v 0.6315853 -0.202199966 0
v 0.812038243 -0.195359126 0
v 0.902264476 -0.205572069 0
v 0.63158536 -0.185035646 0
v 0.541358888 -0.198452681 0
v 0.72181195 -0.179857358 0
v 0.812038243 -0.183530018 0
v 0.902264893 -0.196730182 0
v 0.541359007 -0.178880513 0
v 0.451132536 -0.197790936 0
v 0.631585181 -0.167847469 0
v 0.721811771 -0.165245146 0
v 0.8120386 -0.171697661 0
v 0.902264476 -0.187888309 0
v 0.451132715 -0.175954267 0
v 0.360905886 -0.200200498 0
v 0.541358888 -0.159268364 0
v 0.6315853 -0.150634214 0
v 0.72181201 -0.150620624 0
v 0.812038004 -0.159861982 0
v 0.902264655 -0.179046422 0
v 0.360905975 -0.176218778 0
v 0.270679295 -0.205667093 0
v 0.451132536 -0.154058784 0
v 0.541358829 -0.139613897 0
v 0.6315853 -0.133394524 0
v 0.721811652 -0.135983258 0
v 0.812038422 -0.148022756 0
v 0.902264655 -0.170204535 0
v 0.270679504 -0.179635882 0
v 0.180452943 -0.214176506 0
v 0.360905975 -0.152157649 0
v 0.451132536 -0.13210088 0
v 0.541359007 -0.119914867 0
v 0.631585002 -0.116127253 0
v 0.721811771 -0.121332407 0
v 0.8120386 -0.136179894 0
v 0.902264655 -0.161362648 0
v 0.180453032 -0.186167419 0
v 0.0902264714 -0.22571446 0
v 0.270679295 -0.153503761 0
v 0.360905886 -0.128011912 0
v 0.451132625 -0.110076986 0
v 0.541358829 -0.100169033 0
v 0.6315853 -0.0988309458 0
v 0.721811771 -0.106667541 0
v 0.0902264714 -0.195775226 0
v -9.68933094E-08 -0.240266696 0
v 0.180452943 -0.158035934 0
v 0.270679295 -0.12726368 0
v 0.360906154 -0.103776425 0
v 0.451132327 -0.0879835784 0
v 0.541358888 -0.080373995 0
v 9.68933094E-08 -0.208421186 0
v -0.0902265683 -0.257818937 0
v 0.0902263746 -0.165693015 0
v 0.180452943 -0.129772872 0
v 0.270679504 -0.100908607 0
v 0.360905886 -0.0794461221 0
v -0.0902264193 -0.224067137 0
v -0.180452943 -0.278356999 0
v -0 -0.176413894 0
v 0.0902263746 -0.13545616 0
v 0.180452943 -0.101368979 0
v -0.180452883 -0.242674932 0
v -0.270679563 -0.301866591 0
v -0.0902265683 -0.190137312 0
v -9.68933094E-08 -0.144230321 0
v -0.270679444 -0.264206409 0
v -0.360905886 -0.328333467 0
v -0.180453032 -0.206802204 0
v -0.360905886 -0.288623452 0
v -0.451132476 -0.357743323 0
v 0.270679295 -0.0744315982 0
v 0.0902264714 -0.105052948 0
v -0.090226613 -0.156011999 0
v -0.270679504 -0.226347327 0
v -0.451132447 -0.315887868 0
v -0.541358888 -0.390081972 0
v 0.180452839 -0.0728152022 0
v 9.68933094E-08 -0.111856081 0
v -0.180452943 -0.170717895 0
v -0.360905886 -0.248711556 0
v -0.541358829 -0.345961481 0
v -0.63158536 -0.425335169 0
v 0.0902262777 -0.0744718611 0
v -0.0902264193 -0.121673703 0
v -0.270679563 -0.188264802 0
v -0.451132476 -0.273833752 0
v -0.63158536 -0.378806233 0
v -0.721811831 -0.463488579 0
v -9.68933094E-08 -0.0792767033 0
v -0.180452839 -0.134401247 0
v -0.360905915 -0.208569273 0
v -0.541358888 -0.30165267 0
v -0.721811831 -0.414383918 0
v -0.812038302 -0.504528046 0
v -0.0902266651 -0.0871048793 0
v -0.270679504 -0.149934277 0
v -0.451132536 -0.231548175 0
v -0.63158536 -0.332107186 0
v -0.812038302 -0.452656388 0
v -0.902264774 -0.548439205 0
v -0.902264774 -0.493585467 0
v -0.721811831 -0.365136176 0
v -0.812038302 -0.400678456 0
v -0.902264774 -0.438672841 0
v -0.541358888 -0.257118076 0
v -0.360905826 -0.168168142 0
v -0.63158536 -0.285195738 0
v -0.812038362 -0.348541141 0
v -0.902264774 -0.383642256 0
v -0.721811831 -0.315697819 0
v -0.451132447 -0.188998386 0
v -0.812038302 -0.296191424 0
v -0.902264774 -0.328434974 0
v -0.541358829 -0.212320343 0
v -0.721811831 -0.266021401 0
v -0.63158536 -0.238029554 0
v -0.812038362 -0.243576139 0
v -0.902264774 -0.272991866 0
v -0.721811891 -0.216059312 0
v -0.631585479 -0.190566316 0
v -0.541358888 -0.167222083 0
v -0.451132536 -0.146151558 0
v -0.812038302 -0.190642312 0
v -0.902264774 -0.217254177 0
v -0.721811831 -0.165764049 0
v -0.63158536 -0.142763734 0
v -0.541358888 -0.121785857 0
v -0.812038302 -0.137336776 0
v -0.902264774 -0.161162823 0
v -0.721811831 -0.115087934 0
v -0.63158536 -0.094579421 0
v -0.812038302 -0.0836065263 0
v -0.902264774 -0.104658969 0
v -0.721811831 -0.0639836416 0
v -0.812038302 -0.0293983743 0
v -0.902264774 -0.0476836674 0
v -0.451132476 -0.102974892 0
v -0.541358888 -0.0759742409 0
v -0.63158536 -0.0459711291 0
v -0.721811831 -0.0124034332 0
v -0.812038362 0.0253406279 0
v -0.902264774 0.0098220259 0
v -0.451132536 -0.0594354719 0
v -0.541358888 -0.0297498554 0
v -0.63158536 0.00310349278 0
v -0.721811891 0.0396999978 0
v -0.812038302 0.0806635842 0
v -0.902264774 0.0679170489 0
v -0.451132476 -0.0155006526 0
v -0.541358829 0.0169247426 0
v -0.63158536 0.0526867062 0
v -0.721811831 0.0923744962 0
v -0.812038302 0.136623755 0
v -0.902264774 0.126660362 0
v -0.451132476 0.0288624819 0
v -0.541358888 0.0640869513 0
v -0.63158536 0.102820948 0
v -0.721811831 0.145667344 0
v -0.812038302 0.193273932 0
v -0.902264774 0.186110854 0
v -0.451132536 0.0736867338 0
v -0.541358888 0.111774065 0
v -0.63158536 0.153548494 0
v -0.721811831 0.199626252 0
v -0.812038302 0.250667274 0
v -0.902264774 0.246327475 0
v -0.451132536 0.119004823 0
v -0.541358829 0.16002363 0
v -0.63158536 0.204911545 0
v -0.721811831 0.254298598 0
v -0.812038302 0.308857143 0
v -0.902264774 0.307369143 0
v -0.451132476 0.164849788 0
v -0.541358888 0.208873123 0
v -0.63158536 0.256952643 0
v -0.721811831 0.309732139 0
v -0.812038302 0.36789608 0
v -0.902264774 0.369294763 0
v -0.451132476 0.211254179 0
v -0.541358888 0.25835973 0
v -0.63158536 0.30971393 0
v -0.721811831 0.365974188 0
v -0.812038302 0.42783764 0
v -0.902264774 0.432163358 0
v -0.451132536 0.258251011 0
v -0.541358888 0.308521003 0
v -0.63158536 0.36323759 0
v -0.721811831 0.423072428 0
v -0.812038302 0.488734782 0
v -0.902264774 0.496033758 0
v -0.451132476 0.305872858 0
v -0.541358888 0.359394372 0
v -0.63158536 0.41756618 0
v -0.721811831 0.481074423 0
v -0.812038302 0.550640523 0
v -0.902264655 0.560965061 0
v -0.812038243 0.613607883 0
v -0.902264655 0.627016008 0
v -0.721811771 0.59997946 0
v -0.721811831 0.540027499 0
v -0.63158536 0.585804641 0
v -0.63158536 0.528807223 0
v -0.541358888 0.570756316 0
v -0.63158536 0.47274217 0
v -0.541358888 0.51666069 0
v -0.451132476 0.554508209 0
v -0.541358888 0.463426739 0
v -0.451132536 0.50326848 0
v -0.360905886 0.536733985 0
v -0.541358888 0.411017239 0
v -0.360905886 0.488311559 0
v -0.270679563 0.517106295 0
v -0.451132536 0.4528175 0
v -0.451132536 0.403123438 0
v -0.270679504 0.471470356 0
v -0.180452943 0.495299518 0
v -0.360905886 0.44060421 0
v -0.451132536 0.354152769 0
v -0.180452943 0.452426553 0
v -0.090226613 0.470986366 0
v -0.360905886 0.393583685 0
v -0.270679593 0.426474929 0
v -0.360905915 0.347221404 0
v -0.0902265683 0.430860221 0
v -9.68933094E-08 0.443840742 0
v -0.270679593 0.382095605 0
v -0.180452988 0.410119742 0
v -0.360905886 0.301488876 0
v -1.93786619E-07 0.406452805 0
v 0.0902264714 0.413535714 0
v -0.0902265683 0.391227067 0
v -0.270679504 0.338308007 0
v -0.180452883 0.368358314 0
v -0.360905886 0.256357431 0
v 0.0902264714 0.378884971 0
v 0.180452943 0.379744917 0
v -1.93786619E-07 0.36948663 0
v -0.090226613 0.352069318 0
v -0.270679504 0.295087397 0
v -0.180452988 0.327121526 0
v -0.360905915 0.211798623 0
v 0.180452943 0.347837448 0
v 0.270679295 0.342141628 0
v 0.0902264714 0.344587237 0
v -9.68933094E-08 0.332927555 0
v -0.090226613 0.313369662 0
v -0.270679563 0.252409279 0
v -0.180452943 0.286388367 0
v -0.360905886 0.167783916 0
v -0.270679563 0.210249111 0
v -0.180452988 0.246138096 0
v -0.0902265683 0.275110424 0
v -1.93786619E-07 0.296761036 0
v -0.360905915 0.124284729 0
v -0.270679563 0.16858232 0
v -0.180453032 0.206349686 0
v -0.090226613 0.2372742 0
v -0.360905975 0.0812727511 0
v -0.270679504 0.12738435 0
v -0.180452988 0.167002425 0
v -0.360905915 0.0387192443 0
v -0.270679593 0.0866307542 0
v -0.360905915 -0.00340417679 0
v -9.68933094E-08 0.260973096 0
v -0.0902264714 0.199843392 0
v -0.180452988 0.128075302 0
v -0.270679444 0.0462970026 0
v -0.360905915 -0.0451261438 0
v -9.68933094E-08 0.225548804 0
v -0.0902264193 0.162800699 0
v -0.180453077 0.0895475596 0
v -0.270679563 0.00635842979 0
v -0.360905826 -0.0864750966 0
v -9.68933094E-08 0.190474004 0
v -0.090226613 0.12612842 0
v -0.180452883 0.051398363 0
v -0.270679563 -0.0332094319 0
v -0.360905975 -0.127479568 0
v -0.270679563 -0.072431162 0
v -0.270679504 -0.111331269 0
v -0.180452943 0.0136067029 0
v -0.0902266651 0.089809075 0
v -0.180452943 -0.0238482058 0
v -0.180452988 -0.0978313312 0
v -0.180452988 -0.06098729 0
v -0.0902265683 0.0538254194 0
v -0.090226613 -0.0522880852 0
v -0.0902265683 -0.0172057562 0
v -0.0902266651 0.0181595497 0
v -9.68933094E-08 -0.0464778058 0
v -1.93786619E-07 -0.0134449396 0
v -9.68933094E-08 0.0198363382 0
v -0 0.0533804372 0
v -9.68933094E-08 0.0872018486 0
v 0.0902263746 -0.0437010154 0
v 0.0902264714 -0.0127288736 0
v 0.0902263746 0.018456189 0
v 0.0902264714 0.0498658977 0
v 0.180452943 -0.0441021286 0
v 0.180452943 -0.0152207278 0
v 0.180452839 0.0138382055 0
v 0.270679414 -0.047825519 0
v 0.270679414 -0.0210834276 0
v 0.360905975 -0.0550157055 0
v 0.0902263746 0.0815118849 0
v 0.180452943 0.0430839993 0
v 0.270679295 0.00580172893 0
v 0.360905975 -0.0304800924 0
v 0.451132536 -0.0658170059 0
v 0.451132536 -0.0435737446 0
v 0.360905886 -0.00583418831 0
v 0.270679504 0.0328370705 0
v 0.541358888 -0.0605275556 0
v 0.451132536 -0.0212502535 0
v 0.360906154 0.0189273078 0
v 0.6315853 -0.0815044269 0
v 0.541358888 -0.0406274609 0
v 0.451132715 0.00115709985 0
v 0.6315853 -0.0641464442 0
v 0.721811771 -0.0919880942 0
v 0.541359127 -0.0206713397 0
v 0.63158536 -0.0467556007 0
v 0.812038243 -0.124333225 0
v 0.902264893 -0.152520761 0
v 0.812038422 -0.11248263 0
v 0.902264476 -0.143678904 0
v 0.72181195 -0.0772934631 0
v 0.812038243 -0.100628003 0
v 0.902264655 -0.134837016 0
v 0.721811652 -0.0625831708 0
v 0.812038243 -0.088769123 0
v 0.902264655 -0.125995114 0
v 0.631585062 -0.0293307435 0
v 0.721811652 -0.0478565507 0
v 0.812038422 -0.0769058689 0
v 0.902264655 -0.11715325 0
v 0.541358709 -0.000657033524 0
v 0.631585181 -0.0118705202 0
v 0.72181195 -0.0331130698 0
v 0.812038422 -0.0650381297 0
v 0.902264655 -0.108311377 0
v 0.451132327 0.0236518029 0
v 0.541358829 0.0194178317 0
v 0.6315853 0.00562635204 0
v 0.721811771 -0.0183522217 0
v 0.812038243 -0.053165745 0
v 0.902264655 -0.0994694978 0
v 0.360905766 0.0438093171 0
v 0.451132536 0.0462375358 0
v 0.541358888 0.0395555049 0
v 0.6315853 0.0231611338 0
v 0.721811771 -0.00357330404 0
v 0.812038243 -0.0412885882 0
v 0.902264655 -0.0906276032 0
v 0.270679206 0.0600293763 0
v 0.360905886 0.0688172132 0
v 0.451132536 0.0689177886 0
v 0.541358888 0.0597582944 0
v 0.6315853 0.0407350622 0
v 0.721811771 0.0112241209 0
v 0.812038243 -0.0294065382 0
v 0.902264655 -0.081785731 0
v 0.180452839 0.0725256577 0
v 0.812038243 -0.0175193511 0
v 0.902264655 -0.0729438514 0
v 0.721811652 0.0260406584 0
v 0.6315853 0.0583495125 0
v 0.270679414 0.0873859674 0
v 0.180453032 0.102172591 0
v 0.812038243 -0.00562700629 0
v 0.902264655 -0.0641019493 0
v 0.721811652 0.0408769622 0
v 0.360905886 0.0939561129 0
v 0.812038243 0.00627069268 0
v 0.902264655 -0.0552600697 0
v 0.812038243 0.0181738902 0
v 0.721811771 0.05573342 0
v 0.721811652 0.070610784 0
v 0.721811771 0.0855095536 0
v 0.631585062 0.0760056078 0
v 0.631585181 0.0937048197 0
v 0.6315853 0.129237428 0
v 0.6315853 0.147073358 0
v 0.631585062 0.11144831 0
v 0.541358888 0.182469606 0
v 0.541358888 0.203191832 0
v 0.541358888 0.161828369 0
v 0.541358888 0.141265959 0
v 0.541358888 0.120779954 0
v 0.541359007 0.100368291 0
v 0.451132536 0.230626687 0
v 0.451132536 0.254191786 0
v 0.451132536 0.207184613 0
v 0.451132536 0.183862105 0
v 0.451132447 0.160655618 0
v 0.360905975 0.274027526 0
v 0.360905886 0.300399452 0
v 0.360905886 0.247827679 0
v 0.360905886 0.221795008 0
v 0.270679414 0.312991321 0
v 0.270679295 0.284068644 0
v 0.180452943 0.316218168 0
v 0.270679295 0.255366206 0
v 0.360905886 0.195924059 0
v 0.0902264714 0.310630828 0
v 0.180452839 0.284877598 0
v 0.0902264714 0.277003884 0
v 0.270679414 0.226877108 0
v 0.180452839 0.253806531 0
v 0.0902264714 0.243695125 0
v 0.180452943 0.222995907 0
v 0.0902264714 0.210692495 0
v 0.270679414 0.198594347 0
v 0.180452943 0.192436337 0
v 0.0902264714 0.17798461 0
v 0.360905886 0.170209929 0
v 0.270679414 0.170510888 0
v 0.451132536 0.137561485 0
v 0.360905975 0.144647256 0
v 0.180452943 0.162118658 0
v -0 0.155734167 0
v 0.451132536 0.114576221 0
v 0.270679295 0.142619655 0
v 0.0902266651 0.145559698 0
v -9.68933094E-08 0.12131495 0
v 0.0902263746 0.113405943 0
v 0.180453032 0.13203387 0
v 0.270679504 0.114913791 0
v 0.360905975 0.119231023 0
v 0.451132447 0.091696173 0
v 0.541358888 0.0800284445 0
vt 1 0
vt 0.950195312 0
vt 1 0.049987793
vt 0.950195312 0.049987793
vt 0.899902344 0
vt 1 0.0999755859
vt 0.899902344 0.049987793
vt 0.850097656 0
vt 0.950195312 0.0999755859
vt 1 0.150024414
vt 0.850097656 0.049987793
vt 0.799804688 0
vt 0.899902344 0.0999755859
vt 0.950195312 0.150024414
vt 1 0.199951172
vt 0.799804688 0.049987793
vt 0.75 0
vt 0.850097656 0.0999755859
vt 0.899902344 0.150024414
vt 0.950195312 0.199951172
vt 1 0.25
vt 0.75 0.049987793
vt 0.700195312 0
vt 0.799804688 0.0999755859
vt 0.850097656 0.150024414
vt 0.899902344 0.199951172
vt 0.950195312 0.25
vt 1 0.300048828
vt 0.700195312 0.049987793
vt 0.649902344 0
vt 0.75 0.0999755859
vt 0.799804688 0.150024414
vt 0.850097656 0.199951172
vt 0.899902344 0.25
vt 0.950195312 0.300048828
vt 1 0.350097656
vt 0.649902344 0.049987793
vt 0.600097656 0
vt 0.700195312 0.0999755859
vt 0.75 0.150024414
vt 0.799804688 0.199951172
vt 0.850097656 0.25
vt 0.899902344 0.300048828
vt 0.950195312 0.350097656
vt 1 0.399902344
vt 0.600097656 0.049987793
vt 0.549804688 0
vt 0.649902344 0.0999755859
vt 0.700195312 0.150024414
vt 0.75 0.199951172
vt 0.799804688 0.25
vt 0.850097656 0.300048828
vt 0.899902344 0.350097656
vt 0.549804688 0.049987793
vt 0.5 0
vt 0.600097656 0.0999755859
vt 0.649902344 0.150024414
vt 0.700195312 0.199951172
vt 0.75 0.25
vt 0.799804688 0.300048828
vt 0.5 0.049987793
vt 0.449951172 0
vt 0.549804688 0.0999755859
vt 0.600097656 0.150024414
vt 0.649902344 0.199951172
vt 0.700195312 0.25
vt 0.449951172 0.049987793
vt 0.399902344 0
vt 0.5 0.0999755859
vt 0.549804688 0.150024414
vt 0.600097656 0.199951172
vt 0.399902344 0.049987793
vt 0.350097656 0
vt 0.449951172 0.0999755859
vt 0.5 0.150024414
vt 0.350097656 0.049987793
vt 0.300048828 0
vt 0.399902344 0.0999755859
vt 0.300048828 0.049987793
vt 0.25 0
vt 0.649902344 0.25
vt 0.549804688 0.199951172
vt 0.449951172 0.150024414
vt 0.350097656 0.0999755859
vt 0.25 0.049987793
vt 0.199951172 0
vt 0.600097656 0.25
vt 0.5 0.199951172
vt 0.399902344 0.150024414
vt 0.300048828 0.0999755859
vt 0.199951172 0.049987793
vt 0.150024414 0
vt 0.549804688 0.25
vt 0.449951172 0.199951172
vt 0.350097656 0.150024414
vt 0.25 0.0999755859
vt 0.150024414 0.049987793
vt 0.0999755859 0
vt 0.5 0.25
vt 0.399902344 0.199951172
vt 0.300048828 0.150024414
vt 0.199951172 0.0999755859
vt 0.0999755859 0.049987793
vt 0.049987793 0
vt 0.449951172 0.25
vt 0.350097656 0.199951172
vt 0.25 0.150024414
vt 0.150024414 0.0999755859
vt 0.049987793 0.049987793
vt 0 0
vt 0 0.049987793
vt 0.0999755859 0.0999755859
vt 0.049987793 0.0999755859
vt 0 0.0999755859
vt 0.199951172 0.150024414
vt 0.300048828 0.199951172
vt 0.150024414 0.150024414
vt 0.049987793 0.150024414
vt 0 0.150024414
vt 0.0999755859 0.150024414
vt 0.25 0.199951172
vt 0.049987793 0.199951172
vt 0 0.199951172
vt 0.199951172 0.199951172
vt 0.0999755859 0.199951172
vt 0.150024414 0.199951172
vt 0.049987793 0.25
vt 0 0.25
vt 0.0999755859 0.25
vt 0.150024414 0.25
vt 0.199951172 0.25
vt 0.25 0.25
vt 0.049987793 0.300048828
vt 0 0.300048828
vt 0.0999755859 0.300048828
vt 0.150024414 0.300048828
vt 0.199951172 0.300048828
vt 0.049987793 0.350097656
vt 0 0.350097656
vt 0.0999755859 0.350097656
vt 0.150024414 0.350097656
vt 0.049987793 0.399902344
vt 0 0.399902344
vt 0.0999755859 0.399902344
vt 0.049987793 0.449951172
vt 0 0.449951172
vt 0.25 0.300048828
vt 0.199951172 0.350097656
vt 0.150024414 0.399902344
vt 0.0999755859 0.449951172
vt 0.049987793 0.5
vt 0 0.5
vt 0.25 0.350097656
vt 0.199951172 0.399902344
vt 0.150024414 0.449951172
vt 0.0999755859 0.5
vt 0.049987793 0.549804688
vt 0 0.549804688
vt 0.25 0.399902344
vt 0.199951172 0.449951172
vt 0.150024414 0.5
vt 0.0999755859 0.549804688
vt 0.049987793 0.600097656
vt 0 0.600097656
vt 0.25 0.449951172
vt 0.199951172 0.5
vt 0.150024414 0.549804688
vt 0.0999755859 0.600097656
vt 0.049987793 0.649902344
vt 0 0.649902344
vt 0.25 0.5
vt 0.199951172 0.549804688
vt 0.150024414 0.600097656
vt 0.0999755859 0.649902344
vt 0.049987793 0.700195312
vt 0 0.700195312
vt 0.25 0.549804688
vt 0.199951172 0.600097656
vt 0.150024414 0.649902344
vt 0.0999755859 0.700195312
vt 0.049987793 0.75
vt 0 0.75
vt 0.25 0.600097656
vt 0.199951172 0.649902344
vt 0.150024414 0.700195312
vt 0.0999755859 0.75
vt 0.049987793 0.799804688
vt 0 0.799804688
vt 0.25 0.649902344
vt 0.199951172 0.700195312
vt 0.150024414 0.75
vt 0.0999755859 0.799804688
vt 0.049987793 0.850097656
vt 0 0.850097656
vt 0.25 0.700195312
vt 0.199951172 0.75
vt 0.150024414 0.799804688
vt 0.0999755859 0.850097656
vt 0.049987793 0.899902344
vt 0 0.899902344
vt 0.25 0.75
vt 0.199951172 0.799804688
vt 0.150024414 0.850097656
vt 0.0999755859 0.899902344
vt 0.049987793 0.950195312
vt 0 0.950195312
vt 0.049987793 1
vt 0 1
vt 0.0999755859 1
vt 0.0999755859 0.950195312
vt 0.150024414 1
vt 0.150024414 0.950195312
vt 0.199951172 1
vt 0.150024414 0.899902344
vt 0.199951172 0.950195312
vt 0.25 1
vt 0.199951172 0.899902344
vt 0.25 0.950195312
vt 0.300048828 1
vt 0.199951172 0.850097656
vt 0.300048828 0.950195312
vt 0.350097656 1
vt 0.25 0.899902344
vt 0.25 0.850097656
vt 0.350097656 0.950195312
vt 0.399902344 1
vt 0.300048828 0.899902344
vt 0.25 0.799804688
vt 0.399902344 0.950195312
vt 0.449951172 1
vt 0.300048828 0.850097656
vt 0.350097656 0.899902344
vt 0.300048828 0.799804688
vt 0.449951172 0.950195312
vt 0.5 1
vt 0.350097656 0.850097656
vt 0.399902344 0.899902344
vt 0.300048828 0.75
vt 0.5 0.950195312
vt 0.549804688 1
vt 0.449951172 0.899902344
vt 0.350097656 0.799804688
vt 0.399902344 0.850097656
vt 0.300048828 0.700195312
vt 0.549804688 0.950195312
vt 0.600097656 1
vt 0.5 0.899902344
vt 0.449951172 0.850097656
vt 0.350097656 0.75
vt 0.399902344 0.799804688
vt 0.300048828 0.649902344
vt 0.600097656 0.950195312
vt 0.649902344 1
vt 0.549804688 0.899902344
vt 0.5 0.850097656
vt 0.449951172 0.799804688
vt 0.350097656 0.700195312
vt 0.399902344 0.75
vt 0.300048828 0.600097656
vt 0.350097656 0.649902344
vt 0.399902344 0.700195312
vt 0.449951172 0.75
vt 0.5 0.799804688
vt 0.300048828 0.549804688
vt 0.350097656 0.600097656
vt 0.399902344 0.649902344
vt 0.449951172 0.700195312
vt 0.300048828 0.5
vt 0.350097656 0.549804688
vt 0.399902344 0.600097656
vt 0.300048828 0.449951172
vt 0.350097656 0.5
vt 0.300048828 0.399902344
vt 0.5 0.75
vt 0.449951172 0.649902344
vt 0.399902344 0.549804688
vt 0.350097656 0.449951172
vt 0.300048828 0.350097656
vt 0.5 0.700195312
vt 0.449951172 0.600097656
vt 0.399902344 0.5
vt 0.350097656 0.399902344
vt 0.300048828 0.300048828
vt 0.5 0.649902344
vt 0.449951172 0.549804688
vt 0.399902344 0.449951172
vt 0.350097656 0.350097656
vt 0.300048828 0.25
vt 0.350097656 0.300048828
vt 0.350097656 0.25
vt 0.399902344 0.399902344
vt 0.449951172 0.5
vt 0.399902344 0.350097656
vt 0.399902344 0.25
vt 0.399902344 0.300048828
vt 0.449951172 0.449951172
vt 0.449951172 0.300048828
vt 0.449951172 0.350097656
vt 0.449951172 0.399902344
vt 0.5 0.300048828
vt 0.5 0.350097656
vt 0.5 0.399902344
vt 0.5 0.449951172
vt 0.5 0.5
vt 0.549804688 0.300048828
vt 0.549804688 0.350097656
vt 0.549804688 0.399902344
vt 0.549804688 0.449951172
vt 0.600097656 0.300048828
vt 0.600097656 0.350097656
vt 0.600097656 0.399902344
vt 0.649902344 0.300048828
vt 0.649902344 0.350097656
vt 0.700195312 0.300048828
vt 0.549804688 0.5
vt 0.600097656 0.449951172
vt 0.649902344 0.399902344
vt 0.700195312 0.350097656
vt 0.75 0.300048828
vt 0.75 0.350097656
vt 0.700195312 0.399902344
vt 0.649902344 0.449951172
vt 0.799804688 0.350097656
vt 0.75 0.399902344
vt 0.700195312 0.449951172
vt 0.850097656 0.350097656
vt 0.799804688 0.399902344
vt 0.75 0.449951172
vt 0.850097656 0.399902344
vt 0.899902344 0.399902344
vt 0.799804688 0.449951172
vt 0.850097656 0.449951172
vt 0.950195312 0.399902344
vt 1 0.449951172
vt 0.950195312 0.449951172
vt 1 0.5
vt 0.899902344 0.449951172
vt 0.950195312 0.5
vt 1 0.549804688
vt 0.899902344 0.5
vt 0.950195312 0.549804688
vt 1 0.600097656
vt 0.850097656 0.5
vt 0.899902344 0.549804688
vt 0.950195312 0.600097656
vt 1 0.649902344
vt 0.799804688 0.5
vt 0.850097656 0.549804688
vt 0.899902344 0.600097656
vt 0.950195312 0.649902344
vt 1 0.700195312
vt 0.75 0.5
vt 0.799804688 0.549804688
vt 0.850097656 0.600097656
vt 0.899902344 0.649902344
vt 0.950195312 0.700195312
vt 1 0.75
vt 0.700195312 0.5
vt 0.75 0.549804688
vt 0.799804688 0.600097656
vt 0.850097656 0.649902344
vt 0.899902344 0.700195312
vt 0.950195312 0.75
vt 1 0.799804688
vt 0.649902344 0.5
vt 0.700195312 0.549804688
vt 0.75 0.600097656
vt 0.799804688 0.649902344
vt 0.850097656 0.700195312
vt 0.899902344 0.75
vt 0.950195312 0.799804688
vt 1 0.850097656
vt 0.600097656 0.5
vt 0.950195312 0.850097656
vt 1 0.899902344
vt 0.899902344 0.799804688
vt 0.850097656 0.75
vt 0.649902344 0.549804688
vt 0.600097656 0.549804688
vt 0.950195312 0.899902344
vt 1 0.950195312
vt 0.899902344 0.850097656
vt 0.700195312 0.600097656
vt 0.950195312 0.950195312
vt 1 1
vt 0.950195312 1
vt 0.899902344 0.899902344
vt 0.899902344 0.950195312
vt 0.899902344 1
vt 0.850097656 0.799804688
vt 0.850097656 0.850097656
vt 0.850097656 0.950195312
vt 0.850097656 1
vt 0.850097656 0.899902344
vt 0.799804688 0.950195312
vt 0.799804688 1
vt 0.799804688 0.899902344
vt 0.799804688 0.850097656
vt 0.799804688 0.799804688
vt 0.799804688 0.75
vt 0.75 0.950195312
vt 0.75 1
vt 0.75 0.899902344
vt 0.75 0.850097656
vt 0.75 0.799804688
vt 0.700195312 0.950195312
vt 0.700195312 1
vt 0.700195312 0.899902344
vt 0.700195312 0.850097656
vt 0.649902344 0.950195312
vt 0.649902344 0.899902344
vt 0.600097656 0.899902344
vt 0.649902344 0.850097656
vt 0.700195312 0.799804688
vt 0.549804688 0.850097656
vt 0.600097656 0.850097656
vt 0.549804688 0.799804688
vt 0.649902344 0.799804688
vt 0.600097656 0.799804688
vt 0.549804688 0.75
vt 0.600097656 0.75
vt 0.549804688 0.700195312
vt 0.649902344 0.75
vt 0.600097656 0.700195312
vt 0.549804688 0.649902344
vt 0.700195312 0.75
vt 0.649902344 0.700195312
vt 0.75 0.75
vt 0.700195312 0.700195312
vt 0.600097656 0.649902344
vt 0.5 0.600097656
vt 0.75 0.700195312
vt 0.649902344 0.649902344
vt 0.549804688 0.600097656
vt 0.5 0.549804688
vt 0.549804688 0.549804688
vt 0.600097656 0.600097656
vt 0.649902344 0.600097656
vt 0.700195312 0.649902344
vt 0.75 0.649902344
vt 0.799804688 0.700195312
vn -0 0 1
vn -0 0 1
vn -0 0 1
vn -0 0 1
vn -0 0 1
vn -0 0 1
vn -0 0 1
vn -0 0 1
vn -0 0 1
vn -0 0 1
vn -0 0 1
vn -0 0 1
vn -0 0 1
vn -0 0 1
vn -0 0 1
vn -0 0 1
vn -0 0 1
vn -0 0 1
vn -0 0 1
vn -0 0 1
vn -0 0 1
vn -0 0 1
vn -0 0 1
vn -0 0 1
vn -0 0 1
vn -0 0 1
vn -0 0 1
vn -0 0 1
vn -0 0 1
vn -0 0 1
vn -0 0 1
vn -0 0 1
vn -0 0 1
vn -0 0 1
vn -0 0 1
vn -0 0 1
vn -0 0 1
vn -0 0 1
vn -0 0 1
vn -0 0 1
vn -0 0 1
vn -0 0 1
vn -0 0 1
vn -0 0 1
vn -0 0 1
vn -0 0 1
vn -0 0 1
vn -0 0 1
vn -0 0 1
vn -0 0 1
vn -0 0 1
vn -0 0 1
vn -0 0 1
vn -0 0 1
vn -0 0 1
vn -0 0 1
vn -0 0 1
vn -0 0 1
vn -0 0 1
vn -0 0 1
vn -0 0 1
vn -0 0 1
vn -0 0 1
vn -0 0 1
vn -0 0 1
vn -0 0 1
vn -0 0 1
vn -0 0 1
vn -0 0 1
vn -0 0 1
vn -0 0 1
vn -0 0 1
vn -0 0 1
vn -0 0 1
vn -0 0 1
vn -0 0 1
vn -0 0 1
vn -0 0 1
vn -0 0 1
vn -0 0 1
vn -0 0 1
vn -0 0 1
vn -0 0 1
vn -0 0 1
vn -0 0 1
vn -0 0 1
vn -0 0 1
vn -0 0 1
vn -0 0 1
vn -0 0 1
vn -0 0 1
vn -0 0 1
vn -0 0 1
vn -0 0 1
vn -0 0 1
vn -0 0 1
vn -0 0 1
vn -0 0 1
vn -0 0 1
vn -0 0 1
vn -0 0 1
vn -0 0 1
vn -0 0 1
vn -0 0 1
vn -0 0 1
vn -0 0 1
vn -0 0 1
vn -0 0 1
vn -0 0 1
vn -0 0 1
vn -0 0 1
vn -0 0 1
vn -0 0 1
vn -0 0 1
vn -0 0 1
vn -0 0 1
vn -0 0 1
vn -0 0 1
vn -0 0 1
vn -0 0 1
vn -0 0 1
vn -0 0 1
vn -0 0 1
vn -0 0 1
vn -0 0 1
vn -0 0 1
vn -0 0 1
vn -0 0 1
vn -0 0 1
vn -0 0 1
vn -0 0 1
vn -0 0 1
vn -0 0 1
vn -0 0 1
vn -0 0 1
vn -0 0 1
vn -0 0 1
vn -0 0 1
vn -0 0 1
vn -0 0 1
vn -0 0 1
vn -0 0 1
vn -0 0 1
vn -0 0 1
vn -0 0 1
vn -0 0 1
vn -0 0 1
vn -0 0 1
vn -0 0 1
vn -0 0 1
vn -0 0 1
vn -0 0 1
vn -0 0 1
vn -0 0 1
vn -0 0 1
vn -0 0 1
vn -0 0 1
vn -0 0 1
vn -0 0 1
vn -0 0 1
vn -0 0 1
vn -0 0 1
vn -0 0 1
vn -0 0 1
vn -0 0 1
vn -0 0 1
vn -0 0 1
vn -0 0 1
vn -0 0 1
vn -0 0 1
vn -0 0 1
vn -0 0 1
vn -0 0 1
vn -0 0 1
vn -0 0 1
vn -0 0 1
vn -0 0 1
vn -0 0 1
vn -0 0 1
vn -0 0 1
vn -0 0 1
vn -0 0 1
vn -0 0 1
vn -0 0 1
vn -0 0 1
vn -0 0 1
vn -0 0 1
vn -0 0 1
vn -0 0 1
vn -0 0 1
vn -0 0 1
vn -0 0 1
vn -0 0 1
vn -0 0 1
vn -0 0 1
vn -0 0 1
vn -0 0 1
vn -0 0 1
vn -0 0 1
vn -0 0 1
vn -0 0 1
vn -0 0 1
vn -0 0 1
vn -0 0 1
vn -0 0 1
vn -0 0 1
vn -0 0 1
vn -0 0 1
vn -0 0 1
vn -0 0 1
vn -0 0 1
vn -0 0 1
vn -0 0 1
vn -0 0 1
vn -0 0 1
vn -0 0 1
vn -0 0 1
vn -0 0 1
vn -0 0 1
vn -0 0 1
vn -0 0 1
vn -0 0 1
vn -0 0 1
vn -0 0 1
vn -0 0 1
vn -0 0 1
vn -0 0 1
vn -0 0 1
vn -0 0 1
vn -0 0 1
vn -0 0 1
vn -0 0 1
vn -0 0 1
vn -0 0 1
vn -0 0 1
vn -0 0 1
vn -0 0 1
vn -0 0 1
vn -0 0 1
vn -0 0 1
vn -0 0 1
vn -0 0 1
vn -0 0 1
vn -0 0 1
vn -0 0 1
vn -0 0 1
vn -0 0 1
vn -0 0 1
vn -0 0 1
vn -0 0 1
vn -0 0 1
vn -0 0 1
vn -0 0 1
vn -0 0 1
vn -0 0 1
vn -0 0 1
vn -0 0 1
vn -0 0 1
vn -0 0 1
vn -0 0 1
vn -0 0 1
vn -0 0 1
vn -0 0 1
vn -0 0 1
vn -0 0 1
vn -0 0 1
vn -0 0 1
vn -0 0 1
vn -0 0 1
vn -0 0 1
vn -0 0 1
vn -0 0 1
vn -0 0 1
vn -0 0 1
vn -0 0 1
vn -0 0 1
vn -0 0 1
vn -0 0 1
vn -0 0 1
vn -0 0 1
vn -0 0 1
vn -0 0 1
vn -0 0 1
vn -0 0 1
vn -0 0 1
vn -0 0 1
vn -0 0 1
vn -0 0 1
vn -0 0 1
vn -0 0 1
vn -0 0 1
vn -0 0 1
vn -0 0 1
vn -0 0 1
vn -0 0 1
vn -0 0 1
vn -0 0 1
vn -0 0 1
vn -0 0 1
vn -0 0 1
vn -0 0 1
vn -0 0 1
vn -0 0 1
vn -0 0 1
vn -0 0 1
vn -0 0 1
vn -0 0 1
vn -0 0 1
vn -0 0 1
vn -0 0 1
vn -0 0 1
vn -0 0 1
vn -0 0 1
vn -0 0 1
vn -0 0 1
vn -0 0 1
vn -0 0 1
vn -0 0 1
vn -0 0 1
vn -0 0 1
vn -0 0 1
vn -0 0 1
vn -0 0 1
vn -0 0 1
vn -0 0 1
vn -0 0 1
vn -0 0 1
vn -0 0 1
vn -0 0 1
vn -0 0 1
vn -0 0 1
vn -0 0 1
vn -0 0 1
vn -0 0 1
vn -0 0 1
vn -0 0 1
vn -0 0 1
vn -0 0 1
vn -0 0 1
vn -0 0 1
vn -0 0 1
vn -0 0 1
vn -0 0 1
vn -0 0 1
vn -0 0 1
vn -0 0 1
vn -0 0 1
vn -0 0 1
vn -0 0 1
vn -0 0 1
vn -0 0 1
vn -0 0 1
vn -0 0 1
vn -0 0 1
vn -0 0 1
vn -0 0 1
vn -0 0 1
vn -0 0 1
vn -0 0 1
vn -0 0 1
vn -0 0 1
vn -0 0 1
vn -0 0 1
vn -0 0 1
vn -0 0 1
vn -0 0 1
vn -0 0 1
vn -0 0 1
vn -0 0 1
vn -0 0 1
vn -0 0 1
vn -0 0 1
vn -0 0 1
vn -0 0 1
vn -0 0 1
vn -0 0 1
vn -0 0 1
vn -0 0 1
vn -0 0 1
vn -0 0 1
vn -0 0 1
vn -0 0 1
vn -0 0 1
vn -0 0 1
vn -0 0 1
vn -0 0 1
vn -0 0 1
vn -0 0 1
vn -0 0 1
vn -0 0 1
vn -0 0 1
vn -0 0 1
vn -0 0 1
vn -0 0 1
vn -0 0 1
vn -0 0 1
vn -0 0 1
vn -0 0 1
vn -0 0 1
vn -0 0 1
vn -0 0 1
vn -0 0 1
vn -0 0 1
vn -0 0 1
vn -0 0 1
vn -0 0 1
vn -0 0 1
vn -0 0 1
vn -0 0 1
vn -0 0 1
vn -0 0 1
vn -0 0 1
vn -0 0 1
vn -0 0 1
vn -0 0 1
vn -0 0 1
vn -0 0 1
vn -0 0 1
vn -0 0 1
vn -0 0 1
vn -0 0 1
vn -0 0 1
vn -0 0 1
vn -0 0 1
vn -0 0 1
vn -0 0 1
vn -0 0 1
vn -0 0 1
vn -0 0 1
vn -0 0 1
vn -0 0 1
vn -0 0 1
vn -0 0 1
vn -0 0 1
vn -0 0 1
vn -0 0 1
vn -0 0 1
vn -0 0 1
vn -0 0 1
vn -0 0 1
vn -0 0 1
g Plane001_0
f 3/3/3 2/2/2 1/1/1
f 2/2/2 3/3/3 4/4/4
f 4/4/4 5/5/5 2/2/2
f 6/6/6 4/4/4 3/3/3
f 5/5/5 4/4/4 7/7/7
f 7/7/7 8/8/8 5/5/5
f 4/4/4 6/6/6 9/9/9
f 9/9/9 7/7/7 4/4/4
f 10/10/10 9/9/9 6/6/6
f 8/8/8 7/7/7 11/11/11
f 11/11/11 12/12/12 8/8/8
f 7/7/7 9/9/9 13/13/13
f 13/13/13 11/11/11 7/7/7
f 9/9/9 10/10/10 14/14/14
f 14/14/14 13/13/13 9/9/9
f 15/15/15 14/14/14 10/10/10
f 12/12/12 11/11/11 16/16/16
f 16/16/16 17/17/17 12/12/12
f 11/11/11 13/13/13 18/18/18
f 18/18/18 16/16/16 11/11/11
f 13/13/13 14/14/14 19/19/19
f 19/19/19 18/18/18 13/13/13
f 14/14/14 15/15/15 20/20/20
f 20/20/20 19/19/19 14/14/14
f 21/21/21 20/20/20 15/15/15
f 17/17/17 16/16/16 22/22/22
f 22/22/22 23/23/23 17/17/17
f 16/16/16 18/18/18 24/24/24
f 24/24/24 22/22/22 16/16/16
f 18/18/18 19/19/19 25/25/25
f 25/25/25 24/24/24 18/18/18
f 19/19/19 20/20/20 26/26/26
f 26/26/26 25/25/25 19/19/19
f 20/20/20 21/21/21 27/27/27
f 27/27/27 26/26/26 20/20/20
f 28/28/28 27/27/27 21/21/21
f 23/23/23 22/22/22 29/29/29
f 29/29/29 30/30/30 23/23/23
f 22/22/22 24/24/24 31/31/31
f 31/31/31 29/29/29 22/22/22
f 24/24/24 25/25/25 32/32/32
f 32/32/32 31/31/31 24/24/24
f 25/25/25 26/26/26 33/33/33
f 33/33/33 32/32/32 25/25/25
f 26/26/26 27/27/27 34/34/34
f 34/34/34 33/33/33 26/26/26
f 27/27/27 28/28/28 35/35/35
f 35/35/35 34/34/34 27/27/27
f 36/36/36 35/35/35 28/28/28
f 30/30/30 29/29/29 37/37/37
f 37/37/37 38/38/38 30/30/30
f 29/29/29 31/31/31 39/39/39
f 39/39/39 37/37/37 29/29/29
f 31/31/31 32/32/32 40/40/40
f 40/40/40 39/39/39 31/31/31
f 32/32/32 33/33/33 41/41/41
f 41/41/41 40/40/40 32/32/32
f 33/33/33 34/34/34 42/42/42
f 42/42/42 41/41/41 33/33/33
f 34/34/34 35/35/35 43/43/43
f 43/43/43 42/42/42 34/34/34
f 35/35/35 36/36/36 44/44/44
f 44/44/44 43/43/43 35/35/35
f 45/45/45 44/44/44 36/36/36
f 38/38/38 37/37/37 46/46/46
f 46/46/46 47/47/47 38/38/38
f 37/37/37 39/39/39 48/48/48
f 48/48/48 46/46/46 37/37/37
f 39/39/39 40/40/40 49/49/49
f 49/49/49 48/48/48 39/39/39
f 40/40/40 41/41/41 50/50/50
f 50/50/50 49/49/49 40/40/40
f 41/41/41 42/42/42 51/51/51
f 51/51/51 50/50/50 41/41/41
f 42/42/42 43/43/43 52/52/52
f 52/52/52 51/51/51 42/42/42
f 43/43/43 44/44/44 53/53/53
f 53/53/53 52/52/52 43/43/43
f 47/47/47 46/46/46 54/54/54
f 54/54/54 55/55/55 47/47/47
f 46/46/46 48/48/48 56/56/56
f 56/56/56 54/54/54 46/46/46
f 48/48/48 49/49/49 57/57/57
f 57/57/57 56/56/56 48/48/48
f 49/49/49 50/50/50 58/58/58
f 58/58/58 57/57/57 49/49/49
f 50/50/50 51/51/51 59/59/59
f 59/59/59 58/58/58 50/50/50
f 51/51/51 52/52/52 60/60/60
f 60/60/60 59/59/59 51/51/51
f 55/55/55 54/54/54 61/61/61
f 61/61/61 62/62/62 55/55/55
f 54/54/54 56/56/56 63/63/63
f 63/63/63 61/61/61 54/54/54
f 56/56/56 57/57/57 64/64/64
f 64/64/64 63/63/63 56/56/56
f 57/57/57 58/58/58 65/65/65
f 65/65/65 64/64/64 57/57/57
f 58/58/58 59/59/59 66/66/66
f 66/66/66 65/65/65 58/58/58
f 62/62/62 61/61/61 67/67/67
f 67/67/67 68/68/68 62/62/62
f 61/61/61 63/63/63 69/69/69
f 69/69/69 67/67/67 61/61/61
f 63/63/63 64/64/64 70/70/70
f 70/70/70 69/69/69 63/63/63
f 64/64/64 65/65/65 71/71/71
f 71/71/71 70/70/70 64/64/64
f 68/68/68 67/67/67 72/72/72
f 72/72/72 73/73/73 68/68/68
f 67/67/67 69/69/69 74/74/74
f 74/74/74 72/72/72 67/67/67
f 69/69/69 70/70/70 75/75/75
f 75/75/75 74/74/74 69/69/69
f 73/73/73 72/72/72 76/76/76
f 76/76/76 77/77/77 73/73/73
f 72/72/72 74/74/74 78/78/78
f 78/78/78 76/76/76 72/72/72
f 77/77/77 76/76/76 79/79/79
f 79/79/79 80/80/80 77/77/77
f 81/81/81 71/71/71 65/65/65
f 65/65/65 66/66/66 81/81/81
f 70/70/70 71/71/71 82/82/82
f 82/82/82 75/75/75 70/70/70
f 74/74/74 75/75/75 83/83/83
f 83/83/83 78/78/78 74/74/74
f 76/76/76 78/78/78 84/84/84
f 84/84/84 79/79/79 76/76/76
f 80/80/80 79/79/79 85/85/85
f 85/85/85 86/86/86 80/80/80
f 71/71/71 81/81/81 87/87/87
f 87/87/87 82/82/82 71/71/71
f 75/75/75 82/82/82 88/88/88
f 88/88/88 83/83/83 75/75/75
f 78/78/78 83/83/83 89/89/89
f 89/89/89 84/84/84 78/78/78
f 79/79/79 84/84/84 90/90/90
f 90/90/90 85/85/85 79/79/79
f 86/86/86 85/85/85 91/91/91
f 91/91/91 92/92/92 86/86/86
f 82/82/82 87/87/87 93/93/93
f 93/93/93 88/88/88 82/82/82
f 83/83/83 88/88/88 94/94/94
f 94/94/94 89/89/89 83/83/83
f 84/84/84 89/89/89 95/95/95
f 95/95/95 90/90/90 84/84/84
f 85/85/85 90/90/90 96/96/96
f 96/96/96 91/91/91 85/85/85
f 92/92/92 91/91/91 97/97/97
f 97/97/97 98/98/98 92/92/92
f 88/88/88 93/93/93 99/99/99
f 99/99/99 94/94/94 88/88/88
f 89/89/89 94/94/94 100/100/100
f 100/100/100 95/95/95 89/89/89
f 90/90/90 95/95/95 101/101/101
f 101/101/101 96/96/96 90/90/90
f 91/91/91 96/96/96 102/102/102
f 102/102/102 97/97/97 91/91/91
f 98/98/98 97/97/97 103/103/103
f 103/103/103 104/104/104 98/98/98
f 94/94/94 99/99/99 105/105/105
f 105/105/105 100/100/100 94/94/94
f 95/95/95 100/100/100 106/106/106
f 106/106/106 101/101/101 95/95/95
f 96/96/96 101/101/101 107/107/107
f 107/107/107 102/102/102 96/96/96
f 97/97/97 102/102/102 108/108/108
f 108/108/108 103/103/103 97/97/97
f 104/104/104 103/103/103 109/109/109
f 109/109/109 110/110/110 104/104/104
f 110/110/110 109/109/109 111/111/111
f 112/112/112 109/109/109 103/103/103
f 103/103/103 108/108/108 112/112/112
f 113/113/113 111/111/111 109/109/109
f 109/109/109 112/112/112 113/113/113
f 111/111/111 113/113/113 114/114/114
f 115/115/115 108/108/108 102/102/102
f 102/102/102 107/107/107 115/115/115
f 116/116/116 107/107/107 101/101/101
f 101/101/101 106/106/106 116/116/116
f 117/117/117 112/112/112 108/108/108
f 108/108/108 115/115/115 117/117/117
f 118/118/118 114/114/114 113/113/113
f 114/114/114 118/118/118 119/119/119
f 120/120/120 113/113/113 112/112/112
f 112/112/112 117/117/117 120/120/120
f 113/113/113 120/120/120 118/118/118
f 121/121/121 115/115/115 107/107/107
f 107/107/107 116/116/116 121/121/121
f 122/122/122 119/119/119 118/118/118
f 119/119/119 122/122/122 123/123/123
f 124/124/124 117/117/117 115/115/115
f 115/115/115 121/121/121 124/124/124
f 125/125/125 118/118/118 120/120/120
f 118/118/118 125/125/125 122/122/122
f 126/126/126 120/120/120 117/117/117
f 117/117/117 124/124/124 126/126/126
f 120/120/120 126/126/126 125/125/125
f 127/127/127 123/123/123 122/122/122
f 123/123/123 127/127/127 128/128/128
f 129/129/129 122/122/122 125/125/125
f 122/122/122 129/129/129 127/127/127
f 130/130/130 125/125/125 126/126/126
f 125/125/125 130/130/130 129/129/129
f 131/131/131 126/126/126 124/124/124
f 126/126/126 131/131/131 130/130/130
f 132/132/132 124/124/124 121/121/121
f 124/124/124 132/132/132 131/131/131
f 133/133/133 128/128/128 127/127/127
f 128/128/128 133/133/133 134/134/134
f 135/135/135 127/127/127 129/129/129
f 127/127/127 135/135/135 133/133/133
f 136/136/136 129/129/129 130/130/130
f 129/129/129 136/136/136 135/135/135
f 137/137/137 130/130/130 131/131/131
f 130/130/130 137/137/137 136/136/136
f 138/138/138 134/134/134 133/133/133
f 134/134/134 138/138/138 139/139/139
f 140/140/140 133/133/133 135/135/135
f 133/133/133 140/140/140 138/138/138
f 141/141/141 135/135/135 136/136/136
f 135/135/135 141/141/141 140/140/140
f 142/142/142 139/139/139 138/138/138
f 139/139/139 142/142/142 143/143/143
f 144/144/144 138/138/138 140/140/140
f 138/138/138 144/144/144 142/142/142
f 145/145/145 143/143/143 142/142/142
f 143/143/143 145/145/145 146/146/146
f 131/131/131 147/147/147 137/137/137
f 147/147/147 131/131/131 132/132/132
f 148/148/148 136/136/136 137/137/137
f 136/136/136 148/148/148 141/141/141
f 149/149/149 140/140/140 141/141/141
f 140/140/140 149/149/149 144/144/144
f 150/150/150 142/142/142 144/144/144
f 142/142/142 150/150/150 145/145/145
f 151/151/151 146/146/146 145/145/145
f 146/146/146 151/151/151 152/152/152
f 153/153/153 137/137/137 147/147/147
f 137/137/137 153/153/153 148/148/148
f 154/154/154 141/141/141 148/148/148
f 141/141/141 154/154/154 149/149/149
f 155/155/155 144/144/144 149/149/149
f 144/144/144 155/155/155 150/150/150
f 156/156/156 145/145/145 150/150/150
f 145/145/145 156/156/156 151/151/151
f 157/157/157 152/152/152 151/151/151
f 152/152/152 157/157/157 158/158/158
f 159/159/159 148/148/148 153/153/153
f 148/148/148 159/159/159 154/154/154
f 160/160/160 149/149/149 154/154/154
f 149/149/149 160/160/160 155/155/155
f 161/161/161 150/150/150 155/155/155
f 150/150/150 161/161/161 156/156/156
f 162/162/162 151/151/151 156/156/156
f 151/151/151 162/162/162 157/157/157
f 163/163/163 158/158/158 157/157/157
f 158/158/158 163/163/163 164/164/164
f 165/165/165 154/154/154 159/159/159
f 154/154/154 165/165/165 160/160/160
f 166/166/166 155/155/155 160/160/160
f 155/155/155 166/166/166 161/161/161
f 167/167/167 156/156/156 161/161/161
f 156/156/156 167/167/167 162/162/162
f 168/168/168 157/157/157 162/162/162
f 157/157/157 168/168/168 163/163/163
f 169/169/169 164/164/164 163/163/163
f 164/164/164 169/169/169 170/170/170
f 171/171/171 160/160/160 165/165/165
f 160/160/160 171/171/171 166/166/166
f 172/172/172 161/161/161 166/166/166
f 161/161/161 172/172/172 167/167/167
f 173/173/173 162/162/162 167/167/167
f 162/162/162 173/173/173 168/168/168
f 174/174/174 163/163/163 168/168/168
f 163/163/163 174/174/174 169/169/169
f 175/175/175 170/170/170 169/169/169
f 170/170/170 175/175/175 176/176/176
f 177/177/177 166/166/166 171/171/171
f 166/166/166 177/177/177 172/172/172
f 178/178/178 167/167/167 172/172/172
f 167/167/167 178/178/178 173/173/173
f 179/179/179 168/168/168 173/173/173
f 168/168/168 179/179/179 174/174/174
f 180/180/180 169/169/169 174/174/174
f 169/169/169 180/180/180 175/175/175
f 181/181/181 176/176/176 175/175/175
f 176/176/176 181/181/181 182/182/182
f 183/183/183 172/172/172 177/177/177
f 172/172/172 183/183/183 178/178/178
f 184/184/184 173/173/173 178/178/178
f 173/173/173 184/184/184 179/179/179
f 185/185/185 174/174/174 179/179/179
f 174/174/174 185/185/185 180/180/180
f 186/186/186 175/175/175 180/180/180
f 175/175/175 186/186/186 181/181/181
f 187/187/187 182/182/182 181/181/181
f 182/182/182 187/187/187 188/188/188
f 189/189/189 178/178/178 183/183/183
f 178/178/178 189/189/189 184/184/184
f 190/190/190 179/179/179 184/184/184
f 179/179/179 190/190/190 185/185/185
f 191/191/191 180/180/180 185/185/185
f 180/180/180 191/191/191 186/186/186
f 192/192/192 181/181/181 186/186/186
f 181/181/181 192/192/192 187/187/187
f 193/193/193 188/188/188 187/187/187
f 188/188/188 193/193/193 194/194/194
f 195/195/195 184/184/184 189/189/189
f 184/184/184 195/195/195 190/190/190
f 196/196/196 185/185/185 190/190/190
f 185/185/185 196/196/196 191/191/191
f 197/197/197 186/186/186 191/191/191
f 186/186/186 197/197/197 192/192/192
f 198/198/198 187/187/187 192/192/192
f 187/187/187 198/198/198 193/193/193
f 199/199/199 194/194/194 193/193/193
f 194/194/194 199/199/199 200/200/200
f 201/201/201 190/190/190 195/195/195
f 190/190/190 201/201/201 196/196/196
f 202/202/202 191/191/191 196/196/196
f 191/191/191 202/202/202 197/197/197
f 203/203/203 192/192/192 197/197/197
f 192/192/192 203/203/203 198/198/198
f 204/204/204 193/193/193 198/198/198
f 193/193/193 204/204/204 199/199/199
f 205/205/205 200/200/200 199/199/199
f 200/200/200 205/205/205 206/206/206
f 207/207/207 206/206/206 205/205/205
f 206/206/206 207/207/207 208/208/208
f 205/205/205 209/209/209 207/207/207
f 199/199/199 210/210/210 205/205/205
f 209/209/209 205/205/205 210/210/210
f 210/210/210 199/199/199 204/204/204
f 210/210/210 211/211/211 209/209/209
f 211/211/211 210/210/210 212/212/212
f 204/204/204 212/212/212 210/210/210
f 212/212/212 213/213/213 211/211/211
f 198/198/198 214/214/214 204/204/204
f 212/212/212 204/204/204 214/214/214
f 214/214/214 198/198/198 203/203/203
f 213/213/213 212/212/212 215/215/215
f 214/214/214 215/215/215 212/212/212
f 215/215/215 216/216/216 213/213/213
f 203/203/203 217/217/217 214/214/214
f 215/215/215 214/214/214 217/217/217
f 216/216/216 215/215/215 218/218/218
f 217/217/217 218/218/218 215/215/215
f 218/218/218 219/219/219 216/216/216
f 217/217/217 203/203/203 220/220/220
f 197/197/197 220/220/220 203/203/203
f 220/220/220 197/197/197 202/202/202
f 219/219/219 218/218/218 221/221/221
f 221/221/221 222/222/222 219/219/219
f 218/218/218 217/217/217 223/223/223
f 220/220/220 223/223/223 217/217/217
f 223/223/223 221/221/221 218/218/218
f 202/202/202 224/224/224 220/220/220
f 223/223/223 220/220/220 224/224/224
f 222/222/222 221/221/221 225/225/225
f 225/225/225 226/226/226 222/222/222
f 221/221/221 223/223/223 227/227/227
f 224/224/224 227/227/227 223/223/223
f 227/227/227 225/225/225 221/221/221
f 224/224/224 202/202/202 228/228/228
f 196/196/196 228/228/228 202/202/202
f 228/228/228 196/196/196 201/201/201
f 226/226/226 225/225/225 229/229/229
f 229/229/229 230/230/230 226/226/226
f 227/227/227 224/224/224 231/231/231
f 228/228/228 231/231/231 224/224/224
f 225/225/225 227/227/227 232/232/232
f 232/232/232 229/229/229 225/225/225
f 231/231/231 232/232/232 227/227/227
f 201/201/201 233/233/233 228/228/228
f 231/231/231 228/228/228 233/233/233
f 230/230/230 229/229/229 234/234/234
f 234/234/234 235/235/235 230/230/230
f 232/232/232 231/231/231 236/236/236
f 233/233/233 236/236/236 231/231/231
f 229/229/229 232/232/232 237/237/237
f 237/237/237 234/234/234 229/229/229
f 236/236/236 237/237/237 232/232/232
f 233/233/233 201/201/201 238/238/238
f 195/195/195 238/238/238 201/201/201
f 235/235/235 234/234/234 239/239/239
f 239/239/239 240/240/240 235/235/235
f 234/234/234 237/237/237 241/241/241
f 241/241/241 239/239/239 234/234/234
f 236/236/236 233/233/233 242/242/242
f 238/238/238 242/242/242 233/233/233
f 237/237/237 236/236/236 243/243/243
f 243/243/243 241/241/241 237/237/237
f 242/242/242 243/243/243 236/236/236
f 238/238/238 195/195/195 244/244/244
f 189/189/189 244/244/244 195/195/195
f 240/240/240 239/239/239 245/245/245
f 245/245/245 246/246/246 240/240/240
f 239/239/239 241/241/241 247/247/247
f 247/247/247 245/245/245 239/239/239
f 241/241/241 243/243/243 248/248/248
f 248/248/248 247/247/247 241/241/241
f 242/242/242 238/238/238 249/249/249
f 244/244/244 249/249/249 238/238/238
f 243/243/243 242/242/242 250/250/250
f 250/250/250 248/248/248 243/243/243
f 249/249/249 250/250/250 242/242/242
f 244/244/244 189/189/189 251/251/251
f 183/183/183 251/251/251 189/189/189
f 246/246/246 245/245/245 252/252/252
f 252/252/252 253/253/253 246/246/246
f 245/245/245 247/247/247 254/254/254
f 254/254/254 252/252/252 245/245/245
f 247/247/247 248/248/248 255/255/255
f 255/255/255 254/254/254 247/247/247
f 248/248/248 250/250/250 256/256/256
f 256/256/256 255/255/255 248/248/248
f 249/249/249 244/244/244 257/257/257
f 251/251/251 257/257/257 244/244/244
f 250/250/250 249/249/249 258/258/258
f 258/258/258 256/256/256 250/250/250
f 257/257/257 258/258/258 249/249/249
f 251/251/251 183/183/183 259/259/259
f 177/177/177 259/259/259 183/183/183
f 257/257/257 251/251/251 260/260/260
f 259/259/259 260/260/260 251/251/251
f 258/258/258 257/257/257 261/261/261
f 260/260/260 261/261/261 257/257/257
f 256/256/256 258/258/258 262/262/262
f 261/261/261 262/262/262 258/258/258
f 255/255/255 256/256/256 263/263/263
f 262/262/262 263/263/263 256/256/256
f 259/259/259 177/177/177 264/264/264
f 171/171/171 264/264/264 177/177/177
f 260/260/260 259/259/259 265/265/265
f 264/264/264 265/265/265 259/259/259
f 261/261/261 260/260/260 266/266/266
f 265/265/265 266/266/266 260/260/260
f 262/262/262 261/261/261 267/267/267
f 266/266/266 267/267/267 261/261/261
f 264/264/264 171/171/171 268/268/268
f 165/165/165 268/268/268 171/171/171
f 265/265/265 264/264/264 269/269/269
f 268/268/268 269/269/269 264/264/264
f 266/266/266 265/265/265 270/270/270
f 269/269/269 270/270/270 265/265/265
f 268/268/268 165/165/165 271/271/271
f 159/159/159 271/271/271 165/165/165
f 269/269/269 268/268/268 272/272/272
f 271/271/271 272/272/272 268/268/268
f 271/271/271 159/159/159 273/273/273
f 153/153/153 273/273/273 159/159/159
f 267/267/267 274/274/274 262/262/262
f 263/263/263 262/262/262 274/274/274
f 267/267/267 266/266/266 275/275/275
f 270/270/270 275/275/275 266/266/266
f 270/270/270 269/269/269 276/276/276
f 272/272/272 276/276/276 269/269/269
f 272/272/272 271/271/271 277/277/277
f 273/273/273 277/277/277 271/271/271
f 273/273/273 153/153/153 278/278/278
f 147/147/147 278/278/278 153/153/153
f 274/274/274 267/267/267 279/279/279
f 275/275/275 279/279/279 267/267/267
f 275/275/275 270/270/270 280/280/280
f 276/276/276 280/280/280 270/270/270
f 276/276/276 272/272/272 281/281/281
f 277/277/277 281/281/281 272/272/272
f 277/277/277 273/273/273 282/282/282
f 278/278/278 282/282/282 273/273/273
f 278/278/278 147/147/147 283/283/283
f 132/132/132 283/283/283 147/147/147
f 279/279/279 275/275/275 284/284/284
f 280/280/280 284/284/284 275/275/275
f 280/280/280 276/276/276 285/285/285
f 281/281/281 285/285/285 276/276/276
f 281/281/281 277/277/277 286/286/286
f 282/282/282 286/286/286 277/277/277
f 282/282/282 278/278/278 287/287/287
f 283/283/283 287/287/287 278/278/278
f 283/283/283 132/132/132 288/288/288
f 121/121/121 288/288/288 132/132/132
f 288/288/288 121/121/121 116/116/116
f 288/288/288 289/289/289 283/283/283
f 287/287/287 283/283/283 289/289/289
f 116/116/116 290/290/290 288/288/288
f 289/289/289 288/288/288 290/290/290
f 290/290/290 116/116/116 106/106/106
f 287/287/287 291/291/291 282/282/282
f 286/286/286 282/282/282 291/291/291
f 286/286/286 292/292/292 281/281/281
f 285/285/285 281/281/281 292/292/292
f 289/289/289 293/293/293 287/287/287
f 291/291/291 287/287/287 293/293/293
f 106/106/106 294/294/294 290/290/290
f 294/294/294 106/106/106 100/100/100
f 100/100/100 105/105/105 294/294/294
f 290/290/290 295/295/295 289/289/289
f 295/295/295 290/290/290 294/294/294
f 293/293/293 289/289/289 295/295/295
f 291/291/291 296/296/296 286/286/286
f 292/292/292 286/286/286 296/296/296
f 297/297/297 294/294/294 105/105/105
f 294/294/294 297/297/297 295/295/295
f 295/295/295 298/298/298 293/293/293
f 298/298/298 295/295/295 297/297/297
f 293/293/293 299/299/299 291/291/291
f 296/296/296 291/291/291 299/299/299
f 299/299/299 293/293/293 298/298/298
f 105/105/105 300/300/300 297/297/297
f 300/300/300 105/105/105 99/99/99
f 297/297/297 301/301/301 298/298/298
f 301/301/301 297/297/297 300/300/300
f 298/298/298 302/302/302 299/299/299
f 302/302/302 298/298/298 301/301/301
f 299/299/299 303/303/303 296/296/296
f 303/303/303 299/299/299 302/302/302
f 296/296/296 304/304/304 292/292/292
f 304/304/304 296/296/296 303/303/303
f 99/99/99 305/305/305 300/300/300
f 305/305/305 99/99/99 93/93/93
f 300/300/300 306/306/306 301/301/301
f 306/306/306 300/300/300 305/305/305
f 301/301/301 307/307/307 302/302/302
f 307/307/307 301/301/301 306/306/306
f 302/302/302 308/308/308 303/303/303
f 308/308/308 302/302/302 307/307/307
f 93/93/93 309/309/309 305/305/305
f 309/309/309 93/93/93 87/87/87
f 305/305/305 310/310/310 306/306/306
f 310/310/310 305/305/305 309/309/309
f 306/306/306 311/311/311 307/307/307
f 311/311/311 306/306/306 310/310/310
f 87/87/87 312/312/312 309/309/309
f 312/312/312 87/87/87 81/81/81
f 309/309/309 313/313/313 310/310/310
f 313/313/313 309/309/309 312/312/312
f 81/81/81 314/314/314 312/312/312
f 314/314/314 81/81/81 66/66/66
f 315/315/315 303/303/303 308/308/308
f 303/303/303 315/315/315 304/304/304
f 307/307/307 316/316/316 308/308/308
f 316/316/316 307/307/307 311/311/311
f 310/310/310 317/317/317 311/311/311
f 317/317/317 310/310/310 313/313/313
f 312/312/312 318/318/318 313/313/313
f 318/318/318 312/312/312 314/314/314
f 66/66/66 319/319/319 314/314/314
f 319/319/319 66/66/66 59/59/59
f 59/59/59 60/60/60 319/319/319
f 320/320/320 314/314/314 319/319/319
f 314/314/314 320/320/320 318/318/318
f 321/321/321 313/313/313 318/318/318
f 313/313/313 321/321/321 317/317/317
f 322/322/322 311/311/311 317/317/317
f 311/311/311 322/322/322 316/316/316
f 323/323/323 319/319/319 60/60/60
f 319/319/319 323/323/323 320/320/320
f 324/324/324 318/318/318 320/320/320
f 318/318/318 324/324/324 321/321/321
f 325/325/325 317/317/317 321/321/321
f 317/317/317 325/325/325 322/322/322
f 60/60/60 326/326/326 323/323/323
f 326/326/326 60/60/60 52/52/52
f 52/52/52 53/53/53 326/326/326
f 327/327/327 320/320/320 323/323/323
f 320/320/320 327/327/327 324/324/324
f 328/328/328 321/321/321 324/324/324
f 321/321/321 328/328/328 325/325/325
f 329/329/329 323/323/323 326/326/326
f 323/323/323 329/329/329 327/327/327
f 330/330/330 326/326/326 53/53/53
f 326/326/326 330/330/330 329/329/329
f 331/331/331 324/324/324 327/327/327
f 324/324/324 331/331/331 328/328/328
f 332/332/332 327/327/327 329/329/329
f 327/327/327 332/332/332 331/331/331
f 53/53/53 333/333/333 330/330/330
f 333/333/333 53/53/53 44/44/44
f 44/44/44 45/45/45 333/333/333
f 334/334/334 333/333/333 45/45/45
f 333/333/333 334/334/334 335/335/335
f 335/335/335 330/330/330 333/333/333
f 336/336/336 335/335/335 334/334/334
f 337/337/337 329/329/329 330/330/330
f 330/330/330 335/335/335 337/337/337
f 329/329/329 337/337/337 332/332/332
f 335/335/335 336/336/336 338/338/338
f 338/338/338 337/337/337 335/335/335
f 339/339/339 338/338/338 336/336/336
f 340/340/340 332/332/332 337/337/337
f 337/337/337 338/338/338 340/340/340
f 338/338/338 339/339/339 341/341/341
f 341/341/341 340/340/340 338/338/338
f 342/342/342 341/341/341 339/339/339
f 332/332/332 340/340/340 343/343/343
f 343/343/343 331/331/331 332/332/332
f 340/340/340 341/341/341 344/344/344
f 344/344/344 343/343/343 340/340/340
f 341/341/341 342/342/342 345/345/345
f 345/345/345 344/344/344 341/341/341
f 346/346/346 345/345/345 342/342/342
f 331/331/331 343/343/343 347/347/347
f 347/347/347 328/328/328 331/331/331
f 343/343/343 344/344/344 348/348/348
f 348/348/348 347/347/347 343/343/343
f 344/344/344 345/345/345 349/349/349
f 349/349/349 348/348/348 344/344/344
f 345/345/345 346/346/346 350/350/350
f 350/350/350 349/349/349 345/345/345
f 351/351/351 350/350/350 346/346/346
f 328/328/328 347/347/347 352/352/352
f 352/352/352 325/325/325 328/328/328
f 347/347/347 348/348/348 353/353/353
f 353/353/353 352/352/352 347/347/347
f 348/348/348 349/349/349 354/354/354
f 354/354/354 353/353/353 348/348/348
f 349/349/349 350/350/350 355/355/355
f 355/355/355 354/354/354 349/349/349
f 350/350/350 351/351/351 356/356/356
f 356/356/356 355/355/355 350/350/350
f 357/357/357 356/356/356 351/351/351
f 325/325/325 352/352/352 358/358/358
f 358/358/358 322/322/322 325/325/325
f 352/352/352 353/353/353 359/359/359
f 359/359/359 358/358/358 352/352/352
f 353/353/353 354/354/354 360/360/360
f 360/360/360 359/359/359 353/353/353
f 354/354/354 355/355/355 361/361/361
f 361/361/361 360/360/360 354/354/354
f 355/355/355 356/356/356 362/362/362
f 362/362/362 361/361/361 355/355/355
f 356/356/356 357/357/357 363/363/363
f 363/363/363 362/362/362 356/356/356
f 364/364/364 363/363/363 357/357/357
f 322/322/322 358/358/358 365/365/365
f 365/365/365 316/316/316 322/322/322
f 358/358/358 359/359/359 366/366/366
f 366/366/366 365/365/365 358/358/358
f 359/359/359 360/360/360 367/367/367
f 367/367/367 366/366/366 359/359/359
f 360/360/360 361/361/361 368/368/368
f 368/368/368 367/367/367 360/360/360
f 361/361/361 362/362/362 369/369/369
f 369/369/369 368/368/368 361/361/361
f 362/362/362 363/363/363 370/370/370
f 370/370/370 369/369/369 362/362/362
f 363/363/363 364/364/364 371/371/371
f 371/371/371 370/370/370 363/363/363
f 372/372/372 371/371/371 364/364/364
f 316/316/316 365/365/365 373/373/373
f 373/373/373 308/308/308 316/316/316
f 308/308/308 373/373/373 315/315/315
f 371/371/371 372/372/372 374/374/374
f 375/375/375 374/374/374 372/372/372
f 370/370/370 371/371/371 376/376/376
f 374/374/374 376/376/376 371/371/371
f 369/369/369 370/370/370 377/377/377
f 376/376/376 377/377/377 370/370/370
f 378/378/378 373/373/373 365/365/365
f 365/365/365 366/366/366 378/378/378
f 379/379/379 315/315/315 373/373/373
f 373/373/373 378/378/378 379/379/379
f 374/374/374 375/375/375 380/380/380
f 381/381/381 380/380/380 375/375/375
f 376/376/376 374/374/374 382/382/382
f 380/380/380 382/382/382 374/374/374
f 383/383/383 378/378/378 366/366/366
f 366/366/366 367/367/367 383/383/383
f 380/380/380 381/381/381 384/384/384
f 385/385/385 384/384/384 381/381/381
f 384/384/384 385/385/385 386/386/386
f 384/384/384 387/387/387 380/380/380
f 382/382/382 380/380/380 387/387/387
f 386/386/386 388/388/388 384/384/384
f 387/387/387 384/384/384 388/388/388
f 388/388/388 386/386/386 389/389/389
f 382/382/382 390/390/390 376/376/376
f 377/377/377 376/376/376 390/390/390
f 387/387/387 391/391/391 382/382/382
f 390/390/390 382/382/382 391/391/391
f 389/389/389 392/392/392 388/388/388
f 392/392/392 389/389/389 393/393/393
f 388/388/388 394/394/394 387/387/387
f 391/391/391 387/387/387 394/394/394
f 394/394/394 388/388/388 392/392/392
f 393/393/393 395/395/395 392/392/392
f 395/395/395 393/393/393 396/396/396
f 392/392/392 397/397/397 394/394/394
f 397/397/397 392/392/392 395/395/395
f 394/394/394 398/398/398 391/391/391
f 398/398/398 394/394/394 397/397/397
f 391/391/391 399/399/399 390/390/390
f 399/399/399 391/391/391 398/398/398
f 390/390/390 400/400/400 377/377/377
f 400/400/400 390/390/390 399/399/399
f 396/396/396 401/401/401 395/395/395
f 401/401/401 396/396/396 402/402/402
f 395/395/395 403/403/403 397/397/397
f 403/403/403 395/395/395 401/401/401
f 397/397/397 404/404/404 398/398/398
f 404/404/404 397/397/397 403/403/403
f 398/398/398 405/405/405 399/399/399
f 405/405/405 398/398/398 404/404/404
f 402/402/402 406/406/406 401/401/401
f 406/406/406 402/402/402 407/407/407
f 401/401/401 408/408/408 403/403/403
f 408/408/408 401/401/401 406/406/406
f 403/403/403 409/409/409 404/404/404
f 409/409/409 403/403/403 408/408/408
f 407/407/407 410/410/410 406/406/406
f 410/410/410 407/407/407 253/253/253
f 253/253/253 252/252/252 410/410/410
f 406/406/406 411/411/411 408/408/408
f 411/411/411 406/406/406 410/410/410
f 412/412/412 410/410/410 252/252/252
f 410/410/410 412/412/412 411/411/411
f 252/252/252 254/254/254 412/412/412
f 413/413/413 408/408/408 411/411/411
f 408/408/408 413/413/413 409/409/409
f 414/414/414 404/404/404 409/409/409
f 404/404/404 414/414/414 405/405/405
f 415/415/415 412/412/412 254/254/254
f 254/254/254 255/255/255 415/415/415
f 263/263/263 415/415/415 255/255/255
f 416/416/416 411/411/411 412/412/412
f 412/412/412 415/415/415 416/416/416
f 411/411/411 416/416/416 413/413/413
f 415/415/415 263/263/263 417/417/417
f 417/417/417 416/416/416 415/415/415
f 274/274/274 417/417/417 263/263/263
f 418/418/418 409/409/409 413/413/413
f 409/409/409 418/418/418 414/414/414
f 419/419/419 413/413/413 416/416/416
f 416/416/416 417/417/417 419/419/419
f 413/413/413 419/419/419 418/418/418
f 417/417/417 274/274/274 420/420/420
f 420/420/420 419/419/419 417/417/417
f 279/279/279 420/420/420 274/274/274
f 421/421/421 418/418/418 419/419/419
f 419/419/419 420/420/420 421/421/421
f 420/420/420 279/279/279 422/422/422
f 422/422/422 421/421/421 420/420/420
f 284/284/284 422/422/422 279/279/279
f 423/423/423 414/414/414 418/418/418
f 418/418/418 421/421/421 423/423/423
f 421/421/421 422/422/422 424/424/424
f 424/424/424 423/423/423 421/421/421
f 422/422/422 284/284/284 425/425/425
f 425/425/425 424/424/424 422/422/422
f 414/414/414 423/423/423 426/426/426
f 426/426/426 405/405/405 414/414/414
f 423/423/423 424/424/424 427/427/427
f 427/427/427 426/426/426 423/423/423
f 405/405/405 426/426/426 428/428/428
f 428/428/428 399/399/399 405/405/405
f 399/399/399 428/428/428 400/400/400
f 429/429/429 428/428/428 426/426/426
f 426/426/426 427/427/427 429/429/429
f 430/430/430 427/427/427 424/424/424
f 424/424/424 425/425/425 430/430/430
f 431/431/431 425/425/425 284/284/284
f 284/284/284 280/280/280 431/431/431
f 285/285/285 431/431/431 280/280/280
f 432/432/432 400/400/400 428/428/428
f 428/428/428 429/429/429 432/432/432
f 433/433/433 429/429/429 427/427/427
f 427/427/427 430/430/430 433/433/433
f 425/425/425 431/431/431 434/434/434
f 434/434/434 430/430/430 425/425/425
f 431/431/431 285/285/285 435/435/435
f 435/435/435 434/434/434 431/431/431
f 292/292/292 435/435/435 285/285/285
f 435/435/435 292/292/292 304/304/304
f 304/304/304 436/436/436 435/435/435
f 434/434/434 435/435/435 436/436/436
f 436/436/436 304/304/304 315/315/315
f 315/315/315 379/379/379 436/436/436
f 430/430/430 434/434/434 437/437/437
f 436/436/436 437/437/437 434/434/434
f 437/437/437 436/436/436 379/379/379
f 437/437/437 433/433/433 430/430/430
f 379/379/379 438/438/438 437/437/437
f 433/433/433 437/437/437 438/438/438
f 438/438/438 379/379/379 378/378/378
f 378/378/378 383/383/383 438/438/438
f 438/438/438 439/439/439 433/433/433
f 439/439/439 438/438/438 383/383/383
f 429/429/429 433/433/433 439/439/439
f 439/439/439 432/432/432 429/429/429
f 383/383/383 440/440/440 439/439/439
f 432/432/432 439/439/439 440/440/440
f 440/440/440 383/383/383 367/367/367
f 367/367/367 368/368/368 440/440/440
f 440/440/440 441/441/441 432/432/432
f 441/441/441 440/440/440 368/368/368
f 400/400/400 432/432/432 441/441/441
f 368/368/368 369/369/369 441/441/441
f 441/441/441 377/377/377 400/400/400
f 377/377/377 441/441/441 369/369/369
