g ShuZhi
v 1.13585246 0.52615422 -0.995216668
v 1.14422131 0.45946601 -1.06206298
v 0.880393207 0.402465016 -0.876702845
v 0.643011689 0.211964279 -0.829852045
v 0.571298659 0.230677336 -0.764132082
v 0.137375787 0.0252480283 -0.65365541
v 1.14146328 0.435920596 -1.15720582
v 0.183478996 -0.0138173671 -0.709477544
v -0.392907411 -0.211562321 -0.521694958
v 0.729257941 0.23830995 -0.93812108
v -0.34294951 -0.238178402 -0.5790869
v -0.905321956 -0.525518954 -0.302438945
v -0.850865781 -0.541743815 -0.394888371
v -1.2071923 -0.968747258 0.0984191895
v -0.297914416 -0.235824659 -0.652068496
v 0.876669168 0.340180129 -1.10047114
v 1.13552654 0.47204867 -1.26004696
v 1.08383369 0.518043041 -1.28622437
v 0.225312188 -0.0109600825 -0.792306483
v 0.616463125 0.214583829 -0.979405522
v 0.846390069 0.401127279 -1.14346492
v 0.250457138 0.0190488435 -0.870176375
v 0.673870444 0.400919437 -1.05683529
v 1.05767286 0.59525001 -1.27451837
v 0.597147346 0.27207762 -1.02506471
v -0.268193036 -0.20714584 -0.720712245
v 0.246481165 0.0776154324 -0.913551033
v 0.647025108 0.434809178 -0.989353001
v 1.05751824 0.654087365 -1.21236265
v 0.214588925 0.135496333 -0.894785762
v 0.696790814 0.487351358 -0.931084394
v 1.06876123 0.681506813 -1.13743711
v 0.174235985 0.169463113 -0.83626771
v 0.827804565 0.530806661 -0.92338562
v 1.08871484 0.66404295 -1.06684875
v 0.133495793 0.178130567 -0.75868398
v 0.422817141 0.291564554 -0.763860404
v 0.543043196 0.293614179 -0.7510674
v 0.852369666 0.476026297 -0.881180406
v 1.11140192 0.610536039 -1.0106616
v 1.13585246 0.52615422 -0.995216668
v 0.880393207 0.402465016 -0.876702845
v 0.571298659 0.230677336 -0.764132082
v 0.137375787 0.0252480283 -0.65365541
v -0.392907411 -0.211562321 -0.521694958
v -0.401023507 -0.0786539465 -0.608803093
v -0.427054137 -0.161309049 -0.507526815
v -0.94805783 -0.496588051 -0.272146612
v -0.905321956 -0.525518954 -0.302438945
v -0.427846968 -0.111956939 -0.5440588
v -0.352536917 -0.0695126355 -0.68560487
v -1.24034417 -0.95315671 0.132209465
v -1.2071923 -0.968747258 0.0984191895
v -1.21442544 -1.40186322 0.561626971
v -1.19014096 -1.39884806 0.517525613
v -1.10055506 -1.67619562 0.843031585
v -1.05272186 -1.84708369 1.06214297
v -0.965166926 -0.426317513 -0.371303707
v -0.971210301 -0.457844794 -0.301622927
v -0.305487365 -0.106396943 -0.735576749
v -1.28208458 -0.932975769 0.120471798
v -0.937740684 -0.41438517 -0.447797835
v -1.31400967 -0.91619283 0.0694152787
v -0.268638611 -0.156488344 -0.757467628
v -0.891984761 -0.435683727 -0.503045022
v -0.831132472 -0.502792418 -0.504373133
v -0.846929908 -0.466011792 -0.535047591
v -1.32765269 -0.908191204 0.00616027834
v -1.23716307 -0.965781868 -0.0650274679
v -1.30961299 -0.915450752 -0.054406736
v -1.31972528 -1.40102196 0.479870588
v -1.27501762 -0.939977765 -0.0840686038
v -1.19729567 -0.981308639 0.00923135132
v -1.19014096 -1.39884806 0.517525613
v -1.23071289 -1.47623789 0.454147935
v -1.18931401 -1.42936671 0.465166718
v -1.10055506 -1.67619562 0.843031585
v -1.30986941 -1.43473125 0.455382675
v -1.20364428 -1.71664107 0.858360648
v -1.30143642 -1.37962115 0.515144646
v -1.26297545 -1.37217617 0.539583147
v -1.26593077 -1.4817673 0.457971752
v -1.12270963 -1.78036857 1.00279808
v -1.11931515 -1.75749099 0.78989929
v -1.03634584 -1.84739053 1.00167608
v -1.05272186 -1.84708369 1.06214297
v -1.03164518 -1.95191252 1.19676697
v -1.18235278 -1.73794794 0.760364234
v -1.0464896 -1.85745859 0.958049238
v -1.00656152 -2.05814576 1.27977669
v -1.0204916 -2.03276181 1.2939105
v -1.01132584 -2.07947373 1.26401627
v -1.04645002 -1.96437025 1.06359768
v -1.04268038 -2.10586047 1.24164736
v -1.20631349 -1.72498775 0.775815427
v -1.0840503 -2.04434085 1.15952766
v -1.09158301 -2.10712028 1.23530114
v -1.10922289 -1.93503368 1.01080549
v -1.1269033 -1.98711145 1.11949217
v -1.14116299 -2.06459045 1.2663157
v -1.14269161 -1.92850947 1.09914386
v -1.12194836 -2.02648401 1.29491436
v -1.14065158 -1.85051537 1.05597413
v -1.09063959 -2.00871277 1.30815256
v -1.05133724 -2.01071215 1.30298889
v -1.03164518 -1.95191252 1.19676697
v -1.0204916 -2.03276181 1.2939105
vt 0.551640868 0.745219827
vt 0.549768388 0.749068856
vt 0.560310364 0.749199331
vt 0.566816986 0.755296052
vt 0.569140375 0.753091991
vt 0.577837646 0.756494284
vt 0.547653615 0.753143191
vt 0.576891482 0.759235501
vt 0.586368799 0.759312868
vt 0.563328445 0.757500231
vt 0.585597754 0.761908472
vt 0.594924331 0.762040436
vt 0.594038844 0.765340805
vt 0.603494048 0.764308572
vt 0.584906459 0.764474511
vt 0.556509972 0.759968817
vt 0.544791639 0.757502496
vt 0.54465729 0.761608064
vt 0.576033354 0.761992753
vt 0.56601572 0.762379527
vt 0.555594146 0.76379025
vt 0.575297534 0.764806509
vt 0.560571253 0.768763363
vt 0.543870389 0.765997529
vt 0.565255046 0.765695095
vt 0.58430928 0.767013073
vt 0.574653029 0.767654479
vt 0.56050694 0.772400796
vt 0.543332577 0.770552635
vt 0.574113011 0.770549595
vt 0.558019996 0.776030183
vt 0.543154895 0.774599969
vt 0.573720276 0.77345556
vt 0.55391407 0.778553367
vt 0.54333812 0.778166234
vt 0.573407888 0.776358724
vt 0.566209674 0.779364824
vt 0.563764453 0.782204986
vt 0.553958297 0.781796694
vt 0.543816268 0.781793058
vt 0.544439375 0.785689533
vt 0.554071367 0.785286009
vt 0.563790023 0.785218894
vt 0.573188484 0.784905553
vt 0.582174838 0.784949183
vt 0.582600653 0.777193487
vt 0.582246721 0.782296062
vt 0.591285825 0.782978714
vt 0.591077983 0.785348296
vt 0.582388639 0.779731035
vt 0.582896113 0.774600744
vt 0.600197077 0.783951163
vt 0.599892318 0.786280334
vt 0.60956049 0.785381734
vt 0.608631134 0.787589908
vt 0.617221534 0.788132012
vt 0.624920726 0.78880614
vt 0.591739118 0.778156161
vt 0.591502845 0.780603409
vt 0.583318233 0.77199477
vt 0.600500584 0.781663179
vt 0.592037022 0.775832832
vt 0.600804567 0.779340208
vt 0.583800435 0.769447446
vt 0.592391491 0.773462117
vt 0.593176723 0.76904428
vt 0.592748344 0.771198213
vt 0.601150632 0.77714169
vt 0.602251828 0.770686388
vt 0.60150665 0.774907649
vt 0.610213399 0.778467536
vt 0.60189569 0.77268225
vt 0.602808952 0.767578781
vt 0.612100065 0.766002476
vt 0.611492634 0.772034943
vt 0.611459911 0.768964648
vt 0.620572984 0.767003238
vt 0.610765517 0.77634722
vt 0.619277954 0.780878663
vt 0.609755874 0.780642927
vt 0.60935092 0.78288734
vt 0.611506045 0.773926914
vt 0.623319149 0.78526181
vt 0.619581938 0.773029149
vt 0.626474559 0.770090401
vt 0.628223836 0.767939508
vt 0.634769797 0.769266963
vt 0.618646502 0.775768697
vt 0.6252321 0.771662176
vt 0.639992356 0.772233784
vt 0.640065312 0.770591497
vt 0.639777422 0.773613214
vt 0.629640996 0.77410984
vt 0.639454603 0.776099324
vt 0.618660748 0.777485192
vt 0.634307384 0.777627885
vt 0.639030159 0.778726697
vt 0.626914382 0.776923776
vt 0.631506205 0.779785275
vt 0.638533235 0.782626271
vt 0.62931633 0.781637013
vt 0.638034523 0.785358012
vt 0.625829458 0.783074677
vt 0.637558162 0.787412643
vt 0.636903226 0.789456189
vt 0.631427288 0.790263772
vt 0.636764884 0.791531026
vn 0.483828664 -0.148471668 0.862476647
vn 0.541822135 -0.739355028 0.399728745
vn 0.467561245 -0.184363559 0.864520967
vn 0.5167768 -0.70866102 0.480355412
vn 0.419301361 -0.31791392 0.850362897
vn 0.364259243 -0.309696108 0.878295839
vn 0.36311996 -0.921566904 -0.137325361
vn 0.465298146 -0.741137743 0.483955085
vn 0.447623789 -0.274471521 0.851057112
vn 0.4389579 -0.898488343 0.00589586282
vn 0.516397893 -0.697701752 0.496533424
vn 0.681463718 -0.126877755 0.720769882
vn 0.702182412 -0.692788005 0.164270133
vn 0.893513143 0.145112947 0.424942791
vn 0.433449358 -0.901090443 0.0125581082
vn 0.0920291394 -0.810733616 -0.578136325
vn 0.0109420056 -0.779452324 -0.62636596
vn -0.338575065 -0.359455734 -0.869573712
vn 0.420646995 -0.907059252 -0.0173113141
vn 0.177623481 -0.791414976 -0.584903598
vn -0.297964185 -0.361852169 -0.883334875
vn 0.234434605 -0.803568006 -0.547100484
vn -0.536893845 0.339947194 -0.772127509
vn -0.588513553 0.289826602 -0.754753053
vn -0.191715285 -0.343047261 -0.919545472
vn 0.183903992 -0.801170707 -0.569477677
vn -0.155047119 -0.271659136 -0.949821949
vn -0.559463382 0.740525961 -0.372319728
vn -0.592609048 0.696930289 -0.403859645
vn -0.439528525 0.331901103 -0.834659457
vn -0.423225582 0.893844485 0.14806132
vn -0.453407466 0.891292393 0.00440241536
vn -0.512663007 0.684184551 -0.518717825
vn -0.141586944 0.796233118 0.588188648
vn -0.186736956 0.856488168 0.481203943
vn -0.451791376 0.892111838 0.00458345609
vn -0.173947364 0.725993693 0.665338635
vn 0.147795051 0.279445767 0.948718429
vn 0.175272107 0.422545522 0.889232814
vn 0.121480137 0.556954682 0.82161057
vn 0.483828664 -0.148471668 0.862476647
vn 0.467561245 -0.184363559 0.864520967
vn 0.419301361 -0.31791392 0.850362897
vn 0.364259243 -0.309696108 0.878295839
vn 0.447623789 -0.274471521 0.851057112
vn -0.480003208 0.877108991 0.0166346692
vn 0.158510417 0.321699262 0.933479607
vn 0.315162957 0.413868397 0.854040504
vn 0.681463718 -0.126877755 0.720769882
vn -0.247497752 0.787046432 0.565068781
vn -0.527444303 0.674224436 -0.516937077
vn 0.415386856 0.570120931 0.708812952
vn 0.893513143 0.145112947 0.424942791
vn 0.438315988 0.693039536 0.572341979
vn 0.895811677 0.384708732 0.222532168
vn 0.801889598 0.54743588 0.239347249
vn 0.745207429 0.589452267 0.311788172
vn -0.696895957 0.716163933 0.0380153582
vn -0.356040001 0.751309156 0.555670738
vn -0.438850313 0.281679183 -0.853268504
vn -0.300528973 0.665867805 0.682863414
vn -0.74219346 0.515181065 -0.428645998
vn -0.752669573 0.53616637 0.382117838
vn -0.20260407 -0.244265258 -0.948306978
vn -0.628303528 0.191747576 -0.753967941
vn 0.188372999 -0.797740698 -0.572822332
vn -0.32221368 -0.267206132 -0.908173501
vn -0.95381844 0.298212588 -0.036050003
vn 0.159440786 -0.741288543 -0.651973784
vn -0.882619381 -0.0164635349 -0.469799995
vn -0.991037011 -0.0159991328 0.132626027
vn -0.487618297 -0.47037366 -0.735511303
vn 0.850877166 -0.490341246 -0.188609257
vn 0.895811677 0.384708732 0.222532168
vn 0.323405057 -0.669300199 -0.668914318
vn 0.913287103 -0.219135076 -0.343346059
vn 0.801889598 0.54743588 0.239347249
vn -0.845903695 -0.44216603 -0.298221529
vn -0.923316479 0.111187242 0.367592216
vn -0.764440298 0.382136375 0.51923281
vn -0.256231815 0.663439333 0.702988923
vn -0.342423528 -0.730980992 -0.590265095
vn -0.227191404 0.72963357 0.644995332
vn 0.372669846 -0.669880927 -0.64216578
vn 0.979672432 0.195913509 -0.043125879
vn 0.745207429 0.589452267 0.311788172
vn 0.787075043 0.522177517 0.328395396
vn -0.243376493 -0.783600807 -0.571609735
vn 0.894908488 -0.246464774 -0.372013241
vn 0.997015595 0.0762712955 0.0119442465
vn 0.820629299 0.47412172 0.319023907
vn 0.93743068 -0.261317581 -0.230080247
vn 0.511869133 -0.644349277 -0.568158448
vn 0.430035621 -0.69620651 -0.574774623
vn -0.824863136 -0.528435171 -0.200890914
vn -0.0210058689 -0.787527978 -0.615920722
vn -0.150683805 -0.783730924 -0.602544785
vn -0.128263891 -0.80058682 -0.585328162
vn -0.774237514 -0.539179862 -0.331423163
vn -0.989558339 -0.119897485 -0.0799927115
vn -0.993254006 -0.0269499309 0.11278373
vn -0.767048895 0.499426663 0.402751684
vn -0.788343489 0.407989353 0.46049875
vn -0.224290356 0.77059567 0.596553504
vn 0.389641017 0.735777557 0.553905368
vn 0.787075043 0.522177517 0.328395396
vn 0.820629299 0.47412172 0.319023907
g ShuZhi_0
f 3/3/3 2/2/2 1/1/1
f 4/4/4 2/2/2 3/3/3
f 4/4/4 3/3/3 5/5/5
f 4/4/4 5/5/5 6/6/6
f 7/7/7 2/2/2 4/4/4
f 6/6/6 8/8/8 4/4/4
f 9/9/9 8/8/8 6/6/6
f 4/4/4 10/10/10 7/7/7
f 10/10/10 4/4/4 8/8/8
f 8/8/8 9/9/9 11/11/11
f 11/11/11 9/9/9 12/12/12
f 12/12/12 13/13/13 11/11/11
f 14/14/14 13/13/13 12/12/12
f 8/8/8 11/11/11 15/15/15
f 15/15/15 11/11/11 13/13/13
f 10/10/10 16/16/16 7/7/7
f 16/16/16 17/17/17 7/7/7
f 18/18/18 17/17/17 16/16/16
f 8/8/8 19/19/19 10/10/10
f 15/15/15 19/19/19 8/8/8
f 20/20/20 16/16/16 10/10/10
f 20/20/20 10/10/10 19/19/19
f 16/16/16 21/21/21 18/18/18
f 21/21/21 16/16/16 20/20/20
f 15/15/15 22/22/22 19/19/19
f 19/19/19 22/22/22 20/20/20
f 21/21/21 23/23/23 18/18/18
f 24/24/24 18/18/18 23/23/23
f 20/20/20 25/25/25 21/21/21
f 25/25/25 20/20/20 22/22/22
f 21/21/21 25/25/25 23/23/23
f 22/22/22 15/15/15 26/26/26
f 26/26/26 15/15/15 13/13/13
f 22/22/22 27/27/27 25/25/25
f 26/26/26 27/27/27 22/22/22
f 24/24/24 23/23/23 28/28/28
f 28/28/28 29/29/29 24/24/24
f 30/30/30 23/23/23 25/25/25
f 25/25/25 27/27/27 30/30/30
f 29/29/29 28/28/28 31/31/31
f 31/31/31 32/32/32 29/29/29
f 33/33/33 28/28/28 23/23/23
f 23/23/23 30/30/30 33/33/33
f 32/32/32 31/31/31 34/34/34
f 34/34/34 35/35/35 32/32/32
f 36/36/36 31/31/31 28/28/28
f 28/28/28 33/33/33 36/36/36
f 37/37/37 31/31/31 36/36/36
f 34/34/34 31/31/31 37/37/37
f 34/34/34 37/37/37 38/38/38
f 34/34/34 39/39/39 35/35/35
f 38/38/38 39/39/39 34/34/34
f 39/39/39 40/40/40 35/35/35
f 41/41/41 40/40/40 39/39/39
f 39/39/39 42/42/42 41/41/41
f 38/38/38 42/42/42 39/39/39
f 43/43/43 42/42/42 38/38/38
f 38/38/38 44/44/44 43/43/43
f 45/45/45 44/44/44 38/38/38
f 46/46/46 36/36/36 33/33/33
f 37/37/37 36/36/36 46/46/46
f 38/38/38 47/47/47 45/45/45
f 47/47/47 38/38/38 37/37/37
f 45/45/45 47/47/47 48/48/48
f 48/48/48 49/49/49 45/45/45
f 37/37/37 50/50/50 47/47/47
f 37/37/37 46/46/46 50/50/50
f 48/48/48 47/47/47 50/50/50
f 33/33/33 51/51/51 46/46/46
f 51/51/51 33/33/33 30/30/30
f 52/52/52 49/49/49 48/48/48
f 49/49/49 52/52/52 53/53/53
f 53/53/53 52/52/52 54/54/54
f 54/54/54 55/55/55 53/53/53
f 56/56/56 55/55/55 54/54/54
f 56/56/56 54/54/54 57/57/57
f 50/50/50 46/46/46 58/58/58
f 58/58/58 46/46/46 51/51/51
f 59/59/59 48/48/48 50/50/50
f 52/52/52 48/48/48 59/59/59
f 58/58/58 59/59/59 50/50/50
f 30/30/30 60/60/60 51/51/51
f 30/30/30 27/27/27 60/60/60
f 59/59/59 61/61/61 52/52/52
f 54/54/54 52/52/52 61/61/61
f 51/51/51 62/62/62 58/58/58
f 51/51/51 60/60/60 62/62/62
f 59/59/59 58/58/58 63/63/63
f 59/59/59 63/63/63 61/61/61
f 63/63/63 58/58/58 62/62/62
f 64/64/64 60/60/60 27/27/27
f 27/27/27 26/26/26 64/64/64
f 65/65/65 62/62/62 60/60/60
f 65/65/65 60/60/60 64/64/64
f 66/66/66 64/64/64 26/26/26
f 13/13/13 66/66/66 26/26/26
f 66/66/66 67/67/67 64/64/64
f 64/64/64 67/67/67 65/65/65
f 68/68/68 62/62/62 65/65/65
f 62/62/62 68/68/68 63/63/63
f 69/69/69 66/66/66 13/13/13
f 67/67/67 66/66/66 69/69/69
f 70/70/70 65/65/65 67/67/67
f 65/65/65 70/70/70 68/68/68
f 63/63/63 68/68/68 71/71/71
f 68/68/68 70/70/70 71/71/71
f 67/67/67 72/72/72 70/70/70
f 69/69/69 72/72/72 67/67/67
f 13/13/13 73/73/73 69/69/69
f 13/13/13 14/14/14 73/73/73
f 73/73/73 14/14/14 74/74/74
f 75/75/75 69/69/69 73/73/73
f 75/75/75 72/72/72 69/69/69
f 74/74/74 76/76/76 73/73/73
f 73/73/73 76/76/76 75/75/75
f 77/77/77 76/76/76 74/74/74
f 70/70/70 72/72/72 78/78/78
f 78/78/78 71/71/71 70/70/70
f 79/79/79 71/71/71 78/78/78
f 71/71/71 80/80/80 63/63/63
f 80/80/80 71/71/71 79/79/79
f 61/61/61 63/63/63 80/80/80
f 80/80/80 81/81/81 61/61/61
f 81/81/81 80/80/80 79/79/79
f 81/81/81 54/54/54 61/61/61
f 72/72/72 75/75/75 82/82/82
f 82/82/82 78/78/78 72/72/72
f 81/81/81 83/83/83 54/54/54
f 81/81/81 79/79/79 83/83/83
f 84/84/84 82/82/82 75/75/75
f 75/75/75 76/76/76 84/84/84
f 85/85/85 76/76/76 77/77/77
f 85/85/85 77/77/77 86/86/86
f 87/87/87 85/85/85 86/86/86
f 78/78/78 82/82/82 88/88/88
f 84/84/84 88/88/88 82/82/82
f 89/89/89 84/84/84 76/76/76
f 76/76/76 85/85/85 89/89/89
f 87/87/87 90/90/90 85/85/85
f 91/91/91 90/90/90 87/87/87
f 90/90/90 92/92/92 85/85/85
f 92/92/92 89/89/89 85/85/85
f 93/93/93 84/84/84 89/89/89
f 89/89/89 92/92/92 93/93/93
f 88/88/88 84/84/84 93/93/93
f 93/93/93 92/92/92 94/94/94
f 88/88/88 95/95/95 78/78/78
f 78/78/78 95/95/95 79/79/79
f 96/96/96 93/93/93 94/94/94
f 94/94/94 97/97/97 96/96/96
f 93/93/93 98/98/98 88/88/88
f 93/93/93 96/96/96 98/98/98
f 95/95/95 88/88/88 98/98/98
f 99/99/99 96/96/96 97/97/97
f 99/99/99 98/98/98 96/96/96
f 98/98/98 99/99/99 95/95/95
f 97/97/97 100/100/100 99/99/99
f 99/99/99 101/101/101 95/95/95
f 101/101/101 99/99/99 100/100/100
f 79/79/79 95/95/95 101/101/101
f 102/102/102 101/101/101 100/100/100
f 101/101/101 103/103/103 79/79/79
f 101/101/101 102/102/102 103/103/103
f 83/83/83 79/79/79 103/103/103
f 83/83/83 103/103/103 102/102/102
f 102/102/102 104/104/104 83/83/83
f 83/83/83 104/104/104 105/105/105
f 54/54/54 83/83/83 105/105/105
f 105/105/105 57/57/57 54/54/54
f 106/106/106 57/57/57 105/105/105
f 105/105/105 107/107/107 106/106/106
