g ShiTou2
v 11.4575548 1.40364206 -0.300654292
v 11.597043 1.39216626 -0.398344904
v 11.5984507 1.19082654 -0.434694022
v 11.2565756 1.15869975 -0.272584021
v 11.4755182 1.39006174 -0.071357891
v 11.2497272 1.19295418 0.02392333
v 10.9341145 1.01503277 0.055232428
v 10.9630356 1.07693315 0.158096403
v 10.8304405 0.917295277 0.385806561
v 10.6684923 0.788343251 0.326948345
v 10.7349329 0.809261322 -0.215153039
v 10.6235189 0.846672416 0.763599694
v 10.8423719 0.942741513 0.71960187
v 10.6079283 0.924506366 0.898907065
v 10.8205385 1.01018906 0.87533164
v 10.7315207 1.10828078 0.902900398
v 10.5843372 1.08933461 0.919633925
v 10.1224184 0.951117992 0.928745329
v 10.1061134 1.10323715 0.966671586
v 9.33492088 1.03221846 0.991113544
v 9.3988905 1.14817154 1.0358268
v 9.09468555 1.20744252 1.06375825
v 10.1451178 0.877822995 0.77120167
v 10.1409063 0.772409678 0.471145689
v 10.1525841 0.627169311 -0.149989501
v 9.38143921 0.858219743 0.49084872
v 9.40351391 0.735475898 -0.0980976596
v 9.00912189 1.1273073 1.0322125
v 8.94892216 1.42530072 1.06590283
v 8.93844986 0.995583177 0.462614745
v 8.97207737 1.08974183 0.881688356
v 8.83012104 1.38434219 1.03032637
v 8.77898121 1.33162856 0.877564549
v 8.771348 1.94805467 0.947999716
v 8.87890053 1.98997021 1.04313135
v 8.68271065 1.89176583 0.770650446
v 8.66576481 2.65917301 0.911938369
v 8.77255726 2.69362116 1.03762233
v 8.57031631 2.62959123 0.709690988
v 8.54899693 1.79711103 0.352349877
v 8.67024231 1.24260712 0.441978365
v 8.54922867 1.20772088 -0.165966183
v 8.21176529 3.37640548 -0.260209739
v 8.31520748 2.47255468 -0.641162395
v 8.82436848 0.968056917 -0.104268767
v 8.51105404 3.37933612 0.931688428
v 8.64546299 3.18547845 1.03351974
v 8.60126114 3.35741138 1.02867842
v 8.43667984 3.36167836 0.741633594
v 8.34395218 3.10538864 0.247509375
v 8.59929848 3.49763918 0.898697495
v 8.70036221 3.42308593 1.02299106
v 9.34628296 0.686765909 -0.416198909
v 8.28726864 3.34774113 0.253373176
v 8.34179688 3.5061121 0.244454727
v 8.53331661 3.59892964 0.236543357
v 8.80324554 3.57853198 0.868671179
v 8.92801571 3.47170186 1.00602901
v 8.25735569 3.4992919 -0.133644447
v 9.22501659 3.69662738 0.861544311
v 9.3573885 3.58591914 0.942790806
v 10.1489563 0.541786313 -0.556009471
v 10.7763853 0.843115687 -0.592469573
v 8.34960747 3.61881638 -0.244620472
v 9.09906578 3.75634027 0.638848543
v 9.9866066 4.2976594 -0.202018946
v 9.85834599 3.96264362 0.835248172
v 9.93187523 3.7966907 0.895572662
v 9.83204079 4.07439709 0.478592664
v 10.2737522 4.01798248 0.775594831
v 10.2816219 3.87694788 0.857748747
v 10.2753267 4.15040827 0.555251479
v 10.4803438 4.01507902 0.659177005
v 10.5315084 3.91559196 0.78795439
v 10.5876083 3.86596179 0.651313245
v 10.5404482 3.93679309 0.532518923
v 10.4364462 4.13003111 0.429582089
v 10.4862556 4.02314615 0.351975769
v 10.5656309 4.12960863 0.212990031
v 10.3647852 4.26692295 0.261904508
v 10.5370178 4.27063179 0.214257956
v 10.5579109 4.47319508 -0.0921217501
v 10.7464876 4.21149445 0.194960207
v 10.8002577 4.33718872 0.129441366
v 10.8550167 4.41334152 -0.109611042
v 10.2087231 4.3222332 0.0444859676
v 10.7596798 4.5519557 -0.316052347
v 10.8236361 4.43132973 -0.326083034
v 10.5515709 4.55965281 -0.39218685
v 10.8155746 4.63908052 -0.483441085
v 10.9219465 4.50564432 -0.433557659
v 10.4855919 4.58350515 -0.596702993
v 11.0163708 4.75733757 -0.585127711
v 11.0974693 4.60731745 -0.461087674
v 10.9408455 4.76882935 -0.746323287
v 11.2511215 4.74681282 -0.667027414
v 11.2607822 4.62663269 -0.532522857
v 11.1269541 4.73854733 -0.933879673
v 10.8605194 4.75437069 -0.856943786
v 10.4023418 4.57422972 -0.774816632
v 10.8874331 4.77707243 -0.975099683
v 10.7500648 4.7155571 -0.980603993
v 10.4060774 4.55300999 -0.931699038
v 9.83692551 4.29841948 -0.850958526
v 9.14865971 3.96973205 -0.766618729
v 9.38236046 4.08530283 -0.386633366
v 8.64065456 3.77164912 -0.290461808
v 8.49894714 3.73872638 -0.514061928
v 8.38784122 3.43551254 -0.720888436
v 8.22869682 3.51312184 -0.436474025
v 8.20976925 3.26035523 -0.500801504
v 8.42455673 2.51814651 -0.738280296
v 8.55975056 3.32951188 -0.781820714
v 9.2032938 3.86462522 -0.852900922
v 9.14865971 3.96973205 -0.766618729
v 10.3226252 4.37287188 -0.986751735
v 9.83692551 4.29841948 -0.850958526
v 10.4060774 4.55300999 -0.931699038
v 10.9079647 4.64555693 -1.04608774
v 10.7500648 4.7155571 -0.980603993
v 10.8874331 4.77707243 -0.975099683
v 11.1269541 4.73854733 -0.933879673
v 10.4631405 4.23518181 -1.010077
v 11.0376844 4.56892157 -1.05287397
v 10.495532 4.0466814 -1.0199964
v 8.92711544 3.17108655 -0.829750896
v 11.2842121 4.31717539 -1.06619644
v 8.94210911 2.62099123 -0.796122134
v 10.7718954 3.58258605 -1.01518416
v 11.4255238 4.35267496 -0.957701862
v 11.2511215 4.74681282 -0.667027414
v 11.4574232 4.33991623 -0.734973431
v 11.2607822 4.62663269 -0.532522857
v 11.6241436 3.89478016 -0.543014765
v 11.0974693 4.60731745 -0.461087674
v 9.05255127 1.87924433 -0.8116467
v 10.370389 2.71909714 -0.973335564
v 8.69577694 1.54071128 -0.741916656
v 11.3069715 3.7435205 -1.06959796
v 11.5240097 3.7994585 -1.08526587
v 11.6679554 3.85147786 -0.946685076
v 11.4089327 3.20049119 -1.07803583
v 11.5107727 3.47082877 -1.02381492
v 11.6937704 3.84408832 -0.741759539
v 11.6149225 3.5251677 -0.908530772
v 11.6810884 3.54092121 -0.731420636
v 11.7182236 3.58154774 -0.551039338
v 11.4368563 3.69463134 -0.461333454
v 11.5508337 3.40823507 -0.536731124
v 11.5904036 3.33727741 -0.725391209
v 11.6136045 3.32247972 -0.911722243
v 11.0664206 4.13291931 -0.437865585
v 10.9219465 4.50564432 -0.433557659
v 10.8236361 4.43132973 -0.326083034
v 11.2785225 3.60676384 -0.439343214
v 10.9938679 4.08595133 -0.325745881
v 10.8550167 4.41334152 -0.109611042
v 11.6268854 3.27003598 -1.04487932
v 11.7793941 3.22166014 -0.741759241
v 11.7627449 3.20316648 -0.566753745
v 11.4857798 3.0726037 -0.450036496
v 11.2054749 3.57766056 -0.299105376
v 11.0198078 4.08397579 -0.110501915
v 11.0015221 4.06764936 0.0947672278
v 10.8002577 4.33718872 0.129441366
v 10.7464876 4.21149445 0.194960207
v 11.2131662 3.07764125 0.1882772
v 11.2391176 3.55514097 -0.0948707163
v 11.8108044 3.23084712 -0.941159785
v 11.3916979 3.00319266 -0.298535407
v 11.228385 3.54725337 0.096254386
v 11.4248457 2.90809846 0.0912634954
v 10.7730799 3.49713898 0.197915956
v 10.5656309 4.12960863 0.212990031
v 10.4862556 4.02314615 0.351975769
v 10.6112185 3.73302507 0.306854934
v 10.5404482 3.93679309 0.532518923
v 10.5876083 3.86596179 0.651313245
v 10.6496544 3.71427369 0.661717355
v 10.7883272 3.28564382 0.663252473
v 10.5315084 3.91559196 0.78795439
v 10.5681677 3.70127368 0.835721016
v 10.2816219 3.87694788 0.857748747
v 10.7446651 3.36886168 0.299580365
v 11.0308285 2.79143 0.214227334
v 10.7331495 3.16095638 0.834856689
v 10.721921 2.28203535 0.864319921
v 10.8901863 2.71246648 0.265033424
v 11.3605452 2.26444983 0.194144443
v 11.1539345 2.22597241 0.221948788
v 11.5048342 2.27990031 0.0953424275
v 11.4847765 2.32912064 -0.304904044
v 11.5648327 2.35152507 -0.434721857
v 11.7130146 3.00730801 -0.467069656
v 11.9289522 3.0275805 -0.580154836
v 11.9477377 3.02105713 -0.763819814
v 11.5064631 1.69641292 0.102494702
v 11.4806433 1.75152969 -0.298518568
v 11.5869112 1.75532389 -0.40988028
v 11.9203005 1.2963444 -0.43557331
v 11.597043 1.39216626 -0.398344904
v 11.5984507 1.19082654 -0.434694022
v 11.4575548 1.40364206 -0.300654292
v 11.7545443 1.12170112 -0.439418823
v 11.4755182 1.39006174 -0.071357891
v 11.8783016 1.06554055 -0.436611086
v 11.3346682 1.48509157 0.212170616
v 11.431427 1.4017967 0.159006655
v 11.2497272 1.19295418 0.02392333
v 11.2273493 1.23796368 0.203845561
v 10.9630356 1.07693315 0.158096403
v 11.1866522 1.40818357 0.24282375
v 10.9937267 1.17670977 0.266474098
v 11.9693842 1.12629521 -0.522511899
v 11.8782139 0.999223173 -0.638926864
v 11.889183 1.02119493 -0.85518986
v 11.9358978 1.18720102 -0.98505038
v 11.8793659 1.07121015 -0.972502887
v 10.9987679 2.18742418 0.24043037
v 10.9077358 1.1352458 0.416104227
v 10.8304405 0.917295277 0.385806561
v 10.8423719 0.942741513 0.71960187
v 10.930892 1.15057206 0.665723264
v 10.8205385 1.01018906 0.87533164
v 10.944459 1.39655709 0.417670727
v 10.9743805 1.49375725 0.829625547
v 10.9340343 1.17819476 0.855209947
v 10.7315207 1.10828078 0.902900398
v 10.9825325 1.36682475 0.258940667
v 11.0038147 1.76039684 0.250774533
v 10.9120741 2.66083455 0.42942965
v 10.9550819 1.79513073 0.385660499
v 10.9707375 2.15882158 0.394213676
v 10.9457979 2.51628065 0.598494709
v 10.9943886 2.20209599 0.73431915
v 10.9533224 1.88316941 0.570898294
v 10.7802944 1.59555233 0.876763761
v 10.5843372 1.08933461 0.919633925
v 9.09468555 1.20744252 1.06375825
v 9.0608263 1.97949326 1.03707588
v 9.3988905 1.14817154 1.0358268
v 10.1061134 1.10323715 0.966671586
v 8.94892216 1.42530072 1.06590283
v 8.87890053 1.98997021 1.04313135
v 8.77255726 2.69362116 1.03762233
v 9.26461983 2.81230855 0.995585024
v 8.70036221 3.42308593 1.02299106
v 8.64546299 3.18547845 1.03351974
v 8.60126114 3.35741138 1.02867842
v 9.01114082 3.25288439 1.00520241
v 8.92801571 3.47170186 1.00602901
v 9.3573885 3.58591914 0.942790806
v 9.50142002 3.37256336 0.968841136
v 9.93187523 3.7966907 0.895572662
v 10.178092 0.715440214 -0.849722564
v 9.2986536 0.868988693 -0.737443626
v 9.29529953 0.780183375 -0.62955898
v 10.1517153 0.532793283 -0.740396857
v 10.8153725 0.884904325 -0.80526197
v 10.8181648 0.997063756 -0.929069519
v 11.2515583 1.17448556 -0.964504361
v 8.72244835 1.03862262 -0.346363187
v 8.59222126 1.3281399 -0.640099466
v 11.2615881 1.13554025 -0.633585751
v 11.2425575 1.14719856 -0.834910512
v 11.5952425 1.11067247 -0.830077708
v 11.6039362 1.1337837 -0.987654924
v 11.6009007 1.12402499 -0.630034924
v 11.7545443 1.12170112 -0.439418823
v 11.8783016 1.06554055 -0.436611086
v 11.8782139 0.999223173 -0.638926864
v 11.7619057 1.03904462 -0.835330665
v 11.7888069 1.08455825 -0.986333132
v 11.889183 1.02119493 -0.85518986
v 11.8793659 1.07121015 -0.972502887
v 9.29529953 0.780183375 -0.62955898
v 9.2986536 0.868988693 -0.737443626
v 9.55626583 1.15866041 -0.822415233
v 10.178092 0.715440214 -0.849722564
v 8.46005249 1.56600749 -0.437261909
v 8.54066658 1.19749296 -0.345105231
v 10.1763105 0.935149312 -0.872938275
v 10.8181648 0.997063756 -0.929069519
v 10.5561104 2.13180852 -0.958437681
v 10.8354425 1.18792474 -0.987549663
v 11.2515583 1.17448556 -0.964504361
v 10.4705658 1.7634263 -0.932396829
v 11.2542648 1.32003379 -1.02622128
v 11.6039362 1.1337837 -0.987654924
v 11.5492134 2.2642715 -1.05862749
v 11.6504469 1.73053479 -1.04131889
v 11.6542139 1.26236379 -1.04197705
v 11.6479893 3.06890488 -1.08158863
v 11.8043833 1.22447979 -1.03554642
v 11.7888069 1.08455825 -0.986333132
v 11.9818697 1.75550032 -1.02524769
v 11.7718372 2.42764378 -1.07990026
v 11.7713814 3.16879153 -1.08636665
v 11.8407726 3.00961995 -1.08471096
v 11.9652586 1.33736098 -0.99231565
v 11.9463387 2.42481542 -1.05465615
v 11.928442 3.0135181 -0.956376016
v 12.0145082 1.7310673 -0.869086385
v 12.045166 1.7485621 -0.54611212
v 12.0028009 1.2991147 -0.522488773
v 12.0112276 2.43596482 -0.919844031
v 12.0296078 2.44387531 -0.741027594
v 11.9479208 1.74453354 -0.458639741
v 11.9198542 2.41631794 -0.469284058
v 12.0453625 2.43693829 -0.566539288
v 11.8567648 2.88437438 -0.478903681
vt 0.978027344 0.630371094
vt 0.982910156 0.629394531
vt 0.982910156 0.623046875
vt 0.970214844 0.622558594
vt 0.97265625 0.634765625
vt 0.963867188 0.630371094
vt 0.954101562 0.624023438
vt 0.953613281 0.627929688
vt 0.943847656 0.62890625
vt 0.940917969 0.623046875
vt 0.952636719 0.611816406
vt 0.931640625 0.631835938
vt 0.937011719 0.636230469
vt 0.928710938 0.634765625
vt 0.933105469 0.639648438
vt 0.929199219 0.641113281
vt 0.92578125 0.638671875
vt 0.917480469 0.627441406
vt 0.9140625 0.630371094
vt 0.898925781 0.614257812
vt 0.897460938 0.618164062
vt 0.890625 0.612304688
vt 0.920898438 0.624023438
vt 0.926269531 0.616699219
vt 0.937011719 0.603027344
vt 0.909667969 0.604492188
vt 0.919921875 0.592285156
vt 0.891601562 0.608886719
vt 0.883300781 0.609375
vt 0.900390625 0.597167969
vt 0.894042969 0.60546875
vt 0.884765625 0.60546875
vt 0.887207031 0.602050781
vt 0.870117188 0.599609375
vt 0.867675781 0.603515625
vt 0.873535156 0.594726562
vt 0.851074219 0.58984375
vt 0.848632812 0.594238281
vt 0.854492188 0.584472656
vt 0.879882812 0.583984375
vt 0.892578125 0.591796875
vt 0.898925781 0.577636719
vt 0.849121094 0.551269531
vt 0.874023438 0.552246094
vt 0.90625 0.583496094
vt 0.833496094 0.578125
vt 0.8359375 0.585449219
vt 0.831542969 0.581542969
vt 0.836914062 0.57421875
vt 0.849121094 0.565917969
vt 0.830078125 0.576171875
vt 0.828125 0.581054688
vt 0.923828125 0.584472656
vt 0.84375 0.562988281
vt 0.83984375 0.561035156
vt 0.834472656 0.559082031
vt 0.82421875 0.574707031
vt 0.820800781 0.580078125
vt 0.844726562 0.552734375
vt 0.811523438 0.571777344
vt 0.807617188 0.576171875
vt 0.943359375 0.59375
vt 0.959960938 0.603515625
vt 0.842285156 0.548828125
vt 0.815917969 0.565917969
vt 0.794921875 0.53125
vt 0.792480469 0.564941406
vt 0.790039062 0.569824219
vt 0.794921875 0.553710938
vt 0.780273438 0.561035156
vt 0.779296875 0.565917969
vt 0.780761719 0.553222656
vt 0.773925781 0.558105469
vt 0.772460938 0.562988281
vt 0.768554688 0.559570312
vt 0.770019531 0.555175781
vt 0.775390625 0.549316406
vt 0.770507812 0.548828125
vt 0.770019531 0.54296875
vt 0.779296875 0.542480469
vt 0.7734375 0.540039062
vt 0.775878906 0.527832031
vt 0.766601562 0.538085938
vt 0.766601562 0.533203125
vt 0.767089844 0.525878906
vt 0.785644531 0.536621094
vt 0.771484375 0.518554688
vt 0.767089844 0.519042969
vt 0.778808594 0.518066406
vt 0.771484375 0.51171875
vt 0.766601562 0.514160156
vt 0.783203125 0.512695312
vt 0.767578125 0.504882812
vt 0.763183594 0.509277344
vt 0.771484375 0.501953125
vt 0.762207031 0.500488281
vt 0.759277344 0.504882812
vt 0.768554688 0.494384766
vt 0.774902344 0.499755859
vt 0.787597656 0.508789062
vt 0.775878906 0.49609375
vt 0.779785156 0.498046875
vt 0.790039062 0.504394531
vt 0.806640625 0.514160156
vt 0.827148438 0.525390625
vt 0.815429688 0.532714844
vt 0.835449219 0.544433594
vt 0.841308594 0.540527344
vt 0.852050781 0.537109375
vt 0.84765625 0.545898438
vt 0.854003906 0.546875
vt 0.874511719 0.548339844
vt 0.857421875 0.534179688
vt 0.854003906 0.510742188
vt 0.850097656 0.510742188
vt 0.860351562 0.475830078
vt 0.853027344 0.488525391
vt 0.857421875 0.470703125
vt 0.865234375 0.458251953
vt 0.860351562 0.459960938
vt 0.861816406 0.455810547
vt 0.8671875 0.450927734
vt 0.866210938 0.475097656
vt 0.869140625 0.45703125
vt 0.870605469 0.477539062
vt 0.866699219 0.527832031
vt 0.878417969 0.456787109
vt 0.879882812 0.53515625
vt 0.885253906 0.478759766
vt 0.879882812 0.452636719
vt 0.870117188 0.442626953
vt 0.881835938 0.447509766
vt 0.874511719 0.439697266
vt 0.893554688 0.446777344
vt 0.874511719 0.434326172
vt 0.8984375 0.543945312
vt 0.8984375 0.500976562
vt 0.900390625 0.557617188
vt 0.889648438 0.46484375
vt 0.891113281 0.459716797
vt 0.892089844 0.455566406
vt 0.903808594 0.470703125
vt 0.899414062 0.463623047
vt 0.894042969 0.451660156
vt 0.899414062 0.458496094
vt 0.900390625 0.453369141
vt 0.899902344 0.449462891
vt 0.898925781 0.442626953
vt 0.906738281 0.448242188
vt 0.90625 0.454833984
vt 0.905273438 0.460449219
vt 0.888183594 0.432861328
vt 0.877441406 0.429199219
vt 0.879882812 0.425048828
vt 0.901855469 0.438964844
vt 0.889648438 0.429443359
vt 0.883300781 0.419677734
vt 0.90625 0.46484375
vt 0.911621094 0.457519531
vt 0.913574219 0.453369141
vt 0.916992188 0.445556641
vt 0.903808594 0.434814453
vt 0.892578125 0.424072266
vt 0.895019531 0.419189453
vt 0.887695312 0.413818359
vt 0.891113281 0.411621094
vt 0.921386719 0.42578125
vt 0.906738281 0.430175781
vt 0.911132812 0.461914062
vt 0.919433594 0.441162109
vt 0.908691406 0.425537109
vt 0.925292969 0.432128906
vt 0.911132812 0.412841797
vt 0.893554688 0.40625
vt 0.897460938 0.402099609
vt 0.905273438 0.406738281
vt 0.90234375 0.3984375
vt 0.905761719 0.396240234
vt 0.91015625 0.397949219
vt 0.921386719 0.402832031
vt 0.905761719 0.391845703
vt 0.912109375 0.393066406
vt 0.907714844 0.384521484
vt 0.915527344 0.411132812
vt 0.9296875 0.421630859
vt 0.92578125 0.398925781
vt 0.94921875 0.402587891
vt 0.932617188 0.41796875
vt 0.941894531 0.432617188
vt 0.943847656 0.427490234
vt 0.940429688 0.436767578
vt 0.936035156 0.446044922
vt 0.934570312 0.449707031
vt 0.918945312 0.451171875
vt 0.91796875 0.456542969
vt 0.916992188 0.459960938
vt 0.954589844 0.440673828
vt 0.950683594 0.450683594
vt 0.94921875 0.454345703
vt 0.95703125 0.467041016
vt 0.958496094 0.458007812
vt 0.963867188 0.460693359
vt 0.959960938 0.453369141
vt 0.963378906 0.465576172
vt 0.961914062 0.447021484
vt 0.962890625 0.469482422
vt 0.961425781 0.4375
vt 0.962402344 0.440673828
vt 0.970214844 0.442871094
vt 0.968261719 0.437744141
vt 0.977050781 0.435302734
vt 0.96484375 0.434570312
vt 0.973632812 0.432128906
vt 0.959472656 0.471435547
vt 0.962402344 0.475830078
vt 0.958984375 0.481201172
vt 0.953125 0.481689453
vt 0.956054688 0.483642578
vt 0.945800781 0.423583984
vt 0.976074219 0.427001953
vt 0.982910156 0.428222656
vt 0.982910156 0.418701172
vt 0.9765625 0.419677734
vt 0.981933594 0.4140625
vt 0.968261719 0.425292969
vt 0.968261719 0.413574219
vt 0.9765625 0.414550781
vt 0.98046875 0.41015625
vt 0.967773438 0.429931641
vt 0.95703125 0.427001953
vt 0.935546875 0.414306641
vt 0.957519531 0.422851562
vt 0.948242188 0.419921875
vt 0.940429688 0.411376953
vt 0.949707031 0.410888672
vt 0.956542969 0.417480469
vt 0.966796875 0.407714844
vt 0.981933594 0.40625
vt 0.987792969 0.36328125
vt 0.966308594 0.358398438
vt 0.987792969 0.372314453
vt 0.984863281 0.392578125
vt 0.982421875 0.358154297
vt 0.966796875 0.353027344
vt 0.947265625 0.346679688
vt 0.941894531 0.360107422
vt 0.927246094 0.341308594
vt 0.934082031 0.340820312
vt 0.9296875 0.338867188
vt 0.930664062 0.350830078
vt 0.924804688 0.347412109
vt 0.919433594 0.359375
vt 0.924804688 0.364257812
vt 0.911132812 0.374755859
vt 0.949707031 0.5859375
vt 0.927734375 0.574707031
vt 0.92578125 0.578125
vt 0.945800781 0.590332031
vt 0.96484375 0.598632812
vt 0.96875 0.595214844
vt 0.981933594 0.602050781
vt 0.906738281 0.576171875
vt 0.903808594 0.564453125
vt 0.9765625 0.611328125
vt 0.979492188 0.60546875
vt 0.989746094 0.611328125
vt 0.9921875 0.606933594
vt 0.986328125 0.6171875
vt 0.987792969 0.625
vt 0.991699219 0.626953125
vt 0.995605469 0.621582031
vt 0.994628906 0.614257812
vt 0.997558594 0.609863281
vt 0.998535156 0.615234375
vt 1 0.611328125
vt 0.928710938 0.557617188
vt 0.926269531 0.5546875
vt 0.923339844 0.543457031
vt 0.943847656 0.534667969
vt 0.893554688 0.566894531
vt 0.901367188 0.573730469
vt 0.938476562 0.53125
vt 0.946289062 0.514160156
vt 0.914550781 0.504882812
vt 0.94140625 0.510742188
vt 0.947753906 0.500488281
vt 0.922363281 0.512207031
vt 0.943359375 0.498535156
vt 0.952636719 0.491455078
vt 0.924316406 0.481445312
vt 0.9375 0.484375
vt 0.94921875 0.488769531
vt 0.91015625 0.468505859
vt 0.951171875 0.485107422
vt 0.955078125 0.486328125
vt 0.939941406 0.476806641
vt 0.923828125 0.474609375
vt 0.911132812 0.465087891
vt 0.9140625 0.466308594
vt 0.949707031 0.480224609
vt 0.92578125 0.471191406
vt 0.915527344 0.463623047
vt 0.942382812 0.473388672
vt 0.944824219 0.466064453
vt 0.955566406 0.469726562
vt 0.926757812 0.468017578
vt 0.928222656 0.464355469
vt 0.946289062 0.463134766
vt 0.931152344 0.457519531
vt 0.930175781 0.4609375
vt 0.921386719 0.454589844
vn 0.833476543 -0.260804802 0.487132221
vn 0.34905234 -0.057098031 0.935362101
vn 0.062718153 -0.670689285 0.739082038
vn 0.536665797 -0.824473381 0.179536492
vn 0.903678715 -0.426246405 0.0409733802
vn 0.581573725 -0.792341948 0.18429938
vn 0.624611974 -0.765638769 0.153808966
vn 0.676524818 -0.672664046 0.299728721
vn 0.754432082 -0.651149094 0.0826868042
vn 0.392304063 -0.913772702 0.10543634
vn 0.480183691 -0.875992656 0.0453922749
vn 0.225580946 -0.913275301 0.339177638
vn 0.714786649 -0.671625435 0.194934383
vn 0.157559127 -0.581963241 0.797805727
vn 0.541008234 -0.466282159 0.699922264
vn 0.166160196 -0.038600225 0.985342979
vn 0.0973338485 -0.0496182516 0.994014204
vn 0.00859386381 -0.63820672 0.769817054
vn 0.0852279514 -0.108332925 0.990454495
vn -0.0689409748 -0.729689896 0.680293918
vn 0.0691347495 -0.181629002 0.980933845
vn -0.0233169366 -0.160168678 0.98681426
vn -0.0629180372 -0.924765825 0.375299245
vn -0.03531266 -0.966087043 0.255790621
vn 0.0642284304 -0.980692923 0.184705511
vn -0.200174838 -0.94754231 0.249185994
vn -0.231215432 -0.954993784 0.18581222
vn -0.391710758 -0.61254251 0.686552525
vn -0.143687129 -0.00361118163 0.989616632
vn -0.501159251 -0.838122427 0.215383679
vn -0.538367331 -0.792567492 0.28635183
vn -0.657884359 -0.196115375 0.727136135
vn -0.85865742 -0.380889416 0.342973351
vn -0.775618374 -0.0551789179 0.628785729
vn -0.332206368 -0.0179364178 0.943036139
vn -0.917637587 -0.0883039609 0.387483597
vn -0.818970084 -0.142487749 0.555864513
vn -0.364711136 -0.0640019327 0.928918421
vn -0.915142775 -0.1357335 0.379591882
vn -0.958605349 -0.142903715 0.246280804
vn -0.849002123 -0.467649877 0.245965555
vn -0.868984044 -0.475425124 0.13725026
vn -0.987798929 0.12107183 0.0979527533
vn -0.896241426 -0.135580525 -0.42233786
vn -0.54177928 -0.835332453 0.093247138
vn -0.815655589 0.261299789 0.516167045
vn -0.38291949 -0.0819391012 0.920140505
vn -0.442308515 0.186892956 0.87717402
vn -0.935908616 0.163437024 0.312030911
vn -0.957047105 -0.176312476 0.230162382
vn -0.481920749 0.747613311 0.456975579
vn -0.121135801 0.428351879 0.895455658
vn -0.330930501 -0.942535758 -0.0459483527
vn -0.973518431 0.0390636213 0.22524631
vn -0.72336036 0.661822438 0.196827084
vn -0.41896233 0.89003706 0.179734886
vn -0.284040391 0.842059851 0.458537132
vn -0.0126224561 0.38607958 0.922379076
vn -0.854779363 0.509987056 0.0962570161
vn -0.197958142 0.745156705 0.636831224
vn -0.0244970713 0.309780061 0.950492561
vn 0.120833896 -0.987266362 0.103461757
vn 0.487502903 -0.87220794 -0.0399272665
vn -0.639504075 0.756846428 0.134974286
vn -0.332888722 0.900384307 0.280166179
vn -0.359821469 0.909785092 0.206928954
vn -0.148226798 0.706308365 0.692211986
vn 0.0551083535 0.219329745 0.974093199
vn -0.296347946 0.914323092 0.276027352
vn 0.181430966 0.681964636 0.708524525
vn 0.125810653 0.336391002 0.933280706
vn 0.0809987411 0.909735084 0.407211632
vn 0.576973855 0.733966768 0.35832113
vn 0.540235639 0.567906499 0.620989323
vn 0.887638092 0.456573993 0.0603223592
vn 0.881596148 0.471277088 -0.02619466
vn 0.665643454 0.637940168 0.387235165
vn 0.90548867 0.285309613 0.31414777
vn 0.516909599 0.104191288 0.849675536
vn -0.00857051369 0.886417985 0.462806404
vn 0.258601815 0.618922949 0.74165988
vn -0.0791227445 0.920783639 0.381964624
vn 0.257502854 0.202899411 0.944734871
vn 0.40533942 0.652976811 0.63978225
vn 0.663393497 0.717069149 0.213824764
vn -0.283457339 0.914876103 0.287495494
vn 0.395631105 0.824876368 0.403800726
vn 0.830316842 0.451337993 0.326906711
vn -0.235141084 0.937211514 0.257571727
vn -0.00576302921 0.824391484 0.565990686
vn 0.28538689 0.365775973 0.885868073
vn -0.327141613 0.928632975 0.17498365
vn -0.0270356331 0.882300258 0.469910055
vn 0.13355431 0.415846705 0.899574816
vn -0.135445505 0.987899482 0.0755583122
vn 0.561050057 0.812874675 0.156389177
vn 0.562646329 0.482564867 0.671237886
vn 0.376754493 0.782155931 -0.496274412
vn -0.230607972 0.970043123 0.0763963908
vn -0.384348691 0.923153758 -0.00794334151
vn -0.057986699 0.902357459 -0.427069753
vn -0.386801332 0.749085367 -0.537825108
vn -0.389877766 0.732159555 -0.55851382
vn -0.410560429 0.738312781 -0.535102129
vn -0.408351123 0.711557806 -0.571782231
vn -0.374280453 0.911219358 0.172027528
vn -0.396715492 0.902152598 0.169521362
vn -0.532321572 0.804770172 -0.262637794
vn -0.578757048 0.279043704 -0.76627332
vn -0.873306453 0.456064045 -0.171293706
vn -0.95496887 0.00549450703 -0.29665491
vn -0.427011728 -0.0568846129 -0.902455091
vn -0.226414457 0.045373898 -0.972973645
vn -0.256536752 0.281057149 -0.924767971
vn -0.408351123 0.711557806 -0.571782231
vn -0.210092783 0.218933612 -0.952853084
vn -0.410560429 0.738312781 -0.535102129
vn -0.389877766 0.732159555 -0.55851382
vn -0.0072972686 0.302073807 -0.953256667
vn -0.386801332 0.749085367 -0.537825108
vn -0.057986699 0.902357459 -0.427069753
vn 0.376754493 0.782155931 -0.496274412
vn -0.106651135 0.0163949374 -0.994161308
vn 0.14627938 0.237279803 -0.960364819
vn -0.0872522369 -0.0106614372 -0.996129155
vn -0.121791676 -0.0366444327 -0.991879106
vn 0.264431387 0.209827319 -0.941301525
vn -0.0992668867 -0.0236191563 -0.994780481
vn -0.0933426917 -0.0228248686 -0.995372355
vn 0.751142263 0.438829005 -0.493167639
vn 0.561050057 0.812874675 0.156389177
vn 0.895475626 0.44161889 0.0556433201
vn 0.562646329 0.482564867 0.671237886
vn 0.707227111 0.255593896 0.659167349
vn 0.13355431 0.415846705 0.899574816
vn -0.123395339 -0.0378665626 -0.991634846
vn -0.104784667 -0.0222629961 -0.994245708
vn -0.326322407 -0.13966091 -0.93488425
vn -0.0441397503 -0.0300796907 -0.998572469
vn 0.385214388 -0.0144895576 -0.922713399
vn 0.882430255 0.138289943 -0.449658453
vn 0.00248583639 0.0429853238 -0.999072552
vn 0.518452644 0.0510104224 -0.853583395
vn 0.97079289 0.238568872 0.0254179705
vn 0.880408406 -0.161465868 -0.44588083
vn 0.938796878 -0.316782236 -0.135312527
vn 0.837272048 -0.233648941 0.494351745
vn 0.228881687 -0.0118811447 0.973381758
vn 0.628675938 0.0180416051 0.777458072
vn 0.927975297 0.36951071 0.0482052267
vn 0.79735744 0.587082386 -0.139840335
vn 0.454606235 0.192797884 0.869575858
vn 0.28538689 0.365775973 0.885868073
vn 0.830316842 0.451337993 0.326906711
vn 0.560156763 0.174869135 0.809719265
vn 0.877081394 0.396401286 0.271282613
vn 0.663393497 0.717069149 0.213824764
vn 0.33427304 0.524841607 -0.782817245
vn 0.631567776 0.767184317 0.112028793
vn 0.568798184 0.603978455 0.558281898
vn 0.526181281 0.196480185 0.827362537
vn 0.913598239 0.35413599 0.199814647
vn 0.909787297 0.415064991 0.00285102683
vn 0.760505438 0.36201492 0.539051533
vn 0.40533942 0.652976811 0.63978225
vn 0.257502854 0.202899396 0.944734871
vn 0.345957428 0.0997657552 0.932931006
vn 0.940660298 0.338914424 -0.0171824601
vn 0.659232736 0.729390502 -0.182761252
vn 0.939966381 0.205143631 0.272725731
vn 0.788984418 0.289004356 0.542199194
vn 0.851315796 0.176481113 0.494080633
vn 0.461156458 0.164742991 0.871891379
vn 0.516909599 0.104191288 0.849675536
vn 0.90548867 0.285309613 0.31414777
vn 0.890456736 0.331663907 0.311586201
vn 0.881596148 0.471277088 -0.02619466
vn 0.887638092 0.456573993 0.0603223592
vn 0.932591856 0.324454784 0.158118561
vn 0.94833678 0.250504941 0.194690853
vn 0.540235639 0.567906499 0.620989323
vn 0.538079143 0.191981211 0.820739985
vn 0.12542747 0.336732954 0.933209002
vn 0.90701586 0.295880407 0.299628019
vn 0.220294312 0.0481124483 0.974246144
vn 0.582640707 0.128675431 0.802478909
vn 0.269696176 0.0342252143 0.962337017
vn 0.805803537 0.165070862 0.568711162
vn 0.362795949 0.0418312624 0.930929244
vn 0.134710431 0.0209417716 0.990663648
vn 0.888031185 0.0648136958 0.455192149
vn 0.962362528 0.0747838318 0.261277139
vn 0.504997611 0.0643519461 0.860718429
vn 0.218737274 0.233695537 0.947386026
vn 0.791260004 0.409324944 0.45426932
vn 0.928131223 0.37206465 0.011837706
vn 0.898181379 -0.0353166126 0.438204229
vn 0.941296637 -0.031968873 0.336063385
vn 0.442265123 0.0179055072 0.896705568
vn 0.435939878 -0.0667049438 0.897500455
vn 0.34905234 -0.057098031 0.935362101
vn 0.062718153 -0.670689285 0.739082038
vn 0.833476543 -0.260804802 0.487132221
vn -0.232925788 -0.568926871 0.7887128
vn 0.903678715 -0.426246405 0.0409733802
vn 0.20793286 -0.637866497 0.741545975
vn 0.376875877 -0.0404558629 0.925379813
vn 0.729382753 -0.355736792 0.584339023
vn 0.581573725 -0.792341948 0.18429938
vn 0.479527116 -0.564598262 0.671775699
vn 0.676524818 -0.672664046 0.299728721
vn 0.198138416 -0.0470335484 0.979044974
vn 0.672673702 -0.423327953 0.606880069
vn 0.890744925 -0.35449475 0.28444162
vn 0.250757605 -0.961890876 0.109025776
vn 0.453113198 -0.855504811 -0.250599116
vn 0.767652273 -0.251626819 -0.589401245
vn 0.4102301 -0.685661137 -0.60131526
vn 0.661554039 0.0484701581 0.748329341
vn 0.945585966 -0.287903756 0.151586741
vn 0.754432082 -0.651149094 0.0826868042
vn 0.714786649 -0.671625435 0.194934383
vn 0.958939254 -0.283603698 0.00210200646
vn 0.541008234 -0.466282159 0.699922264
vn 0.992387772 -0.0615585037 0.106663868
vn 0.806894541 -0.0119975917 0.590573668
vn 0.776817858 -0.217804894 0.590859652
vn 0.166160196 -0.038600225 0.985342979
vn 0.656915367 0.0305208098 0.753346324
vn 0.61694622 0.00160860375 0.787003636
vn 0.980700731 0.190410286 -0.0443856306
vn 0.984122634 -0.0175987538 0.176615417
vn 0.996355176 0.0290691387 0.0801965594
vn 0.982117593 0.179800689 0.0558284819
vn 0.884401917 0.0562639125 0.463322282
vn 0.997969925 -0.0348017216 -0.0533368923
vn 0.212427005 0.0562950335 0.975554049
vn 0.0974059254 -0.0492136106 0.994027138
vn -0.0233324114 -0.160200074 0.986808658
vn 0.0772034451 0.0304230917 0.996551037
vn 0.0691347495 -0.181629002 0.980933845
vn 0.0852279514 -0.108332925 0.990454495
vn -0.143687129 -0.00361118163 0.989616632
vn -0.332206368 -0.0179364178 0.943036139
vn -0.364711136 -0.0640019327 0.928918421
vn 0.0948765948 0.0266787261 0.995131493
vn -0.121135801 0.428351879 0.895455658
vn -0.38291949 -0.0819391012 0.920140505
vn -0.442308515 0.186892956 0.87717402
vn 0.0841564238 0.0401005037 0.995645404
vn -0.0126224561 0.38607958 0.922379076
vn -0.0244970713 0.309780061 0.950492561
vn 0.079704836 0.0677826479 0.994511247
vn 0.0551083535 0.219329745 0.974093199
vn -0.0372224823 -0.368287355 -0.928966582
vn -0.301821291 -0.499166429 -0.812241852
vn -0.396080464 -0.794520319 -0.46028021
vn 0.0579513721 -0.889283717 -0.453669488
vn 0.394800633 -0.837238669 -0.378370106
vn 0.115267865 -0.520614386 -0.845975101
vn 0.0696147382 -0.723555505 -0.686746836
vn -0.597328067 -0.778647959 -0.192110702
vn -0.665597737 -0.399447769 -0.630413473
vn 0.259905607 -0.965205193 0.0287759807
vn 0.236310527 -0.962435484 -0.133698657
vn -0.244701073 -0.96791625 -0.0570909753
vn -0.172413304 -0.733629048 -0.657314301
vn -0.219066069 -0.954676867 0.201499805
vn -0.232925788 -0.568926871 0.7887128
vn 0.20793286 -0.637866497 0.741545975
vn 0.250757605 -0.961890876 0.109025776
vn -0.28308475 -0.949062943 -0.138356477
vn -0.0888479576 -0.706019163 -0.70259738
vn 0.453113198 -0.855504811 -0.250599116
vn 0.4102301 -0.685661137 -0.60131526
vn -0.396080464 -0.794520319 -0.46028021
vn -0.301821291 -0.499166429 -0.812241852
vn -0.127014101 -0.104022309 -0.986431301
vn -0.0372224823 -0.368287355 -0.928966582
vn -0.972566187 -0.202761024 -0.114030547
vn -0.841301739 -0.526123405 -0.124119245
vn -0.111631848 -0.0849723741 -0.990110099
vn 0.115267865 -0.520614386 -0.845975101
vn -0.0931216404 -0.0471370146 -0.994538248
vn -0.0633336157 -0.161301434 -0.984870851
vn 0.0696147382 -0.723555505 -0.686746836
vn -0.104650766 -0.0269424822 -0.994144022
vn -0.0629817545 -0.160758257 -0.984982312
vn -0.172413304 -0.733629048 -0.657314301
vn -0.0918094665 -0.0487708189 -0.994581521
vn -0.0226506814 -0.0161605626 -0.999612868
vn -0.0341895372 -0.18925415 -0.981332779
vn -0.0333440602 0.0426443219 -0.998533726
vn 0.119133696 -0.186730117 -0.975161016
vn -0.0888479576 -0.706019163 -0.70259738
vn 0.665361583 -0.0127676465 -0.746412039
vn 0.0346987285 -0.0335779749 -0.998833597
vn 0.396646678 0.405332625 -0.823636293
vn 0.490007997 0.157249868 -0.857417464
vn 0.778945386 -0.132471189 -0.612940013
vn 0.606232345 0.0141746551 -0.795161307
vn 0.896044493 0.286692888 -0.33898589
vn 0.987994611 -0.0334643014 -0.150820419
vn 0.931097865 -0.0235255286 0.364010096
vn 0.935725927 -0.119970046 0.331698924
vn 0.958528161 0.05952828 -0.278711736
vn 0.993013442 0.0802588239 -0.0865039155
vn 0.439054906 0.0193192828 0.898252428
vn 0.379189134 0.0482889041 0.924058318
vn 0.917845726 0.0893944129 0.386740029
vn 0.41247803 0.164129272 0.89605999
g ShiTou2_0
f 3/3/3 2/2/2 1/1/1
f 1/1/1 4/4/4 3/3/3
f 1/1/1 5/5/5 4/4/4
f 4/4/4 5/5/5 6/6/6
f 7/7/7 4/4/4 6/6/6
f 6/6/6 8/8/8 7/7/7
f 7/7/7 8/8/8 9/9/9
f 9/9/9 10/10/10 7/7/7
f 4/4/4 7/7/7 11/11/11
f 11/11/11 7/7/7 10/10/10
f 12/12/12 10/10/10 9/9/9
f 9/9/9 13/13/13 12/12/12
f 14/14/14 12/12/12 13/13/13
f 13/13/13 15/15/15 14/14/14
f 14/14/14 15/15/15 16/16/16
f 17/17/17 14/14/14 16/16/16
f 18/18/18 14/14/14 17/17/17
f 17/17/17 19/19/19 18/18/18
f 20/20/20 18/18/18 19/19/19
f 19/19/19 21/21/21 20/20/20
f 20/20/20 21/21/21 22/22/22
f 14/14/14 18/18/18 23/23/23
f 23/23/23 12/12/12 14/14/14
f 20/20/20 23/23/23 18/18/18
f 24/24/24 10/10/10 12/12/12
f 24/24/24 12/12/12 23/23/23
f 25/25/25 11/11/11 10/10/10
f 10/10/10 24/24/24 25/25/25
f 26/26/26 24/24/24 23/23/23
f 20/20/20 26/26/26 23/23/23
f 26/26/26 27/27/27 24/24/24
f 27/27/27 25/25/25 24/24/24
f 22/22/22 28/28/28 20/20/20
f 28/28/28 22/22/22 29/29/29
f 30/30/30 26/26/26 20/20/20
f 27/27/27 26/26/26 30/30/30
f 20/20/20 28/28/28 31/31/31
f 31/31/31 30/30/30 20/20/20
f 28/28/28 29/29/29 32/32/32
f 31/31/31 28/28/28 32/32/32
f 30/30/30 31/31/31 33/33/33
f 32/32/32 33/33/33 31/31/31
f 34/34/34 32/32/32 29/29/29
f 29/29/29 35/35/35 34/34/34
f 36/36/36 33/33/33 32/32/32
f 32/32/32 34/34/34 36/36/36
f 37/37/37 34/34/34 35/35/35
f 38/38/38 37/37/37 35/35/35
f 39/39/39 36/36/36 34/34/34
f 34/34/34 37/37/37 39/39/39
f 36/36/36 40/40/40 33/33/33
f 36/36/36 39/39/39 40/40/40
f 33/33/33 41/41/41 30/30/30
f 40/40/40 41/41/41 33/33/33
f 41/41/41 40/40/40 42/42/42
f 43/43/43 42/42/42 40/40/40
f 42/42/42 43/43/43 44/44/44
f 45/45/45 30/30/30 41/41/41
f 41/41/41 42/42/42 45/45/45
f 30/30/30 45/45/45 27/27/27
f 46/46/46 37/37/37 38/38/38
f 38/38/38 47/47/47 46/46/46
f 47/47/47 48/48/48 46/46/46
f 39/39/39 37/37/37 49/49/49
f 46/46/46 49/49/49 37/37/37
f 39/39/39 50/50/50 40/40/40
f 50/50/50 43/43/43 40/40/40
f 49/49/49 50/50/50 39/39/39
f 46/46/46 48/48/48 51/51/51
f 51/51/51 49/49/49 46/46/46
f 48/48/48 52/52/52 51/51/51
f 53/53/53 27/27/27 45/45/45
f 25/25/25 27/27/27 53/53/53
f 54/54/54 50/50/50 49/49/49
f 50/50/50 54/54/54 43/43/43
f 55/55/55 54/54/54 49/49/49
f 49/49/49 51/51/51 55/55/55
f 56/56/56 55/55/55 51/51/51
f 51/51/51 57/57/57 56/56/56
f 51/51/51 52/52/52 57/57/57
f 57/57/57 52/52/52 58/58/58
f 59/59/59 54/54/54 55/55/55
f 54/54/54 59/59/59 43/43/43
f 59/59/59 55/55/55 56/56/56
f 60/60/60 57/57/57 58/58/58
f 58/58/58 61/61/61 60/60/60
f 53/53/53 62/62/62 25/25/25
f 25/25/25 62/62/62 11/11/11
f 62/62/62 63/63/63 11/11/11
f 63/63/63 4/4/4 11/11/11
f 43/43/43 59/59/59 64/64/64
f 56/56/56 64/64/64 59/59/59
f 60/60/60 65/65/65 57/57/57
f 57/57/57 65/65/65 56/56/56
f 66/66/66 56/56/56 65/65/65
f 60/60/60 61/61/61 67/67/67
f 61/61/61 68/68/68 67/67/67
f 69/69/69 65/65/65 60/60/60
f 65/65/65 69/69/69 66/66/66
f 60/60/60 67/67/67 69/69/69
f 70/70/70 67/67/67 68/68/68
f 68/68/68 71/71/71 70/70/70
f 67/67/67 70/70/70 72/72/72
f 72/72/72 69/69/69 67/67/67
f 70/70/70 71/71/71 73/73/73
f 72/72/72 70/70/70 73/73/73
f 74/74/74 73/73/73 71/71/71
f 75/75/75 73/73/73 74/74/74
f 76/76/76 73/73/73 75/75/75
f 73/73/73 76/76/76 77/77/77
f 73/73/73 77/77/77 72/72/72
f 76/76/76 78/78/78 77/77/77
f 78/78/78 79/79/79 77/77/77
f 69/69/69 72/72/72 80/80/80
f 72/72/72 77/77/77 80/80/80
f 77/77/77 79/79/79 81/81/81
f 80/80/80 77/77/77 81/81/81
f 81/81/81 82/82/82 80/80/80
f 81/81/81 79/79/79 83/83/83
f 81/81/81 83/83/83 84/84/84
f 82/82/82 81/81/81 84/84/84
f 84/84/84 85/85/85 82/82/82
f 80/80/80 86/86/86 69/69/69
f 80/80/80 82/82/82 86/86/86
f 66/66/66 69/69/69 86/86/86
f 66/66/66 86/86/86 82/82/82
f 87/87/87 82/82/82 85/85/85
f 85/85/85 88/88/88 87/87/87
f 82/82/82 87/87/87 89/89/89
f 82/82/82 89/89/89 66/66/66
f 90/90/90 87/87/87 88/88/88
f 87/87/87 90/90/90 89/89/89
f 88/88/88 91/91/91 90/90/90
f 66/66/66 89/89/89 92/92/92
f 90/90/90 92/92/92 89/89/89
f 93/93/93 90/90/90 91/91/91
f 91/91/91 94/94/94 93/93/93
f 93/93/93 95/95/95 90/90/90
f 90/90/90 95/95/95 92/92/92
f 96/96/96 93/93/93 94/94/94
f 95/95/95 93/93/93 96/96/96
f 94/94/94 97/97/97 96/96/96
f 96/96/96 98/98/98 95/95/95
f 98/98/98 99/99/99 95/95/95
f 92/92/92 95/95/95 99/99/99
f 99/99/99 100/100/100 92/92/92
f 101/101/101 99/99/99 98/98/98
f 99/99/99 101/101/101 102/102/102
f 103/103/103 99/99/99 102/102/102
f 99/99/99 103/103/103 100/100/100
f 100/100/100 103/103/103 104/104/104
f 100/100/100 104/104/104 105/105/105
f 106/106/106 92/92/92 100/100/100
f 92/92/92 106/106/106 66/66/66
f 66/66/66 106/106/106 56/56/56
f 107/107/107 56/56/56 106/106/106
f 106/106/106 100/100/100 107/107/107
f 107/107/107 64/64/64 56/56/56
f 108/108/108 100/100/100 105/105/105
f 108/108/108 107/107/107 100/100/100
f 64/64/64 107/107/107 108/108/108
f 105/105/105 109/109/109 108/108/108
f 108/108/108 110/110/110 64/64/64
f 109/109/109 110/110/110 108/108/108
f 64/64/64 110/110/110 43/43/43
f 43/43/43 110/110/110 111/111/111
f 111/111/111 110/110/110 109/109/109
f 43/43/43 111/111/111 44/44/44
f 111/111/111 109/109/109 44/44/44
f 112/112/112 44/44/44 109/109/109
f 109/109/109 113/113/113 112/112/112
f 114/114/114 113/113/113 109/109/109
f 109/109/109 115/115/115 114/114/114
f 116/116/116 114/114/114 115/115/115
f 115/115/115 117/117/117 116/116/116
f 117/117/117 118/118/118 116/116/116
f 119/119/119 116/116/116 118/118/118
f 118/118/118 120/120/120 119/119/119
f 119/119/119 120/120/120 121/121/121
f 121/121/121 122/122/122 119/119/119
f 123/123/123 116/116/116 119/119/119
f 114/114/114 116/116/116 123/123/123
f 119/119/119 124/124/124 123/123/123
f 122/122/122 124/124/124 119/119/119
f 114/114/114 123/123/123 125/125/125
f 125/125/125 123/123/123 124/124/124
f 113/113/113 114/114/114 126/126/126
f 125/125/125 126/126/126 114/114/114
f 127/127/127 124/124/124 122/122/122
f 124/124/124 127/127/127 125/125/125
f 113/113/113 126/126/126 128/128/128
f 128/128/128 112/112/112 113/113/113
f 126/126/126 125/125/125 129/129/129
f 129/129/129 125/125/125 127/127/127
f 129/129/129 128/128/128 126/126/126
f 130/130/130 127/127/127 122/122/122
f 130/130/130 122/122/122 131/131/131
f 131/131/131 132/132/132 130/130/130
f 132/132/132 131/131/131 133/133/133
f 133/133/133 134/134/134 132/132/132
f 135/135/135 134/134/134 133/133/133
f 136/136/136 112/112/112 128/128/128
f 128/128/128 129/129/129 137/137/137
f 137/137/137 136/136/136 128/128/128
f 112/112/112 136/136/136 138/138/138
f 44/44/44 112/112/112 138/138/138
f 139/139/139 129/129/129 127/127/127
f 140/140/140 127/127/127 130/130/130
f 140/140/140 139/139/139 127/127/127
f 141/141/141 130/130/130 132/132/132
f 130/130/130 141/141/141 140/140/140
f 142/142/142 129/129/129 139/139/139
f 142/142/142 137/137/137 129/129/129
f 139/139/139 140/140/140 143/143/143
f 143/143/143 142/142/142 139/139/139
f 132/132/132 144/144/144 141/141/141
f 144/144/144 132/132/132 134/134/134
f 140/140/140 141/141/141 145/145/145
f 145/145/145 143/143/143 140/140/140
f 141/141/141 144/144/144 146/146/146
f 146/146/146 145/145/145 141/141/141
f 144/144/144 134/134/134 147/147/147
f 144/144/144 147/147/147 146/146/146
f 147/147/147 134/134/134 148/148/148
f 148/148/148 134/134/134 135/135/135
f 146/146/146 147/147/147 149/149/149
f 148/148/148 149/149/149 147/147/147
f 145/145/145 146/146/146 150/150/150
f 146/146/146 149/149/149 150/150/150
f 143/143/143 145/145/145 151/151/151
f 151/151/151 145/145/145 150/150/150
f 135/135/135 152/152/152 148/148/148
f 153/153/153 152/152/152 135/135/135
f 152/152/152 153/153/153 154/154/154
f 155/155/155 148/148/148 152/152/152
f 149/149/149 148/148/148 155/155/155
f 154/154/154 156/156/156 152/152/152
f 155/155/155 152/152/152 156/156/156
f 156/156/156 154/154/154 157/157/157
f 151/151/151 158/158/158 143/143/143
f 143/143/143 158/158/158 142/142/142
f 151/151/151 150/150/150 159/159/159
f 150/150/150 149/149/149 160/160/160
f 160/160/160 159/159/159 150/150/150
f 161/161/161 149/149/149 155/155/155
f 160/160/160 149/149/149 161/161/161
f 156/156/156 162/162/162 155/155/155
f 161/161/161 155/155/155 162/162/162
f 157/157/157 163/163/163 156/156/156
f 156/156/156 163/163/163 162/162/162
f 164/164/164 163/163/163 157/157/157
f 157/157/157 165/165/165 164/164/164
f 165/165/165 166/166/166 164/164/164
f 164/164/164 166/166/166 167/167/167
f 168/168/168 162/162/162 163/163/163
f 168/168/168 163/163/163 164/164/164
f 159/159/159 169/169/169 151/151/151
f 158/158/158 151/151/151 169/169/169
f 162/162/162 170/170/170 161/161/161
f 162/162/162 168/168/168 170/170/170
f 164/164/164 171/171/171 168/168/168
f 167/167/167 171/171/171 164/164/164
f 172/172/172 168/168/168 171/171/171
f 172/172/172 170/170/170 168/168/168
f 167/167/167 172/172/172 171/171/171
f 173/173/173 167/167/167 166/166/166
f 173/173/173 166/166/166 174/174/174
f 174/174/174 175/175/175 173/173/173
f 176/176/176 173/173/173 175/175/175
f 177/177/177 176/176/176 175/175/175
f 177/177/177 178/178/178 176/176/176
f 178/178/178 179/179/179 176/176/176
f 180/180/180 176/176/176 179/179/179
f 179/179/179 178/178/178 181/181/181
f 181/181/181 182/182/182 179/179/179
f 180/180/180 179/179/179 182/182/182
f 181/181/181 183/183/183 182/182/182
f 184/184/184 173/173/173 176/176/176
f 176/176/176 180/180/180 184/184/184
f 185/185/185 173/173/173 184/184/184
f 167/167/167 173/173/173 185/185/185
f 182/182/182 186/186/186 180/180/180
f 183/183/183 186/186/186 182/182/182
f 187/187/187 186/186/186 183/183/183
f 184/184/184 188/188/188 185/185/185
f 188/188/188 184/184/184 180/180/180
f 167/167/167 185/185/185 189/189/189
f 190/190/190 185/185/185 188/188/188
f 185/185/185 190/190/190 189/189/189
f 167/167/167 189/189/189 191/191/191
f 191/191/191 172/172/172 167/167/167
f 172/172/172 191/191/191 192/192/192
f 192/192/192 170/170/170 172/172/172
f 192/192/192 193/193/193 170/170/170
f 161/161/161 170/170/170 193/193/193
f 194/194/194 161/161/161 193/193/193
f 161/161/161 194/194/194 160/160/160
f 195/195/195 160/160/160 194/194/194
f 159/159/159 160/160/160 195/195/195
f 195/195/195 196/196/196 159/159/159
f 169/169/169 159/159/159 196/196/196
f 191/191/191 189/189/189 197/197/197
f 198/198/198 192/192/192 191/191/191
f 191/191/191 197/197/197 198/198/198
f 199/199/199 193/193/193 192/192/192
f 192/192/192 198/198/198 199/199/199
f 194/194/194 193/193/193 200/200/200
f 193/193/193 199/199/199 200/200/200
f 199/199/199 201/201/201 200/200/200
f 201/201/201 202/202/202 200/200/200
f 203/203/203 201/201/201 199/199/199
f 199/199/199 198/198/198 203/203/203
f 203/203/203 198/198/198 197/197/197
f 204/204/204 200/200/200 202/202/202
f 197/197/197 205/205/205 203/203/203
f 204/204/204 206/206/206 200/200/200
f 189/189/189 207/207/207 197/197/197
f 207/207/207 189/189/189 190/190/190
f 197/197/197 208/208/208 205/205/205
f 197/197/197 207/207/207 208/208/208
f 209/209/209 205/205/205 208/208/208
f 208/208/208 210/210/210 209/209/209
f 210/210/210 208/208/208 207/207/207
f 211/211/211 209/209/209 210/210/210
f 190/190/190 212/212/212 207/207/207
f 212/212/212 210/210/210 207/207/207
f 210/210/210 213/213/213 211/211/211
f 213/213/213 210/210/210 212/212/212
f 206/206/206 214/214/214 200/200/200
f 215/215/215 214/214/214 206/206/206
f 214/214/214 215/215/215 216/216/216
f 216/216/216 217/217/217 214/214/214
f 218/218/218 217/217/217 216/216/216
f 190/190/190 219/219/219 212/212/212
f 188/188/188 219/219/219 190/190/190
f 213/213/213 220/220/220 211/211/211
f 221/221/221 211/211/211 220/220/220
f 221/221/221 220/220/220 222/222/222
f 220/220/220 223/223/223 222/222/222
f 224/224/224 222/222/222 223/223/223
f 225/225/225 220/220/220 213/213/213
f 223/223/223 220/220/220 225/225/225
f 225/225/225 226/226/226 223/223/223
f 223/223/223 227/227/227 224/224/224
f 227/227/227 223/223/223 226/226/226
f 227/227/227 228/228/228 224/224/224
f 228/228/228 227/227/227 226/226/226
f 212/212/212 229/229/229 213/213/213
f 213/213/213 229/229/229 225/225/225
f 212/212/212 230/230/230 229/229/229
f 230/230/230 225/225/225 229/229/229
f 219/219/219 230/230/230 212/212/212
f 219/219/219 188/188/188 231/231/231
f 180/180/180 231/231/231 188/188/188
f 230/230/230 232/232/232 225/225/225
f 226/226/226 225/225/225 232/232/232
f 230/230/230 219/219/219 233/233/233
f 231/231/231 233/233/233 219/219/219
f 233/233/233 232/232/232 230/230/230
f 180/180/180 234/234/234 231/231/231
f 233/233/233 231/231/231 234/234/234
f 180/180/180 186/186/186 234/234/234
f 235/235/235 234/234/234 186/186/186
f 235/235/235 233/233/233 234/234/234
f 187/187/187 235/235/235 186/186/186
f 236/236/236 232/232/232 233/233/233
f 232/232/232 236/236/236 226/226/226
f 235/235/235 236/236/236 233/233/233
f 236/236/236 235/235/235 226/226/226
f 235/235/235 237/237/237 226/226/226
f 237/237/237 235/235/235 187/187/187
f 226/226/226 237/237/237 228/228/228
f 238/238/238 228/228/228 237/237/237
f 237/237/237 187/187/187 238/238/238
f 239/239/239 238/238/238 187/187/187
f 187/187/187 240/240/240 239/239/239
f 238/238/238 239/239/239 241/241/241
f 241/241/241 242/242/242 238/238/238
f 239/239/239 240/240/240 243/243/243
f 244/244/244 243/243/243 240/240/240
f 245/245/245 244/244/244 240/240/240
f 240/240/240 187/187/187 246/246/246
f 183/183/183 246/246/246 187/187/187
f 247/247/247 245/245/245 240/240/240
f 245/245/245 247/247/247 248/248/248
f 249/249/249 248/248/248 247/247/247
f 240/240/240 250/250/250 247/247/247
f 250/250/250 240/240/240 246/246/246
f 247/247/247 250/250/250 251/251/251
f 251/251/251 250/250/250 252/252/252
f 253/253/253 246/246/246 183/183/183
f 250/250/250 246/246/246 253/253/253
f 252/252/252 250/250/250 253/253/253
f 253/253/253 183/183/183 254/254/254
f 254/254/254 252/252/252 253/253/253
f 257/257/257 256/256/256 255/255/255
f 255/255/255 258/258/258 257/257/257
f 259/259/259 258/258/258 255/255/255
f 255/255/255 260/260/260 259/259/259
f 259/259/259 260/260/260 261/261/261
f 53/53/53 257/257/257 258/258/258
f 258/258/258 62/62/62 53/53/53
f 62/62/62 258/258/258 63/63/63
f 259/259/259 63/63/63 258/258/258
f 257/257/257 53/53/53 262/262/262
f 45/45/45 262/262/262 53/53/53
f 262/262/262 263/263/263 257/257/257
f 262/262/262 45/45/45 42/42/42
f 264/264/264 63/63/63 259/259/259
f 264/264/264 4/4/4 63/63/63
f 3/3/3 4/4/4 264/264/264
f 261/261/261 265/265/265 259/259/259
f 259/259/259 265/265/265 264/264/264
f 266/266/266 265/265/265 261/261/261
f 264/264/264 265/265/265 266/266/266
f 261/261/261 267/267/267 266/266/266
f 264/264/264 268/268/268 3/3/3
f 266/266/266 268/268/268 264/264/264
f 268/268/268 269/269/269 3/3/3
f 270/270/270 269/269/269 268/268/268
f 268/268/268 271/271/271 270/270/270
f 272/272/272 266/266/266 267/267/267
f 266/266/266 272/272/272 268/268/268
f 271/271/271 268/268/268 272/272/272
f 267/267/267 273/273/273 272/272/272
f 272/272/272 274/274/274 271/271/271
f 272/272/272 273/273/273 275/275/275
f 275/275/275 274/274/274 272/272/272
f 263/263/263 277/277/277 276/276/276
f 277/277/277 263/263/263 138/138/138
f 278/278/278 277/277/277 138/138/138
f 277/277/277 278/278/278 279/279/279
f 138/138/138 263/263/263 44/44/44
f 138/138/138 136/136/136 278/278/278
f 44/44/44 263/263/263 280/280/280
f 44/44/44 280/280/280 42/42/42
f 281/281/281 280/280/280 263/263/263
f 280/280/280 281/281/281 42/42/42
f 262/262/262 281/281/281 263/263/263
f 42/42/42 281/281/281 262/262/262
f 278/278/278 282/282/282 279/279/279
f 283/283/283 279/279/279 282/282/282
f 284/284/284 278/278/278 136/136/136
f 136/136/136 137/137/137 284/284/284
f 282/282/282 285/285/285 283/283/283
f 286/286/286 283/283/283 285/285/285
f 287/287/287 282/282/282 278/278/278
f 282/282/282 287/287/287 285/285/285
f 284/284/284 287/287/287 278/278/278
f 285/285/285 288/288/288 286/286/286
f 288/288/288 285/285/285 287/287/287
f 286/286/286 288/288/288 289/289/289
f 284/284/284 137/137/137 290/290/290
f 290/290/290 137/137/137 142/142/142
f 287/287/287 284/284/284 291/291/291
f 287/287/287 291/291/291 288/288/288
f 291/291/291 284/284/284 290/290/290
f 288/288/288 292/292/292 289/289/289
f 291/291/291 292/292/292 288/288/288
f 290/290/290 142/142/142 293/293/293
f 142/142/142 158/158/158 293/293/293
f 292/292/292 294/294/294 289/289/289
f 289/289/289 294/294/294 295/295/295
f 294/294/294 218/218/218 295/295/295
f 294/294/294 217/217/217 218/218/218
f 292/292/292 291/291/291 296/296/296
f 296/296/296 294/294/294 292/292/292
f 291/291/291 290/290/290 297/297/297
f 293/293/293 297/297/297 290/290/290
f 297/297/297 296/296/296 291/291/291
f 293/293/293 158/158/158 298/298/298
f 169/169/169 298/298/298 158/158/158
f 293/293/293 298/298/298 299/299/299
f 297/297/297 293/293/293 299/299/299
f 299/299/299 298/298/298 169/169/169
f 300/300/300 217/217/217 294/294/294
f 300/300/300 294/294/294 296/296/296
f 296/296/296 297/297/297 301/301/301
f 299/299/299 301/301/301 297/297/297
f 169/169/169 302/302/302 299/299/299
f 196/196/196 302/302/302 169/169/169
f 303/303/303 296/296/296 301/301/301
f 296/296/296 303/303/303 300/300/300
f 303/303/303 304/304/304 300/300/300
f 217/217/217 300/300/300 305/305/305
f 305/305/305 300/300/300 304/304/304
f 305/305/305 214/214/214 217/217/217
f 305/305/305 200/200/200 214/214/214
f 299/299/299 306/306/306 301/301/301
f 301/301/301 306/306/306 303/303/303
f 299/299/299 302/302/302 306/306/306
f 304/304/304 303/303/303 306/306/306
f 302/302/302 196/196/196 307/307/307
f 302/302/302 307/307/307 306/306/306
f 306/306/306 307/307/307 304/304/304
f 196/196/196 195/195/195 307/307/307
f 308/308/308 200/200/200 305/305/305
f 305/305/305 304/304/304 308/308/308
f 200/200/200 308/308/308 309/309/309
f 308/308/308 304/304/304 309/309/309
f 309/309/309 194/194/194 200/200/200
f 304/304/304 307/307/307 310/310/310
f 310/310/310 307/307/307 195/195/195
f 310/310/310 309/309/309 304/304/304
f 194/194/194 309/309/309 311/311/311
f 194/194/194 311/311/311 195/195/195
f 311/311/311 309/309/309 310/310/310
f 195/195/195 311/311/311 310/310/310
