g TianKong
v 3.24380308E-05 6.40254657E-05 -301.041351
v -13.3356867 -26.321682 -299.591766
v -18.2145596 -23.2142448 -299.591766
v -53.9437675 -68.7507477 -288.078674
v -66.31987 -56.9057999 -288.078674
v -22.3934574 -19.2146969 -299.591766
v 3.24380308E-05 6.40254657E-05 -301.041351
v -25.7117863 -14.476738 -299.591766
v 3.24380308E-05 6.40254657E-05 -301.041351
v -107.697655 -92.4100647 -265.494812
v -76.1473389 -42.8740044 -288.078674
v -83.0485077 -27.1945801 -288.078674
v -123.656601 -69.6236496 -265.494781
v -28.0420227 -9.18244076 -299.591766
v 3.24380308E-05 6.40254657E-05 -301.041351
v -29.2946205 -3.53526473 -299.591766
v 3.24380308E-05 6.40254657E-05 -301.041351
v -134.86348 -44.1616211 -265.494781
v -86.7581635 -10.4700727 -288.078613
v -166.413788 -93.6977005 -232.708145
v -181.495712 -59.4315948 -232.708145
v -87.5999527 -111.645203 -265.494812
v -144.936676 -124.36306 -232.70816
v -87.1337509 6.65678453 -288.078613
v -29.4214401 2.24776721 -299.591766
v 3.24380308E-05 6.40254657E-05 -301.041351
v -28.4176102 7.9444232 -299.591766
v 3.24380308E-05 6.40254657E-05 -301.041351
v -140.887634 -17.0025005 -265.494781
v -141.497543 10.8100042 -265.494751
v -84.1608353 23.5278397 -288.078613
v -189.602859 -22.8815823 -232.708115
v -26.3217087 13.3357821 -299.591766
v 3.24380308E-05 6.40254657E-05 -301.041351
v -190.423706 14.5477781 -232.708115
v -231.031769 -27.8813171 -190.978653
v -232.031952 17.7264843 -190.978653
v -221.153198 -72.4176331 -190.978668
v -202.775803 -114.171013 -190.978683
v -136.6698 38.2070999 -265.494751
v -183.926636 51.4180641 -232.708115
v -77.9536819 39.4947395 -288.078613
v -224.115234 62.6530571 -190.978622
v -264.723328 20.2240124 -141.909958
v -263.582245 -31.8095608 -141.909958
v -255.691238 71.4803772 -141.909927
v -170.361359 86.3123932 -232.708115
v -207.585953 105.171928 -190.978622
v -236.833084 119.989799 -141.909912
v -126.589897 64.1359253 -265.494751
v -183.079208 143.649078 -190.978622
v -150.249237 117.889786 -232.708115
v -111.64521 87.6000366 -265.494751
v -68.7507858 53.9438667 -288.078613
v -23.2142715 18.2146568 -299.591766
v 3.24380308E-05 6.40254657E-05 -301.041351
v -256.978882 130.196472 -87.3876953
v -208.87355 163.888046 -141.909912
v -151.536896 176.605911 -190.978607
v -124.36306 144.936722 -232.708099
v -92.4100723 107.697731 -265.494751
v -56.9058342 66.3199692 -288.078613
v -277.441162 77.5606918 -87.3877029
v -267.249084 135.399841 -29.5072136
v -226.641052 177.828857 -87.3876801
v -172.8871 201.488205 -141.909897
v -114.171036 202.775848 -190.978607
v -93.697731 166.413864 -232.708099
v -287.241547 21.9442959 -87.3877258
v -288.529205 80.6604691 -29.5072289
v -69.6236572 123.656654 -265.494751
v -187.593491 218.627441 -87.3876648
v -130.256729 231.345245 -141.909897
v -72.4176712 221.153244 -190.978592
v -235.698776 184.935898 -29.5071983
v -59.431633 181.495773 -232.708084
v -141.336838 251.024246 -87.3876572
v -195.090698 227.36496 -29.507185
v -82.6206741 252.311874 -141.909897
v -42.8740311 76.147438 -288.078613
v -44.1616402 134.863541 -265.494751
v -27.8813477 231.031799 -190.978577
v -31.8095608 263.582245 -141.909866
v -22.8816204 189.602921 -232.708084
v -89.6486893 273.774323 -87.3876343
v -146.985382 261.056488 -29.5071754
v -34.5153999 286.003418 -87.3876343
v -14.4767647 25.7118816 -299.591766
v -27.1946068 83.0485992 -288.078613
v -19.2147236 22.3935547 -299.591766
v 3.24380308E-05 6.40254657E-05 -301.041351
v 3.24380308E-05 6.40254657E-05 -301.041351
v -9.18246841 28.0421162 -299.591766
v 3.24380308E-05 6.40254657E-05 -301.041351
v -10.4701052 86.7582626 -288.078613
v -17.0025291 140.88768 -265.494751
v -3.53529525 29.2947121 -299.591766
v 3.24380308E-05 6.40254657E-05 -301.041351
v 6.6567626 87.1338425 -288.078613
v 2.24773622 29.4215279 -299.591766
v 3.24380308E-05 6.40254657E-05 -301.041351
v 14.5477486 190.423752 -232.708054
v 10.8099852 141.497589 -265.49472
v 17.72645 232.031967 -190.978577
v 20.2239933 264.723328 -141.909866
v 21.9442959 287.241547 -87.3876266
v 23.5278111 84.1609268 -288.078613
v 38.2070694 136.669846 -265.49472
v 51.4180374 183.926712 -232.708054
v 62.6530266 224.115265 -190.978577
v 71.4803619 255.691238 -141.909851
v 77.5607071 277.441162 -87.3876266
v 7.9443903 28.4176979 -299.591766
v 3.24380308E-05 6.40254657E-05 -301.041351
v 13.3357468 26.3217945 -299.591766
v 3.24380308E-05 6.40254657E-05 -301.041351
v 39.4947052 77.9537659 -288.078613
v 105.17189 207.585968 -190.978577
v 119.989769 236.833084 -141.909851
v 86.3123627 170.36142 -232.708054
v 64.1358795 126.589951 -265.49472
v 117.88974 150.249298 -232.708054
v 87.5999908 111.645279 -265.49472
v 53.9438362 68.7508698 -288.078613
v 143.649033 183.079254 -190.978577
v 130.196487 256.978882 -87.3876266
v 144.936707 124.363152 -232.708054
v 163.888 208.87355 -141.909851
v 18.2146187 23.2143574 -299.591766
v 3.24380308E-05 6.40254657E-05 -301.041351
v 107.69767 92.4101334 -265.49472
v 66.3199387 56.9059296 -288.078613
v 22.3935146 19.2148132 -299.591766
v 3.24380308E-05 6.40254657E-05 -301.041351
v 76.1474075 42.8741264 -288.078613
v 176.60585 151.536926 -190.978577
v 25.7118397 14.4768524 -299.591766
v 3.24380308E-05 6.40254657E-05 -301.041351
v 166.413818 93.6978073 -232.708084
v 202.775772 114.171082 -190.978577
v 201.488144 172.8871 -141.909866
v 123.656616 69.6237259 -265.494751
v 177.828888 226.641037 -87.3876266
v 135.399826 267.249084 -29.507143
v 80.6604462 288.529144 -29.507143
v 22.8213272 298.721191 -29.5071449
v -35.8948135 297.433594 -29.5071526
v -93.231514 284.71579 -29.5071621
v -146.985382 261.056488 29.5072556
v -93.231514 284.71579 29.5072651
v -35.8948135 297.433594 29.5072765
v 22.8213272 298.721191 29.5072823
v -89.6486969 273.774292 87.3877411
v -195.090698 227.364914 29.5072422
v -34.5154076 286.003387 87.3877411
v -141.336853 251.024216 87.3877335
v -235.698776 184.935867 29.5072289
v -82.6206894 252.311798 141.909958
v -187.593506 218.62738 87.3877258
v -130.256744 231.345184 141.909958
v 21.9442863 287.241547 87.387764
v -31.8095894 263.582184 141.909973
v -72.417717 221.153137 190.978668
v 80.6604462 288.529144 29.5072842
v 135.399826 267.249084 29.5072842
v 77.5606842 277.441132 87.387764
v 20.2239742 264.723267 141.909973
v -27.8814049 231.031708 190.978683
v -172.887131 201.488113 141.909958
v -114.171059 202.775772 190.978653
v -226.641052 177.828827 87.3877029
v -267.249084 135.399826 29.5072136
v -288.529205 80.6604614 29.5071983
v 71.4803391 255.691193 141.909988
v 17.7264099 232.031876 190.978683
v 130.196472 256.978851 87.387764
v -208.873566 163.887985 141.909927
v -256.978912 130.196426 87.3876953
v -277.441193 77.5606537 87.3876801
v -151.536926 176.605835 190.978653
v -236.833099 119.989731 141.909912
v -183.079239 143.649002 190.978622
v -124.363121 144.93663 232.708115
v -255.691269 71.4803238 141.909912
v -93.6977844 166.413742 232.708115
v -59.4316826 181.495682 232.708145
v -22.8816738 189.602829 232.708145
v -207.585968 105.171852 190.978622
v -224.115265 62.652977 190.978622
v -150.249268 117.889664 232.708115
v -264.723358 20.2239456 141.909897
v -232.031967 17.7264099 190.978607
v -287.241577 21.9442482 87.3876648
v -298.721283 22.8213272 29.507185
v -298.721283 22.8213463 -29.5072422
v -286.003418 -34.5154076 -87.3877335
v -252.311874 -82.6207047 -141.909958
v -231.345276 -130.256775 -141.909973
v -263.582245 -31.809618 141.909897
v -286.003448 -34.5154572 87.3876572
v -297.433655 -35.894825 29.5071754
v -297.433655 -35.894825 -29.5072556
v -273.774323 -89.6486816 -87.3877411
v -251.024246 -141.336838 -87.3877411
v -231.031799 -27.8813953 190.978607
v -201.488174 -172.887146 -141.909973
v -218.627411 -187.593506 -87.387764
v -176.60585 -151.53685 -190.978683
v -117.889725 -150.249207 -232.70816
v -261.056488 -146.985428 -29.5072765
v -227.36496 -195.090744 -29.5072823
v -284.71582 -93.2315598 -29.5072651
v -284.71582 -93.2315598 29.5071621
v -261.056488 -146.985428 29.5071526
v -273.774323 -89.6487579 87.3876343
v -227.36496 -195.090744 29.5071449
v -251.024246 -141.336899 87.3876343
v -252.311874 -82.6207581 141.909897
v -221.153244 -72.4177322 190.978592
v -231.345276 -130.256821 141.909866
v -218.627457 -187.593567 87.3876266
v -184.935852 -235.698822 29.507143
v -184.935852 -235.698822 -29.5072842
v -177.828888 -226.641052 -87.387764
v -135.399811 -267.249146 -29.5072842
v -163.888031 -208.873566 -141.909988
v -130.196472 -256.978912 -87.387764
v -143.649033 -183.079208 -190.978683
v -119.989754 -236.833099 -141.909988
v -105.171806 -207.585831 -190.978683
v -86.3123016 -170.361328 -232.70816
v -64.1358109 -126.589806 -265.494812
v -39.4946365 -77.9536362 -288.078674
v -38.2069893 -136.669678 -265.494812
v -51.4179955 -183.92659 -232.70816
v -62.6529579 -224.115112 -190.978683
v -71.4803467 -255.691162 -141.909988
v -23.5277481 -84.1608124 -288.078674
v -10.8099213 -141.497437 -265.494812
v -14.5476952 -190.423645 -232.70816
v -77.5607452 -277.441193 -87.387764
v -17.7264004 -232.031815 -190.978683
v -7.94432402 -28.4175587 -299.591766
v 3.24380308E-05 6.40254657E-05 -301.041351
v -2.24767327 -29.4213905 -299.591766
v 3.24380308E-05 6.40254657E-05 -301.041351
v -6.65669918 -87.133728 -288.078674
v 17.0025768 -140.887527 -265.494781
v 3.53535628 -29.294569 -299.591766
v 3.24380308E-05 6.40254657E-05 -301.041351
v -20.2239933 -264.723236 -141.909973
v 22.8816738 -189.602829 -232.708145
v 10.4701633 -86.7581406 -288.078674
v 44.1616974 -134.863373 -265.494781
v 27.8813763 -231.031662 -190.978683
v 27.1946678 -83.0484772 -288.078674
v 59.4316826 -181.495682 -232.708145
v 9.18252563 -28.0419769 -299.591766
v 3.24380308E-05 6.40254657E-05 -301.041351
v 69.6236877 -123.656502 -265.494781
v 14.4768209 -25.7117405 -299.591766
v 3.24380308E-05 6.40254657E-05 -301.041351
v 42.8740959 -76.147316 -288.078613
v 31.8095608 -263.582153 -141.909973
v 72.4177094 -221.153061 -190.978668
v 93.6977844 -166.413742 -232.708115
v 92.4100723 -107.697578 -265.494751
v 56.905899 -66.3198471 -288.078613
v -21.9443359 -287.241577 -87.387764
v 19.2147751 -22.3934116 -299.591766
v 3.24380308E-05 6.40254657E-05 -301.041351
v -80.6604233 -288.529083 -29.5072842
v 23.214323 -18.2145195 -299.591766
v 3.24380308E-05 6.40254657E-05 -301.041351
v -135.399811 -267.249146 29.507143
v -177.828918 -226.641083 87.3876266
v -201.488205 -172.887177 141.909866
v -202.775848 -114.171104 190.978577
v -181.495773 -59.4317017 232.708084
v -189.602921 -22.8816795 232.708099
v -190.423752 14.5476799 232.708099
v -183.926682 51.4179573 232.708115
v -170.361404 86.3122864 232.708115
v -163.888046 -208.873611 141.909851
v -176.605896 -151.536942 190.978577
v -130.196503 -256.978973 87.3876266
v -140.887695 -17.0026226 265.494751
v -141.497589 10.8098927 265.494751
v -136.669861 38.2069855 265.494751
v -126.589958 64.1358109 265.494751
v -134.863541 -44.161747 265.494751
v -111.645279 87.5999222 265.494751
v -77.9537354 39.4946136 288.078613
v -92.4101334 107.697617 265.494751
v -84.1609039 23.5277138 288.078613
v -86.7582321 -10.4701948 288.078613
v -68.7508469 53.9437447 288.078613
v -69.6237183 123.65654 265.494781
v -87.1338043 6.65666485 288.078613
v -26.3217716 13.3356543 299.591766
v -56.905899 66.3198471 288.078613
v -44.1616974 134.863419 265.494781
v -28.4176731 7.94429445 299.591766
v -3.24380308E-05 -6.40254657E-05 301.041351
v -23.2143345 18.214529 299.591766
v -3.24380308E-05 -6.40254657E-05 301.041351
v -29.4215031 2.24763799 299.591766
v -3.24380308E-05 -6.40254657E-05 301.041351
v -29.2946873 -3.53539538 299.591766
v -3.24380308E-05 -6.40254657E-05 301.041351
v -83.0485611 -27.1946964 288.078613
v -19.2147884 22.393425 299.591766
v -3.24380308E-05 -6.40254657E-05 301.041351
v -14.4768295 25.7117519 299.591766
v -3.24380308E-05 -6.40254657E-05 301.041351
v -28.0420876 -9.18256855 299.591766
v -3.24380308E-05 -6.40254657E-05 301.041351
v -25.7118492 -14.4768639 299.591766
v -3.24380308E-05 -6.40254657E-05 301.041351
v -76.1473999 -42.8741302 288.078613
v -42.8740959 76.147316 288.078613
v -27.1946678 83.0484772 288.078674
v -123.656654 -69.6237564 265.494751
v -166.413818 -93.6977997 232.708084
v -107.697723 -92.4101715 265.49472
v -144.936722 -124.363152 232.708054
v -66.319931 -56.9059181 288.078613
v -9.18253231 28.0419884 299.591766
v -3.24380308E-05 -6.40254657E-05 301.041351
v -3.53535891 29.2945843 299.591766
v -3.24380308E-05 -6.40254657E-05 301.041351
v -22.3935223 -19.2148247 299.591766
v -3.24380308E-05 -6.40254657E-05 301.041351
v -18.2146263 -23.2143688 299.591766
v -3.24380308E-05 -6.40254657E-05 301.041351
v -53.9438324 -68.7508698 288.078613
v -87.6000214 -111.645332 265.49472
v -13.3357506 -26.3218079 299.591766
v -3.24380308E-05 -6.40254657E-05 301.041351
v -10.4701633 86.7581406 288.078674
v -17.0025921 140.887558 265.494781
v 6.65669918 87.133728 288.078674
v 14.5476952 190.423645 232.70816
v -117.889771 -150.249313 232.708054
v 2.24767137 29.4214001 299.591766
v -3.24380308E-05 -6.40254657E-05 301.041351
v 10.8099213 141.497482 265.494812
v 62.6529884 224.115189 190.978683
v 23.5277481 84.1608124 288.078674
v 51.4179955 183.92659 232.70816
v 119.989731 236.833023 141.909988
v 7.94432545 28.417572 299.591766
v -3.24380308E-05 -6.40254657E-05 301.041351
v 38.2070045 136.669724 265.494812
v 105.171837 207.585892 190.978683
v 13.3356819 26.3216667 299.591766
v -3.24380308E-05 -6.40254657E-05 301.041351
v 39.4946442 77.9536438 288.078674
v 86.3123016 170.361328 232.70816
v 64.1358261 126.589828 265.494812
v 53.943779 68.7507553 288.078674
v 117.889702 150.249191 232.70816
v 143.648987 183.079178 190.978683
v 163.887985 208.873489 141.909988
v 18.2145557 23.2142353 299.591766
v -3.24380308E-05 -6.40254657E-05 301.041351
v 87.5999374 111.645164 265.494812
v 176.60582 151.53685 190.978683
v 177.828857 226.641006 87.387764
v 144.936661 124.363045 232.70816
v 107.697617 92.4100189 265.494812
v 66.31987 56.9058037 288.078674
v 201.488113 172.88707 141.909973
v 184.935852 235.698746 29.5072842
v 202.775742 114.17099 190.978683
v 22.3934517 19.2146854 299.591766
v -3.24380308E-05 -6.40254657E-05 301.041351
v 218.627411 187.593475 87.387764
v 184.935852 235.698746 -29.507143
v 76.1473541 42.8740044 288.078674
v 166.413773 93.6977158 232.708145
v 231.345184 130.256699 141.909973
v 227.364914 195.090652 29.5072823
v 218.627441 187.593491 -87.3876266
v 25.7117767 14.4767284 299.591766
v -3.24380308E-05 -6.40254657E-05 301.041351
v 221.153122 72.4176331 190.978668
v 251.024246 141.336792 87.3877411
v 227.364914 195.090652 -29.5071449
v 231.345184 130.256729 -141.909866
v 252.311798 82.6206589 141.909958
v 261.056427 146.985367 29.5072765
v 251.024246 141.336838 -87.3876343
v 221.153152 72.4177246 -190.978592
v 273.774323 89.6486282 87.3877411
v 261.056427 146.985367 -29.5071526
v 252.311813 82.6207047 -141.909897
v 181.495758 59.4317131 -232.708084
v 284.715729 93.2314987 29.5072651
v 273.774384 89.6486893 -87.3876343
v 284.715729 93.2314987 -29.5071621
v 297.433594 35.894783 29.5072556
v 297.433594 35.894783 -29.5071754
v 286.003448 34.5153999 -87.3876572
v 263.582184 31.8096085 -141.909897
v 286.003418 34.5153427 87.3877335
v 298.721191 -22.8213367 29.5072422
v 298.721191 -22.8213272 -29.507185
v 263.582153 31.8095303 141.909958
v 287.241577 -21.9442959 -87.3876648
v 231.031754 27.8813953 -190.978607
v 287.241547 -21.944355 87.3877258
v 288.529144 -80.6604462 -29.5071983
v 264.723297 -20.2239552 -141.909897
v 288.529114 -80.6604538 29.5072289
v 277.441193 -77.5607071 -87.3876801
v 267.249023 -135.399811 -29.5072136
v 267.249023 -135.399826 29.5072136
v 256.978882 -130.196487 -87.3876953
v 277.441162 -77.5607529 87.3877029
v 256.978851 -130.196533 87.3876953
v 255.691208 -71.4803238 -141.909912
v 236.833038 -119.989716 -141.909912
v 232.031891 -17.7263908 -190.978607
v 224.115234 -62.6529579 -190.978622
v 207.585907 -105.171791 -190.978622
v 183.926682 -51.4179573 -232.708115
v 170.361404 -86.3122864 -232.708115
v 264.723267 -20.2240238 141.909958
v 189.602905 22.8816929 -232.708099
v 190.423721 -14.5476704 -232.708099
v 136.669785 -38.206974 -265.494751
v 126.58989 -64.135788 -265.494751
v 77.9537354 -39.4946175 -288.078613
v 134.86348 44.1617279 -265.494751
v 140.887634 17.0026073 -265.494751
v 141.497543 -10.8098927 -265.494751
v 84.1608963 -23.5277195 -288.078613
v 26.3217545 -13.3356476 -299.591766
v 83.0485611 27.1946945 -288.078613
v 86.7582321 10.4701948 -288.078613
v 87.1338196 -6.65666962 -288.078613
v 28.4176598 -7.94429493 -299.591766
v 3.24380308E-05 6.40254657E-05 -301.041351
v 29.4214954 -2.24764037 -299.591766
v 3.24380308E-05 6.40254657E-05 -301.041351
v 29.294672 3.53539062 -299.591766
v 3.24380308E-05 6.40254657E-05 -301.041351
v 28.0420742 9.18255997 -299.591766
v 3.24380308E-05 6.40254657E-05 -301.041351
v 3.24380308E-05 6.40254657E-05 -301.041351
v 28.0420132 9.18243408 299.591766
v -3.24380308E-05 -6.40254657E-05 301.041351
v 29.2946091 3.53526115 299.591766
v 86.7581635 10.4700727 288.078613
v 83.0485077 27.1945763 288.078674
v -3.24380308E-05 -6.40254657E-05 301.041351
v 134.863419 44.1616096 265.494781
v 123.656548 69.6236115 265.494781
v 181.495697 59.4316063 232.708145
v 231.031708 27.8813171 190.978653
v 189.602844 22.8815956 232.708115
v 140.887573 17.0024891 265.494781
v 232.031876 -17.7264595 190.978653
v 87.1337585 -6.65679169 288.078613
v 190.42366 -14.5477686 232.708115
v 255.691193 -71.4803772 141.909927
v 236.833023 -119.989769 141.909912
v 224.115189 -62.6530304 190.978622
v 207.585892 -105.171875 190.978622
v 183.926636 -51.4180641 232.708115
v 170.361359 -86.3123932 232.708115
v 141.497482 -10.81001 265.494751
v 136.669739 -38.2070923 265.494751
v 126.589828 -64.1359024 265.494751
v 77.9536743 -39.4947395 288.078613
v 84.1608353 -23.5278416 288.078613
v 29.4214306 -2.24777031 299.591766
v -3.24380308E-05 -6.40254657E-05 301.041351
v 28.4175968 -7.9444232 299.591766
v -3.24380308E-05 -6.40254657E-05 301.041351
v 26.3216915 -13.3357773 299.591766
v -3.24380308E-05 -6.40254657E-05 301.041351
v 3.24380308E-05 6.40254657E-05 -301.041351
v 26.3217545 -13.3356476 -299.591766
v 68.7508469 -53.9437447 -288.078613
v 77.9537354 -39.4946175 -288.078613
v 111.645226 -87.5998917 -265.494751
v 126.58989 -64.135788 -265.494751
v 150.249268 -117.889664 -232.708115
v 170.361404 -86.3122864 -232.708115
v 207.585907 -105.171791 -190.978622
v 124.363121 -144.93663 -232.708115
v 183.079208 -143.648956 -190.978622
v 236.833038 -119.989716 -141.909912
v 114.171036 -202.775696 -190.978653
v 151.536896 -176.605774 -190.978653
v 208.873505 -163.88797 -141.909927
v 256.978882 -130.196487 -87.3876953
v 172.887085 -201.488113 -141.909958
v 226.641037 -177.828903 -87.3877029
v 267.249023 -135.399811 -29.5072136
v 130.256714 -231.345154 -141.909958
v 187.593506 -218.627457 -87.3877258
v 235.6987 -184.935837 -29.5072289
v 82.6206818 -252.311768 -141.909958
v 235.6987 -184.935837 29.5071983
v 267.249023 -135.399826 29.5072136
v 195.090652 -227.364883 -29.5072422
v 141.336838 -251.024246 -87.3877335
v 34.5153809 -286.003479 -87.3877411
v 89.6486664 -273.774384 -87.3877411
v 146.985352 -261.056427 -29.5072556
v -22.8213081 -298.721161 -29.5072823
v 35.8948135 -297.433563 -29.5072765
v -80.6604233 -288.529083 29.507143
v 195.090637 -227.364899 29.507185
v 93.231514 -284.715729 -29.5072651
v -22.8213081 -298.721161 29.5071449
v -77.5607681 -277.441223 87.3876266
v 35.8948135 -297.433563 29.5071526
v 93.231514 -284.715729 29.5071621
v -21.9443645 -287.241638 87.3876266
v 146.985352 -261.056427 29.5071754
v 89.6486588 -273.774414 87.3876343
v 34.5153618 -286.003479 87.3876343
v 141.336807 -251.024307 87.3876572
v 82.6206589 -252.311829 141.909897
v 31.8095303 -263.582214 141.909866
v -20.2240124 -264.723297 141.909866
v 187.593491 -218.627502 87.3876648
v 130.256699 -231.34523 141.909897
v 72.4176483 -221.153152 190.978592
v 226.641037 -177.828934 87.3876801
v 256.978851 -130.196533 87.3876953
v 172.88707 -201.488159 141.909897
v 208.873474 -163.888046 141.909912
v 236.833023 -119.989769 141.909912
v 114.171013 -202.775757 190.978607
v 183.079193 -143.649033 190.978622
v 207.585892 -105.171875 190.978622
v 151.536865 -176.605835 190.978607
v 150.249237 -117.889786 232.708115
v 170.361359 -86.3123932 232.708115
v 126.589828 -64.1359024 265.494751
v 124.36306 -144.936722 232.708099
v 111.645164 -87.6000061 265.494751
v 77.9536743 -39.4947395 288.078613
v 93.697731 -166.413864 232.708099
v 68.7507782 -53.9438667 288.078613
v 26.3216915 -13.3357773 299.591766
v 92.4100189 -107.697693 265.494751
v 23.2142601 -18.2146473 299.591766
v -3.24380308E-05 -6.40254657E-05 301.041351
v 56.9058342 -66.3199692 288.078613
v 19.2147121 -22.3935452 299.591766
v -3.24380308E-05 -6.40254657E-05 301.041351
v 14.4767561 -25.7118702 299.591766
v -3.24380308E-05 -6.40254657E-05 301.041351
v 42.8740311 -76.147438 288.078613
v 69.6236343 -123.656616 265.494751
v 27.1946068 -83.0485992 288.078613
v 59.431633 -181.495773 232.708084
v 9.18246365 -28.0421047 299.591766
v -3.24380308E-05 -6.40254657E-05 301.041351
v 44.1616364 -134.86351 265.494751
v 27.8813267 -231.031754 190.978577
v 10.4701052 -86.7582626 288.078613
v 22.8816204 -189.602921 232.708084
v -17.72645 -232.031906 190.978577
v 17.0025139 -140.88765 265.494751
v 3.53529406 -29.2946968 299.591766
v -3.24380308E-05 -6.40254657E-05 301.041351
v -2.24773788 -29.4215183 299.591766
v -3.24380308E-05 -6.40254657E-05 301.041351
v -71.4803772 -255.691223 141.909851
v -14.5477486 -190.423752 232.708054
v -6.6567626 -87.1338425 288.078613
v -119.989761 -236.833115 141.909851
v -62.6530075 -224.115204 190.978577
v -10.8099852 -141.497559 265.49472
v -143.649094 -183.0793 190.978577
v -105.171844 -207.585907 190.978577
v -51.4180374 -183.926712 232.708054
v -86.3123627 -170.36142 232.708054
v -38.2070541 -136.6698 265.49472
v -64.1358948 -126.590004 265.49472
v -39.4946976 -77.9537659 288.078613
v -23.5278111 -84.1609268 288.078613
v -7.94438887 -28.4176846 299.591766
v -3.24380308E-05 -6.40254657E-05 301.041351
v -3.24380308E-05 -6.40254657E-05 301.041351
vt 0.7265625 0
vt 0.75 0.03125
vt 0.71875 0.03125
vt 0.71875 0.09375
vt 0.6875 0.09375
vt 0.6875 0.03125
vt 0.6953125 0
vt 0.65625 0.03125
vt 0.6640625 0
vt 0.6875 0.15625
vt 0.65625 0.09375
vt 0.625 0.09375
vt 0.65625 0.15625
vt 0.625 0.03125
vt 0.6328125 0
vt 0.59375 0.03125
vt 0.6015625 0
vt 0.625 0.15625
vt 0.59375 0.09375
vt 0.65625 0.21875
vt 0.625 0.21875
vt 0.71875 0.15625
vt 0.6875 0.21875
vt 0.5625 0.09375
vt 0.5625 0.03125
vt 0.5703125 0
vt 0.53125 0.03125
vt 0.5390625 0
vt 0.59375 0.15625
vt 0.5625 0.15625
vt 0.53125 0.09375
vt 0.59375 0.21875
vt 0.5 0.03125
vt 0.5078125 0
vt 0.5625 0.21875
vt 0.59375 0.28125
vt 0.5625 0.28125
vt 0.625 0.28125
vt 0.65625 0.28125
vt 0.53125 0.15625
vt 0.53125 0.21875
vt 0.5 0.09375
vt 0.53125 0.28125
vt 0.5625 0.34375
vt 0.59375 0.34375
vt 0.53125 0.34375
vt 0.5 0.21875
vt 0.5 0.28125
vt 0.5 0.34375
vt 0.5 0.15625
vt 0.46875 0.28125
vt 0.46875 0.21875
vt 0.46875 0.15625
vt 0.46875 0.09375
vt 0.46875 0.03125
vt 0.4765625 0
vt 0.5 0.40625
vt 0.46875 0.34375
vt 0.4375 0.28125
vt 0.4375 0.21875
vt 0.4375 0.15625
vt 0.4375 0.09375
vt 0.53125 0.40625
vt 0.5 0.46875
vt 0.46875 0.40625
vt 0.4375 0.34375
vt 0.40625 0.28125
vt 0.40625 0.21875
vt 0.5625 0.40625
vt 0.53125 0.46875
vt 0.40625 0.15625
vt 0.4375 0.40625
vt 0.40625 0.34375
vt 0.375 0.28125
vt 0.46875 0.46875
vt 0.375 0.21875
vt 0.40625 0.40625
vt 0.4375 0.46875
vt 0.375 0.34375
vt 0.40625 0.09375
vt 0.375 0.15625
vt 0.34375 0.28125
vt 0.34375 0.34375
vt 0.34375 0.21875
vt 0.375 0.40625
vt 0.40625 0.46875
vt 0.34375 0.40625
vt 0.40625 0.03125
vt 0.375 0.09375
vt 0.4375 0.03125
vt 0.4453125 0
vt 0.4140625 0
vt 0.375 0.03125
vt 0.3828125 0
vt 0.34375 0.09375
vt 0.34375 0.15625
vt 0.34375 0.03125
vt 0.3515625 0
vt 0.3125 0.09375
vt 0.3125 0.03125
vt 0.3203125 0
vt 0.3125 0.21875
vt 0.3125 0.15625
vt 0.3125 0.28125
vt 0.3125 0.34375
vt 0.3125 0.40625
vt 0.28125 0.09375
vt 0.28125 0.15625
vt 0.28125 0.21875
vt 0.28125 0.28125
vt 0.28125 0.34375
vt 0.28125 0.40625
vt 0.28125 0.03125
vt 0.2890625 0
vt 0.25 0.03125
vt 0.2578125 0
vt 0.25 0.09375
vt 0.25 0.28125
vt 0.25 0.34375
vt 0.25 0.21875
vt 0.25 0.15625
vt 0.21875 0.21875
vt 0.21875 0.15625
vt 0.21875 0.09375
vt 0.21875 0.28125
vt 0.25 0.40625
vt 0.1875 0.21875
vt 0.21875 0.34375
vt 0.21875 0.03125
vt 0.2265625 0
vt 0.1875 0.15625
vt 0.1875 0.09375
vt 0.1875 0.03125
vt 0.1953125 0
vt 0.15625 0.09375
vt 0.1875 0.28125
vt 0.15625 0.03125
vt 0.1640625 0
vt 0.15625 0.21875
vt 0.15625 0.28125
vt 0.1875 0.34375
vt 0.15625 0.15625
vt 0.21875 0.40625
vt 0.25 0.46875
vt 0.28125 0.46875
vt 0.3125 0.46875
vt 0.34375 0.46875
vt 0.375 0.46875
vt 0.40625 0.53125
vt 0.375 0.53125
vt 0.34375 0.53125
vt 0.3125 0.53125
vt 0.375 0.59375
vt 0.4375 0.53125
vt 0.34375 0.59375
vt 0.40625 0.59375
vt 0.46875 0.53125
vt 0.375 0.65625
vt 0.4375 0.59375
vt 0.40625 0.65625
vt 0.3125 0.59375
vt 0.34375 0.65625
vt 0.375 0.71875
vt 0.28125 0.53125
vt 0.25 0.53125
vt 0.28125 0.59375
vt 0.3125 0.65625
vt 0.34375 0.71875
vt 0.4375 0.65625
vt 0.40625 0.71875
vt 0.46875 0.59375
vt 0.5 0.53125
vt 0.53125 0.53125
vt 0.28125 0.65625
vt 0.3125 0.71875
vt 0.25 0.59375
vt 0.46875 0.65625
vt 0.5 0.59375
vt 0.53125 0.59375
vt 0.4375 0.71875
vt 0.5 0.65625
vt 0.46875 0.71875
vt 0.4375 0.78125
vt 0.53125 0.65625
vt 0.40625 0.78125
vt 0.375 0.78125
vt 0.34375 0.78125
vt 0.5 0.71875
vt 0.53125 0.71875
vt 0.46875 0.78125
vt 0.5625 0.65625
vt 0.5625 0.71875
vt 0.5625 0.59375
vt 0.5625 0.53125
vt 0.5625 0.46875
vt 0.59375 0.40625
vt 0.625 0.34375
vt 0.65625 0.34375
vt 0.59375 0.65625
vt 0.59375 0.59375
vt 0.59375 0.53125
vt 0.59375 0.46875
vt 0.625 0.40625
vt 0.65625 0.40625
vt 0.59375 0.71875
vt 0.6875 0.34375
vt 0.6875 0.40625
vt 0.6875 0.28125
vt 0.71875 0.21875
vt 0.65625 0.46875
vt 0.6875 0.46875
vt 0.625 0.46875
vt 0.625 0.53125
vt 0.65625 0.53125
vt 0.625 0.59375
vt 0.6875 0.53125
vt 0.65625 0.59375
vt 0.625 0.65625
vt 0.625 0.71875
vt 0.65625 0.65625
vt 0.6875 0.59375
vt 0.71875 0.53125
vt 0.71875 0.46875
vt 0.71875 0.40625
vt 0.75 0.46875
vt 0.71875 0.34375
vt 0.75 0.40625
vt 0.71875 0.28125
vt 0.75 0.34375
vt 0.75 0.28125
vt 0.75 0.21875
vt 0.75 0.15625
vt 0.75 0.09375
vt 0.78125 0.15625
vt 0.78125 0.21875
vt 0.78125 0.28125
vt 0.78125 0.34375
vt 0.78125 0.09375
vt 0.8125 0.15625
vt 0.8125 0.21875
vt 0.78125 0.40625
vt 0.8125 0.28125
vt 0.78125 0.03125
vt 0.7578125 0
vt 0.8125 0.03125
vt 0.7890625 0
vt 0.8125 0.09375
vt 0.84375 0.15625
vt 0.84375 0.03125
vt 0.8203125 0
vt 0.8125 0.34375
vt 0.84375 0.21875
vt 0.84375 0.09375
vt 0.875 0.15625
vt 0.84375 0.28125
vt 0.875 0.09375
vt 0.875 0.21875
vt 0.875 0.03125
vt 0.8515625 0
vt 0.90625 0.15625
vt 0.90625 0.03125
vt 0.8828125 0
vt 0.90625 0.09375
vt 0.84375 0.34375
vt 0.875 0.28125
vt 0.90625 0.21875
vt 0.9375 0.15625
vt 0.9375 0.09375
vt 0.8125 0.40625
vt 0.9375 0.03125
vt 0.9140625 0
vt 0.78125 0.46875
vt 0.96875 0.03125
vt 0.9453125 0
vt 0.75 0.53125
vt 0.71875 0.59375
vt 0.6875 0.65625
vt 0.65625 0.71875
vt 0.625 0.78125
vt 0.59375 0.78125
vt 0.5625 0.78125
vt 0.53125 0.78125
vt 0.5 0.78125
vt 0.71875 0.65625
vt 0.6875 0.71875
vt 0.75 0.59375
vt 0.59375 0.84375
vt 0.5625 0.84375
vt 0.53125 0.84375
vt 0.5 0.84375
vt 0.625 0.84375
vt 0.46875 0.84375
vt 0.5 0.90625
vt 0.4375 0.84375
vt 0.53125 0.90625
vt 0.59375 0.90625
vt 0.46875 0.90625
vt 0.40625 0.84375
vt 0.5625 0.90625
vt 0.5 0.96875
vt 0.4375 0.90625
vt 0.375 0.84375
vt 0.53125 0.96875
vt 0.5234375 1
vt 0.46875 0.96875
vt 0.4921875 1
vt 0.5625 0.96875
vt 0.5546875 1
vt 0.59375 0.96875
vt 0.5859375 1
vt 0.625 0.90625
vt 0.4375 0.96875
vt 0.4609375 1
vt 0.40625 0.96875
vt 0.4296875 1
vt 0.625 0.96875
vt 0.6171875 1
vt 0.65625 0.96875
vt 0.6484375 1
vt 0.65625 0.90625
vt 0.40625 0.90625
vt 0.375 0.90625
vt 0.65625 0.84375
vt 0.65625 0.78125
vt 0.6875 0.84375
vt 0.6875 0.78125
vt 0.6875 0.90625
vt 0.375 0.96875
vt 0.3984375 1
vt 0.34375 0.96875
vt 0.3671875 1
vt 0.6875 0.96875
vt 0.6796875 1
vt 0.71875 0.96875
vt 0.7109375 1
vt 0.71875 0.90625
vt 0.71875 0.84375
vt 0.75 0.96875
vt 0.7421875 1
vt 0.34375 0.90625
vt 0.34375 0.84375
vt 0.3125 0.90625
vt 0.3125 0.78125
vt 0.71875 0.78125
vt 0.3125 0.96875
vt 0.3359375 1
vt 0.3125 0.84375
vt 0.28125 0.71875
vt 0.28125 0.90625
vt 0.28125 0.78125
vt 0.25 0.65625
vt 0.28125 0.96875
vt 0.3046875 1
vt 0.28125 0.84375
vt 0.25 0.71875
vt 0.25 0.96875
vt 0.2734375 1
vt 0.25 0.90625
vt 0.25 0.78125
vt 0.25 0.84375
vt 0.21875 0.90625
vt 0.21875 0.78125
vt 0.21875 0.71875
vt 0.21875 0.65625
vt 0.21875 0.96875
vt 0.2421875 1
vt 0.21875 0.84375
vt 0.1875 0.71875
vt 0.21875 0.59375
vt 0.1875 0.78125
vt 0.1875 0.84375
vt 0.1875 0.90625
vt 0.1875 0.65625
vt 0.21875 0.53125
vt 0.15625 0.71875
vt 0.1875 0.96875
vt 0.2109375 1
vt 0.1875 0.59375
vt 0.21875 0.46875
vt 0.15625 0.90625
vt 0.15625 0.78125
vt 0.15625 0.65625
vt 0.1875 0.53125
vt 0.1875 0.40625
vt 0.15625 0.96875
vt 0.1796875 1
vt 0.125 0.71875
vt 0.15625 0.59375
vt 0.1875 0.46875
vt 0.15625 0.34375
vt 0.125 0.65625
vt 0.15625 0.53125
vt 0.15625 0.40625
vt 0.125 0.28125
vt 0.125 0.59375
vt 0.15625 0.46875
vt 0.125 0.34375
vt 0.125 0.21875
vt 0.125 0.53125
vt 0.125 0.40625
vt 0.125 0.46875
vt 0.09375 0.53125
vt 0.09375 0.46875
vt 0.09375 0.40625
vt 0.09375 0.34375
vt 0.09375 0.59375
vt 0.0625 0.53125
vt 0.0625 0.46875
vt 0.09375 0.65625
vt 0.0625 0.40625
vt 0.09375 0.28125
vt 0.0625 0.59375
vt 0.03125 0.46875
vt 0.0625 0.34375
vt 0.03125 0.53125
vt 0.03125 0.40625
vt 0 0.46875
vt 0 0.53125
vt 0 0.40625
vt 0.03125 0.59375
vt 0 0.59375
vt 0.03125 0.34375
vt 0 0.34375
vt 0.0625 0.28125
vt 0.03125 0.28125
vt 5.96046448E-08 0.28125
vt 0.03125 0.21875
vt 5.96046448E-08 0.21875
vt 0.0625 0.65625
vt 0.09375 0.21875
vt 0.0625 0.21875
vt 0.03125 0.15625
vt 0 0.15625
vt 0 0.09375
vt 0.125 0.15625
vt 0.09375 0.15625
vt 0.0625 0.15625
vt 0.03125 0.09375
vt 0 0.03125
vt 0.125 0.09375
vt 0.09375 0.09375
vt 0.0625 0.09375
vt 0.03125 0.03125
vt 0.0078125 0
vt 0.0625 0.03125
vt 0.0390625 0
vt 0.09375 0.03125
vt 0.0703125 0
vt 0.125 0.03125
vt 0.1328125 0
vt 0.1015625 0
vt 0.125 0.96875
vt 0.1171875 1
vt 0.09375 0.96875
vt 0.09375 0.90625
vt 0.125 0.90625
vt 0.1484375 1
vt 0.125 0.84375
vt 0.15625 0.84375
vt 0.125 0.78125
vt 0.09375 0.71875
vt 0.09375 0.78125
vt 0.09375 0.84375
vt 0.0625 0.71875
vt 0.0625 0.90625
vt 0.0625 0.78125
vt 0.03125 0.65625
vt 0 0.65625
vt 0.03125 0.71875
vt 5.96046448E-08 0.71875
vt 0.03125 0.78125
vt 5.96046448E-08 0.78125
vt 0.0625 0.84375
vt 0.03125 0.84375
vt 0 0.84375
vt 0 0.90625
vt 0.03125 0.90625
vt 0.0625 0.96875
vt 0.0859375 1
vt 0.03125 0.96875
vt 0.0546875 1
vt 0 0.96875
vt 0.0234375 1
vt 0.9765625 0
vt 1 0.03125
vt 0.96875 0.09375
vt 1 0.09375
vt 0.96875 0.15625
vt 1 0.15625
vt 0.96875 0.21875
vt 1 0.21875
vt 1 0.28125
vt 0.9375 0.21875
vt 0.96875 0.28125
vt 1 0.34375
vt 0.90625 0.28125
vt 0.9375 0.28125
vt 0.96875 0.34375
vt 1 0.40625
vt 0.9375 0.34375
vt 0.96875 0.40625
vt 1 0.46875
vt 0.90625 0.34375
vt 0.9375 0.40625
vt 0.96875 0.46875
vt 0.875 0.34375
vt 0.96875 0.53125
vt 1 0.53125
vt 0.9375 0.46875
vt 0.90625 0.40625
vt 0.84375 0.40625
vt 0.875 0.40625
vt 0.90625 0.46875
vt 0.8125 0.46875
vt 0.84375 0.46875
vt 0.78125 0.53125
vt 0.9375 0.53125
vt 0.875 0.46875
vt 0.8125 0.53125
vt 0.78125 0.59375
vt 0.84375 0.53125
vt 0.875 0.53125
vt 0.8125 0.59375
vt 0.90625 0.53125
vt 0.875 0.59375
vt 0.84375 0.59375
vt 0.90625 0.59375
vt 0.875 0.65625
vt 0.84375 0.65625
vt 0.8125 0.65625
vt 0.9375 0.59375
vt 0.90625 0.65625
vt 0.875 0.71875
vt 0.96875 0.59375
vt 1 0.59375
vt 0.9375 0.65625
vt 0.96875 0.65625
vt 1 0.65625
vt 0.90625 0.71875
vt 0.96875 0.71875
vt 1 0.71875
vt 0.9375 0.71875
vt 0.96875 0.78125
vt 1 0.78125
vt 1 0.84375
vt 0.9375 0.78125
vt 0.96875 0.84375
vt 1 0.90625
vt 0.90625 0.78125
vt 0.96875 0.90625
vt 1 0.96875
vt 0.9375 0.84375
vt 0.96875 0.96875
vt 0.9921875 1
vt 0.9375 0.90625
vt 0.9375 0.96875
vt 0.9609375 1
vt 0.90625 0.96875
vt 0.9296875 1
vt 0.90625 0.90625
vt 0.90625 0.84375
vt 0.875 0.90625
vt 0.875 0.78125
vt 0.875 0.96875
vt 0.8984375 1
vt 0.875 0.84375
vt 0.84375 0.71875
vt 0.84375 0.90625
vt 0.84375 0.78125
vt 0.8125 0.71875
vt 0.84375 0.84375
vt 0.84375 0.96875
vt 0.8671875 1
vt 0.8125 0.96875
vt 0.8359375 1
vt 0.78125 0.65625
vt 0.8125 0.78125
vt 0.8125 0.90625
vt 0.75 0.65625
vt 0.78125 0.71875
vt 0.8125 0.84375
vt 0.71875 0.71875
vt 0.75 0.71875
vt 0.78125 0.78125
vt 0.75 0.78125
vt 0.78125 0.84375
vt 0.75 0.84375
vt 0.75 0.90625
vt 0.78125 0.90625
vt 0.78125 0.96875
vt 0.7734375 1
vt 0.8046875 1
vn -0 0 1
vn 0.0573674403 0.113230966 0.991911113
vn 0.0783555657 0.0998632163 0.991911113
vn 0.182640791 0.23277384 0.955227017
vn 0.224543259 0.192669615 0.955227017
vn 0.0963322893 0.0826579928 0.991911113
vn -0 0 1
vn 0.110607095 0.0622762218 0.991911113
vn -0 0 1
vn 0.361344904 0.310052037 0.879373431
vn 0.257816851 0.145161346 0.955227017
vn 0.281183004 0.092073597 0.955227017
vn 0.414890081 0.233599558 0.879373372
vn 0.12063127 0.0395012274 0.991911113
vn -0 0 1
vn 0.126019925 0.0152081912 0.991911113
vn -0 0 1
vn 0.452491075 0.148170114 0.879373372
vn 0.293743074 0.035448391 0.955226898
vn 0.555957139 0.3130261 0.770017028
vn 0.606342971 0.198549688 0.770016968
vn 0.293912858 0.374589831 0.87937355
vn 0.48420614 0.415473342 0.770017028
vn 0.29501462 -0.0225380864 0.955226898
vn 0.126565576 -0.00966922659 0.991911113
vn -0 0 1
vn 0.122247308 -0.034175083 0.991911113
vn -0 0 1
vn 0.47270292 0.0570459925 0.87937355
vn 0.474749207 -0.0362698771 0.87937355
vn 0.284948945 -0.0796593726 0.955226898
vn 0.633427501 0.0764431804 0.770016968
vn 0.11323113 -0.0573676862 0.991911113
vn -0 0 1
vn 0.636169732 -0.0486013107 0.770016909
vn 0.769864678 0.0929084346 0.631408215
vn 0.773197591 -0.0590698794 0.631408036
vn 0.736946344 0.241316363 0.631408334
vn 0.675707579 0.380450755 0.631408393
vn 0.458551407 -0.128191292 0.879373431
vn 0.614464223 -0.171778023 0.770016909
vn 0.263933033 -0.133719757 0.955226898
vn 0.746816993 -0.208778158 0.631407917
vn 0.880700231 -0.0672827885 0.468871117
vn 0.876903951 0.105825998 0.468871325
vn 0.850651681 -0.237805933 0.468871117
vn 0.569145262 -0.288353264 0.770016909
vn 0.691736698 -0.350463152 0.631407976
vn 0.787913024 -0.399190575 0.468871027
vn 0.424731582 -0.215187281 0.879373372
vn 0.610073268 -0.478680253 0.631407857
vn 0.501954257 -0.393847525 0.770016968
vn 0.374589443 -0.293913603 0.879373372
vn 0.232774094 -0.182641208 0.955226898
vn 0.0998635143 -0.0783557594 0.991911113
vn -0 0 1
vn 0.854087889 -0.432717294 0.288599372
vn 0.694895208 -0.54523474 0.468870908
vn 0.504964828 -0.588502169 0.631407678
vn 0.415473342 -0.4842062 0.770016968
vn 0.310052305 -0.361344963 0.879373252
vn 0.192669913 -0.22454372 0.955226898
vn 0.922095716 -0.257778645 0.28859964
vn 0.887800634 -0.449798018 0.0974257961
vn 0.753257871 -0.591027081 0.28859961
vn 0.575172961 -0.670325458 0.468870699
vn 0.380450994 -0.675708115 0.631407678
vn 0.313026458 -0.555957258 0.770016909
vn 0.954667926 -0.0729337186 0.288599819
vn 0.958492875 -0.267954111 0.0974261016
vn 0.233599693 -0.414890021 0.879373252
vn 0.623480439 -0.726623952 0.28859973
vn 0.433347464 -0.769655764 0.468870997
vn 0.241316333 -0.73694694 0.631407738
vn 0.782990575 -0.614356518 0.0974256024
vn 0.198549613 -0.606343329 0.77001673
vn 0.469743103 -0.83429718 0.288599491
vn 0.648090661 -0.755305767 0.0974255055
vn 0.274868429 -0.839408934 0.468870968
vn 0.145161182 -0.257817388 0.955226898
vn 0.148170158 -0.452491164 0.879373252
vn 0.0929084048 -0.769865096 0.631407678
vn 0.10582608 -0.87690413 0.468870997
vn 0.0764430836 -0.633427858 0.770016611
vn 0.297953784 -0.909908831 0.288599104
vn 0.488284796 -0.867229104 0.0974255204
vn 0.114714295 -0.95055306 0.288599074
vn 0.0622763932 -0.11060749 0.991911113
vn 0.0920742154 -0.281183153 0.955226898
vn 0.082658194 -0.0963325724 0.991911113
vn -0 0 1
vn -0 0 1
vn 0.0395013876 -0.120631762 0.991911113
vn -0 0 1
vn 0.0354494452 -0.293743044 0.955226839
vn 0.0570462011 -0.472703189 0.879373252
vn 0.0152083021 -0.126020223 0.991911113
vn -0 0 1
vn -0.0225382335 -0.295014799 0.955226839
vn -0.0096692536 -0.12656571 0.991911113
vn -0 0 1
vn -0.0486012846 -0.63617003 0.77001667
vn -0.0362695493 -0.474749714 0.879373252
vn -0.0590697527 -0.773197949 0.631407738
vn -0.067282699 -0.88070029 0.468870878
vn -0.0729335919 -0.954668164 0.288599104
vn -0.0796595737 -0.284949213 0.955226839
vn -0.128191531 -0.458551645 0.879373252
vn -0.171777993 -0.614464581 0.770016611
vn -0.208778083 -0.746817291 0.631407619
vn -0.237806007 -0.850651681 0.468870968
vn -0.257778525 -0.922095835 0.288599133
vn -0.0341751389 -0.122247443 0.991911113
vn -0 0 1
vn -0.0573677644 -0.113231264 0.991911113
vn -0 0 1
vn -0.133719817 -0.263933241 0.955226839
vn -0.350463271 -0.691736937 0.631407619
vn -0.399190664 -0.787913024 0.468870908
vn -0.288353473 -0.569145441 0.77001667
vn -0.215187371 -0.42473191 0.879373252
vn -0.393847466 -0.501954734 0.770016611
vn -0.293913662 -0.374589741 0.879373252
vn -0.182641357 -0.232774302 0.955226839
vn -0.478680402 -0.610073388 0.631407619
vn -0.432717443 -0.854087889 0.288599253
vn -0.484206229 -0.415473968 0.77001667
vn -0.545234621 -0.694895267 0.468870878
vn -0.0783558264 -0.0998636261 0.991911113
vn -0 0 1
vn -0.361344844 -0.310052574 0.879373252
vn -0.224543884 -0.192670181 0.955226839
vn -0.0963326767 -0.0826583356 0.991911113
vn -0 0 1
vn -0.257817388 -0.145161644 0.955226839
vn -0.588502347 -0.504965007 0.63140744
vn -0.110607527 -0.0622764379 0.991911113
vn -0 0 1
vn -0.555957377 -0.313027024 0.770016611
vn -0.675708234 -0.380451262 0.63140732
vn -0.670325339 -0.57517302 0.468870968
vn -0.414889812 -0.233600095 0.879373372
vn -0.5910272 -0.753257811 0.288599432
vn -0.449797988 -0.887800634 0.0974254906
vn -0.267953664 -0.958493114 0.0974254683
vn -0.075812377 -0.992351115 0.0974254161
vn 0.119242273 -0.988073647 0.0974253863
vn 0.309714705 -0.9458251 0.09742558
vn 0.488285005 -0.867228925 -0.0974258259
vn 0.309714705 -0.9458251 -0.0974258482
vn 0.119242296 -0.988073647 -0.0974257365
vn -0.0758124366 -0.992351115 -0.0974256843
vn 0.297953814 -0.909908652 -0.288599759
vn 0.64809078 -0.755305588 -0.09742596
vn 0.114714481 -0.95055294 -0.28859964
vn 0.469743222 -0.834296942 -0.288599849
vn 0.782990634 -0.614356458 -0.0974259153
vn 0.274868399 -0.839408755 -0.468871236
vn 0.623480499 -0.726623714 -0.288599819
vn 0.433347434 -0.769655645 -0.468871146
vn -0.0729334205 -0.954668045 -0.28859961
vn 0.10582646 -0.876903892 -0.468871355
vn 0.24131684 -0.736946523 -0.631407917
vn -0.267953664 -0.958493114 -0.0974257812
vn -0.449797869 -0.887800753 -0.0974257737
vn -0.257778555 -0.922095716 -0.288599581
vn -0.0672824979 -0.880700052 -0.468871444
vn 0.0929086879 -0.769864798 -0.631408095
vn 0.575173199 -0.670325279 -0.468870938
vn 0.380450964 -0.675707877 -0.631407857
vn 0.753257811 -0.591027081 -0.2885997
vn 0.887800634 -0.449798077 -0.097425878
vn 0.958492994 -0.267954111 -0.097426042
vn -0.237805799 -0.850651503 -0.468871474
vn -0.0590696707 -0.773197711 -0.631408095
vn -0.432717353 -0.85408771 -0.288599849
vn 0.694895267 -0.545234382 -0.468870997
vn 0.854087889 -0.432717353 -0.288599402
vn 0.922095835 -0.257778466 -0.288599491
vn 0.504964948 -0.588501751 -0.631407976
vn 0.787913024 -0.399190485 -0.468871027
vn 0.610073268 -0.478680015 -0.631408036
vn 0.41547367 -0.484205961 -0.770017028
vn 0.850651681 -0.237805769 -0.468871117
vn 0.313026667 -0.55595696 -0.770016968
vn 0.19855009 -0.606342912 -0.770016968
vn 0.0764433295 -0.633427382 -0.770016968
vn 0.691736579 -0.350463241 -0.631407917
vn 0.746817172 -0.20877789 -0.631407857
vn 0.501954436 -0.393847406 -0.770016909
vn 0.88070029 -0.067282401 -0.468870997
vn 0.773197889 -0.0590695851 -0.631407797
vn 0.954667926 -0.0729334876 -0.28859964
vn 0.992351115 -0.075812377 -0.0974259079
vn 0.992351115 -0.0758124292 0.0974260345
vn 0.95055294 0.114714295 0.288599581
vn 0.839408934 0.27486825 0.468871176
vn 0.769655585 0.433347344 0.468871295
vn 0.87690407 0.105826266 -0.468871176
vn 0.95055294 0.114714526 -0.288599432
vn 0.988073647 0.119242534 -0.0974257141
vn 0.988073647 0.119242497 0.0974258929
vn 0.909908652 0.297953784 0.288599551
vn 0.83429718 0.469742954 0.288599491
vn 0.769865036 0.092908673 -0.631407797
vn 0.670324981 0.57517314 0.468871295
vn 0.726623952 0.623480558 0.288599759
vn 0.588501871 0.50496459 0.631408155
vn 0.393846959 0.501954675 0.770016968
vn 0.867228806 0.488285035 0.0974258855
vn 0.755305529 0.648090899 0.0974259451
vn 0.945824981 0.309714943 0.0974260345
vn 0.945824981 0.309714973 -0.0974258333
vn 0.867228925 0.488285094 -0.0974256322
vn 0.909908652 0.297954082 -0.288599253
vn 0.755305588 0.648090959 -0.0974254459
vn 0.834297299 0.469743073 -0.288599253
vn 0.839408934 0.274868518 -0.468870968
vn 0.736946702 0.241316721 -0.631407917
vn 0.769655764 0.433347493 -0.468870938
vn 0.726624072 0.623480558 -0.288599312
vn 0.61435622 0.782990873 -0.0974253118
vn 0.614356279 0.782990813 0.0974257886
vn 0.591027081 0.753257811 0.288599581
vn 0.449797094 0.887801111 0.0974254832
vn 0.545234323 0.694895208 0.468871325
vn 0.432717204 0.85408783 0.288599759
vn 0.478679448 0.610073268 0.631408393
vn 0.399189532 0.787913024 0.468871772
vn 0.35046196 0.691736579 0.631408691
vn 0.288353115 0.569145501 0.770016849
vn 0.215186462 0.424731791 0.879373431
vn 0.133719712 0.263932765 0.955226898
vn 0.128191382 0.458551258 0.87937355
vn 0.171777993 0.614464402 0.77001667
vn 0.208777741 0.746816933 0.631408155
vn 0.237805128 0.850651264 0.4688721
vn 0.0796595961 0.284948736 0.955226898
vn 0.0362690762 0.474749237 0.879373431
vn 0.048600968 0.636169851 0.77001667
vn 0.257778376 0.922095835 0.288599432
vn 0.059069749 0.77319777 0.631408036
vn 0.0341747478 0.122246869 0.991911232
vn -0 0 1
vn 0.00966918655 0.126565233 0.991911113
vn -0 0 1
vn 0.0225381423 0.295014381 0.955226898
vn -0.0570468046 0.47270298 0.879373372
vn -0.0152082453 0.126019642 0.991911113
vn -0 0 1
vn 0.0672823563 0.880699754 0.46887213
vn -0.0764433816 0.63342762 0.770016849
vn -0.0354494676 0.293742865 0.955226898
vn -0.148170248 0.452490926 0.879373372
vn -0.0929088295 0.769864917 0.631407917
vn -0.0920755193 0.281182379 0.955227017
vn -0.198550195 0.606343091 0.770016849
vn -0.0395012088 0.120631248 0.991911113
vn -0 0 1
vn -0.233600467 0.414889365 0.879373431
vn -0.06227649 0.110607162 0.991911113
vn -0 0 1
vn -0.145162627 0.257816613 0.955226898
vn -0.105826184 0.876903415 0.46887219
vn -0.241317004 0.736946583 0.631407738
vn -0.313026845 0.555957079 0.77001673
vn -0.310052544 0.361344516 0.879373372
vn -0.192670077 0.224543869 0.955226839
vn 0.0729337186 0.954668045 0.288599432
vn -0.0826582164 0.0963324979 0.991911113
vn -0 0 1
vn 0.2679528 0.958493412 0.0974248052
vn -0.099863492 0.078355737 0.991911113
vn -0 0 1
vn 0.449797094 0.88780117 -0.0974249989
vn 0.5910272 0.753257871 -0.288599193
vn 0.670325041 0.57517314 -0.468871117
vn 0.675707817 0.380451232 -0.631407797
vn 0.606343269 0.198550284 -0.77001667
vn 0.63342768 0.0764433965 -0.77001667
vn 0.636169851 -0.0486011393 -0.77001673
vn 0.614464343 -0.171777889 -0.770016849
vn 0.569145262 -0.288353324 -0.770016909
vn 0.545234203 0.694895446 -0.468871087
vn 0.588502049 0.504964888 -0.631407678
vn 0.432717234 0.854087889 -0.288599342
vn 0.472703129 0.0570464879 -0.879373252
vn 0.474749416 -0.0362693183 -0.879373372
vn 0.458551526 -0.128191307 -0.879373372
vn 0.424731672 -0.215187296 -0.879373372
vn 0.452490956 0.148170382 -0.879373252
vn 0.374589562 -0.293913513 -0.879373372
vn 0.263932973 -0.133719727 -0.955226898
vn 0.310052633 -0.361344606 -0.879373372
vn 0.284949034 -0.0796593949 -0.955226898
vn 0.293742776 0.035449829 -0.955226898
vn 0.232774094 -0.182641149 -0.955226898
vn 0.233600155 -0.414889544 -0.879373431
vn 0.295014501 -0.0225381218 -0.955226898
vn 0.113231167 -0.0573677123 -0.991911113
vn 0.192669973 -0.224543601 -0.955226898
vn 0.148170248 -0.452490866 -0.879373372
vn 0.122247294 -0.0341750644 -0.991911113
vn -0 0 -1
vn 0.0998635367 -0.0783557296 -0.991911113
vn -0 0 -1
vn 0.126565561 -0.00966923591 -0.991911113
vn -0 0 -1
vn 0.126020119 0.0152083775 -0.991911113
vn -0 0 -1
vn 0.281182647 0.0920752361 -0.955226898
vn 0.0826582164 -0.0963325053 -0.991911113
vn -0 0 -1
vn 0.0622764751 -0.110607162 -0.991911113
vn -0 0 -1
vn 0.120631732 0.0395014435 -0.991911113
vn -0 0 -1
vn 0.110607512 0.0622764975 -0.991911113
vn -0 0 -1
vn 0.257817119 0.145161659 -0.955226898
vn 0.145162299 -0.257816702 -0.955226898
vn 0.0920757055 -0.281182319 -0.955226898
vn 0.414889842 0.233600184 -0.879373252
vn 0.555957198 0.313026786 -0.77001667
vn 0.361344904 0.310052574 -0.879373252
vn 0.484206289 0.415473729 -0.77001667
vn 0.22454372 0.192670032 -0.955226898
vn 0.0395012535 -0.12063127 -0.991911113
vn -0 0 -1
vn 0.0152082276 -0.126019686 -0.991911113
vn -0 0 -1
vn 0.0963326991 0.0826583803 -0.991911113
vn -0 0 -1
vn 0.0783558637 0.0998636559 -0.991911113
vn -0 0 -1
vn 0.182641268 0.232774124 -0.955226898
vn 0.293913633 0.37458986 -0.879373193
vn 0.0573676191 0.113231443 -0.991911113
vn -0 0 -1
vn 0.0354494825 -0.293742716 -0.955226898
vn 0.0570468381 -0.472703099 -0.879373372
vn -0.0225381218 -0.295014352 -0.955227017
vn -0.0486009195 -0.636169732 -0.770016909
vn 0.393847257 0.501954913 -0.770016611
vn -0.00966921449 -0.126565233 -0.991911113
vn -0 0 -1
vn -0.0362690575 -0.474749297 -0.879373431
vn -0.208777905 -0.746816993 -0.631408036
vn -0.0796594024 -0.284948587 -0.955227017
vn -0.171777964 -0.614464164 -0.770016968
vn -0.399190485 -0.787912786 -0.468871385
vn -0.0341750607 -0.122246988 -0.991911113
vn -0 0 -1
vn -0.128191411 -0.458551377 -0.879373372
vn -0.350463092 -0.691736579 -0.631407976
vn -0.0573675185 -0.113230757 -0.991911113
vn -0 0 -1
vn -0.133719534 -0.263932705 -0.955227017
vn -0.288353205 -0.569145203 -0.770017028
vn -0.215187088 -0.424731612 -0.879373431
vn -0.18264097 -0.23277384 -0.955227017
vn -0.393847167 -0.501954377 -0.770016968
vn -0.478680074 -0.610073268 -0.631407917
vn -0.545234382 -0.694895089 -0.468871295
vn -0.0783554763 -0.0998632163 -0.991911113
vn -0 0 -1
vn -0.293913424 -0.374589473 -0.879373431
vn -0.588502169 -0.504964828 -0.631407857
vn -0.591026962 -0.753257751 -0.288599849
vn -0.4842062 -0.415473282 -0.770017087
vn -0.361344963 -0.310051888 -0.879373431
vn -0.224543408 -0.192669705 -0.955227017
vn -0.6703251 -0.575172901 -0.468871355
vn -0.614356577 -0.782990575 -0.0974255577
vn -0.675707996 -0.380450726 -0.631407917
vn -0.0963322967 -0.0826579928 -0.991911113
vn -0 0 -1
vn -0.726623833 -0.623480439 -0.288599849
vn -0.614356577 -0.782990575 0.0974253193
vn -0.25781703 -0.14516139 -0.955226898
vn -0.555957198 -0.313026249 -0.770016968
vn -0.769655466 -0.433347255 -0.468871623
vn -0.755305707 -0.64809072 -0.0974254981
vn -0.726623952 -0.623480558 0.288599491
vn -0.110607058 -0.0622762442 -0.991911113
vn -0 0 -1
vn -0.736946702 -0.241316482 -0.631407917
vn -0.83429718 -0.469742894 -0.28859961
vn -0.755305707 -0.648090661 0.0974252447
vn -0.769655526 -0.433347553 0.468871355
vn -0.839408576 -0.274868131 -0.468871623
vn -0.867228985 -0.488284975 -0.0974253714
vn -0.834297001 -0.469743401 0.288599521
vn -0.736946881 -0.241317108 0.63140744
vn -0.909908772 -0.297953784 -0.288599581
vn -0.867228985 -0.488285035 0.0974251106
vn -0.839408576 -0.274868488 0.468871564
vn -0.606343329 -0.198550269 0.770016611
vn -0.945824981 -0.309714973 -0.0974253789
vn -0.909908652 -0.297954023 0.288599283
vn -0.945824981 -0.309715062 0.0974249393
vn -0.988073647 -0.11924234 -0.097425364
vn -0.988073647 -0.119242296 0.0974251255
vn -0.95055294 -0.114714153 0.288599521
vn -0.876903892 -0.105826415 0.468871444
vn -0.95055294 -0.114714131 -0.288599789
vn -0.992351115 0.0758126229 -0.0974253416
vn -0.992351115 0.0758124664 0.0974251628
vn -0.876903772 -0.105826274 -0.468871683
vn -0.954668045 0.0729334578 0.288599372
vn -0.769865274 -0.0929088145 0.631407559
vn -0.954668045 0.072933659 -0.288599432
vn -0.958493114 0.267953873 0.097425133
vn -0.880700052 0.067282334 0.468871444
vn -0.958493114 0.267953902 -0.0974252746
vn -0.922095835 0.257778674 0.288599372
vn -0.887800634 0.449798137 0.0974251181
vn -0.887800753 0.449798048 -0.0974250063
vn -0.85408783 0.432717472 0.288599432
vn -0.922095835 0.257778764 -0.288599283
vn -0.85408783 0.432717562 -0.288599432
vn -0.850651443 0.237805709 0.468871534
vn -0.787912726 0.399190366 0.468871593
vn -0.773198068 0.0590696447 0.631407738
vn -0.74681741 0.208777845 0.631407559
vn -0.691736817 0.350463241 0.631407738
vn -0.614464402 0.1717778 0.77001673
vn -0.569145381 0.288353384 0.770016849
vn -0.880700052 0.0672825053 -0.468871593
vn -0.63342768 -0.0764433667 0.77001667
vn -0.636170089 0.0486009717 0.770016611
vn -0.458551347 0.128191486 0.879373431
vn -0.424731553 0.215187222 0.879373372
vn -0.263933182 0.133719787 0.955226839
vn -0.452490926 -0.148170233 0.879373372
vn -0.472703159 -0.0570466481 0.879373372
vn -0.474749416 0.0362693258 0.879373372
vn -0.284949154 0.0796595067 0.955226839
vn -0.113231093 0.0573677123 0.991911113
vn -0.281182826 -0.0920752138 0.955226898
vn -0.293742985 -0.0354499854 0.955226898
vn -0.295014769 0.0225382131 0.955226839
vn -0.122247286 0.034175165 0.991911113
vn -0 0 1
vn -0.126565605 0.00966921914 0.991911113
vn -0 0 1
vn -0.126020074 -0.0152084203 0.991911113
vn -0 0 1
vn -0.120631739 -0.0395014249 0.991911113
vn -0 0 1
vn -0 0 1
vn -0.120631441 -0.0395011753 -0.991911113
vn -0 0 -1
vn -0.126019999 -0.0152083104 -0.991911113
vn -0.293743044 -0.0354486257 -0.955226898
vn -0.281183094 -0.0920735076 -0.955226898
vn -0 0 -1
vn -0.452490926 -0.148170069 -0.879373372
vn -0.414890081 -0.233599514 -0.879373372
vn -0.606343091 -0.198549762 -0.770016968
vn -0.769864976 -0.0929086357 -0.631407857
vn -0.63342762 -0.0764430538 -0.77001673
vn -0.47270298 -0.0570461676 -0.879373431
vn -0.773197591 0.0590698346 -0.631408036
vn -0.29501462 0.0225382335 -0.955226898
vn -0.636169851 0.0486011282 -0.770016849
vn -0.850651324 0.237806007 -0.468871593
vn -0.787912726 0.399190515 -0.468871534
vn -0.746817231 0.208778068 -0.631407738
vn -0.691736937 0.350463152 -0.631407678
vn -0.614464402 0.1717778 -0.77001673
vn -0.569145322 0.288353264 -0.770016849
vn -0.474749297 0.0362699516 -0.879373431
vn -0.458551258 0.128191456 -0.879373431
vn -0.424731493 0.215187177 -0.879373431
vn -0.263933152 0.133719802 -0.955226839
vn -0.284949154 0.0796595514 -0.955226839
vn -0.126565576 0.00966921542 -0.991911113
vn -0 0 -1
vn -0.122247279 0.0341751501 -0.991911113
vn -0 0 -1
vn -0.113231122 0.0573677123 -0.991911113
vn -0 0 -1
vn -0 0 1
vn -0.113231093 0.0573677123 0.991911113
vn -0.232774213 0.182641342 0.955226839
vn -0.263933182 0.133719787 0.955226839
vn -0.374589473 0.293913484 0.879373431
vn -0.424731553 0.215187222 0.879373372
vn -0.501954556 0.393847227 0.770016909
vn -0.569145381 0.288353384 0.770016849
vn -0.691736817 0.350463241 0.631407738
vn -0.41547358 0.484206021 0.770016968
vn -0.610073507 0.478680015 0.631407738
vn -0.787912726 0.399190366 0.468871593
vn -0.380450994 0.675707996 0.631407797
vn -0.504964948 0.588502109 0.631407797
vn -0.694895089 0.545234025 0.468871623
vn -0.85408783 0.432717472 0.288599432
vn -0.575172842 0.670324981 0.468871802
vn -0.75325793 0.591026962 0.288599402
vn -0.887800634 0.449798137 0.0974251181
vn -0.433347225 0.769655347 0.468872011
vn -0.623480439 0.726624012 0.288599432
vn -0.782990754 0.614356518 0.0974248871
vn -0.274868369 0.839408278 0.46887216
vn -0.782990634 0.614356577 -0.097424686
vn -0.887800753 0.449798048 -0.0974250063
vn -0.648090839 0.755305648 0.0974248871
vn -0.469743222 0.834297121 0.28859964
vn -0.114714116 0.95055294 0.288599551
vn -0.297954053 0.909908652 0.288599521
vn -0.488285154 0.867228925 0.0974249691
vn 0.0758126304 0.992351234 0.0974248126
vn -0.119242273 0.988073766 0.0974247903
vn 0.267952859 0.958493412 -0.0974242762
vn -0.64809078 0.755305707 -0.097424686
vn -0.309714973 0.9458251 0.0974248573
vn 0.0758124292 0.992351234 -0.0974243283
vn 0.257778496 0.922095895 -0.288599014
vn -0.119242214 0.988073766 -0.0974245667
vn -0.309714973 0.9458251 -0.0974245891
vn 0.0729336515 0.954668283 -0.288598865
vn -0.488285154 0.867228985 -0.0974246711
vn -0.297953844 0.909908831 -0.288599074
vn -0.114714146 0.950553179 -0.288599104
vn -0.469743103 0.834297299 -0.288599163
vn -0.274868071 0.839408517 -0.468871951
vn -0.10582608 0.876903713 -0.468871862
vn 0.0672824755 0.880699873 -0.468871862
vn -0.623480499 0.726624072 -0.288599342
vn -0.433347255 0.769655347 -0.468871832
vn -0.241316691 0.73694694 -0.631407559
vn -0.753257871 0.591027141 -0.288599342
vn -0.85408783 0.432717562 -0.288599432
vn -0.575172782 0.670325041 -0.468871653
vn -0.69489491 0.545234501 -0.468871444
vn -0.787912726 0.399190515 -0.468871534
vn -0.380451143 0.675708175 -0.631407559
vn -0.610073388 0.478680491 -0.631407559
vn -0.691736937 0.350463152 -0.631407678
vn -0.504964828 0.588502467 -0.63140744
vn -0.501954257 0.393847585 -0.770016909
vn -0.569145322 0.288353264 -0.770016849
vn -0.424731493 0.215187177 -0.879373431
vn -0.415473521 0.484206408 -0.770016849
vn -0.374589443 0.293913573 -0.879373372
vn -0.263933152 0.133719802 -0.955226839
vn -0.313026547 0.555957496 -0.77001667
vn -0.232774243 0.182641283 -0.955226839
vn -0.113231122 0.0573677123 -0.991911113
vn -0.310052216 0.361344874 -0.879373372
vn -0.0998635516 0.0783557296 -0.991911113
vn -0 0 -1
vn -0.192670107 0.224543899 -0.955226839
vn -0.0826582015 0.0963325649 -0.991911113
vn -0 0 -1
vn -0.0622763932 0.11060743 -0.991911113
vn -0 0 -1
vn -0.145161197 0.257817626 -0.955226839
vn -0.233599797 0.414889902 -0.879373372
vn -0.0920743719 0.281183332 -0.955226839
vn -0.198549792 0.606343448 -0.770016611
vn -0.0395013951 0.120631739 -0.991911113
vn -0 0 -1
vn -0.148170248 0.452491015 -0.879373372
vn -0.092908673 0.769865394 -0.63140744
vn -0.035449449 0.293743193 -0.955226839
vn -0.0764430761 0.633427918 -0.770016551
vn 0.0590698831 0.773198068 -0.631407619
vn -0.0570461936 0.472703099 -0.879373372
vn -0.0152083198 0.126020148 -0.991911113
vn -0 0 -1
vn 0.00966921449 0.12656574 -0.991911113
vn -0 0 -1
vn 0.237805486 0.850651443 -0.468871713
vn 0.0486013107 0.636170208 -0.770016491
vn 0.0225382764 0.295014918 -0.955226839
vn 0.399189711 0.787913024 -0.468871683
vn 0.208778054 0.74681735 -0.631407678
vn 0.0362696946 0.474749565 -0.879373252
vn 0.478679776 0.610073686 -0.631407917
vn 0.350462228 0.691736996 -0.631408036
vn 0.171777934 0.614464998 -0.770016313
vn 0.288353592 0.569145918 -0.770016253
vn 0.128190622 0.458551615 -0.879373431
vn 0.215186745 0.424732119 -0.879373252
vn 0.133719712 0.263933241 -0.955226839
vn 0.0796596706 0.284949362 -0.955226839
vn 0.0341748632 0.12224739 -0.991911113
vn -0 0 -1
vn -0 0 -1
g TianKong_0
f 3/3/3 2/2/2 1/1/1
f 4/4/4 2/2/2 3/3/3
f 5/5/5 4/4/4 3/3/3
f 5/5/5 3/3/3 6/6/6
f 6/6/6 3/3/3 7/7/7
f 5/5/5 6/6/6 8/8/8
f 8/8/8 6/6/6 9/9/9
f 10/10/10 4/4/4 5/5/5
f 8/8/8 11/11/11 5/5/5
f 10/10/10 5/5/5 11/11/11
f 8/8/8 12/12/12 11/11/11
f 11/11/11 13/13/13 10/10/10
f 13/13/13 11/11/11 12/12/12
f 12/12/12 8/8/8 14/14/14
f 14/14/14 8/8/8 15/15/15
f 12/12/12 14/14/14 16/16/16
f 16/16/16 14/14/14 17/17/17
f 12/12/12 18/18/18 13/13/13
f 16/16/16 19/19/19 12/12/12
f 18/18/18 12/12/12 19/19/19
f 13/13/13 20/20/20 10/10/10
f 18/18/18 21/21/21 13/13/13
f 13/13/13 21/21/21 20/20/20
f 10/10/10 22/22/22 4/4/4
f 10/10/10 20/20/20 23/23/23
f 23/23/23 22/22/22 10/10/10
f 16/16/16 24/24/24 19/19/19
f 16/16/16 25/25/25 24/24/24
f 25/25/25 16/16/16 26/26/26
f 24/24/24 25/25/25 27/27/27
f 27/27/27 25/25/25 28/28/28
f 19/19/19 29/29/29 18/18/18
f 19/19/19 24/24/24 30/30/30
f 30/30/30 29/29/29 19/19/19
f 27/27/27 31/31/31 24/24/24
f 30/30/30 24/24/24 31/31/31
f 18/18/18 29/29/29 32/32/32
f 18/18/18 32/32/32 21/21/21
f 31/31/31 27/27/27 33/33/33
f 33/33/33 27/27/27 34/34/34
f 29/29/29 30/30/30 35/35/35
f 32/32/32 29/29/29 35/35/35
f 21/21/21 32/32/32 36/36/36
f 32/32/32 35/35/35 37/37/37
f 36/36/36 32/32/32 37/37/37
f 36/36/36 38/38/38 21/21/21
f 21/21/21 38/38/38 20/20/20
f 20/20/20 38/38/38 39/39/39
f 20/20/20 39/39/39 23/23/23
f 31/31/31 40/40/40 30/30/30
f 41/41/41 35/35/35 30/30/30
f 30/30/30 40/40/40 41/41/41
f 33/33/33 42/42/42 31/31/31
f 40/40/40 31/31/31 42/42/42
f 43/43/43 37/37/37 35/35/35
f 35/35/35 41/41/41 43/43/43
f 36/36/36 37/37/37 44/44/44
f 38/38/38 36/36/36 45/45/45
f 44/44/44 45/45/45 36/36/36
f 37/37/37 43/43/43 46/46/46
f 46/46/46 44/44/44 37/37/37
f 47/47/47 41/41/41 40/40/40
f 48/48/48 43/43/43 41/41/41
f 41/41/41 47/47/47 48/48/48
f 43/43/43 48/48/48 49/49/49
f 49/49/49 46/46/46 43/43/43
f 42/42/42 50/50/50 40/40/40
f 40/40/40 50/50/50 47/47/47
f 51/51/51 48/48/48 47/47/47
f 49/49/49 48/48/48 51/51/51
f 52/52/52 47/47/47 50/50/50
f 47/47/47 52/52/52 51/51/51
f 53/53/53 50/50/50 42/42/42
f 50/50/50 53/53/53 52/52/52
f 42/42/42 54/54/54 53/53/53
f 54/54/54 42/42/42 33/33/33
f 33/33/33 55/55/55 54/54/54
f 55/55/55 33/33/33 56/56/56
f 46/46/46 49/49/49 57/57/57
f 51/51/51 58/58/58 49/49/49
f 57/57/57 49/49/49 58/58/58
f 59/59/59 51/51/51 52/52/52
f 58/58/58 51/51/51 59/59/59
f 60/60/60 52/52/52 53/53/53
f 52/52/52 60/60/60 59/59/59
f 61/61/61 53/53/53 54/54/54
f 53/53/53 61/61/61 60/60/60
f 62/62/62 54/54/54 55/55/55
f 54/54/54 62/62/62 61/61/61
f 57/57/57 63/63/63 46/46/46
f 63/63/63 57/57/57 64/64/64
f 44/44/44 46/46/46 63/63/63
f 58/58/58 65/65/65 57/57/57
f 64/64/64 57/57/57 65/65/65
f 59/59/59 66/66/66 58/58/58
f 65/65/65 58/58/58 66/66/66
f 67/67/67 59/59/59 60/60/60
f 66/66/66 59/59/59 67/67/67
f 68/68/68 60/60/60 61/61/61
f 60/60/60 68/68/68 67/67/67
f 63/63/63 69/69/69 44/44/44
f 45/45/45 44/44/44 69/69/69
f 64/64/64 70/70/70 63/63/63
f 69/69/69 63/63/63 70/70/70
f 61/61/61 71/71/71 68/68/68
f 71/71/71 61/61/61 62/62/62
f 66/66/66 72/72/72 65/65/65
f 67/67/67 73/73/73 66/66/66
f 72/72/72 66/66/66 73/73/73
f 74/74/74 67/67/67 68/68/68
f 73/73/73 67/67/67 74/74/74
f 65/65/65 75/75/75 64/64/64
f 75/75/75 65/65/65 72/72/72
f 76/76/76 68/68/68 71/71/71
f 74/74/74 68/68/68 76/76/76
f 73/73/73 77/77/77 72/72/72
f 72/72/72 78/78/78 75/75/75
f 78/78/78 72/72/72 77/77/77
f 74/74/74 79/79/79 73/73/73
f 77/77/77 73/73/73 79/79/79
f 62/62/62 80/80/80 71/71/71
f 76/76/76 71/71/71 81/81/81
f 81/81/81 71/71/71 80/80/80
f 82/82/82 74/74/74 76/76/76
f 83/83/83 79/79/79 74/74/74
f 83/83/83 74/74/74 82/82/82
f 84/84/84 76/76/76 81/81/81
f 84/84/84 82/82/82 76/76/76
f 79/79/79 85/85/85 77/77/77
f 77/77/77 86/86/86 78/78/78
f 86/86/86 77/77/77 85/85/85
f 87/87/87 79/79/79 83/83/83
f 87/87/87 85/85/85 79/79/79
f 88/88/88 80/80/80 62/62/62
f 81/81/81 80/80/80 89/89/89
f 89/89/89 80/80/80 88/88/88
f 62/62/62 90/90/90 88/88/88
f 55/55/55 90/90/90 62/62/62
f 90/90/90 55/55/55 91/91/91
f 88/88/88 90/90/90 92/92/92
f 89/89/89 88/88/88 93/93/93
f 93/93/93 88/88/88 94/94/94
f 81/81/81 89/89/89 95/95/95
f 93/93/93 95/95/95 89/89/89
f 95/95/95 96/96/96 81/81/81
f 84/84/84 81/81/81 96/96/96
f 95/95/95 93/93/93 97/97/97
f 97/97/97 93/93/93 98/98/98
f 97/97/97 99/99/99 95/95/95
f 96/96/96 95/95/95 99/99/99
f 99/99/99 97/97/97 100/100/100
f 100/100/100 97/97/97 101/101/101
f 96/96/96 102/102/102 84/84/84
f 99/99/99 103/103/103 96/96/96
f 103/103/103 102/102/102 96/96/96
f 102/102/102 104/104/104 84/84/84
f 84/84/84 104/104/104 82/82/82
f 105/105/105 82/82/82 104/104/104
f 105/105/105 83/83/83 82/82/82
f 106/106/106 83/83/83 105/105/105
f 106/106/106 87/87/87 83/83/83
f 100/100/100 107/107/107 99/99/99
f 99/99/99 108/108/108 103/103/103
f 107/107/107 108/108/108 99/99/99
f 103/103/103 109/109/109 102/102/102
f 108/108/108 109/109/109 103/103/103
f 102/102/102 110/110/110 104/104/104
f 109/109/109 110/110/110 102/102/102
f 111/111/111 105/105/105 104/104/104
f 111/111/111 104/104/104 110/110/110
f 112/112/112 106/106/106 105/105/105
f 112/112/112 105/105/105 111/111/111
f 107/107/107 100/100/100 113/113/113
f 113/113/113 100/100/100 114/114/114
f 107/107/107 113/113/113 115/115/115
f 115/115/115 113/113/113 116/116/116
f 108/108/108 107/107/107 117/117/117
f 115/115/115 117/117/117 107/107/107
f 118/118/118 110/110/110 109/109/109
f 119/119/119 111/111/111 110/110/110
f 119/119/119 110/110/110 118/118/118
f 108/108/108 120/120/120 109/109/109
f 118/118/118 109/109/109 120/120/120
f 108/108/108 121/121/121 120/120/120
f 117/117/117 121/121/121 108/108/108
f 118/118/118 120/120/120 122/122/122
f 120/120/120 121/121/121 122/122/122
f 117/117/117 123/123/123 121/121/121
f 121/121/121 123/123/123 122/122/122
f 115/115/115 124/124/124 117/117/117
f 117/117/117 124/124/124 123/123/123
f 122/122/122 125/125/125 118/118/118
f 119/119/119 118/118/118 125/125/125
f 126/126/126 111/111/111 119/119/119
f 126/126/126 112/112/112 111/111/111
f 127/127/127 122/122/122 123/123/123
f 125/125/125 122/122/122 127/127/127
f 125/125/125 128/128/128 119/119/119
f 126/126/126 119/119/119 128/128/128
f 115/115/115 129/129/129 124/124/124
f 129/129/129 115/115/115 130/130/130
f 131/131/131 123/123/123 124/124/124
f 123/123/123 131/131/131 127/127/127
f 129/129/129 132/132/132 124/124/124
f 124/124/124 132/132/132 131/131/131
f 129/129/129 133/133/133 132/132/132
f 133/133/133 129/129/129 134/134/134
f 135/135/135 132/132/132 133/133/133
f 131/131/131 132/132/132 135/135/135
f 128/128/128 125/125/125 136/136/136
f 127/127/127 136/136/136 125/125/125
f 133/133/133 137/137/137 135/135/135
f 137/137/137 133/133/133 138/138/138
f 139/139/139 127/127/127 131/131/131
f 140/140/140 136/136/136 127/127/127
f 127/127/127 139/139/139 140/140/140
f 136/136/136 141/141/141 128/128/128
f 141/141/141 136/136/136 140/140/140
f 135/135/135 142/142/142 131/131/131
f 131/131/131 142/142/142 139/139/139
f 143/143/143 128/128/128 141/141/141
f 128/128/128 143/143/143 126/126/126
f 144/144/144 126/126/126 143/143/143
f 144/144/144 112/112/112 126/126/126
f 144/144/144 145/145/145 112/112/112
f 145/145/145 106/106/106 112/112/112
f 145/145/145 146/146/146 106/106/106
f 146/146/146 87/87/87 106/106/106
f 146/146/146 147/147/147 87/87/87
f 147/147/147 85/85/85 87/87/87
f 147/147/147 148/148/148 85/85/85
f 85/85/85 148/148/148 86/86/86
f 149/149/149 86/86/86 148/148/148
f 78/78/78 86/86/86 149/149/149
f 150/150/150 148/148/148 147/147/147
f 148/148/148 150/150/150 149/149/149
f 151/151/151 147/147/147 146/146/146
f 147/147/147 151/151/151 150/150/150
f 152/152/152 146/146/146 145/145/145
f 146/146/146 152/152/152 151/151/151
f 153/153/153 150/150/150 151/151/151
f 149/149/149 150/150/150 153/153/153
f 149/149/149 154/154/154 78/78/78
f 75/75/75 78/78/78 154/154/154
f 155/155/155 151/151/151 152/152/152
f 151/151/151 155/155/155 153/153/153
f 153/153/153 156/156/156 149/149/149
f 154/154/154 149/149/149 156/156/156
f 154/154/154 157/157/157 75/75/75
f 64/64/64 75/75/75 157/157/157
f 158/158/158 153/153/153 155/155/155
f 156/156/156 153/153/153 158/158/158
f 156/156/156 159/159/159 154/154/154
f 157/157/157 154/154/154 159/159/159
f 158/158/158 160/160/160 156/156/156
f 159/159/159 156/156/156 160/160/160
f 152/152/152 161/161/161 155/155/155
f 155/155/155 162/162/162 158/158/158
f 162/162/162 155/155/155 161/161/161
f 160/160/160 158/158/158 163/163/163
f 163/163/163 158/158/158 162/162/162
f 161/161/161 152/152/152 164/164/164
f 145/145/145 164/164/164 152/152/152
f 165/165/165 164/164/164 145/145/145
f 145/145/145 144/144/144 165/165/165
f 164/164/164 166/166/166 161/161/161
f 166/166/166 164/164/164 165/165/165
f 161/161/161 167/167/167 162/162/162
f 167/167/167 161/161/161 166/166/166
f 162/162/162 168/168/168 163/163/163
f 168/168/168 162/162/162 167/167/167
f 160/160/160 169/169/169 159/159/159
f 163/163/163 170/170/170 160/160/160
f 169/169/169 160/160/160 170/170/170
f 171/171/171 159/159/159 169/169/169
f 159/159/159 171/171/171 157/157/157
f 172/172/172 157/157/157 171/171/171
f 157/157/157 172/172/172 64/64/64
f 64/64/64 172/172/172 173/173/173
f 173/173/173 70/70/70 64/64/64
f 166/166/166 174/174/174 167/167/167
f 167/167/167 175/175/175 168/168/168
f 175/175/175 167/167/167 174/174/174
f 174/174/174 166/166/166 176/176/176
f 165/165/165 176/176/176 166/166/166
f 169/169/169 177/177/177 171/171/171
f 171/171/171 178/178/178 172/172/172
f 178/178/178 171/171/171 177/177/177
f 179/179/179 173/173/173 172/172/172
f 172/172/172 178/178/178 179/179/179
f 177/177/177 169/169/169 180/180/180
f 170/170/170 180/180/180 169/169/169
f 177/177/177 181/181/181 178/178/178
f 180/180/180 182/182/182 177/177/177
f 181/181/181 177/177/177 182/182/182
f 183/183/183 180/180/180 170/170/170
f 182/182/182 180/180/180 183/183/183
f 184/184/184 179/179/179 178/178/178
f 178/178/178 181/181/181 184/184/184
f 170/170/170 185/185/185 183/183/183
f 185/185/185 170/170/170 163/163/163
f 163/163/163 186/186/186 185/185/185
f 186/186/186 163/163/163 168/168/168
f 168/168/168 187/187/187 186/186/186
f 187/187/187 168/168/168 175/175/175
f 182/182/182 188/188/188 181/181/181
f 189/189/189 184/184/184 181/181/181
f 181/181/181 188/188/188 189/189/189
f 183/183/183 190/190/190 182/182/182
f 188/188/188 182/182/182 190/190/190
f 179/179/179 184/184/184 191/191/191
f 184/184/184 189/189/189 192/192/192
f 192/192/192 191/191/191 184/184/184
f 191/191/191 193/193/193 179/179/179
f 173/173/173 179/179/179 193/193/193
f 193/193/193 194/194/194 173/173/173
f 70/70/70 173/173/173 194/194/194
f 194/194/194 195/195/195 70/70/70
f 70/70/70 195/195/195 69/69/69
f 196/196/196 69/69/69 195/195/195
f 69/69/69 196/196/196 45/45/45
f 197/197/197 45/45/45 196/196/196
f 197/197/197 38/38/38 45/45/45
f 38/38/38 197/197/197 198/198/198
f 198/198/198 39/39/39 38/38/38
f 193/193/193 191/191/191 199/199/199
f 200/200/200 194/194/194 193/193/193
f 199/199/199 200/200/200 193/193/193
f 195/195/195 194/194/194 201/201/201
f 200/200/200 201/201/201 194/194/194
f 195/195/195 202/202/202 196/196/196
f 201/201/201 202/202/202 195/195/195
f 196/196/196 203/203/203 197/197/197
f 203/203/203 196/196/196 202/202/202
f 204/204/204 198/198/198 197/197/197
f 197/197/197 203/203/203 204/204/204
f 205/205/205 199/199/199 191/191/191
f 191/191/191 192/192/192 205/205/205
f 39/39/39 198/198/198 206/206/206
f 198/198/198 204/204/204 207/207/207
f 207/207/207 206/206/206 198/198/198
f 206/206/206 208/208/208 39/39/39
f 23/23/23 39/39/39 208/208/208
f 23/23/23 208/208/208 209/209/209
f 23/23/23 209/209/209 22/22/22
f 210/210/210 204/204/204 203/203/203
f 211/211/211 207/207/207 204/204/204
f 204/204/204 210/210/210 211/211/211
f 203/203/203 212/212/212 210/210/210
f 202/202/202 212/212/212 203/203/203
f 213/213/213 212/212/212 202/202/202
f 202/202/202 201/201/201 213/213/213
f 214/214/214 210/210/210 212/212/212
f 212/212/212 213/213/213 214/214/214
f 215/215/215 213/213/213 201/201/201
f 213/213/213 215/215/215 214/214/214
f 201/201/201 200/200/200 215/215/215
f 210/210/210 214/214/214 216/216/216
f 216/216/216 211/211/211 210/210/210
f 217/217/217 214/214/214 215/215/215
f 216/216/216 214/214/214 217/217/217
f 218/218/218 215/215/215 200/200/200
f 215/215/215 218/218/218 217/217/217
f 200/200/200 199/199/199 218/218/218
f 199/199/199 219/219/219 218/218/218
f 205/205/205 219/219/219 199/199/199
f 217/217/217 218/218/218 220/220/220
f 218/218/218 219/219/219 220/220/220
f 221/221/221 216/216/216 217/217/217
f 217/217/217 220/220/220 221/221/221
f 211/211/211 216/216/216 222/222/222
f 222/222/222 216/216/216 221/221/221
f 222/222/222 223/223/223 211/211/211
f 207/207/207 211/211/211 223/223/223
f 223/223/223 224/224/224 207/207/207
f 206/206/206 207/207/207 224/224/224
f 225/225/225 223/223/223 222/222/222
f 224/224/224 223/223/223 225/225/225
f 224/224/224 226/226/226 206/206/206
f 208/208/208 206/206/206 226/226/226
f 225/225/225 227/227/227 224/224/224
f 226/226/226 224/224/224 227/227/227
f 226/226/226 228/228/228 208/208/208
f 208/208/208 228/228/228 209/209/209
f 228/228/228 226/226/226 229/229/229
f 227/227/227 229/229/229 226/226/226
f 209/209/209 228/228/228 230/230/230
f 229/229/229 230/230/230 228/228/228
f 230/230/230 231/231/231 209/209/209
f 22/22/22 209/209/209 231/231/231
f 231/231/231 232/232/232 22/22/22
f 4/4/4 22/22/22 232/232/232
f 232/232/232 233/233/233 4/4/4
f 4/4/4 233/233/233 2/2/2
f 234/234/234 232/232/232 231/231/231
f 233/233/233 232/232/232 234/234/234
f 235/235/235 231/231/231 230/230/230
f 231/231/231 235/235/235 234/234/234
f 236/236/236 230/230/230 229/229/229
f 235/235/235 230/230/230 236/236/236
f 237/237/237 229/229/229 227/227/227
f 237/237/237 236/236/236 229/229/229
f 2/2/2 233/233/233 238/238/238
f 234/234/234 238/238/238 233/233/233
f 239/239/239 234/234/234 235/235/235
f 238/238/238 234/234/234 239/239/239
f 240/240/240 235/235/235 236/236/236
f 235/235/235 240/240/240 239/239/239
f 241/241/241 237/237/237 227/227/227
f 241/241/241 227/227/227 225/225/225
f 242/242/242 236/236/236 237/237/237
f 236/236/236 242/242/242 240/240/240
f 238/238/238 243/243/243 2/2/2
f 2/2/2 243/243/243 244/244/244
f 245/245/245 243/243/243 238/238/238
f 243/243/243 245/245/245 246/246/246
f 239/239/239 247/247/247 238/238/238
f 238/238/238 247/247/247 245/245/245
f 248/248/248 239/239/239 240/240/240
f 247/247/247 239/239/239 248/248/248
f 249/249/249 245/245/245 247/247/247
f 245/245/245 249/249/249 250/250/250
f 251/251/251 237/237/237 241/241/241
f 251/251/251 242/242/242 237/237/237
f 252/252/252 240/240/240 242/242/242
f 240/240/240 252/252/252 248/248/248
f 248/248/248 253/253/253 247/247/247
f 247/247/247 253/253/253 249/249/249
f 253/253/253 248/248/248 254/254/254
f 254/254/254 248/248/248 252/252/252
f 242/242/242 255/255/255 252/252/252
f 242/242/242 251/251/251 255/255/255
f 249/249/249 253/253/253 256/256/256
f 254/254/254 256/256/256 253/253/253
f 252/252/252 257/257/257 254/254/254
f 257/257/257 252/252/252 255/255/255
f 256/256/256 258/258/258 249/249/249
f 249/249/249 258/258/258 259/259/259
f 260/260/260 254/254/254 257/257/257
f 256/256/256 254/254/254 260/260/260
f 261/261/261 258/258/258 256/256/256
f 258/258/258 261/261/261 262/262/262
f 260/260/260 263/263/263 256/256/256
f 261/261/261 256/256/256 263/263/263
f 255/255/255 251/251/251 264/264/264
f 255/255/255 265/265/265 257/257/257
f 255/255/255 264/264/264 265/265/265
f 266/266/266 260/260/260 257/257/257
f 266/266/266 257/257/257 265/265/265
f 263/263/263 260/260/260 267/267/267
f 267/267/267 260/260/260 266/266/266
f 261/261/261 263/263/263 268/268/268
f 267/267/267 268/268/268 263/263/263
f 251/251/251 269/269/269 264/264/264
f 241/241/241 269/269/269 251/251/251
f 268/268/268 270/270/270 261/261/261
f 261/261/261 270/270/270 271/271/271
f 269/269/269 241/241/241 272/272/272
f 272/272/272 241/241/241 225/225/225
f 268/268/268 273/273/273 270/270/270
f 270/270/270 273/273/273 274/274/274
f 272/272/272 225/225/225 275/275/275
f 275/275/275 225/225/225 222/222/222
f 275/275/275 222/222/222 276/276/276
f 276/276/276 222/222/222 221/221/221
f 276/276/276 221/221/221 277/277/277
f 277/277/277 221/221/221 220/220/220
f 220/220/220 278/278/278 277/277/277
f 220/220/220 219/219/219 278/278/278
f 219/219/219 279/279/279 278/278/278
f 279/279/279 219/219/219 205/205/205
f 205/205/205 280/280/280 279/279/279
f 280/280/280 205/205/205 192/192/192
f 192/192/192 281/281/281 280/280/280
f 281/281/281 192/192/192 189/189/189
f 189/189/189 282/282/282 281/281/281
f 282/282/282 189/189/189 188/188/188
f 188/188/188 283/283/283 282/282/282
f 190/190/190 283/283/283 188/188/188
f 277/277/277 284/284/284 276/276/276
f 277/277/277 278/278/278 285/285/285
f 277/277/277 285/285/285 284/284/284
f 286/286/286 276/276/276 284/284/284
f 286/286/286 275/275/275 276/276/276
f 287/287/287 280/280/280 281/281/281
f 288/288/288 281/281/281 282/282/282
f 281/281/281 288/288/288 287/287/287
f 289/289/289 282/282/282 283/283/283
f 282/282/282 289/289/289 288/288/288
f 290/290/290 283/283/283 190/190/190
f 283/283/283 290/290/290 289/289/289
f 280/280/280 287/287/287 291/291/291
f 291/291/291 279/279/279 280/280/280
f 190/190/190 292/292/292 290/290/290
f 292/292/292 190/190/190 183/183/183
f 289/289/289 290/290/290 293/293/293
f 293/293/293 290/290/290 292/292/292
f 183/183/183 294/294/294 292/292/292
f 294/294/294 183/183/183 185/185/185
f 288/288/288 289/289/289 295/295/295
f 293/293/293 295/295/295 289/289/289
f 296/296/296 287/287/287 288/288/288
f 296/296/296 291/291/291 287/287/287
f 292/292/292 297/297/297 293/293/293
f 297/297/297 292/292/292 294/294/294
f 185/185/185 298/298/298 294/294/294
f 298/298/298 185/185/185 186/186/186
f 295/295/295 299/299/299 288/288/288
f 288/288/288 299/299/299 296/296/296
f 295/295/295 293/293/293 300/300/300
f 300/300/300 293/293/293 297/297/297
f 294/294/294 301/301/301 297/297/297
f 301/301/301 294/294/294 298/298/298
f 186/186/186 302/302/302 298/298/298
f 302/302/302 186/186/186 187/187/187
f 299/299/299 295/295/295 303/303/303
f 300/300/300 303/303/303 295/295/295
f 300/300/300 304/304/304 303/303/303
f 297/297/297 305/305/305 300/300/300
f 305/305/305 297/297/297 301/301/301
f 305/305/305 306/306/306 300/300/300
f 303/303/303 307/307/307 299/299/299
f 303/303/303 308/308/308 307/307/307
f 299/299/299 307/307/307 309/309/309
f 307/307/307 310/310/310 309/309/309
f 309/309/309 296/296/296 299/299/299
f 309/309/309 311/311/311 296/296/296
f 296/296/296 311/311/311 291/291/291
f 301/301/301 312/312/312 305/305/305
f 312/312/312 313/313/313 305/305/305
f 301/301/301 314/314/314 312/312/312
f 314/314/314 315/315/315 312/312/312
f 309/309/309 316/316/316 311/311/311
f 309/309/309 317/317/317 316/316/316
f 311/311/311 316/316/316 318/318/318
f 316/316/316 319/319/319 318/318/318
f 291/291/291 311/311/311 320/320/320
f 318/318/318 320/320/320 311/311/311
f 321/321/321 314/314/314 301/301/301
f 298/298/298 321/321/321 301/301/301
f 321/321/321 298/298/298 302/302/302
f 314/314/314 321/321/321 322/322/322
f 302/302/302 322/322/322 321/321/321
f 320/320/320 323/323/323 291/291/291
f 279/279/279 291/291/291 323/323/323
f 324/324/324 279/279/279 323/323/323
f 279/279/279 324/324/324 278/278/278
f 320/320/320 325/325/325 323/323/323
f 324/324/324 323/323/323 325/325/325
f 278/278/278 324/324/324 326/326/326
f 325/325/325 326/326/326 324/324/324
f 326/326/326 285/285/285 278/278/278
f 327/327/327 320/320/320 318/318/318
f 325/325/325 320/320/320 327/327/327
f 322/322/322 328/328/328 314/314/314
f 328/328/328 329/329/329 314/314/314
f 330/330/330 328/328/328 322/322/322
f 330/330/330 331/331/331 328/328/328
f 318/318/318 332/332/332 327/327/327
f 318/318/318 333/333/333 332/332/332
f 327/327/327 332/332/332 334/334/334
f 332/332/332 335/335/335 334/334/334
f 325/325/325 327/327/327 336/336/336
f 334/334/334 336/336/336 327/327/327
f 326/326/326 325/325/325 337/337/337
f 336/336/336 337/337/337 325/325/325
f 336/336/336 334/334/334 338/338/338
f 334/334/334 339/339/339 338/338/338
f 322/322/322 340/340/340 330/330/330
f 302/302/302 340/340/340 322/322/322
f 341/341/341 340/340/340 302/302/302
f 187/187/187 341/341/341 302/302/302
f 330/330/330 340/340/340 342/342/342
f 341/341/341 342/342/342 340/340/340
f 341/341/341 187/187/187 343/343/343
f 175/175/175 343/343/343 187/187/187
f 337/337/337 344/344/344 326/326/326
f 285/285/285 326/326/326 344/344/344
f 342/342/342 345/345/345 330/330/330
f 345/345/345 346/346/346 330/330/330
f 342/342/342 341/341/341 347/347/347
f 343/343/343 347/347/347 341/341/341
f 343/343/343 175/175/175 348/348/348
f 174/174/174 348/348/348 175/175/175
f 345/345/345 342/342/342 349/349/349
f 349/349/349 342/342/342 347/347/347
f 347/347/347 343/343/343 350/350/350
f 348/348/348 350/350/350 343/343/343
f 348/348/348 174/174/174 351/351/351
f 176/176/176 351/351/351 174/174/174
f 349/349/349 352/352/352 345/345/345
f 352/352/352 353/353/353 345/345/345
f 347/347/347 354/354/354 349/349/349
f 350/350/350 354/354/354 347/347/347
f 355/355/355 350/350/350 348/348/348
f 351/351/351 355/355/355 348/348/348
f 356/356/356 352/352/352 349/349/349
f 356/356/356 357/357/357 352/352/352
f 358/358/358 349/349/349 354/354/354
f 356/356/356 349/349/349 358/358/358
f 354/354/354 350/350/350 359/359/359
f 359/359/359 350/350/350 355/355/355
f 358/358/358 354/354/354 360/360/360
f 359/359/359 360/360/360 354/354/354
f 356/356/356 358/358/358 361/361/361
f 361/361/361 358/358/358 360/360/360
f 362/362/362 359/359/359 355/355/355
f 360/360/360 359/359/359 362/362/362
f 363/363/363 355/355/355 351/351/351
f 362/362/362 355/355/355 363/363/363
f 363/363/363 351/351/351 364/364/364
f 364/364/364 351/351/351 176/176/176
f 361/361/361 365/365/365 356/356/356
f 365/365/365 366/366/366 356/356/356
f 360/360/360 367/367/367 361/361/361
f 362/362/362 367/367/367 360/360/360
f 362/362/362 363/363/363 368/368/368
f 368/368/368 363/363/363 364/364/364
f 176/176/176 369/369/369 364/364/364
f 369/369/369 176/176/176 165/165/165
f 367/367/367 362/362/362 370/370/370
f 368/368/368 370/370/370 362/362/362
f 361/361/361 367/367/367 371/371/371
f 370/370/370 371/371/371 367/367/367
f 361/361/361 372/372/372 365/365/365
f 371/371/371 372/372/372 361/361/361
f 368/368/368 364/364/364 373/373/373
f 373/373/373 364/364/364 369/369/369
f 369/369/369 165/165/165 374/374/374
f 374/374/374 165/165/165 144/144/144
f 370/370/370 368/368/368 375/375/375
f 375/375/375 368/368/368 373/373/373
f 376/376/376 365/365/365 372/372/372
f 376/376/376 377/377/377 365/365/365
f 373/373/373 369/369/369 378/378/378
f 378/378/378 369/369/369 374/374/374
f 374/374/374 144/144/144 379/379/379
f 143/143/143 379/379/379 144/144/144
f 376/376/376 372/372/372 380/380/380
f 380/380/380 372/372/372 371/371/371
f 371/371/371 370/370/370 381/381/381
f 375/375/375 381/381/381 370/370/370
f 375/375/375 373/373/373 382/382/382
f 382/382/382 373/373/373 378/378/378
f 378/378/378 374/374/374 383/383/383
f 383/383/383 374/374/374 379/379/379
f 379/379/379 143/143/143 384/384/384
f 141/141/141 384/384/384 143/143/143
f 380/380/380 385/385/385 376/376/376
f 385/385/385 386/386/386 376/376/376
f 381/381/381 375/375/375 387/387/387
f 387/387/387 375/375/375 382/382/382
f 382/382/382 378/378/378 388/388/388
f 388/388/388 378/378/378 383/383/383
f 379/379/379 389/389/389 383/383/383
f 384/384/384 389/389/389 379/379/379
f 390/390/390 384/384/384 141/141/141
f 140/140/140 390/390/390 141/141/141
f 382/382/382 391/391/391 387/387/387
f 391/391/391 382/382/382 388/388/388
f 388/388/388 383/383/383 392/392/392
f 392/392/392 383/383/383 389/389/389
f 389/389/389 384/384/384 393/393/393
f 393/393/393 384/384/384 390/390/390
f 390/390/390 140/140/140 394/394/394
f 394/394/394 140/140/140 139/139/139
f 391/391/391 388/388/388 395/395/395
f 395/395/395 388/388/388 392/392/392
f 392/392/392 389/389/389 396/396/396
f 393/393/393 396/396/396 389/389/389
f 393/393/393 390/390/390 397/397/397
f 394/394/394 397/397/397 390/390/390
f 139/139/139 398/398/398 394/394/394
f 398/398/398 139/139/139 142/142/142
f 395/395/395 392/392/392 399/399/399
f 399/399/399 392/392/392 396/396/396
f 396/396/396 393/393/393 400/400/400
f 397/397/397 400/400/400 393/393/393
f 399/399/399 396/396/396 401/401/401
f 400/400/400 401/401/401 396/396/396
f 399/399/399 402/402/402 395/395/395
f 401/401/401 402/402/402 399/399/399
f 400/400/400 403/403/403 401/401/401
f 403/403/403 402/402/402 401/401/401
f 397/397/397 404/404/404 400/400/400
f 404/404/404 403/403/403 400/400/400
f 394/394/394 405/405/405 397/397/397
f 404/404/404 397/397/397 405/405/405
f 402/402/402 406/406/406 395/395/395
f 391/391/391 395/395/395 406/406/406
f 403/403/403 407/407/407 402/402/402
f 406/406/406 402/402/402 407/407/407
f 408/408/408 403/403/403 404/404/404
f 408/408/408 407/407/407 403/403/403
f 406/406/406 409/409/409 391/391/391
f 387/387/387 391/391/391 409/409/409
f 404/404/404 410/410/410 408/408/408
f 405/405/405 410/410/410 404/404/404
f 405/405/405 394/394/394 411/411/411
f 411/411/411 394/394/394 398/398/398
f 407/407/407 412/412/412 406/406/406
f 409/409/409 406/406/406 412/412/412
f 407/407/407 408/408/408 413/413/413
f 410/410/410 413/413/413 408/408/408
f 414/414/414 410/410/410 405/405/405
f 411/411/411 414/414/414 405/405/405
f 412/412/412 407/407/407 415/415/415
f 413/413/413 415/415/415 407/407/407
f 416/416/416 413/413/413 410/410/410
f 414/414/414 416/416/416 410/410/410
f 415/415/415 413/413/413 417/417/417
f 416/416/416 417/417/417 413/413/413
f 417/417/417 418/418/418 415/415/415
f 419/419/419 417/417/417 416/416/416
f 420/420/420 415/415/415 418/418/418
f 415/415/415 420/420/420 412/412/412
f 418/418/418 421/421/421 420/420/420
f 422/422/422 419/419/419 416/416/416
f 422/422/422 416/416/416 414/414/414
f 423/423/423 419/419/419 422/422/422
f 424/424/424 414/414/414 411/411/411
f 422/422/422 414/414/414 424/424/424
f 425/425/425 423/423/423 422/422/422
f 424/424/424 425/425/425 422/422/422
f 426/426/426 423/423/423 425/425/425
f 427/427/427 426/426/426 425/425/425
f 427/427/427 425/425/425 424/424/424
f 428/428/428 426/426/426 427/427/427
f 429/429/429 412/412/412 420/420/420
f 412/412/412 429/429/429 409/409/409
f 424/424/424 411/411/411 430/430/430
f 398/398/398 430/430/430 411/411/411
f 424/424/424 431/431/431 427/427/427
f 424/424/424 430/430/430 431/431/431
f 428/428/428 427/427/427 432/432/432
f 432/432/432 433/433/433 428/428/428
f 434/434/434 433/433/433 432/432/432
f 430/430/430 398/398/398 435/435/435
f 142/142/142 435/435/435 398/398/398
f 435/435/435 142/142/142 135/135/135
f 431/431/431 430/430/430 436/436/436
f 435/435/435 436/436/436 430/430/430
f 427/427/427 431/431/431 437/437/437
f 427/427/427 437/437/437 432/432/432
f 431/431/431 436/436/436 437/437/437
f 432/432/432 438/438/438 434/434/434
f 438/438/438 432/432/432 437/437/437
f 439/439/439 434/434/434 438/438/438
f 135/135/135 440/440/440 435/435/435
f 440/440/440 135/135/135 137/137/137
f 436/436/436 435/435/435 441/441/441
f 435/435/435 440/440/440 441/441/441
f 442/442/442 437/437/437 436/436/436
f 437/437/437 442/442/442 438/438/438
f 436/436/436 441/441/441 442/442/442
f 438/438/438 443/443/443 439/439/439
f 439/439/439 443/443/443 444/444/444
f 438/438/438 442/442/442 445/445/445
f 438/438/438 445/445/445 443/443/443
f 445/445/445 442/442/442 441/441/441
f 443/443/443 445/445/445 446/446/446
f 441/441/441 447/447/447 445/445/445
f 447/447/447 441/441/441 440/440/440
f 445/445/445 447/447/447 448/448/448
f 137/137/137 449/449/449 440/440/440
f 440/440/440 449/449/449 447/447/447
f 449/449/449 137/137/137 450/450/450
f 447/447/447 449/449/449 451/451/451
f 454/454/454 453/453/453 452/452/452
f 455/455/455 454/454/454 452/452/452
f 452/452/452 456/456/456 455/455/455
f 456/456/456 452/452/452 385/385/385
f 452/452/452 457/457/457 385/385/385
f 385/385/385 380/380/380 456/456/456
f 458/458/458 456/456/456 380/380/380
f 455/455/455 456/456/456 458/458/458
f 380/380/380 459/459/459 458/458/458
f 371/371/371 459/459/459 380/380/380
f 381/381/381 459/459/459 371/371/371
f 459/459/459 381/381/381 460/460/460
f 460/460/460 458/458/458 459/459/459
f 387/387/387 460/460/460 381/381/381
f 460/460/460 387/387/387 461/461/461
f 409/409/409 461/461/461 387/387/387
f 461/461/461 409/409/409 429/429/429
f 458/458/458 460/460/460 462/462/462
f 461/461/461 462/462/462 460/460/460
f 458/458/458 463/463/463 455/455/455
f 462/462/462 463/463/463 458/458/458
f 429/429/429 464/464/464 461/461/461
f 462/462/462 461/461/461 464/464/464
f 463/463/463 465/465/465 455/455/455
f 454/454/454 455/455/455 465/465/465
f 463/463/463 462/462/462 466/466/466
f 464/464/464 466/466/466 462/462/462
f 464/464/464 429/429/429 467/467/467
f 420/420/420 467/467/467 429/429/429
f 467/467/467 420/420/420 421/421/421
f 421/421/421 468/468/468 467/467/467
f 467/467/467 469/469/469 464/464/464
f 469/469/469 467/467/467 468/468/468
f 466/466/466 464/464/464 469/469/469
f 468/468/468 470/470/470 469/469/469
f 471/471/471 469/469/469 470/470/470
f 469/469/469 471/471/471 466/466/466
f 470/470/470 472/472/472 471/471/471
f 466/466/466 473/473/473 463/463/463
f 473/473/473 466/466/466 471/471/471
f 473/473/473 465/465/465 463/463/463
f 474/474/474 471/471/471 472/472/472
f 471/471/471 474/474/474 473/473/473
f 465/465/465 473/473/473 474/474/474
f 472/472/472 475/475/475 474/474/474
f 476/476/476 474/474/474 475/475/475
f 474/474/474 477/477/477 465/465/465
f 474/474/474 476/476/476 477/477/477
f 478/478/478 465/465/465 477/477/477
f 465/465/465 478/478/478 454/454/454
f 478/478/478 479/479/479 454/454/454
f 480/480/480 477/477/477 476/476/476
f 477/477/477 480/480/480 478/478/478
f 480/480/480 481/481/481 478/478/478
f 476/476/476 482/482/482 480/480/480
f 482/482/482 483/483/483 480/480/480
f 273/273/273 485/485/485 484/484/484
f 485/485/485 273/273/273 486/486/486
f 486/486/486 487/487/487 485/485/485
f 273/273/273 268/268/268 486/486/486
f 488/488/488 487/487/487 486/486/486
f 488/488/488 486/486/486 268/268/268
f 487/487/487 488/488/488 489/489/489
f 268/268/268 267/267/267 488/488/488
f 488/488/488 490/490/490 489/489/489
f 489/489/489 490/490/490 491/491/491
f 492/492/492 491/491/491 490/490/490
f 488/488/488 267/267/267 493/493/493
f 493/493/493 490/490/490 488/488/488
f 493/493/493 267/267/267 266/266/266
f 490/490/490 494/494/494 492/492/492
f 495/495/495 492/492/492 494/494/494
f 493/493/493 266/266/266 496/496/496
f 496/496/496 266/266/266 265/265/265
f 493/493/493 497/497/497 490/490/490
f 494/494/494 490/490/490 497/497/497
f 497/497/497 493/493/493 496/496/496
f 494/494/494 498/498/498 495/495/495
f 498/498/498 494/494/494 497/497/497
f 499/499/499 495/495/495 498/498/498
f 500/500/500 497/497/497 496/496/496
f 497/497/497 500/500/500 498/498/498
f 498/498/498 501/501/501 499/499/499
f 501/501/501 498/498/498 500/500/500
f 502/502/502 499/499/499 501/501/501
f 503/503/503 496/496/496 265/265/265
f 496/496/496 503/503/503 500/500/500
f 500/500/500 504/504/504 501/501/501
f 504/504/504 500/500/500 503/503/503
f 501/501/501 505/505/505 502/502/502
f 505/505/505 501/501/501 504/504/504
f 265/265/265 506/506/506 503/503/503
f 265/265/265 264/264/264 506/506/506
f 505/505/505 507/507/507 502/502/502
f 502/502/502 507/507/507 508/508/508
f 504/504/504 509/509/509 505/505/505
f 507/507/507 505/505/505 509/509/509
f 503/503/503 510/510/510 504/504/504
f 510/510/510 503/503/503 506/506/506
f 509/509/509 504/504/504 510/510/510
f 264/264/264 511/511/511 506/506/506
f 511/511/511 264/264/264 269/269/269
f 506/506/506 512/512/512 510/510/510
f 506/506/506 511/511/511 512/512/512
f 510/510/510 513/513/513 509/509/509
f 513/513/513 510/510/510 512/512/512
f 511/511/511 269/269/269 514/514/514
f 514/514/514 269/269/269 272/272/272
f 512/512/512 511/511/511 515/515/515
f 515/515/515 511/511/511 514/514/514
f 514/514/514 272/272/272 516/516/516
f 516/516/516 272/272/272 275/275/275
f 509/509/509 517/517/517 507/507/507
f 517/517/517 509/509/509 513/513/513
f 512/512/512 518/518/518 513/513/513
f 518/518/518 512/512/512 515/515/515
f 515/515/515 514/514/514 519/519/519
f 519/519/519 514/514/514 516/516/516
f 520/520/520 516/516/516 275/275/275
f 275/275/275 286/286/286 520/520/520
f 518/518/518 515/515/515 521/521/521
f 519/519/519 521/521/521 515/515/515
f 518/518/518 522/522/522 513/513/513
f 522/522/522 518/518/518 521/521/521
f 523/523/523 519/519/519 516/516/516
f 516/516/516 520/520/520 523/523/523
f 513/513/513 522/522/522 524/524/524
f 513/513/513 524/524/524 517/517/517
f 525/525/525 522/522/522 521/521/521
f 522/522/522 525/525/525 524/524/524
f 526/526/526 521/521/521 519/519/519
f 519/519/519 523/523/523 526/526/526
f 521/521/521 526/526/526 525/525/525
f 524/524/524 527/527/527 517/517/517
f 524/524/524 525/525/525 527/527/527
f 528/528/528 525/525/525 526/526/526
f 528/528/528 527/527/527 525/525/525
f 529/529/529 526/526/526 523/523/523
f 526/526/526 529/529/529 528/528/528
f 530/530/530 523/523/523 520/520/520
f 523/523/523 530/530/530 529/529/529
f 517/517/517 527/527/527 531/531/531
f 517/517/517 531/531/531 507/507/507
f 527/527/527 528/528/528 532/532/532
f 527/527/527 532/532/532 531/531/531
f 533/533/533 528/528/528 529/529/529
f 533/533/533 532/532/532 528/528/528
f 507/507/507 531/531/531 534/534/534
f 507/507/507 534/534/534 508/508/508
f 508/508/508 534/534/534 535/535/535
f 531/531/531 532/532/532 536/536/536
f 531/531/531 536/536/536 534/534/534
f 534/534/534 537/537/537 535/535/535
f 534/534/534 536/536/536 537/537/537
f 535/535/535 537/537/537 538/538/538
f 539/539/539 536/536/536 532/532/532
f 532/532/532 533/533/533 539/539/539
f 537/537/537 540/540/540 538/538/538
f 538/538/538 540/540/540 541/541/541
f 536/536/536 542/542/542 537/537/537
f 537/537/537 542/542/542 540/540/540
f 536/536/536 539/539/539 542/542/542
f 540/540/540 543/543/543 541/541/541
f 543/543/543 540/540/540 542/542/542
f 541/541/541 543/543/543 544/544/544
f 545/545/545 544/544/544 543/543/543
f 546/546/546 542/542/542 539/539/539
f 542/542/542 546/546/546 543/543/543
f 543/543/543 547/547/547 545/545/545
f 547/547/547 543/543/543 546/546/546
f 545/545/545 547/547/547 548/548/548
f 539/539/539 549/549/549 546/546/546
f 533/533/533 549/549/549 539/539/539
f 547/547/547 550/550/550 548/548/548
f 551/551/551 548/548/548 550/550/550
f 546/546/546 552/552/552 547/547/547
f 552/552/552 546/546/546 549/549/549
f 550/550/550 547/547/547 552/552/552
f 550/550/550 553/553/553 551/551/551
f 553/553/553 554/554/554 551/551/551
f 553/553/553 550/550/550 555/555/555
f 552/552/552 555/555/555 550/550/550
f 555/555/555 556/556/556 553/553/553
f 556/556/556 557/557/557 553/553/553
f 558/558/558 556/556/556 555/555/555
f 558/558/558 559/559/559 556/556/556
f 560/560/560 555/555/555 552/552/552
f 558/558/558 555/555/555 560/560/560
f 549/549/549 561/561/561 552/552/552
f 552/552/552 561/561/561 560/560/560
f 558/558/558 560/560/560 562/562/562
f 562/562/562 560/560/560 561/561/561
f 561/561/561 549/549/549 563/563/563
f 563/563/563 549/549/549 533/533/533
f 562/562/562 564/564/564 558/558/558
f 564/564/564 565/565/565 558/558/558
f 561/561/561 566/566/566 562/562/562
f 563/563/563 566/566/566 561/561/561
f 563/563/563 533/533/533 567/567/567
f 529/529/529 567/567/567 533/533/533
f 567/567/567 529/529/529 530/530/530
f 564/564/564 562/562/562 568/568/568
f 568/568/568 562/562/562 566/566/566
f 566/566/566 563/563/563 569/569/569
f 567/567/567 569/569/569 563/563/563
f 530/530/530 570/570/570 567/567/567
f 569/569/569 567/567/567 570/570/570
f 569/569/569 571/571/571 566/566/566
f 566/566/566 571/571/571 568/568/568
f 568/568/568 572/572/572 564/564/564
f 572/572/572 573/573/573 564/564/564
f 574/574/574 572/572/572 568/568/568
f 574/574/574 575/575/575 572/572/572
f 570/570/570 530/530/530 576/576/576
f 520/520/520 576/576/576 530/530/530
f 576/576/576 520/520/520 286/286/286
f 570/570/570 577/577/577 569/569/569
f 571/571/571 569/569/569 577/577/577
f 578/578/578 568/568/568 571/571/571
f 568/568/568 578/578/578 574/574/574
f 286/286/286 579/579/579 576/576/576
f 579/579/579 286/286/286 284/284/284
f 576/576/576 580/580/580 570/570/570
f 577/577/577 570/570/570 580/580/580
f 580/580/580 576/576/576 579/579/579
f 577/577/577 581/581/581 571/571/571
f 571/571/571 581/581/581 578/578/578
f 579/579/579 284/284/284 582/582/582
f 582/582/582 284/284/284 285/285/285
f 344/344/344 582/582/582 285/285/285
f 583/583/583 579/579/579 582/582/582
f 579/579/579 583/583/583 580/580/580
f 583/583/583 582/582/582 344/344/344
f 580/580/580 584/584/584 577/577/577
f 581/581/581 577/577/577 584/584/584
f 584/584/584 580/580/580 583/583/583
f 344/344/344 585/585/585 583/583/583
f 583/583/583 585/585/585 584/584/584
f 344/344/344 337/337/337 585/585/585
f 578/578/578 581/581/581 586/586/586
f 584/584/584 586/586/586 581/581/581
f 584/584/584 585/585/585 587/587/587
f 585/585/585 337/337/337 587/587/587
f 587/587/587 586/586/586 584/584/584
f 588/588/588 587/587/587 337/337/337
f 586/586/586 587/587/587 588/588/588
f 337/337/337 336/336/336 588/588/588
f 338/338/338 588/588/588 336/336/336
f 586/586/586 589/589/589 578/578/578
f 586/586/586 588/588/588 589/589/589
f 589/589/589 588/588/588 338/338/338
f 574/574/574 578/578/578 589/589/589
f 589/589/589 338/338/338 590/590/590
f 589/589/589 590/590/590 574/574/574
f 338/338/338 591/591/591 590/590/590
f 590/590/590 592/592/592 574/574/574
