g lingpai_long
v 0.160155028 -0.158886403 0.0263338089
v 0.239738226 -0.158886403 0.0263338089
v 0.239382848 0.126126513 0.0263338089
v 0.159800187 0.126126513 0.0263338089
v -0.132741541 -0.158886403 0.0263338089
v 0.160066292 -0.23560518 0.0263342652
v -0.132740632 -0.23560518 0.0263342652
v -0.132741541 0.126126513 0.0263338089
v -0.132740632 0.202845439 0.0263342652
v 0.159977496 0.202845439 0.0263342652
v -0.212323457 0.126126513 0.0263338089
v -0.212679282 -0.158886403 0.0263338089
v 0.159800187 0.126126513 0.0263338089
v 0.185341641 0.147509366 0.00108310697
v 0.159977496 0.202845439 0.0263342652
v 0.18551895 0.205498859 0.00108310697
v 0.245064765 0.147509366 0.00108310697
v 0.245183557 0.205498859 0.00108310697
v 0.18551895 0.205498859 0.00108310697
v 0.185341641 0.147509366 0.00108310697
v 0.239382848 0.126126513 0.0263338089
v 0.185341641 0.147509366 0.00108310697
v 0.159800187 0.126126513 0.0263338089
v 0.245064765 0.147509366 0.00108310697
v -0.132740632 0.202845439 0.0263342652
v -0.158282474 0.147509366 0.00108310697
v -0.132741541 0.126126513 0.0263338089
v -0.158282474 0.205498859 0.00108310697
v -0.158282474 0.147509366 0.00108310697
v -0.218005672 0.205498859 0.00108310697
v -0.218005672 0.147509366 0.00108310697
v -0.158282474 0.205498859 0.00108310697
v -0.218005672 0.147509366 0.00108310697
v -0.212323457 0.126126513 0.0263338089
v -0.158282474 0.147509366 0.00108310697
v -0.132741541 0.126126513 0.0263338089
v 0.160066292 -0.23560518 0.0263342652
v 0.185607061 -0.238258645 0.00108310697
v 0.185696557 -0.180269182 0.00108310697
v 0.160155028 -0.158886403 0.0263338089
v 0.185607061 -0.238258645 0.00108310697
v 0.245301664 -0.238258645 0.00108310697
v 0.185696557 -0.180269182 0.00108310697
v 0.245419458 -0.180269182 0.00108310697
v 0.245419458 -0.180269182 0.00108310697
v 0.239738226 -0.158886403 0.0263338089
v 0.185696557 -0.180269182 0.00108310697
v 0.160155028 -0.158886403 0.0263338089
v -0.158282474 -0.238258645 0.00108310697
v -0.132740632 -0.23560518 0.0263342652
v -0.158282474 -0.180269182 0.00108310697
v -0.132741541 -0.158886403 0.0263338089
v -0.218124539 -0.238258645 0.00108310697
v -0.158282474 -0.238258645 0.00108310697
v -0.158282474 -0.180269182 0.00108310697
v -0.218360588 -0.180269182 0.00108310697
v -0.212679282 -0.158886403 0.0263338089
v -0.158282474 -0.180269182 0.00108310697
v -0.132741541 -0.158886403 0.0263338089
v -0.218360588 -0.180269182 0.00108310697
v 0.239848092 -0.252639264 0.555425107
v 0.190082997 0.170679107 0.51019901
v 0.239848092 0.219879434 0.555426061
v 0.190082997 -0.203438997 0.51019901
v 0.239848092 0.219879434 0.555426061
v -0.163023829 0.170679107 0.51019901
v -0.212789297 0.219879434 0.555426061
v 0.190082997 0.170679107 0.51019901
v -0.212789297 0.219879434 0.555426061
v -0.163023829 0.170679107 0.51019901
v -0.212789297 -0.252639264 0.555425107
v -0.163023829 -0.203438997 0.51019901
v 0.190082997 0.170679107 0.51019901
v -0.163023829 -0.203438997 0.51019901
v -0.163023829 0.170679107 0.51019901
v 0.190082997 -0.203438997 0.51019901
v -0.212789297 -0.252639264 0.555425107
v -0.163023829 -0.203438997 0.51019901
v 0.239848092 -0.252639264 0.555425107
v 0.190082997 -0.203438997 0.51019901
v -0.272905409 -0.302460223 0.420363486
v -0.25154388 -0.282567114 0.385641664
v -0.268396437 -0.144148439 0.420578033
v -0.264494628 -0.126488283 0.412605762
v -0.248973534 -0.101301752 0.381233096
v -0.214521021 -0.245443389 0.30629915
v -0.230809629 -0.070421949 0.34375307
v -0.221748352 -0.0428527817 0.321953773
v -0.198150471 -0.227705583 0.232782319
v -0.216862336 -0.0166572668 0.30838719
v -0.198150471 0.19494535 0.232782319
v -0.221623078 0.00981811248 0.321718633
v -0.190036923 -0.217106983 0.156467468
v -0.190036923 0.184347168 0.156467468
v -0.190749198 -0.212920666 0.0923193693
v -0.190749198 0.18016088 0.0923193693
v -0.214521021 0.212683231 0.306299478
v -0.235547483 0.0377125405 0.344071537
v -0.247975454 0.0686082914 0.381071657
v -0.25154388 0.249807447 0.385641664
v -0.263454586 0.0938375145 0.412019074
v -0.266971737 0.112001367 0.42023623
v -0.272905409 0.269700408 0.420363784
v -0.30001983 -0.338147998 0.555426955
v -0.291453093 -0.328343719 0.486302972
v -0.289756924 -0.120981358 0.482559383
v -0.30001983 0.305388421 0.555426955
v -0.289878547 0.088388972 0.482347906
v -0.291453093 0.295583993 0.486302972
v -0.28776747 0.0679694414 0.475265086
v -0.288077831 -0.101528823 0.475305349
v -0.282876283 -0.0859576911 0.458690375
v -0.282475591 0.0528430939 0.458691746
v -0.271508336 0.0387231223 0.430998117
v -0.271732628 -0.0722552687 0.430827498
v -0.259999067 -0.0561428592 0.404698968
v -0.259693444 0.0229723658 0.404689521
v -0.250503242 -0.0334291533 0.384954572
v -0.250318587 0.00061013439 0.38478595
v -0.246810913 -0.0164291766 0.377442211
v -0.205211028 0.197356388 0.0826262236
v -0.218005672 0.147509366 0.00108310697
v -0.218005672 0.205498859 0.00108310697
v -0.212323457 0.126126513 0.0263338089
v -0.205211028 -0.230116099 0.0826262236
v -0.212679282 -0.158886403 0.0263338089
v -0.218360588 -0.180269182 0.00108310697
v -0.218124539 -0.238258645 0.00108310697
v -0.205211028 0.197356388 0.0826262236
v -0.190749198 0.18016088 0.0923193693
v -0.205211028 -0.230116099 0.0826262236
v -0.190749198 -0.212920666 0.0923193693
v 0.295455307 -0.144148439 0.420578033
v 0.278602511 -0.282567114 0.385641664
v 0.299964219 -0.302460223 0.420363486
v 0.291553259 -0.126488283 0.412605762
v 0.276032329 -0.101301752 0.381233096
v 0.241580039 -0.245443389 0.30629915
v 0.257868409 -0.070421949 0.34375307
v 0.248807222 -0.0428527817 0.321953773
v 0.225209877 -0.227705583 0.232782319
v 0.243921041 -0.0166572668 0.30838719
v 0.225209877 0.19494535 0.232782319
v 0.248681784 0.00981811248 0.321718633
v 0.21709609 -0.217106983 0.156467468
v 0.21709609 0.184347168 0.156467468
v 0.217808142 -0.212920666 0.0923193693
v 0.217808142 0.18016088 0.0923193693
v 0.241580039 0.212683231 0.306299478
v 0.262606353 0.0377125405 0.344071537
v 0.275034338 0.0686082914 0.381071657
v 0.278602511 0.249807447 0.385641664
v 0.290513605 0.0938375145 0.412019074
v 0.294031143 0.112001367 0.42023623
v 0.299964219 0.269700408 0.420363784
v 0.327078849 -0.338147998 0.555426955
v 0.316815853 -0.120981358 0.482559383
v 0.318512172 -0.328343719 0.486302972
v 0.327078849 0.305388421 0.555426955
v 0.316937476 0.088388972 0.482347906
v 0.318512172 0.295583993 0.486302972
v 0.314826339 0.0679694414 0.475265086
v 0.31513685 -0.101528823 0.475305349
v 0.309935302 -0.0859576911 0.458690375
v 0.309534669 0.0528430939 0.458691746
v 0.298567206 0.0387231223 0.430998117
v 0.298791736 -0.0722552687 0.430827498
v 0.287057579 -0.0561428592 0.404698968
v 0.286752075 0.0229723658 0.404689521
v 0.277562261 -0.0334291533 0.384954572
v 0.277377695 0.00061013439 0.38478595
v 0.273870319 -0.0164291766 0.377442211
v 0.232270122 0.197356388 0.0826262236
v 0.245183557 0.205498859 0.00108310697
v 0.245064765 0.147509366 0.00108310697
v 0.239382848 0.126126513 0.0263338089
v 0.232270122 -0.230116099 0.0826262236
v 0.239738226 -0.158886403 0.0263338089
v 0.245419458 -0.180269182 0.00108310697
v 0.245301664 -0.238258645 0.00108310697
v 0.232270122 -0.230116099 0.0826262236
v 0.217808142 0.18016088 0.0923193693
v 0.232270122 0.197356388 0.0826262236
v 0.217808142 -0.212920666 0.0923193693
v 0.18551895 0.205498859 0.00108310697
v 0.245183557 0.205498859 0.00108310697
v 0.232270122 0.197356388 0.0826262236
v 0.159977496 0.202845439 0.0263342652
v -0.132740632 0.202845439 0.0263342652
v -0.205211028 0.197356388 0.0826262236
v -0.158282474 0.205498859 0.00108310697
v -0.218005672 0.205498859 0.00108310697
v 0.142111883 0.267029941 0.418090552
v 0.278602511 0.249807447 0.385641664
v 0.299964219 0.269700408 0.420363784
v 0.123015516 0.262958378 0.410405159
v 0.0979423523 0.247211814 0.380810887
v 0.241580039 0.212683231 0.306299478
v 0.0681933612 0.229706392 0.345495492
v 0.0400556177 0.219758347 0.322409391
v 0.225209877 0.19494535 0.232782319
v 0.0135295866 0.214068383 0.306882352
v -0.198150471 0.19494535 0.232782319
v -0.0129965208 0.219758347 0.322408944
v 0.21709609 0.184347168 0.156467468
v -0.190036923 0.184347168 0.156467468
v 0.217808142 0.18016088 0.0923193693
v -0.190749198 0.18016088 0.0923193693
v -0.214521021 0.212683231 0.306299478
v -0.0411344133 0.229706392 0.345495492
v -0.0708834827 0.247211933 0.380810887
v -0.25154388 0.249807447 0.385641664
v -0.0959563404 0.262958169 0.410405159
v -0.11505264 0.267029941 0.418090552
v -0.272905409 0.269700408 0.420363784
v 0.327078849 0.305388421 0.555426955
v 0.118007578 0.29849717 0.479640365
v 0.318512172 0.295583993 0.486302972
v -0.0909483284 0.29849717 0.479640365
v -0.30001983 0.305388421 0.555426955
v -0.291453093 0.295583993 0.486302972
v 0.098595351 0.291012436 0.472488433
v -0.0715364814 0.291012436 0.472488433
v 0.0830925703 0.284289181 0.454949528
v -0.0560339354 0.284289181 0.454949528
v -0.0422461703 0.272699058 0.430101961
v 0.069304809 0.272699058 0.430101961
v -0.02553894 0.259869158 0.404258311
v 0.0525979586 0.259869158 0.404258311
v -0.00360198971 0.250170231 0.383683801
v 0.0306610856 0.250170231 0.383683801
v 0.0135295866 0.245739117 0.37369144
v -0.205211028 0.197356388 0.0826262236
v 0.232270122 0.197356388 0.0826262236
v 0.217808142 0.18016088 0.0923193693
v -0.190749198 0.18016088 0.0923193693
v 0.185607061 -0.238258645 0.00108310697
v 0.232270122 -0.230116099 0.0826262236
v 0.245301664 -0.238258645 0.00108310697
v 0.160066292 -0.23560518 0.0263342652
v -0.132740632 -0.23560518 0.0263342652
v -0.205211028 -0.230116099 0.0826262236
v -0.158282474 -0.238258645 0.00108310697
v -0.218124539 -0.238258645 0.00108310697
v 0.299964219 -0.302460223 0.420363486
v 0.278602511 -0.282567114 0.385641664
v 0.142111883 -0.299789697 0.418090075
v 0.123015516 -0.295718104 0.41040501
v 0.0979423523 -0.27997151 0.380810112
v 0.241580039 -0.245443389 0.30629915
v 0.0681933612 -0.26246649 0.345495492
v 0.0400556177 -0.252518475 0.322408795
v 0.225209877 -0.227705583 0.232782319
v 0.0135295866 -0.246828362 0.306882352
v -0.198150471 -0.227705583 0.232782319
v -0.0129965208 -0.252518475 0.322408795
v 0.21709609 -0.217106983 0.156467468
v -0.190036923 -0.217106983 0.156467468
v 0.217808142 -0.212920666 0.0923193693
v -0.190749198 -0.212920666 0.0923193693
v -0.214521021 -0.245443389 0.30629915
v -0.0411344133 -0.26246649 0.345495492
v -0.0708834827 -0.279971749 0.380810112
v -0.25154388 -0.282567114 0.385641664
v -0.0959563404 -0.295717925 0.41040501
v -0.11505264 -0.299789697 0.418090075
v -0.272905409 -0.302460223 0.420363486
v 0.327078849 -0.338147998 0.555426955
v 0.318512172 -0.328343719 0.486302972
v 0.118007578 -0.331256986 0.479640365
v -0.0909483284 -0.331256986 0.479640365
v -0.30001983 -0.338147998 0.555426955
v -0.291453093 -0.328343719 0.486302972
v 0.098595351 -0.323772132 0.472488433
v -0.0715364814 -0.323772132 0.472488433
v 0.0830925703 -0.317048818 0.454948604
v -0.0560339354 -0.317048818 0.454948604
v -0.0422461703 -0.305458695 0.430101961
v 0.069304809 -0.305458695 0.430101961
v -0.02553894 -0.292628974 0.404258311
v 0.0525979586 -0.292628974 0.404258311
v -0.00360198971 -0.282929897 0.383683354
v 0.0306610856 -0.282929897 0.383683354
v 0.0135295866 -0.278498828 0.373690665
v -0.205211028 -0.230116099 0.0826262236
v -0.190749198 -0.212920666 0.0923193693
v 0.217808142 -0.212920666 0.0923193693
v 0.232270122 -0.230116099 0.0826262236
v -0.305894315 -0.337899238 0.469705075
v -0.291453093 -0.328343719 0.486302972
v -0.0968195349 -0.336498946 0.466944754
v -0.295242161 -0.324796855 0.431435108
v -0.0909483284 -0.331256986 0.479640365
v -0.106410824 -0.323211432 0.427729368
v -0.272905409 -0.302460223 0.420363486
v -0.11505264 -0.299789697 0.418090075
v -0.0959563404 -0.295717925 0.41040501
v -0.0801510587 -0.332765967 0.460276365
v -0.0715364814 -0.323772132 0.472488433
v -0.0560339354 -0.317048818 0.454948604
v -0.0892031044 -0.315406382 0.417453796
v -0.0661451742 -0.328296572 0.446375608
v -0.0422461703 -0.305458695 0.430101961
v -0.0489054844 -0.31308943 0.418978751
v -0.02553894 -0.292628974 0.404258311
v -0.0665917918 -0.300199747 0.387885779
v -0.0708834827 -0.279971749 0.380810112
v -0.031962432 -0.300827116 0.391566336
v -0.00360198971 -0.282929897 0.383683354
v -0.0358082578 -0.283484906 0.353922755
v -0.0411344133 -0.26246649 0.345495492
v -0.00691810576 -0.290212482 0.369470537
v 0.0135295866 -0.278498828 0.373690665
v -0.0111394497 -0.272226393 0.331825137
v -0.0129965208 -0.252518475 0.322408795
v 0.0135295866 -0.284599632 0.358369946
v 0.0135295866 -0.265325338 0.318641692
v 0.0135295866 -0.246828362 0.306882352
v 0.0400556177 -0.252518475 0.322408795
v 0.0381979346 -0.272226393 0.331825137
v 0.0681933612 -0.26246649 0.345495492
v 0.0339767449 -0.290212482 0.369470537
v 0.0306610856 -0.282929897 0.383683354
v 0.0628675073 -0.283484906 0.353922755
v 0.0979423523 -0.27997151 0.380810112
v 0.0590215288 -0.300827116 0.391566336
v 0.0525979586 -0.292628974 0.404258311
v 0.0936508924 -0.300199747 0.387885779
v 0.123015516 -0.295718104 0.41040501
v 0.0759641975 -0.31308943 0.418978751
v 0.069304809 -0.305458695 0.430101961
v 0.116261899 -0.315406382 0.417453796
v 0.0932043418 -0.328296572 0.446375608
v 0.0830925703 -0.317048818 0.454948604
v 0.107209854 -0.332765967 0.460276365
v 0.098595351 -0.323772132 0.472488433
v 0.118007578 -0.331256986 0.479640365
v 0.133469388 -0.323211432 0.427729368
v 0.142111883 -0.299789697 0.418090075
v 0.299964219 -0.302460223 0.420363486
v 0.322300941 -0.324796855 0.431435108
v 0.123878397 -0.336498946 0.466944754
v 0.318512172 -0.328343719 0.486302972
v 0.332953036 -0.337899238 0.469705075
v -0.291453093 0.295583993 0.486302972
v -0.305894315 0.305139512 0.469705522
v -0.0968195349 0.30373922 0.466945529
v -0.0909483284 0.29849717 0.479640365
v -0.295242161 0.292036831 0.431435108
v -0.0801510587 0.300006032 0.460276365
v -0.0715364814 0.291012436 0.472488433
v -0.0560339354 0.284289181 0.454949528
v -0.106410824 0.290451735 0.427729368
v -0.272905409 0.269700408 0.420363784
v -0.11505264 0.267029941 0.418090552
v -0.0959563404 0.262958169 0.410405159
v -0.0661451742 0.295536697 0.446375608
v -0.0422461703 0.272699058 0.430101961
v -0.0892031044 0.282646537 0.417454571
v -0.0489054844 0.280329674 0.418979526
v -0.02553894 0.259869158 0.404258311
v -0.0665917918 0.267440021 0.387886226
v -0.0708834827 0.247211933 0.380810887
v -0.031962432 0.268067271 0.391566336
v -0.00360198971 0.250170231 0.383683801
v -0.0358082578 0.250725001 0.353922755
v -0.0411344133 0.229706392 0.345495492
v -0.00691810576 0.257452548 0.369471312
v 0.0135295866 0.245739117 0.37369144
v -0.0111394497 0.239466339 0.331825137
v -0.0129965208 0.219758347 0.322408944
v 0.0135295866 0.251839757 0.358369946
v 0.0135295866 0.232565165 0.318641692
v 0.0135295866 0.214068383 0.306882352
v 0.0400556177 0.219758347 0.322409391
v 0.0381979346 0.239466339 0.331825137
v 0.0681933612 0.229706392 0.345495492
v 0.0339767449 0.257452548 0.369471312
v 0.0306610856 0.250170231 0.383683801
v 0.0628675073 0.250725001 0.353922755
v 0.0979423523 0.247211814 0.380810887
v 0.0590215288 0.268067271 0.391566336
v 0.0525979586 0.259869158 0.404258311
v 0.0936508924 0.267440021 0.387886226
v 0.123015516 0.262958378 0.410405159
v 0.0759641975 0.280329674 0.418979526
v 0.069304809 0.272699058 0.430101961
v 0.116261899 0.282646537 0.417454571
v 0.0932043418 0.295536697 0.446375608
v 0.0830925703 0.284289181 0.454949528
v 0.107209854 0.300006032 0.460276365
v 0.098595351 0.291012436 0.472488433
v 0.118007578 0.29849717 0.479640365
v 0.133469388 0.290451735 0.427729368
v 0.142111883 0.267029941 0.418090552
v 0.299964219 0.269700408 0.420363784
v 0.322300941 0.292036831 0.431435108
v 0.123878397 0.30373922 0.466945529
v 0.318512172 0.295583993 0.486302972
v 0.332953036 0.305139512 0.469705522
v 0.333070219 0.0942948684 0.469193608
v 0.318512172 0.295583993 0.486302972
v 0.332953036 0.305139512 0.469705522
v 0.316937476 0.088388972 0.482347906
v 0.322300941 0.292036831 0.431435108
v 0.330757737 0.0771351233 0.464410126
v 0.314826339 0.0679694414 0.475265086
v 0.309534669 0.0528430939 0.458691746
v 0.320880115 0.103461176 0.43003878
v 0.299964219 0.269700408 0.420363784
v 0.294031143 0.112001367 0.42023623
v 0.290513605 0.0938375145 0.412019074
v 0.325953066 0.0628390759 0.450532407
v 0.298567206 0.0387231223 0.430998117
v 0.313992769 0.0851386636 0.418233514
v 0.310238957 0.046054963 0.418979526
v 0.286752075 0.0229723658 0.404689521
v 0.296206892 0.0628783852 0.389111519
v 0.275034338 0.0686082914 0.381071657
v 0.296749502 0.0289110914 0.392292976
v 0.277377695 0.00061013439 0.38478595
v 0.276394814 0.0328616686 0.355101645
v 0.262606353 0.0377125405 0.344071537
v 0.284685969 0.00428823195 0.371584654
v 0.273870319 -0.0164291766 0.377442211
v 0.265669465 0.00775888655 0.334655344
v 0.248681784 0.00981811248 0.321718633
v 0.279812992 -0.0158616807 0.363350719
v 0.258733809 -0.0171066616 0.320339531
v 0.243921041 -0.0166572668 0.30838719
v 0.248807222 -0.0428527817 0.321953773
v 0.265205234 -0.0411074907 0.334139436
v 0.257868409 -0.070421949 0.34375307
v 0.284573972 -0.0369160362 0.37125659
v 0.277562261 -0.0334291533 0.384954572
v 0.276025534 -0.0666154176 0.354919314
v 0.276032329 -0.101301752 0.381233096
v 0.296704471 -0.0620748363 0.391754329
v 0.287057579 -0.0561428592 0.404698968
v 0.296416551 -0.0954584554 0.389277995
v 0.291553259 -0.126488283 0.412605762
v 0.31013611 -0.0781585872 0.418854386
v 0.298791736 -0.0722552687 0.430827498
v 0.313821703 -0.117182568 0.41782549
v 0.326026917 -0.0957351401 0.450535774
v 0.309935302 -0.0859576911 0.458690375
v 0.330898285 -0.109986074 0.463891476
v 0.31513685 -0.101528823 0.475305349
v 0.316815853 -0.120981358 0.482559383
v 0.321065128 -0.135845855 0.430246919
v 0.295455307 -0.144148439 0.420578033
v 0.299964219 -0.302460223 0.420363486
v 0.322300941 -0.324796855 0.431435108
v 0.333098739 -0.127323925 0.469198167
v 0.318512172 -0.328343719 0.486302972
v 0.332953036 -0.337899238 0.469705075
v -0.305894315 0.305139512 0.469705522
v -0.291453093 0.295583993 0.486302972
v -0.306011498 0.0942948684 0.469193608
v -0.295242161 0.292036831 0.431435108
v -0.289878547 0.088388972 0.482347906
v -0.293821096 0.103461176 0.43003878
v -0.272905409 0.269700408 0.420363784
v -0.266971737 0.112001367 0.42023623
v -0.263454586 0.0938375145 0.412019074
v -0.30369857 0.0771351233 0.464410126
v -0.28776747 0.0679694414 0.475265086
v -0.282475591 0.0528430939 0.458691746
v -0.28693375 0.0851386636 0.418233514
v -0.298894197 0.0628390759 0.450532407
v -0.271508336 0.0387231223 0.430998117
v -0.283179939 0.046054963 0.418979526
v -0.259693444 0.0229723658 0.404689521
v -0.269147784 0.0628783852 0.389111519
v -0.247975454 0.0686082914 0.381071657
v -0.269690543 0.0289110914 0.392292976
v -0.250318587 0.00061013439 0.38478595
v -0.249336079 0.0328616686 0.355101645
v -0.235547483 0.0377125405 0.344071537
v -0.257626951 0.00428823195 0.371584654
v -0.246810913 -0.0164291766 0.377442211
v -0.238610223 0.00775888655 0.334655344
v -0.221623078 0.00981811248 0.321718633
v -0.252754062 -0.0158616807 0.363350719
v -0.231675252 -0.0171066616 0.320339531
v -0.216862336 -0.0166572668 0.30838719
v -0.221748352 -0.0428527817 0.321953773
v -0.238146514 -0.0411074907 0.334139436
v -0.230809629 -0.070421949 0.34375307
v -0.257515252 -0.0369160362 0.37125659
v -0.250503242 -0.0334291533 0.384954572
v -0.248966977 -0.0666154176 0.354919314
v -0.248973534 -0.101301752 0.381233096
v -0.269645393 -0.0620748363 0.391754329
v -0.259999067 -0.0561428592 0.404698968
v -0.269357443 -0.0954584554 0.389277995
v -0.264494628 -0.126488283 0.412605762
v -0.28307724 -0.0781585872 0.418854386
v -0.271732628 -0.0722552687 0.430827498
v -0.286762834 -0.117182568 0.41782549
v -0.298968047 -0.0957351401 0.450535774
v -0.282876283 -0.0859576911 0.458690375
v -0.303839266 -0.109986074 0.463891476
v -0.288077831 -0.101528823 0.475305349
v -0.289756924 -0.120981358 0.482559383
v -0.294006348 -0.135845855 0.430246919
v -0.268396437 -0.144148439 0.420578033
v -0.272905409 -0.302460223 0.420363486
v -0.295242161 -0.324796855 0.431435108
v -0.306039423 -0.127323925 0.469198167
v -0.291453093 -0.328343719 0.486302972
v -0.305894315 -0.337899238 0.469705075
v 0.327078849 -0.338147998 0.555426955
v 0.239848092 0.219879434 0.555426061
v 0.327078849 0.305388421 0.555426955
v -0.30001983 0.305388421 0.555426955
v 0.239848092 -0.252639264 0.555425107
v -0.212789297 0.219879434 0.555426061
v -0.30001983 -0.338147998 0.555426955
v -0.212789297 -0.252639264 0.555425107
vt 0.690917969 0.78515625
vt 0.690917969 0.768554688
vt 0.631835938 0.768554688
vt 0.631835938 0.78515625
vt 0.690917969 0.845214844
vt 0.706542969 0.78515625
vt 0.706542969 0.845214844
vt 0.631835938 0.845214844
vt 0.616210938 0.845214844
vt 0.616210938 0.78515625
vt 0.631835938 0.861816406
vt 0.690917969 0.861816406
vt 0.913085938 0.970214844
vt 0.908203125 0.962890625
vt 0.896972656 0.970214844
vt 0.896972656 0.962890625
vt 0.908691406 0.948730469
vt 0.896484375 0.948730469
vt 0.896484375 0.9609375
vt 0.908691406 0.9609375
vt 0.916992188 0.948730469
vt 0.91015625 0.9609375
vt 0.916992188 0.96484375
vt 0.91015625 0.948730469
vt 0.873046875 0.948242188
vt 0.884765625 0.955566406
vt 0.889160156 0.948242188
vt 0.873046875 0.955566406
vt 0.884765625 0.957519531
vt 0.873046875 0.969726562
vt 0.884765625 0.969726562
vt 0.873046875 0.957519531
vt 0.88671875 0.969726562
vt 0.893554688 0.969726562
vt 0.88671875 0.957519531
vt 0.893554688 0.952148438
vt 0.963867188 0.970214844
vt 0.963867188 0.962890625
vt 0.952148438 0.962890625
vt 0.948242188 0.970214844
vt 0.963867188 0.9609375
vt 0.963867188 0.948730469
vt 0.952148438 0.9609375
vt 0.952148438 0.948730469
vt 0.950195312 0.948730469
vt 0.943847656 0.948730469
vt 0.950195312 0.9609375
vt 0.943847656 0.96484375
vt 0.939941406 0.955078125
vt 0.939941406 0.947753906
vt 0.928222656 0.955078125
vt 0.924316406 0.947753906
vt 0.939941406 0.969238281
vt 0.939941406 0.95703125
vt 0.928222656 0.95703125
vt 0.928222656 0.969238281
vt 0.919433594 0.969238281
vt 0.926269531 0.95703125
vt 0.919433594 0.952636719
vt 0.926269531 0.969238281
vt 0.501464844 0.757324219
vt 0.591308594 0.771484375
vt 0.602050781 0.757324219
vt 0.512207031 0.771484375
vt 0.608886719 0.763183594
vt 0.594726562 0.848632812
vt 0.608886719 0.859375
vt 0.594726562 0.773925781
vt 0.602539062 0.867675781
vt 0.591796875 0.853515625
vt 0.501953125 0.867675781
vt 0.512695312 0.853515625
vt 0.591796875 0.774414062
vt 0.512695312 0.849609375
vt 0.591796875 0.849609375
vt 0.512695312 0.774414062
vt 0.495361328 0.859863281
vt 0.509765625 0.849121094
vt 0.495361328 0.763671875
vt 0.509765625 0.774414062
vt 1.72167969 0.810546875
vt 1.72558594 0.802246094
vt 1.75390625 0.810546875
vt 1.75683594 0.808105469
vt 1.76269531 0.801757812
vt 1.73339844 0.784667969
vt 1.76953125 0.794433594
vt 1.77539062 0.7890625
vt 1.73730469 0.76953125
vt 1.78125 0.785644531
vt 1.82421875 0.770019531
vt 1.78710938 0.7890625
vt 1.74023438 0.75390625
vt 1.82226562 0.75390625
vt 1.74023438 0.740722656
vt 1.82128906 0.740722656
vt 1.828125 0.784667969
vt 1.79296875 0.794433594
vt 1.79980469 0.801757812
vt 1.83691406 0.802246094
vt 1.80566406 0.808105469
vt 1.80859375 0.810546875
vt 1.84082031 0.810546875
vt 1.71484375 0.852050781
vt 1.71679688 0.837402344
vt 1.75878906 0.837402344
vt 1.84765625 0.852050781
vt 1.80273438 0.837402344
vt 1.84570312 0.837402344
vt 1.79882812 0.835449219
vt 1.76367188 0.835449219
vt 1.76660156 0.831054688
vt 1.79492188 0.831054688
vt 1.79199219 0.824707031
vt 1.76953125 0.824707031
vt 1.7734375 0.818847656
vt 1.7890625 0.818847656
vt 1.77734375 0.814453125
vt 1.78417969 0.814453125
vt 1.78125 0.8125
vt 1.82519531 0.731445312
vt 1.81445312 0.714355469
vt 1.82714844 0.714355469
vt 1.81054688 0.719726562
vt 1.73730469 0.731445312
vt 1.75195312 0.719726562
vt 1.74707031 0.714355469
vt 1.73535156 0.714355469
vt 1.82519531 0.734375
vt 1.82128906 0.737792969
vt 1.73730469 0.734375
vt 1.74023438 0.737792969
vt 0.753417969 0.810546875
vt 0.725585938 0.802246094
vt 0.721191406 0.810546875
vt 0.756835938 0.808105469
vt 0.762207031 0.801757812
vt 0.733398438 0.784667969
vt 0.76953125 0.794433594
vt 0.775390625 0.7890625
vt 0.737792969 0.76953125
vt 0.78125 0.785644531
vt 0.824707031 0.770019531
vt 0.786621094 0.7890625
vt 0.739746094 0.75390625
vt 0.822265625 0.75390625
vt 0.740722656 0.740722656
vt 0.821777344 0.740722656
vt 0.828613281 0.784667969
vt 0.79296875 0.794433594
vt 0.799804688 0.801757812
vt 0.836425781 0.802246094
vt 0.805175781 0.808105469
vt 0.80859375 0.810546875
vt 0.840820312 0.810546875
vt 0.71484375 0.852050781
vt 0.759277344 0.837402344
vt 0.716796875 0.837402344
vt 0.84765625 0.852050781
vt 0.802734375 0.837402344
vt 0.845703125 0.837402344
vt 0.798828125 0.835449219
vt 0.763183594 0.835449219
vt 0.766601562 0.831054688
vt 0.795410156 0.831054688
vt 0.792480469 0.824707031
vt 0.76953125 0.824707031
vt 0.7734375 0.818847656
vt 0.7890625 0.818847656
vt 0.777832031 0.814453125
vt 0.784667969 0.814453125
vt 0.78125 0.8125
vt 0.825195312 0.731445312
vt 0.826660156 0.714355469
vt 0.814941406 0.714355469
vt 0.810546875 0.719726562
vt 0.737304688 0.731445312
vt 0.751953125 0.719726562
vt 0.747558594 0.714355469
vt 0.735351562 0.714355469
vt 0.737304688 0.734375
vt 0.821777344 0.737792969
vt 0.825195312 0.734375
vt 0.740722656 0.737792969
vt 1.95605469 0.715332031
vt 1.96875 0.715332031
vt 1.96582031 0.731933594
vt 1.95117188 0.720214844
vt 1.890625 0.720214844
vt 1.87597656 0.731933594
vt 1.88574219 0.715332031
vt 1.87304688 0.715332031
vt 1.94824219 0.811523438
vt 1.9765625 0.803710938
vt 1.98046875 0.811523438
vt 1.9453125 0.809082031
vt 1.93945312 0.802734375
vt 1.96777344 0.786132812
vt 1.93261719 0.795410156
vt 1.92675781 0.790039062
vt 1.96484375 0.770996094
vt 1.92089844 0.786621094
vt 1.87792969 0.770996094
vt 1.91503906 0.790039062
vt 1.96289062 0.754882812
vt 1.87890625 0.754882812
vt 1.96289062 0.741699219
vt 1.87890625 0.741699219
vt 1.87402344 0.786132812
vt 1.90917969 0.795410156
vt 1.90234375 0.802734375
vt 1.86621094 0.803710938
vt 1.89648438 0.809082031
vt 1.89355469 0.811523438
vt 1.86132812 0.811523438
vt 1.98632812 0.852050781
vt 1.94238281 0.836914062
vt 1.984375 0.836914062
vt 1.89941406 0.836914062
vt 1.85546875 0.852050781
vt 1.85742188 0.836914062
vt 1.93847656 0.834472656
vt 1.90332031 0.834472656
vt 1.93554688 0.830566406
vt 1.90625 0.830566406
vt 1.90917969 0.825195312
vt 1.93261719 0.825195312
vt 1.91308594 0.819335938
vt 1.92871094 0.819335938
vt 1.91796875 0.814453125
vt 1.92480469 0.814453125
vt 1.92089844 0.8125
vt 1.87597656 0.734863281
vt 1.96582031 0.734863281
vt 1.96289062 0.739257812
vt 1.87890625 0.739257812
vt 0.956542969 0.715332031
vt 0.965820312 0.731933594
vt 0.96875 0.715332031
vt 0.951171875 0.720214844
vt 0.891113281 0.720214844
vt 0.875976562 0.731933594
vt 0.885742188 0.715332031
vt 0.873535156 0.715332031
vt 0.98046875 0.811523438
vt 0.976074219 0.803710938
vt 0.948730469 0.811523438
vt 0.9453125 0.809082031
vt 0.939453125 0.802734375
vt 0.968261719 0.786132812
vt 0.932617188 0.795410156
vt 0.926757812 0.790039062
vt 0.964355469 0.770996094
vt 0.920898438 0.786621094
vt 0.877441406 0.770996094
vt 0.915039062 0.790039062
vt 0.962890625 0.754882812
vt 0.879394531 0.754882812
vt 0.962890625 0.741699219
vt 0.87890625 0.741699219
vt 0.874023438 0.786132812
vt 0.909179688 0.795410156
vt 0.90234375 0.802734375
vt 0.865722656 0.803710938
vt 0.896972656 0.809082031
vt 0.893554688 0.811523438
vt 0.861328125 0.811523438
vt 0.986328125 0.852050781
vt 0.984375 0.836914062
vt 0.942871094 0.836914062
vt 0.899414062 0.836914062
vt 0.85546875 0.852050781
vt 0.857421875 0.836914062
vt 0.938964844 0.834472656
vt 0.903320312 0.834472656
vt 0.935546875 0.830566406
vt 0.906738281 0.830566406
vt 0.909667969 0.825195312
vt 0.932128906 0.825195312
vt 0.913085938 0.819335938
vt 0.928710938 0.819335938
vt 0.917480469 0.814453125
vt 0.924316406 0.814453125
vt 0.920898438 0.8125
vt 0.875976562 0.734863281
vt 0.87890625 0.739257812
vt 0.962890625 0.739257812
vt 0.965820312 0.734863281
vt 0.854492188 0.828125
vt 0.857421875 0.831542969
vt 0.897460938 0.828125
vt 0.856933594 0.819824219
vt 0.899414062 0.831542969
vt 0.895507812 0.819824219
vt 0.861328125 0.814941406
vt 0.893554688 0.814941406
vt 0.896972656 0.8125
vt 0.900878906 0.826660156
vt 0.903320312 0.829101562
vt 0.906738281 0.825195312
vt 0.898925781 0.816894531
vt 0.903808594 0.823730469
vt 0.909667969 0.819335938
vt 0.907226562 0.817382812
vt 0.913085938 0.813964844
vt 0.904296875 0.810058594
vt 0.90234375 0.806152344
vt 0.911132812 0.811035156
vt 0.917480469 0.809082031
vt 0.910644531 0.802734375
vt 0.909179688 0.798339844
vt 0.916503906 0.806152344
vt 0.920898438 0.807128906
vt 0.916015625 0.797851562
vt 0.915039062 0.793457031
vt 0.920898438 0.803710938
vt 0.920898438 0.794433594
vt 0.920898438 0.790039062
vt 0.926757812 0.793457031
vt 0.926269531 0.797851562
vt 0.932617188 0.798339844
vt 0.92578125 0.806152344
vt 0.924316406 0.809082031
vt 0.931152344 0.802734375
vt 0.939941406 0.806152344
vt 0.931152344 0.811035156
vt 0.928710938 0.813964844
vt 0.937988281 0.810058594
vt 0.9453125 0.8125
vt 0.934570312 0.817382812
vt 0.932128906 0.819335938
vt 0.942871094 0.816894531
vt 0.938476562 0.823730469
vt 0.935546875 0.825195312
vt 0.940917969 0.826660156
vt 0.938964844 0.829101562
vt 0.942871094 0.831542969
vt 0.946777344 0.819824219
vt 0.948730469 0.814941406
vt 0.98046875 0.814941406
vt 0.985351562 0.819824219
vt 0.944335938 0.828125
vt 0.984375 0.831542969
vt 0.987304688 0.828125
vt 1.85742188 0.831542969
vt 1.85449219 0.828125
vt 1.89746094 0.828125
vt 1.89941406 0.831542969
vt 1.85644531 0.819824219
vt 1.90136719 0.826660156
vt 1.90332031 0.829101562
vt 1.90625 0.825195312
vt 1.89550781 0.819824219
vt 1.86132812 0.814941406
vt 1.89355469 0.814941406
vt 1.89648438 0.8125
vt 1.90332031 0.823730469
vt 1.90917969 0.819335938
vt 1.89941406 0.816894531
vt 1.90722656 0.817382812
vt 1.91308594 0.813964844
vt 1.90429688 0.810058594
vt 1.90234375 0.806152344
vt 1.91113281 0.811035156
vt 1.91796875 0.809082031
vt 1.91113281 0.802734375
vt 1.90917969 0.798339844
vt 1.91601562 0.806152344
vt 1.92089844 0.807128906
vt 1.91601562 0.797851562
vt 1.91503906 0.793457031
vt 1.92089844 0.803710938
vt 1.92089844 0.794433594
vt 1.92089844 0.790039062
vt 1.92675781 0.793457031
vt 1.92578125 0.797851562
vt 1.93261719 0.798339844
vt 1.92578125 0.806152344
vt 1.92480469 0.809082031
vt 1.93164062 0.802734375
vt 1.93945312 0.806152344
vt 1.93066406 0.811035156
vt 1.92871094 0.813964844
vt 1.9375 0.810058594
vt 1.9453125 0.8125
vt 1.93457031 0.817382812
vt 1.93261719 0.819335938
vt 1.94335938 0.816894531
vt 1.93847656 0.823730469
vt 1.93554688 0.825195312
vt 1.94140625 0.826660156
vt 1.93847656 0.829101562
vt 1.94238281 0.831542969
vt 1.94628906 0.819824219
vt 1.94824219 0.814941406
vt 1.98046875 0.814941406
vt 1.98535156 0.819824219
vt 1.94433594 0.828125
vt 1.984375 0.831542969
vt 1.98730469 0.828125
vt 0.8046875 0.828125
vt 0.845703125 0.83203125
vt 0.848144531 0.828125
vt 0.803222656 0.83203125
vt 0.845703125 0.819335938
vt 0.801269531 0.826660156
vt 0.798828125 0.830078125
vt 0.795410156 0.825683594
vt 0.806640625 0.819335938
vt 0.840820312 0.814453125
vt 0.80859375 0.814453125
vt 0.805664062 0.812011719
vt 0.798828125 0.82421875
vt 0.792480469 0.819335938
vt 0.803222656 0.81640625
vt 0.794921875 0.817382812
vt 0.7890625 0.813476562
vt 0.797851562 0.810058594
vt 0.799804688 0.805664062
vt 0.791015625 0.811035156
vt 0.784667969 0.809082031
vt 0.791503906 0.802246094
vt 0.79296875 0.798339844
vt 0.785644531 0.806152344
vt 0.78125 0.807128906
vt 0.786132812 0.797363281
vt 0.787109375 0.79296875
vt 0.78125 0.803710938
vt 0.78125 0.794433594
vt 0.78125 0.789550781
vt 0.775390625 0.79296875
vt 0.776367188 0.797363281
vt 0.76953125 0.798339844
vt 0.776855469 0.806152344
vt 0.777832031 0.809082031
vt 0.770996094 0.802246094
vt 0.762695312 0.805664062
vt 0.770996094 0.811035156
vt 0.7734375 0.813476562
vt 0.764160156 0.810058594
vt 0.756835938 0.812011719
vt 0.767578125 0.817382812
vt 0.770019531 0.819335938
vt 0.759277344 0.81640625
vt 0.763671875 0.82421875
vt 0.767089844 0.825683594
vt 0.760742188 0.826660156
vt 0.763183594 0.829589844
vt 0.759277344 0.83203125
vt 0.755371094 0.819335938
vt 0.753417969 0.814453125
vt 0.721679688 0.814453125
vt 0.716796875 0.819335938
vt 0.757324219 0.828125
vt 0.716796875 0.83203125
vt 0.714355469 0.828125
vt 1.84765625 0.828125
vt 1.84570312 0.83203125
vt 1.8046875 0.828125
vt 1.84570312 0.819335938
vt 1.80273438 0.83203125
vt 1.80664062 0.819335938
vt 1.84082031 0.814453125
vt 1.80859375 0.814453125
vt 1.80566406 0.812011719
vt 1.80175781 0.826660156
vt 1.79882812 0.830078125
vt 1.79589844 0.825683594
vt 1.80273438 0.81640625
vt 1.79882812 0.82421875
vt 1.79296875 0.819335938
vt 1.79492188 0.817382812
vt 1.7890625 0.813476562
vt 1.79785156 0.810058594
vt 1.79980469 0.805664062
vt 1.79101562 0.811035156
vt 1.78417969 0.809082031
vt 1.79199219 0.802246094
vt 1.79296875 0.798339844
vt 1.78613281 0.806152344
vt 1.78125 0.807128906
vt 1.78613281 0.797363281
vt 1.78710938 0.79296875
vt 1.78125 0.803710938
vt 1.78125 0.794433594
vt 1.78125 0.789550781
vt 1.77539062 0.79296875
vt 1.77636719 0.797363281
vt 1.76953125 0.798339844
vt 1.77636719 0.806152344
vt 1.77734375 0.809082031
vt 1.77050781 0.802246094
vt 1.76269531 0.805664062
vt 1.77148438 0.811035156
vt 1.7734375 0.813476562
vt 1.76464844 0.810058594
vt 1.75683594 0.812011719
vt 1.76757812 0.817382812
vt 1.76953125 0.819335938
vt 1.75878906 0.81640625
vt 1.76367188 0.82421875
vt 1.76660156 0.825683594
vt 1.76074219 0.826660156
vt 1.76367188 0.829589844
vt 1.75976562 0.83203125
vt 1.75585938 0.819335938
vt 1.75390625 0.814453125
vt 1.72167969 0.814453125
vt 1.71679688 0.819335938
vt 1.7578125 0.828125
vt 1.71679688 0.83203125
vt 1.71386719 0.828125
vt 0.850585938 0.858398438
vt 0.967285156 0.876464844
vt 0.986816406 0.858398438
vt 0.986816406 0.9921875
vt 0.869628906 0.876464844
vt 0.967285156 0.974121094
vt 0.850585938 0.9921875
vt 0.869628906 0.974121094
vn -0 -1.96695328E-06 -1
vn -0 0 -1
vn -0 0 -1
vn -0 1.96695328E-06 -1
vn -0 -1.96695328E-06 -1
vn -0 -5.96046448E-06 -1
vn -0 -5.96046448E-06 -1
vn -0 1.96695328E-06 -1
vn -0 5.96046448E-06 -1
vn -0 5.96046448E-06 -1
vn -0 0 -1
vn -0 0 -1
vn -0.703613281 0.00163078308 -0.710449219
vn -0.703613281 0.00177288055 -0.710449219
vn -0.703613281 0.00170516968 -0.710449219
vn -0.703125 0.00214958191 -0.7109375
vn -0 0 -1
vn -0 0 -1
vn -0 0 -1
vn -0 0 -1
vn -0 -0.763183594 -0.645996094
vn -0 -0.763183594 -0.645996094
vn -0 -0.763183594 -0.645996094
vn -0 -0.763183594 -0.645996094
vn 0.703125 -1.37090683E-06 -0.7109375
vn 0.703125 -2.8014183E-06 -0.7109375
vn 0.703125 -3.87430191E-06 -0.7109375
vn 0.703125 0 -0.7109375
vn -0 0 -1
vn -0 0 -1
vn -0 0 -1
vn -0 0 -1
vn -0 -0.763183594 -0.645996094
vn -0 -0.763183594 -0.645996094
vn -0 -0.763183594 -0.645996094
vn -0 -0.763183594 -0.645996094
vn -0.703125 0.000988006592 -0.711425781
vn -0.703125 0.00108528137 -0.711425781
vn -0.702636719 0.000884056091 -0.711425781
vn -0.703125 0.00106525421 -0.711425781
vn -0 0 -1
vn -0 0 -1
vn -0 0 -1
vn -0 0 -1
vn -0 0.763183594 -0.645996094
vn -0 0.763183594 -0.645996094
vn -0 0.763183594 -0.645996094
vn -0 0.763183594 -0.645996094
vn 0.703125 0 -0.7109375
vn 0.703125 1.37090683E-06 -0.7109375
vn 0.703125 2.8014183E-06 -0.7109375
vn 0.703125 3.87430191E-06 -0.7109375
vn -0 0 -1
vn -0 0 -1
vn -0 0 -1
vn -0 0 -1
vn -0 0.763183594 -0.645996094
vn -0 0.763183594 -0.645996094
vn -0 0.763183594 -0.645996094
vn -0 0.763183594 -0.645996094
vn -0.672363281 -2.38418579E-07 0.740234375
vn -0.672363281 -1.31130219E-06 0.740234375
vn -0.672363281 -1.43051147E-06 0.740234375
vn -0.672363281 0 0.740234375
vn -0 -0.676757812 0.736328125
vn -0 -0.676757812 0.736328125
vn -0 -0.676757812 0.736328125
vn -0 -0.676757812 0.736328125
vn 0.672363281 -1.43051147E-06 0.740234375
vn 0.672363281 -1.31130219E-06 0.740234375
vn 0.672363281 -2.38418579E-07 0.740234375
vn 0.672363281 0 0.740234375
vn -0 0 1
vn -0 0 1
vn -0 0 1
vn -0 0 1
vn -0 0.676757812 0.736328125
vn -0 0.676757812 0.736328125
vn -0 0.676757812 0.736328125
vn -0 0.676757812 0.736328125
vn -0.868164062 0.0195922852 -0.496337891
vn -0.883789062 0.0130386353 -0.467529297
vn -0.867675781 0.0195922852 -0.496337891
vn -0.890136719 0.00631332397 -0.455810547
vn -0.902832031 0.00380134583 -0.429931641
vn -0.938476562 -0.00105857849 -0.345703125
vn -0.916503906 -0.000389575958 -0.400146484
vn -0.9609375 -0.00663375854 -0.276123047
vn -0.983398438 -0.00347518921 -0.181274414
vn -0.970703125 -2.67624855E-05 -0.240356445
vn -0.983398438 0.00347900391 -0.181030273
vn -0.950195312 0.00347518921 -0.311767578
vn -0.998535156 0 -0.0510864258
vn -0.998535156 0 -0.0510864258
vn -1 0 0.011100769
vn -1 0 0.011100769
vn -0.941894531 0.0069732666 -0.335449219
vn -0.878417969 -0.00345611572 -0.477783203
vn -0.912597656 0.00400161743 -0.408935547
vn -0.892578125 -0.0113372803 -0.450927734
vn -0.891113281 -0.0106964111 -0.453369141
vn -0.874023438 -0.02394104 -0.485107422
vn -0.874023438 -0.0239562988 -0.485107422
vn -0.9921875 0.00456237793 -0.126098633
vn -0.992675781 0.00591278076 -0.122192383
vn -0.988769531 0.000418901443 -0.149291992
vn -0.9921875 -0.00409317017 -0.125732422
vn -0.988769531 -0.00112533569 -0.149169922
vn -0.992675781 -0.00520706177 -0.122253418
vn -0.963867188 0.000746250153 -0.266357422
vn -0.963867188 0.000740528107 -0.266357422
vn -0.945800781 0.00229454041 -0.32421875
vn -0.945800781 0.00231552124 -0.32421875
vn -0.923339844 0.00284576416 -0.383789062
vn -0.923339844 0.00245666504 -0.383544922
vn -0.91015625 0.00283432007 -0.414550781
vn -0.909667969 0.00303840637 -0.415283203
vn -0.90234375 0.00323486328 -0.430908203
vn -0.90234375 0.00307273865 -0.430664062
vn -0.899902344 0.00271987915 -0.436035156
vn -0.988769531 -0.00959014893 0.150024414
vn -0.985351562 -0.0250549316 0.169921875
vn -0.987792969 0 0.155029297
vn -0.988769531 -0.0174102783 0.149291992
vn -0.98828125 0.00783538818 0.151611328
vn -0.98828125 0.0168762207 0.150146484
vn -0.984863281 0.0216064453 0.17199707
vn -0.987792969 -0.00402069092 0.156860352
vn -0.556640625 0 0.830566406
vn -0.556640625 0 0.830566406
vn -0.556640625 0 0.830566406
vn -0.556640625 0 0.830566406
vn 0.867675781 0.0196075439 -0.496337891
vn 0.883789062 0.0130386353 -0.467529297
vn 0.868164062 0.0195922852 -0.496337891
vn 0.890136719 0.00631332397 -0.455810547
vn 0.902832031 0.00387191772 -0.430175781
vn 0.938476562 -0.00105857849 -0.345703125
vn 0.916503906 -0.000293970108 -0.400390625
vn 0.9609375 -0.00662994385 -0.276123047
vn 0.983398438 -0.00347518921 -0.181274414
vn 0.970703125 -2.61068344E-05 -0.240356445
vn 0.983398438 0.00349807739 -0.180908203
vn 0.950195312 0.00347328186 -0.311767578
vn 0.998535156 0 -0.0510864258
vn 0.998535156 0 -0.0510864258
vn 1 0 0.011100769
vn 1 0 0.011100769
vn 0.941894531 0.0069732666 -0.335449219
vn 0.878417969 -0.00345802307 -0.477783203
vn 0.912597656 0.00400161743 -0.408935547
vn 0.892578125 -0.0113296509 -0.450927734
vn 0.891113281 -0.0106964111 -0.453369141
vn 0.874023438 -0.02394104 -0.485107422
vn 0.874023438 -0.02394104 -0.485107422
vn 0.9921875 0.00450515747 -0.125732422
vn 0.988769531 0.000414609909 -0.149414062
vn 0.992675781 0.00591278076 -0.122192383
vn 0.9921875 -0.00409317017 -0.125732422
vn 0.988769531 -0.00112533569 -0.149169922
vn 0.992675781 -0.00521087646 -0.122253418
vn 0.963867188 0.000745773315 -0.266357422
vn 0.963867188 0.000741481781 -0.266357422
vn 0.945800781 0.00227737427 -0.32421875
vn 0.945800781 0.00230026245 -0.32421875
vn 0.923339844 0.00284576416 -0.383789062
vn 0.923339844 0.00245857239 -0.383544922
vn 0.91015625 0.00283622742 -0.414550781
vn 0.909667969 0.00298309326 -0.415283203
vn 0.90234375 0.00323295593 -0.430908203
vn 0.90234375 0.00309371948 -0.430664062
vn 0.899902344 0.00271987915 -0.436035156
vn 0.988769531 -0.010383606 0.150390625
vn 0.987792969 -0.0020236969 0.15625
vn 0.984863281 -0.025970459 0.170410156
vn 0.988769531 -0.0174102783 0.149169922
vn 0.98828125 0.00856781006 0.151855469
vn 0.98828125 0.0168762207 0.150146484
vn 0.984863281 0.0225219727 0.172607422
vn 0.987304688 -0.00200653076 0.157958984
vn 0.556640625 0 0.830566406
vn 0.556640625 0 0.830566406
vn 0.556640625 0 0.830566406
vn 0.556640625 0 0.830566406
vn -0.00181770325 0.995117188 0.100402832
vn -0 0.995117188 0.0993652344
vn -0.000738143921 0.995117188 0.0988769531
vn -0.00120925903 0.995117188 0.0985717773
vn 0.00120639801 0.995117188 0.0985717773
vn 0.000736713409 0.995117188 0.0988769531
vn 0.00181674957 0.995117188 0.100402832
vn -0 0.995117188 0.0993652344
vn -0.00580978394 0.873046875 -0.487792969
vn -0.005027771 0.884765625 -0.465820312
vn -0.00580978394 0.873046875 -0.487792969
vn -0.00141525269 0.880859375 -0.473876953
vn -0.00343513489 0.897949219 -0.439941406
vn -0.000152349472 0.935546875 -0.353515625
vn -0.00127506256 0.913085938 -0.407470703
vn 0.00406265259 0.956542969 -0.291748047
vn 0.00230407715 0.979492188 -0.202636719
vn -4.76837158E-07 0.967285156 -0.252685547
vn -0.00231933594 0.979492188 -0.202636719
vn -0.00408554077 0.956542969 -0.291748047
vn -0 0.994628906 -0.102478027
vn -0 0.994628906 -0.102478027
vn -0 0.998046875 -0.0651245117
vn -0 0.998046875 -0.0651245117
vn 0.000150918961 0.935546875 -0.353515625
vn 0.00129795074 0.913085938 -0.407470703
vn 0.00345802307 0.897949219 -0.439941406
vn 0.00498199463 0.884765625 -0.466064453
vn 0.00142765045 0.880859375 -0.473876953
vn 0.00581359863 0.873046875 -0.487792969
vn 0.00580978394 0.873046875 -0.487792969
vn 0.0145187378 0.991210938 -0.130249023
vn 0.00173854828 0.982421875 -0.186645508
vn 0.0191192627 0.989746094 -0.142700195
vn -0.00173854828 0.982421875 -0.186645508
vn -0.0145187378 0.991210938 -0.130249023
vn -0.0191192627 0.989746094 -0.142700195
vn -0 0.765136719 -0.643554688
vn -0 0.765136719 -0.643554688
vn -0 0.925292969 -0.379394531
vn -0 0.925292969 -0.379394531
vn -0 0.902832031 -0.430175781
vn -0 0.902832031 -0.430175781
vn -0 0.897949219 -0.439697266
vn -0 0.897949219 -0.439697266
vn -0 0.90625 -0.422363281
vn -0 0.90625 -0.422363281
vn -0 0.9140625 -0.405273438
vn -0 0.490966797 0.87109375
vn -0 0.490966797 0.87109375
vn -0 0.490966797 0.87109375
vn -0 0.490966797 0.87109375
vn -0.00181770325 -0.995117188 0.100402832
vn -0.000738143921 -0.995117188 0.0988769531
vn -0 -0.995117188 0.0993652344
vn -0.00121116638 -0.995117188 0.0985717773
vn 0.00120639801 -0.995117188 0.0985717773
vn 0.000736236572 -0.995117188 0.0988769531
vn 0.00181770325 -0.995117188 0.100402832
vn -0 -0.995117188 0.0993652344
vn -0.00581359863 -0.873046875 -0.487792969
vn -0.0050201416 -0.884765625 -0.465820312
vn -0.00580596924 -0.873046875 -0.487792969
vn -0.00142478943 -0.880859375 -0.473876953
vn -0.00341033936 -0.897949219 -0.439941406
vn -0.000150442123 -0.935546875 -0.353515625
vn -0.00129699707 -0.913085938 -0.407470703
vn 0.00408172607 -0.956542969 -0.291748047
vn 0.00232505798 -0.979492188 -0.202636719
vn 7.15255737E-07 -0.967285156 -0.252929688
vn -0.00231933594 -0.979492188 -0.202636719
vn -0.00408172607 -0.956542969 -0.291748047
vn -0 -0.994628906 -0.102478027
vn -0 -0.994628906 -0.102478027
vn -0 -0.998046875 -0.0651245117
vn -0 -0.998046875 -0.0651245117
vn 0.000151157379 -0.935546875 -0.353515625
vn 0.00136852264 -0.913085938 -0.407470703
vn 0.00343513489 -0.897949219 -0.439941406
vn 0.00505065918 -0.884765625 -0.465820312
vn 0.00142478943 -0.880859375 -0.473876953
vn 0.00581359863 -0.873046875 -0.487792969
vn 0.00581359863 -0.873046875 -0.487792969
vn 0.0145187378 -0.991210938 -0.130249023
vn 0.0191192627 -0.989746094 -0.142700195
vn 0.00173854828 -0.982421875 -0.186645508
vn -0.00173854828 -0.982421875 -0.186645508
vn -0.0145187378 -0.991210938 -0.130249023
vn -0.0191192627 -0.989746094 -0.142700195
vn -0 -0.765136719 -0.643554688
vn -0 -0.765136719 -0.643554688
vn -0 -0.925292969 -0.379394531
vn -0 -0.925292969 -0.379394531
vn -0 -0.902832031 -0.430175781
vn -0 -0.902832031 -0.430175781
vn -0 -0.897949219 -0.439697266
vn -0 -0.897949219 -0.439697266
vn -0 -0.90625 -0.422363281
vn -0 -0.90625 -0.422363281
vn -0 -0.9140625 -0.405273438
vn -0 -0.490966797 0.87109375
vn -0 -0.490966797 0.87109375
vn -0 -0.490966797 0.87109375
vn -0 -0.490966797 0.87109375
vn 0.0043296814 -1 -0.000789642334
vn 0.006980896 -0.89453125 0.447021484
vn 0.118896484 -0.990722656 0.0681152344
vn -0.002161026 -0.840332031 -0.542480469
vn 0.234375 -0.904785156 0.355712891
vn -0.0166931152 -0.782714844 -0.622558594
vn -0.0107040405 -0.409667969 -0.912109375
vn -0.135986328 -0.424072266 -0.895507812
vn -0.462890625 -0.426269531 -0.77734375
vn 0.302978516 -0.953125 -0.00981903076
vn 0.488769531 -0.830566406 0.266845703
vn 0.651855469 -0.743164062 0.150390625
vn -0.153076172 -0.749511719 -0.644042969
vn 0.363037109 -0.925292969 -0.108154297
vn 0.702148438 -0.707519531 0.0790405273
vn 0.418945312 -0.888671875 -0.186767578
vn 0.63671875 -0.752929688 0.167114258
vn -0.311279297 -0.719726562 -0.620605469
vn -0.586425781 -0.404296875 -0.702148438
vn 0.333740234 -0.930175781 -0.153808594
vn 0.502441406 -0.815429688 0.287353516
vn -0.295898438 -0.713378906 -0.635253906
vn -0.522949219 -0.414550781 -0.745117188
vn 0.26171875 -0.960449219 -0.096496582
vn -4.41074371E-06 -0.929199219 0.369873047
vn -0.240478516 -0.704589844 -0.667480469
vn -0.396728516 -0.452148438 -0.798828125
vn -1.49011612E-06 -0.985351562 -0.170654297
vn 2.20537186E-06 -0.666015625 -0.74609375
vn 3.51667404E-06 -0.498291016 -0.8671875
vn 0.396728516 -0.452148438 -0.798828125
vn 0.240478516 -0.704589844 -0.667480469
vn 0.522949219 -0.414550781 -0.745117188
vn -0.26171875 -0.960449219 -0.0965576172
vn -0.502441406 -0.815429688 0.287353516
vn 0.295898438 -0.713378906 -0.635253906
vn 0.586425781 -0.404296875 -0.702148438
vn -0.333740234 -0.930175781 -0.153442383
vn -0.63671875 -0.752929688 0.167114258
vn 0.311523438 -0.719726562 -0.620605469
vn 0.462890625 -0.426025391 -0.77734375
vn -0.418945312 -0.888671875 -0.186767578
vn -0.702148438 -0.707519531 0.0790405273
vn 0.153076172 -0.749511719 -0.644042969
vn -0.363037109 -0.925292969 -0.108093262
vn -0.651855469 -0.743652344 0.150390625
vn -0.302978516 -0.953125 -0.00986480713
vn -0.488769531 -0.830566406 0.266845703
vn -0.234375 -0.904785156 0.355957031
vn 0.0166931152 -0.782714844 -0.622558594
vn 0.135986328 -0.424072266 -0.895507812
vn 0.0107040405 -0.409667969 -0.912109375
vn 0.002161026 -0.840332031 -0.542480469
vn -0.118896484 -0.990722656 0.0681152344
vn -0.006980896 -0.89453125 0.447021484
vn -0.0043296814 -1 -0.000787258148
vn 0.0069770813 0.89453125 0.447021484
vn 0.0043296814 1 -0.000789165497
vn 0.11895752 0.990722656 0.0681152344
vn 0.234375 0.904785156 0.355957031
vn -0.00216293335 0.840332031 -0.542480469
vn 0.302978516 0.953125 -0.00987243652
vn 0.488769531 0.830566406 0.266845703
vn 0.651855469 0.743652344 0.150390625
vn -0.0166931152 0.782714844 -0.622558594
vn -0.0107040405 0.409667969 -0.912109375
vn -0.135986328 0.424072266 -0.895507812
vn -0.462890625 0.426269531 -0.77734375
vn 0.363037109 0.925292969 -0.108093262
vn 0.702148438 0.707519531 0.0790405273
vn -0.153076172 0.749511719 -0.644042969
vn 0.418945312 0.888671875 -0.186767578
vn 0.63671875 0.752929688 0.167114258
vn -0.311279297 0.719726562 -0.620605469
vn -0.586425781 0.404296875 -0.702148438
vn 0.333740234 0.930175781 -0.153564453
vn 0.502441406 0.815429688 0.287353516
vn -0.295898438 0.713378906 -0.635253906
vn -0.522949219 0.414550781 -0.745117188
vn 0.26171875 0.960449219 -0.0965576172
vn -4.11272049E-06 0.929199219 0.369873047
vn -0.240478516 0.704589844 -0.667480469
vn -0.396728516 0.452148438 -0.798828125
vn -1.25169754E-06 0.985351562 -0.170288086
vn 4.529953E-06 0.666015625 -0.74609375
vn 8.5234642E-06 0.498291016 -0.8671875
vn 0.396728516 0.452148438 -0.798828125
vn 0.240478516 0.704589844 -0.667480469
vn 0.522949219 0.414550781 -0.745117188
vn -0.26171875 0.960449219 -0.0965576172
vn -0.502441406 0.815429688 0.287353516
vn 0.295898438 0.713378906 -0.635253906
vn 0.586425781 0.404296875 -0.702148438
vn -0.333740234 0.930175781 -0.153320312
vn -0.63671875 0.752929688 0.167114258
vn 0.311279297 0.719726562 -0.620605469
vn 0.462890625 0.426025391 -0.77734375
vn -0.418701172 0.888671875 -0.186889648
vn -0.702148438 0.707519531 0.0790405273
vn 0.153076172 0.749511719 -0.644042969
vn -0.363037109 0.925292969 -0.108154297
vn -0.651855469 0.743652344 0.150390625
vn -0.302978516 0.953125 -0.00984954834
vn -0.488769531 0.830566406 0.266845703
vn -0.234375 0.904785156 0.355957031
vn 0.0166931152 0.782714844 -0.622558594
vn 0.135986328 0.424072266 -0.895507812
vn 0.0107040405 0.409667969 -0.912109375
vn 0.00216293335 0.840332031 -0.542480469
vn -0.11895752 0.990722656 0.0681152344
vn -0.0069770813 0.89453125 0.447021484
vn -0.0043296814 1 -0.000786304474
vn 0.955566406 -0.095703125 0.278076172
vn 0.700195312 -0.0100708008 0.713867188
vn 0.973144531 -0.00673294067 0.23059082
vn 0.683105469 -0.174072266 0.709472656
vn 0.854980469 -0.00275230408 -0.518554688
vn 0.923828125 -0.317382812 0.21496582
vn 0.659667969 -0.511230469 0.55078125
vn 0.617675781 -0.73828125 0.270019531
vn 0.791992188 0.0465393066 -0.608886719
vn 0.391601562 -0.00426864624 -0.919921875
vn 0.3984375 0.166137695 -0.901855469
vn 0.406738281 0.485595703 -0.773925781
vn 0.889648438 -0.456054688 -0.0171203613
vn 0.615234375 -0.7734375 0.152587891
vn 0.753417969 0.171264648 -0.635253906
vn 0.863769531 -0.473876953 -0.171386719
vn 0.697265625 -0.681640625 0.220458984
vn 0.725585938 0.286376953 -0.625488281
vn 0.484619141 0.542480469 -0.686035156
vn 0.9140625 -0.370361328 -0.164672852
vn 0.812011719 -0.483886719 0.326171875
vn 0.750488281 0.232666016 -0.618164062
vn 0.596191406 0.37109375 -0.711914062
vn 0.962402344 -0.248535156 -0.111206055
vn 0.920898438 0.00379562378 0.390136719
vn 0.770996094 0.147460938 -0.619140625
vn 0.614257812 0.273925781 -0.740234375
vn 0.990234375 -0.0060043335 -0.140014648
vn 0.729003906 -0.00662231445 -0.684570312
vn 0.624511719 0.000794887543 -0.780761719
vn 0.583007812 -0.314453125 -0.749023438
vn 0.750976562 -0.185913086 -0.633789062
vn 0.534667969 -0.431884766 -0.726074219
vn 0.963867188 0.23828125 -0.118103027
vn 0.819335938 0.475341797 0.320068359
vn 0.724121094 -0.264160156 -0.637207031
vn 0.460449219 -0.550292969 -0.696289062
vn 0.916015625 0.361816406 -0.173828125
vn 0.696289062 0.684082031 0.217529297
vn 0.72265625 -0.286376953 -0.62890625
vn 0.413574219 -0.481445312 -0.772949219
vn 0.857910156 0.487548828 -0.162841797
vn 0.598144531 0.784667969 0.162353516
vn 0.75390625 -0.172119141 -0.634277344
vn 0.887207031 0.461425781 -0.0117416382
vn 0.608398438 0.741210938 0.283203125
vn 0.926757812 0.315673828 0.203613281
vn 0.663085938 0.502441406 0.555175781
vn 0.688964844 0.178222656 0.702636719
vn 0.793945312 -0.046661377 -0.605957031
vn 0.403076172 -0.167236328 -0.899902344
vn 0.397949219 0.00401687622 -0.917480469
vn 0.856445312 0.00240516663 -0.516601562
vn 0.955566406 0.0933227539 0.280273438
vn 0.700683594 0.00985717773 0.713378906
vn 0.973144531 0.00640106201 0.230712891
vn -0.973144531 -0.00673675537 0.23059082
vn -0.700195312 -0.0100708008 0.713867188
vn -0.955566406 -0.095703125 0.278076172
vn -0.854980469 -0.00276184082 -0.518554688
vn -0.683105469 -0.174072266 0.709472656
vn -0.791992188 0.0465393066 -0.608886719
vn -0.391601562 -0.00426864624 -0.919921875
vn -0.3984375 0.166259766 -0.901855469
vn -0.406738281 0.485595703 -0.773925781
vn -0.923339844 -0.317871094 0.21496582
vn -0.659667969 -0.511230469 0.55078125
vn -0.617675781 -0.73828125 0.270019531
vn -0.753417969 0.171264648 -0.635253906
vn -0.889648438 -0.456054688 -0.0171203613
vn -0.615234375 -0.7734375 0.152587891
vn -0.863769531 -0.473876953 -0.171386719
vn -0.697265625 -0.681640625 0.220458984
vn -0.725585938 0.286376953 -0.625488281
vn -0.484619141 0.542480469 -0.686035156
vn -0.9140625 -0.370361328 -0.164672852
vn -0.812011719 -0.483886719 0.326171875
vn -0.750488281 0.232666016 -0.618164062
vn -0.596191406 0.37109375 -0.711914062
vn -0.962402344 -0.248535156 -0.111206055
vn -0.920898438 0.00333976746 0.390136719
vn -0.770996094 0.147583008 -0.619140625
vn -0.614257812 0.273925781 -0.740234375
vn -0.990234375 -0.00597763062 -0.140014648
vn -0.729003906 -0.00663375854 -0.684082031
vn -0.624511719 0.000792980194 -0.780761719
vn -0.583007812 -0.314453125 -0.749023438
vn -0.750976562 -0.185913086 -0.633789062
vn -0.534667969 -0.431884766 -0.726074219
vn -0.963867188 0.23828125 -0.118041992
vn -0.819335938 0.475341797 0.320068359
vn -0.724121094 -0.264160156 -0.637207031
vn -0.460449219 -0.550292969 -0.696289062
vn -0.916015625 0.361816406 -0.173828125
vn -0.696289062 0.684082031 0.217407227
vn -0.72265625 -0.286376953 -0.62890625
vn -0.413574219 -0.481445312 -0.772949219
vn -0.857910156 0.487548828 -0.162841797
vn -0.598144531 0.784667969 0.162353516
vn -0.75390625 -0.172119141 -0.634277344
vn -0.887207031 0.461425781 -0.0117416382
vn -0.608398438 0.741210938 0.282958984
vn -0.926757812 0.315673828 0.203613281
vn -0.663085938 0.502441406 0.555175781
vn -0.688964844 0.178222656 0.702636719
vn -0.793945312 -0.046661377 -0.605957031
vn -0.403076172 -0.167114258 -0.899902344
vn -0.397949219 0.00401687622 -0.917480469
vn -0.856445312 0.00240516663 -0.516601562
vn -0.955566406 0.0933227539 0.280517578
vn -0.700683594 0.00985717773 0.713378906
vn -0.973144531 0.00638961792 0.230712891
vn -1.07288361E-05 9.77516174E-06 1
vn -5.7220459E-06 -5.42402267E-06 1
vn -5.42402267E-06 -5.30481339E-06 1
vn 5.30481339E-06 -5.30481339E-06 1
vn -1.18017197E-05 9.77516174E-06 1
vn 5.60283661E-06 -5.42402267E-06 1
vn 1.04308128E-05 9.77516174E-06 1
vn 1.15036964E-05 9.77516174E-06 1
g lingpai_long_0
f 3/3/3 2/2/2 1/1/1
f 1/1/1 4/4/4 3/3/3
f 4/4/4 1/1/1 5/5/5
f 5/5/5 1/1/1 6/6/6
f 6/6/6 7/7/7 5/5/5
f 5/5/5 8/8/8 4/4/4
f 8/8/8 9/9/9 4/4/4
f 9/9/9 10/10/10 4/4/4
f 11/11/11 8/8/8 5/5/5
f 11/11/11 5/5/5 12/12/12
f 15/15/15 14/14/14 13/13/13
f 15/15/15 16/16/16 14/14/14
f 19/19/19 18/18/18 17/17/17
f 17/17/17 20/20/20 19/19/19
f 23/23/23 22/22/22 21/21/21
f 22/22/22 24/24/24 21/21/21
f 27/27/27 26/26/26 25/25/25
f 28/28/28 25/25/25 26/26/26
f 31/31/31 30/30/30 29/29/29
f 30/30/30 32/32/32 29/29/29
f 35/35/35 34/34/34 33/33/33
f 34/34/34 35/35/35 36/36/36
f 39/39/39 38/38/38 37/37/37
f 40/40/40 39/39/39 37/37/37
f 43/43/43 42/42/42 41/41/41
f 43/43/43 44/44/44 42/42/42
f 47/47/47 46/46/46 45/45/45
f 46/46/46 47/47/47 48/48/48
f 51/51/51 50/50/50 49/49/49
f 50/50/50 51/51/51 52/52/52
f 55/55/55 54/54/54 53/53/53
f 53/53/53 56/56/56 55/55/55
f 59/59/59 58/58/58 57/57/57
f 58/58/58 60/60/60 57/57/57
f 63/63/63 62/62/62 61/61/61
f 62/62/62 64/64/64 61/61/61
f 67/67/67 66/66/66 65/65/65
f 66/66/66 68/68/68 65/65/65
f 71/71/71 70/70/70 69/69/69
f 71/71/71 72/72/72 70/70/70
f 75/75/75 74/74/74 73/73/73
f 74/74/74 76/76/76 73/73/73
f 79/79/79 78/78/78 77/77/77
f 79/79/79 80/80/80 78/78/78
f 83/83/83 82/82/82 81/81/81
f 82/82/82 83/83/83 84/84/84
f 84/84/84 85/85/85 82/82/82
f 85/85/85 86/86/86 82/82/82
f 85/85/85 87/87/87 86/86/86
f 87/87/87 88/88/88 86/86/86
f 89/89/89 86/86/86 88/88/88
f 89/89/89 88/88/88 90/90/90
f 91/91/91 89/89/89 90/90/90
f 90/90/90 92/92/92 91/91/91
f 93/93/93 89/89/89 91/91/91
f 91/91/91 94/94/94 93/93/93
f 95/95/95 93/93/93 94/94/94
f 94/94/94 96/96/96 95/95/95
f 92/92/92 97/97/97 91/91/91
f 98/98/98 97/97/97 92/92/92
f 98/98/98 99/99/99 97/97/97
f 100/100/100 97/97/97 99/99/99
f 99/99/99 101/101/101 100/100/100
f 101/101/101 102/102/102 100/100/100
f 103/103/103 100/100/100 102/102/102
f 106/106/106 105/105/105 104/104/104
f 106/106/106 104/104/104 107/107/107
f 107/107/107 108/108/108 106/106/106
f 109/109/109 108/108/108 107/107/107
f 106/106/106 108/108/108 110/110/110
f 110/110/110 111/111/111 106/106/106
f 110/110/110 112/112/112 111/111/111
f 110/110/110 113/113/113 112/112/112
f 113/113/113 114/114/114 112/112/112
f 114/114/114 115/115/115 112/112/112
f 116/116/116 115/115/115 114/114/114
f 114/114/114 117/117/117 116/116/116
f 118/118/118 116/116/116 117/117/117
f 117/117/117 119/119/119 118/118/118
f 120/120/120 118/118/118 119/119/119
f 123/123/123 122/122/122 121/121/121
f 121/121/121 122/122/122 124/124/124
f 125/125/125 121/121/121 124/124/124
f 124/124/124 126/126/126 125/125/125
f 127/127/127 125/125/125 126/126/126
f 127/127/127 128/128/128 125/125/125
f 131/131/131 130/130/130 129/129/129
f 131/131/131 132/132/132 130/130/130
f 135/135/135 134/134/134 133/133/133
f 136/136/136 133/133/133 134/134/134
f 137/137/137 136/136/136 134/134/134
f 134/134/134 138/138/138 137/137/137
f 139/139/139 137/137/137 138/138/138
f 140/140/140 139/139/139 138/138/138
f 138/138/138 141/141/141 140/140/140
f 142/142/142 140/140/140 141/141/141
f 141/141/141 143/143/143 142/142/142
f 143/143/143 144/144/144 142/142/142
f 141/141/141 145/145/145 143/143/143
f 145/145/145 146/146/146 143/143/143
f 145/145/145 147/147/147 146/146/146
f 147/147/147 148/148/148 146/146/146
f 143/143/143 149/149/149 144/144/144
f 149/149/149 150/150/150 144/144/144
f 151/151/151 150/150/150 149/149/149
f 151/151/151 149/149/149 152/152/152
f 153/153/153 151/151/151 152/152/152
f 152/152/152 154/154/154 153/153/153
f 154/154/154 152/152/152 155/155/155
f 158/158/158 157/157/157 156/156/156
f 159/159/159 156/156/156 157/157/157
f 157/157/157 160/160/160 159/159/159
f 160/160/160 161/161/161 159/159/159
f 162/162/162 160/160/160 157/157/157
f 157/157/157 163/163/163 162/162/162
f 163/163/163 164/164/164 162/162/162
f 164/164/164 165/165/165 162/162/162
f 164/164/164 166/166/166 165/165/165
f 164/164/164 167/167/167 166/166/166
f 166/166/166 167/167/167 168/168/168
f 168/168/168 169/169/169 166/166/166
f 169/169/169 168/168/168 170/170/170
f 170/170/170 171/171/171 169/169/169
f 170/170/170 172/172/172 171/171/171
f 175/175/175 174/174/174 173/173/173
f 175/175/175 173/173/173 176/176/176
f 176/176/176 173/173/173 177/177/177
f 177/177/177 178/178/178 176/176/176
f 177/177/177 179/179/179 178/178/178
f 180/180/180 179/179/179 177/177/177
f 183/183/183 182/182/182 181/181/181
f 182/182/182 184/184/184 181/181/181
f 187/187/187 186/186/186 185/185/185
f 187/187/187 185/185/185 188/188/188
f 187/187/187 188/188/188 189/189/189
f 189/189/189 190/190/190 187/187/187
f 191/191/191 190/190/190 189/189/189
f 192/192/192 190/190/190 191/191/191
f 195/195/195 194/194/194 193/193/193
f 196/196/196 193/193/193 194/194/194
f 197/197/197 196/196/196 194/194/194
f 194/194/194 198/198/198 197/197/197
f 199/199/199 197/197/197 198/198/198
f 199/199/199 198/198/198 200/200/200
f 198/198/198 201/201/201 200/200/200
f 202/202/202 200/200/200 201/201/201
f 201/201/201 203/203/203 202/202/202
f 203/203/203 204/204/204 202/202/202
f 201/201/201 205/205/205 203/203/203
f 205/205/205 206/206/206 203/203/203
f 205/205/205 207/207/207 206/206/206
f 207/207/207 208/208/208 206/206/206
f 203/203/203 209/209/209 204/204/204
f 210/210/210 204/204/204 209/209/209
f 211/211/211 210/210/210 209/209/209
f 211/211/211 209/209/209 212/212/212
f 213/213/213 211/211/211 212/212/212
f 212/212/212 214/214/214 213/213/213
f 214/214/214 212/212/212 215/215/215
f 218/218/218 217/217/217 216/216/216
f 216/216/216 217/217/217 219/219/219
f 219/219/219 220/220/220 216/216/216
f 219/219/219 221/221/221 220/220/220
f 217/217/217 222/222/222 219/219/219
f 222/222/222 223/223/223 219/219/219
f 222/222/222 224/224/224 223/223/223
f 224/224/224 225/225/225 223/223/223
f 224/224/224 226/226/226 225/225/225
f 224/224/224 227/227/227 226/226/226
f 227/227/227 228/228/228 226/226/226
f 227/227/227 229/229/229 228/228/228
f 229/229/229 230/230/230 228/228/228
f 229/229/229 231/231/231 230/230/230
f 232/232/232 230/230/230 231/231/231
f 235/235/235 234/234/234 233/233/233
f 233/233/233 236/236/236 235/235/235
f 239/239/239 238/238/238 237/237/237
f 237/237/237 238/238/238 240/240/240
f 241/241/241 240/240/240 238/238/238
f 238/238/238 242/242/242 241/241/241
f 242/242/242 243/243/243 241/241/241
f 242/242/242 244/244/244 243/243/243
f 247/247/247 246/246/246 245/245/245
f 246/246/246 247/247/247 248/248/248
f 248/248/248 249/249/249 246/246/246
f 249/249/249 250/250/250 246/246/246
f 249/249/249 251/251/251 250/250/250
f 250/250/250 251/251/251 252/252/252
f 253/253/253 250/250/250 252/252/252
f 253/253/253 252/252/252 254/254/254
f 255/255/255 253/253/253 254/254/254
f 254/254/254 256/256/256 255/255/255
f 257/257/257 253/253/253 255/255/255
f 255/255/255 258/258/258 257/257/257
f 259/259/259 257/257/257 258/258/258
f 258/258/258 260/260/260 259/259/259
f 256/256/256 261/261/261 255/255/255
f 256/256/256 262/262/262 261/261/261
f 262/262/262 263/263/263 261/261/261
f 264/264/264 261/261/261 263/263/263
f 263/263/263 265/265/265 264/264/264
f 265/265/265 266/266/266 264/264/264
f 267/267/267 264/264/264 266/266/266
f 270/270/270 269/269/269 268/268/268
f 271/271/271 270/270/270 268/268/268
f 268/268/268 272/272/272 271/271/271
f 273/273/273 271/271/271 272/272/272
f 274/274/274 270/270/270 271/271/271
f 271/271/271 275/275/275 274/274/274
f 275/275/275 276/276/276 274/274/274
f 275/275/275 277/277/277 276/276/276
f 277/277/277 278/278/278 276/276/276
f 278/278/278 279/279/279 276/276/276
f 278/278/278 280/280/280 279/279/279
f 280/280/280 281/281/281 279/279/279
f 280/280/280 282/282/282 281/281/281
f 282/282/282 283/283/283 281/281/281
f 282/282/282 284/284/284 283/283/283
f 287/287/287 286/286/286 285/285/285
f 285/285/285 288/288/288 287/287/287
f 291/291/291 290/290/290 289/289/289
f 289/289/289 292/292/292 291/291/291
f 290/290/290 291/291/291 293/293/293
f 292/292/292 294/294/294 291/291/291
f 292/292/292 295/295/295 294/294/294
f 295/295/295 296/296/296 294/294/294
f 294/294/294 296/296/296 297/297/297
f 293/293/293 291/291/291 298/298/298
f 294/294/294 298/298/298 291/291/291
f 293/293/293 298/298/298 299/299/299
f 300/300/300 299/299/299 298/298/298
f 297/297/297 301/301/301 294/294/294
f 294/294/294 301/301/301 298/298/298
f 298/298/298 302/302/302 300/300/300
f 301/301/301 302/302/302 298/298/298
f 303/303/303 300/300/300 302/302/302
f 304/304/304 303/303/303 302/302/302
f 302/302/302 301/301/301 304/304/304
f 303/303/303 304/304/304 305/305/305
f 301/301/301 297/297/297 306/306/306
f 304/304/304 301/301/301 306/306/306
f 306/306/306 297/297/297 307/307/307
f 308/308/308 305/305/305 304/304/304
f 304/304/304 306/306/306 308/308/308
f 305/305/305 308/308/308 309/309/309
f 306/306/306 307/307/307 310/310/310
f 308/308/308 306/306/306 310/310/310
f 310/310/310 307/307/307 311/311/311
f 312/312/312 309/309/309 308/308/308
f 308/308/308 310/310/310 312/312/312
f 309/309/309 312/312/312 313/313/313
f 310/310/310 311/311/311 314/314/314
f 312/312/312 310/310/310 314/314/314
f 311/311/311 315/315/315 314/314/314
f 313/313/313 312/312/312 316/316/316
f 314/314/314 316/316/316 312/312/312
f 314/314/314 315/315/315 317/317/317
f 316/316/316 314/314/314 317/317/317
f 315/315/315 318/318/318 317/317/317
f 317/317/317 318/318/318 319/319/319
f 319/319/319 320/320/320 317/317/317
f 317/317/317 320/320/320 316/316/316
f 320/320/320 319/319/319 321/321/321
f 316/316/316 322/322/322 313/313/313
f 320/320/320 322/322/322 316/316/316
f 322/322/322 323/323/323 313/313/313
f 321/321/321 324/324/324 320/320/320
f 320/320/320 324/324/324 322/322/322
f 321/321/321 325/325/325 324/324/324
f 326/326/326 323/323/323 322/322/322
f 326/326/326 322/322/322 324/324/324
f 327/327/327 323/323/323 326/326/326
f 325/325/325 328/328/328 324/324/324
f 324/324/324 328/328/328 326/326/326
f 325/325/325 329/329/329 328/328/328
f 330/330/330 327/327/327 326/326/326
f 330/330/330 326/326/326 328/328/328
f 327/327/327 330/330/330 331/331/331
f 329/329/329 332/332/332 328/328/328
f 328/328/328 332/332/332 330/330/330
f 333/333/333 331/331/331 330/330/330
f 333/333/333 330/330/330 332/332/332
f 331/331/331 333/333/333 334/334/334
f 334/334/334 333/333/333 335/335/335
f 333/333/333 332/332/332 335/335/335
f 335/335/335 336/336/336 334/334/334
f 337/337/337 336/336/336 335/335/335
f 338/338/338 332/332/332 329/329/329
f 332/332/332 338/338/338 335/335/335
f 329/329/329 339/339/339 338/338/338
f 338/338/338 339/339/339 340/340/340
f 338/338/338 340/340/340 341/341/341
f 335/335/335 342/342/342 337/337/337
f 335/335/335 338/338/338 342/342/342
f 342/342/342 338/338/338 341/341/341
f 343/343/343 337/337/337 342/342/342
f 341/341/341 344/344/344 342/342/342
f 342/342/342 344/344/344 343/343/343
f 347/347/347 346/346/346 345/345/345
f 345/345/345 348/348/348 347/347/347
f 347/347/347 349/349/349 346/346/346
f 347/347/347 348/348/348 350/350/350
f 350/350/350 348/348/348 351/351/351
f 350/350/350 351/351/351 352/352/352
f 349/349/349 347/347/347 353/353/353
f 350/350/350 353/353/353 347/347/347
f 354/354/354 349/349/349 353/353/353
f 353/353/353 355/355/355 354/354/354
f 356/356/356 355/355/355 353/353/353
f 352/352/352 357/357/357 350/350/350
f 357/357/357 352/352/352 358/358/358
f 359/359/359 353/353/353 350/350/350
f 353/353/353 359/359/359 356/356/356
f 357/357/357 359/359/359 350/350/350
f 357/357/357 358/358/358 360/360/360
f 359/359/359 357/357/357 360/360/360
f 360/360/360 358/358/358 361/361/361
f 359/359/359 362/362/362 356/356/356
f 359/359/359 360/360/360 362/362/362
f 362/362/362 363/363/363 356/356/356
f 360/360/360 361/361/361 364/364/364
f 362/362/362 360/360/360 364/364/364
f 364/364/364 361/361/361 365/365/365
f 362/362/362 366/366/366 363/363/363
f 362/362/362 364/364/364 366/366/366
f 366/366/366 367/367/367 363/363/363
f 364/364/364 365/365/365 368/368/368
f 368/368/368 366/366/366 364/364/364
f 368/368/368 365/365/365 369/369/369
f 366/366/366 370/370/370 367/367/367
f 366/366/366 368/368/368 370/370/370
f 370/370/370 371/371/371 367/367/367
f 368/368/368 369/369/369 372/372/372
f 370/370/370 368/368/368 372/372/372
f 371/371/371 370/370/370 373/373/373
f 373/373/373 370/370/370 372/372/372
f 373/373/373 374/374/374 371/371/371
f 374/374/374 373/373/373 375/375/375
f 373/373/373 376/376/376 375/375/375
f 376/376/376 373/373/373 372/372/372
f 375/375/375 376/376/376 377/377/377
f 378/378/378 372/372/372 369/369/369
f 372/372/372 378/378/378 376/376/376
f 369/369/369 379/379/379 378/378/378
f 377/377/377 376/376/376 380/380/380
f 380/380/380 376/376/376 378/378/378
f 377/377/377 380/380/380 381/381/381
f 382/382/382 378/378/378 379/379/379
f 382/382/382 380/380/380 378/378/378
f 379/379/379 383/383/383 382/382/382
f 381/381/381 380/380/380 384/384/384
f 384/384/384 380/380/380 382/382/382
f 381/381/381 384/384/384 385/385/385
f 382/382/382 383/383/383 386/386/386
f 382/382/382 386/386/386 384/384/384
f 383/383/383 387/387/387 386/386/386
f 385/385/385 384/384/384 388/388/388
f 388/388/388 384/384/384 386/386/386
f 386/386/386 387/387/387 389/389/389
f 386/386/386 389/389/389 388/388/388
f 387/387/387 390/390/390 389/389/389
f 391/391/391 389/389/389 390/390/390
f 388/388/388 389/389/389 391/391/391
f 390/390/390 392/392/392 391/391/391
f 392/392/392 393/393/393 391/391/391
f 385/385/385 388/388/388 394/394/394
f 394/394/394 388/388/388 391/391/391
f 394/394/394 395/395/395 385/385/385
f 395/395/395 394/394/394 396/396/396
f 394/394/394 397/397/397 396/396/396
f 398/398/398 391/391/391 393/393/393
f 394/394/394 391/391/391 398/398/398
f 397/397/397 394/394/394 398/398/398
f 399/399/399 398/398/398 393/393/393
f 400/400/400 397/397/397 398/398/398
f 398/398/398 399/399/399 400/400/400
f 403/403/403 402/402/402 401/401/401
f 404/404/404 401/401/401 402/402/402
f 405/405/405 403/403/403 401/401/401
f 404/404/404 406/406/406 401/401/401
f 407/407/407 406/406/406 404/404/404
f 406/406/406 407/407/407 408/408/408
f 401/401/401 409/409/409 405/405/405
f 406/406/406 409/409/409 401/401/401
f 410/410/410 405/405/405 409/409/409
f 410/410/410 409/409/409 411/411/411
f 412/412/412 411/411/411 409/409/409
f 408/408/408 413/413/413 406/406/406
f 414/414/414 413/413/413 408/408/408
f 415/415/415 409/409/409 406/406/406
f 409/409/409 415/415/415 412/412/412
f 413/413/413 415/415/415 406/406/406
f 413/413/413 414/414/414 416/416/416
f 413/413/413 416/416/416 415/415/415
f 417/417/417 416/416/416 414/414/414
f 415/415/415 418/418/418 412/412/412
f 418/418/418 415/415/415 416/416/416
f 412/412/412 418/418/418 419/419/419
f 416/416/416 417/417/417 420/420/420
f 416/416/416 420/420/420 418/418/418
f 417/417/417 421/421/421 420/420/420
f 418/418/418 422/422/422 419/419/419
f 422/422/422 418/418/418 420/420/420
f 419/419/419 422/422/422 423/423/423
f 420/420/420 421/421/421 424/424/424
f 420/420/420 424/424/424 422/422/422
f 424/424/424 421/421/421 425/425/425
f 422/422/422 426/426/426 423/423/423
f 426/426/426 422/422/422 424/424/424
f 423/423/423 426/426/426 427/427/427
f 425/425/425 428/428/428 424/424/424
f 426/426/426 424/424/424 428/428/428
f 426/426/426 429/429/429 427/427/427
f 429/429/429 426/426/426 428/428/428
f 427/427/427 429/429/429 430/430/430
f 431/431/431 430/430/430 429/429/429
f 429/429/429 432/432/432 431/431/431
f 428/428/428 432/432/432 429/429/429
f 433/433/433 431/431/431 432/432/432
f 434/434/434 428/428/428 425/425/425
f 432/432/432 428/428/428 434/434/434
f 435/435/435 434/434/434 425/425/425
f 432/432/432 436/436/436 433/433/433
f 434/434/434 436/436/436 432/432/432
f 437/437/437 433/433/433 436/436/436
f 434/434/434 435/435/435 438/438/438
f 438/438/438 436/436/436 434/434/434
f 439/439/439 438/438/438 435/435/435
f 437/437/437 436/436/436 440/440/440
f 438/438/438 440/440/440 436/436/436
f 441/441/441 437/437/437 440/440/440
f 438/438/438 439/439/439 442/442/442
f 442/442/442 440/440/440 438/438/438
f 443/443/443 442/442/442 439/439/439
f 441/441/441 440/440/440 444/444/444
f 442/442/442 444/444/444 440/440/440
f 442/442/442 443/443/443 445/445/445
f 445/445/445 444/444/444 442/442/442
f 443/443/443 446/446/446 445/445/445
f 447/447/447 445/445/445 446/446/446
f 444/444/444 445/445/445 447/447/447
f 446/446/446 448/448/448 447/447/447
f 449/449/449 447/447/447 448/448/448
f 441/441/441 444/444/444 450/450/450
f 450/450/450 444/444/444 447/447/447
f 450/450/450 451/451/451 441/441/441
f 452/452/452 451/451/451 450/450/450
f 453/453/453 452/452/452 450/450/450
f 449/449/449 454/454/454 447/447/447
f 450/450/450 447/447/447 454/454/454
f 453/453/453 450/450/450 454/454/454
f 455/455/455 454/454/454 449/449/449
f 456/456/456 453/453/453 454/454/454
f 455/455/455 456/456/456 454/454/454
f 459/459/459 458/458/458 457/457/457
f 457/457/457 460/460/460 459/459/459
f 458/458/458 459/459/459 461/461/461
f 460/460/460 462/462/462 459/459/459
f 460/460/460 463/463/463 462/462/462
f 463/463/463 464/464/464 462/462/462
f 462/462/462 464/464/464 465/465/465
f 466/466/466 461/461/461 459/459/459
f 462/462/462 466/466/466 459/459/459
f 461/461/461 466/466/466 467/467/467
f 468/468/468 467/467/467 466/466/466
f 465/465/465 469/469/469 462/462/462
f 462/462/462 469/469/469 466/466/466
f 466/466/466 470/470/470 468/468/468
f 469/469/469 470/470/470 466/466/466
f 471/471/471 468/468/468 470/470/470
f 472/472/472 471/471/471 470/470/470
f 472/472/472 470/470/470 469/469/469
f 473/473/473 471/471/471 472/472/472
f 474/474/474 469/469/469 465/465/465
f 469/469/469 474/474/474 472/472/472
f 474/474/474 465/465/465 475/475/475
f 476/476/476 473/473/473 472/472/472
f 476/476/476 472/472/472 474/474/474
f 477/477/477 473/473/473 476/476/476
f 478/478/478 474/474/474 475/475/475
f 474/474/474 478/478/478 476/476/476
f 475/475/475 479/479/479 478/478/478
f 476/476/476 480/480/480 477/477/477
f 480/480/480 476/476/476 478/478/478
f 481/481/481 477/477/477 480/480/480
f 482/482/482 478/478/478 479/479/479
f 478/478/478 482/482/482 480/480/480
f 479/479/479 483/483/483 482/482/482
f 480/480/480 484/484/484 481/481/481
f 480/480/480 482/482/482 484/484/484
f 485/485/485 482/482/482 483/483/483
f 482/482/482 485/485/485 484/484/484
f 483/483/483 486/486/486 485/485/485
f 486/486/486 487/487/487 485/485/485
f 485/485/485 487/487/487 488/488/488
f 485/485/485 488/488/488 484/484/484
f 487/487/487 489/489/489 488/488/488
f 490/490/490 481/481/481 484/484/484
f 488/488/488 490/490/490 484/484/484
f 490/490/490 491/491/491 481/481/481
f 488/488/488 489/489/489 492/492/492
f 492/492/492 490/490/490 488/488/488
f 489/489/489 493/493/493 492/492/492
f 494/494/494 491/491/491 490/490/490
f 492/492/492 494/494/494 490/490/490
f 494/494/494 495/495/495 491/491/491
f 492/492/492 493/493/493 496/496/496
f 496/496/496 494/494/494 492/492/492
f 493/493/493 497/497/497 496/496/496
f 495/495/495 494/494/494 498/498/498
f 496/496/496 498/498/498 494/494/494
f 498/498/498 499/499/499 495/495/495
f 496/496/496 497/497/497 500/500/500
f 500/500/500 498/498/498 496/496/496
f 499/499/499 498/498/498 501/501/501
f 500/500/500 501/501/501 498/498/498
f 501/501/501 502/502/502 499/499/499
f 502/502/502 501/501/501 503/503/503
f 501/501/501 500/500/500 503/503/503
f 503/503/503 504/504/504 502/502/502
f 503/503/503 505/505/505 504/504/504
f 506/506/506 500/500/500 497/497/497
f 500/500/500 506/506/506 503/503/503
f 497/497/497 507/507/507 506/506/506
f 506/506/506 507/507/507 508/508/508
f 506/506/506 508/508/508 509/509/509
f 510/510/510 505/505/505 503/503/503
f 503/503/503 506/506/506 510/510/510
f 509/509/509 510/510/510 506/506/506
f 511/511/511 505/505/505 510/510/510
f 510/510/510 509/509/509 512/512/512
f 512/512/512 511/511/511 510/510/510
f 515/515/515 514/514/514 513/513/513
f 514/514/514 515/515/515 516/516/516
f 514/514/514 517/517/517 513/513/513
f 516/516/516 518/518/518 514/514/514
f 519/519/519 513/513/513 517/517/517
f 519/519/519 518/518/518 516/516/516
f 517/517/517 520/520/520 519/519/519
f 519/519/519 520/520/520 518/518/518
