g JingTangMu
v -1.39251347E-06 -0.00278214482 0.000493228144
v 0.000595333113 -0.00278244307 0.000722238095
v 0.000662704639 -0.002782478 0.000467710866
v 0.000322237232 -0.0027823078 0.000868357776
v -1.39251347E-06 -0.00278214482 0.000906852714
v -0.000325018016 -0.0027819844 0.000868357776
v -0.000598117535 -0.00278184772 0.000722238095
v -0.000665486616 -0.00278181396 0.000467710866
v 0.000662604347 -0.00298760133 0.000467710866
v 0.000942684303 -0.00298774149 0.000382232654
v 0.00115552801 -0.00298789912 6.02508517E-05
v -1.49399034E-06 -0.00298726722 0.000493228144
v -0.00115851848 -0.00298674311 6.02508517E-05
v -0.000665590225 -0.00298693497 0.000467710866
v -0.000945668959 -0.0029867955 0.000382232654
v 0.00129491114 -0.00298791123 -0.000378280616
v -0.00129789906 -0.00298661552 -0.000378280616
v -0.0013134171 -0.00298666535 -0.000756933528
v 0.00131042791 -0.00298797991 -0.000756933528
v -1.49488449E-06 -0.00298726885 -0.00117230066
v -0.000844260037 -0.00298686465 -0.0011488708
v -0.00120944553 -0.00298671331 -0.00104495848
v 0.000841270434 -0.00298770634 -0.0011488708
v 0.00120645703 -0.00298792147 -0.00104495848
v 1.39266251E-06 0.00278214249 0.000493223546
v 1.49413938E-06 0.00298726698 0.000493223546
v 0.000665590691 0.00298693799 0.000467706268
v 0.000665488362 0.00278181187 0.000467706268
v 0.000945670297 0.0029867976 0.000382228085
v 0.000942684303 -0.00298774149 0.000382232654
v 0.000662704639 -0.002782478 0.000467710866
v 0.00115552801 -0.00298789912 6.02508517E-05
v 0.000662604347 -0.00298760133 0.000467710866
v -1.49399034E-06 -0.00298726722 0.000493228144
v -1.39251347E-06 -0.00278214482 0.000493228144
v 0.00115851965 0.00298674731 6.02462751E-05
v 0.00129491114 -0.00298791123 -0.000378280616
v 0.00129790034 0.00298661762 -0.000378285185
v 0.00131042791 -0.00298797991 -0.000756933528
v 0.00131341454 0.00298666861 -0.000756933528
v 0.0012094453 0.00298671261 -0.00104495999
v 0.00120645703 -0.00298792147 -0.00104495848
v 0.00084425963 0.00298686163 -0.00114886928
v 0.000841270434 -0.00298770634 -0.0011488708
v 1.49354332E-06 0.00298726652 -0.00117229915
v -1.49488449E-06 -0.00298726885 -0.00117230066
v 0.000598119863 0.00278184656 0.00072223664
v 0.000665488362 0.00278181187 0.000467706268
v 0.000662704639 -0.002782478 0.000467710866
v 0.000595333113 -0.00278244307 0.000722238095
v 0.000325019791 0.0027819823 0.000868354808
v 0.000322237232 -0.0027823078 0.000868357776
v 1.39266251E-06 0.00278214249 0.000906848058
v -1.39251347E-06 -0.00278214482 0.000906852714
v 1.49413938E-06 0.00298726698 0.000493223546
v 1.39266251E-06 0.00278214249 0.000493223546
v -0.000662704348 0.00278247613 0.000467709324
v -0.000662602193 0.00298759993 0.000467709324
v -0.000942683371 0.00298774336 0.000382231141
v -0.000945668959 -0.0029867955 0.000382232654
v -0.00115552929 0.00298790145 6.02477994E-05
v -0.000665486616 -0.00278181396 0.000467710866
v -0.00115851848 -0.00298674311 6.02508517E-05
v -0.000665590225 -0.00298693497 0.000467710866
v -1.49399034E-06 -0.00298726722 0.000493228144
v -1.39251347E-06 -0.00278214482 0.000493228144
v -0.00129491196 0.00298791192 -0.000378283672
v -0.00129789906 -0.00298661552 -0.000378280616
v -0.0013104286 0.00298797991 -0.000756933528
v -0.0013134171 -0.00298666535 -0.000756933528
v -0.00120944553 -0.00298671331 -0.00104495848
v -0.00120645761 0.00298792031 -0.00104495848
v -0.000841274217 0.00298770517 -0.00114886928
v -0.000844260037 -0.00298686465 -0.0011488708
v 1.49354332E-06 0.00298726652 -0.00117229915
v -1.49488449E-06 -0.00298726885 -0.00117230066
v -0.000598117535 -0.00278184772 0.000722238095
v -0.000665486616 -0.00278181396 0.000467710866
v -0.000662704348 0.00278247613 0.000467709324
v -0.000595334393 0.00278244168 0.00072223664
v -0.000325018016 -0.0027819844 0.000868357776
v -0.000322235748 0.0027823057 0.000868354808
v -1.39251347E-06 -0.00278214482 0.000906852714
v 1.39266251E-06 0.00278214249 0.000906848058
v 1.39266251E-06 0.00278214249 0.000493223546
v 0.000665488362 0.00278181187 0.000467706268
v 0.000598119863 0.00278184656 0.00072223664
v 0.000325019791 0.0027819823 0.000868354808
v 1.39266251E-06 0.00278214249 0.000906848058
v -0.000322235748 0.0027823057 0.000868354808
v -0.000595334393 0.00278244168 0.00072223664
v -0.000662704348 0.00278247613 0.000467709324
v 0.000665590691 0.00298693799 0.000467706268
v 0.00115851965 0.00298674731 6.02462751E-05
v 0.000945670297 0.0029867976 0.000382228085
v 1.49413938E-06 0.00298726698 0.000493223546
v -0.00115552929 0.00298790145 6.02477994E-05
v -0.000662602193 0.00298759993 0.000467709324
v -0.000942683371 0.00298774336 0.000382231141
v -0.00129491196 0.00298791192 -0.000378283672
v 0.00129790034 0.00298661762 -0.000378285185
v 0.00131341454 0.00298666861 -0.000756933528
v -0.0013104286 0.00298797991 -0.000756933528
v 1.49354332E-06 0.00298726652 -0.00117229915
v 0.00084425963 0.00298686163 -0.00114886928
v 0.0012094453 0.00298671261 -0.00104495999
v -0.000841274217 0.00298770517 -0.00114886928
v -0.00120645761 0.00298792031 -0.00104495848
vt 0.690898061 0.9706074
vt 0.713008642 0.979566336
vt 0.715504885 0.9706074
vt 0.702889442 0.984980464
vt 0.690898061 0.986406088
vt 0.678907037 0.984980464
vt 0.668787718 0.979566336
vt 0.666291595 0.9706074
vt 0.9406569 0.936917782
vt 0.949960828 0.933654547
vt 0.95703125 0.922958493
vt 0.91859591 0.936917782
vt 0.880160451 0.922958493
vt 0.896535158 0.936917782
vt 0.887231112 0.933654547
vt 0.961661577 0.90839076
vt 0.875530243 0.90839076
vt 0.875014663 0.895812035
vt 0.962176919 0.895812035
vt 0.91859591 0.882403255
vt 0.890599728 0.882403255
vt 0.878468633 0.886243939
vt 0.946591973 0.882403255
vt 0.958723187 0.886243939
vt 1.65661645 0.984597206
vt 1.64990163 0.984597206
vt 1.64990163 0.962857604
vt 1.65661645 0.962857604
vt 1.64990163 0.953689098
vt 1.84548104 0.953689098
vt 1.83876634 0.962857604
vt 1.84548283 0.943148732
vt 1.84548104 0.962857604
vt 1.84548104 0.984597206
vt 1.83876634 0.984597206
vt 1.64989984 0.943148732
vt 1.84548068 0.928793192
vt 1.64990199 0.928793192
vt 1.84548283 0.916397929
vt 1.64989984 0.916397929
vt 1.64989984 0.906969309
vt 1.84548283 0.906969309
vt 1.64990115 0.895014882
vt 1.84548175 0.895014882
vt 1.64990163 0.867426395
vt 1.84548104 0.867426395
vt 1.46316481 0.88241899
vt 1.46316481 0.874086857
vt 1.64367235 0.874086857
vt 1.64367235 0.88241899
vt 1.46316481 0.891358972
vt 1.64367235 0.891358972
vt 1.46316481 0.90195334
vt 1.64367235 0.90195334
vt 0.649901628 0.984597206
vt 0.656616449 0.984597206
vt 0.656616449 0.962857604
vt 0.649901628 0.962857604
vt 0.649901628 0.953689098
vt 0.845481038 0.953689098
vt 0.64989984 0.943148732
vt 0.838766336 0.962857604
vt 0.845482826 0.943148732
vt 0.845481038 0.962857604
vt 0.845481038 0.984597206
vt 0.838766336 0.984597206
vt 0.649901986 0.928793192
vt 0.84548068 0.928793192
vt 0.64989984 0.916397929
vt 0.845482826 0.916397929
vt 0.845482826 0.906969309
vt 0.64989984 0.906969309
vt 0.649901152 0.895014882
vt 0.845481753 0.895014882
vt 0.649901628 0.867426395
vt 0.845481038 0.867426395
vt 0.643672347 0.88241899
vt 0.643672347 0.874086857
vt 0.463164777 0.874086857
vt 0.463164777 0.88241899
vt 0.643672347 0.891358972
vt 0.463164777 0.891358972
vt 0.643672347 0.90195334
vt 0.463164777 0.90195334
vt 1.69089806 0.9706074
vt 1.71550488 0.9706074
vt 1.71300864 0.979566336
vt 1.70288944 0.984980464
vt 1.69089806 0.986406088
vt 1.67890704 0.984980464
vt 1.66878772 0.979566336
vt 1.66629159 0.9706074
vt 1.9406569 0.936917782
vt 1.95703125 0.922958493
vt 1.94996083 0.933654547
vt 1.91859591 0.936917782
vt 1.88016045 0.922958493
vt 1.89653516 0.936917782
vt 1.88723111 0.933654547
vt 1.87553024 0.90839076
vt 1.96166158 0.90839076
vt 1.96217692 0.895812035
vt 1.87501466 0.895812035
vt 1.91859591 0.882403255
vt 1.94659197 0.882403255
vt 1.95872319 0.886243939
vt 1.89059973 0.882403255
vt 1.87846863 0.886243939
vn -0.000499346992 -0.999999881 -4.96707514E-07
vn -0.000500261842 -0.999999881 1.59134902E-06
vn -0.000501555915 -0.999999881 3.61815523E-06
vn -0.000500054331 -0.999999881 -1.20725724E-06
vn -0.000499579008 -0.999999881 0
vn -0.00049785123 -0.999999881 -2.81691109E-06
vn -0.000498502632 -0.999999881 -1.60908746E-06
vn -0.000498112757 -0.999999881 0
vn -0.000490093429 -0.999999881 0.000140316581
vn -0.000439304305 -0.999999881 0.000196647539
vn -0.000493181113 -0.999999881 -3.47505957E-05
vn -0.000500070746 -0.999999881 0.000126153463
vn -0.00050681259 -0.999999881 -3.25980982E-05
vn -0.000513416308 -0.999999881 0.000150811349
vn -0.000561563531 -0.999999881 0.000209587495
vn -0.000500329421 -0.999999881 3.20606778E-05
vn -0.000499768474 -0.999999881 2.75870589E-05
vn -0.000479998824 -0.999999881 6.48231726E-05
vn -0.000520784815 -0.999999881 6.56673728E-05
vn -0.00050067727 -0.999999881 -0.000120661076
vn -0.000470941479 -0.999999881 -5.39414868E-05
vn -0.000409201602 -1 2.02292813E-05
vn -0.000527839409 -0.999999881 -6.56319826E-05
vn -0.00059234997 -0.999999881 1.18414973E-05
vn 2.38046687E-06 0 1
vn 2.15736486E-06 0 1
vn 0.166529551 -8.30239078E-05 0.986036539
vn 0.208938986 -0.000104004728 0.977928698
vn 0.598370731 -0.000298922067 0.801219285
vn 0.59837383 -0.000297934021 0.8012169
vn 0.20893763 -0.000103331935 0.977928936
vn 0.902213693 -0.000451035186 0.431288958
vn 0.166530907 -8.1385886E-05 0.986036301
vn 1.195571E-07 0 1
vn -1.6732092E-07 0 1
vn 0.902212441 -0.000451227301 0.431291759
vn 0.984839737 -0.000492797873 0.173465967
vn 0.984840691 -0.000492377963 0.173460945
vn 0.988357484 -0.00049447018 -0.152148455
vn 0.988357604 -0.000494044682 -0.152147502
vn 0.682235003 -0.000341226987 -0.731132925
vn 0.682233989 -0.000341205014 -0.731133819
vn 0.151916951 -7.59779214E-05 -0.988393247
vn 0.151920095 -7.57528178E-05 -0.98839277
vn 1.10320308E-07 2.43399285E-07 -1
vn -0 2.61850289E-07 -1
vn 0.784361422 -0.000392318645 0.620304108
vn 0.966711819 -0.000483438693 0.255867153
vn 0.966708362 -0.000484065298 0.255880207
vn 0.784360528 -0.000392351823 0.620305181
vn 0.300135493 -0.000149867628 0.953896642
vn 0.30014202 -0.000149466854 0.953894556
vn 3.10479464E-07 7.15233909E-07 1
vn -7.11715131E-07 6.58565909E-07 1
vn 2.15736486E-06 0 1
vn 2.38046687E-06 0 1
vn -0.208936349 0.000104351115 0.977929175
vn -0.166527838 8.28279517E-05 0.986036718
vn -0.598373771 0.000299029402 0.80121696
vn -0.598370492 0.000299875246 0.801219523
vn -0.902213395 0.000451310421 0.431289643
vn -0.208939254 0.000104956947 0.977928579
vn -0.902212322 0.000451447791 0.431291819
vn -0.166530758 8.41419169E-05 0.986036301
vn 1.195571E-07 0 1
vn -1.6732092E-07 0 1
vn -0.984839737 0.000492679712 0.173465669
vn -0.984839857 0.000492536579 0.173465386
vn -0.988357604 0.000494260457 -0.152148008
vn -0.988357604 0.000494319538 -0.152147859
vn -0.68223232 0.000341283245 -0.731135368
vn -0.68223393 0.000341184234 -0.731133878
vn -0.151919439 7.60990661E-05 -0.988392889
vn -0.151920393 7.61759147E-05 -0.98839277
vn 1.10320308E-07 2.43399285E-07 -1
vn -0 2.61850289E-07 -1
vn -0.784361541 0.000392422866 0.620303869
vn -0.966710508 0.000483468437 0.25587213
vn -0.966709733 0.000483583106 0.255874962
vn -0.784359932 0.000392566173 0.620305777
vn -0.300140142 0.000150511332 0.953895092
vn -0.300136119 0.000150758773 0.953896403
vn -7.11715131E-07 6.58565909E-07 1
vn 3.10479464E-07 7.15233909E-07 1
vn 0.000499277492 0.999999881 -1.13673548E-06
vn 0.000497521774 0.999999881 -5.70549219E-06
vn 0.000497194298 0.999999881 -4.05659694E-06
vn 0.00049588707 0.999999881 -8.04832041E-07
vn 0.000499578833 0.999999881 0
vn 0.000501532806 0.999999881 -2.81692201E-06
vn 0.000501520524 0.999999881 5.84140309E-07
vn 0.000502508017 0.999999881 3.47899049E-06
vn 0.000509934733 0.999999881 0.000146887993
vn 0.000506407989 0.999999881 -3.47627647E-05
vn 0.000568037678 0.999999881 0.000217349239
vn 0.000498695066 0.999999881 0.000134844158
vn 0.000493755913 0.999999881 -3.56122364E-05
vn 0.000490049017 0.999999881 0.000148685605
vn 0.000453258632 0.999999881 0.000194058419
vn 0.000499335234 0.999999881 2.8606928E-05
vn 0.000499193382 0.999999881 2.72413799E-05
vn 0.000479095441 0.999999881 6.02552645E-05
vn 0.000519895286 0.999999881 6.17999103E-05
vn 0.00049988582 0.999999881 -0.000129227439
vn 0.000471523235 0.999999881 -7.19767268E-05
vn 0.00040618988 1 5.92068727E-06
vn 0.000528825098 0.999999881 -6.79143486E-05
vn 0.000591042743 0.999999881 6.41418683E-06
g JingTangMu_0
f 3/3/3 2/2/2 1/1/1
f 2/2/2 4/4/4 1/1/1
f 1/1/1 4/4/4 5/5/5
f 6/6/6 1/1/1 5/5/5
f 6/6/6 7/7/7 1/1/1
f 7/7/7 8/8/8 1/1/1
f 11/11/11 10/10/10 9/9/9
f 9/9/9 12/12/12 11/11/11
f 11/11/11 12/12/12 13/13/13
f 12/12/12 14/14/14 13/13/13
f 14/14/14 15/15/15 13/13/13
f 16/16/16 11/11/11 13/13/13
f 13/13/13 17/17/17 16/16/16
f 17/17/17 18/18/18 16/16/16
f 18/18/18 19/19/19 16/16/16
f 20/20/20 19/19/19 18/18/18
f 21/21/21 20/20/20 18/18/18
f 18/18/18 22/22/22 21/21/21
f 23/23/23 19/19/19 20/20/20
f 23/23/23 24/24/24 19/19/19
f 27/27/27 26/26/26 25/25/25
f 25/25/25 28/28/28 27/27/27
f 27/27/27 28/28/28 29/29/29
f 30/30/30 29/29/29 28/28/28
f 28/28/28 31/31/31 30/30/30
f 30/30/30 32/32/32 29/29/29
f 31/31/31 33/33/33 30/30/30
f 33/33/33 31/31/31 34/34/34
f 35/35/35 34/34/34 31/31/31
f 32/32/32 36/36/36 29/29/29
f 32/32/32 37/37/37 36/36/36
f 37/37/37 38/38/38 36/36/36
f 37/37/37 39/39/39 38/38/38
f 39/39/39 40/40/40 38/38/38
f 41/41/41 40/40/40 39/39/39
f 39/39/39 42/42/42 41/41/41
f 43/43/43 41/41/41 42/42/42
f 42/42/42 44/44/44 43/43/43
f 45/45/45 43/43/43 44/44/44
f 44/44/44 46/46/46 45/45/45
f 49/49/49 48/48/48 47/47/47
f 50/50/50 49/49/49 47/47/47
f 50/50/50 47/47/47 51/51/51
f 51/51/51 52/52/52 50/50/50
f 52/52/52 51/51/51 53/53/53
f 53/53/53 54/54/54 52/52/52
f 57/57/57 56/56/56 55/55/55
f 55/55/55 58/58/58 57/57/57
f 57/57/57 58/58/58 59/59/59
f 60/60/60 57/57/57 59/59/59
f 60/60/60 59/59/59 61/61/61
f 60/60/60 62/62/62 57/57/57
f 61/61/61 63/63/63 60/60/60
f 64/64/64 62/62/62 60/60/60
f 65/65/65 62/62/62 64/64/64
f 65/65/65 66/66/66 62/62/62
f 63/63/63 61/61/61 67/67/67
f 67/67/67 68/68/68 63/63/63
f 68/68/68 67/67/67 69/69/69
f 69/69/69 70/70/70 68/68/68
f 71/71/71 70/70/70 69/69/69
f 69/69/69 72/72/72 71/71/71
f 71/71/71 72/72/72 73/73/73
f 73/73/73 74/74/74 71/71/71
f 74/74/74 73/73/73 75/75/75
f 75/75/75 76/76/76 74/74/74
f 79/79/79 78/78/78 77/77/77
f 77/77/77 80/80/80 79/79/79
f 80/80/80 77/77/77 81/81/81
f 81/81/81 82/82/82 80/80/80
f 82/82/82 81/81/81 83/83/83
f 83/83/83 84/84/84 82/82/82
f 87/87/87 86/86/86 85/85/85
f 88/88/88 87/87/87 85/85/85
f 88/88/88 85/85/85 89/89/89
f 85/85/85 90/90/90 89/89/89
f 91/91/91 90/90/90 85/85/85
f 92/92/92 91/91/91 85/85/85
f 95/95/95 94/94/94 93/93/93
f 93/93/93 94/94/94 96/96/96
f 94/94/94 97/97/97 96/96/96
f 96/96/96 97/97/97 98/98/98
f 99/99/99 98/98/98 97/97/97
f 100/100/100 97/97/97 94/94/94
f 94/94/94 101/101/101 100/100/100
f 101/101/101 102/102/102 100/100/100
f 102/102/102 103/103/103 100/100/100
f 104/104/104 103/103/103 102/102/102
f 105/105/105 104/104/104 102/102/102
f 106/106/106 105/105/105 102/102/102
f 107/107/107 103/103/103 104/104/104
f 108/108/108 103/103/103 107/107/107
