g LinPai
v -0.139974594 -0.066538915 -0.261588663
v -0.139974594 3.6049197E-09 -0.270582318
v -0.132449076 3.60491992E-09 -0.250150889
v -0.132449076 3.60491992E-09 -0.250150889
v -0.12492355 -0.0402067751 -0.247693837
v -0.139974594 -0.066538915 -0.261588663
v 0.13244921 3.60491992E-09 -0.250150889
v 0.139974728 3.6049197E-09 -0.270582318
v 0.139974728 -0.066538915 -0.261588663
v 0.13244921 3.60491992E-09 -0.250150889
v 0.139974728 -0.066538915 -0.261588663
v 0.124923684 -0.0402067751 -0.247693837
v -0.139974594 0.066538915 -0.261588693
v -0.132449076 3.60491992E-09 -0.250150889
v -0.139974594 3.6049197E-09 -0.270582318
v -0.132449076 3.60491992E-09 -0.250150889
v -0.139974594 0.066538915 -0.261588693
v -0.12492355 0.0402067788 -0.247693837
v 0.13244921 3.60491992E-09 -0.250150889
v 0.139974728 0.066538915 -0.261588693
v 0.139974728 3.6049197E-09 -0.270582318
v 0.13244921 3.60491992E-09 -0.250150889
v 0.124923684 0.0402067788 -0.247693837
v 0.139974728 0.066538915 -0.261588693
v -0.114257142 -0.0610782616 -0.27851063
v -0.139974594 -0.066538915 -0.261588663
v 0.139974728 -0.066538915 -0.261588663
v 0.114257336 -0.0610782616 -0.27851063
v -0.0927864611 -0.0546846241 -0.287807941
v 0.0927865207 -0.0546846241 -0.287807941
v -0.0443721376 -0.0474351458 -0.29835251
v -0.0770370513 -0.0474351458 -0.29835251
v -0.0518611819 -0.0347566791 -0.316792846
v 0.0443723239 -0.0474351458 -0.29835251
v 0.0770371631 -0.0474351458 -0.29835251
v 0.0518612377 -0.0347566791 -0.316792846
v -0.0518611819 -0.0347566791 -0.316792846
v -0.0443721376 -0.0474351458 -0.29835251
v -0.0443721376 3.6049197E-09 -0.29835251
v -0.0518611819 3.6049197E-09 -0.316929251
v -0.114257142 -0.0610782616 -0.27851063
v -0.139974594 3.6049197E-09 -0.270582318
v -0.139974594 -0.066538915 -0.261588663
v -0.114320531 3.60492036E-09 -0.278460294
v -0.0927864611 -0.0546846241 -0.287807941
v -0.0927880779 3.60492036E-09 -0.287781924
v -0.0770370513 -0.0474351458 -0.29835251
v -0.0770370513 3.6049197E-09 -0.29835251
v -0.0518611819 -0.0347566791 -0.316792846
v -0.0518611819 3.6049197E-09 -0.316929251
v -0.139974594 -0.066538915 -0.261588663
v -0.12492355 -0.0402067751 -0.247693837
v 0.124923684 -0.0402067751 -0.247693837
v 0.139974728 -0.066538915 -0.261588663
v -0.0443721376 -0.0474351458 -0.29835251
v 0.0443723239 -0.0474351458 -0.29835251
v 0.0443723239 3.6049197E-09 -0.29835251
v -0.0443721376 3.6049197E-09 -0.29835251
v 0.0443723239 3.6049197E-09 -0.29835251
v 0.0443723239 -0.0474351458 -0.29835251
v 0.0518612377 -0.0347566791 -0.316792846
v 0.0518612377 3.6049197E-09 -0.316929251
v 0.139974728 3.6049197E-09 -0.270582318
v 0.114257336 -0.0610782616 -0.27851063
v 0.139974728 -0.066538915 -0.261588663
v 0.114320658 3.60492036E-09 -0.278460294
v 0.0927865207 -0.0546846241 -0.287807941
v 0.09278813 3.60492036E-09 -0.287781924
v 0.0770371631 -0.0474351458 -0.29835251
v 0.0770371631 3.6049197E-09 -0.29835251
v 0.0518612377 -0.0347566791 -0.316792846
v 0.0518612377 3.6049197E-09 -0.316929251
v -0.12492355 -0.0402067751 -0.247693837
v -0.132449076 3.60491992E-09 -0.250150889
v 0.13244921 3.60491992E-09 -0.250150889
v 0.124923684 -0.0402067751 -0.247693837
v -0.00212824252 -0.0658901259 0.461866736
v -0.174208358 -0.0658901259 0.309564382
v -0.264844716 -0.0658901259 0.333463013
v -0 -0.0658901259 0.585210264
v 0.264844716 -0.0658901259 0.333463013
v 0.174208358 -0.0658901259 0.309564382
v -0.174208358 -0.0658901259 0.309564382
v 0.00212823274 3.60491881E-09 0.461866736
v -0.174208358 3.60491836E-09 0.309564382
v -0.00212824252 -0.0658901259 0.461866736
v -0 -0.0658901259 0.585210264
v -0.264844716 -0.0658901259 0.333463013
v -0.264844716 3.60491836E-09 0.333463013
v -0 3.60491859E-09 0.585210264
v -0.264844716 -0.0658901259 0.333463013
v -0.174208358 -0.0658901259 0.309564382
v -0.174208358 3.60491836E-09 0.309564382
v -0.264844716 3.60491836E-09 0.333463013
v 0.00212823274 3.60491881E-09 0.461866736
v 0.174208358 -0.0658901259 0.309564382
v 0.174208358 3.60491836E-09 0.309564382
v -0.00212824252 -0.0658901259 0.461866736
v 0.264844716 3.60491836E-09 0.333463013
v 0.264844716 -0.0658901259 0.333463013
v -0 -0.0658901259 0.585210264
v -0 3.60491859E-09 0.585210264
v 0.174208358 3.60491836E-09 0.309564382
v 0.174208358 -0.0658901259 0.309564382
v 0.264844716 -0.0658901259 0.333463013
v 0.264844716 3.60491836E-09 0.333463013
v -0.114257142 0.0610782653 -0.27851063
v 0.139974728 0.066538915 -0.261588693
v -0.139974594 0.066538915 -0.261588693
v 0.114257336 0.0610782653 -0.27851063
v -0.0927864611 0.0546846278 -0.287808001
v 0.0927865207 0.0546846278 -0.287808001
v -0.0443721376 0.0474351458 -0.29835251
v -0.0770370513 0.0474351458 -0.29835251
v -0.0518611819 0.0347566791 -0.316792846
v 0.0443723239 0.0474351458 -0.29835251
v 0.0770371631 0.0474351458 -0.29835251
v 0.0518612377 0.0347566791 -0.316792846
v -0.0518611819 0.0347566791 -0.316792846
v -0.0518611819 3.6049197E-09 -0.316929251
v -0.0443721376 3.6049197E-09 -0.29835251
v -0.0443721376 0.0474351458 -0.29835251
v -0.114257142 0.0610782653 -0.27851063
v -0.139974594 0.066538915 -0.261588693
v -0.139974594 3.6049197E-09 -0.270582318
v -0.114320531 3.60492036E-09 -0.278460294
v -0.0927864611 0.0546846278 -0.287808001
v -0.0927880779 3.60492036E-09 -0.287781924
v -0.0770370513 0.0474351458 -0.29835251
v -0.0770370513 3.6049197E-09 -0.29835251
v -0.0518611819 0.0347566791 -0.316792846
v -0.0518611819 3.6049197E-09 -0.316929251
v -0.139974594 0.066538915 -0.261588693
v 0.139974728 0.066538915 -0.261588693
v 0.124923684 0.0402067788 -0.247693837
v -0.12492355 0.0402067788 -0.247693837
v -0.0443721376 0.0474351458 -0.29835251
v -0.0443721376 3.6049197E-09 -0.29835251
v 0.0443723239 3.6049197E-09 -0.29835251
v 0.0443723239 0.0474351458 -0.29835251
v 0.0443723239 3.6049197E-09 -0.29835251
v 0.0518612377 3.6049197E-09 -0.316929251
v 0.0518612377 0.0347566791 -0.316792846
v 0.0443723239 0.0474351458 -0.29835251
v 0.139974728 3.6049197E-09 -0.270582318
v 0.139974728 0.066538915 -0.261588693
v 0.114257336 0.0610782653 -0.27851063
v 0.114320658 3.60492036E-09 -0.278460294
v 0.0927865207 0.0546846278 -0.287808001
v 0.09278813 3.60492036E-09 -0.287781924
v 0.0770371631 0.0474351458 -0.29835251
v 0.0770371631 3.6049197E-09 -0.29835251
v 0.0518612377 0.0347566791 -0.316792846
v 0.0518612377 3.6049197E-09 -0.316929251
v -0.12492355 0.0402067788 -0.247693837
v 0.124923684 0.0402067788 -0.247693837
v 0.13244921 3.60491992E-09 -0.250150889
v -0.132449076 3.60491992E-09 -0.250150889
v -0.00212824252 0.0658901259 0.461866736
v -0.264844716 0.0658901259 0.333463013
v -0.174208358 0.0658901259 0.309564382
v -0 0.0658901408 0.585210264
v 0.264844716 0.0658901259 0.333463013
v 0.174208358 0.0658901259 0.309564382
v -0.174208358 0.0658901259 0.309564382
v -0.174208358 3.60491836E-09 0.309564382
v 0.00212823274 3.60491881E-09 0.461866736
v -0.00212824252 0.0658901259 0.461866736
v -0 0.0658901408 0.585210264
v -0 3.60491859E-09 0.585210264
v -0.264844716 3.60491836E-09 0.333463013
v -0.264844716 0.0658901259 0.333463013
v -0.264844716 0.0658901259 0.333463013
v -0.264844716 3.60491836E-09 0.333463013
v -0.174208358 3.60491836E-09 0.309564382
v -0.174208358 0.0658901259 0.309564382
v 0.00212823274 3.60491881E-09 0.461866736
v 0.174208358 3.60491836E-09 0.309564382
v 0.174208358 0.0658901259 0.309564382
v -0.00212824252 0.0658901259 0.461866736
v 0.264844716 3.60491836E-09 0.333463013
v -0 3.60491859E-09 0.585210264
v -0 0.0658901408 0.585210264
v 0.264844716 0.0658901259 0.333463013
v 0.174208358 3.60491836E-09 0.309564382
v 0.264844716 3.60491836E-09 0.333463013
v 0.264844716 0.0658901259 0.333463013
v 0.174208358 0.0658901259 0.309564382
v 0.0503436849 -0.0240740888 -0.287246048
v -0.0503435284 -0.0240740869 -0.569334209
v -0.0503435284 -0.0240740888 -0.287246048
v 0.0503436849 -0.0240740869 -0.569334209
v -0.0339104272 -0.0240740869 -0.578384757
v 0.033910539 -0.0240740869 -0.578384757
v -0.0176250823 -0.0240740888 -0.583678901
v 0.017625194 -0.0240740888 -0.583678901
v 6.16975697E-08 -0.0240740888 -0.585210323
v -0.0503435284 -0.0240740869 -0.569334209
v -0.0257677548 3.60491992E-09 -0.581031799
v -0.0503435284 3.6049197E-09 -0.569334209
v -0.0339104272 -0.0240740869 -0.578384757
v -0.0176250823 -0.0240740888 -0.583678901
v 6.16975697E-08 3.60492036E-09 -0.585210323
v 6.16975697E-08 -0.0240740888 -0.585210323
v 0.017625194 -0.0240740888 -0.583678901
v 0.0257678665 3.60491992E-09 -0.581031799
v 0.033910539 -0.0240740869 -0.578384757
v 0.0503436849 -0.0240740869 -0.569334209
v 0.0503436849 3.6049197E-09 -0.569334209
v -0.0503435284 -0.0240740888 -0.287246048
v -0.0503435284 -0.0240740869 -0.569334209
v -0.0503435284 3.6049197E-09 -0.569334209
v -0.0503435284 3.60492036E-09 -0.287246048
v 0.0503436849 3.6049197E-09 -0.569334209
v 0.0503436849 -0.0240740869 -0.569334209
v 0.0503436849 -0.0240740888 -0.287246048
v 0.0503436849 3.60492036E-09 -0.287246048
v -0.176975667 -0.0400573723 0.354505032
v -0 -0.0400573723 0.517582476
v 0.176975667 -0.0400573723 0.354505032
v -0.124895997 -0.0400573723 -0.260042638
v 0.124895997 -0.0400573723 -0.260042638
v -0.176975667 3.60491947E-09 0.354505032
v -0.176975667 -0.0400573723 0.354505032
v -0.124895997 -0.0400573723 -0.260042638
v -0.124895997 3.6049197E-09 -0.260042638
v 0.124895997 -0.0400573723 -0.260042638
v 0.176975667 -0.0400573723 0.354505032
v 0.176975667 3.60491947E-09 0.354505032
v 0.124895997 3.6049197E-09 -0.260042638
v 0.0503436849 0.0240740962 -0.287246048
v -0.0503435284 0.0240740962 -0.287246048
v -0.0503435284 0.0240740962 -0.569334209
v 0.0503436849 0.0240740962 -0.569334209
v -0.0339104272 0.0240740962 -0.578384757
v 0.033910539 0.0240740962 -0.578384757
v -0.0176250823 0.0240740962 -0.583678901
v 0.00881262776 0.0240740962 -0.584444642
v -0.0503435284 0.0240740962 -0.569334209
v -0.0503435284 3.6049197E-09 -0.569334209
v -0.0257677548 3.60491992E-09 -0.581031799
v -0.0339104272 0.0240740962 -0.578384757
v -0.0176250823 0.0240740962 -0.583678901
v 6.16975697E-08 3.60492036E-09 -0.585210323
v 0.00881262776 0.0240740962 -0.584444642
v 0.0257678665 3.60491992E-09 -0.581031799
v 0.033910539 0.0240740962 -0.578384757
v 0.0503436849 0.0240740962 -0.569334209
v 0.0503436849 3.6049197E-09 -0.569334209
v -0.0503435284 0.0240740962 -0.287246048
v -0.0503435284 3.60492036E-09 -0.287246048
v -0.0503435284 3.6049197E-09 -0.569334209
v -0.0503435284 0.0240740962 -0.569334209
v 0.0503436849 3.6049197E-09 -0.569334209
v 0.0503436849 3.60492036E-09 -0.287246048
v 0.0503436849 0.0240740962 -0.287246048
v 0.0503436849 0.0240740962 -0.569334209
v -0.176975667 0.040057376 0.354505032
v 0.176975667 0.040057376 0.354505032
v -0 0.040057376 0.517582476
v -0.124895997 0.040057376 -0.260042638
v 0.124895997 0.040057376 -0.260042638
v -0.176975667 3.60491947E-09 0.354505032
v -0.124895997 3.6049197E-09 -0.260042638
v -0.124895997 0.040057376 -0.260042638
v -0.176975667 0.040057376 0.354505032
v 0.124895997 0.040057376 -0.260042638
v 0.124895997 3.6049197E-09 -0.260042638
v 0.176975667 3.60491947E-09 0.354505032
v 0.176975667 0.040057376 0.354505032
vt 0.237744719 0.944217205
vt 0.209601194 0.940420449
vt 0.209603161 0.948022902
vt 0.335860133 0.901879549
vt 0.339182884 0.884899616
vt 0.332537413 0.873693824
vt 0.296415597 0.952539206
vt 0.296416551 0.944936991
vt 0.268273443 0.9487378
vt 0.453470737 0.902325869
vt 0.456818938 0.874183536
vt 0.450122535 0.885320425
vt 1.23774469 0.944217205
vt 1.20960307 0.948022902
vt 1.20960116 0.940420449
vt 1.33586013 0.901879549
vt 1.33253741 0.873693824
vt 1.33918285 0.884899616
vt 1.29641557 0.952539206
vt 1.26827335 0.9487378
vt 1.29641652 0.944936991
vt 1.45347071 0.902325869
vt 1.45012259 0.885320425
vt 1.45681894 0.874183536
vt 0.346233189 0.850105047
vt 0.335351527 0.854169846
vt 0.45375675 0.8542974
vt 0.442883998 0.850209236
vt 0.3553195 0.845342398
vt 0.433808059 0.845427036
vt 0.375802219 0.83995235
vt 0.361986578 0.839937449
vt 0.372644961 0.830483913
vt 0.413336813 0.839992762
vt 0.427152663 0.840007663
vt 0.416514605 0.83053124
vt 0.30466941 0.946749568
vt 0.312440544 0.95228529
vt 0.312440544 0.932130933
vt 0.30466941 0.932130933
vt 0.235251456 0.925920665
vt 0.209778935 0.937331021
vt 0.23711732 0.937331021
vt 0.209778935 0.925920665
vt 0.232933909 0.915959775
vt 0.209778935 0.915959775
vt 0.230181485 0.907881558
vt 0.209778935 0.907881558
vt 0.225242466 0.89695102
vt 0.209778935 0.89695102
vt 0.334736943 0.869217634
vt 0.341102988 0.880546808
vt 0.44677642 0.880546808
vt 0.453142166 0.869217634
vt 0.315439999 0.952428818
vt 0.352974653 0.952428818
vt 0.352974653 0.932366014
vt 0.315439999 0.932366014
vt 0.356116712 0.932446957
vt 0.356116712 0.952578783
vt 0.363902152 0.947086692
vt 0.363902152 0.932446957
vt 0.295984775 0.941547394
vt 0.270537108 0.930134177
vt 0.268701762 0.941547394
vt 0.295984775 0.930134177
vt 0.272828192 0.92016983
vt 0.295984775 0.92016983
vt 0.27555874 0.912087321
vt 0.295984775 0.912087321
vt 0.280468553 0.901150227
vt 0.295984775 0.901150227
vt 0.341602266 0.885031104
vt 0.341602266 0.902036548
vt 0.447275668 0.902036548
vt 0.447275668 0.885031104
vt 0.120008603 0.90071708
vt 0.0472730771 0.836248398
vt 0.00893110037 0.846328497
vt 0.120871432 0.952886224
vt 0.232964456 0.846489429
vt 0.194636732 0.836353898
vt 0.540440321 0.989326
vt 0.636931658 0.961257935
vt 0.540440321 0.961257935
vt 0.636931658 0.989326
vt 0.331445813 0.988995671
vt 0.486455202 0.988995671
vt 0.486455202 0.961588621
vt 0.331445813 0.961588621
vt 0.493919939 0.989317656
vt 0.533382177 0.989317656
vt 0.533382177 0.961266518
vt 0.493919939 0.961266518
vt 0.0138960304 0.961258292
vt 0.11038895 0.989325523
vt 0.11038895 0.961258292
vt 0.0138960304 0.989325523
vt 0.16881755 0.961228848
vt 0.16881755 0.989355326
vt 0.323107183 0.989355326
vt 0.323107183 0.961228848
vt 0.119618714 0.961263776
vt 0.119618714 0.989320517
vt 0.159075394 0.989320517
vt 0.159075394 0.961263776
vt 1.34623313 0.850105047
vt 1.45375681 0.8542974
vt 1.33535147 0.854169846
vt 1.44288397 0.850209236
vt 1.3553195 0.845342398
vt 1.43380809 0.845427036
vt 1.37580228 0.83995235
vt 1.36198664 0.839937449
vt 1.3726449 0.830483913
vt 1.41333675 0.839992762
vt 1.42715263 0.840007663
vt 1.41651464 0.83053124
vt 1.30466938 0.946749568
vt 1.30466938 0.932130933
vt 1.31244051 0.932130933
vt 1.31244051 0.95228529
vt 1.23525143 0.925920665
vt 1.23711729 0.937331021
vt 1.2097789 0.937331021
vt 1.2097789 0.925920665
vt 1.23293388 0.915959775
vt 1.2097789 0.915959775
vt 1.23018146 0.907881558
vt 1.2097789 0.907881558
vt 1.2252425 0.89695102
vt 1.2097789 0.89695102
vt 1.33473694 0.869217634
vt 1.45314217 0.869217634
vt 1.44677639 0.880546808
vt 1.34110296 0.880546808
vt 1.31543994 0.952428818
vt 1.31543994 0.932366014
vt 1.35297465 0.932366014
vt 1.35297465 0.952428818
vt 1.35611677 0.932446957
vt 1.36390209 0.932446957
vt 1.36390209 0.947086692
vt 1.35611677 0.952578783
vt 1.29598475 0.941547394
vt 1.26870179 0.941547394
vt 1.27053714 0.930134177
vt 1.29598475 0.930134177
vt 1.27282822 0.92016983
vt 1.29598475 0.92016983
vt 1.27555871 0.912087321
vt 1.29598475 0.912087321
vt 1.28046858 0.901150227
vt 1.29598475 0.901150227
vt 1.34160233 0.885031104
vt 1.44727564 0.885031104
vt 1.44727564 0.902036548
vt 1.34160233 0.902036548
vt 1.12000859 0.90071708
vt 1.00893116 0.846328497
vt 1.04727304 0.836248398
vt 1.12087142 0.952886224
vt 1.23296452 0.846489429
vt 1.1946367 0.836353898
vt 1.54044032 0.989326
vt 1.54044032 0.961257935
vt 1.63693166 0.961257935
vt 1.63693166 0.989326
vt 1.33144581 0.988995671
vt 1.33144581 0.961588621
vt 1.4864552 0.961588621
vt 1.4864552 0.988995671
vt 1.49391997 0.989317656
vt 1.49391997 0.961266518
vt 1.53338218 0.961266518
vt 1.53338218 0.989317656
vt 1.01389599 0.961258292
vt 1.11038899 0.961258292
vt 1.11038899 0.989325523
vt 1.01389599 0.989325523
vt 1.16881752 0.961228848
vt 1.32310724 0.961228848
vt 1.32310724 0.989355326
vt 1.16881752 0.989355326
vt 1.11961865 0.961263776
vt 1.15907538 0.961263776
vt 1.15907538 0.989320517
vt 1.11961865 0.989320517
vt 0.144112051 0.523941517
vt 0.101496756 0.404642254
vt 0.101525962 0.523951888
vt 0.144082725 0.404631883
vt 0.1084463 0.400812417
vt 0.137131393 0.400805384
vt 0.115333736 0.398571759
vt 0.130242884 0.398567826
vt 0.122788012 0.397922188
vt 0.0997771621 0.538171768
vt 0.111333072 0.527989626
vt 0.0997771621 0.527989626
vt 0.107711732 0.538171768
vt 0.114954412 0.538171768
vt 0.122437179 0.527989626
vt 0.122437179 0.538171768
vt 0.129919827 0.538171768
vt 0.133541226 0.527989626
vt 0.137162626 0.538171768
vt 0.145097435 0.538171768
vt 0.145097435 0.527989626
vt 0.0968698859 0.523573399
vt 0.0968698859 0.404263526
vt 0.0866877437 0.404263526
vt 0.0866877437 0.523573399
vt 0.158385456 0.404277951
vt 0.148203313 0.404277951
vt 0.148203313 0.523587704
vt 0.158385456 0.523587704
vt 0.0454911031 0.826728225
vt 0.120333679 0.895712614
vt 0.195195377 0.826749086
vt 0.0675545633 0.566806912
vt 0.173204675 0.566821694
vt 0.370133936 0.934730887
vt 0.370134741 0.951673269
vt 0.630990624 0.951660514
vt 0.630990028 0.934718251
vt 0.630928874 0.90972805
vt 0.370072991 0.90973413
vt 0.370073348 0.926676631
vt 0.63092947 0.926670313
vt 1.14411211 0.523941517
vt 1.10152602 0.523951888
vt 1.1014967 0.404642254
vt 1.14408278 0.404631883
vt 1.10844636 0.400812417
vt 1.13713145 0.400805384
vt 1.1153338 0.398571759
vt 1.12651539 0.398245007
vt 1.09977722 0.538171768
vt 1.09977722 0.527989626
vt 1.11133313 0.527989626
vt 1.10771179 0.538171768
vt 1.11495447 0.538171768
vt 1.12243724 0.527989626
vt 1.1261785 0.538171768
vt 1.13354123 0.527989626
vt 1.13716269 0.538171768
vt 1.14509749 0.538171768
vt 1.14509749 0.527989626
vt 1.09686995 0.523573399
vt 1.0866878 0.523573399
vt 1.0866878 0.404263526
vt 1.09686995 0.404263526
vt 1.15838552 0.404277951
vt 1.15838552 0.523587704
vt 1.14820337 0.523587704
vt 1.14820337 0.404277951
vt 1.19519532 0.826728225
vt 1.04549098 0.826749086
vt 1.12035275 0.895712614
vt 1.17313182 0.566806912
vt 1.06748176 0.566821694
vt 1.37013388 0.934730887
vt 1.63099003 0.934718251
vt 1.63099062 0.951660514
vt 1.37013471 0.951673269
vt 1.63092887 0.90972805
vt 1.63092947 0.926670313
vt 1.37007332 0.926676631
vt 1.37007296 0.90973413
vn -1 0 0
vn -1 0 0
vn -1 0 0
vn -0.310374677 0 0.950614333
vn -0.310374707 0 0.950614333
vn -0.310374677 0 0.950614333
vn 1 0 0
vn 1 0 0
vn 1 0 0
vn 0.310374677 0 0.950614333
vn 0.310374677 0 0.950614333
vn 0.310374707 0 0.950614333
vn -1 0 0
vn -1 0 0
vn -1 0 0
vn -0.310374677 0 0.950614333
vn -0.310374707 0 0.950614333
vn -0.310374707 0 0.950614333
vn 1 0 0
vn 1 0 0
vn 1 0 0
vn 0.310374707 0 0.950614333
vn 0.310374707 0 0.950614274
vn 0.310374707 0 0.950614274
vn -0 -0.823955536 -0.566654444
vn -0 -0.823953032 -0.566658199
vn -0 -0.823953032 -0.566658199
vn -0 -0.823955536 -0.566654503
vn -0 -0.823984087 -0.566612899
vn -0 -0.823984087 -0.566612899
vn -0 -0.824034691 -0.566539347
vn -0 -0.824035406 -0.566538274
vn -0 -0.824026644 -0.56655097
vn -0 -0.824034691 -0.566539347
vn -0 -0.824035406 -0.566538215
vn -0 -0.824026763 -0.56655097
vn 1 1.44179481E-07 8.68709467E-05
vn 1 1.44179467E-07 8.68709467E-05
vn 1 1.44179481E-07 8.68709467E-05
vn 1 1.44179481E-07 8.68709467E-05
vn -0.338560134 0.000239285844 -0.940944731
vn -0.294313967 0.000133505106 -0.955708802
vn -0.294313967 0.00013350512 -0.955708802
vn -0.346324772 0.00025797839 -0.938114643
vn -0.462381721 0.000312120945 -0.886680901
vn -0.479067057 0.000293523568 -0.877778232
vn -0.620706737 -0.000290727476 -0.784042776
vn -0.643612623 -0.000474903849 -0.765351236
vn -0.722808063 -0.00114692736 -0.691047966
vn -0.722808123 -0.00114692748 -0.691047907
vn -0 -0.183459848 0.98302716
vn -0 -0.183459848 0.98302716
vn -0 -0.183459848 0.98302716
vn -0 -0.183459848 0.98302716
vn -0 0 -1
vn -0 0 -1
vn -0 0 -1
vn -0 0 -1
vn -1 1.54875309E-07 9.3315386E-05
vn -1 1.54875309E-07 9.3315386E-05
vn -1 1.54875309E-07 9.33153933E-05
vn -1 1.54875309E-07 9.3315386E-05
vn 0.294314295 0.000133637324 -0.955708683
vn 0.338559628 0.000239432833 -0.94094485
vn 0.294314295 0.000133637324 -0.955708683
vn 0.346324146 0.000258128071 -0.938114882
vn 0.462381393 0.000312201999 -0.88668108
vn 0.479067057 0.000293582096 -0.877778232
vn 0.620707154 -0.000290760945 -0.784042537
vn 0.643612623 -0.000474930799 -0.765351236
vn 0.722806811 -0.00114693108 -0.691049218
vn 0.722806811 -0.00114693108 -0.691049218
vn -0 0 1
vn -0 0 1
vn -0 0 1
vn -0 0 1
vn -0 -1 0
vn -0 -1 0
vn -0 -1 0
vn -0 -1 0
vn -0 -1 0
vn -0 -1 0
vn 0.674873412 0 -0.737933397
vn 0.42998302 0 -0.902836978
vn 0.674873412 0 -0.737933397
vn 0.42998302 0 -0.902836978
vn -0.688957632 0 0.72480166
vn -0.688957632 0 0.7248016
vn -0.688957632 0 0.72480166
vn -0.688957632 0 0.72480166
vn -0.254961878 0 -0.966951072
vn -0.254961878 0 -0.966951072
vn -0.254961878 0 -0.966951072
vn -0.254961878 0 -0.966951072
vn -0.429983407 0 -0.9028368
vn -0.674873352 0 -0.737933576
vn -0.674873352 0 -0.737933576
vn -0.429983407 0 -0.9028368
vn 0.688957632 0 0.7248016
vn 0.688957632 0 0.7248016
vn 0.688957632 0 0.7248016
vn 0.688957632 0 0.7248016
vn 0.254961878 0 -0.966951072
vn 0.254961878 0 -0.966951072
vn 0.254961878 0 -0.966951072
vn 0.254961878 0 -0.966951072
vn -0 0.823955417 -0.566654623
vn -0 0.823952615 -0.566658735
vn -0 0.823952615 -0.566658735
vn -0 0.823955417 -0.566654563
vn -0 0.823985159 -0.566611409
vn -0 0.823985159 -0.566611409
vn -0 0.824033558 -0.566540956
vn -0 0.824034274 -0.566539884
vn -0 0.824026644 -0.56655097
vn -0 0.824033558 -0.566540897
vn -0 0.824034274 -0.566539884
vn -0 0.824026763 -0.56655097
vn 1 -1.44179538E-07 8.6870954E-05
vn 1 -1.44179523E-07 8.68709467E-05
vn 1 -1.44179523E-07 8.6870954E-05
vn 1 -1.44179523E-07 8.6870954E-05
vn -0.338560402 -0.000239560381 -0.940944612
vn -0.29431361 -0.000133647627 -0.955708802
vn -0.29431361 -0.000133647642 -0.955708802
vn -0.346325099 -0.000258276239 -0.938114524
vn -0.462382019 -0.000312581426 -0.886680841
vn -0.479067057 -0.000293985766 -0.877778232
vn -0.620706201 0.000290428376 -0.784043252
vn -0.643612266 0.000474668632 -0.765351534
vn -0.722808182 0.00114692783 -0.691047847
vn -0.722808182 0.00114692783 -0.691047847
vn -0 0.183459908 0.98302716
vn -0 0.183459908 0.98302716
vn -0 0.183459923 0.98302716
vn -0 0.183459923 0.98302716
vn -0 0 -1
vn -0 0 -1
vn -0 0 -1
vn -0 0 -1
vn -1 -1.54875337E-07 9.33153715E-05
vn -1 -1.54875337E-07 9.33153715E-05
vn -1 -1.54875337E-07 9.33153715E-05
vn -1 -1.54875323E-07 9.33153715E-05
vn 0.294313967 -0.000133781607 -0.955708802
vn 0.294313967 -0.000133781607 -0.955708802
vn 0.338559926 -0.000239708374 -0.940944731
vn 0.346324563 -0.000258426793 -0.938114762
vn 0.462381661 -0.000312661228 -0.886680901
vn 0.479067057 -0.000294042722 -0.877778232
vn 0.620706499 0.000290463766 -0.784042954
vn 0.643612266 0.000474697095 -0.765351534
vn 0.722806811 0.0011469312 -0.691049218
vn 0.722806811 0.0011469312 -0.691049218
vn -0 0 1
vn -0 0 1
vn -0 0 1
vn -0 0 1
vn -0 1 0
vn -0 1 0
vn -0 1 0
vn -0 1 0
vn -0 1 0
vn -0 1 0
vn 0.674873412 0 -0.737933397
vn 0.674873412 0 -0.737933397
vn 0.42998302 0 -0.902836978
vn 0.42998302 0 -0.902836978
vn -0.688957632 0 0.72480166
vn -0.688957632 0 0.72480166
vn -0.688957632 0 0.72480166
vn -0.688957632 0 0.72480166
vn -0.254961878 0 -0.966951072
vn -0.254961878 0 -0.966951072
vn -0.254961878 0 -0.966951072
vn -0.254961878 0 -0.966951072
vn -0.429983467 0 -0.9028368
vn -0.674873412 0 -0.737933576
vn -0.674873412 0 -0.737933576
vn -0.429983467 0 -0.9028368
vn 0.688957632 0 0.72480166
vn 0.688957632 0 0.72480166
vn 0.688957632 0 0.7248016
vn 0.688957632 0 0.72480166
vn 0.254961878 0 -0.966951072
vn 0.254961878 0 -0.966951072
vn 0.254961878 0 -0.966951072
vn 0.254961878 0 -0.966951072
vn -0 -1 0
vn -0 -1 0
vn -0 -1 0
vn -0 -1 0
vn -0 -1 0
vn -0 -1 0
vn -0 -1 4.36948454E-07
vn -0 -1 4.36948284E-07
vn -0 -1 0
vn -0.48242268 0 -0.875938594
vn -0.299985915 0 -0.95394361
vn -0.482422709 0 -0.875938475
vn -0.3975676 0 -0.917572856
vn -0.19915086 0 -0.979968846
vn -0 0 -1
vn -0 0 -1
vn 0.19915089 0 -0.979968727
vn 0.299985677 0 -0.953943729
vn 0.397567064 0 -0.917573035
vn 0.482421726 0 -0.875939131
vn 0.482421726 0 -0.875939131
vn -1 0 0
vn -1 0 0
vn -1 0 0
vn -1 0 0
vn 1 0 0
vn 1 0 0
vn 1 0 0
vn 1 0 0
vn -0 -1 0
vn -0 -1 0
vn -0 -1 0
vn -0 -1 0
vn -0 -1 0
vn -0.99642843 0 -0.0844420493
vn -0.99642843 0 -0.0844420493
vn -0.99642843 0 -0.0844420493
vn -0.99642843 0 -0.0844420493
vn 0.99642843 0 -0.0844420493
vn 0.99642843 0 -0.0844420493
vn 0.99642843 0 -0.0844420493
vn 0.99642843 0 -0.0844420493
vn -0 1 0
vn -0 1 0
vn -0 1 0
vn -0 1 0
vn -0 1 0
vn -0 1 0
vn -0 1 0
vn -0 1 0
vn -0.482422709 0 -0.875938475
vn -0.482422709 0 -0.875938475
vn -0.299985915 0 -0.95394361
vn -0.39756763 0 -0.917572856
vn -0.19915089 0 -0.979968846
vn -0 0 -1
vn 0.10007789 0 -0.99497956
vn 0.299985677 0 -0.953943729
vn 0.397567064 0 -0.917573035
vn 0.482421726 0 -0.875939131
vn 0.482421726 0 -0.875939131
vn -1 0 0
vn -1 0 0
vn -1 0 0
vn -1 0 0
vn 1 0 0
vn 1 0 0
vn 1 0 0
vn 1 0 0
vn -0 1 0
vn -0 1 0
vn -0 1 0
vn -0 1 0
vn -0 1 0
vn -0.99642843 0 -0.0844420493
vn -0.99642843 0 -0.0844420493
vn -0.99642843 0 -0.0844420493
vn -0.99642843 0 -0.0844420493
vn 0.99642843 0 -0.0844420493
vn 0.99642843 0 -0.0844420493
vn 0.99642843 0 -0.0844420493
vn 0.99642843 0 -0.0844420493
g LinPai_0
f 3/3/3 2/2/2 1/1/1
f 6/6/6 5/5/5 4/4/4
f 9/9/9 8/8/8 7/7/7
f 12/12/12 11/11/11 10/10/10
f 15/15/15 14/14/14 13/13/13
f 18/18/18 17/17/17 16/16/16
f 21/21/21 20/20/20 19/19/19
f 24/24/24 23/23/23 22/22/22
f 27/27/27 26/26/26 25/25/25
f 28/28/28 27/27/27 25/25/25
f 28/28/28 25/25/25 29/29/29
f 30/30/30 28/28/28 29/29/29
f 30/30/30 29/29/29 31/31/31
f 32/32/32 31/31/31 29/29/29
f 32/32/32 33/33/33 31/31/31
f 34/34/34 30/30/30 31/31/31
f 35/35/35 30/30/30 34/34/34
f 36/36/36 35/35/35 34/34/34
f 39/39/39 38/38/38 37/37/37
f 40/40/40 39/39/39 37/37/37
f 43/43/43 42/42/42 41/41/41
f 42/42/42 44/44/44 41/41/41
f 41/41/41 44/44/44 45/45/45
f 44/44/44 46/46/46 45/45/45
f 45/45/45 46/46/46 47/47/47
f 46/46/46 48/48/48 47/47/47
f 47/47/47 48/48/48 49/49/49
f 48/48/48 50/50/50 49/49/49
f 53/53/53 52/52/52 51/51/51
f 54/54/54 53/53/53 51/51/51
f 57/57/57 56/56/56 55/55/55
f 58/58/58 57/57/57 55/55/55
f 61/61/61 60/60/60 59/59/59
f 62/62/62 61/61/61 59/59/59
f 65/65/65 64/64/64 63/63/63
f 64/64/64 66/66/66 63/63/63
f 66/66/66 64/64/64 67/67/67
f 68/68/68 66/66/66 67/67/67
f 68/68/68 67/67/67 69/69/69
f 70/70/70 68/68/68 69/69/69
f 69/69/69 71/71/71 70/70/70
f 71/71/71 72/72/72 70/70/70
f 75/75/75 74/74/74 73/73/73
f 76/76/76 75/75/75 73/73/73
f 79/79/79 78/78/78 77/77/77
f 80/80/80 79/79/79 77/77/77
f 80/80/80 77/77/77 81/81/81
f 77/77/77 82/82/82 81/81/81
f 85/85/85 84/84/84 83/83/83
f 84/84/84 86/86/86 83/83/83
f 89/89/89 88/88/88 87/87/87
f 90/90/90 89/89/89 87/87/87
f 93/93/93 92/92/92 91/91/91
f 94/94/94 93/93/93 91/91/91
f 97/97/97 96/96/96 95/95/95
f 96/96/96 98/98/98 95/95/95
f 101/101/101 100/100/100 99/99/99
f 102/102/102 101/101/101 99/99/99
f 105/105/105 104/104/104 103/103/103
f 106/106/106 105/105/105 103/103/103
f 109/109/109 108/108/108 107/107/107
f 108/108/108 110/110/110 107/107/107
f 107/107/107 110/110/110 111/111/111
f 110/110/110 112/112/112 111/111/111
f 111/111/111 112/112/112 113/113/113
f 113/113/113 114/114/114 111/111/111
f 115/115/115 114/114/114 113/113/113
f 112/112/112 116/116/116 113/113/113
f 112/112/112 117/117/117 116/116/116
f 117/117/117 118/118/118 116/116/116
f 121/121/121 120/120/120 119/119/119
f 122/122/122 121/121/121 119/119/119
f 125/125/125 124/124/124 123/123/123
f 126/126/126 125/125/125 123/123/123
f 126/126/126 123/123/123 127/127/127
f 128/128/128 126/126/126 127/127/127
f 128/128/128 127/127/127 129/129/129
f 130/130/130 128/128/128 129/129/129
f 130/130/130 129/129/129 131/131/131
f 132/132/132 130/130/130 131/131/131
f 135/135/135 134/134/134 133/133/133
f 136/136/136 135/135/135 133/133/133
f 139/139/139 138/138/138 137/137/137
f 140/140/140 139/139/139 137/137/137
f 143/143/143 142/142/142 141/141/141
f 144/144/144 143/143/143 141/141/141
f 147/147/147 146/146/146 145/145/145
f 148/148/148 147/147/147 145/145/145
f 147/147/147 148/148/148 149/149/149
f 148/148/148 150/150/150 149/149/149
f 149/149/149 150/150/150 151/151/151
f 150/150/150 152/152/152 151/151/151
f 153/153/153 151/151/151 152/152/152
f 154/154/154 153/153/153 152/152/152
f 157/157/157 156/156/156 155/155/155
f 158/158/158 157/157/157 155/155/155
f 161/161/161 160/160/160 159/159/159
f 160/160/160 162/162/162 159/159/159
f 159/159/159 162/162/162 163/163/163
f 164/164/164 159/159/159 163/163/163
f 167/167/167 166/166/166 165/165/165
f 168/168/168 167/167/167 165/165/165
f 171/171/171 170/170/170 169/169/169
f 172/172/172 171/171/171 169/169/169
f 175/175/175 174/174/174 173/173/173
f 176/176/176 175/175/175 173/173/173
f 179/179/179 178/178/178 177/177/177
f 180/180/180 179/179/179 177/177/177
f 183/183/183 182/182/182 181/181/181
f 184/184/184 183/183/183 181/181/181
f 187/187/187 186/186/186 185/185/185
f 188/188/188 187/187/187 185/185/185
f 191/191/191 190/190/190 189/189/189
f 190/190/190 192/192/192 189/189/189
f 192/192/192 190/190/190 193/193/193
f 194/194/194 192/192/192 193/193/193
f 194/194/194 193/193/193 195/195/195
f 196/196/196 194/194/194 195/195/195
f 197/197/197 196/196/196 195/195/195
f 200/200/200 199/199/199 198/198/198
f 199/199/199 201/201/201 198/198/198
f 199/199/199 202/202/202 201/201/201
f 199/199/199 203/203/203 202/202/202
f 203/203/203 204/204/204 202/202/202
f 205/205/205 204/204/204 203/203/203
f 206/206/206 205/205/205 203/203/203
f 207/207/207 205/205/205 206/206/206
f 208/208/208 207/207/207 206/206/206
f 209/209/209 208/208/208 206/206/206
f 212/212/212 211/211/211 210/210/210
f 213/213/213 212/212/212 210/210/210
f 216/216/216 215/215/215 214/214/214
f 217/217/217 216/216/216 214/214/214
f 220/220/220 219/219/219 218/218/218
f 220/220/220 218/218/218 221/221/221
f 222/222/222 220/220/220 221/221/221
f 225/225/225 224/224/224 223/223/223
f 226/226/226 225/225/225 223/223/223
f 229/229/229 228/228/228 227/227/227
f 230/230/230 229/229/229 227/227/227
f 233/233/233 232/232/232 231/231/231
f 234/234/234 233/233/233 231/231/231
f 233/233/233 234/234/234 235/235/235
f 234/234/234 236/236/236 235/235/235
f 235/235/235 236/236/236 237/237/237
f 236/236/236 238/238/238 237/237/237
f 241/241/241 240/240/240 239/239/239
f 242/242/242 241/241/241 239/239/239
f 243/243/243 241/241/241 242/242/242
f 244/244/244 241/241/241 243/243/243
f 245/245/245 244/244/244 243/243/243
f 245/245/245 246/246/246 244/244/244
f 245/245/245 247/247/247 246/246/246
f 247/247/247 248/248/248 246/246/246
f 248/248/248 249/249/249 246/246/246
f 252/252/252 251/251/251 250/250/250
f 253/253/253 252/252/252 250/250/250
f 256/256/256 255/255/255 254/254/254
f 257/257/257 256/256/256 254/254/254
f 260/260/260 259/259/259 258/258/258
f 258/258/258 259/259/259 261/261/261
f 259/259/259 262/262/262 261/261/261
f 265/265/265 264/264/264 263/263/263
f 266/266/266 265/265/265 263/263/263
f 269/269/269 268/268/268 267/267/267
f 270/270/270 269/269/269 267/267/267
