g quan_xunhuan
v 0.0791869387 0.652163148 0
v -0.0791869238 0.652163148 0.0374177992
v -0.0791869238 0.652163148 0
v 0.0791869387 0.652163148 0.0374177992
v 0.232958749 0.614261806 0
v -0.0791869238 0.652163148 0.0748355985
v 0.232958749 0.614261806 0.0374177992
v 0.373191833 0.540661752 0
v 0.0791869387 0.652163148 0.0748355985
v -0.0791869238 0.652163148 0.112253405
v 0.373191833 0.540661752 0.0374177992
v 0.491736412 0.435640514 0
v 0.232958749 0.614261806 0.0748355985
v 0.0791869387 0.652163148 0.112253405
v -0.0791869238 0.652163148 0.149671197
v 0.491736412 0.435640514 0.0374177992
v 0.581703067 0.305301309 0
v 0.373191833 0.540661752 0.0748355985
v 0.232958749 0.614261806 0.112253405
v 0.0791869387 0.652163148 0.149671197
v -0.0791869238 0.652163148 0.187088996
v 0.0791869387 0.652163148 0.187088996
v 0.232958749 0.614261806 0.149671197
v 0.232958749 0.614261806 0.187088996
v 0.581703067 0.305301309 0.0374177992
v 0.637863219 0.157219172 0
v 0.491736412 0.435640514 0.0748355985
v 0.373191833 0.540661752 0.112253405
v 0.373191833 0.540661752 0.149671197
v 0.373191833 0.540661752 0.187088996
v 0.637863219 0.157219172 0.0374177992
v 0.656953037 0 0
v 0.581703067 0.305301309 0.0748355985
v 0.491736412 0.435640514 0.112253405
v 0.491736412 0.435640514 0.149671197
v 0.491736412 0.435640514 0.187088996
v 0.656953037 0 0.0374177992
v 0.637863457 -0.157218203 0
v 0.637863219 0.157219172 0.0748355985
v 0.581703067 0.305301309 0.112253405
v 0.581703067 0.305301309 0.149671197
v 0.581703067 0.305301309 0.187088996
v 0.637863457 -0.157218203 0.0374177992
v 0.581703484 -0.305300504 0
v 0.656953037 0 0.0748355985
v 0.637863219 0.157219172 0.112253405
v 0.637863219 0.157219172 0.149671197
v 0.637863219 0.157219172 0.187088996
v 0.581703484 -0.305300504 0.0374177992
v 0.491736978 -0.435639828 0
v 0.637863457 -0.157218203 0.0748355985
v 0.656953037 0 0.112253405
v 0.656953037 0 0.149671197
v 0.656953037 0 0.187088996
v 0.491736978 -0.435639828 0.0374177992
v 0.373192549 -0.540661335 0
v 0.581703484 -0.305300504 0.0748355985
v 0.637863457 -0.157218203 0.112253405
v 0.637863457 -0.157218203 0.149671197
v 0.637863457 -0.157218203 0.187088996
v 0.373192549 -0.540661335 0.0374177992
v 0.232959449 -0.614261508 0
v 0.491736978 -0.435639828 0.0748355985
v 0.581703484 -0.305300504 0.112253405
v 0.581703484 -0.305300504 0.149671197
v 0.581703484 -0.305300504 0.187088996
v 0.232959449 -0.614261508 0.0374177992
v 0.0791876093 -0.652163029 0
v 0.373192549 -0.540661335 0.0748355985
v 0.491736978 -0.435639828 0.112253405
v 0.491736978 -0.435639828 0.149671197
v 0.491736978 -0.435639828 0.187088996
v 0.0791876093 -0.652163029 0.0374177992
v -0.0791863427 -0.652163208 0
v 0.232959449 -0.614261508 0.0748355985
v 0.373192549 -0.540661335 0.112253405
v 0.373192549 -0.540661335 0.149671197
v 0.373192549 -0.540661335 0.187088996
v -0.0791863427 -0.652163208 0.0374177992
v -0.232958257 -0.614261985 0
v 0.0791876093 -0.652163029 0.0748355985
v 0.232959449 -0.614261508 0.112253405
v 0.232959449 -0.614261508 0.149671197
v 0.232959449 -0.614261508 0.187088996
v -0.232958257 -0.614261985 0.0374177992
v -0.373191476 -0.54066205 0
v -0.0791863427 -0.652163208 0.0748355985
v 0.0791876093 -0.652163029 0.112253405
v 0.0791876093 -0.652163029 0.149671197
v 0.0791876093 -0.652163029 0.187088996
v -0.373191476 -0.54066205 0.0374177992
v -0.491736174 -0.435640752 0
v -0.232958257 -0.614261985 0.0748355985
v -0.0791863427 -0.652163208 0.112253405
v -0.0791863427 -0.652163208 0.149671197
v -0.0791863427 -0.652163208 0.187088996
v -0.491736174 -0.435640752 0.0374177992
v -0.581702888 -0.305301607 0
v -0.373191476 -0.54066205 0.0748355985
v -0.232958257 -0.614261985 0.112253405
v -0.232958257 -0.614261985 0.149671197
v -0.232958257 -0.614261985 0.187088996
v -0.581702888 -0.305301607 0.0374177992
v -0.637863159 -0.157219425 0
v -0.491736174 -0.435640752 0.0748355985
v -0.373191476 -0.54066205 0.112253405
v -0.373191476 -0.54066205 0.149671197
v -0.373191476 -0.54066205 0.187088996
v -0.637863159 -0.157219425 0.0374177992
v -0.656953037 -2.14062482E-07 0
v -0.581702888 -0.305301607 0.0748355985
v -0.491736174 -0.435640752 0.112253405
v -0.491736174 -0.435640752 0.149671197
v -0.491736174 -0.435640752 0.187088996
v -0.656953037 -2.14062482E-07 0.0374177992
v -0.637863219 0.157219023 0
v -0.637863159 -0.157219425 0.0748355985
v -0.581702888 -0.305301607 0.112253405
v -0.581702888 -0.305301607 0.149671197
v -0.581702888 -0.305301607 0.187088996
v -0.637863219 0.157219023 0.0374177992
v -0.581703126 0.305301219 0
v -0.656953037 -2.14062482E-07 0.0748355985
v -0.637863159 -0.157219425 0.112253405
v -0.637863159 -0.157219425 0.149671197
v -0.637863159 -0.157219425 0.187088996
v -0.581703126 0.305301219 0.0374177992
v -0.491736442 0.435640454 0
v -0.637863219 0.157219023 0.0748355985
v -0.656953037 -2.14062482E-07 0.112253405
v -0.656953037 -2.14062482E-07 0.149671197
v -0.656953037 -2.14062482E-07 0.187088996
v -0.491736442 0.435640454 0.0374177992
v -0.373191833 0.540661812 0
v -0.581703126 0.305301219 0.0748355985
v -0.637863219 0.157219023 0.112253405
v -0.637863219 0.157219023 0.149671197
v -0.637863219 0.157219023 0.187088996
v -0.373191833 0.540661812 0.0374177992
v -0.232958749 0.614261806 0
v -0.491736442 0.435640454 0.0748355985
v -0.581703126 0.305301219 0.112253405
v -0.581703126 0.305301219 0.149671197
v -0.581703126 0.305301219 0.187088996
v -0.232958749 0.614261806 0.0374177992
v -0.0791869238 0.652163148 0
v -0.0791869238 0.652163148 0.0374177992
v -0.373191833 0.540661812 0.0748355985
v -0.491736442 0.435640454 0.112253405
v -0.491736442 0.435640454 0.149671197
v -0.491736442 0.435640454 0.187088996
v -0.232958749 0.614261806 0.0748355985
v -0.0791869238 0.652163148 0.0748355985
v -0.373191833 0.540661812 0.112253405
v -0.373191833 0.540661812 0.149671197
v -0.373191833 0.540661812 0.187088996
v -0.232958749 0.614261806 0.112253405
v -0.0791869238 0.652163148 0.112253405
v -0.232958749 0.614261806 0.149671197
v -0.232958749 0.614261806 0.187088996
v -0.0791869238 0.652163148 0.149671197
v -0.0791869238 0.652163148 0.187088996
vt 0.980769217 0
vt 1.01923084 0.199999988
vt 1.01923084 0
vt 0.980769217 0.199999988
vt 0.942307711 0
vt 1.01923084 0.400000006
vt 0.942307711 0.199999988
vt 0.903846145 0
vt 0.980769217 0.400000006
vt 1.01923084 0.600000024
vt 0.903846145 0.199999988
vt 0.865384638 0
vt 0.942307711 0.400000006
vt 0.980769217 0.600000024
vt 1.01923084 0.800000012
vt 0.865384638 0.199999988
vt 0.826923072 0
vt 0.903846145 0.400000006
vt 0.942307711 0.600000024
vt 0.980769217 0.800000012
vt 1.01923084 1
vt 0.980769217 1
vt 0.942307711 0.800000012
vt 0.942307711 1
vt 0.826923072 0.199999988
vt 0.788461566 0
vt 0.865384638 0.400000006
vt 0.903846145 0.600000024
vt 0.903846145 0.800000012
vt 0.903846145 1
vt 0.788461566 0.199999988
vt 0.75 0
vt 0.826923072 0.400000006
vt 0.865384638 0.600000024
vt 0.865384638 0.800000012
vt 0.865384638 1
vt 0.75 0.199999988
vt 0.711538672 0
vt 0.788461566 0.400000006
vt 0.826923072 0.600000024
vt 0.826923072 0.800000012
vt 0.826923072 1
vt 0.711538672 0.199999988
vt 0.673077106 0
vt 0.75 0.400000006
vt 0.788461566 0.600000024
vt 0.788461566 0.800000012
vt 0.788461566 1
vt 0.673077106 0.199999988
vt 0.6346156 0
vt 0.711538672 0.400000006
vt 0.75 0.600000024
vt 0.75 0.800000012
vt 0.75 1
vt 0.6346156 0.199999988
vt 0.596154034 0
vt 0.673077106 0.400000006
vt 0.711538672 0.600000024
vt 0.711538672 0.800000012
vt 0.711538672 1
vt 0.596154034 0.199999988
vt 0.557692468 0
vt 0.6346156 0.400000006
vt 0.673077106 0.600000024
vt 0.673077106 0.800000012
vt 0.673077106 1
vt 0.557692468 0.199999988
vt 0.519230962 0
vt 0.596154034 0.400000006
vt 0.6346156 0.600000024
vt 0.6346156 0.800000012
vt 0.6346156 1
vt 0.519230962 0.199999988
vt 0.480769396 0
vt 0.557692468 0.400000006
vt 0.596154034 0.600000024
vt 0.596154034 0.800000012
vt 0.596154034 1
vt 0.480769396 0.199999988
vt 0.44230783 0
vt 0.519230962 0.400000006
vt 0.557692468 0.600000024
vt 0.557692468 0.800000012
vt 0.557692468 1
vt 0.44230783 0.199999988
vt 0.403846264 0
vt 0.480769396 0.400000006
vt 0.519230962 0.600000024
vt 0.519230962 0.800000012
vt 0.519230962 1
vt 0.403846264 0.199999988
vt 0.365384728 0
vt 0.44230783 0.400000006
vt 0.480769396 0.600000024
vt 0.480769396 0.800000012
vt 0.480769396 1
vt 0.365384728 0.199999988
vt 0.326923162 0
vt 0.403846264 0.400000006
vt 0.44230783 0.600000024
vt 0.44230783 0.800000012
vt 0.44230783 1
vt 0.326923162 0.199999988
vt 0.288461626 0
vt 0.365384728 0.400000006
vt 0.403846264 0.600000024
vt 0.403846264 0.800000012
vt 0.403846264 1
vt 0.288461626 0.199999988
vt 0.25000006 0
vt 0.326923162 0.400000006
vt 0.365384728 0.600000024
vt 0.365384728 0.800000012
vt 0.365384728 1
vt 0.25000006 0.199999988
vt 0.211538494 0
vt 0.288461626 0.400000006
vt 0.326923162 0.600000024
vt 0.326923162 0.800000012
vt 0.326923162 1
vt 0.211538494 0.199999988
vt 0.173076957 0
vt 0.25000006 0.400000006
vt 0.288461626 0.600000024
vt 0.288461626 0.800000012
vt 0.288461626 1
vt 0.173076957 0.199999988
vt 0.134615391 0
vt 0.211538494 0.400000006
vt 0.25000006 0.600000024
vt 0.25000006 0.800000012
vt 0.25000006 1
vt 0.134615391 0.199999988
vt 0.0961538553 0
vt 0.173076957 0.400000006
vt 0.211538494 0.600000024
vt 0.211538494 0.800000012
vt 0.211538494 1
vt 0.0961538553 0.199999988
vt 0.057692349 0
vt 0.134615391 0.400000006
vt 0.173076957 0.600000024
vt 0.173076957 0.800000012
vt 0.173076957 1
vt 0.057692349 0.199999988
vt 0.019230783 0
vt 0.019230783 0.199999988
vt 0.0961538553 0.400000006
vt 0.134615391 0.600000024
vt 0.134615391 0.800000012
vt 0.134615391 1
vt 0.057692349 0.400000006
vt 0.019230783 0.400000006
vt 0.0961538553 0.600000024
vt 0.0961538553 0.800000012
vt 0.0961538553 1
vt 0.057692349 0.600000024
vt 0.019230783 0.600000024
vt 0.057692349 0.800000012
vt 0.057692349 1
vt 0.019230783 0.800000012
vt 0.019230783 1
vn 0.120536618 0.992708802 0
vn -0.120536596 0.992708802 0
vn -0.120536596 0.992708802 0
vn 0.120536596 0.992708802 0
vn 0.35460493 0.935016274 0
vn -0.120536596 0.992708802 0
vn 0.35460493 0.935016274 0
vn 0.56806469 0.822983861 0
vn 0.120536596 0.992708802 0
vn -0.120536581 0.992708802 0
vn 0.568064749 0.822983861 0
vn 0.748510718 0.663122773 0
vn 0.354604959 0.935016155 0
vn 0.120536596 0.992708802 0
vn -0.120536581 0.992708802 0
vn 0.748510718 0.663122773 0
vn 0.885455966 0.464723289 0
vn 0.56806469 0.822983861 0
vn 0.354604959 0.935016155 0
vn 0.120536596 0.992708802 0
vn -0.120536581 0.992708802 0
vn 0.120536603 0.992708802 0
vn 0.354604959 0.935016155 0
vn 0.354604959 0.935016155 0
vn 0.885455966 0.464723349 0
vn 0.970941782 0.239315659 0
vn 0.748510599 0.663122773 0
vn 0.568064749 0.822983861 0
vn 0.568064749 0.822983801 0
vn 0.568064749 0.822983801 0
vn 0.970941782 0.239315644 0
vn 1 0 0
vn 0.885455966 0.464723229 0
vn 0.748510718 0.663122833 0
vn 0.748510718 0.663122833 0
vn 0.748510718 0.663122833 0
vn 1 0 0
vn 0.97094214 -0.239314571 0
vn 0.970941782 0.239315614 0
vn 0.885455966 0.464723289 0
vn 0.885455966 0.464723289 0
vn 0.885455966 0.464723229 0
vn 0.97094214 -0.239314571 0
vn 0.885456622 -0.464721948 0
vn 1 0 0
vn 0.970941782 0.239315614 0
vn 0.970941782 0.239315644 0
vn 0.970941782 0.239315644 0
vn 0.885456622 -0.464722008 0
vn 0.748511612 -0.663121641 0
vn 0.97094214 -0.239314601 0
vn 1 0 0
vn 1 0 0
vn 1 0 0
vn 0.748511612 -0.663121641 0
vn 0.568065703 -0.822983146 0
vn 0.885456622 -0.464722008 0
vn 0.97094214 -0.239314601 0
vn 0.97094214 -0.239314601 0
vn 0.97094214 -0.239314571 0
vn 0.568065703 -0.822983146 0
vn 0.354605883 -0.935015857 0
vn 0.748511612 -0.663121641 0
vn 0.885456622 -0.464721948 0
vn 0.885456622 -0.464721948 0
vn 0.885456622 -0.464721948 0
vn 0.354605883 -0.935015857 0
vn 0.120537616 -0.992708683 0
vn 0.568065763 -0.822983146 0
vn 0.748511612 -0.663121641 0
vn 0.748511612 -0.663121641 0
vn 0.748511612 -0.663121641 0
vn 0.120537646 -0.992708683 0
vn -0.120535754 -0.992708921 0
vn 0.354605883 -0.935015857 0
vn 0.568065763 -0.822983146 0
vn 0.568065763 -0.822983146 0
vn 0.568065763 -0.822983146 0
vn -0.120535754 -0.992708921 0
vn -0.354604036 -0.935016572 0
vn 0.120537616 -0.992708683 0
vn 0.354605854 -0.935015857 0
vn 0.354605883 -0.935015857 0
vn 0.354605883 -0.935015857 0
vn -0.354604036 -0.935016572 0
vn -0.568064094 -0.822984338 0
vn -0.120535754 -0.992708921 0
vn 0.120537616 -0.992708683 0
vn 0.120537616 -0.992708683 0
vn 0.120537616 -0.992708683 0
vn -0.568064094 -0.822984338 0
vn -0.748510301 -0.663123131 0
vn -0.354604036 -0.935016572 0
vn -0.120535754 -0.992708921 0
vn -0.120535754 -0.992708921 0
vn -0.120535754 -0.992708921 0
vn -0.748510301 -0.663123131 0
vn -0.885455787 -0.464723676 0
vn -0.568064094 -0.822984278 0
vn -0.354604036 -0.935016513 0
vn -0.354604036 -0.935016572 0
vn -0.354604036 -0.935016572 0
vn -0.885455787 -0.464723676 0
vn -0.970941663 -0.239315987 0
vn -0.748510301 -0.663123131 0
vn -0.568064153 -0.822984278 0
vn -0.568064153 -0.822984278 0
vn -0.568064153 -0.822984278 0
vn -0.970941663 -0.239315987 0
vn -1 -2.96237459E-07 0
vn -0.885455787 -0.464723676 0
vn -0.748510301 -0.663123131 0
vn -0.748510301 -0.663123131 0
vn -0.748510301 -0.663123131 0
vn -1 -2.98626475E-07 0
vn -0.970941901 0.239315435 0
vn -0.970941663 -0.239315987 0
vn -0.885455787 -0.464723676 0
vn -0.885455787 -0.464723676 0
vn -0.885455787 -0.464723676 0
vn -0.970941901 0.239315435 0
vn -0.885456145 0.464723021 0
vn -1 -3.10571579E-07 0
vn -0.970941663 -0.239316002 0
vn -0.970941663 -0.239316002 0
vn -0.970941663 -0.239316002 0
vn -0.885456085 0.464723021 0
vn -0.748510778 0.663122714 0
vn -0.970941901 0.239315435 0
vn -1 -3.1534961E-07 0
vn -1 -3.10571551E-07 0
vn -1 -3.10571551E-07 0
vn -0.748510778 0.663122714 0
vn -0.568064749 0.822983861 0
vn -0.885456085 0.464723021 0
vn -0.970941901 0.239315391 0
vn -0.970941901 0.239315391 0
vn -0.970941901 0.239315391 0
vn -0.568064749 0.822983861 0
vn -0.35460481 0.935016274 0
vn -0.748510778 0.663122714 0
vn -0.885456085 0.464723021 0
vn -0.885456085 0.464723021 0
vn -0.885456085 0.464723021 0
vn -0.35460481 0.935016274 0
vn -0.120536596 0.992708802 0
vn -0.120536596 0.992708802 0
vn -0.568064749 0.822983861 0
vn -0.748510778 0.663122714 0
vn -0.748510838 0.663122654 0
vn -0.748510838 0.663122654 0
vn -0.35460481 0.935016274 0
vn -0.120536596 0.992708802 0
vn -0.568064749 0.822983801 0
vn -0.568064749 0.822983861 0
vn -0.568064749 0.822983861 0
vn -0.354604781 0.935016274 0
vn -0.120536581 0.992708802 0
vn -0.354604781 0.935016274 0
vn -0.354604781 0.935016274 0
vn -0.120536581 0.992708802 0
vn -0.120536581 0.992708802 0
g quan_xunhuan_0
f 3/3/3 2/2/2 1/1/1
f 2/2/2 4/4/4 1/1/1
f 1/1/1 4/4/4 5/5/5
f 2/2/2 6/6/6 4/4/4
f 4/4/4 7/7/7 5/5/5
f 5/5/5 7/7/7 8/8/8
f 6/6/6 9/9/9 4/4/4
f 4/4/4 9/9/9 7/7/7
f 6/6/6 10/10/10 9/9/9
f 7/7/7 11/11/11 8/8/8
f 8/8/8 11/11/11 12/12/12
f 9/9/9 13/13/13 7/7/7
f 7/7/7 13/13/13 11/11/11
f 10/10/10 14/14/14 9/9/9
f 9/9/9 14/14/14 13/13/13
f 10/10/10 15/15/15 14/14/14
f 11/11/11 16/16/16 12/12/12
f 12/12/12 16/16/16 17/17/17
f 13/13/13 18/18/18 11/11/11
f 11/11/11 18/18/18 16/16/16
f 14/14/14 19/19/19 13/13/13
f 13/13/13 19/19/19 18/18/18
f 15/15/15 20/20/20 14/14/14
f 14/14/14 20/20/20 19/19/19
f 15/15/15 21/21/21 20/20/20
f 21/21/21 22/22/22 20/20/20
f 20/20/20 22/22/22 23/23/23
f 20/20/20 23/23/23 19/19/19
f 22/22/22 24/24/24 23/23/23
f 16/16/16 25/25/25 17/17/17
f 17/17/17 25/25/25 26/26/26
f 18/18/18 27/27/27 16/16/16
f 16/16/16 27/27/27 25/25/25
f 19/19/19 28/28/28 18/18/18
f 19/19/19 23/23/23 28/28/28
f 18/18/18 28/28/28 27/27/27
f 23/23/23 24/24/24 29/29/29
f 23/23/23 29/29/29 28/28/28
f 24/24/24 30/30/30 29/29/29
f 25/25/25 31/31/31 26/26/26
f 26/26/26 31/31/31 32/32/32
f 27/27/27 33/33/33 25/25/25
f 25/25/25 33/33/33 31/31/31
f 28/28/28 34/34/34 27/27/27
f 28/28/28 29/29/29 34/34/34
f 27/27/27 34/34/34 33/33/33
f 29/29/29 30/30/30 35/35/35
f 29/29/29 35/35/35 34/34/34
f 30/30/30 36/36/36 35/35/35
f 31/31/31 37/37/37 32/32/32
f 32/32/32 37/37/37 38/38/38
f 33/33/33 39/39/39 31/31/31
f 31/31/31 39/39/39 37/37/37
f 34/34/34 40/40/40 33/33/33
f 34/34/34 35/35/35 40/40/40
f 33/33/33 40/40/40 39/39/39
f 35/35/35 36/36/36 41/41/41
f 35/35/35 41/41/41 40/40/40
f 36/36/36 42/42/42 41/41/41
f 37/37/37 43/43/43 38/38/38
f 38/38/38 43/43/43 44/44/44
f 39/39/39 45/45/45 37/37/37
f 37/37/37 45/45/45 43/43/43
f 40/40/40 46/46/46 39/39/39
f 40/40/40 41/41/41 46/46/46
f 39/39/39 46/46/46 45/45/45
f 41/41/41 42/42/42 47/47/47
f 41/41/41 47/47/47 46/46/46
f 42/42/42 48/48/48 47/47/47
f 43/43/43 49/49/49 44/44/44
f 44/44/44 49/49/49 50/50/50
f 45/45/45 51/51/51 43/43/43
f 43/43/43 51/51/51 49/49/49
f 46/46/46 52/52/52 45/45/45
f 46/46/46 47/47/47 52/52/52
f 45/45/45 52/52/52 51/51/51
f 47/47/47 48/48/48 53/53/53
f 47/47/47 53/53/53 52/52/52
f 48/48/48 54/54/54 53/53/53
f 49/49/49 55/55/55 50/50/50
f 50/50/50 55/55/55 56/56/56
f 51/51/51 57/57/57 49/49/49
f 49/49/49 57/57/57 55/55/55
f 52/52/52 58/58/58 51/51/51
f 52/52/52 53/53/53 58/58/58
f 51/51/51 58/58/58 57/57/57
f 53/53/53 54/54/54 59/59/59
f 53/53/53 59/59/59 58/58/58
f 54/54/54 60/60/60 59/59/59
f 55/55/55 61/61/61 56/56/56
f 56/56/56 61/61/61 62/62/62
f 57/57/57 63/63/63 55/55/55
f 55/55/55 63/63/63 61/61/61
f 58/58/58 64/64/64 57/57/57
f 58/58/58 59/59/59 64/64/64
f 57/57/57 64/64/64 63/63/63
f 59/59/59 60/60/60 65/65/65
f 59/59/59 65/65/65 64/64/64
f 60/60/60 66/66/66 65/65/65
f 61/61/61 67/67/67 62/62/62
f 62/62/62 67/67/67 68/68/68
f 63/63/63 69/69/69 61/61/61
f 61/61/61 69/69/69 67/67/67
f 64/64/64 70/70/70 63/63/63
f 64/64/64 65/65/65 70/70/70
f 63/63/63 70/70/70 69/69/69
f 65/65/65 66/66/66 71/71/71
f 65/65/65 71/71/71 70/70/70
f 66/66/66 72/72/72 71/71/71
f 67/67/67 73/73/73 68/68/68
f 68/68/68 73/73/73 74/74/74
f 69/69/69 75/75/75 67/67/67
f 67/67/67 75/75/75 73/73/73
f 70/70/70 76/76/76 69/69/69
f 70/70/70 71/71/71 76/76/76
f 69/69/69 76/76/76 75/75/75
f 71/71/71 72/72/72 77/77/77
f 71/71/71 77/77/77 76/76/76
f 72/72/72 78/78/78 77/77/77
f 73/73/73 79/79/79 74/74/74
f 74/74/74 79/79/79 80/80/80
f 75/75/75 81/81/81 73/73/73
f 73/73/73 81/81/81 79/79/79
f 76/76/76 82/82/82 75/75/75
f 76/76/76 77/77/77 82/82/82
f 75/75/75 82/82/82 81/81/81
f 77/77/77 78/78/78 83/83/83
f 77/77/77 83/83/83 82/82/82
f 78/78/78 84/84/84 83/83/83
f 79/79/79 85/85/85 80/80/80
f 80/80/80 85/85/85 86/86/86
f 81/81/81 87/87/87 79/79/79
f 79/79/79 87/87/87 85/85/85
f 82/82/82 88/88/88 81/81/81
f 82/82/82 83/83/83 88/88/88
f 81/81/81 88/88/88 87/87/87
f 83/83/83 84/84/84 89/89/89
f 83/83/83 89/89/89 88/88/88
f 84/84/84 90/90/90 89/89/89
f 85/85/85 91/91/91 86/86/86
f 86/86/86 91/91/91 92/92/92
f 87/87/87 93/93/93 85/85/85
f 85/85/85 93/93/93 91/91/91
f 88/88/88 94/94/94 87/87/87
f 88/88/88 89/89/89 94/94/94
f 87/87/87 94/94/94 93/93/93
f 89/89/89 90/90/90 95/95/95
f 89/89/89 95/95/95 94/94/94
f 90/90/90 96/96/96 95/95/95
f 91/91/91 97/97/97 92/92/92
f 92/92/92 97/97/97 98/98/98
f 93/93/93 99/99/99 91/91/91
f 91/91/91 99/99/99 97/97/97
f 94/94/94 100/100/100 93/93/93
f 94/94/94 95/95/95 100/100/100
f 93/93/93 100/100/100 99/99/99
f 95/95/95 96/96/96 101/101/101
f 95/95/95 101/101/101 100/100/100
f 96/96/96 102/102/102 101/101/101
f 97/97/97 103/103/103 98/98/98
f 98/98/98 103/103/103 104/104/104
f 99/99/99 105/105/105 97/97/97
f 97/97/97 105/105/105 103/103/103
f 100/100/100 106/106/106 99/99/99
f 100/100/100 101/101/101 106/106/106
f 99/99/99 106/106/106 105/105/105
f 101/101/101 102/102/102 107/107/107
f 101/101/101 107/107/107 106/106/106
f 102/102/102 108/108/108 107/107/107
f 103/103/103 109/109/109 104/104/104
f 104/104/104 109/109/109 110/110/110
f 105/105/105 111/111/111 103/103/103
f 103/103/103 111/111/111 109/109/109
f 106/106/106 112/112/112 105/105/105
f 106/106/106 107/107/107 112/112/112
f 105/105/105 112/112/112 111/111/111
f 107/107/107 108/108/108 113/113/113
f 107/107/107 113/113/113 112/112/112
f 108/108/108 114/114/114 113/113/113
f 109/109/109 115/115/115 110/110/110
f 110/110/110 115/115/115 116/116/116
f 111/111/111 117/117/117 109/109/109
f 109/109/109 117/117/117 115/115/115
f 112/112/112 118/118/118 111/111/111
f 112/112/112 113/113/113 118/118/118
f 111/111/111 118/118/118 117/117/117
f 113/113/113 114/114/114 119/119/119
f 113/113/113 119/119/119 118/118/118
f 114/114/114 120/120/120 119/119/119
f 115/115/115 121/121/121 116/116/116
f 116/116/116 121/121/121 122/122/122
f 117/117/117 123/123/123 115/115/115
f 115/115/115 123/123/123 121/121/121
f 118/118/118 124/124/124 117/117/117
f 118/118/118 119/119/119 124/124/124
f 117/117/117 124/124/124 123/123/123
f 119/119/119 120/120/120 125/125/125
f 119/119/119 125/125/125 124/124/124
f 120/120/120 126/126/126 125/125/125
f 121/121/121 127/127/127 122/122/122
f 122/122/122 127/127/127 128/128/128
f 123/123/123 129/129/129 121/121/121
f 121/121/121 129/129/129 127/127/127
f 124/124/124 130/130/130 123/123/123
f 124/124/124 125/125/125 130/130/130
f 123/123/123 130/130/130 129/129/129
f 125/125/125 126/126/126 131/131/131
f 125/125/125 131/131/131 130/130/130
f 126/126/126 132/132/132 131/131/131
f 127/127/127 133/133/133 128/128/128
f 128/128/128 133/133/133 134/134/134
f 129/129/129 135/135/135 127/127/127
f 127/127/127 135/135/135 133/133/133
f 130/130/130 136/136/136 129/129/129
f 130/130/130 131/131/131 136/136/136
f 129/129/129 136/136/136 135/135/135
f 131/131/131 132/132/132 137/137/137
f 131/131/131 137/137/137 136/136/136
f 132/132/132 138/138/138 137/137/137
f 133/133/133 139/139/139 134/134/134
f 134/134/134 139/139/139 140/140/140
f 135/135/135 141/141/141 133/133/133
f 133/133/133 141/141/141 139/139/139
f 136/136/136 142/142/142 135/135/135
f 136/136/136 137/137/137 142/142/142
f 135/135/135 142/142/142 141/141/141
f 137/137/137 138/138/138 143/143/143
f 137/137/137 143/143/143 142/142/142
f 138/138/138 144/144/144 143/143/143
f 139/139/139 145/145/145 140/140/140
f 140/140/140 145/145/145 146/146/146
f 145/145/145 147/147/147 146/146/146
f 141/141/141 148/148/148 139/139/139
f 139/139/139 148/148/148 145/145/145
f 142/142/142 149/149/149 141/141/141
f 142/142/142 143/143/143 149/149/149
f 141/141/141 149/149/149 148/148/148
f 143/143/143 144/144/144 150/150/150
f 143/143/143 150/150/150 149/149/149
f 144/144/144 151/151/151 150/150/150
f 145/145/145 152/152/152 147/147/147
f 148/148/148 152/152/152 145/145/145
f 152/152/152 153/153/153 147/147/147
f 149/149/149 154/154/154 148/148/148
f 149/149/149 150/150/150 154/154/154
f 148/148/148 154/154/154 152/152/152
f 150/150/150 151/151/151 155/155/155
f 150/150/150 155/155/155 154/154/154
f 151/151/151 156/156/156 155/155/155
f 152/152/152 157/157/157 153/153/153
f 154/154/154 157/157/157 152/152/152
f 154/154/154 155/155/155 157/157/157
f 157/157/157 158/158/158 153/153/153
f 155/155/155 156/156/156 159/159/159
f 155/155/155 159/159/159 157/157/157
f 157/157/157 159/159/159 158/158/158
f 156/156/156 160/160/160 159/159/159
f 159/159/159 161/161/161 158/158/158
f 159/159/159 160/160/160 161/161/161
f 160/160/160 162/162/162 161/161/161
