g bingkuai
v -0.634629011 -0.521885812 4.76331997
v -0.931357563 -0.548508167 6.26865292
v -0.631146431 -0.438864619 5.82438898
v -0.931357563 -0.548508167 6.26865292
v -0.634629011 -0.521885812 4.76331997
v -1.11788905 -0.770260453 6.01267958
v 0.498386353 0.382838041 2.13558364
v 0.0263129305 0.0266244225 -0.0316976309
v 0.788598955 0.0345899835 1.75282478
v -0.057523381 -0.0561314598 3.79570103
v 0.498386353 0.382838041 2.13558364
v 0.788598955 0.0345899835 1.75282478
v 0.966031134 -0.24870716 1.43175638
v 0.0263129305 0.0266244225 -0.0316976309
v 0.564702988 -0.863433838 1.33717835
v 0.19950451 -0.900178552 2.3438046
v 0.966031134 -0.24870716 1.43175638
v 0.564702988 -0.863433838 1.33717835
v 0.966031134 -0.24870716 1.43175638
v 0.19950451 -0.900178552 2.3438046
v 0.420768559 -0.42518267 2.48847866
v 0.00334927253 -1.0334214 3.95182681
v 0.19950451 -0.900178552 2.3438046
v -0.297212929 -1.10998464 3.81706977
v 0.19950451 -0.900178552 2.3438046
v 0.00334927253 -1.0334214 3.95182681
v 0.420768559 -0.42518267 2.48847866
v -0.837344468 -0.234654516 5.58435678
v -0.057523381 -0.0561314598 3.79570103
v -0.340079427 -0.238954023 4.58894348
v -0.931357563 -0.548508167 6.26865292
v -0.837344468 -0.234654516 5.58435678
v -0.631146431 -0.438864619 5.82438898
v -0.634629011 -0.521885812 4.76331997
v -0.708992481 -0.803052187 4.02551222
v -1.11788905 -0.770260453 6.01267958
v -0.708992481 -0.803052187 4.02551222
v -0.634629011 -0.521885812 4.76331997
v -0.563003838 -0.9791677 5.53535652
v -0.631146431 -0.438864619 5.82438898
v -0.340079427 -0.238954023 4.58894348
v -0.634629011 -0.521885812 4.76331997
v -0.340079427 -0.238954023 4.58894348
v -0.631146431 -0.438864619 5.82438898
v -0.837344468 -0.234654516 5.58435678
v -0.708992481 -0.803052187 4.02551222
v 0.19950451 -0.900178552 2.3438046
v -0.0699886084 -0.967070282 2.0743916
v 0.27607131 -0.90154618 1.29928946
v -0.0699886084 -0.967070282 2.0743916
v 0.19950451 -0.900178552 2.3438046
v -0.0699886084 -0.967070282 2.0743916
v 0.27607131 -0.90154618 1.29928946
v -0.116098613 -0.955509603 1.43224096
v 0.19950451 -0.900178552 2.3438046
v 0.564702988 -0.863433838 1.33717835
v -0.0112503022 -1.11646426 1.20970881
v 0.193860322 -1.0968405 1.08365417
v 0.0263129305 0.0266244225 -0.0316976309
v 0.0263129305 0.0266244225 -0.0316976309
v 0.193860322 -1.0968405 1.08365417
v 0.27607131 -0.90154618 1.29928946
v -0.0112503022 -1.11646426 1.20970881
v 0.27607131 -0.90154618 1.29928946
v 0.193860322 -1.0968405 1.08365417
v 0.27607131 -0.90154618 1.29928946
v -0.0112503022 -1.11646426 1.20970881
v -0.116098613 -0.955509603 1.43224096
v 0.0263129305 0.0266244225 -0.0316976309
v -0.116098613 -0.955509603 1.43224096
v -0.0112503022 -1.11646426 1.20970881
v -0.634629011 -0.521885812 4.76331997
v -0.340079427 -0.238954023 4.58894348
v -0.563003838 -0.9791677 5.53535652
v -0.057523381 -0.0561314598 3.79570103
v -0.563003838 -0.9791677 5.53535652
v -0.340079427 -0.238954023 4.58894348
v -0.563003838 -0.9791677 5.53535652
v -0.057523381 -0.0561314598 3.79570103
v 0.420768559 -0.42518267 2.48847866
v 0.788598955 0.0345899835 1.75282478
v 0.420768559 -0.42518267 2.48847866
v -0.057523381 -0.0561314598 3.79570103
v 0.420768559 -0.42518267 2.48847866
v 0.788598955 0.0345899835 1.75282478
v 0.966031134 -0.24870716 1.43175638
v 0.966031134 -0.24870716 1.43175638
v 0.0061686933 0.524669409 2.45452857
v 0.0263129305 0.0266244225 -0.0316976309
v 0.0061686933 0.524669409 2.45452857
v 0.0263129305 0.0266244225 -0.0316976309
v 0.498386353 0.382838041 2.13558364
v 0.966031134 -0.24870716 1.43175638
v 0.0263129305 0.0266244225 -0.0316976309
v 0.0061686933 0.524669409 2.45452857
v 0.788598955 0.0345899835 1.75282478
v 0.0263129305 0.0266244225 -0.0316976309
v 0.966031134 -0.24870716 1.43175638
v 0.0263129305 0.0266244225 -0.0316976309
v 0.27607131 -0.90154618 1.29928946
v 0.564702988 -0.863433838 1.33717835
v 0.420768559 -0.42518267 2.48847866
v 0.00334927253 -1.0334214 3.95182681
v -0.563003838 -0.9791677 5.53535652
v -0.297212929 -1.10998464 3.81706977
v -0.563003838 -0.9791677 5.53535652
v 0.00334927253 -1.0334214 3.95182681
v -0.563003838 -0.9791677 5.53535652
v -0.297212929 -1.10998464 3.81706977
v -0.708992481 -0.803052187 4.02551222
v 0.19950451 -0.900178552 2.3438046
v -0.708992481 -0.803052187 4.02551222
v -0.297212929 -1.10998464 3.81706977
v 0.498386353 0.382838041 2.13558364
v -0.360049248 0.29419741 3.74982929
v 0.0061686933 0.524669409 2.45452857
v -1.71733689 -1.11782944 8.51666164
v -1.49746001 -1.01545894 7.67112017
v -1.74691021 -1.05813849 7.70830822
v 0.0263129305 0.0266244225 -0.0316976309
v -1.33730698 -0.932064533 1.14313185
v -0.757672191 -0.929989338 1.73294652
v -1.47833848 -0.433127075 1.13986003
v -1.0056231 -0.78391546 2.13474059
v -1.33730698 -0.932064533 1.14313185
v -1.0056231 -0.78391546 2.13474059
v -1.47833848 -0.433127075 1.13986003
v -1.40653419 -0.212117061 2.18611121
v -1.0056231 -0.78391546 2.13474059
v -0.757672191 -0.929989338 1.73294652
v -1.33730698 -0.932064533 1.14313185
v -0.757672191 -0.929989338 1.73294652
v -1.0056231 -0.78391546 2.13474059
v -1.39216769 -0.850099564 4.06886387
v -1.05011272 -0.128989801 5.82857561
v 0.0061686933 0.524669409 2.45452857
v -0.360049248 0.29419741 3.74982929
v -1.40653419 -0.212117061 2.18611121
v 0.0263129305 0.0266244225 -0.0316976309
v -0.875171661 0.667533696 1.37869227
v -1.71203351 -0.33940348 3.89557958
v -1.95515728 -0.294188797 6.04813337
v -2.0368247 -0.545147657 5.89691305
v -1.60726678 -0.824510634 6.09054756
v -1.71203351 -0.33940348 3.89557958
v -2.0368247 -0.545147657 5.89691305
v -1.71203351 -0.33940348 3.89557958
v -1.60726678 -0.824510634 6.09054756
v -1.39216769 -0.850099564 4.06886387
v -1.11788905 -0.770260453 6.01267958
v -0.708992481 -0.803052187 4.02551222
v -1.2464 -0.785584152 5.51184845
v -1.05011272 -0.128989801 5.82857561
v -1.31075048 -0.687577844 7.30633831
v -1.58428168 -0.0623999126 6.03701544
v -1.74691021 -1.05813849 7.70830822
v -1.93010116 -0.651888132 6.80005217
v -1.71733689 -1.11782944 8.51666164
v -1.93010116 -0.651888132 6.80005217
v -1.74691021 -1.05813849 7.70830822
v -1.60726678 -0.824510634 6.09054756
v -1.49746001 -1.01545894 7.67112017
v -1.60726678 -0.824510634 6.09054756
v -1.74691021 -1.05813849 7.70830822
v -1.60726678 -0.824510634 6.09054756
v -1.49746001 -1.01545894 7.67112017
v -1.3363297 -0.995202541 6.92835569
v -1.47833848 -0.433127075 1.13986003
v 0.0263129305 0.0266244225 -0.0316976309
v -1.40653419 -0.212117061 2.18611121
v -0.682794571 -1.17678165 1.51316571
v -0.393095851 -1.15887237 1.32040465
v 0.0263129305 0.0266244225 -0.0316976309
v 0.0263129305 0.0266244225 -0.0316976309
v -0.393095851 -1.15887237 1.32040465
v -0.2895239 -0.898741901 1.62537396
v -0.682794571 -1.17678165 1.51316571
v -0.2895239 -0.898741901 1.62537396
v -0.393095851 -1.15887237 1.32040465
v -0.2895239 -0.898741901 1.62537396
v -0.682794571 -1.17678165 1.51316571
v -0.757672191 -0.929989338 1.73294652
v 0.0263129305 0.0266244225 -0.0316976309
v -0.757672191 -0.929989338 1.73294652
v -0.682794571 -1.17678165 1.51316571
v -1.31075048 -0.687577844 7.30633831
v -0.931357563 -0.548508167 6.26865292
v -1.3363297 -0.995202541 6.92835569
v -1.3363297 -0.995202541 6.92835569
v -0.931357563 -0.548508167 6.26865292
v -1.11788905 -0.770260453 6.01267958
v -0.360049248 0.29419741 3.74982929
v -0.837344468 -0.234654516 5.58435678
v -1.05011272 -0.128989801 5.82857561
v -0.931357563 -0.548508167 6.26865292
v -1.31075048 -0.687577844 7.30633831
v -0.837344468 -0.234654516 5.58435678
v -0.293518782 -0.872513056 2.06696749
v -0.708992481 -0.803052187 4.02551222
v -0.0699886084 -0.967070282 2.0743916
v -1.2464 -0.785584152 5.51184845
v -1.3363297 -0.995202541 6.92835569
v -1.11788905 -0.770260453 6.01267958
v -1.3363297 -0.995202541 6.92835569
v -1.2464 -0.785584152 5.51184845
v -1.60726678 -0.824510634 6.09054756
v -1.09999728 -0.846175134 4.23274279
v -1.60726678 -0.824510634 6.09054756
v -1.2464 -0.785584152 5.51184845
v 0.0263129305 0.0266244225 -0.0316976309
v -0.480347276 0.171914861 2.58339834
v -0.875171661 0.667533696 1.37869227
v 0.0061686933 0.524669409 2.45452857
v -1.58428168 -0.0623999126 6.03701544
v -0.480347276 0.171914861 2.58339834
v 0.0263129305 0.0266244225 -0.0316976309
v 0.0061686933 0.524669409 2.45452857
v -1.71733689 -1.11782944 8.51666164
v -1.74888909 -0.475691229 7.02517653
v -1.31075048 -0.687577844 7.30633831
v -1.95515728 -0.294188797 6.04813337
v -1.31075048 -0.687577844 7.30633831
v -1.74888909 -0.475691229 7.02517653
v -1.31075048 -0.687577844 7.30633831
v -1.95515728 -0.294188797 6.04813337
v -1.58428168 -0.0623999126 6.03701544
v -1.95515728 -0.294188797 6.04813337
v -1.54542601 -0.000458111579 4.0074625
v -1.58428168 -0.0623999126 6.03701544
v -1.54542601 -0.000458111579 4.0074625
v -0.480347276 0.171914861 2.58339834
v -1.58428168 -0.0623999126 6.03701544
v -1.54542601 -0.000458111579 4.0074625
v -0.875171661 0.667533696 1.37869227
v -0.480347276 0.171914861 2.58339834
v -1.33730698 -0.932064533 1.14313185
v 0.0263129305 0.0266244225 -0.0316976309
v -1.47833848 -0.433127075 1.13986003
v 0.0061686933 0.524669409 2.45452857
v -1.05011272 -0.128989801 5.82857561
v -1.58428168 -0.0623999126 6.03701544
v -1.60726678 -0.824510634 6.09054756
v -2.0368247 -0.545147657 5.89691305
v -1.93010116 -0.651888132 6.80005217
v -2.0368247 -0.545147657 5.89691305
v -1.95515728 -0.294188797 6.04813337
v -1.93010116 -0.651888132 6.80005217
v -0.293518782 -0.872513056 2.06696749
v -0.116098613 -0.955509603 1.43224096
v -0.2895239 -0.898741901 1.62537396
v -0.293518782 -0.872513056 2.06696749
v -0.0699886084 -0.967070282 2.0743916
v -0.116098613 -0.955509603 1.43224096
v -0.116098613 -0.955509603 1.43224096
v 0.0263129305 0.0266244225 -0.0316976309
v -0.2895239 -0.898741901 1.62537396
v -0.057523381 -0.0561314598 3.79570103
v -0.837344468 -0.234654516 5.58435678
v -0.360049248 0.29419741 3.74982929
v 0.498386353 0.382838041 2.13558364
v -1.39216769 -0.850099564 4.06886387
v -1.40653419 -0.212117061 2.18611121
v -1.71203351 -0.33940348 3.89557958
v -1.0056231 -0.78391546 2.13474059
v -1.54542601 -0.000458111579 4.0074625
v -1.40653419 -0.212117061 2.18611121
v -0.875171661 0.667533696 1.37869227
v -1.71203351 -0.33940348 3.89557958
v -1.95515728 -0.294188797 6.04813337
v -1.93010116 -0.651888132 6.80005217
v -1.95515728 -0.294188797 6.04813337
v -1.74888909 -0.475691229 7.02517653
v -1.71733689 -1.11782944 8.51666164
v -1.71733689 -1.11782944 8.51666164
v -1.31075048 -0.687577844 7.30633831
v -1.49746001 -1.01545894 7.67112017
v -1.3363297 -0.995202541 6.92835569
v -1.60726678 -0.824510634 6.09054756
v -1.09999728 -0.846175134 4.23274279
v -1.39216769 -0.850099564 4.06886387
v -0.293518782 -0.872513056 2.06696749
v -1.39216769 -0.850099564 4.06886387
v -0.293518782 -0.872513056 2.06696749
v -0.757672191 -0.929989338 1.73294652
v -0.2895239 -0.898741901 1.62537396
v -0.708992481 -0.803052187 4.02551222
v -0.293518782 -0.872513056 2.06696749
v -1.09999728 -0.846175134 4.23274279
v -1.2464 -0.785584152 5.51184845
vt 0.519093573 0.890354574
vt 0.560033619 0.943716049
vt 0.651380301 0.990171731
vt 0.560033619 0.943716049
vt 0.519093573 0.890354574
vt 0.399771631 0.895491719
vt 0.930770218 0.426943898
vt 0.94883734 -0.00253944239
vt 0.791132867 0.380070508
vt 0.825047374 0.583687007
vt 0.930770218 0.426943898
vt 0.791132867 0.380070508
vt 0.657582104 0.275810659
vt 0.470727384 -0.00253944239
vt 0.484347165 0.278057039
vt 0.423831224 0.490818709
vt 0.657582104 0.275810659
vt 0.484347165 0.278057039
vt 0.657582104 0.275810659
vt 0.423831224 0.490818709
vt 0.589682102 0.529277921
vt 0.498664081 0.725745797
vt 0.423831224 0.490818709
vt 0.41903466 0.687596083
vt 0.423831224 0.490818709
vt 0.498664081 0.725745797
vt 0.589682102 0.529277921
vt 0.591629326 0.737360597
vt 0.825047374 0.583687007
vt 0.745785356 0.790432096
vt 0.560033619 0.943716049
vt 0.591629326 0.737360597
vt 0.651380301 0.990171731
vt 0.519093573 0.890354574
vt 0.345222175 0.743549287
vt 0.399771631 0.895491719
vt 0.345222175 0.743549287
vt 0.519093573 0.890354574
vt 0.526638567 0.746126831
vt 0.651380301 0.990171731
vt 0.745785356 0.790432096
vt 0.519093573 0.890354574
vt 0.745785356 0.790432096
vt 0.651380301 0.990171731
vt 0.591629326 0.737360597
vt 0.345222175 0.743549287
vt 0.423831224 0.490818709
vt 0.274561584 0.433017671
vt 0.443198651 0.272964239
vt 0.274561584 0.433017671
vt 0.423831224 0.490818709
vt 0.274561584 0.433017671
vt 0.443198651 0.272964239
vt 0.258728564 0.328504115
vt 0.423831224 0.490818709
vt 0.484347165 0.278057039
vt 0.28666836 0.279470891
vt 0.419224203 0.253724933
vt 0.327147633 -0.00253944239
vt 0.470727384 -0.00253944239
vt 0.419224203 0.253724933
vt 0.443198651 0.272964239
vt 0.28666836 0.279470891
vt 0.443198651 0.272964239
vt 0.419224203 0.253724933
vt 0.443198651 0.272964239
vt 0.28666836 0.279470891
vt 0.258728564 0.328504115
vt 0.327147633 -0.00253944239
vt 0.258728564 0.328504115
vt 0.28666836 0.279470891
vt 0.519093573 0.890354574
vt 0.745785356 0.790432096
vt 0.526638567 0.746126831
vt 0.825047374 0.583687007
vt 0.526638567 0.746126831
vt 0.745785356 0.790432096
vt 0.526638567 0.746126831
vt 0.825047374 0.583687007
vt 0.589682102 0.529277921
vt 0.791132867 0.380070508
vt 0.589682102 0.529277921
vt 0.825047374 0.583687007
vt 0.589682102 0.529277921
vt 0.791132867 0.380070508
vt 0.657582104 0.275810659
vt 0.657582104 0.275810659
vt 0.794433594 0.319247335
vt 0.623593986 -0.00253944239
vt 0.794433594 0.319247335
vt 0.94883734 -0.00253944239
vt 0.930770218 0.426943898
vt 0.657582104 0.275810659
vt 0.94883734 -0.00253944239
vt 0.794433594 0.319247335
vt 0.791132867 0.380070508
vt 0.94883734 -0.00253944239
vt 0.657582104 0.275810659
vt 0.470727384 -0.00253944239
vt 0.443198651 0.272964239
vt 0.484347165 0.278057039
vt 0.589682102 0.529277921
vt 0.498664081 0.725745797
vt 0.526638567 0.746126831
vt 0.41903466 0.687596083
vt 0.526638567 0.746126831
vt 0.498664081 0.725745797
vt 0.526638567 0.746126831
vt 0.41903466 0.687596083
vt 0.345222175 0.743549287
vt 0.423831224 0.490818709
vt 0.345222175 0.743549287
vt 0.41903466 0.687596083
vt 0.930770218 0.426943898
vt 0.619141459 0.531709611
vt 0.794433594 0.319247335
vt 0.60570693 0.96694386
vt 0.519093573 0.890354574
vt 0.399771631 0.895491719
vt 0.244899243 -0.00253944239
vt 0.336691111 0.24541685
vt 0.258728564 0.328504115
vt 0.495957673 0.254716158
vt 0.340588272 0.37105149
vt 0.336691111 0.24541685
vt 0.340588272 0.37105149
vt 0.495957673 0.254716158
vt 0.475176394 0.396763295
vt 0.340588272 0.37105149
vt 0.258728564 0.328504115
vt 0.336691111 0.24541685
vt 0.258728564 0.328504115
vt 0.340588272 0.37105149
vt 0.274561584 0.433017671
vt 0.825047374 0.583687007
vt 0.920526862 0.336746633
vt 0.791132867 0.380070508
vt 0.475176394 0.396763295
vt 0.623593986 -0.00253944239
vt 0.581430316 0.291477561
vt 0.451064169 0.4970994
vt 0.532106876 0.671327829
vt 0.470773339 0.640085995
vt 0.345222175 0.743549287
vt 0.451064169 0.4970994
vt 0.470773339 0.640085995
vt 0.451064169 0.4970994
vt 0.345222175 0.743549287
vt 0.274561584 0.433017671
vt 0.530601442 0.695444107
vt 0.474469483 0.531739235
vt 0.41903466 0.687596083
vt 0.825047374 0.583687007
vt 0.692337513 0.768242002
vt 0.692623913 0.478545517
vt 0.399771631 0.895491719
vt 0.481071889 0.714800298
vt 0.60570693 0.96694386
vt 0.481071889 0.714800298
vt 0.399771631 0.895491719
vt 0.345222175 0.743549287
vt 0.519093573 0.890354574
vt 0.345222175 0.743549287
vt 0.399771631 0.895491719
vt 0.345222175 0.743549287
vt 0.519093573 0.890354574
vt 0.526638567 0.746126831
vt 0.495957673 0.254716158
vt 0.623593986 -0.00253944239
vt 0.475176394 0.396763295
vt 0.28666836 0.279470891
vt 0.419224203 0.253724933
vt 0.327147633 -0.00253944239
vt 0.456317514 -0.00253944239
vt 0.419224203 0.253724933
vt 0.443198651 0.272964239
vt 0.28666836 0.279470891
vt 0.443198651 0.272964239
vt 0.419224203 0.253724933
vt 0.443198651 0.272964239
vt 0.28666836 0.279470891
vt 0.258728564 0.328504115
vt 0.327147633 -0.00253944239
vt 0.258728564 0.328504115
vt 0.28666836 0.279470891
vt 0.692337513 0.768242002
vt 0.664430857 0.671119213
vt 0.526638567 0.746126831
vt 0.526638567 0.746126831
vt 0.664430857 0.671119213
vt 0.530601442 0.695444107
vt 0.791132867 0.380070508
vt 0.624887466 0.524494946
vt 0.825047374 0.583687007
vt 0.664430857 0.671119213
vt 0.692337513 0.768242002
vt 0.591629326 0.737360597
vt 0.424367368 0.334682196
vt 0.474469483 0.531739235
vt 0.479825914 0.394173622
vt 0.41903466 0.687596083
vt 0.526638567 0.746126831
vt 0.530601442 0.695444107
vt 0.526638567 0.746126831
vt 0.41903466 0.687596083
vt 0.345222175 0.743549287
vt 0.373192966 0.449898183
vt 0.345222175 0.743549287
vt 0.41903466 0.687596083
vt 0.623593986 -0.00253944239
vt 0.714075744 0.293590724
vt 0.581430316 0.291477561
vt 0.920526862 0.336746633
vt 0.692623913 0.478545517
vt 0.714075744 0.293590724
vt 0.623593986 -0.00253944239
vt 0.859519899 0.274830639
vt 0.60570693 0.96694386
vt 0.544369042 0.728669286
vt 0.692337513 0.768242002
vt 0.532106876 0.671327829
vt 0.692337513 0.768242002
vt 0.544369042 0.728669286
vt 0.692337513 0.768242002
vt 0.532106876 0.671327829
vt 0.692623913 0.478545517
vt 0.532106876 0.671327829
vt 0.559211195 0.498419642
vt 0.692623913 0.478545517
vt 0.559211195 0.498419642
vt 0.714075744 0.293590724
vt 0.692623913 0.478545517
vt 0.559211195 0.498419642
vt 0.581430316 0.291477561
vt 0.714075744 0.293590724
vt 0.336691111 0.24541685
vt 0.244899243 -0.00253944239
vt 0.0883743018 0.24246873
vt 0.920526862 0.336746633
vt 0.825047374 0.583687007
vt 0.692623913 0.478545517
vt 0.345222175 0.743549287
vt 0.470773339 0.640085995
vt 0.481071889 0.714800298
vt 0.470773339 0.640085995
vt 0.532106876 0.671327829
vt 0.481071889 0.714800298
vt 0.424367368 0.334682196
vt 0.484347165 0.278057039
vt 0.443198651 0.272964239
vt 0.424367368 0.334682196
vt 0.479825914 0.394173622
vt 0.484347165 0.278057039
vt 0.484347165 0.278057039
vt 0.463772893 0.275510639
vt 0.443198651 0.272964239
vt 0.825047374 0.583687007
vt 0.591629326 0.737360597
vt 0.619141459 0.531709611
vt 0.930770218 0.426943898
vt 0.274561584 0.433017671
vt 0.475176394 0.396763295
vt 0.451064169 0.4970994
vt 0.340588272 0.37105149
vt 0.559211195 0.498419642
vt 0.475176394 0.396763295
vt 0.581430316 0.291477561
vt 0.451064169 0.4970994
vt 0.532106876 0.671327829
vt 0.481071889 0.714800298
vt 0.532106876 0.671327829
vt 0.544369042 0.728669286
vt 0.60570693 0.96694386
vt 0.60570693 0.96694386
vt 0.692337513 0.768242002
vt 0.519093573 0.890354574
vt 0.526638567 0.746126831
vt 0.345222175 0.743549287
vt 0.373192966 0.449898183
vt 0.274561584 0.433017671
vt 0.424367368 0.334682196
vt 0.274561584 0.433017671
vt 0.424367368 0.334682196
vt 0.258728564 0.328504115
vt 0.443198651 0.272964239
vt 0.474469483 0.531739235
vt 0.424367368 0.334682196
vt 0.373192966 0.449898183
vt 0.41903466 0.687596083
vn 0.430736929 -0.89983654 0.0689921752
vn 0.430736929 -0.89983654 0.0689921677
vn 0.430736929 -0.89983654 0.0689921826
vn 0.68538332 -0.717820466 0.122406624
vn 0.685383379 -0.717820466 0.122406632
vn 0.685383379 -0.717820466 0.122406632
vn 0.587049544 0.768606603 -0.254198045
vn 0.587049603 0.768606603 -0.254198045
vn 0.587049603 0.768606603 -0.254198015
vn 0.872026563 0.314388663 0.375139177
vn 0.872026563 0.314388633 0.375139117
vn 0.872026563 0.314388603 0.375139117
vn 0.736680031 -0.396684855 -0.547671139
vn 0.736680031 -0.396684855 -0.547671139
vn 0.736680031 -0.396684855 -0.547671139
vn 0.788051486 -0.55535233 0.265628755
vn 0.788051486 -0.555352271 0.265628755
vn 0.788051486 -0.555352271 0.265628755
vn 0.809689403 -0.480007827 0.337632358
vn 0.809689403 -0.480007827 0.337632358
vn 0.809689403 -0.480007827 0.337632388
vn 0.266424507 -0.962695956 -0.0472703315
vn 0.266424507 -0.962695956 -0.0472703315
vn 0.266424477 -0.962695956 -0.0472703278
vn 0.895394981 -0.439276934 0.0728260651
vn 0.895394981 -0.439276963 0.0728260651
vn 0.895394981 -0.439276934 0.0728260577
vn 0.785748959 0.479733944 0.390453547
vn 0.785748899 0.479733974 0.390453547
vn 0.785748899 0.479733974 0.390453547
vn 0.330494583 0.839852512 0.430605412
vn 0.330494553 0.839852512 0.430605412
vn 0.330494553 0.839852512 0.430605471
vn 0.754793108 -0.634667218 0.16578576
vn 0.754793108 -0.634667218 0.165785775
vn 0.754793108 -0.634667218 0.16578576
vn -0.995232522 0.00819528382 0.097186178
vn -0.995232522 0.00819528382 0.097186178
vn -0.995232522 0.00819528289 0.0971861705
vn 0.707853436 -0.704383969 0.0527898408
vn 0.707853436 -0.704383969 0.0527898408
vn 0.707853436 -0.704383969 0.0527898408
vn 0.515217185 0.818605125 0.253844112
vn 0.515217125 0.818605125 0.253844112
vn 0.515217245 0.818605125 0.253844142
vn 0.121817842 -0.984939992 0.122693628
vn 0.12181785 -0.984939992 0.122693628
vn 0.12181785 -0.984939992 0.122693628
vn 0.224155113 -0.974392593 0.0177071709
vn 0.224155113 -0.974392593 0.0177071672
vn 0.224155098 -0.974392593 0.0177071691
vn 0.127282605 -0.991499245 -0.0269896481
vn 0.12728259 -0.991499245 -0.0269896463
vn 0.12728259 -0.991499245 -0.0269896481
vn 0.129508406 -0.99151963 0.0107916426
vn 0.129508421 -0.99151963 0.0107916435
vn -0.330290765 -0.689351499 -0.644749939
vn -0.330290765 -0.689351559 -0.644749939
vn -0.330290765 -0.689351559 -0.644749939
vn 0.958486319 -0.11575868 -0.260583937
vn 0.958486319 -0.11575868 -0.260583907
vn 0.958486319 -0.11575868 -0.260583907
vn 0.396631271 -0.750553787 0.528538167
vn 0.39663133 -0.750553787 0.528538227
vn 0.396631271 -0.750553787 0.528538227
vn 0.315334797 -0.692165971 0.649207413
vn 0.315334797 -0.692165911 0.649207354
vn 0.315334797 -0.692165911 0.649207354
vn -0.933010638 -0.250209033 -0.258624405
vn -0.933010638 -0.250209063 -0.258624405
vn -0.933010638 -0.250209033 -0.258624405
vn -0.436853796 0.755604625 0.488078237
vn -0.436853796 0.755604625 0.488078177
vn -0.436853796 0.755604625 0.488078237
vn 0.907901168 0.198576644 0.369164944
vn 0.907901168 0.198576629 0.369164914
vn 0.907901168 0.198576644 0.369164944
vn 0.9432289 0.0873961002 0.3204391
vn 0.9432289 0.0873960927 0.3204391
vn 0.9432289 0.0873961002 0.3204391
vn 0.917468369 -0.13562341 0.373975962
vn 0.917468369 -0.13562341 0.373975933
vn 0.917468369 -0.13562341 0.373975933
vn 0.886129439 0.0309374072 0.462404191
vn 0.88612932 0.0309374072 0.462404191
vn 0.88612932 0.0309374072 0.462404191
vn 0.505795598 0.846628964 -0.1655
vn 0.505795598 0.846628964 -0.165499985
vn 0.505795658 0.846628964 -0.165500015
vn 0.154249221 0.969025075 -0.192866907
vn 0.154249236 0.969025075 -0.192866921
vn 0.154249221 0.969025075 -0.192866907
vn -0.505795598 -0.846628964 0.1655
vn -0.505795658 -0.846628964 0.165500015
vn -0.505795598 -0.846628964 0.165499985
vn 0.641186953 0.715613008 -0.277087092
vn 0.641186953 0.715613008 -0.277087092
vn 0.641186953 0.715613067 -0.277087122
vn 0.181185722 -0.790397346 -0.585186958
vn 0.181185722 -0.790397346 -0.585186899
vn 0.181185722 -0.790397346 -0.585186958
vn 0.932545543 0.150072366 0.328385472
vn 0.932545543 0.150072366 0.328385472
vn 0.932545543 0.150072381 0.328385532
vn 0.200916737 -0.973940372 0.105226748
vn 0.200916737 -0.973940372 0.10522674
vn 0.200916737 -0.973940372 0.10522674
vn -0.608197808 -0.793069899 -0.0337001458
vn -0.608197808 -0.793069839 -0.0337001383
vn -0.608197808 -0.793069899 -0.0337001458
vn -0.665012598 -0.674664795 -0.320290029
vn -0.665012658 -0.674664795 -0.320290059
vn -0.665012538 -0.674664795 -0.320290029
vn 0.425924689 0.862318277 0.273852587
vn 0.425924748 0.862318277 0.273852587
vn 0.425924718 0.862318277 0.273852587
vn 0.156752452 -0.984518528 -0.0784342438
vn 0.156752467 -0.984518528 -0.0784342512
vn 0.156752452 -0.984518528 -0.0784342438
vn 0.337327451 -0.88224864 -0.328401327
vn 0.33732748 -0.882248759 -0.328401357
vn 0.337327451 -0.88224864 -0.328401327
vn -0.905301511 -0.253661186 0.340712816
vn -0.905301511 -0.253661156 0.340712816
vn -0.905301511 -0.253661156 0.340712816
vn -0.798433721 -0.575662196 0.17639932
vn -0.798433721 -0.575662196 0.17639932
vn -0.798433602 -0.575662196 0.176399305
vn -0.21446085 -0.952975512 0.214112371
vn -0.214460835 -0.952975512 0.214112371
vn -0.214460865 -0.952975512 0.214112401
vn -0.681056619 -0.714410603 -0.160559282
vn -0.681056619 -0.714410603 -0.160559282
vn -0.681056559 -0.714410663 -0.160559297
vn -0.461855382 0.88653934 0.0271618031
vn -0.461855352 0.886539221 0.0271618012
vn -0.461855352 0.886539221 0.0271617994
vn -0.840411544 0.0103023611 -0.541850865
vn -0.840411425 0.0103023602 -0.541850865
vn -0.840411544 0.0103023611 -0.541850865
vn -0.923104942 0.367880106 -0.111988999
vn -0.923104942 0.367880136 -0.111988999
vn -0.923104942 0.367880136 -0.111989006
vn -0.483609676 -0.859240234 -0.166816756
vn -0.483609647 -0.859240234 -0.166816726
vn -0.483609647 -0.859240234 -0.166816741
vn -0.831980407 -0.548775375 -0.0815734342
vn -0.831980407 -0.548775375 -0.0815734342
vn -0.831980407 -0.548775375 -0.0815734416
vn 0.030462198 -0.999276817 0.0227579679
vn 0.0304621998 -0.999276817 0.0227579679
vn 0.0304621998 -0.999276817 0.0227579679
vn 0.259358883 0.887379706 0.381169647
vn 0.259358883 0.887379706 0.381169647
vn 0.259358883 0.887379706 0.381169677
vn -0.914589465 -0.404367536 0.00360031705
vn -0.914589465 -0.404367536 0.00360031705
vn -0.914589465 -0.404367507 0.00360031705
vn -0.715324163 -0.68023324 -0.15998143
vn -0.715324104 -0.6802333 -0.15998143
vn -0.715324163 -0.68023324 -0.15998143
vn 0.148557574 -0.980483711 -0.128772542
vn 0.148557588 -0.980483711 -0.128772557
vn 0.148557574 -0.980483711 -0.128772542
vn -0.309112638 -0.946480215 -0.0928690135
vn -0.309112638 -0.946480215 -0.0928690135
vn -0.309112608 -0.946480155 -0.092869021
vn -0.40203464 0.901045084 -0.162745014
vn -0.40203464 0.901045084 -0.162744984
vn -0.40203464 0.901045084 -0.162744999
vn -0.407613516 -0.620205224 -0.670221448
vn -0.407613546 -0.620205224 -0.670221448
vn -0.407613516 -0.620205224 -0.670221448
vn 0.935974002 -0.351610899 -0.0179556981
vn 0.935974002 -0.351610959 -0.0179556981
vn 0.935974002 -0.351610959 -0.0179556999
vn 0.390975803 -0.761590362 0.516834676
vn 0.390975803 -0.761590362 0.516834617
vn 0.390975863 -0.761590362 0.516834676
vn 0.215675205 -0.612096548 0.76080358
vn 0.215675205 -0.612096488 0.76080358
vn 0.21567522 -0.612096548 0.76080358
vn -0.923545361 0.0574546307 -0.379160851
vn -0.923545361 0.0574546345 -0.379160851
vn -0.923545361 0.0574546307 -0.379160851
vn 0.876524508 -0.400670588 0.266772687
vn 0.876524627 -0.400670588 0.266772687
vn 0.876524627 -0.400670618 0.266772687
vn 0.754357517 -0.656195819 0.0187580269
vn 0.754357517 -0.656195819 0.018758025
vn 0.754357457 -0.656195819 0.018758025
vn 0.711946428 0.603423595 0.359182596
vn 0.711946487 0.603423595 0.359182596
vn 0.74081558 0.574616432 0.347862601
vn 0.74081558 0.574616373 0.347862601
vn 0.74081558 0.574616432 0.347862571
vn 0.717390001 0.590637863 0.369457036
vn -0.387716353 -0.920443058 -0.0496037528
vn -0.387716383 -0.920443058 -0.0496037528
vn -0.387716383 -0.920443058 -0.0496037491
vn 0.484880418 -0.869091988 -0.0978269652
vn 0.484880418 -0.869091988 -0.0978269577
vn 0.484880418 -0.869091988 -0.0978269577
vn -0.140945062 -0.978017211 -0.153677672
vn -0.140945062 -0.978017211 -0.153677672
vn -0.140945047 -0.978017211 -0.153677657
vn 0.219104707 -0.973101974 0.0711737201
vn 0.219104722 -0.973101974 0.0711737275
vn 0.219104707 -0.973101974 0.0711737201
vn 0.664531648 0.742117345 0.0875184536
vn 0.664531648 0.742117345 0.0875184536
vn 0.664531648 0.742117345 0.0875184536
vn -0.605285645 0.783543587 -0.140316606
vn -0.605285645 0.783543587 -0.140316606
vn -0.605285645 0.783543587 -0.140316606
vn -0.606927514 0.778313816 -0.160830632
vn -0.606927514 0.778313875 -0.160830647
vn 0.189839721 0.903240025 0.38486138
vn 0.189839706 0.903240025 0.38486138
vn 0.189839736 0.903240025 0.38486141
vn 0.386871129 0.91784513 0.0888312235
vn 0.386871129 0.91784513 0.0888312235
vn 0.386871159 0.91784513 0.088831231
vn -0.457539588 0.754647076 0.470282108
vn -0.457539588 0.754647076 0.470282167
vn -0.457539558 0.754647076 0.470282108
vn -0.529580116 0.848113835 0.0157455634
vn -0.529580116 0.848113835 0.0157455634
vn -0.529580116 0.848113835 0.0157455634
vn -0.123218186 0.991986871 0.0279163569
vn -0.123218186 0.991986871 0.0279163569
vn -0.123218201 0.991986871 0.0279163588
vn 0.248798832 0.921687126 0.297644079
vn 0.248798832 0.921687126 0.297644079
vn 0.248798832 0.921687126 0.297644079
vn -0.573357701 -0.167326674 -0.802036583
vn -0.573357701 -0.167326674 -0.802036583
vn -0.573357701 -0.167326674 -0.802036583
vn 0.215332791 0.943923533 0.250279963
vn 0.215332806 0.943923533 0.250279993
vn 0.215332806 0.943923533 0.250279963
vn -0.533078551 -0.845260441 -0.0369061194
vn -0.533078551 -0.845260441 -0.0369061194
vn -0.533078551 -0.845260441 -0.0369061194
vn -0.9632774 0.228600785 0.14084816
vn -0.9632774 0.228600785 0.14084816
vn -0.9632774 0.228600785 0.14084816
vn -0.254727721 -0.96544528 0.0550391562
vn -0.254727751 -0.96544528 0.0550391674
vn -0.254727721 -0.96544528 0.0550391562
vn -0.389890134 -0.920790553 0.0114192255
vn -0.389890105 -0.920790553 0.0114192246
vn -0.389890105 -0.920790553 0.0114192255
vn -0.68737793 -0.570439398 -0.44956699
vn -0.68737793 -0.570439339 -0.44956696
vn -0.68737793 -0.570439339 -0.44956699
vn 0.68197912 0.636167943 0.36082527
vn 0.68197906 0.636167884 0.360825241
vn 0.68197912 0.636167943 0.36082533
vn 0.670576334 0.630300283 0.391214788
vn -0.803178251 -0.566061676 -0.185684845
vn -0.80317831 -0.566061676 -0.185684845
vn -0.803178251 -0.566061676 -0.18568486
vn -0.812796712 -0.553589106 -0.18138504
vn -0.874384403 0.469833672 -0.121277712
vn -0.874384403 0.469833612 -0.121277712
vn -0.894282222 0.431570321 -0.118348494
vn -0.874384403 0.469833612 -0.121277697
vn -0.877399504 0.467234403 -0.108913653
vn -0.82154125 0.503755927 0.267020643
vn -0.82154125 0.503755927 0.267020643
vn -0.82154125 0.503755927 0.267020643
vn -0.814608753 0.526276827 0.243814141
vn 0.931056023 -0.301421523 0.205620632
vn 0.931056023 -0.301421523 0.205620646
vn 0.931056023 -0.301421553 0.205620646
vn 0.92942667 -0.314482003 0.19304736
vn 0.00597520312 -0.999893785 0.0132916179
vn 0.00597520359 -0.999893785 0.0132916179
vn 0.00597520359 -0.999893785 0.0132916188
vn 0.00546797784 -0.999884248 0.0141956946
vn 0.0825788751 -0.994983912 0.0564595982
vn 0.0825788751 -0.994983912 0.0564595982
vn 0.0825788751 -0.994983912 0.0564595945
vn 0.0801584423 -0.994985342 0.0598232672
vn 0.14361231 -0.987465024 0.0654860288
vn 0.14361231 -0.987465024 0.0654860288
vn 0.14361231 -0.987465024 0.0654860288
vn 0.14237833 -0.987799764 0.0630880669
g bingkuai_0
f 3/3/3 2/2/2 1/1/1
f 6/6/6 5/5/5 4/4/4
f 9/9/9 8/8/8 7/7/7
f 12/12/12 11/11/11 10/10/10
f 15/15/15 14/14/14 13/13/13
f 18/18/18 17/17/17 16/16/16
f 21/21/21 20/20/20 19/19/19
f 24/24/24 23/23/23 22/22/22
f 27/27/27 26/26/26 25/25/25
f 30/30/30 29/29/29 28/28/28
f 33/33/33 32/32/32 31/31/31
f 36/36/36 35/35/35 34/34/34
f 39/39/39 38/38/38 37/37/37
f 42/42/42 41/41/41 40/40/40
f 45/45/45 44/44/44 43/43/43
f 48/48/48 47/47/47 46/46/46
f 51/51/51 50/50/50 49/49/49
f 54/54/54 53/53/53 52/52/52
f 53/53/53 56/56/56 55/55/55
f 59/59/59 58/58/58 57/57/57
f 62/62/62 61/61/61 60/60/60
f 65/65/65 64/64/64 63/63/63
f 68/68/68 67/67/67 66/66/66
f 71/71/71 70/70/70 69/69/69
f 74/74/74 73/73/73 72/72/72
f 77/77/77 76/76/76 75/75/75
f 80/80/80 79/79/79 78/78/78
f 83/83/83 82/82/82 81/81/81
f 86/86/86 85/85/85 84/84/84
f 89/89/89 88/88/88 87/87/87
f 92/92/92 91/91/91 90/90/90
f 95/95/95 94/94/94 93/93/93
f 98/98/98 97/97/97 96/96/96
f 101/101/101 100/100/100 99/99/99
f 104/104/104 103/103/103 102/102/102
f 107/107/107 106/106/106 105/105/105
f 110/110/110 109/109/109 108/108/108
f 113/113/113 112/112/112 111/111/111
f 116/116/116 115/115/115 114/114/114
f 119/119/119 118/118/118 117/117/117
f 122/122/122 121/121/121 120/120/120
f 125/125/125 124/124/124 123/123/123
f 128/128/128 127/127/127 126/126/126
f 131/131/131 130/130/130 129/129/129
f 134/134/134 133/133/133 132/132/132
f 137/137/137 136/136/136 135/135/135
f 140/140/140 139/139/139 138/138/138
f 143/143/143 142/142/142 141/141/141
f 146/146/146 145/145/145 144/144/144
f 149/149/149 148/148/148 147/147/147
f 152/152/152 151/151/151 150/150/150
f 155/155/155 154/154/154 153/153/153
f 158/158/158 157/157/157 156/156/156
f 161/161/161 160/160/160 159/159/159
f 164/164/164 163/163/163 162/162/162
f 167/167/167 166/166/166 165/165/165
f 170/170/170 169/169/169 168/168/168
f 173/173/173 172/172/172 171/171/171
f 176/176/176 175/175/175 174/174/174
f 179/179/179 178/178/178 177/177/177
f 182/182/182 181/181/181 180/180/180
f 185/185/185 184/184/184 183/183/183
f 188/188/188 187/187/187 186/186/186
f 191/191/191 190/190/190 189/189/189
f 194/194/194 193/193/193 192/192/192
f 194/194/194 196/196/196 195/195/195
f 194/194/194 195/195/195 197/197/197
f 200/200/200 199/199/199 198/198/198
f 203/203/203 202/202/202 201/201/201
f 206/206/206 205/205/205 204/204/204
f 209/209/209 208/208/208 207/207/207
f 212/212/212 211/211/211 210/210/210
f 215/215/215 214/214/214 213/213/213
f 215/215/215 217/217/217 216/216/216
f 220/220/220 219/219/219 218/218/218
f 223/223/223 222/222/222 221/221/221
f 226/226/226 225/225/225 224/224/224
f 229/229/229 228/228/228 227/227/227
f 232/232/232 231/231/231 230/230/230
f 235/235/235 234/234/234 233/233/233
f 238/238/238 237/237/237 236/236/236
f 241/241/241 240/240/240 239/239/239
f 244/244/244 243/243/243 242/242/242
f 247/247/247 246/246/246 245/245/245
f 250/250/250 249/249/249 248/248/248
f 253/253/253 252/252/252 251/251/251
f 256/256/256 255/255/255 254/254/254
f 259/259/259 258/258/258 257/257/257
f 259/259/259 257/257/257 260/260/260
f 263/263/263 262/262/262 261/261/261
f 264/264/264 261/261/261 262/262/262
f 267/267/267 266/266/266 265/265/265
f 268/268/268 265/265/265 266/266/266
f 265/265/265 268/268/268 269/269/269
f 272/272/272 271/271/271 270/270/270
f 270/270/270 273/273/273 272/272/272
f 276/276/276 275/275/275 274/274/274
f 277/277/277 275/275/275 276/276/276
f 280/280/280 279/279/279 278/278/278
f 280/280/280 281/281/281 279/279/279
f 284/284/284 283/283/283 282/282/282
f 285/285/285 283/283/283 284/284/284
f 288/288/288 287/287/287 286/286/286
f 288/288/288 286/286/286 289/289/289
