g Plane001
v 0.0694181696 0.0432684235 0.178843871
v 0.0694181696 0.0236728154 -0.00255723298
v 0.112161949 0.00958744343 0.176920906
v 0.112161949 -0.00941433758 0.00101697084
v 0.0694181696 0.00407721056 -0.183958337
v 0.138159648 -0.0187104438 0.175806999
v 0.112161949 -0.0284161177 -0.174886927
v 0.14781338 -0.0490772016 0.00730615761
v 0.154319629 -0.0643618554 0.179944649
v 0.157467097 -0.0794439539 -0.161194623
v 0.165200099 -0.0989698768 0.0178245436
v 0.157317638 -0.112385586 0.18585059
v 0.17608057 -0.133577883 -0.144295558
v 0.168164596 -0.151303202 0.0301594697
v 0.148580581 -0.159152552 0.192817032
v 0.179011554 -0.190220922 -0.125531599
v 0.158148766 -0.202522308 0.0436538346
v 0.130090848 -0.202272564 0.200416982
v 0.16771692 -0.245892093 -0.105509371
v 0.137051612 -0.25009501 0.0579038523
v 0.103942007 -0.240368709 0.20839338
v 0.144012377 -0.297917485 -0.0846092105
v 0.106916361 -0.29237017 0.0726550743
v 0.0720730796 -0.272855312 0.2165948
v 0.109890647 -0.344371676 -0.0630831718
v 0.069718495 -0.328424782 0.0877442658
v 0.0361075737 -0.299730241 0.22493577
v 0.0673638508 -0.383994371 -0.0411062427
v 0.0272209607 -0.357910961 0.103065282
v -0.00273711444 -0.32137984 0.233372793
v 0.0183343496 -0.416091651 -0.0188052077
v -0.0191209614 -0.380903006 0.118548341
v -0.0525175519 -0.340202808 0.244624183
v -0.0355048068 -0.440426171 0.00372388843
v -0.0682804585 -0.397470355 0.134150967
v -0.0959731266 -0.348043174 0.253378868
v -0.0840435177 -0.454737961 0.0236778054
v -0.119538449 -0.405066639 0.149861991
v -0.139531985 -0.351734579 0.262176245
v -0.143103942 -0.462090105 0.0463451855
v -0.17113027 -0.406899095 0.165618315
v -0.183298737 -0.352085501 0.271036953
v -0.202728823 -0.46206364 0.0690604895
v -0.222761989 -0.403725982 0.18140918
v -0.235628501 -0.343178451 0.282901883
v -0.2622253 -0.455366492 0.0917814225
v -0.273347586 -0.39253673 0.197235242
v -0.277730852 -0.331914634 0.291998178
v -0.311066896 -0.441894948 0.111568674
v -0.322324872 -0.376265049 0.21307075
v -0.327729493 -0.31417343 0.304000646
v -0.366919011 -0.420615494 0.134143367
v -0.370153993 -0.356366336 0.228912875
v -0.366021276 -0.29273814 0.313325495
v -0.412578791 -0.398559153 0.153825238
v -0.413949639 -0.328749776 0.244752482
v -0.403974712 -0.270199835 0.322775573
v -0.461878031 -0.364761382 0.176179498
v -0.456158727 -0.298973024 0.260587335
v -0.445165932 -0.236833394 0.334998161
v -0.508343101 -0.327745914 0.198399276
v -0.494329631 -0.263941199 0.276409358
v -0.477795929 -0.206515059 0.344716012
v -0.543493509 -0.291048855 0.2178206
v -0.529352605 -0.226016581 0.292217493
v -0.512841165 -0.166754946 0.357013077
v -0.580909312 -0.245517939 0.239719018
v -0.560964525 -0.184957981 0.308010429
v -0.539384305 -0.130181968 0.367023796
v -0.609088123 -0.203160658 0.259007901
v -0.587976873 -0.140938178 0.323779941
v -0.567371726 -0.0851775855 0.379381388
v -0.63656956 -0.151694328 0.280536115
v -0.612146676 -0.0950887576 0.339534909
v -0.587444663 -0.0437487029 0.389717847
v -0.656921685 -0.104999781 0.299688458
v -0.630844712 -0.046914652 0.355259478
v -0.607671082 0.00523852464 0.402126521
v -0.674244761 -0.0500806049 0.320801079
v -0.646913409 0.00237586978 0.370969236
v -0.62117821 0.0503215604 0.412827134
v -0.686155736 -0.000486783683 0.339811921
v -0.657425225 0.0529809743 0.386645883
v -0.633160293 0.101954229 0.425282061
v -0.69367224 0.0556408018 0.360464722
v -0.664971054 0.104288213 0.402305007
v -0.645217061 0.153592303 0.437682867
v -0.696781993 0.106622539 0.379328161
v -0.672516942 0.155595466 0.41796416
v -0.657354057 0.20523645 0.450025886
v -0.699816883 0.15759863 0.398245484
v -0.680062771 0.206902385 0.433623224
v -0.702771604 0.208569005 0.417220801
vt -7.35137107E-08 0
vt -5.16580165E-08 0.5
vt 0.0333332606 0
vt 0.0333332829 0.5
vt -2.98023224E-08 1
vt 0.0666665956 0
vt 0.0333333053 1
vt 0.066666618 0.5
vt 0.0999999344 0
vt 0.0666666403 1
vt 0.0999999568 0.5
vt 0.133333266 0
vt 0.0999999791 1
vt 0.133333296 0.5
vt 0.166666597 0
vt 0.13333331 1
vt 0.166666627 0.5
vt 0.199999928 0
vt 0.166666642 1
vt 0.199999958 0.5
vt 0.23333326 0
vt 0.199999973 1
vt 0.23333329 0.5
vt 0.266666621 0
vt 0.233333305 1
vt 0.266666621 0.5
vt 0.299999952 0
vt 0.266666651 1
vt 0.299999952 0.5
vt 0.333333284 0
vt 0.299999982 1
vt 0.333333284 0.5
vt 0.366666615 0
vt 0.333333313 1
vt 0.366666615 0.5
vt 0.399999946 0
vt 0.366666645 1
vt 0.399999946 0.5
vt 0.433333278 0
vt 0.399999976 1
vt 0.433333278 0.5
vt 0.466666609 0
vt 0.433333308 1
vt 0.466666609 0.5
vt 0.49999994 0
vt 0.466666639 1
vt 0.49999994 0.5
vt 0.533333302 0
vt 0.49999997 1
vt 0.533333302 0.5
vt 0.566666603 0
vt 0.533333302 1
vt 0.566666722 0.5
vt 0.600000024 0
vt 0.566666722 1
vt 0.600000024 0.5
vt 0.633333325 0
vt 0.600000024 1
vt 0.633333445 0.5
vt 0.666666746 0
vt 0.633333445 1
vt 0.666666746 0.5
vt 0.700000048 0
vt 0.666666746 1
vt 0.700000167 0.49999994
vt 0.733333468 0
vt 0.700000167 0.99999994
vt 0.733333468 0.49999994
vt 0.76666677 0
vt 0.733333468 0.99999994
vt 0.766666889 0.49999994
vt 0.800000191 0
vt 0.766666889 0.99999994
vt 0.800000191 0.49999994
vt 0.833333492 0
vt 0.800000191 0.99999994
vt 0.833333611 0.49999994
vt 0.866666913 0
vt 0.833333611 0.99999994
vt 0.866666913 0.49999994
vt 0.900000215 0
vt 0.866666913 0.99999994
vt 0.900000334 0.49999994
vt 0.933333635 0
vt 0.900000334 0.99999994
vt 0.933333635 0.49999994
vt 0.966666937 0
vt 0.933333635 0.99999994
vt 0.966667056 0.49999994
vt 1.00000036 0
vt 0.966667056 0.99999994
vt 1.00000036 0.49999994
vt 1.00000036 0.99999994
vn 0.614337146 0.784479856 -0.0847423598
vn 0.614337146 0.784479856 -0.0847423598
vn 0.671869218 0.736385703 -0.0795470551
vn 0.683210194 0.725889385 -0.0794248953
vn 0.614337146 0.784479856 -0.0847423673
vn 0.846917629 0.529914439 -0.043832425
vn 0.682379067 0.726621211 -0.0798771456
vn 0.863078892 0.503431737 -0.0406359658
vn 0.977086484 0.211787432 0.0211670958
vn 0.862775207 0.503845215 -0.0419404767
vn 0.97952795 0.19994387 0.0233950187
vn 0.995945156 -0.0415990539 0.0797671676
vn 0.97849077 0.2051256 0.0218943767
vn 0.995537519 -0.0475849174 0.0814902484
vn 0.955826402 -0.260357141 0.136418417
vn 0.996048152 -0.0393321104 0.0796308219
vn 0.955139041 -0.262219459 0.137660623
vn 0.87807399 -0.439453393 0.189385101
vn 0.957964957 -0.252815515 0.135600224
vn 0.877983451 -0.439232409 0.190315336
vn 0.77964133 -0.579266906 0.237926885
vn 0.882778287 -0.430424511 0.188247725
vn 0.779543996 -0.579037786 0.238802031
vn 0.673438251 -0.683482885 0.281659633
vn 0.785054088 -0.572312236 0.236957625
vn 0.671484649 -0.684927642 0.28281188
vn 0.568647385 -0.757683218 0.320244014
vn 0.675751388 -0.681274474 0.281469882
vn 0.562156022 -0.761729717 0.322100043
vn 0.461509973 -0.81227845 0.356668383
vn 0.562820077 -0.761445761 0.321611524
vn 0.454223633 -0.815568089 0.358510196
vn 0.325728804 -0.857575595 0.398076504
vn 0.454110265 -0.815808415 0.358106971
vn 0.329192102 -0.856257379 0.39806512
vn 0.207794428 -0.877200425 0.432828993
vn 0.339036584 -0.853440523 0.395845145
vn 0.213374868 -0.875797272 0.432955205
vn 0.136242926 -0.878989697 0.456962883
vn 0.222048298 -0.874374092 0.431467772
vn 0.129683122 -0.879168749 0.458524287
vn 0.0394726545 -0.871988595 0.487932056
vn 0.128656536 -0.879282475 0.458595634
vn 0.0286278613 -0.871061623 0.490338713
vn -0.0685901865 -0.851067305 0.520557106
vn 0.0267257523 -0.871204793 0.490191668
vn -0.0692775771 -0.850780308 0.520935178
vn -0.132010952 -0.830759883 0.540750504
vn -0.0658323243 -0.851612747 0.520020962
vn -0.132819369 -0.830250025 0.541335344
vn -0.2192799 -0.792437077 0.569174707
vn -0.130977288 -0.830847263 0.540867567
vn -0.215849474 -0.793430507 0.569101989
vn -0.285571098 -0.753751695 0.591867805
vn -0.207628161 -0.797002375 0.567166448
vn -0.283537447 -0.754226029 0.592241168
vn -0.330103725 -0.718994796 0.611619174
vn -0.280549407 -0.755663455 0.591831684
vn -0.335567921 -0.715125203 0.613180399
vn -0.388710767 -0.667552233 0.635041714
vn -0.336168349 -0.715057015 0.612930894
vn -0.389817327 -0.666529357 0.635437727
vn -0.427589685 -0.625644326 0.652484655
vn -0.38845098 -0.667860746 0.634876311
vn -0.429293215 -0.623618841 0.653304696
vn -0.468422323 -0.572695374 0.672755957
vn -0.428688884 -0.624410033 0.652945757
vn -0.468588829 -0.57219398 0.673066497
vn -0.497677624 -0.526490748 0.689292729
vn -0.466494769 -0.574914455 0.672202349
vn -0.497770339 -0.525767505 0.689777672
vn -0.523788214 -0.47543332 0.706830263
vn -0.496845901 -0.527119696 0.689412117
vn -0.523719192 -0.475073636 0.70712322
vn -0.543402076 -0.427526295 0.722451031
vn -0.521893501 -0.478472352 0.706180811
vn -0.543120444 -0.427236855 0.722833872
vn -0.557846665 -0.380531728 0.737565398
vn -0.542366683 -0.428757936 0.722499132
vn -0.557853997 -0.379920989 0.737874627
vn -0.568482935 -0.333090484 0.752248466
vn -0.556775808 -0.383131504 0.73702836
vn -0.568318605 -0.332419604 0.752669394
vn -0.570755661 -0.315334171 0.758157253
vn -0.567921579 -0.333796144 0.752359748
vn -0.570755005 -0.31533426 0.75815767
vn -0.570755303 -0.315334439 0.758157313
vn -0.570753813 -0.315334916 0.758158267
vn -0.57075423 -0.315334707 0.758157969
vn -0.570755064 -0.315335035 0.758157313
vn -0.570753574 -0.315334737 0.758158445
vn -0.570754826 -0.315334648 0.75815767
vn -0.570755243 -0.315333754 0.75815773
g Plane001_0
f 3/3/3 2/2/2 1/1/1
f 2/2/2 3/3/3 4/4/4
f 4/4/4 5/5/5 2/2/2
f 6/6/6 4/4/4 3/3/3
f 5/5/5 4/4/4 7/7/7
f 4/4/4 6/6/6 8/8/8
f 8/8/8 7/7/7 4/4/4
f 9/9/9 8/8/8 6/6/6
f 7/7/7 8/8/8 10/10/10
f 8/8/8 9/9/9 11/11/11
f 11/11/11 10/10/10 8/8/8
f 12/12/12 11/11/11 9/9/9
f 10/10/10 11/11/11 13/13/13
f 11/11/11 12/12/12 14/14/14
f 14/14/14 13/13/13 11/11/11
f 15/15/15 14/14/14 12/12/12
f 13/13/13 14/14/14 16/16/16
f 14/14/14 15/15/15 17/17/17
f 17/17/17 16/16/16 14/14/14
f 18/18/18 17/17/17 15/15/15
f 16/16/16 17/17/17 19/19/19
f 17/17/17 18/18/18 20/20/20
f 20/20/20 19/19/19 17/17/17
f 21/21/21 20/20/20 18/18/18
f 19/19/19 20/20/20 22/22/22
f 20/20/20 21/21/21 23/23/23
f 23/23/23 22/22/22 20/20/20
f 24/24/24 23/23/23 21/21/21
f 22/22/22 23/23/23 25/25/25
f 23/23/23 24/24/24 26/26/26
f 26/26/26 25/25/25 23/23/23
f 27/27/27 26/26/26 24/24/24
f 25/25/25 26/26/26 28/28/28
f 26/26/26 27/27/27 29/29/29
f 29/29/29 28/28/28 26/26/26
f 30/30/30 29/29/29 27/27/27
f 28/28/28 29/29/29 31/31/31
f 29/29/29 30/30/30 32/32/32
f 32/32/32 31/31/31 29/29/29
f 33/33/33 32/32/32 30/30/30
f 31/31/31 32/32/32 34/34/34
f 32/32/32 33/33/33 35/35/35
f 35/35/35 34/34/34 32/32/32
f 36/36/36 35/35/35 33/33/33
f 34/34/34 35/35/35 37/37/37
f 35/35/35 36/36/36 38/38/38
f 38/38/38 37/37/37 35/35/35
f 39/39/39 38/38/38 36/36/36
f 37/37/37 38/38/38 40/40/40
f 38/38/38 39/39/39 41/41/41
f 41/41/41 40/40/40 38/38/38
f 42/42/42 41/41/41 39/39/39
f 40/40/40 41/41/41 43/43/43
f 41/41/41 42/42/42 44/44/44
f 44/44/44 43/43/43 41/41/41
f 45/45/45 44/44/44 42/42/42
f 43/43/43 44/44/44 46/46/46
f 44/44/44 45/45/45 47/47/47
f 47/47/47 46/46/46 44/44/44
f 48/48/48 47/47/47 45/45/45
f 46/46/46 47/47/47 49/49/49
f 47/47/47 48/48/48 50/50/50
f 50/50/50 49/49/49 47/47/47
f 51/51/51 50/50/50 48/48/48
f 49/49/49 50/50/50 52/52/52
f 50/50/50 51/51/51 53/53/53
f 53/53/53 52/52/52 50/50/50
f 54/54/54 53/53/53 51/51/51
f 52/52/52 53/53/53 55/55/55
f 53/53/53 54/54/54 56/56/56
f 56/56/56 55/55/55 53/53/53
f 57/57/57 56/56/56 54/54/54
f 55/55/55 56/56/56 58/58/58
f 56/56/56 57/57/57 59/59/59
f 59/59/59 58/58/58 56/56/56
f 60/60/60 59/59/59 57/57/57
f 58/58/58 59/59/59 61/61/61
f 59/59/59 60/60/60 62/62/62
f 62/62/62 61/61/61 59/59/59
f 63/63/63 62/62/62 60/60/60
f 61/61/61 62/62/62 64/64/64
f 62/62/62 63/63/63 65/65/65
f 65/65/65 64/64/64 62/62/62
f 66/66/66 65/65/65 63/63/63
f 64/64/64 65/65/65 67/67/67
f 65/65/65 66/66/66 68/68/68
f 68/68/68 67/67/67 65/65/65
f 69/69/69 68/68/68 66/66/66
f 67/67/67 68/68/68 70/70/70
f 68/68/68 69/69/69 71/71/71
f 71/71/71 70/70/70 68/68/68
f 72/72/72 71/71/71 69/69/69
f 70/70/70 71/71/71 73/73/73
f 71/71/71 72/72/72 74/74/74
f 74/74/74 73/73/73 71/71/71
f 75/75/75 74/74/74 72/72/72
f 73/73/73 74/74/74 76/76/76
f 74/74/74 75/75/75 77/77/77
f 77/77/77 76/76/76 74/74/74
f 78/78/78 77/77/77 75/75/75
f 76/76/76 77/77/77 79/79/79
f 77/77/77 78/78/78 80/80/80
f 80/80/80 79/79/79 77/77/77
f 81/81/81 80/80/80 78/78/78
f 79/79/79 80/80/80 82/82/82
f 80/80/80 81/81/81 83/83/83
f 83/83/83 82/82/82 80/80/80
f 84/84/84 83/83/83 81/81/81
f 82/82/82 83/83/83 85/85/85
f 83/83/83 84/84/84 86/86/86
f 86/86/86 85/85/85 83/83/83
f 87/87/87 86/86/86 84/84/84
f 85/85/85 86/86/86 88/88/88
f 86/86/86 87/87/87 89/89/89
f 89/89/89 88/88/88 86/86/86
f 90/90/90 89/89/89 87/87/87
f 88/88/88 89/89/89 91/91/91
f 89/89/89 90/90/90 92/92/92
f 92/92/92 91/91/91 89/89/89
f 91/91/91 92/92/92 93/93/93
