g Sphere001
v 0.256993562 -0.0511187911 0.0859722868
v 0.262028247 4.19616697E-07 0.0859723091
v 0.291150182 4.38690165E-07 0.059218768
v 0.285555899 -0.0568001159 0.0592187494
v 0.24208276 -0.10027349 0.085972324
v 0.309083402 4.76837158E-07 0.030189475
v 0.268987834 -0.111417919 0.0592187494
v 0.217868701 -0.145574778 0.0859722719
v 0.303144544 -0.0602986701 0.0301894564
v 0.315138668 5.34057619E-07 0
v 0.24208276 -0.161753982 0.059218768
v 0.185282335 -0.185281634 0.085972324
v 0.285555959 -0.118280619 0.0301894564
v 0.309083462 -0.0614800267 0
v 0.309083402 4.57763662E-07 -0.0301894657
v 0.205874503 -0.205873922 0.0592187308
v 0.145575389 -0.217868268 0.0859722719
v 0.256993681 -0.171717107 0.0301894937
v 0.291150451 -0.120597854 3.81469718E-08
v 0.303144515 -0.0602987073 -0.0301894471
v 0.291150331 4.76837158E-07 -0.0592187494
v 0.161754623 -0.242082253 0.0592187494
v 0.100274175 -0.242082328 0.085972324
v 0.218555242 -0.218554601 0.0301894937
v 0.262028426 -0.175081268 -1.90734859E-08
v 0.285555959 -0.118280634 -0.0301894471
v 0.285555929 -0.0568001345 -0.0592187382
v 0.262028247 4.19616697E-07 -0.0859723389
v 0.256993562 -0.0511187911 -0.0859723389
v 0.268987864 -0.111417904 -0.0592187494
v 0.24208276 -0.10027349 -0.0859723389
v 0.111418702 -0.268987447 0.0592187308
v 0.0511195175 -0.256993294 0.0859723091
v 0.171717927 -0.256993115 0.0301894564
v 0.222837046 -0.222836331 0
v 0.256993741 -0.171717122 -0.0301894378
v 0.242082879 -0.161753997 -0.0592187382
v 0.217868701 -0.145574778 -0.0859723538
v 0.0568008982 -0.285555631 0.0592187494
v 3.62396236E-07 -0.262028128 0.0859723091
v 0.118281454 -0.285555542 0.0301895142
v 0.175082102 -0.262027919 1.90734859E-08
v 0.218555242 -0.218554571 -0.0301894285
v 0.205874577 -0.205873936 -0.0592187308
v 0.185282335 -0.185281634 -0.085972324
v 3.24249271E-07 -0.291150063 0.059218768
v -0.0511189066 -0.256993413 0.0859722868
v 0.060299471 -0.303144246 0.030189475
v 0.120598808 -0.291149944 -1.90734859E-08
v 0.171717972 -0.256993145 -0.0301894285
v 0.161754742 -0.242082223 -0.0592187382
v 0.145575389 -0.217868268 -0.0859723464
v -0.0568003058 -0.28555575 0.0592187494
v -0.100273572 -0.242082521 0.0859723613
v 3.62396236E-07 -0.309083253 0.030189475
v 0.0614808053 -0.309083194 1.90734859E-08
v 0.118281454 -0.285555571 -0.030189475
v 0.111418702 -0.268987477 -0.0592187382
v 0.100274175 -0.242082328 -0.085972324
v -0.111417994 -0.268987685 0.0592187308
v -0.145574853 -0.217868567 0.0859723613
v -0.0602988228 -0.303144306 0.0301894378
v 4.005432E-07 -0.315138549 0
v 0.0602994338 -0.303144246 -0.0301894285
v 0.0568009727 -0.285555661 -0.0592187382
v 0.0511195175 -0.256993294 -0.085972324
v -0.161754131 -0.242082551 0.0592187122
v -0.185281754 -0.185282022 0.0859722719
v -0.118280768 -0.28555581 0.0301894564
v -0.0614801981 -0.309083313 0
v 3.24249271E-07 -0.309083253 -0.0301895048
v 4.005432E-07 -0.291150093 -0.0592187494
v 3.62396236E-07 -0.262028128 -0.085972324
v -0.205874026 -0.205874324 0.0592187308
v -0.217868343 -0.145575151 0.085972324
v -0.171717227 -0.256993413 0.0301894937
v -0.120597951 -0.291150153 1.90734859E-08
v -0.0602988228 -0.303144336 -0.0301894378
v -0.0568002686 -0.28555575 -0.0592187382
v -0.0511189066 -0.256993413 -0.0859723389
v -0.242082357 -0.161754489 0.0592186712
v -0.242082387 -0.100273952 0.0859723836
v -0.218554705 -0.218554944 0.0301894937
v -0.175081447 -0.262028277 1.90734859E-08
v -0.118280768 -0.28555581 -0.0301894937
v -0.111417942 -0.268987715 -0.0592187569
v -0.100273572 -0.242082521 -0.085972324
v -0.268987507 -0.111418396 0.0592188053
v -0.256993294 -0.0511193089 0.0859723091
v -0.256993204 -0.171717599 0.0301895142
v -0.22283645 -0.222836778 -3.81469718E-08
v -0.171717256 -0.256993473 -0.0301894471
v -0.161754102 -0.242082566 -0.0592187755
v -0.145574853 -0.217868567 -0.0859723389
v -0.285555691 -0.0568006299 0.0592187308
v -0.262028128 -7.62939436E-08 0.0859723613
v -0.285555601 -0.118281208 0.0301894173
v -0.262028009 -0.175081789 5.72204577E-08
v -0.218554735 -0.218554944 -0.0301894173
v -0.205874026 -0.205874324 -0.0592187494
v -0.185281754 -0.185282022 -0.0859723538
v -0.291150063 -1.14440915E-07 0.0592187308
v -0.256993353 0.0511190593 0.0859723091
v -0.28555572 0.0568004027 0.0592187494
v -0.303144246 -0.0602992624 0.0301894564
v -0.309083253 -1.14440915E-07 0.0301894564
v -0.303144306 0.0602990501 0.030189475
v -0.291150004 -0.120598525 0
v -0.256993264 -0.171717644 -0.0301894844
v -0.242082343 -0.161754489 -0.0592187494
v -0.217868343 -0.145575151 -0.085972324
v -0.315138549 -1.52587887E-07 0
v -0.309083253 0.061480388 1.90734859E-08
v -0.309083223 -0.0614806749 -3.81469718E-08
v -0.285555631 -0.118281193 -0.030189475
v -0.268987536 -0.111418396 -0.0592187569
v -0.242082387 -0.100273952 -0.0859723389
v -0.303144276 -0.0602992438 -0.0301894471
v -0.309083253 -7.62939436E-08 -0.0301895048
v -0.303144336 0.0602990128 -0.0301894657
v -0.285555691 -0.0568006299 -0.0592187494
v -0.256993294 -0.0511193089 -0.0859723389
v -0.291150093 -9.5367426E-08 -0.0592187755
v -0.28555572 0.0568004772 -0.0592187867
v -0.262028128 -7.62939436E-08 -0.0859723389
v -0.256993353 0.0511190593 -0.0859723389
vt 0.920000196 1
vt 1 1
vt 1 0.843184531
vt 0.920000196 0.843184531
vt 0.862500191 1
vt 1 0.674547493
vt 0.862500191 0.843184531
vt 0.805000305 1
vt 0.920000196 0.674547493
vt 1 0.505910635
vt 0.805000305 0.843184531
vt 0.747500181 1
vt 0.862500191 0.674547493
vt 0.920000196 0.505910635
vt 1 0.337273836
vt 0.747500181 0.843184531
vt 0.690000176 1
vt 0.805000305 0.674547493
vt 0.862500191 0.505910635
vt 0.920000196 0.337273836
vt 1 0.168636873
vt 0.690000176 0.843184531
vt 0.632500172 1
vt 0.747500181 0.674547493
vt 0.805000305 0.505910635
vt 0.862500191 0.337273836
vt 0.920000196 0.168636873
vt 1 0
vt 0.920000196 0
vt 0.862500191 0.168636873
vt 0.862500191 0
vt 0.632500172 0.843184531
vt 0.575000167 1
vt 0.690000176 0.674547493
vt 0.747500181 0.505910635
vt 0.805000305 0.337273836
vt 0.805000305 0.168636873
vt 0.805000305 0
vt 0.575000167 0.843184531
vt 0.517500162 1
vt 0.632500172 0.674547493
vt 0.690000176 0.505910635
vt 0.747500181 0.337273836
vt 0.747500181 0.168636873
vt 0.747500181 0
vt 0.517500162 0.843184531
vt 0.460000068 1
vt 0.575000167 0.674547493
vt 0.632500172 0.505910635
vt 0.690000176 0.337273836
vt 0.690000176 0.168636873
vt 0.690000176 0
vt 0.460000068 0.843184531
vt 0.402500004 1
vt 0.517500162 0.674547493
vt 0.575000167 0.505910635
vt 0.632500172 0.337273836
vt 0.632500172 0.168636873
vt 0.632500172 0
vt 0.402500004 0.843184531
vt 0.344999999 1
vt 0.460000068 0.674547493
vt 0.517500162 0.505910635
vt 0.575000167 0.337273836
vt 0.575000167 0.168636873
vt 0.575000167 0
vt 0.344999999 0.843184531
vt 0.287499994 1
vt 0.402500004 0.674547493
vt 0.460000068 0.505910635
vt 0.517500162 0.337273836
vt 0.517500162 0.168636873
vt 0.517500162 0
vt 0.287499994 0.843184531
vt 0.229999989 1
vt 0.344999999 0.674547493
vt 0.402500004 0.505910635
vt 0.460000068 0.337273836
vt 0.460000068 0.168636873
vt 0.460000068 0
vt 0.229999989 0.843184531
vt 0.172499985 1
vt 0.287499994 0.674547493
vt 0.344999999 0.505910635
vt 0.402500004 0.337273836
vt 0.402500004 0.168636873
vt 0.402500004 0
vt 0.172499985 0.843184531
vt 0.11499998 1
vt 0.229999989 0.674547493
vt 0.287499994 0.505910635
vt 0.344999999 0.337273836
vt 0.344999999 0.168636873
vt 0.344999999 0
vt 0.11499998 0.843184531
vt 0.0575000048 1
vt 0.172499985 0.674547493
vt 0.229999989 0.505910635
vt 0.287499994 0.337273836
vt 0.287499994 0.168636873
vt 0.287499994 0
vt 0.0575000048 0.843184531
vt 0 1
vt 0 0.843184531
vt 0.11499998 0.674547493
vt 0.0575000048 0.674547493
vt 0 0.674547493
vt 0.172499985 0.505910635
vt 0.229999989 0.337273836
vt 0.229999989 0.168636873
vt 0.229999989 0
vt 0.0575000048 0.505910635
vt 0 0.505910635
vt 0.11499998 0.505910635
vt 0.172499985 0.337273836
vt 0.172499985 0.168636873
vt 0.172499985 0
vt 0.11499998 0.337273836
vt 0.0575000048 0.337273836
vt 0 0.337273836
vt 0.11499998 0.168636873
vt 0.11499998 0
vt 0.0575000048 0.168636873
vt 0 0.168636873
vt 0.0575000048 0
vt 0 0
vn 0.6635288 -0.131982684 0.736417055
vn 0.67503047 -0.0664832592 0.734788239
vn 0.772062182 -0.0760404766 0.630981565
vn 0.759426534 -0.151058361 0.632813394
vn 0.625031173 -0.258896321 0.736416101
vn 0.927821815 -0.0913814157 0.361657321
vn 0.715364575 -0.296312809 0.632813096
vn 0.562512755 -0.375856847 0.736417651
vn 0.913817525 -0.181768566 0.363177121
vn 0.995184839 -0.0980158299 1.27318287E-07
vn 0.643811107 -0.430179268 0.632813692
vn 0.478378296 -0.478378177 0.736415982
vn 0.860797167 -0.356552064 0.363178819
vn 0.980785549 -0.195088744 -1.04561622E-07
vn 0.927822351 -0.0913817585 -0.36165607
vn 0.547516286 -0.54751575 0.632813096
vn 0.375859499 -0.562511742 0.736417055
vn 0.774697423 -0.517635107 0.363177419
vn 0.9238801 -0.382681906 3.17375623E-07
vn 0.913817585 -0.181768641 -0.363176942
vn 0.77206248 -0.0760417357 -0.630981028
vn 0.430181056 -0.643809617 0.632813931
vn 0.258896708 -0.625029981 0.736416996
vn 0.658826172 -0.658824265 0.363178492
vn 0.831470191 -0.555569351 1.02101318E-07
vn 0.860797167 -0.35655272 -0.363178164
vn 0.759426832 -0.151058897 -0.632812858
vn 0.675030053 -0.0664843321 -0.734788537
vn 0.663529277 -0.131982863 -0.736416578
vn 0.715365112 -0.296312243 -0.632812619
vn 0.625031292 -0.25889498 -0.736416459
vn 0.29631418 -0.715363622 0.632813394
vn 0.131984681 -0.663528442 0.736417055
vn 0.517636716 -0.774695933 0.363178313
vn 0.707107842 -0.707105637 -3.06304202E-07
vn 0.774698138 -0.517634928 -0.363176048
vn 0.643811524 -0.430179834 -0.632812858
vn 0.562511921 -0.375858217 -0.736417592
vn 0.151060075 -0.759426177 0.632813334
vn 9.46430703E-07 -0.676527262 0.736417592
vn 0.356554389 -0.860796452 0.363178253
vn 0.555571496 -0.831468821 5.3880018E-07
vn 0.658826232 -0.658824682 -0.363177478
vn 0.547517002 -0.54751575 -0.632812381
vn 0.478378892 -0.478377104 -0.73641628
vn 7.46820092E-07 -0.77430433 0.632813334
vn -0.131983101 -0.663528383 0.736417413
vn 0.18177022 -0.913817108 0.363177419
vn 0.382684082 -0.923879325 0
vn 0.517637134 -0.774696052 -0.363177449
vn 0.430181086 -0.643810153 -0.632813275
vn 0.375858992 -0.562512219 -0.736416996
vn -0.151059046 -0.759426951 0.632812679
vn -0.258895457 -0.625031054 0.736416578
vn 5.83008955E-07 -0.931720138 0.363176972
vn 0.195090994 -0.980785131 1.18093141E-07
vn 0.356554091 -0.86079675 -0.363177955
vn 0.29631415 -0.715363801 -0.632813036
vn 0.25889653 -0.625029802 -0.736417294
vn -0.29631272 -0.715364754 0.632812858
vn -0.37585929 -0.562513232 0.736416042
vn -0.181768581 -0.913817525 0.363177389
vn 9.90260332E-07 -1 2.28805476E-07
vn 0.181770325 -0.913817406 -0.363176644
vn 0.151060477 -0.759426534 -0.632812858
vn 0.131984696 -0.663528085 -0.736417413
vn -0.43018043 -0.643811226 0.632812679
vn -0.478377134 -0.478377819 0.736416936
vn -0.356553137 -0.860797465 0.36317721
vn -0.195089489 -0.980785429 2.26345279E-07
vn 5.81786821E-07 -0.931720138 -0.36317724
vn 5.70386874E-07 -0.77430433 -0.632813334
vn 5.90809123E-07 -0.676527739 -0.736417234
vn -0.547515392 -0.547516465 0.632813215
vn -0.5625121 -0.375859648 0.736416757
vn -0.517634988 -0.774697065 0.363178194
vn -0.382682264 -0.923880041 3.54279337E-07
vn -0.18176876 -0.913817525 -0.363177299
vn -0.151058525 -0.759426951 -0.632812798
vn -0.131983265 -0.663529038 -0.736416698
vn -0.643810391 -0.430181324 0.632812977
vn -0.625030339 -0.258896351 0.736416817
vn -0.658824801 -0.658825874 0.363178074
vn -0.55556947 -0.831470132 9.74269028E-07
vn -0.356552869 -0.860797524 -0.36317721
vn -0.296312511 -0.715364337 -0.632813513
vn -0.258895338 -0.625030279 -0.736417294
vn -0.715364337 -0.296313673 0.632812798
vn -0.663528442 -0.131984428 0.736416996
vn -0.774696469 -0.517636359 0.363177747
vn -0.707106292 -0.707107246 -1.98052149E-07
vn -0.517635405 -0.774697185 -0.363177478
vn -0.430180043 -0.643811226 -0.632812917
vn -0.375858039 -0.562512696 -0.736417055
vn -0.759426653 -0.151059568 0.632812858
vn -0.676528335 1.28387413E-07 0.736416638
vn -0.860796809 -0.356554091 0.363177478
vn -0.83146894 -0.555571198 1.16493948E-06
vn -0.658825099 -0.658825874 -0.363177449
vn -0.54751569 -0.547516882 -0.632812619
vn -0.478377312 -0.478378236 -0.736416638
vn -0.774304748 -2.67670856E-07 0.632812858
vn -0.675031006 0.0664847866 0.734787703
vn -0.77206248 0.0760411099 0.630981147
vn -0.913817108 -0.181769952 0.363177717
vn -0.931720018 -4.56506996E-07 0.363177508
vn -0.927821636 0.091382131 0.361657709
vn -0.923879325 -0.382684082 7.54074279E-07
vn -0.774696469 -0.517636955 -0.363176793
vn -0.643810213 -0.430180818 -0.632813454
vn -0.56251204 -0.375858456 -0.736417353
vn -1 -5.3572478E-07 3.78882248E-07
vn -0.99518472 0.098017022 4.62752951E-07
vn -0.980785251 -0.195090756 0
vn -0.860796809 -0.356553763 -0.363178015
vn -0.71536386 -0.296313554 -0.632813394
vn -0.625030041 -0.25889647 -0.736416936
vn -0.913817227 -0.181769937 -0.363177389
vn -0.931720138 -2.71948664E-07 -0.363177121
vn -0.927821815 0.0913824216 -0.361657172
vn -0.759426594 -0.151059911 -0.632812858
vn -0.663528264 -0.131984547 -0.736417294
vn -0.77430433 -2.96069459E-07 -0.632813394
vn -0.77206248 0.0760414228 -0.630981147
vn -0.676527202 -1.88604389E-07 -0.736417651
vn -0.675030291 0.0664846227 -0.734788299
g Sphere001_0
f 3/3/3 2/2/2 1/1/1
f 4/4/4 3/3/3 1/1/1
f 4/4/4 1/1/1 5/5/5
f 6/6/6 3/3/3 4/4/4
f 7/7/7 4/4/4 5/5/5
f 7/7/7 5/5/5 8/8/8
f 9/9/9 6/6/6 4/4/4
f 9/9/9 4/4/4 7/7/7
f 10/10/10 6/6/6 9/9/9
f 11/11/11 7/7/7 8/8/8
f 11/11/11 8/8/8 12/12/12
f 13/13/13 9/9/9 7/7/7
f 13/13/13 7/7/7 11/11/11
f 14/14/14 10/10/10 9/9/9
f 14/14/14 9/9/9 13/13/13
f 15/15/15 10/10/10 14/14/14
f 16/16/16 11/11/11 12/12/12
f 16/16/16 12/12/12 17/17/17
f 18/18/18 13/13/13 11/11/11
f 18/18/18 11/11/11 16/16/16
f 19/19/19 14/14/14 13/13/13
f 19/19/19 13/13/13 18/18/18
f 20/20/20 15/15/15 14/14/14
f 20/20/20 14/14/14 19/19/19
f 21/21/21 15/15/15 20/20/20
f 22/22/22 16/16/16 17/17/17
f 22/22/22 17/17/17 23/23/23
f 24/24/24 18/18/18 16/16/16
f 24/24/24 16/16/16 22/22/22
f 25/25/25 19/19/19 18/18/18
f 25/25/25 18/18/18 24/24/24
f 26/26/26 20/20/20 19/19/19
f 26/26/26 19/19/19 25/25/25
f 27/27/27 21/21/21 20/20/20
f 27/27/27 20/20/20 26/26/26
f 28/28/28 21/21/21 27/27/27
f 29/29/29 28/28/28 27/27/27
f 29/29/29 27/27/27 30/30/30
f 30/30/30 27/27/27 26/26/26
f 31/31/31 29/29/29 30/30/30
f 32/32/32 22/22/22 23/23/23
f 32/32/32 23/23/23 33/33/33
f 34/34/34 24/24/24 22/22/22
f 34/34/34 22/22/22 32/32/32
f 35/35/35 25/25/25 24/24/24
f 35/35/35 24/24/24 34/34/34
f 36/36/36 26/26/26 25/25/25
f 30/30/30 26/26/26 36/36/36
f 36/36/36 25/25/25 35/35/35
f 31/31/31 30/30/30 37/37/37
f 37/37/37 30/30/30 36/36/36
f 38/38/38 31/31/31 37/37/37
f 39/39/39 32/32/32 33/33/33
f 39/39/39 33/33/33 40/40/40
f 41/41/41 34/34/34 32/32/32
f 41/41/41 32/32/32 39/39/39
f 42/42/42 35/35/35 34/34/34
f 42/42/42 34/34/34 41/41/41
f 43/43/43 36/36/36 35/35/35
f 37/37/37 36/36/36 43/43/43
f 43/43/43 35/35/35 42/42/42
f 38/38/38 37/37/37 44/44/44
f 44/44/44 37/37/37 43/43/43
f 45/45/45 38/38/38 44/44/44
f 46/46/46 39/39/39 40/40/40
f 46/46/46 40/40/40 47/47/47
f 48/48/48 41/41/41 39/39/39
f 48/48/48 39/39/39 46/46/46
f 49/49/49 42/42/42 41/41/41
f 49/49/49 41/41/41 48/48/48
f 50/50/50 43/43/43 42/42/42
f 44/44/44 43/43/43 50/50/50
f 50/50/50 42/42/42 49/49/49
f 45/45/45 44/44/44 51/51/51
f 51/51/51 44/44/44 50/50/50
f 52/52/52 45/45/45 51/51/51
f 53/53/53 46/46/46 47/47/47
f 53/53/53 47/47/47 54/54/54
f 55/55/55 48/48/48 46/46/46
f 55/55/55 46/46/46 53/53/53
f 56/56/56 49/49/49 48/48/48
f 56/56/56 48/48/48 55/55/55
f 57/57/57 50/50/50 49/49/49
f 51/51/51 50/50/50 57/57/57
f 57/57/57 49/49/49 56/56/56
f 52/52/52 51/51/51 58/58/58
f 58/58/58 51/51/51 57/57/57
f 59/59/59 52/52/52 58/58/58
f 60/60/60 53/53/53 54/54/54
f 60/60/60 54/54/54 61/61/61
f 62/62/62 55/55/55 53/53/53
f 62/62/62 53/53/53 60/60/60
f 63/63/63 56/56/56 55/55/55
f 63/63/63 55/55/55 62/62/62
f 64/64/64 57/57/57 56/56/56
f 58/58/58 57/57/57 64/64/64
f 64/64/64 56/56/56 63/63/63
f 59/59/59 58/58/58 65/65/65
f 65/65/65 58/58/58 64/64/64
f 66/66/66 59/59/59 65/65/65
f 67/67/67 60/60/60 61/61/61
f 67/67/67 61/61/61 68/68/68
f 69/69/69 62/62/62 60/60/60
f 69/69/69 60/60/60 67/67/67
f 70/70/70 63/63/63 62/62/62
f 70/70/70 62/62/62 69/69/69
f 71/71/71 64/64/64 63/63/63
f 65/65/65 64/64/64 71/71/71
f 71/71/71 63/63/63 70/70/70
f 66/66/66 65/65/65 72/72/72
f 72/72/72 65/65/65 71/71/71
f 73/73/73 66/66/66 72/72/72
f 74/74/74 67/67/67 68/68/68
f 74/74/74 68/68/68 75/75/75
f 76/76/76 69/69/69 67/67/67
f 76/76/76 67/67/67 74/74/74
f 77/77/77 70/70/70 69/69/69
f 77/77/77 69/69/69 76/76/76
f 78/78/78 71/71/71 70/70/70
f 72/72/72 71/71/71 78/78/78
f 78/78/78 70/70/70 77/77/77
f 73/73/73 72/72/72 79/79/79
f 79/79/79 72/72/72 78/78/78
f 80/80/80 73/73/73 79/79/79
f 81/81/81 74/74/74 75/75/75
f 81/81/81 75/75/75 82/82/82
f 83/83/83 76/76/76 74/74/74
f 83/83/83 74/74/74 81/81/81
f 84/84/84 77/77/77 76/76/76
f 84/84/84 76/76/76 83/83/83
f 85/85/85 78/78/78 77/77/77
f 79/79/79 78/78/78 85/85/85
f 85/85/85 77/77/77 84/84/84
f 80/80/80 79/79/79 86/86/86
f 86/86/86 79/79/79 85/85/85
f 87/87/87 80/80/80 86/86/86
f 88/88/88 81/81/81 82/82/82
f 88/88/88 82/82/82 89/89/89
f 90/90/90 83/83/83 81/81/81
f 90/90/90 81/81/81 88/88/88
f 91/91/91 84/84/84 83/83/83
f 91/91/91 83/83/83 90/90/90
f 92/92/92 85/85/85 84/84/84
f 86/86/86 85/85/85 92/92/92
f 92/92/92 84/84/84 91/91/91
f 87/87/87 86/86/86 93/93/93
f 93/93/93 86/86/86 92/92/92
f 94/94/94 87/87/87 93/93/93
f 95/95/95 88/88/88 89/89/89
f 95/95/95 89/89/89 96/96/96
f 97/97/97 90/90/90 88/88/88
f 97/97/97 88/88/88 95/95/95
f 98/98/98 91/91/91 90/90/90
f 98/98/98 90/90/90 97/97/97
f 99/99/99 92/92/92 91/91/91
f 93/93/93 92/92/92 99/99/99
f 99/99/99 91/91/91 98/98/98
f 94/94/94 93/93/93 100/100/100
f 100/100/100 93/93/93 99/99/99
f 101/101/101 94/94/94 100/100/100
f 102/102/102 95/95/95 96/96/96
f 102/102/102 96/96/96 103/103/103
f 104/104/104 102/102/102 103/103/103
f 105/105/105 97/97/97 95/95/95
f 105/105/105 95/95/95 102/102/102
f 106/106/106 102/102/102 104/104/104
f 106/106/106 105/105/105 102/102/102
f 107/107/107 106/106/106 104/104/104
f 108/108/108 98/98/98 97/97/97
f 108/108/108 97/97/97 105/105/105
f 109/109/109 99/99/99 98/98/98
f 100/100/100 99/99/99 109/109/109
f 109/109/109 98/98/98 108/108/108
f 101/101/101 100/100/100 110/110/110
f 110/110/110 100/100/100 109/109/109
f 111/111/111 101/101/101 110/110/110
f 112/112/112 106/106/106 107/107/107
f 113/113/113 112/112/112 107/107/107
f 114/114/114 105/105/105 106/106/106
f 114/114/114 108/108/108 105/105/105
f 112/112/112 114/114/114 106/106/106
f 115/115/115 109/109/109 108/108/108
f 110/110/110 109/109/109 115/115/115
f 115/115/115 108/108/108 114/114/114
f 111/111/111 110/110/110 116/116/116
f 116/116/116 110/110/110 115/115/115
f 117/117/117 111/111/111 116/116/116
f 118/118/118 115/115/115 114/114/114
f 118/118/118 114/114/114 112/112/112
f 116/116/116 115/115/115 118/118/118
f 119/119/119 112/112/112 113/113/113
f 119/119/119 118/118/118 112/112/112
f 120/120/120 119/119/119 113/113/113
f 117/117/117 116/116/116 121/121/121
f 121/121/121 116/116/116 118/118/118
f 121/121/121 118/118/118 119/119/119
f 122/122/122 117/117/117 121/121/121
f 123/123/123 119/119/119 120/120/120
f 123/123/123 121/121/121 119/119/119
f 122/122/122 121/121/121 123/123/123
f 124/124/124 123/123/123 120/120/120
f 125/125/125 122/122/122 123/123/123
f 125/125/125 123/123/123 124/124/124
f 126/126/126 125/125/125 124/124/124
