g LiShiMin_Eye
v -0.177719563 -0.152245075 6.62140846
v -0.179011717 -0.180713415 6.61538076
v -0.146926492 -0.178358912 6.58781099
v -0.142502412 -0.150209218 6.59117174
v -0.189655617 -0.164808989 6.66395473
v -0.106327884 -0.186790749 6.58198214
v -0.0982536077 -0.159402266 6.58481312
v -0.189597428 -0.192649603 6.65424013
v -0.1718169 -0.180954427 6.70311403
v -0.0719136968 -0.201763988 6.60038853
v -0.0606825203 -0.175748587 6.60490608
v -0.173501432 -0.20692727 6.69024086
v -0.13320151 -0.196861371 6.72332001
v -0.0567578115 -0.217570677 6.635993
v -0.0441363752 -0.193005025 6.64377546
v -0.138368398 -0.221059665 6.70886326
v -0.0889535993 -0.206054658 6.71696138
v -0.0666489974 -0.228174046 6.67519808
v -0.0549349524 -0.204581469 6.68657827
v -0.0978092998 -0.229523316 6.70302773
v -0.115683228 -0.212999433 6.58897829
v -0.0891163722 -0.224558145 6.60318565
v -0.0774163529 -0.236760616 6.63067245
v -0.0850522816 -0.244945839 6.66093731
v -0.109107032 -0.245987758 6.68242168
v -0.140296742 -0.239392802 6.6869421
v -0.146945894 -0.206463233 6.59348488
v -0.166793153 -0.228526816 6.67255497
v -0.171060428 -0.208301127 6.61476183
v -0.178678781 -0.217325687 6.64480925
v -0.108292326 -0.245224431 6.63040447
v -0.111818463 -0.249004439 6.64439297
v -0.132938668 -0.246053323 6.63130236
v -0.113697015 -0.239582002 6.61770248
v -0.122910246 -0.249463513 6.65432835
v -0.125952885 -0.234219819 6.61114073
v -0.137207076 -0.246384114 6.65642691
v -0.140285209 -0.231168568 6.61323023
v -0.149274886 -0.241215974 6.64981508
v -0.15121913 -0.231845826 6.62310982
v -0.154628813 -0.235807315 6.63705111
v 0.1718169 -0.180954427 6.70311403
v 0.189655617 -0.164808989 6.66395473
v 0.189597428 -0.192649603 6.65424013
v 0.173501432 -0.20692727 6.69024086
v 0.13320151 -0.196861371 6.72332001
v 0.179011717 -0.180713415 6.61538076
v 0.177719563 -0.152245075 6.62140846
v 0.138368398 -0.221059665 6.70886326
v 0.0889535993 -0.206054658 6.71696138
v 0.146926492 -0.178358912 6.58781099
v 0.142502412 -0.150209218 6.59117174
v 0.0978092998 -0.229523316 6.70302773
v 0.0549349524 -0.204581469 6.68657827
v 0.106327884 -0.186790749 6.58198214
v 0.0982536077 -0.159402266 6.58481312
v 0.0666489974 -0.228174046 6.67519808
v 0.0441363752 -0.193005025 6.64377546
v 0.0719136968 -0.201763988 6.60038853
v 0.0606825203 -0.175748587 6.60490608
v 0.0567578115 -0.217570677 6.635993
v 0.171060428 -0.208301127 6.61476183
v 0.146945894 -0.206463233 6.59348488
v 0.115683228 -0.212999433 6.58897829
v 0.0891163722 -0.224558145 6.60318565
v 0.0774163529 -0.236760616 6.63067245
v 0.0850522816 -0.244945839 6.66093731
v 0.178678781 -0.217325687 6.64480925
v 0.109107032 -0.245987758 6.68242168
v 0.166793153 -0.228526816 6.67255497
v 0.140296742 -0.239392802 6.6869421
v 0.113697015 -0.239582002 6.61770248
v 0.108292326 -0.245224431 6.63040447
v 0.132938668 -0.246053323 6.63130236
v 0.125952885 -0.234219819 6.61114073
v 0.111818463 -0.249004439 6.64439297
v 0.122910246 -0.249463513 6.65432835
v 0.140285209 -0.231168568 6.61323023
v 0.137207076 -0.246384114 6.65642691
v 0.15121913 -0.231845826 6.62310982
v 0.149274886 -0.241215974 6.64981508
v 0.154628813 -0.235807315 6.63705111
vt 0.916954994 0.251771003
vt 0.830690026 0.305628508
vt 0.652455986 0.151939005
vt 0.691416979 0.0540979989
vt 0.983228981 0.544264019
vt 0.418760508 0.136920005
vt 0.392764986 0.0267459992
vt 0.882482529 0.536527514
vt 0.864920974 0.819845974
vt 0.216258004 0.249178991
vt 0.135074005 0.180159003
vt 0.788398504 0.754051507
vt 0.607226014 0.973255992
vt 0.129585996 0.465063512
vt 0.0167709999 0.455736995
vt 0.584473968 0.874786019
vt 0.308575004 0.94589901
vt 0.17403999 0.694878995
vt 0.0830420032 0.748224974
vt 0.348921001 0.852473497
vt 0.451207012 0.26869899
vt 0.321934015 0.340086997
vt 0.266355991 0.478509009
vt 0.293002993 0.628103018
vt 0.403798997 0.731729984
vt 0.556653976 0.747000992
vt 0.603120983 0.278908014
vt 0.690060973 0.668578029
vt 0.718981981 0.376708001
vt 0.75216502 0.526786983
vt 0.400225043 0.495405018
vt 0.41321823 0.561047554
vt 0.505824029 0.504918993
vt 0.426646262 0.434724271
vt 0.461754799 0.605932295
vt 0.483550131 0.40212208
vt 0.528068185 0.612771988
vt 0.550246835 0.408884823
vt 0.586286843 0.578914165
vt 0.599951744 0.452671796
vt 0.613626003 0.517614722
vt 0.864920974 0.819845974
vt 0.983228981 0.544264019
vt 0.882482529 0.536527514
vt 0.788398504 0.754051507
vt 0.607226014 0.973255992
vt 0.830690026 0.305628508
vt 0.916954994 0.251771003
vt 0.584473968 0.874786019
vt 0.308575004 0.94589901
vt 0.652455986 0.151939005
vt 0.691416979 0.0540979989
vt 0.348921001 0.852473497
vt 0.0830420032 0.748224974
vt 0.418760508 0.136920005
vt 0.392764986 0.0267459992
vt 0.17403999 0.694878995
vt 0.0167709999 0.455736995
vt 0.216258004 0.249178991
vt 0.135074005 0.180159003
vt 0.129585996 0.465063512
vt 0.718981981 0.376708001
vt 0.603120983 0.278908014
vt 0.451207012 0.26869899
vt 0.321934015 0.340086997
vt 0.266355991 0.478509009
vt 0.293002993 0.628103018
vt 0.75216502 0.526786983
vt 0.403798997 0.731729984
vt 0.690060973 0.668578029
vt 0.556653976 0.747000992
vt 0.426646262 0.434724271
vt 0.400225043 0.495405018
vt 0.505824029 0.504918993
vt 0.483550131 0.40212208
vt 0.41321823 0.561047554
vt 0.461754799 0.605932295
vt 0.550246835 0.408884823
vt 0.528068185 0.612771988
vt 0.599951744 0.452671796
vt 0.586286843 0.578914165
vt 0.613626003 0.517614722
vn -0.844116211 0.145358279 -0.51608026
vn -0.841134667 -0.0246176608 -0.540265143
vn -0.417213082 0.00717110792 -0.908780336
vn -0.396031976 0.16888389 -0.902572393
vn -0.997665763 -0.0194249507 0.065465875
vn 0.132196307 -0.106453031 -0.98549068
vn 0.180098221 0.0484812595 -0.982453108
vn -0.981853068 -0.18955335 0.00583393313
vn -0.765859485 -0.246216729 0.594000518
vn 0.604732633 -0.311952621 -0.732791901
vn 0.676828086 -0.167721167 -0.716780007
vn -0.766284764 -0.39321503 0.508123696
vn -0.274552226 -0.449738562 0.849915504
vn 0.812817812 -0.528977633 -0.243946418
vn 0.895616829 -0.395900995 -0.202812135
vn -0.301502198 -0.580506504 0.75637871
vn 0.302907407 -0.568548799 0.764852524
vn 0.677016258 -0.674554408 0.294321805
vn 0.752838731 -0.548963189 0.363143593
vn 0.248834565 -0.693282068 0.676344156
vn -0.00175034453 -0.476456046 -0.879196584
vn 0.357355654 -0.631243646 -0.688351989
vn 0.516954958 -0.79492259 -0.317578018
vn 0.415481985 -0.90487808 0.0925768316
vn 0.0890299976 -0.918673992 0.384852886
vn -0.327910483 -0.833135486 0.445376307
vn -0.414606661 -0.391734987 -0.821367741
vn -0.671711326 -0.696464956 0.252468526
vn -0.725993812 -0.421315521 -0.543531239
vn -0.826025248 -0.548125386 -0.131304443
vn 0.157769263 -0.92814523 -0.337127984
vn 0.101123944 -0.988551855 -0.111978389
vn -0.23408328 -0.920209646 -0.313718557
vn 0.0701862499 -0.837986887 -0.541157901
vn -0.0799491778 -0.995625079 0.0483606197
vn -0.128470719 -0.752440751 -0.646009564
vn -0.306530386 -0.948304236 0.0822076201
vn -0.353229016 -0.705527306 -0.614378154
vn -0.490622073 -0.871104538 -0.0216085017
vn -0.52032119 -0.718963385 -0.460822672
vn -0.573186398 -0.786001623 -0.231643602
vn 0.765859365 -0.24621667 0.594000578
vn 0.997665763 -0.0194249321 0.0654659122
vn 0.981853068 -0.18955335 0.00583393825
vn 0.766284764 -0.39321503 0.508123696
vn 0.274552226 -0.449738562 0.849915504
vn 0.841134667 -0.0246176515 -0.540265143
vn 0.844116211 0.145358279 -0.51608026
vn 0.301502198 -0.580506504 0.75637871
vn -0.302907437 -0.568548858 0.764852524
vn 0.417213082 0.00717111584 -0.908780336
vn 0.396031976 0.16888389 -0.902572393
vn -0.248834565 -0.693282068 0.676344037
vn -0.752838731 -0.548963189 0.363143593
vn -0.132196307 -0.106453031 -0.98549068
vn -0.180098221 0.0484812595 -0.982453108
vn -0.677016258 -0.674554408 0.294321805
vn -0.895616829 -0.395900995 -0.202812135
vn -0.604732633 -0.311952621 -0.732791901
vn -0.676828086 -0.167721167 -0.716780007
vn -0.812817812 -0.528977633 -0.243946418
vn 0.725993812 -0.421315521 -0.543531239
vn 0.41460669 -0.391734958 -0.8213678
vn 0.00175033428 -0.476456106 -0.879196584
vn -0.357355595 -0.631243587 -0.688351989
vn -0.516954958 -0.79492259 -0.317578018
vn -0.415481985 -0.90487808 0.0925768316
vn 0.826025248 -0.548125386 -0.131304458
vn -0.0890299901 -0.918673992 0.384852886
vn 0.671711326 -0.696464956 0.252468526
vn 0.327910483 -0.833135486 0.445376307
vn -0.0701862425 -0.837986887 -0.541157901
vn -0.157769233 -0.92814523 -0.337127984
vn 0.23408328 -0.920209646 -0.313718557
vn 0.128470704 -0.752440751 -0.646009564
vn -0.101123936 -0.988551855 -0.111978389
vn 0.0799491853 -0.995625079 0.0483606197
vn 0.353229016 -0.705527306 -0.614378154
vn 0.306530386 -0.948304236 0.0822076201
vn 0.52032119 -0.718963444 -0.460822582
vn 0.490622073 -0.871104538 -0.0216085017
vn 0.573186457 -0.786001623 -0.231643602
g LiShiMin_Eye_0
f 3/3/3 2/2/2 1/1/1
f 4/4/4 3/3/3 1/1/1
f 1/1/1 2/2/2 5/5/5
f 6/6/6 3/3/3 4/4/4
f 7/7/7 6/6/6 4/4/4
f 2/2/2 8/8/8 5/5/5
f 5/5/5 8/8/8 9/9/9
f 10/10/10 6/6/6 7/7/7
f 11/11/11 10/10/10 7/7/7
f 8/8/8 12/12/12 9/9/9
f 9/9/9 12/12/12 13/13/13
f 14/14/14 10/10/10 11/11/11
f 15/15/15 14/14/14 11/11/11
f 12/12/12 16/16/16 13/13/13
f 13/13/13 16/16/16 17/17/17
f 18/18/18 14/14/14 15/15/15
f 19/19/19 18/18/18 15/15/15
f 17/17/17 20/20/20 19/19/19
f 16/16/16 20/20/20 17/17/17
f 20/20/20 18/18/18 19/19/19
f 21/21/21 6/6/6 10/10/10
f 22/22/22 10/10/10 14/14/14
f 22/22/22 21/21/21 10/10/10
f 23/23/23 14/14/14 18/18/18
f 23/23/23 22/22/22 14/14/14
f 24/24/24 18/18/18 20/20/20
f 24/24/24 23/23/23 18/18/18
f 25/25/25 20/20/20 16/16/16
f 25/25/25 24/24/24 20/20/20
f 26/26/26 16/16/16 12/12/12
f 26/26/26 25/25/25 16/16/16
f 21/21/21 27/27/27 6/6/6
f 27/27/27 3/3/3 6/6/6
f 28/28/28 26/26/26 12/12/12
f 28/28/28 12/12/12 8/8/8
f 27/27/27 29/29/29 3/3/3
f 29/29/29 2/2/2 3/3/3
f 30/30/30 8/8/8 2/2/2
f 30/30/30 28/28/28 8/8/8
f 29/29/29 30/30/30 2/2/2
f 31/31/31 23/23/23 24/24/24
f 32/32/32 24/24/24 25/25/25
f 32/32/32 31/31/31 24/24/24
f 32/32/32 33/33/33 31/31/31
f 31/31/31 33/33/33 34/34/34
f 31/31/31 34/34/34 23/23/23
f 35/35/35 33/33/33 32/32/32
f 35/35/35 32/32/32 25/25/25
f 34/34/34 22/22/22 23/23/23
f 35/35/35 25/25/25 26/26/26
f 34/34/34 36/36/36 22/22/22
f 34/34/34 33/33/33 36/36/36
f 36/36/36 21/21/21 22/22/22
f 37/37/37 35/35/35 26/26/26
f 37/37/37 33/33/33 35/35/35
f 37/37/37 26/26/26 28/28/28
f 36/36/36 38/38/38 21/21/21
f 36/36/36 33/33/33 38/38/38
f 38/38/38 27/27/27 21/21/21
f 39/39/39 37/37/37 28/28/28
f 39/39/39 33/33/33 37/37/37
f 39/39/39 28/28/28 30/30/30
f 38/38/38 40/40/40 27/27/27
f 38/38/38 33/33/33 40/40/40
f 40/40/40 29/29/29 27/27/27
f 41/41/41 39/39/39 30/30/30
f 41/41/41 33/33/33 39/39/39
f 41/41/41 30/30/30 29/29/29
f 40/40/40 41/41/41 29/29/29
f 40/40/40 33/33/33 41/41/41
f 44/44/44 43/43/43 42/42/42
f 45/45/45 44/44/44 42/42/42
f 45/45/45 42/42/42 46/46/46
f 44/44/44 47/47/47 43/43/43
f 47/47/47 48/48/48 43/43/43
f 49/49/49 45/45/45 46/46/46
f 49/49/49 46/46/46 50/50/50
f 47/47/47 51/51/51 48/48/48
f 51/51/51 52/52/52 48/48/48
f 53/53/53 49/49/49 50/50/50
f 53/53/53 50/50/50 54/54/54
f 51/51/51 55/55/55 52/52/52
f 55/55/55 56/56/56 52/52/52
f 57/57/57 53/53/53 54/54/54
f 57/57/57 54/54/54 58/58/58
f 55/55/55 59/59/59 56/56/56
f 59/59/59 60/60/60 56/56/56
f 61/61/61 58/58/58 60/60/60
f 61/61/61 57/57/57 58/58/58
f 59/59/59 61/61/61 60/60/60
f 51/51/51 47/47/47 62/62/62
f 55/55/55 51/51/51 63/63/63
f 63/63/63 51/51/51 62/62/62
f 59/59/59 55/55/55 64/64/64
f 64/64/64 55/55/55 63/63/63
f 61/61/61 59/59/59 65/65/65
f 65/65/65 59/59/59 64/64/64
f 57/57/57 61/61/61 66/66/66
f 66/66/66 61/61/61 65/65/65
f 53/53/53 57/57/57 67/67/67
f 67/67/67 57/57/57 66/66/66
f 62/62/62 47/47/47 68/68/68
f 47/47/47 44/44/44 68/68/68
f 69/69/69 53/53/53 67/67/67
f 49/49/49 53/53/53 69/69/69
f 68/68/68 44/44/44 70/70/70
f 44/44/44 45/45/45 70/70/70
f 45/45/45 49/49/49 71/71/71
f 71/71/71 49/49/49 69/69/69
f 70/70/70 45/45/45 71/71/71
f 66/66/66 65/65/65 72/72/72
f 67/67/67 66/66/66 73/73/73
f 73/73/73 66/66/66 72/72/72
f 74/74/74 73/73/73 72/72/72
f 74/74/74 72/72/72 75/75/75
f 72/72/72 65/65/65 75/75/75
f 74/74/74 76/76/76 73/73/73
f 76/76/76 67/67/67 73/73/73
f 69/69/69 67/67/67 76/76/76
f 65/65/65 64/64/64 75/75/75
f 77/77/77 69/69/69 76/76/76
f 71/71/71 69/69/69 77/77/77
f 74/74/74 77/77/77 76/76/76
f 75/75/75 64/64/64 78/78/78
f 74/74/74 75/75/75 78/78/78
f 64/64/64 63/63/63 78/78/78
f 79/79/79 71/71/71 77/77/77
f 70/70/70 71/71/71 79/79/79
f 74/74/74 79/79/79 77/77/77
f 78/78/78 63/63/63 80/80/80
f 74/74/74 78/78/78 80/80/80
f 63/63/63 62/62/62 80/80/80
f 81/81/81 70/70/70 79/79/79
f 74/74/74 81/81/81 79/79/79
f 68/68/68 70/70/70 81/81/81
f 80/80/80 62/62/62 82/82/82
f 74/74/74 80/80/80 82/82/82
f 74/74/74 82/82/82 81/81/81
f 82/82/82 68/68/68 81/81/81
f 62/62/62 68/68/68 82/82/82
