g ZhouWang_YanJin
v -0.176521793 -0.0364060476 0.105570279
v -0.217567846 -0.0306374095 0.129501164
v -0.210804045 0.0174896829 0.129501164
v -0.169757977 0.0117210364 0.105570264
v -0.257480025 0.0240495596 0.137812302
v -0.146056339 -0.0406876951 0.0689060465
v -0.139292508 0.00743939634 0.0689060465
v -0.264243841 -0.0240775272 0.137812316
v -0.304155886 0.0306094326 0.129501194
v -0.129845992 -0.0429658964 0.0239307415
v -0.123082183 0.0051611946 0.0239307489
v -0.310919702 -0.0175176542 0.129501209
v -0.345201939 0.0363780893 0.105570354
v -0.129846051 -0.0429658778 -0.0239309613
v -0.123082228 0.0051612067 -0.023930952
v -0.351965785 -0.0117489975 0.105570361
v -0.375667572 0.0406597219 0.0689061657
v -0.146056429 -0.0406876504 -0.0689062402
v -0.139292613 0.00743943918 -0.0689062327
v -0.382431358 -0.00746736256 0.0689061657
v -0.39187777 0.0429379642 0.0239308774
v -0.176521942 -0.0364059955 -0.105570421
v -0.169758126 0.0117210932 -0.105570406
v -0.398641706 -0.00518911611 0.0239308719
v -0.39187786 0.0429379828 -0.0239308253
v -0.217568025 -0.0306373406 -0.129501238
v -0.210804194 0.0174897499 -0.129501224
v -0.398641706 -0.00518910633 -0.0239308383
v -0.375667483 0.0406597592 -0.068906121
v -0.264243901 -0.0240774788 -0.137812316
v -0.257480055 0.0240496136 -0.137812302
v -0.382431298 -0.00746732438 -0.0689061359
v -0.345201939 0.0363781191 -0.105570324
v -0.310919762 -0.0175176114 -0.129501194
v -0.304155946 0.0306094848 -0.129501194
v -0.351965815 -0.0117489696 -0.105570331
v -0.229553729 -0.0750707909 -0.113881491
v -0.270599782 -0.0693021491 -0.121190123
v -0.311645865 -0.0635334924 -0.113881454
v -0.347741187 -0.0584606305 -0.0928370059
v -0.374532074 -0.0546954125 -0.060595043
v -0.38878721 -0.0526920035 -0.0210444331
v -0.193458423 -0.0801436603 -0.0928370729
v -0.38878721 -0.052692011 0.0210444462
v -0.166667476 -0.0839088932 -0.0605951436
v -0.374532074 -0.0546954349 0.0605950579
v -0.15241231 -0.0859123319 -0.0210445449
v -0.347741187 -0.0584606603 0.0928370059
v -0.15241228 -0.0859123468 0.0210443325
v -0.311645865 -0.0635335371 0.113881454
v -0.166667387 -0.0839089155 0.0605949573
v -0.270599753 -0.0693021938 0.121190108
v -0.193458304 -0.0801437199 0.0928369388
v -0.229553565 -0.075070858 0.113881402
v -0.180395126 -0.111492209 -0.0167861525
v -0.180395082 -0.111492224 0.0167859718
v -0.191765651 -0.109894209 0.0483334586
v -0.213135377 -0.106890887 0.0740512237
v -0.241926715 -0.102844521 0.0908373073
v -0.274667174 -0.0982431695 0.0966670811
v -0.277896106 -0.121218279 0.0636294708
v -0.307407469 -0.0936417952 0.0908373445
v -0.336198837 -0.089595437 0.0740512758
v -0.256345242 -0.124247052 0.0597921163
v -0.299446851 -0.118189521 0.0597921312
v -0.357568592 -0.0865921006 0.0483335331
v -0.318398267 -0.115526073 0.0487429947
v -0.368939161 -0.0849940777 0.0167860612
v -0.332464546 -0.11354918 0.0318147205
v -0.368939161 -0.0849940777 -0.0167860631
v -0.339949131 -0.112497292 0.0110491337
v -0.357568622 -0.0865920782 -0.0483335443
v -0.339949131 -0.112497292 -0.0110491533
v -0.336198837 -0.0895954147 -0.0740512908
v -0.332464546 -0.113549173 -0.0318147466
v -0.307407498 -0.0936417878 -0.090837352
v -0.318398267 -0.115526043 -0.0487430245
v -0.274667174 -0.0982431173 -0.0966671035
v -0.299446881 -0.118189506 -0.0597921722
v -0.241926849 -0.102844484 -0.0908373892
v -0.277896106 -0.121218257 -0.063629508
v -0.213135481 -0.106890857 -0.0740513429
v -0.256345332 -0.124247022 -0.0597921945
v -0.191765755 -0.109894171 -0.0483336262
v -0.237393901 -0.126910478 -0.0487430617
v -0.223327637 -0.12888737 -0.0318148024
v -0.215843081 -0.129939243 -0.011049212
v -0.215843081 -0.129939243 0.0110490741
v -0.223327577 -0.12888737 0.0318146758
v -0.237393826 -0.126910508 0.0487429574
v -0.269487798 -0.13479656 0.0280687287
v -0.260591239 -0.136046886 0.0228818227
v -0.280337602 -0.138590395 -2.27988419E-08
v -0.253987968 -0.136974901 0.0149350306
v -0.279604584 -0.133374736 0.0298701283
v -0.250474513 -0.137468696 0.00518685207
v -0.28972137 -0.131952912 0.0280687325
v -0.250474513 -0.137468696 -0.00518694147
v -0.298617899 -0.130702585 0.0228818413
v -0.253987998 -0.136974901 -0.0149351154
v -0.305221111 -0.129774556 0.0149350548
v -0.260591239 -0.136046872 -0.022881899
v -0.308734626 -0.129280761 0.00518687814
v -0.269487828 -0.134796545 -0.0280687902
v -0.308734626 -0.129280761 -0.00518691307
v -0.279604584 -0.133374721 -0.0298701748
v -0.305221111 -0.129774556 -0.0149350902
v -0.28972134 -0.131952897 -0.0280687772
v -0.298617899 -0.13070257 -0.0228818767
v 0.176521808 -0.0364061072 0.105570279
v 0.169757992 0.0117209833 0.105570264
v 0.210804045 0.0174896214 0.129501164
v 0.146056339 -0.040687751 0.0689060465
v 0.139292508 0.00743933907 0.0689060465
v 0.217567876 -0.0306374691 0.129501164
v 0.257480055 0.0240495075 0.137812302
v 0.129846007 -0.042965956 0.0239307415
v 0.123082198 0.00516113499 0.0239307489
v 0.264243871 -0.0240775812 0.137812316
v 0.304155946 0.0306093805 0.129501194
v 0.129846051 -0.0429659411 -0.0239309613
v 0.123082228 0.00516114943 -0.023930952
v 0.310919762 -0.017517712 0.129501209
v 0.345201969 0.0363780335 0.105570354
v 0.146056429 -0.0406877138 -0.0689062402
v 0.139292613 0.00743938191 -0.0689062327
v 0.351965815 -0.0117490552 0.105570361
v 0.375667483 0.0406596847 0.0689061657
v 0.176521972 -0.0364060588 -0.105570421
v 0.169758171 0.0117210364 -0.105570406
v 0.382431328 -0.0074674054 0.0689061657
v 0.3918778 0.0429379083 0.0239308774
v 0.217568055 -0.0306374002 -0.129501238
v 0.210804224 0.0174896922 -0.129501224
v 0.398641735 -0.00518917292 0.0239308719
v 0.39187789 0.0429379269 -0.0239308253
v 0.264243901 -0.0240775291 -0.137812316
v 0.257480085 0.0240495596 -0.137812302
v 0.398641735 -0.00518916361 -0.0239308383
v 0.375667483 0.0406597145 -0.068906121
v 0.310919791 -0.0175176635 -0.129501194
v 0.304155976 0.0306094289 -0.129501194
v 0.382431328 -0.00746738166 -0.0689061359
v 0.345201969 0.0363780595 -0.105570324
v 0.351965815 -0.0117490264 -0.105570331
v 0.374532133 -0.0546955019 0.0605950579
v 0.38878721 -0.0526920706 0.0210444462
v 0.38878721 -0.0526920594 -0.0210444331
v 0.374532133 -0.0546954796 -0.060595043
v 0.347741187 -0.0584606938 -0.0928370059
v 0.311645895 -0.063533552 -0.113881454
v 0.347741187 -0.0584607199 0.0928370059
v 0.270599812 -0.0693022013 -0.121190123
v 0.311645865 -0.0635335892 0.113881454
v 0.229553744 -0.075070858 -0.113881491
v 0.270599812 -0.069302246 0.121190108
v 0.193458438 -0.0801437274 -0.0928370729
v 0.22955358 -0.0750709102 0.113881402
v 0.166667491 -0.0839089602 -0.0605951436
v 0.193458304 -0.0801437721 0.0928369388
v 0.15241231 -0.085912399 -0.0210445449
v 0.166667417 -0.0839089826 0.0605949573
v 0.15241228 -0.0859124064 0.0210443325
v 0.241926759 -0.102844581 0.0908373073
v 0.213135406 -0.106890947 0.0740512237
v 0.191765681 -0.109894261 0.0483334586
v 0.180395126 -0.111492276 0.0167859718
v 0.180395156 -0.111492276 -0.0167861525
v 0.191765785 -0.109894224 -0.0483336262
v 0.274667174 -0.0982432216 0.0966670811
v 0.277896136 -0.121218346 0.0636294708
v 0.307407528 -0.0936418548 0.0908373445
v 0.336198837 -0.0895954967 0.0740512758
v 0.213135511 -0.106890902 -0.0740513429
v 0.256345272 -0.124247119 0.0597921163
v 0.299446881 -0.118189581 0.0597921312
v 0.357568622 -0.0865921676 0.0483335331
v 0.241926894 -0.102844544 -0.0908373892
v 0.318398327 -0.115526132 0.0487429947
v 0.368939161 -0.0849941298 0.0167860612
v 0.274667203 -0.0982431769 -0.0966671035
v 0.332464606 -0.11354924 0.0318147205
v 0.368939161 -0.0849941298 -0.0167860631
v 0.307407558 -0.0936418325 -0.090837352
v 0.339949101 -0.112497345 0.0110491337
v 0.357568622 -0.0865921453 -0.0483335443
v 0.336198866 -0.0895954669 -0.0740512908
v 0.339949101 -0.112497345 -0.0110491533
v 0.332464606 -0.113549232 -0.0318147466
v 0.318398327 -0.115526102 -0.0487430245
v 0.299446911 -0.118189558 -0.0597921722
v 0.277896106 -0.121218324 -0.063629508
v 0.256345361 -0.124247089 -0.0597921945
v 0.237393931 -0.126910537 -0.0487430617
v 0.223327667 -0.12888743 -0.0318148024
v 0.215843126 -0.129939303 -0.011049212
v 0.215843126 -0.129939318 0.0110490741
v 0.223327607 -0.128887445 0.0318146758
v 0.237393856 -0.126910567 0.0487429574
v 0.269487828 -0.134796619 0.0280687287
v 0.260591269 -0.136046946 0.0228818227
v 0.280337602 -0.13859044 -2.27988419E-08
v 0.253988028 -0.136974961 0.0149350306
v 0.279604614 -0.133374795 0.0298701283
v 0.250474513 -0.137468755 0.00518685207
v 0.2897214 -0.131952971 0.0280687325
v 0.250474513 -0.137468755 -0.00518694147
v 0.298617899 -0.130702645 0.0228818413
v 0.253988057 -0.136974946 -0.0149351154
v 0.30522114 -0.1297746 0.0149350548
v 0.260591298 -0.136046916 -0.022881899
v 0.308734685 -0.129280806 0.00518687814
v 0.269487858 -0.13479659 -0.0280687902
v 0.308734685 -0.129280806 -0.00518691307
v 0.279604614 -0.13337478 -0.0298701748
v 0.30522114 -0.1297746 -0.0149350902
v 0.2897214 -0.131952956 -0.0280687772
v 0.298617929 -0.13070263 -0.0228818767
vt 0.758514524 0.816969097
vt 0.634053469 0.888840258
vt 0.663362145 0.96938318
vt 0.813600719 0.882620156
vt 0.49253121 0.999500036
vt 0.850952148 0.706922889
vt 0.925097823 0.749700844
vt 0.492518336 0.913770616
vt 0.321691334 0.969437897
vt 0.899879754 0.571792603
vt 0.984407187 0.586671293
vt 0.350975275 0.888885438
vt 0.171423182 0.882725239
vt 0.899871647 0.428076237
vt 0.984394133 0.413182199
vt 0.2264871 0.817056477
vt 0.0598780699 0.7498402
vt 0.850899458 0.292957187
vt 0.925026655 0.250157714
vt 0.134004831 0.707041144
vt 0.000512558094 0.586814523
vt 0.75841552 0.182943419
vt 0.813479483 0.117274873
vt 0.0850338265 0.571920872
vt 0.000500000024 0.413324296
vt 0.633927941 0.111114733
vt 0.663212001 0.0305633303
vt 0.0850259811 0.428203583
vt 0.0598095618 0.250293821
vt 0.492386401 0.0862282813
vt 0.49237451 0.000500000024
vt 0.133953691 0.293072969
vt 0.171307161 0.117376328
vt 0.3508524 0.111157171
vt 0.321545333 0.0306152813
vt 0.22639142 0.183027148
vt 0.603245616 0.195685118
vt 0.492408723 0.176086843
vt 0.381579131 0.195708349
vt 0.284184933 0.251923233
vt 0.211902276 0.338064432
vt 0.17349419 0.443774045
vt 0.700667918 0.251893938
vt 0.173413053 0.556214511
vt 0.772945046 0.338137031
vt 0.211958393 0.66186136
vt 0.811491251 0.443782568
vt 0.284234554 0.748105764
vt 0.811410427 0.556221843
vt 0.381657004 0.804314554
vt 0.773002744 0.661930978
vt 0.492494881 0.823911726
vt 0.700720012 0.748072863
vt 0.603325784 0.804288983
vt 0.736243606 0.456994295
vt 0.736219585 0.543023407
vt 0.70686698 0.623834312
vt 0.651612103 0.689635217
vt 0.57716459 0.732604563
vt 0.492482096 0.7475667
vt 0.492477953 0.6656847
vt 0.407792836 0.732622743
vt 0.333326727 0.689656019
vt 0.54915148 0.655681193
vt 0.435799539 0.655699968
vt 0.278060168 0.623808444
vt 0.385957807 0.626942694
vt 0.248660311 0.543003023
vt 0.348961771 0.582881987
vt 0.248684257 0.45697251
vt 0.329286456 0.528799772
vt 0.278037041 0.376160741
vt 0.329284549 0.471225709
vt 0.333292246 0.310359925
vt 0.348941207 0.41714099
vt 0.407739937 0.267391473
vt 0.385922223 0.373082608
vt 0.492421746 0.252430946
vt 0.435752094 0.344313741
vt 0.57711035 0.267376184
vt 0.492425263 0.334311843
vt 0.6515764 0.310343117
vt 0.549103081 0.344297975
vt 0.706843436 0.376189709
vt 0.598945618 0.373056263
vt 0.635941684 0.417116731
vt 0.655616522 0.471197486
vt 0.655617952 0.528769255
vt 0.635961473 0.582853317
vt 0.598980963 0.626911819
vt 0.520042539 0.575739622
vt 0.544286549 0.561737299
vt 0.492449582 0.49999702
vt 0.562277257 0.540286601
vt 0.492467046 0.580606103
vt 0.571846902 0.513975918
vt 0.464889228 0.575752318
vt 0.571842253 0.48598069
vt 0.44063893 0.561761618
vt 0.562262833 0.459676772
vt 0.422638953 0.540320456
vt 0.544263005 0.438235521
vt 0.413058937 0.514015257
vt 0.520011783 0.424243867
vt 0.41305396 0.48601836
vt 0.492434382 0.419389188
vt 0.422623694 0.45970735
vt 0.464859068 0.424254715
vt 0.44061476 0.4382568
vt 0.758514524 0.816969097
vt 0.813600719 0.882620156
vt 0.663362145 0.96938318
vt 0.850952148 0.706922889
vt 0.925097823 0.749700844
vt 0.634053469 0.888840258
vt 0.49253121 0.999500036
vt 0.899879754 0.571792603
vt 0.984407187 0.586671293
vt 0.492518336 0.913770616
vt 0.321691334 0.969437897
vt 0.899871647 0.428076237
vt 0.984394133 0.413182199
vt 0.350975275 0.888885438
vt 0.171423182 0.882725239
vt 0.850899458 0.292957187
vt 0.925026655 0.250157714
vt 0.2264871 0.817056477
vt 0.0598780699 0.7498402
vt 0.75841552 0.182943419
vt 0.813479483 0.117274873
vt 0.134004831 0.707041144
vt 0.000512558094 0.586814523
vt 0.633927941 0.111114733
vt 0.663212001 0.0305633303
vt 0.0850338265 0.571920872
vt 0.000500000024 0.413324296
vt 0.492386401 0.0862282813
vt 0.49237451 0.000500000024
vt 0.0850259811 0.428203583
vt 0.0598095618 0.250293821
vt 0.3508524 0.111157171
vt 0.321545333 0.0306152813
vt 0.133953691 0.293072969
vt 0.171307161 0.117376328
vt 0.22639142 0.183027148
vt 0.211958393 0.66186136
vt 0.173413053 0.556214511
vt 0.17349419 0.443774045
vt 0.211902276 0.338064432
vt 0.284184933 0.251923233
vt 0.381579131 0.195708349
vt 0.284234554 0.748105764
vt 0.492408723 0.176086843
vt 0.381657004 0.804314554
vt 0.603245616 0.195685118
vt 0.492494881 0.823911726
vt 0.700667918 0.251893938
vt 0.603325784 0.804288983
vt 0.772945046 0.338137031
vt 0.700720012 0.748072863
vt 0.811491251 0.443782568
vt 0.773002744 0.661930978
vt 0.811410427 0.556221843
vt 0.57716459 0.732604563
vt 0.651612103 0.689635217
vt 0.70686698 0.623834312
vt 0.736219585 0.543023407
vt 0.736243606 0.456994295
vt 0.706843436 0.376189709
vt 0.492482096 0.7475667
vt 0.492477953 0.6656847
vt 0.407792836 0.732622743
vt 0.333326727 0.689656019
vt 0.6515764 0.310343117
vt 0.54915148 0.655681193
vt 0.435799539 0.655699968
vt 0.278060168 0.623808444
vt 0.57711035 0.267376184
vt 0.385957807 0.626942694
vt 0.248660311 0.543003023
vt 0.492421746 0.252430946
vt 0.348961771 0.582881987
vt 0.248684257 0.45697251
vt 0.407739937 0.267391473
vt 0.329286456 0.528799772
vt 0.278037041 0.376160741
vt 0.333292246 0.310359925
vt 0.329284549 0.471225709
vt 0.348941207 0.41714099
vt 0.385922223 0.373082608
vt 0.435752094 0.344313741
vt 0.492425263 0.334311843
vt 0.549103081 0.344297975
vt 0.598945618 0.373056263
vt 0.635941684 0.417116731
vt 0.655616522 0.471197486
vt 0.655617952 0.528769255
vt 0.635961473 0.582853317
vt 0.598980963 0.626911819
vt 0.520042539 0.575739622
vt 0.544286549 0.561737299
vt 0.492449582 0.49999702
vt 0.562277257 0.540286601
vt 0.492467046 0.580606103
vt 0.571846902 0.513975918
vt 0.464889228 0.575752318
vt 0.571842253 0.48598069
vt 0.44063893 0.561761618
vt 0.562262833 0.459676772
vt 0.422638953 0.540320456
vt 0.544263005 0.438235521
vt 0.413058937 0.514015257
vt 0.520011783 0.424243867
vt 0.41305396 0.48601836
vt 0.492434382 0.419389188
vt 0.422623694 0.45970735
vt 0.464859068 0.424254715
vt 0.44061476 0.4382568
vn 0.604869246 -0.251529306 0.755556881
vn 0.311105847 -0.210243508 0.926828325
vn 0.33869192 -0.0475998074 0.939692557
vn 0.636532843 -0.0894587636 0.766043723
vn 4.50559355E-07 1.67303284E-07 1
vn 0.822907805 -0.28217271 0.493154407
vn 0.857597768 -0.120527551 0.499999136
vn -0.022949202 -0.163295239 0.986310363
vn -0.338691801 0.0476002283 0.939692557
vn 0.938923657 -0.298477679 0.171270177
vn 0.975223839 -0.137058735 0.173647463
vn -0.357004642 -0.11634668 0.926828504
vn -0.636531711 0.089458853 0.766044736
vn 0.938923359 -0.298477501 -0.171271771
vn 0.975223601 -0.137058482 -0.173648968
vn -0.650767505 -0.0750608891 0.755557775
vn -0.857597232 0.12052764 0.5
vn 0.822907209 -0.282172352 -0.493155658
vn 0.857597172 -0.120527066 -0.500000477
vn -0.86880666 -0.0444178209 0.493155122
vn -0.975223601 0.137059733 0.173647717
vn 0.604868054 -0.251528978 -0.755557954
vn 0.636531591 -0.0894584358 -0.766044855
vn -0.984822869 -0.0281123351 0.171270594
vn -0.975223601 0.137059718 -0.173647985
vn 0.311104834 -0.210243195 -0.926828802
vn 0.338691115 -0.0475998074 -0.939692855
vn -0.98482275 -0.0281123184 -0.171270967
vn -0.857597172 0.120527938 -0.50000006
vn -0.0229500569 -0.163294911 -0.986310363
vn -2.31905858E-07 1.19265863E-07 -1
vn -0.86880666 -0.0444173552 -0.493155122
vn -0.636532187 0.0894592553 -0.766044259
vn -0.357004851 -0.116346568 -0.926828504
vn -0.338691831 0.0476001874 -0.939692557
vn -0.650768101 -0.0750605389 -0.755557358
vn 0.236628205 -0.498040885 -0.834243596
vn -0.0640564561 -0.455782503 -0.88778317
vn -0.364741027 -0.41352421 -0.834243238
vn -0.629158795 -0.376362383 -0.680081189
vn -0.825416744 -0.348780304 -0.443891376
vn -0.929843068 -0.334104747 -0.154161915
vn 0.501045942 -0.535202682 -0.680081785
vn -0.929843068 -0.334104866 0.154161647
vn 0.69730407 -0.56278497 -0.443891972
vn -0.825416327 -0.348781109 0.443891346
vn 0.801730871 -0.577461123 -0.154162735
vn -0.629158437 -0.376362979 0.680081308
vn 0.801731288 -0.577461183 0.154161036
vn -0.364740878 -0.413524389 0.834243178
vn 0.697304726 -0.562785029 0.443890899
vn -0.0640556589 -0.45578301 0.887783051
vn 0.501046896 -0.535202861 0.680080712
vn 0.236629039 -0.498041481 0.834243
vn 0.578324974 -0.806815982 -0.120781884
vn 0.578325212 -0.806815982 0.120780304
vn 0.496510148 -0.795317769 0.347774774
vn 0.342748046 -0.773707986 0.532822251
vn 0.135584846 -0.744593084 0.653603792
vn -0.0999923423 -0.71148479 0.695550799
vn -0.119813509 -0.852518678 0.508779585
vn -0.335570008 -0.678376496 0.653603852
vn -0.542732894 -0.649262011 0.53282249
vn 0.052505929 -0.876736701 0.478096187
vn -0.292133272 -0.828300774 0.478096187
vn -0.696494997 -0.62765187 0.34777531
vn -0.443668276 -0.807003915 0.38974756
vn -0.778310418 -0.616153181 0.120781265
vn -0.556141555 -0.791196823 0.254390001
vn -0.778310478 -0.616153121 -0.120781243
vn -0.615987837 -0.782785714 0.0883490518
vn -0.696495295 -0.627651453 -0.347775728
vn -0.615987897 -0.782785654 -0.0883492529
vn -0.542733192 -0.649261534 -0.532822788
vn -0.556141138 -0.791196823 -0.254390448
vn -0.335570097 -0.678376436 -0.653604031
vn -0.443668067 -0.807004094 -0.3897475
vn -0.0999928862 -0.711484432 -0.695550978
vn -0.292133242 -0.828300774 -0.478096187
vn 0.135584325 -0.744592726 -0.653604269
vn -0.119813882 -0.852518499 -0.508779764
vn 0.34274748 -0.773707628 -0.532823145
vn 0.052505333 -0.876736522 -0.478096515
vn 0.496509582 -0.795317709 -0.347775936
vn 0.204040512 -0.898033381 -0.389748007
vn 0.316514105 -0.913840473 -0.254390091
vn 0.376360208 -0.922251344 -0.0883489698
vn 0.376360029 -0.922251403 0.0883480832
vn 0.316514224 -0.913840771 0.254389107
vn 0.204041034 -0.898033679 0.389747113
vn -0.026399849 -0.955575883 0.293560743
vn 0.0666461363 -0.968652606 0.239312485
vn -0.139173254 -0.990268052 -3.47282025E-07
vn 0.135707229 -0.978358388 0.156199858
vn -0.132207409 -0.940705538 0.312401056
vn 0.172453344 -0.983522713 0.0542475097
vn -0.238015264 -0.925835133 0.293561012
vn 0.172453403 -0.983522713 -0.0542477369
vn -0.331061184 -0.91275847 0.239312708
vn 0.135706708 -0.978358269 -0.156200796
vn -0.400121391 -0.903052747 0.156200111
vn 0.0666456819 -0.968652368 -0.239313573
vn -0.436867297 -0.89788872 0.0542479046
vn -0.0264001396 -0.955575585 -0.293561548
vn -0.436867535 -0.897888541 -0.054248251
vn -0.132207885 -0.94070524 -0.312401563
vn -0.400121599 -0.903052568 -0.15620102
vn -0.238015428 -0.925835133 -0.293560833
vn -0.331061095 -0.912758231 -0.239313185
vn -0.604869187 -0.251529217 0.755556941
vn -0.636532784 -0.0894587785 0.766043842
vn -0.33869189 -0.047599908 0.939692557
vn -0.822907805 -0.28217268 0.493154407
vn -0.857597768 -0.120527342 0.499999225
vn -0.311105669 -0.210243568 0.926828384
vn -4.50559213E-07 1.30032703E-07 1
vn -0.938923657 -0.29847756 0.171270251
vn -0.975223839 -0.137058511 0.173647419
vn 0.0229492392 -0.163295209 0.986310363
vn 0.338691413 0.0476002656 0.939692616
vn -0.938923478 -0.298477381 -0.171271712
vn -0.975223601 -0.137058437 -0.173648819
vn 0.357004732 -0.116346665 0.926828504
vn 0.636532187 0.089459233 0.766044319
vn -0.82290709 -0.282172292 -0.493155777
vn -0.857596993 -0.120526828 -0.500000596
vn 0.650767744 -0.0750607923 0.755557537
vn 0.857597172 0.12052796 0.500000119
vn -0.604867995 -0.251528889 -0.755558014
vn -0.636531413 -0.0894581974 -0.766045034
vn 0.86880666 -0.044417318 0.493155181
vn 0.975223482 0.137059733 0.17364876
vn -0.311104894 -0.210243225 -0.926828802
vn -0.338690996 -0.0475997739 -0.939692855
vn 0.98482275 -0.0281123184 0.171271205
vn 0.975223601 0.137059674 -0.173648238
vn 0.0229499228 -0.163294882 -0.986310363
vn 1.65647066E-07 1.68131749E-07 -1
vn 0.98482275 -0.0281123463 -0.171270981
vn 0.857597172 0.120527759 -0.500000238
vn 0.357004881 -0.11634662 -0.926828384
vn 0.338691771 0.047600124 -0.939692557
vn 0.86880666 -0.0444173776 -0.49315533
vn 0.636532545 0.0894590095 -0.766044021
vn 0.650768101 -0.0750608295 -0.755557299
vn 0.825416565 -0.348780632 0.443891436
vn 0.929843187 -0.334104806 0.154161647
vn 0.929843068 -0.334104925 -0.154161721
vn 0.825416684 -0.348780364 -0.443891436
vn 0.629158735 -0.376362413 -0.680081308
vn 0.364741027 -0.413524091 -0.834243238
vn 0.629158676 -0.37636286 0.680081189
vn 0.0640564859 -0.455782562 -0.88778317
vn 0.364740998 -0.41352424 0.834243178
vn -0.236628219 -0.498040944 -0.834243536
vn 0.0640556663 -0.455783099 0.887782991
vn -0.501045823 -0.535202563 -0.680081785
vn -0.236629039 -0.4980416 0.83424294
vn -0.697303951 -0.56278497 -0.443891972
vn -0.501046836 -0.53520292 0.680080831
vn -0.801730812 -0.577461362 -0.15416266
vn -0.697304606 -0.562785089 0.443890899
vn -0.80173105 -0.577461302 0.15416114
vn -0.135584757 -0.744593084 0.653603852
vn -0.342748076 -0.773707926 0.532822371
vn -0.496510178 -0.795317709 0.347774774
vn -0.578325093 -0.806816101 0.120780446
vn -0.578324616 -0.806816161 -0.120781846
vn -0.496509641 -0.795317709 -0.347775817
vn 0.0999922603 -0.711484849 0.69555074
vn 0.119813509 -0.852518857 0.508779407
vn 0.335570246 -0.678376436 0.653604031
vn 0.542733073 -0.649261773 0.532822728
vn -0.34274748 -0.773707628 -0.532823205
vn -0.0525059104 -0.876736581 0.478096336
vn 0.292133212 -0.828300714 0.478096306
vn 0.696495175 -0.62765187 0.347775102
vn -0.135584146 -0.744592726 -0.653604269
vn 0.443668276 -0.807003915 0.38974756
vn 0.778310299 -0.616153419 0.120780647
vn 0.0999929309 -0.711484492 -0.695550978
vn 0.556141853 -0.791196764 0.254389495
vn 0.778310299 -0.616153479 -0.120780796
vn 0.335570246 -0.678376198 -0.65360415
vn 0.615987957 -0.782785654 0.0883484185
vn 0.696495354 -0.627651691 -0.347775251
vn 0.542733371 -0.649261177 -0.532822967
vn 0.615988016 -0.782785654 -0.0883488059
vn 0.556141734 -0.791196764 -0.254389912
vn 0.443668276 -0.807003856 -0.389747649
vn 0.292133272 -0.828300714 -0.478096396
vn 0.119813874 -0.852518559 -0.508779526
vn -0.0525053889 -0.876736522 -0.478096396
vn -0.204040617 -0.8980335 -0.389747828
vn -0.316514105 -0.913840473 -0.25439018
vn -0.376360208 -0.922251344 -0.0883493274
vn -0.376360118 -0.922251403 0.0883482322
vn -0.316514492 -0.913840711 0.254389137
vn -0.204041243 -0.8980335 0.389747292
vn 0.0263998471 -0.955575883 0.293560565
vn -0.0666459799 -0.968652606 0.2393125
vn 0.139173225 -0.990268052 -3.31496466E-07
vn -0.135706902 -0.978358388 0.156199932
vn 0.132207453 -0.940705538 0.312400788
vn -0.17245321 -0.983522713 0.0542477705
vn 0.238015339 -0.925835013 0.29356119
vn -0.172453269 -0.983522713 -0.0542482696
vn 0.331060946 -0.912758529 0.239312664
vn -0.135706469 -0.978358269 -0.156201109
vn 0.400121778 -0.903052688 0.156199798
vn -0.0666453764 -0.968652487 -0.239313215
vn 0.43686837 -0.897888243 0.054247763
vn 0.0264001898 -0.955575764 -0.293560892
vn 0.436868459 -0.897888124 -0.0542483293
vn 0.132207662 -0.940705538 -0.312400788
vn 0.400121868 -0.903052509 -0.156200916
vn 0.238015398 -0.925835133 -0.293560952
vn 0.331061125 -0.912758231 -0.239313185
g ZhouWang_YanJin_0
f 3/3/3 2/2/2 1/1/1
f 4/4/4 3/3/3 1/1/1
f 3/3/3 5/5/5 2/2/2
f 4/4/4 1/1/1 6/6/6
f 7/7/7 4/4/4 6/6/6
f 5/5/5 8/8/8 2/2/2
f 5/5/5 9/9/9 8/8/8
f 7/7/7 6/6/6 10/10/10
f 11/11/11 7/7/7 10/10/10
f 9/9/9 12/12/12 8/8/8
f 9/9/9 13/13/13 12/12/12
f 11/11/11 10/10/10 14/14/14
f 15/15/15 11/11/11 14/14/14
f 13/13/13 16/16/16 12/12/12
f 13/13/13 17/17/17 16/16/16
f 15/15/15 14/14/14 18/18/18
f 19/19/19 15/15/15 18/18/18
f 17/17/17 20/20/20 16/16/16
f 17/17/17 21/21/21 20/20/20
f 19/19/19 18/18/18 22/22/22
f 23/23/23 19/19/19 22/22/22
f 21/21/21 24/24/24 20/20/20
f 21/21/21 25/25/25 24/24/24
f 23/23/23 22/22/22 26/26/26
f 27/27/27 23/23/23 26/26/26
f 25/25/25 28/28/28 24/24/24
f 25/25/25 29/29/29 28/28/28
f 27/27/27 26/26/26 30/30/30
f 31/31/31 27/27/27 30/30/30
f 29/29/29 32/32/32 28/28/28
f 29/29/29 33/33/33 32/32/32
f 31/31/31 30/30/30 34/34/34
f 35/35/35 31/31/31 34/34/34
f 33/33/33 35/35/35 36/36/36
f 33/33/33 36/36/36 32/32/32
f 35/35/35 34/34/34 36/36/36
f 26/26/26 22/22/22 37/37/37
f 30/30/30 26/26/26 38/38/38
f 26/26/26 37/37/37 38/38/38
f 34/34/34 30/30/30 39/39/39
f 30/30/30 38/38/38 39/39/39
f 36/36/36 34/34/34 40/40/40
f 34/34/34 39/39/39 40/40/40
f 32/32/32 36/36/36 41/41/41
f 36/36/36 40/40/40 41/41/41
f 28/28/28 32/32/32 42/42/42
f 32/32/32 41/41/41 42/42/42
f 22/22/22 43/43/43 37/37/37
f 22/22/22 18/18/18 43/43/43
f 28/28/28 42/42/42 44/44/44
f 24/24/24 28/28/28 44/44/44
f 18/18/18 45/45/45 43/43/43
f 18/18/18 14/14/14 45/45/45
f 24/24/24 44/44/44 46/46/46
f 20/20/20 24/24/24 46/46/46
f 14/14/14 47/47/47 45/45/45
f 14/14/14 10/10/10 47/47/47
f 20/20/20 46/46/46 48/48/48
f 16/16/16 20/20/20 48/48/48
f 10/10/10 49/49/49 47/47/47
f 10/10/10 6/6/6 49/49/49
f 16/16/16 48/48/48 50/50/50
f 12/12/12 16/16/16 50/50/50
f 6/6/6 51/51/51 49/49/49
f 6/6/6 1/1/1 51/51/51
f 12/12/12 50/50/50 52/52/52
f 8/8/8 12/12/12 52/52/52
f 1/1/1 53/53/53 51/51/51
f 1/1/1 2/2/2 53/53/53
f 2/2/2 8/8/8 54/54/54
f 8/8/8 52/52/52 54/54/54
f 2/2/2 54/54/54 53/53/53
f 47/47/47 49/49/49 55/55/55
f 49/49/49 51/51/51 56/56/56
f 49/49/49 56/56/56 55/55/55
f 51/51/51 53/53/53 57/57/57
f 51/51/51 57/57/57 56/56/56
f 53/53/53 54/54/54 58/58/58
f 53/53/53 58/58/58 57/57/57
f 54/54/54 52/52/52 59/59/59
f 54/54/54 59/59/59 58/58/58
f 52/52/52 50/50/50 60/60/60
f 52/52/52 60/60/60 59/59/59
f 59/59/59 60/60/60 61/61/61
f 50/50/50 62/62/62 60/60/60
f 60/60/60 62/62/62 61/61/61
f 50/50/50 48/48/48 62/62/62
f 48/48/48 63/63/63 62/62/62
f 48/48/48 46/46/46 63/63/63
f 58/58/58 59/59/59 64/64/64
f 64/64/64 59/59/59 61/61/61
f 62/62/62 65/65/65 61/61/61
f 62/62/62 63/63/63 65/65/65
f 46/46/46 66/66/66 63/63/63
f 46/46/46 44/44/44 66/66/66
f 63/63/63 67/67/67 65/65/65
f 63/63/63 66/66/66 67/67/67
f 44/44/44 68/68/68 66/66/66
f 44/44/44 42/42/42 68/68/68
f 66/66/66 69/69/69 67/67/67
f 66/66/66 68/68/68 69/69/69
f 42/42/42 70/70/70 68/68/68
f 42/42/42 41/41/41 70/70/70
f 68/68/68 71/71/71 69/69/69
f 68/68/68 70/70/70 71/71/71
f 41/41/41 72/72/72 70/70/70
f 41/41/41 40/40/40 72/72/72
f 70/70/70 73/73/73 71/71/71
f 70/70/70 72/72/72 73/73/73
f 40/40/40 74/74/74 72/72/72
f 40/40/40 39/39/39 74/74/74
f 72/72/72 75/75/75 73/73/73
f 72/72/72 74/74/74 75/75/75
f 39/39/39 76/76/76 74/74/74
f 39/39/39 38/38/38 76/76/76
f 74/74/74 77/77/77 75/75/75
f 74/74/74 76/76/76 77/77/77
f 38/38/38 78/78/78 76/76/76
f 38/38/38 37/37/37 78/78/78
f 76/76/76 79/79/79 77/77/77
f 76/76/76 78/78/78 79/79/79
f 37/37/37 80/80/80 78/78/78
f 37/37/37 43/43/43 80/80/80
f 78/78/78 81/81/81 79/79/79
f 78/78/78 80/80/80 81/81/81
f 43/43/43 82/82/82 80/80/80
f 43/43/43 45/45/45 82/82/82
f 80/80/80 83/83/83 81/81/81
f 80/80/80 82/82/82 83/83/83
f 45/45/45 84/84/84 82/82/82
f 45/45/45 47/47/47 84/84/84
f 47/47/47 55/55/55 84/84/84
f 82/82/82 84/84/84 85/85/85
f 82/82/82 85/85/85 83/83/83
f 84/84/84 55/55/55 86/86/86
f 84/84/84 86/86/86 85/85/85
f 55/55/55 87/87/87 86/86/86
f 55/55/55 56/56/56 87/87/87
f 56/56/56 88/88/88 87/87/87
f 56/56/56 57/57/57 88/88/88
f 57/57/57 89/89/89 88/88/88
f 57/57/57 58/58/58 89/89/89
f 58/58/58 90/90/90 89/89/89
f 90/90/90 58/58/58 64/64/64
f 90/90/90 64/64/64 91/91/91
f 64/64/64 61/61/61 91/91/91
f 89/89/89 90/90/90 92/92/92
f 92/92/92 90/90/90 91/91/91
f 92/92/92 91/91/91 93/93/93
f 94/94/94 92/92/92 93/93/93
f 94/94/94 89/89/89 92/92/92
f 88/88/88 89/89/89 94/94/94
f 91/91/91 95/95/95 93/93/93
f 61/61/61 95/95/95 91/91/91
f 96/96/96 88/88/88 94/94/94
f 87/87/87 88/88/88 96/96/96
f 96/96/96 94/94/94 93/93/93
f 95/95/95 61/61/61 97/97/97
f 95/95/95 97/97/97 93/93/93
f 61/61/61 65/65/65 97/97/97
f 98/98/98 87/87/87 96/96/96
f 98/98/98 96/96/96 93/93/93
f 86/86/86 87/87/87 98/98/98
f 97/97/97 65/65/65 99/99/99
f 97/97/97 99/99/99 93/93/93
f 65/65/65 67/67/67 99/99/99
f 100/100/100 86/86/86 98/98/98
f 100/100/100 98/98/98 93/93/93
f 85/85/85 86/86/86 100/100/100
f 99/99/99 101/101/101 93/93/93
f 99/99/99 67/67/67 101/101/101
f 102/102/102 100/100/100 93/93/93
f 102/102/102 85/85/85 100/100/100
f 101/101/101 103/103/103 93/93/93
f 67/67/67 69/69/69 101/101/101
f 101/101/101 69/69/69 103/103/103
f 83/83/83 85/85/85 102/102/102
f 69/69/69 71/71/71 103/103/103
f 104/104/104 83/83/83 102/102/102
f 104/104/104 102/102/102 93/93/93
f 81/81/81 83/83/83 104/104/104
f 103/103/103 71/71/71 105/105/105
f 103/103/103 105/105/105 93/93/93
f 71/71/71 73/73/73 105/105/105
f 106/106/106 81/81/81 104/104/104
f 106/106/106 104/104/104 93/93/93
f 79/79/79 81/81/81 106/106/106
f 105/105/105 73/73/73 107/107/107
f 105/105/105 107/107/107 93/93/93
f 73/73/73 75/75/75 107/107/107
f 108/108/108 79/79/79 106/106/106
f 108/108/108 106/106/106 93/93/93
f 77/77/77 79/79/79 108/108/108
f 107/107/107 109/109/109 93/93/93
f 107/107/107 75/75/75 109/109/109
f 109/109/109 108/108/108 93/93/93
f 75/75/75 77/77/77 109/109/109
f 109/109/109 77/77/77 108/108/108
f 112/112/112 111/111/111 110/110/110
f 110/110/110 111/111/111 113/113/113
f 111/111/111 114/114/114 113/113/113
f 115/115/115 112/112/112 110/110/110
f 116/116/116 112/112/112 115/115/115
f 113/113/113 114/114/114 117/117/117
f 114/114/114 118/118/118 117/117/117
f 119/119/119 116/116/116 115/115/115
f 120/120/120 116/116/116 119/119/119
f 117/117/117 118/118/118 121/121/121
f 118/118/118 122/122/122 121/121/121
f 123/123/123 120/120/120 119/119/119
f 124/124/124 120/120/120 123/123/123
f 121/121/121 122/122/122 125/125/125
f 122/122/122 126/126/126 125/125/125
f 127/127/127 124/124/124 123/123/123
f 128/128/128 124/124/124 127/127/127
f 125/125/125 126/126/126 129/129/129
f 126/126/126 130/130/130 129/129/129
f 131/131/131 128/128/128 127/127/127
f 132/132/132 128/128/128 131/131/131
f 129/129/129 130/130/130 133/133/133
f 130/130/130 134/134/134 133/133/133
f 135/135/135 132/132/132 131/131/131
f 136/136/136 132/132/132 135/135/135
f 133/133/133 134/134/134 137/137/137
f 134/134/134 138/138/138 137/137/137
f 139/139/139 136/136/136 135/135/135
f 140/140/140 136/136/136 139/139/139
f 137/137/137 138/138/138 141/141/141
f 138/138/138 142/142/142 141/141/141
f 143/143/143 140/140/140 139/139/139
f 144/144/144 140/140/140 143/143/143
f 142/142/142 144/144/144 145/145/145
f 141/141/141 142/142/142 145/145/145
f 145/145/145 144/144/144 143/143/143
f 135/135/135 131/131/131 146/146/146
f 139/139/139 135/135/135 147/147/147
f 147/147/147 135/135/135 146/146/146
f 143/143/143 139/139/139 148/148/148
f 148/148/148 139/139/139 147/147/147
f 145/145/145 143/143/143 149/149/149
f 149/149/149 143/143/143 148/148/148
f 141/141/141 145/145/145 150/150/150
f 150/150/150 145/145/145 149/149/149
f 137/137/137 141/141/141 151/151/151
f 151/151/151 141/141/141 150/150/150
f 146/146/146 131/131/131 152/152/152
f 131/131/131 127/127/127 152/152/152
f 153/153/153 137/137/137 151/151/151
f 133/133/133 137/137/137 153/153/153
f 152/152/152 127/127/127 154/154/154
f 127/127/127 123/123/123 154/154/154
f 155/155/155 133/133/133 153/153/153
f 129/129/129 133/133/133 155/155/155
f 154/154/154 123/123/123 156/156/156
f 123/123/123 119/119/119 156/156/156
f 157/157/157 129/129/129 155/155/155
f 125/125/125 129/129/129 157/157/157
f 156/156/156 119/119/119 158/158/158
f 119/119/119 115/115/115 158/158/158
f 159/159/159 125/125/125 157/157/157
f 121/121/121 125/125/125 159/159/159
f 158/158/158 115/115/115 160/160/160
f 115/115/115 110/110/110 160/160/160
f 161/161/161 121/121/121 159/159/159
f 117/117/117 121/121/121 161/161/161
f 160/160/160 110/110/110 162/162/162
f 110/110/110 113/113/113 162/162/162
f 113/113/113 117/117/117 163/163/163
f 163/163/163 117/117/117 161/161/161
f 162/162/162 113/113/113 163/163/163
f 158/158/158 164/164/164 156/156/156
f 160/160/160 165/165/165 158/158/158
f 165/165/165 164/164/164 158/158/158
f 162/162/162 166/166/166 160/160/160
f 166/166/166 165/165/165 160/160/160
f 163/163/163 167/167/167 162/162/162
f 167/167/167 166/166/166 162/162/162
f 161/161/161 168/168/168 163/163/163
f 168/168/168 167/167/167 163/163/163
f 159/159/159 169/169/169 161/161/161
f 169/169/169 168/168/168 161/161/161
f 164/164/164 170/170/170 156/156/156
f 170/170/170 164/164/164 171/171/171
f 156/156/156 170/170/170 154/154/154
f 170/170/170 172/172/172 154/154/154
f 170/170/170 171/171/171 172/172/172
f 154/154/154 172/172/172 152/152/152
f 172/172/172 173/173/173 152/152/152
f 152/152/152 173/173/173 146/146/146
f 174/174/174 169/169/169 159/159/159
f 157/157/157 174/174/174 159/159/159
f 164/164/164 175/175/175 171/171/171
f 164/164/164 165/165/165 175/175/175
f 171/171/171 176/176/176 172/172/172
f 172/172/172 176/176/176 173/173/173
f 173/173/173 177/177/177 146/146/146
f 146/146/146 177/177/177 147/147/147
f 178/178/178 174/174/174 157/157/157
f 155/155/155 178/178/178 157/157/157
f 176/176/176 179/179/179 173/173/173
f 173/173/173 179/179/179 177/177/177
f 177/177/177 180/180/180 147/147/147
f 147/147/147 180/180/180 148/148/148
f 181/181/181 178/178/178 155/155/155
f 153/153/153 181/181/181 155/155/155
f 179/179/179 182/182/182 177/177/177
f 177/177/177 182/182/182 180/180/180
f 180/180/180 183/183/183 148/148/148
f 148/148/148 183/183/183 149/149/149
f 184/184/184 181/181/181 153/153/153
f 151/151/151 184/184/184 153/153/153
f 182/182/182 185/185/185 180/180/180
f 180/180/180 185/185/185 183/183/183
f 183/183/183 186/186/186 149/149/149
f 149/149/149 186/186/186 150/150/150
f 150/150/150 187/187/187 151/151/151
f 187/187/187 184/184/184 151/151/151
f 186/186/186 187/187/187 150/150/150
f 183/183/183 188/188/188 186/186/186
f 185/185/185 188/188/188 183/183/183
f 186/186/186 189/189/189 187/187/187
f 188/188/188 189/189/189 186/186/186
f 187/187/187 190/190/190 184/184/184
f 189/189/189 190/190/190 187/187/187
f 184/184/184 191/191/191 181/181/181
f 190/190/190 191/191/191 184/184/184
f 191/191/191 192/192/192 181/181/181
f 181/181/181 192/192/192 178/178/178
f 192/192/192 193/193/193 178/178/178
f 178/178/178 193/193/193 174/174/174
f 193/193/193 194/194/194 174/174/174
f 174/174/174 194/194/194 169/169/169
f 194/194/194 195/195/195 169/169/169
f 169/169/169 195/195/195 168/168/168
f 195/195/195 196/196/196 168/168/168
f 168/168/168 196/196/196 167/167/167
f 196/196/196 197/197/197 167/167/167
f 167/167/167 197/197/197 166/166/166
f 197/197/197 198/198/198 166/166/166
f 166/166/166 198/198/198 165/165/165
f 198/198/198 199/199/199 165/165/165
f 165/165/165 199/199/199 175/175/175
f 175/175/175 199/199/199 200/200/200
f 175/175/175 200/200/200 171/171/171
f 199/199/199 198/198/198 201/201/201
f 199/199/199 201/201/201 200/200/200
f 200/200/200 201/201/201 202/202/202
f 201/201/201 203/203/203 202/202/202
f 198/198/198 203/203/203 201/201/201
f 198/198/198 197/197/197 203/203/203
f 204/204/204 200/200/200 202/202/202
f 200/200/200 204/204/204 171/171/171
f 197/197/197 205/205/205 203/203/203
f 197/197/197 196/196/196 205/205/205
f 203/203/203 205/205/205 202/202/202
f 171/171/171 204/204/204 206/206/206
f 206/206/206 204/204/204 202/202/202
f 176/176/176 171/171/171 206/206/206
f 196/196/196 207/207/207 205/205/205
f 205/205/205 207/207/207 202/202/202
f 196/196/196 195/195/195 207/207/207
f 176/176/176 206/206/206 208/208/208
f 208/208/208 206/206/206 202/202/202
f 179/179/179 176/176/176 208/208/208
f 195/195/195 209/209/209 207/207/207
f 207/207/207 209/209/209 202/202/202
f 195/195/195 194/194/194 209/209/209
f 210/210/210 208/208/208 202/202/202
f 179/179/179 208/208/208 210/210/210
f 209/209/209 211/211/211 202/202/202
f 194/194/194 211/211/211 209/209/209
f 212/212/212 210/210/210 202/202/202
f 182/182/182 179/179/179 210/210/210
f 182/182/182 210/210/210 212/212/212
f 194/194/194 193/193/193 211/211/211
f 185/185/185 182/182/182 212/212/212
f 193/193/193 213/213/213 211/211/211
f 211/211/211 213/213/213 202/202/202
f 193/193/193 192/192/192 213/213/213
f 185/185/185 212/212/212 214/214/214
f 214/214/214 212/212/212 202/202/202
f 188/188/188 185/185/185 214/214/214
f 192/192/192 215/215/215 213/213/213
f 213/213/213 215/215/215 202/202/202
f 192/192/192 191/191/191 215/215/215
f 188/188/188 214/214/214 216/216/216
f 216/216/216 214/214/214 202/202/202
f 189/189/189 188/188/188 216/216/216
f 191/191/191 217/217/217 215/215/215
f 215/215/215 217/217/217 202/202/202
f 191/191/191 190/190/190 217/217/217
f 218/218/218 216/216/216 202/202/202
f 189/189/189 216/216/216 218/218/218
f 217/217/217 218/218/218 202/202/202
f 190/190/190 189/189/189 218/218/218
f 190/190/190 218/218/218 217/217/217
