g HanWuDi_WuQi_1
v 0.18804653 4.71554804 0
v 0.179284975 4.82863712 0.0986001566
v 0.205700397 4.82863712 0
v 0.163984925 4.71554804 0.0897863731
v 0.107100211 4.82863712 0.170811146
v 0.0982601941 4.71554804 0.155511171
v 0.0084738601 4.82863712 0.197226554
v 0.0084738601 4.71554804 0.179572746
v -0.0813124627 4.71554804 0.155511171
v -0.0901524872 4.82863712 0.170811146
v -0.147037223 4.71554804 0.0897863731
v -0.162337244 4.82863712 0.0986001566
v -0.171098799 4.71554804 0
v -0.188752681 4.82863712 0
v 0.150018752 4.699646 0
v 0.163984925 4.71554804 0.0897863731
v 0.18804653 4.71554804 0
v 0.131057188 4.699646 0.070772402
v 0.0982601941 4.71554804 0.155511171
v 0.0792463124 4.699646 0.122583307
v 0.0084738601 4.71554804 0.179572746
v 0.0084738601 4.699646 0.141544804
v -0.0622985773 4.699646 0.122583307
v -0.0813124627 4.71554804 0.155511171
v -0.114109457 4.699646 0.070772402
v -0.147037223 4.71554804 0.0897863731
v -0.133071035 4.699646 0
v -0.171098799 4.71554804 0
v 0.132234097 4.63002491 0
v 0.131057188 4.699646 0.070772402
v 0.150018752 4.699646 0
v 0.115652539 4.63002491 0.0618801862
v 0.0792463124 4.699646 0.122583307
v 0.0703539774 4.63002491 0.107178651
v 0.0084738601 4.699646 0.141544804
v 0.0084738601 4.63002491 0.123734131
v -0.0534062572 4.63002491 0.107178651
v -0.0622985773 4.699646 0.122583307
v -0.0987048 4.63002491 0.0618801862
v -0.114109457 4.699646 0.070772402
v -0.115286388 4.63002491 0
v -0.133071035 4.699646 0
v 0.107754059 4.61812496 0
v 0.115652539 4.63002491 0.0618801862
v 0.132234097 4.63002491 0
v 0.0944678783 4.61812496 0.0496401973
v 0.0703539774 4.63002491 0.107178651
v 0.0581139587 4.61812496 0.085993953
v 0.0084738601 4.63002491 0.123734131
v 0.0084738601 4.61812496 0.0992800891
v -0.0411662273 4.61812496 0.085993953
v -0.0534062572 4.63002491 0.107178651
v -0.0775201619 4.61812496 0.0496401973
v -0.0987048 4.63002491 0.0618801862
v -0.0908063278 4.61812496 0
v -0.115286388 4.63002491 0
v 0.111310989 3.9279232 0
v 0.0754278377 3.92899561 0.0386554003
v 0.0857847854 3.92899561 0
v 0.0975278839 3.9279232 0.0514184609
v 0.0471293293 3.92899561 0.066954039
v 0.0598924272 3.9279232 0.0890539661
v 0.0084738601 3.92899561 0.0773107857
v 0.0084738601 3.9279232 0.10283722
v -0.0429446958 3.9279232 0.0890539661
v -0.0301815998 3.92899561 0.066954039
v -0.08058016 3.9279232 0.0514184609
v -0.05848011 3.92899561 0.0386554003
v -0.0943632573 3.9279232 0
v -0.068837069 3.92899561 0
v 0.121824853 3.9203124 0
v 0.0975278839 3.9279232 0.0514184609
v 0.111310989 3.9279232 0
v 0.106629446 3.9203124 0.0566754192
v 0.0598924272 3.9279232 0.0890539661
v 0.120752543 3.87140465 0
v 0.0651493594 3.9203124 0.0981555134
v 0.0084738601 3.9279232 0.10283722
v 0.105714053 3.87140465 0.0561263971
v 0.11167714 3.85487533 0
v 0.0978417248 3.85487533 0.0516015552
v 0.064600125 3.87140465 0.0972140506
v 0.0600754954 3.85487533 0.0893679783
v 0.0084738601 3.9203124 0.113351129
v 0.0084738601 3.87140465 0.112278745
v 0.0084738601 3.85487533 0.103203431
v -0.0431277789 3.85487533 0.0893679783
v -0.047652401 3.87140465 0.0972140506
v -0.0808940083 3.85487533 0.0516015552
v -0.0482016392 3.9203124 0.0981555134
v -0.0429446958 3.9279232 0.0890539661
v -0.0887401775 3.87140465 0.0561263971
v -0.0947294086 3.85487533 0
v -0.103804812 3.87140465 0
v -0.0896817222 3.9203124 0.0566754192
v -0.08058016 3.9279232 0.0514184609
v -0.104877129 3.9203124 0
v -0.0943632573 3.9279232 0
v 0.12893872 3.84069991 0
v 0.0978417248 3.85487533 0.0516015552
v 0.11167714 3.85487533 0
v 0.112801768 3.84069991 0.0602325387
v 0.136000261 3.77479219 0
v 0.0600754954 3.85487533 0.0893679783
v 0.11889562 3.77479219 0.0637631193
v 0.0687062889 3.84069991 0.104327999
v 0.0722370669 3.77479219 0.110421747
v 0.0084738601 3.85487533 0.103203431
v 0.0084738601 3.84069991 0.120464779
v 0.0084738601 3.77479219 0.127500311
v -0.0552893393 3.77479219 0.110421747
v -0.0517585687 3.84069991 0.104327999
v -0.0431277789 3.85487533 0.0893679783
v -0.101947896 3.77479219 0.0637631193
v -0.0958540291 3.84069991 0.0602325387
v -0.119052544 3.77479219 0
v -0.0808940083 3.85487533 0.0516015552
v -0.111990996 3.84069991 0
v -0.0947294086 3.85487533 0
v 0.0754278377 3.92899561 0.0386554003
v 0.107754059 4.61812496 0
v 0.0857847854 3.92899561 0
v 0.0944678783 4.61812496 0.0496401973
v 0.0471293293 3.92899561 0.066954039
v 0.0581139587 4.61812496 0.085993953
v 0.0084738601 3.92899561 0.0773107857
v 0.0084738601 4.61812496 0.0992800891
v -0.0411662273 4.61812496 0.085993953
v -0.0301815998 3.92899561 0.066954039
v -0.0775201619 4.61812496 0.0496401973
v -0.05848011 3.92899561 0.0386554003
v -0.0908063278 4.61812496 0
v -0.068837069 3.92899561 0
v 0.179284975 4.82863712 0.0986001566
v -0.188752681 4.82863712 0
v 0.205700397 4.82863712 0
v -0.162337244 4.82863712 0.0986001566
v -0.0901524872 4.82863712 0.170811146
v 0.107100211 4.82863712 0.170811146
v 0.0084738601 4.82863712 0.197226554
v 0.179284975 4.82863712 -0.098626405
v 0.18804653 4.71554804 0
v 0.205700397 4.82863712 0
v 0.163984925 4.71554804 -0.0897863731
v 0.107100211 4.82863712 -0.170811146
v 0.0982601941 4.71554804 -0.155511171
v 0.0084738601 4.82863712 -0.197226554
v 0.0084738601 4.71554804 -0.179572746
v -0.0813124627 4.71554804 -0.155511171
v -0.0901524872 4.82863712 -0.170811146
v -0.147037223 4.71554804 -0.0897863731
v -0.162337244 4.82863712 -0.098626405
v -0.171098799 4.71554804 0
v -0.188752681 4.82863712 0
v 0.163984925 4.71554804 -0.0897863731
v 0.150018752 4.699646 0
v 0.18804653 4.71554804 0
v 0.131057188 4.699646 -0.070772402
v 0.0982601941 4.71554804 -0.155511171
v 0.0792463124 4.699646 -0.122583307
v 0.0084738601 4.71554804 -0.179572746
v 0.0084738601 4.699646 -0.141544804
v -0.0622985773 4.699646 -0.122583307
v -0.0813124627 4.71554804 -0.155511171
v -0.114109457 4.699646 -0.070772402
v -0.147037223 4.71554804 -0.0897863731
v -0.133071035 4.699646 0
v -0.171098799 4.71554804 0
v 0.131057188 4.699646 -0.070772402
v 0.132234097 4.63002491 0
v 0.150018752 4.699646 0
v 0.115652539 4.63002491 -0.0618801862
v 0.0792463124 4.699646 -0.122583307
v 0.0703539774 4.63002491 -0.107178651
v 0.0084738601 4.699646 -0.141544804
v 0.0084738601 4.63002491 -0.123760372
v -0.0534062572 4.63002491 -0.107178651
v -0.0622985773 4.699646 -0.122583307
v -0.0987048 4.63002491 -0.0618801862
v -0.114109457 4.699646 -0.070772402
v -0.115286388 4.63002491 0
v -0.133071035 4.699646 0
v 0.115652539 4.63002491 -0.0618801862
v 0.107754059 4.61812496 0
v 0.132234097 4.63002491 0
v 0.0944678783 4.61812496 -0.0496401973
v 0.0703539774 4.63002491 -0.107178651
v 0.0581139587 4.61812496 -0.085993953
v 0.0084738601 4.63002491 -0.123760372
v 0.0084738601 4.61812496 -0.0992800891
v -0.0411662273 4.61812496 -0.085993953
v -0.0534062572 4.63002491 -0.107178651
v -0.0775201619 4.61812496 -0.0496401973
v -0.0987048 4.63002491 -0.0618801862
v -0.0908063278 4.61812496 0
v -0.115286388 4.63002491 0
v 0.0754278377 3.92899561 -0.0386554003
v 0.111310989 3.9279232 0
v 0.0857847854 3.92899561 0
v 0.0975278839 3.9279232 -0.0514184609
v 0.0471293293 3.92899561 -0.066954039
v 0.0598924272 3.9279232 -0.0890539661
v 0.0084738601 3.92899561 -0.0773107857
v 0.0084738601 3.9279232 -0.10283722
v -0.0429446958 3.9279232 -0.0890539661
v -0.0301815998 3.92899561 -0.066954039
v -0.08058016 3.9279232 -0.0514184609
v -0.05848011 3.92899561 -0.0386554003
v -0.0943632573 3.9279232 0
v -0.068837069 3.92899561 0
v 0.0975278839 3.9279232 -0.0514184609
v 0.121824853 3.9203124 0
v 0.111310989 3.9279232 0
v 0.106629446 3.9203124 -0.0566754192
v 0.120752543 3.87140465 0
v 0.0598924272 3.9279232 -0.0890539661
v 0.105714053 3.87140465 -0.0561263971
v 0.11167714 3.85487533 0
v 0.0978417248 3.85487533 -0.0516015552
v 0.0651493594 3.9203124 -0.0981817618
v 0.0084738601 3.9279232 -0.10283722
v 0.064600125 3.87140465 -0.0972402915
v 0.0600754954 3.85487533 -0.0893939212
v 0.0084738601 3.9203124 -0.113351129
v 0.0084738601 3.87140465 -0.112278745
v 0.0084738601 3.85487533 -0.103203431
v -0.0431277789 3.85487533 -0.0893939212
v -0.047652401 3.87140465 -0.0972402915
v -0.0808940083 3.85487533 -0.0516015552
v -0.0482016392 3.9203124 -0.0981817618
v -0.0429446958 3.9279232 -0.0890539661
v -0.0887401775 3.87140465 -0.0561263971
v -0.0947294086 3.85487533 0
v -0.103804812 3.87140465 0
v -0.0896817222 3.9203124 -0.0566754192
v -0.08058016 3.9279232 -0.0514184609
v -0.104877129 3.9203124 0
v -0.0943632573 3.9279232 0
v 0.0978417248 3.85487533 -0.0516015552
v 0.12893872 3.84069991 0
v 0.11167714 3.85487533 0
v 0.112801768 3.84069991 -0.0602325387
v 0.136000261 3.77479219 0
v 0.0600754954 3.85487533 -0.0893939212
v 0.11889562 3.77479219 -0.0637631193
v 0.0687062889 3.84069991 -0.104327999
v 0.0722370669 3.77479219 -0.110421747
v 0.0084738601 3.85487533 -0.103203431
v 0.0084738601 3.84069991 -0.120464779
v 0.0084738601 3.77479219 -0.127526551
v -0.0552893393 3.77479219 -0.110421747
v -0.0517585687 3.84069991 -0.104327999
v -0.0431277789 3.85487533 -0.0893939212
v -0.101947896 3.77479219 -0.0637631193
v -0.0958540291 3.84069991 -0.0602325387
v -0.119052544 3.77479219 0
v -0.0808940083 3.85487533 -0.0516015552
v -0.111990996 3.84069991 0
v -0.0947294086 3.85487533 0
v 0.107754059 4.61812496 0
v 0.0754278377 3.92899561 -0.0386554003
v 0.0857847854 3.92899561 0
v 0.0944678783 4.61812496 -0.0496401973
v 0.0471293293 3.92899561 -0.066954039
v 0.0581139587 4.61812496 -0.085993953
v 0.0084738601 3.92899561 -0.0773107857
v 0.0084738601 4.61812496 -0.0992800891
v -0.0411662273 4.61812496 -0.085993953
v -0.0301815998 3.92899561 -0.066954039
v -0.0775201619 4.61812496 -0.0496401973
v -0.05848011 3.92899561 -0.0386554003
v -0.0908063278 4.61812496 0
v -0.068837069 3.92899561 0
v -0.188752681 4.82863712 0
v 0.179284975 4.82863712 -0.098626405
v 0.205700397 4.82863712 0
v -0.162337244 4.82863712 -0.098626405
v -0.0901524872 4.82863712 -0.170811146
v 0.107100211 4.82863712 -0.170811146
v 0.0084738601 4.82863712 -0.197226554
v 0.0680524409 3.41229916 0.0579309054
v 0.129906401 3.43568087 0.025447689
v 0.0680524409 3.37777591 0.0579309054
v 0.17834343 3.37777591 0
v 0.179101899 3.44799924 0
v 0.0435723998 0.679347694 0.0565970168
v 0.135843337 0.679347694 0
v 0.123498701 0.476524144 0
v -0 0.477073401 0.0553678088
v 0.112461768 0.372065544 0
v -0 0.319574475 0.0420292988
v 0.0948863402 0.269097507 0
v -0 0.148083419 0.0224138889
v 0.074669376 0.184934199 0
v 0.04948318 0.108774118 0
v -0 0.0452463292 0.0077677099
v 0.0235385094 0.0452987105 0
v -0 0 0
v -0 0.679347694 0.0387338996
v 0.0435723998 0.679347694 0.0565970168
v -0 0.477073401 0.0553678088
v 0.0680524409 3.37777591 0.0579309054
v -0 3.37892652 0.034601748
v 0.0680524409 3.41229916 0.0579309054
v -0.0680524409 3.37777591 0.0579309054
v -0.129906401 3.43568087 0.025447689
v -0.0680524409 3.41229916 0.0579309054
v -0.17834343 3.37777591 0
v -0.179101899 3.44799924 0
v -0.0435723998 0.679347694 0.0565970168
v -0.135843337 0.679347694 0
v -0.123498701 0.476524144 0
v -0 0.477073401 0.0553678088
v -0.112461768 0.372065544 0
v -0 0.319574475 0.0420292988
v -0.0948863402 0.269097507 0
v -0 0.148083419 0.0224138889
v -0.074669376 0.184934199 0
v -0.04948318 0.108774118 0
v -0 0.0452463292 0.0077677099
v -0.0235385094 0.0452987105 0
v -0 0 0
v -0 0.477073401 0.0553678088
v -0.0435723998 0.679347694 0.0565970168
v -0 0.679347694 0.0387338996
v -0.0680524409 3.37777591 0.0579309054
v -0 3.37892652 0.034601748
v -0.0680524409 3.41229916 0.0579309054
v 0.0680524409 3.37777591 -0.0579571463
v 0.129906401 3.43568087 -0.025447689
v 0.0680524409 3.41229916 -0.0579571463
v 0.17834343 3.37777591 0
v 0.179101899 3.44799924 0
v 0.0435723998 0.679347694 -0.0565970615
v 0.135843337 0.679347694 0
v 0.123498701 0.476524144 0
v -0 0.477073401 -0.0553678088
v 0.112461768 0.372065544 0
v -0 0.319574475 -0.0420292988
v 0.0948863402 0.269097507 0
v -0 0.148083434 -0.0224138796
v 0.074669376 0.184934199 0
v 0.04948318 0.108774118 0
v -0 0.0452463292 -0.0077677099
v 0.0235385094 0.0452987105 0
v -0 0 0
v -0 0.477073401 -0.0553678088
v 0.0435723998 0.679347694 -0.0565970615
v -0 0.679347694 -0.0387338996
v 0.0680524409 3.37777591 -0.0579571463
v -0 3.37892652 -0.034601748
v 0.0680524409 3.41229916 -0.0579571463
v -0.0680524409 3.41229916 -0.0579571463
v -0.129906401 3.43568087 -0.025447689
v -0.0680524409 3.37777591 -0.0579571463
v -0.17834343 3.37777591 0
v -0.179101899 3.44799924 0
v -0.0435723998 0.679347694 -0.0565970615
v -0.135843337 0.679347694 0
v -0.123498701 0.476524144 0
v -0 0.477073401 -0.0553678088
v -0.112461768 0.372065544 0
v -0 0.319574475 -0.0420292988
v -0.0948863402 0.269097507 0
v -0 0.148083434 -0.0224138796
v -0.074669376 0.184934199 0
v -0.04948318 0.108774118 0
v -0 0.0452463292 -0.0077677099
v -0.0235385094 0.0452987105 0
v -0 0 0
v -0 0.679347694 -0.0387338996
v -0.0435723998 0.679347694 -0.0565970615
v -0 0.477073401 -0.0553678088
v -0.0680524409 3.37777591 -0.0579571463
v -0 3.37892652 -0.034601748
v -0.0680524409 3.41229916 -0.0579571463
v -0 3.39417434 0.153314203
v 0.0680524409 3.41229916 0.0579309054
v -0 3.37900543 0.034601748
v 0.0680524409 3.42283893 0.127421886
v 0.129906401 3.45011783 0.104746394
v 0.129906401 3.43568087 0.025447689
v 0.210277319 3.47266221 0.0740023777
v 0.209832728 3.4551785 0
v 0.295068294 3.48715162 0.0411401391
v 0.307517529 3.47587919 0
v 0.306288302 3.78083372 0
v 0.295068294 3.48715162 0.0411401391
v 0.2951729 3.77246451 0.0416632071
v 0.307517529 3.47587919 0
v -0 3.77338004 0.153104857
v 0.0084738601 3.77479219 0.127500311
v 0.0722370669 3.77473998 0.111075744
v 0.145624906 3.77338004 0.0991757214
v 0.11889562 3.77725053 0.0637631193
v 0.135215655 3.78182721 0
v 0.2951729 3.77246451 0.0416632071
v 0.306288302 3.78083372 0
v -0.0680524409 3.41229916 0.0579309054
v -0 3.39417434 0.153314203
v -0 3.37900543 0.034601748
v -0.0680524409 3.42283893 0.127421886
v -0.129906401 3.45011783 0.104746394
v -0.129906401 3.43568087 0.025447689
v -0.210277319 3.47266221 0.0740023777
v -0.209832728 3.4551785 0
v -0.295068294 3.48715162 0.0411401391
v -0.307517529 3.47587919 0
v -0.295068294 3.48715162 0.0411401391
v -0.306288302 3.78083372 0
v -0.2951729 3.77246451 0.0416632071
v -0.307517529 3.47587919 0
v -0.0552893393 3.77479219 0.110421747
v 0.0084738601 3.77479219 0.127500311
v -0 3.77338004 0.153104857
v -0.145624906 3.77338004 0.0991757214
v -0.101947896 3.77479219 0.0637631193
v -0.119052544 3.77479219 0
v -0.2951729 3.77246451 0.0416632071
v -0.306288302 3.78083372 0
v 0.0680524409 3.41229916 -0.0579571463
v -0 3.39417434 -0.153314203
v -0 3.37900543 -0.034601748
v 0.0680524409 3.42283893 -0.127421886
v 0.129906401 3.45011783 -0.104772642
v 0.129906401 3.43568087 -0.0254739393
v 0.210277319 3.47266221 -0.0740286261
v 0.209832728 3.4551785 0
v 0.295068294 3.48715162 -0.04116638
v 0.307517529 3.47587919 0
v 0.295068294 3.48715162 -0.04116638
v 0.306288302 3.78083372 0
v 0.2951729 3.77246451 -0.0416632071
v 0.307517529 3.47587919 0
v 0.0722370669 3.77473998 -0.111075744
v -0 3.77510619 -0.127526551
v -0 3.77338004 -0.153131098
v 0.145624906 3.77338004 -0.0992016569
v 0.11889562 3.77725053 -0.0637631193
v 0.135215655 3.78182721 0
v 0.2951729 3.77246451 -0.0416632071
v 0.306288302 3.78083372 0
v -0 3.39417434 -0.153314203
v -0.0680524409 3.41229916 -0.0579571463
v -0 3.37900543 -0.034601748
v -0.0680524409 3.42283893 -0.127421886
v -0.129906401 3.45011783 -0.104772642
v -0.129906401 3.43568087 -0.0254739393
v -0.210277319 3.47266221 -0.0740286261
v -0.209832728 3.4551785 0
v -0.295068294 3.48715162 -0.04116638
v -0.307517529 3.47587919 0
v -0.306288302 3.78083372 0
v -0.295068294 3.48715162 -0.04116638
v -0.2951729 3.77246451 -0.0416632071
v -0.307517529 3.47587919 0
v -0 3.77338004 -0.153131098
v -0 3.77510619 -0.127526551
v -0.0552893393 3.77479219 -0.110421747
v -0.145624906 3.77338004 -0.0992016569
v -0.101947896 3.77479219 -0.0637631193
v -0.119052544 3.77479219 0
v -0.2951729 3.77246451 -0.0416632071
v -0.306288302 3.78083372 0
v 0.2951729 3.77246451 -0.0416632071
v 0.210277319 3.47266221 -0.0740286261
v 0.295068294 3.48715162 -0.04116638
v 0.145624906 3.77338004 -0.0992016569
v 0.129906401 3.45011783 -0.104772642
v 0.0680524409 3.42283893 -0.127421886
v -0 3.77338004 -0.153131098
v -0 3.39417434 -0.153314203
v -0 3.77338004 -0.153131098
v -0.0680524409 3.42283893 -0.127421886
v -0 3.39417434 -0.153314203
v -0.145624906 3.77338004 -0.0992016569
v -0.129906401 3.45011783 -0.104772642
v -0.210277319 3.47266221 -0.0740286261
v -0.2951729 3.77246451 -0.0416632071
v -0.295068294 3.48715162 -0.04116638
v -0.2951729 3.77246451 0.0416632071
v -0.210277319 3.47266221 0.0740023777
v -0.295068294 3.48715162 0.0411401391
v -0.145624906 3.77338004 0.0991757214
v -0.129906401 3.45011783 0.104746394
v -0.0680524409 3.42283893 0.127421886
v -0 3.77338004 0.153104857
v -0 3.39417434 0.153314203
v -0 3.77338004 0.153104857
v 0.0680524409 3.42283893 0.127421886
v -0 3.39417434 0.153314203
v 0.145624906 3.77338004 0.0991757214
v 0.129906401 3.45011783 0.104746394
v 0.210277319 3.47266221 0.0740023777
v 0.2951729 3.77246451 0.0416632071
v 0.295068294 3.48715162 0.0411401391
vt 0.691894531 0.457519531
vt 0.630859375 0.529296875
vt 0.691894531 0.529296875
vt 0.630859375 0.457519531
vt 0.5703125 0.529296875
vt 0.5703125 0.457519531
vt 0.509277344 0.529296875
vt 0.509277344 0.457519531
vt 0.448486328 0.457519531
vt 0.448486328 0.529296875
vt 0.387451172 0.457519531
vt 0.387451172 0.529296875
vt 0.327148438 0.457519531
vt 0.327148438 0.529296875
vt 0.432128906 0.445556641
vt 0.478759766 0.422607422
vt 0.432128906 0.422607422
vt 0.478759766 0.445556641
vt 0.525390625 0.422607422
vt 0.525390625 0.445556641
vt 0.571777344 0.422607422
vt 0.571777344 0.445556641
vt 0.618164062 0.445556641
vt 0.618164062 0.422607422
vt 0.665039062 0.445556641
vt 0.665039062 0.422607422
vt 0.705566406 0.445556641
vt 0.705566406 0.422607422
vt 0.170776367 0.979492188
vt 0.209106445 0.938476562
vt 0.170776367 0.938476562
vt 0.209106445 0.979492188
vt 0.248046875 0.938476562
vt 0.248046875 0.979492188
vt 0.287109375 0.938476562
vt 0.287109375 0.979492188
vt 0.325927734 0.979492188
vt 0.325927734 0.938476562
vt 0.364990234 0.979492188
vt 0.364990234 0.938476562
vt 0.406982422 0.979492188
vt 0.406982422 0.938476562
vt 0.433837891 0.380859375
vt 0.467529297 0.364990234
vt 0.433837891 0.364990234
vt 0.467529297 0.380859375
vt 0.501464844 0.364990234
vt 0.501464844 0.380859375
vt 0.53515625 0.364990234
vt 0.53515625 0.380859375
vt 0.568847656 0.380859375
vt 0.568847656 0.364990234
vt 0.601074219 0.380859375
vt 0.601074219 0.364990234
vt 0.630859375 0.380859375
vt 0.630859375 0.364990234
vt 0.441162109 0.411621094
vt 0.475341797 0.393066406
vt 0.441162109 0.393066406
vt 0.475341797 0.411621094
vt 0.509277344 0.393066406
vt 0.509277344 0.411621094
vt 0.543457031 0.393066406
vt 0.543457031 0.411621094
vt 0.577636719 0.411621094
vt 0.577636719 0.393066406
vt 0.611816406 0.411621094
vt 0.611816406 0.393066406
vt 0.650390625 0.411621094
vt 0.650390625 0.393066406
vt 0.423339844 0.427001953
vt 0.391357422 0.434814453
vt 0.423339844 0.434814453
vt 0.391357422 0.427001953
vt 0.359619141 0.434814453
vt 0.423339844 0.409179688
vt 0.359619141 0.427001953
vt 0.327148438 0.434814453
vt 0.391357422 0.409179688
vt 0.423339844 0.392578125
vt 0.391357422 0.392578125
vt 0.359619141 0.409179688
vt 0.359619141 0.392578125
vt 0.327148438 0.427001953
vt 0.327148438 0.409179688
vt 0.327148438 0.392578125
vt 0.294921875 0.392578125
vt 0.294921875 0.409179688
vt 0.262695312 0.392578125
vt 0.294921875 0.427001953
vt 0.294921875 0.434814453
vt 0.262695312 0.409179688
vt 0.230957031 0.392578125
vt 0.230957031 0.409179688
vt 0.262695312 0.427001953
vt 0.262695312 0.434814453
vt 0.230957031 0.427001953
vt 0.230957031 0.434814453
vt 0.705078125 0.808105469
vt 0.668945312 0.822265625
vt 0.705078125 0.822265625
vt 0.668945312 0.808105469
vt 0.705078125 0.782226562
vt 0.631347656 0.822265625
vt 0.668945312 0.782226562
vt 0.631347656 0.808105469
vt 0.631347656 0.782226562
vt 0.594726562 0.822265625
vt 0.594726562 0.808105469
vt 0.594726562 0.782226562
vt 0.55859375 0.782226562
vt 0.55859375 0.808105469
vt 0.55859375 0.822265625
vt 0.521484375 0.782226562
vt 0.521484375 0.808105469
vt 0.484375 0.782226562
vt 0.521484375 0.822265625
vt 0.484375 0.808105469
vt 0.484375 0.822265625
vt 0.962402344 0.312011719
vt 0.98828125 0.705078125
vt 0.98828125 0.312011719
vt 0.962402344 0.705078125
vt 0.936523438 0.312011719
vt 0.936523438 0.705078125
vt 0.91015625 0.312011719
vt 0.91015625 0.705078125
vt 0.884277344 0.705078125
vt 0.884277344 0.312011719
vt 0.857910156 0.705078125
vt 0.857910156 0.312011719
vt 0.833007812 0.705078125
vt 0.833007812 0.312011719
vt 0.0433044434 0.0361022949
vt 0.0745849609 0.152954102
vt 0.0745849609 0.0278930664
vt 0.0433044434 0.14453125
vt 0.020401001 0.121520996
vt 0.020401001 0.0588989258
vt 0.0120010376 0.0900878906
vt 0.630859375 0.529296875
vt 0.691894531 0.457519531
vt 0.691894531 0.529296875
vt 0.630859375 0.457519531
vt 0.5703125 0.529296875
vt 0.5703125 0.457519531
vt 0.509277344 0.529296875
vt 0.509277344 0.457519531
vt 0.448486328 0.457519531
vt 0.448486328 0.529296875
vt 0.387451172 0.457519531
vt 0.387451172 0.529296875
vt 0.327148438 0.457519531
vt 0.327148438 0.529296875
vt 0.478759766 0.422607422
vt 0.432128906 0.445556641
vt 0.432128906 0.422607422
vt 0.478759766 0.445556641
vt 0.525390625 0.422607422
vt 0.525390625 0.445556641
vt 0.571777344 0.422607422
vt 0.571777344 0.445556641
vt 0.618164062 0.445556641
vt 0.618164062 0.422607422
vt 0.665039062 0.445556641
vt 0.665039062 0.422607422
vt 0.705566406 0.445556641
vt 0.705566406 0.422607422
vt 0.209106445 0.938476562
vt 0.170776367 0.979492188
vt 0.170776367 0.938476562
vt 0.209106445 0.979492188
vt 0.248046875 0.938476562
vt 0.248046875 0.979492188
vt 0.287109375 0.938476562
vt 0.287109375 0.979492188
vt 0.325927734 0.979492188
vt 0.325927734 0.938476562
vt 0.364990234 0.979492188
vt 0.364990234 0.938476562
vt 0.406982422 0.979492188
vt 0.406982422 0.938476562
vt 0.467529297 0.364990234
vt 0.433837891 0.380859375
vt 0.433837891 0.364990234
vt 0.467529297 0.380859375
vt 0.501464844 0.364990234
vt 0.501464844 0.380859375
vt 0.53515625 0.364990234
vt 0.53515625 0.380859375
vt 0.568847656 0.380859375
vt 0.568847656 0.364990234
vt 0.601074219 0.380859375
vt 0.601074219 0.364990234
vt 0.630859375 0.380859375
vt 0.630859375 0.364990234
vt 0.475341797 0.393066406
vt 0.441162109 0.411621094
vt 0.441162109 0.393066406
vt 0.475341797 0.411621094
vt 0.509277344 0.393066406
vt 0.509277344 0.411621094
vt 0.543457031 0.393066406
vt 0.543457031 0.411621094
vt 0.577636719 0.411621094
vt 0.577636719 0.393066406
vt 0.611816406 0.411621094
vt 0.611816406 0.393066406
vt 0.650390625 0.411621094
vt 0.650390625 0.393066406
vt 0.391357422 0.434814453
vt 0.423339844 0.427001953
vt 0.423339844 0.434814453
vt 0.391357422 0.427001953
vt 0.423339844 0.409179688
vt 0.359619141 0.434814453
vt 0.391357422 0.409179688
vt 0.423339844 0.392578125
vt 0.391357422 0.392578125
vt 0.359619141 0.427001953
vt 0.327148438 0.434814453
vt 0.359619141 0.409179688
vt 0.359619141 0.392578125
vt 0.327148438 0.427001953
vt 0.327148438 0.409179688
vt 0.327148438 0.392578125
vt 0.294921875 0.392578125
vt 0.294921875 0.409179688
vt 0.262695312 0.392578125
vt 0.294921875 0.427001953
vt 0.294921875 0.434814453
vt 0.262695312 0.409179688
vt 0.230957031 0.392578125
vt 0.230957031 0.409179688
vt 0.262695312 0.427001953
vt 0.262695312 0.434814453
vt 0.230957031 0.427001953
vt 0.230957031 0.434814453
vt 0.668945312 0.822265625
vt 0.705078125 0.808105469
vt 0.705078125 0.822265625
vt 0.668945312 0.808105469
vt 0.705078125 0.782226562
vt 0.631347656 0.822265625
vt 0.668945312 0.782226562
vt 0.631347656 0.808105469
vt 0.631347656 0.782226562
vt 0.594726562 0.822265625
vt 0.594726562 0.808105469
vt 0.594726562 0.782226562
vt 0.55859375 0.782226562
vt 0.55859375 0.808105469
vt 0.55859375 0.822265625
vt 0.521484375 0.782226562
vt 0.521484375 0.808105469
vt 0.484375 0.782226562
vt 0.521484375 0.822265625
vt 0.484375 0.808105469
vt 0.484375 0.822265625
vt 0.98828125 0.705078125
vt 0.962402344 0.312011719
vt 0.98828125 0.312011719
vt 0.962402344 0.705078125
vt 0.936523438 0.312011719
vt 0.936523438 0.705078125
vt 0.91015625 0.312011719
vt 0.91015625 0.705078125
vt 0.884277344 0.705078125
vt 0.884277344 0.312011719
vt 0.857910156 0.705078125
vt 0.857910156 0.312011719
vt 0.833007812 0.705078125
vt 0.833007812 0.312011719
vt 0.0745849609 0.152954102
vt 0.0433044434 0.0361022949
vt 0.0745849609 0.0278930664
vt 0.0433044434 0.14453125
vt 0.020401001 0.121520996
vt 0.020401001 0.0588989258
vt 0.0120010376 0.0900878906
vt 0.984863281 0.230224609
vt 0.984863281 0.254882812
vt 0.971679688 0.230224609
vt 0.971679688 0.265380859
vt 0.984863281 0.265380859
vt 0.292724609 0.230224609
vt 0.292724609 0.265380859
vt 0.242553711 0.265380859
vt 0.242553711 0.230224609
vt 0.21484375 0.265380859
vt 0.201538086 0.230224609
vt 0.188110352 0.265380859
vt 0.158081055 0.230224609
vt 0.166015625 0.251708984
vt 0.147338867 0.243530273
vt 0.131958008 0.230224609
vt 0.131591797 0.236450195
vt 0.120422363 0.230224609
vt 0.299560547 0.278564453
vt 0.299560547 0.299072266
vt 0.248657227 0.278564453
vt 0.977539062 0.299072266
vt 0.977539062 0.278564453
vt 0.986328125 0.299072266
vt 0.971679688 0.230224609
vt 0.984863281 0.254882812
vt 0.984863281 0.230224609
vt 0.971679688 0.265380859
vt 0.984863281 0.265380859
vt 0.292724609 0.230224609
vt 0.292724609 0.265380859
vt 0.242553711 0.265380859
vt 0.242553711 0.230224609
vt 0.21484375 0.265380859
vt 0.201538086 0.230224609
vt 0.188110352 0.265380859
vt 0.158081055 0.230224609
vt 0.166015625 0.251708984
vt 0.147338867 0.243530273
vt 0.131958008 0.230224609
vt 0.131591797 0.236450195
vt 0.120422363 0.230224609
vt 0.248657227 0.278564453
vt 0.299560547 0.299072266
vt 0.299560547 0.278564453
vt 0.977539062 0.299072266
vt 0.977539062 0.278564453
vt 0.986328125 0.299072266
vt 0.971679688 0.230224609
vt 0.984863281 0.254882812
vt 0.984863281 0.230224609
vt 0.971679688 0.265380859
vt 0.984863281 0.265380859
vt 0.292724609 0.230224609
vt 0.292724609 0.265380859
vt 0.242553711 0.265380859
vt 0.242553711 0.230224609
vt 0.21484375 0.265380859
vt 0.201538086 0.230224609
vt 0.188110352 0.265380859
vt 0.158081055 0.230224609
vt 0.166015625 0.251708984
vt 0.147338867 0.243530273
vt 0.131958008 0.230224609
vt 0.131591797 0.236450195
vt 0.120422363 0.230224609
vt 0.248657227 0.278564453
vt 0.299560547 0.299072266
vt 0.299560547 0.278564453
vt 0.977539062 0.299072266
vt 0.977539062 0.278564453
vt 0.986328125 0.299072266
vt 0.984863281 0.230224609
vt 0.984863281 0.254882812
vt 0.971679688 0.230224609
vt 0.971679688 0.265380859
vt 0.984863281 0.265380859
vt 0.292724609 0.230224609
vt 0.292724609 0.265380859
vt 0.242553711 0.265380859
vt 0.242553711 0.230224609
vt 0.21484375 0.265380859
vt 0.201538086 0.230224609
vt 0.188110352 0.265380859
vt 0.158081055 0.230224609
vt 0.166015625 0.251708984
vt 0.147338867 0.243530273
vt 0.131958008 0.230224609
vt 0.131591797 0.236450195
vt 0.120422363 0.230224609
vt 0.299560547 0.278564453
vt 0.299560547 0.299072266
vt 0.248657227 0.278564453
vt 0.977539062 0.299072266
vt 0.977539062 0.278564453
vt 0.986328125 0.299072266
vt 0.705566406 0.728515625
vt 0.747070312 0.689453125
vt 0.747070312 0.728515625
vt 0.705566406 0.689453125
vt 0.705566406 0.649414062
vt 0.747070312 0.649414062
vt 0.705566406 0.601074219
vt 0.747070312 0.601074219
vt 0.705566406 0.549804688
vt 0.747070312 0.549804688
vt 0.722167969 0.540039062
vt 0.744140625 0.388916016
vt 0.744140625 0.540039062
vt 0.722167969 0.388916016
vt 0.502441406 0.640625
vt 0.502441406 0.626464844
vt 0.545898438 0.630371094
vt 0.588867188 0.640625
vt 0.581542969 0.613769531
vt 0.604003906 0.584960938
vt 0.690429688 0.640625
vt 0.690429688 0.620605469
vt 0.747070312 0.689453125
vt 0.705566406 0.728515625
vt 0.747070312 0.728515625
vt 0.705566406 0.689453125
vt 0.705566406 0.649414062
vt 0.747070312 0.649414062
vt 0.705566406 0.597167969
vt 0.747070312 0.601074219
vt 0.705566406 0.549804688
vt 0.747070312 0.549804688
vt 0.744140625 0.388916016
vt 0.722167969 0.540039062
vt 0.744140625 0.540039062
vt 0.722167969 0.388916016
vt 0.545898438 0.630371094
vt 0.502441406 0.626464844
vt 0.502441406 0.640625
vt 0.588867188 0.640625
vt 0.581542969 0.613769531
vt 0.604003906 0.584960938
vt 0.690429688 0.640625
vt 0.690429688 0.620605469
vt 0.747070312 0.689453125
vt 0.705566406 0.728515625
vt 0.747070312 0.728515625
vt 0.705566406 0.689453125
vt 0.705566406 0.649414062
vt 0.747070312 0.649414062
vt 0.705566406 0.597167969
vt 0.747070312 0.609375
vt 0.705566406 0.549804688
vt 0.747070312 0.549804688
vt 0.744140625 0.388916016
vt 0.722167969 0.540039062
vt 0.744140625 0.540039062
vt 0.722167969 0.388916016
vt 0.545898438 0.630371094
vt 0.502441406 0.626464844
vt 0.502441406 0.640625
vt 0.588867188 0.640625
vt 0.581542969 0.613769531
vt 0.604003906 0.584960938
vt 0.690429688 0.640625
vt 0.690429688 0.620605469
vt 0.705566406 0.728515625
vt 0.747070312 0.689453125
vt 0.747070312 0.728515625
vt 0.705566406 0.689453125
vt 0.705566406 0.649414062
vt 0.747070312 0.649414062
vt 0.705566406 0.592773438
vt 0.747070312 0.601074219
vt 0.705566406 0.549804688
vt 0.747070312 0.549804688
vt 0.722167969 0.540039062
vt 0.744140625 0.388916016
vt 0.744140625 0.540039062
vt 0.722167969 0.388916016
vt 0.502441406 0.640625
vt 0.502441406 0.626464844
vt 0.545898438 0.630371094
vt 0.588867188 0.640625
vt 0.581542969 0.613769531
vt 0.604003906 0.584960938
vt 0.690429688 0.640625
vt 0.690429688 0.620605469
vt 0.219604492 0.272949219
vt 0.176879883 0.439208984
vt 0.219604492 0.439208984
vt 0.138793945 0.272949219
vt 0.129760742 0.439208984
vt 0.096496582 0.439208984
vt 0.0599975586 0.272949219
vt 0.0599975586 0.439208984
vt 0.0599975586 0.272949219
vt 0.096496582 0.439208984
vt 0.0599975586 0.439208984
vt 0.138793945 0.272949219
vt 0.129760742 0.439208984
vt 0.180541992 0.439208984
vt 0.219604492 0.272949219
vt 0.219604492 0.439208984
vt 0.219604492 0.272949219
vt 0.176879883 0.439208984
vt 0.219604492 0.439208984
vt 0.138793945 0.272949219
vt 0.129760742 0.439208984
vt 0.096496582 0.439208984
vt 0.0599975586 0.272949219
vt 0.0599975586 0.439208984
vt 0.0599975586 0.272949219
vt 0.096496582 0.439208984
vt 0.0599975586 0.439208984
vt 0.138793945 0.272949219
vt 0.129760742 0.439208984
vt 0.173339844 0.439208984
vt 0.219604492 0.272949219
vt 0.219604492 0.439208984
vn 0.988025844 -0.154288426 -9.91856837E-07
vn 0.853067279 -0.15424411 0.498482674
vn 0.988033831 -0.154237285 -8.60992202E-07
vn 0.852691829 -0.154304445 0.499105901
vn 0.489447236 -0.154331923 0.858267426
vn 0.488863021 -0.154339805 0.858598948
vn -2.64147559E-07 -0.154306754 0.988023043
vn -0 -0.154236555 0.98803395
vn -0.488862902 -0.154339954 0.858598948
vn -0.489446819 -0.154331893 0.858267665
vn -0.852692246 -0.154304504 0.499105394
vn -0.853067279 -0.154244125 0.498482585
vn -0.988025844 -0.15428862 -9.91856837E-07
vn -0.988033712 -0.154237673 -8.94107131E-07
vn 0.385800987 -0.922581971 0
vn 0.3302221 -0.922544718 0.199660972
vn 0.385790735 -0.922586322 0
vn 0.32938391 -0.922528386 0.201115653
vn 0.186164841 -0.922544122 0.338016123
vn 0.184689283 -0.922533572 0.338853389
vn -0 -0.922580957 0.385803699
vn -0 -0.922589004 0.385784209
vn -0.184688032 -0.922527611 0.338870376
vn -0.186163515 -0.922537863 0.338033974
vn -0.32938391 -0.922528327 0.201116487
vn -0.33022204 -0.92254436 0.199663192
vn -0.385801196 -0.922581851 0
vn -0.385791004 -0.922586262 0
vn 0.968883514 -0.247517392 0
vn 0.835151792 -0.247513965 0.49118045
vn 0.968887627 -0.247500911 0
vn 0.834477484 -0.24751994 0.492322356
vn 0.477658629 -0.247523934 0.842955649
vn 0.47643441 -0.24760516 0.843624353
vn -1.45394026E-07 -0.247666791 0.968845248
vn -0 -0.247840449 0.968800843
vn -0.476433009 -0.247604549 0.843625247
vn -0.477661043 -0.24752529 0.842953861
vn -0.834477723 -0.247520581 0.492321581
vn -0.835153282 -0.247514755 0.491177499
vn -0.968883395 -0.247517765 0
vn -0.968887627 -0.247500911 0
vn 0.437248766 -0.89934063 0
vn 0.374534339 -0.899261415 0.225948974
vn 0.437192798 -0.899367869 0
vn 0.373774409 -0.899230003 0.22732833
vn 0.211362019 -0.899233937 0.383020222
vn 0.20989956 -0.899214625 0.383868665
vn -2.050935E-07 -0.899195969 0.437546223
vn -0 -0.899183691 0.437571228
vn -0.209899932 -0.899219096 0.383858085
vn -0.211362749 -0.899239302 0.383007169
vn -0.373774081 -0.89922899 0.227332473
vn -0.37453422 -0.899260998 0.225950614
vn -0.437248737 -0.89934063 0
vn -0.437192708 -0.899367869 0
vn 0.0419777818 0.999118507 0
vn 0.0369651578 0.999117553 0.0199433062
vn 0.0419742316 0.999118745 0
vn 0.0368330218 0.999117672 0.0201789532
vn 0.0220433418 0.999117315 0.0357588157
vn 0.0218147691 0.999117553 0.035891965
vn -0 0.999118507 0.0419783667
vn -0 0.999118745 0.0419727378
vn -0.0218147691 0.999117434 0.0358945541
vn -0.0220433325 0.999116957 0.0357669033
vn -0.036833033 0.999117792 0.0201726183
vn -0.0369651727 0.999117792 0.019932285
vn -0.041977793 0.999118507 0
vn -0.0419742465 0.999118745 0
vn 0.991187036 0.132470429 0
vn 0.511254489 0.809948266 0.287406951
vn 0.586373508 0.810040832 0
vn 0.857952237 0.138510406 0.494704843
vn 0.299067169 0.809940517 0.504534721
vn 0.989499092 -0.144539326 0
vn 0.495737702 0.138204381 0.857405186
vn -1.84001607E-07 0.810005546 0.586422205
vn 0.855970979 -0.141990811 0.497144073
vn 0.876526535 -0.481353462 0
vn 0.754858494 -0.481374443 0.445496708
vn 0.492764235 -0.141946211 0.858507335
vn 0.431636214 -0.480587035 0.76336509
vn -3.03238807E-07 0.1443097 0.98953259
vn -0 -0.139179394 0.990267217
vn -0 -0.481268853 0.876573086
vn -0.431633472 -0.480583221 0.763369024
vn -0.492845744 -0.141927764 0.858463585
vn -0.755383372 -0.480529159 0.445519477
vn -0.495791167 0.13814573 0.857383788
vn -0.299067885 0.809945822 0.504525661
vn -0.855913937 -0.142011017 0.497236639
vn -0.876630425 -0.481164277 -1.34929067E-07
vn -0.98947525 -0.144702137 0
vn -0.857956409 0.138216659 0.494779646
vn -0.511251926 0.809944332 0.287422389
vn -0.991187036 0.132470399 0
vn -0.586372972 0.810041249 0
vn 0.966793716 0.255558014 0
vn 0.554723978 0.772922754 0.308012635
vn 0.634639204 0.772808611 0
vn 0.838696003 0.260724008 0.478133947
vn 0.99432677 0.106369175 0
vn 0.326446295 0.77292943 0.544070721
vn 0.862849236 0.106251277 0.494167805
vn 0.487237871 0.260677844 0.83345449
vn 0.500228703 0.106236696 0.859351516
vn -0 0.772847474 0.634591758
vn -2.68679514E-07 0.265591085 0.964085817
vn -0 0.106145114 0.994350612
vn -0.500230849 0.106237173 0.859350085
vn -0.487240553 0.260679036 0.833452523
vn -0.326445907 0.77292943 0.54407084
vn -0.862851083 0.106251501 0.494164616
vn -0.838696003 0.260723621 0.478134036
vn -0.99432677 0.106369078 0
vn -0.554722309 0.772920251 0.308021873
vn -0.966793835 0.255557507 0
vn -0.634639144 0.772808611 0
vn 0.86648041 -0.0318717547 0.498192608
vn 0.999491692 -0.0318788402 0
vn 0.999492288 -0.031863533 0
vn 0.866174996 -0.0318812393 0.498722643
vn 0.501287878 -0.0318811834 0.864693046
vn 0.500637531 -0.0318736099 0.865069985
vn -0 -0.0318822637 0.999491572
vn -0 -0.0318635739 0.999492168
vn -0.500637352 -0.0318735912 0.865070105
vn -0.501288116 -0.031881202 0.864692867
vn -0.866174996 -0.0318812281 0.498722643
vn -0.866480231 -0.0318717659 0.498193026
vn -0.999491692 -0.0318788327 0
vn -0.999492288 -0.0318635479 0
vn -0 1 -6.09654421E-07
vn -0 1 0
vn -0 1 0
vn -0 1 -6.93413585E-06
vn -0 1 7.20682783E-06
vn -0 1 0
vn -0 1 0
vn 0.85302335 -0.154341266 -0.498527735
vn 0.988025844 -0.154288426 -9.91856837E-07
vn 0.988033831 -0.154237285 -8.60992202E-07
vn 0.852681994 -0.15437451 -0.499101132
vn 0.489388674 -0.154374823 -0.858293176
vn 0.488863081 -0.154339805 -0.858598948
vn 1.89497229E-07 -0.15430674 -0.988023043
vn -0 -0.154236555 -0.98803395
vn -0.488863021 -0.154339954 -0.858598948
vn -0.489388764 -0.154374823 -0.858293176
vn -0.852682352 -0.154374555 -0.499100506
vn -0.853023469 -0.154341206 -0.498527557
vn -0.988025844 -0.15428862 -9.91856837E-07
vn -0.988033712 -0.154237673 -8.94107131E-07
vn 0.330222189 -0.922544718 -0.199660912
vn 0.385800987 -0.922581971 0
vn 0.385790735 -0.922586322 0
vn 0.32938391 -0.922528505 -0.201115564
vn 0.186164752 -0.922544241 -0.338016212
vn 0.184689179 -0.922533572 -0.338853449
vn -0 -0.922580838 -0.38580367
vn -0 -0.922589064 -0.385784209
vn -0.184687912 -0.922527671 -0.338870376
vn -0.18616344 -0.922537923 -0.338034004
vn -0.32938385 -0.922528327 -0.201116472
vn -0.330221981 -0.92254436 -0.199663192
vn -0.385801196 -0.922581851 0
vn -0.385791004 -0.922586262 0
vn 0.835151732 -0.247513965 -0.491180629
vn 0.968883514 -0.247517392 0
vn 0.968887627 -0.247500911 0
vn 0.834477365 -0.247519925 -0.492322475
vn 0.477658421 -0.247523949 -0.842955709
vn 0.47652629 -0.247511968 -0.843599796
vn 2.37913653E-07 -0.247519061 -0.968883038
vn -0 -0.247497618 -0.968888521
vn -0.476524949 -0.247511402 -0.84360075
vn -0.477661103 -0.24752529 -0.842953861
vn -0.834477901 -0.247520581 -0.492321342
vn -0.83515358 -0.247514769 -0.491177231
vn -0.968883395 -0.247517765 0
vn -0.968887627 -0.247500911 0
vn 0.37453422 -0.899261415 -0.225949183
vn 0.437248766 -0.89934063 0
vn 0.437192798 -0.899367869 0
vn 0.373774379 -0.899230003 -0.227328524
vn 0.211423919 -0.899234414 -0.382984757
vn 0.20994249 -0.899235368 -0.383796573
vn -1.37705428E-07 -0.89932549 -0.43727991
vn -0 -0.899368346 -0.437191933
vn -0.209942833 -0.899239898 -0.383785993
vn -0.211424723 -0.899239779 -0.382971674
vn -0.373774052 -0.89922899 -0.227332547
vn -0.3745341 -0.899260998 -0.225950792
vn -0.437248737 -0.89934063 0
vn -0.437192708 -0.899367869 0
vn 0.0369651578 0.999117553 -0.0199433044
vn 0.0419777818 0.999118507 0
vn 0.0419742316 0.999118745 0
vn 0.0368330181 0.999117672 -0.0201789495
vn 0.0220433418 0.999117315 -0.0357588157
vn 0.0218147673 0.999117553 -0.0358919688
vn -0 0.999118507 -0.0419783667
vn -0 0.999118745 -0.041972734
vn -0.0218147691 0.999117434 -0.0358945616
vn -0.0220433325 0.999116957 -0.0357668996
vn -0.036833033 0.999117792 -0.0201726146
vn -0.0369651653 0.999117792 -0.019932285
vn -0.041977793 0.999118507 0
vn -0.0419742465 0.999118745 0
vn 0.511254787 0.809948266 -0.287406445
vn 0.991187036 0.132470429 0
vn 0.586373508 0.810040832 0
vn 0.858000934 0.138521805 -0.494617134
vn 0.989499092 -0.144539326 0
vn 0.298836499 0.810506046 -0.503762484
vn 0.856027603 -0.141995713 -0.497045308
vn 0.876526535 -0.481353462 0
vn 0.754921794 -0.481369674 -0.445394486
vn 0.495717853 0.138469815 -0.857373834
vn -1.51775652E-07 0.810085535 -0.586311817
vn 0.492765248 -0.141940713 -0.858507574
vn 0.431627601 -0.480605572 -0.763358235
vn -1.10701812E-07 0.144347474 -0.989527106
vn 1.2048055E-07 -0.139186606 -0.990266144
vn -0 -0.481268823 -0.876572967
vn -0.431625813 -0.48060146 -0.763361931
vn -0.492847025 -0.141921669 -0.858463824
vn -0.755446196 -0.480524331 -0.445418298
vn -0.495771497 0.138411433 -0.857352257
vn -0.298837483 0.81051147 -0.503753304
vn -0.855970383 -0.142016366 -0.497138053
vn -0.876630425 -0.481164277 -1.34929067E-07
vn -0.98947525 -0.144702137 0
vn -0.858005106 0.13822791 -0.494692117
vn -0.511252224 0.809944332 -0.287421823
vn -0.991187036 0.132470399 0
vn -0.586372972 0.810041249 0
vn 0.55476594 0.772922039 -0.307938635
vn 0.966793716 0.255558014 0
vn 0.634639204 0.772808611 0
vn 0.838704228 0.260715485 -0.478124142
vn 0.99432677 0.106369175 0
vn 0.326533824 0.772567749 -0.544531643
vn 0.862849414 0.106251299 -0.494167715
vn 0.487257153 0.260507405 -0.833496392
vn 0.500301003 0.106333949 -0.859297395
vn -0 0.772749245 -0.634711385
vn -2.14923119E-07 0.265738189 -0.964045286
vn -0 0.106536433 -0.99430877
vn -0.500303328 0.106334418 -0.859295964
vn -0.487260312 0.260508478 -0.833494246
vn -0.326534271 0.77256763 -0.544531524
vn -0.862850964 0.106251501 -0.494164646
vn -0.838704109 0.260714859 -0.478124678
vn -0.99432677 0.106369078 0
vn -0.55476433 0.772919536 -0.307947934
vn -0.966793835 0.255557507 0
vn -0.634639144 0.772808611 0
vn 0.999491692 -0.0318788402 0
vn 0.86648041 -0.0318717621 -0.498192668
vn 0.999492288 -0.031863533 0
vn 0.866174996 -0.0318812355 -0.498722643
vn 0.501287878 -0.0318811834 -0.864693046
vn 0.500637531 -0.0318736099 -0.865069985
vn -0 -0.0318822674 -0.999491572
vn -0 -0.0318635739 -0.999492168
vn -0.500637352 -0.0318735912 -0.865070105
vn -0.501288056 -0.0318811983 -0.864692867
vn -0.866174996 -0.0318812281 -0.498722643
vn -0.866480231 -0.0318717659 -0.498193026
vn -0.999491692 -0.0318788327 0
vn -0.999492288 -0.0318635479 0
vn -0 1 0
vn -0 1 6.10125539E-07
vn -0 1 0
vn -0 1 6.9340249E-06
vn -0 1 -6.75922502E-06
vn -0 1 7.31994135E-07
vn -0 1 1.87421665E-05
vn 0.464953691 0 0.885335028
vn 0.463906318 -0.00125732902 0.885883331
vn 0.465005696 -0.00459539937 0.885295689
vn 0.466278344 -0.00468655303 0.884625554
vn 0.460425228 -0.00497284811 0.887684584
vn 0.517255723 -0.0122385351 0.855743349
vn 0.52283144 -0.00982017443 0.852379441
vn 0.428376526 -0.0659196377 0.901192605
vn 0.400707006 -0.0817156658 0.91255492
vn 0.387701452 -0.0643485934 0.919536233
vn 0.370395601 -0.0856305957 0.924918652
vn 0.36020416 -0.0893289074 0.928586721
vn 0.340469688 -0.10946127 0.93386215
vn 0.324881256 -0.0854055285 0.941890657
vn 0.325610846 -0.12402378 0.937334359
vn 0.314994097 -0.139054656 0.938851714
vn 0.310697019 -0.137015954 0.940581679
vn 0.309617907 -0.160886347 0.937151194
vn -0 0.00854139216 0.999963522
vn -0.379314363 0.00745423371 0.925237834
vn -0 0.0819577351 0.996635854
vn -0.324662775 0.00144090212 0.945828736
vn -0 0.00152501219 0.999998808
vn -0.324289471 0 0.945957899
vn -0.465005755 -0.00459539797 0.885295689
vn -0.463906527 -0.00125725835 0.885883212
vn -0.46495381 0 0.885334969
vn -0.466278404 -0.00468655163 0.884625554
vn -0.460426122 -0.00497285742 0.887684047
vn -0.517255843 -0.012238536 0.855743349
vn -0.52283144 -0.00982017443 0.852379441
vn -0.428376526 -0.0659196302 0.901192605
vn -0.400706947 -0.0817156583 0.91255492
vn -0.387701452 -0.0643485934 0.919536233
vn -0.37039566 -0.0856305957 0.924918652
vn -0.36020419 -0.0893289074 0.928586721
vn -0.340469688 -0.10946127 0.93386215
vn -0.324881345 -0.085405536 0.941890657
vn -0.325610846 -0.124023795 0.937334359
vn -0.314994097 -0.139054656 0.938851714
vn -0.310697019 -0.137015939 0.940581679
vn -0.309617907 -0.160886347 0.937151194
vn -0 0.0819577351 0.996635854
vn 0.379314333 0.00745423185 0.925237834
vn -0 0.00854139216 0.999963522
vn 0.324662775 0.00144090212 0.945828736
vn -0 0.00152501219 0.999998808
vn 0.324289531 0 0.945957899
vn 0.465171337 -0.00460368209 -0.885208726
vn 0.464039177 -0.00113261444 -0.885813892
vn 0.465248227 0 -0.885180235
vn 0.46643877 -0.0046942546 -0.884541094
vn 0.460426122 -0.00497285742 -0.887684047
vn 0.517260611 -0.0122388024 -0.855740368
vn 0.522831798 -0.00982017815 -0.852379262
vn 0.428376615 -0.0659197271 -0.901192605
vn 0.400707006 -0.081715785 -0.91255492
vn 0.387701452 -0.0643485934 -0.919536233
vn 0.370395571 -0.0856306106 -0.924918652
vn 0.36020416 -0.0893289521 -0.928586721
vn 0.340469629 -0.109461263 -0.933862209
vn 0.324881256 -0.0854055285 -0.941890657
vn 0.325610667 -0.124023691 -0.937334418
vn 0.314993948 -0.139054567 -0.938851714
vn 0.310697019 -0.137015939 -0.940581679
vn 0.309617907 -0.160886347 -0.937151194
vn -0 0.0819577351 -0.996635854
vn -0.379315168 0.00744579546 -0.925237536
vn -0 0.00853260327 -0.999963641
vn -0.324986577 0.00144066743 -0.945717514
vn -0 0.00152501219 -0.999998808
vn -0.324615926 0 -0.945845902
vn -0.465248168 0 -0.885180235
vn -0.464038938 -0.00113268511 -0.885814071
vn -0.465171337 -0.00460368302 -0.885208726
vn -0.466438651 -0.00469425553 -0.884541154
vn -0.460425228 -0.00497284811 -0.887684584
vn -0.517260611 -0.0122388005 -0.855740368
vn -0.522831798 -0.00982017815 -0.852379262
vn -0.428376585 -0.0659197271 -0.901192605
vn -0.400707036 -0.081715785 -0.91255492
vn -0.387701452 -0.0643485934 -0.919536233
vn -0.370395571 -0.0856306106 -0.924918652
vn -0.36020416 -0.0893289521 -0.928586721
vn -0.340469658 -0.109461263 -0.933862209
vn -0.324881256 -0.0854055285 -0.941890657
vn -0.325610697 -0.124023691 -0.937334418
vn -0.314993948 -0.139054567 -0.938851714
vn -0.310697019 -0.137015954 -0.940581679
vn -0.309617907 -0.160886347 -0.937151194
vn -0 0.00853260327 -0.999963641
vn 0.379315168 0.00744579546 -0.925237536
vn -0 0.0819577351 -0.996635854
vn 0.324986547 0.00144066731 -0.945717514
vn -0 0.00152501219 -0.999998808
vn 0.324615806 0 -0.945845902
vn -0 -0.990879774 0.134749129
vn 0.418511748 -0.898438215 0.132879049
vn -0 -0.991935849 0.126741439
vn 0.433000922 -0.89120096 0.135170788
vn 0.380978078 -0.910762966 0.159268841
vn 0.351874381 -0.9183954 0.18092601
vn 0.28490898 -0.936271548 0.205481246
vn 0.272923321 -0.962035835 1.27361427E-05
vn 0.221298337 -0.937134862 0.269824505
vn 0.207309335 -0.978275418 -1.4931813E-05
vn 1 -0.000304558518 -1.49479263E-06
vn 0.958122313 0.00350668747 0.286337942
vn 0.96624583 -0.000826492906 0.257620335
vn 0.999991894 0.00403088145 -1.65032507E-05
vn -0.00481195515 0.998259246 0.0587810501
vn 0.00272072107 0.998428881 0.0559677854
vn 0.0318749957 0.995754838 0.0863495246
vn 0.036493849 0.996002734 0.0815274119
vn 0.0348252058 0.995976627 0.0825697929
vn 0.0345993973 0.999401331 -6.92260073E-07
vn 0.020202389 0.989260793 0.144758537
vn 0.00580826821 0.999983191 0
vn -0.418511689 -0.898438215 0.132879049
vn -0 -0.990879774 0.134749129
vn -0 -0.991935849 0.126741439
vn -0.433000922 -0.89120096 0.135170788
vn -0.380978078 -0.910762966 0.159268841
vn -0.351874381 -0.9183954 0.18092601
vn -0.28490904 -0.936271548 0.205481246
vn -0.272923321 -0.962035835 1.26707E-05
vn -0.221298382 -0.937134862 0.269824475
vn -0.207309335 -0.978275418 -1.5517373E-05
vn -0.958122313 0.00350668747 0.286337942
vn -1 -0.000304558518 -1.48323875E-06
vn -0.96624583 -0.000826492906 0.257620335
vn -0.999991894 0.00403088145 -1.65032507E-05
vn -0.021703206 0.998355448 0.0530598424
vn 0.00272072107 0.998428881 0.0559677854
vn -0.00481195515 0.998259246 0.0587810501
vn -0.0127147501 0.999833822 0.0130650224
vn -0.0223871674 0.99967432 0.0122514423
vn -0.00813812762 0.99996686 -1.03272598E-07
vn 0.0133332061 0.993632376 0.1118792
vn 0.0322503746 0.99947983 0
vn 0.418488115 -0.898446679 -0.13289535
vn -0 -0.990877688 -0.13476418
vn -0 -0.991935849 -0.126741439
vn 0.432996124 -0.891195655 -0.135221019
vn 0.38095814 -0.91076833 -0.159285858
vn 0.351876497 -0.918397486 -0.180911377
vn 0.284910083 -0.936282098 -0.205431625
vn 0.272923321 -0.962035835 1.27361427E-05
vn 0.221296117 -0.937174737 -0.269687831
vn 0.207309335 -0.978275418 -1.4931813E-05
vn 0.958168507 0.00350891124 -0.286183208
vn 1 -0.000304558518 -1.49479263E-06
vn 0.966244698 -0.000802825496 -0.257624805
vn 0.999991894 0.00403088145 -1.65032507E-05
vn 0.0318162851 0.995767713 -0.0862231329
vn -0.000414624898 0.997736454 -0.0672443882
vn -0.00115159166 0.997670472 -0.0682077929
vn 0.0364897586 0.99600476 -0.0815037936
vn 0.0347772054 0.995979905 -0.0825496465
vn 0.0345993973 0.999401331 -6.92260073E-07
vn 0.0202090256 0.98926419 -0.144733816
vn 0.00580826821 0.999983191 0
vn -0 -0.990877688 -0.13476418
vn -0.418488204 -0.898446679 -0.132895365
vn -0 -0.991935849 -0.126741439
vn -0.432996154 -0.891195655 -0.135221034
vn -0.3809582 -0.91076833 -0.159285858
vn -0.351876467 -0.918397486 -0.180911392
vn -0.284910083 -0.936282098 -0.205431625
vn -0.272923321 -0.962035835 1.26707E-05
vn -0.221296132 -0.937174737 -0.269687861
vn -0.207309335 -0.978275418 -1.5517373E-05
vn -1 -0.000304558518 -1.48323875E-06
vn -0.958168507 0.00350891124 -0.286183208
vn -0.966244698 -0.000802825438 -0.257624775
vn -0.999991894 0.00403088145 -1.65032507E-05
vn -0.00115159166 0.997670472 -0.0682077929
vn -0.000414624898 0.997736454 -0.0672443882
vn -0.0223987643 0.998301089 -0.053789936
vn -0.0127141373 0.999833822 -0.013062234
vn -0.0223829821 0.999674439 -0.0122425947
vn -0.00813812762 0.99996686 -1.03272598E-07
vn 0.0133273508 0.993635178 -0.111854598
vn 0.0322503746 0.99947983 0
vn 0.359364599 -0.00101776083 -0.933196723
vn 0.359173149 -0.00133672357 -0.933270037
vn 0.361636341 -0.00175608182 -0.932317615
vn 0.35284853 -0.00114691339 -0.935679674
vn 0.350188613 -0.000885432761 -0.936678827
vn 0.350876719 -0.000232932216 -0.936421633
vn 1.42368052E-07 -0.00131117308 -0.999999166
vn -0 0.000482869975 -0.999999881
vn 1.42368052E-07 -0.00131117308 -0.999999166
vn -0.350876689 -0.000232929175 -0.936421692
vn -0 0.000482869975 -0.999999881
vn -0.352848411 -0.00114690978 -0.935679793
vn -0.350188732 -0.000885435438 -0.936678708
vn -0.359173238 -0.00133672846 -0.933270037
vn -0.359364629 -0.00101776095 -0.933196723
vn -0.361636341 -0.00175608182 -0.932317615
vn -0.359240353 -0.00105910306 0.933244467
vn -0.359140903 -0.00137170323 0.933282375
vn -0.361649007 -0.00184181426 0.932312429
vn -0.352795243 -0.00112876028 0.935699821
vn -0.350384593 -0.000897120859 0.936605394
vn -0.350940615 -0.0001853102 0.936397672
vn -1.37281177E-07 -0.00123708625 0.999999285
vn -0 0.000552080397 0.999999881
vn -1.37281177E-07 -0.00123708625 0.999999285
vn 0.350940615 -0.000185309138 0.936397672
vn -0 0.000552080397 0.999999881
vn 0.352795154 -0.00112875598 0.93569994
vn 0.350384772 -0.000897119346 0.936605394
vn 0.359140962 -0.00137169857 0.933282375
vn 0.359240323 -0.00105910294 0.933244467
vn 0.361649007 -0.00184181449 0.932312429
g HanWuDi_WuQi_1_0
f 3/3/3 2/2/2 1/1/1
f 4/4/4 1/1/1 2/2/2
f 2/2/2 5/5/5 4/4/4
f 6/6/6 4/4/4 5/5/5
f 5/5/5 7/7/7 6/6/6
f 8/8/8 6/6/6 7/7/7
f 8/8/8 7/7/7 9/9/9
f 10/10/10 9/9/9 7/7/7
f 9/9/9 10/10/10 11/11/11
f 12/12/12 11/11/11 10/10/10
f 11/11/11 12/12/12 13/13/13
f 14/14/14 13/13/13 12/12/12
f 17/17/17 16/16/16 15/15/15
f 18/18/18 15/15/15 16/16/16
f 16/16/16 19/19/19 18/18/18
f 20/20/20 18/18/18 19/19/19
f 19/19/19 21/21/21 20/20/20
f 22/22/22 20/20/20 21/21/21
f 22/22/22 21/21/21 23/23/23
f 24/24/24 23/23/23 21/21/21
f 23/23/23 24/24/24 25/25/25
f 26/26/26 25/25/25 24/24/24
f 25/25/25 26/26/26 27/27/27
f 28/28/28 27/27/27 26/26/26
f 31/31/31 30/30/30 29/29/29
f 32/32/32 29/29/29 30/30/30
f 30/30/30 33/33/33 32/32/32
f 34/34/34 32/32/32 33/33/33
f 33/33/33 35/35/35 34/34/34
f 36/36/36 34/34/34 35/35/35
f 36/36/36 35/35/35 37/37/37
f 38/38/38 37/37/37 35/35/35
f 37/37/37 38/38/38 39/39/39
f 40/40/40 39/39/39 38/38/38
f 39/39/39 40/40/40 41/41/41
f 42/42/42 41/41/41 40/40/40
f 45/45/45 44/44/44 43/43/43
f 46/46/46 43/43/43 44/44/44
f 44/44/44 47/47/47 46/46/46
f 48/48/48 46/46/46 47/47/47
f 47/47/47 49/49/49 48/48/48
f 50/50/50 48/48/48 49/49/49
f 50/50/50 49/49/49 51/51/51
f 52/52/52 51/51/51 49/49/49
f 51/51/51 52/52/52 53/53/53
f 54/54/54 53/53/53 52/52/52
f 53/53/53 54/54/54 55/55/55
f 56/56/56 55/55/55 54/54/54
f 59/59/59 58/58/58 57/57/57
f 60/60/60 57/57/57 58/58/58
f 58/58/58 61/61/61 60/60/60
f 62/62/62 60/60/60 61/61/61
f 61/61/61 63/63/63 62/62/62
f 64/64/64 62/62/62 63/63/63
f 64/64/64 63/63/63 65/65/65
f 66/66/66 65/65/65 63/63/63
f 65/65/65 66/66/66 67/67/67
f 68/68/68 67/67/67 66/66/66
f 67/67/67 68/68/68 69/69/69
f 70/70/70 69/69/69 68/68/68
f 73/73/73 72/72/72 71/71/71
f 74/74/74 71/71/71 72/72/72
f 72/72/72 75/75/75 74/74/74
f 71/71/71 74/74/74 76/76/76
f 77/77/77 74/74/74 75/75/75
f 75/75/75 78/78/78 77/77/77
f 79/79/79 76/76/76 74/74/74
f 74/74/74 77/77/77 79/79/79
f 76/76/76 79/79/79 80/80/80
f 81/81/81 80/80/80 79/79/79
f 79/79/79 82/82/82 81/81/81
f 82/82/82 79/79/79 77/77/77
f 83/83/83 81/81/81 82/82/82
f 84/84/84 77/77/77 78/78/78
f 77/77/77 84/84/84 82/82/82
f 82/82/82 85/85/85 83/83/83
f 85/85/85 82/82/82 84/84/84
f 86/86/86 83/83/83 85/85/85
f 86/86/86 85/85/85 87/87/87
f 88/88/88 87/87/87 85/85/85
f 85/85/85 84/84/84 88/88/88
f 87/87/87 88/88/88 89/89/89
f 84/84/84 78/78/78 90/90/90
f 90/90/90 88/88/88 84/84/84
f 91/91/91 90/90/90 78/78/78
f 92/92/92 89/89/89 88/88/88
f 88/88/88 90/90/90 92/92/92
f 89/89/89 92/92/92 93/93/93
f 94/94/94 93/93/93 92/92/92
f 90/90/90 91/91/91 95/95/95
f 95/95/95 92/92/92 90/90/90
f 92/92/92 95/95/95 94/94/94
f 96/96/96 95/95/95 91/91/91
f 97/97/97 94/94/94 95/95/95
f 95/95/95 96/96/96 97/97/97
f 98/98/98 97/97/97 96/96/96
f 101/101/101 100/100/100 99/99/99
f 102/102/102 99/99/99 100/100/100
f 99/99/99 102/102/102 103/103/103
f 100/100/100 104/104/104 102/102/102
f 105/105/105 103/103/103 102/102/102
f 106/106/106 102/102/102 104/104/104
f 102/102/102 106/106/106 105/105/105
f 107/107/107 105/105/105 106/106/106
f 104/104/104 108/108/108 106/106/106
f 106/106/106 109/109/109 107/107/107
f 109/109/109 106/106/106 108/108/108
f 110/110/110 107/107/107 109/109/109
f 110/110/110 109/109/109 111/111/111
f 109/109/109 108/108/108 112/112/112
f 112/112/112 111/111/111 109/109/109
f 113/113/113 112/112/112 108/108/108
f 111/111/111 112/112/112 114/114/114
f 112/112/112 113/113/113 115/115/115
f 115/115/115 114/114/114 112/112/112
f 114/114/114 115/115/115 116/116/116
f 117/117/117 115/115/115 113/113/113
f 118/118/118 116/116/116 115/115/115
f 115/115/115 117/117/117 118/118/118
f 119/119/119 118/118/118 117/117/117
f 122/122/122 121/121/121 120/120/120
f 123/123/123 120/120/120 121/121/121
f 120/120/120 123/123/123 124/124/124
f 125/125/125 124/124/124 123/123/123
f 124/124/124 125/125/125 126/126/126
f 127/127/127 126/126/126 125/125/125
f 127/127/127 128/128/128 126/126/126
f 129/129/129 126/126/126 128/128/128
f 128/128/128 130/130/130 129/129/129
f 131/131/131 129/129/129 130/130/130
f 130/130/130 132/132/132 131/131/131
f 133/133/133 131/131/131 132/132/132
f 136/136/136 135/135/135 134/134/134
f 137/137/137 134/134/134 135/135/135
f 137/137/137 138/138/138 134/134/134
f 139/139/139 134/134/134 138/138/138
f 140/140/140 139/139/139 138/138/138
f 143/143/143 142/142/142 141/141/141
f 144/144/144 141/141/141 142/142/142
f 141/141/141 144/144/144 145/145/145
f 146/146/146 145/145/145 144/144/144
f 145/145/145 146/146/146 147/147/147
f 148/148/148 147/147/147 146/146/146
f 148/148/148 149/149/149 147/147/147
f 150/150/150 147/147/147 149/149/149
f 149/149/149 151/151/151 150/150/150
f 152/152/152 150/150/150 151/151/151
f 151/151/151 153/153/153 152/152/152
f 154/154/154 152/152/152 153/153/153
f 157/157/157 156/156/156 155/155/155
f 158/158/158 155/155/155 156/156/156
f 155/155/155 158/158/158 159/159/159
f 160/160/160 159/159/159 158/158/158
f 159/159/159 160/160/160 161/161/161
f 162/162/162 161/161/161 160/160/160
f 162/162/162 163/163/163 161/161/161
f 164/164/164 161/161/161 163/163/163
f 163/163/163 165/165/165 164/164/164
f 166/166/166 164/164/164 165/165/165
f 165/165/165 167/167/167 166/166/166
f 168/168/168 166/166/166 167/167/167
f 171/171/171 170/170/170 169/169/169
f 172/172/172 169/169/169 170/170/170
f 169/169/169 172/172/172 173/173/173
f 174/174/174 173/173/173 172/172/172
f 173/173/173 174/174/174 175/175/175
f 176/176/176 175/175/175 174/174/174
f 176/176/176 177/177/177 175/175/175
f 178/178/178 175/175/175 177/177/177
f 177/177/177 179/179/179 178/178/178
f 180/180/180 178/178/178 179/179/179
f 179/179/179 181/181/181 180/180/180
f 182/182/182 180/180/180 181/181/181
f 185/185/185 184/184/184 183/183/183
f 186/186/186 183/183/183 184/184/184
f 183/183/183 186/186/186 187/187/187
f 188/188/188 187/187/187 186/186/186
f 187/187/187 188/188/188 189/189/189
f 190/190/190 189/189/189 188/188/188
f 190/190/190 191/191/191 189/189/189
f 192/192/192 189/189/189 191/191/191
f 191/191/191 193/193/193 192/192/192
f 194/194/194 192/192/192 193/193/193
f 193/193/193 195/195/195 194/194/194
f 196/196/196 194/194/194 195/195/195
f 199/199/199 198/198/198 197/197/197
f 200/200/200 197/197/197 198/198/198
f 197/197/197 200/200/200 201/201/201
f 202/202/202 201/201/201 200/200/200
f 201/201/201 202/202/202 203/203/203
f 204/204/204 203/203/203 202/202/202
f 204/204/204 205/205/205 203/203/203
f 206/206/206 203/203/203 205/205/205
f 205/205/205 207/207/207 206/206/206
f 208/208/208 206/206/206 207/207/207
f 207/207/207 209/209/209 208/208/208
f 210/210/210 208/208/208 209/209/209
f 213/213/213 212/212/212 211/211/211
f 214/214/214 211/211/211 212/212/212
f 212/212/212 215/215/215 214/214/214
f 211/211/211 214/214/214 216/216/216
f 217/217/217 214/214/214 215/215/215
f 215/215/215 218/218/218 217/217/217
f 219/219/219 217/217/217 218/218/218
f 220/220/220 216/216/216 214/214/214
f 214/214/214 217/217/217 220/220/220
f 216/216/216 220/220/220 221/221/221
f 217/217/217 219/219/219 222/222/222
f 222/222/222 220/220/220 217/217/217
f 223/223/223 222/222/222 219/219/219
f 224/224/224 221/221/221 220/220/220
f 220/220/220 222/222/222 224/224/224
f 222/222/222 223/223/223 225/225/225
f 225/225/225 224/224/224 222/222/222
f 226/226/226 225/225/225 223/223/223
f 226/226/226 227/227/227 225/225/225
f 228/228/228 225/225/225 227/227/227
f 225/225/225 228/228/228 224/224/224
f 227/227/227 229/229/229 228/228/228
f 224/224/224 230/230/230 221/221/221
f 230/230/230 224/224/224 228/228/228
f 231/231/231 221/221/221 230/230/230
f 232/232/232 228/228/228 229/229/229
f 228/228/228 232/232/232 230/230/230
f 229/229/229 233/233/233 232/232/232
f 234/234/234 232/232/232 233/233/233
f 230/230/230 235/235/235 231/231/231
f 235/235/235 230/230/230 232/232/232
f 232/232/232 234/234/234 235/235/235
f 236/236/236 231/231/231 235/235/235
f 237/237/237 235/235/235 234/234/234
f 235/235/235 237/237/237 236/236/236
f 238/238/238 236/236/236 237/237/237
f 241/241/241 240/240/240 239/239/239
f 242/242/242 239/239/239 240/240/240
f 240/240/240 243/243/243 242/242/242
f 239/239/239 242/242/242 244/244/244
f 245/245/245 242/242/242 243/243/243
f 246/246/246 244/244/244 242/242/242
f 242/242/242 245/245/245 246/246/246
f 247/247/247 246/246/246 245/245/245
f 244/244/244 246/246/246 248/248/248
f 246/246/246 247/247/247 249/249/249
f 249/249/249 248/248/248 246/246/246
f 250/250/250 249/249/249 247/247/247
f 250/250/250 251/251/251 249/249/249
f 249/249/249 252/252/252 248/248/248
f 252/252/252 249/249/249 251/251/251
f 253/253/253 248/248/248 252/252/252
f 251/251/251 254/254/254 252/252/252
f 252/252/252 255/255/255 253/253/253
f 255/255/255 252/252/252 254/254/254
f 254/254/254 256/256/256 255/255/255
f 257/257/257 253/253/253 255/255/255
f 258/258/258 255/255/255 256/256/256
f 255/255/255 258/258/258 257/257/257
f 259/259/259 257/257/257 258/258/258
f 262/262/262 261/261/261 260/260/260
f 263/263/263 260/260/260 261/261/261
f 261/261/261 264/264/264 263/263/263
f 265/265/265 263/263/263 264/264/264
f 264/264/264 266/266/266 265/265/265
f 267/267/267 265/265/265 266/266/266
f 267/267/267 266/266/266 268/268/268
f 269/269/269 268/268/268 266/266/266
f 268/268/268 269/269/269 270/270/270
f 271/271/271 270/270/270 269/269/269
f 270/270/270 271/271/271 272/272/272
f 273/273/273 272/272/272 271/271/271
f 276/276/276 275/275/275 274/274/274
f 277/277/277 274/274/274 275/275/275
f 277/277/277 275/275/275 278/278/278
f 279/279/279 278/278/278 275/275/275
f 279/279/279 280/280/280 278/278/278
f 283/283/283 282/282/282 281/281/281
f 282/282/282 283/283/283 284/284/284
f 282/282/282 284/284/284 285/285/285
f 283/283/283 286/286/286 284/284/284
f 287/287/287 284/284/284 286/286/286
f 287/287/287 286/286/286 288/288/288
f 289/289/289 288/288/288 286/286/286
f 288/288/288 289/289/289 290/290/290
f 291/291/291 290/290/290 289/289/289
f 292/292/292 290/290/290 291/291/291
f 291/291/291 293/293/293 292/292/292
f 294/294/294 292/292/292 293/293/293
f 294/294/294 293/293/293 295/295/295
f 293/293/293 296/296/296 295/295/295
f 297/297/297 295/295/295 296/296/296
f 297/297/297 296/296/296 298/298/298
f 301/301/301 300/300/300 299/299/299
f 300/300/300 302/302/302 299/299/299
f 303/303/303 299/299/299 302/302/302
f 302/302/302 304/304/304 303/303/303
f 307/307/307 306/306/306 305/305/305
f 308/308/308 305/305/305 306/306/306
f 309/309/309 308/308/308 306/306/306
f 305/305/305 308/308/308 310/310/310
f 311/311/311 310/310/310 308/308/308
f 311/311/311 312/312/312 310/310/310
f 313/313/313 310/310/310 312/312/312
f 312/312/312 314/314/314 313/313/313
f 315/315/315 313/313/313 314/314/314
f 315/315/315 314/314/314 316/316/316
f 315/315/315 316/316/316 317/317/317
f 318/318/318 317/317/317 316/316/316
f 319/319/319 317/317/317 318/318/318
f 317/317/317 319/319/319 320/320/320
f 321/321/321 320/320/320 319/319/319
f 322/322/322 320/320/320 321/321/321
f 325/325/325 324/324/324 323/323/323
f 324/324/324 325/325/325 326/326/326
f 327/327/327 326/326/326 325/325/325
f 327/327/327 328/328/328 326/326/326
f 331/331/331 330/330/330 329/329/329
f 332/332/332 329/329/329 330/330/330
f 333/333/333 332/332/332 330/330/330
f 329/329/329 332/332/332 334/334/334
f 335/335/335 334/334/334 332/332/332
f 335/335/335 336/336/336 334/334/334
f 337/337/337 334/334/334 336/336/336
f 336/336/336 338/338/338 337/337/337
f 339/339/339 337/337/337 338/338/338
f 339/339/339 338/338/338 340/340/340
f 339/339/339 340/340/340 341/341/341
f 342/342/342 341/341/341 340/340/340
f 343/343/343 341/341/341 342/342/342
f 341/341/341 343/343/343 344/344/344
f 345/345/345 344/344/344 343/343/343
f 346/346/346 344/344/344 345/345/345
f 349/349/349 348/348/348 347/347/347
f 348/348/348 349/349/349 350/350/350
f 351/351/351 350/350/350 349/349/349
f 351/351/351 352/352/352 350/350/350
f 355/355/355 354/354/354 353/353/353
f 354/354/354 355/355/355 356/356/356
f 354/354/354 356/356/356 357/357/357
f 355/355/355 358/358/358 356/356/356
f 359/359/359 356/356/356 358/358/358
f 359/359/359 358/358/358 360/360/360
f 361/361/361 360/360/360 358/358/358
f 360/360/360 361/361/361 362/362/362
f 363/363/363 362/362/362 361/361/361
f 364/364/364 362/362/362 363/363/363
f 363/363/363 365/365/365 364/364/364
f 366/366/366 364/364/364 365/365/365
f 366/366/366 365/365/365 367/367/367
f 365/365/365 368/368/368 367/367/367
f 369/369/369 367/367/367 368/368/368
f 369/369/369 368/368/368 370/370/370
f 373/373/373 372/372/372 371/371/371
f 372/372/372 374/374/374 371/371/371
f 375/375/375 371/371/371 374/374/374
f 374/374/374 376/376/376 375/375/375
f 379/379/379 378/378/378 377/377/377
f 380/380/380 377/377/377 378/378/378
f 380/380/380 378/378/378 381/381/381
f 382/382/382 381/381/381 378/378/378
f 381/381/381 382/382/382 383/383/383
f 384/384/384 383/383/383 382/382/382
f 383/383/383 384/384/384 385/385/385
f 386/386/386 385/385/385 384/384/384
f 389/389/389 388/388/388 387/387/387
f 390/390/390 387/387/387 388/388/388
f 393/393/393 392/392/392 391/391/391
f 394/394/394 393/393/393 391/391/391
f 395/395/395 393/393/393 394/394/394
f 396/396/396 395/395/395 394/394/394
f 394/394/394 397/397/397 396/396/396
f 398/398/398 396/396/396 397/397/397
f 401/401/401 400/400/400 399/399/399
f 402/402/402 399/399/399 400/400/400
f 402/402/402 403/403/403 399/399/399
f 404/404/404 399/399/399 403/403/403
f 403/403/403 405/405/405 404/404/404
f 406/406/406 404/404/404 405/405/405
f 405/405/405 407/407/407 406/406/406
f 408/408/408 406/406/406 407/407/407
f 411/411/411 410/410/410 409/409/409
f 412/412/412 409/409/409 410/410/410
f 415/415/415 414/414/414 413/413/413
f 415/415/415 413/413/413 416/416/416
f 416/416/416 413/413/413 417/417/417
f 416/416/416 417/417/417 418/418/418
f 416/416/416 418/418/418 419/419/419
f 420/420/420 419/419/419 418/418/418
f 423/423/423 422/422/422 421/421/421
f 424/424/424 421/421/421 422/422/422
f 424/424/424 425/425/425 421/421/421
f 426/426/426 421/421/421 425/425/425
f 425/425/425 427/427/427 426/426/426
f 428/428/428 426/426/426 427/427/427
f 427/427/427 429/429/429 428/428/428
f 430/430/430 428/428/428 429/429/429
f 433/433/433 432/432/432 431/431/431
f 434/434/434 431/431/431 432/432/432
f 437/437/437 436/436/436 435/435/435
f 437/437/437 435/435/435 438/438/438
f 438/438/438 435/435/435 439/439/439
f 438/438/438 439/439/439 440/440/440
f 438/438/438 440/440/440 441/441/441
f 442/442/442 441/441/441 440/440/440
f 445/445/445 444/444/444 443/443/443
f 446/446/446 443/443/443 444/444/444
f 446/446/446 444/444/444 447/447/447
f 448/448/448 447/447/447 444/444/444
f 447/447/447 448/448/448 449/449/449
f 450/450/450 449/449/449 448/448/448
f 449/449/449 450/450/450 451/451/451
f 452/452/452 451/451/451 450/450/450
f 455/455/455 454/454/454 453/453/453
f 456/456/456 453/453/453 454/454/454
f 459/459/459 458/458/458 457/457/457
f 460/460/460 459/459/459 457/457/457
f 461/461/461 459/459/459 460/460/460
f 462/462/462 461/461/461 460/460/460
f 460/460/460 463/463/463 462/462/462
f 464/464/464 462/462/462 463/463/463
f 467/467/467 466/466/466 465/465/465
f 465/465/465 466/466/466 468/468/468
f 466/466/466 469/469/469 468/468/468
f 469/469/469 470/470/470 468/468/468
f 470/470/470 471/471/471 468/468/468
f 472/472/472 471/471/471 470/470/470
f 475/475/475 474/474/474 473/473/473
f 473/473/473 474/474/474 476/476/476
f 474/474/474 477/477/477 476/476/476
f 476/476/476 477/477/477 478/478/478
f 479/479/479 476/476/476 478/478/478
f 480/480/480 479/479/479 478/478/478
f 483/483/483 482/482/482 481/481/481
f 481/481/481 482/482/482 484/484/484
f 482/482/482 485/485/485 484/484/484
f 485/485/485 486/486/486 484/484/484
f 486/486/486 487/487/487 484/484/484
f 488/488/488 487/487/487 486/486/486
f 491/491/491 490/490/490 489/489/489
f 489/489/489 490/490/490 492/492/492
f 490/490/490 493/493/493 492/492/492
f 492/492/492 493/493/493 494/494/494
f 495/495/495 492/492/492 494/494/494
f 496/496/496 495/495/495 494/494/494
