g HanWuDi_Eye
v -0.108970217 6.72172165 0.43888855
v -0.171478033 6.73648548 0.435266107
v -0.171870336 6.73366117 0.474667341
v -0.20665504 6.78881931 0.447977275
v -0.114070222 6.72057104 0.479191869
v -0.0557470322 6.75314569 0.456725448
v -0.204562724 6.78271294 0.482199699
v -0.193891928 6.8480587 0.469593495
v -0.0650316626 6.75113153 0.493079215
v -0.0430100821 6.81238461 0.478341669
v -0.165292621 6.74298525 0.507791102
v -0.192989618 6.83900928 0.497355342
v -0.14070797 6.87948227 0.487430423
v -0.0534716435 6.80741501 0.50822264
v -0.078200154 6.86471796 0.49105224
v -0.121053308 6.73309898 0.511491716
v -0.0861378685 6.85648012 0.515767813
v -0.083535552 6.75678062 0.521561265
v -0.190361127 6.78063345 0.512642801
v -0.143951043 6.86956978 0.511230469
v -0.0747347623 6.8001318 0.532100797
v -0.181560352 6.82398415 0.523208618
v -0.0998032764 6.83779287 0.536978722
v -0.144042581 6.84766579 0.533290982
v -0.111881271 6.77143049 0.540237427
v -0.129595175 6.76028061 0.535618246
v -0.135738716 6.78615236 0.546904266
v -0.107774198 6.79159021 0.545709848
v -0.150392219 6.76496792 0.533786595
v -0.119628981 6.80925894 0.54879272
v -0.162110478 6.78215885 0.535880089
v -0.140403271 6.81403685 0.546722412
v -0.158014789 6.80303574 0.541488647
v 0.108970217 6.72172165 0.43888855
v 0.171870336 6.73366117 0.474667341
v 0.171478033 6.73648548 0.435266107
v 0.20665504 6.78881931 0.447977275
v 0.114070222 6.72057104 0.479191869
v 0.0557470322 6.75314569 0.456725448
v 0.204562724 6.78271294 0.482199699
v 0.193891928 6.8480587 0.469593495
v 0.0650316626 6.75113153 0.493079215
v 0.0430100821 6.81238461 0.478341669
v 0.165292621 6.74298525 0.507791102
v 0.192989618 6.83900928 0.497355342
v 0.14070797 6.87948227 0.487430423
v 0.0534716435 6.80741501 0.50822264
v 0.078200154 6.86471796 0.49105224
v 0.121053308 6.73309898 0.511491716
v 0.0861378685 6.85648012 0.515767813
v 0.083535552 6.75678062 0.521561265
v 0.190361127 6.78063345 0.512642801
v 0.143951043 6.86956978 0.511230469
v 0.0747347623 6.8001318 0.532100797
v 0.181560352 6.82398415 0.523208618
v 0.0998032764 6.83779287 0.536978722
v 0.144042581 6.84766579 0.533290982
v 0.111881271 6.77143049 0.540237427
v 0.129595175 6.76028061 0.535618246
v 0.135738716 6.78615236 0.546904266
v 0.107774198 6.79159021 0.545709848
v 0.150392219 6.76496792 0.533786595
v 0.119628981 6.80925894 0.54879272
v 0.162110478 6.78215885 0.535880089
v 0.140403271 6.81403685 0.546722412
v 0.158014789 6.80303574 0.541488647
vt 0.0540999994 0.332149982
vt 0.31370002 0.0589000024
vt 0.377550006 0.195299998
vt 0.685400009 0.0569000021
vt 0.197250009 0.391250014
vt 0.0724499971 0.706399977
vt 0.644500017 0.183200002
vt 0.942149997 0.313699991
vt 0.207249999 0.65775001
vt 0.347249985 0.949650049
vt 0.43355 0.308149993
vt 0.842999995 0.364250004
vt 0.946850002 0.669800043
vt 0.403050005 0.840749979
vt 0.705550015 0.929499984
vt 0.315800011 0.437399983
vt 0.671949983 0.831349969
vt 0.322349995 0.61255002
vt 0.609200001 0.298500001
vt 0.854849994 0.633350015
vt 0.45115 0.733799994
vt 0.741699994 0.416899979
vt 0.629649997 0.728100002
vt 0.751100004 0.595900059
vt 0.444523513 0.560250998
vt 0.441695988 0.484039009
vt 0.53670001 0.51910001
vt 0.500334024 0.611581028
vt 0.49306953 0.42770651
vt 0.576676488 0.608188033
vt 0.56723702 0.422834516
vt 0.628615499 0.552638531
vt 0.62570101 0.47607851
vt 0.0540999994 0.332149982
vt 0.377550006 0.195299998
vt 0.31370002 0.0589000024
vt 0.685400009 0.0569000021
vt 0.197250009 0.391250014
vt 0.0724499971 0.706399977
vt 0.644500017 0.183200002
vt 0.942149997 0.313699991
vt 0.207249999 0.65775001
vt 0.347249985 0.949650049
vt 0.43355 0.308149993
vt 0.842999995 0.364250004
vt 0.946850002 0.669800043
vt 0.403050005 0.840749979
vt 0.705550015 0.929499984
vt 0.315800011 0.437399983
vt 0.671949983 0.831349969
vt 0.322349995 0.61255002
vt 0.609200001 0.298500001
vt 0.854849994 0.633350015
vt 0.45115 0.733799994
vt 0.741699994 0.416899979
vt 0.629649997 0.728100002
vt 0.751100004 0.595900059
vt 0.444523513 0.560250998
vt 0.441695988 0.484039009
vt 0.53670001 0.51910001
vt 0.500334024 0.611581028
vt 0.49306953 0.42770651
vt 0.576676488 0.608188033
vt 0.56723702 0.422834516
vt 0.628615499 0.552638531
vt 0.62570101 0.47607851
vn 0.133834749 -0.990987122 -0.00571260927
vn -0.546558022 -0.835237205 -0.0604403839
vn -0.552122891 -0.828752398 0.0912676379
vn -0.966631949 -0.25584805 0.0128287189
vn 0.13013351 -0.980665386 0.14615263
vn 0.736855209 -0.659217954 0.149919912
vn -0.952727318 -0.249802798 0.172942862
vn -0.860442221 0.477033794 0.179103151
vn 0.716579199 -0.625848949 0.307940423
vn 0.945377409 0.0235143751 0.325128555
vn -0.493021905 -0.737321734 0.461829156
vn -0.828783154 0.44084087 0.344641596
vn -0.207954302 0.914147913 0.347977877
vn 0.873686731 0.0510004461 0.48380813
vn 0.576603293 0.705603898 0.411887944
vn 0.0576114319 -0.858860195 0.50895977
vn 0.486261725 0.66451925 0.567418396
vn 0.527223766 -0.566975713 0.632908881
vn -0.810134768 -0.268049568 0.521374166
vn -0.229083449 0.830175817 0.508260548
vn 0.64514637 -0.0240720492 0.763679683
vn -0.705458701 0.27802676 0.651942551
vn 0.332645625 0.45745337 0.824671686
vn -0.231779769 0.584928751 0.777262151
vn 0.277381152 -0.45375523 0.846856475
vn -0.0228936598 -0.634774208 0.772358418
vn -0.134578511 -0.228036851 0.964306891
vn 0.361388206 -0.109247155 0.925993323
vn -0.371072769 -0.559019268 0.741486669
vn 0.162196159 0.208880872 0.964396834
vn -0.574581861 -0.264773816 0.77443558
vn -0.209658951 0.294635206 0.932326734
vn -0.513772547 0.0868066326 0.853523493
vn -0.13383472 -0.990987241 -0.00570905162
vn 0.552123129 -0.82875216 0.0912678391
vn 0.546558201 -0.835237384 -0.0604379512
vn 0.966632068 -0.255847752 0.0128260422
vn -0.130133688 -0.980665267 0.14615345
vn -0.736855745 -0.659218073 0.149917036
vn 0.952727795 -0.249803007 0.172939956
vn 0.8604424 0.477033287 0.179103792
vn -0.716579676 -0.625849545 0.30793795
vn -0.945378363 0.0235149879 0.325125784
vn 0.493022829 -0.737321675 0.461828232
vn 0.828783631 0.440840811 0.344640553
vn 0.207954437 0.91414994 0.347972631
vn -0.87368685 0.0510006845 0.48380807
vn -0.576604724 0.705606461 0.411881626
vn -0.0576127619 -0.858860552 0.508958995
vn -0.48626256 0.664519072 0.567418039
vn -0.527223587 -0.566976905 0.632907867
vn 0.810135663 -0.268050075 0.521372557
vn 0.229084939 0.830176473 0.508258879
vn -0.645144641 -0.0240719691 0.763681293
vn 0.705459297 0.278027624 0.651941538
vn -0.332645178 0.45744881 0.824674368
vn 0.231782049 0.584926784 0.777263045
vn -0.277380615 -0.453756452 0.846856058
vn 0.0228915159 -0.634771466 0.772360742
vn 0.134577557 -0.228036031 0.964307249
vn -0.361389637 -0.109245643 0.925992966
vn 0.371070772 -0.559015214 0.741490602
vn -0.162199363 0.208881959 0.96439606
vn 0.574579895 -0.264772594 0.774437428
vn 0.209660277 0.294636577 0.932326019
vn 0.513771534 0.0868074894 0.853524089
g HanWuDi_Eye_0
f 3/3/3 2/2/2 1/1/1
f 4/4/4 2/2/2 3/3/3
f 5/5/5 3/3/3 1/1/1
f 5/5/5 1/1/1 6/6/6
f 7/7/7 4/4/4 3/3/3
f 8/8/8 4/4/4 7/7/7
f 9/9/9 5/5/5 6/6/6
f 9/9/9 6/6/6 10/10/10
f 11/11/11 3/3/3 5/5/5
f 7/7/7 3/3/3 11/11/11
f 12/12/12 8/8/8 7/7/7
f 13/13/13 8/8/8 12/12/12
f 14/14/14 9/9/9 10/10/10
f 14/14/14 10/10/10 15/15/15
f 16/16/16 5/5/5 9/9/9
f 16/16/16 11/11/11 5/5/5
f 17/17/17 15/15/15 13/13/13
f 17/17/17 14/14/14 15/15/15
f 18/18/18 9/9/9 14/14/14
f 18/18/18 16/16/16 9/9/9
f 19/19/19 7/7/7 11/11/11
f 12/12/12 7/7/7 19/19/19
f 20/20/20 13/13/13 12/12/12
f 20/20/20 17/17/17 13/13/13
f 21/21/21 14/14/14 17/17/17
f 21/21/21 18/18/18 14/14/14
f 22/22/22 12/12/12 19/19/19
f 20/20/20 12/12/12 22/22/22
f 23/23/23 17/17/17 20/20/20
f 23/23/23 21/21/21 17/17/17
f 24/24/24 20/20/20 22/22/22
f 24/24/24 23/23/23 20/20/20
f 16/16/16 18/18/18 25/25/25
f 11/11/11 16/16/16 26/26/26
f 26/26/26 16/16/16 25/25/25
f 26/26/26 25/25/25 27/27/27
f 25/25/25 18/18/18 28/28/28
f 18/18/18 21/21/21 28/28/28
f 25/25/25 28/28/28 27/27/27
f 29/29/29 11/11/11 26/26/26
f 19/19/19 11/11/11 29/29/29
f 29/29/29 26/26/26 27/27/27
f 28/28/28 21/21/21 30/30/30
f 21/21/21 23/23/23 30/30/30
f 28/28/28 30/30/30 27/27/27
f 31/31/31 19/19/19 29/29/29
f 22/22/22 19/19/19 31/31/31
f 31/31/31 29/29/29 27/27/27
f 30/30/30 23/23/23 32/32/32
f 23/23/23 24/24/24 32/32/32
f 30/30/30 32/32/32 27/27/27
f 33/33/33 22/22/22 31/31/31
f 24/24/24 22/22/22 33/33/33
f 33/33/33 31/31/31 27/27/27
f 32/32/32 33/33/33 27/27/27
f 32/32/32 24/24/24 33/33/33
f 36/36/36 35/35/35 34/34/34
f 36/36/36 37/37/37 35/35/35
f 35/35/35 38/38/38 34/34/34
f 34/34/34 38/38/38 39/39/39
f 37/37/37 40/40/40 35/35/35
f 37/37/37 41/41/41 40/40/40
f 38/38/38 42/42/42 39/39/39
f 39/39/39 42/42/42 43/43/43
f 38/38/38 35/35/35 44/44/44
f 35/35/35 40/40/40 44/44/44
f 41/41/41 45/45/45 40/40/40
f 41/41/41 46/46/46 45/45/45
f 42/42/42 47/47/47 43/43/43
f 43/43/43 47/47/47 48/48/48
f 38/38/38 49/49/49 42/42/42
f 49/49/49 38/38/38 44/44/44
f 48/48/48 50/50/50 46/46/46
f 47/47/47 50/50/50 48/48/48
f 42/42/42 51/51/51 47/47/47
f 49/49/49 51/51/51 42/42/42
f 40/40/40 52/52/52 44/44/44
f 40/40/40 45/45/45 52/52/52
f 46/46/46 53/53/53 45/45/45
f 50/50/50 53/53/53 46/46/46
f 47/47/47 54/54/54 50/50/50
f 51/51/51 54/54/54 47/47/47
f 45/45/45 55/55/55 52/52/52
f 45/45/45 53/53/53 55/55/55
f 50/50/50 56/56/56 53/53/53
f 54/54/54 56/56/56 50/50/50
f 53/53/53 57/57/57 55/55/55
f 56/56/56 57/57/57 53/53/53
f 51/51/51 49/49/49 58/58/58
f 49/49/49 44/44/44 59/59/59
f 49/49/49 59/59/59 58/58/58
f 58/58/58 59/59/59 60/60/60
f 51/51/51 58/58/58 61/61/61
f 54/54/54 51/51/51 61/61/61
f 61/61/61 58/58/58 60/60/60
f 44/44/44 62/62/62 59/59/59
f 44/44/44 52/52/52 62/62/62
f 59/59/59 62/62/62 60/60/60
f 54/54/54 61/61/61 63/63/63
f 56/56/56 54/54/54 63/63/63
f 63/63/63 61/61/61 60/60/60
f 52/52/52 64/64/64 62/62/62
f 52/52/52 55/55/55 64/64/64
f 62/62/62 64/64/64 60/60/60
f 56/56/56 63/63/63 65/65/65
f 57/57/57 56/56/56 65/65/65
f 65/65/65 63/63/63 60/60/60
f 55/55/55 66/66/66 64/64/64
f 55/55/55 57/57/57 66/66/66
f 64/64/64 66/66/66 60/60/60
f 66/66/66 65/65/65 60/60/60
f 57/57/57 65/65/65 66/66/66
