g HanWuDi_Eye_lod0
v -0.125224859 6.71938086 0.435880721
v -0.157734156 6.72704411 0.43399778
v -0.159146473 6.72492599 0.474248648
v -0.185221896 6.74592781 0.436534405
v -0.129095644 6.7181263 0.476602763
v -0.0927155688 6.72406244 0.441896349
v -0.0990448073 6.72301626 0.481781006
v -0.0650185868 6.7404089 0.451181024
v -0.184594214 6.74239683 0.475085437
v -0.203503489 6.77312708 0.443151832
v -0.132547945 6.7311511 0.509556234
v -0.0735447556 6.73891783 0.488999635
v -0.0464754775 6.76588297 0.462269872
v -0.155537218 6.73630285 0.507620811
v -0.201594234 6.76789665 0.479008764
v -0.209806576 6.80451155 0.452802122
v -0.109558687 6.73504734 0.513427138
v -0.0565185733 6.76334572 0.497159421
v -0.0398585424 6.79669237 0.473516226
v -0.175048038 6.74966717 0.507960796
v -0.207531184 6.79752922 0.485390007
v -0.20316346 6.8352952 0.464048445
v -0.0900478736 6.74733973 0.518657804
v -0.0505031757 6.79261208 0.505031705
v -0.0461616255 6.82807684 0.483167112
v -0.188072681 6.76925659 0.510471761
v -0.201515779 6.82679558 0.493262321
v -0.18462038 6.8608222 0.475137919
v -0.0770232305 6.76622248 0.524464071
v -0.056440115 6.82221794 0.511413574
v -0.0644693598 6.85527611 0.489783913
v -0.192649603 6.79201031 0.514813244
v -0.184463441 6.85122299 0.501448989
v -0.156975701 6.87714148 0.484422594
v -0.0724462941 6.78874111 0.529930413
v -0.0734139904 6.84774446 0.515336275
v -0.0919309482 6.87415981 0.492321163
v -0.188072681 6.81455564 0.520305753
v -0.0770232305 6.81152153 0.534271836
v -0.0988617316 6.8652153 0.51619935
v -0.124440245 6.88182259 0.490437597
v -0.128912553 6.872015 0.513819575
v -0.158989549 6.86712408 0.508640707
v -0.0900478736 6.83111048 0.536809087
v -0.175048038 6.83341217 0.52611202
v -0.109558687 6.84447575 0.537149012
v -0.155537218 6.84573126 0.53136903
v -0.132547945 6.84960175 0.53521359
v -0.115032688 6.80610704 0.548679173
v -0.124225259 6.81241035 0.548906267
v -0.135738716 6.78615236 0.546904266
v -0.10888914 6.7969141 0.547040403
v -0.134987831 6.81491327 0.547768533
v -0.106659256 6.78626633 0.544378638
v -0.14581871 6.8131609 0.545675635
v -0.108820885 6.77584457 0.541716278
v -0.154965773 6.80744982 0.542967498
v -0.114941671 6.76701546 0.53875792
v -0.161063805 6.79862118 0.540009737
v -0.124179751 6.76119041 0.536483169
v -0.163179934 6.7869482 0.536824346
v -0.1350106 6.7593708 0.534753382
v -0.161041051 6.77736902 0.534935892
v -0.145841449 6.76178265 0.533843398
v -0.154943004 6.76815367 0.533729851
v 0.125224859 6.71938086 0.435880721
v 0.159146473 6.72492599 0.474248648
v 0.157734156 6.72704411 0.43399778
v 0.185221896 6.74592781 0.436534405
v 0.129095644 6.7181263 0.476602763
v 0.0927155688 6.72406244 0.441896349
v 0.0990448073 6.72301626 0.481781006
v 0.0650185868 6.7404089 0.451181024
v 0.184594214 6.74239683 0.475085437
v 0.203503489 6.77312708 0.443151832
v 0.132547945 6.7311511 0.509556234
v 0.0735447556 6.73891783 0.488999635
v 0.0464754775 6.76588297 0.462269872
v 0.155537218 6.73630285 0.507620811
v 0.201594234 6.76789665 0.479008764
v 0.209806576 6.80451155 0.452802122
v 0.109558687 6.73504734 0.513427138
v 0.0565185733 6.76334572 0.497159421
v 0.0398585424 6.79669237 0.473516226
v 0.175048038 6.74966717 0.507960796
v 0.207531184 6.79752922 0.485390007
v 0.20316346 6.8352952 0.464048445
v 0.0900478736 6.74733973 0.518657804
v 0.0505031757 6.79261208 0.505031705
v 0.0461616255 6.82807684 0.483167112
v 0.188072681 6.76925659 0.510471761
v 0.201515779 6.82679558 0.493262321
v 0.18462038 6.8608222 0.475137919
v 0.0770232305 6.76622248 0.524464071
v 0.056440115 6.82221794 0.511413574
v 0.0644693598 6.85527611 0.489783913
v 0.192649603 6.79201031 0.514813244
v 0.184463441 6.85122299 0.501448989
v 0.156975701 6.87714148 0.484422594
v 0.0724462941 6.78874111 0.529930413
v 0.0734139904 6.84774446 0.515336275
v 0.0919309482 6.87415981 0.492321163
v 0.188072681 6.81455564 0.520305753
v 0.0770232305 6.81152153 0.534271836
v 0.0988617316 6.8652153 0.51619935
v 0.124440245 6.88182259 0.490437597
v 0.128912553 6.872015 0.513819575
v 0.158989549 6.86712408 0.508640707
v 0.0900478736 6.83111048 0.536809087
v 0.175048038 6.83341217 0.52611202
v 0.109558687 6.84447575 0.537149012
v 0.155537218 6.84573126 0.53136903
v 0.132547945 6.84960175 0.53521359
v 0.115032688 6.80610704 0.548679173
v 0.124225259 6.81241035 0.548906267
v 0.135738716 6.78615236 0.546904266
v 0.10888914 6.7969141 0.547040403
v 0.134987831 6.81491327 0.547768533
v 0.106659256 6.78626633 0.544378638
v 0.14581871 6.8131609 0.545675635
v 0.108820885 6.77584457 0.541716278
v 0.154965773 6.80744982 0.542967498
v 0.114941671 6.76701546 0.53875792
v 0.161063805 6.79862118 0.540009737
v 0.124179751 6.76119041 0.536483169
v 0.163179934 6.7869482 0.536824346
v 0.1350106 6.7593708 0.534753382
v 0.161041051 6.77736902 0.534935892
v 0.145841449 6.76178265 0.533843398
v 0.154943004 6.76815367 0.533729851
vt 0.0882000029 0.239899993
vt 0.223800004 0.0974000022
vt 0.314799994 0.224600002
vt 0.403600007 0.0204000007
vt 0.221200004 0.326400012
vt 0.0199999996 0.424400002
vt 0.173299998 0.456099987
vt 0.0302000009 0.619499981
vt 0.440299988 0.165999994
vt 0.597199976 0.0199999996
vt 0.331400007 0.394800007
vt 0.178499997 0.594500005
vt 0.114699997 0.793299973
vt 0.392500013 0.327699989
vt 0.578999996 0.159600005
vt 0.773599982 0.0938000008
vt 0.300199986 0.479999989
vt 0.236000001 0.721000016
vt 0.258100003 0.91930002
vt 0.474599987 0.288599998
vt 0.709999979 0.206799999
vt 0.906400025 0.227699995
vt 0.303499997 0.570900023
vt 0.337700009 0.816200018
vt 0.436399996 0.980000019
vt 0.565900028 0.283399999
vt 0.813300014 0.300900012
vt 0.977900028 0.399699986
vt 0.341199994 0.654200017
vt 0.468400002 0.8653
vt 0.622200012 0.968999982
vt 0.652499974 0.313600004
vt 0.872699976 0.427599996
vt 0.979900002 0.584200025
vt 0.407999992 0.717299998
vt 0.608200014 0.860499978
vt 0.788900018 0.889999986
vt 0.721499979 0.375099987
vt 0.494300008 0.75029999
vt 0.735700011 0.802200019
vt 0.913800001 0.755400002
vt 0.830799997 0.699199975
vt 0.878899992 0.567499995
vt 0.587199986 0.747500002
vt 0.761900008 0.458700001
vt 0.672100008 0.708700001
vt 0.766900003 0.551900029
vt 0.735300004 0.639900029
vt 0.558798015 0.616452992
vt 0.59455502 0.599923015
vt 0.53670001 0.51910001
vt 0.519213021 0.61819303
vt 0.621612012 0.571213007
vt 0.481454998 0.604969025
vt 0.635618985 0.534063995
vt 0.452919006 0.578260005
vt 0.634140015 0.494217992
vt 0.43612799 0.542241991
vt 0.617262006 0.457938999
vt 0.434823006 0.502570033
vt 0.584028006 0.428445995
vt 0.448569 0.465508014
vt 0.550446033 0.417223006
vt 0.47527802 0.436276019
vt 0.510861039 0.419137001
vt 0.0882000029 0.239899993
vt 0.314799994 0.224600002
vt 0.223800004 0.0974000022
vt 0.403600007 0.0204000007
vt 0.221200004 0.326400012
vt 0.0199999996 0.424400002
vt 0.173299998 0.456099987
vt 0.0302000009 0.619499981
vt 0.440299988 0.165999994
vt 0.597199976 0.0199999996
vt 0.331400007 0.394800007
vt 0.178499997 0.594500005
vt 0.114699997 0.793299973
vt 0.392500013 0.327699989
vt 0.578999996 0.159600005
vt 0.773599982 0.0938000008
vt 0.300199986 0.479999989
vt 0.236000001 0.721000016
vt 0.258100003 0.91930002
vt 0.474599987 0.288599998
vt 0.709999979 0.206799999
vt 0.906400025 0.227699995
vt 0.303499997 0.570900023
vt 0.337700009 0.816200018
vt 0.436399996 0.980000019
vt 0.565900028 0.283399999
vt 0.813300014 0.300900012
vt 0.977900028 0.399699986
vt 0.341199994 0.654200017
vt 0.468400002 0.8653
vt 0.622200012 0.968999982
vt 0.652499974 0.313600004
vt 0.872699976 0.427599996
vt 0.979900002 0.584200025
vt 0.407999992 0.717299998
vt 0.608200014 0.860499978
vt 0.788900018 0.889999986
vt 0.721499979 0.375099987
vt 0.494300008 0.75029999
vt 0.735700011 0.802200019
vt 0.913800001 0.755400002
vt 0.830799997 0.699199975
vt 0.878899992 0.567499995
vt 0.587199986 0.747500002
vt 0.761900008 0.458700001
vt 0.672100008 0.708700001
vt 0.766900003 0.551900029
vt 0.735300004 0.639900029
vt 0.558798015 0.616452992
vt 0.59455502 0.599923015
vt 0.53670001 0.51910001
vt 0.519213021 0.61819303
vt 0.621612012 0.571213007
vt 0.481454998 0.604969025
vt 0.635618985 0.534063995
vt 0.452919006 0.578260005
vt 0.634140015 0.494217992
vt 0.43612799 0.542241991
vt 0.617262006 0.457938999
vt 0.434823006 0.502570033
vt 0.584028006 0.428445995
vt 0.448569 0.465508014
vt 0.550446033 0.417223006
vt 0.47527802 0.436276019
vt 0.510861039 0.419137001
vn -0.038453076 -0.998716593 -0.0329626054
vn -0.396943122 -0.915832996 -0.0607132763
vn -0.400066614 -0.910871685 0.10128919
vn -0.704482317 -0.707787216 -0.0523639247
vn -0.0495231301 -0.990478516 0.128451407
vn 0.321839958 -0.946395695 0.0274649858
vn 0.301957637 -0.93438828 0.189050883
vn 0.633895755 -0.765212119 0.112367913
vn -0.698369741 -0.707026124 0.111327536
vn -0.915847361 -0.401413202 -0.00954230037
vn -0.0881764814 -0.855764985 0.509795368
vn 0.601433754 -0.750446737 0.274056703
vn 0.853302002 -0.477786869 0.208794907
vn -0.364132583 -0.793801546 0.487120688
vn -0.8992185 -0.408544123 0.156517699
vn -0.997442007 -0.0373206511 0.0609634891
vn 0.187328711 -0.809096038 0.557020247
vn 0.804226339 -0.465041757 0.370075852
vn 0.945847809 -0.122451171 0.300628573
vn -0.596896529 -0.633717299 0.492053837
vn -0.971479535 -0.0591737963 0.229621306
vn -0.931484163 0.332163543 0.148340076
vn 0.419710815 -0.663330317 0.619544744
vn 0.878853023 -0.120657116 0.461583525
vn 0.893048406 0.251650542 0.373010099
vn -0.75276202 -0.402631849 0.520804226
vn -0.902794063 0.288135082 0.319282234
vn -0.721596897 0.649495304 0.23969534
vn 0.576545 -0.439871013 0.688555956
vn 0.812841356 0.231503457 0.534504592
vn 0.696162462 0.586737752 0.413638294
vn -0.808494031 -0.129311338 0.574121952
vn -0.702442825 0.580111802 0.412364483
vn -0.395138681 0.860252798 0.322227567
vn 0.635051966 -0.171480909 0.753195465
vn 0.614902794 0.537262976 0.577272058
vn 0.379696906 0.825822711 0.416949838
vn -0.75573343 0.138655007 0.640032589
vn 0.584758461 0.102225602 0.804740608
vn 0.313733369 0.748505712 0.584218085
vn -0.00566720683 0.923165858 0.384360164
vn -0.042660363 0.830807626 0.554922342
vn -0.39995259 0.771495879 0.494805008
vn 0.430163264 0.3434847 0.83485198
vn -0.601835072 0.370609134 0.70742029
vn 0.191757545 0.509506166 0.838828027
vn -0.366978139 0.522074103 0.769912899
vn -0.0887100846 0.571605027 0.815719426
vn 0.229402438 0.131208763 0.964447379
vn 0.0684897825 0.246869102 0.966625512
vn -0.134833425 -0.228319913 0.964204252
vn 0.325604767 -0.0360223055 0.94481945
vn -0.119248584 0.286357999 0.950672865
vn 0.348416477 -0.209252402 0.913684547
vn -0.299773633 0.248527423 0.92106998
vn 0.302483737 -0.373612881 0.876879096
vn -0.448350042 0.145509139 0.881934941
vn 0.204449341 -0.509714246 0.835698426
vn -0.542269766 -0.0117793623 0.840121925
vn 0.0613599904 -0.598029852 0.799121499
vn -0.569494963 -0.182136729 0.801562011
vn -0.113112561 -0.629048824 0.769092441
vn -0.529941499 -0.34978947 0.77253437
vn -0.290320367 -0.588350415 0.754690528
vn -0.435815632 -0.487766564 0.756404936
vn 0.0384530649 -0.998716712 -0.0329590924
vn 0.400066942 -0.910871983 0.10128542
vn 0.396943212 -0.915832818 -0.0607153326
vn 0.704482555 -0.707786858 -0.0523642376
vn 0.0495231077 -0.990478039 0.128454998
vn -0.321839839 -0.946395457 0.0274733528
vn -0.301957339 -0.934387147 0.189056918
vn -0.633895099 -0.765211463 0.11237555
vn 0.698370337 -0.707026422 0.111322008
vn 0.91584748 -0.401413023 -0.00954184867
vn 0.0881764963 -0.855764449 0.509796262
vn -0.601433158 -0.750445783 0.274060786
vn -0.853302002 -0.477786809 0.208795518
vn 0.364133745 -0.793803871 0.487116069
vn 0.899219096 -0.408544242 0.15651384
vn 0.997442245 -0.0373206288 0.0609605238
vn -0.187328562 -0.809094906 0.557021856
vn -0.8042261 -0.465041667 0.370076597
vn -0.94584918 -0.12245132 0.30062443
vn 0.596898854 -0.633719444 0.492048025
vn 0.97148031 -0.0591738895 0.229617879
vn 0.931484163 0.332163811 0.148339659
vn -0.419710904 -0.663329601 0.619545519
vn -0.878853559 -0.120656967 0.461582333
vn -0.893049896 0.251651108 0.373006195
vn 0.75276345 -0.402632594 0.520801485
vn 0.902794063 0.28813535 0.319281787
vn 0.721597254 0.649495184 0.239694089
vn -0.576543391 -0.439869553 0.68855828
vn -0.812843442 0.231504783 0.534500718
vn -0.696163297 0.58673811 0.413636506
vn 0.808495283 -0.129310951 0.574120343
vn 0.702443361 0.580112159 0.412363082
vn 0.395139664 0.860252678 0.322226673
vn -0.635050416 -0.17148 0.753196836
vn -0.614904642 0.53726393 0.577269137
vn -0.379695415 0.825820327 0.416955769
vn 0.755733371 0.138655037 0.640032709
vn -0.584762633 0.102226779 0.804737508
vn -0.313732564 0.748504102 0.584220469
vn 0.00566820381 0.923163414 0.384365857
vn 0.0426605791 0.830805719 0.554925144
vn 0.399953961 0.771496236 0.494803369
vn -0.430167794 0.34348765 0.834848464
vn 0.601834476 0.370610088 0.707420349
vn -0.191757917 0.509507537 0.838827193
vn 0.366978705 0.522074699 0.769912183
vn 0.0887102187 0.571604669 0.815719664
vn -0.229404688 0.131209895 0.964446723
vn -0.0684886128 0.246869102 0.966625631
vn 0.134835318 -0.228319332 0.964204133
vn -0.325610429 -0.0360227525 0.944817543
vn 0.119249754 0.286358088 0.950672746
vn -0.348417044 -0.209249467 0.913684905
vn 0.299773216 0.248527527 0.921070099
vn -0.302481502 -0.373608768 0.876881599
vn 0.448347151 0.145508528 0.88193661
vn -0.204448685 -0.509712696 0.835699618
vn 0.542268872 -0.0117796259 0.840122402
vn -0.0613597147 -0.59803015 0.79912132
vn 0.569493592 -0.182135284 0.801563323
vn 0.113113016 -0.629051268 0.769090295
vn 0.52993691 -0.349787295 0.772538543
vn 0.290321618 -0.588352323 0.754688621
vn 0.435814887 -0.487764835 0.756406605
g HanWuDi_Eye_lod0_0
f 3/3/3 2/2/2 1/1/1
f 4/4/4 2/2/2 3/3/3
f 5/5/5 3/3/3 1/1/1
f 5/5/5 1/1/1 6/6/6
f 7/7/7 5/5/5 6/6/6
f 7/7/7 6/6/6 8/8/8
f 9/9/9 4/4/4 3/3/3
f 10/10/10 4/4/4 9/9/9
f 5/5/5 11/11/11 3/3/3
f 11/11/11 5/5/5 7/7/7
f 12/12/12 7/7/7 8/8/8
f 12/12/12 8/8/8 13/13/13
f 9/9/9 3/3/3 14/14/14
f 11/11/11 14/14/14 3/3/3
f 15/15/15 10/10/10 9/9/9
f 16/16/16 10/10/10 15/15/15
f 17/17/17 7/7/7 12/12/12
f 17/17/17 11/11/11 7/7/7
f 18/18/18 12/12/12 13/13/13
f 18/18/18 13/13/13 19/19/19
f 20/20/20 9/9/9 14/14/14
f 15/15/15 9/9/9 20/20/20
f 21/21/21 16/16/16 15/15/15
f 22/22/22 16/16/16 21/21/21
f 23/23/23 17/17/17 12/12/12
f 23/23/23 12/12/12 18/18/18
f 24/24/24 18/18/18 19/19/19
f 24/24/24 19/19/19 25/25/25
f 26/26/26 15/15/15 20/20/20
f 21/21/21 15/15/15 26/26/26
f 27/27/27 22/22/22 21/21/21
f 28/28/28 22/22/22 27/27/27
f 29/29/29 23/23/23 18/18/18
f 29/29/29 18/18/18 24/24/24
f 30/30/30 24/24/24 25/25/25
f 30/30/30 25/25/25 31/31/31
f 32/32/32 21/21/21 26/26/26
f 27/27/27 21/21/21 32/32/32
f 33/33/33 28/28/28 27/27/27
f 34/34/34 28/28/28 33/33/33
f 35/35/35 29/29/29 24/24/24
f 35/35/35 24/24/24 30/30/30
f 36/36/36 30/30/30 31/31/31
f 36/36/36 31/31/31 37/37/37
f 38/38/38 27/27/27 32/32/32
f 33/33/33 27/27/27 38/38/38
f 39/39/39 35/35/35 30/30/30
f 39/39/39 30/30/30 36/36/36
f 40/40/40 36/36/36 37/37/37
f 40/40/40 37/37/37 41/41/41
f 42/42/42 41/41/41 34/34/34
f 42/42/42 40/40/40 41/41/41
f 43/43/43 34/34/34 33/33/33
f 43/43/43 42/42/42 34/34/34
f 44/44/44 36/36/36 40/40/40
f 44/44/44 39/39/39 36/36/36
f 43/43/43 33/33/33 45/45/45
f 45/45/45 33/33/33 38/38/38
f 46/46/46 40/40/40 42/42/42
f 46/46/46 44/44/44 40/40/40
f 43/43/43 47/47/47 42/42/42
f 47/47/47 43/43/43 45/45/45
f 48/48/48 46/46/46 42/42/42
f 47/47/47 48/48/48 42/42/42
f 39/39/39 44/44/44 49/49/49
f 44/44/44 46/46/46 50/50/50
f 49/49/49 44/44/44 50/50/50
f 49/49/49 50/50/50 51/51/51
f 52/52/52 39/39/39 49/49/49
f 52/52/52 49/49/49 51/51/51
f 35/35/35 39/39/39 52/52/52
f 50/50/50 46/46/46 53/53/53
f 46/46/46 48/48/48 53/53/53
f 50/50/50 53/53/53 51/51/51
f 54/54/54 35/35/35 52/52/52
f 54/54/54 52/52/52 51/51/51
f 29/29/29 35/35/35 54/54/54
f 53/53/53 48/48/48 55/55/55
f 48/48/48 47/47/47 55/55/55
f 53/53/53 55/55/55 51/51/51
f 56/56/56 29/29/29 54/54/54
f 56/56/56 54/54/54 51/51/51
f 23/23/23 29/29/29 56/56/56
f 55/55/55 47/47/47 57/57/57
f 55/55/55 57/57/57 51/51/51
f 58/58/58 56/56/56 51/51/51
f 58/58/58 23/23/23 56/56/56
f 57/57/57 59/59/59 51/51/51
f 47/47/47 45/45/45 57/57/57
f 57/57/57 45/45/45 59/59/59
f 17/17/17 23/23/23 58/58/58
f 45/45/45 38/38/38 59/59/59
f 60/60/60 17/17/17 58/58/58
f 60/60/60 58/58/58 51/51/51
f 11/11/11 17/17/17 60/60/60
f 59/59/59 38/38/38 61/61/61
f 59/59/59 61/61/61 51/51/51
f 38/38/38 32/32/32 61/61/61
f 62/62/62 11/11/11 60/60/60
f 62/62/62 60/60/60 51/51/51
f 14/14/14 11/11/11 62/62/62
f 61/61/61 32/32/32 63/63/63
f 61/61/61 63/63/63 51/51/51
f 32/32/32 26/26/26 63/63/63
f 64/64/64 14/14/14 62/62/62
f 64/64/64 62/62/62 51/51/51
f 20/20/20 14/14/14 64/64/64
f 63/63/63 65/65/65 51/51/51
f 63/63/63 26/26/26 65/65/65
f 65/65/65 64/64/64 51/51/51
f 65/65/65 20/20/20 64/64/64
f 26/26/26 20/20/20 65/65/65
f 68/68/68 67/67/67 66/66/66
f 68/68/68 69/69/69 67/67/67
f 67/67/67 70/70/70 66/66/66
f 66/66/66 70/70/70 71/71/71
f 70/70/70 72/72/72 71/71/71
f 71/71/71 72/72/72 73/73/73
f 69/69/69 74/74/74 67/67/67
f 69/69/69 75/75/75 74/74/74
f 76/76/76 70/70/70 67/67/67
f 70/70/70 76/76/76 72/72/72
f 72/72/72 77/77/77 73/73/73
f 73/73/73 77/77/77 78/78/78
f 67/67/67 74/74/74 79/79/79
f 79/79/79 76/76/76 67/67/67
f 75/75/75 80/80/80 74/74/74
f 75/75/75 81/81/81 80/80/80
f 72/72/72 82/82/82 77/77/77
f 76/76/76 82/82/82 72/72/72
f 77/77/77 83/83/83 78/78/78
f 78/78/78 83/83/83 84/84/84
f 74/74/74 85/85/85 79/79/79
f 74/74/74 80/80/80 85/85/85
f 81/81/81 86/86/86 80/80/80
f 81/81/81 87/87/87 86/86/86
f 82/82/82 88/88/88 77/77/77
f 77/77/77 88/88/88 83/83/83
f 83/83/83 89/89/89 84/84/84
f 84/84/84 89/89/89 90/90/90
f 80/80/80 91/91/91 85/85/85
f 80/80/80 86/86/86 91/91/91
f 87/87/87 92/92/92 86/86/86
f 87/87/87 93/93/93 92/92/92
f 88/88/88 94/94/94 83/83/83
f 83/83/83 94/94/94 89/89/89
f 89/89/89 95/95/95 90/90/90
f 90/90/90 95/95/95 96/96/96
f 86/86/86 97/97/97 91/91/91
f 86/86/86 92/92/92 97/97/97
f 93/93/93 98/98/98 92/92/92
f 93/93/93 99/99/99 98/98/98
f 94/94/94 100/100/100 89/89/89
f 89/89/89 100/100/100 95/95/95
f 95/95/95 101/101/101 96/96/96
f 96/96/96 101/101/101 102/102/102
f 92/92/92 103/103/103 97/97/97
f 92/92/92 98/98/98 103/103/103
f 100/100/100 104/104/104 95/95/95
f 95/95/95 104/104/104 101/101/101
f 101/101/101 105/105/105 102/102/102
f 102/102/102 105/105/105 106/106/106
f 106/106/106 107/107/107 99/99/99
f 105/105/105 107/107/107 106/106/106
f 99/99/99 108/108/108 98/98/98
f 107/107/107 108/108/108 99/99/99
f 101/101/101 109/109/109 105/105/105
f 104/104/104 109/109/109 101/101/101
f 98/98/98 108/108/108 110/110/110
f 98/98/98 110/110/110 103/103/103
f 105/105/105 111/111/111 107/107/107
f 109/109/109 111/111/111 105/105/105
f 112/112/112 108/108/108 107/107/107
f 108/108/108 112/112/112 110/110/110
f 111/111/111 113/113/113 107/107/107
f 113/113/113 112/112/112 107/107/107
f 109/109/109 104/104/104 114/114/114
f 111/111/111 109/109/109 115/115/115
f 109/109/109 114/114/114 115/115/115
f 115/115/115 114/114/114 116/116/116
f 104/104/104 117/117/117 114/114/114
f 114/114/114 117/117/117 116/116/116
f 104/104/104 100/100/100 117/117/117
f 111/111/111 115/115/115 118/118/118
f 113/113/113 111/111/111 118/118/118
f 118/118/118 115/115/115 116/116/116
f 100/100/100 119/119/119 117/117/117
f 117/117/117 119/119/119 116/116/116
f 100/100/100 94/94/94 119/119/119
f 113/113/113 118/118/118 120/120/120
f 112/112/112 113/113/113 120/120/120
f 120/120/120 118/118/118 116/116/116
f 94/94/94 121/121/121 119/119/119
f 119/119/119 121/121/121 116/116/116
f 94/94/94 88/88/88 121/121/121
f 112/112/112 120/120/120 122/122/122
f 122/122/122 120/120/120 116/116/116
f 121/121/121 123/123/123 116/116/116
f 88/88/88 123/123/123 121/121/121
f 124/124/124 122/122/122 116/116/116
f 110/110/110 112/112/112 122/122/122
f 110/110/110 122/122/122 124/124/124
f 88/88/88 82/82/82 123/123/123
f 103/103/103 110/110/110 124/124/124
f 82/82/82 125/125/125 123/123/123
f 123/123/123 125/125/125 116/116/116
f 82/82/82 76/76/76 125/125/125
f 103/103/103 124/124/124 126/126/126
f 126/126/126 124/124/124 116/116/116
f 97/97/97 103/103/103 126/126/126
f 76/76/76 127/127/127 125/125/125
f 125/125/125 127/127/127 116/116/116
f 76/76/76 79/79/79 127/127/127
f 97/97/97 126/126/126 128/128/128
f 128/128/128 126/126/126 116/116/116
f 91/91/91 97/97/97 128/128/128
f 79/79/79 129/129/129 127/127/127
f 127/127/127 129/129/129 116/116/116
f 79/79/79 85/85/85 129/129/129
f 130/130/130 128/128/128 116/116/116
f 91/91/91 128/128/128 130/130/130
f 129/129/129 130/130/130 116/116/116
f 85/85/85 130/130/130 129/129/129
f 85/85/85 91/91/91 130/130/130
