g HanWuDi_WuQi_2
v 0.143767923 4.56853676 -0.0520593263
v 0.224126354 4.50108528 -0.0364453122
v 0.211009562 4.58969498 -0.0360269174
v 0.0757154673 4.53934908 -0.0695040897
v -6.23557526E-08 4.49975157 -0.0863208026
v 0.230777204 4.10872507 -0.0353991687
v 0.00674961088 4.10838509 -0.083914794
v 0.229307443 3.92120147 -0.0349023417
v 0.00674961088 3.92101836 -0.082737729
v 0.219640881 2.78426528 -0.0323916636
v 0.00674961088 2.78426528 -0.0768008381
v 0.217916667 2.59865141 -0.0320776366
v 0.00674961088 2.59865141 -0.0760424808
v 0.00674961088 1.96243143 -0.0734271258
v 0.211981043 1.96243143 -0.0310316458
v 0.211506471 4.59000874 0.0348501578
v 0.222700328 4.58987808 0.0200991817
v 0.224767923 4.50105953 0.0347717293
v 0.222255722 4.59008789 -0.0221914668
v 0.224126354 4.50108528 -0.0364453122
v 0.211009562 4.58969498 -0.0360269174
v 0.230946809 4.10872507 0.0341439806
v 0.230777204 4.10872507 -0.0353991687
v 0.229307443 3.92120147 -0.0349023417
v 0.229250908 3.92120147 0.0338562019
v 0.21873638 2.78426528 0.0319732651
v 0.219640881 2.78426528 -0.0323916636
v 0.216955721 2.59865141 0.0316329934
v 0.217916667 2.59865141 -0.0320776366
v 0.211981043 1.96243143 -0.0310316458
v 0.210963473 1.96243143 0.0305346679
v 0.163987234 1.77284193 0.0303515624
v 0.165033028 1.77284193 -0.0308485404
v 0.128133252 1.48894131 0.0295669548
v 0.12916486 1.48894131 -0.0300900266
v 0.120063558 1.20509303 0.0287038423
v 0.121109381 1.20509303 -0.028860854
v 0.1316946 0.920538604 0.027513884
v 0.132811055 0.920538604 -0.0278931428
v 0.167887837 0.636455238 0.027500838
v 0.168000832 0.636455238 -0.0275270082
v 0.179572597 0.475713044 0.026951598
v 0.179546461 0.475713044 -0.0284423828
v 0.00674961088 1.96243143 -0.0734271258
v 0.165033028 1.77284193 -0.0308485404
v 0.211981043 1.96243143 -0.0310316458
v 0.00674961088 1.77310348 -0.0708116144
v 0.12916486 1.48894131 -0.0300900266
v 0.00674961088 1.4891113 -0.0687977597
v 0.00674961088 1.20509303 -0.0670716837
v 0.121109381 1.20509303 -0.028860854
v 0.00674961088 0.921100974 -0.0662347376
v 0.132811055 0.920538604 -0.0278931428
v 0.00674961088 0.637030303 -0.0648747236
v 0.168000832 0.636455238 -0.0275270082
v 0.103072435 0.46619305 -0.0435331725
v -6.23557526E-08 0.45913139 -0.0639070496
v 0.179546461 0.475713044 -0.0284423828
v 0.150620222 0.110774741 -0.0709686056
v -6.23557526E-08 0.454999447 -0.0853794068
v -6.23557526E-08 0.0938399211 -0.0897732452
v 0.108094007 0.463080734 -0.0619193651
v 0.275008202 0.308472157 -0.0394531637
v 0.215403453 0.477204084 -0.0365500636
v 0.270091176 0.148397207 -0.0539424121
v 0.342799097 0.196781784 -0.0379885286
v 0.273935795 0.307949096 0.0392439254
v 0.340732902 0.196834162 0.0377793014
v 0.266429663 0.146827847 0.0536024161
v 0.107989378 0.463054806 0.0606639832
v 0.216083393 0.477073431 0.0351900868
v 0.150489464 0.11103639 0.0702755228
v -6.23557526E-08 0.09088476 0.0896686316
v -6.23557526E-08 0.45492062 0.0848039985
v 0.340732902 0.196834162 0.0377793014
v 0.275008202 0.308472157 -0.0394531637
v 0.342799097 0.196781784 -0.0379885286
v 0.273935795 0.307949096 0.0392439254
v 0.216083393 0.477073431 0.0351900868
v 0.215403453 0.477204084 -0.0365500636
v 0.108094007 0.463080734 -0.0619193651
v -6.23557526E-08 0.45913139 -0.0639070496
v -6.23557526E-08 0.454999447 -0.0853794068
v 0.103072435 0.46619305 -0.0435331725
v 0.179546461 0.475713044 -0.0284423828
v 0.215403453 0.477204084 -0.0365500636
v 0.179572597 0.475713044 0.026951598
v 0.216083393 0.477073431 0.0351900868
v 0.107989378 0.463054806 0.0606639832
v 0.0998293757 0.465957582 0.0429839306
v -6.23557526E-08 0.458634526 0.0630439743
v -6.23557526E-08 0.45492062 0.0848039985
v 0.0998293757 0.465957582 0.0429839306
v 0.167887837 0.636455238 0.027500838
v 0.179572597 0.475713044 0.026951598
v 0.00674961088 0.637030303 0.0643255189
v -6.23557526E-08 0.458634526 0.0630439743
v 0.1316946 0.920538604 0.027513884
v 0.00674961088 0.921100974 0.0651232153
v 0.120063558 1.20509303 0.0287038423
v 0.00674961088 1.20509303 0.0657901019
v 0.128133252 1.48894131 0.0295669548
v 0.00674961088 1.48909831 0.0677255243
v 0.00674961088 1.77310348 0.0685624704
v 0.163987234 1.77284193 0.0303515624
v 0.00674961088 1.96243143 0.0711517334
v 0.210963473 1.96243143 0.0305346679
v 0.00674961088 1.96243143 0.0711517334
v 0.216955721 2.59865141 0.0316329934
v 0.210963473 1.96243143 0.0305346679
v 0.00674961088 2.59865141 0.0746563673
v 0.21873638 2.78426528 0.0319732651
v 0.00674961088 2.78426528 0.0756762698
v 0.229250908 3.92120147 0.0338562019
v 0.00674961088 3.92120147 0.0820577964
v 0.230946809 4.10872507 0.0341439806
v 0.00674961088 4.10872507 0.0831039399
v 0.224767923 4.50105953 0.0347717293
v -6.23557526E-08 4.50022268 0.0853271484
v 0.0757415965 4.53924417 0.0672546402
v 0.143715605 4.56848431 0.0510131828
v 0.211506471 4.59000874 0.0348501578
v -6.23557526E-08 4.52548695 0.107688598
v 0.0757415965 4.53924417 0.0672546402
v -6.23557526E-08 4.50022268 0.0853271484
v 0.0730215758 4.56116104 0.0901132151
v 0.143715605 4.56848431 0.0510131828
v 0.139374018 4.58993053 0.0742117316
v 0.211506471 4.59000874 0.0348501578
v 0.222438812 4.61464596 0.0535501093
v 0.24370198 4.61461973 0.0271868892
v 0.222700328 4.58987808 0.0200991817
v 0.243728057 4.61456728 -0.0287561025
v 0.222255722 4.59008789 -0.0221914668
v 0.223040402 4.6145153 -0.0553024262
v 0.211009562 4.58969498 -0.0360269174
v 0.139635608 4.58995676 -0.0762255862
v 0.143767923 4.56853676 -0.0520593263
v 0.0757154673 4.53934908 -0.0695040897
v 0.0731262118 4.56184101 -0.092074886
v -6.23557526E-08 4.52465057 -0.109519348
v -6.23557526E-08 4.49975157 -0.0863208026
v 0.222438812 4.85099888 0.0535501093
v 0.24370198 4.61461973 0.0271868892
v 0.222438812 4.61464596 0.0535501093
v 0.24370198 4.85094643 0.0271868892
v 0.243728057 4.61456728 -0.0287561025
v 0.243728057 4.85089445 -0.0287561025
v 0.223040402 4.6145153 -0.0553024262
v 0.223040402 4.85086775 -0.0553024262
v -6.23557526E-08 4.85050154 0.107688598
v 0.0730215758 4.56116104 0.0901132151
v -6.23557526E-08 4.52548695 0.107688598
v 0.106210925 4.85105085 0.0821624771
v 0.139374018 4.58993053 0.0742117316
v 0.222438812 4.61464596 0.0535501093
v 0.222438812 4.85099888 0.0535501093
v 0.106394 4.85047579 -0.0841500834
v 0.223040402 4.6145153 -0.0553024262
v 0.223040402 4.85086775 -0.0553024262
v 0.139635608 4.58995676 -0.0762255862
v 0.0731262118 4.56184101 -0.092074886
v -6.23557526E-08 4.85047579 -0.109519348
v -6.23557526E-08 4.52465057 -0.109519348
v 0.24370198 4.85094643 0.0271868892
v 0.223040402 4.85086775 -0.0553024262
v 0.243728057 4.85089445 -0.0287561025
v 0.222438812 4.85099888 0.0535501093
v 0.106394 4.85047579 -0.0841500834
v 0.106210925 4.85105085 0.0821624771
v -6.23557526E-08 4.85050154 0.107688598
v -6.23557526E-08 4.85047579 -0.109519348
v 0.150894836 0.104458608 -0.0945201963
v -6.23557526E-08 0.0938399211 -0.0897732452
v -6.23557526E-08 0.0866475552 -0.117679469
v 0.150620222 0.110774741 -0.0709686056
v 0.271477371 0.142747775 -0.0835224688
v 0.270091176 0.148397207 -0.0539424121
v 0.343034476 0.192309618 -0.0807501599
v 0.342799097 0.196781784 -0.0379885286
v 0.373712987 0.217495859 -0.0801486224
v 0.374811441 0.216972575 0.0796255469
v 0.340732902 0.196834162 0.0377793014
v 0.327786714 0.180409655 0.0805409253
v 0.266429663 0.146827847 0.0536024161
v 0.269934297 0.142303318 0.0827117041
v 0.150489464 0.11103639 0.0702755228
v 0.150424078 0.103935562 0.0953571126
v -6.23557526E-08 0.09088476 0.0896686316
v -6.23557526E-08 0.086255461 0.118830226
v 0.374811441 0.216972575 0.0796255469
v 0.427825421 0.158832565 -0.0777686089
v 0.425994664 0.158989698 0.0789978504
v 0.373712987 0.217495859 -0.0801486224
v 0.343034476 0.192309618 -0.0807501599
v 0.427825421 0.158832565 -0.0777686089
v 0.373712987 0.217495859 -0.0801486224
v 0.307255924 0.0764346793 -0.0821363181
v 0.271477371 0.142747775 -0.0835224688
v 0.150894836 0.104458608 -0.0945201963
v 0.150894836 0.02495078 -0.0945201889
v -6.23557526E-08 0.0866475552 -0.117679469
v -6.23557526E-08 0.00810774788 -0.118830226
v 0.425994664 0.158989698 0.0789978504
v 0.327786714 0.180409655 0.0805409253
v 0.374811441 0.216972575 0.0796255469
v 0.306405932 0.0775593296 0.0815086141
v 0.269934297 0.142303318 0.0827117041
v 0.150424078 0.103935562 0.0953571126
v 0.150424078 0.024453925 0.0953571126
v -6.23557526E-08 0.086255461 0.118830226
v -6.23557526E-08 0.00810774788 0.11765331
v 0.427825421 0.158832565 -0.0777686089
v 0.306405932 0.0775593296 0.0815086141
v 0.425994664 0.158989698 0.0789978504
v 0.307255924 0.0764346793 -0.0821363181
v 0.150424078 0.024453925 0.0953571126
v 0.150894836 0.02495078 -0.0945201889
v -6.23557526E-08 0.00810774788 0.11765331
v -6.23557526E-08 0.00810774788 -0.118830226
v -0.211009741 4.58969498 -0.0360269174
v -0.224126488 4.50108528 -0.0364453122
v -0.143768042 4.56853676 -0.0520593263
v -0.075715594 4.53934908 -0.0695040897
v -6.23557526E-08 4.49975157 -0.0863208026
v -0.217278063 4.10872507 -0.0353991687
v 0.00674961088 4.10838509 -0.083914794
v -0.215808213 3.92120147 -0.0349023417
v 0.00674961088 3.92101836 -0.082737729
v -0.206141651 2.78426528 -0.0323916636
v 0.00674961088 2.78426528 -0.0768008381
v -0.204417497 2.59865141 -0.0320776366
v 0.00674961088 2.59865141 -0.0760424808
v 0.00674961088 1.96243143 -0.0734271258
v -0.198481828 1.96243143 -0.0310316458
v -0.21150665 4.59000874 0.0348501578
v -0.224768043 4.50105953 0.0347717293
v -0.222700521 4.58987808 0.0200991817
v -0.222255915 4.59008789 -0.0221914668
v -0.224126488 4.50108528 -0.0364453122
v -0.211009741 4.58969498 -0.0360269174
v -0.217447624 4.10872507 0.0341439806
v -0.217278063 4.10872507 -0.0353991687
v -0.215808213 3.92120147 -0.0349023417
v -0.215751678 3.92120147 0.0338562019
v -0.20523715 2.78426528 0.0319732651
v -0.206141651 2.78426528 -0.0323916636
v -0.203484714 2.59865141 0.0316329934
v -0.204417497 2.59865141 -0.0320776366
v -0.198481828 1.96243143 -0.0310316458
v -0.197464332 1.96243143 0.0305346679
v -0.150488004 1.77284193 0.0303515624
v -0.151533812 1.77284193 -0.0308485404
v -0.114648171 1.48894131 0.0295669548
v -0.115665711 1.48894131 -0.0300900266
v -0.106564417 1.20509303 0.0287038423
v -0.107610211 1.20509303 -0.028860854
v -0.118195377 0.920538604 0.027513884
v -0.119311847 0.920538604 -0.0278931428
v -0.154388607 0.636455238 0.027500838
v -0.154529944 0.636455238 -0.0275270082
v -0.179572716 0.475713044 0.026951598
v -0.179572716 0.475713044 -0.0284423828
v -0.151533812 1.77284193 -0.0308485404
v 0.00674961088 1.96243143 -0.0734271258
v -0.198481828 1.96243143 -0.0310316458
v 0.00674961088 1.77310348 -0.0708116144
v -0.115665711 1.48894131 -0.0300900266
v 0.00674961088 1.4891113 -0.0687977597
v 0.00674961088 1.20509303 -0.0670716837
v -0.107610211 1.20509303 -0.028860854
v 0.00674961088 0.921100974 -0.0662347376
v -0.119311847 0.920538604 -0.0278931428
v 0.00674961088 0.637030303 -0.0648747236
v -0.154529944 0.636455238 -0.0275270082
v -0.103072561 0.46619305 -0.0435331725
v -0.179572716 0.475713044 -0.0284423828
v -6.23557526E-08 0.45913139 -0.0639070496
v -6.23557526E-08 0.454999447 -0.0853794068
v -0.103595667 0.101346053 -0.0775855258
v -6.23557526E-08 0.0938399211 -0.0897732452
v -0.108094126 0.463080734 -0.0619193651
v -0.233894378 0.134300321 -0.0591470525
v -0.275008291 0.308472157 -0.0394531637
v -0.342799217 0.196781784 -0.0379885286
v -0.215403572 0.477204084 -0.0365500636
v -0.266429871 0.146827847 0.0536024161
v -0.340733051 0.196834162 0.0377793014
v -0.273936003 0.307949096 0.0392439254
v -0.107989497 0.463054806 0.0606639832
v -0.216083556 0.477073431 0.0351900868
v -0.150489599 0.11103639 0.0702755228
v -6.23557526E-08 0.09088476 0.0896686316
v -6.23557526E-08 0.45492062 0.0848039985
v -0.275008291 0.308472157 -0.0394531637
v -0.340733051 0.196834162 0.0377793014
v -0.342799217 0.196781784 -0.0379885286
v -0.273936003 0.307949096 0.0392439254
v -0.216083556 0.477073431 0.0351900868
v -0.215403572 0.477204084 -0.0365500636
v -6.23557526E-08 0.45913139 -0.0639070496
v -0.108094126 0.463080734 -0.0619193651
v -6.23557526E-08 0.454999447 -0.0853794068
v -0.103072561 0.46619305 -0.0435331725
v -0.179572716 0.475713044 -0.0284423828
v -0.215403572 0.477204084 -0.0365500636
v -0.179572716 0.475713044 0.026951598
v -0.216083556 0.477073431 0.0351900868
v -0.107989497 0.463054806 0.0606639832
v -0.0998556316 0.465957582 0.0429839306
v -6.23557526E-08 0.458634526 0.0630439743
v -6.23557526E-08 0.45492062 0.0848039985
v -0.179572716 0.475713044 0.026951598
v -0.154388607 0.636455238 0.027500838
v -0.0998556316 0.465957582 0.0429839306
v 0.00674961088 0.637030303 0.0643255189
v -6.23557526E-08 0.458634526 0.0630439743
v -0.118195377 0.920538604 0.027513884
v 0.00674961088 0.921100974 0.0651232153
v -0.106564417 1.20509303 0.0287038423
v 0.00674961088 1.20509303 0.0657901019
v -0.114648171 1.48894131 0.0295669548
v 0.00674961088 1.48909831 0.0677255243
v 0.00674961088 1.77310348 0.0685624704
v -0.150488004 1.77284193 0.0303515624
v 0.00674961088 1.96243143 0.0711517334
v -0.197464332 1.96243143 0.0305346679
v -0.203484714 2.59865141 0.0316329934
v 0.00674961088 1.96243143 0.0711517334
v -0.197464332 1.96243143 0.0305346679
v 0.00674961088 2.59865141 0.0746563673
v -0.20523715 2.78426528 0.0319732651
v 0.00674961088 2.78426528 0.0756762698
v -0.215751678 3.92120147 0.0338562019
v 0.00674961088 3.92120147 0.0820577964
v -0.217447624 4.10872507 0.0341439806
v 0.00674961088 4.10872507 0.0831039399
v -0.224768043 4.50105953 0.0347717293
v -6.23557526E-08 4.50022268 0.0853271484
v -0.0757417828 4.53924417 0.0672546402
v -0.143741921 4.56848431 0.0510131828
v -0.21150665 4.59000874 0.0348501578
v -0.0757417828 4.53924417 0.0672546402
v -6.23557526E-08 4.52548695 0.107688598
v -6.23557526E-08 4.50022268 0.0853271484
v -0.0730217621 4.56116104 0.0901132151
v -0.143741921 4.56848431 0.0510131828
v -0.139400333 4.58993053 0.0742117316
v -0.21150665 4.59000874 0.0348501578
v -0.222438991 4.61464596 0.0535501093
v -0.243702114 4.61461973 0.0271868892
v -0.222700521 4.58987808 0.0200991817
v -0.243728235 4.61456728 -0.0287561025
v -0.222255915 4.59008789 -0.0221914668
v -0.223040536 4.6145153 -0.0553024262
v -0.211009741 4.58969498 -0.0360269174
v -0.139635727 4.58995676 -0.0762255862
v -0.143768042 4.56853676 -0.0520593263
v -0.075715594 4.53934908 -0.0695040897
v -0.073126398 4.56184101 -0.092074886
v -6.23557526E-08 4.52465057 -0.109519348
v -6.23557526E-08 4.49975157 -0.0863208026
v -0.243702114 4.61461973 0.0271868892
v -0.222438991 4.85099888 0.0535501093
v -0.222438991 4.61464596 0.0535501093
v -0.243702114 4.85094643 0.0271868892
v -0.243728235 4.61456728 -0.0287561025
v -0.243728235 4.85089445 -0.0287561025
v -0.223040536 4.6145153 -0.0553024262
v -0.223040536 4.85086775 -0.0553024262
v -0.0730217621 4.56116104 0.0901132151
v -6.23557526E-08 4.85050154 0.107688598
v -6.23557526E-08 4.52548695 0.107688598
v -0.106211051 4.85105085 0.0821624771
v -0.139400333 4.58993053 0.0742117316
v -0.222438991 4.61464596 0.0535501093
v -0.222438991 4.85099888 0.0535501093
v -0.223040536 4.6145153 -0.0553024262
v -0.106394127 4.85047579 -0.0841500834
v -0.223040536 4.85086775 -0.0553024262
v -0.139635727 4.58995676 -0.0762255862
v -0.073126398 4.56184101 -0.092074886
v -6.23557526E-08 4.85047579 -0.109519348
v -6.23557526E-08 4.52465057 -0.109519348
v -0.223040536 4.85086775 -0.0553024262
v -0.243702114 4.85094643 0.0271868892
v -0.243728235 4.85089445 -0.0287561025
v -0.222438991 4.85099888 0.0535501093
v -0.106394127 4.85047579 -0.0841500834
v -0.106211051 4.85105085 0.0821624771
v -6.23557526E-08 4.85050154 0.107688598
v -6.23557526E-08 4.85047579 -0.109519348
v -6.23557526E-08 0.0938399211 -0.0897732452
v -0.103621788 0.0952526554 -0.100077882
v -6.23557526E-08 0.0866475552 -0.117679469
v -0.103595667 0.101346053 -0.0775855258
v -0.234822839 0.128206179 -0.0862424821
v -0.233894378 0.134300321 -0.0591470525
v -0.343034625 0.192309618 -0.0807501599
v -0.342799217 0.196781784 -0.0379885286
v -0.373713106 0.217495859 -0.0801486224
v -0.37481159 0.216972575 0.0796255469
v -0.340733051 0.196834162 0.0377793014
v -0.327786893 0.180409655 0.0805409253
v -0.266429871 0.146827847 0.0536024161
v -0.269934446 0.142303318 0.0827117041
v -0.150489599 0.11103639 0.0702755228
v -0.15043731 0.103935562 0.0953571126
v -6.23557526E-08 0.09088476 0.0896686316
v -6.23557526E-08 0.086255461 0.118830226
v -0.37481159 0.216972575 0.0796255469
v -0.42782554 0.158832565 -0.0777686089
v -0.373713106 0.217495859 -0.0801486224
v -0.425994754 0.158989698 0.0789978504
v -0.42782554 0.158832565 -0.0777686089
v -0.343034625 0.192309618 -0.0807501599
v -0.373713106 0.217495859 -0.0801486224
v -0.307256073 0.0764346793 -0.0821363181
v -0.234822839 0.128206179 -0.0862424821
v -0.15089497 0.02495078 -0.0945201889
v -0.103621788 0.0952526554 -0.100077882
v -6.23557526E-08 0.0866475552 -0.117679469
v -6.23557526E-08 0.00810774788 -0.118830226
v -0.327786893 0.180409655 0.0805409253
v -0.425994754 0.158989698 0.0789978504
v -0.37481159 0.216972575 0.0796255469
v -0.306419134 0.0775593296 0.0815086141
v -0.269934446 0.142303318 0.0827117041
v -0.15043731 0.103935562 0.0953571126
v -0.15043731 0.024453925 0.0953571126
v -6.23557526E-08 0.086255461 0.118830226
v -6.23557526E-08 0.00810774788 0.11765331
v -0.306419134 0.0775593296 0.0815086141
v -0.42782554 0.158832565 -0.0777686089
v -0.425994754 0.158989698 0.0789978504
v -0.307256073 0.0764346793 -0.0821363181
v -0.15089497 0.02495078 -0.0945201889
v -0.15043731 0.024453925 0.0953571126
v -6.23557526E-08 0.00810774788 0.11765331
v -6.23557526E-08 0.00810774788 -0.118830226
v 0.243694261 2.60830188 -0.0552502424
v 0.00674961088 2.77390862 -0.101516418
v 0.00674961088 2.60830188 -0.103347167
v 0.243835628 2.77547765 -0.0550146475
v 0.243750751 2.60830188 0.0542039461
v 0.243468121 2.775033 0.0544393919
v 0.00674961088 2.60830188 0.101934813
v 0.00674961088 2.77390862 0.100914918
v -0.22996898 2.775033 0.0544393919
v -0.23025158 2.60830188 0.0542039461
v -0.230336368 2.77547765 -0.0550146475
v -0.230195045 2.60830188 -0.0552502424
v 0.00674961088 2.77390862 -0.101516418
v 0.00674961088 2.60830188 -0.103347167
v 0.217916667 2.59865141 -0.0320776366
v 0.00674961088 2.60830188 -0.103347167
v 0.00674961088 2.59865141 -0.0760424808
v 0.243694261 2.60830188 -0.0552502424
v 0.243750751 2.60830188 0.0542039461
v 0.216955721 2.59865141 0.0316329934
v 0.00674961088 2.60830188 0.101934813
v 0.00674961088 2.59865141 0.0746563673
v -0.203484714 2.59865141 0.0316329934
v -0.23025158 2.60830188 0.0542039461
v -0.230195045 2.60830188 -0.0552502424
v -0.204417497 2.59865141 -0.0320776366
v 0.00674961088 2.60830188 -0.103347167
v 0.00674961088 2.59865141 -0.0760424808
v 0.00674961088 2.77390862 -0.101516418
v 0.219640881 2.78426528 -0.0323916636
v 0.00674961088 2.78426528 -0.0768008381
v 0.243835628 2.77547765 -0.0550146475
v 0.21873638 2.78426528 0.0319732651
v 0.243468121 2.775033 0.0544393919
v 0.00674961088 2.77390862 0.100914918
v 0.00674961088 2.78426528 0.0756762698
v -0.20523715 2.78426528 0.0319732651
v -0.22996898 2.775033 0.0544393919
v -0.206141651 2.78426528 -0.0323916636
v -0.230336368 2.77547765 -0.0550146475
v 0.00674961088 2.77390862 -0.101516418
v 0.00674961088 2.78426528 -0.0768008381
v 0.243694261 3.93170166 -0.0552502424
v 0.00674961088 4.09730816 -0.101516418
v 0.00674961088 3.93170166 -0.103347167
v 0.243835628 4.09887743 -0.0550146475
v 0.243750751 3.93170166 0.0542040989
v 0.243468121 4.09843302 0.0544393919
v 0.00674961088 3.93170166 0.101934813
v 0.00674961088 4.09730816 0.100914918
v -0.22996898 4.09843302 0.0544393919
v -0.23025158 3.93170166 0.0542040989
v -0.230336368 4.09887743 -0.0550146475
v -0.230195045 3.93170166 -0.0552502424
v 0.00674961088 4.09730816 -0.101516418
v 0.00674961088 3.93170166 -0.103347167
v 0.217916667 3.92205095 -0.0320776366
v 0.00674961088 3.93170166 -0.103347167
v 0.00674961088 3.92205095 -0.0760424808
v 0.243694261 3.93170166 -0.0552502424
v 0.243750751 3.93170166 0.0542040989
v 0.216955721 3.92205095 0.0316329934
v 0.00674961088 3.93170166 0.101934813
v 0.00674961088 3.92205095 0.0746563673
v -0.203484714 3.92205095 0.0316329934
v -0.23025158 3.93170166 0.0542040989
v -0.230195045 3.93170166 -0.0552502424
v -0.204417497 3.92205095 -0.0320776366
v 0.00674961088 3.93170166 -0.103347167
v 0.00674961088 3.92205095 -0.0760424808
v 0.00674961088 4.09730816 -0.101516418
v 0.219640881 4.10766506 -0.0323916636
v 0.00674961088 4.10766506 -0.0768008381
v 0.243835628 4.09887743 -0.0550146475
v 0.21873638 4.10766506 0.0319732651
v 0.243468121 4.09843302 0.0544393919
v 0.00674961088 4.09730816 0.100914918
v 0.00674961088 4.10766506 0.0756762698
v -0.20523715 4.10766506 0.0319732651
v -0.22996898 4.09843302 0.0544393919
v -0.206141651 4.10766506 -0.0323916636
v -0.230336368 4.09887743 -0.0550146475
v 0.00674961088 4.09730816 -0.101516418
v 0.00674961088 4.10766506 -0.0768008381
v -0.226866886 3.97796774 0.0234469604
v -0.23779723 3.99065232 0.000536193838
v -0.224049091 3.98997235 0.00171295158
v -0.246205196 3.98173404 0.0239962768
v -0.25215897 4.00410891 -0.000274658203
v -0.232627466 3.9501009 0.0211062618
v -0.260476023 3.99985886 0.0237869266
v -0.255385786 4.02480936 -0.000431518536
v -0.255453944 3.95569825 0.0227932725
v -0.235888422 3.93818784 -0.000693054171
v -0.259907931 3.94313073 -0.000431518536
v -0.277064711 3.97312951 0.0242837518
v -0.254851788 3.95533156 -0.0237347409
v -0.233104661 3.95025802 -0.0229760744
v -0.240796849 3.98272753 -0.023002319
v -0.225526169 3.98087096 -0.0224008169
v -0.23779723 3.99065232 0.000536193838
v -0.224049091 3.98997235 0.00171295158
v -0.25215897 4.00410891 -0.000274658203
v -0.257590085 3.99985886 -0.0221524034
v -0.277053326 3.97303796 -0.0253430177
v -0.28863135 3.96219707 -0.000483703596
v -0.287737131 4.00088835 0.0246127322
v -0.30422014 3.99758315 -0.000431518536
v -0.263952821 4.02664042 0.0237869266
v -0.288972199 4.03320503 0.0244540405
v -0.250329673 4.04787731 0.0236563105
v -0.241569459 4.04041052 -0.000431518536
v -0.288972199 4.00159788 -0.0255786125
v -0.260953248 4.02664042 -0.022034606
v -0.255385786 4.02480936 -0.000431518536
v -0.226048812 4.05574989 0.0239178464
v -0.223390058 4.04466057 -0.000431518536
v -0.232559308 4.08382559 0.0207794178
v -0.30422014 4.03720665 -0.000431518536
v -0.288972199 4.03320503 -0.0252645873
v -0.248307198 4.04539251 -0.0224923696
v -0.241569459 4.04041052 -0.000431518536
v -0.272360772 4.06572056 0.0240420531
v -0.288744956 4.07138968 -0.000431518536
v -0.276507944 4.06146431 -0.0254214481
v -0.259907931 4.09165907 -0.000431518536
v -0.23625201 4.09613132 -0.000431518536
v -0.25463593 4.07769299 -0.0236300658
v -0.232934266 4.0834074 -0.0224923696
v -0.228821173 4.05323887 -0.0222177114
v -0.223390058 4.04466057 -0.000431518536
vt 0.979980469 0.114501953
vt 0.957519531 0.0952148438
vt 0.987304688 0.0952148438
vt 0.970214844 0.139038086
vt 0.957519531 0.166503906
vt 0.824707031 0.0952148438
vt 0.824707031 0.166503906
vt 0.76171875 0.0952148438
vt 0.76171875 0.166503906
vt 0.377441406 0.0952148438
vt 0.377441406 0.166503906
vt 0.312011719 0.0952148438
vt 0.312011719 0.166503906
vt 0.0878295898 0.166503906
vt 0.0878295898 0.0952148438
vt 0.0142974854 0.220947266
vt 0.0142974854 0.206665039
vt 0.0356140137 0.220947266
vt 0.0142974854 0.189819336
vt 0.0356140137 0.176147461
vt 0.0142974854 0.176147461
vt 0.0928955078 0.220947266
vt 0.0928955078 0.176147461
vt 0.162109375 0.176147461
vt 0.162109375 0.220947266
vt 0.416748047 0.220947266
vt 0.416748047 0.176147461
vt 0.477783203 0.220947266
vt 0.477783203 0.176147461
vt 0.613769531 0.176147461
vt 0.613769531 0.220947266
vt 0.675292969 0.220947266
vt 0.675292969 0.176147461
vt 0.744140625 0.220947266
vt 0.744140625 0.176147461
vt 0.811523438 0.220947266
vt 0.811523438 0.176147461
vt 0.879394531 0.220947266
vt 0.879394531 0.176147461
vt 0.947265625 0.220947266
vt 0.947265625 0.176147461
vt 0.98828125 0.220947266
vt 0.98828125 0.176147461
vt 0.802734375 0.88671875
vt 0.737304688 0.834472656
vt 0.802246094 0.819824219
vt 0.737792969 0.88671875
vt 0.640625 0.846191406
vt 0.640625 0.88671875
vt 0.543457031 0.88671875
vt 0.543457031 0.848632812
vt 0.446289062 0.88671875
vt 0.446289062 0.844726562
vt 0.349121094 0.88671875
vt 0.349121094 0.833984375
vt 0.291503906 0.850097656
vt 0.291503906 0.88671875
vt 0.291503906 0.823242188
vt 0.256347656 0.762695312
vt 0.335693359 0.545410156
vt 0.335693359 0.762695312
vt 0.258544922 0.545410156
vt 0.165649414 0.666503906
vt 0.16394043 0.545410156
vt 0.197143555 0.762695312
vt 0.16394043 0.762695312
vt 0.98828125 0.838867188
vt 0.98828125 0.92578125
vt 0.955078125 0.92578125
vt 0.892578125 0.732421875
vt 0.98828125 0.732421875
vt 0.895507812 0.92578125
vt 0.812988281 0.92578125
vt 0.812988281 0.732421875
vt 0.291503906 0.768554688
vt 0.378662109 0.8125
vt 0.291503906 0.8125
vt 0.378662109 0.768554688
vt 0.473876953 0.768554688
vt 0.473876953 0.8125
vt 0.112121582 0.878417969
vt 0.158203125 0.978515625
vt 0.112121582 0.978515625
vt 0.158203125 0.878417969
vt 0.158203125 0.801757812
vt 0.112121582 0.782226562
vt 0.158203125 0.709960938
vt 0.112121582 0.729980469
vt 0.112121582 0.631347656
vt 0.158203125 0.631347656
vt 0.158203125 0.532714844
vt 0.112121582 0.532714844
vt 0.234741211 0.346435547
vt 0.292480469 0.363769531
vt 0.234741211 0.374267578
vt 0.292480469 0.311035156
vt 0.234741211 0.311035156
vt 0.389648438 0.352294922
vt 0.389648438 0.311035156
vt 0.486816406 0.348632812
vt 0.486816406 0.311035156
vt 0.583984375 0.351318359
vt 0.583984375 0.311035156
vt 0.681152344 0.311035156
vt 0.680664062 0.362548828
vt 0.745605469 0.311035156
vt 0.745605469 0.377441406
vt 0.986816406 0.0836791992
vt 0.762695312 0.0131988525
vt 0.986816406 0.0131988525
vt 0.762695312 0.0836791992
vt 0.697265625 0.0131988525
vt 0.697265625 0.0836791992
vt 0.309326172 0.0131988525
vt 0.309326172 0.0836791992
vt 0.245361328 0.0131988525
vt 0.245361328 0.0836791992
vt 0.111572266 0.0131988525
vt 0.111877441 0.0836791992
vt 0.0985717773 0.0567932129
vt 0.0886230469 0.0321044922
vt 0.0812988281 0.0131988525
vt 0.347900391 0.541992188
vt 0.39453125 0.561523438
vt 0.347900391 0.561523438
vt 0.39453125 0.541992188
vt 0.441650391 0.561523438
vt 0.441650391 0.541992188
vt 0.472412109 0.561523438
vt 0.472412109 0.541992188
vt 0.493652344 0.541992188
vt 0.493652344 0.561523438
vt 0.515625 0.541992188
vt 0.515625 0.561523438
vt 0.546386719 0.541992188
vt 0.546386719 0.561523438
vt 0.588378906 0.541992188
vt 0.588378906 0.561523438
vt 0.633789062 0.561523438
vt 0.633789062 0.541992188
vt 0.684082031 0.541992188
vt 0.684082031 0.561523438
vt 0.485107422 0.688476562
vt 0.345947266 0.710449219
vt 0.345947266 0.688476562
vt 0.485107422 0.710449219
vt 0.345947266 0.73828125
vt 0.485107422 0.73828125
vt 0.345947266 0.756347656
vt 0.485107422 0.756347656
vt 0.165649414 0.782226562
vt 0.20324707 0.923339844
vt 0.165649414 0.923339844
vt 0.220703125 0.782226562
vt 0.237548828 0.923339844
vt 0.280761719 0.923339844
vt 0.280761719 0.782226562
vt 0.698242188 0.718261719
vt 0.557128906 0.657714844
vt 0.698242188 0.657714844
vt 0.557128906 0.700683594
vt 0.557128906 0.735351562
vt 0.698242188 0.772949219
vt 0.557128906 0.772949219
vt 0.807128906 0.789550781
vt 0.799316406 0.7578125
vt 0.807128906 0.768066406
vt 0.799316406 0.799804688
vt 0.75390625 0.746582031
vt 0.75390625 0.811035156
vt 0.712890625 0.820800781
vt 0.712890625 0.736816406
vt 0.697753906 0.918945312
vt 0.801757812 0.899414062
vt 0.801757812 0.918945312
vt 0.697753906 0.899414062
vt 0.608886719 0.918945312
vt 0.608886719 0.899414062
vt 0.549316406 0.918945312
vt 0.542480469 0.899414062
vt 0.525878906 0.918945312
vt 0.489501953 0.918945312
vt 0.483398438 0.899414062
vt 0.461181641 0.918945312
vt 0.429443359 0.899414062
vt 0.429443359 0.918945312
vt 0.368896484 0.899414062
vt 0.368896484 0.918945312
vt 0.289794922 0.899414062
vt 0.289794922 0.918945312
vt 0.544921875 0.66796875
vt 0.499267578 0.759765625
vt 0.499267578 0.66796875
vt 0.544921875 0.759765625
vt 0.938964844 0.985839844
vt 0.981933594 0.937011719
vt 0.981933594 0.985839844
vt 0.9140625 0.937011719
vt 0.889160156 0.985839844
vt 0.816894531 0.985839844
vt 0.816894531 0.937011719
vt 0.727050781 0.985839844
vt 0.727050781 0.937011719
vt 0.713867188 0.983398438
vt 0.657714844 0.930664062
vt 0.713867188 0.930664062
vt 0.630859375 0.983398438
vt 0.604003906 0.930664062
vt 0.518066406 0.930664062
vt 0.518066406 0.983398438
vt 0.418945312 0.930664062
vt 0.418945312 0.983398438
vt 0.305175781 0.523925781
vt 0.242797852 0.450439453
vt 0.305175781 0.450439453
vt 0.241699219 0.523925781
vt 0.172607422 0.450439453
vt 0.172607422 0.523925781
vt 0.109008789 0.450439453
vt 0.109008789 0.523925781
vt 0.987304688 0.0952148438
vt 0.957519531 0.0952148438
vt 0.979980469 0.114501953
vt 0.970214844 0.139038086
vt 0.957519531 0.166503906
vt 0.824707031 0.0952148438
vt 0.824707031 0.166503906
vt 0.76171875 0.0952148438
vt 0.76171875 0.166503906
vt 0.377441406 0.0952148438
vt 0.377441406 0.166503906
vt 0.312011719 0.0952148438
vt 0.312011719 0.166503906
vt 0.0878295898 0.166503906
vt 0.0878295898 0.0952148438
vt 0.0142974854 0.220947266
vt 0.0356140137 0.220947266
vt 0.0142974854 0.206665039
vt 0.0142974854 0.189819336
vt 0.0356140137 0.176147461
vt 0.0142974854 0.176147461
vt 0.0928955078 0.220947266
vt 0.0928955078 0.176147461
vt 0.162109375 0.176147461
vt 0.162109375 0.220947266
vt 0.416748047 0.220947266
vt 0.416748047 0.176147461
vt 0.477783203 0.220947266
vt 0.477783203 0.176147461
vt 0.613769531 0.176147461
vt 0.613769531 0.220947266
vt 0.675292969 0.220947266
vt 0.675292969 0.176147461
vt 0.744140625 0.220947266
vt 0.744140625 0.176147461
vt 0.811523438 0.220947266
vt 0.811523438 0.176147461
vt 0.879394531 0.220947266
vt 0.879394531 0.176147461
vt 0.947265625 0.220947266
vt 0.947265625 0.176147461
vt 0.98828125 0.220947266
vt 0.98828125 0.176147461
vt 0.737304688 0.834472656
vt 0.802734375 0.88671875
vt 0.802246094 0.819824219
vt 0.737792969 0.88671875
vt 0.640625 0.846191406
vt 0.640625 0.88671875
vt 0.543457031 0.88671875
vt 0.543457031 0.848632812
vt 0.446289062 0.88671875
vt 0.446289062 0.844726562
vt 0.349121094 0.88671875
vt 0.349121094 0.833984375
vt 0.291503906 0.850097656
vt 0.291503906 0.823242188
vt 0.291503906 0.88671875
vt 0.335693359 0.545410156
vt 0.280273438 0.762695312
vt 0.335693359 0.762695312
vt 0.258544922 0.545410156
vt 0.21472168 0.762695312
vt 0.165649414 0.666503906
vt 0.16394043 0.762695312
vt 0.16394043 0.545410156
vt 0.955078125 0.92578125
vt 0.98828125 0.92578125
vt 0.98828125 0.838867188
vt 0.892578125 0.732421875
vt 0.98828125 0.732421875
vt 0.895507812 0.92578125
vt 0.812988281 0.92578125
vt 0.812988281 0.732421875
vt 0.378662109 0.8125
vt 0.291503906 0.768554688
vt 0.291503906 0.8125
vt 0.378662109 0.768554688
vt 0.473876953 0.768554688
vt 0.473876953 0.8125
vt 0.158203125 0.978515625
vt 0.112121582 0.878417969
vt 0.112121582 0.978515625
vt 0.158203125 0.878417969
vt 0.158203125 0.801757812
vt 0.112121582 0.782226562
vt 0.158203125 0.709960938
vt 0.112121582 0.729980469
vt 0.112121582 0.631347656
vt 0.158203125 0.631347656
vt 0.158203125 0.532714844
vt 0.112121582 0.532714844
vt 0.234741211 0.374267578
vt 0.292480469 0.363769531
vt 0.234741211 0.346435547
vt 0.292480469 0.311035156
vt 0.234741211 0.311035156
vt 0.389648438 0.352294922
vt 0.389648438 0.311035156
vt 0.486816406 0.348632812
vt 0.486816406 0.311035156
vt 0.583984375 0.351318359
vt 0.583984375 0.311035156
vt 0.681152344 0.311035156
vt 0.680664062 0.362548828
vt 0.745605469 0.311035156
vt 0.745605469 0.377441406
vt 0.762695312 0.0131988525
vt 0.986816406 0.0836791992
vt 0.986816406 0.0131988525
vt 0.762695312 0.0836791992
vt 0.697265625 0.0131988525
vt 0.697265625 0.0836791992
vt 0.309326172 0.0131988525
vt 0.309326172 0.0836791992
vt 0.245361328 0.0131988525
vt 0.245361328 0.0836791992
vt 0.111572266 0.0131988525
vt 0.111877441 0.0836791992
vt 0.0985717773 0.0567932129
vt 0.0886230469 0.0321044922
vt 0.0812988281 0.0131988525
vt 0.39453125 0.561523438
vt 0.347900391 0.541992188
vt 0.347900391 0.561523438
vt 0.39453125 0.541992188
vt 0.441650391 0.561523438
vt 0.441650391 0.541992188
vt 0.472412109 0.561523438
vt 0.472412109 0.541992188
vt 0.493652344 0.541992188
vt 0.493652344 0.561523438
vt 0.515625 0.541992188
vt 0.515625 0.561523438
vt 0.546386719 0.541992188
vt 0.546386719 0.561523438
vt 0.588378906 0.541992188
vt 0.588378906 0.561523438
vt 0.633789062 0.561523438
vt 0.633789062 0.541992188
vt 0.684082031 0.541992188
vt 0.684082031 0.561523438
vt 0.345947266 0.710449219
vt 0.485107422 0.688476562
vt 0.345947266 0.688476562
vt 0.485107422 0.710449219
vt 0.345947266 0.73828125
vt 0.485107422 0.73828125
vt 0.345947266 0.756347656
vt 0.485107422 0.756347656
vt 0.20324707 0.923339844
vt 0.165649414 0.782226562
vt 0.165649414 0.923339844
vt 0.220703125 0.782226562
vt 0.237548828 0.923339844
vt 0.280761719 0.923339844
vt 0.280761719 0.782226562
vt 0.557128906 0.657714844
vt 0.698242188 0.718261719
vt 0.698242188 0.657714844
vt 0.557128906 0.700683594
vt 0.557128906 0.735351562
vt 0.698242188 0.772949219
vt 0.557128906 0.772949219
vt 0.799316406 0.7578125
vt 0.807128906 0.789550781
vt 0.807128906 0.768066406
vt 0.799316406 0.799804688
vt 0.75390625 0.746582031
vt 0.75390625 0.811035156
vt 0.712890625 0.820800781
vt 0.712890625 0.736816406
vt 0.801757812 0.899414062
vt 0.731445312 0.918945312
vt 0.801757812 0.918945312
vt 0.731445312 0.899414062
vt 0.63671875 0.918945312
vt 0.63671875 0.899414062
vt 0.549316406 0.918945312
vt 0.542480469 0.899414062
vt 0.525878906 0.918945312
vt 0.489501953 0.918945312
vt 0.483398438 0.899414062
vt 0.461181641 0.918945312
vt 0.429443359 0.899414062
vt 0.429443359 0.918945312
vt 0.368896484 0.899414062
vt 0.368896484 0.918945312
vt 0.289794922 0.899414062
vt 0.289794922 0.918945312
vt 0.544921875 0.66796875
vt 0.499267578 0.759765625
vt 0.544921875 0.759765625
vt 0.499267578 0.66796875
vt 0.981933594 0.937011719
vt 0.938964844 0.985839844
vt 0.981933594 0.985839844
vt 0.9140625 0.937011719
vt 0.866699219 0.985839844
vt 0.816894531 0.937011719
vt 0.7890625 0.985839844
vt 0.727050781 0.985839844
vt 0.727050781 0.937011719
vt 0.657714844 0.930664062
vt 0.713867188 0.983398438
vt 0.713867188 0.930664062
vt 0.630859375 0.983398438
vt 0.604003906 0.930664062
vt 0.518066406 0.930664062
vt 0.518066406 0.983398438
vt 0.418945312 0.930664062
vt 0.418945312 0.983398438
vt 0.242797852 0.450439453
vt 0.305175781 0.523925781
vt 0.305175781 0.450439453
vt 0.241699219 0.523925781
vt 0.172607422 0.523925781
vt 0.172607422 0.450439453
vt 0.109008789 0.450439453
vt 0.109008789 0.523925781
vt 0.758789062 0.638183594
vt 0.817871094 0.717773438
vt 0.758789062 0.717773438
vt 0.817871094 0.638183594
vt 0.758789062 0.594238281
vt 0.817871094 0.594238281
vt 0.758789062 0.514160156
vt 0.817871094 0.514160156
vt 0.817871094 0.434326172
vt 0.758789062 0.434326172
vt 0.817871094 0.390380859
vt 0.758789062 0.390380859
vt 0.817871094 0.310546875
vt 0.758789062 0.310546875
vt 0.0462036133 0.416015625
vt 0.0131988525 0.366210938
vt 0.0462036133 0.366210938
vt 0.0131988525 0.416015625
vt 0.0131988525 0.567871094
vt 0.0462036133 0.567871094
vt 0.0131988525 0.663574219
vt 0.0462036133 0.663574219
vt 0.0462036133 0.715820312
vt 0.0131988525 0.715820312
vt 0.0131988525 0.869628906
vt 0.0462036133 0.869628906
vt 0.0131988525 0.985351562
vt 0.0462036133 0.985351562
vt 0.100402832 0.454345703
vt 0.058807373 0.553710938
vt 0.058807373 0.454345703
vt 0.100402832 0.553710938
vt 0.058807373 0.65234375
vt 0.100402832 0.65234375
vt 0.100402832 0.709472656
vt 0.058807373 0.709472656
vt 0.058807373 0.812988281
vt 0.100402832 0.812988281
vt 0.058807373 0.910644531
vt 0.100402832 0.910644531
vt 0.100402832 0.983398438
vt 0.058807373 0.983398438
vt 0.758789062 0.638183594
vt 0.817871094 0.717773438
vt 0.758789062 0.717773438
vt 0.817871094 0.638183594
vt 0.758789062 0.594238281
vt 0.817871094 0.594238281
vt 0.758789062 0.514160156
vt 0.817871094 0.514160156
vt 0.817871094 0.434326172
vt 0.758789062 0.434326172
vt 0.817871094 0.390380859
vt 0.758789062 0.390380859
vt 0.817871094 0.310546875
vt 0.758789062 0.310546875
vt 0.0462036133 0.416015625
vt 0.0131988525 0.366210938
vt 0.0462036133 0.366210938
vt 0.0131988525 0.416015625
vt 0.0131988525 0.567871094
vt 0.0462036133 0.567871094
vt 0.0131988525 0.663574219
vt 0.0462036133 0.663574219
vt 0.0462036133 0.715820312
vt 0.0131988525 0.715820312
vt 0.0131988525 0.869628906
vt 0.0462036133 0.869628906
vt 0.0131988525 0.985351562
vt 0.0462036133 0.985351562
vt 0.100402832 0.454345703
vt 0.058807373 0.553710938
vt 0.058807373 0.454345703
vt 0.100402832 0.553710938
vt 0.058807373 0.65234375
vt 0.100402832 0.65234375
vt 0.100402832 0.709472656
vt 0.058807373 0.709472656
vt 0.058807373 0.812988281
vt 0.100402832 0.812988281
vt 0.058807373 0.910644531
vt 0.100402832 0.910644531
vt 0.100402832 0.983398438
vt 0.058807373 0.983398438
vt 0.470703125 0.573730469
vt 0.490722656 0.587402344
vt 0.490722656 0.573730469
vt 0.470703125 0.587402344
vt 0.490722656 0.609375
vt 0.443115234 0.573730469
vt 0.470703125 0.609375
vt 0.490722656 0.630859375
vt 0.443115234 0.587402344
vt 0.417480469 0.573730469
vt 0.417480469 0.587402344
vt 0.443115234 0.602050781
vt 0.391601562 0.587402344
vt 0.391601562 0.573730469
vt 0.365478516 0.587402344
vt 0.365478516 0.573730469
vt 0.347412109 0.587402344
vt 0.347412109 0.573730469
vt 0.347412109 0.609375
vt 0.365478516 0.609375
vt 0.391601562 0.602050781
vt 0.417480469 0.602050781
vt 0.443115234 0.616699219
vt 0.417480469 0.616699219
vt 0.470703125 0.630859375
vt 0.443115234 0.630859375
vt 0.470703125 0.651367188
vt 0.490722656 0.651367188
vt 0.391601562 0.616699219
vt 0.365478516 0.630859375
vt 0.347412109 0.630859375
vt 0.470703125 0.673339844
vt 0.490722656 0.673339844
vt 0.443115234 0.673339844
vt 0.417480469 0.630859375
vt 0.391601562 0.630859375
vt 0.365478516 0.651367188
vt 0.347412109 0.651367188
vt 0.443115234 0.647949219
vt 0.417480469 0.64453125
vt 0.391601562 0.64453125
vt 0.417480469 0.658691406
vt 0.417480469 0.673339844
vt 0.391601562 0.658691406
vt 0.391601562 0.673339844
vt 0.365478516 0.673339844
vt 0.347412109 0.673339844
vn 0.22638534 0.0444641225 -0.973022401
vn 0.217569858 0.00313402782 -0.976039767
vn 0.220655054 0.0372654125 -0.974639714
vn 0.21927993 0.00758516788 -0.975632489
vn -0.00229441002 -0.00382413389 -0.999990106
vn 0.212933004 -0.00218341686 -0.977064431
vn 0.00157315261 -0.00588848488 -0.999981403
vn 0.210260525 -0.00410680054 -0.977636695
vn -0 -0.00447291182 -0.999989986
vn 0.204869896 -0.00476554036 -0.978777647
vn -0 -0.00503483834 -0.999987364
vn 0.2036414 -0.00388153153 -0.979037881
vn -0 -0.00410506828 -0.999991655
vn -0 -0.0107119838 -0.99994266
vn 0.202285498 -0.0130520826 -0.979239583
vn 0.791587114 0.117489286 0.599655032
vn 0.98560971 0.0496373288 0.161585227
vn 0.999835134 0.0174374674 -0.00505544245
vn 0.98791039 0.044151973 -0.14860554
vn 0.999771059 0.0176268052 -0.0121274879
vn 0.769042432 0.116807558 -0.6284343
vn 0.999957681 0.00878797658 -0.00272511784
vn 0.999957085 0.00894621387 -0.00243872311
vn 0.999957442 -0.00915833283 0.00109995704
vn 0.999957204 -0.00922004785 0.000822168775
vn 0.999870181 -0.00865797978 0.0135851214
vn 0.999863744 -0.0086201271 0.0140809249
vn 0.999842644 -0.00931778271 0.0150972549
vn 0.999843121 -0.00929399114 0.0150808506
vn 0.997834146 -0.0636922717 0.0164438561
vn 0.99780947 -0.0640656054 0.0164918117
vn 0.9849087 -0.172258541 0.0167868286
vn 0.984861732 -0.172521442 0.0168445855
vn 0.996860266 -0.0772856176 0.0172240548
vn 0.996850431 -0.0773967132 0.017291544
vn 0.999817431 0.0061139199 0.0181047413
vn 0.999813974 0.0061519607 0.0182812959
vn 0.996290326 0.0837134942 0.0199451223
vn 0.996309698 0.0837035179 0.0189950876
vn 0.99445504 0.105105922 0.00345106516
vn 0.994504333 0.104679853 0.00184959802
vn 0.99741745 0.0718219057 5.37012711E-05
vn 0.997430027 0.0716451481 -0.000470561354
vn -0 -0.0107119838 -0.99994266
vn 0.232484892 -0.0344743133 -0.971988857
vn 0.202285498 -0.0130520826 -0.979239583
vn -0 -0.0223455429 -0.999750316
vn 0.291538388 -0.0126659404 -0.956475317
vn -0 -0.00658519054 -0.999978304
vn -0 -0.00732536148 -0.999973178
vn 0.313068658 -0.00614691852 -0.949710667
vn -0 0.000691211259 -0.999999762
vn 0.277613133 0.00792445149 -0.960660219
vn 0.00198639603 0.0161454193 -0.999867678
vn 0.223876044 0.0196460485 -0.974419594
vn 0.207105801 0.00231884466 -0.97831583
vn -0.00489533972 -0.0052535818 -0.999974251
vn 0.191246629 0.0193251986 -0.981351793
vn 0.144186229 0.032624431 -0.989012599
vn 0.00193311158 0.0373399369 -0.999300718
vn 0.0240203477 0.0121615008 -0.999637485
vn 0.199083373 0.055266507 -0.97842294
vn 0.172747776 0.0558022223 -0.983384013
vn 0.217390031 0.093509905 -0.971595287
vn 0.124550372 0.0856495425 -0.988509715
vn 0.159838498 0.0841168761 -0.983552694
vn 0.197232962 0.0804066062 0.977053702
vn 0.155489936 0.0804956853 0.984552383
vn 0.144773379 0.0536001846 0.988011956
vn 0.185611948 0.0413806736 0.981751382
vn 0.216322392 0.097283043 0.971463084
vn 0.125089288 0.0421674661 0.991248965
vn -0 0.0376884304 0.999289513
vn -0 0.0133618731 0.999910712
vn 0.855401278 0.517572105 0.0201947074
vn 0.912467062 0.408937961 0.0131765194
vn 0.854500532 0.518943429 0.022943696
vn 0.913373649 0.406840235 0.0151504539
vn 0.943759561 0.330627531 -0.00178666634
vn 0.942820728 0.333196044 -0.00832927879
vn -0.0553047657 0.981638432 -0.182557374
vn -0 0.982209444 -0.18778868
vn -0 0.981984079 -0.188963309
vn -0.0540063977 0.982003152 -0.180978119
vn -0.0662500486 0.991678119 -0.110387631
vn -0.0495044589 0.997946322 -0.04065153
vn -0.0612777472 0.992500484 0.105772614
vn -0.0463024601 0.998110771 0.0403858423
vn -0.0583502539 0.980641901 0.186913744
vn -0.0528371446 0.981224418 0.18549113
vn -4.52462416E-07 0.985601127 0.169087261
vn -0 0.985746026 0.168240026
vn 0.208001614 -0.00260667084 0.978124976
vn 0.221287474 0.0183934867 0.975035191
vn 0.195813879 0.0108836452 0.980580688
vn 0.00197841157 0.0156097682 0.999876261
vn -0.00497771846 -0.00699513173 0.999963164
vn 0.274763703 0.00850322377 0.961474121
vn -0 0.0013981777 0.999999046
vn 0.307697445 -0.00542254141 0.951468825
vn -0 -0.00661293976 0.999978185
vn 0.28811273 -0.0111535825 0.957531631
vn -0 -0.00487746252 0.999988079
vn -0 -0.0212838873 0.999773443
vn 0.224273235 -0.0334041193 0.973953605
vn -1.34290573E-07 -0.0107375607 0.999942422
vn 0.195058003 -0.0127216252 0.980709195
vn -1.34290573E-07 -0.0107375607 0.999942422
vn 0.199686572 -0.00472905161 0.979848444
vn 0.195058003 -0.0127216252 0.980709195
vn -0 -0.00533065666 0.999985814
vn 0.201806441 -0.00362618547 0.979418755
vn -0 -0.00406349404 0.999991775
vn 0.210756198 -0.00499155652 0.977526009
vn -0 -0.0054791416 0.99998498
vn 0.213056713 -0.00017892271 0.977039814
vn 0.00159600517 -0.00393338269 0.999991059
vn 0.21763514 0.00148017658 0.976029098
vn -0.00233697495 -0.00480480492 0.999985814
vn 0.21942693 0.0267377142 0.975262463
vn 0.220744058 0.0305331741 0.974853754
vn 0.222102061 0.0322539322 0.974489808
vn 1.89563636E-07 -0.668414295 0.743789136
vn 0.44285658 -0.61697942 0.650549352
vn -0 -0.662775159 0.748818457
vn 0.440969735 -0.620566845 0.648415208
vn 0.395504326 -0.636850953 0.661813498
vn 0.396651983 -0.637248039 0.660743594
vn 0.41979146 -0.659132898 0.623954237
vn 0.439849347 -0.658600032 0.610555887
vn 0.729904532 -0.663213849 0.165489629
vn 0.735871077 -0.665709972 0.123789944
vn 0.713989615 -0.67228657 -0.195575312
vn 0.711234689 -0.675993741 -0.192814931
vn 0.430747986 -0.674278319 -0.599837422
vn 0.401958704 -0.673727691 -0.620096803
vn 0.399462461 -0.64927119 -0.647206783
vn 0.40019384 -0.65076834 -0.645248353
vn 0.444896966 -0.61168766 -0.654144406
vn 0.441054404 -0.609909117 -0.658393383
vn 7.13768884E-07 -0.680919766 -0.732357919
vn -0 -0.68167907 -0.731651187
vn 0.778376102 0 0.627798319
vn 0.968178451 0 0.250260562
vn 0.778377652 0 0.627796412
vn 0.968072891 0 0.250669092
vn 0.969972014 0 -0.243216559
vn 0.970072389 0 -0.242816016
vn 0.788768411 0 -0.614690542
vn 0.788768053 0 -0.614691079
vn -0 -7.74977743E-05 1
vn 0.233701721 -1.65847232E-05 0.972308397
vn -0 0 1
vn 0.236164525 4.88851583E-05 0.971713006
vn 0.236975014 0.00051528326 0.971515596
vn 0.240487054 0.00075581664 0.970652044
vn 0.239038154 0 0.971010268
vn 0.235744163 0.000117254232 -0.971815109
vn 0.242075115 0.00104942499 -0.970256865
vn 0.240076229 0 -0.970754027
vn 0.237260237 0.000724282581 -0.971445858
vn 0.231966347 -6.89118997E-06 -0.972723842
vn -0 -2.33948886E-05 -1
vn -0 0 -1
vn 0.000927121961 0.999998927 -0.0011902072
vn -0.00290367519 0.999995112 -0.00121473498
vn -9.33339034E-05 0.999999642 -0.000917092315
vn -0.0010806435 0.999995708 -0.00272100442
vn -0.00136631762 0.999997973 -0.00150763476
vn -0.00350784208 0.999987841 -0.00345937023
vn -0 0.999998093 -0.00197792333
vn -0 1 -0.000122547644
vn -0.154919088 0.95396477 -0.256809682
vn -0.0300827883 0.967653871 -0.250481665
vn -0.0297065414 0.967927456 -0.249467492
vn -0.177272409 0.951373577 -0.251918197
vn -0.384036809 0.902682424 -0.19411391
vn -0.413360894 0.893829226 -0.173787445
vn -0.56926626 0.816228271 -0.0985257998
vn -0.550707698 0.834327459 -0.0248716157
vn -0.571998835 0.820088565 -0.0164930876
vn -0.561296105 0.826357424 0.045608934
vn -0.530951262 0.84534049 0.0590774156
vn -0.55284363 0.819530427 0.150776997
vn -0.388688505 0.903471947 0.180719718
vn -0.366547555 0.910350263 0.192107826
vn -0.184588075 0.947524548 0.261006683
vn -0.162788123 0.951833546 0.25983268
vn -0 0.985932231 0.167145282
vn 4.63710109E-07 0.987633109 0.156782761
vn 0.745225728 0.666795671 0.00470055547
vn 0.739171207 0.673517585 0.000178364964
vn 0.749716818 0.661709249 0.00809207372
vn 0.735096991 0.677955985 -0.00283336616
vn 0.03534621 -0.0011075252 -0.999374568
vn 0.0348955691 -0.00062427402 -0.999390721
vn 0.0300956741 -0.0127877956 -0.999465287
vn 0.0608038604 0.00775136705 -0.998119652
vn 0.0654928014 0.0144798215 -0.997747958
vn 0.111968718 0.00276477146 -0.993707895
vn 0.121114716 0.00238604681 -0.992635667
vn 0.00852771383 0.0140923569 -0.99986434
vn -0 0.014650384 -0.999892712
vn 0.0168748237 0.00534173707 0.999843359
vn 0.0200797301 0.00487133302 0.999786556
vn 0.0165322684 0.00376944756 0.999856234
vn 0.0607406981 0.0129239932 0.998069942
vn 0.0744742304 0.0234273337 0.996947706
vn 0.118482403 0.0038331626 0.992948771
vn 0.124736182 -0.00244617951 0.992186904
vn 5.22365497E-07 -0.0105241537 0.999944687
vn -4.64795079E-07 -0.0150584877 0.999886632
vn 0.563515961 -0.826065779 0.00806626864
vn 0.434358239 -0.900703192 0.00817017071
vn 0.562920988 -0.826477587 0.00740236137
vn 0.428114176 -0.903709948 0.00515204715
vn 0.206791312 -0.978385091 8.0748141E-05
vn 0.202087462 -0.979366839 -0.00117054896
vn -4.16541866E-07 -0.999999285 -0.00119615521
vn -0 -1 0
vn -0.22065635 0.0372654088 -0.974639475
vn -0.217616096 -0.00379106356 -0.976027071
vn -0.226384744 0.0444640405 -0.97302264
vn -0.219282553 0.00758513715 -0.975631893
vn -0.00229441002 -0.00382413389 -0.999990106
vn -0.212943956 -0.00717804115 -0.977038026
vn 0.00157315261 -0.00588848488 -0.999981403
vn -0.21026051 -0.00410680892 -0.977636695
vn -0 -0.00447291182 -0.999989986
vn -0.204869926 -0.00476553803 -0.978777528
vn -0 -0.00503483834 -0.999987364
vn -0.2036414 -0.00388152478 -0.979037881
vn -0 -0.00410506828 -0.999991655
vn -0 -0.0107119838 -0.99994266
vn -0.202285379 -0.0130520817 -0.979239583
vn -0.791583598 0.11748787 0.599659801
vn -0.99992013 -0.0115800826 -0.00506582065
vn -0.985609353 0.0496364459 0.161587328
vn -0.987910509 0.0441517383 -0.14860484
vn -0.999868155 -0.0107922275 -0.0121373525
vn -0.769043863 0.116807573 -0.628432572
vn -0.999890566 -0.0145442961 -0.00272540119
vn -0.999894023 -0.0143567389 -0.00243796431
vn -0.999957442 -0.00915839896 0.00109998533
vn -0.999957204 -0.00922011677 0.000822185539
vn -0.99987042 -0.00863674004 0.0135851242
vn -0.999863982 -0.0086033456 0.0140680093
vn -0.999848604 -0.00931312144 0.0146967145
vn -0.999849677 -0.00929475203 0.0146385198
vn -0.997832477 -0.063724108 0.0164205953
vn -0.997807205 -0.0640995577 0.0164908171
vn -0.984913766 -0.172230005 0.0167869125
vn -0.984866321 -0.172496706 0.0168269332
vn -0.996862292 -0.0773074329 0.0170054529
vn -0.996852577 -0.0774178132 0.0170713011
vn -0.999817789 0.00611045957 0.0180883575
vn -0.999813974 0.00615183963 0.0182810072
vn -0.996290326 0.0837134123 0.0199454147
vn -0.996308506 0.0837093443 0.0190261267
vn -0.99086678 0.134787142 0.00390898297
vn -0.990907907 0.134521753 0.00235162349
vn -0.988053381 0.154110938 0.000523594907
vn -0.988080502 0.153937653 0
vn -0.232484818 -0.0344742723 -0.971988857
vn -0 -0.0107119838 -0.99994266
vn -0.202285379 -0.0130520817 -0.979239583
vn -0 -0.0223455429 -0.999750316
vn -0.291538239 -0.0126659255 -0.956475317
vn -0 -0.00658519054 -0.999978304
vn -0 -0.00732536148 -0.999973178
vn -0.313068539 -0.00614693016 -0.949710667
vn -0 0.000691211259 -0.999999762
vn -0.277601928 0.00792944059 -0.960663438
vn 0.00198639603 0.0161454193 -0.999867678
vn -0.223692223 0.0260665063 -0.974311173
vn -0.206086934 0.0191280227 -0.978346705
vn -0.189213976 0.0350667723 -0.981309533
vn -0.00489533972 -0.0052535818 -0.999974251
vn 0.00193311158 0.0373399369 -0.999300718
vn -0.131887957 0.0292328149 -0.990833461
vn 0.0240203477 0.0121615008 -0.999637485
vn -0.195023507 0.0521602333 -0.979410648
vn -0.145288706 0.0509460419 -0.988076806
vn -0.188846171 0.0696526915 -0.979533374
vn -0.147599488 0.0766553581 -0.986072183
vn -0.21739015 0.0935099572 -0.971595287
vn -0.144773319 0.0536001995 0.988011956
vn -0.155489996 0.0804957002 0.984552383
vn -0.197232857 0.0804065689 0.977053702
vn -0.185611933 0.041380696 0.981751502
vn -0.216322392 0.0972830728 0.971463084
vn -0.125089258 0.042167481 0.991248965
vn -0 0.0376884304 0.999289513
vn -0 0.0133618731 0.999910712
vn -0.912467182 0.408937871 0.0131755415
vn -0.855401337 0.517571986 0.0201941933
vn -0.854500473 0.518943667 0.0229433812
vn -0.913373709 0.406840146 0.0151493205
vn -0.94375968 0.330627352 -0.00178754563
vn -0.942820966 0.333195686 -0.00832999218
vn -0 0.982209444 -0.18778868
vn 0.0552994646 0.981641173 -0.182544678
vn -0 0.981984079 -0.188963309
vn 0.0539987274 0.982004344 -0.180974051
vn 0.0662821457 0.991682291 -0.110330932
vn 0.0495292693 0.997945249 -0.0406467468
vn 0.0612865053 0.992499053 0.105780847
vn 0.0463024266 0.998110771 0.0403854661
vn 0.0583495051 0.980655551 0.186842352
vn 0.0528665222 0.981234729 0.185427964
vn -4.52462416E-07 0.985601127 0.169087261
vn -0 0.985746026 0.168240026
vn -0.193915203 0.0270306915 0.980645835
vn -0.221144348 0.0246811714 0.974928677
vn -0.207043469 0.0141871711 0.978228867
vn 0.00197841157 0.0156097682 0.999876261
vn -0.00497771846 -0.00699513173 0.999963164
vn -0.274763793 0.00850319117 0.961474121
vn -0 0.0013981777 0.999999046
vn -0.307697237 -0.00543021364 0.951468825
vn -0 -0.00661293976 0.999978185
vn -0.28809157 -0.0111525133 0.957537949
vn -0 -0.00487746252 0.999988079
vn -0 -0.0212838873 0.999773443
vn -0.224273369 -0.033398103 0.973953843
vn -1.34290573E-07 -0.0107375607 0.999942422
vn -0.195057884 -0.012728326 0.980709076
vn -0.199664652 -0.00472338218 0.979852915
vn -1.34290573E-07 -0.0107375607 0.999942422
vn -0.195057884 -0.012728326 0.980709076
vn -0 -0.00533065666 0.999985814
vn -0.201804474 -0.00362387393 0.979419112
vn -0 -0.00406349404 0.999991775
vn -0.210756198 -0.00499156443 0.977526009
vn -0 -0.0054791416 0.99998498
vn -0.213058114 -0.00515121315 0.977025926
vn 0.00159600517 -0.00393338269 0.999991059
vn -0.217645079 -0.0054578376 0.976012766
vn -0.00233697495 -0.00480480492 0.999985814
vn -0.219425514 0.0267163105 0.975263357
vn -0.220746189 0.0304504875 0.97485584
vn -0.222178712 0.0322653055 0.974471927
vn -0.44279635 -0.617008805 0.650562406
vn 1.89563636E-07 -0.668414295 0.743789136
vn -0 -0.662775159 0.748818457
vn -0.440903664 -0.620597482 0.648430884
vn -0.395509481 -0.636849999 0.661811471
vn -0.396645814 -0.637254953 0.660740674
vn -0.419882268 -0.659122646 0.623904049
vn -0.439929754 -0.65859437 0.61050415
vn -0.729905844 -0.663213372 0.165485278
vn -0.735871613 -0.665709853 0.123787276
vn -0.713989615 -0.672286034 -0.195577115
vn -0.711235046 -0.675994098 -0.192812234
vn -0.430745184 -0.674273193 -0.599845171
vn -0.401956677 -0.6737234 -0.620103002
vn -0.399461806 -0.649270296 -0.647208154
vn -0.400193721 -0.650768399 -0.645248294
vn -0.444896877 -0.611687958 -0.654144287
vn -0.441054225 -0.609909415 -0.658393264
vn 7.13768884E-07 -0.680919766 -0.732357919
vn -0 -0.68167907 -0.731651187
vn -0.968178451 0 0.2502608
vn -0.778377473 0 0.62779659
vn -0.778377652 0 0.627796412
vn -0.96807301 0 0.250668377
vn -0.969972014 0 -0.243216693
vn -0.970072508 0 -0.242815584
vn -0.788767755 0 -0.614691436
vn -0.788768053 0 -0.614691079
vn -0.233677462 -1.36284925E-05 0.972314239
vn -0 -7.74977743E-05 1
vn -0 0 1
vn -0.236165524 5.22938208E-05 0.971712768
vn -0.23695752 0.000536710257 0.971519768
vn -0.240531117 0.0007788277 0.970641136
vn -0.239038944 0 0.971010029
vn -0.242075145 0.0010494478 -0.970256865
vn -0.235744536 0.000117280841 -0.97181499
vn -0.240076229 0 -0.970754027
vn -0.237260252 0.000724318961 -0.971445858
vn -0.231966212 -6.87378861E-06 -0.972723842
vn -0 -2.33948886E-05 -1
vn -0 0 -1
vn 0.00290367473 0.999995112 -0.0012146075
vn -0.000927125046 0.999998927 -0.00118518167
vn 9.33334231E-05 0.999999642 -0.000917087425
vn 0.00108064315 0.999995708 -0.00271735387
vn 0.00136631681 0.999997973 -0.00150650204
vn 0.00350784161 0.99998796 -0.00345711783
vn -0 0.999998093 -0.00197792333
vn -0 1 -0.000122547644
vn -0.0300827883 0.967653871 -0.250481665
vn 0.125086159 0.957892895 -0.258446693
vn -0.0297065414 0.967927456 -0.249467492
vn 0.145333469 0.95569849 -0.255965889
vn 0.339200109 0.914830923 -0.219152406
vn 0.372432739 0.906538844 -0.198698804
vn 0.518505335 0.849232733 -0.0997797549
vn 0.531498671 0.84642601 -0.0327437967
vn 0.57199949 0.820088089 -0.0164929759
vn 0.561296761 0.826356888 0.0456092618
vn 0.530951917 0.845340192 0.0590779036
vn 0.55284369 0.819530368 0.150777161
vn 0.388688445 0.903472185 0.180719361
vn 0.366547137 0.910348356 0.192117557
vn 0.184554741 0.947508574 0.261088103
vn 0.162807688 0.951809883 0.259907007
vn -0 0.985932231 0.167145282
vn 4.63710109E-07 0.987633109 0.156782761
vn -0.745225847 0.666795552 0.00470052054
vn -0.739171028 0.673517764 0.000178278657
vn -0.735096514 0.677956522 -0.00283348421
vn -0.749717295 0.661708713 0.00809207931
vn -0.0348955877 -0.000624250504 -0.999390721
vn -0.0397849828 -0.00222787843 -0.999205768
vn -0.0300957058 -0.0127878683 -0.999465287
vn -0.0557280816 0.00599903986 -0.998427987
vn -0.0724865049 0.00825444143 -0.997335136
vn -0.117452577 0.00919203646 -0.993035972
vn -0.138721511 0.014999181 -0.990217865
vn 0.00852771383 0.0140923569 -0.99986434
vn -0 0.014650384 -0.999892712
vn -0.0200803522 0.0048733945 0.999786556
vn -0.0168751776 0.00534328353 0.999843359
vn -0.0165322796 0.00376940914 0.999856234
vn -0.0607379191 0.01293022 0.998070061
vn -0.0744756833 0.0234432407 0.996947229
vn -0.118478313 0.00383544271 0.992949247
vn -0.124730162 -0.0024460929 0.992187738
vn 5.22365497E-07 -0.0105241537 0.999944687
vn -4.64795079E-07 -0.0150584877 0.999886632
vn -0.426629782 -0.904413521 0.00482341601
vn -0.56353575 -0.826052547 0.00804167986
vn -0.562963068 -0.826448917 0.00740291504
vn -0.430755734 -0.902429461 0.00840500277
vn -0.200594649 -0.979674041 0.000809248537
vn -0.212866172 -0.977079213 -0.00204367889
vn -4.16541866E-07 -0.999999285 -0.00119615521
vn -0 -1 0
vn 0.551571548 0.00382126123 -0.834118843
vn -0 0.00725609576 -0.999973655
vn -0 0.0110541526 -0.999938965
vn 0.550300717 0.00132925529 -0.834965408
vn 0.55357188 -0.000856991101 0.832800984
vn 0.552718699 0.00205209223 0.83336544
vn -0 0.0033612391 0.999994397
vn -0 0.00615842547 0.999981046
vn -0.552719355 0.0020520098 0.833365023
vn -0.553572059 -0.000856965897 0.832800865
vn -0.550301492 0.00132931268 -0.834964991
vn -0.551572025 0.00382142933 -0.834118485
vn -0 0.00725609576 -0.999973655
vn -0 0.0110541526 -0.999938965
vn 0.152636901 -0.96104455 -0.230424121
vn -0 -0.943291903 -0.331964493
vn -0 -0.942847252 -0.33322531
vn 0.147117227 -0.960463583 -0.236360773
vn 0.133120447 -0.958168805 0.253360391
vn 0.123923041 -0.95693928 0.262507796
vn 1.12396535E-07 -0.943021059 0.332732916
vn 4.89679678E-07 -0.942743599 0.333518326
vn -0.150248706 -0.960649192 0.233620092
vn -0.150746644 -0.960938215 0.232106179
vn -0.129715592 -0.958638906 -0.253348112
vn -0.126570866 -0.957613468 -0.258759081
vn -0 -0.943291903 -0.331964493
vn -0 -0.942847252 -0.33322531
vn -0 0.925604999 -0.378490925
vn 0.116915151 0.960555196 -0.252318501
vn -0 0.922297478 -0.386480808
vn 0.117315605 0.961606085 -0.248094335
vn 0.147185922 0.960634708 0.235621005
vn 0.140864849 0.960581124 0.239668682
vn -0 0.927528977 0.373751372
vn -0 0.925130486 0.379649222
vn -0.121344112 0.957138062 0.262987345
vn -0.122706093 0.958152294 0.258625984
vn -0.144360319 0.963881195 -0.223815054
vn -0.133874789 0.963660717 -0.231161207
vn -0 0.925604999 -0.378490925
vn -0 0.922297478 -0.386480808
vn 0.551572025 0.00382125424 -0.834118485
vn -0 0.00725607434 -0.999973655
vn -0 0.0110541247 -0.999938965
vn 0.550301492 0.00132925471 -0.834964931
vn 0.553574026 -0.000856223051 0.832799613
vn 0.552720845 0.00205257465 0.83336395
vn -0 0.003361593 0.999994397
vn -0 0.00615841709 0.999981046
vn -0.552719295 0.00205248501 0.833364904
vn -0.553572416 -0.000856194703 0.832800567
vn -0.550301611 0.00132930954 -0.834964871
vn -0.551572204 0.00382142025 -0.834118426
vn -0 0.00725607434 -0.999973655
vn -0 0.0110541247 -0.999938965
vn 0.152637273 -0.961046517 -0.230415657
vn -0 -0.943291903 -0.331964523
vn -0 -0.942847252 -0.33322531
vn 0.14711763 -0.960465729 -0.236351222
vn 0.133118436 -0.958160937 0.253391027
vn 0.123921551 -0.956931412 0.262537181
vn -0 -0.94302094 0.332733452
vn 4.85228156E-07 -0.942743599 0.333518326
vn -0.150248826 -0.96065408 0.233600184
vn -0.150746226 -0.960943341 0.232085049
vn -0.129715711 -0.958636403 -0.253357798
vn -0.126571 -0.957611442 -0.258766472
vn -0 -0.943291903 -0.331964523
vn -0 -0.942847252 -0.33322531
vn -0 0.925605297 -0.378490329
vn 0.116910584 0.96055758 -0.2523112
vn -0 0.922297478 -0.386480808
vn 0.117310941 0.961609066 -0.248084843
vn 0.147179991 0.96063292 0.235631779
vn 0.140858918 0.960579157 0.239680067
vn -0 0.927523732 0.373764306
vn -0 0.925124586 0.379663676
vn -0.121339738 0.957141161 0.262977898
vn -0.122701459 0.958155572 0.258616
vn -0.144355044 0.963882208 -0.223813862
vn -0.133869618 0.96366173 -0.231160134
vn -0 0.925605297 -0.378490329
vn -0 0.922297478 -0.386480808
vn 0.0862557516 0.43614006 0.895735323
vn 0.439815521 0.893527806 0.0903905779
vn 0.0423541255 0.995848775 0.0805678591
vn 0.222018972 0.326663911 0.918693721
vn 0.898418605 0.435058296 0.0597362556
vn -0.0761653557 -0.530746698 0.84410125
vn 0.423789114 0.168533906 0.889943302
vn 0.963797033 -0.250415415 0.091582574
vn -0.217095301 -0.508682847 0.833133519
vn -0.202385172 -0.979270458 0.00834712852
vn -0.420259446 -0.907401562 0.00210848264
vn -0.416650087 -0.345082253 0.841023743
vn -0.206573293 -0.466423154 -0.860102832
vn -0.0805052817 -0.47800979 -0.874657393
vn 0.189972579 0.351490766 -0.916714013
vn 0.0893143192 0.533081651 -0.84133637
vn 0.439815521 0.893527806 0.0903905779
vn 0.0423541255 0.995848775 0.0805678591
vn 0.898418605 0.435058296 0.0597362556
vn 0.40965113 0.18821685 -0.892614424
vn -0.394106477 -0.323473632 -0.860258698
vn -0.769358158 -0.63871026 -0.0117178429
vn -0.548495531 -0.127399758 0.826390862
vn -0.978188932 -0.206888452 0.0185348447
vn 0.469240874 -0.0948417634 0.87796241
vn -0.569374144 0.127036273 0.812203705
vn 0.231224731 -0.258846968 0.937834382
vn 0.516048312 -0.853437781 0.0730620325
vn -0.488445193 -0.0882292911 -0.868122637
vn 0.446126878 -0.100867704 -0.889267385
vn 0.963797033 -0.250415415 0.091582574
vn 0.105982497 -0.398133814 0.911184549
vn 0.227229521 -0.972003758 0.0597951524
vn -0.147721663 0.510657489 0.84699893
vn -0.976561546 0.21455735 0.0171079449
vn -0.500760972 0.11447186 -0.857982934
vn 0.283044249 -0.324502558 -0.902543187
vn 0.516048312 -0.853437781 0.0730620325
vn -0.343422174 0.401964933 0.848814189
vn -0.778606594 0.627287805 0.0167874172
vn -0.399538398 0.341892391 -0.850575507
vn -0.40323934 0.907682836 0.116232045
vn -0.193907246 0.980884075 -0.016323667
vn -0.16865778 0.446373016 -0.878809273
vn -0.0804321617 0.454708368 -0.887001097
vn 0.158964619 -0.441344619 -0.883145034
vn 0.227229521 -0.972003758 0.0597951524
g HanWuDi_WuQi_2_0
f 3/3/3 2/2/2 1/1/1
f 4/4/4 1/1/1 2/2/2
f 5/5/5 4/4/4 2/2/2
f 2/2/2 6/6/6 5/5/5
f 7/7/7 5/5/5 6/6/6
f 6/6/6 8/8/8 7/7/7
f 9/9/9 7/7/7 8/8/8
f 8/8/8 10/10/10 9/9/9
f 11/11/11 9/9/9 10/10/10
f 10/10/10 12/12/12 11/11/11
f 13/13/13 11/11/11 12/12/12
f 13/13/13 12/12/12 14/14/14
f 15/15/15 14/14/14 12/12/12
f 18/18/18 17/17/17 16/16/16
f 17/17/17 18/18/18 19/19/19
f 20/20/20 19/19/19 18/18/18
f 19/19/19 20/20/20 21/21/21
f 18/18/18 22/22/22 20/20/20
f 23/23/23 20/20/20 22/22/22
f 23/23/23 22/22/22 24/24/24
f 25/25/25 24/24/24 22/22/22
f 25/25/25 26/26/26 24/24/24
f 27/27/27 24/24/24 26/26/26
f 26/26/26 28/28/28 27/27/27
f 29/29/29 27/27/27 28/28/28
f 29/29/29 28/28/28 30/30/30
f 31/31/31 30/30/30 28/28/28
f 31/31/31 32/32/32 30/30/30
f 33/33/33 30/30/30 32/32/32
f 32/32/32 34/34/34 33/33/33
f 35/35/35 33/33/33 34/34/34
f 34/34/34 36/36/36 35/35/35
f 37/37/37 35/35/35 36/36/36
f 36/36/36 38/38/38 37/37/37
f 39/39/39 37/37/37 38/38/38
f 38/38/38 40/40/40 39/39/39
f 41/41/41 39/39/39 40/40/40
f 40/40/40 42/42/42 41/41/41
f 43/43/43 41/41/41 42/42/42
f 46/46/46 45/45/45 44/44/44
f 47/47/47 44/44/44 45/45/45
f 45/45/45 48/48/48 47/47/47
f 49/49/49 47/47/47 48/48/48
f 49/49/49 48/48/48 50/50/50
f 51/51/51 50/50/50 48/48/48
f 50/50/50 51/51/51 52/52/52
f 53/53/53 52/52/52 51/51/51
f 52/52/52 53/53/53 54/54/54
f 55/55/55 54/54/54 53/53/53
f 55/55/55 56/56/56 54/54/54
f 56/56/56 57/57/57 54/54/54
f 58/58/58 56/56/56 55/55/55
f 61/61/61 60/60/60 59/59/59
f 62/62/62 59/59/59 60/60/60
f 62/62/62 63/63/63 59/59/59
f 64/64/64 63/63/63 62/62/62
f 65/65/65 59/59/59 63/63/63
f 66/66/66 65/65/65 63/63/63
f 69/69/69 68/68/68 67/67/67
f 67/67/67 70/70/70 69/69/69
f 71/71/71 70/70/70 67/67/67
f 72/72/72 69/69/69 70/70/70
f 72/72/72 70/70/70 73/73/73
f 74/74/74 73/73/73 70/70/70
f 77/77/77 76/76/76 75/75/75
f 78/78/78 75/75/75 76/76/76
f 78/78/78 76/76/76 79/79/79
f 80/80/80 79/79/79 76/76/76
f 83/83/83 82/82/82 81/81/81
f 84/84/84 81/81/81 82/82/82
f 84/84/84 85/85/85 81/81/81
f 86/86/86 81/81/81 85/85/85
f 85/85/85 87/87/87 86/86/86
f 88/88/88 86/86/86 87/87/87
f 88/88/88 87/87/87 89/89/89
f 90/90/90 89/89/89 87/87/87
f 90/90/90 91/91/91 89/89/89
f 92/92/92 89/89/89 91/91/91
f 95/95/95 94/94/94 93/93/93
f 93/93/93 94/94/94 96/96/96
f 97/97/97 93/93/93 96/96/96
f 94/94/94 98/98/98 96/96/96
f 99/99/99 96/96/96 98/98/98
f 98/98/98 100/100/100 99/99/99
f 101/101/101 99/99/99 100/100/100
f 100/100/100 102/102/102 101/101/101
f 103/103/103 101/101/101 102/102/102
f 103/103/103 102/102/102 104/104/104
f 105/105/105 104/104/104 102/102/102
f 104/104/104 105/105/105 106/106/106
f 107/107/107 106/106/106 105/105/105
f 110/110/110 109/109/109 108/108/108
f 111/111/111 108/108/108 109/109/109
f 109/109/109 112/112/112 111/111/111
f 113/113/113 111/111/111 112/112/112
f 112/112/112 114/114/114 113/113/113
f 115/115/115 113/113/113 114/114/114
f 114/114/114 116/116/116 115/115/115
f 117/117/117 115/115/115 116/116/116
f 116/116/116 118/118/118 117/117/117
f 119/119/119 117/117/117 118/118/118
f 119/119/119 118/118/118 120/120/120
f 121/121/121 120/120/120 118/118/118
f 122/122/122 121/121/121 118/118/118
f 125/125/125 124/124/124 123/123/123
f 126/126/126 123/123/123 124/124/124
f 124/124/124 127/127/127 126/126/126
f 128/128/128 126/126/126 127/127/127
f 127/127/127 129/129/129 128/128/128
f 130/130/130 128/128/128 129/129/129
f 130/130/130 129/129/129 131/131/131
f 132/132/132 131/131/131 129/129/129
f 131/131/131 132/132/132 133/133/133
f 134/134/134 133/133/133 132/132/132
f 133/133/133 134/134/134 135/135/135
f 136/136/136 135/135/135 134/134/134
f 135/135/135 136/136/136 137/137/137
f 138/138/138 137/137/137 136/136/136
f 138/138/138 139/139/139 137/137/137
f 140/140/140 137/137/137 139/139/139
f 140/140/140 139/139/139 141/141/141
f 142/142/142 141/141/141 139/139/139
f 145/145/145 144/144/144 143/143/143
f 146/146/146 143/143/143 144/144/144
f 144/144/144 147/147/147 146/146/146
f 148/148/148 146/146/146 147/147/147
f 147/147/147 149/149/149 148/148/148
f 150/150/150 148/148/148 149/149/149
f 153/153/153 152/152/152 151/151/151
f 154/154/154 151/151/151 152/152/152
f 152/152/152 155/155/155 154/154/154
f 155/155/155 156/156/156 154/154/154
f 157/157/157 154/154/154 156/156/156
f 160/160/160 159/159/159 158/158/158
f 161/161/161 158/158/158 159/159/159
f 161/161/161 162/162/162 158/158/158
f 158/158/158 162/162/162 163/163/163
f 164/164/164 163/163/163 162/162/162
f 167/167/167 166/166/166 165/165/165
f 168/168/168 165/165/165 166/166/166
f 166/166/166 169/169/169 168/168/168
f 170/170/170 168/168/168 169/169/169
f 170/170/170 169/169/169 171/171/171
f 172/172/172 171/171/171 169/169/169
f 175/175/175 174/174/174 173/173/173
f 176/176/176 173/173/173 174/174/174
f 173/173/173 176/176/176 177/177/177
f 178/178/178 177/177/177 176/176/176
f 177/177/177 178/178/178 179/179/179
f 180/180/180 179/179/179 178/178/178
f 181/181/181 179/179/179 180/180/180
f 181/181/181 180/180/180 182/182/182
f 183/183/183 182/182/182 180/180/180
f 182/182/182 183/183/183 184/184/184
f 183/183/183 185/185/185 184/184/184
f 186/186/186 184/184/184 185/185/185
f 185/185/185 187/187/187 186/186/186
f 188/188/188 186/186/186 187/187/187
f 187/187/187 189/189/189 188/188/188
f 190/190/190 188/188/188 189/189/189
f 193/193/193 192/192/192 191/191/191
f 194/194/194 191/191/191 192/192/192
f 197/197/197 196/196/196 195/195/195
f 198/198/198 195/195/195 196/196/196
f 199/199/199 195/195/195 198/198/198
f 199/199/199 198/198/198 200/200/200
f 201/201/201 200/200/200 198/198/198
f 200/200/200 201/201/201 202/202/202
f 203/203/203 202/202/202 201/201/201
f 206/206/206 205/205/205 204/204/204
f 207/207/207 204/204/204 205/205/205
f 208/208/208 207/207/207 205/205/205
f 208/208/208 209/209/209 207/207/207
f 210/210/210 207/207/207 209/209/209
f 209/209/209 211/211/211 210/210/210
f 212/212/212 210/210/210 211/211/211
f 215/215/215 214/214/214 213/213/213
f 216/216/216 213/213/213 214/214/214
f 214/214/214 217/217/217 216/216/216
f 218/218/218 216/216/216 217/217/217
f 217/217/217 219/219/219 218/218/218
f 220/220/220 218/218/218 219/219/219
f 223/223/223 222/222/222 221/221/221
f 222/222/222 223/223/223 224/224/224
f 222/222/222 224/224/224 225/225/225
f 222/222/222 225/225/225 226/226/226
f 227/227/227 226/226/226 225/225/225
f 226/226/226 227/227/227 228/228/228
f 229/229/229 228/228/228 227/227/227
f 228/228/228 229/229/229 230/230/230
f 231/231/231 230/230/230 229/229/229
f 230/230/230 231/231/231 232/232/232
f 233/233/233 232/232/232 231/231/231
f 233/233/233 234/234/234 232/232/232
f 235/235/235 232/232/232 234/234/234
f 238/238/238 237/237/237 236/236/236
f 238/238/238 239/239/239 237/237/237
f 240/240/240 237/237/237 239/239/239
f 241/241/241 240/240/240 239/239/239
f 237/237/237 240/240/240 242/242/242
f 243/243/243 242/242/242 240/240/240
f 243/243/243 244/244/244 242/242/242
f 245/245/245 242/242/242 244/244/244
f 245/245/245 244/244/244 246/246/246
f 247/247/247 246/246/246 244/244/244
f 246/246/246 247/247/247 248/248/248
f 249/249/249 248/248/248 247/247/247
f 249/249/249 250/250/250 248/248/248
f 251/251/251 248/248/248 250/250/250
f 251/251/251 250/250/250 252/252/252
f 253/253/253 252/252/252 250/250/250
f 252/252/252 253/253/253 254/254/254
f 255/255/255 254/254/254 253/253/253
f 254/254/254 255/255/255 256/256/256
f 257/257/257 256/256/256 255/255/255
f 256/256/256 257/257/257 258/258/258
f 259/259/259 258/258/258 257/257/257
f 258/258/258 259/259/259 260/260/260
f 261/261/261 260/260/260 259/259/259
f 260/260/260 261/261/261 262/262/262
f 263/263/263 262/262/262 261/261/261
f 266/266/266 265/265/265 264/264/264
f 267/267/267 264/264/264 265/265/265
f 264/264/264 267/267/267 268/268/268
f 269/269/269 268/268/268 267/267/267
f 269/269/269 270/270/270 268/268/268
f 271/271/271 268/268/268 270/270/270
f 270/270/270 272/272/272 271/271/271
f 273/273/273 271/271/271 272/272/272
f 272/272/272 274/274/274 273/273/273
f 275/275/275 273/273/273 274/274/274
f 275/275/275 274/274/274 276/276/276
f 275/275/275 276/276/276 277/277/277
f 274/274/274 278/278/278 276/276/276
f 281/281/281 280/280/280 279/279/279
f 282/282/282 279/279/279 280/280/280
f 280/280/280 283/283/283 282/282/282
f 284/284/284 282/282/282 283/283/283
f 284/284/284 283/283/283 285/285/285
f 286/286/286 282/282/282 284/284/284
f 289/289/289 288/288/288 287/287/287
f 289/289/289 287/287/287 290/290/290
f 291/291/291 289/289/289 290/290/290
f 292/292/292 290/290/290 287/287/287
f 292/292/292 293/293/293 290/290/290
f 294/294/294 290/290/290 293/293/293
f 297/297/297 296/296/296 295/295/295
f 298/298/298 295/295/295 296/296/296
f 298/298/298 299/299/299 295/295/295
f 300/300/300 295/295/295 299/299/299
f 303/303/303 302/302/302 301/301/301
f 304/304/304 301/301/301 302/302/302
f 304/304/304 302/302/302 305/305/305
f 306/306/306 305/305/305 302/302/302
f 305/305/305 306/306/306 307/307/307
f 308/308/308 307/307/307 306/306/306
f 308/308/308 309/309/309 307/307/307
f 310/310/310 307/307/307 309/309/309
f 310/310/310 309/309/309 311/311/311
f 312/312/312 311/311/311 309/309/309
f 315/315/315 314/314/314 313/313/313
f 316/316/316 314/314/314 315/315/315
f 316/316/316 315/315/315 317/317/317
f 314/314/314 316/316/316 318/318/318
f 319/319/319 318/318/318 316/316/316
f 318/318/318 319/319/319 320/320/320
f 321/321/321 320/320/320 319/319/319
f 320/320/320 321/321/321 322/322/322
f 323/323/323 322/322/322 321/321/321
f 323/323/323 324/324/324 322/322/322
f 325/325/325 322/322/322 324/324/324
f 324/324/324 326/326/326 325/325/325
f 327/327/327 325/325/325 326/326/326
f 330/330/330 329/329/329 328/328/328
f 331/331/331 328/328/328 329/329/329
f 328/328/328 331/331/331 332/332/332
f 333/333/333 332/332/332 331/331/331
f 332/332/332 333/333/333 334/334/334
f 335/335/335 334/334/334 333/333/333
f 334/334/334 335/335/335 336/336/336
f 337/337/337 336/336/336 335/335/335
f 336/336/336 337/337/337 338/338/338
f 339/339/339 338/338/338 337/337/337
f 340/340/340 338/338/338 339/339/339
f 338/338/338 340/340/340 341/341/341
f 338/338/338 341/341/341 342/342/342
f 345/345/345 344/344/344 343/343/343
f 346/346/346 343/343/343 344/344/344
f 343/343/343 346/346/346 347/347/347
f 348/348/348 347/347/347 346/346/346
f 347/347/347 348/348/348 349/349/349
f 350/350/350 349/349/349 348/348/348
f 350/350/350 351/351/351 349/349/349
f 352/352/352 349/349/349 351/351/351
f 351/351/351 353/353/353 352/352/352
f 354/354/354 352/352/352 353/353/353
f 353/353/353 355/355/355 354/354/354
f 356/356/356 354/354/354 355/355/355
f 355/355/355 357/357/357 356/356/356
f 358/358/358 356/356/356 357/357/357
f 358/358/358 357/357/357 359/359/359
f 360/360/360 359/359/359 357/357/357
f 360/360/360 361/361/361 359/359/359
f 362/362/362 359/359/359 361/361/361
f 365/365/365 364/364/364 363/363/363
f 366/366/366 363/363/363 364/364/364
f 363/363/363 366/366/366 367/367/367
f 368/368/368 367/367/367 366/366/366
f 367/367/367 368/368/368 369/369/369
f 370/370/370 369/369/369 368/368/368
f 373/373/373 372/372/372 371/371/371
f 374/374/374 371/371/371 372/372/372
f 374/374/374 375/375/375 371/371/371
f 375/375/375 374/374/374 376/376/376
f 377/377/377 376/376/376 374/374/374
f 380/380/380 379/379/379 378/378/378
f 381/381/381 378/378/378 379/379/379
f 379/379/379 382/382/382 381/381/381
f 379/379/379 383/383/383 382/382/382
f 384/384/384 382/382/382 383/383/383
f 387/387/387 386/386/386 385/385/385
f 388/388/388 385/385/385 386/386/386
f 385/385/385 388/388/388 389/389/389
f 390/390/390 389/389/389 388/388/388
f 390/390/390 391/391/391 389/389/389
f 392/392/392 389/389/389 391/391/391
f 395/395/395 394/394/394 393/393/393
f 396/396/396 393/393/393 394/394/394
f 394/394/394 397/397/397 396/396/396
f 398/398/398 396/396/396 397/397/397
f 397/397/397 399/399/399 398/398/398
f 400/400/400 398/398/398 399/399/399
f 400/400/400 399/399/399 401/401/401
f 401/401/401 402/402/402 400/400/400
f 403/403/403 400/400/400 402/402/402
f 404/404/404 403/403/403 402/402/402
f 403/403/403 404/404/404 405/405/405
f 406/406/406 405/405/405 404/404/404
f 405/405/405 406/406/406 407/407/407
f 408/408/408 407/407/407 406/406/406
f 407/407/407 408/408/408 409/409/409
f 410/410/410 409/409/409 408/408/408
f 413/413/413 412/412/412 411/411/411
f 414/414/414 411/411/411 412/412/412
f 417/417/417 416/416/416 415/415/415
f 418/418/418 415/415/415 416/416/416
f 418/418/418 416/416/416 419/419/419
f 420/420/420 418/418/418 419/419/419
f 420/420/420 419/419/419 421/421/421
f 421/421/421 422/422/422 420/420/420
f 423/423/423 420/420/420 422/422/422
f 426/426/426 425/425/425 424/424/424
f 427/427/427 424/424/424 425/425/425
f 428/428/428 424/424/424 427/427/427
f 428/428/428 427/427/427 429/429/429
f 430/430/430 429/429/429 427/427/427
f 429/429/429 430/430/430 431/431/431
f 432/432/432 431/431/431 430/430/430
f 435/435/435 434/434/434 433/433/433
f 436/436/436 433/433/433 434/434/434
f 436/436/436 437/437/437 433/433/433
f 438/438/438 433/433/433 437/437/437
f 438/438/438 437/437/437 439/439/439
f 440/440/440 439/439/439 437/437/437
f 443/443/443 442/442/442 441/441/441
f 444/444/444 441/441/441 442/442/442
f 441/441/441 444/444/444 445/445/445
f 446/446/446 445/445/445 444/444/444
f 445/445/445 446/446/446 447/447/447
f 448/448/448 447/447/447 446/446/446
f 448/448/448 449/449/449 447/447/447
f 450/450/450 447/447/447 449/449/449
f 449/449/449 451/451/451 450/450/450
f 452/452/452 450/450/450 451/451/451
f 451/451/451 453/453/453 452/452/452
f 454/454/454 452/452/452 453/453/453
f 457/457/457 456/456/456 455/455/455
f 458/458/458 455/455/455 456/456/456
f 458/458/458 459/459/459 455/455/455
f 460/460/460 455/455/455 459/459/459
f 459/459/459 461/461/461 460/460/460
f 462/462/462 460/460/460 461/461/461
f 462/462/462 461/461/461 463/463/463
f 464/464/464 463/463/463 461/461/461
f 464/464/464 465/465/465 463/463/463
f 466/466/466 463/463/463 465/465/465
f 465/465/465 467/467/467 466/466/466
f 468/468/468 466/466/466 467/467/467
f 471/471/471 470/470/470 469/469/469
f 472/472/472 469/469/469 470/470/470
f 470/470/470 473/473/473 472/472/472
f 474/474/474 472/472/472 473/473/473
f 474/474/474 473/473/473 475/475/475
f 476/476/476 475/475/475 473/473/473
f 476/476/476 477/477/477 475/475/475
f 478/478/478 475/475/475 477/477/477
f 477/477/477 479/479/479 478/478/478
f 480/480/480 478/478/478 479/479/479
f 480/480/480 479/479/479 481/481/481
f 482/482/482 481/481/481 479/479/479
f 485/485/485 484/484/484 483/483/483
f 486/486/486 483/483/483 484/484/484
f 483/483/483 486/486/486 487/487/487
f 488/488/488 487/487/487 486/486/486
f 487/487/487 488/488/488 489/489/489
f 490/490/490 489/489/489 488/488/488
f 490/490/490 491/491/491 489/489/489
f 492/492/492 489/489/489 491/491/491
f 491/491/491 493/493/493 492/492/492
f 494/494/494 492/492/492 493/493/493
f 493/493/493 495/495/495 494/494/494
f 496/496/496 494/494/494 495/495/495
f 499/499/499 498/498/498 497/497/497
f 500/500/500 497/497/497 498/498/498
f 500/500/500 501/501/501 497/497/497
f 502/502/502 497/497/497 501/501/501
f 501/501/501 503/503/503 502/502/502
f 504/504/504 502/502/502 503/503/503
f 504/504/504 503/503/503 505/505/505
f 506/506/506 505/505/505 503/503/503
f 506/506/506 507/507/507 505/505/505
f 508/508/508 505/505/505 507/507/507
f 507/507/507 509/509/509 508/508/508
f 510/510/510 508/508/508 509/509/509
f 513/513/513 512/512/512 511/511/511
f 514/514/514 511/511/511 512/512/512
f 512/512/512 515/515/515 514/514/514
f 516/516/516 514/514/514 515/515/515
f 516/516/516 515/515/515 517/517/517
f 518/518/518 517/517/517 515/515/515
f 518/518/518 519/519/519 517/517/517
f 520/520/520 517/517/517 519/519/519
f 519/519/519 521/521/521 520/520/520
f 522/522/522 520/520/520 521/521/521
f 522/522/522 521/521/521 523/523/523
f 524/524/524 523/523/523 521/521/521
f 527/527/527 526/526/526 525/525/525
f 528/528/528 525/525/525 526/526/526
f 526/526/526 529/529/529 528/528/528
f 525/525/525 528/528/528 530/530/530
f 531/531/531 528/528/528 529/529/529
f 529/529/529 532/532/532 531/531/531
f 533/533/533 530/530/530 528/528/528
f 528/528/528 531/531/531 533/533/533
f 530/530/530 533/533/533 534/534/534
f 535/535/535 534/534/534 533/533/533
f 536/536/536 533/533/533 531/531/531
f 533/533/533 536/536/536 535/535/535
f 535/535/535 537/537/537 534/534/534
f 538/538/538 534/534/534 537/537/537
f 537/537/537 539/539/539 538/538/538
f 540/540/540 538/538/538 539/539/539
f 539/539/539 541/541/541 540/540/540
f 542/542/542 540/540/540 541/541/541
f 541/541/541 539/539/539 543/543/543
f 539/539/539 537/537/537 544/544/544
f 544/544/544 543/543/543 539/539/539
f 537/537/537 535/535/535 545/545/545
f 545/545/545 544/544/544 537/537/537
f 546/546/546 535/535/535 536/536/536
f 546/546/546 545/545/545 535/535/535
f 547/547/547 536/536/536 531/531/531
f 536/536/536 547/547/547 546/546/546
f 546/546/546 548/548/548 545/545/545
f 548/548/548 546/546/546 547/547/547
f 531/531/531 549/549/549 547/547/547
f 549/549/549 531/531/531 532/532/532
f 550/550/550 547/547/547 549/549/549
f 547/547/547 550/550/550 548/548/548
f 549/549/549 532/532/532 551/551/551
f 549/549/549 551/551/551 550/550/550
f 552/552/552 551/551/551 532/532/532
f 553/553/553 545/545/545 548/548/548
f 553/553/553 544/544/544 545/545/545
f 544/544/544 554/554/554 543/543/543
f 555/555/555 543/543/543 554/554/554
f 551/551/551 552/552/552 556/556/556
f 557/557/557 556/556/556 552/552/552
f 556/556/556 558/558/558 551/551/551
f 548/548/548 559/559/559 553/553/553
f 559/559/559 548/548/548 550/550/550
f 553/553/553 560/560/560 544/544/544
f 560/560/560 553/553/553 559/559/559
f 554/554/554 544/544/544 560/560/560
f 554/554/554 561/561/561 555/555/555
f 562/562/562 555/555/555 561/561/561
f 563/563/563 550/550/550 551/551/551
f 563/563/563 551/551/551 558/558/558
f 559/559/559 550/550/550 564/564/564
f 559/559/559 564/564/564 560/560/560
f 563/563/563 564/564/564 550/550/550
f 560/560/560 565/565/565 554/554/554
f 565/565/565 560/560/560 564/564/564
f 561/561/561 554/554/554 565/565/565
f 558/558/558 566/566/566 563/563/563
f 566/566/566 564/564/564 563/563/563
f 564/564/564 566/566/566 565/565/565
f 567/567/567 566/566/566 558/558/558
f 568/568/568 565/565/565 566/566/566
f 566/566/566 567/567/567 568/568/568
f 565/565/565 568/568/568 561/561/561
f 569/569/569 568/568/568 567/567/567
f 568/568/568 569/569/569 561/561/561
f 570/570/570 561/561/561 569/569/569
f 561/561/561 570/570/570 562/562/562
f 571/571/571 562/562/562 570/570/570
