g Plane002
v -0.51146102 1.54378808 7.32531691
v -0.403663337 1.60892391 7.79623318
v -0.390518993 1.78774571 7.56656837
v -0.524978817 1.35989058 7.56149864
v -0.63187772 1.29943931 7.08755255
v -0.416807681 1.43010163 8.02589798
v -0.645727634 1.11102057 7.32954311
v -0.751739979 1.05480707 6.85324907
v -0.538495779 1.17599511 7.79768229
v -0.429952443 1.25127888 8.25556278
v -0.765883088 0.862400234 7.10035944
v -0.906264067 0.82032907 6.62976646
v -0.659577191 0.922601402 7.57153368
v -0.552013576 0.992097676 8.03386307
v -0.443096191 1.07245755 8.48522854
v -0.903494477 0.619424403 6.87773752
v -1.07798123 0.540718317 6.39729118
v -0.780025661 0.66999507 7.34747171
v -0.673427463 0.734181762 7.81352282
v -0.565530419 0.808202088 8.27004623
v -0.456240565 0.893635571 8.71489334
v -0.57904762 0.624305546 8.50622845
v -0.687276661 0.545763791 8.05551434
v -0.701126575 0.357344896 8.29750538
v -1.02659607 0.346120805 6.65118217
v -1.16485679 0.230345726 6.16776323
v -0.900724053 0.418520659 7.12570906
v -0.79416877 0.477588296 7.59458208
v -0.808311105 0.285183221 7.84169436
v -0.822454035 0.0927771404 8.0888052
v -1.06864285 0.0531718582 6.42652845
v -1.16375256 -0.0853827223 5.94146681
v -0.975210607 0.151524305 6.9050746
v -0.89795506 0.21761404 7.37367773
v -0.895185292 0.0167104136 7.62164927
v -0.892415643 -0.184194237 7.86962032
v -1.02864945 -0.235747382 6.20397377
v -1.07902014 -0.382037193 5.71869564
v -0.972428977 -0.124001525 6.68529415
v -0.923825562 -0.0430742465 7.15896463
v -0.872440159 -0.237671271 7.41285658
v -0.821055114 -0.432269305 7.66674662
v -0.912445247 -0.49813956 5.98372555
v -0.923364937 -0.633476377 5.50265121
v -0.893547416 -0.386110187 6.46648264
v -0.876214325 -0.301176876 6.94405842
v -0.780000806 -0.478349775 7.20282364
v -0.68378675 -0.655523539 7.46158934
v -0.732126832 -0.710601389 5.76756859
v -0.70559454 -0.830206215 5.28444529
v -0.745870769 -0.614241958 6.24875641
v -0.758443832 -0.536475718 6.72898865
v -0.623341203 -0.686839521 6.99149561
v -0.488238424 -0.837203741 7.25400209
v -0.501769006 -0.862868547 5.55066299
v -0.45215264 -0.956866026 5.07035112
v -0.540889084 -0.787726164 6.03248549
v -0.579294682 -0.730345905 6.51378441
v -0.412719578 -0.846448898 6.77881384
v -0.24614428 -0.962551892 7.04384279
v -0.245184645 -0.944036186 5.33648682
v -0.18438448 -1.00978541 4.86065578
v -0.29794383 -0.89553082 5.8168807
v -0.349648803 -0.864852607 6.29740095
v -0.15841049 -0.941977739 6.56231785
v 0.0328278393 -1.01910305 6.82723427
v 0.0166168157 -0.95196116 5.12524366
v 0.077481702 -0.991418183 4.65561676
v -0.0382162705 -0.931206524 5.60262156
v -0.0941167325 -0.928193331 6.08309746
v 0.109708034 -0.960855603 6.34931612
v 0.313533187 -0.993517935 6.61553431
v 0.263722658 -0.890417516 4.9171257
v 0.321181953 -0.898501515 4.44594049
v 0.217618108 -0.894136786 5.38983202
v 0.168753654 -0.918376505 5.86875486
v 0.375720471 -0.905547023 6.13489151
v 0.582689226 -0.892717183 6.4010253
v 0.481092721 -0.761469901 4.70683384
v 0.516055346 -0.756572008 4.24668741
v 0.449963629 -0.789416909 5.17863464
v 0.418619007 -0.836312532 5.6544199
v 0.619620323 -0.778488219 5.91900826
v 0.820621192 -0.720663965 6.18359613
v 0.645122647 -0.586728811 4.50299215
v 0.660493016 -0.578933537 4.05260992
v 0.64100194 -0.624439359 4.96772909
v 0.636205733 -0.688415408 5.44014263
v 0.822447479 -0.587414443 5.7016511
v 1.00868845 -0.486413568 5.96315956
v 0.75230056 -0.382241338 4.30266809
v 0.750866175 -0.381243825 3.86386943
v 0.774189949 -0.416885823 4.75929689
v 0.800912738 -0.487407446 5.22862244
v 0.960821986 -0.350377291 5.48951769
v 1.12073195 -0.213346183 5.75041199
v 0.799629092 -0.164952576 4.10599756
v 0.787790656 -0.178014129 3.68058467
v 0.844107389 -0.185550451 4.55272818
v 0.903257668 -0.247041404 5.01560068
v 1.03232491 -0.0771977827 5.27190542
v 1.16139233 0.0926457047 5.52820969
v 0.78869915 0.049111221 3.91308355
v 0.751361907 0.0360136926 3.47799802
v 0.848391593 0.0513387211 4.34812498
v 0.935914576 0.0111424765 4.80278635
v 1.02772176 0.20783399 5.05284595
v 1.11952853 0.404525697 5.30290508
v 0.709700108 0.254974157 3.70943785
v 0.684161723 0.204632714 3.30147219
v 0.789607584 0.27623719 4.14558268
v 0.897154152 0.267629862 4.5902524
v 0.94591707 0.483920664 4.83238077
v 0.99467957 0.700212538 5.07450819
v 0.594234645 0.414547265 3.52162027
v 0.585367739 0.343928039 3.13054442
v 0.668039441 0.473933756 3.94087887
v 0.790515304 0.503363788 4.37808037
v 0.791423798 0.730489433 4.61057949
v 0.792332232 0.957615077 4.84307814
v 0.448231936 0.533808231 3.33773065
v 0.464123607 0.450687349 2.96513271
v 0.504307985 0.62446171 3.74176836
v 0.626377285 0.692894518 4.17231846
v 0.584716618 0.911854029 4.403759
v 0.543056011 1.13081372 4.63520002
v 0.283632696 0.609127581 3.15775323
v 0.291754276 0.506416023 2.76952362
v 0.311096132 0.723688543 3.54491687
v 0.414379746 0.83437705 3.96191502
v 0.324453831 1.04429138 4.18206453
v 0.234527156 1.25420582 4.40221214
v 0.0906413645 0.627647161 2.9605422
v 0.156652838 0.528461158 2.61097717
v 0.103141375 0.767568231 3.35037374
v 0.173959538 0.913568854 3.75210238
v 0.0368244946 1.10344887 3.95928931
v -0.100311704 1.29332924 4.1664753
v -0.0716905817 0.603387415 2.78591681
v 0.0276192445 0.521355152 2.45761037
v -0.110471934 0.748878419 3.15156078
v -0.0773510933 0.926008403 3.54299259
v -0.257842779 1.0844487 3.73561215
v -0.438334465 1.24288917 3.92823219
v -0.216781333 0.542830348 2.61508155
v -0.109498352 0.446685582 2.26804209
v -0.300034404 0.678313553 2.96085596
v -0.31158486 0.87010926 3.34257889
v -0.512697577 0.991340816 3.53359795
v -0.713810325 1.11257195 3.72461629
v -0.348295212 0.427029938 2.42341208
v -0.196236089 0.383925825 2.12114096
v -0.461181521 0.564305484 2.77255225
v -0.528378427 0.753239334 3.13579488
v -0.756722033 0.828165829 3.31073475
v -0.985065639 0.90309155 3.48567367
v -0.428130448 0.309061706 2.25783086
v -0.265321016 0.309003085 1.97869098
v -0.587092042 0.407374948 2.5787828
v -0.705582142 0.58578068 2.93002295
v -0.949982285 0.607255876 3.0874939
v -1.19438267 0.628731012 3.2449646
v -0.476224214 0.180994272 2.09568048
v -0.298436821 0.179431707 1.79535806
v -0.660024643 0.234197915 2.39452147
v -0.825889528 0.387718678 2.73415208
v -1.06468654 0.368063271 2.88952231
v -1.30348361 0.348407447 3.04489183
v -0.481190592 0.022820143 1.90987408
v -0.311703056 0.0970929191 1.65849352
v -0.687127829 0.0529857017 2.21267009
v -0.891918421 0.159333825 2.53121114
v -1.12381279 0.0844698474 2.66790152
v -1.35570681 0.00960619655 2.80459166
v -0.45421645 -0.0988158882 1.75259256
v -0.309757441 0.0155536048 1.52496469
v -0.663944364 -0.133791402 2.02439022
v -0.898031056 -0.0750232786 2.32965922
v -1.10893464 -0.203032196 2.44664907
v -1.31983805 -0.331040978 2.56363845
v -0.402774453 -0.208229974 1.59814692
v -0.246131867 -0.0807179883 1.34788394
v -0.596730232 -0.294724405 1.84669173
v -0.846697927 -0.290402949 2.13890624
v -1.02945149 -0.447015136 2.25342202
v -1.21220541 -0.603626013 2.36793828
v -0.301475406 -0.310159892 1.41843283
v -0.206716448 -0.13578634 1.2186234
v -0.495791644 -0.432014018 1.67132902
v -0.739243627 -0.490633428 1.94079041
v -0.881757617 -0.686541975 2.03488946
v -1.02427077 -0.882450759 2.12898827
v -0.207414851 -0.370075285 1.26821685
v -0.110794395 -0.180503219 1.04611135
v -0.356819093 -0.539601862 1.48898232
v -0.588808239 -0.655797958 1.74451053
v -0.681825817 -0.879581749 1.81769323
v -0.77484262 -1.10336554 1.8908751
v -0.0765681937 -0.405754715 1.09296191
v -0.0556074567 -0.199195057 0.920317292
v -0.208113268 -0.604364276 1.31781042
v -0.412162036 -0.769043982 1.55953062
v -0.467505574 -0.998485923 1.63007951
v -0.522848904 -1.22792792 1.70062852
v 0.0280110799 -0.40721786 0.946604013
v 0.0421241708 -0.187758639 0.75233382
v -0.042342376 -0.631006062 1.13981235
v -0.208811283 -0.838653266 1.36740363
v -0.209509686 -1.07294226 1.41699743
v -0.210208103 -1.30723107 1.466591
v 0.152609289 -0.375259846 0.775899589
v 0.0929838568 -0.172041431 0.629169106
v 0.11162962 -0.615240693 0.972890675
v -0.00811655913 -0.856257439 1.18666291
v 0.026109647 -1.08150864 1.23351336
v 0.0603354648 -1.30675972 1.2803638
v 0.239133462 -0.325754255 0.63301897
v 0.166178614 -0.114590198 0.465694815
v 0.263093621 -0.562761307 0.799465656
v 0.195248544 -0.823263109 0.999177158
v 0.278866708 -1.03128624 1.02546406
v 0.36248523 -1.23930907 1.05175066
v 0.327977657 -0.241215169 0.466979444
v 0.198769256 -0.0740289614 0.344349384
v 0.385282665 -0.479466945 0.636868834
v 0.373578757 -0.750262618 0.823031247
v 0.484063864 -0.93776387 0.846597075
v 0.594548583 -1.12526536 0.870162845
v 0.377897859 -0.158783957 0.327226102
v 0.230921179 0.009598542 0.185413614
v 0.413911551 -0.04690836 0.166006342
v 0.489777088 -0.367840201 0.468264014
v 0.531431913 -0.633179545 0.640718699
v 0.677581131 -0.786892533 0.644568563
v 0.823730707 -0.940605342 0.648418427
v 0.557026088 -0.243539006 0.31010282
v 0.596901953 -0.103414834 0.146598563
v 0.651576102 -0.494465053 0.469548553
v 0.813375533 -0.621090174 0.470833123
v 0.975174546 -0.747715116 0.472117692
v 0.736154258 -0.328294039 0.292979509
v 0.779892325 -0.159921467 0.127191067
v 0.915282488 -0.413049012 0.275856256
v 1.09441066 -0.497804016 0.258732945
v 0.962882698 -0.216428161 0.107783534
v 1.14587307 -0.272934824 0.0883760229
vt 0.974999607 0
vt 0.999999583 0.200000003
vt 0.999999583 0
vt 0.974999607 0.200000003
vt 0.94999963 0
vt 0.999999583 0.400000006
vt 0.94999963 0.200000003
vt 0.924999654 0
vt 0.974999607 0.400000006
vt 0.999999583 0.600000024
vt 0.924999654 0.200000003
vt 0.899999678 0
vt 0.94999963 0.400000006
vt 0.974999607 0.600000024
vt 0.999999583 0.800000012
vt 0.899999678 0.200000003
vt 0.874999702 0
vt 0.924999654 0.400000006
vt 0.94999963 0.600000024
vt 0.974999607 0.800000012
vt 0.999999583 1
vt 0.974999607 1
vt 0.94999963 0.800000012
vt 0.94999963 1
vt 0.874999702 0.200000003
vt 0.849999726 0
vt 0.899999678 0.400000006
vt 0.924999654 0.600000024
vt 0.924999654 0.800000012
vt 0.924999654 1
vt 0.849999726 0.200000003
vt 0.82499975 0
vt 0.874999702 0.400000006
vt 0.899999678 0.600000024
vt 0.899999678 0.800000012
vt 0.899999678 1
vt 0.82499975 0.200000003
vt 0.799999774 0
vt 0.849999726 0.400000006
vt 0.874999702 0.600000024
vt 0.874999702 0.800000012
vt 0.874999702 1
vt 0.799999774 0.200000003
vt 0.774999797 0
vt 0.82499975 0.400000006
vt 0.849999726 0.600000024
vt 0.849999726 0.800000012
vt 0.849999726 1
vt 0.774999797 0.200000003
vt 0.749999821 0
vt 0.799999774 0.400000006
vt 0.82499975 0.600000024
vt 0.82499975 0.800000012
vt 0.82499975 1
vt 0.749999821 0.200000003
vt 0.724999845 0
vt 0.774999797 0.400000006
vt 0.799999774 0.600000024
vt 0.799999774 0.800000012
vt 0.799999774 1
vt 0.724999845 0.200000003
vt 0.699999869 0
vt 0.749999821 0.400000006
vt 0.774999797 0.600000024
vt 0.774999797 0.800000012
vt 0.774999797 1
vt 0.699999869 0.200000003
vt 0.674999893 0
vt 0.724999845 0.400000006
vt 0.749999821 0.600000024
vt 0.749999821 0.800000012
vt 0.749999821 1
vt 0.674999893 0.200000003
vt 0.649999917 0
vt 0.699999869 0.400000006
vt 0.724999845 0.600000024
vt 0.724999845 0.800000012
vt 0.724999845 1
vt 0.649999917 0.200000003
vt 0.62499994 0
vt 0.674999893 0.400000006
vt 0.699999869 0.600000024
vt 0.699999869 0.800000012
vt 0.699999869 1
vt 0.62499994 0.200000003
vt 0.599999964 0
vt 0.649999917 0.400000006
vt 0.674999893 0.600000024
vt 0.674999893 0.800000012
vt 0.674999893 1
vt 0.599999964 0.200000003
vt 0.574999988 0
vt 0.62499994 0.400000006
vt 0.649999917 0.600000024
vt 0.649999917 0.800000012
vt 0.649999917 1
vt 0.574999988 0.200000003
vt 0.550000012 0
vt 0.599999964 0.400000006
vt 0.62499994 0.600000024
vt 0.62499994 0.800000012
vt 0.62499994 1
vt 0.550000012 0.200000003
vt 0.525000036 0
vt 0.574999988 0.400000006
vt 0.599999964 0.600000024
vt 0.599999964 0.800000012
vt 0.599999964 1
vt 0.525000036 0.200000003
vt 0.50000006 0
vt 0.550000012 0.400000006
vt 0.574999988 0.600000024
vt 0.574999988 0.800000012
vt 0.574999988 1
vt 0.50000006 0.200000003
vt 0.475000083 0
vt 0.525000036 0.400000006
vt 0.550000012 0.600000024
vt 0.550000012 0.800000012
vt 0.550000012 1
vt 0.475000083 0.200000003
vt 0.450000077 0
vt 0.50000006 0.400000006
vt 0.525000036 0.600000024
vt 0.525000036 0.800000012
vt 0.525000036 1
vt 0.450000077 0.200000003
vt 0.425000072 0
vt 0.475000083 0.400000006
vt 0.50000006 0.600000024
vt 0.50000006 0.800000012
vt 0.50000006 1
vt 0.425000072 0.200000003
vt 0.400000066 0
vt 0.450000077 0.400000006
vt 0.475000083 0.600000024
vt 0.475000083 0.800000012
vt 0.475000083 1
vt 0.400000066 0.200000003
vt 0.37500006 0
vt 0.425000072 0.400000006
vt 0.450000077 0.600000024
vt 0.450000077 0.800000012
vt 0.450000077 1
vt 0.37500006 0.200000003
vt 0.350000054 0
vt 0.400000066 0.400000006
vt 0.425000072 0.600000024
vt 0.425000072 0.800000012
vt 0.425000072 1
vt 0.350000054 0.200000003
vt 0.325000048 0
vt 0.37500006 0.400000006
vt 0.400000066 0.600000024
vt 0.400000066 0.800000012
vt 0.400000066 1
vt 0.325000048 0.200000003
vt 0.300000042 0
vt 0.350000054 0.400000006
vt 0.37500006 0.600000024
vt 0.37500006 0.800000012
vt 0.37500006 1
vt 0.300000042 0.200000003
vt 0.275000036 0
vt 0.325000048 0.400000006
vt 0.350000054 0.600000024
vt 0.350000054 0.800000012
vt 0.350000054 1
vt 0.275000036 0.200000003
vt 0.25000003 0
vt 0.300000042 0.400000006
vt 0.325000048 0.600000024
vt 0.325000048 0.800000012
vt 0.325000048 1
vt 0.25000003 0.200000003
vt 0.225000024 0
vt 0.275000036 0.400000006
vt 0.300000042 0.600000024
vt 0.300000042 0.800000012
vt 0.300000042 1
vt 0.225000024 0.200000003
vt 0.200000018 0
vt 0.25000003 0.400000006
vt 0.275000036 0.600000024
vt 0.275000036 0.800000012
vt 0.275000036 1
vt 0.200000018 0.200000003
vt 0.175000012 0
vt 0.225000024 0.400000006
vt 0.25000003 0.600000024
vt 0.25000003 0.800000012
vt 0.25000003 1
vt 0.175000012 0.200000003
vt 0.150000006 0
vt 0.200000018 0.400000006
vt 0.225000024 0.600000024
vt 0.225000024 0.800000012
vt 0.225000024 1
vt 0.150000006 0.200000003
vt 0.125 0
vt 0.175000012 0.400000006
vt 0.200000018 0.600000024
vt 0.200000018 0.800000012
vt 0.200000018 1
vt 0.125 0.200000003
vt 0.100000001 0
vt 0.150000006 0.400000006
vt 0.175000012 0.600000024
vt 0.175000012 0.800000012
vt 0.175000012 1
vt 0.100000001 0.200000003
vt 0.075000003 0
vt 0.125 0.400000006
vt 0.150000006 0.600000024
vt 0.150000006 0.800000012
vt 0.150000006 1
vt 0.075000003 0.200000003
vt 0.0500000007 0
vt 0.100000001 0.400000006
vt 0.125 0.600000024
vt 0.125 0.800000012
vt 0.125 1
vt 0.0500000007 0.200000003
vt 0.0250000004 0
vt 0.075000003 0.400000006
vt 0.100000001 0.600000024
vt 0.100000001 0.800000012
vt 0.100000001 1
vt 0.0250000004 0.200000003
vt 0 0
vt 0 0.200000003
vt 0.0500000007 0.400000006
vt 0.075000003 0.600000024
vt 0.075000003 0.800000012
vt 0.075000003 1
vt 0.0250000004 0.400000006
vt 0 0.400000006
vt 0.0500000007 0.600000024
vt 0.0500000007 0.800000012
vt 0.0500000007 1
vt 0.0250000004 0.600000024
vt 0 0.600000024
vt 0.0250000004 0.800000012
vt 0.0250000004 1
vt 0 0.800000012
vt 0 1
vn 0.939936697 -0.293320835 -0.174590364
vn 0.939936817 -0.293320537 -0.17459029
vn 0.939936936 -0.293320447 -0.174590215
vn 0.939936697 -0.293320775 -0.174590483
vn 0.939936697 -0.293320954 -0.174590364
vn 0.939936817 -0.293320537 -0.174590454
vn 0.939936697 -0.293320775 -0.174590543
vn 0.925982893 -0.313575298 -0.210300103
vn 0.939936817 -0.293320626 -0.174590603
vn 0.939936817 -0.293320447 -0.174590692
vn 0.931501627 -0.30315271 -0.201005027
vn 0.918703556 -0.288593709 -0.269624472
vn 0.939936697 -0.293320596 -0.174590677
vn 0.939936817 -0.293320477 -0.174590692
vn 0.939936817 -0.293320388 -0.174590707
vn 0.933921993 -0.259516209 -0.245847642
vn 0.950550079 -0.118803911 -0.286950052
vn 0.940350711 -0.284740776 -0.186180845
vn 0.939936697 -0.293320566 -0.174590707
vn 0.939936697 -0.293320537 -0.174590707
vn 0.939936817 -0.293320477 -0.174590632
vn 0.939936697 -0.293320715 -0.174590647
vn 0.939936697 -0.293320775 -0.174590647
vn 0.939936697 -0.293320954 -0.174590468
vn 0.963492513 -0.0790621564 -0.255795449
vn 0.954412043 0.133309886 -0.267069519
vn 0.96109885 -0.194518268 -0.196090862
vn 0.948600292 -0.266158164 -0.171223015
vn 0.956208289 -0.24751164 -0.156217054
vn 0.959821641 -0.238011256 -0.148637474
vn 0.955883086 0.175955042 -0.23521772
vn 0.89253968 0.377702743 -0.246401191
vn 0.982642889 0.0185358785 -0.184579358
vn 0.982345402 -0.123220474 -0.140762568
vn 0.995582044 -0.0474352427 -0.0810325518
vn 0.998717189 -0.00821535382 -0.0499659702
vn 0.88192606 0.420232952 -0.213566482
vn 0.768191755 0.59968096 -0.224196628
vn 0.947224617 0.275878519 -0.163268358
vn 0.986716628 0.125660524 -0.102955222
vn 0.971330106 0.237327904 -0.0139061408
vn 0.955841362 0.292163312 0.0317480899
vn 0.74522531 0.6393224 -0.189489111
vn 0.589305937 0.782947421 -0.199278489
vn 0.845720887 0.514820814 -0.14041248
vn 0.921465099 0.379649401 -0.0822706372
vn 0.876516581 0.481351078 0.00444729393
vn 0.847645819 0.528354704 0.0483515896
vn 0.554689586 0.81598258 -0.162763283
vn 0.370300144 0.912518382 -0.173746884
vn 0.682899117 0.721623957 -0.113611564
vn 0.792371511 0.607110858 -0.0596977212
vn 0.722264588 0.691167593 0.0249226689
vn 0.682952642 0.727367759 0.0671705529
vn 0.327353418 0.935053468 -0.136069059
vn 0.128365919 0.980430663 -0.149257347
vn 0.470740408 0.878249526 -0.0841504335
vn 0.605863452 0.794910908 -0.0323435292
vn 0.517109334 0.854443133 0.0502491295
vn 0.471226066 0.877340674 0.0906607211
vn 0.0794674233 0.990761936 -0.109889157
vn -0.121250547 0.984707713 -0.125095859
vn 0.229143813 0.971784174 -0.0559333824
vn 0.375769913 0.926711679 -0.0015997499
vn 0.27449429 0.958206236 0.0805829987
vn 0.224441007 0.967048466 0.120180942
vn -0.173018634 0.981368005 -0.0835547373
vn -0.368818343 0.924737871 -0.0939839035
vn -0.0261695292 0.999274194 -0.0276823919
vn 0.124481685 0.99185127 0.0271173362
vn 0.0188230779 0.993899703 0.108670071
vn -0.0310006104 0.988566995 0.147560999
vn -0.418076187 0.906956851 -0.0513957515
vn -0.593595803 0.802543759 -0.0597292706
vn -0.278331041 0.960484028 0.00150925654
vn -0.131601483 0.989762127 0.055244226
vn -0.231421426 0.963503659 0.134553999
vn -0.27612409 0.945656121 0.171726599
vn -0.635958433 0.77156049 -0.0158515591
vn -0.772919714 0.63368541 -0.0322165489
vn -0.512806535 0.857798338 0.0348049998
vn -0.376526505 0.922506988 0.0849030614
vn -0.463318408 0.871169448 0.162480563
vn -0.500193179 0.842924535 0.198204488
vn -0.806986153 0.590387464 0.0147002917
vn -0.902813017 0.429960817 -0.00790301338
vn -0.712902904 0.697636068 0.0712274686
vn -0.595922351 0.794287443 0.118253484
vn -0.664509535 0.72138983 0.194996998
vn -0.691875398 0.684430718 0.229919523
vn -0.925247073 0.376983762 0.0424418934
vn -0.978859305 0.20402202 0.0144703928
vn -0.861738563 0.496326119 0.105200395
vn -0.773911655 0.614457905 0.153304487
vn -0.818531513 0.527714133 0.226988837
vn -0.833870888 0.486883163 0.260007918
vn -0.987146378 0.144157857 0.0689961463
vn -0.997247636 -0.0470471978 0.0573034249
vn -0.953004122 0.269987911 0.137440085
vn -0.896930695 0.400797874 0.186752468
vn -0.915519059 0.309427857 0.257059008
vn -0.919191122 0.268853426 0.287759632
vn -0.988205671 -0.105150901 0.111323282
vn -0.952361405 -0.288756758 0.0981180146
vn -0.984987915 0.031752035 0.169677943
vn -0.960691035 0.169022635 0.22023654
vn -0.95396626 0.0783507451 0.289498806
vn -0.946859062 0.0395780802 0.319204241
vn -0.928147137 -0.339678973 0.152187601
vn -0.863300145 -0.49130255 0.115475878
vn -0.955416799 -0.207882807 0.209674954
vn -0.964741409 -0.0671025738 0.254501939
vn -0.93422699 -0.150565267 0.323342115
vn -0.917352736 -0.185169458 0.352386445
vn -0.823513091 -0.539147556 0.176482514
vn -0.730222166 -0.67023164 0.132533446
vn -0.868488073 -0.428274244 0.249619141
vn -0.908940494 -0.295853019 0.293765575
vn -0.855873048 -0.368325293 0.36306715
vn -0.829311788 -0.397866428 0.39235726
vn -0.676941335 -0.708455682 0.199601963
vn -0.542609692 -0.820048571 0.181920752
vn -0.738526642 -0.612445116 0.281938702
vn -0.801590145 -0.49839738 0.330232322
vn -0.734032989 -0.552421749 0.395001084
vn -0.703287542 -0.572024107 0.422107816
vn -0.4834705 -0.839902699 0.246616453
vn -0.333455622 -0.915734529 0.224137604
vn -0.573627412 -0.756839156 0.313282728
vn -0.656572938 -0.661349416 0.36266914
vn -0.583176434 -0.693243742 0.423459947
vn -0.552154183 -0.703287661 0.447785974
vn -0.276063055 -0.917299032 0.286969513
vn -0.142831802 -0.96303612 0.228386775
vn -0.378488839 -0.855383992 0.353644431
vn -0.481464744 -0.781230867 0.397328466
vn -0.40357694 -0.791592658 0.45881021
vn -0.371155769 -0.792977214 0.48314634
vn -0.0784526393 -0.949930668 0.302451253
vn 0.0792250261 -0.957875788 0.276038527
vn -0.17256552 -0.903525889 0.392252594
vn -0.285148472 -0.853402197 0.436342925
vn -0.205404237 -0.841725469 0.499306947
vn -0.17150104 -0.833848536 0.524675131
vn 0.133671924 -0.928700089 0.345901549
vn 0.285637081 -0.904720664 0.316056877
vn 0.0252254512 -0.906932533 0.420519888
vn -0.0858988464 -0.878068149 0.470762879
vn -0.0145509448 -0.848426282 0.529113412
vn 0.013149905 -0.833423436 0.552478313
vn 0.32453084 -0.864764392 0.383226246
vn 0.451874018 -0.835133374 0.313627332
vn 0.213731006 -0.864435554 0.455049664
vn 0.101025186 -0.860048413 0.500110447
vn 0.15661782 -0.817163467 0.554720461
vn 0.176969007 -0.798478305 0.575425446
vn 0.485568881 -0.780421376 0.393910348
vn 0.60942924 -0.706466973 0.359861732
vn 0.382721931 -0.783135295 0.490125567
vn 0.272995383 -0.800261497 0.533905506
vn 0.316864401 -0.741642714 0.591238618
vn 0.333472222 -0.715673685 0.613683522
vn 0.625114918 -0.648597598 0.434226155
vn 0.731470346 -0.556205869 0.394444138
vn 0.523508251 -0.678345799 0.515544415
vn 0.42236951 -0.708950877 0.564794362
vn 0.450120628 -0.644587696 0.61797905
vn 0.458401442 -0.61795938 0.638744354
vn 0.728578687 -0.503359377 0.464545429
vn 0.822757602 -0.421000034 0.381875336
vn 0.632473528 -0.551184177 0.544218063
vn 0.541608393 -0.597540021 0.591275156
vn 0.550409973 -0.535327554 0.640681982
vn 0.551793456 -0.511291146 0.658866584
vn 0.807049751 -0.361754119 0.466695458
vn 0.871110797 -0.242419124 0.427081913
vn 0.709908664 -0.41027078 0.572457552
vn 0.628573596 -0.470322907 0.619428456
vn 0.620004416 -0.404538602 0.672267139
vn 0.614735305 -0.377406776 0.692578316
vn 0.841235697 -0.193769842 0.504753053
vn 0.887594819 -0.0690541193 0.45541963
vn 0.760570645 -0.269026667 0.590895176
vn 0.687268198 -0.33572185 0.644168735
vn 0.665215373 -0.275966257 0.693780363
vn 0.653917015 -0.253103822 0.712973356
vn 0.850246966 -0.0381322205 0.525001049
vn 0.879059672 0.0802284852 0.46991232
vn 0.779360116 -0.127032354 0.613563955
vn 0.719341993 -0.204317018 0.663928926
vn 0.686168492 -0.158210471 0.710029781
vn 0.672096133 -0.141392946 0.726838946
vn 0.833352029 0.104562327 0.542762518
vn 0.839445114 0.234765917 0.490119159
vn 0.774753928 0.00785140786 0.632214069
vn 0.724095821 -0.0773385018 0.685349643
vn 0.677110553 -0.0397762731 0.734805584
vn 0.656704247 -0.0248586684 0.753738344
vn 0.794750094 0.241406769 0.556861699
vn 0.78669697 0.362853169 0.49944523
vn 0.751867115 0.131619006 0.646043479
vn 0.711466968 0.0415843911 0.701488078
vn 0.659395337 0.0672219917 0.748785019
vn 0.636885583 0.0758341774 0.767219603
vn 0.73987329 0.361081004 0.567633748
vn 0.707522452 0.487181276 0.511924326
vn 0.711984277 0.245094404 0.658032715
vn 0.68465358 0.148954868 0.713485718
vn 0.629954875 0.160538465 0.759858072
vn 0.606989861 0.164234802 0.777554035
vn 0.668804884 0.471425027 0.574855089
vn 0.624865532 0.586922109 0.514845192
vn 0.660806 0.34685865 0.665600896
vn 0.645096004 0.245974019 0.723427892
vn 0.591043711 0.24577646 0.768284619
vn 0.568356395 0.243409902 0.785953283
vn 0.588925302 0.564418674 0.578445077
vn 0.520042896 0.676745236 0.521124959
vn 0.599480927 0.437503338 0.670233846
vn 0.597647905 0.332506269 0.729559183
vn 0.547117651 0.31942746 0.773710787
vn 0.526313663 0.312866092 0.790638208
vn 0.496485949 0.646717727 0.57901448
vn 0.418490887 0.746742904 0.516953051
vn 0.530773342 0.517764032 0.670969486
vn 0.543633819 0.409708649 0.732530534
vn 0.498431861 0.387086689 0.775712311
vn 0.479834646 0.375288486 0.793043077
vn 0.400173247 0.713131309 0.575591087
vn 0.352421492 0.763452828 0.541238248
vn 0.345059365 0.732924879 0.586306512
vn 0.455159694 0.588433802 0.668263078
vn 0.484539628 0.478961229 0.731995523
vn 0.44756642 0.446936518 0.774552882
vn 0.432549328 0.432571262 0.79106462
vn 0.373763382 0.6498034 0.661858261
vn 0.330089539 0.675719321 0.659123898
vn 0.420788795 0.541625977 0.727721095
vn 0.39229995 0.50378263 0.76961273
vn 0.381025761 0.485512376 0.786827266
vn 0.352092385 0.598093569 0.71994096
vn 0.315409243 0.62355125 0.715332687
vn 0.334386945 0.555759609 0.761128485
vn 0.327403098 0.537099719 0.777387321
vn 0.301668644 0.577046514 0.758955479
vn 0.295003474 0.555112183 0.777703881
g Plane002_0
f 3/3/3 2/2/2 1/1/1
f 2/2/2 4/4/4 1/1/1
f 1/1/1 4/4/4 5/5/5
f 2/2/2 6/6/6 4/4/4
f 4/4/4 7/7/7 5/5/5
f 5/5/5 7/7/7 8/8/8
f 6/6/6 9/9/9 4/4/4
f 4/4/4 9/9/9 7/7/7
f 6/6/6 10/10/10 9/9/9
f 7/7/7 11/11/11 8/8/8
f 8/8/8 11/11/11 12/12/12
f 9/9/9 13/13/13 7/7/7
f 7/7/7 13/13/13 11/11/11
f 10/10/10 14/14/14 9/9/9
f 9/9/9 14/14/14 13/13/13
f 10/10/10 15/15/15 14/14/14
f 11/11/11 16/16/16 12/12/12
f 12/12/12 16/16/16 17/17/17
f 13/13/13 18/18/18 11/11/11
f 11/11/11 18/18/18 16/16/16
f 14/14/14 19/19/19 13/13/13
f 13/13/13 19/19/19 18/18/18
f 15/15/15 20/20/20 14/14/14
f 14/14/14 20/20/20 19/19/19
f 15/15/15 21/21/21 20/20/20
f 21/21/21 22/22/22 20/20/20
f 20/20/20 22/22/22 23/23/23
f 20/20/20 23/23/23 19/19/19
f 22/22/22 24/24/24 23/23/23
f 16/16/16 25/25/25 17/17/17
f 17/17/17 25/25/25 26/26/26
f 18/18/18 27/27/27 16/16/16
f 16/16/16 27/27/27 25/25/25
f 19/19/19 28/28/28 18/18/18
f 19/19/19 23/23/23 28/28/28
f 18/18/18 28/28/28 27/27/27
f 23/23/23 24/24/24 29/29/29
f 23/23/23 29/29/29 28/28/28
f 24/24/24 30/30/30 29/29/29
f 25/25/25 31/31/31 26/26/26
f 26/26/26 31/31/31 32/32/32
f 27/27/27 33/33/33 25/25/25
f 25/25/25 33/33/33 31/31/31
f 28/28/28 34/34/34 27/27/27
f 28/28/28 29/29/29 34/34/34
f 27/27/27 34/34/34 33/33/33
f 29/29/29 30/30/30 35/35/35
f 29/29/29 35/35/35 34/34/34
f 30/30/30 36/36/36 35/35/35
f 31/31/31 37/37/37 32/32/32
f 32/32/32 37/37/37 38/38/38
f 33/33/33 39/39/39 31/31/31
f 31/31/31 39/39/39 37/37/37
f 34/34/34 40/40/40 33/33/33
f 34/34/34 35/35/35 40/40/40
f 33/33/33 40/40/40 39/39/39
f 35/35/35 36/36/36 41/41/41
f 35/35/35 41/41/41 40/40/40
f 36/36/36 42/42/42 41/41/41
f 37/37/37 43/43/43 38/38/38
f 38/38/38 43/43/43 44/44/44
f 39/39/39 45/45/45 37/37/37
f 37/37/37 45/45/45 43/43/43
f 40/40/40 46/46/46 39/39/39
f 40/40/40 41/41/41 46/46/46
f 39/39/39 46/46/46 45/45/45
f 41/41/41 42/42/42 47/47/47
f 41/41/41 47/47/47 46/46/46
f 42/42/42 48/48/48 47/47/47
f 43/43/43 49/49/49 44/44/44
f 44/44/44 49/49/49 50/50/50
f 45/45/45 51/51/51 43/43/43
f 43/43/43 51/51/51 49/49/49
f 46/46/46 52/52/52 45/45/45
f 46/46/46 47/47/47 52/52/52
f 45/45/45 52/52/52 51/51/51
f 47/47/47 48/48/48 53/53/53
f 47/47/47 53/53/53 52/52/52
f 48/48/48 54/54/54 53/53/53
f 49/49/49 55/55/55 50/50/50
f 50/50/50 55/55/55 56/56/56
f 51/51/51 57/57/57 49/49/49
f 49/49/49 57/57/57 55/55/55
f 52/52/52 58/58/58 51/51/51
f 52/52/52 53/53/53 58/58/58
f 51/51/51 58/58/58 57/57/57
f 53/53/53 54/54/54 59/59/59
f 53/53/53 59/59/59 58/58/58
f 54/54/54 60/60/60 59/59/59
f 55/55/55 61/61/61 56/56/56
f 56/56/56 61/61/61 62/62/62
f 57/57/57 63/63/63 55/55/55
f 55/55/55 63/63/63 61/61/61
f 58/58/58 64/64/64 57/57/57
f 58/58/58 59/59/59 64/64/64
f 57/57/57 64/64/64 63/63/63
f 59/59/59 60/60/60 65/65/65
f 59/59/59 65/65/65 64/64/64
f 60/60/60 66/66/66 65/65/65
f 61/61/61 67/67/67 62/62/62
f 62/62/62 67/67/67 68/68/68
f 63/63/63 69/69/69 61/61/61
f 61/61/61 69/69/69 67/67/67
f 64/64/64 70/70/70 63/63/63
f 64/64/64 65/65/65 70/70/70
f 63/63/63 70/70/70 69/69/69
f 65/65/65 66/66/66 71/71/71
f 65/65/65 71/71/71 70/70/70
f 66/66/66 72/72/72 71/71/71
f 67/67/67 73/73/73 68/68/68
f 68/68/68 73/73/73 74/74/74
f 69/69/69 75/75/75 67/67/67
f 67/67/67 75/75/75 73/73/73
f 70/70/70 76/76/76 69/69/69
f 70/70/70 71/71/71 76/76/76
f 69/69/69 76/76/76 75/75/75
f 71/71/71 72/72/72 77/77/77
f 71/71/71 77/77/77 76/76/76
f 72/72/72 78/78/78 77/77/77
f 73/73/73 79/79/79 74/74/74
f 74/74/74 79/79/79 80/80/80
f 75/75/75 81/81/81 73/73/73
f 73/73/73 81/81/81 79/79/79
f 76/76/76 82/82/82 75/75/75
f 76/76/76 77/77/77 82/82/82
f 75/75/75 82/82/82 81/81/81
f 77/77/77 78/78/78 83/83/83
f 77/77/77 83/83/83 82/82/82
f 78/78/78 84/84/84 83/83/83
f 79/79/79 85/85/85 80/80/80
f 80/80/80 85/85/85 86/86/86
f 81/81/81 87/87/87 79/79/79
f 79/79/79 87/87/87 85/85/85
f 82/82/82 88/88/88 81/81/81
f 82/82/82 83/83/83 88/88/88
f 81/81/81 88/88/88 87/87/87
f 83/83/83 84/84/84 89/89/89
f 83/83/83 89/89/89 88/88/88
f 84/84/84 90/90/90 89/89/89
f 85/85/85 91/91/91 86/86/86
f 86/86/86 91/91/91 92/92/92
f 87/87/87 93/93/93 85/85/85
f 85/85/85 93/93/93 91/91/91
f 88/88/88 94/94/94 87/87/87
f 88/88/88 89/89/89 94/94/94
f 87/87/87 94/94/94 93/93/93
f 89/89/89 90/90/90 95/95/95
f 89/89/89 95/95/95 94/94/94
f 90/90/90 96/96/96 95/95/95
f 91/91/91 97/97/97 92/92/92
f 92/92/92 97/97/97 98/98/98
f 93/93/93 99/99/99 91/91/91
f 91/91/91 99/99/99 97/97/97
f 94/94/94 100/100/100 93/93/93
f 94/94/94 95/95/95 100/100/100
f 93/93/93 100/100/100 99/99/99
f 95/95/95 96/96/96 101/101/101
f 95/95/95 101/101/101 100/100/100
f 96/96/96 102/102/102 101/101/101
f 97/97/97 103/103/103 98/98/98
f 98/98/98 103/103/103 104/104/104
f 99/99/99 105/105/105 97/97/97
f 97/97/97 105/105/105 103/103/103
f 100/100/100 106/106/106 99/99/99
f 100/100/100 101/101/101 106/106/106
f 99/99/99 106/106/106 105/105/105
f 101/101/101 102/102/102 107/107/107
f 101/101/101 107/107/107 106/106/106
f 102/102/102 108/108/108 107/107/107
f 103/103/103 109/109/109 104/104/104
f 104/104/104 109/109/109 110/110/110
f 105/105/105 111/111/111 103/103/103
f 103/103/103 111/111/111 109/109/109
f 106/106/106 112/112/112 105/105/105
f 106/106/106 107/107/107 112/112/112
f 105/105/105 112/112/112 111/111/111
f 107/107/107 108/108/108 113/113/113
f 107/107/107 113/113/113 112/112/112
f 108/108/108 114/114/114 113/113/113
f 109/109/109 115/115/115 110/110/110
f 110/110/110 115/115/115 116/116/116
f 111/111/111 117/117/117 109/109/109
f 109/109/109 117/117/117 115/115/115
f 112/112/112 118/118/118 111/111/111
f 112/112/112 113/113/113 118/118/118
f 111/111/111 118/118/118 117/117/117
f 113/113/113 114/114/114 119/119/119
f 113/113/113 119/119/119 118/118/118
f 114/114/114 120/120/120 119/119/119
f 115/115/115 121/121/121 116/116/116
f 116/116/116 121/121/121 122/122/122
f 117/117/117 123/123/123 115/115/115
f 115/115/115 123/123/123 121/121/121
f 118/118/118 124/124/124 117/117/117
f 118/118/118 119/119/119 124/124/124
f 117/117/117 124/124/124 123/123/123
f 119/119/119 120/120/120 125/125/125
f 119/119/119 125/125/125 124/124/124
f 120/120/120 126/126/126 125/125/125
f 121/121/121 127/127/127 122/122/122
f 122/122/122 127/127/127 128/128/128
f 123/123/123 129/129/129 121/121/121
f 121/121/121 129/129/129 127/127/127
f 124/124/124 130/130/130 123/123/123
f 124/124/124 125/125/125 130/130/130
f 123/123/123 130/130/130 129/129/129
f 125/125/125 126/126/126 131/131/131
f 125/125/125 131/131/131 130/130/130
f 126/126/126 132/132/132 131/131/131
f 127/127/127 133/133/133 128/128/128
f 128/128/128 133/133/133 134/134/134
f 129/129/129 135/135/135 127/127/127
f 127/127/127 135/135/135 133/133/133
f 130/130/130 136/136/136 129/129/129
f 130/130/130 131/131/131 136/136/136
f 129/129/129 136/136/136 135/135/135
f 131/131/131 132/132/132 137/137/137
f 131/131/131 137/137/137 136/136/136
f 132/132/132 138/138/138 137/137/137
f 133/133/133 139/139/139 134/134/134
f 134/134/134 139/139/139 140/140/140
f 135/135/135 141/141/141 133/133/133
f 133/133/133 141/141/141 139/139/139
f 136/136/136 142/142/142 135/135/135
f 136/136/136 137/137/137 142/142/142
f 135/135/135 142/142/142 141/141/141
f 137/137/137 138/138/138 143/143/143
f 137/137/137 143/143/143 142/142/142
f 138/138/138 144/144/144 143/143/143
f 139/139/139 145/145/145 140/140/140
f 140/140/140 145/145/145 146/146/146
f 141/141/141 147/147/147 139/139/139
f 139/139/139 147/147/147 145/145/145
f 142/142/142 148/148/148 141/141/141
f 142/142/142 143/143/143 148/148/148
f 141/141/141 148/148/148 147/147/147
f 143/143/143 144/144/144 149/149/149
f 143/143/143 149/149/149 148/148/148
f 144/144/144 150/150/150 149/149/149
f 145/145/145 151/151/151 146/146/146
f 146/146/146 151/151/151 152/152/152
f 147/147/147 153/153/153 145/145/145
f 145/145/145 153/153/153 151/151/151
f 148/148/148 154/154/154 147/147/147
f 148/148/148 149/149/149 154/154/154
f 147/147/147 154/154/154 153/153/153
f 149/149/149 150/150/150 155/155/155
f 149/149/149 155/155/155 154/154/154
f 150/150/150 156/156/156 155/155/155
f 151/151/151 157/157/157 152/152/152
f 152/152/152 157/157/157 158/158/158
f 153/153/153 159/159/159 151/151/151
f 151/151/151 159/159/159 157/157/157
f 154/154/154 160/160/160 153/153/153
f 154/154/154 155/155/155 160/160/160
f 153/153/153 160/160/160 159/159/159
f 155/155/155 156/156/156 161/161/161
f 155/155/155 161/161/161 160/160/160
f 156/156/156 162/162/162 161/161/161
f 157/157/157 163/163/163 158/158/158
f 158/158/158 163/163/163 164/164/164
f 159/159/159 165/165/165 157/157/157
f 157/157/157 165/165/165 163/163/163
f 160/160/160 166/166/166 159/159/159
f 160/160/160 161/161/161 166/166/166
f 159/159/159 166/166/166 165/165/165
f 161/161/161 162/162/162 167/167/167
f 161/161/161 167/167/167 166/166/166
f 162/162/162 168/168/168 167/167/167
f 163/163/163 169/169/169 164/164/164
f 164/164/164 169/169/169 170/170/170
f 165/165/165 171/171/171 163/163/163
f 163/163/163 171/171/171 169/169/169
f 166/166/166 172/172/172 165/165/165
f 166/166/166 167/167/167 172/172/172
f 165/165/165 172/172/172 171/171/171
f 167/167/167 168/168/168 173/173/173
f 167/167/167 173/173/173 172/172/172
f 168/168/168 174/174/174 173/173/173
f 169/169/169 175/175/175 170/170/170
f 170/170/170 175/175/175 176/176/176
f 171/171/171 177/177/177 169/169/169
f 169/169/169 177/177/177 175/175/175
f 172/172/172 178/178/178 171/171/171
f 172/172/172 173/173/173 178/178/178
f 171/171/171 178/178/178 177/177/177
f 173/173/173 174/174/174 179/179/179
f 173/173/173 179/179/179 178/178/178
f 174/174/174 180/180/180 179/179/179
f 175/175/175 181/181/181 176/176/176
f 176/176/176 181/181/181 182/182/182
f 177/177/177 183/183/183 175/175/175
f 175/175/175 183/183/183 181/181/181
f 178/178/178 184/184/184 177/177/177
f 178/178/178 179/179/179 184/184/184
f 177/177/177 184/184/184 183/183/183
f 179/179/179 180/180/180 185/185/185
f 179/179/179 185/185/185 184/184/184
f 180/180/180 186/186/186 185/185/185
f 181/181/181 187/187/187 182/182/182
f 182/182/182 187/187/187 188/188/188
f 183/183/183 189/189/189 181/181/181
f 181/181/181 189/189/189 187/187/187
f 184/184/184 190/190/190 183/183/183
f 184/184/184 185/185/185 190/190/190
f 183/183/183 190/190/190 189/189/189
f 185/185/185 186/186/186 191/191/191
f 185/185/185 191/191/191 190/190/190
f 186/186/186 192/192/192 191/191/191
f 187/187/187 193/193/193 188/188/188
f 188/188/188 193/193/193 194/194/194
f 189/189/189 195/195/195 187/187/187
f 187/187/187 195/195/195 193/193/193
f 190/190/190 196/196/196 189/189/189
f 190/190/190 191/191/191 196/196/196
f 189/189/189 196/196/196 195/195/195
f 191/191/191 192/192/192 197/197/197
f 191/191/191 197/197/197 196/196/196
f 192/192/192 198/198/198 197/197/197
f 193/193/193 199/199/199 194/194/194
f 194/194/194 199/199/199 200/200/200
f 195/195/195 201/201/201 193/193/193
f 193/193/193 201/201/201 199/199/199
f 196/196/196 202/202/202 195/195/195
f 196/196/196 197/197/197 202/202/202
f 195/195/195 202/202/202 201/201/201
f 197/197/197 198/198/198 203/203/203
f 197/197/197 203/203/203 202/202/202
f 198/198/198 204/204/204 203/203/203
f 199/199/199 205/205/205 200/200/200
f 200/200/200 205/205/205 206/206/206
f 201/201/201 207/207/207 199/199/199
f 199/199/199 207/207/207 205/205/205
f 202/202/202 208/208/208 201/201/201
f 202/202/202 203/203/203 208/208/208
f 201/201/201 208/208/208 207/207/207
f 203/203/203 204/204/204 209/209/209
f 203/203/203 209/209/209 208/208/208
f 204/204/204 210/210/210 209/209/209
f 205/205/205 211/211/211 206/206/206
f 206/206/206 211/211/211 212/212/212
f 207/207/207 213/213/213 205/205/205
f 205/205/205 213/213/213 211/211/211
f 208/208/208 214/214/214 207/207/207
f 208/208/208 209/209/209 214/214/214
f 207/207/207 214/214/214 213/213/213
f 209/209/209 210/210/210 215/215/215
f 209/209/209 215/215/215 214/214/214
f 210/210/210 216/216/216 215/215/215
f 211/211/211 217/217/217 212/212/212
f 212/212/212 217/217/217 218/218/218
f 213/213/213 219/219/219 211/211/211
f 211/211/211 219/219/219 217/217/217
f 214/214/214 220/220/220 213/213/213
f 214/214/214 215/215/215 220/220/220
f 213/213/213 220/220/220 219/219/219
f 215/215/215 216/216/216 221/221/221
f 215/215/215 221/221/221 220/220/220
f 216/216/216 222/222/222 221/221/221
f 217/217/217 223/223/223 218/218/218
f 218/218/218 223/223/223 224/224/224
f 219/219/219 225/225/225 217/217/217
f 217/217/217 225/225/225 223/223/223
f 220/220/220 226/226/226 219/219/219
f 220/220/220 221/221/221 226/226/226
f 219/219/219 226/226/226 225/225/225
f 221/221/221 222/222/222 227/227/227
f 221/221/221 227/227/227 226/226/226
f 222/222/222 228/228/228 227/227/227
f 223/223/223 229/229/229 224/224/224
f 224/224/224 229/229/229 230/230/230
f 229/229/229 231/231/231 230/230/230
f 225/225/225 232/232/232 223/223/223
f 223/223/223 232/232/232 229/229/229
f 226/226/226 233/233/233 225/225/225
f 226/226/226 227/227/227 233/233/233
f 225/225/225 233/233/233 232/232/232
f 227/227/227 228/228/228 234/234/234
f 227/227/227 234/234/234 233/233/233
f 228/228/228 235/235/235 234/234/234
f 229/229/229 236/236/236 231/231/231
f 232/232/232 236/236/236 229/229/229
f 236/236/236 237/237/237 231/231/231
f 233/233/233 238/238/238 232/232/232
f 233/233/233 234/234/234 238/238/238
f 232/232/232 238/238/238 236/236/236
f 234/234/234 235/235/235 239/239/239
f 234/234/234 239/239/239 238/238/238
f 235/235/235 240/240/240 239/239/239
f 236/236/236 241/241/241 237/237/237
f 238/238/238 241/241/241 236/236/236
f 238/238/238 239/239/239 241/241/241
f 241/241/241 242/242/242 237/237/237
f 239/239/239 240/240/240 243/243/243
f 239/239/239 243/243/243 241/241/241
f 241/241/241 243/243/243 242/242/242
f 240/240/240 244/244/244 243/243/243
f 243/243/243 245/245/245 242/242/242
f 243/243/243 244/244/244 245/245/245
f 244/244/244 246/246/246 245/245/245
