g ZiMoCaiShen_Mesh:MaJiang
v -0.538536608 0.110802561 0.441285998
v -0.538536608 0.0288080964 0.413954526
v -0.611419678 0.0379162543 0.404842824
v -0.620531321 0.110802568 0.413954496
v -0.538536608 1.53812265 0.441285968
v -0.620531321 1.53812265 0.413954496
v -0.611419678 1.61100554 0.404842794
v -0.538536608 1.62011719 0.413954467
v 0.538536847 1.53812265 0.441285968
v -0.538536608 1.62011719 0.413954467
v 0.538536847 1.62011719 0.413954467
v 0.538536847 0.110802561 0.441285998
v 0.538536847 0.0288080964 0.413954526
v -0.538536608 0.0288080964 0.413954526
v 0.620531619 1.53812265 0.413954496
v 0.611423194 1.61100554 0.404842794
v 0.538536847 1.62011719 0.413954467
v 0.620531619 0.110802568 0.413954496
v 0.611423194 0.0379162543 0.404842824
v 0.538536847 0.0288080964 0.413954526
v 0.538536847 0.00147644023 0.331959903
v 0.538536847 0.0288080964 0.413954526
v 0.611423194 0.0379162543 0.404842824
v 0.620531619 0.0288081355 0.331959903
v 0.538536847 0.00147644035 -0.331959784
v 0.620531619 0.0288081169 -0.331959754
v 0.611423194 0.037916258 -0.404846221
v 0.538536847 0.0288081355 -0.413954377
v -0.538536608 0.00147644023 0.331959903
v -0.538536608 0.0288080964 0.413954526
v 0.538536847 0.0288080964 0.413954526
v -0.538536608 0.00147644035 -0.331959784
v 0.538536847 0.0288081355 -0.413954377
v -0.538536608 0.0288081355 -0.413954377
v -0.620531321 0.0288081169 -0.331959754
v -0.611419678 0.037916258 -0.404846221
v -0.538536608 0.0288081355 -0.413954377
v -0.620531321 0.0288081355 0.331959903
v -0.611419678 0.0379162543 0.404842824
v -0.538536608 0.0288080964 0.413954526
v -0.647862673 0.110802561 -0.331959784
v -0.620531321 0.0288081169 -0.331959754
v -0.611419678 0.037916258 -0.404846221
v -0.620531321 0.110802561 -0.413954377
v -0.647862673 1.53812265 -0.331959873
v -0.620531321 1.53812265 -0.413954318
v -0.611419678 1.61100554 -0.404846191
v -0.620531321 1.62011719 -0.331959873
v -0.647862673 1.53812265 0.331959873
v -0.620531321 1.62011719 -0.331959873
v -0.620531321 1.62011719 0.331959844
v -0.647862673 0.110802568 0.331959903
v -0.620531321 0.0288081355 0.331959903
v -0.620531321 0.0288081169 -0.331959754
v -0.620531321 1.53812265 0.413954496
v -0.611419678 1.61100554 0.404842794
v -0.620531321 1.62011719 0.331959844
v -0.620531321 0.110802568 0.413954496
v -0.611419678 0.0379162543 0.404842824
v -0.620531321 0.0288081355 0.331959903
v 0.647862971 1.53812265 0.331959873
v 0.611423194 1.61100554 0.404842794
v 0.620531619 1.62011719 0.331959844
v 0.620531619 1.53812265 0.413954496
v 0.620531619 0.110802568 0.413954496
v 0.647862971 0.110802568 0.331959903
v 0.611423194 0.0379162543 0.404842824
v 0.620531619 0.0288081355 0.331959903
v 0.647862971 1.53812265 -0.331959873
v 0.620531619 1.62011719 0.331959844
v 0.620531619 1.62011719 -0.331959873
v 0.647862971 0.110802561 -0.331959784
v 0.620531619 0.0288081169 -0.331959754
v 0.620531619 0.0288081355 0.331959903
v 0.620531619 1.53812265 -0.413954318
v 0.611423194 1.61100554 -0.404846191
v 0.620531619 1.62011719 -0.331959873
v 0.620531619 0.110802561 -0.413954377
v 0.611423194 0.037916258 -0.404846221
v 0.620531619 0.0288081169 -0.331959754
v 0.538536847 1.53812265 -0.441285849
v 0.611423194 1.61100554 -0.404846191
v 0.538536847 1.62011719 -0.413954467
v 0.620531619 1.53812265 -0.413954318
v 0.620531619 0.110802561 -0.413954377
v 0.538536847 0.110802568 -0.441285878
v 0.611423194 0.037916258 -0.404846221
v 0.538536847 0.0288081355 -0.413954377
v -0.538536608 1.53812265 -0.441285849
v 0.538536847 1.62011719 -0.413954467
v -0.538536608 1.62011719 -0.413954467
v -0.538536608 0.110802568 -0.441285878
v -0.538536608 0.0288081355 -0.413954377
v 0.538536847 0.0288081355 -0.413954377
v -0.620531321 1.53812265 -0.413954318
v -0.611419678 1.61100554 -0.404846191
v -0.538536608 1.62011719 -0.413954467
v -0.620531321 0.110802561 -0.413954377
v -0.611419678 0.037916258 -0.404846221
v -0.538536608 0.0288081355 -0.413954377
v 0.538536847 1.62011719 0.413954467
v -0.538536608 1.62011719 0.413954467
v -0.538536608 1.64744902 0.331959993
v 0.538536847 1.64744902 0.331959993
v 0.538536847 1.6474489 -0.331959873
v 0.620531619 1.62011719 -0.331959873
v 0.620531619 1.62011719 0.331959844
v 0.611423194 1.61100554 0.404842794
v 0.538536847 1.62011719 0.413954467
v 0.611423194 1.61100554 -0.404846191
v 0.538536847 1.62011719 -0.413954467
v -0.538536608 1.6474489 -0.331959873
v -0.538536608 1.62011719 -0.413954467
v 0.538536847 1.62011719 -0.413954467
v -0.620531321 1.62011719 0.331959844
v -0.611419678 1.61100554 0.404842794
v -0.538536608 1.62011719 0.413954467
v -0.620531321 1.62011719 -0.331959873
v -0.611419678 1.61100554 -0.404846191
v -0.538536608 1.62011719 -0.413954467
vt 0.751953959 0.717291772
vt 0.751953959 0.70798713
vt 0.742485106 0.70798713
vt 0.742485106 0.717291772
vt 0.751953959 0.879380763
vt 0.742485106 0.879380763
vt 0.742485106 0.888685048
vt 0.751953959 0.888685048
vt 0.876431406 0.879380763
vt 0.751953959 0.888685048
vt 0.876431406 0.888685048
vt 0.876431406 0.717291772
vt 0.876431406 0.70798713
vt 0.751953959 0.70798713
vt 0.885900617 0.879380763
vt 0.885900617 0.888685048
vt 0.876431406 0.888685048
vt 0.885900617 0.717291772
vt 0.885900617 0.70798713
vt 0.876431406 0.70798713
vt 0.876525223 0.690636456
vt 0.876525223 0.699942529
vt 0.885995746 0.699942529
vt 0.885995746 0.690636456
vt 0.876525223 0.615226567
vt 0.885995746 0.615226567
vt 0.885995746 0.605920017
vt 0.876525223 0.605920017
vt 0.752024591 0.690636456
vt 0.752024591 0.699942529
vt 0.876525223 0.699942529
vt 0.752024591 0.615226567
vt 0.876525223 0.605920017
vt 0.752024591 0.605920017
vt 0.742553651 0.615226567
vt 0.742553651 0.605920017
vt 0.752024591 0.605920017
vt 0.742553651 0.690636456
vt 0.742553651 0.699942529
vt 0.752024591 0.699942529
vt 0.647280157 0.716480553
vt 0.647280157 0.707175195
vt 0.63781023 0.707175195
vt 0.63781023 0.716480553
vt 0.647280157 0.87858361
vt 0.63781023 0.87858361
vt 0.63781023 0.887888968
vt 0.647280157 0.887888968
vt 0.724015594 0.87858361
vt 0.647280157 0.887888968
vt 0.724015594 0.887888968
vt 0.724015594 0.716480553
vt 0.724015594 0.707175195
vt 0.647280157 0.707175195
vt 0.733485699 0.87858361
vt 0.733485699 0.887888968
vt 0.724015594 0.887888968
vt 0.733485699 0.716480553
vt 0.733485699 0.707175195
vt 0.724015594 0.707175195
vt 0.903930306 0.879121602
vt 0.894460618 0.88842684
vt 0.903930306 0.88842684
vt 0.894460618 0.879121602
vt 0.894460618 0.717018545
vt 0.903930306 0.717018545
vt 0.894460618 0.707713306
vt 0.903930306 0.707713306
vt 0.980666161 0.879121602
vt 0.903930306 0.88842684
vt 0.980666161 0.88842684
vt 0.980666161 0.717018545
vt 0.980666161 0.707713306
vt 0.903930306 0.707713306
vt 0.990136087 0.879121602
vt 0.990136087 0.88842684
vt 0.980666161 0.88842684
vt 0.990136087 0.717018545
vt 0.990136087 0.707713306
vt 0.980666161 0.707713306
vt 0.854179144 0.588453472
vt 0.844709873 0.597757995
vt 0.854179144 0.597757995
vt 0.844709873 0.588453472
vt 0.844709873 0.426364571
vt 0.854179144 0.426364571
vt 0.844709873 0.417059958
vt 0.854179144 0.417059958
vt 0.97865659 0.588453472
vt 0.854179144 0.597757995
vt 0.97865659 0.597757995
vt 0.97865659 0.426364571
vt 0.97865659 0.417059958
vt 0.854179144 0.417059958
vt 0.988125503 0.588453472
vt 0.988125503 0.597757995
vt 0.97865659 0.597757995
vt 0.988125503 0.426364571
vt 0.988125503 0.417059958
vt 0.97865659 0.417059958
vt 0.876198292 0.896669567
vt 0.751697719 0.896669567
vt 0.751697719 0.905975401
vt 0.876198292 0.905975401
vt 0.876198292 0.981385648
vt 0.88566941 0.981385648
vt 0.88566941 0.905975401
vt 0.88566941 0.896669567
vt 0.876198292 0.896669567
vt 0.88566941 0.99069196
vt 0.876198292 0.99069196
vt 0.751697719 0.981385648
vt 0.751697719 0.99069196
vt 0.876198292 0.99069196
vt 0.74222666 0.905975401
vt 0.74222666 0.896669567
vt 0.751697719 0.896669567
vt 0.74222666 0.981385648
vt 0.74222666 0.99069196
vt 0.751697719 0.99069196
vn -0.139240175 -0.139260203 0.980417609
vn -0.115763217 -0.279172361 0.953237474
vn -0.235707149 -0.235707149 0.942806542
vn -0.2791574 -0.115757987 0.953242481
vn -0.139240175 0.139260262 0.980417609
vn -0.279162675 0.115763433 0.953240275
vn -0.235712007 0.235712737 0.942803979
vn -0.115762711 0.27916342 0.953240156
vn 0.139240175 0.139260262 0.980417609
vn -0.115766592 0.279164135 0.953239441
vn 0.115766585 0.279164135 0.953239441
vn 0.139240175 -0.139260203 0.980417609
vn 0.11576657 -0.279163718 0.95323956
vn -0.115766563 -0.279163718 0.95323956
vn 0.279162914 0.115766607 0.953239858
vn 0.23570627 0.235707477 0.94280678
vn 0.115757063 0.279157728 0.953242481
vn 0.279162914 -0.11576654 0.953239858
vn 0.23570247 -0.235702559 0.942808867
vn 0.115758717 -0.279167324 0.953239441
vn 0.139240175 -0.980417609 0.139260232
vn 0.115746439 -0.953244746 0.279154509
vn 0.235687956 -0.942816198 0.235687837
vn 0.279152811 -0.953245282 0.115745932
vn 0.139240175 -0.980417609 -0.139260232
vn 0.27914682 -0.953247547 -0.11574135
vn 0.235682458 -0.94281882 -0.235683098
vn 0.115740694 -0.953247547 -0.279147387
vn -0.139240175 -0.980417609 0.139260232
vn -0.115761295 -0.953244388 0.279149354
vn 0.115761288 -0.953244388 0.279149354
vn -0.139240175 -0.980417609 -0.139260232
vn 0.11576131 -0.953244328 -0.27914992
vn -0.115761302 -0.953244328 -0.27914992
vn -0.279149383 -0.953244388 -0.115761295
vn -0.23568733 -0.942816377 -0.235687822
vn -0.115745395 -0.953245521 -0.279152513
vn -0.279149354 -0.953244388 0.115761295
vn -0.235692844 -0.942813873 0.235692501
vn -0.115751132 -0.95324266 0.279159516
vn -0.980417609 -0.139260277 -0.139240175
vn -0.953239739 -0.279166937 -0.115757123
vn -0.942809403 -0.235702187 -0.23570098
vn -0.953239977 -0.115758441 -0.279165745
vn -0.980417609 0.139260173 -0.139240175
vn -0.953243434 0.115757316 -0.27915448
vn -0.942806959 0.235706851 -0.23570618
vn -0.95324266 0.279157072 -0.115756974
vn -0.980417609 0.139260173 0.139240175
vn -0.95323956 0.279163718 -0.1157666
vn -0.95323956 0.279163718 0.115766592
vn -0.980417609 -0.139260277 0.139240175
vn -0.953239739 -0.279163033 0.11576657
vn -0.953239739 -0.279163003 -0.115766555
vn -0.953240752 0.11576283 0.279161304
vn -0.942804515 0.235712081 0.235710651
vn -0.953240514 0.279162645 0.115761213
vn -0.953242779 -0.115757905 0.279156446
vn -0.94280684 -0.235706985 0.235706121
vn -0.953243315 -0.279155314 0.115756534
vn 0.980417609 0.139260173 0.139240175
vn 0.942813635 0.235693604 0.235692233
vn 0.953242481 0.279160559 0.115750201
vn 0.95324266 0.115751676 0.279159278
vn 0.953244746 -0.115746759 0.27915442
vn 0.980417609 -0.139260277 0.139240175
vn 0.942816079 -0.235688508 0.235687762
vn 0.953245282 -0.279153198 0.1157455
vn 0.980417609 0.139260173 -0.139240175
vn 0.953244925 0.279147595 0.115761332
vn 0.953244925 0.279147536 -0.115761317
vn 0.980417609 -0.139260277 -0.139240175
vn 0.953245163 -0.27914694 -0.11576131
vn 0.953245163 -0.27914688 0.115761295
vn 0.953245163 0.115761302 -0.279146999
vn 0.942816198 0.235688314 -0.235687837
vn 0.953244746 0.279154927 -0.115745991
vn 0.953245163 -0.115761317 -0.279146999
vn 0.942818701 -0.235683307 -0.235682607
vn 0.953247428 -0.279147536 -0.115740508
vn 0.139240175 0.139260262 -0.980417609
vn 0.235686988 0.235686243 -0.942816794
vn 0.115745351 0.27915287 -0.953245401
vn 0.279151857 0.115744226 -0.953245819
vn 0.279146492 -0.115740962 -0.953247786
vn 0.139240175 -0.139260203 -0.980417609
vn 0.235682026 -0.235682771 -0.94281894
vn 0.11574018 -0.279147059 -0.953247666
vn -0.139240175 0.139260262 -0.980417609
vn 0.115761302 0.279147148 -0.953245044
vn -0.115761288 0.279147148 -0.953245044
vn -0.139240175 -0.139260203 -0.980417609
vn -0.115761302 -0.279148489 -0.953244746
vn 0.115761295 -0.279148459 -0.953244746
vn -0.279147416 0.115761317 -0.953244925
vn -0.23569265 0.235691383 -0.942814171
vn -0.115750857 0.279158413 -0.953243136
vn -0.279147387 -0.115761235 -0.953244925
vn -0.235686734 -0.235687301 -0.942816615
vn -0.115744755 -0.279151946 -0.953245699
vn 0.1157666 0.953238249 0.279168367
vn -0.115766592 0.953238249 0.279168367
vn -0.13924019 0.980417728 0.139259949
vn 0.13924019 0.980417728 0.139259949
vn 0.139240175 0.980417609 -0.139260501
vn 0.279165834 0.953238964 -0.115766808
vn 0.279165983 0.953238964 0.115766354
vn 0.235708892 0.942805588 0.235709578
vn 0.115759961 0.953241467 0.279159904
vn 0.235702991 0.942808688 -0.235703215
vn 0.115759321 0.953239202 -0.279168069
vn -0.139240175 0.980417609 -0.139260501
vn -0.115766555 0.953238904 -0.279166013
vn 0.115766555 0.953238904 -0.279166013
vn -0.279166192 0.953238904 0.115766361
vn -0.235713631 0.942803025 0.235714808
vn -0.115764536 0.953239322 0.279165566
vn -0.279166013 0.953238904 -0.115766779
vn -0.235707834 0.942806304 -0.235707358
vn -0.115764081 0.953237236 -0.279172629
g ZiMoCaiShen_Mesh:MaJiang_0
f 3/3/3 2/2/2 1/1/1
f 4/4/4 3/3/3 1/1/1
f 1/1/1 5/5/5 4/4/4
f 5/5/5 6/6/6 4/4/4
f 7/7/7 6/6/6 5/5/5
f 8/8/8 7/7/7 5/5/5
f 5/5/5 1/1/1 9/9/9
f 10/10/10 5/5/5 9/9/9
f 11/11/11 10/10/10 9/9/9
f 1/1/1 12/12/12 9/9/9
f 13/13/13 12/12/12 1/1/1
f 14/14/14 13/13/13 1/1/1
f 9/9/9 12/12/12 15/15/15
f 15/15/15 16/16/16 9/9/9
f 16/16/16 17/17/17 9/9/9
f 12/12/12 18/18/18 15/15/15
f 19/19/19 18/18/18 12/12/12
f 20/20/20 19/19/19 12/12/12
f 23/23/23 22/22/22 21/21/21
f 24/24/24 23/23/23 21/21/21
f 21/21/21 25/25/25 24/24/24
f 25/25/25 26/26/26 24/24/24
f 27/27/27 26/26/26 25/25/25
f 28/28/28 27/27/27 25/25/25
f 21/21/21 29/29/29 25/25/25
f 29/29/29 21/21/21 30/30/30
f 21/21/21 31/31/31 30/30/30
f 29/29/29 32/32/32 25/25/25
f 25/25/25 32/32/32 33/33/33
f 32/32/32 34/34/34 33/33/33
f 32/32/32 29/29/29 35/35/35
f 35/35/35 36/36/36 32/32/32
f 36/36/36 37/37/37 32/32/32
f 29/29/29 38/38/38 35/35/35
f 39/39/39 38/38/38 29/29/29
f 40/40/40 39/39/39 29/29/29
f 43/43/43 42/42/42 41/41/41
f 44/44/44 43/43/43 41/41/41
f 44/44/44 41/41/41 45/45/45
f 46/46/46 44/44/44 45/45/45
f 47/47/47 46/46/46 45/45/45
f 48/48/48 47/47/47 45/45/45
f 45/45/45 41/41/41 49/49/49
f 50/50/50 45/45/45 49/49/49
f 51/51/51 50/50/50 49/49/49
f 41/41/41 52/52/52 49/49/49
f 53/53/53 52/52/52 41/41/41
f 54/54/54 53/53/53 41/41/41
f 55/55/55 49/49/49 52/52/52
f 55/55/55 56/56/56 49/49/49
f 56/56/56 57/57/57 49/49/49
f 58/58/58 55/55/55 52/52/52
f 59/59/59 58/58/58 52/52/52
f 60/60/60 59/59/59 52/52/52
f 63/63/63 62/62/62 61/61/61
f 62/62/62 64/64/64 61/61/61
f 64/64/64 65/65/65 61/61/61
f 65/65/65 66/66/66 61/61/61
f 65/65/65 67/67/67 66/66/66
f 67/67/67 68/68/68 66/66/66
f 61/61/61 66/66/66 69/69/69
f 70/70/70 61/61/61 69/69/69
f 71/71/71 70/70/70 69/69/69
f 66/66/66 72/72/72 69/69/69
f 73/73/73 72/72/72 66/66/66
f 74/74/74 73/73/73 66/66/66
f 69/69/69 72/72/72 75/75/75
f 75/75/75 76/76/76 69/69/69
f 76/76/76 77/77/77 69/69/69
f 72/72/72 78/78/78 75/75/75
f 79/79/79 78/78/78 72/72/72
f 80/80/80 79/79/79 72/72/72
f 83/83/83 82/82/82 81/81/81
f 82/82/82 84/84/84 81/81/81
f 84/84/84 85/85/85 81/81/81
f 85/85/85 86/86/86 81/81/81
f 85/85/85 87/87/87 86/86/86
f 87/87/87 88/88/88 86/86/86
f 81/81/81 86/86/86 89/89/89
f 90/90/90 81/81/81 89/89/89
f 91/91/91 90/90/90 89/89/89
f 86/86/86 92/92/92 89/89/89
f 93/93/93 92/92/92 86/86/86
f 94/94/94 93/93/93 86/86/86
f 89/89/89 92/92/92 95/95/95
f 95/95/95 96/96/96 89/89/89
f 96/96/96 97/97/97 89/89/89
f 92/92/92 98/98/98 95/95/95
f 99/99/99 98/98/98 92/92/92
f 100/100/100 99/99/99 92/92/92
f 103/103/103 102/102/102 101/101/101
f 104/104/104 103/103/103 101/101/101
f 103/103/103 104/104/104 105/105/105
f 105/105/105 104/104/104 106/106/106
f 104/104/104 107/107/107 106/106/106
f 108/108/108 107/107/107 104/104/104
f 109/109/109 108/108/108 104/104/104
f 106/106/106 110/110/110 105/105/105
f 110/110/110 111/111/111 105/105/105
f 112/112/112 103/103/103 105/105/105
f 112/112/112 105/105/105 113/113/113
f 105/105/105 114/114/114 113/113/113
f 103/103/103 112/112/112 115/115/115
f 115/115/115 116/116/116 103/103/103
f 116/116/116 117/117/117 103/103/103
f 112/112/112 118/118/118 115/115/115
f 119/119/119 118/118/118 112/112/112
f 120/120/120 119/119/119 112/112/112
