g Plane001
v -0.00359218195 -0.0174633488 -3.04347658E-08
v -0.00349858357 -0.0150988484 -3.0315249E-08
v -1.78149843 0.000796264503 -1.56667568E-07
v -1.77654719 0.117501982 -1.50744597E-07
v -3.55940437 0.0190558806 -2.82900345E-07
v -0.00336719607 -0.0138295824 -3.02452854E-08
v -3.54959536 0.250102788 -2.71173917E-07
v -1.76426375 0.23219426 -1.4439351E-07
v -0.0032681711 -0.013238484 -3.02099963E-08
v -3.52516007 0.478218079 -2.58541689E-07
v -1.74487948 0.344635606 -1.37642189E-07
v -0.0032080973 -0.0129836546 -3.01935472E-08
v -3.48649073 0.702509642 -2.45074403E-07
v -1.71862566 0.454591274 -1.30518373E-07
v -0.00315228687 -0.0128020281 -3.01808853E-08
v -3.43404341 0.922166288 -2.30843241E-07
v -1.68573523 0.561826885 -1.23049901E-07
v -0.00304182852 -0.0125115905 -3.01591321E-08
v -3.36831808 1.13645577 -2.15918917E-07
v -1.64644015 0.666108906 -1.15264513E-07
v -0.00281093176 -0.0120027075 -3.01183434E-08
v -3.28983831 1.3447293 -2.00369897E-07
v -1.60097265 0.767204106 -1.07189891E-07
v -0.00240359223 -0.011232066 -3.00524476E-08
v -3.19913435 1.54641104 -1.84261438E-07
v -1.54956615 0.864879847 -9.88538602E-08
v -0.00177950261 -0.0102080004 -2.99589615E-08
v -3.0967288 1.74099183 -1.67655301E-07
v -1.49245203 0.958904743 -9.02840114E-08
v -0.000923740852 -0.00897774659 -2.98390823E-08
v -2.98312449 1.92801762 -1.50609068E-07
v -1.42986274 1.04904759 -8.15079773E-08
v 0.000150418229 -0.00761687988 -2.96973468E-08
v -2.85880136 2.10707283 -1.33176826E-07
v -1.36203003 1.13507664 -7.25534122E-08
v 0.00140353933 -0.00621260516 -2.95407538E-08
v -2.7242105 2.27777004 -1.15409492E-07
v -1.28918481 1.21676147 -6.34477644E-08
v 0.00277264183 -0.0048527075 -2.93779827E-08
v -2.57977319 2.43973565 -9.73547785E-08
v -1.21155894 1.29387093 -5.42186882E-08
v 0.00417662598 -0.00361654232 -2.92186186E-08
v -2.42589045 2.59259439 -7.90593688E-08
v -1.12938333 1.36617374 -4.48937172E-08
v 0.00552702742 -0.00256515318 -2.90719093E-08
v -2.26294327 2.73596406 -6.05687802E-08
v -1.04288888 1.43343914 -3.55003564E-08
v 0.00673741894 -0.0017346805 -2.89457489E-08
v -2.09130454 2.86944342 -4.19287538E-08
v -0.952306032 1.49543583 -2.60661182E-08
v 0.00773561373 -0.00113578292 -2.88458093E-08
v -1.91134942 2.9926064 -2.31864554E-08
v -0.857866883 1.5519309 -1.66187348E-08
v 0.00847694464 -0.000750050589 -2.87744033E-08
v -1.72346926 3.10499763 -4.39162395E-09
v -0.759802043 1.60269368 -7.18567517E-09
v 0.00895801932 -0.000536207051 -2.87298079E-08
v -1.52808106 3.20613742 1.44030912E-08
v -0.658343554 1.64749074 2.2053297E-09
v 0.00923014432 -0.000434662827 -2.87055055E-08
v -1.32564521 3.29551744 3.31405374E-08
v -0.553723991 1.68609047 1.15265806E-08
v 0.00940934848 -0.000381177699 -2.86901418E-08
v -1.11667812 3.3726151 5.17587608E-08
v -0.446176589 1.71825945 2.07502975E-08
v 0.00968716573 -0.000317809492 -2.86672588E-08
v -0.901762605 3.43690014 7.01907652E-08
v -0.335934669 1.74376643 2.98487386E-08
v 0.0103350673 -0.000213746025 -2.86159771E-08
v -0.681556523 3.48785067 8.83647715E-08
v -0.223232925 1.7623781 3.87939956E-08
v 0.0117035517 -8.19710403E-05 -2.85118507E-08
v -0.456800938 3.52497005 1.06204006E-07
v -0.108307041 1.7738632 4.75582063E-08
v 0.0142197218 -3.86725674E-07 -2.83280759E-08
v -0.228317603 3.54780817 1.23628382E-07
v 0.00860653911 1.77799082 5.61134677E-08
v 0.0168703999 -6.97621799E-05 -2.81418711E-08
v 0.0029933569 3.55598211 1.40554974E-07
v 0.125698298 1.77459645 6.43224922E-08
v 0.0183311868 -0.000201730785 -2.8043738E-08
v 0.234526217 3.54926229 1.56786825E-07
v 0.240829438 1.76382172 7.20391355E-08
v 0.0190326702 -0.000309863681 -2.79987447E-08
v 0.463327676 3.52784514 1.72122071E-07
v 0.353759289 1.74589789 7.92573047E-08
v 0.0193328224 -0.000376138662 -2.79804482E-08
v 0.68848592 3.49210548 1.86513446E-07
v 0.464252472 1.72105658 8.59711733E-08
v 0.0195119772 -0.000428267231 -2.79701275E-08
v 0.909171999 3.44248915 1.99922894E-07
v 0.572074473 1.68953001 9.21750569E-08
v 0.0197687447 -0.000522253744 -2.79562595E-08
v 1.12463689 3.37948823 2.12320217E-07
v 0.676991105 1.65154994 9.78633068E-08
v 0.0202261787 -0.000722532219 -2.79331083E-08
v 1.3342135 3.30362225 2.23682875E-07
v 0.778769195 1.60734975 1.03030352E-07
v 0.0209417846 -0.00108937023 -2.78994587E-08
v 1.53731215 3.21542192 2.33993916E-07
v 0.877176583 1.55716157 1.07670687E-07
v 0.021915853 -0.00166627287 -2.7857352E-08
v 1.73341143 3.11541247 2.43240805E-07
v 0.971981347 1.5012176 1.1177881E-07
v 0.0231084153 -0.00247358787 -2.78106178E-08
v 1.92204678 3.00410151 2.51415031E-07
v 1.06295204 1.43975008 1.15349259E-07
v 0.0244490318 -0.00350472634 -2.77639742E-08
v 2.1027956 2.88197374 2.58509147E-07
v 1.1498574 1.37299085 1.18376562E-07
v 0.0258516595 -0.00472529139 -2.77219439E-08
v 2.27526569 2.74948645 2.64517155E-07
v 1.23246622 1.30117106 1.20855219E-07
v 0.0272278339 -0.00607617805 -2.76880208E-08
v 2.43908095 2.60706735 2.69432434E-07
v 1.31054831 1.22452235 1.22779866E-07
v 0.0284955874 -0.00748006487 -2.76643881E-08
v 2.59386873 2.45512056 2.73247679E-07
v 1.38387179 1.14327574 1.24144862E-07
v 0.0295894146 -0.00884926412 -2.76515237E-08
v 2.73924828 2.29403162 2.75954136E-07
v 1.4522059 1.05766201 1.24944791E-07
v 0.0304676555 -0.0100952154 -2.76481842E-08
v 2.87482262 2.12417316 2.77541062E-07
v 1.51531947 0.967912316 1.25174139E-07
v 0.0311138369 -0.0111425351 -2.76519714E-08
v 3.00017142 1.94591999 2.77996435E-07
v 1.57297969 0.874257505 1.24827253E-07
v 0.0315412357 -0.0119391438 -2.76594232E-08
v 3.11484551 1.75965774 2.77306469E-07
v 1.62495601 0.77692908 1.23898729E-07
v 0.0317871496 -0.0124723949 -2.76672871E-08
v 3.21837091 1.56579733 2.7545687E-07
v 1.67101586 0.676158965 1.22383014E-07
v 0.0319062322 -0.012780807 -2.76734955E-08
v 3.3102448 1.36479032 2.72433311E-07
v 1.71092558 0.5721789 1.20274436E-07
v 0.0319645591 -0.0129662128 -2.76781709E-08
v 3.38994527 1.15713871 2.68222408E-07
v 1.74445379 0.465222359 1.17567581E-07
v 0.0320221148 -0.0132037466 -2.76853918E-08
v 3.45694351 0.943410993 2.62813415E-07
v 1.77136803 0.355522543 1.14257034E-07
v 0.0321170725 -0.0137481904 -2.77045871E-08
v 3.51071429 0.724248827 2.56199485E-07
v 1.79143584 0.243314222 1.10337297E-07
v 0.0322471 -0.0149340313 -2.77518808E-08
v 3.55075502 0.500376642 2.48379195E-07
v 1.80442512 0.128832549 1.05803039E-07
v 0.03234981 -0.0171718672 -2.78513159E-08
v 3.57660365 0.272599131 2.3935803E-07
v 1.8101052 0.0123137459 1.00649039E-07
v 3.5878613 0.041799359 2.29149393E-07
vt 0.999999583 0
vt 0.979999602 0
vt 0.999999583 0.5
vt 0.979999602 0.5
vt 0.999999583 1
vt 0.959999621 0
vt 0.979999602 1
vt 0.959999621 0.5
vt 0.93999964 0
vt 0.959999621 1
vt 0.93999964 0.5
vt 0.919999659 0
vt 0.93999964 1
vt 0.919999659 0.5
vt 0.899999678 0
vt 0.919999659 1
vt 0.899999678 0.5
vt 0.879999697 0
vt 0.899999678 1
vt 0.879999697 0.5
vt 0.859999716 0
vt 0.879999697 1
vt 0.859999716 0.5
vt 0.839999735 0
vt 0.859999716 1
vt 0.839999735 0.5
vt 0.819999754 0
vt 0.839999735 1
vt 0.819999754 0.5
vt 0.799999774 0
vt 0.819999754 1
vt 0.799999774 0.5
vt 0.779999793 0
vt 0.799999774 1
vt 0.779999793 0.5
vt 0.759999812 0
vt 0.779999793 1
vt 0.759999812 0.5
vt 0.739999831 0
vt 0.759999812 1
vt 0.739999831 0.5
vt 0.71999985 0
vt 0.739999831 1
vt 0.71999985 0.5
vt 0.699999869 0
vt 0.71999985 1
vt 0.699999869 0.5
vt 0.679999888 0
vt 0.699999869 1
vt 0.679999888 0.5
vt 0.659999907 0
vt 0.679999888 1
vt 0.659999907 0.5
vt 0.639999926 0
vt 0.659999907 1
vt 0.639999926 0.5
vt 0.619999945 0
vt 0.639999926 1
vt 0.619999945 0.5
vt 0.599999964 0
vt 0.619999945 1
vt 0.599999964 0.5
vt 0.579999983 0
vt 0.599999964 1
vt 0.579999983 0.5
vt 0.560000002 0
vt 0.579999983 1
vt 0.560000002 0.5
vt 0.540000021 0
vt 0.560000002 1
vt 0.540000021 0.5
vt 0.520000041 0
vt 0.540000021 1
vt 0.520000041 0.5
vt 0.50000006 0
vt 0.520000041 1
vt 0.50000006 0.5
vt 0.480000079 0
vt 0.50000006 1
vt 0.480000079 0.5
vt 0.460000068 0
vt 0.480000079 1
vt 0.460000068 0.5
vt 0.440000057 0
vt 0.460000068 1
vt 0.440000057 0.5
vt 0.420000046 0
vt 0.440000057 1
vt 0.420000046 0.5
vt 0.400000036 0
vt 0.420000046 1
vt 0.400000036 0.5
vt 0.380000025 0
vt 0.400000036 1
vt 0.380000025 0.5
vt 0.360000014 0
vt 0.380000025 1
vt 0.360000014 0.5
vt 0.340000004 0
vt 0.360000014 1
vt 0.340000004 0.5
vt 0.319999993 0
vt 0.340000004 1
vt 0.319999993 0.5
vt 0.299999982 0
vt 0.319999993 1
vt 0.299999982 0.5
vt 0.279999971 0
vt 0.299999982 1
vt 0.279999971 0.5
vt 0.259999961 0
vt 0.279999971 1
vt 0.259999961 0.5
vt 0.239999965 0
vt 0.259999961 1
vt 0.239999965 0.5
vt 0.219999969 0
vt 0.239999965 1
vt 0.219999969 0.5
vt 0.199999973 0
vt 0.219999969 1
vt 0.199999973 0.5
vt 0.179999977 0
vt 0.199999973 1
vt 0.179999977 0.5
vt 0.159999982 0
vt 0.179999977 1
vt 0.159999982 0.5
vt 0.139999986 0
vt 0.159999982 1
vt 0.139999986 0.5
vt 0.11999999 0
vt 0.139999986 1
vt 0.11999999 0.5
vt 0.099999994 0
vt 0.11999999 1
vt 0.099999994 0.5
vt 0.0799999982 0
vt 0.099999994 1
vt 0.0799999982 0.5
vt 0.0599999987 0
vt 0.0799999982 1
vt 0.0599999987 0.5
vt 0.0399999991 0
vt 0.0599999987 1
vt 0.0399999991 0.5
vt 0.0199999996 0
vt 0.0399999991 1
vt 0.0199999996 0.5
vt 0 0
vt 0.0199999996 1
vt 0 0.5
vt 0 1
vn -0 0 -1
vn -0 0 -1
vn -0 0 -1
vn -0 0 -1
vn -0 0 -1
vn -0 0 -1
vn -0 0 -1
vn -0 0 -1
vn -0 0 -1
vn -0 0 -1
vn -0 0 -1
vn -0 0 -1
vn -0 0 -1
vn -0 0 -1
vn -0 0 -1
vn -0 0 -1
vn -0 0 -1
vn -0 0 -1
vn -0 0 -1
vn -0 0 -1
vn -0 0 -1
vn -0 0 -1
vn -0 0 -1
vn -0 0 -1
vn -0 0 -1
vn -0 0 -1
vn -0 0 -1
vn -0 0 -1
vn -0 0 -1
vn -0 0 -1
vn -0 0 -1
vn -0 0 -1
vn -0 0 -1
vn -0 0 -1
vn -0 0 -1
vn -0 0 -1
vn -0 0 -1
vn -0 0 -1
vn -0 0 -1
vn -0 0 -1
vn -0 0 -1
vn -0 0 -1
vn -0 0 -1
vn -0 0 -1
vn -0 0 -1
vn -0 0 -1
vn -0 0 -1
vn -0 0 -1
vn -0 0 -1
vn -0 0 -1
vn -0 0 -1
vn -0 0 -1
vn -0 0 -1
vn -0 0 -1
vn -0 0 -1
vn -0 0 -1
vn -0 0 -1
vn -0 0 -1
vn -0 0 -1
vn -0 0 -1
vn -0 0 -1
vn -0 0 -1
vn -0 0 -1
vn -0 0 -1
vn -0 0 -1
vn -0 0 -1
vn -0 0 -1
vn -0 0 -1
vn -0 0 -1
vn -0 0 -1
vn -0 0 -1
vn -0 0 -1
vn -0 0 -1
vn -0 0 -1
vn -0 0 -1
vn -0 0 -1
vn -0 0 -1
vn -0 0 -1
vn -0 0 -1
vn -0 0 -1
vn -0 0 -1
vn -0 0 -1
vn -0 0 -1
vn -0 0 -1
vn -0 0 -1
vn -0 0 -1
vn -0 0 -1
vn -0 0 -1
vn -0 0 -1
vn -0 0 -1
vn -0 0 -1
vn -0 0 -1
vn -0 0 -1
vn -0 0 -1
vn -0 0 -1
vn -0 0 -1
vn -0 0 -1
vn -0 0 -1
vn -0 0 -1
vn -0 0 -1
vn -0 0 -1
vn -0 0 -1
vn -0 0 -1
vn -0 0 -1
vn -0 0 -1
vn -0 0 -1
vn -0 0 -1
vn -0 0 -1
vn -0 0 -1
vn -0 0 -1
vn -0 0 -1
vn -0 0 -1
vn -0 0 -1
vn -0 0 -1
vn -0 0 -1
vn -0 0 -1
vn -0 0 -1
vn -0 0 -1
vn -0 0 -1
vn -0 0 -1
vn -0 0 -1
vn -0 0 -1
vn -0 0 -1
vn -0 0 -1
vn -0 0 -1
vn -0 0 -1
vn -0 0 -1
vn -0 0 -1
vn -0 0 -1
vn -0 0 -1
vn -0 0 -1
vn -0 0 -1
vn -0 0 -1
vn -0 0 -1
vn -0 0 -1
vn -0 0 -1
vn -0 0 -1
vn -0 0 -1
vn -0 0 -1
vn -0 0 -1
vn -0 0 -1
vn -0 0 -1
vn -0 0 -1
vn -0 0 -1
vn -0 0 -1
vn -0 0 -1
vn -0 0 -1
vn -0 0 -1
vn -0 0 -1
vn -0 0 -1
vn -0 0 -1
vn -0 0 -1
vn -0 0 -1
g Plane001_0
f 3/3/3 2/2/2 1/1/1
f 2/2/2 3/3/3 4/4/4
f 5/5/5 4/4/4 3/3/3
f 4/4/4 6/6/6 2/2/2
f 4/4/4 5/5/5 7/7/7
f 6/6/6 4/4/4 8/8/8
f 7/7/7 8/8/8 4/4/4
f 8/8/8 9/9/9 6/6/6
f 8/8/8 7/7/7 10/10/10
f 9/9/9 8/8/8 11/11/11
f 10/10/10 11/11/11 8/8/8
f 11/11/11 12/12/12 9/9/9
f 11/11/11 10/10/10 13/13/13
f 12/12/12 11/11/11 14/14/14
f 13/13/13 14/14/14 11/11/11
f 14/14/14 15/15/15 12/12/12
f 14/14/14 13/13/13 16/16/16
f 15/15/15 14/14/14 17/17/17
f 16/16/16 17/17/17 14/14/14
f 17/17/17 18/18/18 15/15/15
f 17/17/17 16/16/16 19/19/19
f 18/18/18 17/17/17 20/20/20
f 19/19/19 20/20/20 17/17/17
f 20/20/20 21/21/21 18/18/18
f 20/20/20 19/19/19 22/22/22
f 21/21/21 20/20/20 23/23/23
f 22/22/22 23/23/23 20/20/20
f 23/23/23 24/24/24 21/21/21
f 23/23/23 22/22/22 25/25/25
f 24/24/24 23/23/23 26/26/26
f 25/25/25 26/26/26 23/23/23
f 26/26/26 27/27/27 24/24/24
f 26/26/26 25/25/25 28/28/28
f 27/27/27 26/26/26 29/29/29
f 28/28/28 29/29/29 26/26/26
f 29/29/29 30/30/30 27/27/27
f 29/29/29 28/28/28 31/31/31
f 30/30/30 29/29/29 32/32/32
f 31/31/31 32/32/32 29/29/29
f 32/32/32 33/33/33 30/30/30
f 32/32/32 31/31/31 34/34/34
f 33/33/33 32/32/32 35/35/35
f 34/34/34 35/35/35 32/32/32
f 35/35/35 36/36/36 33/33/33
f 35/35/35 34/34/34 37/37/37
f 36/36/36 35/35/35 38/38/38
f 37/37/37 38/38/38 35/35/35
f 38/38/38 39/39/39 36/36/36
f 38/38/38 37/37/37 40/40/40
f 39/39/39 38/38/38 41/41/41
f 40/40/40 41/41/41 38/38/38
f 41/41/41 42/42/42 39/39/39
f 41/41/41 40/40/40 43/43/43
f 42/42/42 41/41/41 44/44/44
f 43/43/43 44/44/44 41/41/41
f 44/44/44 45/45/45 42/42/42
f 44/44/44 43/43/43 46/46/46
f 45/45/45 44/44/44 47/47/47
f 46/46/46 47/47/47 44/44/44
f 47/47/47 48/48/48 45/45/45
f 47/47/47 46/46/46 49/49/49
f 48/48/48 47/47/47 50/50/50
f 49/49/49 50/50/50 47/47/47
f 50/50/50 51/51/51 48/48/48
f 50/50/50 49/49/49 52/52/52
f 51/51/51 50/50/50 53/53/53
f 52/52/52 53/53/53 50/50/50
f 53/53/53 54/54/54 51/51/51
f 53/53/53 52/52/52 55/55/55
f 54/54/54 53/53/53 56/56/56
f 55/55/55 56/56/56 53/53/53
f 56/56/56 57/57/57 54/54/54
f 56/56/56 55/55/55 58/58/58
f 57/57/57 56/56/56 59/59/59
f 58/58/58 59/59/59 56/56/56
f 59/59/59 60/60/60 57/57/57
f 59/59/59 58/58/58 61/61/61
f 60/60/60 59/59/59 62/62/62
f 61/61/61 62/62/62 59/59/59
f 62/62/62 63/63/63 60/60/60
f 62/62/62 61/61/61 64/64/64
f 63/63/63 62/62/62 65/65/65
f 64/64/64 65/65/65 62/62/62
f 65/65/65 66/66/66 63/63/63
f 65/65/65 64/64/64 67/67/67
f 66/66/66 65/65/65 68/68/68
f 67/67/67 68/68/68 65/65/65
f 68/68/68 69/69/69 66/66/66
f 68/68/68 67/67/67 70/70/70
f 69/69/69 68/68/68 71/71/71
f 70/70/70 71/71/71 68/68/68
f 71/71/71 72/72/72 69/69/69
f 71/71/71 70/70/70 73/73/73
f 72/72/72 71/71/71 74/74/74
f 73/73/73 74/74/74 71/71/71
f 74/74/74 75/75/75 72/72/72
f 74/74/74 73/73/73 76/76/76
f 75/75/75 74/74/74 77/77/77
f 76/76/76 77/77/77 74/74/74
f 77/77/77 78/78/78 75/75/75
f 77/77/77 76/76/76 79/79/79
f 78/78/78 77/77/77 80/80/80
f 79/79/79 80/80/80 77/77/77
f 80/80/80 81/81/81 78/78/78
f 80/80/80 79/79/79 82/82/82
f 81/81/81 80/80/80 83/83/83
f 82/82/82 83/83/83 80/80/80
f 83/83/83 84/84/84 81/81/81
f 83/83/83 82/82/82 85/85/85
f 84/84/84 83/83/83 86/86/86
f 85/85/85 86/86/86 83/83/83
f 86/86/86 87/87/87 84/84/84
f 86/86/86 85/85/85 88/88/88
f 87/87/87 86/86/86 89/89/89
f 88/88/88 89/89/89 86/86/86
f 89/89/89 90/90/90 87/87/87
f 89/89/89 88/88/88 91/91/91
f 90/90/90 89/89/89 92/92/92
f 91/91/91 92/92/92 89/89/89
f 92/92/92 93/93/93 90/90/90
f 92/92/92 91/91/91 94/94/94
f 93/93/93 92/92/92 95/95/95
f 94/94/94 95/95/95 92/92/92
f 95/95/95 96/96/96 93/93/93
f 95/95/95 94/94/94 97/97/97
f 96/96/96 95/95/95 98/98/98
f 97/97/97 98/98/98 95/95/95
f 98/98/98 99/99/99 96/96/96
f 98/98/98 97/97/97 100/100/100
f 99/99/99 98/98/98 101/101/101
f 100/100/100 101/101/101 98/98/98
f 101/101/101 102/102/102 99/99/99
f 101/101/101 100/100/100 103/103/103
f 102/102/102 101/101/101 104/104/104
f 103/103/103 104/104/104 101/101/101
f 104/104/104 105/105/105 102/102/102
f 104/104/104 103/103/103 106/106/106
f 105/105/105 104/104/104 107/107/107
f 106/106/106 107/107/107 104/104/104
f 107/107/107 108/108/108 105/105/105
f 107/107/107 106/106/106 109/109/109
f 108/108/108 107/107/107 110/110/110
f 109/109/109 110/110/110 107/107/107
f 110/110/110 111/111/111 108/108/108
f 110/110/110 109/109/109 112/112/112
f 111/111/111 110/110/110 113/113/113
f 112/112/112 113/113/113 110/110/110
f 113/113/113 114/114/114 111/111/111
f 113/113/113 112/112/112 115/115/115
f 114/114/114 113/113/113 116/116/116
f 115/115/115 116/116/116 113/113/113
f 116/116/116 117/117/117 114/114/114
f 116/116/116 115/115/115 118/118/118
f 117/117/117 116/116/116 119/119/119
f 118/118/118 119/119/119 116/116/116
f 119/119/119 120/120/120 117/117/117
f 119/119/119 118/118/118 121/121/121
f 120/120/120 119/119/119 122/122/122
f 121/121/121 122/122/122 119/119/119
f 122/122/122 123/123/123 120/120/120
f 122/122/122 121/121/121 124/124/124
f 123/123/123 122/122/122 125/125/125
f 124/124/124 125/125/125 122/122/122
f 125/125/125 126/126/126 123/123/123
f 125/125/125 124/124/124 127/127/127
f 126/126/126 125/125/125 128/128/128
f 127/127/127 128/128/128 125/125/125
f 128/128/128 129/129/129 126/126/126
f 128/128/128 127/127/127 130/130/130
f 129/129/129 128/128/128 131/131/131
f 130/130/130 131/131/131 128/128/128
f 131/131/131 132/132/132 129/129/129
f 131/131/131 130/130/130 133/133/133
f 132/132/132 131/131/131 134/134/134
f 133/133/133 134/134/134 131/131/131
f 134/134/134 135/135/135 132/132/132
f 134/134/134 133/133/133 136/136/136
f 135/135/135 134/134/134 137/137/137
f 136/136/136 137/137/137 134/134/134
f 137/137/137 138/138/138 135/135/135
f 137/137/137 136/136/136 139/139/139
f 138/138/138 137/137/137 140/140/140
f 139/139/139 140/140/140 137/137/137
f 140/140/140 141/141/141 138/138/138
f 140/140/140 139/139/139 142/142/142
f 141/141/141 140/140/140 143/143/143
f 142/142/142 143/143/143 140/140/140
f 143/143/143 144/144/144 141/141/141
f 143/143/143 142/142/142 145/145/145
f 144/144/144 143/143/143 146/146/146
f 145/145/145 146/146/146 143/143/143
f 146/146/146 147/147/147 144/144/144
f 146/146/146 145/145/145 148/148/148
f 147/147/147 146/146/146 149/149/149
f 148/148/148 149/149/149 146/146/146
f 149/149/149 150/150/150 147/147/147
f 149/149/149 148/148/148 151/151/151
f 150/150/150 149/149/149 152/152/152
f 151/151/151 152/152/152 149/149/149
f 152/152/152 151/151/151 153/153/153
