g shuiquan
v 9.05974844E-07 12 0
v -2.28286505 8.51977062 0.000309952971
v -3.10582709 11.5911102 0
v 2.21521759E-07 8.82031536 0.000309952971
v 3.10582876 11.5911102 0
v 2.28286529 8.51977062 0.000309952971
v 5.99999952 10.3923054 0
v 4.41015673 7.63861704 0.000310406234
v 8.48528099 8.48528099 0
v 6.23690319 6.23690367 0.000310406234
v 10.3923044 6 0
v 7.63861513 4.4101572 0.000310406234
v 11.5911102 3.10582852 0
v 8.51976967 2.282866 0.000309952971
v 12 0 0
v 8.82031441 5.43410124E-07 0.000309952971
v 11.5911074 -3.10583711 0
v 8.51976681 -2.28287101 0.000309952971
v 10.3923016 -6.00000715 0
v 7.6386137 -4.41016293 0.000309952971
v 8.48527622 -8.48528671 0
v 6.23689938 -6.23690844 0.000309952971
v 5.9999938 -10.3923082 0
v 4.41015244 -7.63861895 0.000309952971
v 3.10582256 -11.5911112 0
v 2.28286076 -8.51977158 0.000310406234
v -5.57894737E-06 -12 0
v -4.54506608E-06 -8.82031441 0.000310406234
v -3.10583305 -11.5911083 0
v -2.2828691 -8.51976776 0.000310406234
v -6.00000381 -10.3923025 0
v -4.41016054 -7.63861465 0.000309952971
v -8.48528671 -8.48527718 0
v -6.23690844 -6.23690176 0.000309952971
v -10.3923073 -5.99999523 0
v -7.63861847 -4.41015434 0.000309952971
v -11.5911112 -3.10582352 0
v -8.51977158 -2.28286147 0.000309952971
v -12 4.67297241E-06 0
v -8.82031536 3.97816711E-06 0.000309952971
v -11.5911093 3.10583258 0
v -8.51977062 2.2828691 0.000309952971
v -10.3923035 6.00000286 0
v -7.63861704 4.41015911 0.000310406234
v -8.48527908 8.4852829 0
v -6.23690271 6.23690462 0.000310406234
v -5.99999809 10.3923063 0
v -4.41015625 7.63861704 0.000310406234
v -3.10582709 11.5911102 0
v -2.28286505 8.51977062 0.000309952971
vt 0.965358615 0.0377906337
vt 1.00702524 1.03779066
vt 1.00702524 0.0377906337
vt 0.965358615 1.03779066
vt 0.923691869 0.0377906337
vt 0.923691869 1.03779066
vt 0.882025242 0.0377906337
vt 0.882025242 1.03779066
vt 0.840358615 0.0377906337
vt 0.840358615 1.03779066
vt 0.798691988 0.0377906337
vt 0.798691988 1.03779066
vt 0.757025242 0.0377906337
vt 0.757025242 1.03779066
vt 0.715358615 0.0377906337
vt 0.715358615 1.03779066
vt 0.67369175 0.0377906337
vt 0.67369175 1.03779066
vt 0.632025123 0.0377906337
vt 0.632025123 1.03779066
vt 0.590358496 0.0377906337
vt 0.590358496 1.03779066
vt 0.548691869 0.0377906337
vt 0.548691869 1.03779066
vt 0.507025123 0.0377906337
vt 0.507025123 1.03779066
vt 0.465358526 0.0377906337
vt 0.465358526 1.03779066
vt 0.423691869 0.0377906337
vt 0.423691869 1.03779066
vt 0.382025212 0.0377906337
vt 0.382025212 1.03779066
vt 0.340358526 0.0377906337
vt 0.340358526 1.03779066
vt 0.298691869 0.0377906337
vt 0.298691869 1.03779066
vt 0.257025182 0.0377906337
vt 0.257025182 1.03779066
vt 0.215358526 0.0377906337
vt 0.215358526 1.03779066
vt 0.173691869 0.0377906337
vt 0.173691869 1.03779066
vt 0.132025212 0.0377906337
vt 0.132025212 1.03779066
vt 0.0903585553 0.0377906337
vt 0.0903585553 1.03779066
vt 0.0486918986 0.0377906337
vt 0.0486918986 1.03779066
vt 0.00702524185 0.0377906337
vt 0.00702524185 1.03779066
vn -0 9.74791546E-05 1
vn -2.52046866E-05 9.42067927E-05 1
vn -2.52046812E-05 9.42067854E-05 1
vn -0 9.74791546E-05 1
vn 2.52046902E-05 9.42067854E-05 1
vn 2.52046921E-05 9.42067854E-05 1
vn 4.87585748E-05 8.45255854E-05 1
vn 4.87585785E-05 8.45255854E-05 1
vn 6.90289526E-05 6.90289307E-05 1
vn 6.90289526E-05 6.9028938E-05 1
vn 8.45255709E-05 4.87585676E-05 1
vn 8.45255709E-05 4.87585785E-05 1
vn 9.42067563E-05 2.52046939E-05 1
vn 9.42067563E-05 2.52047012E-05 1
vn 9.74791328E-05 0 1
vn 9.74791255E-05 0 1
vn 9.41575854E-05 -2.5229494E-05 1
vn 9.41575927E-05 -2.52294885E-05 1
vn 8.44193492E-05 -4.87395992E-05 1
vn 8.44193564E-05 -4.87396028E-05 1
vn 6.8928086E-05 -6.89282024E-05 1
vn 6.89280932E-05 -6.89282097E-05 1
vn 4.87917969E-05 -8.44366805E-05 1
vn 4.87917932E-05 -8.44366878E-05 1
vn 2.52910686E-05 -9.42461556E-05 1
vn 2.52910686E-05 -9.42461629E-05 1
vn -0 -9.76216834E-05 1
vn -0 -9.76216834E-05 1
vn -2.52911523E-05 -9.4246112E-05 1
vn -2.52911577E-05 -9.42461338E-05 1
vn -4.87918624E-05 -8.44366587E-05 1
vn -4.87918587E-05 -8.44366587E-05 1
vn -6.89281951E-05 -6.89281296E-05 1
vn -6.89282024E-05 -6.89281369E-05 1
vn -8.4419451E-05 -4.87395228E-05 1
vn -8.44194583E-05 -4.87395228E-05 1
vn -9.41576509E-05 -2.52294303E-05 1
vn -9.41576509E-05 -2.52294285E-05 1
vn -9.74791619E-05 0 1
vn -9.74791765E-05 0 1
vn -9.42067854E-05 2.52047212E-05 1
vn -9.42068073E-05 2.5204723E-05 1
vn -8.45255854E-05 4.87586149E-05 1
vn -8.45255927E-05 4.87586149E-05 1
vn -6.90289235E-05 6.90289744E-05 1
vn -6.9028938E-05 6.90289817E-05 1
vn -4.87585603E-05 8.45256E-05 1
vn -4.87585676E-05 8.45255927E-05 1
vn -2.52046812E-05 9.42067854E-05 1
vn -2.52046866E-05 9.42067927E-05 1
g shuiquan_0
f 3/3/3 2/2/2 1/1/1
f 2/2/2 4/4/4 1/1/1
f 1/1/1 4/4/4 5/5/5
f 4/4/4 6/6/6 5/5/5
f 5/5/5 6/6/6 7/7/7
f 6/6/6 8/8/8 7/7/7
f 7/7/7 8/8/8 9/9/9
f 8/8/8 10/10/10 9/9/9
f 9/9/9 10/10/10 11/11/11
f 10/10/10 12/12/12 11/11/11
f 11/11/11 12/12/12 13/13/13
f 12/12/12 14/14/14 13/13/13
f 13/13/13 14/14/14 15/15/15
f 14/14/14 16/16/16 15/15/15
f 15/15/15 16/16/16 17/17/17
f 16/16/16 18/18/18 17/17/17
f 17/17/17 18/18/18 19/19/19
f 18/18/18 20/20/20 19/19/19
f 19/19/19 20/20/20 21/21/21
f 20/20/20 22/22/22 21/21/21
f 21/21/21 22/22/22 23/23/23
f 22/22/22 24/24/24 23/23/23
f 23/23/23 24/24/24 25/25/25
f 24/24/24 26/26/26 25/25/25
f 25/25/25 26/26/26 27/27/27
f 26/26/26 28/28/28 27/27/27
f 27/27/27 28/28/28 29/29/29
f 28/28/28 30/30/30 29/29/29
f 29/29/29 30/30/30 31/31/31
f 30/30/30 32/32/32 31/31/31
f 31/31/31 32/32/32 33/33/33
f 32/32/32 34/34/34 33/33/33
f 33/33/33 34/34/34 35/35/35
f 34/34/34 36/36/36 35/35/35
f 35/35/35 36/36/36 37/37/37
f 36/36/36 38/38/38 37/37/37
f 37/37/37 38/38/38 39/39/39
f 38/38/38 40/40/40 39/39/39
f 39/39/39 40/40/40 41/41/41
f 40/40/40 42/42/42 41/41/41
f 41/41/41 42/42/42 43/43/43
f 42/42/42 44/44/44 43/43/43
f 43/43/43 44/44/44 45/45/45
f 44/44/44 46/46/46 45/45/45
f 45/45/45 46/46/46 47/47/47
f 46/46/46 48/48/48 47/47/47
f 47/47/47 48/48/48 49/49/49
f 48/48/48 50/50/50 49/49/49
