g plane_star
v 0.714285731 -0.142857134 0
v 1 0.142857134 0
v 1 -0.142857134 0
v 0.714285731 0.142857134 0
v 0.428571433 -0.142857134 0
v 0.428571433 0.142857134 0
v 0.142857134 -0.142857134 0
v 0.142857134 0.142857134 0
v -0.142857134 -0.142857134 0
v -0.142857134 -0.428571433 0
v 0.142857134 -0.428571433 0
v -0.142857134 -0.714285731 0
v 0.142857134 -0.714285731 0
v -0.142857134 -1 0
v 0.142857134 -1 0
v -0.142857134 0.142857134 0
v -0.428571433 -0.142857134 0
v 0.142857134 0.428571433 0
v -0.428571433 0.142857134 0
v -0.142857134 0.428571433 0
v -0.714285731 -0.142857134 0
v 0.142857134 0.714285731 0
v -0.714285731 0.142857134 0
v -1 -0.142857134 0
v -1 0.142857134 0
v -0.142857134 0.714285731 0
v 0.142857134 1 0
v -0.142857134 1 0
vt 0.857142866 0.428571463
vt 1 0.571428597
vt 1 0.428571463
vt 0.857142866 0.571428597
vt 0.714285731 0.428571463
vt 0.714285731 0.571428597
vt 0.571428597 0.428571463
vt 0.571428597 0.571428597
vt 0.428571463 0.428571463
vt 0.428571463 0.285714298
vt 0.571428597 0.285714298
vt 0.428571463 0.142857149
vt 0.571428597 0.142857149
vt 0.428571463 0
vt 0.571428597 0
vt 0.428571463 0.571428597
vt 0.285714298 0.428571463
vt 0.571428597 0.714285731
vt 0.285714298 0.571428597
vt 0.428571463 0.714285731
vt 0.142857149 0.428571463
vt 0.571428597 0.857142866
vt 0.142857149 0.571428597
vt 0 0.428571463
vt 0 0.571428597
vt 0.428571463 0.857142866
vt 0.571428597 1
vt 0.428571463 1
vn -0 0 1
vn -0 0 1
vn -0 0 1
vn -0 0 1
vn -0 0 1
vn -0 0 1
vn -0 0 1
vn -0 0 1
vn -0 0 1
vn -0 0 1
vn -0 0 1
vn -0 0 1
vn -0 0 1
vn -0 0 1
vn -0 0 1
vn -0 0 1
vn -0 0 1
vn -0 0 1
vn -0 0 1
vn -0 0 1
vn -0 0 1
vn -0 0 1
vn -0 0 1
vn -0 0 1
vn -0 0 1
vn -0 0 1
vn -0 0 1
vn -0 0 1
g plane_star_0
f 3/3/3 2/2/2 1/1/1
f 2/2/2 4/4/4 1/1/1
f 1/1/1 4/4/4 5/5/5
f 4/4/4 6/6/6 5/5/5
f 5/5/5 6/6/6 7/7/7
f 6/6/6 8/8/8 7/7/7
f 7/7/7 8/8/8 9/9/9
f 7/7/7 9/9/9 10/10/10
f 11/11/11 7/7/7 10/10/10
f 11/11/11 10/10/10 12/12/12
f 13/13/13 11/11/11 12/12/12
f 13/13/13 12/12/12 14/14/14
f 15/15/15 13/13/13 14/14/14
f 8/8/8 16/16/16 9/9/9
f 9/9/9 16/16/16 17/17/17
f 8/8/8 18/18/18 16/16/16
f 16/16/16 19/19/19 17/17/17
f 18/18/18 20/20/20 16/16/16
f 17/17/17 19/19/19 21/21/21
f 18/18/18 22/22/22 20/20/20
f 19/19/19 23/23/23 21/21/21
f 21/21/21 23/23/23 24/24/24
f 23/23/23 25/25/25 24/24/24
f 22/22/22 26/26/26 20/20/20
f 22/22/22 27/27/27 26/26/26
f 27/27/27 28/28/28 26/26/26
