g 柱体
v -0 0.0354552343 0.00785504188
v 0.00691697188 0.0347739682 0.00785504282
v 0.0079656709 0.0400461331 0.009951449
v -0 0.040830683 0.009951449
v 0.00691697188 0.0347739682 0.00785504282
v 0.0135681313 0.0327563621 0.00785504375
v 0.0156252291 0.0377226323 0.00995144993
v 0.0079656709 0.0400461331 0.009951449
v 0.0135681313 0.0327563621 0.00785504375
v 0.0196978711 0.0294799432 0.00785504282
v 0.0226843115 0.0339494683 0.009951449
v 0.0156252291 0.0377226323 0.00995144993
v 0.0196978711 0.0294799432 0.00785504282
v 0.0250706356 0.0250706356 0.00785504282
v 0.0288716555 0.0288716555 0.009951449
v 0.0226843115 0.0339494683 0.009951449
v 0.0250706356 0.0250706356 0.00785504282
v 0.0294799432 0.0196978711 0.00785504282
v 0.0339494683 0.0226843115 0.009951449
v 0.0288716555 0.0288716555 0.009951449
v 0.0294799432 0.0196978711 0.00785504282
v 0.0327563621 0.0135681313 0.00785504375
v 0.0377226323 0.0156252291 0.00995144993
v 0.0339494683 0.0226843115 0.009951449
v 0.0327563621 0.0135681313 0.00785504375
v 0.0347739682 0.00691697188 0.00785504282
v 0.0400461331 0.0079656709 0.009951449
v 0.0377226323 0.0156252291 0.00995144993
v 0.0347739682 0.00691697188 0.00785504282
v 0.0354552269 1.06029296E-10 0.00785504282
v 0.040830683 1.66775774E-10 0.009951449
v 0.0400461331 0.0079656709 0.009951449
v 0.0354552269 1.06029296E-10 0.00785504282
v 0.0347739682 -0.00691697188 0.00785504282
v 0.0400461294 -0.0079656709 0.009951449
v 0.040830683 1.66775774E-10 0.009951449
v 0.0347739682 -0.00691697188 0.00785504282
v 0.0327563584 -0.0135681303 0.00785504375
v 0.0377226286 -0.0156252272 0.00995144993
v 0.0400461294 -0.0079656709 0.009951449
v 0.0327563584 -0.0135681303 0.00785504375
v 0.0294799432 -0.0196978711 0.00785504282
v 0.0339494683 -0.0226843115 0.009951449
v 0.0377226286 -0.0156252272 0.00995144993
v 0.0294799432 -0.0196978711 0.00785504282
v 0.0250706356 -0.02507063 0.00785504282
v 0.0288716555 -0.0288716499 0.00995144993
v 0.0339494683 -0.0226843115 0.009951449
v 0.0250706356 -0.02507063 0.00785504282
v 0.0196978711 -0.0294799469 0.00785504282
v 0.0226843115 -0.0339494683 0.009951449
v 0.0288716555 -0.0288716499 0.00995144993
v 0.0196978711 -0.0294799469 0.00785504282
v 0.0135681313 -0.0327563621 0.00785504282
v 0.0156252291 -0.0377226323 0.00995144993
v 0.0226843115 -0.0339494683 0.009951449
v 0.0135681313 -0.0327563621 0.00785504282
v 0.00691697188 -0.0347739682 0.00785504282
v 0.0079656709 -0.0400461331 0.00995144993
v 0.0156252291 -0.0377226323 0.00995144993
v 0.00691697188 -0.0347739682 0.00785504282
v -0 -0.0354552269 0.00785504282
v -0 -0.040830683 0.009951449
v 0.0079656709 -0.0400461331 0.00995144993
v -0 -0.0354552269 0.00785504282
v -0.00691697188 -0.0347739682 0.00785504282
v -0.0079656709 -0.0400461294 0.00995144993
v -0 -0.040830683 0.009951449
v -0.00691697188 -0.0347739682 0.00785504282
v -0.0135681331 -0.0327563621 0.00785504282
v -0.0156252254 -0.0377226286 0.00995144993
v -0.0079656709 -0.0400461294 0.00995144993
v -0.0135681331 -0.0327563621 0.00785504282
v -0.0196978711 -0.0294799469 0.00785504282
v -0.0226843115 -0.033949472 0.009951449
v -0.0156252254 -0.0377226286 0.00995144993
v -0.0196978711 -0.0294799469 0.00785504282
v -0.0250706356 -0.0250706356 0.00785504282
v -0.0288716499 -0.0288716499 0.00995144993
v -0.0226843115 -0.033949472 0.009951449
v -0.0250706356 -0.0250706356 0.00785504282
v -0.0294799469 -0.0196978711 0.00785504282
v -0.033949472 -0.0226843115 0.009951449
v -0.0288716499 -0.0288716499 0.00995144993
v -0.0294799469 -0.0196978711 0.00785504282
v -0.0327563584 -0.0135681303 0.00785504282
v -0.0377226286 -0.0156252254 0.00995144993
v -0.033949472 -0.0226843115 0.009951449
v -0.0327563584 -0.0135681303 0.00785504282
v -0.0347739682 -0.00691697188 0.00785504282
v -0.0400461294 -0.0079656709 0.009951449
v -0.0377226286 -0.0156252254 0.00995144993
v -0.0347739682 -0.00691697188 0.00785504282
v -0.0354552269 1.06029296E-10 0.00785504282
v -0.040830683 1.66775774E-10 0.009951449
v -0.0400461294 -0.0079656709 0.009951449
v -0.0354552269 1.06029296E-10 0.00785504282
v -0.0347739682 0.00691697188 0.00785504282
v -0.0400461331 0.0079656709 0.00995144993
v -0.040830683 1.66775774E-10 0.009951449
v -0.0347739682 0.00691697188 0.00785504282
v -0.0327563621 0.0135681313 0.00785504282
v -0.0377226323 0.0156252291 0.00995144993
v -0.0400461331 0.0079656709 0.00995144993
v -0.0327563621 0.0135681313 0.00785504282
v -0.0294799469 0.0196978711 0.00785504282
v -0.0339494683 0.0226843115 0.009951449
v -0.0377226323 0.0156252291 0.00995144993
v -0.0294799469 0.0196978711 0.00785504282
v -0.02507063 0.0250706356 0.00785504282
v -0.0288716499 0.0288716555 0.00995144993
v -0.0339494683 0.0226843115 0.009951449
v -0.02507063 0.0250706356 0.00785504282
v -0.0196978711 0.0294799414 0.00785504282
v -0.0226843115 0.0339494683 0.009951449
v -0.0288716499 0.0288716555 0.00995144993
v -0.0196978711 0.0294799414 0.00785504282
v -0.0135681313 0.0327563621 0.00785504375
v -0.0156252272 0.0377226286 0.00995144993
v -0.0226843115 0.0339494683 0.009951449
v -0.0135681313 0.0327563621 0.00785504375
v -0.00691697188 0.0347739682 0.00785504282
v -0.0079656709 0.0400461294 0.009951449
v -0.0156252272 0.0377226286 0.00995144993
v -0.00691697188 0.0347739682 0.00785504282
v -0 0.0354552343 0.00785504188
v -0 0.040830683 0.009951449
v -0.0079656709 0.0400461294 0.009951449
v -0.000457397691 0.00229949295 0
v -0 0.00234454265 0
v -0 0.00694698095 0.00196508039
v -0.00135528843 0.00681349449 0.00196508039
v -0.00135528843 0.00681349449 0.00196508039
v -0 0.00694698095 0.00196508039
v -0 0.0127211818 0.00359476311
v -0.00248177862 0.0124767441 0.00359476311
v -0.00248177862 0.0124767441 0.00359476311
v -0 0.0127211818 0.00359476311
v -0 0.0205270741 0.00479555223
v -0.00400463352 0.0201326516 0.00479555223
v -0 0.0287713259 0.0060708127
v -0.00561300572 0.0282184873 0.0060708127
v -0.00561300572 0.0282184873 0.0060708127
v -0 0.0287713259 0.0060708127
v -0 0.0354552343 0.00785504188
v -0.00691697188 0.0347739682 0.00785504282
v -0.000897217658 0.00216607517 0
v -0.000457397691 0.00229949295 0
v -0.00135528843 0.00681349449 0.00196508039
v -0.00265849405 0.00641817134 0.00196508155
v -0.00265849405 0.00641817134 0.00196508155
v -0.00135528843 0.00681349449 0.00196508039
v -0.00248177862 0.0124767441 0.00359476311
v -0.00486818422 0.0117528364 0.00359476311
v -0.00486818422 0.0117528364 0.00359476311
v -0.00248177862 0.0124767441 0.00359476311
v -0.00400463352 0.0201326516 0.00479555223
v -0.00785537157 0.0189645421 0.00479555177
v -0.00561300572 0.0282184873 0.0060708127
v -0.0110103106 0.0265812371 0.00607081223
v -0.0110103106 0.0265812371 0.00607081223
v -0.00561300572 0.0282184873 0.0060708127
v -0.00691697188 0.0347739682 0.00785504282
v -0.0135681313 0.0327563621 0.00785504375
v -0.00130255846 0.00194941671 0
v -0.000897217658 0.00216607517 0
v -0.00265849405 0.00641817134 0.00196508155
v -0.00385953509 0.00577620324 0.00196508039
v -0.00385953509 0.00577620324 0.00196508039
v -0.00265849405 0.00641817134 0.00196508155
v -0.00486818422 0.0117528364 0.00359476311
v -0.00706750806 0.0105772717 0.00359476381
v -0.00706750806 0.0105772717 0.00359476381
v -0.00486818422 0.0117528364 0.00359476311
v -0.00785537157 0.0189645421 0.00479555177
v -0.0114042312 0.0170676373 0.00479555177
v -0.0110103106 0.0265812371 0.00607081223
v -0.0159844887 0.0239224806 0.00607081177
v -0.0159844887 0.0239224806 0.00607081177
v -0.0110103106 0.0265812371 0.00607081223
v -0.0135681313 0.0327563621 0.00785504375
v -0.0196978711 0.0294799414 0.00785504282
v -0.00165784231 0.00165784173 0
v -0.00130255846 0.00194941671 0
v -0.00385953509 0.00577620324 0.00196508039
v -0.0049122558 0.00491225626 0.00196507992
v -0.0049122558 0.00491225626 0.00196507992
v -0.00385953509 0.00577620324 0.00196508039
v -0.00706750806 0.0105772717 0.00359476381
v -0.00899523031 0.00899523031 0.00359476428
v -0.00899523031 0.00899523031 0.00359476428
v -0.00706750806 0.0105772717 0.00359476381
v -0.0114042312 0.0170676373 0.00479555177
v -0.0145148318 0.0145148318 0.00479555223
v -0.0159844887 0.0239224806 0.00607081177
v -0.0203443952 0.0203443971 0.00607081223
v -0.0203443952 0.0203443971 0.00607081223
v -0.0159844887 0.0239224806 0.00607081177
v -0.0196978711 0.0294799414 0.00785504282
v -0.02507063 0.0250706356 0.00785504282
v -0.00194941601 0.00130255835 0
v -0.00165784231 0.00165784173 0
v -0.0049122558 0.00491225626 0.00196507992
v -0.00577620277 0.00385953509 0.00196508039
v -0.00577620277 0.00385953509 0.00196508039
v -0.0049122558 0.00491225626 0.00196507992
v -0.00899523031 0.00899523031 0.00359476428
v -0.0105772736 0.00706750667 0.00359476311
v -0.0105772736 0.00706750667 0.00359476311
v -0.00899523031 0.00899523031 0.00359476428
v -0.0145148318 0.0145148318 0.00479555223
v -0.0170676373 0.0114042312 0.00479555223
v -0.0203443952 0.0203443971 0.00607081223
v -0.0239224825 0.0159844905 0.00607081177
v -0.0239224825 0.0159844905 0.00607081177
v -0.0203443952 0.0203443971 0.00607081223
v -0.02507063 0.0250706356 0.00785504282
v -0.0294799469 0.0196978711 0.00785504282
v -0.00216607517 0.000897217367 0
v -0.00194941601 0.00130255835 0
v -0.00577620277 0.00385953509 0.00196508039
v -0.0064181718 0.00265849382 0.00196508109
v -0.0064181718 0.00265849382 0.00196508109
v -0.00577620277 0.00385953509 0.00196508039
v -0.0105772736 0.00706750667 0.00359476311
v -0.0117528336 0.00486818468 0.00359476381
v -0.0117528336 0.00486818468 0.00359476381
v -0.0105772736 0.00706750667 0.00359476311
v -0.0170676373 0.0114042312 0.00479555223
v -0.0189645421 0.0078553725 0.00479555223
v -0.0239224825 0.0159844905 0.00607081177
v -0.0265812371 0.0110103087 0.00607081223
v -0.0265812371 0.0110103087 0.00607081223
v -0.0239224825 0.0159844905 0.00607081177
v -0.0294799469 0.0196978711 0.00785504282
v -0.0327563621 0.0135681313 0.00785504282
v -0.00229949271 0.000457397749 0
v -0.00216607517 0.000897217367 0
v -0.0064181718 0.00265849382 0.00196508109
v -0.00681349402 0.00135528843 0.00196508039
v -0.00681349402 0.00135528843 0.00196508039
v -0.0064181718 0.00265849382 0.00196508109
v -0.0117528336 0.00486818468 0.00359476381
v -0.0124767432 0.00248177862 0.00359476311
v -0.0124767432 0.00248177862 0.00359476311
v -0.0117528336 0.00486818468 0.00359476381
v -0.0189645421 0.0078553725 0.00479555223
v -0.0201326516 0.00400463352 0.00479555223
v -0.0265812371 0.0110103087 0.00607081223
v -0.0282184873 0.00561300572 0.00607081223
v -0.0282184873 0.00561300572 0.00607081223
v -0.0265812371 0.0110103087 0.00607081223
v -0.0327563621 0.0135681313 0.00785504282
v -0.0347739682 0.00691697188 0.00785504282
v -0.00234454265 0 0
v -0.00229949271 0.000457397749 0
v -0.00681349402 0.00135528843 0.00196508039
v -0.00694697956 -1.75083142E-11 0.00196508039
v -0.00694697956 -1.75083142E-11 0.00196508039
v -0.00681349402 0.00135528843 0.00196508039
v -0.0124767432 0.00248177862 0.00359476311
v -0.0127211781 -3.65616114E-11 0.00359476311
v -0.0127211781 -3.65616114E-11 0.00359476311
v -0.0124767432 0.00248177862 0.00359476311
v -0.0201326516 0.00400463352 0.00479555223
v -0.0205270741 -2.39738715E-11 0.00479555223
v -0.0282184873 0.00561300572 0.00607081223
v -0.0287713241 3.29900482E-11 0.0060708127
v -0.0287713241 3.29900482E-11 0.0060708127
v -0.0282184873 0.00561300572 0.00607081223
v -0.0347739682 0.00691697188 0.00785504282
v -0.0354552269 1.06029296E-10 0.00785504282
v -0.00229949295 -0.000457397749 0
v -0.00234454265 0 0
v -0.00694697956 -1.75083142E-11 0.00196508039
v -0.00681349449 -0.00135528843 0.00196508039
v -0.00681349449 -0.00135528843 0.00196508039
v -0.00694697956 -1.75083142E-11 0.00196508039
v -0.0127211781 -3.65616114E-11 0.00359476311
v -0.0124767441 -0.00248177862 0.00359476311
v -0.0124767441 -0.00248177862 0.00359476311
v -0.0127211781 -3.65616114E-11 0.00359476311
v -0.0205270741 -2.39738715E-11 0.00479555223
v -0.0201326516 -0.00400463352 0.00479555223
v -0.0287713241 3.29900482E-11 0.0060708127
v -0.028218491 -0.00561300572 0.00607081177
v -0.028218491 -0.00561300572 0.00607081177
v -0.0287713241 3.29900482E-11 0.0060708127
v -0.0354552269 1.06029296E-10 0.00785504282
v -0.0347739682 -0.00691697188 0.00785504282
v -0.00216607517 -0.000897217658 0
v -0.00229949295 -0.000457397749 0
v -0.00681349449 -0.00135528843 0.00196508039
v -0.0064181718 -0.00265849428 0.00196508155
v -0.0064181718 -0.00265849428 0.00196508155
v -0.00681349449 -0.00135528843 0.00196508039
v -0.0124767441 -0.00248177862 0.00359476311
v -0.0117528355 -0.00486818375 0.00359476311
v -0.0117528355 -0.00486818375 0.00359476311
v -0.0124767441 -0.00248177862 0.00359476311
v -0.0201326516 -0.00400463352 0.00479555223
v -0.0189645421 -0.00785537064 0.00479555177
v -0.028218491 -0.00561300572 0.00607081177
v -0.0265812371 -0.0110103106 0.0060708127
v -0.0265812371 -0.0110103106 0.0060708127
v -0.028218491 -0.00561300572 0.00607081177
v -0.0347739682 -0.00691697188 0.00785504282
v -0.0327563584 -0.0135681303 0.00785504282
v -0.00194941601 -0.00130255835 0
v -0.00216607517 -0.000897217658 0
v -0.0064181718 -0.00265849428 0.00196508155
v -0.00577620277 -0.00385953509 0.00196508039
v -0.00577620277 -0.00385953509 0.00196508039
v -0.0064181718 -0.00265849428 0.00196508155
v -0.0117528355 -0.00486818375 0.00359476311
v -0.0105772717 -0.00706750667 0.00359476311
v -0.0105772717 -0.00706750667 0.00359476311
v -0.0117528355 -0.00486818375 0.00359476311
v -0.0189645421 -0.00785537064 0.00479555177
v -0.0170676392 -0.0114042312 0.00479555223
v -0.0265812371 -0.0110103106 0.0060708127
v -0.0239224806 -0.0159844905 0.0060708127
v -0.0239224806 -0.0159844905 0.0060708127
v -0.0265812371 -0.0110103106 0.0060708127
v -0.0327563584 -0.0135681303 0.00785504282
v -0.0294799469 -0.0196978711 0.00785504282
v -0.00165784219 -0.00165784219 0
v -0.00194941601 -0.00130255835 0
v -0.00577620277 -0.00385953509 0.00196508039
v -0.00491225673 -0.00491225673 0.00196507992
v -0.00491225673 -0.00491225673 0.00196507992
v -0.00577620277 -0.00385953509 0.00196508039
v -0.0105772717 -0.00706750667 0.00359476311
v -0.00899523031 -0.00899523031 0.00359476381
v -0.00899523031 -0.00899523031 0.00359476381
v -0.0105772717 -0.00706750667 0.00359476311
v -0.0170676392 -0.0114042312 0.00479555223
v -0.0145148318 -0.0145148318 0.00479555223
v -0.0239224806 -0.0159844905 0.0060708127
v -0.0203443952 -0.0203443952 0.0060708127
v -0.0203443952 -0.0203443952 0.0060708127
v -0.0239224806 -0.0159844905 0.0060708127
v -0.0294799469 -0.0196978711 0.00785504282
v -0.0250706356 -0.0250706356 0.00785504282
v -0.00130255835 -0.00194941601 0
v -0.00165784219 -0.00165784219 0
v -0.00491225673 -0.00491225673 0.00196507992
v -0.00385953509 -0.00577620324 0.00196508039
v -0.00385953509 -0.00577620324 0.00196508039
v -0.00491225673 -0.00491225673 0.00196507992
v -0.00899523031 -0.00899523031 0.00359476381
v -0.00706750713 -0.0105772717 0.00359476311
v -0.00706750713 -0.0105772717 0.00359476311
v -0.00899523031 -0.00899523031 0.00359476381
v -0.0145148318 -0.0145148318 0.00479555223
v -0.0114042312 -0.0170676392 0.00479555223
v -0.0203443952 -0.0203443952 0.0060708127
v -0.0159844887 -0.0239224806 0.00607081223
v -0.0159844887 -0.0239224806 0.00607081223
v -0.0203443952 -0.0203443952 0.0060708127
v -0.0250706356 -0.0250706356 0.00785504282
v -0.0196978711 -0.0294799469 0.00785504282
v -0.000897217658 -0.00216607517 0
v -0.00130255835 -0.00194941601 0
v -0.00385953509 -0.00577620324 0.00196508039
v -0.00265849382 -0.00641817134 0.00196508155
v -0.00265849382 -0.00641817134 0.00196508155
v -0.00385953509 -0.00577620324 0.00196508039
v -0.00706750713 -0.0105772717 0.00359476311
v -0.00486818422 -0.0117528364 0.00359476265
v -0.00486818422 -0.0117528364 0.00359476265
v -0.00706750713 -0.0105772717 0.00359476311
v -0.0114042312 -0.0170676392 0.00479555223
v -0.00785537064 -0.0189645421 0.00479555177
v -0.0159844887 -0.0239224806 0.00607081223
v -0.0110103106 -0.0265812371 0.00607081223
v -0.0110103106 -0.0265812371 0.00607081223
v -0.0159844887 -0.0239224806 0.00607081223
v -0.0196978711 -0.0294799469 0.00785504282
v -0.0135681331 -0.0327563621 0.00785504282
v -0.000457397749 -0.00229949295 0
v -0.000897217658 -0.00216607517 0
v -0.00265849382 -0.00641817134 0.00196508155
v -0.00135528843 -0.00681349449 0.00196508039
v -0.00135528843 -0.00681349449 0.00196508039
v -0.00265849382 -0.00641817134 0.00196508155
v -0.00486818422 -0.0117528364 0.00359476265
v -0.00248177862 -0.0124767441 0.00359476381
v -0.00248177862 -0.0124767441 0.00359476381
v -0.00486818422 -0.0117528364 0.00359476265
v -0.00785537064 -0.0189645421 0.00479555177
v -0.00400463352 -0.0201326516 0.00479555223
v -0.0110103106 -0.0265812371 0.00607081223
v -0.00561300572 -0.0282184873 0.0060708127
v -0.00561300572 -0.0282184873 0.0060708127
v -0.0110103106 -0.0265812371 0.00607081223
v -0.0135681331 -0.0327563621 0.00785504282
v -0.00691697188 -0.0347739682 0.00785504282
v -0 -0.00234454265 0
v -0.000457397749 -0.00229949295 0
v -0.00135528843 -0.00681349449 0.00196508039
v -0 -0.00694697956 0.00196508039
v -0 -0.00694697956 0.00196508039
v -0.00135528843 -0.00681349449 0.00196508039
v -0.00248177862 -0.0124767441 0.00359476381
v -0 -0.0127211781 0.00359476311
v -0 -0.0127211781 0.00359476311
v -0.00248177862 -0.0124767441 0.00359476381
v -0.00400463352 -0.0201326516 0.00479555223
v -0 -0.0205270741 0.00479555223
v -0.00561300572 -0.0282184873 0.0060708127
v -0 -0.0287713241 0.0060708127
v -0 -0.0287713241 0.0060708127
v -0.00561300572 -0.0282184873 0.0060708127
v -0.00691697188 -0.0347739682 0.00785504282
v -0 -0.0354552269 0.00785504282
v 0.000457397749 -0.00229949271 0
v -0 -0.00234454265 0
v -0 -0.00694697956 0.00196508039
v 0.00135528843 -0.00681349402 0.00196508039
v 0.00135528843 -0.00681349402 0.00196508039
v -0 -0.00694697956 0.00196508039
v -0 -0.0127211781 0.00359476311
v 0.00248177862 -0.0124767432 0.00359476311
v 0.00248177862 -0.0124767432 0.00359476311
v -0 -0.0127211781 0.00359476311
v -0 -0.0205270741 0.00479555223
v 0.00400463352 -0.0201326516 0.00479555223
v -0 -0.0287713241 0.0060708127
v 0.00561300572 -0.0282184873 0.0060708127
v 0.00561300572 -0.0282184873 0.0060708127
v -0 -0.0287713241 0.0060708127
v -0 -0.0354552269 0.00785504282
v 0.00691697188 -0.0347739682 0.00785504282
v 0.000897217367 -0.00216607517 0
v 0.000457397749 -0.00229949271 0
v 0.00135528843 -0.00681349402 0.00196508039
v 0.00265849382 -0.00641817274 0.00196508109
v 0.00265849382 -0.00641817274 0.00196508109
v 0.00135528843 -0.00681349402 0.00196508039
v 0.00248177862 -0.0124767432 0.00359476311
v 0.00486818468 -0.0117528336 0.00359476311
v 0.00486818468 -0.0117528336 0.00359476311
v 0.00248177862 -0.0124767432 0.00359476311
v 0.00400463352 -0.0201326516 0.00479555223
v 0.0078553725 -0.0189645421 0.00479555223
v 0.00561300572 -0.0282184873 0.0060708127
v 0.0110103106 -0.0265812371 0.00607081223
v 0.0110103106 -0.0265812371 0.00607081223
v 0.00561300572 -0.0282184873 0.0060708127
v 0.00691697188 -0.0347739682 0.00785504282
v 0.0135681313 -0.0327563621 0.00785504282
v 0.00130255835 -0.00194941601 0
v 0.000897217367 -0.00216607517 0
v 0.00265849382 -0.00641817274 0.00196508109
v 0.00385953509 -0.00577620277 0.00196508039
v 0.00385953509 -0.00577620277 0.00196508039
v 0.00265849382 -0.00641817274 0.00196508109
v 0.00486818468 -0.0117528336 0.00359476311
v 0.00706750713 -0.0105772736 0.00359476311
v 0.00706750713 -0.0105772736 0.00359476311
v 0.00486818468 -0.0117528336 0.00359476311
v 0.0078553725 -0.0189645421 0.00479555223
v 0.0114042312 -0.0170676373 0.00479555223
v 0.0110103106 -0.0265812371 0.00607081223
v 0.0159844887 -0.0239224825 0.00607081223
v 0.0159844887 -0.0239224825 0.00607081223
v 0.0110103106 -0.0265812371 0.00607081223
v 0.0135681313 -0.0327563621 0.00785504282
v 0.0196978711 -0.0294799469 0.00785504282
v 0.00165784173 -0.00165784231 0
v 0.00130255835 -0.00194941601 0
v 0.00385953509 -0.00577620277 0.00196508039
v 0.00491225626 -0.0049122558 0.00196507992
v 0.00491225626 -0.0049122558 0.00196507992
v 0.00385953509 -0.00577620277 0.00196508039
v 0.00706750713 -0.0105772736 0.00359476311
v 0.00899523124 -0.00899523124 0.00359476381
v 0.00899523124 -0.00899523124 0.00359476381
v 0.00706750713 -0.0105772736 0.00359476311
v 0.0114042312 -0.0170676373 0.00479555223
v 0.0145148318 -0.0145148318 0.00479555223
v 0.0159844887 -0.0239224825 0.00607081223
v 0.0203443971 -0.0203443952 0.0060708127
v 0.0203443971 -0.0203443952 0.0060708127
v 0.0159844887 -0.0239224825 0.00607081223
v 0.0196978711 -0.0294799469 0.00785504282
v 0.0250706356 -0.02507063 0.00785504282
v 0.00194941671 -0.00130255846 0
v 0.00165784173 -0.00165784231 0
v 0.00491225626 -0.0049122558 0.00196507992
v 0.00577620324 -0.00385953509 0.00196508039
v 0.00577620324 -0.00385953509 0.00196508039
v 0.00491225626 -0.0049122558 0.00196507992
v 0.00899523124 -0.00899523124 0.00359476381
v 0.0105772717 -0.00706750806 0.00359476311
v 0.0105772717 -0.00706750806 0.00359476311
v 0.00899523124 -0.00899523124 0.00359476381
v 0.0145148318 -0.0145148318 0.00479555223
v 0.0170676373 -0.0114042312 0.00479555223
v 0.0203443971 -0.0203443952 0.0060708127
v 0.0239224806 -0.0159844887 0.00607081223
v 0.0239224806 -0.0159844887 0.00607081223
v 0.0203443971 -0.0203443952 0.0060708127
v 0.0250706356 -0.02507063 0.00785504282
v 0.0294799432 -0.0196978711 0.00785504282
v 0.00216607517 -0.000897217658 0
v 0.00194941671 -0.00130255846 0
v 0.00577620324 -0.00385953509 0.00196508039
v 0.0064181718 -0.00265849405 0.00196508155
v 0.0064181718 -0.00265849405 0.00196508155
v 0.00577620324 -0.00385953509 0.00196508039
v 0.0105772717 -0.00706750806 0.00359476311
v 0.0117528355 -0.00486818422 0.00359476311
v 0.0117528355 -0.00486818422 0.00359476311
v 0.0105772717 -0.00706750806 0.00359476311
v 0.0170676373 -0.0114042312 0.00479555223
v 0.0189645421 -0.00785537157 0.00479555177
v 0.0239224806 -0.0159844887 0.00607081223
v 0.0265812371 -0.0110103078 0.0060708127
v 0.0265812371 -0.0110103078 0.0060708127
v 0.0239224806 -0.0159844887 0.00607081223
v 0.0294799432 -0.0196978711 0.00785504282
v 0.0327563584 -0.0135681303 0.00785504375
v 0.00229949295 -0.000457397691 0
v 0.00216607517 -0.000897217658 0
v 0.0064181718 -0.00265849405 0.00196508155
v 0.00681349449 -0.00135528843 0.00196508039
v 0.00681349449 -0.00135528843 0.00196508039
v 0.0064181718 -0.00265849405 0.00196508155
v 0.0117528355 -0.00486818422 0.00359476311
v 0.0124767441 -0.00248177862 0.00359476311
v 0.0124767441 -0.00248177862 0.00359476311
v 0.0117528355 -0.00486818422 0.00359476311
v 0.0189645421 -0.00785537157 0.00479555177
v 0.0201326516 -0.00400463352 0.00479555223
v 0.0265812371 -0.0110103078 0.0060708127
v 0.028218491 -0.00561300572 0.00607081177
v 0.028218491 -0.00561300572 0.00607081177
v 0.0265812371 -0.0110103078 0.0060708127
v 0.0327563584 -0.0135681303 0.00785504375
v 0.0347739682 -0.00691697188 0.00785504282
v 0.00234454265 0 0
v 0.00229949295 -0.000457397691 0
v 0.00681349449 -0.00135528843 0.00196508039
v 0.00694697956 -1.75083142E-11 0.00196508039
v 0.00694697956 -1.75083142E-11 0.00196508039
v 0.00681349449 -0.00135528843 0.00196508039
v 0.0124767441 -0.00248177862 0.00359476311
v 0.0127211781 -3.65616114E-11 0.00359476311
v 0.0127211781 -3.65616114E-11 0.00359476311
v 0.0124767441 -0.00248177862 0.00359476311
v 0.0201326516 -0.00400463352 0.00479555223
v 0.0205270741 -2.39738715E-11 0.00479555223
v 0.028218491 -0.00561300572 0.00607081177
v 0.0287713241 3.29900482E-11 0.0060708127
v 0.0287713241 3.29900482E-11 0.0060708127
v 0.028218491 -0.00561300572 0.00607081177
v 0.0347739682 -0.00691697188 0.00785504282
v 0.0354552269 1.06029296E-10 0.00785504282
v 0.00229949271 0.000457397691 0
v 0.00234454265 0 0
v 0.00694697956 -1.75083142E-11 0.00196508039
v 0.00681349402 0.00135528843 0.00196508039
v 0.00681349402 0.00135528843 0.00196508039
v 0.00694697956 -1.75083142E-11 0.00196508039
v 0.0127211781 -3.65616114E-11 0.00359476311
v 0.0124767432 0.00248177862 0.00359476311
v 0.0124767432 0.00248177862 0.00359476311
v 0.0127211781 -3.65616114E-11 0.00359476311
v 0.0205270741 -2.39738715E-11 0.00479555223
v 0.0201326516 0.00400463352 0.00479555177
v 0.0287713241 3.29900482E-11 0.0060708127
v 0.0282184873 0.00561300572 0.00607081223
v 0.0282184873 0.00561300572 0.00607081223
v 0.0287713241 3.29900482E-11 0.0060708127
v 0.0354552269 1.06029296E-10 0.00785504282
v 0.0347739682 0.00691697188 0.00785504282
v 0.00216607517 0.000897217367 0
v 0.00229949271 0.000457397691 0
v 0.00681349402 0.00135528843 0.00196508039
v 0.0064181718 0.00265849405 0.00196508109
v 0.0064181718 0.00265849405 0.00196508109
v 0.00681349402 0.00135528843 0.00196508039
v 0.0124767432 0.00248177862 0.00359476311
v 0.0117528336 0.00486818422 0.00359476311
v 0.0117528336 0.00486818422 0.00359476311
v 0.0124767432 0.00248177862 0.00359476311
v 0.0201326516 0.00400463352 0.00479555177
v 0.0189645421 0.0078553725 0.00479555177
v 0.0282184873 0.00561300572 0.00607081223
v 0.0265812371 0.0110103106 0.0060708127
v 0.0265812371 0.0110103106 0.0060708127
v 0.0282184873 0.00561300572 0.00607081223
v 0.0347739682 0.00691697188 0.00785504282
v 0.0327563621 0.0135681313 0.00785504375
v 0.00194941694 0.00130255846 0
v 0.00216607517 0.000897217367 0
v 0.0064181718 0.00265849405 0.00196508109
v 0.00577620277 0.00385953509 0.00196508039
v 0.00577620277 0.00385953509 0.00196508039
v 0.0064181718 0.00265849405 0.00196508109
v 0.0117528336 0.00486818422 0.00359476311
v 0.0105772736 0.00706750806 0.00359476381
v 0.0105772736 0.00706750806 0.00359476381
v 0.0117528336 0.00486818422 0.00359476311
v 0.0189645421 0.0078553725 0.00479555177
v 0.0170676373 0.0114042312 0.00479555223
v 0.0265812371 0.0110103106 0.0060708127
v 0.0239224825 0.0159844887 0.00607081223
v 0.0239224825 0.0159844887 0.00607081223
v 0.0265812371 0.0110103106 0.0060708127
v 0.0327563621 0.0135681313 0.00785504375
v 0.0294799432 0.0196978711 0.00785504282
v 0.00165784115 0.00165784115 0
v 0.00194941694 0.00130255846 0
v 0.00577620277 0.00385953509 0.00196508039
v 0.0049122558 0.0049122558 0.00196507992
v 0.0049122558 0.0049122558 0.00196507992
v 0.00577620277 0.00385953509 0.00196508039
v 0.0105772736 0.00706750806 0.00359476381
v 0.00899523031 0.00899523031 0.00359476381
v 0.00899523031 0.00899523031 0.00359476381
v 0.0105772736 0.00706750806 0.00359476381
v 0.0170676373 0.0114042312 0.00479555223
v 0.0145148337 0.0145148337 0.00479555223
v 0.0239224825 0.0159844887 0.00607081223
v 0.0203443971 0.0203443971 0.00607081223
v 0.0203443971 0.0203443971 0.00607081223
v 0.0239224825 0.0159844887 0.00607081223
v 0.0294799432 0.0196978711 0.00785504282
v 0.0250706356 0.0250706356 0.00785504282
v 0.00130255846 0.00194941694 0
v 0.00165784115 0.00165784115 0
v 0.0049122558 0.0049122558 0.00196507992
v 0.00385953509 0.00577620277 0.00196508039
v 0.00385953509 0.00577620277 0.00196508039
v 0.0049122558 0.0049122558 0.00196507992
v 0.00899523031 0.00899523031 0.00359476381
v 0.00706750806 0.0105772736 0.00359476381
v 0.00706750806 0.0105772736 0.00359476381
v 0.00899523031 0.00899523031 0.00359476381
v 0.0145148337 0.0145148337 0.00479555223
v 0.0114042312 0.0170676373 0.00479555223
v 0.0203443971 0.0203443971 0.00607081223
v 0.0159844887 0.0239224806 0.00607081223
v 0.0159844887 0.0239224806 0.00607081223
v 0.0203443971 0.0203443971 0.00607081223
v 0.0250706356 0.0250706356 0.00785504282
v 0.0196978711 0.0294799432 0.00785504282
v 0.000897217367 0.00216607517 0
v 0.00130255846 0.00194941694 0
v 0.00385953509 0.00577620277 0.00196508039
v 0.00265849382 0.00641817274 0.00196508155
v 0.00265849382 0.00641817274 0.00196508155
v 0.00385953509 0.00577620277 0.00196508039
v 0.00706750806 0.0105772736 0.00359476381
v 0.00486818422 0.0117528336 0.00359476311
v 0.00486818422 0.0117528336 0.00359476311
v 0.00706750806 0.0105772736 0.00359476381
v 0.0114042312 0.0170676373 0.00479555223
v 0.0078553725 0.0189645421 0.00479555223
v 0.0159844887 0.0239224806 0.00607081223
v 0.0110103106 0.0265812371 0.00607081223
v 0.0110103106 0.0265812371 0.00607081223
v 0.0159844887 0.0239224806 0.00607081223
v 0.0196978711 0.0294799432 0.00785504282
v 0.0135681313 0.0327563621 0.00785504375
v 0.000457397691 0.00229949271 0
v 0.000897217367 0.00216607517 0
v 0.00265849382 0.00641817274 0.00196508155
v 0.00135528843 0.00681349402 0.00196508039
v 0.00135528843 0.00681349402 0.00196508039
v 0.00265849382 0.00641817274 0.00196508155
v 0.00486818422 0.0117528336 0.00359476311
v 0.00248177862 0.0124767432 0.00359476381
v 0.00248177862 0.0124767432 0.00359476381
v 0.00486818422 0.0117528336 0.00359476311
v 0.0078553725 0.0189645421 0.00479555223
v 0.00400463352 0.0201326516 0.00479555177
v 0.0110103106 0.0265812371 0.00607081223
v 0.00561300572 0.0282184873 0.0060708127
v 0.00561300572 0.0282184873 0.0060708127
v 0.0110103106 0.0265812371 0.00607081223
v 0.0135681313 0.0327563621 0.00785504375
v 0.00691697188 0.0347739682 0.00785504282
v -0 0.00234454265 0
v 0.000457397691 0.00229949271 0
v 0.00135528843 0.00681349402 0.00196508039
v -0 0.00694698095 0.00196508039
v -0 0.00694698095 0.00196508039
v 0.00135528843 0.00681349402 0.00196508039
v 0.00248177862 0.0124767432 0.00359476381
v -0 0.0127211818 0.00359476311
v -0 0.0127211818 0.00359476311
v 0.00248177862 0.0124767432 0.00359476381
v 0.00400463352 0.0201326516 0.00479555177
v -0 0.0205270741 0.00479555223
v 0.00561300572 0.0282184873 0.0060708127
v -0 0.0287713259 0.0060708127
v -0 0.0287713259 0.0060708127
v 0.00561300572 0.0282184873 0.0060708127
v 0.00691697188 0.0347739682 0.00785504282
v -0 0.0354552343 0.00785504188
vt 1 0.833333194
vt 0.96875 0.833332956
vt 0.96875 0.999999881
vt 1 0.999999881
vt 0.96875 0.833332956
vt 0.9375 0.833332956
vt 0.9375 0.999999881
vt 0.96875 0.999999881
vt 0.9375 0.833332956
vt 0.90625 0.833332956
vt 0.90625 0.999999881
vt 0.9375 0.999999881
vt 0.90625 0.833332956
vt 0.875 0.833332956
vt 0.875 0.999999881
vt 0.90625 0.999999881
vt 0.875 0.833332956
vt 0.84375 0.833332956
vt 0.84375 0.999999881
vt 0.875 0.999999881
vt 0.84375 0.833332956
vt 0.8125 0.833332956
vt 0.8125 0.999999881
vt 0.84375 0.999999881
vt 0.8125 0.833332956
vt 0.78125 0.833332956
vt 0.78125 0.999999881
vt 0.8125 0.999999881
vt 0.78125 0.833332956
vt 0.75 0.833332956
vt 0.75 0.999999881
vt 0.78125 0.999999881
vt 0.75 0.833332956
vt 0.71875 0.833332956
vt 0.71875 0.999999881
vt 0.75 0.999999881
vt 0.71875 0.833332956
vt 0.68749994 0.833332956
vt 0.6875 0.999999881
vt 0.71875 0.999999881
vt 0.68749994 0.833332956
vt 0.65625 0.833332956
vt 0.65625 0.999999881
vt 0.6875 0.999999881
vt 0.65625 0.833332956
vt 0.625 0.833332956
vt 0.625 0.999999881
vt 0.65625 0.999999881
vt 0.625 0.833332956
vt 0.59375 0.833332956
vt 0.59375 0.999999881
vt 0.625 0.999999881
vt 0.59375 0.833332956
vt 0.5625 0.833332956
vt 0.5625 0.999999881
vt 0.59375 0.999999881
vt 0.5625 0.833332956
vt 0.53125 0.833332956
vt 0.53125 0.999999881
vt 0.5625 0.999999881
vt 0.53125 0.833332956
vt 0.5 0.833332956
vt 0.5 0.999999881
vt 0.53125 0.999999881
vt 0.5 0.833332956
vt 0.46875 0.833332956
vt 0.46875 0.999999881
vt 0.5 0.999999881
vt 0.46875 0.833332956
vt 0.4375 0.833332956
vt 0.4375 0.999999881
vt 0.46875 0.999999881
vt 0.4375 0.833332956
vt 0.40625 0.833332956
vt 0.40625 0.999999881
vt 0.4375 0.999999881
vt 0.40625 0.833332956
vt 0.375 0.833332956
vt 0.375 0.999999881
vt 0.40625 0.999999881
vt 0.375 0.833332956
vt 0.34374997 0.833332956
vt 0.34375 0.999999881
vt 0.375 0.999999881
vt 0.34374997 0.833332956
vt 0.3125 0.833332956
vt 0.3125 0.999999881
vt 0.34375 0.999999881
vt 0.3125 0.833332956
vt 0.28125 0.833332956
vt 0.28125 0.999999881
vt 0.3125 0.999999881
vt 0.28125 0.833332956
vt 0.25 0.833332956
vt 0.25 0.999999881
vt 0.28125 0.999999881
vt 0.25 0.833332956
vt 0.21875 0.833332956
vt 0.21875 0.999999881
vt 0.25 0.999999881
vt 0.21875 0.833332956
vt 0.1875 0.833332956
vt 0.1875 0.999999881
vt 0.21875 0.999999881
vt 0.1875 0.833332956
vt 0.15625 0.833332956
vt 0.15625 0.999999881
vt 0.1875 0.999999881
vt 0.15625 0.833332956
vt 0.125 0.833332956
vt 0.125 0.999999881
vt 0.15625 0.999999881
vt 0.125 0.833332956
vt 0.09375 0.833332956
vt 0.09375 0.999999881
vt 0.125 0.999999881
vt 0.09375 0.833332956
vt 0.0625 0.833332956
vt 0.0625 0.999999881
vt 0.09375 0.999999881
vt 0.0625 0.833332956
vt 0.03125 0.833332956
vt 0.03125 0.999999881
vt 0.0625 0.999999881
vt 0.03125 0.833332956
vt 0 0.833333194
vt 0 0.999999881
vt 0.03125 0.999999881
vt 0.03125 2.98023224E-08
vt 0 2.98023224E-08
vt 0 0.166666627
vt 0.03125 0.166666627
vt 0.03125 0.166666627
vt 0 0.166666627
vt 0 0.333333343
vt 0.03125 0.333333105
vt 0.03125 0.333333105
vt 0 0.333333343
vt 0 0.49999994
vt 0.03125 0.49999994
vt 0 0.666666508
vt 0.03125 0.666666508
vt 0.03125 0.666666508
vt 0 0.666666508
vt 0 0.833333194
vt 0.03125 0.833332956
vt 0.0625 2.98023224E-08
vt 0.03125 2.98023224E-08
vt 0.03125 0.166666627
vt 0.0625 0.166666627
vt 0.0625 0.166666627
vt 0.03125 0.166666627
vt 0.03125 0.333333105
vt 0.0625 0.333333105
vt 0.0625 0.333333105
vt 0.03125 0.333333105
vt 0.03125 0.49999994
vt 0.0625 0.49999994
vt 0.03125 0.666666508
vt 0.0625 0.666666508
vt 0.0625 0.666666508
vt 0.03125 0.666666508
vt 0.03125 0.833332956
vt 0.0625 0.833332956
vt 0.09375 2.98023224E-08
vt 0.0625 2.98023224E-08
vt 0.0625 0.166666627
vt 0.09375 0.166666627
vt 0.09375 0.166666627
vt 0.0625 0.166666627
vt 0.0625 0.333333105
vt 0.09375 0.333333105
vt 0.09375 0.333333105
vt 0.0625 0.333333105
vt 0.0625 0.49999994
vt 0.09375 0.49999994
vt 0.0625 0.666666508
vt 0.09375 0.666666508
vt 0.09375 0.666666508
vt 0.0625 0.666666508
vt 0.0625 0.833332956
vt 0.09375 0.833332956
vt 0.125 2.98023224E-08
vt 0.09375 2.98023224E-08
vt 0.09375 0.166666627
vt 0.125 0.166666627
vt 0.125 0.166666627
vt 0.09375 0.166666627
vt 0.09375 0.333333105
vt 0.125 0.333333105
vt 0.125 0.333333105
vt 0.09375 0.333333105
vt 0.09375 0.49999994
vt 0.125 0.49999994
vt 0.09375 0.666666508
vt 0.125 0.666666508
vt 0.125 0.666666508
vt 0.09375 0.666666508
vt 0.09375 0.833332956
vt 0.125 0.833332956
vt 0.15625 2.98023224E-08
vt 0.125 2.98023224E-08
vt 0.125 0.166666627
vt 0.15625 0.166666627
vt 0.15625 0.166666627
vt 0.125 0.166666627
vt 0.125 0.333333105
vt 0.15625 0.333333105
vt 0.15625 0.333333105
vt 0.125 0.333333105
vt 0.125 0.49999994
vt 0.15625 0.49999994
vt 0.125 0.666666508
vt 0.15625 0.666666508
vt 0.15625 0.666666508
vt 0.125 0.666666508
vt 0.125 0.833332956
vt 0.15625 0.833332956
vt 0.1875 2.98023224E-08
vt 0.15625 2.98023224E-08
vt 0.15625 0.166666627
vt 0.1875 0.166666627
vt 0.1875 0.166666627
vt 0.15625 0.166666627
vt 0.15625 0.333333105
vt 0.1875 0.333333105
vt 0.1875 0.333333105
vt 0.15625 0.333333105
vt 0.15625 0.49999994
vt 0.1875 0.49999994
vt 0.15625 0.666666508
vt 0.1875 0.666666508
vt 0.1875 0.666666508
vt 0.15625 0.666666508
vt 0.15625 0.833332956
vt 0.1875 0.833332956
vt 0.21875 2.98023224E-08
vt 0.1875 2.98023224E-08
vt 0.1875 0.166666627
vt 0.21875 0.166666627
vt 0.21875 0.166666627
vt 0.1875 0.166666627
vt 0.1875 0.333333105
vt 0.21875 0.333333105
vt 0.21875 0.333333105
vt 0.1875 0.333333105
vt 0.1875 0.49999994
vt 0.21875 0.49999994
vt 0.1875 0.666666508
vt 0.21875 0.666666508
vt 0.21875 0.666666508
vt 0.1875 0.666666508
vt 0.1875 0.833332956
vt 0.21875 0.833332956
vt 0.25 2.98023224E-08
vt 0.21875 2.98023224E-08
vt 0.21875 0.166666627
vt 0.25 0.166666627
vt 0.25 0.166666627
vt 0.21875 0.166666627
vt 0.21875 0.333333105
vt 0.25 0.333333105
vt 0.25 0.333333105
vt 0.21875 0.333333105
vt 0.21875 0.49999994
vt 0.25 0.49999994
vt 0.21875 0.666666508
vt 0.25 0.666666508
vt 0.25 0.666666508
vt 0.21875 0.666666508
vt 0.21875 0.833332956
vt 0.25 0.833332956
vt 0.28125 2.98023224E-08
vt 0.25 2.98023224E-08
vt 0.25 0.166666627
vt 0.28125 0.166666627
vt 0.28125 0.166666627
vt 0.25 0.166666627
vt 0.25 0.333333105
vt 0.28125 0.333333105
vt 0.28125 0.333333105
vt 0.25 0.333333105
vt 0.25 0.49999994
vt 0.28125 0.49999994
vt 0.25 0.666666508
vt 0.28125 0.666666508
vt 0.28125 0.666666508
vt 0.25 0.666666508
vt 0.25 0.833332956
vt 0.28125 0.833332956
vt 0.3125 2.98023224E-08
vt 0.28125 2.98023224E-08
vt 0.28125 0.166666627
vt 0.3125 0.166666627
vt 0.3125 0.166666627
vt 0.28125 0.166666627
vt 0.28125 0.333333105
vt 0.3125 0.333333105
vt 0.3125 0.333333105
vt 0.28125 0.333333105
vt 0.28125 0.49999994
vt 0.3125 0.49999994
vt 0.28125 0.666666508
vt 0.3125 0.666666508
vt 0.3125 0.666666508
vt 0.28125 0.666666508
vt 0.28125 0.833332956
vt 0.3125 0.833332956
vt 0.34375 2.98023224E-08
vt 0.3125 2.98023224E-08
vt 0.3125 0.166666627
vt 0.34375 0.166666627
vt 0.34375 0.166666627
vt 0.3125 0.166666627
vt 0.3125 0.333333105
vt 0.34374997 0.333333105
vt 0.34374997 0.333333105
vt 0.3125 0.333333105
vt 0.3125 0.49999994
vt 0.34374997 0.49999994
vt 0.3125 0.666666508
vt 0.34374997 0.666666508
vt 0.34374997 0.666666508
vt 0.3125 0.666666508
vt 0.3125 0.833332956
vt 0.34374997 0.833332956
vt 0.375 2.98023224E-08
vt 0.34375 2.98023224E-08
vt 0.34375 0.166666627
vt 0.375 0.166666627
vt 0.375 0.166666627
vt 0.34375 0.166666627
vt 0.34374997 0.333333105
vt 0.375 0.333333105
vt 0.375 0.333333105
vt 0.34374997 0.333333105
vt 0.34374997 0.49999994
vt 0.375 0.49999994
vt 0.34374997 0.666666508
vt 0.375 0.666666508
vt 0.375 0.666666508
vt 0.34374997 0.666666508
vt 0.34374997 0.833332956
vt 0.375 0.833332956
vt 0.40625 2.98023224E-08
vt 0.375 2.98023224E-08
vt 0.375 0.166666627
vt 0.40625 0.166666627
vt 0.40625 0.166666627
vt 0.375 0.166666627
vt 0.375 0.333333105
vt 0.40625 0.333333105
vt 0.40625 0.333333105
vt 0.375 0.333333105
vt 0.375 0.49999994
vt 0.40625003 0.49999994
vt 0.375 0.666666508
vt 0.40625003 0.666666508
vt 0.40625003 0.666666508
vt 0.375 0.666666508
vt 0.375 0.833332956
vt 0.40625 0.833332956
vt 0.4375 2.98023224E-08
vt 0.40625 2.98023224E-08
vt 0.40625 0.166666627
vt 0.4375 0.166666627
vt 0.4375 0.166666627
vt 0.40625 0.166666627
vt 0.40625 0.333333105
vt 0.4375 0.333333105
vt 0.4375 0.333333105
vt 0.40625 0.333333105
vt 0.40625003 0.49999994
vt 0.4375 0.49999994
vt 0.40625003 0.666666508
vt 0.4375 0.666666508
vt 0.4375 0.666666508
vt 0.40625003 0.666666508
vt 0.40625 0.833332956
vt 0.4375 0.833332956
vt 0.46875 2.98023224E-08
vt 0.4375 2.98023224E-08
vt 0.4375 0.166666627
vt 0.46875 0.166666627
vt 0.46875 0.166666627
vt 0.4375 0.166666627
vt 0.4375 0.333333105
vt 0.46874997 0.333333105
vt 0.46874997 0.333333105
vt 0.4375 0.333333105
vt 0.4375 0.49999994
vt 0.46875 0.49999994
vt 0.4375 0.666666508
vt 0.46875 0.666666508
vt 0.46875 0.666666508
vt 0.4375 0.666666508
vt 0.4375 0.833332956
vt 0.46875 0.833332956
vt 0.5 2.98023224E-08
vt 0.46875 2.98023224E-08
vt 0.46875 0.166666627
vt 0.5 0.166666627
vt 0.5 0.166666627
vt 0.46875 0.166666627
vt 0.46874997 0.333333105
vt 0.5 0.333333105
vt 0.5 0.333333105
vt 0.46874997 0.333333105
vt 0.46875 0.49999994
vt 0.5 0.49999994
vt 0.46875 0.666666508
vt 0.5 0.666666508
vt 0.5 0.666666508
vt 0.46875 0.666666508
vt 0.46875 0.833332956
vt 0.5 0.833332956
vt 0.53125 2.98023224E-08
vt 0.5 2.98023224E-08
vt 0.5 0.166666627
vt 0.53125 0.166666627
vt 0.53125 0.166666627
vt 0.5 0.166666627
vt 0.5 0.333333105
vt 0.53125 0.333333105
vt 0.53125 0.333333105
vt 0.5 0.333333105
vt 0.5 0.49999994
vt 0.53125 0.49999994
vt 0.5 0.666666508
vt 0.53125 0.666666508
vt 0.53125 0.666666508
vt 0.5 0.666666508
vt 0.5 0.833332956
vt 0.53125 0.833332956
vt 0.5625 2.98023224E-08
vt 0.53125 2.98023224E-08
vt 0.53125 0.166666627
vt 0.5625 0.166666627
vt 0.5625 0.166666627
vt 0.53125 0.166666627
vt 0.53125 0.333333105
vt 0.5625 0.333333105
vt 0.5625 0.333333105
vt 0.53125 0.333333105
vt 0.53125 0.49999994
vt 0.5625 0.49999994
vt 0.53125 0.666666508
vt 0.5625 0.666666508
vt 0.5625 0.666666508
vt 0.53125 0.666666508
vt 0.53125 0.833332956
vt 0.5625 0.833332956
vt 0.59375 2.98023224E-08
vt 0.5625 2.98023224E-08
vt 0.5625 0.166666627
vt 0.59375 0.166666627
vt 0.59375 0.166666627
vt 0.5625 0.166666627
vt 0.5625 0.333333105
vt 0.59375 0.333333105
vt 0.59375 0.333333105
vt 0.5625 0.333333105
vt 0.5625 0.49999994
vt 0.59375 0.49999994
vt 0.5625 0.666666508
vt 0.59375 0.666666508
vt 0.59375 0.666666508
vt 0.5625 0.666666508
vt 0.5625 0.833332956
vt 0.59375 0.833332956
vt 0.625 2.98023224E-08
vt 0.59375 2.98023224E-08
vt 0.59375 0.166666627
vt 0.625 0.166666627
vt 0.625 0.166666627
vt 0.59375 0.166666627
vt 0.59375 0.333333105
vt 0.625 0.333333105
vt 0.625 0.333333105
vt 0.59375 0.333333105
vt 0.59375 0.49999994
vt 0.625 0.49999994
vt 0.59375 0.666666508
vt 0.625 0.666666508
vt 0.625 0.666666508
vt 0.59375 0.666666508
vt 0.59375 0.833332956
vt 0.625 0.833332956
vt 0.65625 2.98023224E-08
vt 0.625 2.98023224E-08
vt 0.625 0.166666627
vt 0.65625 0.166666627
vt 0.65625 0.166666627
vt 0.625 0.166666627
vt 0.625 0.333333105
vt 0.65625 0.333333105
vt 0.65625 0.333333105
vt 0.625 0.333333105
vt 0.625 0.49999994
vt 0.65625006 0.49999994
vt 0.625 0.666666508
vt 0.65625006 0.666666508
vt 0.65625006 0.666666508
vt 0.625 0.666666508
vt 0.625 0.833332956
vt 0.65625 0.833332956
vt 0.6875 2.98023224E-08
vt 0.65625 2.98023224E-08
vt 0.65625 0.166666627
vt 0.6875 0.166666627
vt 0.6875 0.166666627
vt 0.65625 0.166666627
vt 0.65625 0.333333105
vt 0.68749994 0.333333105
vt 0.68749994 0.333333105
vt 0.65625 0.333333105
vt 0.65625006 0.49999994
vt 0.68749994 0.49999994
vt 0.65625006 0.666666508
vt 0.68749994 0.666666508
vt 0.68749994 0.666666508
vt 0.65625006 0.666666508
vt 0.65625 0.833332956
vt 0.68749994 0.833332956
vt 0.71875 2.98023224E-08
vt 0.6875 2.98023224E-08
vt 0.6875 0.166666627
vt 0.71875 0.166666627
vt 0.71875 0.166666627
vt 0.6875 0.166666627
vt 0.68749994 0.333333105
vt 0.71875 0.333333105
vt 0.71875 0.333333105
vt 0.68749994 0.333333105
vt 0.68749994 0.49999994
vt 0.71875 0.49999994
vt 0.68749994 0.666666508
vt 0.71875 0.666666508
vt 0.71875 0.666666508
vt 0.68749994 0.666666508
vt 0.68749994 0.833332956
vt 0.71875 0.833332956
vt 0.75 2.98023224E-08
vt 0.71875 2.98023224E-08
vt 0.71875 0.166666627
vt 0.75 0.166666627
vt 0.75 0.166666627
vt 0.71875 0.166666627
vt 0.71875 0.333333105
vt 0.75 0.333333105
vt 0.75 0.333333105
vt 0.71875 0.333333105
vt 0.71875 0.49999994
vt 0.75 0.49999994
vt 0.71875 0.666666508
vt 0.75 0.666666508
vt 0.75 0.666666508
vt 0.71875 0.666666508
vt 0.71875 0.833332956
vt 0.75 0.833332956
vt 0.78125 2.98023224E-08
vt 0.75 2.98023224E-08
vt 0.75 0.166666627
vt 0.78125 0.166666627
vt 0.78125 0.166666627
vt 0.75 0.166666627
vt 0.75 0.333333105
vt 0.78125 0.333333105
vt 0.78125 0.333333105
vt 0.75 0.333333105
vt 0.75 0.49999994
vt 0.78125 0.49999994
vt 0.75 0.666666508
vt 0.78125 0.666666508
vt 0.78125 0.666666508
vt 0.75 0.666666508
vt 0.75 0.833332956
vt 0.78125 0.833332956
vt 0.8125 2.98023224E-08
vt 0.78125 2.98023224E-08
vt 0.78125 0.166666627
vt 0.8125 0.166666627
vt 0.8125 0.166666627
vt 0.78125 0.166666627
vt 0.78125 0.333333105
vt 0.8125 0.333333105
vt 0.8125 0.333333105
vt 0.78125 0.333333105
vt 0.78125 0.49999994
vt 0.81250006 0.49999994
vt 0.78125 0.666666508
vt 0.81250006 0.666666508
vt 0.81250006 0.666666508
vt 0.78125 0.666666508
vt 0.78125 0.833332956
vt 0.8125 0.833332956
vt 0.84375 2.98023224E-08
vt 0.8125 2.98023224E-08
vt 0.8125 0.166666627
vt 0.84375 0.166666627
vt 0.84375 0.166666627
vt 0.8125 0.166666627
vt 0.8125 0.333333105
vt 0.84374994 0.333333105
vt 0.84374994 0.333333105
vt 0.8125 0.333333105
vt 0.81250006 0.49999994
vt 0.84375 0.49999994
vt 0.81250006 0.666666508
vt 0.84375 0.666666508
vt 0.84375 0.666666508
vt 0.81250006 0.666666508
vt 0.8125 0.833332956
vt 0.84375 0.833332956
vt 0.875 2.98023224E-08
vt 0.84375 2.98023224E-08
vt 0.84375 0.166666627
vt 0.875 0.166666627
vt 0.875 0.166666627
vt 0.84375 0.166666627
vt 0.84374994 0.333333105
vt 0.875 0.333333105
vt 0.875 0.333333105
vt 0.84374994 0.333333105
vt 0.84375 0.49999994
vt 0.875 0.49999994
vt 0.84375 0.666666508
vt 0.875 0.666666508
vt 0.875 0.666666508
vt 0.84375 0.666666508
vt 0.84375 0.833332956
vt 0.875 0.833332956
vt 0.90625 2.98023224E-08
vt 0.875 2.98023224E-08
vt 0.875 0.166666627
vt 0.90625 0.166666627
vt 0.90625 0.166666627
vt 0.875 0.166666627
vt 0.875 0.333333105
vt 0.90625 0.333333105
vt 0.90625 0.333333105
vt 0.875 0.333333105
vt 0.875 0.49999994
vt 0.90625 0.49999994
vt 0.875 0.666666508
vt 0.90625 0.666666508
vt 0.90625 0.666666508
vt 0.875 0.666666508
vt 0.875 0.833332956
vt 0.90625 0.833332956
vt 0.9375 2.98023224E-08
vt 0.90625 2.98023224E-08
vt 0.90625 0.166666627
vt 0.9375 0.166666627
vt 0.9375 0.166666627
vt 0.90625 0.166666627
vt 0.90625 0.333333105
vt 0.93749994 0.333333105
vt 0.93749994 0.333333105
vt 0.90625 0.333333105
vt 0.90625 0.49999994
vt 0.9375 0.49999994
vt 0.90625 0.666666508
vt 0.9375 0.666666508
vt 0.9375 0.666666508
vt 0.90625 0.666666508
vt 0.90625 0.833332956
vt 0.9375 0.833332956
vt 0.96875 2.98023224E-08
vt 0.9375 2.98023224E-08
vt 0.9375 0.166666627
vt 0.96875 0.166666627
vt 0.96875 0.166666627
vt 0.9375 0.166666627
vt 0.93749994 0.333333105
vt 0.96875 0.333333105
vt 0.96875 0.333333105
vt 0.93749994 0.333333105
vt 0.9375 0.49999994
vt 0.96875006 0.49999994
vt 0.9375 0.666666508
vt 0.96875006 0.666666508
vt 0.96875006 0.666666508
vt 0.9375 0.666666508
vt 0.9375 0.833332956
vt 0.96875 0.833332956
vt 1 2.98023224E-08
vt 0.96875 2.98023224E-08
vt 0.96875 0.166666627
vt 1 0.166666627
vt 1 0.166666627
vt 0.96875 0.166666627
vt 0.96875 0.333333105
vt 1 0.333333343
vt 1 0.333333343
vt 0.96875 0.333333105
vt 0.96875006 0.49999994
vt 1 0.49999994
vt 0.96875006 0.666666508
vt 1 0.666666508
vt 1 0.666666508
vt 0.96875006 0.666666508
vt 0.96875 0.833332956
vt 1 0.833333194
vn 0.0357633121 0.363110095 -0.931059659
vn 0.0357633121 0.363110095 -0.931059659
vn 0.0357633121 0.363110095 -0.931059659
vn 0.0357633121 0.363110095 -0.931059659
vn 0.10591533 0.349155515 -0.931059837
vn 0.10591533 0.349155515 -0.931059837
vn 0.10591533 0.349155515 -0.931059837
vn 0.10591533 0.349155515 -0.931059837
vn 0.171996951 0.321783662 -0.931059718
vn 0.171996951 0.321783662 -0.931059718
vn 0.171996951 0.321783662 -0.931059718
vn 0.171996951 0.321783662 -0.931059718
vn 0.231468931 0.282045901 -0.931059718
vn 0.231468931 0.282045901 -0.931059718
vn 0.231468931 0.282045901 -0.931059718
vn 0.231468931 0.282045901 -0.931059718
vn 0.282045901 0.231468782 -0.931059718
vn 0.282045901 0.231468782 -0.931059718
vn 0.282045901 0.231468782 -0.931059718
vn 0.282045901 0.231468782 -0.931059718
vn 0.321783692 0.171996951 -0.931059718
vn 0.321783692 0.171996951 -0.931059718
vn 0.321783692 0.171996951 -0.931059718
vn 0.321783692 0.171996951 -0.931059718
vn 0.349155635 0.10591545 -0.931059718
vn 0.349155635 0.10591545 -0.931059718
vn 0.349155635 0.10591545 -0.931059718
vn 0.349155635 0.10591545 -0.931059718
vn 0.363109618 0.0357632227 -0.931059837
vn 0.363109618 0.0357632227 -0.931059837
vn 0.363109618 0.0357632227 -0.931059837
vn 0.363109618 0.0357632227 -0.931059837
vn 0.363109767 -0.0357633755 -0.931059718
vn 0.363109767 -0.0357633755 -0.931059718
vn 0.363109767 -0.0357633755 -0.931059718
vn 0.363109767 -0.0357633755 -0.931059718
vn 0.349155903 -0.105915368 -0.931059659
vn 0.349155903 -0.105915368 -0.931059659
vn 0.349155903 -0.105915368 -0.931059659
vn 0.349155903 -0.105915368 -0.931059659
vn 0.321783751 -0.171996951 -0.931059718
vn 0.321783751 -0.171996951 -0.931059718
vn 0.321783751 -0.171996951 -0.931059718
vn 0.321783751 -0.171996951 -0.931059718
vn 0.28204596 -0.231469035 -0.931059659
vn 0.28204596 -0.231469035 -0.931059659
vn 0.28204596 -0.231469035 -0.931059659
vn 0.28204596 -0.231469035 -0.931059659
vn 0.231469199 -0.282045782 -0.931059718
vn 0.231469199 -0.282045782 -0.931059718
vn 0.231469199 -0.282045782 -0.931059718
vn 0.231469199 -0.282045782 -0.931059718
vn 0.171997026 -0.32178387 -0.931059718
vn 0.171997026 -0.32178387 -0.931059718
vn 0.171997026 -0.32178387 -0.931059718
vn 0.171997026 -0.32178387 -0.931059718
vn 0.105915084 -0.349155605 -0.931059718
vn 0.105915084 -0.349155605 -0.931059718
vn 0.105915084 -0.349155605 -0.931059718
vn 0.105915084 -0.349155605 -0.931059718
vn 0.0357632153 -0.363109678 -0.931059837
vn 0.0357632153 -0.363109678 -0.931059837
vn 0.0357632153 -0.363109678 -0.931059837
vn 0.0357632153 -0.363109678 -0.931059837
vn -0.03576345 -0.363109946 -0.931059659
vn -0.03576345 -0.363109946 -0.931059659
vn -0.03576345 -0.363109946 -0.931059659
vn -0.03576345 -0.363109946 -0.931059659
vn -0.105915226 -0.349155903 -0.931059659
vn -0.105915226 -0.349155903 -0.931059659
vn -0.105915226 -0.349155903 -0.931059659
vn -0.105915226 -0.349155903 -0.931059659
vn -0.171996802 -0.321783781 -0.931059718
vn -0.171996802 -0.321783781 -0.931059718
vn -0.171996802 -0.321783781 -0.931059718
vn -0.171996802 -0.321783781 -0.931059718
vn -0.231469184 -0.28204602 -0.931059659
vn -0.231469184 -0.28204602 -0.931059659
vn -0.231469184 -0.28204602 -0.931059659
vn -0.231469184 -0.28204602 -0.931059659
vn -0.282045841 -0.231469199 -0.931059718
vn -0.282045841 -0.231469199 -0.931059718
vn -0.282045841 -0.231469199 -0.931059718
vn -0.282045841 -0.231469199 -0.931059718
vn -0.3217839 -0.171996906 -0.931059718
vn -0.3217839 -0.171996906 -0.931059718
vn -0.3217839 -0.171996906 -0.931059718
vn -0.3217839 -0.171996906 -0.931059718
vn -0.349155903 -0.105915241 -0.931059659
vn -0.349155903 -0.105915241 -0.931059659
vn -0.349155903 -0.105915241 -0.931059659
vn -0.349155903 -0.105915241 -0.931059659
vn -0.363109708 -0.0357633755 -0.931059718
vn -0.363109708 -0.0357633755 -0.931059718
vn -0.363109708 -0.0357633755 -0.931059718
vn -0.363109708 -0.0357633755 -0.931059718
vn -0.363109648 0.0357632227 -0.931059837
vn -0.363109648 0.0357632227 -0.931059837
vn -0.363109648 0.0357632227 -0.931059837
vn -0.363109648 0.0357632227 -0.931059837
vn -0.349155784 0.105915435 -0.931059718
vn -0.349155784 0.105915435 -0.931059718
vn -0.349155784 0.105915435 -0.931059718
vn -0.349155784 0.105915435 -0.931059718
vn -0.32178387 0.171997026 -0.931059718
vn -0.32178387 0.171997026 -0.931059718
vn -0.32178387 0.171997026 -0.931059718
vn -0.32178387 0.171997026 -0.931059718
vn -0.282045871 0.231469184 -0.931059659
vn -0.282045871 0.231469184 -0.931059659
vn -0.282045871 0.231469184 -0.931059659
vn -0.282045871 0.231469184 -0.931059659
vn -0.231468916 0.282045752 -0.931059837
vn -0.231468916 0.282045752 -0.931059837
vn -0.231468916 0.282045752 -0.931059837
vn -0.231468916 0.282045752 -0.931059837
vn -0.17199719 0.321783841 -0.931059659
vn -0.17199719 0.321783841 -0.931059659
vn -0.17199719 0.321783841 -0.931059659
vn -0.17199719 0.321783841 -0.931059659
vn -0.105915137 0.349155754 -0.931059718
vn -0.105915137 0.349155754 -0.931059718
vn -0.105915137 0.349155754 -0.931059718
vn -0.105915137 0.349155754 -0.931059718
vn -0.0357636027 0.363110185 -0.931059659
vn -0.0357636027 0.363110185 -0.931059659
vn -0.0357636027 0.363110185 -0.931059659
vn -0.0357636027 0.363110185 -0.931059659
vn -0.0386463106 0.392377526 -0.918992043
vn -0.0386463106 0.392377526 -0.918992043
vn -0.0386463106 0.392377526 -0.918992043
vn -0.0386463106 0.392377526 -0.918992043
vn -0.0267434269 0.271526992 -0.9620592
vn -0.0267434269 0.271526992 -0.9620592
vn -0.0267434269 0.271526992 -0.9620592
vn -0.0267434269 0.271526992 -0.9620592
vn -0.0149733014 0.152025595 -0.98826319
vn -0.0149733014 0.152025595 -0.98826319
vn -0.0149733014 0.152025595 -0.98826319
vn -0.0149733014 0.152025595 -0.98826319
vn -0.0150544131 0.152849406 -0.988134742
vn -0.0150544131 0.152849406 -0.988134742
vn -0.0253942739 0.257829636 -0.965856671
vn -0.0253942739 0.257829636 -0.965856671
vn -0.0253942739 0.257829636 -0.965856671
vn -0.0253942739 0.257829636 -0.965856671
vn -0.114452884 0.377298743 -0.918991923
vn -0.114452884 0.377298743 -0.918991923
vn -0.114452884 0.377298743 -0.918991923
vn -0.114452884 0.377298743 -0.918991923
vn -0.0792017356 0.261092156 -0.9620592
vn -0.0792017356 0.261092156 -0.9620592
vn -0.0792017356 0.261092156 -0.9620592
vn -0.0792017356 0.261092156 -0.9620592
vn -0.0443440117 0.146183312 -0.98826319
vn -0.0443440117 0.146183312 -0.98826319
vn -0.0443440117 0.146183312 -0.98826319
vn -0.0443440117 0.146183312 -0.98826319
vn -0.0445843525 0.146975562 -0.988134742
vn -0.0445843525 0.146975562 -0.988134742
vn -0.0752061158 0.247921795 -0.965856552
vn -0.0752061158 0.247921795 -0.965856552
vn -0.0752061158 0.247921795 -0.965856552
vn -0.0752061158 0.247921795 -0.965856552
vn -0.18585971 0.347721189 -0.918991923
vn -0.18585971 0.347721189 -0.918991923
vn -0.18585971 0.347721189 -0.918991923
vn -0.18585971 0.347721189 -0.918991923
vn -0.128616109 0.240624294 -0.962059081
vn -0.128616109 0.240624294 -0.962059081
vn -0.128616109 0.240624294 -0.962059081
vn -0.128616109 0.240624294 -0.962059081
vn -0.0720113143 0.134723216 -0.98826319
vn -0.0720113143 0.134723216 -0.98826319
vn -0.0720113143 0.134723216 -0.98826319
vn -0.0720113143 0.134723216 -0.98826319
vn -0.0724013671 0.135453358 -0.988134861
vn -0.0724013671 0.135453358 -0.988134861
vn -0.12212833 0.228485972 -0.965856552
vn -0.12212833 0.228485972 -0.965856552
vn -0.12212833 0.228485972 -0.965856552
vn -0.12212833 0.228485972 -0.965856552
vn -0.250126123 0.304779649 -0.918992043
vn -0.250126123 0.304779649 -0.918992043
vn -0.250126123 0.304779649 -0.918992043
vn -0.250126123 0.304779649 -0.918992043
vn -0.173088774 0.210908875 -0.962059081
vn -0.173088774 0.210908875 -0.962059081
vn -0.173088774 0.210908875 -0.962059081
vn -0.173088774 0.210908875 -0.962059081
vn -0.0969106779 0.11808572 -0.98826319
vn -0.0969106779 0.11808572 -0.98826319
vn -0.0969106779 0.11808572 -0.98826319
vn -0.0969106779 0.11808572 -0.98826319
vn -0.0974360108 0.118725821 -0.988134742
vn -0.0974360108 0.118725821 -0.988134742
vn -0.164357066 0.200269699 -0.965856433
vn -0.164357066 0.200269699 -0.965856433
vn -0.164357066 0.200269699 -0.965856433
vn -0.164357066 0.200269699 -0.965856433
vn -0.304779679 0.250126213 -0.918991923
vn -0.304779679 0.250126213 -0.918991923
vn -0.304779679 0.250126213 -0.918991923
vn -0.304779679 0.250126213 -0.918991923
vn -0.210908815 0.173088714 -0.962059081
vn -0.210908815 0.173088714 -0.962059081
vn -0.210908815 0.173088714 -0.962059081
vn -0.210908815 0.173088714 -0.962059081
vn -0.118085735 0.0969107524 -0.98826319
vn -0.118085735 0.0969107524 -0.98826319
vn -0.118085735 0.0969107524 -0.98826319
vn -0.118085735 0.0969107524 -0.98826319
vn -0.118725657 0.0974358842 -0.988134861
vn -0.118725657 0.0974358842 -0.988134861
vn -0.20026961 0.164357141 -0.965856552
vn -0.20026961 0.164357141 -0.965856552
vn -0.20026961 0.164357141 -0.965856552
vn -0.20026961 0.164357141 -0.965856552
vn -0.347720921 0.185859963 -0.918992043
vn -0.347720921 0.185859963 -0.918992043
vn -0.347720921 0.185859963 -0.918992043
vn -0.347720921 0.185859963 -0.918992043
vn -0.240624472 0.128616035 -0.962059081
vn -0.240624472 0.128616035 -0.962059081
vn -0.240624472 0.128616035 -0.962059081
vn -0.240624472 0.128616035 -0.962059081
vn -0.134723336 0.0720109791 -0.98826319
vn -0.134723336 0.0720109791 -0.98826319
vn -0.134723336 0.0720109791 -0.98826319
vn -0.134723336 0.0720109791 -0.98826319
vn -0.135453373 0.0724011436 -0.988134861
vn -0.135453373 0.0724011436 -0.988134861
vn -0.228485957 0.122128189 -0.965856552
vn -0.228485957 0.122128189 -0.965856552
vn -0.228485957 0.122128189 -0.965856552
vn -0.228485957 0.122128189 -0.965856552
vn -0.377298802 0.114452451 -0.918991923
vn -0.377298802 0.114452451 -0.918991923
vn -0.377298802 0.114452451 -0.918991923
vn -0.377298802 0.114452451 -0.918991923
vn -0.261092305 0.079201743 -0.9620592
vn -0.261092305 0.079201743 -0.9620592
vn -0.261092305 0.079201743 -0.9620592
vn -0.261092305 0.079201743 -0.9620592
vn -0.146183163 0.0443443432 -0.98826319
vn -0.146183163 0.0443443432 -0.98826319
vn -0.146183163 0.0443443432 -0.98826319
vn -0.146183163 0.0443443432 -0.98826319
vn -0.146975502 0.0445845239 -0.988134742
vn -0.146975502 0.0445845239 -0.988134742
vn -0.247921631 0.0752061978 -0.965856552
vn -0.247921631 0.0752061978 -0.965856552
vn -0.247921631 0.0752061978 -0.965856552
vn -0.247921631 0.0752061978 -0.965856552
vn -0.392377675 0.0386460721 -0.918992043
vn -0.392377675 0.0386460721 -0.918992043
vn -0.392377675 0.0386460721 -0.918992043
vn -0.392377675 0.0386460721 -0.918992043
vn -0.271527052 0.0267433021 -0.962059081
vn -0.271527052 0.0267433021 -0.962059081
vn -0.271527052 0.0267433021 -0.962059081
vn -0.271527052 0.0267433021 -0.962059081
vn -0.15202558 0.014973239 -0.98826319
vn -0.15202558 0.014973239 -0.98826319
vn -0.15202558 0.014973239 -0.98826319
vn -0.15202558 0.014973239 -0.98826319
vn -0.152849451 0.0150544187 -0.988134742
vn -0.152849451 0.0150544187 -0.988134742
vn -0.257829875 0.0253938008 -0.965856552
vn -0.257829875 0.0253938008 -0.965856552
vn -0.257829875 0.0253938008 -0.965856552
vn -0.257829875 0.0253938008 -0.965856552
vn -0.392377615 -0.0386460684 -0.918992043
vn -0.392377615 -0.0386460684 -0.918992043
vn -0.392377615 -0.0386460684 -0.918992043
vn -0.392377615 -0.0386460684 -0.918992043
vn -0.271527052 -0.0267431736 -0.9620592
vn -0.271527052 -0.0267431736 -0.9620592
vn -0.271527052 -0.0267431736 -0.9620592
vn -0.271527052 -0.0267431736 -0.9620592
vn -0.152025625 -0.0149732418 -0.98826319
vn -0.152025625 -0.0149732418 -0.98826319
vn -0.152025625 -0.0149732418 -0.98826319
vn -0.152025625 -0.0149732418 -0.98826319
vn -0.152849421 -0.0150543451 -0.988134861
vn -0.152849421 -0.0150543451 -0.988134861
vn -0.257829964 -0.0253939386 -0.965856552
vn -0.257829964 -0.0253939386 -0.965856552
vn -0.257829964 -0.0253939386 -0.965856552
vn -0.257829964 -0.0253939386 -0.965856552
vn -0.377298832 -0.114452742 -0.918991923
vn -0.377298832 -0.114452742 -0.918991923
vn -0.377298832 -0.114452742 -0.918991923
vn -0.377298832 -0.114452742 -0.918991923
vn -0.261092335 -0.079201892 -0.9620592
vn -0.261092335 -0.079201892 -0.9620592
vn -0.261092335 -0.079201892 -0.9620592
vn -0.261092335 -0.079201892 -0.9620592
vn -0.146183297 -0.0443441868 -0.98826319
vn -0.146183297 -0.0443441868 -0.98826319
vn -0.146183297 -0.0443441868 -0.98826319
vn -0.146183297 -0.0443441868 -0.98826319
vn -0.146975428 -0.0445845872 -0.988134861
vn -0.146975428 -0.0445845872 -0.988134861
vn -0.247921631 -0.0752063617 -0.965856552
vn -0.247921631 -0.0752063617 -0.965856552
vn -0.247921631 -0.0752063617 -0.965856552
vn -0.247921631 -0.0752063617 -0.965856552
vn -0.347720921 -0.185859874 -0.918992043
vn -0.347720921 -0.185859874 -0.918992043
vn -0.347720921 -0.185859874 -0.918992043
vn -0.347720921 -0.185859874 -0.918992043
vn -0.240624353 -0.128615975 -0.962059081
vn -0.240624353 -0.128615975 -0.962059081
vn -0.240624353 -0.128615975 -0.962059081
vn -0.240624353 -0.128615975 -0.962059081
vn -0.134723216 -0.0720111281 -0.98826319
vn -0.134723216 -0.0720111281 -0.98826319
vn -0.134723216 -0.0720111281 -0.98826319
vn -0.134723216 -0.0720111281 -0.98826319
vn -0.135453463 -0.0724014416 -0.988134742
vn -0.135453463 -0.0724014416 -0.988134742
vn -0.228485778 -0.122128263 -0.965856552
vn -0.228485778 -0.122128263 -0.965856552
vn -0.228485778 -0.122128263 -0.965856552
vn -0.228485778 -0.122128263 -0.965856552
vn -0.304779798 -0.250125974 -0.918992043
vn -0.304779798 -0.250125974 -0.918992043
vn -0.304779798 -0.250125974 -0.918992043
vn -0.304779798 -0.250125974 -0.918992043
vn -0.210909024 -0.173088506 -0.962059081
vn -0.210909024 -0.173088506 -0.962059081
vn -0.210909024 -0.173088506 -0.962059081
vn -0.210909024 -0.173088506 -0.962059081
vn -0.118085854 -0.0969107002 -0.98826319
vn -0.118085854 -0.0969107002 -0.98826319
vn -0.118085854 -0.0969107002 -0.98826319
vn -0.118085854 -0.0969107002 -0.98826319
vn -0.118725859 -0.0974358991 -0.988134742
vn -0.118725859 -0.0974358991 -0.988134742
vn -0.200269341 -0.164356917 -0.965856552
vn -0.200269341 -0.164356917 -0.965856552
vn -0.200269341 -0.164356917 -0.965856552
vn -0.200269341 -0.164356917 -0.965856552
vn -0.250125974 -0.304779798 -0.918992043
vn -0.250125974 -0.304779798 -0.918992043
vn -0.250125974 -0.304779798 -0.918992043
vn -0.250125974 -0.304779798 -0.918992043
vn -0.173088551 -0.210908905 -0.962059081
vn -0.173088551 -0.210908905 -0.962059081
vn -0.173088551 -0.210908905 -0.962059081
vn -0.173088551 -0.210908905 -0.962059081
vn -0.096910812 -0.118085831 -0.98826319
vn -0.096910812 -0.118085831 -0.98826319
vn -0.096910812 -0.118085831 -0.98826319
vn -0.096910812 -0.118085831 -0.98826319
vn -0.0974359512 -0.118725918 -0.988134742
vn -0.0974359512 -0.118725918 -0.988134742
vn -0.164357051 -0.200269282 -0.965856552
vn -0.164357051 -0.200269282 -0.965856552
vn -0.164357051 -0.200269282 -0.965856552
vn -0.164357051 -0.200269282 -0.965856552
vn -0.185859695 -0.34772107 -0.918991923
vn -0.185859695 -0.34772107 -0.918991923
vn -0.185859695 -0.34772107 -0.918991923
vn -0.185859695 -0.34772107 -0.918991923
vn -0.12861596 -0.240624189 -0.9620592
vn -0.12861596 -0.240624189 -0.9620592
vn -0.12861596 -0.240624189 -0.9620592
vn -0.12861596 -0.240624189 -0.9620592
vn -0.0720111802 -0.134723231 -0.98826319
vn -0.0720111802 -0.134723231 -0.98826319
vn -0.0720111802 -0.134723231 -0.98826319
vn -0.0720111802 -0.134723231 -0.98826319
vn -0.0724014416 -0.135453343 -0.988134742
vn -0.0724014416 -0.135453343 -0.988134742
vn -0.1221283 -0.228485942 -0.965856552
vn -0.1221283 -0.228485942 -0.965856552
vn -0.1221283 -0.228485942 -0.965856552
vn -0.1221283 -0.228485942 -0.965856552
vn -0.114452928 -0.377298713 -0.918991923
vn -0.114452928 -0.377298713 -0.918991923
vn -0.114452928 -0.377298713 -0.918991923
vn -0.114452928 -0.377298713 -0.918991923
vn -0.0792014822 -0.261092275 -0.9620592
vn -0.0792014822 -0.261092275 -0.9620592
vn -0.0792014822 -0.261092275 -0.9620592
vn -0.0792014822 -0.261092275 -0.9620592
vn -0.0443440229 -0.146183357 -0.98826319
vn -0.0443440229 -0.146183357 -0.98826319
vn -0.0443440229 -0.146183357 -0.98826319
vn -0.0443440229 -0.146183357 -0.98826319
vn -0.0445843786 -0.146975622 -0.988134742
vn -0.0445843786 -0.146975622 -0.988134742
vn -0.0752059594 -0.24792169 -0.965856552
vn -0.0752059594 -0.24792169 -0.965856552
vn -0.0752059594 -0.24792169 -0.965856552
vn -0.0752059594 -0.24792169 -0.965856552
vn -0.0386460721 -0.392377675 -0.918992043
vn -0.0386460721 -0.392377675 -0.918992043
vn -0.0386460721 -0.392377675 -0.918992043
vn -0.0386460721 -0.392377675 -0.918992043
vn -0.0267433003 -0.271527022 -0.9620592
vn -0.0267433003 -0.271527022 -0.9620592
vn -0.0267433003 -0.271527022 -0.9620592
vn -0.0267433003 -0.271527022 -0.9620592
vn -0.0149733033 -0.15202558 -0.98826319
vn -0.0149733033 -0.15202558 -0.98826319
vn -0.0149733033 -0.15202558 -0.98826319
vn -0.0149733033 -0.15202558 -0.98826319
vn -0.0150544895 -0.152849436 -0.988134742
vn -0.0150544895 -0.152849436 -0.988134742
vn -0.0253940839 -0.257829875 -0.965856552
vn -0.0253940839 -0.257829875 -0.965856552
vn -0.0253940839 -0.257829875 -0.965856552
vn -0.0253940839 -0.257829875 -0.965856552
vn 0.0386461541 -0.392377675 -0.918992043
vn 0.0386461541 -0.392377675 -0.918992043
vn 0.0386461541 -0.392377675 -0.918992043
vn 0.0386461541 -0.392377675 -0.918992043
vn 0.0267433021 -0.271527022 -0.962059081
vn 0.0267433021 -0.271527022 -0.962059081
vn 0.0267433021 -0.271527022 -0.962059081
vn 0.0267433021 -0.271527022 -0.962059081
vn 0.0149733014 -0.152025595 -0.98826319
vn 0.0149733014 -0.152025595 -0.98826319
vn 0.0149733014 -0.152025595 -0.98826319
vn 0.0149733014 -0.152025595 -0.98826319
vn 0.0150544876 -0.152849406 -0.988134742
vn 0.0150544876 -0.152849406 -0.988134742
vn 0.0253940765 -0.257829875 -0.965856552
vn 0.0253940765 -0.257829875 -0.965856552
vn 0.0253940765 -0.257829875 -0.965856552
vn 0.0253940765 -0.257829875 -0.965856552
vn 0.114452325 -0.377298951 -0.918991923
vn 0.114452325 -0.377298951 -0.918991923
vn 0.114452325 -0.377298951 -0.918991923
vn 0.114452325 -0.377298951 -0.918991923
vn 0.0792016387 -0.261092424 -0.962059081
vn 0.0792016387 -0.261092424 -0.962059081
vn 0.0792016387 -0.261092424 -0.962059081
vn 0.0792016387 -0.261092424 -0.962059081
vn 0.0443441086 -0.146183312 -0.98826319
vn 0.0443441086 -0.146183312 -0.98826319
vn 0.0443441086 -0.146183312 -0.98826319
vn 0.0443441086 -0.146183312 -0.98826319
vn 0.0445845015 -0.146975532 -0.988134742
vn 0.0445845015 -0.146975532 -0.988134742
vn 0.0752060413 -0.247921735 -0.965856552
vn 0.0752060413 -0.247921735 -0.965856552
vn 0.0752060413 -0.247921735 -0.965856552
vn 0.0752060413 -0.247921735 -0.965856552
vn 0.185860276 -0.347720772 -0.918992043
vn 0.185860276 -0.347720772 -0.918992043
vn 0.185860276 -0.347720772 -0.918992043
vn 0.185860276 -0.347720772 -0.918992043
vn 0.128616139 -0.240624234 -0.9620592
vn 0.128616139 -0.240624234 -0.9620592
vn 0.128616139 -0.240624234 -0.9620592
vn 0.128616139 -0.240624234 -0.9620592
vn 0.0720110685 -0.134723276 -0.98826319
vn 0.0720110685 -0.134723276 -0.98826319
vn 0.0720110685 -0.134723276 -0.98826319
vn 0.0720110685 -0.134723276 -0.98826319
vn 0.0724013969 -0.135453373 -0.988134742
vn 0.0724013969 -0.135453373 -0.988134742
vn 0.122128271 -0.228485912 -0.965856552
vn 0.122128271 -0.228485912 -0.965856552
vn 0.122128271 -0.228485912 -0.965856552
vn 0.122128271 -0.228485912 -0.965856552
vn 0.250126034 -0.304779798 -0.918992043
vn 0.250126034 -0.304779798 -0.918992043
vn 0.250126034 -0.304779798 -0.918992043
vn 0.250126034 -0.304779798 -0.918992043
vn 0.173088476 -0.210908905 -0.962059081
vn 0.173088476 -0.210908905 -0.962059081
vn 0.173088476 -0.210908905 -0.962059081
vn 0.173088476 -0.210908905 -0.962059081
vn 0.0969107971 -0.118085921 -0.98826319
vn 0.0969107971 -0.118085921 -0.98826319
vn 0.0969107971 -0.118085921 -0.98826319
vn 0.0969107971 -0.118085921 -0.98826319
vn 0.0974358469 -0.118725821 -0.988134861
vn 0.0974358469 -0.118725821 -0.988134861
vn 0.164357007 -0.200269386 -0.965856552
vn 0.164357007 -0.200269386 -0.965856552
vn 0.164357007 -0.200269386 -0.965856552
vn 0.164357007 -0.200269386 -0.965856552
vn 0.3047795 -0.250126213 -0.918992043
vn 0.3047795 -0.250126213 -0.918992043
vn 0.3047795 -0.250126213 -0.918992043
vn 0.3047795 -0.250126213 -0.918992043
vn 0.21090892 -0.173088491 -0.962059081
vn 0.21090892 -0.173088491 -0.962059081
vn 0.21090892 -0.173088491 -0.962059081
vn 0.21090892 -0.173088491 -0.962059081
vn 0.118085846 -0.0969106331 -0.98826319
vn 0.118085846 -0.0969106331 -0.98826319
vn 0.118085846 -0.0969106331 -0.98826319
vn 0.118085846 -0.0969106331 -0.98826319
vn 0.118725955 -0.0974358693 -0.988134742
vn 0.118725955 -0.0974358693 -0.988134742
vn 0.20026949 -0.164356947 -0.965856552
vn 0.20026949 -0.164356947 -0.965856552
vn 0.20026949 -0.164356947 -0.965856552
vn 0.20026949 -0.164356947 -0.965856552
vn 0.3477211 -0.185859755 -0.918991923
vn 0.3477211 -0.185859755 -0.918991923
vn 0.3477211 -0.185859755 -0.918991923
vn 0.3477211 -0.185859755 -0.918991923
vn 0.240624204 -0.12861596 -0.9620592
vn 0.240624204 -0.12861596 -0.9620592
vn 0.240624204 -0.12861596 -0.9620592
vn 0.240624204 -0.12861596 -0.9620592
vn 0.134723231 -0.0720111355 -0.98826319
vn 0.134723231 -0.0720111355 -0.98826319
vn 0.134723231 -0.0720111355 -0.98826319
vn 0.134723231 -0.0720111355 -0.98826319
vn 0.135453507 -0.0724013746 -0.988134742
vn 0.135453507 -0.0724013746 -0.988134742
vn 0.228485957 -0.12212839 -0.965856552
vn 0.228485957 -0.12212839 -0.965856552
vn 0.228485957 -0.12212839 -0.965856552
vn 0.228485957 -0.12212839 -0.965856552
vn 0.377298743 -0.114452735 -0.918991923
vn 0.377298743 -0.114452735 -0.918991923
vn 0.377298743 -0.114452735 -0.918991923
vn 0.377298743 -0.114452735 -0.918991923
vn 0.261092305 -0.0792018846 -0.9620592
vn 0.261092305 -0.0792018846 -0.9620592
vn 0.261092305 -0.0792018846 -0.9620592
vn 0.261092305 -0.0792018846 -0.9620592
vn 0.146183357 -0.0443441868 -0.98826319
vn 0.146183357 -0.0443441868 -0.98826319
vn 0.146183357 -0.0443441868 -0.98826319
vn 0.146183357 -0.0443441868 -0.98826319
vn 0.146975458 -0.0445846021 -0.988134861
vn 0.146975458 -0.0445846021 -0.988134861
vn 0.247921541 -0.0752063692 -0.965856552
vn 0.247921541 -0.0752063692 -0.965856552
vn 0.247921541 -0.0752063692 -0.965856552
vn 0.247921541 -0.0752063692 -0.965856552
vn 0.392377675 -0.0386460721 -0.918992043
vn 0.392377675 -0.0386460721 -0.918992043
vn 0.392377675 -0.0386460721 -0.918992043
vn 0.392377675 -0.0386460721 -0.918992043
vn 0.271527052 -0.0267431736 -0.9620592
vn 0.271527052 -0.0267431736 -0.9620592
vn 0.271527052 -0.0267431736 -0.9620592
vn 0.271527052 -0.0267431736 -0.9620592
vn 0.152025595 -0.0149732418 -0.98826319
vn 0.152025595 -0.0149732418 -0.98826319
vn 0.152025595 -0.0149732418 -0.98826319
vn 0.152025595 -0.0149732418 -0.98826319
vn 0.152849406 -0.0150543451 -0.988134861
vn 0.152849406 -0.0150543451 -0.988134861
vn 0.257829964 -0.0253939386 -0.965856552
vn 0.257829964 -0.0253939386 -0.965856552
vn 0.257829964 -0.0253939386 -0.965856552
vn 0.257829964 -0.0253939386 -0.965856552
vn 0.392377675 0.0386460721 -0.918992043
vn 0.392377675 0.0386460721 -0.918992043
vn 0.392377675 0.0386460721 -0.918992043
vn 0.392377675 0.0386460721 -0.918992043
vn 0.271527022 0.0267433021 -0.962059081
vn 0.271527022 0.0267433021 -0.962059081
vn 0.271527022 0.0267433021 -0.962059081
vn 0.271527022 0.0267433021 -0.962059081
vn 0.152025566 0.0149731822 -0.98826319
vn 0.152025566 0.0149731822 -0.98826319
vn 0.152025566 0.0149731822 -0.98826319
vn 0.152025566 0.0149731822 -0.98826319
vn 0.152849495 0.0150543433 -0.988134742
vn 0.152849495 0.0150543433 -0.988134742
vn 0.257829934 0.0253939386 -0.965856552
vn 0.257829934 0.0253939386 -0.965856552
vn 0.257829934 0.0253939386 -0.965856552
vn 0.257829934 0.0253939386 -0.965856552
vn 0.377298832 0.114452444 -0.918991923
vn 0.377298832 0.114452444 -0.918991923
vn 0.377298832 0.114452444 -0.918991923
vn 0.377298832 0.114452444 -0.918991923
vn 0.261092395 0.0792016461 -0.9620592
vn 0.261092395 0.0792016461 -0.9620592
vn 0.261092395 0.0792016461 -0.9620592
vn 0.261092395 0.0792016461 -0.9620592
vn 0.146183252 0.0443442278 -0.98826319
vn 0.146183252 0.0443442278 -0.98826319
vn 0.146183252 0.0443442278 -0.98826319
vn 0.146183252 0.0443442278 -0.98826319
vn 0.146975622 0.0445845127 -0.988134742
vn 0.146975622 0.0445845127 -0.988134742
vn 0.247921392 0.0752061978 -0.965856552
vn 0.247921392 0.0752061978 -0.965856552
vn 0.247921392 0.0752061978 -0.965856552
vn 0.247921392 0.0752061978 -0.965856552
vn 0.347720921 0.185860023 -0.918991923
vn 0.347720921 0.185860023 -0.918991923
vn 0.347720921 0.185860023 -0.918991923
vn 0.347720921 0.185860023 -0.918991923
vn 0.240624264 0.12861599 -0.9620592
vn 0.240624264 0.12861599 -0.9620592
vn 0.240624264 0.12861599 -0.9620592
vn 0.240624264 0.12861599 -0.9620592
vn 0.134723142 0.0720111951 -0.98826319
vn 0.134723142 0.0720111951 -0.98826319
vn 0.134723142 0.0720111951 -0.98826319
vn 0.134723142 0.0720111951 -0.98826319
vn 0.135453433 0.0724013001 -0.988134742
vn 0.135453433 0.0724013001 -0.988134742
vn 0.228485972 0.122128248 -0.965856552
vn 0.228485972 0.122128248 -0.965856552
vn 0.228485972 0.122128248 -0.965856552
vn 0.228485972 0.122128248 -0.965856552
vn 0.304779381 0.250126421 -0.918992043
vn 0.304779381 0.250126421 -0.918992043
vn 0.304779381 0.250126421 -0.918992043
vn 0.304779381 0.250126421 -0.918992043
vn 0.210908905 0.173088551 -0.962059081
vn 0.210908905 0.173088551 -0.962059081
vn 0.210908905 0.173088551 -0.962059081
vn 0.210908905 0.173088551 -0.962059081
vn 0.118085884 0.0969106033 -0.98826319
vn 0.118085884 0.0969106033 -0.98826319
vn 0.118085884 0.0969106033 -0.98826319
vn 0.118085884 0.0969106033 -0.98826319
vn 0.118725821 0.0974358097 -0.988134861
vn 0.118725821 0.0974358097 -0.988134861
vn 0.200269744 0.164356932 -0.965856552
vn 0.200269744 0.164356932 -0.965856552
vn 0.200269744 0.164356932 -0.965856552
vn 0.200269744 0.164356932 -0.965856552
vn 0.250126421 0.304779351 -0.918992043
vn 0.250126421 0.304779351 -0.918992043
vn 0.250126421 0.304779351 -0.918992043
vn 0.250126421 0.304779351 -0.918992043
vn 0.173088431 0.210908905 -0.962059081
vn 0.173088431 0.210908905 -0.962059081
vn 0.173088431 0.210908905 -0.962059081
vn 0.173088431 0.210908905 -0.962059081
vn 0.0969105437 0.118085966 -0.98826319
vn 0.0969105437 0.118085966 -0.98826319
vn 0.0969105437 0.118085966 -0.98826319
vn 0.0969105437 0.118085966 -0.98826319
vn 0.0974358544 0.118725955 -0.988134742
vn 0.0974358544 0.118725955 -0.988134742
vn 0.164356887 0.200269684 -0.965856552
vn 0.164356887 0.200269684 -0.965856552
vn 0.164356887 0.200269684 -0.965856552
vn 0.164356887 0.200269684 -0.965856552
vn 0.185859844 0.34772101 -0.918991923
vn 0.185859844 0.34772101 -0.918991923
vn 0.185859844 0.34772101 -0.918991923
vn 0.185859844 0.34772101 -0.918991923
vn 0.12861608 0.240624294 -0.962059081
vn 0.12861608 0.240624294 -0.962059081
vn 0.12861608 0.240624294 -0.962059081
vn 0.12861608 0.240624294 -0.962059081
vn 0.0720113143 0.134723231 -0.98826319
vn 0.0720113143 0.134723231 -0.98826319
vn 0.0720113143 0.134723231 -0.98826319
vn 0.0720113143 0.134723231 -0.98826319
vn 0.0724013075 0.135453314 -0.988134861
vn 0.0724013075 0.135453314 -0.988134861
vn 0.122128315 0.228485912 -0.965856552
vn 0.122128315 0.228485912 -0.965856552
vn 0.122128315 0.228485912 -0.965856552
vn 0.122128315 0.228485912 -0.965856552
vn 0.114452638 0.377298892 -0.918991923
vn 0.114452638 0.377298892 -0.918991923
vn 0.114452638 0.377298892 -0.918991923
vn 0.114452638 0.377298892 -0.918991923
vn 0.0792016536 0.261092365 -0.9620592
vn 0.0792016536 0.261092365 -0.9620592
vn 0.0792016536 0.261092365 -0.9620592
vn 0.0792016536 0.261092365 -0.9620592
vn 0.0443441086 0.146183193 -0.98826319
vn 0.0443441086 0.146183193 -0.98826319
vn 0.0443441086 0.146183193 -0.98826319
vn 0.0443441086 0.146183193 -0.98826319
vn 0.0445845239 0.146975592 -0.988134742
vn 0.0445845239 0.146975592 -0.988134742
vn 0.0752061903 0.247921735 -0.965856552
vn 0.0752061903 0.247921735 -0.965856552
vn 0.0752061903 0.247921735 -0.965856552
vn 0.0752061903 0.247921735 -0.965856552
vn 0.0386463962 0.392377585 -0.918992043
vn 0.0386463962 0.392377585 -0.918992043
vn 0.0386463962 0.392377585 -0.918992043
vn 0.0386463962 0.392377585 -0.918992043
vn 0.0267436821 0.271526992 -0.9620592
vn 0.0267436821 0.271526992 -0.9620592
vn 0.0267436821 0.271526992 -0.9620592
vn 0.0267436821 0.271526992 -0.9620592
vn 0.0149733052 0.152025566 -0.98826319
vn 0.0149733052 0.152025566 -0.98826319
vn 0.0149733052 0.152025566 -0.98826319
vn 0.0149733052 0.152025566 -0.98826319
vn 0.0150544159 0.152849495 -0.988134742
vn 0.0150544159 0.152849495 -0.988134742
vn 0.0253942069 0.257829636 -0.965856671
vn 0.0253942069 0.257829636 -0.965856671
vn 0.0253942069 0.257829636 -0.965856671
vn 0.0253942069 0.257829636 -0.965856671
g 柱体_0
f 3/3/3 2/2/2 1/1/1
f 4/4/4 3/3/3 1/1/1
f 7/7/7 6/6/6 5/5/5
f 8/8/8 7/7/7 5/5/5
f 11/11/11 10/10/10 9/9/9
f 12/12/12 11/11/11 9/9/9
f 15/15/15 14/14/14 13/13/13
f 16/16/16 15/15/15 13/13/13
f 19/19/19 18/18/18 17/17/17
f 20/20/20 19/19/19 17/17/17
f 23/23/23 22/22/22 21/21/21
f 24/24/24 23/23/23 21/21/21
f 27/27/27 26/26/26 25/25/25
f 28/28/28 27/27/27 25/25/25
f 31/31/31 30/30/30 29/29/29
f 32/32/32 31/31/31 29/29/29
f 35/35/35 34/34/34 33/33/33
f 36/36/36 35/35/35 33/33/33
f 39/39/39 38/38/38 37/37/37
f 40/40/40 39/39/39 37/37/37
f 43/43/43 42/42/42 41/41/41
f 44/44/44 43/43/43 41/41/41
f 47/47/47 46/46/46 45/45/45
f 48/48/48 47/47/47 45/45/45
f 51/51/51 50/50/50 49/49/49
f 52/52/52 51/51/51 49/49/49
f 55/55/55 54/54/54 53/53/53
f 56/56/56 55/55/55 53/53/53
f 59/59/59 58/58/58 57/57/57
f 60/60/60 59/59/59 57/57/57
f 63/63/63 62/62/62 61/61/61
f 64/64/64 63/63/63 61/61/61
f 67/67/67 66/66/66 65/65/65
f 68/68/68 67/67/67 65/65/65
f 71/71/71 70/70/70 69/69/69
f 72/72/72 71/71/71 69/69/69
f 75/75/75 74/74/74 73/73/73
f 76/76/76 75/75/75 73/73/73
f 79/79/79 78/78/78 77/77/77
f 80/80/80 79/79/79 77/77/77
f 83/83/83 82/82/82 81/81/81
f 84/84/84 83/83/83 81/81/81
f 87/87/87 86/86/86 85/85/85
f 88/88/88 87/87/87 85/85/85
f 91/91/91 90/90/90 89/89/89
f 92/92/92 91/91/91 89/89/89
f 95/95/95 94/94/94 93/93/93
f 96/96/96 95/95/95 93/93/93
f 99/99/99 98/98/98 97/97/97
f 100/100/100 99/99/99 97/97/97
f 103/103/103 102/102/102 101/101/101
f 104/104/104 103/103/103 101/101/101
f 107/107/107 106/106/106 105/105/105
f 108/108/108 107/107/107 105/105/105
f 111/111/111 110/110/110 109/109/109
f 112/112/112 111/111/111 109/109/109
f 115/115/115 114/114/114 113/113/113
f 116/116/116 115/115/115 113/113/113
f 119/119/119 118/118/118 117/117/117
f 120/120/120 119/119/119 117/117/117
f 123/123/123 122/122/122 121/121/121
f 124/124/124 123/123/123 121/121/121
f 127/127/127 126/126/126 125/125/125
f 128/128/128 127/127/127 125/125/125
f 131/131/131 130/130/130 129/129/129
f 132/132/132 131/131/131 129/129/129
f 135/135/135 134/134/134 133/133/133
f 136/136/136 135/135/135 133/133/133
f 139/139/139 138/138/138 137/137/137
f 140/140/140 139/139/139 137/137/137
f 141/141/141 139/139/139 140/140/140
f 142/142/142 141/141/141 140/140/140
f 145/145/145 144/144/144 143/143/143
f 146/146/146 145/145/145 143/143/143
f 149/149/149 148/148/148 147/147/147
f 150/150/150 149/149/149 147/147/147
f 153/153/153 152/152/152 151/151/151
f 154/154/154 153/153/153 151/151/151
f 157/157/157 156/156/156 155/155/155
f 158/158/158 157/157/157 155/155/155
f 159/159/159 157/157/157 158/158/158
f 160/160/160 159/159/159 158/158/158
f 163/163/163 162/162/162 161/161/161
f 164/164/164 163/163/163 161/161/161
f 167/167/167 166/166/166 165/165/165
f 168/168/168 167/167/167 165/165/165
f 171/171/171 170/170/170 169/169/169
f 172/172/172 171/171/171 169/169/169
f 175/175/175 174/174/174 173/173/173
f 176/176/176 175/175/175 173/173/173
f 177/177/177 175/175/175 176/176/176
f 178/178/178 177/177/177 176/176/176
f 181/181/181 180/180/180 179/179/179
f 182/182/182 181/181/181 179/179/179
f 185/185/185 184/184/184 183/183/183
f 186/186/186 185/185/185 183/183/183
f 189/189/189 188/188/188 187/187/187
f 190/190/190 189/189/189 187/187/187
f 193/193/193 192/192/192 191/191/191
f 194/194/194 193/193/193 191/191/191
f 195/195/195 193/193/193 194/194/194
f 196/196/196 195/195/195 194/194/194
f 199/199/199 198/198/198 197/197/197
f 200/200/200 199/199/199 197/197/197
f 203/203/203 202/202/202 201/201/201
f 204/204/204 203/203/203 201/201/201
f 207/207/207 206/206/206 205/205/205
f 208/208/208 207/207/207 205/205/205
f 211/211/211 210/210/210 209/209/209
f 212/212/212 211/211/211 209/209/209
f 213/213/213 211/211/211 212/212/212
f 214/214/214 213/213/213 212/212/212
f 217/217/217 216/216/216 215/215/215
f 218/218/218 217/217/217 215/215/215
f 221/221/221 220/220/220 219/219/219
f 222/222/222 221/221/221 219/219/219
f 225/225/225 224/224/224 223/223/223
f 226/226/226 225/225/225 223/223/223
f 229/229/229 228/228/228 227/227/227
f 230/230/230 229/229/229 227/227/227
f 231/231/231 229/229/229 230/230/230
f 232/232/232 231/231/231 230/230/230
f 235/235/235 234/234/234 233/233/233
f 236/236/236 235/235/235 233/233/233
f 239/239/239 238/238/238 237/237/237
f 240/240/240 239/239/239 237/237/237
f 243/243/243 242/242/242 241/241/241
f 244/244/244 243/243/243 241/241/241
f 247/247/247 246/246/246 245/245/245
f 248/248/248 247/247/247 245/245/245
f 249/249/249 247/247/247 248/248/248
f 250/250/250 249/249/249 248/248/248
f 253/253/253 252/252/252 251/251/251
f 254/254/254 253/253/253 251/251/251
f 257/257/257 256/256/256 255/255/255
f 258/258/258 257/257/257 255/255/255
f 261/261/261 260/260/260 259/259/259
f 262/262/262 261/261/261 259/259/259
f 265/265/265 264/264/264 263/263/263
f 266/266/266 265/265/265 263/263/263
f 267/267/267 265/265/265 266/266/266
f 268/268/268 267/267/267 266/266/266
f 271/271/271 270/270/270 269/269/269
f 272/272/272 271/271/271 269/269/269
f 275/275/275 274/274/274 273/273/273
f 276/276/276 275/275/275 273/273/273
f 279/279/279 278/278/278 277/277/277
f 280/280/280 279/279/279 277/277/277
f 283/283/283 282/282/282 281/281/281
f 284/284/284 283/283/283 281/281/281
f 285/285/285 283/283/283 284/284/284
f 286/286/286 285/285/285 284/284/284
f 289/289/289 288/288/288 287/287/287
f 290/290/290 289/289/289 287/287/287
f 293/293/293 292/292/292 291/291/291
f 294/294/294 293/293/293 291/291/291
f 297/297/297 296/296/296 295/295/295
f 298/298/298 297/297/297 295/295/295
f 301/301/301 300/300/300 299/299/299
f 302/302/302 301/301/301 299/299/299
f 303/303/303 301/301/301 302/302/302
f 304/304/304 303/303/303 302/302/302
f 307/307/307 306/306/306 305/305/305
f 308/308/308 307/307/307 305/305/305
f 311/311/311 310/310/310 309/309/309
f 312/312/312 311/311/311 309/309/309
f 315/315/315 314/314/314 313/313/313
f 316/316/316 315/315/315 313/313/313
f 319/319/319 318/318/318 317/317/317
f 320/320/320 319/319/319 317/317/317
f 321/321/321 319/319/319 320/320/320
f 322/322/322 321/321/321 320/320/320
f 325/325/325 324/324/324 323/323/323
f 326/326/326 325/325/325 323/323/323
f 329/329/329 328/328/328 327/327/327
f 330/330/330 329/329/329 327/327/327
f 333/333/333 332/332/332 331/331/331
f 334/334/334 333/333/333 331/331/331
f 337/337/337 336/336/336 335/335/335
f 338/338/338 337/337/337 335/335/335
f 339/339/339 337/337/337 338/338/338
f 340/340/340 339/339/339 338/338/338
f 343/343/343 342/342/342 341/341/341
f 344/344/344 343/343/343 341/341/341
f 347/347/347 346/346/346 345/345/345
f 348/348/348 347/347/347 345/345/345
f 351/351/351 350/350/350 349/349/349
f 352/352/352 351/351/351 349/349/349
f 355/355/355 354/354/354 353/353/353
f 356/356/356 355/355/355 353/353/353
f 357/357/357 355/355/355 356/356/356
f 358/358/358 357/357/357 356/356/356
f 361/361/361 360/360/360 359/359/359
f 362/362/362 361/361/361 359/359/359
f 365/365/365 364/364/364 363/363/363
f 366/366/366 365/365/365 363/363/363
f 369/369/369 368/368/368 367/367/367
f 370/370/370 369/369/369 367/367/367
f 373/373/373 372/372/372 371/371/371
f 374/374/374 373/373/373 371/371/371
f 375/375/375 373/373/373 374/374/374
f 376/376/376 375/375/375 374/374/374
f 379/379/379 378/378/378 377/377/377
f 380/380/380 379/379/379 377/377/377
f 383/383/383 382/382/382 381/381/381
f 384/384/384 383/383/383 381/381/381
f 387/387/387 386/386/386 385/385/385
f 388/388/388 387/387/387 385/385/385
f 391/391/391 390/390/390 389/389/389
f 392/392/392 391/391/391 389/389/389
f 393/393/393 391/391/391 392/392/392
f 394/394/394 393/393/393 392/392/392
f 397/397/397 396/396/396 395/395/395
f 398/398/398 397/397/397 395/395/395
f 401/401/401 400/400/400 399/399/399
f 402/402/402 401/401/401 399/399/399
f 405/405/405 404/404/404 403/403/403
f 406/406/406 405/405/405 403/403/403
f 409/409/409 408/408/408 407/407/407
f 410/410/410 409/409/409 407/407/407
f 411/411/411 409/409/409 410/410/410
f 412/412/412 411/411/411 410/410/410
f 415/415/415 414/414/414 413/413/413
f 416/416/416 415/415/415 413/413/413
f 419/419/419 418/418/418 417/417/417
f 420/420/420 419/419/419 417/417/417
f 423/423/423 422/422/422 421/421/421
f 424/424/424 423/423/423 421/421/421
f 427/427/427 426/426/426 425/425/425
f 428/428/428 427/427/427 425/425/425
f 429/429/429 427/427/427 428/428/428
f 430/430/430 429/429/429 428/428/428
f 433/433/433 432/432/432 431/431/431
f 434/434/434 433/433/433 431/431/431
f 437/437/437 436/436/436 435/435/435
f 438/438/438 437/437/437 435/435/435
f 441/441/441 440/440/440 439/439/439
f 442/442/442 441/441/441 439/439/439
f 445/445/445 444/444/444 443/443/443
f 446/446/446 445/445/445 443/443/443
f 447/447/447 445/445/445 446/446/446
f 448/448/448 447/447/447 446/446/446
f 451/451/451 450/450/450 449/449/449
f 452/452/452 451/451/451 449/449/449
f 455/455/455 454/454/454 453/453/453
f 456/456/456 455/455/455 453/453/453
f 459/459/459 458/458/458 457/457/457
f 460/460/460 459/459/459 457/457/457
f 463/463/463 462/462/462 461/461/461
f 464/464/464 463/463/463 461/461/461
f 465/465/465 463/463/463 464/464/464
f 466/466/466 465/465/465 464/464/464
f 469/469/469 468/468/468 467/467/467
f 470/470/470 469/469/469 467/467/467
f 473/473/473 472/472/472 471/471/471
f 474/474/474 473/473/473 471/471/471
f 477/477/477 476/476/476 475/475/475
f 478/478/478 477/477/477 475/475/475
f 481/481/481 480/480/480 479/479/479
f 482/482/482 481/481/481 479/479/479
f 483/483/483 481/481/481 482/482/482
f 484/484/484 483/483/483 482/482/482
f 487/487/487 486/486/486 485/485/485
f 488/488/488 487/487/487 485/485/485
f 491/491/491 490/490/490 489/489/489
f 492/492/492 491/491/491 489/489/489
f 495/495/495 494/494/494 493/493/493
f 496/496/496 495/495/495 493/493/493
f 499/499/499 498/498/498 497/497/497
f 500/500/500 499/499/499 497/497/497
f 501/501/501 499/499/499 500/500/500
f 502/502/502 501/501/501 500/500/500
f 505/505/505 504/504/504 503/503/503
f 506/506/506 505/505/505 503/503/503
f 509/509/509 508/508/508 507/507/507
f 510/510/510 509/509/509 507/507/507
f 513/513/513 512/512/512 511/511/511
f 514/514/514 513/513/513 511/511/511
f 517/517/517 516/516/516 515/515/515
f 518/518/518 517/517/517 515/515/515
f 519/519/519 517/517/517 518/518/518
f 520/520/520 519/519/519 518/518/518
f 523/523/523 522/522/522 521/521/521
f 524/524/524 523/523/523 521/521/521
f 527/527/527 526/526/526 525/525/525
f 528/528/528 527/527/527 525/525/525
f 531/531/531 530/530/530 529/529/529
f 532/532/532 531/531/531 529/529/529
f 535/535/535 534/534/534 533/533/533
f 536/536/536 535/535/535 533/533/533
f 537/537/537 535/535/535 536/536/536
f 538/538/538 537/537/537 536/536/536
f 541/541/541 540/540/540 539/539/539
f 542/542/542 541/541/541 539/539/539
f 545/545/545 544/544/544 543/543/543
f 546/546/546 545/545/545 543/543/543
f 549/549/549 548/548/548 547/547/547
f 550/550/550 549/549/549 547/547/547
f 553/553/553 552/552/552 551/551/551
f 554/554/554 553/553/553 551/551/551
f 555/555/555 553/553/553 554/554/554
f 556/556/556 555/555/555 554/554/554
f 559/559/559 558/558/558 557/557/557
f 560/560/560 559/559/559 557/557/557
f 563/563/563 562/562/562 561/561/561
f 564/564/564 563/563/563 561/561/561
f 567/567/567 566/566/566 565/565/565
f 568/568/568 567/567/567 565/565/565
f 571/571/571 570/570/570 569/569/569
f 572/572/572 571/571/571 569/569/569
f 573/573/573 571/571/571 572/572/572
f 574/574/574 573/573/573 572/572/572
f 577/577/577 576/576/576 575/575/575
f 578/578/578 577/577/577 575/575/575
f 581/581/581 580/580/580 579/579/579
f 582/582/582 581/581/581 579/579/579
f 585/585/585 584/584/584 583/583/583
f 586/586/586 585/585/585 583/583/583
f 589/589/589 588/588/588 587/587/587
f 590/590/590 589/589/589 587/587/587
f 591/591/591 589/589/589 590/590/590
f 592/592/592 591/591/591 590/590/590
f 595/595/595 594/594/594 593/593/593
f 596/596/596 595/595/595 593/593/593
f 599/599/599 598/598/598 597/597/597
f 600/600/600 599/599/599 597/597/597
f 603/603/603 602/602/602 601/601/601
f 604/604/604 603/603/603 601/601/601
f 607/607/607 606/606/606 605/605/605
f 608/608/608 607/607/607 605/605/605
f 609/609/609 607/607/607 608/608/608
f 610/610/610 609/609/609 608/608/608
f 613/613/613 612/612/612 611/611/611
f 614/614/614 613/613/613 611/611/611
f 617/617/617 616/616/616 615/615/615
f 618/618/618 617/617/617 615/615/615
f 621/621/621 620/620/620 619/619/619
f 622/622/622 621/621/621 619/619/619
f 625/625/625 624/624/624 623/623/623
f 626/626/626 625/625/625 623/623/623
f 627/627/627 625/625/625 626/626/626
f 628/628/628 627/627/627 626/626/626
f 631/631/631 630/630/630 629/629/629
f 632/632/632 631/631/631 629/629/629
f 635/635/635 634/634/634 633/633/633
f 636/636/636 635/635/635 633/633/633
f 639/639/639 638/638/638 637/637/637
f 640/640/640 639/639/639 637/637/637
f 643/643/643 642/642/642 641/641/641
f 644/644/644 643/643/643 641/641/641
f 645/645/645 643/643/643 644/644/644
f 646/646/646 645/645/645 644/644/644
f 649/649/649 648/648/648 647/647/647
f 650/650/650 649/649/649 647/647/647
f 653/653/653 652/652/652 651/651/651
f 654/654/654 653/653/653 651/651/651
f 657/657/657 656/656/656 655/655/655
f 658/658/658 657/657/657 655/655/655
f 661/661/661 660/660/660 659/659/659
f 662/662/662 661/661/661 659/659/659
f 663/663/663 661/661/661 662/662/662
f 664/664/664 663/663/663 662/662/662
f 667/667/667 666/666/666 665/665/665
f 668/668/668 667/667/667 665/665/665
f 671/671/671 670/670/670 669/669/669
f 672/672/672 671/671/671 669/669/669
f 675/675/675 674/674/674 673/673/673
f 676/676/676 675/675/675 673/673/673
f 679/679/679 678/678/678 677/677/677
f 680/680/680 679/679/679 677/677/677
f 681/681/681 679/679/679 680/680/680
f 682/682/682 681/681/681 680/680/680
f 685/685/685 684/684/684 683/683/683
f 686/686/686 685/685/685 683/683/683
f 689/689/689 688/688/688 687/687/687
f 690/690/690 689/689/689 687/687/687
f 693/693/693 692/692/692 691/691/691
f 694/694/694 693/693/693 691/691/691
f 697/697/697 696/696/696 695/695/695
f 698/698/698 697/697/697 695/695/695
f 699/699/699 697/697/697 698/698/698
f 700/700/700 699/699/699 698/698/698
f 703/703/703 702/702/702 701/701/701
f 704/704/704 703/703/703 701/701/701
