g 平面
v 0.0971393585 0.984312057 -2.04154301
v 1.69650352 -0.599952579 1.03560901
v 0.569303513 -0.264484107 1.63426375
v -0.33663559 1.13975501 -1.74692452
v 10.5094099 9.48192406 -24.9052601
v 12.7794514 9.68760872 -24.0733109
v 12.7827559 8.91229725 -23.6799431
v 10.4145336 8.60350323 -24.4411907
v 10.4145336 8.60350323 -24.4411907
v 12.7827559 8.91229725 -23.6799431
v 12.7601862 8.18358421 -23.1385784
v 10.2957993 7.85083723 -23.8531876
v 10.2957993 7.85083723 -23.8531876
v 12.7601862 8.18358421 -23.1385784
v 12.7186298 7.50224638 -22.5131798
v 10.1608067 7.17850685 -23.2008972
v 10.1608067 7.17850685 -23.2008972
v 12.7186298 7.50224638 -22.5131798
v 12.6616259 6.86133003 -21.8360977
v 10.0126667 6.56202316 -22.5086956
v 10.0126667 6.56202316 -22.5086956
v 12.6616259 6.86133003 -21.8360977
v 12.5907478 6.25418282 -21.1234093
v 9.85290146 5.9887104 -21.7889881
v 9.85290146 5.9887104 -21.7889881
v 12.5907478 6.25418282 -21.1234093
v 12.5065651 5.67621994 -20.3836727
v 9.68229485 5.45161772 -21.0488148
v 12.4090757 5.12460423 -19.6217041
v 9.5012207 4.94689322 -20.2925816
v 12.2978582 4.59779167 -18.8402977
v 9.30977917 4.47253799 -19.5232296
v 12.1721392 4.09523487 -18.0410156
v 9.10782814 4.02781343 -18.7429008
v 9.10782814 4.02781343 -18.7429008
v 12.1721392 4.09523487 -18.0410156
v 12.0266304 3.62442064 -17.2208271
v 8.89121437 3.62091279 -17.9510155
v 11.8611469 3.18302727 -16.3824024
v 8.66087914 3.2494185 -17.1519299
v 11.6742172 2.7725606 -15.526926
v 8.41638374 2.91405988 -16.3475361
v 8.41638374 2.91405988 -16.3475361
v 11.6742172 2.7725606 -15.526926
v 11.4647627 2.39482307 -14.6599073
v 8.15557098 2.61299562 -15.5363884
v 11.2371798 2.04290676 -13.7893562
v 7.88075542 2.33635807 -14.7179146
v 10.9858112 1.71311784 -12.9129028
v 7.59009027 2.08479643 -13.9010048
v 10.7173996 1.39719725 -12.0326643
v 7.29063225 1.84927726 -13.0864296
v 10.4245968 1.10209417 -11.1478109
v 6.97667408 1.63704634 -12.2757769
v 10.1022005 0.831633866 -10.25982
v 6.64444256 1.45162642 -11.4717379
v 9.75570679 0.579587102 -9.37063408
v 6.29961586 1.28554451 -10.6740046
v 9.38259125 0.347714305 -8.48135471
v 5.94070768 1.14000082 -9.88366222
v 8.97512245 0.141692013 -7.5946641
v 5.561625 1.02026343 -9.10436821
v 8.53290462 -0.0398105048 -6.71383095
v 5.16249561 0.924039185 -8.33769226
v 8.05833054 -0.199964404 -5.84106255
v 4.74568272 0.847245753 -7.58328772
v 7.54984093 -0.338818729 -4.9794898
v 4.30982685 0.789232075 -6.84241199
v 7.0063715 -0.457081825 -4.132658
v 3.85362506 0.748805821 -6.11623764
v 6.42743587 -0.556174874 -3.3043797
v 3.37583065 0.724229157 -5.40577555
v 5.81195927 -0.637712598 -2.4995544
v 2.87400627 0.71377027 -4.71278286
v 5.1539917 -0.704945266 -1.71611702
v 2.35205245 0.714741111 -4.04590797
v 2.35205245 0.714741111 -4.04590797
v 5.1539917 -0.704945266 -1.71611702
v 4.35672092 -0.751920521 -0.894722521
v 1.87209404 0.733624995 -3.50251555
v 1.87209404 0.733624995 -3.50251555
v 4.35672092 -0.751920521 -0.894722521
v 3.50549674 -0.755873084 -0.180731878
v 1.31644344 0.780397177 -2.98502517
v 1.31644344 0.780397177 -2.98502517
v 3.50549674 -0.755873084 -0.180731878
v 2.62743092 -0.714065254 0.451336622
v 0.708078384 0.859635592 -2.48814869
v 0.708078384 0.859635592 -2.48814869
v 2.62743092 -0.714065254 0.451336622
v 1.69650352 -0.599952579 1.03560901
v 0.0971393585 0.984312057 -2.04154301
vt 0.030303061 0
vt 0.0303030014 1
vt 0 1
vt 0 0
vt 1 0
vt 1 1
vt 0.969696999 1
vt 0.969696999 0
vt 0.969696999 0
vt 0.969696999 1
vt 0.939393938 1
vt 0.939393938 0
vt 0.939393938 0
vt 0.939393938 1
vt 0.909090936 1
vt 0.909090877 0
vt 0.909090877 0
vt 0.909090936 1
vt 0.878787875 1
vt 0.878787875 0
vt 0.878787875 0
vt 0.878787875 1
vt 0.848484874 1
vt 0.848484874 0
vt 0.848484874 0
vt 0.848484874 1
vt 0.818181872 1
vt 0.818181813 0
vt 0.787878811 1
vt 0.787878752 0
vt 0.75757575 1
vt 0.75757575 0
vt 0.727272749 1
vt 0.727272749 0
vt 0.727272749 0
vt 0.727272749 1
vt 0.696969748 1
vt 0.696969748 0
vt 0.666666687 1
vt 0.666666746 0
vt 0.636363626 1
vt 0.636363685 0
vt 0.636363685 0
vt 0.636363626 1
vt 0.606060624 1
vt 0.606060624 0
vt 0.575757563 1
vt 0.575757623 0
vt 0.545454562 1
vt 0.545454562 0
vt 0.515151501 1
vt 0.51515156 0
vt 0.484848499 1
vt 0.484848499 0
vt 0.454545438 1
vt 0.454545498 0
vt 0.424242437 1
vt 0.424242437 0
vt 0.393939376 1
vt 0.393939376 0
vt 0.363636374 1
vt 0.363636374 0
vt 0.333333313 1
vt 0.333333373 0
vt 0.303030312 1
vt 0.303030372 0
vt 0.272727251 1
vt 0.272727311 0
vt 0.24242419 1
vt 0.24242425 0
vt 0.212121129 1
vt 0.212121248 0
vt 0.181818128 1
vt 0.181818187 0
vt 0.151515126 1
vt 0.151515126 0
vt 0.151515126 0
vt 0.151515126 1
vt 0.121212065 1
vt 0.121212125 0
vt 0.121212125 0
vt 0.121212065 1
vt 0.0909090042 1
vt 0.0909091234 0
vt 0.0909091234 0
vt 0.0909090042 1
vt 0.0606060028 1
vt 0.060606122 0
vt 0.060606122 0
vt 0.0606060028 1
vt 0.0303030014 1
vt 0.030303061 0
vn 0.415379554 0.876221776 0.244325966
vn 0.415379554 0.876221776 0.244325966
vn 0.415379554 0.876221776 0.244325966
vn 0.415379554 0.876221776 0.244325966
vn -0.334462225 0.448312968 0.828945398
vn -0.334462225 0.448312968 0.828945398
vn -0.334462225 0.448312968 0.828945398
vn -0.334462225 0.448312968 0.828945398
vn -0.305911273 0.595499158 0.742831767
vn -0.305911273 0.595499158 0.742831767
vn -0.305911273 0.595499158 0.742831767
vn -0.305911273 0.595499158 0.742831767
vn -0.278537303 0.678200781 0.680044532
vn -0.278537303 0.678200781 0.680044532
vn -0.278537303 0.678200781 0.680044532
vn -0.278537303 0.678200781 0.680044532
vn -0.253008872 0.731180847 0.633530676
vn -0.253008872 0.731180847 0.633530676
vn -0.253008872 0.731180847 0.633530676
vn -0.253008872 0.731180847 0.633530676
vn -0.228899211 0.768988073 0.596877337
vn -0.228899211 0.768988073 0.596877337
vn -0.228899211 0.768988073 0.596877337
vn -0.228899211 0.768988073 0.596877337
vn -0.205761343 0.798280656 0.566047847
vn -0.205761343 0.798280656 0.566047847
vn -0.205761343 0.798280656 0.566047847
vn -0.205761343 0.798280656 0.566047847
vn -0.183252573 0.822400153 0.538587511
vn -0.183252573 0.822400153 0.538587511
vn -0.161102414 0.84318471 0.512918651
vn -0.161102414 0.84318471 0.512918651
vn -0.139072984 0.861734152 0.487927258
vn -0.139072984 0.861734152 0.487927258
vn -0.115183756 0.88305378 0.454916179
vn -0.115183756 0.88305378 0.454916179
vn -0.115183756 0.88305378 0.454916179
vn -0.115183756 0.88305378 0.454916179
vn -0.0916423947 0.900583625 0.424912632
vn -0.0916423947 0.900583625 0.424912632
vn -0.0675711259 0.916514933 0.394252032
vn -0.0675711259 0.916514933 0.394252032
vn -0.0431680046 0.930316925 0.364207476
vn -0.0431680046 0.930316925 0.364207476
vn -0.0431680046 0.930316925 0.364207476
vn -0.0431680046 0.930316925 0.364207476
vn -0.0208733752 0.9390167 0.34323734
vn -0.0208733752 0.9390167 0.34323734
vn 0.000914044329 0.945723832 0.324970245
vn 0.000914044329 0.945723832 0.324970245
vn 0.020145718 0.948732257 0.315438062
vn 0.020145718 0.948732257 0.315438062
vn 0.041605033 0.95301491 0.300052464
vn 0.041605033 0.95301491 0.300052464
vn 0.0642668754 0.957047105 0.282719821
vn 0.0642668754 0.957047105 0.282719821
vn 0.0847520605 0.958471417 0.272304088
vn 0.0847520605 0.958471417 0.272304088
vn 0.105739981 0.959352076 0.261653632
vn 0.105739981 0.959352076 0.261653632
vn 0.128490701 0.960098386 0.248397291
vn 0.128490701 0.960098386 0.248397291
vn 0.150385574 0.959420085 0.238531679
vn 0.150385574 0.959420085 0.238531679
vn 0.170759022 0.95737797 0.232956707
vn 0.170759022 0.95737797 0.232956707
vn 0.190551892 0.954460442 0.229554415
vn 0.190551892 0.954460442 0.229554415
vn 0.209329039 0.950667441 0.228938356
vn 0.209329039 0.950667441 0.228938356
vn 0.226593107 0.946041882 0.231646866
vn 0.226593107 0.946041882 0.231646866
vn 0.241789475 0.940652907 0.23813878
vn 0.241789475 0.940652907 0.23813878
vn 0.253906071 0.934557557 0.249266773
vn 0.253906071 0.934557557 0.249266773
vn 0.26256758 0.927862167 0.264820665
vn 0.26256758 0.927862167 0.264820665
vn 0.26256758 0.927862167 0.264820665
vn 0.26256758 0.927862167 0.264820665
vn 0.272276729 0.920871377 0.279036313
vn 0.272276729 0.920871377 0.279036313
vn 0.272276729 0.920871377 0.279036313
vn 0.272276729 0.920871377 0.279036313
vn 0.29142952 0.912890553 0.285831332
vn 0.29142952 0.912890553 0.285831332
vn 0.29142952 0.912890553 0.285831332
vn 0.29142952 0.912890553 0.285831332
vn 0.327902198 0.901780725 0.281552225
vn 0.327902198 0.901780725 0.281552225
vn 0.327902198 0.901780725 0.281552225
vn 0.327902198 0.901780725 0.281552225
g 平面_0
f 3/3/3 2/2/2 1/1/1
f 4/4/4 3/3/3 1/1/1
f 7/7/7 6/6/6 5/5/5
f 8/8/8 7/7/7 5/5/5
f 11/11/11 10/10/10 9/9/9
f 12/12/12 11/11/11 9/9/9
f 15/15/15 14/14/14 13/13/13
f 16/16/16 15/15/15 13/13/13
f 19/19/19 18/18/18 17/17/17
f 20/20/20 19/19/19 17/17/17
f 23/23/23 22/22/22 21/21/21
f 24/24/24 23/23/23 21/21/21
f 27/27/27 26/26/26 25/25/25
f 28/28/28 27/27/27 25/25/25
f 29/29/29 27/27/27 28/28/28
f 30/30/30 29/29/29 28/28/28
f 31/31/31 29/29/29 30/30/30
f 32/32/32 31/31/31 30/30/30
f 33/33/33 31/31/31 32/32/32
f 34/34/34 33/33/33 32/32/32
f 37/37/37 36/36/36 35/35/35
f 38/38/38 37/37/37 35/35/35
f 39/39/39 37/37/37 38/38/38
f 40/40/40 39/39/39 38/38/38
f 41/41/41 39/39/39 40/40/40
f 42/42/42 41/41/41 40/40/40
f 45/45/45 44/44/44 43/43/43
f 46/46/46 45/45/45 43/43/43
f 47/47/47 45/45/45 46/46/46
f 48/48/48 47/47/47 46/46/46
f 49/49/49 47/47/47 48/48/48
f 50/50/50 49/49/49 48/48/48
f 51/51/51 49/49/49 50/50/50
f 52/52/52 51/51/51 50/50/50
f 53/53/53 51/51/51 52/52/52
f 54/54/54 53/53/53 52/52/52
f 55/55/55 53/53/53 54/54/54
f 56/56/56 55/55/55 54/54/54
f 57/57/57 55/55/55 56/56/56
f 58/58/58 57/57/57 56/56/56
f 59/59/59 57/57/57 58/58/58
f 60/60/60 59/59/59 58/58/58
f 61/61/61 59/59/59 60/60/60
f 62/62/62 61/61/61 60/60/60
f 63/63/63 61/61/61 62/62/62
f 64/64/64 63/63/63 62/62/62
f 65/65/65 63/63/63 64/64/64
f 66/66/66 65/65/65 64/64/64
f 67/67/67 65/65/65 66/66/66
f 68/68/68 67/67/67 66/66/66
f 69/69/69 67/67/67 68/68/68
f 70/70/70 69/69/69 68/68/68
f 71/71/71 69/69/69 70/70/70
f 72/72/72 71/71/71 70/70/70
f 73/73/73 71/71/71 72/72/72
f 74/74/74 73/73/73 72/72/72
f 75/75/75 73/73/73 74/74/74
f 76/76/76 75/75/75 74/74/74
f 79/79/79 78/78/78 77/77/77
f 80/80/80 79/79/79 77/77/77
f 83/83/83 82/82/82 81/81/81
f 84/84/84 83/83/83 81/81/81
f 87/87/87 86/86/86 85/85/85
f 88/88/88 87/87/87 85/85/85
f 91/91/91 90/90/90 89/89/89
f 92/92/92 91/91/91 89/89/89
