g Trail_2_blds
v 8.35381126 -1.95090318 -2.18937039
v 6.86021757 -3.82683468 2.18937039
v 8.35381126 -1.95090318 2.18937039
v 6.86021662 -3.82683468 -2.18937039
v 5.47383833 -5.55570221 2.18937039
v 5.4738369 -5.55570221 -2.18937039
v 4.19274712 -7.07106781 2.18937039
v 4.19274807 -7.07106781 -2.18937039
v 4.19274807 -7.07106781 -2.18937039
v 2.99382186 -8.31469631 -2.18937039
v 2.99382114 -8.31469631 2.18937039
v 4.19274712 -7.07106781 2.18937039
v 2.99382186 -8.31469631 -2.18937039
v 1.90694404 -9.23879528 -2.18937039
v 1.90694392 -9.23879528 2.18937039
v 2.99382114 -8.31469631 2.18937039
v 1.90694404 -9.23879528 -2.18937039
v 0.924812555 -9.80785275 -2.18937039
v 0.924812734 -9.80785275 2.18937039
v 1.90694392 -9.23879528 2.18937039
v 0.924812555 -9.80785275 -2.18937039
v 5.23309609E-08 -10 -2.18937039
v 1.38452378E-07 -10 2.18937039
v 0.924812734 -9.80785275 2.18937039
v 5.23309609E-08 -10 -2.18937039
v -0.924812257 -9.80785275 -2.18937039
v -0.924812555 -9.80785275 2.18937039
v 1.38452378E-07 -10 2.18937039
v -0.924812257 -9.80785275 -2.18937039
v -1.90694427 -9.23879528 -2.18937039
v -1.90694451 -9.23879528 2.18937039
v -0.924812555 -9.80785275 2.18937039
v -1.90694427 -9.23879528 -2.18937039
v -2.99382091 -8.31469631 -2.18937039
v -2.99381995 -8.31469631 2.18937039
v -1.90694451 -9.23879528 2.18937039
v -2.99382091 -8.31469631 -2.18937039
v -4.19274712 -7.07106781 -2.18937039
v -4.19274712 -7.07106781 2.18937039
v -2.99381995 -8.31469631 2.18937039
v -4.19274712 -7.07106781 -2.18937039
v -5.47383833 -5.55570221 2.18937039
v -4.19274712 -7.07106781 2.18937039
v -5.47383547 -5.55570221 -2.18937039
v -6.86021566 -3.82683468 2.18937039
v -6.86021566 -3.82683468 -2.18937039
v -8.35381031 -1.95090318 2.18937039
v -8.35381126 -1.95090318 -2.18937039
vt 0.996886313 0
vt 0.925680399 1
vt 0.996886492 0.99999994
vt 0.92568022 0
vt 0.854474187 0.999999762
vt 0.854474008 0
vt 0.783268034 0.999999762
vt 0.783267796 0
vt 0.783267796 0
vt 0.712061703 0
vt 0.712061822 0.999999762
vt 0.783268034 0.999999762
vt 0.712061703 0
vt 0.640855491 0
vt 0.64085573 0.999999762
vt 0.712061822 0.999999762
vt 0.640855491 0
vt 0.569649339 5.96046448E-08
vt 0.569649518 0.999999821
vt 0.64085573 0.999999762
vt 0.569649339 5.96046448E-08
vt 0.498443186 5.96046448E-08
vt 0.498443216 0.999999821
vt 0.569649518 0.999999821
vt 0.498443186 5.96046448E-08
vt 0.427237034 5.96046448E-08
vt 0.427237034 0.999999821
vt 0.498443216 0.999999821
vt 0.427237034 5.96046448E-08
vt 0.356030822 5.96046448E-08
vt 0.356030881 0.999999821
vt 0.427237034 0.999999821
vt 0.356030822 5.96046448E-08
vt 0.284824729 5.96046448E-08
vt 0.284824729 0.999999821
vt 0.356030881 0.999999821
vt 0.284824729 5.96046448E-08
vt 0.213618517 5.96046448E-08
vt 0.213618517 0.999999821
vt 0.284824729 0.999999821
vt 0.213618517 5.96046448E-08
vt 0.142412305 0.999999881
vt 0.213618517 0.999999821
vt 0.142412305 1.1920929E-07
vt 0.071206212 0.999999881
vt 0.0712060928 0
vt 0 0.999999881
vt 0 0
vn 0.782321513 -0.622874975 0
vn 0.782321513 -0.622874975 0
vn 0.782321513 -0.622874975 0
vn 0.782321513 -0.622874975 0
vn 0.780145228 -0.62559855 0
vn 0.780145228 -0.62559855 0
vn 0.763670087 -0.645606756 0
vn 0.763670087 -0.645606756 0
vn 0.719927371 -0.694049418 0
vn 0.719927371 -0.694049418 0
vn 0.719927371 -0.694049418 0
vn 0.719927371 -0.694049418 0
vn 0.647751391 -0.761851728 0
vn 0.647751391 -0.761851728 0
vn 0.647751391 -0.761851728 0
vn 0.647751391 -0.761851728 0
vn 0.501336455 -0.865252376 0
vn 0.501336455 -0.865252376 0
vn 0.501336455 -0.865252376 0
vn 0.501336455 -0.865252376 0
vn 0.203424543 -0.979090571 0
vn 0.203424543 -0.979090571 0
vn 0.203424543 -0.979090571 0
vn 0.203424543 -0.979090571 0
vn -0.203424543 -0.979090571 0
vn -0.203424543 -0.979090571 0
vn -0.203424543 -0.979090571 0
vn -0.203424543 -0.979090571 0
vn -0.501336277 -0.865252554 0
vn -0.501336277 -0.865252554 0
vn -0.501336277 -0.865252554 0
vn -0.501336277 -0.865252554 0
vn -0.647751987 -0.761851251 0
vn -0.647751987 -0.761851251 0
vn -0.647751987 -0.761851251 0
vn -0.647751987 -0.761851251 0
vn -0.719927132 -0.694049716 0
vn -0.719927132 -0.694049716 0
vn -0.719927132 -0.694049716 0
vn -0.719927132 -0.694049716 0
vn -0.763670146 -0.645606577 0
vn -0.763670146 -0.645606577 0
vn -0.763670146 -0.645606577 0
vn -0.763670146 -0.645606577 0
vn -0.780145288 -0.625598371 0
vn -0.780145288 -0.625598371 0
vn -0.782321215 -0.622875333 0
vn -0.782321215 -0.622875333 0
g Trail_2_blds_0
f 3/3/3 2/2/2 1/1/1
f 2/2/2 4/4/4 1/1/1
f 2/2/2 5/5/5 4/4/4
f 5/5/5 6/6/6 4/4/4
f 5/5/5 7/7/7 6/6/6
f 7/7/7 8/8/8 6/6/6
f 11/11/11 10/10/10 9/9/9
f 12/12/12 11/11/11 9/9/9
f 15/15/15 14/14/14 13/13/13
f 16/16/16 15/15/15 13/13/13
f 19/19/19 18/18/18 17/17/17
f 20/20/20 19/19/19 17/17/17
f 23/23/23 22/22/22 21/21/21
f 24/24/24 23/23/23 21/21/21
f 27/27/27 26/26/26 25/25/25
f 28/28/28 27/27/27 25/25/25
f 31/31/31 30/30/30 29/29/29
f 32/32/32 31/31/31 29/29/29
f 35/35/35 34/34/34 33/33/33
f 36/36/36 35/35/35 33/33/33
f 39/39/39 38/38/38 37/37/37
f 40/40/40 39/39/39 37/37/37
f 43/43/43 42/42/42 41/41/41
f 42/42/42 44/44/44 41/41/41
f 42/42/42 45/45/45 44/44/44
f 45/45/45 46/46/46 44/44/44
f 45/45/45 47/47/47 46/46/46
f 47/47/47 48/48/48 46/46/46
