g Trail_Blds
v -8.04909706 9.80785275 -0.0807476044
v -6.17316532 9.23879528 -0.0807476044
v -6.17316532 9.23879528 3.81760454
v -8.04909706 9.80785275 3.81760454
v -6.17316532 9.23879528 -0.0807476044
v -4.44429779 8.31469631 -0.0807476044
v -4.44429779 8.31469631 3.81760454
v -6.17316532 9.23879528 3.81760454
v -4.44429779 8.31469631 -0.0807476044
v -2.92893219 7.07106781 -0.0807476044
v -2.92893219 7.07106781 3.81760454
v -4.44429779 8.31469631 3.81760454
v -2.92893219 7.07106781 -0.0807476044
v -1.68530405 5.55570221 -0.0807476044
v -1.68530405 5.55570221 3.81760454
v -2.92893219 7.07106781 3.81760454
v -1.68530405 5.55570221 -0.0807476044
v -0.761204958 3.82683468 -0.0807476044
v -0.761204958 3.82683468 3.81760454
v -1.68530405 5.55570221 3.81760454
v -0.761204958 3.82683468 -0.0807476044
v -0.192147493 1.95090318 -0.0807476044
v -0.192147493 1.95090318 3.81760454
v -0.761204958 3.82683468 3.81760454
v -0.192147493 1.95090318 -0.0807476044
v -0 0 -0.0807476044
v -0 0 3.81760454
v -0.192147493 1.95090318 3.81760454
vt 0.999147832 1.02709549E-07
vt 0.856412411 9.19333161E-08
vt 0.85641247 0.99999994
vt 0.999147832 0.99999994
vt 0.856412411 9.19333161E-08
vt 0.713677108 8.11571113E-08
vt 0.713677227 0.99999994
vt 0.85641247 0.99999994
vt 0.713677108 8.11571113E-08
vt 0.570941687 7.0380878E-08
vt 0.570941746 0.99999994
vt 0.713677227 0.99999994
vt 0.570941687 7.0380878E-08
vt 0.428206354 0
vt 0.428206474 0.99999994
vt 0.570941746 0.99999994
vt 0.428206354 0
vt 0.285471052 4.88284435E-08
vt 0.285470814 0.99999994
vt 0.428206474 0.99999994
vt 0.285471052 4.88284435E-08
vt 0.142735437 9.76568515E-08
vt 0.142735481 0.99999994
vt 0.285470814 0.99999994
vt 0.142735437 9.76568515E-08
vt 0 8.68806325E-08
vt 1.62923243E-07 0.99999994
vt 0.142735481 0.99999994
vn 0.290284604 0.956940353 0
vn 0.290284604 0.956940353 0
vn 0.290284604 0.956940353 0
vn 0.290284604 0.956940353 0
vn 0.471396744 0.881921232 0
vn 0.471396744 0.881921232 0
vn 0.471396744 0.881921232 0
vn 0.471396744 0.881921232 0
vn 0.634393275 0.773010433 0
vn 0.634393275 0.773010433 0
vn 0.634393275 0.773010433 0
vn 0.634393275 0.773010433 0
vn 0.773010492 0.634393156 0
vn 0.773010492 0.634393156 0
vn 0.773010492 0.634393156 0
vn 0.773010492 0.634393156 0
vn 0.881921232 0.471396834 0
vn 0.881921232 0.471396834 0
vn 0.881921232 0.471396834 0
vn 0.881921232 0.471396834 0
vn 0.956940353 0.290284574 0
vn 0.956940353 0.290284574 0
vn 0.956940353 0.290284574 0
vn 0.956940353 0.290284574 0
vn 0.99518472 0.0980172902 0
vn 0.99518472 0.0980172902 0
vn 0.99518472 0.0980172902 0
vn 0.99518472 0.0980172902 0
g Trail_Blds_0
f 3/3/3 2/2/2 1/1/1
f 4/4/4 3/3/3 1/1/1
f 7/7/7 6/6/6 5/5/5
f 8/8/8 7/7/7 5/5/5
f 11/11/11 10/10/10 9/9/9
f 12/12/12 11/11/11 9/9/9
f 15/15/15 14/14/14 13/13/13
f 16/16/16 15/15/15 13/13/13
f 19/19/19 18/18/18 17/17/17
f 20/20/20 19/19/19 17/17/17
f 23/23/23 22/22/22 21/21/21
f 24/24/24 23/23/23 21/21/21
f 27/27/27 26/26/26 25/25/25
f 28/28/28 27/27/27 25/25/25
