g Plane_BianLianDaShi
v -1.29849911 -1.99015062E-08 -0.90830195
v -0.310025752 -2.27063538E-07 -1.6233691
v -0.712610006 -1.98874034E-07 -2.43871903
v -1.8589021 2.87399544E-08 -2.02108884
v -2.28697228 1.87260525E-07 -0.193234801
v -3.00519419 2.56353957E-07 -1.60345864
v -1.8589021 2.87399544E-08 -2.02108884
v -0.712610006 -1.98874034E-07 -2.43871903
v -0.938498974 -1.45191379E-07 -3.41116023
v -2.14523244 8.35214991E-08 -3.23173213
v -3.00519419 2.56353957E-07 -1.60345864
v -3.3519659 3.12234363E-07 -3.05230403
v -2.14523244 8.35214991E-08 -3.23173213
v -0.938498974 -1.45191379E-07 -3.41116023
v -1.00213015 -9.63565725E-08 -4.44847298
v -2.22212744 1.4127987E-07 -4.45121956
v -3.3519659 3.12234363E-07 -3.05230403
v -3.44212484 3.78916297E-07 -4.45396614
v -2.22212744 1.4127987E-07 -4.45121956
v -1.00213015 -9.63565725E-08 -4.44847298
v -0.933260441 -5.20101082E-08 -5.45767403
v -2.14394498 1.9112332E-07 -5.60815001
v -3.44212484 3.78916297E-07 -4.45396614
v -3.35462952 4.34256719E-07 -5.75862598
v -2.14394498 1.9112332E-07 -5.60815001
v -0.933260441 -5.20101082E-08 -5.45767403
v -0.768473864 -4.94566166E-09 -6.36393404
v -1.95476377 2.38471756E-07 -6.64874363
v -3.35462952 4.34256719E-07 -5.75862598
v -3.14105368 4.81889174E-07 -6.93355322
v -1.95476377 2.38471756E-07 -6.64874363
v -0.768473864 -4.94566166E-09 -6.36393404
v -0.544718027 5.40390488E-09 -7.11205292
v -1.68838131 2.69840598E-07 -7.53682852
v -3.14105368 4.81889174E-07 -6.93355322
v -2.8320446 5.34277319E-07 -7.96160412
v -1.68838131 2.69840598E-07 -7.53682852
v -0.544718027 5.40390488E-09 -7.11205292
v -0.299016833 3.7089535E-08 -7.66648626
v -1.36832154 3.08632849E-07 -8.25384235
v -2.8320446 5.34277319E-07 -7.96160412
v -2.43762636 5.80176106E-07 -8.84119797
v -1.36832154 3.08632849E-07 -8.25384235
v -0.299016833 3.7089535E-08 -7.66648626
v -0.0734173656 8.20647017E-08 -8.01360035
v -1.00912404 3.39801545E-07 -8.79644966
v -2.43762636 5.80176106E-07 -8.84119797
v -1.94483089 5.9753836E-07 -9.57929897
v -1.00912404 3.39801545E-07 -8.79644966
v -0.0734173656 8.20647017E-08 -8.01360035
v -0.00746521913 2.58865214E-08 -8.09198952
v -0.663171947 3.24564468E-07 -9.12966347
v -1.94483089 5.9753836E-07 -9.57929897
v -1.31887865 6.23242386E-07 -10.1673374
v -0.663171947 3.24564468E-07 -9.12966347
v -0.00746521913 2.58865214E-08 -8.09198952
v 0.0157977622 2.67308167E-08 -8.11130428
v -0.25568223 3.4809554E-07 -9.32709312
v -1.31887865 6.23242386E-07 -10.1673374
v -0.527162254 6.69460292E-07 -10.5428829
v -0.25568223 3.4809554E-07 -9.32709312
v 0.0157977622 2.67308167E-08 -8.11130428
v 0.0363800526 5.66466554E-08 -8.11390114
v 0.203866705 3.49249831E-07 -9.35350037
v -0.527162254 6.69460292E-07 -10.5428829
v 0.371353358 6.41853035E-07 -10.5930996
v 0.203866705 3.49249831E-07 -9.35350037
v 0.0363800526 5.66466554E-08 -8.11390114
v 0.0534920432 2.66540496E-08 -8.10954762
v 0.63060087 3.27681022E-07 -9.20096207
v 0.371353358 6.41853035E-07 -10.5930996
v 1.20770967 6.28707994E-07 -10.2923765
v 0.63060087 3.27681022E-07 -9.20096207
v 0.0534920432 2.66540496E-08 -8.10954762
v 0.0965732336 9.97449945E-08 -8.07717991
v 0.98735249 3.59700863E-07 -8.91079426
v 1.20770967 6.28707994E-07 -10.2923765
v 1.87813175 6.19656703E-07 -9.74440861
v 0.98735249 3.59700863E-07 -8.91079426
v 0.0965732336 9.97449945E-08 -8.07717991
v 0.307137132 5.69431506E-08 -7.77978516
v 1.35361731 3.15323433E-07 -8.40690517
v 1.87813175 6.19656703E-07 -9.74440861
v 2.40009737 5.73703687E-07 -9.03402519
v 1.35361731 3.15323433E-07 -8.40690517
v 0.307137132 5.69431506E-08 -7.77978516
v 0.554759502 1.20461436E-08 -7.264009
v 1.68569899 2.7791657E-07 -7.72158527
v 2.40009737 5.73703687E-07 -9.03402519
v 2.81663847 5.43787053E-07 -8.17916203
v 1.68569899 2.7791657E-07 -7.72158527
v 0.554759502 1.20461436E-08 -7.264009
v 0.79152441 2.82361157E-09 -6.54167461
v 1.97031593 2.4380941E-07 -6.85608006
v 2.81663847 5.43787053E-07 -8.17916203
v 3.14910746 4.84795237E-07 -7.1704855
v 1.97031593 2.4380941E-07 -6.85608006
v 0.79152441 2.82361157E-09 -6.54167461
v 0.975836158 -4.73668251E-08 -5.6491251
v 2.18285704 1.96947212E-07 -5.82661009
v 3.14910746 4.84795237E-07 -7.1704855
v 3.3898778 4.41261278E-07 -6.00409508
v 2.18285704 1.96947212E-07 -5.82661009
v 0.975836158 -4.73668251E-08 -5.6491251
v 1.06592667 -8.81672548E-08 -4.64114809
v 2.28565884 1.50670232E-07 -4.66671181
v 3.3898778 4.41261278E-07 -6.00409508
v 3.50539064 3.89507704E-07 -4.69227552
v 2.28565884 1.50670232E-07 -4.66671181
v 1.06592667 -8.81672548E-08 -4.64114809
v 1.01894641 -1.33634003E-07 -3.59033751
v 2.22799683 9.76557857E-08 -3.42724991
v 3.50539064 3.89507704E-07 -4.69227552
v 3.43704724 3.28945589E-07 -3.2641623
v 2.22799683 9.76557857E-08 -3.42724991
v 1.01894641 -1.33634003E-07 -3.59033751
v 0.796269536 -1.92513568E-07 -2.58422899
v 1.94608963 3.55293821E-08 -2.17641282
v 3.43704724 3.28945589E-07 -3.2641623
v 3.09590983 2.63572332E-07 -1.76859665
v 1.94608963 3.55293821E-08 -2.17641282
v 0.796269536 -1.92513568E-07 -2.58422899
v 0.367463946 -2.38405903E-07 -1.70478392
v 1.36309481 -1.59056306E-08 -0.999716878
v 3.09590983 2.63572332E-07 -1.76859665
v 2.35872555 2.06594649E-07 -0.29464978
v 1.36309481 -1.59056306E-08 -0.999716878
v 0.367463946 -2.38405903E-07 -1.70478392
v -0.327336013 -2.69760363E-07 -0.987477481
v 0.389110267 -6.70550833E-08 -3.27825546E-06
v 2.35872555 2.06594649E-07 -0.29464978
v 1.10555649 1.35650211E-07 0.987470984
v -0.389105827 -5.96046448E-08 -2.61293189E-15
v 0.303289205 -2.54115804E-07 -1.00448465
v -0.310025752 -2.27063538E-07 -1.6233691
v -1.29849911 -1.99015062E-08 -0.90830195
v -1.08150089 1.34906514E-07 1.00448465
v -2.28697228 1.87260525E-07 -0.193234801
vt 0.0434782505 0.5
vt 0.0434782505 0.00177446008
vt 0.0869565308 0.00177446008
vt 0.0869565308 0.5
vt 0.0434782505 0.99822557
vt 0.0869565308 0.99822557
vt 0.0869565308 0.5
vt 0.0869565308 0.00177446008
vt 0.130434781 0.00177446008
vt 0.130434781 0.5
vt 0.0869565308 0.99822557
vt 0.130434781 0.99822557
vt 0.130434781 0.5
vt 0.130434781 0.00177446008
vt 0.173913062 0.00177446008
vt 0.173913062 0.5
vt 0.130434781 0.99822557
vt 0.173913062 0.99822557
vt 0.173913062 0.5
vt 0.173913062 0.00177446008
vt 0.217391312 0.00177446008
vt 0.217391282 0.5
vt 0.173913062 0.99822557
vt 0.217391312 0.99822557
vt 0.217391282 0.5
vt 0.217391312 0.00177446008
vt 0.260869563 0.00177446008
vt 0.260869563 0.5
vt 0.217391312 0.99822557
vt 0.260869563 0.99822557
vt 0.260869563 0.5
vt 0.260869563 0.00177446008
vt 0.304347813 0.00177446008
vt 0.304347813 0.5
vt 0.260869563 0.99822557
vt 0.304347813 0.99822557
vt 0.304347813 0.5
vt 0.304347813 0.00177446008
vt 0.347826093 0.00177446008
vt 0.347826093 0.5
vt 0.304347813 0.99822557
vt 0.347826093 0.99822557
vt 0.347826093 0.5
vt 0.347826093 0.00177446008
vt 0.391304344 0.00177446008
vt 0.391304344 0.5
vt 0.347826093 0.99822557
vt 0.391304344 0.99822557
vt 0.391304344 0.5
vt 0.391304344 0.00177446008
vt 0.434782594 0.00177446008
vt 0.434782594 0.5
vt 0.391304344 0.99822557
vt 0.434782594 0.99822557
vt 0.434782594 0.5
vt 0.434782594 0.00177446008
vt 0.478260875 0.00177446008
vt 0.478260845 0.500000119
vt 0.434782594 0.99822557
vt 0.478260875 0.99822557
vt 0.478260845 0.500000119
vt 0.478260875 0.00177446008
vt 0.521739125 0.00177446008
vt 0.521739125 0.5
vt 0.478260875 0.99822557
vt 0.521739125 0.99822557
vt 0.521739125 0.5
vt 0.521739125 0.00177446008
vt 0.565217376 0.00177446008
vt 0.565217376 0.5
vt 0.521739125 0.99822557
vt 0.565217376 0.99822557
vt 0.565217376 0.5
vt 0.565217376 0.00177446008
vt 0.608695626 0.00177446008
vt 0.608695626 0.5
vt 0.565217376 0.99822557
vt 0.608695626 0.99822557
vt 0.608695626 0.5
vt 0.608695626 0.00177446008
vt 0.652173936 0.00177446008
vt 0.652173936 0.5
vt 0.608695626 0.99822557
vt 0.652173936 0.99822557
vt 0.652173936 0.5
vt 0.652173936 0.00177446008
vt 0.695652187 0.00177446008
vt 0.695652187 0.5
vt 0.652173936 0.99822557
vt 0.695652187 0.99822557
vt 0.695652187 0.5
vt 0.695652187 0.00177446008
vt 0.739130437 0.00177446008
vt 0.739130437 0.5
vt 0.695652187 0.99822557
vt 0.739130437 0.99822557
vt 0.739130437 0.5
vt 0.739130437 0.00177446008
vt 0.782608688 0.00177446008
vt 0.782608688 0.5
vt 0.739130437 0.99822557
vt 0.782608688 0.99822557
vt 0.782608688 0.5
vt 0.782608688 0.00177446008
vt 0.826086938 0.00177446008
vt 0.826086998 0.499999881
vt 0.782608688 0.99822557
vt 0.826086938 0.99822557
vt 0.826086998 0.499999881
vt 0.826086938 0.00177446008
vt 0.869565189 0.00177446008
vt 0.869565129 0.5
vt 0.826086938 0.99822557
vt 0.869565189 0.99822557
vt 0.869565129 0.5
vt 0.869565189 0.00177446008
vt 0.913043499 0.00177446008
vt 0.913043559 0.5
vt 0.869565189 0.99822557
vt 0.913043499 0.99822557
vt 0.913043559 0.5
vt 0.913043499 0.00177446008
vt 0.956521749 0.00177446008
vt 0.95652169 0.500000119
vt 0.913043499 0.99822557
vt 0.956521749 0.99822557
vt 0.95652169 0.500000119
vt 0.956521749 0.00177446008
vt 1 0.00177446008
vt 1 0.5
vt 0.956521749 0.99822557
vt 1 0.99822557
vt 0 0.5
vt 0 0.00177446008
vt 0.0434782505 0.00177446008
vt 0.0434782505 0.5
vt 0 0.99822557
vt 0.0434782505 0.99822557
vn -0 -1 0
vn -0 -1 0
vn -0 -1 0
vn -0 -1 0
vn -0 -1 0
vn -0 -1 0
vn -0 -1 0
vn -0 -1 0
vn -0 -1 0
vn -0 -1 0
vn -0 -1 0
vn -0 -1 0
vn -0 -1 0
vn -0 -1 0
vn -0 -1 0
vn -0 -1 0
vn -0 -1 0
vn -0 -1 0
vn -0 -1 0
vn -0 -1 0
vn -0 -1 0
vn -0 -1 0
vn -0 -1 0
vn -0 -1 0
vn -0 -1 0
vn -0 -1 0
vn -0 -1 0
vn -0 -1 0
vn -0 -1 0
vn -0 -1 0
vn -0 -1 0
vn -0 -1 0
vn -0 -1 0
vn -0 -1 0
vn -0 -1 0
vn -0 -1 0
vn -0 -1 0
vn -0 -1 0
vn -0 -1 0
vn -0 -1 0
vn -0 -1 0
vn -0 -1 0
vn -0 -1 0
vn -0 -1 0
vn -0 -1 0
vn -0 -1 0
vn -0 -1 0
vn -0 -1 0
vn -0 -1 0
vn -0 -1 0
vn -0 -1 0
vn -0 -1 0
vn -0 -1 0
vn -0 -1 0
vn -0 -1 0
vn -0 -1 0
vn -0 -1 0
vn -0 -1 0
vn -0 -1 0
vn -0 -1 0
vn -0 -1 0
vn -0 -1 0
vn -0 -1 0
vn -0 -1 0
vn -0 -1 0
vn -0 -1 0
vn -0 -1 0
vn -0 -1 0
vn -0 -1 0
vn -0 -1 0
vn -0 -1 0
vn -0 -1 0
vn -0 -1 0
vn -0 -1 0
vn -0 -1 0
vn -0 -1 0
vn -0 -1 0
vn -0 -1 0
vn -0 -1 0
vn -0 -1 0
vn -0 -1 0
vn -0 -1 0
vn -0 -1 0
vn -0 -1 0
vn -0 -1 0
vn -0 -1 0
vn -0 -1 0
vn -0 -1 0
vn -0 -1 0
vn -0 -1 0
vn -0 -1 0
vn -0 -1 0
vn -0 -1 0
vn -0 -1 0
vn -0 -1 0
vn -0 -1 0
vn -0 -1 0
vn -0 -1 0
vn -0 -1 0
vn -0 -1 0
vn -0 -1 0
vn -0 -1 0
vn -0 -1 0
vn -0 -1 0
vn -0 -1 0
vn -0 -1 0
vn -0 -1 0
vn -0 -1 0
vn -0 -1 0
vn -0 -1 0
vn -0 -1 0
vn -0 -1 0
vn -0 -1 0
vn -0 -1 0
vn -0 -1 0
vn -0 -1 0
vn -0 -1 0
vn -0 -1 0
vn -0 -1 0
vn -0 -1 0
vn -0 -1 0
vn -0 -1 0
vn -0 -1 0
vn -0 -1 0
vn -0 -1 0
vn -0 -1 0
vn -0 -1 0
vn -0 -1 0
vn -0 -1 0
vn -0 -1 0
vn -0 -1 0
vn -0 -1 0
vn -0 -1 0
vn -0 -1 0
vn -0 -1 0
vn -0 -1 0
vn -0 -1 0
vn -0 -1 0
g Plane_BianLianDaShi_0
f 3/3/3 2/2/2 1/1/1
f 4/4/4 3/3/3 1/1/1
f 4/4/4 1/1/1 5/5/5
f 6/6/6 4/4/4 5/5/5
f 9/9/9 8/8/8 7/7/7
f 10/10/10 9/9/9 7/7/7
f 10/10/10 7/7/7 11/11/11
f 12/12/12 10/10/10 11/11/11
f 15/15/15 14/14/14 13/13/13
f 16/16/16 15/15/15 13/13/13
f 16/16/16 13/13/13 17/17/17
f 18/18/18 16/16/16 17/17/17
f 21/21/21 20/20/20 19/19/19
f 22/22/22 21/21/21 19/19/19
f 22/22/22 19/19/19 23/23/23
f 24/24/24 22/22/22 23/23/23
f 27/27/27 26/26/26 25/25/25
f 28/28/28 27/27/27 25/25/25
f 28/28/28 25/25/25 29/29/29
f 30/30/30 28/28/28 29/29/29
f 33/33/33 32/32/32 31/31/31
f 34/34/34 33/33/33 31/31/31
f 34/34/34 31/31/31 35/35/35
f 36/36/36 34/34/34 35/35/35
f 39/39/39 38/38/38 37/37/37
f 40/40/40 39/39/39 37/37/37
f 40/40/40 37/37/37 41/41/41
f 42/42/42 40/40/40 41/41/41
f 45/45/45 44/44/44 43/43/43
f 46/46/46 45/45/45 43/43/43
f 46/46/46 43/43/43 47/47/47
f 48/48/48 46/46/46 47/47/47
f 51/51/51 50/50/50 49/49/49
f 52/52/52 51/51/51 49/49/49
f 52/52/52 49/49/49 53/53/53
f 54/54/54 52/52/52 53/53/53
f 57/57/57 56/56/56 55/55/55
f 58/58/58 57/57/57 55/55/55
f 58/58/58 55/55/55 59/59/59
f 60/60/60 58/58/58 59/59/59
f 63/63/63 62/62/62 61/61/61
f 64/64/64 63/63/63 61/61/61
f 64/64/64 61/61/61 65/65/65
f 66/66/66 64/64/64 65/65/65
f 69/69/69 68/68/68 67/67/67
f 70/70/70 69/69/69 67/67/67
f 70/70/70 67/67/67 71/71/71
f 72/72/72 70/70/70 71/71/71
f 75/75/75 74/74/74 73/73/73
f 76/76/76 75/75/75 73/73/73
f 76/76/76 73/73/73 77/77/77
f 78/78/78 76/76/76 77/77/77
f 81/81/81 80/80/80 79/79/79
f 82/82/82 81/81/81 79/79/79
f 82/82/82 79/79/79 83/83/83
f 84/84/84 82/82/82 83/83/83
f 87/87/87 86/86/86 85/85/85
f 88/88/88 87/87/87 85/85/85
f 88/88/88 85/85/85 89/89/89
f 90/90/90 88/88/88 89/89/89
f 93/93/93 92/92/92 91/91/91
f 94/94/94 93/93/93 91/91/91
f 94/94/94 91/91/91 95/95/95
f 96/96/96 94/94/94 95/95/95
f 99/99/99 98/98/98 97/97/97
f 100/100/100 99/99/99 97/97/97
f 100/100/100 97/97/97 101/101/101
f 102/102/102 100/100/100 101/101/101
f 105/105/105 104/104/104 103/103/103
f 106/106/106 105/105/105 103/103/103
f 106/106/106 103/103/103 107/107/107
f 108/108/108 106/106/106 107/107/107
f 111/111/111 110/110/110 109/109/109
f 112/112/112 111/111/111 109/109/109
f 112/112/112 109/109/109 113/113/113
f 114/114/114 112/112/112 113/113/113
f 117/117/117 116/116/116 115/115/115
f 118/118/118 117/117/117 115/115/115
f 118/118/118 115/115/115 119/119/119
f 120/120/120 118/118/118 119/119/119
f 123/123/123 122/122/122 121/121/121
f 124/124/124 123/123/123 121/121/121
f 124/124/124 121/121/121 125/125/125
f 126/126/126 124/124/124 125/125/125
f 129/129/129 128/128/128 127/127/127
f 130/130/130 129/129/129 127/127/127
f 130/130/130 127/127/127 131/131/131
f 132/132/132 130/130/130 131/131/131
f 135/135/135 134/134/134 133/133/133
f 136/136/136 135/135/135 133/133/133
f 136/136/136 133/133/133 137/137/137
f 138/138/138 136/136/136 137/137/137
