g Circle006
v 0.159497917 -0.0226603318 0.0134965116
v 0.159497917 -0.0226603318 -0.0207062997
v 0.159497917 -0.0297503602 -0.00360489427
v 0.159497932 -0.00555892754 0.0205865428
v 0.159497932 0.0115424786 0.0134965135
v 0.159497932 0.0186325107 -0.00360489264
v 0.159497932 0.0115424795 -0.0207062997
v 0.159497932 -0.00555892522 -0.0277963299
v 0.149497911 -0.0226603243 -0.0207062997
v 0.149497911 -0.0226603262 0.0134965116
v 0.149497911 -0.0297503565 -0.00360489427
v 0.149497926 -0.00555892196 0.0205865428
v 0.149497941 0.0115424842 0.0134965135
v 0.149497941 0.0186325163 -0.00360489264
v 0.149497941 0.011542486 -0.0207062997
v 0.149497926 -0.00555891963 -0.0277963299
v 0.149497911 -0.0226603262 0.0134965116
v 0.159497917 -0.0297503602 -0.00360489427
v 0.149497911 -0.0297503565 -0.00360489427
v 0.159497917 -0.0226603318 0.0134965116
v 0.149497926 -0.00555892196 0.0205865428
v 0.159497932 -0.00555892754 0.0205865428
v 0.159497917 -0.0226603318 -0.0207062997
v 0.149497911 -0.0297503565 -0.00360489427
v 0.159497917 -0.0297503602 -0.00360489427
v 0.149497911 -0.0226603243 -0.0207062997
v 0.159497932 -0.00555892522 -0.0277963299
v 0.149497926 -0.00555891963 -0.0277963299
v 0.149497941 0.0115424842 0.0134965135
v 0.159497932 -0.00555892754 0.0205865428
v 0.149497926 -0.00555892196 0.0205865428
v 0.159497932 0.0115424786 0.0134965135
v 0.149497941 0.0186325163 -0.00360489264
v 0.159497932 0.0186325107 -0.00360489264
v 0.149497941 0.011542486 -0.0207062997
v 0.159497932 0.0186325107 -0.00360489264
v 0.149497941 0.0186325163 -0.00360489264
v 0.159497932 0.0115424795 -0.0207062997
v 0.149497926 -0.00555891963 -0.0277963299
v 0.159497932 -0.00555892522 -0.0277963299
vn 1 -5.37321171E-07 0
vn 1 -5.46745127E-07 0
vn 1 -5.08316646E-07 0
vn 1 -5.51347739E-07 0
vn 1 -5.46744843E-07 0
vn 1 -5.47946172E-07 0
vn 1 -5.67777647E-07 0
vn 1 -5.67777647E-07 0
vn -1 5.50350819E-07 0
vn -1 5.50350819E-07 0
vn -1 5.50350819E-07 0
vn -1 5.50350819E-07 0
vn -1 5.50350819E-07 0
vn -1 5.50350819E-07 0
vn -1 5.50350819E-07 0
vn -1 5.50350819E-07 0
vn -3.89156753E-07 -0.707106769 0.707106769
vn -5.08390599E-07 -0.923757315 0.38297829
vn -5.08390599E-07 -0.923757315 0.382978231
vn -3.89156753E-07 -0.707106769 0.707106769
vn -2.10772441E-07 -0.38297835 0.923757315
vn -2.10772427E-07 -0.38297832 0.923757315
vn -3.89156753E-07 -0.707106769 -0.707106769
vn -5.08390599E-07 -0.923757315 -0.38297838
vn -5.08390599E-07 -0.923757315 -0.38297832
vn -3.89156753E-07 -0.707106769 -0.707106769
vn -2.10772455E-07 -0.38297838 -0.923757315
vn -2.10772427E-07 -0.38297832 -0.923757315
vn 3.89156753E-07 0.707106769 0.707106829
vn 2.10772384E-07 0.382978261 0.923757315
vn 2.1077237E-07 0.382978231 0.923757315
vn 3.89156753E-07 0.707106769 0.707106829
vn 5.08390599E-07 0.923757315 0.38297841
vn 5.08390599E-07 0.923757315 0.38297841
vn 3.89156753E-07 0.707106769 -0.707106769
vn 5.08390599E-07 0.923757315 -0.38297829
vn 5.08390599E-07 0.923757315 -0.38297829
vn 3.89156781E-07 0.707106829 -0.707106769
vn 2.10772455E-07 0.38297838 -0.923757315
vn 2.10772427E-07 0.38297832 -0.923757315
g Circle006_0
f 3/3/3 2/2/2 1/1/1
f 1/1/1 2/2/2 4/4/4
f 4/4/4 2/2/2 5/5/5
f 5/5/5 2/2/2 6/6/6
f 6/6/6 2/2/2 7/7/7
f 7/7/7 2/2/2 8/8/8
f 11/11/11 10/10/10 9/9/9
f 10/10/10 12/12/12 9/9/9
f 12/12/12 13/13/13 9/9/9
f 13/13/13 14/14/14 9/9/9
f 14/14/14 15/15/15 9/9/9
f 15/15/15 16/16/16 9/9/9
f 19/19/19 18/18/18 17/17/17
f 20/20/20 17/17/17 18/18/18
f 17/17/17 20/20/20 21/21/21
f 22/22/22 21/21/21 20/20/20
f 25/25/25 24/24/24 23/23/23
f 26/26/26 23/23/23 24/24/24
f 23/23/23 26/26/26 27/27/27
f 28/28/28 27/27/27 26/26/26
f 31/31/31 30/30/30 29/29/29
f 32/32/32 29/29/29 30/30/30
f 29/29/29 32/32/32 33/33/33
f 34/34/34 33/33/33 32/32/32
f 37/37/37 36/36/36 35/35/35
f 38/38/38 35/35/35 36/36/36
f 35/35/35 38/38/38 39/39/39
f 40/40/40 39/39/39 38/38/38
