g Rectangle007
v 0.0129082911 -0.0246954355 0.0335960314
v 0.00701903552 0.0246954337 -0.0352994427
v 0.00701902481 -0.0246954337 -0.0352994427
v 0.0129083022 0.0246954318 0.0335960314
v -0.00294462824 0.0246954337 -0.034447737
v 0.00294462824 -0.0246954337 0.034447737
v -0.00294463825 -0.0246954337 -0.034447737
v 0.00294463825 0.0246954337 0.034447737
v 0.00701902481 -0.0246954337 -0.0352994427
v 0.00294462824 -0.0246954337 0.034447737
v 0.0129082911 -0.0246954355 0.0335960314
v -0.00294463825 -0.0246954337 -0.034447737
v 0.00701903552 0.0246954337 -0.0352994427
v -0.00294463825 -0.0246954337 -0.034447737
v 0.00701902481 -0.0246954337 -0.0352994427
v -0.00294462824 0.0246954337 -0.034447737
v 0.0129083022 0.0246954318 0.0335960314
v -0.00294462824 0.0246954337 -0.034447737
v 0.00701903552 0.0246954337 -0.0352994427
v 0.00294463825 0.0246954337 0.034447737
v 0.0129082911 -0.0246954355 0.0335960314
v 0.00294463825 0.0246954337 0.034447737
v 0.0129083022 0.0246954318 0.0335960314
v 0.00294462824 -0.0246954337 0.034447737
vn 0.996366382 -2.08143035E-07 -0.0851705745
vn 0.996366382 -2.08143035E-07 -0.0851705745
vn 0.996366382 -2.08143049E-07 -0.0851705745
vn 0.996366382 -2.08143049E-07 -0.0851705745
vn -0.996366382 2.08143035E-07 0.0851705745
vn -0.996366382 2.08143035E-07 0.0851705745
vn -0.996366382 2.08143049E-07 0.0851705745
vn -0.996366382 2.08143049E-07 0.0851705745
vn -2.09745153E-07 -1 0
vn -2.09745153E-07 -1 0
vn -2.09745153E-07 -1 0
vn -2.09745153E-07 -1 0
vn -0.0851705745 0 -0.996366382
vn -0.0851705745 0 -0.996366382
vn -0.0851705745 0 -0.996366382
vn -0.0851705745 0 -0.996366382
vn 2.09745153E-07 1 0
vn 2.09745153E-07 1 0
vn 2.09745153E-07 1 0
vn 2.09745153E-07 1 0
vn 0.0851705745 0 0.996366382
vn 0.0851705745 0 0.996366382
vn 0.0851705745 0 0.996366382
vn 0.0851705745 0 0.996366382
g Rectangle007_0
f 3/3/3 2/2/2 1/1/1
f 2/2/2 4/4/4 1/1/1
f 7/7/7 6/6/6 5/5/5
f 5/5/5 6/6/6 8/8/8
f 11/11/11 10/10/10 9/9/9
f 12/12/12 9/9/9 10/10/10
f 15/15/15 14/14/14 13/13/13
f 16/16/16 13/13/13 14/14/14
f 19/19/19 18/18/18 17/17/17
f 20/20/20 17/17/17 18/18/18
f 23/23/23 22/22/22 21/21/21
f 24/24/24 21/21/21 22/22/22
