g XiaoChouNv_Weapon_01
v 4.30853271 0.359250098 5.77355528
v 4.33985472 0.280250043 5.70047665
v 4.36693859 0.280349851 5.80445194
v 4.34822273 0.275026321 5.88804722
v 4.22134542 0.432235181 5.66042948
v 4.26441288 0.426507622 5.82122374
v 4.23449564 0.361157686 5.57708788
v 4.25921965 0.280499578 5.58289289
v 4.15744114 0.280782402 5.47885132
v 4.14325142 0.374918699 5.50407743
v 4.05621052 0.280183524 5.38247871
v 4.22914219 0.368171424 5.9631424
v 4.2837081 0.28133139 5.97811508
v 4.21792936 0.276490539 6.01077127
v 4.11914492 0.272098392 6.0043335
v 4.06276512 0.406201363 5.91414881
v 4.02864504 0.284109592 5.95623827
v 3.97115064 0.269120544 5.90498257
v 4.18613768 0.421024054 5.90197134
v 4.12077522 0.470566094 5.75118256
v 4.07763767 0.444031656 5.57465792
v 4.0435977 0.368358374 5.42465019
v 3.97115064 0.437260807 5.82594538
v 3.97115469 0.356961936 5.36399937
v 3.97115064 0.280649304 5.29435778
v 3.88211489 0.273811907 5.3892498
v 3.97115064 0.463861793 5.65860319
v 3.97115064 0.441203535 5.52965736
v 3.87998915 0.405024856 5.91265249
v 3.91358995 0.276706576 5.95861673
v 3.81808281 0.266658425 6.00632906
v 3.9002769 0.368865877 5.42441845
v 3.86937165 0.444880098 5.5744915
v 3.81899762 0.469717652 5.75346184
v 3.79905105 0.374842435 5.50425482
v 3.78303051 0.281680763 5.47871828
v 3.7125771 0.36933592 5.96508884
v 3.72329068 0.278187186 6.01205206
v 3.65390182 0.274410814 5.96906471
v 3.59476066 0.276922852 5.88876247
v 3.72034407 0.432652205 5.66292906
v 3.70786929 0.360751718 5.57687044
v 3.68125153 0.27748847 5.58608675
v 3.60414338 0.280183524 5.69615078
v 3.76092577 0.418251157 5.90744066
v 3.67931914 0.427206576 5.82132673
v 3.63474822 0.360215515 5.77396584
v 3.57894015 0.276989371 5.79974365
v 4.06276512 0.103259444 5.91414881
v 3.97115064 0.240340248 5.90498257
v 4.02864504 0.22535117 5.95623827
v 4.11914492 0.237346068 6.0043335
v 4.22904825 0.141372427 5.96412945
v 4.21792936 0.232953846 6.01077127
v 4.2837081 0.228112772 5.97811508
v 4.34822273 0.234434441 5.88804722
v 4.26433372 0.0827245489 5.82029724
v 4.1821475 0.0909994468 5.90703917
v 4.12077522 0.0388946943 5.75118256
v 3.97115064 0.0722000003 5.82594538
v 4.30899668 0.151240423 5.77264166
v 4.36693859 0.229110926 5.80445194
v 4.33985472 0.229194105 5.70047665
v 4.2215848 0.0767566338 5.66184902
v 3.87914991 0.105147369 5.91368198
v 3.91358995 0.232754201 5.95861673
v 3.81808281 0.242785752 6.00632906
v 4.2352972 0.148892045 5.57728624
v 4.25921965 0.22894457 5.58289289
v 4.15744114 0.22867839 5.47885132
v 4.14426613 0.13383916 5.5055604
v 4.05621052 0.229277298 5.38247871
v 4.07763767 0.0654125139 5.57465792
v 3.97115064 0.0455990098 5.65860319
v 4.04445648 0.141138539 5.42527533
v 3.97133517 0.152161941 5.36448717
v 3.97115064 0.228811473 5.29435778
v 3.88211489 0.23564887 5.3892498
v 3.97203565 0.0654978529 5.53509378
v 3.82216477 0.0390749052 5.74851894
v 3.89957094 0.141362801 5.42412138
v 3.86937165 0.0645807087 5.5744915
v 3.79905105 0.134618342 5.50425482
v 3.78303051 0.227763399 5.47871828
v 3.72092891 0.0774514973 5.66018248
v 3.70786929 0.148709044 5.57687044
v 3.68125153 0.231972322 5.58608675
v 3.60414338 0.229277298 5.69615078
v 3.63493681 0.14647983 5.77354193
v 3.57894015 0.232454777 5.79974365
v 3.59476066 0.232537955 5.88876247
v 3.6787591 0.0825539455 5.82110167
v 3.75827622 0.0878045931 5.90145636
v 3.7125771 0.140108228 5.96508884
v 3.65390182 0.235049993 5.96906471
v 3.72329068 0.231256977 6.01205206
vt 0.0590786934 0.440107167
vt 0.0427948833 0.419973582
vt 0.0378984213 0.44700706
vt 0.040453732 0.468247682
vt 0.0853335261 0.41887176
vt 0.0751296282 0.449248075
vt 0.0778053403 0.397274524
vt 0.0610152483 0.389546871
vt 0.086363256 0.36378327
vt 0.0994576812 0.382707089
vt 0.113636293 0.34338823
vt 0.0764589906 0.48126176
vt 0.0566275716 0.4910914
vt 0.0711743236 0.503307521
vt 0.094930768 0.509719789
vt 0.115178347 0.475804687
vt 0.120290637 0.505698085
vt 0.139509469 0.4992854
vt 0.0897108316 0.467504501
vt 0.108228274 0.438202113
vt 0.116711743 0.40162456
vt 0.1227597 0.364960968
vt 0.139509499 0.45883131
vt 0.139509499 0.351411968
vt 0.139509499 0.327603012
vt 0.167427272 0.343563706
vt 0.139509469 0.420212805
vt 0.139509499 0.392148316
vt 0.164038852 0.475731194
vt 0.15869163 0.507324576
vt 0.185081482 0.510596752
vt 0.155806035 0.365039945
vt 0.161016718 0.401706755
vt 0.170942128 0.438716799
vt 0.179350883 0.382559568
vt 0.192665309 0.364272714
vt 0.20199424 0.481310725
vt 0.207521677 0.502879262
vt 0.224155024 0.489888966
vt 0.237687305 0.468534857
vt 0.193549231 0.419485986
vt 0.200712442 0.397407711
vt 0.218753695 0.390146255
vt 0.235525548 0.419254363
vt 0.188309163 0.46746397
vt 0.203181714 0.450304091
vt 0.218709618 0.440030098
vt 0.240701586 0.446121186
vt 0.433475256 0.475815862
vt 0.409139693 0.499301374
vt 0.428361356 0.505714357
vt 0.453725249 0.509733677
vt 0.472201467 0.481274098
vt 0.477485836 0.503320813
vt 0.492034495 0.491102576
vt 0.508212566 0.468256593
vt 0.47353062 0.449254245
vt 0.458946884 0.467514217
vt 0.440426201 0.438206434
vt 0.409139693 0.458839536
vt 0.489584208 0.440111697
vt 0.510768235 0.447012752
vt 0.505867898 0.419975758
vt 0.463325053 0.418872446
vt 0.384605765 0.475739777
vt 0.389954507 0.507341444
vt 0.363559961 0.510610938
vt 0.470854491 0.397271276
vt 0.487644374 0.389544368
vt 0.462294698 0.363774478
vt 0.449198514 0.382701457
vt 0.435017943 0.343375921
vt 0.431940436 0.401623547
vt 0.409139663 0.420213968
vt 0.425892889 0.364952326
vt 0.409139693 0.351403594
vt 0.409139693 0.327588797
vt 0.381216228 0.343551278
vt 0.409139693 0.392144203
vt 0.377701342 0.43872115
vt 0.39283964 0.365031302
vt 0.387628376 0.40170449
vt 0.369291008 0.382553875
vt 0.355976582 0.364266634
vt 0.355090022 0.419486821
vt 0.347925723 0.397404552
vt 0.329881251 0.390141845
vt 0.313106328 0.419254303
vt 0.329924464 0.440034091
vt 0.307931721 0.446125925
vt 0.310943455 0.468543768
vt 0.345457375 0.450309843
vt 0.360331893 0.467471868
vt 0.34664464 0.48132053
vt 0.324477732 0.489901632
vt 0.341115803 0.502892137
vn 0.815397441 0.566572249 -0.118839853
vn 0.809121549 0.501587391 -0.306157798
vn 0.797636688 0.602369189 0.0304483678
vn 0.747321606 0.570769668 0.340194613
vn 0.501877129 0.823680699 -0.263949871
vn 0.571993768 0.80432564 0.160882816
vn 0.710905254 0.464985549 -0.527638316
vn 0.766511679 0.190824017 -0.613225937
vn 0.659336269 0.2662341 -0.703132331
vn 0.493763834 0.623223841 -0.606456399
vn 0.589277744 0.447001219 -0.673009276
vn 0.23376441 0.642223179 0.730002403
vn 0.629179001 0.498202443 0.596597135
vn 0.0785359889 0.452003658 0.88855201
vn -0.158432081 0.542421877 0.825032055
vn -0.311212659 0.653092206 0.690374672
vn -0.553642809 0.375975907 0.743048966
vn 0.0218283404 0.461062163 0.887099326
vn 0.0162660461 0.800122321 0.599616408
vn 0.077534169 0.994527876 0.0700187758
vn 0.196353868 0.92420727 -0.327545583
vn 0.421989918 0.682513535 -0.596740961
vn -0.00249603344 0.867244244 0.497876674
vn -0.0326790363 0.679515898 -0.732932687
vn -0.0543581024 0.58843106 -0.806718171
vn -0.604379237 0.421906352 -0.675811172
vn -0.000467137113 0.99933356 -0.0364992097
vn 0.00359537103 0.92702651 -0.374978632
vn 0.35208872 0.643629551 0.679539979
vn 0.536771476 0.379469544 0.75357765
vn 0.213900596 0.471756577 0.855390191
vn -0.444897473 0.659993768 -0.605371296
vn -0.195999593 0.925339401 -0.324547499
vn -0.0781839862 0.994114101 0.0749959424
vn -0.482822508 0.633713007 -0.604392469
vn -0.643522859 0.277292401 -0.713433504
vn -0.328393012 0.630673051 0.703142524
vn -0.12980777 0.4420394 0.887553513
vn -0.654573977 0.430642366 0.621353388
vn -0.75966537 0.557799697 0.334317178
vn -0.499867201 0.824757755 -0.264399916
vn -0.710879147 0.46455434 -0.528053045
vn -0.768463492 0.177620709 -0.614747643
vn -0.814074695 0.495301664 -0.303246915
vn -0.0781190619 0.900366366 0.428062767
vn -0.562246203 0.810145676 0.165961236
vn -0.819092155 0.562065184 -0.11476405
vn -0.83036238 0.557222188 0.00132504222
vn -0.348859429 -0.65312624 0.672103465
vn 0.0232301597 -0.46110189 0.887043118
vn -0.553665817 -0.375968695 0.743035495
vn -0.194959044 -0.477729946 0.85660094
vn 0.340956509 -0.635294616 0.692928195
vn 0.0796235576 -0.444693297 0.892136693
vn 0.631487012 -0.494268835 0.597429872
vn 0.747970164 -0.571134388 0.338150889
vn 0.565419972 -0.807959139 0.165838078
vn 0.0919355601 -0.899381161 0.427389085
vn 0.0775257498 -0.994366825 0.0722803175
vn -0.00429516053 -0.866328895 0.499455541
vn 0.816311955 -0.565285444 -0.118689194
vn 0.795476019 -0.605121613 0.0323357955
vn 0.809404552 -0.501184046 -0.306069911
vn 0.501684487 -0.824166656 -0.262796342
vn 0.350387961 -0.645562053 0.678585172
vn 0.537782729 -0.378863662 0.753161371
vn 0.213373795 -0.470401406 0.856267631
vn 0.711806178 -0.465341717 -0.52610755
vn 0.766992927 -0.186203212 -0.61404413
vn 0.658456862 -0.267624259 -0.703428507
vn 0.492730886 -0.625074208 -0.605391085
vn 0.589216113 -0.447420925 -0.672784507
vn 0.198735744 -0.923368275 -0.328473955
vn 0.00122707582 -0.999448955 -0.0331704356
vn 0.422154635 -0.682984173 -0.596085727
vn -0.0292209815 -0.683093488 -0.729746103
vn -0.0523461848 -0.588268161 -0.806969821
vn -0.60379082 -0.421929479 -0.676322639
vn 0.00338361412 -0.928643942 -0.370956868
vn -0.0781233013 -0.99455291 0.0690019727
vn -0.443841338 -0.661776602 -0.604199171
vn -0.197739482 -0.923042953 -0.329986125
vn -0.482218623 -0.632950544 -0.60567224
vn -0.643505275 -0.277327091 -0.713435709
vn -0.499897689 -0.823775351 -0.267388314
vn -0.712115586 -0.460826278 -0.529651344
vn -0.76847297 -0.177610189 -0.614738822
vn -0.815037012 -0.490667254 -0.308156222
vn -0.817501068 -0.563677251 -0.118152268
vn -0.837829351 -0.545931578 0.000832201273
vn -0.75960499 -0.556095958 0.337279618
vn -0.562594593 -0.810676038 0.162147164
vn -0.0795003623 -0.905162513 0.417565048
vn -0.326037139 -0.631740451 0.703280866
vn -0.654624701 -0.430581659 0.621342063
vn -0.12987718 -0.442028672 0.887548625
g XiaoChouNv_Weapon_01_0
f 3/3/3 2/2/2 1/1/1
f 3/3/3 1/1/1 4/4/4
f 1/1/1 2/2/2 5/5/5
f 1/1/1 6/6/6 4/4/4
f 6/6/6 1/1/1 5/5/5
f 5/5/5 2/2/2 7/7/7
f 8/8/8 7/7/7 2/2/2
f 8/8/8 9/9/9 7/7/7
f 7/7/7 9/9/9 10/10/10
f 7/7/7 10/10/10 5/5/5
f 11/11/11 10/10/10 9/9/9
f 4/4/4 6/6/6 12/12/12
f 4/4/4 12/12/12 13/13/13
f 14/14/14 13/13/13 12/12/12
f 14/14/14 12/12/12 15/15/15
f 16/16/16 15/15/15 12/12/12
f 15/15/15 16/16/16 17/17/17
f 18/18/18 17/17/17 16/16/16
f 6/6/6 19/19/19 12/12/12
f 19/19/19 16/16/16 12/12/12
f 6/6/6 20/20/20 19/19/19
f 20/20/20 6/6/6 5/5/5
f 20/20/20 16/16/16 19/19/19
f 5/5/5 10/10/10 21/21/21
f 21/21/21 20/20/20 5/5/5
f 11/11/11 22/22/22 10/10/10
f 10/10/10 22/22/22 21/21/21
f 23/23/23 18/18/18 16/16/16
f 20/20/20 23/23/23 16/16/16
f 24/24/24 22/22/22 11/11/11
f 25/25/25 24/24/24 11/11/11
f 24/24/24 25/25/25 26/26/26
f 21/21/21 27/27/27 20/20/20
f 20/20/20 27/27/27 23/23/23
f 22/22/22 28/28/28 21/21/21
f 24/24/24 28/28/28 22/22/22
f 28/28/28 27/27/27 21/21/21
f 18/18/18 23/23/23 29/29/29
f 30/30/30 18/18/18 29/29/29
f 29/29/29 31/31/31 30/30/30
f 32/32/32 24/24/24 26/26/26
f 28/28/28 24/24/24 32/32/32
f 27/27/27 28/28/28 33/33/33
f 28/28/28 32/32/32 33/33/33
f 27/27/27 34/34/34 23/23/23
f 23/23/23 34/34/34 29/29/29
f 27/27/27 33/33/33 34/34/34
f 32/32/32 26/26/26 35/35/35
f 32/32/32 35/35/35 33/33/33
f 35/35/35 26/26/26 36/36/36
f 31/31/31 29/29/29 37/37/37
f 37/37/37 38/38/38 31/31/31
f 39/39/39 38/38/38 37/37/37
f 37/37/37 40/40/40 39/39/39
f 35/35/35 41/41/41 33/33/33
f 34/34/34 33/33/33 41/41/41
f 36/36/36 42/42/42 35/35/35
f 35/35/35 42/42/42 41/41/41
f 36/36/36 43/43/43 42/42/42
f 42/42/42 43/43/43 44/44/44
f 44/44/44 41/41/41 42/42/42
f 29/29/29 45/45/45 37/37/37
f 29/29/29 34/34/34 45/45/45
f 45/45/45 46/46/46 37/37/37
f 34/34/34 46/46/46 45/45/45
f 46/46/46 40/40/40 37/37/37
f 46/46/46 34/34/34 41/41/41
f 44/44/44 47/47/47 41/41/41
f 47/47/47 46/46/46 41/41/41
f 46/46/46 47/47/47 40/40/40
f 44/44/44 48/48/48 47/47/47
f 47/47/47 48/48/48 40/40/40
f 51/51/51 50/50/50 49/49/49
f 49/49/49 52/52/52 51/51/51
f 52/52/52 49/49/49 53/53/53
f 53/53/53 54/54/54 52/52/52
f 55/55/55 54/54/54 53/53/53
f 53/53/53 56/56/56 55/55/55
f 57/57/57 56/56/56 53/53/53
f 49/49/49 58/58/58 53/53/53
f 58/58/58 57/57/57 53/53/53
f 49/49/49 59/59/59 58/58/58
f 59/59/59 57/57/57 58/58/58
f 50/50/50 60/60/60 49/49/49
f 60/60/60 59/59/59 49/49/49
f 57/57/57 61/61/61 56/56/56
f 61/61/61 62/62/62 56/56/56
f 63/63/63 62/62/62 61/61/61
f 61/61/61 57/57/57 64/64/64
f 63/63/63 61/61/61 64/64/64
f 57/57/57 59/59/59 64/64/64
f 60/60/60 50/50/50 65/65/65
f 50/50/50 66/66/66 65/65/65
f 67/67/67 65/65/65 66/66/66
f 63/63/63 64/64/64 68/68/68
f 68/68/68 69/69/69 63/63/63
f 70/70/70 69/69/69 68/68/68
f 70/70/70 68/68/68 71/71/71
f 71/71/71 68/68/68 64/64/64
f 71/71/71 72/72/72 70/70/70
f 59/59/59 73/73/73 64/64/64
f 71/71/71 64/64/64 73/73/73
f 74/74/74 59/59/59 60/60/60
f 74/74/74 73/73/73 59/59/59
f 75/75/75 72/72/72 71/71/71
f 75/75/75 71/71/71 73/73/73
f 75/75/75 76/76/76 72/72/72
f 76/76/76 77/77/77 72/72/72
f 77/77/77 76/76/76 78/78/78
f 79/79/79 75/75/75 73/73/73
f 79/79/79 76/76/76 75/75/75
f 74/74/74 79/79/79 73/73/73
f 80/80/80 74/74/74 60/60/60
f 80/80/80 60/60/60 65/65/65
f 76/76/76 81/81/81 78/78/78
f 76/76/76 79/79/79 81/81/81
f 79/79/79 74/74/74 82/82/82
f 81/81/81 79/79/79 82/82/82
f 82/82/82 74/74/74 80/80/80
f 78/78/78 81/81/81 83/83/83
f 83/83/83 81/81/81 82/82/82
f 78/78/78 83/83/83 84/84/84
f 85/85/85 83/83/83 82/82/82
f 82/82/82 80/80/80 85/85/85
f 86/86/86 84/84/84 83/83/83
f 86/86/86 83/83/83 85/85/85
f 87/87/87 84/84/84 86/86/86
f 87/87/87 86/86/86 88/88/88
f 85/85/85 88/88/88 86/86/86
f 89/89/89 88/88/88 85/85/85
f 90/90/90 88/88/88 89/89/89
f 90/90/90 89/89/89 91/91/91
f 92/92/92 89/89/89 85/85/85
f 80/80/80 92/92/92 85/85/85
f 89/89/89 92/92/92 91/91/91
f 92/92/92 80/80/80 93/93/93
f 80/80/80 65/65/65 93/93/93
f 91/91/91 92/92/92 94/94/94
f 92/92/92 93/93/93 94/94/94
f 93/93/93 65/65/65 94/94/94
f 91/91/91 94/94/94 95/95/95
f 65/65/65 67/67/67 94/94/94
f 96/96/96 95/95/95 94/94/94
f 96/96/96 94/94/94 67/67/67
