g Circle003
v 0.180336311 -0.0132692289 0.0895874873
v 0.197437719 -0.0132692326 0.0599669814
v 0.188887015 -0.020359261 0.0747772306
v 0.176791295 0.00383217633 0.09572763
v 0.180336311 0.0209335815 0.0895874873
v 0.188887015 0.0280236118 0.0747772306
v 0.197437719 0.0209335778 0.0599669777
v 0.200982735 0.00383217237 0.0538268313
v 0.188777462 -0.0132692326 0.0549669825
v 0.171676055 -0.0132692289 0.0845874846
v 0.180226758 -0.020359261 0.0697772354
v 0.168131039 0.00383217679 0.0907276347
v 0.171676055 0.0209335815 0.0845874846
v 0.180226758 0.0280236118 0.0697772354
v 0.188777462 0.0209335797 0.0549669825
v 0.192322478 0.00383217307 0.048826836
v 0.171676055 -0.0132692289 0.0845874846
v 0.188887015 -0.020359261 0.0747772306
v 0.180226758 -0.020359261 0.0697772354
v 0.180336311 -0.0132692289 0.0895874873
v 0.168131039 0.00383217679 0.0907276347
v 0.176791295 0.00383217633 0.09572763
v 0.197437719 -0.0132692326 0.0599669814
v 0.180226758 -0.020359261 0.0697772354
v 0.188887015 -0.020359261 0.0747772306
v 0.188777462 -0.0132692326 0.0549669825
v 0.200982735 0.00383217237 0.0538268313
v 0.192322478 0.00383217307 0.048826836
v 0.171676055 0.0209335815 0.0845874846
v 0.176791295 0.00383217633 0.09572763
v 0.168131039 0.00383217679 0.0907276347
v 0.180336311 0.0209335815 0.0895874873
v 0.180226758 0.0280236118 0.0697772354
v 0.188887015 0.0280236118 0.0747772306
v 0.188777462 0.0209335797 0.0549669825
v 0.188887015 0.0280236118 0.0747772306
v 0.180226758 0.0280236118 0.0697772354
v 0.197437719 0.0209335778 0.0599669777
v 0.192322478 0.00383217307 0.048826836
v 0.200982735 0.00383217237 0.0538268313
vn 0.866025507 0 0.499999851
vn 0.866025507 0 0.499999911
vn 0.866025507 0 0.499999851
vn 0.866025507 0 0.499999911
vn 0.866025507 0 0.499999851
vn 0.866025507 0 0.499999911
vn 0.866025448 0 0.499999911
vn 0.866025448 0 0.499999911
vn -0.866025507 0 -0.499999911
vn -0.866025507 0 -0.499999911
vn -0.866025507 0 -0.499999911
vn -0.866025507 0 -0.499999911
vn -0.866025507 0 -0.499999911
vn -0.866025507 0 -0.499999911
vn -0.866025507 0 -0.499999911
vn -0.866025507 0 -0.499999911
vn -0.353553355 -0.70710665 0.612372458
vn -0.19148922 -0.923757315 0.331669062
vn -0.191489205 -0.923757315 0.331669033
vn -0.353553355 -0.70710665 0.612372458
vn -0.461878598 -0.382978231 0.799997389
vn -0.461878568 -0.382978201 0.799997389
vn 0.353553265 -0.707106829 -0.612372458
vn 0.191489041 -0.923757315 -0.331668913
vn 0.191488996 -0.923757315 -0.331668913
vn 0.353553265 -0.707106829 -0.612372458
vn 0.461878508 -0.382978529 -0.79999733
vn 0.461878508 -0.382978439 -0.79999733
vn -0.353553265 0.707106829 0.612372458
vn -0.461878508 0.38297835 0.799997389
vn -0.461878568 0.38297838 0.799997389
vn -0.353553265 0.707106769 0.612372458
vn -0.191489041 0.923757315 0.331668943
vn -0.191489041 0.923757315 0.331668943
vn 0.353553355 0.70710665 -0.612372458
vn 0.19148922 0.923757315 -0.331669062
vn 0.19148922 0.923757315 -0.331669062
vn 0.353553355 0.707106709 -0.612372458
vn 0.461878568 0.382978231 -0.799997389
vn 0.461878568 0.382978201 -0.799997389
g Circle003_0
f 3/3/3 2/2/2 1/1/1
f 1/1/1 2/2/2 4/4/4
f 4/4/4 2/2/2 5/5/5
f 5/5/5 2/2/2 6/6/6
f 6/6/6 2/2/2 7/7/7
f 7/7/7 2/2/2 8/8/8
f 11/11/11 10/10/10 9/9/9
f 10/10/10 12/12/12 9/9/9
f 12/12/12 13/13/13 9/9/9
f 13/13/13 14/14/14 9/9/9
f 14/14/14 15/15/15 9/9/9
f 15/15/15 16/16/16 9/9/9
f 19/19/19 18/18/18 17/17/17
f 20/20/20 17/17/17 18/18/18
f 17/17/17 20/20/20 21/21/21
f 22/22/22 21/21/21 20/20/20
f 25/25/25 24/24/24 23/23/23
f 26/26/26 23/23/23 24/24/24
f 23/23/23 26/26/26 27/27/27
f 28/28/28 27/27/27 26/26/26
f 31/31/31 30/30/30 29/29/29
f 32/32/32 29/29/29 30/30/30
f 29/29/29 32/32/32 33/33/33
f 34/34/34 33/33/33 32/32/32
f 37/37/37 36/36/36 35/35/35
f 38/38/38 35/35/35 36/36/36
f 35/35/35 38/38/38 39/39/39
f 40/40/40 39/39/39 38/38/38
