g XiaoChouNv_Weapon002
v -3.32901692 6.21046972 -0.294091523
v -3.35373807 4.56950951 -0.291146964
v -3.32901692 4.60359669 -0.294091523
v -3.35260701 6.24608755 -0.290897429
v -3.39254999 4.55285692 -0.294091523
v -3.39254999 6.26119328 -0.294091523
v -4.43366528 4.55285692 -0.294091523
v -4.43366528 6.26119328 -0.294091523
v -4.47360849 6.24608755 -0.290897429
v -4.47247696 4.56950951 -0.291146964
v -4.4971981 4.60359669 -0.294091523
v -4.4971981 6.21046972 -0.294091523
v -4.42035627 4.56555033 -0.260636508
v -3.39254999 4.55285692 -0.294091523
v -4.43366528 4.55285692 -0.294091523
v -4.47247696 4.56950951 -0.291146964
v -3.40585876 4.56555033 -0.260636508
v -3.35373807 4.56950951 -0.291146964
v -3.36786222 4.58182001 -0.25769192
v -3.40585876 6.24851656 -0.260636508
v -3.34395623 4.61552477 -0.260636508
v -3.32901692 4.60359669 -0.294091523
v -3.32901692 6.21046972 -0.294091523
v -3.36673093 6.23379374 -0.257442385
v -3.34395623 6.19854212 -0.260636508
v -3.35260701 6.24608755 -0.290897429
v -3.39254999 6.26119328 -0.294091523
v -4.42035627 6.24851656 -0.260636508
v -4.43366528 6.26119328 -0.294091523
v -4.47360849 6.24608755 -0.290897429
v -4.45835304 4.58182001 -0.25769192
v -4.45948458 6.23379374 -0.257442385
v -4.48225927 6.19854212 -0.260636508
v -4.4971981 6.21046972 -0.294091523
v -4.4971981 4.60359669 -0.294091523
v -4.48225927 4.61552477 -0.260636508
vt 0.331800014 0.969299972
vt 0.337900013 0.559899986
vt 0.331800014 0.568400025
vt 0.337900013 0.978200018
vt 0.3477 0.556100011
vt 0.3477 0.982299984
vt 0.607500017 0.556100011
vt 0.607500017 0.982299984
vt 0.617299974 0.978900015
vt 0.617299974 0.560599983
vt 0.623399973 0.569100022
vt 0.623399973 0.970000029
vt 0.0348999985 0.560500026
vt 0.290600002 0.551699996
vt 0.0284000002 0.551699996
vt 0.0166999996 0.559899986
vt 0.288199991 0.560500026
vt 0.302399993 0.557200015
vt 0.297699988 0.563499987
vt 0.288199991 0.980400026
vt 0.303600013 0.571699977
vt 0.312599987 0.567600012
vt 0.312599987 0.970399976
vt 0.297699988 0.975099981
vt 0.303600013 0.966499984
vt 0.306699991 0.98119998
vt 0.294699997 0.989300013
vt 0.0348999985 0.980400026
vt 0.0324999988 0.989300013
vt 0.0203000009 0.983900011
vt 0.0252999999 0.566100001
vt 0.0252999999 0.977699995
vt 0.0195000004 0.969200015
vt 0.0104 0.97329998
vt 0.0104 0.5704
vt 0.0195000004 0.574400008
vn -0.126048014 0.000118809774 -0.992024183
vn 0.0285461377 6.50172587E-05 -0.999592483
vn -0.126047999 0.000118809767 -0.992024183
vn 0.0301397834 6.44533648E-05 -0.999545634
vn 0.0331411511 2.02715764E-05 -0.999450624
vn 0.0338434875 2.07011763E-05 -0.999427199
vn -0.0331410207 2.0268626E-05 -0.999450624
vn -0.0338433944 2.06981895E-05 -0.999427199
vn -0.0301396605 6.44507454E-05 -0.999545634
vn -0.0285457224 6.50149013E-05 -0.999592483
vn 0.126048803 0.000118821736 -0.992024064
vn 0.126048803 0.000118821721 -0.992024064
vn -0.0739884153 -0.593547881 0.801390409
vn 0.191706151 -0.890100718 0.413484514
vn -0.191705689 -0.890101254 0.413483649
vn -0.557881594 -0.67225647 0.486661375
vn 0.0739886314 -0.593547821 0.801390409
vn 0.557881534 -0.672254086 0.486664832
vn 0.327739328 -0.443217456 0.834353209
vn 0.0615432262 0.593463004 0.802504838
vn 0.614952683 -0.147089496 0.774724364
vn 0.840004981 -0.272940338 0.468929797
vn 0.847805202 0.25420934 0.465407282
vn 0.330179423 0.450590432 0.829427361
vn 0.616575062 0.134625629 0.77570039
vn 0.558708191 0.671341479 0.486976206
vn 0.169722989 0.897609055 0.406807184
vn -0.0615427122 0.593462884 0.802505016
vn -0.169721916 0.897609413 0.406806856
vn -0.558709085 0.671341836 0.486974776
vn -0.327740878 -0.443218857 0.834351778
vn -0.330180347 0.450591028 0.829426706
vn -0.616577804 0.134625167 0.775698245
vn -0.847807884 0.254209191 0.465402484
vn -0.840007722 -0.272941977 0.468923897
vn -0.614955604 -0.147090062 0.77472198
g XiaoChouNv_Weapon002_0
f 3/3/3 2/2/2 1/1/1
f 2/2/2 4/4/4 1/1/1
f 2/2/2 5/5/5 4/4/4
f 5/5/5 6/6/6 4/4/4
f 5/5/5 7/7/7 6/6/6
f 7/7/7 8/8/8 6/6/6
f 9/9/9 8/8/8 7/7/7
f 10/10/10 9/9/9 7/7/7
f 10/10/10 11/11/11 9/9/9
f 11/11/11 12/12/12 9/9/9
f 15/15/15 14/14/14 13/13/13
f 16/16/16 15/15/15 13/13/13
f 14/14/14 17/17/17 13/13/13
f 17/17/17 14/14/14 18/18/18
f 19/19/19 17/17/17 18/18/18
f 17/17/17 20/20/20 13/13/13
f 17/17/17 19/19/19 20/20/20
f 19/19/19 18/18/18 21/21/21
f 18/18/18 22/22/22 21/21/21
f 22/22/22 23/23/23 21/21/21
f 19/19/19 21/21/21 24/24/24
f 19/19/19 24/24/24 20/20/20
f 23/23/23 25/25/25 21/21/21
f 21/21/21 25/25/25 24/24/24
f 25/25/25 23/23/23 26/26/26
f 24/24/24 25/25/25 26/26/26
f 24/24/24 26/26/26 20/20/20
f 26/26/26 27/27/27 20/20/20
f 20/20/20 27/27/27 28/28/28
f 20/20/20 28/28/28 13/13/13
f 27/27/27 29/29/29 28/28/28
f 28/28/28 29/29/29 30/30/30
f 31/31/31 13/13/13 28/28/28
f 31/31/31 16/16/16 13/13/13
f 32/32/32 28/28/28 30/30/30
f 32/32/32 31/31/31 28/28/28
f 32/32/32 30/30/30 33/33/33
f 32/32/32 33/33/33 31/31/31
f 30/30/30 34/34/34 33/33/33
f 34/34/34 35/35/35 33/33/33
f 36/36/36 35/35/35 16/16/16
f 31/31/31 36/36/36 16/16/16
f 33/33/33 36/36/36 31/31/31
f 35/35/35 36/36/36 33/33/33
