g Circle005
v 0.104473092 -0.0182914548 0.0195384528
v 0.104473092 -0.0182914529 -0.0146643575
v 0.104473092 -0.0253814831 0.00243704719
v 0.104473092 -0.00119004876 0.0266284849
v 0.104473092 0.0159113575 0.0195384547
v 0.104473092 0.0230013896 0.00243704859
v 0.104473092 0.0159113575 -0.0146643575
v 0.104473092 -0.00119004666 -0.0217543878
v 0.0944730937 -0.018291451 -0.0146643575
v 0.0944730937 -0.018291451 0.0195384528
v 0.0944730937 -0.0253814813 0.00243704719
v 0.0944730937 -0.00119004748 0.0266284849
v 0.0944730937 0.0159113593 0.0195384547
v 0.0944730937 0.0230013914 0.00243704859
v 0.0944730937 0.0159113612 -0.0146643575
v 0.0944730937 -0.00119004538 -0.0217543878
v 0.0944730937 -0.018291451 0.0195384528
v 0.104473092 -0.0253814831 0.00243704719
v 0.0944730937 -0.0253814813 0.00243704719
v 0.104473092 -0.0182914548 0.0195384528
v 0.0944730937 -0.00119004748 0.0266284849
v 0.104473092 -0.00119004876 0.0266284849
v 0.104473092 -0.0182914529 -0.0146643575
v 0.0944730937 -0.0253814813 0.00243704719
v 0.104473092 -0.0253814831 0.00243704719
v 0.0944730937 -0.018291451 -0.0146643575
v 0.104473092 -0.00119004666 -0.0217543878
v 0.0944730937 -0.00119004538 -0.0217543878
v 0.0944730937 0.0159113593 0.0195384547
v 0.104473092 -0.00119004876 0.0266284849
v 0.0944730937 -0.00119004748 0.0266284849
v 0.104473092 0.0159113575 0.0195384547
v 0.0944730937 0.0230013914 0.00243704859
v 0.104473092 0.0230013896 0.00243704859
v 0.0944730937 0.0159113612 -0.0146643575
v 0.104473092 0.0230013896 0.00243704859
v 0.0944730937 0.0230013914 0.00243704859
v 0.104473092 0.0159113575 -0.0146643575
v 0.0944730937 -0.00119004538 -0.0217543878
v 0.104473092 -0.00119004666 -0.0217543878
vn 1 -1.20088743E-07 0
vn 1 -1.29512713E-07 0
vn 1 0 0
vn 1 -1.34115282E-07 0
vn 1 -1.29512401E-07 0
vn 1 -1.30713744E-07 0
vn 1 -1.50545191E-07 0
vn 1 -1.50545191E-07 0
vn -1 1.33118363E-07 0
vn -1 1.33118363E-07 0
vn -1 1.33118363E-07 0
vn -1 1.33118363E-07 0
vn -1 1.33118363E-07 0
vn -1 1.33118363E-07 0
vn -1 1.33118363E-07 0
vn -1 1.33118363E-07 0
vn -0 -0.707106769 0.707106769
vn -1.22969055E-07 -0.923757315 0.38297829
vn -1.22969055E-07 -0.923757315 0.382978231
vn -0 -0.707106769 0.707106769
vn -0 -0.38297835 0.923757315
vn -0 -0.38297832 0.923757315
vn -0 -0.707106769 -0.707106769
vn -1.22969055E-07 -0.923757315 -0.38297838
vn -1.22969055E-07 -0.923757315 -0.38297832
vn -0 -0.707106769 -0.707106769
vn -0 -0.38297838 -0.923757315
vn -0 -0.38297832 -0.923757315
vn -0 0.707106769 0.707106829
vn -0 0.382978261 0.923757315
vn -0 0.382978231 0.923757315
vn -0 0.707106769 0.707106829
vn 1.22969055E-07 0.923757315 0.38297841
vn 1.22969055E-07 0.923757315 0.38297841
vn -0 0.707106769 -0.707106769
vn 1.22969055E-07 0.923757315 -0.38297829
vn 1.22969055E-07 0.923757315 -0.38297829
vn -0 0.707106829 -0.707106769
vn -0 0.38297838 -0.923757315
vn -0 0.38297832 -0.923757315
g Circle005_0
f 3/3/3 2/2/2 1/1/1
f 1/1/1 2/2/2 4/4/4
f 4/4/4 2/2/2 5/5/5
f 5/5/5 2/2/2 6/6/6
f 6/6/6 2/2/2 7/7/7
f 7/7/7 2/2/2 8/8/8
f 11/11/11 10/10/10 9/9/9
f 10/10/10 12/12/12 9/9/9
f 12/12/12 13/13/13 9/9/9
f 13/13/13 14/14/14 9/9/9
f 14/14/14 15/15/15 9/9/9
f 15/15/15 16/16/16 9/9/9
f 19/19/19 18/18/18 17/17/17
f 20/20/20 17/17/17 18/18/18
f 17/17/17 20/20/20 21/21/21
f 22/22/22 21/21/21 20/20/20
f 25/25/25 24/24/24 23/23/23
f 26/26/26 23/23/23 24/24/24
f 23/23/23 26/26/26 27/27/27
f 28/28/28 27/27/27 26/26/26
f 31/31/31 30/30/30 29/29/29
f 32/32/32 29/29/29 30/30/30
f 29/29/29 32/32/32 33/33/33
f 34/34/34 33/33/33 32/32/32
f 37/37/37 36/36/36 35/35/35
f 38/38/38 35/35/35 36/36/36
f 35/35/35 38/38/38 39/39/39
f 40/40/40 39/39/39 38/38/38
