g Circle002
v 0.265313327 -0.0208607167 -0.00479660975
v 0.265313327 -0.0208607148 -0.0455142409
v 0.265313298 -0.029301228 -0.0251554251
v 0.265313327 -0.000501902192 0.00364390365
v 0.265313327 0.0198569149 -0.00479660742
v 0.265313327 0.028297428 -0.0251554213
v 0.265313327 0.0198569167 -0.0455142409
v 0.265313327 -0.000501899689 -0.053954754
v 0.255313307 -0.0208607092 -0.0455142409
v 0.255313307 -0.020860713 -0.00479660975
v 0.255313307 -0.0293012224 -0.0251554251
v 0.255313307 -0.000501898176 0.00364390365
v 0.255313307 0.0198569186 -0.00479660742
v 0.255313337 0.0282974336 -0.0251554213
v 0.255313307 0.0198569205 -0.0455142409
v 0.255313307 -0.000501895673 -0.053954754
v 0.255313307 -0.020860713 -0.00479660975
v 0.265313298 -0.029301228 -0.0251554251
v 0.255313307 -0.0293012224 -0.0251554251
v 0.265313327 -0.0208607167 -0.00479660975
v 0.255313307 -0.000501898176 0.00364390365
v 0.265313327 -0.000501902192 0.00364390365
v 0.265313327 -0.0208607148 -0.0455142409
v 0.255313307 -0.0293012224 -0.0251554251
v 0.265313298 -0.029301228 -0.0251554251
v 0.255313307 -0.0208607092 -0.0455142409
v 0.265313327 -0.000501899689 -0.053954754
v 0.255313307 -0.000501895673 -0.053954754
v 0.255313307 0.0198569186 -0.00479660742
v 0.265313327 -0.000501902192 0.00364390365
v 0.255313307 -0.000501898176 0.00364390365
v 0.265313327 0.0198569149 -0.00479660742
v 0.255313337 0.0282974336 -0.0251554213
v 0.265313327 0.028297428 -0.0251554213
v 0.255313307 0.0198569205 -0.0455142409
v 0.265313327 0.028297428 -0.0251554213
v 0.255313337 0.0282974336 -0.0251554213
v 0.265313327 0.0198569167 -0.0455142409
v 0.255313307 -0.000501895673 -0.053954754
v 0.265313327 -0.000501899689 -0.053954754
vn 1 -4.0298994E-07 0
vn 1 -4.0298994E-07 0
vn 1 -4.0298994E-07 0
vn 1 -4.0298994E-07 0
vn 1 -4.0298994E-07 0
vn 1 -4.0298994E-07 0
vn 1 -4.0298994E-07 0
vn 1 -4.02989912E-07 0
vn -1 4.0298994E-07 0
vn -1 4.0298994E-07 0
vn -1 4.0298994E-07 0
vn -1 4.0298994E-07 0
vn -1 4.0298994E-07 0
vn -1 4.0298994E-07 0
vn -1 4.0298994E-07 0
vn -1 4.0298994E-07 0
vn -2.84956911E-07 -0.707106829 0.707106769
vn -3.72264907E-07 -0.923757315 0.38297829
vn -3.72264907E-07 -0.923757315 0.38297829
vn -2.84956911E-07 -0.707106829 0.707106769
vn -1.54336448E-07 -0.38297841 0.923757315
vn -1.54336405E-07 -0.38297832 0.923757315
vn -2.84956911E-07 -0.707106769 -0.707106829
vn -3.72264907E-07 -0.923757315 -0.38297832
vn -3.72264907E-07 -0.923757315 -0.38297832
vn -2.84956883E-07 -0.707106769 -0.707106769
vn -1.54336405E-07 -0.38297832 -0.923757315
vn -1.54336405E-07 -0.38297832 -0.923757315
vn 2.84956911E-07 0.707106769 0.707106829
vn 1.54336377E-07 0.382978261 0.923757315
vn 1.54336377E-07 0.382978261 0.923757315
vn 2.84956911E-07 0.707106769 0.707106829
vn 3.72264907E-07 0.923757315 0.38297841
vn 3.72264907E-07 0.923757315 0.38297832
vn 2.84956883E-07 0.707106769 -0.707106769
vn 3.72264907E-07 0.923757315 -0.382978261
vn 3.72264907E-07 0.923757315 -0.382978261
vn 2.84956911E-07 0.707106829 -0.707106769
vn 1.54336419E-07 0.38297838 -0.923757315
vn 1.54336419E-07 0.38297832 -0.923757315
g Circle002_0
f 3/3/3 2/2/2 1/1/1
f 1/1/1 2/2/2 4/4/4
f 4/4/4 2/2/2 5/5/5
f 5/5/5 2/2/2 6/6/6
f 6/6/6 2/2/2 7/7/7
f 2/2/2 8/8/8 7/7/7
f 11/11/11 10/10/10 9/9/9
f 10/10/10 12/12/12 9/9/9
f 12/12/12 13/13/13 9/9/9
f 13/13/13 14/14/14 9/9/9
f 14/14/14 15/15/15 9/9/9
f 9/9/9 15/15/15 16/16/16
f 19/19/19 18/18/18 17/17/17
f 20/20/20 17/17/17 18/18/18
f 17/17/17 20/20/20 21/21/21
f 22/22/22 21/21/21 20/20/20
f 25/25/25 24/24/24 23/23/23
f 26/26/26 23/23/23 24/24/24
f 23/23/23 26/26/26 27/27/27
f 28/28/28 27/27/27 26/26/26
f 31/31/31 30/30/30 29/29/29
f 32/32/32 29/29/29 30/30/30
f 29/29/29 32/32/32 33/33/33
f 34/34/34 33/33/33 32/32/32
f 37/37/37 36/36/36 35/35/35
f 38/38/38 35/35/35 36/36/36
f 35/35/35 38/38/38 39/39/39
f 40/40/40 39/39/39 38/38/38
