g XiaoChouNv_01
v 0.114088267 -0.49496001 4.38512564
v 0.0945680887 -0.483367413 4.35291433
v 0.0978018716 -0.516234696 4.38118124
v 0.117541417 -0.500549555 4.39344597
v 0.117141701 -0.502611041 4.39765739
v 0.0993465111 -0.527276695 4.41351748
v 0.113408655 -0.514321148 4.41550875
v 0.105993375 -0.521583319 4.42515421
v 0.0769991502 -0.535470426 4.43364096
v 0.094006069 -0.527592361 4.43311501
v 0.0763076842 -0.533972561 4.43773079
v 0.0675341412 -0.535829484 4.4376688
v 0.0498888865 -0.5367046 4.43384647
v 0.068251811 -0.544219851 4.39766741
v 0.0231146049 -0.541452587 4.41488934
v 0.0303153321 -0.537750363 4.42369843
v 0.0221471041 -0.537531972 4.41763496
v 3.0507139E-17 -0.547902346 4.38259125
v 7.95801152E-17 -0.534600139 4.39561129
v -0.0221471041 -0.537531972 4.41763496
v 0.0603779666 -0.518313468 4.34384441
v 0.0346478857 -0.540578485 4.36805439
v -0.0231146049 -0.541452587 4.41488934
v -0.0303153321 -0.537750363 4.42369843
v -0.0498888865 -0.5367046 4.43384647
v -0.0769991502 -0.535470426 4.43364096
v -0.0675341412 -0.535829484 4.4376688
v -0.0763076842 -0.533972561 4.43773079
v -0.094006069 -0.527592361 4.43311501
v -0.105993375 -0.521583319 4.42515421
v -0.0993465111 -0.527276695 4.41351748
v -0.113408655 -0.514321148 4.41550875
v -0.117141701 -0.502611041 4.39765739
v -0.068251811 -0.544219851 4.39766741
v -0.0978018716 -0.516234696 4.38118124
v -0.117541417 -0.500549555 4.39344597
v -0.114088267 -0.49496001 4.38512564
v -0.0945680887 -0.483367413 4.35291433
v -0.0346478857 -0.540578485 4.36805439
v -0.0603779666 -0.518313468 4.34384441
v 1.21449396E-17 -0.540506482 4.34132242
v -0.0521629713 -0.500907898 4.3231349
v -0.0646336153 -0.477360249 4.3276186
v -0.0360749774 -0.474175602 4.30102015
v -0.024050938 -0.498077691 4.29696512
v -1.00385534E-16 -0.466932327 4.24737883
v -0.0264187194 -0.527566195 4.32675505
v -3.40071685E-17 -0.509094656 4.2910099
v 0.0264187194 -0.527566195 4.32675505
v 0.024050938 -0.498077691 4.29696512
v 0.0360746048 -0.474175543 4.30101967
v 0.0521629713 -0.500907898 4.3231349
v 0.0646336153 -0.477360249 4.3276186
vt 0.519616783 0.728232622
vt 0.515370786 0.718859196
vt 0.512846649 0.729575753
vt 0.519876778 0.731113791
vt 0.519705117 0.732386231
vt 0.513073742 0.738121271
vt 0.518062532 0.737692595
vt 0.515877783 0.740988255
vt 0.507366121 0.743715286
vt 0.512349546 0.743768573
vt 0.507483542 0.745307565
vt 0.505038798 0.74587357
vt 0.500533104 0.744450927
vt 0.504106343 0.735326529
vt 0.493633747 0.740063787
vt 0.495485783 0.742489815
vt 0.493220687 0.741136193
vt 0.487184048 0.732746005
vt 0.487184048 0.737249374
vt 0.481253028 0.741136193
vt 0.502837837 0.721027017
vt 0.495788455 0.728582859
vt 0.480816603 0.740063787
vt 0.478951693 0.742489815
vt 0.473888636 0.744450927
vt 0.466898441 0.743715286
vt 0.469332576 0.74587357
vt 0.466780305 0.745307565
vt 0.461838245 0.743768573
vt 0.458334088 0.740988255
vt 0.461175561 0.738121271
vt 0.456292629 0.737692595
vt 0.454658628 0.732386231
vt 0.470197082 0.735326529
vt 0.461435795 0.729575753
vt 0.454479814 0.731113791
vt 0.454691648 0.728232622
vt 0.458907366 0.718859196
vt 0.478544116 0.728582859
vt 0.471518755 0.721027017
vt 0.487184048 0.722522736
vt 0.472468615 0.713900924
vt 0.465959668 0.710905671
vt 0.474021196 0.703603387
vt 0.480208874 0.707486629
vt 0.487184167 0.691944838
vt 0.480707526 0.718070388
vt 0.487184167 0.708111286
vt 0.493679643 0.718070388
vt 0.494235277 0.707486629
vt 0.500468969 0.703603387
vt 0.502020299 0.713900924
vt 0.508537352 0.710905671
vn 0.697110116 -0.426840544 -0.57605952
vn 0.646989644 -0.426875889 -0.631807923
vn 0.602169812 -0.646098197 -0.468986809
vn 0.709474683 -0.52692914 -0.467965066
vn 0.691087186 -0.671121299 -0.268318355
vn 0.557329834 -0.823219955 -0.108130947
vn 0.674451888 -0.692864478 -0.255055845
vn 0.517284036 -0.852535546 0.0748353228
vn 0.225804269 -0.956434667 0.185054675
vn 0.454849988 -0.883360326 0.113075182
vn 0.323020339 -0.869713008 0.373171777
vn 0.0545582995 -0.997738242 0.0392647721
vn 0.042028591 -0.982080579 0.183715373
vn 0.254971147 -0.95697844 -0.138499215
vn -0.133666113 -0.968782127 0.208792776
vn -0.248957321 -0.803275168 0.541081548
vn -0.616552889 -0.548283339 0.565020382
vn 1.83927327E-07 -0.999662638 0.0259724259
vn 1.43007048E-06 -0.699404895 0.714725673
vn 0.616553068 -0.548281014 0.56502223
vn 0.514990151 -0.659428 -0.547667742
vn 0.20647645 -0.948131025 -0.241692334
vn 0.133666858 -0.968782127 0.208792612
vn 0.248954639 -0.803270757 0.541089356
vn -0.0420285203 -0.982079506 0.183720976
vn -0.225800335 -0.956436038 0.185052335
vn -0.054556638 -0.9977386 0.0392590277
vn -0.322979093 -0.869723976 0.37318185
vn -0.454859585 -0.8833552 0.113076687
vn -0.517288029 -0.852533042 0.0748368576
vn -0.557335138 -0.823216736 -0.108128853
vn -0.674451172 -0.692866564 -0.255052179
vn -0.691090941 -0.671118498 -0.268316031
vn -0.25497213 -0.956977904 -0.138500631
vn -0.602172792 -0.646098077 -0.468983263
vn -0.709473491 -0.526931524 -0.467964202
vn -0.697104752 -0.426847577 -0.576060832
vn -0.646992922 -0.426877588 -0.631803572
vn -0.206477538 -0.948131025 -0.241691232
vn -0.514992058 -0.659427941 -0.547665894
vn 5.65567973E-07 -0.932489455 -0.361197114
vn -0.572746217 -0.461873412 -0.677225709
vn -0.629309833 -0.189783409 -0.753625512
vn -0.723581672 -0.25561288 -0.641164303
vn -0.583431304 -0.494269669 -0.644441903
vn -5.96148675E-06 -0.621282995 -0.783586264
vn -0.367813796 -0.756761134 -0.540393949
vn -5.60711669E-07 -0.743937433 -0.668249309
vn 0.367814541 -0.756760716 -0.540393949
vn 0.583427906 -0.494269997 -0.644444644
vn 0.723580241 -0.255611092 -0.641166687
vn 0.57274574 -0.461872339 -0.677226782
vn 0.62930733 -0.18978326 -0.753627598
g XiaoChouNv_01_0
f 3/3/3 2/2/2 1/1/1
f 4/4/4 3/3/3 1/1/1
f 5/5/5 3/3/3 4/4/4
f 5/5/5 6/6/6 3/3/3
f 7/7/7 6/6/6 5/5/5
f 7/7/7 8/8/8 6/6/6
f 9/9/9 6/6/6 8/8/8
f 10/10/10 9/9/9 8/8/8
f 11/11/11 9/9/9 10/10/10
f 12/12/12 9/9/9 11/11/11
f 12/12/12 13/13/13 9/9/9
f 3/3/3 6/6/6 14/14/14
f 14/14/14 6/6/6 9/9/9
f 13/13/13 15/15/15 9/9/9
f 15/15/15 14/14/14 9/9/9
f 13/13/13 16/16/16 15/15/15
f 17/17/17 15/15/15 16/16/16
f 18/18/18 15/15/15 17/17/17
f 19/19/19 18/18/18 17/17/17
f 18/18/18 19/19/19 20/20/20
f 3/3/3 14/14/14 21/21/21
f 21/21/21 2/2/2 3/3/3
f 14/14/14 15/15/15 22/22/22
f 22/22/22 15/15/15 18/18/18
f 22/22/22 21/21/21 14/14/14
f 23/23/23 18/18/18 20/20/20
f 23/23/23 20/20/20 24/24/24
f 23/23/23 24/24/24 25/25/25
f 23/23/23 25/25/25 26/26/26
f 25/25/25 27/27/27 26/26/26
f 26/26/26 27/27/27 28/28/28
f 26/26/26 28/28/28 29/29/29
f 26/26/26 29/29/29 30/30/30
f 31/31/31 26/26/26 30/30/30
f 31/31/31 30/30/30 32/32/32
f 31/31/31 32/32/32 33/33/33
f 34/34/34 23/23/23 26/26/26
f 31/31/31 34/34/34 26/26/26
f 35/35/35 31/31/31 33/33/33
f 31/31/31 35/35/35 34/34/34
f 35/35/35 33/33/33 36/36/36
f 35/35/35 36/36/36 37/37/37
f 38/38/38 35/35/35 37/37/37
f 23/23/23 34/34/34 39/39/39
f 23/23/23 39/39/39 18/18/18
f 34/34/34 35/35/35 40/40/40
f 38/38/38 40/40/40 35/35/35
f 40/40/40 39/39/39 34/34/34
f 39/39/39 41/41/41 18/18/18
f 41/41/41 22/22/22 18/18/18
f 40/40/40 38/38/38 42/42/42
f 42/42/42 38/38/38 43/43/43
f 43/43/43 44/44/44 42/42/42
f 44/44/44 45/45/45 42/42/42
f 42/42/42 45/45/45 40/40/40
f 46/46/46 45/45/45 44/44/44
f 40/40/40 47/47/47 39/39/39
f 45/45/45 47/47/47 40/40/40
f 47/47/47 41/41/41 39/39/39
f 48/48/48 47/47/47 45/45/45
f 45/45/45 46/46/46 48/48/48
f 41/41/41 47/47/47 48/48/48
f 41/41/41 49/49/49 22/22/22
f 49/49/49 41/41/41 48/48/48
f 49/49/49 21/21/21 22/22/22
f 46/46/46 50/50/50 48/48/48
f 49/49/49 48/48/48 50/50/50
f 49/49/49 50/50/50 21/21/21
f 50/50/50 46/46/46 51/51/51
f 50/50/50 52/52/52 21/21/21
f 50/50/50 51/51/51 52/52/52
f 2/2/2 21/21/21 52/52/52
f 51/51/51 53/53/53 52/52/52
f 2/2/2 52/52/52 53/53/53
