g Circle001
v 0.265313238 -0.0208607074 0.0455132276
v 0.265313238 -0.0208607055 0.00479559647
v 0.265313238 -0.0293012187 0.0251544137
v 0.265313238 -0.000501891715 0.0539537407
v 0.265313238 0.0198569261 0.0455132276
v 0.265313238 0.0282974374 0.0251544155
v 0.265313238 0.0198569279 0.0047955988
v 0.265313238 -0.000501889212 -0.0036449146
v 0.255313247 -0.0208607018 0.00479559647
v 0.255313247 -0.0208607055 0.0455132276
v 0.255313247 -0.0293012168 0.0251544137
v 0.255313247 -0.000501889968 0.0539537407
v 0.255313247 0.0198569261 0.0455132276
v 0.255313247 0.0282974411 0.0251544155
v 0.255313247 0.0198569298 0.0047955988
v 0.255313247 -0.000501887465 -0.0036449146
v 0.255313247 -0.0208607055 0.0455132276
v 0.265313238 -0.0293012187 0.0251544137
v 0.255313247 -0.0293012168 0.0251544137
v 0.265313238 -0.0208607074 0.0455132276
v 0.255313247 -0.000501889968 0.0539537407
v 0.265313238 -0.000501891715 0.0539537407
v 0.265313238 -0.0208607055 0.00479559647
v 0.255313247 -0.0293012168 0.0251544137
v 0.265313238 -0.0293012187 0.0251544137
v 0.255313247 -0.0208607018 0.00479559647
v 0.265313238 -0.000501889212 -0.0036449146
v 0.255313247 -0.000501887465 -0.0036449146
v 0.255313247 0.0198569261 0.0455132276
v 0.265313238 -0.000501891715 0.0539537407
v 0.255313247 -0.000501889968 0.0539537407
v 0.265313238 0.0198569261 0.0455132276
v 0.255313247 0.0282974411 0.0251544155
v 0.265313238 0.0282974374 0.0251544155
v 0.255313247 0.0198569298 0.0047955988
v 0.265313238 0.0282974374 0.0251544155
v 0.255313247 0.0282974411 0.0251544155
v 0.265313238 0.0198569279 0.0047955988
v 0.255313247 -0.000501887465 -0.0036449146
v 0.265313238 -0.000501889212 -0.0036449146
vn 1 -1.77705431E-07 0
vn 1 -1.77705431E-07 0
vn 1 -1.77705431E-07 0
vn 1 -1.77705431E-07 0
vn 1 -1.77705431E-07 0
vn 1 -1.77705431E-07 0
vn 1 -1.77705431E-07 0
vn 1 -1.77705431E-07 0
vn -1 1.77705431E-07 0
vn -1 1.77705431E-07 0
vn -1 1.77705431E-07 0
vn -1 1.77705431E-07 0
vn -1 1.77705431E-07 0
vn -1 1.77705431E-07 0
vn -1 1.77705431E-07 0
vn -1 1.77705431E-07 0
vn -1.25656712E-07 -0.707106829 0.707106769
vn -1.64156674E-07 -0.923757315 0.382978231
vn -1.64156674E-07 -0.923757315 0.382978231
vn -1.25656712E-07 -0.707106829 0.707106769
vn -0 -0.38297841 0.923757315
vn -0 -0.38297835 0.923757315
vn -1.25656697E-07 -0.707106769 -0.707106829
vn -1.64156674E-07 -0.923757315 -0.38297832
vn -1.64156674E-07 -0.923757315 -0.38297832
vn -1.25656697E-07 -0.707106769 -0.707106769
vn -0 -0.38297829 -0.923757315
vn -0 -0.38297829 -0.923757315
vn 1.25656697E-07 0.707106769 0.707106829
vn -0 0.382978231 0.923757315
vn -0 0.382978231 0.923757315
vn 1.25656697E-07 0.707106769 0.707106829
vn 1.64156674E-07 0.923757315 0.38297841
vn 1.64156688E-07 0.923757315 0.38297835
vn 1.25656697E-07 0.707106769 -0.707106769
vn 1.64156674E-07 0.923757315 -0.382978231
vn 1.64156674E-07 0.923757315 -0.382978231
vn 1.25656712E-07 0.707106829 -0.707106769
vn -0 0.38297838 -0.923757315
vn -0 0.38297832 -0.923757315
g Circle001_0
f 3/3/3 2/2/2 1/1/1
f 1/1/1 2/2/2 4/4/4
f 4/4/4 2/2/2 5/5/5
f 5/5/5 2/2/2 6/6/6
f 6/6/6 2/2/2 7/7/7
f 2/2/2 8/8/8 7/7/7
f 11/11/11 10/10/10 9/9/9
f 10/10/10 12/12/12 9/9/9
f 12/12/12 13/13/13 9/9/9
f 13/13/13 14/14/14 9/9/9
f 14/14/14 15/15/15 9/9/9
f 9/9/9 15/15/15 16/16/16
f 19/19/19 18/18/18 17/17/17
f 20/20/20 17/17/17 18/18/18
f 17/17/17 20/20/20 21/21/21
f 22/22/22 21/21/21 20/20/20
f 25/25/25 24/24/24 23/23/23
f 26/26/26 23/23/23 24/24/24
f 23/23/23 26/26/26 27/27/27
f 28/28/28 27/27/27 26/26/26
f 31/31/31 30/30/30 29/29/29
f 32/32/32 29/29/29 30/30/30
f 29/29/29 32/32/32 33/33/33
f 34/34/34 33/33/33 32/32/32
f 37/37/37 36/36/36 35/35/35
f 38/38/38 35/35/35 36/36/36
f 35/35/35 38/38/38 39/39/39
f 40/40/40 39/39/39 38/38/38
