g Circle004
v 0.201184273 -0.00954891462 -0.0458664186
v 0.186220363 -0.00954891834 -0.076622121
v 0.19370231 -0.0166389458 -0.0612442717
v 0.204286188 0.00755249104 -0.0394909531
v 0.201184273 0.0246538967 -0.0458664224
v 0.19370231 0.0317439251 -0.0612442754
v 0.186220363 0.0246538911 -0.0766221285
v 0.183118433 0.00755248591 -0.0829975978
v 0.177228197 -0.00954891834 -0.0722470731
v 0.192192107 -0.00954891369 -0.0414913632
v 0.18471016 -0.0166389458 -0.0568692163
v 0.195294037 0.00755249197 -0.0351158977
v 0.192192107 0.0246538967 -0.0414913706
v 0.18471016 0.0317439251 -0.0568692237
v 0.177228197 0.0246538911 -0.0722470731
v 0.174126282 0.00755248591 -0.0786225423
v 0.192192107 -0.00954891369 -0.0414913632
v 0.19370231 -0.0166389458 -0.0612442717
v 0.18471016 -0.0166389458 -0.0568692163
v 0.201184273 -0.00954891462 -0.0458664186
v 0.195294037 0.00755249197 -0.0351158977
v 0.204286188 0.00755249104 -0.0394909531
v 0.186220363 -0.00954891834 -0.076622121
v 0.18471016 -0.0166389458 -0.0568692163
v 0.19370231 -0.0166389458 -0.0612442717
v 0.177228197 -0.00954891834 -0.0722470731
v 0.183118433 0.00755248591 -0.0829975978
v 0.174126282 0.00755248591 -0.0786225423
v 0.192192107 0.0246538967 -0.0414913706
v 0.204286188 0.00755249104 -0.0394909531
v 0.195294037 0.00755249197 -0.0351158977
v 0.201184273 0.0246538967 -0.0458664224
v 0.18471016 0.0317439251 -0.0568692237
v 0.19370231 0.0317439251 -0.0612442754
v 0.177228197 0.0246538911 -0.0722470731
v 0.19370231 0.0317439251 -0.0612442754
v 0.18471016 0.0317439251 -0.0568692237
v 0.186220363 0.0246538911 -0.0766221285
v 0.174126282 0.00755248591 -0.0786225423
v 0.183118433 0.00755248591 -0.0829975978
vn 0.899215817 0 -0.437505454
vn 0.899215817 0 -0.437505454
vn 0.899215817 0 -0.437505454
vn 0.899215817 0 -0.437505454
vn 0.899215817 0 -0.437505454
vn 0.899215817 0 -0.437505454
vn 0.899215817 0 -0.437505364
vn 0.899215817 0 -0.437505364
vn -0.899215817 0 0.437505454
vn -0.899215817 0 0.437505454
vn -0.899215817 0 0.437505454
vn -0.899215817 0 0.437505454
vn -0.899215817 0 0.437505454
vn -0.899215817 0 0.437505454
vn -0.899215817 0 0.437505454
vn -0.899215817 0 0.437505454
vn 0.309363067 -0.70710665 0.635841668
vn 0.167555109 -0.923757315 0.34438026
vn 0.167555079 -0.923757315 0.34438026
vn 0.309363067 -0.70710665 0.635841668
vn 0.404148847 -0.382978231 0.830657244
vn 0.404148847 -0.382978171 0.830657244
vn -0.309363008 -0.707106888 -0.635841429
vn -0.167555064 -0.923757315 -0.344379991
vn -0.167555049 -0.923757315 -0.344379961
vn -0.309363008 -0.707106888 -0.635841429
vn -0.404148847 -0.382978529 -0.830657065
vn -0.404148787 -0.382978439 -0.830657065
vn 0.309363037 0.707106829 0.635841489
vn 0.404148817 0.38297841 0.830657125
vn 0.404148817 0.38297841 0.830657125
vn 0.309363037 0.707106829 0.635841489
vn 0.167555064 0.923757315 0.344380051
vn 0.167555064 0.923757315 0.344380051
vn -0.309363067 0.70710665 -0.635841668
vn -0.167555109 0.923757315 -0.34438026
vn -0.167555109 0.923757315 -0.34438026
vn -0.309363037 0.70710665 -0.635841608
vn -0.404148847 0.382978231 -0.830657244
vn -0.404148847 0.382978171 -0.830657244
g Circle004_0
f 3/3/3 2/2/2 1/1/1
f 1/1/1 2/2/2 4/4/4
f 4/4/4 2/2/2 5/5/5
f 5/5/5 2/2/2 6/6/6
f 6/6/6 2/2/2 7/7/7
f 7/7/7 2/2/2 8/8/8
f 11/11/11 10/10/10 9/9/9
f 10/10/10 12/12/12 9/9/9
f 12/12/12 13/13/13 9/9/9
f 13/13/13 14/14/14 9/9/9
f 14/14/14 15/15/15 9/9/9
f 15/15/15 16/16/16 9/9/9
f 19/19/19 18/18/18 17/17/17
f 20/20/20 17/17/17 18/18/18
f 17/17/17 20/20/20 21/21/21
f 22/22/22 21/21/21 20/20/20
f 25/25/25 24/24/24 23/23/23
f 26/26/26 23/23/23 24/24/24
f 23/23/23 26/26/26 27/27/27
f 28/28/28 27/27/27 26/26/26
f 31/31/31 30/30/30 29/29/29
f 32/32/32 29/29/29 30/30/30
f 29/29/29 32/32/32 33/33/33
f 34/34/34 33/33/33 32/32/32
f 37/37/37 36/36/36 35/35/35
f 38/38/38 35/35/35 36/36/36
f 35/35/35 38/38/38 39/39/39
f 40/40/40 39/39/39 38/38/38
