g huan_bowen
v 0.803632736 0.583873212 -5.60760463E-06
v 0.944726706 0.306960285 -5.64575203E-06
v 0.69438827 0.225620374 -3.47137438E-06
v 0.590681851 0.429155499 -3.43322745E-06
v 0.499449939 0.162281096 4.84809881E-08
v 0.583873212 0.803632498 -5.5694577E-06
v 0.424857497 0.308676988 4.84809881E-08
v 0.429155499 0.590681851 -3.39508051E-06
v 0.306960315 0.944726467 -5.53131076E-06
v 0.308677018 0.424857467 4.84809881E-08
v 0.225620374 0.694388092 -3.39508051E-06
v 0.162281096 0.499449879 9.69619762E-08
v 3.46116948E-08 0.993344247 -5.53131076E-06
v 7.71239694E-09 0.730122864 -3.39508051E-06
v 0.162281096 0.499449879 9.69619762E-08
v -1.80845283E-09 0.525152624 9.69619762E-08
v -0.306960255 0.944726408 -5.53131076E-06
v -0.225620359 0.694388092 -3.39508051E-06
v -0.583873034 0.803632319 -5.5694577E-06
v -0.429155409 0.590681732 -3.39508051E-06
v -0.803632319 0.583872914 -5.60760463E-06
v -0.590681732 0.42915538 -3.43322745E-06
v -0.944726288 0.306960166 -5.64575203E-06
v -0.694387972 0.2256203 -3.47137438E-06
v -0.993344009 -5.19165937E-08 -5.68389896E-06
v -0.730122685 -1.15680221E-08 -3.50952132E-06
v -0.944726288 -0.306960255 -5.7220459E-06
v -0.49944973 0.162281036 4.84809881E-08
v -0.525152504 -1.78261725E-08 0
v -0.694387972 -0.225620329 -3.54766848E-06
v -0.803632259 -0.583873034 -5.76019283E-06
v -0.424857318 0.308676898 4.84809881E-08
v -0.49944973 0.162281036 4.84809881E-08
v -0.308676958 0.424857348 4.84809881E-08
v -0.162281096 0.499449819 9.69619762E-08
v -1.80845283E-09 0.525152624 9.69619762E-08
v 7.71239694E-09 0.730122864 -3.39508051E-06
v -0.590681672 -0.42915535 -3.58581542E-06
v -0.583872914 -0.803632259 -5.79833977E-06
v -0.42915529 -0.590681612 -3.62396236E-06
v -0.306960166 -0.944726229 -5.83648671E-06
v -0.2256203 -0.694387853 -3.62396236E-06
v 5.0077329E-09 -0.993344009 -5.83648671E-06
v -1.40469485E-08 -0.730122685 -3.62396236E-06
v 0.306960136 -0.944726229 -5.83648671E-06
v 0.22562027 -0.694387853 -3.62396236E-06
v 0.583872795 -0.8036322 -5.79833977E-06
v 0.42915526 -0.590681612 -3.62396236E-06
v 0.8036322 -0.583873034 -5.76019283E-06
v 0.590681553 -0.42915529 -3.58581542E-06
v 0.944726169 -0.306960195 -5.7220459E-06
v 0.694387794 -0.225620285 -3.54766848E-06
v 0.99334389 -5.19165937E-08 -5.68389896E-06
v 0.730122447 -1.15680221E-08 -3.50952132E-06
v 0.944726706 0.306960285 -5.64575203E-06
v 0.69438827 0.225620374 -3.47137438E-06
v 0.499449641 -0.162281036 -4.84809881E-08
v 0.525152385 -1.78261725E-08 0
v 0.424857199 -0.308676898 -4.84809881E-08
v 0.499449641 -0.162281036 -4.84809881E-08
v 0.308676839 -0.424857259 -4.84809881E-08
v 0.162280992 -0.49944967 -9.69619762E-08
v -1.74592127E-08 -0.525152445 -9.69619762E-08
v -0.162281051 -0.49944967 -9.69619762E-08
v -0.308676898 -0.424857259 -4.84809881E-08
v -0.424857318 -0.308676898 -4.84809881E-08
v -0.49944973 -0.162281066 -4.84809881E-08
v -0.525152504 -1.78261725E-08 0
v -0.730122685 -1.15680221E-08 -3.50952132E-06
v 0.730122447 -1.15680221E-08 -3.50952132E-06
v 0.525152385 -1.78261725E-08 0
v 0.499449939 0.162281096 4.84809881E-08
vt 0.0500000119 0.00614891201
vt 0 0.00614891201
vt 0 0.467056513
vt 0.0500000119 0.467056513
vt 0 0.795320272
vt 0.099999994 0.00614891201
vt 0.0500000119 0.795320272
vt 0.099999994 0.467056513
vt 0.150000006 0.00614891201
vt 0.099999994 0.795320272
vt 0.150000006 0.467056513
vt 0.150000006 0.795320272
vt 0.199999988 0.00614891201
vt 0.199999988 0.467056513
vt 0.150000006 0.795320272
vt 0.199999988 0.795320272
vt 0.25 0.00614891201
vt 0.25 0.467056513
vt 0.300000012 0.00614891201
vt 0.300000012 0.467056513
vt 0.350000024 0.00614891201
vt 0.350000024 0.467056513
vt 0.400000036 0.00614891201
vt 0.400000036 0.467056513
vt 0.450000048 0.00614891201
vt 0.450000048 0.467056513
vt 0.50000006 0.00614891201
vt 0.400000036 0.795320272
vt 0.450000048 0.795320272
vt 0.50000006 0.467056513
vt 0.550000072 0.00614891201
vt 0.350000024 0.795320272
vt 0.400000036 0.795320272
vt 0.300000012 0.795320272
vt 0.25 0.795320272
vt 0.199999988 0.795320272
vt 0.199999988 0.467056513
vt 0.550000072 0.467056513
vt 0.600000083 0.00614891201
vt 0.600000083 0.467056513
vt 0.650000095 0.00614891201
vt 0.650000095 0.467056513
vt 0.700000107 0.00614891201
vt 0.700000107 0.467056513
vt 0.750000119 0.00614891201
vt 0.750000119 0.467056513
vt 0.800000131 0.00614891201
vt 0.800000131 0.467056513
vt 0.850000143 0.00614891201
vt 0.850000143 0.467056513
vt 0.900000155 0.00614891201
vt 0.900000155 0.467056513
vt 0.950000167 0.00614891201
vt 0.950000167 0.467056513
vt 1.00000012 0.00614891201
vt 1.00000012 0.467056513
vt 0.900000155 0.795320272
vt 0.950000167 0.795320272
vt 0.850000143 0.795320272
vt 0.900000155 0.795320272
vt 0.800000131 0.795320272
vt 0.750000119 0.795320272
vt 0.700000107 0.795320272
vt 0.650000095 0.795320272
vt 0.600000083 0.795320272
vt 0.550000072 0.795320272
vt 0.50000006 0.795320272
vt 0.450000048 0.795320272
vt 0.450000048 0.467056513
vt 0.950000167 0.467056513
vt 0.950000167 0.795320272
vt 1.00000012 0.795320272
vn -0 0 1
vn -0 0 1
vn -0 0 1
vn -0 0 1
vn -0 0 1
vn -0 0 1
vn -0 0 1
vn -0 0 1
vn -0 0 1
vn -0 0 1
vn -0 0 1
vn -0 0 1
vn -0 0 1
vn -0 0 1
vn -0 0 1
vn -0 0 1
vn -0 0 1
vn -0 0 1
vn -0 0 1
vn -0 0 1
vn -0 0 1
vn -0 0 1
vn -0 0 1
vn -0 0 1
vn -0 -1.62935976E-07 1
vn -0 -1.47326773E-07 1
vn -0 0 1
vn -0 -1.62920713E-07 1
vn -0 -1.27305483E-07 1
vn -0 0 1
vn -0 0 1
vn -0 0 1
vn -0 0 1
vn -0 0 1
vn -0 0 1
vn -0 0 1
vn -0 0 1
vn -0 0 1
vn -0 0 1
vn -0 0 1
vn -0 0 1
vn -0 0 1
vn -0 0 1
vn -0 0 1
vn -0 0 1
vn -0 0 1
vn -0 0 1
vn -0 0 1
vn -0 0 1
vn -0 0 1
vn -0 0 1
vn -0 0 1
vn -0 -1.62935976E-07 1
vn -0 -1.78511073E-07 1
vn -0 0 1
vn -0 0 1
vn -0 -1.62920713E-07 1
vn -0 -1.98535943E-07 1
vn -0 0 1
vn -0 0 1
vn -0 0 1
vn -0 0 1
vn -0 0 1
vn -0 0 1
vn -0 0 1
vn -0 0 1
vn -0 0 1
vn -0 0 1
vn -0 -1.62920713E-07 1
vn -0 -1.62920713E-07 1
vn -0 0 1
vn -0 0 1
g huan_bowen_0
f 3/3/3 2/2/2 1/1/1
f 4/4/4 3/3/3 1/1/1
f 5/5/5 3/3/3 4/4/4
f 4/4/4 1/1/1 6/6/6
f 7/7/7 5/5/5 4/4/4
f 8/8/8 4/4/4 6/6/6
f 7/7/7 4/4/4 8/8/8
f 8/8/8 6/6/6 9/9/9
f 10/10/10 7/7/7 8/8/8
f 11/11/11 8/8/8 9/9/9
f 10/10/10 8/8/8 11/11/11
f 12/12/12 10/10/10 11/11/11
f 11/11/11 9/9/9 13/13/13
f 14/14/14 11/11/11 13/13/13
f 15/15/15 11/11/11 14/14/14
f 16/16/16 15/15/15 14/14/14
f 14/14/14 13/13/13 17/17/17
f 18/18/18 14/14/14 17/17/17
f 18/18/18 17/17/17 19/19/19
f 20/20/20 18/18/18 19/19/19
f 20/20/20 19/19/19 21/21/21
f 22/22/22 20/20/20 21/21/21
f 22/22/22 21/21/21 23/23/23
f 24/24/24 22/22/22 23/23/23
f 24/24/24 23/23/23 25/25/25
f 26/26/26 24/24/24 25/25/25
f 26/26/26 25/25/25 27/27/27
f 28/28/28 24/24/24 26/26/26
f 29/29/29 28/28/28 26/26/26
f 30/30/30 26/26/26 27/27/27
f 30/30/30 27/27/27 31/31/31
f 32/32/32 22/22/22 24/24/24
f 33/33/33 32/32/32 24/24/24
f 32/32/32 34/34/34 22/22/22
f 34/34/34 20/20/20 22/22/22
f 34/34/34 35/35/35 20/20/20
f 35/35/35 18/18/18 20/20/20
f 35/35/35 36/36/36 18/18/18
f 36/36/36 37/37/37 18/18/18
f 38/38/38 30/30/30 31/31/31
f 38/38/38 31/31/31 39/39/39
f 40/40/40 38/38/38 39/39/39
f 40/40/40 39/39/39 41/41/41
f 42/42/42 40/40/40 41/41/41
f 42/42/42 41/41/41 43/43/43
f 44/44/44 42/42/42 43/43/43
f 44/44/44 43/43/43 45/45/45
f 46/46/46 44/44/44 45/45/45
f 46/46/46 45/45/45 47/47/47
f 48/48/48 46/46/46 47/47/47
f 48/48/48 47/47/47 49/49/49
f 50/50/50 48/48/48 49/49/49
f 50/50/50 49/49/49 51/51/51
f 52/52/52 50/50/50 51/51/51
f 52/52/52 51/51/51 53/53/53
f 54/54/54 52/52/52 53/53/53
f 54/54/54 53/53/53 55/55/55
f 56/56/56 54/54/54 55/55/55
f 57/57/57 52/52/52 54/54/54
f 58/58/58 57/57/57 54/54/54
f 59/59/59 50/50/50 52/52/52
f 60/60/60 59/59/59 52/52/52
f 59/59/59 61/61/61 50/50/50
f 61/61/61 48/48/48 50/50/50
f 61/61/61 62/62/62 48/48/48
f 62/62/62 46/46/46 48/48/48
f 62/62/62 63/63/63 46/46/46
f 63/63/63 44/44/44 46/46/46
f 63/63/63 64/64/64 44/44/44
f 64/64/64 42/42/42 44/44/44
f 64/64/64 65/65/65 42/42/42
f 65/65/65 40/40/40 42/42/42
f 65/65/65 66/66/66 40/40/40
f 66/66/66 38/38/38 40/40/40
f 66/66/66 67/67/67 38/38/38
f 67/67/67 30/30/30 38/38/38
f 67/67/67 68/68/68 30/30/30
f 68/68/68 69/69/69 30/30/30
f 71/71/71 70/70/70 56/56/56
f 72/72/72 71/71/71 56/56/56
