g kuosan_quan
v 0.513251603 0.000779080903 -1.0172527E-07
v 0.346166044 0.0547743626 -1.69542105E-07
v 0.506997347 0.0802475438 -1.01725263E-07
v 0.350415528 0.000779091381 -1.69542105E-07
v 0.185334742 0.0293011852 -2.37358947E-07
v 0.187579498 0.000779101858 -2.37358947E-07
v 0.024503449 0.00382800959 -3.05175774E-07
v 0.0247433949 0.000779112335 -3.05175774E-07
v 0.506997347 0.0802475438 -1.01725263E-07
v 0.333522141 0.107440077 -1.69542091E-07
v 0.488388419 0.157759219 -1.01725249E-07
v 0.346166044 0.0547743626 -1.69542105E-07
v 0.178655848 0.0571209528 -2.37358918E-07
v 0.185334742 0.0293011852 -2.37358947E-07
v 0.0237894915 0.00680182315 -3.05175774E-07
v 0.024503449 0.00382800959 -3.05175774E-07
v 0.488388419 0.157759219 -1.01725249E-07
v 0.312795132 0.15747945 -1.69542105E-07
v 0.457883149 0.231405526 -1.01725263E-07
v 0.333522141 0.107440077 -1.69542091E-07
v 0.16770713 0.0835533887 -2.37358947E-07
v 0.178655848 0.0571209528 -2.37358918E-07
v 0.0226191413 0.00962733105 -3.05175774E-07
v 0.0237894915 0.00680182315 -3.05175774E-07
v 0.457883149 0.231405526 -1.01725263E-07
v 0.284495473 0.203660324 -1.69542105E-07
v 0.416232646 0.299373001 -1.01725263E-07
v 0.312795132 0.15747945 -1.69542105E-07
v 0.152758285 0.107947655 -2.37358947E-07
v 0.16770713 0.0835533887 -2.37358947E-07
v 0.021021165 0.0122349821 -3.05175774E-07
v 0.0226191413 0.00962733105 -3.05175774E-07
v 0.416232646 0.299373001 -1.01725263E-07
v 0.249319911 0.244845599 -1.69542105E-07
v 0.364462435 0.359988153 -1.01725263E-07
v 0.284495473 0.203660324 -1.69542105E-07
v 0.134177402 0.12970306 -2.37358947E-07
v 0.152758285 0.107947655 -2.37358947E-07
v 0.0190349687 0.0145605356 -3.05175774E-07
v 0.021021165 0.0122349821 -3.05175774E-07
v 0.364462435 0.359988153 -1.01725263E-07
v 0.208134621 0.280021191 -1.69542091E-07
v 0.303847253 0.411758423 -1.01725263E-07
v 0.249319911 0.244845599 -1.69542105E-07
v 0.112421989 0.148283988 -2.37358918E-07
v 0.134177402 0.12970306 -2.37358947E-07
v 0.016709378 0.0165467728 -3.05175774E-07
v 0.0190349687 0.0145605356 -3.05175774E-07
v 0.303847253 0.411758423 -1.01725263E-07
v 0.161953747 0.30832085 -1.69542105E-07
v 0.235879779 0.453408957 -1.01725263E-07
v 0.208134621 0.280021191 -1.69542091E-07
v 0.0880277455 0.163232759 -2.37358947E-07
v 0.112421989 0.148283988 -2.37358918E-07
v 0.0141017633 0.01814471 -3.05175774E-07
v 0.016709378 0.0165467728 -3.05175774E-07
v 0.235879779 0.453408957 -1.01725263E-07
v 0.111914359 0.329047889 -1.69542105E-07
v 0.162233427 0.483914286 -1.01725263E-07
v 0.161953747 0.30832085 -1.69542105E-07
v 0.0615952872 0.174181476 -2.37358947E-07
v 0.0880277455 0.163232759 -2.37358947E-07
v 0.0112762172 0.0193151366 -3.05175774E-07
v 0.0141017633 0.01814471 -3.05175774E-07
v 0.162233427 0.483914286 -1.01725263E-07
v 0.0592486076 0.341691852 -1.69542091E-07
v 0.0847217068 0.502523243 -1.01725249E-07
v 0.111914359 0.329047889 -1.69542105E-07
v 0.033775501 0.180860445 -2.37358918E-07
v 0.0615952872 0.174181476 -2.37358947E-07
v 0.00830240268 0.0200290959 -3.05175774E-07
v 0.0112762172 0.0193151366 -3.05175774E-07
v 0.0847217068 0.502523243 -1.01725249E-07
v 0.00525331404 0.345941335 -1.69542091E-07
v 0.00525321579 0.508777559 -1.01725249E-07
v 0.0592486076 0.341691852 -1.69542091E-07
v 0.00525341183 0.183105156 -2.37358947E-07
v 0.033775501 0.180860445 -2.37358918E-07
v 0.00525351055 0.02026904 -3.05175774E-07
v 0.00830240268 0.0200290959 -3.05175774E-07
v 0.00525321579 0.508777559 -1.01725249E-07
v -0.0487419739 0.341691852 -1.69542105E-07
v -0.0742152706 0.502523243 -1.01725249E-07
v 0.00525331404 0.345941335 -1.69542091E-07
v -0.0232686792 0.180860445 -2.37358947E-07
v 0.00525341183 0.183105156 -2.37358947E-07
v 0.00220461912 0.0200290959 -3.05175774E-07
v 0.00525351055 0.02026904 -3.05175774E-07
v -0.0742152706 0.502523243 -1.01725249E-07
v -0.101407737 0.329047889 -1.69542091E-07
v -0.151726991 0.483914256 -1.01725249E-07
v -0.0487419739 0.341691852 -1.69542105E-07
v -0.0510884672 0.174181521 -2.37358918E-07
v -0.0232686792 0.180860445 -2.37358947E-07
v -0.00076920446 0.0193151366 -3.05175774E-07
v 0.00220461912 0.0200290959 -3.05175774E-07
v -0.151726991 0.483914256 -1.01725249E-07
v -0.151447117 0.30832085 -1.69542091E-07
v -0.225373298 0.453408927 -1.01725249E-07
v -0.101407737 0.329047889 -1.69542091E-07
v -0.0775209591 0.163232803 -2.37358904E-07
v -0.0510884672 0.174181521 -2.37358918E-07
v -0.00359473168 0.01814471 -3.05175774E-07
v -0.00076920446 0.0193151366 -3.05175774E-07
v -0.225373298 0.453408927 -1.01725249E-07
v -0.197628021 0.280021131 -1.69542091E-07
v -0.293340832 0.411758304 -1.01725249E-07
v -0.151447117 0.30832085 -1.69542091E-07
v -0.101915203 0.148283988 -2.37358918E-07
v -0.0775209591 0.163232803 -2.37358904E-07
v -0.0062023825 0.0165467728 -3.05175774E-07
v -0.00359473168 0.01814471 -3.05175774E-07
v -0.293340832 0.411758304 -1.01725249E-07
v -0.238813281 0.244845495 -1.69542105E-07
v -0.353955984 0.359988004 -1.01725263E-07
v -0.197628021 0.280021131 -1.69542091E-07
v -0.123670653 0.12970306 -2.37358918E-07
v -0.101915203 0.148283988 -2.37358918E-07
v -0.00852793641 0.0145605356 -3.05175774E-07
v -0.0062023825 0.0165467728 -3.05175774E-07
v -0.353955984 0.359988004 -1.01725263E-07
v -0.273988843 0.20366019 -1.69542105E-07
v -0.405726165 0.299372822 -1.01725263E-07
v -0.238813281 0.244845495 -1.69542105E-07
v -0.142251506 0.107947618 -2.37358918E-07
v -0.123670653 0.12970306 -2.37358918E-07
v -0.0105141327 0.0122349821 -3.05175774E-07
v -0.00852793641 0.0145605356 -3.05175774E-07
v -0.405726165 0.299372822 -1.01725263E-07
v -0.302288502 0.157479256 -1.69542105E-07
v -0.447376728 0.231405228 -1.01725263E-07
v -0.273988843 0.20366019 -1.69542105E-07
v -0.157200307 0.0835532919 -2.37358947E-07
v -0.142251506 0.107947618 -2.37358918E-07
v -0.0121121472 0.00962733105 -3.05175774E-07
v -0.0105141327 0.0122349821 -3.05175774E-07
v -0.447376728 0.231405228 -1.01725263E-07
v -0.323015511 0.107439861 -1.69542091E-07
v -0.477881998 0.157758877 -1.01725263E-07
v -0.302288502 0.157479256 -1.69542105E-07
v -0.16814895 0.0571208 -2.37358961E-07
v -0.157200307 0.0835532919 -2.37358947E-07
v -0.0132824965 0.00680180406 -3.05175774E-07
v -0.0121121472 0.00962733105 -3.05175774E-07
v -0.477881998 0.157758877 -1.01725263E-07
v -0.335659415 0.054774113 -1.69542091E-07
v -0.496490896 0.0802471712 -1.01725249E-07
v -0.323015511 0.107439861 -1.69542091E-07
v -0.174827948 0.0293010604 -2.37358918E-07
v -0.16814895 0.0571208 -2.37358961E-07
v -0.0139964558 0.0038279905 -3.05175774E-07
v -0.0132824965 0.00680180406 -3.05175774E-07
v -0.496490896 0.0802471712 -1.01725249E-07
v -0.339908898 0.000778814312 -1.69542091E-07
v -0.502745092 0.0007786731 -1.01725263E-07
v -0.335659415 0.054774113 -1.69542091E-07
v -0.1770726 0.000778955524 -2.37358961E-07
v -0.174827948 0.0293010604 -2.37358918E-07
v -0.0142363999 0.000779096677 -3.05175774E-07
v -0.0139964558 0.0038279905 -3.05175774E-07
v -0.502745092 0.0007786731 -1.01725263E-07
v -0.335659295 -0.0532164723 -1.69542105E-07
v -0.496490747 -0.0786898136 -1.01725263E-07
v -0.339908898 0.000778814312 -1.69542091E-07
v -0.174827874 -0.0277431291 -2.37358947E-07
v -0.1770726 0.000778955524 -2.37358961E-07
v -0.0139964558 -0.0022697933 -3.05175774E-07
v -0.0142363999 0.000779096677 -3.05175774E-07
v -0.496490747 -0.0786898136 -1.01725263E-07
v -0.323015332 -0.105882205 -1.69542091E-07
v -0.477881759 -0.156201497 -1.01725263E-07
v -0.335659295 -0.0532164723 -1.69542105E-07
v -0.168148845 -0.0555628948 -2.37358961E-07
v -0.174827874 -0.0277431291 -2.37358947E-07
v -0.0132824965 -0.00524361711 -3.05175774E-07
v -0.0139964558 -0.0022697933 -3.05175774E-07
v -0.477881759 -0.156201497 -1.01725263E-07
v -0.302288234 -0.155921564 -1.69542105E-07
v -0.44737637 -0.229847834 -1.0172527E-07
v -0.323015332 -0.105882205 -1.69542091E-07
v -0.157200158 -0.0819953308 -2.37358961E-07
v -0.168148845 -0.0555628948 -2.37358961E-07
v -0.0121120708 -0.008069125 -3.05175774E-07
v -0.0132824965 -0.00524361711 -3.05175774E-07
v -0.44737637 -0.229847834 -1.0172527E-07
v -0.273988485 -0.202102482 -1.69542105E-07
v -0.405725688 -0.297815353 -1.01725263E-07
v -0.302288234 -0.155921564 -1.69542105E-07
v -0.142251313 -0.106389612 -2.37358947E-07
v -0.157200158 -0.0819953308 -2.37358961E-07
v -0.0105141327 -0.0106767761 -3.05175774E-07
v -0.0121120708 -0.008069125 -3.05175774E-07
v -0.405725688 -0.297815353 -1.01725263E-07
v -0.238812894 -0.243287727 -1.69542105E-07
v -0.353955388 -0.358430445 -1.01725263E-07
v -0.273988485 -0.202102482 -1.69542105E-07
v -0.123670422 -0.128145024 -2.37358947E-07
v -0.142251313 -0.106389612 -2.37358947E-07
v -0.00852789823 -0.0130023295 -3.05175774E-07
v -0.0105141327 -0.0106767761 -3.05175774E-07
v -0.353955388 -0.358430445 -1.01725263E-07
v -0.197627574 -0.278463334 -1.69542091E-07
v -0.293340147 -0.410200655 -1.01725249E-07
v -0.238812894 -0.243287727 -1.69542105E-07
v -0.101914972 -0.146725953 -2.37358918E-07
v -0.123670422 -0.128145024 -2.37358947E-07
v -0.00620234432 -0.0149885667 -3.05175774E-07
v -0.00852789823 -0.0130023295 -3.05175774E-07
v -0.293340147 -0.410200655 -1.01725249E-07
v -0.15144664 -0.306762904 -1.69542091E-07
v -0.225372598 -0.45185107 -1.01725249E-07
v -0.197627574 -0.278463334 -1.69542091E-07
v -0.0775206909 -0.161674723 -2.37358918E-07
v -0.101914972 -0.146725953 -2.37358918E-07
v -0.00359469349 -0.0165865049 -3.05175774E-07
v -0.00620234432 -0.0149885667 -3.05175774E-07
v -0.225372598 -0.45185107 -1.01725249E-07
v -0.101407208 -0.327489883 -1.69542091E-07
v -0.151726216 -0.48235634 -1.01725249E-07
v -0.15144664 -0.306762904 -1.69542091E-07
v -0.0510881804 -0.172623441 -2.37358918E-07
v -0.0775206909 -0.161674723 -2.37358918E-07
v -0.000769166334 -0.0177569296 -3.05175774E-07
v -0.00359469349 -0.0165865049 -3.05175774E-07
v -0.151726216 -0.48235634 -1.01725249E-07
v -0.0487414338 -0.340133697 -1.69542091E-07
v -0.0742144734 -0.500965118 -1.01725249E-07
v -0.101407208 -0.327489883 -1.69542091E-07
v -0.0232683942 -0.17930229 -2.37358918E-07
v -0.0510881804 -0.172623441 -2.37358918E-07
v 0.00220464752 -0.0184708126 -3.05175774E-07
v -0.000769166334 -0.0177569296 -3.05175774E-07
v -0.0742144734 -0.500965118 -1.01725249E-07
v 0.00525386864 -0.344383121 -1.69542091E-07
v 0.00525403116 -0.507219315 -1.01725249E-07
v -0.0487414338 -0.340133697 -1.69542091E-07
v 0.0052537052 -0.181546926 -2.37358947E-07
v -0.0232683942 -0.17930229 -2.37358918E-07
v 0.00525354175 -0.0187107567 -3.05175774E-07
v 0.00220464752 -0.0184708126 -3.05175774E-07
v 0.00525403116 -0.507219315 -1.01725249E-07
v 0.0592491478 -0.340133518 -1.69542105E-07
v 0.084722504 -0.50096488 -1.01725263E-07
v 0.00525386864 -0.344383121 -1.69542091E-07
v 0.0337757878 -0.179302141 -2.37358961E-07
v 0.0052537052 -0.181546926 -2.37358947E-07
v 0.00830243155 -0.0184708126 -3.05175774E-07
v 0.00525354175 -0.0187107567 -3.05175774E-07
v 0.084722504 -0.50096488 -1.01725263E-07
v 0.111914881 -0.327489465 -1.69542105E-07
v 0.162234187 -0.482355803 -1.0172527E-07
v 0.0592491478 -0.340133518 -1.69542105E-07
v 0.0615955703 -0.172623128 -2.37358961E-07
v 0.0337757878 -0.179302141 -2.37358961E-07
v 0.0112762554 -0.0177568533 -3.05175774E-07
v 0.00830243155 -0.0184708126 -3.05175774E-07
v 0.162234187 -0.482355803 -1.0172527E-07
v 0.161954224 -0.306762427 -1.69542105E-07
v 0.235880479 -0.451850384 -1.01725263E-07
v 0.111914881 -0.327489465 -1.69542105E-07
v 0.0880279914 -0.1616745 -2.37358918E-07
v 0.0615955703 -0.172623128 -2.37358961E-07
v 0.0141017633 -0.0165865049 -3.05175774E-07
v 0.0112762554 -0.0177568533 -3.05175774E-07
v 0.235880479 -0.451850384 -1.01725263E-07
v 0.208135098 -0.278462678 -1.69542105E-07
v 0.303847969 -0.410199761 -1.01725263E-07
v 0.161954224 -0.306762427 -1.69542105E-07
v 0.112422258 -0.14672558 -2.37358947E-07
v 0.0880279914 -0.1616745 -2.37358918E-07
v 0.0167094152 -0.0149885286 -3.05175774E-07
v 0.0141017633 -0.0165865049 -3.05175774E-07
v 0.303847969 -0.410199761 -1.01725263E-07
v 0.249320373 -0.243287027 -1.69542105E-07
v 0.364463061 -0.358429402 -1.01725263E-07
v 0.208135098 -0.278462678 -1.69542105E-07
v 0.1341777 -0.128144681 -2.37358918E-07
v 0.112422258 -0.14672558 -2.37358947E-07
v 0.0190349687 -0.0130022913 -3.05175774E-07
v 0.0167094152 -0.0149885286 -3.05175774E-07
v 0.364463061 -0.358429402 -1.01725263E-07
v 0.284495831 -0.202101648 -1.69542105E-07
v 0.416233212 -0.297814131 -1.0172527E-07
v 0.249320373 -0.243287027 -1.69542105E-07
v 0.152758524 -0.106389195 -2.37358947E-07
v 0.1341777 -0.128144681 -2.37358918E-07
v 0.0210212041 -0.0106767379 -3.05175774E-07
v 0.0190349687 -0.0130022913 -3.05175774E-07
v 0.416233212 -0.297814131 -1.0172527E-07
v 0.31279549 -0.155920714 -1.69542091E-07
v 0.457883596 -0.229846522 -1.01725249E-07
v 0.284495831 -0.202101648 -1.69542105E-07
v 0.167707294 -0.0819948912 -2.37358947E-07
v 0.152758524 -0.106389195 -2.37358947E-07
v 0.0226191413 -0.00806908682 -3.05175774E-07
v 0.0210212041 -0.0106767379 -3.05175774E-07
v 0.457883596 -0.229846522 -1.01725249E-07
v 0.333522379 -0.105881259 -1.69542091E-07
v 0.488388747 -0.156200096 -1.01725263E-07
v 0.31279549 -0.155920714 -1.69542091E-07
v 0.178655893 -0.0555623993 -2.37358961E-07
v 0.167707294 -0.0819948912 -2.37358947E-07
v 0.0237894915 -0.00524355983 -3.05175774E-07
v 0.0226191413 -0.00806908682 -3.05175774E-07
v 0.488388747 -0.156200096 -1.01725263E-07
v 0.346166134 -0.0532154776 -1.69542105E-07
v 0.506997526 -0.0786883533 -1.01725263E-07
v 0.333522379 -0.105881259 -1.69542091E-07
v 0.185334817 -0.0277426038 -2.37358947E-07
v 0.178655893 -0.0555623993 -2.37358961E-07
v 0.024503449 -0.00226973626 -3.05175774E-07
v 0.0237894915 -0.00524355983 -3.05175774E-07
v 0.506997526 -0.0786883533 -1.01725263E-07
v 0.350415528 0.000779091381 -1.69542105E-07
v 0.513251603 0.000779080903 -1.0172527E-07
v 0.346166134 -0.0532154776 -1.69542105E-07
v 0.187579498 0.000779101858 -2.37358947E-07
v 0.185334817 -0.0277426038 -2.37358947E-07
v 0.0247433949 0.000779112335 -3.05175774E-07
v 0.024503449 -0.00226973626 -3.05175774E-07
vt 0.774902344 0.333496094
vt 0.799804688 0.555664062
vt 0.799804688 0.333496094
vt 0.774902344 0.555664062
vt 0.799804688 0.77734375
vt 0.774902344 0.77734375
vt 0.799804688 0.999511719
vt 0.774902344 0.999511719
vt 0.799804688 0.333496094
vt 0.824707031 0.555664062
vt 0.824707031 0.333496094
vt 0.799804688 0.555664062
vt 0.824707031 0.77734375
vt 0.799804688 0.77734375
vt 0.824707031 0.999511719
vt 0.799804688 0.999511719
vt 0.824707031 0.333496094
vt 0.849609375 0.555664062
vt 0.849609375 0.333496094
vt 0.824707031 0.555664062
vt 0.849609375 0.77734375
vt 0.824707031 0.77734375
vt 0.849609375 0.999511719
vt 0.824707031 0.999511719
vt 0.849609375 0.333496094
vt 0.874511719 0.555664062
vt 0.874511719 0.333496094
vt 0.849609375 0.555664062
vt 0.874511719 0.77734375
vt 0.849609375 0.77734375
vt 0.874511719 0.999511719
vt 0.849609375 0.999511719
vt 0.874511719 0.333496094
vt 0.899414062 0.555664062
vt 0.899414062 0.333496094
vt 0.874511719 0.555664062
vt 0.899414062 0.77734375
vt 0.874511719 0.77734375
vt 0.899414062 0.999511719
vt 0.874511719 0.999511719
vt 0.899414062 0.333496094
vt 0.924804688 0.555664062
vt 0.924804688 0.333496094
vt 0.899414062 0.555664062
vt 0.924804688 0.77734375
vt 0.899414062 0.77734375
vt 0.924804688 0.999511719
vt 0.899414062 0.999511719
vt 0.924804688 0.333496094
vt 0.949707031 0.555664062
vt 0.949707031 0.333496094
vt 0.924804688 0.555664062
vt 0.949707031 0.77734375
vt 0.924804688 0.77734375
vt 0.949707031 0.999511719
vt 0.924804688 0.999511719
vt 0.949707031 0.333496094
vt 0.974609375 0.555664062
vt 0.974609375 0.333496094
vt 0.949707031 0.555664062
vt 0.974609375 0.77734375
vt 0.949707031 0.77734375
vt 0.974609375 0.999511719
vt 0.949707031 0.999511719
vt 0.974609375 0.333496094
vt 0.999511719 0.555664062
vt 0.999511719 0.333496094
vt 0.974609375 0.555664062
vt 0.999511719 0.77734375
vt 0.974609375 0.77734375
vt 0.999511719 0.999511719
vt 0.974609375 0.999511719
vt 0.000500202179 0.333496094
vt 0.0254821777 0.555664062
vt 0.0254821777 0.333496094
vt 0.000500202179 0.555664062
vt 0.0254821777 0.77734375
vt 0.000500202179 0.77734375
vt 0.0254821777 0.999511719
vt 0.000500202179 0.999511719
vt 0.0254821777 0.333496094
vt 0.0504455566 0.555664062
vt 0.0504455566 0.333496094
vt 0.0254821777 0.555664062
vt 0.0504455566 0.77734375
vt 0.0254821777 0.77734375
vt 0.0504455566 0.999511719
vt 0.0254821777 0.999511719
vt 0.0504455566 0.333496094
vt 0.0754394531 0.555664062
vt 0.0754394531 0.333496094
vt 0.0504455566 0.555664062
vt 0.0754394531 0.77734375
vt 0.0504455566 0.77734375
vt 0.0754394531 0.999511719
vt 0.0504455566 0.999511719
vt 0.0754394531 0.333496094
vt 0.100402832 0.555664062
vt 0.100402832 0.333496094
vt 0.0754394531 0.555664062
vt 0.100402832 0.77734375
vt 0.0754394531 0.77734375
vt 0.100402832 0.999511719
vt 0.0754394531 0.999511719
vt 0.100402832 0.333496094
vt 0.125366211 0.555664062
vt 0.125366211 0.333496094
vt 0.100402832 0.555664062
vt 0.125366211 0.77734375
vt 0.100402832 0.77734375
vt 0.125366211 0.999511719
vt 0.100402832 0.999511719
vt 0.125366211 0.333496094
vt 0.150390625 0.555664062
vt 0.150390625 0.333496094
vt 0.125366211 0.555664062
vt 0.150390625 0.77734375
vt 0.125366211 0.77734375
vt 0.150390625 0.999511719
vt 0.125366211 0.999511719
vt 0.150390625 0.333496094
vt 0.175292969 0.555664062
vt 0.175292969 0.333496094
vt 0.150390625 0.555664062
vt 0.175292969 0.77734375
vt 0.150390625 0.77734375
vt 0.175292969 0.999511719
vt 0.150390625 0.999511719
vt 0.175292969 0.333496094
vt 0.200317383 0.555664062
vt 0.200317383 0.333496094
vt 0.175292969 0.555664062
vt 0.200317383 0.77734375
vt 0.175292969 0.77734375
vt 0.200317383 0.999511719
vt 0.175292969 0.999511719
vt 0.200317383 0.333496094
vt 0.225219727 0.555664062
vt 0.225219727 0.333496094
vt 0.200317383 0.555664062
vt 0.225219727 0.77734375
vt 0.200317383 0.77734375
vt 0.225219727 0.999511719
vt 0.200317383 0.999511719
vt 0.225219727 0.333496094
vt 0.250244141 0.555664062
vt 0.250244141 0.333496094
vt 0.225219727 0.555664062
vt 0.250244141 0.77734375
vt 0.225219727 0.77734375
vt 0.250244141 0.999511719
vt 0.225219727 0.999511719
vt 0.250244141 0.333496094
vt 0.275146484 0.555664062
vt 0.275146484 0.333496094
vt 0.250244141 0.555664062
vt 0.275146484 0.77734375
vt 0.250244141 0.77734375
vt 0.275146484 0.999511719
vt 0.250244141 0.999511719
vt 0.275146484 0.333496094
vt 0.300292969 0.555664062
vt 0.300292969 0.333496094
vt 0.275146484 0.555664062
vt 0.300292969 0.77734375
vt 0.275146484 0.77734375
vt 0.300292969 0.999511719
vt 0.275146484 0.999511719
vt 0.300292969 0.333496094
vt 0.325195312 0.555664062
vt 0.325195312 0.333496094
vt 0.300292969 0.555664062
vt 0.325195312 0.77734375
vt 0.300292969 0.77734375
vt 0.325195312 0.999511719
vt 0.300292969 0.999511719
vt 0.325195312 0.333496094
vt 0.350097656 0.555664062
vt 0.350097656 0.333496094
vt 0.325195312 0.555664062
vt 0.350097656 0.77734375
vt 0.325195312 0.77734375
vt 0.350097656 0.999511719
vt 0.325195312 0.999511719
vt 0.350097656 0.333496094
vt 0.375244141 0.555664062
vt 0.375244141 0.333496094
vt 0.350097656 0.555664062
vt 0.375244141 0.77734375
vt 0.350097656 0.77734375
vt 0.375244141 0.999511719
vt 0.350097656 0.999511719
vt 0.375244141 0.333496094
vt 0.400146484 0.555664062
vt 0.400146484 0.333496094
vt 0.375244141 0.555664062
vt 0.400146484 0.77734375
vt 0.375244141 0.77734375
vt 0.400146484 0.999511719
vt 0.375244141 0.999511719
vt 0.400146484 0.333496094
vt 0.425048828 0.555664062
vt 0.425048828 0.333496094
vt 0.400146484 0.555664062
vt 0.425048828 0.77734375
vt 0.400146484 0.77734375
vt 0.425048828 0.999511719
vt 0.400146484 0.999511719
vt 0.425048828 0.333496094
vt 0.449951172 0.555664062
vt 0.449951172 0.333496094
vt 0.425048828 0.555664062
vt 0.449951172 0.77734375
vt 0.425048828 0.77734375
vt 0.449951172 0.999511719
vt 0.425048828 0.999511719
vt 0.449951172 0.333496094
vt 0.475097656 0.555664062
vt 0.475097656 0.333496094
vt 0.449951172 0.555664062
vt 0.475097656 0.77734375
vt 0.449951172 0.77734375
vt 0.475097656 0.999511719
vt 0.449951172 0.999511719
vt 0.475097656 0.333496094
vt 0.5 0.555664062
vt 0.5 0.333496094
vt 0.475097656 0.555664062
vt 0.5 0.77734375
vt 0.475097656 0.77734375
vt 0.5 0.999511719
vt 0.475097656 0.999511719
vt 0.5 0.333496094
vt 0.524902344 0.555664062
vt 0.524902344 0.333496094
vt 0.5 0.555664062
vt 0.524902344 0.77734375
vt 0.5 0.77734375
vt 0.524902344 0.999511719
vt 0.5 0.999511719
vt 0.524902344 0.333496094
vt 0.549804688 0.555664062
vt 0.549804688 0.333496094
vt 0.524902344 0.555664062
vt 0.549804688 0.77734375
vt 0.524902344 0.77734375
vt 0.549804688 0.999511719
vt 0.524902344 0.999511719
vt 0.549804688 0.333496094
vt 0.574707031 0.555664062
vt 0.574707031 0.333496094
vt 0.549804688 0.555664062
vt 0.574707031 0.77734375
vt 0.549804688 0.77734375
vt 0.574707031 0.999511719
vt 0.549804688 0.999511719
vt 0.574707031 0.333496094
vt 0.600097656 0.555664062
vt 0.600097656 0.333496094
vt 0.574707031 0.555664062
vt 0.600097656 0.77734375
vt 0.574707031 0.77734375
vt 0.600097656 0.999511719
vt 0.574707031 0.999511719
vt 0.600097656 0.333496094
vt 0.625 0.555664062
vt 0.625 0.333496094
vt 0.600097656 0.555664062
vt 0.625 0.77734375
vt 0.600097656 0.77734375
vt 0.625 0.999511719
vt 0.600097656 0.999511719
vt 0.625 0.333496094
vt 0.649902344 0.555664062
vt 0.649902344 0.333496094
vt 0.625 0.555664062
vt 0.649902344 0.77734375
vt 0.625 0.77734375
vt 0.649902344 0.999511719
vt 0.625 0.999511719
vt 0.649902344 0.333496094
vt 0.674804688 0.555664062
vt 0.674804688 0.333496094
vt 0.649902344 0.555664062
vt 0.674804688 0.77734375
vt 0.649902344 0.77734375
vt 0.674804688 0.999511719
vt 0.649902344 0.999511719
vt 0.674804688 0.333496094
vt 0.699707031 0.555664062
vt 0.699707031 0.333496094
vt 0.674804688 0.555664062
vt 0.699707031 0.77734375
vt 0.674804688 0.77734375
vt 0.699707031 0.999511719
vt 0.674804688 0.999511719
vt 0.699707031 0.333496094
vt 0.724609375 0.555664062
vt 0.724609375 0.333496094
vt 0.699707031 0.555664062
vt 0.724609375 0.77734375
vt 0.699707031 0.77734375
vt 0.724609375 0.999511719
vt 0.699707031 0.999511719
vt 0.724609375 0.333496094
vt 0.749511719 0.555664062
vt 0.749511719 0.333496094
vt 0.724609375 0.555664062
vt 0.749511719 0.77734375
vt 0.724609375 0.77734375
vt 0.749511719 0.999511719
vt 0.724609375 0.999511719
vt 0.749511719 0.333496094
vt 0.774902344 0.555664062
vt 0.774902344 0.333496094
vt 0.749511719 0.555664062
vt 0.774902344 0.77734375
vt 0.749511719 0.77734375
vt 0.774902344 0.999511719
vt 0.749511719 0.999511719
vn -4.17232513E-07 0 1
vn -4.17232513E-07 0 1
vn -4.17232513E-07 0 1
vn -4.17232513E-07 0 1
vn -4.17232513E-07 0 1
vn -4.17232513E-07 0 1
vn -4.17232513E-07 0 1
vn -4.17232513E-07 0 1
vn -4.17232513E-07 0 1
vn -4.17232513E-07 -1.1920929E-07 1
vn -4.17232513E-07 0 1
vn -4.17232513E-07 0 1
vn -4.17232513E-07 0 1
vn -4.17232513E-07 0 1
vn -4.17232513E-07 -1.1920929E-07 1
vn -4.17232513E-07 0 1
vn -4.17232513E-07 -1.1920929E-07 1
vn -3.57627869E-07 -1.78813934E-07 1
vn -4.17232513E-07 -1.1920929E-07 1
vn -4.17232513E-07 -1.1920929E-07 1
vn -4.17232513E-07 -1.1920929E-07 1
vn -4.17232513E-07 -1.1920929E-07 1
vn -3.57627869E-07 -1.78813934E-07 1
vn -4.17232513E-07 -1.1920929E-07 1
vn -3.57627869E-07 -1.78813934E-07 1
vn -3.57627869E-07 -2.38418579E-07 1
vn -3.57627869E-07 -1.78813934E-07 1
vn -3.57627869E-07 -1.78813934E-07 1
vn -3.57627869E-07 -1.78813934E-07 1
vn -3.57627869E-07 -1.78813934E-07 1
vn -3.57627869E-07 -2.38418579E-07 1
vn -3.57627869E-07 -1.78813934E-07 1
vn -3.57627869E-07 -2.38418579E-07 1
vn -2.98023224E-07 -2.98023224E-07 1
vn -3.57627869E-07 -2.38418579E-07 1
vn -3.57627869E-07 -2.38418579E-07 1
vn -3.57627869E-07 -2.38418579E-07 1
vn -3.57627869E-07 -2.38418579E-07 1
vn -2.98023224E-07 -2.98023224E-07 1
vn -3.57627869E-07 -2.38418579E-07 1
vn -2.98023224E-07 -2.98023224E-07 1
vn -2.38418579E-07 -3.57627869E-07 1
vn -2.98023224E-07 -2.98023224E-07 1
vn -2.98023224E-07 -2.98023224E-07 1
vn -2.98023224E-07 -2.98023224E-07 1
vn -2.98023224E-07 -2.98023224E-07 1
vn -2.38418579E-07 -3.57627869E-07 1
vn -2.98023224E-07 -2.98023224E-07 1
vn -2.38418579E-07 -3.57627869E-07 1
vn -1.78813934E-07 -3.57627869E-07 1
vn -2.38418579E-07 -3.57627869E-07 1
vn -2.38418579E-07 -3.57627869E-07 1
vn -2.38418579E-07 -3.57627869E-07 1
vn -2.38418579E-07 -3.57627869E-07 1
vn -1.78813934E-07 -3.57627869E-07 1
vn -2.38418579E-07 -3.57627869E-07 1
vn -1.78813934E-07 -3.57627869E-07 1
vn -1.1920929E-07 -4.17232513E-07 1
vn -1.78813934E-07 -3.57627869E-07 1
vn -1.78813934E-07 -3.57627869E-07 1
vn -1.78813934E-07 -3.57627869E-07 1
vn -1.78813934E-07 -3.57627869E-07 1
vn -1.1920929E-07 -4.17232513E-07 1
vn -1.78813934E-07 -3.57627869E-07 1
vn -1.1920929E-07 -4.17232513E-07 1
vn -0 -4.17232513E-07 1
vn -1.1920929E-07 -4.17232513E-07 1
vn -1.1920929E-07 -4.17232513E-07 1
vn -1.1920929E-07 -4.17232513E-07 1
vn -1.1920929E-07 -4.17232513E-07 1
vn -0 -4.17232513E-07 1
vn -1.1920929E-07 -4.17232513E-07 1
vn -0 -4.17232513E-07 1
vn -0 -4.17232513E-07 1
vn -0 -4.17232513E-07 1
vn -0 -4.17232513E-07 1
vn -0 -4.17232513E-07 1
vn -0 -4.17232513E-07 1
vn -0 -4.17232513E-07 1
vn -0 -4.17232513E-07 1
vn -0 -4.17232513E-07 1
vn -0 -4.17232513E-07 1
vn -0 -4.17232513E-07 1
vn -0 -4.17232513E-07 1
vn -0 -4.17232513E-07 1
vn -0 -4.17232513E-07 1
vn -0 -4.17232513E-07 1
vn -0 -4.17232513E-07 1
vn -0 -4.17232513E-07 1
vn 1.1920929E-07 -4.17232513E-07 1
vn -0 -4.17232513E-07 1
vn -0 -4.17232513E-07 1
vn -0 -4.17232513E-07 1
vn -0 -4.17232513E-07 1
vn 1.1920929E-07 -4.17232513E-07 1
vn -0 -4.17232513E-07 1
vn 1.1920929E-07 -4.17232513E-07 1
vn 1.78813934E-07 -3.57627869E-07 1
vn 1.1920929E-07 -4.17232513E-07 1
vn 1.1920929E-07 -4.17232513E-07 1
vn 1.1920929E-07 -4.17232513E-07 1
vn 1.1920929E-07 -4.17232513E-07 1
vn 1.78813934E-07 -3.57627869E-07 1
vn 1.1920929E-07 -4.17232513E-07 1
vn 1.78813934E-07 -3.57627869E-07 1
vn 2.38418579E-07 -3.57627869E-07 1
vn 1.78813934E-07 -3.57627869E-07 1
vn 1.78813934E-07 -3.57627869E-07 1
vn 1.78813934E-07 -3.57627869E-07 1
vn 1.78813934E-07 -3.57627869E-07 1
vn 2.38418579E-07 -3.57627869E-07 1
vn 1.78813934E-07 -3.57627869E-07 1
vn 2.38418579E-07 -3.57627869E-07 1
vn 2.98023224E-07 -2.98023224E-07 1
vn 2.38418579E-07 -3.57627869E-07 1
vn 2.38418579E-07 -3.57627869E-07 1
vn 2.38418579E-07 -3.57627869E-07 1
vn 2.38418579E-07 -3.57627869E-07 1
vn 2.98023224E-07 -2.98023224E-07 1
vn 2.38418579E-07 -3.57627869E-07 1
vn 2.98023224E-07 -2.98023224E-07 1
vn 3.57627869E-07 -2.38418579E-07 1
vn 2.98023224E-07 -2.98023224E-07 1
vn 2.98023224E-07 -2.98023224E-07 1
vn 2.98023224E-07 -2.98023224E-07 1
vn 2.98023224E-07 -2.98023224E-07 1
vn 3.57627869E-07 -2.38418579E-07 1
vn 2.98023224E-07 -2.98023224E-07 1
vn 3.57627869E-07 -2.38418579E-07 1
vn 3.57627869E-07 -1.78813934E-07 1
vn 3.57627869E-07 -2.38418579E-07 1
vn 3.57627869E-07 -2.38418579E-07 1
vn 3.57627869E-07 -2.38418579E-07 1
vn 3.57627869E-07 -2.38418579E-07 1
vn 3.57627869E-07 -1.78813934E-07 1
vn 3.57627869E-07 -2.38418579E-07 1
vn 3.57627869E-07 -1.78813934E-07 1
vn 4.17232513E-07 -1.1920929E-07 1
vn 3.57627869E-07 -1.78813934E-07 1
vn 3.57627869E-07 -1.78813934E-07 1
vn 3.57627869E-07 -1.78813934E-07 1
vn 3.57627869E-07 -1.78813934E-07 1
vn 4.17232513E-07 -1.1920929E-07 1
vn 3.57627869E-07 -1.78813934E-07 1
vn 4.17232513E-07 -1.1920929E-07 1
vn 4.17232513E-07 0 1
vn 4.17232513E-07 -1.1920929E-07 1
vn 4.17232513E-07 -1.1920929E-07 1
vn 4.17232513E-07 -1.1920929E-07 1
vn 4.17232513E-07 -1.1920929E-07 1
vn 4.17232513E-07 0 1
vn 4.17232513E-07 -1.1920929E-07 1
vn 4.17232513E-07 0 1
vn 4.17232513E-07 0 1
vn 4.17232513E-07 0 1
vn 4.17232513E-07 0 1
vn 4.17232513E-07 0 1
vn 4.17232513E-07 0 1
vn 4.17232513E-07 0 1
vn 4.17232513E-07 0 1
vn 4.17232513E-07 0 1
vn 4.17232513E-07 0 1
vn 4.17232513E-07 0 1
vn 4.17232513E-07 0 1
vn 4.17232513E-07 0 1
vn 4.17232513E-07 0 1
vn 4.17232513E-07 0 1
vn 4.17232513E-07 0 1
vn 4.17232513E-07 0 1
vn 4.17232513E-07 1.1920929E-07 1
vn 4.17232513E-07 0 1
vn 4.17232513E-07 0 1
vn 4.17232513E-07 0 1
vn 4.17232513E-07 0 1
vn 4.17232513E-07 1.1920929E-07 1
vn 4.17232513E-07 0 1
vn 4.17232513E-07 1.1920929E-07 1
vn 3.57627869E-07 1.78813934E-07 1
vn 4.17232513E-07 1.1920929E-07 1
vn 4.17232513E-07 1.1920929E-07 1
vn 4.17232513E-07 1.1920929E-07 1
vn 4.17232513E-07 1.1920929E-07 1
vn 3.57627869E-07 1.78813934E-07 1
vn 4.17232513E-07 1.1920929E-07 1
vn 3.57627869E-07 1.78813934E-07 1
vn 3.57627869E-07 2.38418579E-07 1
vn 3.57627869E-07 1.78813934E-07 1
vn 3.57627869E-07 1.78813934E-07 1
vn 3.57627869E-07 1.78813934E-07 1
vn 3.57627869E-07 1.78813934E-07 1
vn 3.57627869E-07 2.38418579E-07 1
vn 3.57627869E-07 1.78813934E-07 1
vn 3.57627869E-07 2.38418579E-07 1
vn 2.98023224E-07 2.98023224E-07 1
vn 3.57627869E-07 2.38418579E-07 1
vn 3.57627869E-07 2.38418579E-07 1
vn 3.57627869E-07 2.38418579E-07 1
vn 3.57627869E-07 2.38418579E-07 1
vn 2.98023224E-07 2.98023224E-07 1
vn 3.57627869E-07 2.38418579E-07 1
vn 2.98023224E-07 2.98023224E-07 1
vn 2.38418579E-07 3.57627869E-07 1
vn 2.98023224E-07 2.98023224E-07 1
vn 2.98023224E-07 2.98023224E-07 1
vn 2.98023224E-07 2.98023224E-07 1
vn 2.98023224E-07 2.98023224E-07 1
vn 2.38418579E-07 3.57627869E-07 1
vn 2.98023224E-07 2.98023224E-07 1
vn 2.38418579E-07 3.57627869E-07 1
vn 1.78813934E-07 3.57627869E-07 1
vn 2.38418579E-07 3.57627869E-07 1
vn 2.38418579E-07 3.57627869E-07 1
vn 2.38418579E-07 3.57627869E-07 1
vn 2.38418579E-07 3.57627869E-07 1
vn 1.78813934E-07 3.57627869E-07 1
vn 2.38418579E-07 3.57627869E-07 1
vn 1.78813934E-07 3.57627869E-07 1
vn 1.1920929E-07 4.17232513E-07 1
vn 1.78813934E-07 3.57627869E-07 1
vn 1.78813934E-07 3.57627869E-07 1
vn 1.78813934E-07 3.57627869E-07 1
vn 1.78813934E-07 3.57627869E-07 1
vn 1.1920929E-07 4.17232513E-07 1
vn 1.78813934E-07 3.57627869E-07 1
vn 1.1920929E-07 4.17232513E-07 1
vn -0 4.17232513E-07 1
vn 1.1920929E-07 4.17232513E-07 1
vn 1.1920929E-07 4.17232513E-07 1
vn 1.1920929E-07 4.17232513E-07 1
vn 1.1920929E-07 4.17232513E-07 1
vn -0 4.17232513E-07 1
vn 1.1920929E-07 4.17232513E-07 1
vn -0 4.17232513E-07 1
vn -0 4.17232513E-07 1
vn -0 4.17232513E-07 1
vn -0 4.17232513E-07 1
vn -0 4.17232513E-07 1
vn -0 4.17232513E-07 1
vn -0 4.17232513E-07 1
vn -0 4.17232513E-07 1
vn -0 4.17232513E-07 1
vn -0 4.17232513E-07 1
vn -0 4.17232513E-07 1
vn -0 4.17232513E-07 1
vn -0 4.17232513E-07 1
vn -0 4.17232513E-07 1
vn -0 4.17232513E-07 1
vn -0 4.17232513E-07 1
vn -0 4.17232513E-07 1
vn -1.1920929E-07 4.17232513E-07 1
vn -0 4.17232513E-07 1
vn -0 4.17232513E-07 1
vn -0 4.17232513E-07 1
vn -0 4.17232513E-07 1
vn -1.1920929E-07 4.17232513E-07 1
vn -0 4.17232513E-07 1
vn -1.1920929E-07 4.17232513E-07 1
vn -1.78813934E-07 3.57627869E-07 1
vn -1.1920929E-07 4.17232513E-07 1
vn -1.1920929E-07 4.17232513E-07 1
vn -1.1920929E-07 4.17232513E-07 1
vn -1.1920929E-07 4.17232513E-07 1
vn -1.78813934E-07 3.57627869E-07 1
vn -1.1920929E-07 4.17232513E-07 1
vn -1.78813934E-07 3.57627869E-07 1
vn -2.38418579E-07 3.57627869E-07 1
vn -1.78813934E-07 3.57627869E-07 1
vn -1.78813934E-07 3.57627869E-07 1
vn -1.78813934E-07 3.57627869E-07 1
vn -1.78813934E-07 3.57627869E-07 1
vn -2.38418579E-07 3.57627869E-07 1
vn -1.78813934E-07 3.57627869E-07 1
vn -2.38418579E-07 3.57627869E-07 1
vn -2.98023224E-07 2.98023224E-07 1
vn -2.38418579E-07 3.57627869E-07 1
vn -2.38418579E-07 3.57627869E-07 1
vn -2.38418579E-07 3.57627869E-07 1
vn -2.38418579E-07 3.57627869E-07 1
vn -2.98023224E-07 2.98023224E-07 1
vn -2.38418579E-07 3.57627869E-07 1
vn -2.98023224E-07 2.98023224E-07 1
vn -3.57627869E-07 2.38418579E-07 1
vn -2.98023224E-07 2.98023224E-07 1
vn -2.98023224E-07 2.98023224E-07 1
vn -2.98023224E-07 2.98023224E-07 1
vn -2.98023224E-07 2.98023224E-07 1
vn -3.57627869E-07 2.38418579E-07 1
vn -2.98023224E-07 2.98023224E-07 1
vn -3.57627869E-07 2.38418579E-07 1
vn -3.57627869E-07 1.78813934E-07 1
vn -3.57627869E-07 2.38418579E-07 1
vn -3.57627869E-07 2.38418579E-07 1
vn -3.57627869E-07 2.38418579E-07 1
vn -3.57627869E-07 2.38418579E-07 1
vn -3.57627869E-07 1.78813934E-07 1
vn -3.57627869E-07 2.38418579E-07 1
vn -3.57627869E-07 1.78813934E-07 1
vn -4.17232513E-07 1.1920929E-07 1
vn -3.57627869E-07 1.78813934E-07 1
vn -3.57627869E-07 1.78813934E-07 1
vn -3.57627869E-07 1.78813934E-07 1
vn -3.57627869E-07 1.78813934E-07 1
vn -4.17232513E-07 1.1920929E-07 1
vn -3.57627869E-07 1.78813934E-07 1
vn -4.17232513E-07 1.1920929E-07 1
vn -4.17232513E-07 0 1
vn -4.17232513E-07 1.1920929E-07 1
vn -4.17232513E-07 1.1920929E-07 1
vn -4.17232513E-07 1.1920929E-07 1
vn -4.17232513E-07 1.1920929E-07 1
vn -4.17232513E-07 0 1
vn -4.17232513E-07 1.1920929E-07 1
vn -4.17232513E-07 0 1
vn -4.17232513E-07 0 1
vn -4.17232513E-07 0 1
vn -4.17232513E-07 0 1
vn -4.17232513E-07 0 1
vn -4.17232513E-07 0 1
vn -4.17232513E-07 0 1
vn -4.17232513E-07 0 1
g kuosan_quan_0
f 3/3/3 2/2/2 1/1/1
f 4/4/4 1/1/1 2/2/2
f 2/2/2 5/5/5 4/4/4
f 6/6/6 4/4/4 5/5/5
f 5/5/5 7/7/7 6/6/6
f 8/8/8 6/6/6 7/7/7
f 11/11/11 10/10/10 9/9/9
f 12/12/12 9/9/9 10/10/10
f 10/10/10 13/13/13 12/12/12
f 14/14/14 12/12/12 13/13/13
f 13/13/13 15/15/15 14/14/14
f 16/16/16 14/14/14 15/15/15
f 19/19/19 18/18/18 17/17/17
f 20/20/20 17/17/17 18/18/18
f 18/18/18 21/21/21 20/20/20
f 22/22/22 20/20/20 21/21/21
f 21/21/21 23/23/23 22/22/22
f 24/24/24 22/22/22 23/23/23
f 27/27/27 26/26/26 25/25/25
f 28/28/28 25/25/25 26/26/26
f 26/26/26 29/29/29 28/28/28
f 30/30/30 28/28/28 29/29/29
f 29/29/29 31/31/31 30/30/30
f 32/32/32 30/30/30 31/31/31
f 35/35/35 34/34/34 33/33/33
f 36/36/36 33/33/33 34/34/34
f 34/34/34 37/37/37 36/36/36
f 38/38/38 36/36/36 37/37/37
f 37/37/37 39/39/39 38/38/38
f 40/40/40 38/38/38 39/39/39
f 43/43/43 42/42/42 41/41/41
f 44/44/44 41/41/41 42/42/42
f 42/42/42 45/45/45 44/44/44
f 46/46/46 44/44/44 45/45/45
f 45/45/45 47/47/47 46/46/46
f 48/48/48 46/46/46 47/47/47
f 51/51/51 50/50/50 49/49/49
f 52/52/52 49/49/49 50/50/50
f 50/50/50 53/53/53 52/52/52
f 54/54/54 52/52/52 53/53/53
f 53/53/53 55/55/55 54/54/54
f 56/56/56 54/54/54 55/55/55
f 59/59/59 58/58/58 57/57/57
f 60/60/60 57/57/57 58/58/58
f 58/58/58 61/61/61 60/60/60
f 62/62/62 60/60/60 61/61/61
f 61/61/61 63/63/63 62/62/62
f 64/64/64 62/62/62 63/63/63
f 67/67/67 66/66/66 65/65/65
f 68/68/68 65/65/65 66/66/66
f 66/66/66 69/69/69 68/68/68
f 70/70/70 68/68/68 69/69/69
f 69/69/69 71/71/71 70/70/70
f 72/72/72 70/70/70 71/71/71
f 75/75/75 74/74/74 73/73/73
f 76/76/76 73/73/73 74/74/74
f 74/74/74 77/77/77 76/76/76
f 78/78/78 76/76/76 77/77/77
f 77/77/77 79/79/79 78/78/78
f 80/80/80 78/78/78 79/79/79
f 83/83/83 82/82/82 81/81/81
f 84/84/84 81/81/81 82/82/82
f 82/82/82 85/85/85 84/84/84
f 86/86/86 84/84/84 85/85/85
f 85/85/85 87/87/87 86/86/86
f 88/88/88 86/86/86 87/87/87
f 91/91/91 90/90/90 89/89/89
f 92/92/92 89/89/89 90/90/90
f 90/90/90 93/93/93 92/92/92
f 94/94/94 92/92/92 93/93/93
f 93/93/93 95/95/95 94/94/94
f 96/96/96 94/94/94 95/95/95
f 99/99/99 98/98/98 97/97/97
f 100/100/100 97/97/97 98/98/98
f 98/98/98 101/101/101 100/100/100
f 102/102/102 100/100/100 101/101/101
f 101/101/101 103/103/103 102/102/102
f 104/104/104 102/102/102 103/103/103
f 107/107/107 106/106/106 105/105/105
f 108/108/108 105/105/105 106/106/106
f 106/106/106 109/109/109 108/108/108
f 110/110/110 108/108/108 109/109/109
f 109/109/109 111/111/111 110/110/110
f 112/112/112 110/110/110 111/111/111
f 115/115/115 114/114/114 113/113/113
f 116/116/116 113/113/113 114/114/114
f 114/114/114 117/117/117 116/116/116
f 118/118/118 116/116/116 117/117/117
f 117/117/117 119/119/119 118/118/118
f 120/120/120 118/118/118 119/119/119
f 123/123/123 122/122/122 121/121/121
f 124/124/124 121/121/121 122/122/122
f 122/122/122 125/125/125 124/124/124
f 126/126/126 124/124/124 125/125/125
f 125/125/125 127/127/127 126/126/126
f 128/128/128 126/126/126 127/127/127
f 131/131/131 130/130/130 129/129/129
f 132/132/132 129/129/129 130/130/130
f 130/130/130 133/133/133 132/132/132
f 134/134/134 132/132/132 133/133/133
f 133/133/133 135/135/135 134/134/134
f 136/136/136 134/134/134 135/135/135
f 139/139/139 138/138/138 137/137/137
f 140/140/140 137/137/137 138/138/138
f 138/138/138 141/141/141 140/140/140
f 142/142/142 140/140/140 141/141/141
f 141/141/141 143/143/143 142/142/142
f 144/144/144 142/142/142 143/143/143
f 147/147/147 146/146/146 145/145/145
f 148/148/148 145/145/145 146/146/146
f 146/146/146 149/149/149 148/148/148
f 150/150/150 148/148/148 149/149/149
f 149/149/149 151/151/151 150/150/150
f 152/152/152 150/150/150 151/151/151
f 155/155/155 154/154/154 153/153/153
f 156/156/156 153/153/153 154/154/154
f 154/154/154 157/157/157 156/156/156
f 158/158/158 156/156/156 157/157/157
f 157/157/157 159/159/159 158/158/158
f 160/160/160 158/158/158 159/159/159
f 163/163/163 162/162/162 161/161/161
f 164/164/164 161/161/161 162/162/162
f 162/162/162 165/165/165 164/164/164
f 166/166/166 164/164/164 165/165/165
f 165/165/165 167/167/167 166/166/166
f 168/168/168 166/166/166 167/167/167
f 171/171/171 170/170/170 169/169/169
f 172/172/172 169/169/169 170/170/170
f 170/170/170 173/173/173 172/172/172
f 174/174/174 172/172/172 173/173/173
f 173/173/173 175/175/175 174/174/174
f 176/176/176 174/174/174 175/175/175
f 179/179/179 178/178/178 177/177/177
f 180/180/180 177/177/177 178/178/178
f 178/178/178 181/181/181 180/180/180
f 182/182/182 180/180/180 181/181/181
f 181/181/181 183/183/183 182/182/182
f 184/184/184 182/182/182 183/183/183
f 187/187/187 186/186/186 185/185/185
f 188/188/188 185/185/185 186/186/186
f 186/186/186 189/189/189 188/188/188
f 190/190/190 188/188/188 189/189/189
f 189/189/189 191/191/191 190/190/190
f 192/192/192 190/190/190 191/191/191
f 195/195/195 194/194/194 193/193/193
f 196/196/196 193/193/193 194/194/194
f 194/194/194 197/197/197 196/196/196
f 198/198/198 196/196/196 197/197/197
f 197/197/197 199/199/199 198/198/198
f 200/200/200 198/198/198 199/199/199
f 203/203/203 202/202/202 201/201/201
f 204/204/204 201/201/201 202/202/202
f 202/202/202 205/205/205 204/204/204
f 206/206/206 204/204/204 205/205/205
f 205/205/205 207/207/207 206/206/206
f 208/208/208 206/206/206 207/207/207
f 211/211/211 210/210/210 209/209/209
f 212/212/212 209/209/209 210/210/210
f 210/210/210 213/213/213 212/212/212
f 214/214/214 212/212/212 213/213/213
f 213/213/213 215/215/215 214/214/214
f 216/216/216 214/214/214 215/215/215
f 219/219/219 218/218/218 217/217/217
f 220/220/220 217/217/217 218/218/218
f 218/218/218 221/221/221 220/220/220
f 222/222/222 220/220/220 221/221/221
f 221/221/221 223/223/223 222/222/222
f 224/224/224 222/222/222 223/223/223
f 227/227/227 226/226/226 225/225/225
f 228/228/228 225/225/225 226/226/226
f 226/226/226 229/229/229 228/228/228
f 230/230/230 228/228/228 229/229/229
f 229/229/229 231/231/231 230/230/230
f 232/232/232 230/230/230 231/231/231
f 235/235/235 234/234/234 233/233/233
f 236/236/236 233/233/233 234/234/234
f 234/234/234 237/237/237 236/236/236
f 238/238/238 236/236/236 237/237/237
f 237/237/237 239/239/239 238/238/238
f 240/240/240 238/238/238 239/239/239
f 243/243/243 242/242/242 241/241/241
f 244/244/244 241/241/241 242/242/242
f 242/242/242 245/245/245 244/244/244
f 246/246/246 244/244/244 245/245/245
f 245/245/245 247/247/247 246/246/246
f 248/248/248 246/246/246 247/247/247
f 251/251/251 250/250/250 249/249/249
f 252/252/252 249/249/249 250/250/250
f 250/250/250 253/253/253 252/252/252
f 254/254/254 252/252/252 253/253/253
f 253/253/253 255/255/255 254/254/254
f 256/256/256 254/254/254 255/255/255
f 259/259/259 258/258/258 257/257/257
f 260/260/260 257/257/257 258/258/258
f 258/258/258 261/261/261 260/260/260
f 262/262/262 260/260/260 261/261/261
f 261/261/261 263/263/263 262/262/262
f 264/264/264 262/262/262 263/263/263
f 267/267/267 266/266/266 265/265/265
f 268/268/268 265/265/265 266/266/266
f 266/266/266 269/269/269 268/268/268
f 270/270/270 268/268/268 269/269/269
f 269/269/269 271/271/271 270/270/270
f 272/272/272 270/270/270 271/271/271
f 275/275/275 274/274/274 273/273/273
f 276/276/276 273/273/273 274/274/274
f 274/274/274 277/277/277 276/276/276
f 278/278/278 276/276/276 277/277/277
f 277/277/277 279/279/279 278/278/278
f 280/280/280 278/278/278 279/279/279
f 283/283/283 282/282/282 281/281/281
f 284/284/284 281/281/281 282/282/282
f 282/282/282 285/285/285 284/284/284
f 286/286/286 284/284/284 285/285/285
f 285/285/285 287/287/287 286/286/286
f 288/288/288 286/286/286 287/287/287
f 291/291/291 290/290/290 289/289/289
f 292/292/292 289/289/289 290/290/290
f 290/290/290 293/293/293 292/292/292
f 294/294/294 292/292/292 293/293/293
f 293/293/293 295/295/295 294/294/294
f 296/296/296 294/294/294 295/295/295
f 299/299/299 298/298/298 297/297/297
f 300/300/300 297/297/297 298/298/298
f 298/298/298 301/301/301 300/300/300
f 302/302/302 300/300/300 301/301/301
f 301/301/301 303/303/303 302/302/302
f 304/304/304 302/302/302 303/303/303
f 307/307/307 306/306/306 305/305/305
f 308/308/308 305/305/305 306/306/306
f 306/306/306 309/309/309 308/308/308
f 310/310/310 308/308/308 309/309/309
f 309/309/309 311/311/311 310/310/310
f 312/312/312 310/310/310 311/311/311
f 315/315/315 314/314/314 313/313/313
f 316/316/316 313/313/313 314/314/314
f 314/314/314 317/317/317 316/316/316
f 318/318/318 316/316/316 317/317/317
f 317/317/317 319/319/319 318/318/318
f 320/320/320 318/318/318 319/319/319
