g Line001
v -0.205073729 0.0483271219 0.011194244
v -0.20527862 0.0612532608 0.0111942431
v 0.206839353 0.0609874241 0.0111942431
v 0.205502912 0.0480622947 0.011194244
v 0.217055291 0.058858972 0.0111942431
v 0.209324852 0.0472661927 0.011194244
v 0.223462477 0.0494943 0.0111942431
v 0.210521534 0.0455175154 0.011194244
v 0.223158523 -0.0325558931 0.0111942431
v 0.210240588 -0.0303587448 0.011194244
v 0.219370663 -0.0434987471 0.0111942431
v 0.20876424 -0.0346236192 0.011194244
v 0.208835527 -0.0493984818 0.0111942431
v 0.204676554 -0.0369126685 0.011194244
v 0.19840537 -0.0507891886 0.0111942431
v 0.197559312 -0.0378616117 0.011194244
v -0.201383263 -0.0500577353 0.0111942431
v -0.19978036 -0.0371346474 0.011194244
v -0.210310936 -0.0478258468 0.0111942431
v -0.204890594 -0.0358570702 0.011194244
v -0.221555814 -0.0400408879 0.0111942431
v -0.208853453 -0.0331135988 0.011194244
v -0.2219605 -0.027898578 0.0111942431
v -0.209033668 -0.0277085137 0.011194244
v -0.221673384 0.0468355007 0.0111942431
v -0.20875679 0.0443724766 0.011194244
v -0.218347222 0.0553351045 0.0111942431
v -0.206818745 0.049325861 0.011194244
v -0.217382565 0.0567836128 0.0111942431
v -0.20708631 0.048924353 0.011194244
v -0.216219038 0.0581197776 0.0111942431
v -0.207375273 0.0485921502 0.011194244
v -0.207375273 0.0485921502 0.011194244
v -0.216219038 0.0581197776 0.0111942431
v -0.214476109 0.0594214536 0.0111942431
v -0.207888886 0.0482083596 0.011194244
v -0.207888886 0.0482083596 0.011194244
v -0.212420821 0.0603417866 0.0111942431
v -0.208182767 0.0480768718 0.011194244
v -0.208182767 0.0480768718 0.011194244
v -0.212420821 0.0603417866 0.0111942431
v -0.21023725 0.0608866885 0.0111942431
v -0.207895294 0.0481486805 0.011194244
v -0.207876489 0.0611690171 0.0111942431
v -0.206898138 0.0482679307 0.011194244
v -0.20527862 0.0612532608 0.0111942431
v -0.205073729 0.0483271219 0.011194244
vt 0.992029488 0
vt 0.00948536396 0
vt 0.00948536396 0.394709438
vt 0.992029488 0.394709438
vt 0.00948536396 0.401589096
vt 0.992029488 0.401589096
vt 0.00948536396 0.408049613
vt 0.992029488 0.408049613
vt 0.00948536396 0.483819515
vt 0.992029488 0.483819515
vt 0.00948536396 0.491540581
vt 0.992029488 0.491540581
vt 0.00948536396 0.499581426
vt 0.992029488 0.499581426
vt 0.00948536396 0.50807476
vt 0.992029488 0.50807476
vt 0.00948536396 0.890518665
vt 0.992029488 0.890518665
vt 0.00948536396 0.897460997
vt 0.992029488 0.897460997
vt 0.00948536396 0.906335235
vt 0.992029488 0.906335235
vt 0.00948536396 0.914758682
vt 0.992029488 0.914758682
vt 0.00948536396 0.985197544
vt 0.992029488 0.985197544
vt 0.00948536396 0.992128551
vt 0.992029488 0.992128551
vt 0.00948536396 0.992731988
vt 0.992029488 0.992731988
vt 0.00948536396 0.993370771
vt 0.992029488 0.993370771
vt 0.992029488 0.993370771
vt 0.00948536396 0.993370771
vt 0.00948536396 0.994106829
vt 0.992029488 0.994106829
vt 0.992029488 0.994106829
vt 0.00948536396 0.995032787
vt 0.992029488 0.995032787
vt 0.992029488 0.995032787
vt 0.00948536396 0.995032787
vt 0.00948536396 0.996254683
vt 0.992029488 0.996254683
vt 0.00948536396 0.997877181
vt 0.992029488 0.997877181
vt 0.00948536396 1
vt 0.992029488 1
vn -0 0 1
vn -0 0 1
vn -0 0 1
vn -0 0 1
vn -0 0 1
vn -0 0 1
vn -0 0 1
vn -0 0 1
vn -0 0 1
vn -0 0 1
vn -0 0 1
vn -0 0 1
vn -0 0 1
vn -0 0 1
vn -0 0 1
vn -0 0 1
vn -0 0 1
vn -0 0 1
vn -0 0 1
vn -0 0 1
vn -0 0 1
vn -0 0 1
vn -0 0 1
vn -0 0 1
vn -0 0 1
vn -0 0 1
vn -0 0 1
vn -0 0 1
vn -0 0 1
vn -0 0 1
vn -0 0 1
vn -0 0 1
vn -0 0 1
vn -0 0 1
vn -0 0 1
vn -0 0 1
vn -0 0 1
vn -0 0 1
vn -0 0 1
vn -0 0 1
vn -0 0 1
vn -0 0 1
vn -0 0 1
vn -0 0 1
vn -0 0 1
vn -0 0 1
vn -0 0 1
g Line001_0
f 3/3/3 2/2/2 1/1/1
f 4/4/4 3/3/3 1/1/1
f 5/5/5 3/3/3 4/4/4
f 6/6/6 5/5/5 4/4/4
f 7/7/7 5/5/5 6/6/6
f 8/8/8 7/7/7 6/6/6
f 9/9/9 7/7/7 8/8/8
f 10/10/10 9/9/9 8/8/8
f 11/11/11 9/9/9 10/10/10
f 12/12/12 11/11/11 10/10/10
f 13/13/13 11/11/11 12/12/12
f 14/14/14 13/13/13 12/12/12
f 15/15/15 13/13/13 14/14/14
f 16/16/16 15/15/15 14/14/14
f 17/17/17 15/15/15 16/16/16
f 18/18/18 17/17/17 16/16/16
f 19/19/19 17/17/17 18/18/18
f 20/20/20 19/19/19 18/18/18
f 21/21/21 19/19/19 20/20/20
f 22/22/22 21/21/21 20/20/20
f 23/23/23 21/21/21 22/22/22
f 24/24/24 23/23/23 22/22/22
f 25/25/25 23/23/23 24/24/24
f 26/26/26 25/25/25 24/24/24
f 27/27/27 25/25/25 26/26/26
f 28/28/28 27/27/27 26/26/26
f 29/29/29 27/27/27 28/28/28
f 30/30/30 29/29/29 28/28/28
f 31/31/31 29/29/29 30/30/30
f 32/32/32 31/31/31 30/30/30
f 35/35/35 34/34/34 33/33/33
f 36/36/36 35/35/35 33/33/33
f 38/38/38 35/35/35 37/37/37
f 39/39/39 38/38/38 37/37/37
f 42/42/42 41/41/41 40/40/40
f 43/43/43 42/42/42 40/40/40
f 44/44/44 42/42/42 43/43/43
f 45/45/45 44/44/44 43/43/43
f 46/46/46 44/44/44 45/45/45
f 47/47/47 46/46/46 45/45/45
