g Plane001
v 0.760453343 -0.369047612 0.0263356175
v 0.880060077 -0.367426753 -0.0103745004
v 0.893746793 -0.424949259 -0.0103745004
v 0.74932754 -0.311224967 0.0263356175
v 0.632825732 -0.338241696 0.0484655946
v 0.86637342 -0.309904218 -0.0103745004
v 0.623933673 -0.280159742 0.0484655946
v 0.5100227 -0.328602016 0.0581697747
v 0.738202035 -0.253402293 0.0263356194
v 0.852686286 -0.252381712 -0.0103745004
v 0.503074348 -0.270299584 0.0581697747
v 0.391201764 -0.336198956 0.057602644
v 0.615041792 -0.222077802 0.0484655946
v 0.727076113 -0.195579737 0.0263356138
v 0.83899945 -0.194859132 -0.0103745004
v 0.385944664 -0.277712673 0.057602644
v 0.275521755 -0.357102782 0.0489186198
v 0.496125937 -0.211997047 0.0581697822
v 0.606149435 -0.163995892 0.0484655835
v 0.715950429 -0.137757063 0.0263356194
v 0.825312793 -0.137336627 -0.0103745004
v 0.271740645 -0.298467427 0.0489186198
v 0.162140504 -0.387383938 0.034272138
v 0.380687386 -0.21922636 0.0576026514
v 0.489177227 -0.15369463 0.0581697635
v 0.597257495 -0.105913885 0.0484655835
v 0.704824805 -0.0799344629 0.0263356175
v 0.811625957 -0.0798141435 -0.0103745004
v 0.159657821 -0.328632206 0.0342721343
v 0.0502164438 -0.42311278 0.0158176553
v 0.267959505 -0.239832029 0.0489186198
v 0.37542969 -0.160740122 0.057602644
v 0.482228994 -0.095392108 0.0581697747
v 0.588365436 -0.0478319936 0.0484655946
v 0.693699181 -0.0221118163 0.0263356157
v 0.797939301 -0.0222915653 -0.0103745004
v 0.0488925166 -0.364275247 0.0158176515
v -0.0610928349 -0.460359633 -0.00429042289
v 0.157175511 -0.269880384 0.0342721418
v 0.264178067 -0.181196719 0.0489186086
v 0.370172709 -0.102253795 0.057602644
v 0.475280434 -0.0370896533 0.0581697747
v 0.579473257 0.0102499388 0.0484655835
v 0.682573557 0.035710793 0.0263356194
v 0.784252465 0.0352309793 -0.0103745004
v 0.671447754 0.093533434 0.0263356175
v 0.77056545 0.0927534476 -0.0103745004
v 0.570581377 0.0683318675 0.0484655835
v 0.468332052 0.0212128442 0.0581697747
v 0.364915311 -0.0437675864 0.057602644
v 0.260397017 -0.122561321 0.0489186198
v 0.660321951 0.151356012 0.0263356138
v 0.756878793 0.150275946 -0.0103745004
v 0.561689317 0.126413837 0.0484655946
v 0.461383671 0.0795153007 0.0581697747
v 0.359657884 0.0147187039 0.0576026328
v 0.649196446 0.209178686 0.0263356175
v 0.743192136 0.207798451 -0.0103745004
v 0.552797079 0.184495762 0.0484655835
v 0.454435259 0.1378178 0.0581697747
v 0.638070643 0.267001271 0.0263356175
v 0.729505122 0.265320957 -0.0103745004
v 0.543905199 0.242577657 0.0484655946
v 0.626945198 0.324823976 0.0263356175
v 0.715818465 0.322843552 -0.0103745004
v 0.256615907 -0.0639259294 0.0489186198
v 0.354400784 0.0732050315 0.0576026514
v 0.447486728 0.196120217 0.0581697635
v 0.535013139 0.300659627 0.0484655946
v 0.615819395 0.38264662 0.0263356175
v 0.70213151 0.380365968 -0.0103745004
v 0.252834767 -0.00529060373 0.0489186198
v 0.349143505 0.131691322 0.0576026514
v 0.440538466 0.254422665 0.0581697635
v 0.526121199 0.358741522 0.0484655946
v 0.60469377 0.440469116 0.0263356175
v 0.688444793 0.437888563 -0.0103745004
v 0.593568087 0.49829185 0.0263356175
v 0.517229021 0.416823506 0.0484655946
v 0.508336961 0.474905461 0.0484655835
v 0.499444872 0.532987297 0.0484655946
v 0.433590084 0.312725127 0.0581697747
v 0.343886256 0.19017753 0.057602644
v 0.426641673 0.371027678 0.0581697747
v 0.419693142 0.4293302 0.0581697747
v 0.412744731 0.487632602 0.0581697747
v 0.405796349 0.545935035 0.0581697747
v 0.338628829 0.248663858 0.057602644
v 0.333371729 0.307150036 0.057602644
v 0.32811439 0.365636438 0.057602644
v 0.322857112 0.424122691 0.057602644
v 0.317599773 0.482608944 0.057602644
v 0.312342525 0.541095197 0.057602644
v 0.22258544 0.463792324 0.0489186198
v 0.218804315 0.522427678 0.0489186198
v 0.22636658 0.40515694 0.0489186272
v 0.230147853 0.346521527 0.0489186198
v 0.233928904 0.287886113 0.0489186198
v 0.237710103 0.229250789 0.0489186198
v 0.127384484 0.435140759 0.0342721343
v 0.124901958 0.493892521 0.034272138
v 0.129867166 0.376388997 0.034272138
v 0.132349625 0.317637235 0.034272138
v 0.134832382 0.258885413 0.034272138
v 0.0316805243 0.400612414 0.0158176515
v 0.0303565972 0.459449828 0.0158176553
v 0.0330045298 0.341774881 0.0158176534
v 0.0343286134 0.282937378 0.0158176515
v -0.064843975 0.364165097 -0.00429042289
v -0.0651119202 0.423059762 -0.00429042289
v -0.0645761117 0.305270523 -0.00429042755
v -0.162505716 0.329757005 -0.0238976274
v -0.161782682 0.388682157 -0.0238976274
v 0.13731499 0.200133696 0.034272138
v 0.0356524661 0.224099874 0.0158176515
v -0.064308092 0.246375874 -0.0042904201
v -0.16322875 0.270831823 -0.0238976274
v -0.261621535 0.301346213 -0.0408495516
v -0.259935081 0.360277176 -0.0408495516
v 0.036976546 0.165262327 0.0158176534
v -0.0640402213 0.187481225 -0.00429042289
v -0.163951874 0.211906806 -0.0238976236
v -0.263308108 0.242415085 -0.0408495516
v -0.362508535 0.282890469 -0.0529917628
v -0.359848619 0.341805041 -0.0529917628
v -0.0637722015 0.12858662 -0.00429042289
v -0.164674833 0.152981609 -0.023897633
v -0.264994651 0.183484033 -0.0408495516
v -0.365168452 0.223975971 -0.0529917628
v -0.465483695 0.27834785 -0.0581697822
v -0.461802959 0.337225169 -0.0581697822
v -0.165398017 0.0940565094 -0.0238976236
v -0.266681194 0.124552913 -0.0408495516
v -0.367828429 0.165061563 -0.0529917628
v -0.469164491 0.219470441 -0.0581697747
v -0.570863664 0.291676849 -0.0542292111
v -0.566077113 0.350498587 -0.0542292111
v -0.268367767 0.0656217933 -0.0408495516
v -0.370488316 0.106147118 -0.0529917628
v -0.472845256 0.160593227 -0.0581697822
v -0.575650215 0.232855141 -0.0542292111
v -0.678965688 0.326834857 -0.0390155911
v -0.672950864 0.385584623 -0.0390155874
v -0.790106416 0.387780309 -0.0103745004
v -0.782703519 0.446443468 -0.0103745004
v -0.797509313 0.329117119 -0.0103745004
v -0.684980452 0.268085241 -0.0390155874
v -0.80491215 0.27045393 -0.0103745004
v -0.690995157 0.209335625 -0.0390155911
v -0.812315047 0.21179077 -0.0103745004
v -0.580436707 0.174033388 -0.0542292111
v -0.697009921 0.150585815 -0.0390155911
v -0.819717944 0.153127596 -0.0103745004
v -0.585223317 0.115211599 -0.0542291999
v -0.703024685 0.0918362439 -0.0390155911
v -0.827120781 0.0944643766 -0.0103745004
v -0.476526111 0.101715811 -0.0581697822
v -0.70903945 0.0330865085 -0.0390155874
v -0.834523678 0.0358012766 -0.0103745004
v -0.590009928 0.0563898087 -0.0542292111
v -0.480206817 0.0428385139 -0.0581697822
v -0.715054214 -0.0256630704 -0.0390155911
v -0.841926575 -0.0228618998 -0.0103745004
v -0.594796419 -0.00243190769 -0.0542292111
v -0.373148263 0.0472325496 -0.0529917516
v -0.721069038 -0.084412843 -0.0390155911
v -0.849329531 -0.0815250352 -0.0103745004
v -0.59958303 -0.0612536594 -0.0542292111
v -0.483887702 -0.0160388555 -0.0581697822
v -0.375808299 -0.0116819376 -0.0529917628
v -0.727083743 -0.143162534 -0.0390155874
v -0.856732368 -0.140188247 -0.0103745004
v -0.604369581 -0.120075412 -0.0542292111
v -0.487568378 -0.0749161914 -0.0581697822
v -0.270054251 0.0066907499 -0.0408495516
v -0.733098507 -0.201912165 -0.0390155874
v -0.864135265 -0.198851392 -0.0103745004
v -0.609156191 -0.178897172 -0.0542292111
v -0.491249144 -0.133793548 -0.0581697822
v -0.378468156 -0.0705963522 -0.0529917628
v -0.16612114 0.035131339 -0.0238976274
v -0.739113271 -0.26066184 -0.0390155911
v -0.871538162 -0.257514596 -0.0103745004
v -0.613942683 -0.237718895 -0.0542292111
v -0.494929999 -0.192670926 -0.0581697747
v -0.381127983 -0.129510835 -0.0529917628
v -0.271740705 -0.0522403307 -0.0408495516
v -0.0635043308 0.0696920007 -0.0042904336
v -0.745127976 -0.319411546 -0.0390155837
v -0.878941 -0.316177756 -0.0103745004
v -0.618729293 -0.296540648 -0.0542291999
v -0.498610705 -0.25154826 -0.0581697747
v -0.38378799 -0.188425407 -0.0529917628
v -0.273427278 -0.111171417 -0.040849559
v -0.166844174 -0.0237937924 -0.0238976274
v 0.038300477 0.106424898 0.0158176534
v -0.0632363111 0.0107973861 -0.00429042149
v -0.167567208 -0.0827189609 -0.0238976255
v -0.275113821 -0.170102566 -0.0408495516
v -0.386447906 -0.24733983 -0.0529917628
v 0.139797434 0.141381949 0.034272138
v 0.0396244042 0.0475873537 0.0158176534
v -0.0629683658 -0.0480972268 -0.00429042382
v -0.168290243 -0.141644105 -0.0238976274
v 0.241491243 0.17061539 0.0489186198
v 0.142280042 0.0826301947 0.0342721418
v 0.245272517 0.111980133 0.0489186198
v 0.0409485623 -0.0112501141 0.0158176534
v 0.144762576 0.023878403 0.034272138
v 0.249053568 0.0533447266 0.0489186198
v -0.0627005771 -0.10699188 -0.00429042522
v 0.042272415 -0.0700877011 0.0158176553
v 0.147244945 -0.0348733887 0.0342721343
v 0.149727553 -0.0936251059 0.034272138
v 0.0435963422 -0.128925174 0.0158176553
v -0.0624325536 -0.165886506 -0.00429042103
v -0.169013441 -0.200569212 -0.023897633
v 0.15221031 -0.152376845 0.0342721343
v 0.0449205004 -0.187762678 0.0158176553
v -0.0621645339 -0.224781126 -0.00429042196
v 0.15469268 -0.211128637 0.0342721343
v 0.0462444313 -0.246600255 0.0158176497
v 0.0475685112 -0.305437744 0.015817659
v -0.0618967414 -0.28367579 -0.00429042615
v -0.1697364 -0.259494364 -0.0238976274
v -0.0613607764 -0.401465029 -0.00429041963
v -0.172628626 -0.495194972 -0.0238976274
v -0.0616285689 -0.342570364 -0.00429042615
v -0.171905592 -0.43626982 -0.0238976236
v -0.285232991 -0.523689032 -0.0408495516
v -0.170459509 -0.318419516 -0.0238976181
v -0.171182394 -0.377344668 -0.0238976218
v -0.283546448 -0.464757919 -0.0408495516
v -0.399747699 -0.541912317 -0.0529917628
v -0.281859815 -0.405826867 -0.0408495553
v -0.397087783 -0.482997805 -0.0529917628
v -0.517014623 -0.545935035 -0.0581697822
v -0.280173481 -0.346895754 -0.0408495516
v -0.513333857 -0.487057686 -0.0581697822
v -0.637875497 -0.531827688 -0.0542292111
v -0.394427687 -0.424083322 -0.0529917628
v -0.278486788 -0.287964672 -0.0408495553
v -0.633088946 -0.473005921 -0.0542292111
v -0.763172269 -0.495660543 -0.0390155874
v -0.509653032 -0.428180307 -0.0581697822
v -0.391767889 -0.36516884 -0.0529917628
v -0.276800305 -0.229033604 -0.0408495553
v -0.389107883 -0.306254327 -0.0529917628
v -0.757157564 -0.436910897 -0.0390155911
v -0.893746793 -0.433504045 -0.0103745004
v -0.886343896 -0.374840915 -0.0103745004
v -0.628302276 -0.414184183 -0.0542292111
v -0.505972326 -0.369302958 -0.0581697822
v -0.502291501 -0.310425609 -0.0581697822
v -0.7511428 -0.378161192 -0.0390155911
v -0.623515904 -0.355362415 -0.0542291999
vt 0.933333337 0
vt 1 0.0666666701
vt 1 0
vt 0.933333337 0.0666666701
vt 0.866666675 0
vt 1 0.13333334
vt 0.866666675 0.0666666701
vt 0.800000012 0
vt 0.933333337 0.13333334
vt 1 0.200000018
vt 0.800000012 0.0666666701
vt 0.733333349 0
vt 0.866666675 0.13333334
vt 0.933333337 0.200000018
vt 1 0.266666681
vt 0.733333349 0.0666666701
vt 0.666666687 0
vt 0.800000012 0.13333334
vt 0.866666675 0.200000018
vt 0.933333337 0.266666681
vt 1 0.333333343
vt 0.666666687 0.0666666701
vt 0.600000024 0
vt 0.733333349 0.13333334
vt 0.800000012 0.200000018
vt 0.866666675 0.266666681
vt 0.933333337 0.333333343
vt 1 0.400000006
vt 0.600000024 0.0666666701
vt 0.533333361 0
vt 0.666666687 0.13333334
vt 0.733333349 0.200000018
vt 0.800000012 0.266666681
vt 0.866666675 0.333333343
vt 0.933333337 0.400000006
vt 1 0.466666669
vt 0.533333361 0.0666666701
vt 0.466666669 0
vt 0.600000024 0.13333334
vt 0.666666687 0.200000018
vt 0.733333349 0.266666681
vt 0.800000012 0.333333343
vt 0.866666675 0.400000006
vt 0.933333337 0.466666669
vt 1 0.533333361
vt 0.933333337 0.533333361
vt 1 0.600000024
vt 0.866666675 0.466666669
vt 0.800000012 0.400000006
vt 0.733333349 0.333333343
vt 0.666666687 0.266666681
vt 0.933333337 0.600000024
vt 1 0.666666687
vt 0.866666675 0.533333361
vt 0.800000012 0.466666669
vt 0.733333349 0.400000006
vt 0.933333337 0.666666687
vt 1 0.733333349
vt 0.866666675 0.600000024
vt 0.800000012 0.533333361
vt 0.933333337 0.733333349
vt 1 0.800000012
vt 0.866666675 0.666666687
vt 0.933333337 0.800000012
vt 1 0.866666675
vt 0.666666687 0.333333343
vt 0.733333349 0.466666669
vt 0.800000012 0.600000024
vt 0.866666675 0.733333349
vt 0.933333337 0.866666675
vt 1 0.933333337
vt 0.666666687 0.400000006
vt 0.733333349 0.533333361
vt 0.800000012 0.666666687
vt 0.866666675 0.800000012
vt 0.933333337 0.933333337
vt 1 1
vt 0.933333337 1
vt 0.866666675 0.866666675
vt 0.866666675 0.933333337
vt 0.866666675 1
vt 0.800000012 0.733333349
vt 0.733333349 0.600000024
vt 0.800000012 0.800000012
vt 0.800000012 0.866666675
vt 0.800000012 0.933333337
vt 0.800000012 1
vt 0.733333349 0.666666687
vt 0.733333349 0.733333349
vt 0.733333349 0.800000012
vt 0.733333349 0.866666675
vt 0.733333349 0.933333337
vt 0.733333349 1
vt 0.666666687 0.933333337
vt 0.666666687 1
vt 0.666666687 0.866666675
vt 0.666666687 0.800000012
vt 0.666666687 0.733333349
vt 0.666666687 0.666666687
vt 0.600000024 0.933333337
vt 0.600000024 1
vt 0.600000024 0.866666675
vt 0.600000024 0.800000012
vt 0.600000024 0.733333349
vt 0.533333361 0.933333337
vt 0.533333361 1
vt 0.533333361 0.866666675
vt 0.533333361 0.800000012
vt 0.466666669 0.933333337
vt 0.466666669 1
vt 0.466666669 0.866666675
vt 0.400000006 0.933333337
vt 0.400000006 1
vt 0.600000024 0.666666687
vt 0.533333361 0.733333349
vt 0.466666669 0.800000012
vt 0.400000006 0.866666675
vt 0.333333343 0.933333337
vt 0.333333343 1
vt 0.533333361 0.666666687
vt 0.466666669 0.733333349
vt 0.400000006 0.800000012
vt 0.333333343 0.866666675
vt 0.266666681 0.933333337
vt 0.266666681 1
vt 0.466666669 0.666666687
vt 0.400000006 0.733333349
vt 0.333333343 0.800000012
vt 0.266666681 0.866666675
vt 0.200000018 0.933333337
vt 0.200000018 1
vt 0.400000006 0.666666687
vt 0.333333343 0.733333349
vt 0.266666681 0.800000012
vt 0.200000018 0.866666675
vt 0.13333334 0.933333337
vt 0.13333334 1
vt 0.333333343 0.666666687
vt 0.266666681 0.733333349
vt 0.200000018 0.800000012
vt 0.13333334 0.866666675
vt 0.0666666701 0.933333337
vt 0.0666666701 1
vt 0 0.933333337
vt 0 1
vt 0 0.866666675
vt 0.0666666701 0.866666675
vt 0 0.800000012
vt 0.0666666701 0.800000012
vt 0 0.733333349
vt 0.13333334 0.800000012
vt 0.0666666701 0.733333349
vt 0 0.666666687
vt 0.13333334 0.733333349
vt 0.0666666701 0.666666687
vt 0 0.600000024
vt 0.200000018 0.733333349
vt 0.0666666701 0.600000024
vt 0 0.533333361
vt 0.13333334 0.666666687
vt 0.200000018 0.666666687
vt 0.0666666701 0.533333361
vt 0 0.466666669
vt 0.13333334 0.600000024
vt 0.266666681 0.666666687
vt 0.0666666701 0.466666669
vt 0 0.400000006
vt 0.13333334 0.533333361
vt 0.200000018 0.600000024
vt 0.266666681 0.600000024
vt 0.0666666701 0.400000006
vt 0 0.333333343
vt 0.13333334 0.466666669
vt 0.200000018 0.533333361
vt 0.333333343 0.600000024
vt 0.0666666701 0.333333343
vt 0 0.266666681
vt 0.13333334 0.400000006
vt 0.200000018 0.466666669
vt 0.266666681 0.533333361
vt 0.400000006 0.600000024
vt 0.0666666701 0.266666681
vt 0 0.200000018
vt 0.13333334 0.333333343
vt 0.200000018 0.400000006
vt 0.266666681 0.466666669
vt 0.333333343 0.533333361
vt 0.466666669 0.600000024
vt 0.0666666701 0.200000018
vt 0 0.13333334
vt 0.13333334 0.266666681
vt 0.200000018 0.333333343
vt 0.266666681 0.400000006
vt 0.333333343 0.466666669
vt 0.400000006 0.533333361
vt 0.533333361 0.600000024
vt 0.466666669 0.533333361
vt 0.400000006 0.466666669
vt 0.333333343 0.400000006
vt 0.266666681 0.333333343
vt 0.600000024 0.600000024
vt 0.533333361 0.533333361
vt 0.466666669 0.466666669
vt 0.400000006 0.400000006
vt 0.666666687 0.600000024
vt 0.600000024 0.533333361
vt 0.666666687 0.533333361
vt 0.533333361 0.466666669
vt 0.600000024 0.466666669
vt 0.666666687 0.466666669
vt 0.466666669 0.400000006
vt 0.533333361 0.400000006
vt 0.600000024 0.400000006
vt 0.600000024 0.333333343
vt 0.533333361 0.333333343
vt 0.466666669 0.333333343
vt 0.400000006 0.333333343
vt 0.600000024 0.266666681
vt 0.533333361 0.266666681
vt 0.466666669 0.266666681
vt 0.600000024 0.200000018
vt 0.533333361 0.200000018
vt 0.533333361 0.13333334
vt 0.466666669 0.200000018
vt 0.400000006 0.266666681
vt 0.466666669 0.0666666701
vt 0.400000006 0
vt 0.466666669 0.13333334
vt 0.400000006 0.0666666701
vt 0.333333343 0
vt 0.400000006 0.200000018
vt 0.400000006 0.13333334
vt 0.333333343 0.0666666701
vt 0.266666681 0
vt 0.333333343 0.13333334
vt 0.266666681 0.0666666701
vt 0.200000018 0
vt 0.333333343 0.200000018
vt 0.200000018 0.0666666701
vt 0.13333334 0
vt 0.266666681 0.13333334
vt 0.333333343 0.266666681
vt 0.13333334 0.0666666701
vt 0.0666666701 0
vt 0.200000018 0.13333334
vt 0.266666681 0.200000018
vt 0.333333343 0.333333343
vt 0.266666681 0.266666681
vt 0.0666666701 0.0666666701
vt 0 0
vt 0 0.0666666701
vt 0.13333334 0.13333334
vt 0.200000018 0.200000018
vt 0.200000018 0.266666681
vt 0.0666666701 0.13333334
vt 0.13333334 0.200000018
vn 0.2531268 0.051782947 0.966046214
vn 0.293860823 0.0632136017 0.953755617
vn 0.292056531 0.0628257096 0.954335392
vn 0.238906845 0.0475514196 0.969877481
vn 0.139330521 0.0228662789 0.989981949
vn 0.299850613 0.0645022988 0.951803088
vn 0.131419376 0.0212156959 0.991099775
vn 0.0410346277 0.00565473596 0.999141693
vn 0.24367626 0.0485064015 0.96864289
vn 0.306076467 0.0658428073 0.949727297
vn 0.0381378867 0.00526665617 0.999258578
vn -0.0402368307 -0.00316911447 0.999185145
vn 0.133806616 0.0216037873 0.99077189
vn 0.248632282 0.0494980365 0.967332423
vn 0.31254974 0.0672339424 0.947518945
vn -0.0398335457 -0.00313985557 0.999201477
vn -0.10324169 -0.00630896026 0.994636238
vn 0.0387813896 0.00535564031 0.999233365
vn 0.136280835 0.0220054183 0.990425766
vn 0.253786534 0.0505286343 0.965939641
vn 0.319286168 0.0686829835 0.945166111
vn -0.101339191 -0.00629757671 0.994832039
vn -0.147108614 -0.00589464279 0.98910284
vn -0.0403542034 -0.00318102841 0.999180377
vn 0.0394466296 0.00544729456 0.999206841
vn 0.138847888 0.0224219356 0.990059853
vn 0.259150654 0.0516024604 0.964457333
vn 0.326300383 0.0701919794 0.942656398
vn -0.145275697 -0.00604269607 0.989372671
vn -0.171310365 -0.00356206694 0.985210717
vn -0.102554351 -0.00637413748 0.994707048
vn -0.0408889502 -0.0032231817 0.999158502
vn 0.0401354097 0.00554206828 0.999178827
vn 0.141512424 0.022855049 0.989672661
vn 0.264736831 0.0527204499 0.962878466
vn 0.333608449 0.0717639476 0.939976335
vn -0.17067574 -0.00383974984 0.985319793
vn -0.175589874 -0.000566513394 0.984463215
vn -0.146835998 -0.0061086691 0.989141941
vn -0.103799142 -0.00645225728 0.994577408
vn -0.0414375253 -0.00326657272 0.999135792
vn 0.0408482961 0.00564046903 0.999149442
vn 0.144279927 0.0233044643 0.989262402
vn 0.270558715 0.0538860336 0.961194217
vn 0.341227949 0.0734038427 0.937110126
vn 0.2766307 0.0551022775 0.959395289
vn 0.349177003 0.0751136616 0.934041381
vn 0.147157207 0.0237719901 0.988827348
vn 0.0415870734 0.00574215269 0.999118388
vn -0.0420013852 -0.00331115676 0.99911207
vn -0.105074205 -0.00653236546 0.99444288
vn 0.282967448 0.0563703515 0.95747149
vn 0.357475191 0.0768975466 0.930751503
vn 0.15015018 0.02425877 0.988365531
vn 0.0423529595 0.00584763894 0.999085665
vn -0.0425807461 -0.00335703301 0.999087334
vn 0.289586812 0.0576957352 0.955411196
vn 0.366144687 0.0787632242 0.927218735
vn 0.15326561 0.0247648321 0.987874687
vn 0.0431475081 0.00595735991 0.999050915
vn 0.296506107 0.0590817481 0.953201652
vn 0.375207543 0.0807126984 0.923420131
vn 0.156511858 0.0252925605 0.987352133
vn 0.303745359 0.0605316609 0.950828433
vn 0.38468802 0.0827523097 0.919329703
vn -0.106380917 -0.00661463756 0.994303465
vn -0.043176122 -0.00340410019 0.999061644
vn 0.0439721458 0.00607089512 0.999014258
vn 0.159896582 0.0258429162 0.986795425
vn 0.311324716 0.0620504767 0.948275685
vn 0.394611746 0.084887214 0.914918423
vn -0.107720561 -0.00669884915 0.994158626
vn -0.0437885113 -0.00345240254 0.999034882
vn 0.0448290855 0.00618881686 0.998975515
vn 0.16342923 0.0264178105 0.986201346
vn 0.319266826 0.0636409521 0.945525527
vn 0.402181983 0.0865146965 0.911463022
vn 0.288329542 0.0547659807 0.95596379
vn 0.167118773 0.0270181745 0.985566497
vn 0.170976385 0.0276457369 0.984887183
vn 0.154397994 0.024253441 0.987711012
vn 0.0457198061 0.00631158147 0.998934329
vn -0.0444184206 -0.00350225996 0.999006927
vn 0.0466465801 0.00643936638 0.998890698
vn 0.047611434 0.00657231826 0.998844266
vn 0.0486170128 0.00671077939 0.998794913
vn 0.0430503599 0.0059642503 0.999055088
vn -0.045066867 -0.0035536082 0.998977661
vn -0.0457343049 -0.00360636553 0.998947203
vn -0.0464219376 -0.0036608004 0.998915195
vn -0.047130473 -0.00371682458 0.998881876
vn -0.0478610359 -0.00377459964 0.998846889
vn -0.047235705 -0.00372898998 0.99887675
vn -0.119784251 -0.00745891128 0.992771924
vn -0.117008708 -0.00744691398 0.993103027
vn -0.118130997 -0.00735469302 0.992970765
vn -0.116522558 -0.00725330319 0.993161559
vn -0.114957392 -0.0071545979 0.993344665
vn -0.113433518 -0.00705854641 0.993520558
vn -0.168529928 -0.00702530937 0.98567158
vn -0.166178003 -0.00724363094 0.986069202
vn -0.166482776 -0.00693871127 0.986019909
vn -0.164484397 -0.00685412856 0.986355901
vn -0.162532762 -0.00677162455 0.986679852
vn -0.195103586 -0.00440079346 0.980772734
vn -0.194525719 -0.0047776103 0.980885804
vn -0.19298315 -0.00435204571 0.98119247
vn -0.190907493 -0.00430427724 0.981598556
vn -0.200011283 -0.000989443506 0.979793072
vn -0.201682657 -0.00137741072 0.979449987
vn -0.198009312 -0.000979063218 0.980199575
vn -0.183312193 0.00211521564 0.983052492
vn -0.186987624 0.00185343064 0.982360482
vn -0.160626531 -0.0066908719 0.986992598
vn -0.188875318 -0.00425752811 0.981991887
vn -0.196046323 -0.000968749635 0.980594218
vn -0.181561664 0.00209526834 0.983377337
vn -0.144927636 0.00395263406 0.989434421
vn -0.149601564 0.00389390253 0.988738775
vn -0.186885223 -0.00421177922 0.982372701
vn -0.194121152 -0.000958778139 0.980977118
vn -0.179843605 0.00207554502 0.983693063
vn -0.143559039 0.00391534995 0.989634037
vn -0.085335806 0.00357437111 0.996345818
vn -0.0891749337 0.003676533 0.996009111
vn -0.192232683 -0.000948884233 0.981348932
vn -0.178157285 0.00205629482 0.983999908
vn -0.142215744 0.00387858669 0.98982811
vn -0.0845169649 0.0035399925 0.996415734
vn -0.00665622856 2.27383862E-05 0.999977827
vn -0.00726053258 5.77937171E-05 0.999973655
vn -0.176501706 0.00203745626 0.984298229
vn -0.14089711 0.00384262344 0.990016758
vn -0.0837135911 0.00350621273 0.996483684
vn -0.00659958599 2.31467675E-05 0.999978304
vn 0.0862636641 -0.00755553413 0.996243715
vn 0.0909329057 -0.00801379234 0.995824814
vn -0.139602587 0.00380727509 0.990200341
vn -0.0829253122 0.00347312074 0.996549726
vn -0.0065438915 2.35322241E-05 0.999978662
vn 0.0853418112 -0.00747463619 0.996323705
vn 0.185621709 -0.0196924675 0.982423902
vn 0.195976838 -0.0211476572 0.980380476
vn 0.235902444 -0.0269583389 0.971402764
vn 0.236911252 -0.0270736516 0.971154034
vn 0.233288541 -0.0266596247 0.972042024
vn 0.183585957 -0.0194762554 0.982810736
vn 0.230730325 -0.0263672974 0.972660482
vn 0.181593478 -0.0192646272 0.983184993
vn 0.22822617 -0.0260810386 0.973258674
vn 0.0844392553 -0.00739546679 0.996401191
vn 0.179642916 -0.019057462 0.98354727
vn 0.225774348 -0.0258008912 0.973837972
vn 0.0835555643 -0.00731797889 0.996476233
vn 0.177732989 -0.0188546758 0.983898103
vn 0.223373234 -0.0255265776 0.974398673
vn -0.00648905057 2.39135643E-05 0.999979019
vn 0.175862551 -0.0186560676 0.984237969
vn 0.221021473 -0.0252577905 0.97494179
vn 0.0826900527 -0.0072420761 0.99654901
vn -0.00643520616 2.42677525E-05 0.999979377
vn 0.174030319 -0.018461477 0.984567285
vn 0.218717486 -0.0249944963 0.975468099
vn 0.0818421245 -0.00716772582 0.996619463
vn -0.0821516514 0.00344061921 0.99661392
vn 0.172235191 -0.0182708018 0.984886348
vn 0.216459841 -0.0247365031 0.975978136
vn 0.0810113549 -0.00709484238 0.996687949
vn -0.0063820798 2.45606716E-05 0.999979615
vn -0.0813921392 0.0034086348 0.996676326
vn 0.170476019 -0.0180839673 0.985195875
vn 0.214247242 -0.0244836733 0.976472557
vn 0.0801971927 -0.00702336663 0.996754229
vn -0.00632992946 2.48972028E-05 0.999979973
vn -0.138331234 0.00377241778 0.990378857
vn 0.168751821 -0.0179008991 0.985495985
vn 0.212078527 -0.024235772 0.976951957
vn 0.0793991685 -0.00695336517 0.996818662
vn -0.0062785293 2.52750251E-05 0.99998033
vn -0.080646567 0.00337727601 0.996736944
vn -0.174876139 0.00201869383 0.984588325
vn 0.167061642 -0.0177213419 0.985787153
vn 0.20995228 -0.0239927545 0.977417231
vn 0.0786166713 -0.00688479561 0.996881127
vn -0.00622787653 2.55385748E-05 0.999980688
vn -0.0799145252 0.00334664714 0.996796072
vn -0.137082666 0.00373828365 0.990552545
vn -0.190379918 -0.00093923934 0.981710017
vn 0.165404379 -0.0175453555 0.986069798
vn 0.20786719 -0.0237545967 0.977868497
vn 0.0778494924 -0.00681748381 0.996941745
vn -0.00617809361 2.5753694E-05 0.999980927
vn -0.0791954994 0.00331640989 0.99685365
vn -0.135856166 0.00370488688 0.990721583
vn -0.173279881 0.00200038613 0.984870613
vn -0.184936151 -0.00416685548 0.982741773
vn -0.188561961 -0.000929958071 0.982060909
vn -0.171712101 0.00198255316 0.985145211
vn -0.134651229 0.00367199676 0.990886211
vn -0.0784892663 0.00328669767 0.996909559
vn -0.158764109 -0.00661206758 0.987294376
vn -0.183026537 -0.00412321324 0.983099341
vn -0.186777815 -0.000920485239 0.982401788
vn -0.170171916 0.00196495187 0.985412419
vn -0.111949377 -0.00696503837 0.993689537
vn -0.156943858 -0.00653525675 0.987585902
vn -0.11050342 -0.00687398156 0.993852019
vn -0.181155473 -0.00408007065 0.983445942
vn -0.155164629 -0.00646000123 0.987867475
vn -0.109094352 -0.00678525912 0.994008183
vn -0.185026661 -0.000911340932 0.98273313
vn -0.179321751 -0.00403781841 0.983782113
vn -0.153424919 -0.00638643187 0.988139629
vn -0.151723266 -0.00631492445 0.988402784
vn -0.17752403 -0.00399706187 0.984108269
vn -0.18330723 -0.00090274628 0.983055234
vn -0.168658659 0.0019474643 0.985672593
vn -0.150058776 -0.00624460448 0.988657415
vn -0.175761655 -0.00395651674 0.98442471
vn -0.181619078 -0.000893876597 0.983368576
vn -0.148430184 -0.00617585517 0.988903582
vn -0.174033433 -0.00391685823 0.984731913
vn -0.172338426 -0.00387805654 0.985030234
vn -0.179961175 -0.000885388465 0.983673215
vn -0.167171821 0.00193061272 0.985925972
vn -0.176733464 -0.000868428848 0.984258413
vn -0.159993142 0.00209290953 0.98711592
vn -0.17833288 -0.000876997365 0.983969748
vn -0.162862197 0.00188131351 0.98664701
vn -0.125122786 0.00356526347 0.992134929
vn -0.165710419 0.00191367976 0.986172616
vn -0.164274126 0.00189725147 0.986412883
vn -0.128930643 0.00351589569 0.991647363
vn -0.0725895539 0.00308865006 0.99735707
vn -0.130035937 0.00354587706 0.991503
vn -0.0757855326 0.00317330402 0.997119188
vn -0.00541516673 -6.86704198E-06 0.999985337
vn -0.131160051 0.00357656274 0.991354764
vn -0.00598638272 2.6757798E-05 0.999982119
vn 0.0719535649 -0.00626114616 0.997388303
vn -0.0764439851 0.00320084929 0.997068822
vn -0.132303774 0.00360802072 0.991202593
vn 0.0756347105 -0.00662327558 0.997113585
vn 0.154012978 -0.0160489921 0.987938464
vn -0.00603324128 2.64757673E-05 0.99998188
vn -0.0771137923 0.00322895404 0.997017145
vn -0.133467257 0.00363955623 0.991046488
vn -0.0777955055 0.00325772166 0.996964037
vn 0.162185103 -0.0172034968 0.986610472
vn 0.204609782 -0.0233821925 0.978564382
vn 0.205822378 -0.0235208403 0.978306651
vn 0.076358825 -0.00668685138 0.997058034
vn -0.00608073501 2.62878111E-05 0.999981523
vn -0.00612903433 2.60678717E-05 0.999981284
vn 0.16377914 -0.0173728522 0.98634398
vn 0.0770970881 -0.00675150007 0.997000635
g Plane001_0
f 3/3/3 2/2/2 1/1/1
f 2/2/2 4/4/4 1/1/1
f 1/1/1 4/4/4 5/5/5
f 2/2/2 6/6/6 4/4/4
f 4/4/4 7/7/7 5/5/5
f 5/5/5 7/7/7 8/8/8
f 6/6/6 9/9/9 4/4/4
f 4/4/4 9/9/9 7/7/7
f 6/6/6 10/10/10 9/9/9
f 7/7/7 11/11/11 8/8/8
f 8/8/8 11/11/11 12/12/12
f 9/9/9 13/13/13 7/7/7
f 7/7/7 13/13/13 11/11/11
f 10/10/10 14/14/14 9/9/9
f 9/9/9 14/14/14 13/13/13
f 10/10/10 15/15/15 14/14/14
f 11/11/11 16/16/16 12/12/12
f 12/12/12 16/16/16 17/17/17
f 13/13/13 18/18/18 11/11/11
f 11/11/11 18/18/18 16/16/16
f 14/14/14 19/19/19 13/13/13
f 13/13/13 19/19/19 18/18/18
f 15/15/15 20/20/20 14/14/14
f 14/14/14 20/20/20 19/19/19
f 15/15/15 21/21/21 20/20/20
f 16/16/16 22/22/22 17/17/17
f 17/17/17 22/22/22 23/23/23
f 18/18/18 24/24/24 16/16/16
f 16/16/16 24/24/24 22/22/22
f 19/19/19 25/25/25 18/18/18
f 18/18/18 25/25/25 24/24/24
f 20/20/20 26/26/26 19/19/19
f 19/19/19 26/26/26 25/25/25
f 21/21/21 27/27/27 20/20/20
f 20/20/20 27/27/27 26/26/26
f 21/21/21 28/28/28 27/27/27
f 22/22/22 29/29/29 23/23/23
f 23/23/23 29/29/29 30/30/30
f 24/24/24 31/31/31 22/22/22
f 22/22/22 31/31/31 29/29/29
f 25/25/25 32/32/32 24/24/24
f 24/24/24 32/32/32 31/31/31
f 26/26/26 33/33/33 25/25/25
f 25/25/25 33/33/33 32/32/32
f 27/27/27 34/34/34 26/26/26
f 26/26/26 34/34/34 33/33/33
f 28/28/28 35/35/35 27/27/27
f 27/27/27 35/35/35 34/34/34
f 28/28/28 36/36/36 35/35/35
f 29/29/29 37/37/37 30/30/30
f 30/30/30 37/37/37 38/38/38
f 31/31/31 39/39/39 29/29/29
f 29/29/29 39/39/39 37/37/37
f 32/32/32 40/40/40 31/31/31
f 31/31/31 40/40/40 39/39/39
f 33/33/33 41/41/41 32/32/32
f 32/32/32 41/41/41 40/40/40
f 34/34/34 42/42/42 33/33/33
f 33/33/33 42/42/42 41/41/41
f 35/35/35 43/43/43 34/34/34
f 34/34/34 43/43/43 42/42/42
f 36/36/36 44/44/44 35/35/35
f 35/35/35 44/44/44 43/43/43
f 36/36/36 45/45/45 44/44/44
f 45/45/45 46/46/46 44/44/44
f 45/45/45 47/47/47 46/46/46
f 44/44/44 48/48/48 43/43/43
f 44/44/44 46/46/46 48/48/48
f 43/43/43 49/49/49 42/42/42
f 43/43/43 48/48/48 49/49/49
f 42/42/42 50/50/50 41/41/41
f 42/42/42 49/49/49 50/50/50
f 41/41/41 51/51/51 40/40/40
f 41/41/41 50/50/50 51/51/51
f 47/47/47 52/52/52 46/46/46
f 47/47/47 53/53/53 52/52/52
f 46/46/46 54/54/54 48/48/48
f 46/46/46 52/52/52 54/54/54
f 48/48/48 55/55/55 49/49/49
f 48/48/48 54/54/54 55/55/55
f 49/49/49 56/56/56 50/50/50
f 49/49/49 55/55/55 56/56/56
f 53/53/53 57/57/57 52/52/52
f 53/53/53 58/58/58 57/57/57
f 52/52/52 59/59/59 54/54/54
f 52/52/52 57/57/57 59/59/59
f 54/54/54 60/60/60 55/55/55
f 54/54/54 59/59/59 60/60/60
f 58/58/58 61/61/61 57/57/57
f 58/58/58 62/62/62 61/61/61
f 57/57/57 63/63/63 59/59/59
f 57/57/57 61/61/61 63/63/63
f 62/62/62 64/64/64 61/61/61
f 62/62/62 65/65/65 64/64/64
f 50/50/50 56/56/56 66/66/66
f 50/50/50 66/66/66 51/51/51
f 55/55/55 67/67/67 56/56/56
f 55/55/55 60/60/60 67/67/67
f 59/59/59 68/68/68 60/60/60
f 59/59/59 63/63/63 68/68/68
f 61/61/61 69/69/69 63/63/63
f 61/61/61 64/64/64 69/69/69
f 65/65/65 70/70/70 64/64/64
f 65/65/65 71/71/71 70/70/70
f 56/56/56 72/72/72 66/66/66
f 56/56/56 67/67/67 72/72/72
f 60/60/60 73/73/73 67/67/67
f 60/60/60 68/68/68 73/73/73
f 63/63/63 74/74/74 68/68/68
f 63/63/63 69/69/69 74/74/74
f 64/64/64 75/75/75 69/69/69
f 64/64/64 70/70/70 75/75/75
f 71/71/71 76/76/76 70/70/70
f 71/71/71 77/77/77 76/76/76
f 77/77/77 78/78/78 76/76/76
f 70/70/70 76/76/76 79/79/79
f 70/70/70 79/79/79 75/75/75
f 76/76/76 78/78/78 80/80/80
f 76/76/76 80/80/80 79/79/79
f 78/78/78 81/81/81 80/80/80
f 69/69/69 75/75/75 82/82/82
f 69/69/69 82/82/82 74/74/74
f 68/68/68 74/74/74 83/83/83
f 68/68/68 83/83/83 73/73/73
f 75/75/75 79/79/79 84/84/84
f 75/75/75 84/84/84 82/82/82
f 79/79/79 80/80/80 85/85/85
f 79/79/79 85/85/85 84/84/84
f 80/80/80 81/81/81 86/86/86
f 80/80/80 86/86/86 85/85/85
f 81/81/81 87/87/87 86/86/86
f 74/74/74 82/82/82 88/88/88
f 74/74/74 88/88/88 83/83/83
f 82/82/82 84/84/84 89/89/89
f 82/82/82 89/89/89 88/88/88
f 84/84/84 85/85/85 90/90/90
f 84/84/84 90/90/90 89/89/89
f 85/85/85 86/86/86 91/91/91
f 85/85/85 91/91/91 90/90/90
f 86/86/86 87/87/87 92/92/92
f 86/86/86 92/92/92 91/91/91
f 87/87/87 93/93/93 92/92/92
f 92/92/92 93/93/93 94/94/94
f 93/93/93 95/95/95 94/94/94
f 91/91/91 92/92/92 96/96/96
f 92/92/92 94/94/94 96/96/96
f 90/90/90 91/91/91 97/97/97
f 91/91/91 96/96/96 97/97/97
f 89/89/89 90/90/90 98/98/98
f 90/90/90 97/97/97 98/98/98
f 88/88/88 89/89/89 99/99/99
f 89/89/89 98/98/98 99/99/99
f 94/94/94 95/95/95 100/100/100
f 95/95/95 101/101/101 100/100/100
f 96/96/96 94/94/94 102/102/102
f 94/94/94 100/100/100 102/102/102
f 97/97/97 96/96/96 103/103/103
f 96/96/96 102/102/102 103/103/103
f 98/98/98 97/97/97 104/104/104
f 97/97/97 103/103/103 104/104/104
f 100/100/100 101/101/101 105/105/105
f 101/101/101 106/106/106 105/105/105
f 102/102/102 100/100/100 107/107/107
f 100/100/100 105/105/105 107/107/107
f 103/103/103 102/102/102 108/108/108
f 102/102/102 107/107/107 108/108/108
f 105/105/105 106/106/106 109/109/109
f 106/106/106 110/110/110 109/109/109
f 107/107/107 105/105/105 111/111/111
f 105/105/105 109/109/109 111/111/111
f 109/109/109 110/110/110 112/112/112
f 110/110/110 113/113/113 112/112/112
f 98/98/98 104/104/104 114/114/114
f 99/99/99 98/98/98 114/114/114
f 104/104/104 103/103/103 115/115/115
f 103/103/103 108/108/108 115/115/115
f 108/108/108 107/107/107 116/116/116
f 107/107/107 111/111/111 116/116/116
f 111/111/111 109/109/109 117/117/117
f 109/109/109 112/112/112 117/117/117
f 112/112/112 113/113/113 118/118/118
f 113/113/113 119/119/119 118/118/118
f 114/114/114 104/104/104 120/120/120
f 104/104/104 115/115/115 120/120/120
f 115/115/115 108/108/108 121/121/121
f 108/108/108 116/116/116 121/121/121
f 116/116/116 111/111/111 122/122/122
f 111/111/111 117/117/117 122/122/122
f 117/117/117 112/112/112 123/123/123
f 112/112/112 118/118/118 123/123/123
f 118/118/118 119/119/119 124/124/124
f 119/119/119 125/125/125 124/124/124
f 120/120/120 115/115/115 126/126/126
f 115/115/115 121/121/121 126/126/126
f 121/121/121 116/116/116 127/127/127
f 116/116/116 122/122/122 127/127/127
f 122/122/122 117/117/117 128/128/128
f 117/117/117 123/123/123 128/128/128
f 123/123/123 118/118/118 129/129/129
f 118/118/118 124/124/124 129/129/129
f 124/124/124 125/125/125 130/130/130
f 125/125/125 131/131/131 130/130/130
f 126/126/126 121/121/121 132/132/132
f 121/121/121 127/127/127 132/132/132
f 127/127/127 122/122/122 133/133/133
f 122/122/122 128/128/128 133/133/133
f 128/128/128 123/123/123 134/134/134
f 123/123/123 129/129/129 134/134/134
f 129/129/129 124/124/124 135/135/135
f 124/124/124 130/130/130 135/135/135
f 130/130/130 131/131/131 136/136/136
f 131/131/131 137/137/137 136/136/136
f 132/132/132 127/127/127 138/138/138
f 127/127/127 133/133/133 138/138/138
f 133/133/133 128/128/128 139/139/139
f 128/128/128 134/134/134 139/139/139
f 134/134/134 129/129/129 140/140/140
f 129/129/129 135/135/135 140/140/140
f 135/135/135 130/130/130 141/141/141
f 130/130/130 136/136/136 141/141/141
f 136/136/136 137/137/137 142/142/142
f 137/137/137 143/143/143 142/142/142
f 142/142/142 143/143/143 144/144/144
f 143/143/143 145/145/145 144/144/144
f 142/142/142 144/144/144 146/146/146
f 136/136/136 142/142/142 147/147/147
f 147/147/147 142/142/142 146/146/146
f 141/141/141 136/136/136 147/147/147
f 147/147/147 146/146/146 148/148/148
f 149/149/149 147/147/147 148/148/148
f 141/141/141 147/147/147 149/149/149
f 149/149/149 148/148/148 150/150/150
f 135/135/135 141/141/141 151/151/151
f 151/151/151 141/141/141 149/149/149
f 140/140/140 135/135/135 151/151/151
f 152/152/152 149/149/149 150/150/150
f 151/151/151 149/149/149 152/152/152
f 152/152/152 150/150/150 153/153/153
f 140/140/140 151/151/151 154/154/154
f 154/154/154 151/151/151 152/152/152
f 155/155/155 152/152/152 153/153/153
f 154/154/154 152/152/152 155/155/155
f 155/155/155 153/153/153 156/156/156
f 157/157/157 140/140/140 154/154/154
f 134/134/134 140/140/140 157/157/157
f 139/139/139 134/134/134 157/157/157
f 158/158/158 155/155/155 156/156/156
f 158/158/158 156/156/156 159/159/159
f 160/160/160 154/154/154 155/155/155
f 157/157/157 154/154/154 160/160/160
f 160/160/160 155/155/155 158/158/158
f 139/139/139 157/157/157 161/161/161
f 161/161/161 157/157/157 160/160/160
f 162/162/162 158/158/158 159/159/159
f 162/162/162 159/159/159 163/163/163
f 164/164/164 160/160/160 158/158/158
f 161/161/161 160/160/160 164/164/164
f 164/164/164 158/158/158 162/162/162
f 165/165/165 139/139/139 161/161/161
f 133/133/133 139/139/139 165/165/165
f 138/138/138 133/133/133 165/165/165
f 166/166/166 162/162/162 163/163/163
f 166/166/166 163/163/163 167/167/167
f 168/168/168 164/164/164 162/162/162
f 168/168/168 162/162/162 166/166/166
f 169/169/169 161/161/161 164/164/164
f 165/165/165 161/161/161 169/169/169
f 169/169/169 164/164/164 168/168/168
f 138/138/138 165/165/165 170/170/170
f 170/170/170 165/165/165 169/169/169
f 171/171/171 166/166/166 167/167/167
f 171/171/171 167/167/167 172/172/172
f 173/173/173 168/168/168 166/166/166
f 173/173/173 166/166/166 171/171/171
f 174/174/174 169/169/169 168/168/168
f 170/170/170 169/169/169 174/174/174
f 174/174/174 168/168/168 173/173/173
f 175/175/175 138/138/138 170/170/170
f 132/132/132 138/138/138 175/175/175
f 176/176/176 171/171/171 172/172/172
f 176/176/176 172/172/172 177/177/177
f 178/178/178 173/173/173 171/171/171
f 178/178/178 171/171/171 176/176/176
f 179/179/179 174/174/174 173/173/173
f 179/179/179 173/173/173 178/178/178
f 180/180/180 170/170/170 174/174/174
f 175/175/175 170/170/170 180/180/180
f 180/180/180 174/174/174 179/179/179
f 181/181/181 132/132/132 175/175/175
f 126/126/126 132/132/132 181/181/181
f 182/182/182 176/176/176 177/177/177
f 182/182/182 177/177/177 183/183/183
f 184/184/184 178/178/178 176/176/176
f 184/184/184 176/176/176 182/182/182
f 185/185/185 179/179/179 178/178/178
f 185/185/185 178/178/178 184/184/184
f 186/186/186 180/180/180 179/179/179
f 186/186/186 179/179/179 185/185/185
f 187/187/187 175/175/175 180/180/180
f 181/181/181 175/175/175 187/187/187
f 187/187/187 180/180/180 186/186/186
f 188/188/188 126/126/126 181/181/181
f 120/120/120 126/126/126 188/188/188
f 189/189/189 182/182/182 183/183/183
f 189/189/189 183/183/183 190/190/190
f 191/191/191 184/184/184 182/182/182
f 191/191/191 182/182/182 189/189/189
f 192/192/192 185/185/185 184/184/184
f 192/192/192 184/184/184 191/191/191
f 193/193/193 186/186/186 185/185/185
f 193/193/193 185/185/185 192/192/192
f 194/194/194 187/187/187 186/186/186
f 194/194/194 186/186/186 193/193/193
f 195/195/195 181/181/181 187/187/187
f 195/195/195 187/187/187 194/194/194
f 188/188/188 181/181/181 195/195/195
f 196/196/196 120/120/120 188/188/188
f 114/114/114 120/120/120 196/196/196
f 197/197/197 188/188/188 195/195/195
f 196/196/196 188/188/188 197/197/197
f 198/198/198 195/195/195 194/194/194
f 197/197/197 195/195/195 198/198/198
f 199/199/199 194/194/194 193/193/193
f 198/198/198 194/194/194 199/199/199
f 200/200/200 193/193/193 192/192/192
f 199/199/199 193/193/193 200/200/200
f 201/201/201 114/114/114 196/196/196
f 99/99/99 114/114/114 201/201/201
f 202/202/202 196/196/196 197/197/197
f 201/201/201 196/196/196 202/202/202
f 203/203/203 197/197/197 198/198/198
f 202/202/202 197/197/197 203/203/203
f 204/204/204 198/198/198 199/199/199
f 203/203/203 198/198/198 204/204/204
f 205/205/205 99/99/99 201/201/201
f 88/88/88 99/99/99 205/205/205
f 83/83/83 88/88/88 205/205/205
f 206/206/206 201/201/201 202/202/202
f 205/205/205 201/201/201 206/206/206
f 83/83/83 205/205/205 207/207/207
f 207/207/207 205/205/205 206/206/206
f 73/73/73 83/83/83 207/207/207
f 208/208/208 202/202/202 203/203/203
f 206/206/206 202/202/202 208/208/208
f 207/207/207 206/206/206 209/209/209
f 209/209/209 206/206/206 208/208/208
f 73/73/73 207/207/207 210/210/210
f 210/210/210 207/207/207 209/209/209
f 67/67/67 73/73/73 210/210/210
f 67/67/67 210/210/210 72/72/72
f 208/208/208 203/203/203 211/211/211
f 211/211/211 203/203/203 204/204/204
f 209/209/209 208/208/208 212/212/212
f 212/212/212 208/208/208 211/211/211
f 210/210/210 209/209/209 213/213/213
f 72/72/72 210/210/210 213/213/213
f 213/213/213 209/209/209 212/212/212
f 72/72/72 213/213/213 214/214/214
f 66/66/66 72/72/72 214/214/214
f 213/213/213 212/212/212 215/215/215
f 214/214/214 213/213/213 215/215/215
f 212/212/212 211/211/211 216/216/216
f 215/215/215 212/212/212 216/216/216
f 211/211/211 204/204/204 217/217/217
f 216/216/216 211/211/211 217/217/217
f 66/66/66 214/214/214 218/218/218
f 51/51/51 66/66/66 218/218/218
f 214/214/214 215/215/215 219/219/219
f 218/218/218 214/214/214 219/219/219
f 215/215/215 216/216/216 220/220/220
f 219/219/219 215/215/215 220/220/220
f 51/51/51 218/218/218 221/221/221
f 40/40/40 51/51/51 221/221/221
f 40/40/40 221/221/221 39/39/39
f 218/218/218 219/219/219 222/222/222
f 221/221/221 218/218/218 222/222/222
f 39/39/39 221/221/221 223/223/223
f 221/221/221 222/222/222 223/223/223
f 39/39/39 223/223/223 37/37/37
f 222/222/222 219/219/219 224/224/224
f 219/219/219 220/220/220 224/224/224
f 220/220/220 216/216/216 225/225/225
f 216/216/216 217/217/217 225/225/225
f 37/37/37 223/223/223 226/226/226
f 37/37/37 226/226/226 38/38/38
f 38/38/38 226/226/226 227/227/227
f 223/223/223 222/222/222 228/228/228
f 223/223/223 228/228/228 226/226/226
f 222/222/222 224/224/224 228/228/228
f 226/226/226 229/229/229 227/227/227
f 226/226/226 228/228/228 229/229/229
f 227/227/227 229/229/229 230/230/230
f 224/224/224 220/220/220 231/231/231
f 220/220/220 225/225/225 231/231/231
f 228/228/228 224/224/224 232/232/232
f 228/228/228 232/232/232 229/229/229
f 224/224/224 231/231/231 232/232/232
f 229/229/229 233/233/233 230/230/230
f 229/229/229 232/232/232 233/233/233
f 230/230/230 233/233/233 234/234/234
f 232/232/232 231/231/231 235/235/235
f 232/232/232 235/235/235 233/233/233
f 233/233/233 236/236/236 234/234/234
f 233/233/233 235/235/235 236/236/236
f 234/234/234 236/236/236 237/237/237
f 231/231/231 225/225/225 238/238/238
f 231/231/231 238/238/238 235/235/235
f 236/236/236 239/239/239 237/237/237
f 237/237/237 239/239/239 240/240/240
f 235/235/235 241/241/241 236/236/236
f 235/235/235 238/238/238 241/241/241
f 236/236/236 241/241/241 239/239/239
f 225/225/225 242/242/242 238/238/238
f 225/225/225 217/217/217 242/242/242
f 239/239/239 243/243/243 240/240/240
f 240/240/240 243/243/243 244/244/244
f 241/241/241 245/245/245 239/239/239
f 239/239/239 245/245/245 243/243/243
f 238/238/238 246/246/246 241/241/241
f 238/238/238 242/242/242 246/246/246
f 241/241/241 246/246/246 245/245/245
f 217/217/217 247/247/247 242/242/242
f 217/217/217 204/204/204 247/247/247
f 204/204/204 199/199/199 247/247/247
f 247/247/247 199/199/199 200/200/200
f 242/242/242 247/247/247 248/248/248
f 242/242/242 248/248/248 246/246/246
f 247/247/247 200/200/200 248/248/248
f 243/243/243 249/249/249 244/244/244
f 244/244/244 249/249/249 250/250/250
f 249/249/249 251/251/251 250/250/250
f 245/245/245 252/252/252 243/243/243
f 243/243/243 252/252/252 249/249/249
f 246/246/246 253/253/253 245/245/245
f 246/246/246 248/248/248 253/253/253
f 245/245/245 253/253/253 252/252/252
f 248/248/248 200/200/200 254/254/254
f 248/248/248 254/254/254 253/253/253
f 200/200/200 192/192/192 254/254/254
f 254/254/254 192/192/192 191/191/191
f 249/249/249 255/255/255 251/251/251
f 252/252/252 255/255/255 249/249/249
f 255/255/255 190/190/190 251/251/251
f 255/255/255 189/189/189 190/190/190
f 253/253/253 256/256/256 252/252/252
f 253/253/253 254/254/254 256/256/256
f 254/254/254 191/191/191 256/256/256
f 256/256/256 191/191/191 189/189/189
f 256/256/256 189/189/189 255/255/255
f 252/252/252 256/256/256 255/255/255
