g JieMao
v 0.204218253 -0.317713439 6.70868921
v 0.20689787 -0.311667144 6.71700239
v 0.220147356 -0.314506173 6.71828413
v 0.216736123 -0.321875215 6.7110405
v 0.198840544 -0.327804327 6.69827366
v 0.230112121 -0.323486894 6.70902014
v 0.234051913 -0.313489288 6.71713734
v 0.208780095 -0.334655941 6.70049953
v 0.19185251 -0.337641478 6.68895864
v 0.220169902 -0.339261353 6.69756842
v 0.241966411 -0.323095798 6.70340538
v 0.247188181 -0.3092013 6.71382999
v 0.26065895 -0.301591992 6.70808172
v 0.255559504 -0.32086277 6.69400883
v 0.243643597 -0.341688484 6.67980719
v 0.231354117 -0.341433018 6.69074011
v 0.226795226 -0.35861212 6.66853809
v 0.218160376 -0.355874777 6.67990446
v 0.207288221 -0.370968401 6.65885973
v 0.200529307 -0.345487088 6.69068146
v 0.184036493 -0.347721815 6.68112707
v 0.209264904 -0.351709396 6.68722105
v 0.201312974 -0.367110312 6.66971493
v 0.186708793 -0.37972495 6.65254688
v 0.189324781 -0.355360448 6.6812458
v 0.171540558 -0.356344223 6.67452383
v 0.195634946 -0.361948609 6.67703342
v 0.175127119 -0.363531709 6.67348623
v 0.156186208 -0.362700522 6.67105818
v 0.178773016 -0.370120078 6.6690197
v 0.158334255 -0.370098829 6.66886902
v 0.139077201 -0.368859559 6.67046547
v 0.182552397 -0.375550687 6.66212797
v 0.139836639 -0.376303673 6.6674881
v 0.123093538 -0.371544838 6.67241812
v 0.160612598 -0.37664929 6.66412878
v 0.162844449 -0.382061064 6.65738583
v 0.164639145 -0.386186123 6.64862537
v 0.142753735 -0.391119003 6.64789724
v 0.122915342 -0.378463328 6.66893911
v 0.107029513 -0.371004939 6.67471409
v 0.105101496 -0.378750473 6.67124701
v 0.140692502 -0.381894559 6.66258907
v 0.141694754 -0.387194932 6.65606546
v 0.122442529 -0.392615318 6.64964581
v 0.122732967 -0.384375244 6.66392326
v 0.103376493 -0.384470195 6.66649866
v 0.122566774 -0.388871193 6.65742588
v 0.100107163 -0.39141497 6.6532073
v 0.102039255 -0.387933612 6.6603508
v 0.282295555 -0.31096679 6.75427437
v 0.285891831 -0.293501079 6.75426579
v 0.268369943 -0.298575491 6.7379694
v 0.264912635 -0.313556582 6.73816681
v 0.272205353 -0.331743658 6.75544786
v 0.2495168 -0.303476304 6.72513485
v 0.256139457 -0.331957966 6.73918915
v 0.25739646 -0.352435678 6.75733185
v 0.246209219 -0.315609366 6.7258215
v 0.230803981 -0.307393223 6.71784639
v 0.243294954 -0.350001723 6.74092627
v 0.232563317 -0.373521864 6.75986433
v 0.238746777 -0.331270903 6.72717047
v 0.227352545 -0.316285133 6.71808195
v 0.207149088 -0.311461389 6.72222233
v 0.20511958 -0.316303104 6.72369957
v 0.220981434 -0.328856647 6.71889591
v 0.200186253 -0.32441166 6.72478437
v 0.227862507 -0.346597403 6.72874308
v 0.211843967 -0.341754824 6.72001457
v 0.193168059 -0.334594101 6.72621059
v 0.222596586 -0.36838156 6.74362373
v 0.198551953 -0.355424196 6.72187996
v 0.18335937 -0.346147478 6.72744846
v 0.171447337 -0.358651698 6.72848558
v 0.211174771 -0.362334669 6.73140621
v 0.201572105 -0.38388586 6.74586773
v 0.209445655 -0.389438957 6.76156425
v 0.180685058 -0.402927548 6.76103306
v 0.182290241 -0.369337022 6.72407961
v 0.158365175 -0.368967742 6.72883034
v 0.192473158 -0.377164602 6.7338829
v 0.176359475 -0.396696568 6.74644041
v 0.148593947 -0.411490619 6.75863695
v 0.165278494 -0.380419314 6.72552681
v 0.139745742 -0.378457218 6.72738743
v 0.171204865 -0.389147907 6.7351017
v 0.147219568 -0.405821204 6.7449441
v 0.117120966 -0.414830953 6.74845552
v 0.143095404 -0.390424669 6.72593117
v 0.121861301 -0.383622378 6.72345972
v 0.145377278 -0.39877066 6.73415899
v 0.119708449 -0.40951097 6.73704576
v 0.094932802 -0.41383639 6.73258638
v 0.121853083 -0.402932227 6.72840977
v 0.0998713002 -0.408417314 6.72408438
v 0.0778656006 -0.409170747 6.71647978
v 0.122982398 -0.395038337 6.722651
v 0.0837277621 -0.403712302 6.70979595
v 0.0652562529 -0.402403355 6.69963312
v 0.104368001 -0.401979327 6.7183404
v 0.107325427 -0.394413441 6.71520233
v 0.108392745 -0.383570313 6.71730328
v 0.0719066188 -0.397329241 6.69487667
v 0.0566725656 -0.396056026 6.68543148
v 0.063904196 -0.391842306 6.68226051
v 0.0707182363 -0.387052804 6.68154716
v 0.0893134251 -0.397495419 6.70590544
v 0.0936300159 -0.390492499 6.70439339
v 0.0967066586 -0.380521119 6.70818853
v 0.0869752541 -0.376741976 6.69764805
v 0.0782349855 -0.391675979 6.69284582
v 0.0758609995 -0.381630242 6.68212557
v 0.0832201168 -0.385393769 6.69281769
v 0.0791313425 -0.374106854 6.68641949
v -0.204218253 -0.317713439 6.70868921
v -0.220147356 -0.314506173 6.71828413
v -0.20689787 -0.311667144 6.71700239
v -0.216736123 -0.321875215 6.7110405
v -0.198840544 -0.327804327 6.69827366
v -0.230112121 -0.323486894 6.70902014
v -0.234051913 -0.313489288 6.71713734
v -0.208780095 -0.334655941 6.70049953
v -0.19185251 -0.337641478 6.68895864
v -0.220169902 -0.339261353 6.69756842
v -0.241966411 -0.323095798 6.70340538
v -0.247188181 -0.3092013 6.71382999
v -0.26065895 -0.301591992 6.70808172
v -0.255559504 -0.32086277 6.69400883
v -0.243643597 -0.341688484 6.67980719
v -0.231354117 -0.341433018 6.69074011
v -0.226795226 -0.35861212 6.66853809
v -0.218160376 -0.355874777 6.67990446
v -0.207288221 -0.370968401 6.65885973
v -0.200529307 -0.345487088 6.69068146
v -0.184036493 -0.347721815 6.68112707
v -0.209264904 -0.351709396 6.68722105
v -0.201312974 -0.367110312 6.66971493
v -0.186708793 -0.37972495 6.65254688
v -0.189324781 -0.355360448 6.6812458
v -0.171540558 -0.356344223 6.67452383
v -0.195634946 -0.361948609 6.67703342
v -0.175127119 -0.363531709 6.67348623
v -0.156186208 -0.362700522 6.67105818
v -0.178773016 -0.370120078 6.6690197
v -0.158334255 -0.370098829 6.66886902
v -0.139077201 -0.368859559 6.67046547
v -0.182552397 -0.375550687 6.66212797
v -0.139836639 -0.376303673 6.6674881
v -0.123093538 -0.371544838 6.67241812
v -0.160612598 -0.37664929 6.66412878
v -0.162844449 -0.382061064 6.65738583
v -0.164639145 -0.386186123 6.64862537
v -0.142753735 -0.391119003 6.64789724
v -0.122915342 -0.378463328 6.66893911
v -0.107029513 -0.371004939 6.67471409
v -0.105101496 -0.378750473 6.67124701
v -0.140692502 -0.381894559 6.66258907
v -0.141694754 -0.387194932 6.65606546
v -0.122442529 -0.392615318 6.64964581
v -0.122732967 -0.384375244 6.66392326
v -0.103376493 -0.384470195 6.66649866
v -0.122566774 -0.388871193 6.65742588
v -0.100107163 -0.39141497 6.6532073
v -0.102039255 -0.387933612 6.6603508
v -0.282295555 -0.31096679 6.75427437
v -0.268369943 -0.298575491 6.7379694
v -0.285891831 -0.293501079 6.75426579
v -0.264912635 -0.313556582 6.73816681
v -0.272205353 -0.331743658 6.75544786
v -0.2495168 -0.303476304 6.72513485
v -0.256139457 -0.331957966 6.73918915
v -0.25739646 -0.352435678 6.75733185
v -0.246209219 -0.315609366 6.7258215
v -0.230803981 -0.307393223 6.71784639
v -0.243294954 -0.350001723 6.74092627
v -0.232563317 -0.373521864 6.75986433
v -0.238746777 -0.331270903 6.72717047
v -0.227352545 -0.316285133 6.71808195
v -0.207149088 -0.311461389 6.72222233
v -0.20511958 -0.316303104 6.72369957
v -0.220981434 -0.328856647 6.71889591
v -0.200186253 -0.32441166 6.72478437
v -0.227862507 -0.346597403 6.72874308
v -0.211843967 -0.341754824 6.72001457
v -0.193168059 -0.334594101 6.72621059
v -0.222596586 -0.36838156 6.74362373
v -0.198551953 -0.355424196 6.72187996
v -0.18335937 -0.346147478 6.72744846
v -0.171447337 -0.358651698 6.72848558
v -0.211174771 -0.362334669 6.73140621
v -0.201572105 -0.38388586 6.74586773
v -0.209445655 -0.389438957 6.76156425
v -0.180685058 -0.402927548 6.76103306
v -0.182290241 -0.369337022 6.72407961
v -0.158365175 -0.368967742 6.72883034
v -0.192473158 -0.377164602 6.7338829
v -0.176359475 -0.396696568 6.74644041
v -0.148593947 -0.411490619 6.75863695
v -0.165278494 -0.380419314 6.72552681
v -0.139745742 -0.378457218 6.72738743
v -0.171204865 -0.389147907 6.7351017
v -0.147219568 -0.405821204 6.7449441
v -0.117120966 -0.414830953 6.74845552
v -0.143095404 -0.390424669 6.72593117
v -0.121861301 -0.383622378 6.72345972
v -0.145377278 -0.39877066 6.73415899
v -0.119708449 -0.40951097 6.73704576
v -0.094932802 -0.41383639 6.73258638
v -0.121853083 -0.402932227 6.72840977
v -0.0998713002 -0.408417314 6.72408438
v -0.0778656006 -0.409170747 6.71647978
v -0.122982398 -0.395038337 6.722651
v -0.0837277621 -0.403712302 6.70979595
v -0.0652562529 -0.402403355 6.69963312
v -0.104368001 -0.401979327 6.7183404
v -0.107325427 -0.394413441 6.71520233
v -0.108392745 -0.383570313 6.71730328
v -0.0719066188 -0.397329241 6.69487667
v -0.0566725656 -0.396056026 6.68543148
v -0.063904196 -0.391842306 6.68226051
v -0.0707182363 -0.387052804 6.68154716
v -0.0893134251 -0.397495419 6.70590544
v -0.0936300159 -0.390492499 6.70439339
v -0.0967066586 -0.380521119 6.70818853
v -0.0869752541 -0.376741976 6.69764805
v -0.0782349855 -0.391675979 6.69284582
v -0.0758609995 -0.381630242 6.68212557
v -0.0832201168 -0.385393769 6.69281769
v -0.0791313425 -0.374106854 6.68641949
vt 0.504967391 0.262440562
vt 0.533483624 0.284152001
vt 0.584807456 0.247860163
vt 0.558185339 0.22269465
vt 0.461656123 0.232411832
vt 0.579272866 0.203443557
vt 0.611555755 0.235953912
vt 0.506686151 0.182729989
vt 0.417037725 0.205338329
vt 0.522086918 0.161223367
vt 0.600360453 0.184192449
vt 0.638304055 0.224047676
vt 0.712049186 0.195346326
vt 0.654721797 0.128103614
vt 0.575309098 0.0728530809
vt 0.537487686 0.139716744
vt 0.492948532 0.0389094129
vt 0.474025875 0.1085352
vt 0.404948831 0.0244452544
vt 0.453870684 0.153069496
vt 0.374011666 0.178918496
vt 0.46394828 0.130802348
vt 0.401328862 0.0890384242
vt 0.322602004 0.0256264172
vt 0.393927276 0.132531807
vt 0.321330279 0.16348204
vt 0.397628069 0.110785112
vt 0.32836622 0.120825633
vt 0.2662386 0.161211997
vt 0.327347279 0.10071446
vt 0.259671628 0.120037928
vt 0.205049425 0.168037757
vt 0.326328367 0.0806032941
vt 0.191350386 0.132851779
vt 0.152638271 0.187231153
vt 0.256577492 0.101483352
vt 0.253483325 0.0829287693
vt 0.244685397 0.0388835073
vt 0.168967709 0.0583985075
vt 0.135227948 0.155187815
vt 0.1048581 0.216187224
vt 0.0780866221 0.185356408
vt 0.185762286 0.114847213
vt 0.180174172 0.0968426391
vt 0.103124604 0.084960714
vt 0.126427114 0.13708058
vt 0.0651282519 0.168999478
vt 0.117626257 0.11897333
vt 0.0281908754 0.122687347
vt 0.052169878 0.152642563
vt 0.929804921 0.52162534
vt 0.967679441 0.475082815
vt 0.87610358 0.385755837
vt 0.846633613 0.425618768
vt 0.859120786 0.56115365
vt 0.832645714 0.350259155
vt 0.788629889 0.461721331
vt 0.773465633 0.59970355
vt 0.804621279 0.381601244
vt 0.789187849 0.314762473
vt 0.720728278 0.489106983
vt 0.663360476 0.629501104
vt 0.754413128 0.414684683
vt 0.762608945 0.337583721
vt 0.699320138 0.239385799
vt 0.683916926 0.249945655
vt 0.720196366 0.367648035
vt 0.654512465 0.266385287
vt 0.696129441 0.441087425
vt 0.671530604 0.393067837
vt 0.615327179 0.287030786
vt 0.639371514 0.514479697
vt 0.608116746 0.415247828
vt 0.566478848 0.310081005
vt 0.511339784 0.335367024
vt 0.62374413 0.464863777
vt 0.551711679 0.531063318
vt 0.560102642 0.64237088
vt 0.448709249 0.631449997
vt 0.534286082 0.432126522
vt 0.457415074 0.354020327
vt 0.54299891 0.48159492
vt 0.457906306 0.533334613
vt 0.342363387 0.598532856
vt 0.464404821 0.441622674
vt 0.388905525 0.363998502
vt 0.461155564 0.487478644
vt 0.36133191 0.515321851
vt 0.249938026 0.538119972
vt 0.378707409 0.433454156
vt 0.328574091 0.356776953
vt 0.370019674 0.474388003
vt 0.278179914 0.474356383
vt 0.181216255 0.46628654
vt 0.292230189 0.442925185
vt 0.217646524 0.422089279
vt 0.137426436 0.397378176
vt 0.306280434 0.411493987
vt 0.173722327 0.36185807
vt 0.100951143 0.331170052
vt 0.236358464 0.399450868
vt 0.255070388 0.376812488
vt 0.287660748 0.334707677
vt 0.140594646 0.303741187
vt 0.0771756396 0.275422603
vt 0.115101472 0.258515269
vt 0.133792728 0.25064975
vt 0.191472605 0.344951898
vt 0.209222883 0.328045756
vt 0.252112865 0.301273376
vt 0.220150232 0.264330983
vt 0.158054948 0.292113096
vt 0.152483985 0.242784217
vt 0.175515234 0.280485004
vt 0.188328966 0.229499921
vt 0.504967391 0.262440562
vt 0.584807456 0.247860163
vt 0.533483624 0.284152001
vt 0.558185339 0.22269465
vt 0.461656123 0.232411832
vt 0.579272866 0.203443557
vt 0.611555755 0.235953912
vt 0.506686151 0.182729989
vt 0.417037725 0.205338329
vt 0.522086918 0.161223367
vt 0.600360453 0.184192449
vt 0.638304055 0.224047676
vt 0.712049186 0.195346326
vt 0.654721797 0.128103614
vt 0.575309098 0.0728530809
vt 0.537487686 0.139716744
vt 0.492948532 0.0389094129
vt 0.474025875 0.1085352
vt 0.404948831 0.0244452544
vt 0.453870684 0.153069496
vt 0.374011666 0.178918496
vt 0.46394828 0.130802348
vt 0.401328862 0.0890384242
vt 0.322602004 0.0256264172
vt 0.393927276 0.132531807
vt 0.321330279 0.16348204
vt 0.397628069 0.110785112
vt 0.32836622 0.120825633
vt 0.2662386 0.161211997
vt 0.327347279 0.10071446
vt 0.259671628 0.120037928
vt 0.205049425 0.168037757
vt 0.326328367 0.0806032941
vt 0.191350386 0.132851779
vt 0.152638271 0.187231153
vt 0.256577492 0.101483352
vt 0.253483325 0.0829287693
vt 0.244685397 0.0388835073
vt 0.168967709 0.0583985075
vt 0.135227948 0.155187815
vt 0.1048581 0.216187224
vt 0.0780866221 0.185356408
vt 0.185762286 0.114847213
vt 0.180174172 0.0968426391
vt 0.103124604 0.084960714
vt 0.126427114 0.13708058
vt 0.0651282519 0.168999478
vt 0.117626257 0.11897333
vt 0.0281908754 0.122687347
vt 0.052169878 0.152642563
vt 0.929804921 0.52162534
vt 0.87610358 0.385755837
vt 0.967679441 0.475082815
vt 0.846633613 0.425618768
vt 0.859120786 0.56115365
vt 0.832645714 0.350259155
vt 0.788629889 0.461721331
vt 0.773465633 0.59970355
vt 0.804621279 0.381601244
vt 0.789187849 0.314762473
vt 0.720728278 0.489106983
vt 0.663360476 0.629501104
vt 0.754413128 0.414684683
vt 0.762608945 0.337583721
vt 0.699320138 0.239385799
vt 0.683916926 0.249945655
vt 0.720196366 0.367648035
vt 0.654512465 0.266385287
vt 0.696129441 0.441087425
vt 0.671530604 0.393067837
vt 0.615327179 0.287030786
vt 0.639371514 0.514479697
vt 0.608116746 0.415247828
vt 0.566478848 0.310081005
vt 0.511339784 0.335367024
vt 0.62374413 0.464863777
vt 0.551711679 0.531063318
vt 0.560102642 0.64237088
vt 0.448709249 0.631449997
vt 0.534286082 0.432126522
vt 0.457415074 0.354020327
vt 0.54299891 0.48159492
vt 0.457906306 0.533334613
vt 0.342363387 0.598532856
vt 0.464404821 0.441622674
vt 0.388905525 0.363998502
vt 0.461155564 0.487478644
vt 0.36133191 0.515321851
vt 0.249938026 0.538119972
vt 0.378707409 0.433454156
vt 0.328574091 0.356776953
vt 0.370019674 0.474388003
vt 0.278179914 0.474356383
vt 0.181216255 0.46628654
vt 0.292230189 0.442925185
vt 0.217646524 0.422089279
vt 0.137426436 0.397378176
vt 0.306280434 0.411493987
vt 0.173722327 0.36185807
vt 0.100951143 0.331170052
vt 0.236358464 0.399450868
vt 0.255070388 0.376812488
vt 0.287660748 0.334707677
vt 0.140594646 0.303741187
vt 0.0771756396 0.275422603
vt 0.115101472 0.258515269
vt 0.133792728 0.25064975
vt 0.191472605 0.344951898
vt 0.209222883 0.328045756
vt 0.252112865 0.301273376
vt 0.220150232 0.264330983
vt 0.158054948 0.292113096
vt 0.152483985 0.242784217
vt 0.175515234 0.280485004
vt 0.188328966 0.229499921
vn -0.348247647 -0.568281353 0.745506406
vn -0.279082239 -0.670467675 0.687448978
vn -0.0763369873 -0.684920967 0.724607468
vn -0.144014984 -0.630735695 0.762516916
vn -0.437133998 -0.433031261 0.788287878
vn 0.199299082 -0.663739979 0.720922351
vn 0.247680441 -0.670593143 0.699256122
vn -0.23673895 -0.54092598 0.80706495
vn -0.460094929 -0.344392598 0.818355918
vn 0.125342473 -0.6658746 0.735459208
vn 0.434570223 -0.651194394 0.622169197
vn 0.4777354 -0.624450266 0.617924631
vn 0.545455515 -0.601143181 0.584042013
vn 0.519841671 -0.633389354 0.573221207
vn 0.459832698 -0.710880697 0.532167792
vn 0.372813672 -0.709285498 0.598267615
vn 0.363208473 -0.801734805 0.474658847
vn 0.280770153 -0.781515598 0.557136893
vn 0.260229766 -0.854768038 0.449056894
vn -0.278374493 -0.499782354 0.820198357
vn -0.393430233 -0.280730903 0.875444293
vn 0.0483511016 -0.694105983 0.718247175
vn 0.19031547 -0.82192409 0.536862016
vn 0.199042231 -0.869957626 0.451171786
vn -0.245764926 -0.462720424 0.851756632
vn -0.237059772 -0.259970874 0.936065078
vn 0.00806395151 -0.702742219 0.7113989
vn -0.139110625 -0.44235608 0.885984898
vn -0.0450495593 -0.29055655 0.955796719
vn 0.0253601912 -0.687316239 0.725915551
vn 0.0120350299 -0.453226238 0.891314209
vn 0.101844177 -0.356739014 0.928636134
vn 0.148642972 -0.825901806 0.543867111
vn 0.122514248 -0.50699836 0.853195786
vn 0.135364741 -0.419367641 0.897667646
vn 0.0917866379 -0.681807756 0.725750208
vn 0.153722242 -0.823965073 0.545390785
vn 0.1804685 -0.87460047 0.45000574
vn 0.146952718 -0.884802699 0.442186832
vn 0.1311858 -0.541742325 0.830244303
vn 0.117781058 -0.438887268 0.89078927
vn 0.111911193 -0.560080826 0.820844233
vn 0.136439487 -0.703937709 0.697033644
vn 0.142298937 -0.836155057 0.529712856
vn 0.0660888851 -0.897940695 0.435126096
vn 0.109480061 -0.74249208 0.660847723
vn 0.0793025494 -0.76471585 0.639469087
vn 0.0778523162 -0.862699449 0.499688566
vn 0.0206414461 -0.900977314 0.433374941
vn 0.0370646194 -0.876975656 0.479103178
vn 0.683868229 -0.235171944 -0.690665245
vn 0.690199554 -0.154536098 -0.706925094
vn 0.646524549 -0.160287067 -0.745864689
vn 0.62422508 -0.252789706 -0.739216089
vn 0.648959398 -0.413912237 -0.638379514
vn 0.503898799 -0.167426914 -0.847380817
vn 0.587471128 -0.403974175 -0.701200902
vn 0.581573665 -0.569293559 -0.581099749
vn 0.473791391 -0.229626849 -0.8501724
vn 0.195702583 -0.127236754 -0.972374082
vn 0.523102462 -0.550715923 -0.650442779
vn 0.496774048 -0.69277066 -0.522766113
vn 0.450226009 -0.340051562 -0.825627983
vn 0.0908471942 -0.122649409 -0.988283277
vn -0.20937252 -0.0383320786 -0.977084339
vn -0.238301188 0.0192473959 -0.971000552
vn 0.0733726472 -0.139354527 -0.987520456
vn -0.263299376 0.0702125803 -0.96215564
vn 0.409893155 -0.460835844 -0.787158132
vn 0.0561455525 -0.18431364 -0.981262505
vn -0.269232839 0.11022085 -0.956747055
vn 0.456966847 -0.653557122 -0.603360951
vn 0.0459592938 -0.210371777 -0.976540625
vn -0.258890957 0.14105992 -0.955550969
vn -0.21876289 0.168308154 -0.96115309
vn 0.373636931 -0.552006185 -0.74544245
vn 0.404210657 -0.716435671 -0.568624318
vn 0.435093284 -0.756170332 -0.4887743
vn 0.338486016 -0.82856077 -0.445997953
vn 0.0617769212 -0.237170145 -0.969501972
vn -0.124981552 0.179919451 -0.975709319
vn 0.345226765 -0.612806857 -0.710834801
vn 0.325290471 -0.785111666 -0.527053833
vn 0.253948361 -0.879042983 -0.403476864
vn 0.099310942 -0.262628257 -0.959772766
vn 0.040496964 0.15200761 -0.987549424
vn 0.301079959 -0.673209548 -0.675381124
vn 0.262750983 -0.836716056 -0.480487376
vn 0.225006685 -0.894094765 -0.387255043
vn 0.187115252 -0.29199186 -0.937938511
vn 0.285881072 0.122755006 -0.950370014
vn 0.275500983 -0.710261345 -0.647786915
vn 0.252924263 -0.848367155 -0.465083241
vn 0.212638333 -0.877192378 -0.43048647
vn 0.306257278 -0.697854936 -0.647460341
vn 0.25706175 -0.819929361 -0.511502683
vn 0.207074791 -0.845064402 -0.492936194
vn 0.333866447 -0.280399412 -0.89994967
vn 0.277046978 -0.782958806 -0.556974351
vn 0.23677507 -0.823167264 -0.516074717
vn 0.365061104 -0.642844677 -0.673410058
vn 0.499047846 -0.231910899 -0.834966183
vn 0.52558279 0.107039601 -0.843981743
vn 0.323370457 -0.764412105 -0.557768404
vn 0.252130449 -0.818052351 -0.516933799
vn 0.34111917 -0.763679206 -0.548116565
vn 0.517386615 -0.615719974 -0.59430629
vn 0.430916876 -0.601736426 -0.672475815
vn 0.625206292 -0.224585012 -0.747448027
vn 0.682501435 0.0679142848 -0.727721989
vn 0.773975134 0.0104097975 -0.633130491
vn 0.49982962 -0.598112464 -0.626443803
vn 0.720129967 -0.321936607 -0.614629745
vn 0.711112738 -0.253176153 -0.655911982
vn 0.8171826 -0.0302553866 -0.575584173
vn 0.348247647 -0.568281353 0.745506406
vn 0.0763369799 -0.684920967 0.724607527
vn 0.279082239 -0.670467675 0.687448978
vn 0.144014984 -0.630735695 0.762516916
vn 0.437133998 -0.433031201 0.788287878
vn -0.199299082 -0.663739979 0.720922351
vn -0.247680455 -0.670593143 0.699256122
vn 0.236738905 -0.54092592 0.80706495
vn 0.460094929 -0.344392598 0.818355918
vn -0.125342458 -0.6658746 0.735459208
vn -0.434570253 -0.651194394 0.622169197
vn -0.4777354 -0.624450207 0.617924571
vn -0.545455515 -0.601143181 0.584042013
vn -0.519841671 -0.633389354 0.573221207
vn -0.459832698 -0.710880756 0.532167792
vn -0.372813553 -0.709285557 0.598267555
vn -0.363208443 -0.801734805 0.474658877
vn -0.280770123 -0.781515598 0.557136893
vn -0.260229737 -0.854767919 0.449056894
vn 0.278374493 -0.499782324 0.820198357
vn 0.393430203 -0.280730873 0.875444293
vn -0.0483510904 -0.694105983 0.718247175
vn -0.1903155 -0.82192409 0.536862016
vn -0.199042216 -0.869957626 0.451171666
vn 0.245764926 -0.462720364 0.851756632
vn 0.237059772 -0.259970874 0.936065078
vn -0.00806394219 -0.702742219 0.7113989
vn 0.139110625 -0.44235608 0.885984898
vn 0.0450495631 -0.29055655 0.955796719
vn -0.0253601912 -0.687316239 0.725915551
vn -0.0120350253 -0.453226209 0.891314268
vn -0.101844177 -0.356739014 0.928636134
vn -0.148642972 -0.825901806 0.543867111
vn -0.122514248 -0.50699836 0.853195786
vn -0.135364741 -0.419367611 0.897667646
vn -0.0917866379 -0.681807756 0.725750208
vn -0.153722242 -0.823965073 0.545390785
vn -0.1804685 -0.87460047 0.45000574
vn -0.146952748 -0.884802699 0.442186832
vn -0.1311858 -0.541742325 0.830244303
vn -0.117781058 -0.438887268 0.89078927
vn -0.111911207 -0.560080826 0.820844233
vn -0.136439487 -0.703937709 0.697033763
vn -0.142298922 -0.836155057 0.529712856
vn -0.0660889074 -0.897940695 0.435126185
vn -0.109480061 -0.74249208 0.660847723
vn -0.0793025494 -0.76471585 0.639469087
vn -0.0778523088 -0.862699509 0.499688476
vn -0.0206414461 -0.900977254 0.433374941
vn -0.0370646194 -0.876975656 0.479103178
vn -0.683868229 -0.235171944 -0.690665245
vn -0.646524549 -0.160287067 -0.745864689
vn -0.690199554 -0.154536098 -0.706925094
vn -0.62422508 -0.252789706 -0.739216089
vn -0.648959398 -0.413912237 -0.638379514
vn -0.503898799 -0.167426929 -0.847380817
vn -0.587471128 -0.403974116 -0.701200902
vn -0.581573606 -0.569293559 -0.581099749
vn -0.473791391 -0.229626894 -0.8501724
vn -0.195702583 -0.127236754 -0.972374082
vn -0.523102522 -0.550715923 -0.650442779
vn -0.496774048 -0.6927706 -0.522766173
vn -0.450226009 -0.340051562 -0.825627983
vn -0.0908472091 -0.122649409 -0.988283277
vn 0.20937252 -0.0383320786 -0.977084339
vn 0.238301188 0.0192473885 -0.971000552
vn -0.0733726472 -0.139354527 -0.987520456
vn 0.263299376 0.0702125877 -0.96215564
vn -0.409893155 -0.460835844 -0.787158132
vn -0.0561455525 -0.18431367 -0.981262505
vn 0.269232839 0.11022085 -0.956747055
vn -0.456966877 -0.653557122 -0.603360951
vn -0.0459592938 -0.210371777 -0.976540625
vn 0.258890957 0.14105992 -0.955550969
vn 0.21876289 0.168308154 -0.96115309
vn -0.373636961 -0.552006185 -0.74544245
vn -0.404210716 -0.716435552 -0.568624437
vn -0.435093373 -0.756170273 -0.488774329
vn -0.338486046 -0.82856077 -0.445997983
vn -0.0617769137 -0.23717007 -0.969501972
vn 0.124981537 0.179919407 -0.975709319
vn -0.345226884 -0.612806857 -0.710834742
vn -0.325290471 -0.785111666 -0.527053833
vn -0.253948361 -0.879042983 -0.403476864
vn -0.0993109345 -0.262628227 -0.959772766
vn -0.040496964 0.152007595 -0.987549424
vn -0.301079959 -0.673209548 -0.675381124
vn -0.262750983 -0.836716056 -0.480487376
vn -0.225006685 -0.894094765 -0.387255132
vn -0.187115207 -0.29199186 -0.937938511
vn -0.285881072 0.122755021 -0.950370014
vn -0.275500923 -0.710261405 -0.647786975
vn -0.252924263 -0.848367155 -0.465083241
vn -0.212638333 -0.877192378 -0.43048647
vn -0.306257278 -0.697854936 -0.647460341
vn -0.25706175 -0.819929361 -0.511502743
vn -0.207074836 -0.845064402 -0.492936194
vn -0.333866447 -0.280399442 -0.89994967
vn -0.277046978 -0.782958806 -0.556974351
vn -0.23677513 -0.823167264 -0.516074717
vn -0.365061045 -0.642844677 -0.673410058
vn -0.499047846 -0.231910899 -0.834966183
vn -0.52558279 0.107039601 -0.843981743
vn -0.323370516 -0.764412105 -0.557768464
vn -0.252130479 -0.818052351 -0.516933799
vn -0.34111923 -0.763679206 -0.548116624
vn -0.517386556 -0.615719974 -0.59430629
vn -0.430916876 -0.601736486 -0.672475874
vn -0.625206292 -0.224585012 -0.747448027
vn -0.682501435 0.0679142699 -0.727721989
vn -0.773975074 0.010409791 -0.633130491
vn -0.49982959 -0.598112524 -0.626443863
vn -0.720129907 -0.321936578 -0.614629805
vn -0.711112738 -0.253176153 -0.655911982
vn -0.8171826 -0.0302553866 -0.575584233
g JieMao_0
f 3/3/3 2/2/2 1/1/1
f 4/4/4 3/3/3 1/1/1
f 4/4/4 1/1/1 5/5/5
f 3/3/3 4/4/4 6/6/6
f 7/7/7 3/3/3 6/6/6
f 8/8/8 4/4/4 5/5/5
f 8/8/8 5/5/5 9/9/9
f 6/6/6 4/4/4 10/10/10
f 4/4/4 8/8/8 10/10/10
f 7/7/7 6/6/6 11/11/11
f 12/12/12 7/7/7 11/11/11
f 13/13/13 12/12/12 11/11/11
f 14/14/14 13/13/13 11/11/11
f 14/14/14 11/11/11 15/15/15
f 11/11/11 6/6/6 16/16/16
f 11/11/11 16/16/16 15/15/15
f 6/6/6 10/10/10 16/16/16
f 15/15/15 16/16/16 17/17/17
f 16/16/16 18/18/18 17/17/17
f 16/16/16 10/10/10 18/18/18
f 17/17/17 18/18/18 19/19/19
f 20/20/20 8/8/8 9/9/9
f 20/20/20 9/9/9 21/21/21
f 10/10/10 8/8/8 22/22/22
f 10/10/10 22/22/22 18/18/18
f 8/8/8 20/20/20 22/22/22
f 18/18/18 23/23/23 19/19/19
f 18/18/18 22/22/22 23/23/23
f 19/19/19 23/23/23 24/24/24
f 25/25/25 20/20/20 21/21/21
f 22/22/22 20/20/20 25/25/25
f 25/25/25 21/21/21 26/26/26
f 27/27/27 22/22/22 25/25/25
f 22/22/22 27/27/27 23/23/23
f 28/28/28 25/25/25 26/26/26
f 27/27/27 25/25/25 28/28/28
f 28/28/28 26/26/26 29/29/29
f 23/23/23 27/27/27 30/30/30
f 30/30/30 27/27/27 28/28/28
f 31/31/31 28/28/28 29/29/29
f 30/30/30 28/28/28 31/31/31
f 31/31/31 29/29/29 32/32/32
f 23/23/23 33/33/33 24/24/24
f 33/33/33 23/23/23 30/30/30
f 34/34/34 31/31/31 32/32/32
f 34/34/34 32/32/32 35/35/35
f 36/36/36 30/30/30 31/31/31
f 33/33/33 30/30/30 36/36/36
f 36/36/36 31/31/31 34/34/34
f 24/24/24 33/33/33 37/37/37
f 37/37/37 33/33/33 36/36/36
f 38/38/38 24/24/24 37/37/37
f 38/38/38 37/37/37 39/39/39
f 40/40/40 34/34/34 35/35/35
f 40/40/40 35/35/35 41/41/41
f 42/42/42 40/40/40 41/41/41
f 43/43/43 36/36/36 34/34/34
f 37/37/37 36/36/36 43/43/43
f 43/43/43 34/34/34 40/40/40
f 37/37/37 44/44/44 39/39/39
f 44/44/44 37/37/37 43/43/43
f 39/39/39 44/44/44 45/45/45
f 46/46/46 40/40/40 42/42/42
f 46/46/46 43/43/43 40/40/40
f 44/44/44 43/43/43 46/46/46
f 47/47/47 46/46/46 42/42/42
f 44/44/44 48/48/48 45/45/45
f 48/48/48 44/44/44 46/46/46
f 48/48/48 46/46/46 47/47/47
f 45/45/45 48/48/48 49/49/49
f 50/50/50 48/48/48 47/47/47
f 48/48/48 50/50/50 49/49/49
f 53/53/53 52/52/52 51/51/51
f 54/54/54 53/53/53 51/51/51
f 54/54/54 51/51/51 55/55/55
f 56/56/56 53/53/53 54/54/54
f 57/57/57 54/54/54 55/55/55
f 57/57/57 55/55/55 58/58/58
f 59/59/59 56/56/56 54/54/54
f 59/59/59 54/54/54 57/57/57
f 60/60/60 56/56/56 59/59/59
f 61/61/61 57/57/57 58/58/58
f 61/61/61 58/58/58 62/62/62
f 63/63/63 59/59/59 57/57/57
f 63/63/63 57/57/57 61/61/61
f 64/64/64 60/60/60 59/59/59
f 64/64/64 59/59/59 63/63/63
f 65/65/65 60/60/60 64/64/64
f 66/66/66 65/65/65 64/64/64
f 66/66/66 64/64/64 67/67/67
f 67/67/67 64/64/64 63/63/63
f 68/68/68 66/66/66 67/67/67
f 69/69/69 63/63/63 61/61/61
f 67/67/67 63/63/63 69/69/69
f 68/68/68 67/67/67 70/70/70
f 70/70/70 67/67/67 69/69/69
f 71/71/71 68/68/68 70/70/70
f 72/72/72 61/61/61 62/62/62
f 69/69/69 61/61/61 72/72/72
f 71/71/71 70/70/70 73/73/73
f 74/74/74 71/71/71 73/73/73
f 74/74/74 73/73/73 75/75/75
f 70/70/70 69/69/69 76/76/76
f 76/76/76 69/69/69 72/72/72
f 73/73/73 70/70/70 76/76/76
f 72/72/72 62/62/62 77/77/77
f 76/76/76 72/72/72 77/77/77
f 62/62/62 78/78/78 77/77/77
f 77/77/77 78/78/78 79/79/79
f 73/73/73 80/80/80 75/75/75
f 75/75/75 80/80/80 81/81/81
f 73/73/73 76/76/76 82/82/82
f 82/82/82 76/76/76 77/77/77
f 80/80/80 73/73/73 82/82/82
f 83/83/83 77/77/77 79/79/79
f 82/82/82 77/77/77 83/83/83
f 83/83/83 79/79/79 84/84/84
f 80/80/80 85/85/85 81/81/81
f 81/81/81 85/85/85 86/86/86
f 80/80/80 82/82/82 87/87/87
f 87/87/87 82/82/82 83/83/83
f 85/85/85 80/80/80 87/87/87
f 88/88/88 83/83/83 84/84/84
f 87/87/87 83/83/83 88/88/88
f 88/88/88 84/84/84 89/89/89
f 85/85/85 90/90/90 86/86/86
f 86/86/86 90/90/90 91/91/91
f 85/85/85 87/87/87 92/92/92
f 92/92/92 87/87/87 88/88/88
f 90/90/90 85/85/85 92/92/92
f 93/93/93 88/88/88 89/89/89
f 92/92/92 88/88/88 93/93/93
f 93/93/93 89/89/89 94/94/94
f 90/90/90 92/92/92 95/95/95
f 95/95/95 92/92/92 93/93/93
f 96/96/96 93/93/93 94/94/94
f 95/95/95 93/93/93 96/96/96
f 96/96/96 94/94/94 97/97/97
f 90/90/90 98/98/98 91/91/91
f 98/98/98 90/90/90 95/95/95
f 99/99/99 96/96/96 97/97/97
f 99/99/99 97/97/97 100/100/100
f 101/101/101 95/95/95 96/96/96
f 98/98/98 95/95/95 101/101/101
f 101/101/101 96/96/96 99/99/99
f 91/91/91 98/98/98 102/102/102
f 102/102/102 98/98/98 101/101/101
f 103/103/103 91/91/91 102/102/102
f 104/104/104 99/99/99 100/100/100
f 104/104/104 100/100/100 105/105/105
f 106/106/106 104/104/104 105/105/105
f 104/104/104 106/106/106 107/107/107
f 108/108/108 101/101/101 99/99/99
f 102/102/102 101/101/101 108/108/108
f 108/108/108 99/99/99 104/104/104
f 103/103/103 102/102/102 109/109/109
f 109/109/109 102/102/102 108/108/108
f 110/110/110 103/103/103 109/109/109
f 110/110/110 109/109/109 111/111/111
f 112/112/112 104/104/104 107/107/107
f 112/112/112 108/108/108 104/104/104
f 109/109/109 108/108/108 112/112/112
f 112/112/112 107/107/107 113/113/113
f 109/109/109 114/114/114 111/111/111
f 114/114/114 109/109/109 112/112/112
f 114/114/114 112/112/112 113/113/113
f 111/111/111 114/114/114 115/115/115
f 114/114/114 113/113/113 115/115/115
f 118/118/118 117/117/117 116/116/116
f 117/117/117 119/119/119 116/116/116
f 120/120/120 116/116/116 119/119/119
f 121/121/121 119/119/119 117/117/117
f 122/122/122 121/121/121 117/117/117
f 123/123/123 120/120/120 119/119/119
f 124/124/124 120/120/120 123/123/123
f 121/121/121 125/125/125 119/119/119
f 125/125/125 123/123/123 119/119/119
f 126/126/126 121/121/121 122/122/122
f 127/127/127 126/126/126 122/122/122
f 127/127/127 128/128/128 126/126/126
f 128/128/128 129/129/129 126/126/126
f 129/129/129 130/130/130 126/126/126
f 126/126/126 131/131/131 121/121/121
f 130/130/130 131/131/131 126/126/126
f 131/131/131 125/125/125 121/121/121
f 130/130/130 132/132/132 131/131/131
f 132/132/132 133/133/133 131/131/131
f 131/131/131 133/133/133 125/125/125
f 132/132/132 134/134/134 133/133/133
f 135/135/135 124/124/124 123/123/123
f 136/136/136 124/124/124 135/135/135
f 125/125/125 137/137/137 123/123/123
f 133/133/133 137/137/137 125/125/125
f 137/137/137 135/135/135 123/123/123
f 134/134/134 138/138/138 133/133/133
f 133/133/133 138/138/138 137/137/137
f 134/134/134 139/139/139 138/138/138
f 140/140/140 136/136/136 135/135/135
f 135/135/135 137/137/137 140/140/140
f 141/141/141 136/136/136 140/140/140
f 137/137/137 142/142/142 140/140/140
f 138/138/138 142/142/142 137/137/137
f 143/143/143 141/141/141 140/140/140
f 140/140/140 142/142/142 143/143/143
f 144/144/144 141/141/141 143/143/143
f 142/142/142 138/138/138 145/145/145
f 142/142/142 145/145/145 143/143/143
f 146/146/146 144/144/144 143/143/143
f 143/143/143 145/145/145 146/146/146
f 147/147/147 144/144/144 146/146/146
f 139/139/139 148/148/148 138/138/138
f 138/138/138 148/148/148 145/145/145
f 149/149/149 147/147/147 146/146/146
f 150/150/150 147/147/147 149/149/149
f 145/145/145 151/151/151 146/146/146
f 145/145/145 148/148/148 151/151/151
f 146/146/146 151/151/151 149/149/149
f 148/148/148 139/139/139 152/152/152
f 148/148/148 152/152/152 151/151/151
f 139/139/139 153/153/153 152/152/152
f 153/153/153 154/154/154 152/152/152
f 155/155/155 150/150/150 149/149/149
f 156/156/156 150/150/150 155/155/155
f 157/157/157 156/156/156 155/155/155
f 151/151/151 158/158/158 149/149/149
f 151/151/151 152/152/152 158/158/158
f 149/149/149 158/158/158 155/155/155
f 154/154/154 159/159/159 152/152/152
f 152/152/152 159/159/159 158/158/158
f 154/154/154 160/160/160 159/159/159
f 155/155/155 161/161/161 157/157/157
f 158/158/158 161/161/161 155/155/155
f 158/158/158 159/159/159 161/161/161
f 161/161/161 162/162/162 157/157/157
f 160/160/160 163/163/163 159/159/159
f 159/159/159 163/163/163 161/161/161
f 161/161/161 163/163/163 162/162/162
f 160/160/160 164/164/164 163/163/163
f 163/163/163 165/165/165 162/162/162
f 164/164/164 165/165/165 163/163/163
f 168/168/168 167/167/167 166/166/166
f 167/167/167 169/169/169 166/166/166
f 166/166/166 169/169/169 170/170/170
f 167/167/167 171/171/171 169/169/169
f 169/169/169 172/172/172 170/170/170
f 170/170/170 172/172/172 173/173/173
f 171/171/171 174/174/174 169/169/169
f 169/169/169 174/174/174 172/172/172
f 171/171/171 175/175/175 174/174/174
f 172/172/172 176/176/176 173/173/173
f 173/173/173 176/176/176 177/177/177
f 174/174/174 178/178/178 172/172/172
f 172/172/172 178/178/178 176/176/176
f 175/175/175 179/179/179 174/174/174
f 174/174/174 179/179/179 178/178/178
f 175/175/175 180/180/180 179/179/179
f 180/180/180 181/181/181 179/179/179
f 179/179/179 181/181/181 182/182/182
f 179/179/179 182/182/182 178/178/178
f 181/181/181 183/183/183 182/182/182
f 178/178/178 184/184/184 176/176/176
f 178/178/178 182/182/182 184/184/184
f 182/182/182 183/183/183 185/185/185
f 182/182/182 185/185/185 184/184/184
f 183/183/183 186/186/186 185/185/185
f 176/176/176 187/187/187 177/177/177
f 176/176/176 184/184/184 187/187/187
f 185/185/185 186/186/186 188/188/188
f 186/186/186 189/189/189 188/188/188
f 189/189/189 190/190/190 188/188/188
f 184/184/184 185/185/185 191/191/191
f 184/184/184 191/191/191 187/187/187
f 185/185/185 188/188/188 191/191/191
f 187/187/187 192/192/192 177/177/177
f 187/187/187 191/191/191 192/192/192
f 192/192/192 193/193/193 177/177/177
f 194/194/194 193/193/193 192/192/192
f 190/190/190 195/195/195 188/188/188
f 190/190/190 196/196/196 195/195/195
f 191/191/191 188/188/188 197/197/197
f 191/191/191 197/197/197 192/192/192
f 188/188/188 195/195/195 197/197/197
f 198/198/198 194/194/194 192/192/192
f 192/192/192 197/197/197 198/198/198
f 199/199/199 194/194/194 198/198/198
f 196/196/196 200/200/200 195/195/195
f 196/196/196 201/201/201 200/200/200
f 197/197/197 195/195/195 202/202/202
f 197/197/197 202/202/202 198/198/198
f 195/195/195 200/200/200 202/202/202
f 203/203/203 199/199/199 198/198/198
f 198/198/198 202/202/202 203/203/203
f 199/199/199 203/203/203 204/204/204
f 201/201/201 205/205/205 200/200/200
f 201/201/201 206/206/206 205/205/205
f 202/202/202 200/200/200 207/207/207
f 202/202/202 207/207/207 203/203/203
f 200/200/200 205/205/205 207/207/207
f 203/203/203 208/208/208 204/204/204
f 203/203/203 207/207/207 208/208/208
f 204/204/204 208/208/208 209/209/209
f 207/207/207 205/205/205 210/210/210
f 207/207/207 210/210/210 208/208/208
f 208/208/208 211/211/211 209/209/209
f 208/208/208 210/210/210 211/211/211
f 209/209/209 211/211/211 212/212/212
f 206/206/206 213/213/213 205/205/205
f 205/205/205 213/213/213 210/210/210
f 211/211/211 214/214/214 212/212/212
f 212/212/212 214/214/214 215/215/215
f 210/210/210 216/216/216 211/211/211
f 210/210/210 213/213/213 216/216/216
f 211/211/211 216/216/216 214/214/214
f 213/213/213 206/206/206 217/217/217
f 213/213/213 217/217/217 216/216/216
f 206/206/206 218/218/218 217/217/217
f 214/214/214 219/219/219 215/215/215
f 220/220/220 215/215/215 219/219/219
f 221/221/221 220/220/220 219/219/219
f 222/222/222 221/221/221 219/219/219
f 216/216/216 223/223/223 214/214/214
f 216/216/216 217/217/217 223/223/223
f 214/214/214 223/223/223 219/219/219
f 217/217/217 218/218/218 224/224/224
f 217/217/217 224/224/224 223/223/223
f 218/218/218 225/225/225 224/224/224
f 225/225/225 226/226/226 224/224/224
f 227/227/227 222/222/222 219/219/219
f 223/223/223 227/227/227 219/219/219
f 223/223/223 224/224/224 227/227/227
f 228/228/228 222/222/222 227/227/227
f 226/226/226 229/229/229 224/224/224
f 224/224/224 229/229/229 227/227/227
f 229/229/229 228/228/228 227/227/227
f 226/226/226 230/230/230 229/229/229
f 230/230/230 228/228/228 229/229/229
