g TouYin
v -0.211605847 -0.32318908 6.71557426
v -0.211680815 -0.313049793 6.71619844
v -0.212118447 -0.310595304 6.72192669
v -0.213843822 -0.316804588 6.7254324
v -0.20984292 -0.319506854 6.70774269
v -0.208650932 -0.326624215 6.72704983
v -0.206477925 -0.334742278 6.71185207
v -0.205150634 -0.329256773 6.69684744
v -0.200898573 -0.337846607 6.72884512
v -0.198657617 -0.346696168 6.70907211
v -0.198506191 -0.340096951 6.68699026
v -0.191129372 -0.3509489 6.7314105
v -0.186795443 -0.359942287 6.70663548
v -0.188584194 -0.351079136 6.67774105
v -0.177629739 -0.364648461 6.73353672
v -0.174656138 -0.360210747 6.67110395
v -0.169889346 -0.371794015 6.70495367
v -0.161954492 -0.376210243 6.73431206
v -0.158487037 -0.367229849 6.66785383
v -0.150279477 -0.381772339 6.70266914
v -0.142185092 -0.386265934 6.73264313
v -0.140104294 -0.373494416 6.66711473
v -0.130965859 -0.386253744 6.69896507
v -0.122015856 -0.391285688 6.72831059
v -0.123655543 -0.376977146 6.66887617
v -0.107113414 -0.391578823 6.72136927
v -0.114508271 -0.386822432 6.69428205
v -0.107089944 -0.37799111 6.67170763
v -0.0944252163 -0.388245761 6.71101952
v -0.100371994 -0.38578254 6.68933868
v -0.0837135389 -0.383634984 6.69934654
v -0.0921370611 -0.376495004 6.67291784
v -0.0879137889 -0.383842915 6.68403244
v -0.0753597468 -0.380448073 6.6857152
v -0.0780802146 -0.381765425 6.67614555
v -0.0814564601 -0.377030045 6.66960716
v -0.0711647794 -0.37970382 6.67273045
v -0.0725432187 -0.379937321 6.66615152
v 0.211605847 -0.32318908 6.71557426
v 0.212118447 -0.310595304 6.72192669
v 0.211680815 -0.313049793 6.71619844
v 0.213843822 -0.316804588 6.7254324
v 0.20984292 -0.319506854 6.70774269
v 0.208650932 -0.326624215 6.72704983
v 0.206477925 -0.334742278 6.71185207
v 0.205150634 -0.329256773 6.69684744
v 0.200898573 -0.337846607 6.72884512
v 0.198657617 -0.346696168 6.70907211
v 0.198506191 -0.340096951 6.68699026
v 0.191129372 -0.3509489 6.7314105
v 0.186795443 -0.359942287 6.70663548
v 0.188584194 -0.351079136 6.67774105
v 0.177629739 -0.364648461 6.73353672
v 0.174656138 -0.360210747 6.67110395
v 0.169889346 -0.371794015 6.70495367
v 0.161954492 -0.376210243 6.73431206
v 0.158487037 -0.367229849 6.66785383
v 0.150279477 -0.381772339 6.70266914
v 0.142185092 -0.386265934 6.73264313
v 0.140104294 -0.373494416 6.66711473
v 0.130965859 -0.386253744 6.69896507
v 0.122015856 -0.391285688 6.72831059
v 0.123655543 -0.376977146 6.66887617
v 0.107113414 -0.391578823 6.72136927
v 0.114508271 -0.386822432 6.69428205
v 0.107089944 -0.37799111 6.67170763
v 0.0944252163 -0.388245761 6.71101952
v 0.100371994 -0.38578254 6.68933868
v 0.0837135389 -0.383634984 6.69934654
v 0.0921370611 -0.376495004 6.67291784
v 0.0879137889 -0.383842915 6.68403244
v 0.0753597468 -0.380448073 6.6857152
v 0.0780802146 -0.381765425 6.67614555
v 0.0814564601 -0.377030045 6.66960716
v 0.0711647794 -0.37970382 6.67273045
v 0.0725432187 -0.379937321 6.66615152
vt 0.820664287 0.819045007
vt 0.863057971 0.809185505
vt 0.880161285 0.83032912
vt 0.858357191 0.853760839
vt 0.825422049 0.781430423
vt 0.812976837 0.871482253
vt 0.764988422 0.814693928
vt 0.769042134 0.746073067
vt 0.756924152 0.892196476
vt 0.703576326 0.81559068
vt 0.705478072 0.7166031
vt 0.689369321 0.917559385
vt 0.627999544 0.820860803
vt 0.633597255 0.691023529
vt 0.608866215 0.943027854
vt 0.556436479 0.67636621
vt 0.540977478 0.830821753
vt 0.525933266 0.962148368
vt 0.477914691 0.675029099
vt 0.447597504 0.837993741
vt 0.429443359 0.971412241
vt 0.393634975 0.684821486
vt 0.362266064 0.834115267
vt 0.337215036 0.96531719
vt 0.322045624 0.701666474
vt 0.269745529 0.941794991
vt 0.290620536 0.821163416
vt 0.251626968 0.719914198
vt 0.210942835 0.900036514
vt 0.228603005 0.804498672
vt 0.15939033 0.851651669
vt 0.187561333 0.726364791
vt 0.17323339 0.784750104
vt 0.117743857 0.79571116
vt 0.127552003 0.753681421
vt 0.140589565 0.718336284
vt 0.0952467546 0.741733491
vt 0.0983220264 0.713288903
vt 0.820664287 0.819045007
vt 0.880161285 0.83032912
vt 0.863057971 0.809185505
vt 0.858357191 0.853760839
vt 0.825422049 0.781430423
vt 0.812976837 0.871482253
vt 0.764988422 0.814693928
vt 0.769042134 0.746073067
vt 0.756924152 0.892196476
vt 0.703576326 0.81559068
vt 0.705478072 0.7166031
vt 0.689369321 0.917559385
vt 0.627999544 0.820860803
vt 0.633597255 0.691023529
vt 0.608866215 0.943027854
vt 0.556436479 0.67636621
vt 0.540977478 0.830821753
vt 0.525933266 0.962148368
vt 0.477914691 0.675029099
vt 0.447597504 0.837993741
vt 0.429443359 0.971412241
vt 0.393634975 0.684821486
vt 0.362266064 0.834115267
vt 0.337215036 0.96531719
vt 0.322045624 0.701666474
vt 0.269745529 0.941794991
vt 0.290620536 0.821163416
vt 0.251626968 0.719914198
vt 0.210942835 0.900036514
vt 0.228603005 0.804498672
vt 0.15939033 0.851651669
vt 0.187561333 0.726364791
vt 0.17323339 0.784750104
vt 0.117743857 0.79571116
vt 0.127552003 0.753681421
vt 0.140589565 0.718336284
vt 0.0952467546 0.741733491
vt 0.0983220264 0.713288903
vn -0.961732388 -0.259656996 -0.0874588042
vn -0.993054211 -9.60557591E-05 -0.117657647
vn -0.977897048 0.0610662065 -0.19997099
vn -0.981580198 -0.134378389 -0.135803595
vn -0.957158387 -0.175283253 -0.230485469
vn -0.867011249 -0.482150495 0.125786528
vn -0.889792144 -0.45511505 -0.0337669365
vn -0.898658931 -0.389454454 -0.201835141
vn -0.825113237 -0.543069959 0.155766502
vn -0.80925554 -0.58721894 -0.0167155042
vn -0.813324153 -0.556302249 -0.170386612
vn -0.753403783 -0.643395424 0.135739297
vn -0.678202927 -0.733308971 -0.0479449108
vn -0.670737386 -0.718972981 -0.182179153
vn -0.635833144 -0.768368781 0.0729775354
vn -0.518584132 -0.826303244 -0.2197579
vn -0.523152649 -0.846322238 -0.10024967
vn -0.507936239 -0.861311853 0.0119467406
vn -0.383471519 -0.884318769 -0.266326785
vn -0.36513561 -0.917819738 -0.155829623
vn -0.343433529 -0.937777877 -0.0512437969
vn -0.238387972 -0.921391189 -0.306935728
vn -0.192837104 -0.958542824 -0.20978418
vn -0.166555926 -0.979228735 -0.115629822
vn -0.103436686 -0.934614301 -0.340289682
vn -0.0230783019 -0.987751722 -0.154317617
vn -0.0435928181 -0.966918051 -0.251334608
vn -0.00150284916 -0.911688685 -0.410878837
vn 0.109332398 -0.9830634 -0.147080675
vn 0.0730356351 -0.95717448 -0.280148
vn 0.213349268 -0.97331953 -0.0844467357
vn -0.0692174137 -0.870609283 -0.487081438
vn 0.100970097 -0.959626198 -0.262531251
vn 0.272031218 -0.962287307 -0.00147123751
vn 0.0368621536 -0.977002382 -0.210018054
vn -0.298425466 -0.84311372 -0.447326958
vn 0.284571975 -0.958651483 -0.00246931612
vn -0.0985583663 -0.967796683 -0.231637657
vn 0.961732388 -0.259656996 -0.0874588117
vn 0.977897048 0.0610662065 -0.19997099
vn 0.993054211 -9.60557591E-05 -0.117657647
vn 0.981580198 -0.134378389 -0.135803595
vn 0.957158387 -0.175283253 -0.230485469
vn 0.867011368 -0.482150495 0.125786528
vn 0.889792144 -0.45511505 -0.0337669365
vn 0.898658931 -0.389454454 -0.201835141
vn 0.825113237 -0.543069959 0.155766502
vn 0.80925554 -0.587218761 -0.0167155117
vn 0.813324153 -0.55630219 -0.170386642
vn 0.753403783 -0.643395305 0.135739282
vn 0.678202987 -0.733308971 -0.0479449257
vn 0.670737386 -0.718972981 -0.182179183
vn 0.635833144 -0.768368781 0.0729775354
vn 0.518584132 -0.826303244 -0.2197579
vn 0.523152649 -0.846322238 -0.100249685
vn 0.50793618 -0.861311853 0.0119467359
vn 0.383471578 -0.884318769 -0.266326815
vn 0.36513561 -0.917819738 -0.155829623
vn 0.343433499 -0.937777877 -0.0512437932
vn 0.238387972 -0.921391189 -0.306935728
vn 0.192837104 -0.958542824 -0.20978418
vn 0.166555926 -0.979228735 -0.115629837
vn 0.103436686 -0.934614301 -0.340289682
vn 0.0230783019 -0.987751722 -0.154317647
vn 0.0435928181 -0.966918051 -0.251334637
vn 0.00150284916 -0.911688685 -0.410878837
vn -0.109332398 -0.9830634 -0.147080675
vn -0.0730356351 -0.95717448 -0.280148
vn -0.213349268 -0.97331953 -0.0844467431
vn 0.0692174137 -0.870609283 -0.487081438
vn -0.100970097 -0.959626198 -0.262531251
vn -0.272031218 -0.962287307 -0.00147123751
vn -0.0368621536 -0.977002382 -0.210018054
vn 0.298425466 -0.84311372 -0.447326958
vn -0.284571975 -0.958651483 -0.00246931612
vn 0.0985583663 -0.967796683 -0.231637657
g TouYin_0
f 3/3/3 2/2/2 1/1/1
f 3/3/3 1/1/1 4/4/4
f 2/2/2 5/5/5 1/1/1
f 1/1/1 6/6/6 4/4/4
f 1/1/1 5/5/5 7/7/7
f 6/6/6 1/1/1 7/7/7
f 5/5/5 8/8/8 7/7/7
f 9/9/9 6/6/6 7/7/7
f 7/7/7 8/8/8 10/10/10
f 9/9/9 7/7/7 10/10/10
f 8/8/8 11/11/11 10/10/10
f 12/12/12 9/9/9 10/10/10
f 10/10/10 11/11/11 13/13/13
f 12/12/12 10/10/10 13/13/13
f 11/11/11 14/14/14 13/13/13
f 15/15/15 12/12/12 13/13/13
f 14/14/14 16/16/16 13/13/13
f 13/13/13 17/17/17 15/15/15
f 16/16/16 17/17/17 13/13/13
f 17/17/17 18/18/18 15/15/15
f 16/16/16 19/19/19 17/17/17
f 17/17/17 20/20/20 18/18/18
f 19/19/19 20/20/20 17/17/17
f 20/20/20 21/21/21 18/18/18
f 19/19/19 22/22/22 20/20/20
f 20/20/20 23/23/23 21/21/21
f 22/22/22 23/23/23 20/20/20
f 23/23/23 24/24/24 21/21/21
f 22/22/22 25/25/25 23/23/23
f 26/26/26 24/24/24 23/23/23
f 25/25/25 27/27/27 23/23/23
f 27/27/27 26/26/26 23/23/23
f 25/25/25 28/28/28 27/27/27
f 29/29/29 26/26/26 27/27/27
f 28/28/28 30/30/30 27/27/27
f 30/30/30 29/29/29 27/27/27
f 31/31/31 29/29/29 30/30/30
f 28/28/28 32/32/32 30/30/30
f 33/33/33 31/31/31 30/30/30
f 32/32/32 33/33/33 30/30/30
f 34/34/34 31/31/31 33/33/33
f 33/33/33 32/32/32 35/35/35
f 35/35/35 34/34/34 33/33/33
f 32/32/32 36/36/36 35/35/35
f 37/37/37 34/34/34 35/35/35
f 35/35/35 36/36/36 38/38/38
f 37/37/37 35/35/35 38/38/38
f 41/41/41 40/40/40 39/39/39
f 39/39/39 40/40/40 42/42/42
f 43/43/43 41/41/41 39/39/39
f 44/44/44 39/39/39 42/42/42
f 39/39/39 45/45/45 43/43/43
f 45/45/45 39/39/39 44/44/44
f 45/45/45 46/46/46 43/43/43
f 47/47/47 45/45/45 44/44/44
f 45/45/45 48/48/48 46/46/46
f 48/48/48 45/45/45 47/47/47
f 48/48/48 49/49/49 46/46/46
f 50/50/50 48/48/48 47/47/47
f 48/48/48 51/51/51 49/49/49
f 51/51/51 48/48/48 50/50/50
f 51/51/51 52/52/52 49/49/49
f 53/53/53 51/51/51 50/50/50
f 52/52/52 51/51/51 54/54/54
f 51/51/51 53/53/53 55/55/55
f 51/51/51 55/55/55 54/54/54
f 53/53/53 56/56/56 55/55/55
f 54/54/54 55/55/55 57/57/57
f 58/58/58 55/55/55 56/56/56
f 55/55/55 58/58/58 57/57/57
f 59/59/59 58/58/58 56/56/56
f 57/57/57 58/58/58 60/60/60
f 61/61/61 58/58/58 59/59/59
f 58/58/58 61/61/61 60/60/60
f 62/62/62 61/61/61 59/59/59
f 60/60/60 61/61/61 63/63/63
f 61/61/61 62/62/62 64/64/64
f 61/61/61 65/65/65 63/63/63
f 65/65/65 61/61/61 64/64/64
f 63/63/63 65/65/65 66/66/66
f 65/65/65 64/64/64 67/67/67
f 65/65/65 68/68/68 66/66/66
f 68/68/68 65/65/65 67/67/67
f 68/68/68 67/67/67 69/69/69
f 66/66/66 68/68/68 70/70/70
f 71/71/71 68/68/68 69/69/69
f 68/68/68 71/71/71 70/70/70
f 71/71/71 69/69/69 72/72/72
f 70/70/70 71/71/71 73/73/73
f 73/73/73 71/71/71 72/72/72
f 74/74/74 70/70/70 73/73/73
f 72/72/72 75/75/75 73/73/73
f 74/74/74 73/73/73 76/76/76
f 73/73/73 75/75/75 76/76/76
