g TouYin
v -0.212547719 6.72118616 0.313483268
v -0.208650932 6.72704983 0.326624125
v -0.211605847 6.71557426 0.32318908
v -0.20984292 6.70774269 0.319506824
v -0.199602231 6.70985317 0.344030768
v -0.199347913 6.68960667 0.33742249
v -0.192639068 6.73065901 0.347822875
v -0.166571587 6.66947842 0.363720089
v -0.160084412 6.70381069 0.376783431
v -0.152069792 6.73347759 0.381237775
v -0.119484939 6.66985083 0.37661314
v -0.111554526 6.69298077 0.386160284
v -0.104494929 6.71792936 0.389838845
v -0.0867967606 6.67126274 0.376762688
v -0.0795366392 6.69253111 0.382041603
v -0.0829969943 6.680089 0.382803947
v -0.0718539953 6.66944075 0.379820555
v 0.212330967 6.71993876 0.313374639
v 0.211605847 6.71557426 0.32318908
v 0.208650932 6.72704983 0.326624125
v 0.20984292 6.70774269 0.319506824
v 0.199602231 6.70985317 0.344030768
v 0.199347913 6.68960667 0.33742249
v 0.192639068 6.73065901 0.347822875
v 0.166571587 6.66947842 0.363720089
v 0.160084412 6.70381069 0.376783431
v 0.152069792 6.73347759 0.381237775
v 0.119484939 6.66985083 0.37661314
v 0.111554526 6.69298077 0.386160284
v 0.104494929 6.71792936 0.389838845
v 0.0867967606 6.67126274 0.376762688
v 0.0795366392 6.69253111 0.382041603
v 0.0829969943 6.680089 0.382803947
v 0.0718539953 6.66944075 0.379820555
vt 0.867192149 0.831091821
vt 0.812976837 0.871482253
vt 0.820664287 0.819045007
vt 0.825422049 0.781430423
vt 0.715388179 0.816459835
vt 0.719289899 0.724943161
vt 0.70302093 0.911245048
vt 0.517175555 0.675697684
vt 0.494287491 0.834407747
vt 0.477688313 0.966780305
vt 0.304733634 0.706579089
vt 0.27752316 0.816069007
vt 0.257211566 0.926796317
vt 0.164075449 0.722350538
vt 0.13856709 0.823681414
vt 0.150392696 0.769215763
vt 0.0967843905 0.727511168
vt 0.866158605 0.825615227
vt 0.820664287 0.819045007
vt 0.812976837 0.871482253
vt 0.825422049 0.781430423
vt 0.715388179 0.816459835
vt 0.719289899 0.724943161
vt 0.70302093 0.911245048
vt 0.517175555 0.675697684
vt 0.494287491 0.834407747
vt 0.477688313 0.966780305
vt 0.304733634 0.706579089
vt 0.27752316 0.816069007
vt 0.257211566 0.926796317
vt 0.164075449 0.722350538
vt 0.13856709 0.823681414
vt 0.150392696 0.769215763
vt 0.0967843905 0.727511168
vn -0.989616752 0.0598554574 0.130675182
vn -0.834284902 0.132657617 0.535136104
vn -0.89867121 -0.0361220464 0.437132925
vn -0.904670894 -0.209050819 0.37130639
vn -0.71293354 -0.0676240772 0.697963238
vn -0.701253593 -0.191430107 0.686729908
vn -0.665973425 0.0725835636 0.742435813
vn -0.473534197 -0.248767197 0.844914377
vn -0.443053573 -0.133522958 0.886495948
vn -0.398454934 -0.025682589 0.916828215
vn -0.207773894 -0.326219946 0.922177076
vn -0.145733669 -0.210968316 0.966568112
vn -0.136214986 -0.0941843167 0.986192107
vn -0.0493169613 -0.433282018 0.899908066
vn 0.130531594 -0.107877195 0.985557735
vn 0.0493361242 -0.269093901 0.961849511
vn -0.0308793411 -0.299478233 0.953603327
vn 0.993424058 0.0575138144 0.0989982784
vn 0.898972869 -0.0335560404 0.436717182
vn 0.834083021 0.133098215 0.535341501
vn 0.904662192 -0.20914717 0.371273041
vn 0.712933362 -0.067623727 0.697963417
vn 0.70125246 -0.19142963 0.68673104
vn 0.665974498 0.0725836158 0.742434919
vn 0.473532557 -0.248767495 0.844915211
vn 0.443053752 -0.133523002 0.886495829
vn 0.398456275 -0.025682006 0.916827619
vn 0.207775339 -0.32621938 0.922176898
vn 0.14573364 -0.210967183 0.96656847
vn 0.136213556 -0.0941838697 0.986192286
vn 0.0493170135 -0.433278412 0.899909794
vn -0.130530164 -0.107876137 0.985558033
vn -0.0493368097 -0.269088596 0.961850941
vn 0.0308804717 -0.299477935 0.953603327
g TouYin_0
f 3/3/3 2/2/2 1/1/1
f 1/1/1 4/4/4 3/3/3
f 2/2/2 3/3/3 5/5/5
f 3/3/3 4/4/4 5/5/5
f 4/4/4 6/6/6 5/5/5
f 7/7/7 2/2/2 5/5/5
f 6/6/6 8/8/8 5/5/5
f 5/5/5 9/9/9 7/7/7
f 8/8/8 9/9/9 5/5/5
f 9/9/9 10/10/10 7/7/7
f 8/8/8 11/11/11 9/9/9
f 9/9/9 12/12/12 10/10/10
f 11/11/11 12/12/12 9/9/9
f 12/12/12 13/13/13 10/10/10
f 11/11/11 14/14/14 12/12/12
f 15/15/15 13/13/13 12/12/12
f 14/14/14 16/16/16 12/12/12
f 16/16/16 15/15/15 12/12/12
f 16/16/16 14/14/14 17/17/17
f 17/17/17 15/15/15 16/16/16
f 20/20/20 19/19/19 18/18/18
f 21/21/21 18/18/18 19/19/19
f 22/22/22 19/19/19 20/20/20
f 19/19/19 22/22/22 21/21/21
f 22/22/22 23/23/23 21/21/21
f 24/24/24 22/22/22 20/20/20
f 23/23/23 22/22/22 25/25/25
f 22/22/22 24/24/24 26/26/26
f 22/22/22 26/26/26 25/25/25
f 24/24/24 27/27/27 26/26/26
f 25/25/25 26/26/26 28/28/28
f 29/29/29 26/26/26 27/27/27
f 26/26/26 29/29/29 28/28/28
f 30/30/30 29/29/29 27/27/27
f 28/28/28 29/29/29 31/31/31
f 29/29/29 30/30/30 32/32/32
f 29/29/29 33/33/33 31/31/31
f 33/33/33 29/29/29 32/32/32
f 31/31/31 33/33/33 34/34/34
f 32/32/32 34/34/34 33/33/33
