g YanJing
v -0.202604935 6.73361778 0.298697501
v -0.192099869 6.73814487 0.254177839
v -0.15615873 6.78278971 0.269583732
v -0.202545464 6.67795277 0.295292974
v -0.192036584 6.67890692 0.250555426
v -0.168831289 6.77557039 0.313174427
v -0.101030335 6.79195213 0.289564818
v -0.168680742 6.63462019 0.304554433
v -0.155998513 6.63279343 0.260410756
v -0.117027558 6.78418064 0.331950068
v -0.0525100492 6.76134396 0.304770499
v -0.116856441 6.62389755 0.322148442
v -0.100848243 6.62138176 0.279133916
v -0.0714333877 6.75541878 0.346239001
v -0.0333009586 6.70528746 0.30808714
v -0.0713217109 6.6508007 0.339841306
v -0.0523911938 6.65001249 0.297962636
v -0.0533827469 6.70274258 0.349356085
v -0.169693261 6.65367985 0.346149296
v -0.133696482 6.64623165 0.358369738
v -0.102068394 6.66491938 0.370659769
v -0.0896081254 6.7009964 0.377268046
v -0.102145977 6.73758507 0.375103146
v -0.133815348 6.75756264 0.365178227
v -0.193215445 6.68377781 0.339716792
v -0.169797838 6.75158262 0.352136821
v -0.193256751 6.72244263 0.342080683
v -0.129118234 6.68403387 0.378370345
v -0.123359971 6.70070648 0.381424546
v -0.149974436 6.70087385 0.378225714
v -0.129154056 6.71761465 0.380424172
v -0.143734515 6.67539787 0.372691035
v -0.143789411 6.72684717 0.375837386
v -0.160369635 6.67884016 0.367044061
v -0.160417989 6.72408438 0.36981079
v -0.171239942 6.69274902 0.364071041
v -0.171259031 6.71061754 0.365163565
v 0.202604935 6.73361778 0.298697501
v 0.168831289 6.77557039 0.313174427
v 0.15615873 6.78278971 0.269583732
v 0.192099869 6.73814487 0.254177839
v 0.101030335 6.79195213 0.289564818
v 0.202545464 6.67795277 0.295292974
v 0.192036584 6.67890692 0.250555426
v 0.117027558 6.78418064 0.331950068
v 0.0525100492 6.76134396 0.304770499
v 0.168680742 6.63462019 0.304554433
v 0.155998513 6.63279343 0.260410756
v 0.0714333877 6.75541878 0.346239001
v 0.0333009586 6.70528746 0.30808714
v 0.116856441 6.62389755 0.322148442
v 0.100848243 6.62138176 0.279133916
v 0.0533827469 6.70274258 0.349356085
v 0.0523911938 6.65001249 0.297962636
v 0.0713217109 6.6508007 0.339841306
v 0.169797838 6.75158262 0.352136821
v 0.133815348 6.75756264 0.365178227
v 0.102145977 6.73758507 0.375103146
v 0.0896081254 6.7009964 0.377268046
v 0.102068394 6.66491938 0.370659769
v 0.133696482 6.64623165 0.358369738
v 0.193256751 6.72244263 0.342080683
v 0.169693261 6.65367985 0.346149296
v 0.193215445 6.68377781 0.339716792
v 0.129154056 6.71761465 0.380424172
v 0.123359971 6.70070648 0.381424546
v 0.149974436 6.70087385 0.378225714
v 0.143789411 6.72684717 0.375837386
v 0.129118234 6.68403387 0.378370345
v 0.160417989 6.72408438 0.36981079
v 0.143734515 6.67539787 0.372691035
v 0.171259031 6.71061754 0.365163565
v 0.160369635 6.67884016 0.367044061
v 0.171239942 6.69274902 0.364071041
vt 0.831665754 0.622358561
vt 0.942183435 0.662295401
vt 0.732686043 0.913105011
vt 0.831035376 0.376005381
vt 0.941355467 0.335499406
vt 0.673701882 0.8114326
vt 0.411000341 0.970603466
vt 0.672129512 0.187705874
vt 0.730622292 0.0857384875
vt 0.431118369 0.854778409
vt 0.127567753 0.807959676
vt 0.429344237 0.145518884
vt 0.408669233 0.0297957286
vt 0.217388749 0.732148409
vt 0.0149818473 0.50117147
vt 0.216215611 0.269172996
vt 0.126029223 0.193819106
vt 0.132491797 0.500867844
vt 0.602933645 0.308460355
vt 0.453794837 0.28250888
vt 0.322951287 0.358440518
vt 0.27162528 0.500476241
vt 0.323695064 0.642341554
vt 0.454901397 0.717662871
vt 0.700440764 0.424017459
vt 0.603930056 0.691027522
vt 0.700813413 0.575051844
vt 0.422172844 0.441479981
vt 0.401177973 0.500396967
vt 0.492786378 0.499997288
vt 0.422859639 0.559249938
vt 0.476332366 0.409659773
vt 0.477347851 0.590498805
vt 0.538223624 0.420314461
vt 0.539156199 0.579196453
vt 0.578743935 0.468296826
vt 0.579066157 0.530889869
vt 0.831665754 0.622358561
vt 0.673701882 0.8114326
vt 0.732686043 0.913105011
vt 0.942183435 0.662295401
vt 0.411000341 0.970603466
vt 0.831035376 0.376005381
vt 0.941355467 0.335499406
vt 0.431118369 0.854778409
vt 0.127567753 0.807959676
vt 0.672129512 0.187705874
vt 0.730622292 0.0857384875
vt 0.217388749 0.732148409
vt 0.0149818473 0.50117147
vt 0.429344237 0.145518884
vt 0.408669233 0.0297957286
vt 0.132491797 0.500867844
vt 0.126029223 0.193819106
vt 0.216215611 0.269172996
vt 0.603930056 0.691027522
vt 0.454901397 0.717662871
vt 0.323695064 0.642341554
vt 0.27162528 0.500476241
vt 0.322951287 0.358440518
vt 0.453794837 0.28250888
vt 0.700813413 0.575051844
vt 0.602933645 0.308460355
vt 0.700440764 0.424017459
vt 0.422859639 0.559249938
vt 0.401177973 0.500396967
vt 0.492786378 0.499997288
vt 0.477347851 0.590498805
vt 0.422172844 0.441479981
vt 0.539156199 0.579196453
vt 0.476332366 0.409659773
vt 0.579066157 0.530889869
vt 0.538223624 0.420314461
vt 0.578743935 0.468296826
vn -0.945465863 0.325688332 0.00461892132
vn -0.918858051 0.350534499 -0.181177974
vn -0.507307351 0.861751974 -0.00477857981
vn -0.944770813 -0.325833052 -0.0352272689
vn -0.918134332 -0.327797085 -0.222662285
vn -0.550177455 0.816706657 0.174054518
vn 0.123957686 0.966668129 0.224024847
vn -0.548414946 -0.832998931 0.0731701031
vn -0.505472958 -0.855827689 -0.109800547
vn 0.0561379902 0.917475522 0.393811226
vn 0.679559946 0.616173804 0.398155957
vn 0.0581438914 -0.958501875 0.279093832
vn 0.126039639 -0.98649615 0.104590818
vn 0.589783669 0.580837727 0.561055005
vn 0.899516344 -0.0257110801 0.436129898
vn 0.591088235 -0.643620789 0.486176074
vn 0.680918634 -0.658652902 0.320197076
vn 0.801051736 -0.0356813632 0.597530723
vn -0.573619664 -0.690011203 0.441412628
vn -0.0883318856 -0.790419042 0.606164336
vn 0.338054627 -0.538492322 0.771845341
vn 0.506037056 -0.0521094874 0.860936165
vn 0.337008327 0.441150218 0.831752241
vn -0.0899396092 0.710477829 0.697948515
vn -0.89072758 -0.284247041 0.354694337
vn -0.575027764 0.629855275 0.522135377
vn -0.891285777 0.23701027 0.386569083
vn -0.00221174886 -0.324614495 0.945843756
vn 0.0889349133 -0.0606994703 0.994186163
vn -0.331652194 -0.0579373017 0.941621006
vn -0.00277419714 0.206930548 0.978351772
vn -0.233560741 -0.46130234 0.855949461
vn -0.234429896 0.353073269 0.905749321
vn -0.496870488 -0.406825185 0.766559184
vn -0.49764213 0.309328109 0.810350895
vn -0.668936014 -0.186658695 0.719502032
vn -0.669244707 0.0961733386 0.736791849
vn 0.945465863 0.325688362 0.00461842678
vn 0.550177455 0.816706479 0.174055144
vn 0.507307112 0.861752033 -0.00477733463
vn 0.918857932 0.350534409 -0.181178525
vn -0.123957753 0.96666795 0.224025965
vn 0.944770753 -0.325833261 -0.0352279134
vn 0.918134153 -0.327797115 -0.222662807
vn -0.0561374351 0.917474508 0.393813699
vn -0.679559052 0.616173446 0.398157954
vn 0.548415065 -0.832998931 0.0731700659
vn 0.505473137 -0.85582751 -0.109800562
vn -0.589782774 0.580835581 0.561058104
vn -0.89951539 -0.0257115196 0.436131835
vn -0.0581439659 -0.958502173 0.279092968
vn -0.126039624 -0.98649615 0.104590811
vn -0.801050782 -0.0356816277 0.597532034
vn -0.680918634 -0.658652902 0.320197105
vn -0.591088057 -0.643621385 0.486175328
vn 0.575027823 0.629855037 0.522135496
vn 0.089940913 0.710474074 0.697952092
vn -0.337006062 0.44114536 0.831755698
vn -0.506035268 -0.0521100946 0.860937238
vn -0.33805421 -0.538493872 0.771844387
vn 0.0883318111 -0.790421128 0.606161594
vn 0.891285777 0.23701027 0.386569083
vn 0.573619246 -0.690011442 0.441412568
vn 0.89072752 -0.284246981 0.354694575
vn 0.00277433102 0.206929281 0.978351951
vn -0.0889349803 -0.0607014447 0.994186044
vn 0.331650257 -0.0579377487 0.941621661
vn 0.234429106 0.353072107 0.905750096
vn 0.00221180939 -0.324616015 0.945843339
vn 0.497640222 0.309327006 0.810352385
vn 0.233562887 -0.461304903 0.855947495
vn 0.66924274 0.0961727798 0.736793697
vn 0.496868491 -0.406824291 0.766560972
vn 0.668933392 -0.186657071 0.719504952
g YanJing_0
f 3/3/3 2/2/2 1/1/1
f 1/1/1 2/2/2 4/4/4
f 2/2/2 5/5/5 4/4/4
f 6/6/6 3/3/3 1/1/1
f 7/7/7 3/3/3 6/6/6
f 4/4/4 5/5/5 8/8/8
f 5/5/5 9/9/9 8/8/8
f 10/10/10 7/7/7 6/6/6
f 11/11/11 7/7/7 10/10/10
f 8/8/8 9/9/9 12/12/12
f 9/9/9 13/13/13 12/12/12
f 14/14/14 11/11/11 10/10/10
f 15/15/15 11/11/11 14/14/14
f 12/12/12 13/13/13 16/16/16
f 13/13/13 17/17/17 16/16/16
f 17/17/17 15/15/15 18/18/18
f 18/18/18 15/15/15 14/14/14
f 16/16/16 17/17/17 18/18/18
f 4/4/4 8/8/8 19/19/19
f 8/8/8 12/12/12 20/20/20
f 19/19/19 8/8/8 20/20/20
f 12/12/12 16/16/16 21/21/21
f 20/20/20 12/12/12 21/21/21
f 16/16/16 18/18/18 22/22/22
f 21/21/21 16/16/16 22/22/22
f 18/18/18 14/14/14 23/23/23
f 22/22/22 18/18/18 23/23/23
f 14/14/14 10/10/10 24/24/24
f 23/23/23 14/14/14 24/24/24
f 25/25/25 4/4/4 19/19/19
f 1/1/1 4/4/4 25/25/25
f 24/24/24 10/10/10 26/26/26
f 10/10/10 6/6/6 26/26/26
f 6/6/6 1/1/1 27/27/27
f 27/27/27 1/1/1 25/25/25
f 26/26/26 6/6/6 27/27/27
f 20/20/20 21/21/21 28/28/28
f 21/21/21 22/22/22 29/29/29
f 28/28/28 21/21/21 29/29/29
f 28/28/28 29/29/29 30/30/30
f 29/29/29 31/31/31 30/30/30
f 29/29/29 22/22/22 31/31/31
f 22/22/22 23/23/23 31/31/31
f 32/32/32 20/20/20 28/28/28
f 32/32/32 28/28/28 30/30/30
f 19/19/19 20/20/20 32/32/32
f 31/31/31 23/23/23 33/33/33
f 31/31/31 33/33/33 30/30/30
f 23/23/23 24/24/24 33/33/33
f 34/34/34 19/19/19 32/32/32
f 34/34/34 32/32/32 30/30/30
f 25/25/25 19/19/19 34/34/34
f 33/33/33 24/24/24 35/35/35
f 24/24/24 26/26/26 35/35/35
f 33/33/33 35/35/35 30/30/30
f 36/36/36 25/25/25 34/34/34
f 36/36/36 34/34/34 30/30/30
f 27/27/27 25/25/25 36/36/36
f 26/26/26 27/27/27 37/37/37
f 35/35/35 26/26/26 37/37/37
f 35/35/35 37/37/37 30/30/30
f 37/37/37 36/36/36 30/30/30
f 37/37/37 27/27/27 36/36/36
f 40/40/40 39/39/39 38/38/38
f 41/41/41 40/40/40 38/38/38
f 40/40/40 42/42/42 39/39/39
f 41/41/41 38/38/38 43/43/43
f 44/44/44 41/41/41 43/43/43
f 42/42/42 45/45/45 39/39/39
f 42/42/42 46/46/46 45/45/45
f 44/44/44 43/43/43 47/47/47
f 48/48/48 44/44/44 47/47/47
f 46/46/46 49/49/49 45/45/45
f 46/46/46 50/50/50 49/49/49
f 48/48/48 47/47/47 51/51/51
f 52/52/52 48/48/48 51/51/51
f 50/50/50 53/53/53 49/49/49
f 50/50/50 54/54/54 53/53/53
f 54/54/54 52/52/52 55/55/55
f 52/52/52 51/51/51 55/55/55
f 54/54/54 55/55/55 53/53/53
f 39/39/39 45/45/45 56/56/56
f 45/45/45 49/49/49 57/57/57
f 45/45/45 57/57/57 56/56/56
f 49/49/49 53/53/53 58/58/58
f 49/49/49 58/58/58 57/57/57
f 53/53/53 55/55/55 59/59/59
f 53/53/53 59/59/59 58/58/58
f 55/55/55 51/51/51 60/60/60
f 55/55/55 60/60/60 59/59/59
f 51/51/51 47/47/47 61/61/61
f 51/51/51 61/61/61 60/60/60
f 39/39/39 56/56/56 62/62/62
f 38/38/38 39/39/39 62/62/62
f 47/47/47 63/63/63 61/61/61
f 47/47/47 43/43/43 63/63/63
f 43/43/43 38/38/38 64/64/64
f 38/38/38 62/62/62 64/64/64
f 43/43/43 64/64/64 63/63/63
f 58/58/58 59/59/59 65/65/65
f 59/59/59 60/60/60 66/66/66
f 59/59/59 66/66/66 65/65/65
f 65/65/65 66/66/66 67/67/67
f 68/68/68 65/65/65 67/67/67
f 58/58/58 65/65/65 68/68/68
f 57/57/57 58/58/58 68/68/68
f 60/60/60 69/69/69 66/66/66
f 60/60/60 61/61/61 69/69/69
f 66/66/66 69/69/69 67/67/67
f 57/57/57 68/68/68 70/70/70
f 70/70/70 68/68/68 67/67/67
f 56/56/56 57/57/57 70/70/70
f 61/61/61 71/71/71 69/69/69
f 61/61/61 63/63/63 71/71/71
f 69/69/69 71/71/71 67/67/67
f 56/56/56 70/70/70 72/72/72
f 72/72/72 70/70/70 67/67/67
f 62/62/62 56/56/56 72/72/72
f 63/63/63 73/73/73 71/71/71
f 71/71/71 73/73/73 67/67/67
f 63/63/63 64/64/64 73/73/73
f 74/74/74 72/72/72 67/67/67
f 62/62/62 72/72/72 74/74/74
f 73/73/73 74/74/74 67/67/67
f 64/64/64 74/74/74 73/73/73
f 64/64/64 62/62/62 74/74/74
