g JieMao
v 0.201529384 6.7034812 0.322758794
v 0.20689787 6.71700239 0.311666876
v 0.230383694 6.71688318 0.312926024
v 0.22182937 6.70297718 0.33004272
v 0.26065895 6.70808172 0.301591784
v 0.249601543 6.68690777 0.331275642
v 0.179742545 6.67978334 0.349512935
v 0.201875269 6.65812254 0.37225768
v 0.189202532 6.6758728 0.361488014
v 0.14363578 6.67124987 0.366451412
v 0.145840123 6.66446018 0.378105462
v 0.148618639 6.64869881 0.389026493
v 0.107029513 6.67471409 0.371004641
v 0.100107163 6.6532073 0.391414791
v 0.103904687 6.66733646 0.382476181
v 0.264800906 6.75639009 0.342089832
v 0.284093708 6.75427008 0.302233875
v 0.243165195 6.72486925 0.309821784
v 0.228961825 6.72673082 0.337631226
v 0.206134334 6.72296143 0.31388244
v 0.200844765 6.76087379 0.392203957
v 0.196677163 6.72549772 0.329503179
v 0.184108973 6.7319932 0.377166122
v 0.167884275 6.7283988 0.36068359
v 0.12731041 6.74957848 0.412911981
v 0.127436385 6.72388458 0.381026596
v 0.128999487 6.72784519 0.398289174
v 0.0715609267 6.70805645 0.405787349
v 0.0846103877 6.69973087 0.392748415
v 0.0918409526 6.70291853 0.378631592
v 0.0566725656 6.68543148 0.396055907
v 0.0791313425 6.68641949 0.374107033
v 0.0715861097 6.68201542 0.385538936
v -0.201529384 6.7034812 0.322758794
v -0.230383694 6.71688318 0.312926024
v -0.20689787 6.71700239 0.311666876
v -0.22182937 6.70297718 0.33004272
v -0.26065895 6.70808172 0.301591784
v -0.249601543 6.68690777 0.331275642
v -0.179742545 6.67978334 0.349512935
v -0.201875269 6.65812254 0.37225768
v -0.189202532 6.6758728 0.361488014
v -0.14363578 6.67124987 0.366451412
v -0.145840123 6.66446018 0.378105462
v -0.148618639 6.64869881 0.389026493
v -0.107029513 6.67471409 0.371004641
v -0.100107163 6.6532073 0.391414791
v -0.103904687 6.66733646 0.382476181
v -0.264800906 6.75639009 0.342089832
v -0.243165195 6.72486925 0.309821784
v -0.284093708 6.75427008 0.302233875
v -0.228961825 6.72673082 0.337631226
v -0.206134334 6.72296143 0.31388244
v -0.200844765 6.76087379 0.392203957
v -0.196677163 6.72549772 0.329503179
v -0.184108973 6.7319932 0.377166122
v -0.167884275 6.7283988 0.36068359
v -0.12731041 6.74957848 0.412911981
v -0.127436385 6.72388458 0.381026596
v -0.128999487 6.72784519 0.398289174
v -0.0715609267 6.70805645 0.405787349
v -0.0846103877 6.69973087 0.392748415
v -0.0918409526 6.70291853 0.378631592
v -0.0566725656 6.68543148 0.396055907
v -0.0791313425 6.68641949 0.374107033
v -0.0715861097 6.68201542 0.385538936
vt 0.483311772 0.247426197
vt 0.533483624 0.284152001
vt 0.60486865 0.238930479
vt 0.546118855 0.187428176
vt 0.712049186 0.195346326
vt 0.615015447 0.100478351
vt 0.358427465 0.17780523
vt 0.385775328 0.0286518764
vt 0.378333956 0.116018862
vt 0.222541228 0.169423223
vt 0.207622156 0.118299931
vt 0.190365776 0.0552815571
vt 0.1048581 0.216187224
vt 0.0281908754 0.122687355
vt 0.0683678389 0.173088714
vt 0.81629324 0.5804286
vt 0.948742151 0.498354077
vt 0.807949722 0.355990916
vt 0.71791935 0.416004002
vt 0.691618562 0.244665727
vt 0.530220389 0.63369298
vt 0.634919822 0.276708037
vt 0.521148443 0.468429208
vt 0.49816221 0.338372171
vt 0.278970271 0.550368071
vt 0.348511457 0.354870409
vt 0.320290595 0.439291954
vt 0.119188786 0.364274114
vt 0.179165095 0.314965725
vt 0.236131549 0.282802165
vt 0.0771756396 0.275422603
vt 0.188328966 0.229499921
vt 0.138465539 0.248683363
vt 0.483311772 0.247426197
vt 0.60486865 0.238930479
vt 0.533483624 0.284152001
vt 0.546118855 0.187428176
vt 0.712049186 0.195346326
vt 0.615015447 0.100478351
vt 0.358427465 0.17780523
vt 0.385775328 0.0286518764
vt 0.378333956 0.116018862
vt 0.222541228 0.169423223
vt 0.207622156 0.118299931
vt 0.190365776 0.0552815571
vt 0.1048581 0.216187224
vt 0.0281908754 0.122687355
vt 0.0683678389 0.173088714
vt 0.81629324 0.5804286
vt 0.807949722 0.355990916
vt 0.948742151 0.498354077
vt 0.71791935 0.416004002
vt 0.691618562 0.244665727
vt 0.530220389 0.63369298
vt 0.634919822 0.276708037
vt 0.521148443 0.468429208
vt 0.49816221 0.338372171
vt 0.278970271 0.550368071
vt 0.348511457 0.354870409
vt 0.320290595 0.439291954
vt 0.119188786 0.364274114
vt 0.179165095 0.314965725
vt 0.236131549 0.282802165
vt 0.0771756396 0.275422603
vt 0.188328966 0.229499921
vt 0.138465539 0.248683363
vn -0.185433522 0.802835107 0.566630483
vn -0.118527219 0.740511 0.661509454
vn 0.282666147 0.686833024 0.66959697
vn 0.182106376 0.684403419 0.705995202
vn 0.391777307 0.649861395 0.651299298
vn 0.32374838 0.619575262 0.715061903
vn -0.146038353 0.861418784 0.486446798
vn 0.222832441 0.590967953 0.775308073
vn 0.124512896 0.688925564 0.714057505
vn 0.0294141155 0.881110489 0.471994877
vn 0.105402574 0.683466792 0.722331882
vn 0.131587178 0.569627762 0.811300755
vn 0.127378702 0.843475521 0.521846294
vn 0.106731445 0.54771179 0.829831421
vn 0.115716517 0.656233013 0.745632589
vn 0.533211052 -0.695356488 0.481835395
vn 0.583552599 -0.74089855 0.332469195
vn 0.500011146 -0.811113 0.303454369
vn 0.402506262 -0.788838029 0.464460045
vn 0.0378424823 -0.991924465 0.121052466
vn 0.415920466 -0.602202058 0.681441784
vn 0.0295524392 -0.990229905 0.136276662
vn 0.321519494 -0.752041519 0.575377166
vn 0.0845691562 -0.986335278 0.141389236
vn 0.310467154 -0.553207636 0.773027539
vn 0.304695368 -0.943324029 0.131531402
vn 0.325749874 -0.69672811 0.639106274
vn 0.318013102 -0.566055775 0.760558009
vn 0.427507699 -0.665427208 0.611918151
vn 0.567239225 -0.811147153 0.142407969
vn 0.377385646 -0.568196416 0.731254399
vn 0.735667944 -0.634566069 0.236893699
vn 0.518190086 -0.61649847 0.592797339
vn 0.185433209 0.802835166 0.566630542
vn -0.282668442 0.686837494 0.669591546
vn 0.118526995 0.740511119 0.661509335
vn -0.182106867 0.684404016 0.705994487
vn -0.391780585 0.649866641 0.651292026
vn -0.323749244 0.619576752 0.715060234
vn 0.146038219 0.861416996 0.486449927
vn -0.222831696 0.590965927 0.775309801
vn -0.124512732 0.68892312 0.714059889
vn -0.0294152666 0.881110847 0.471993983
vn -0.10540276 0.683466256 0.722332478
vn -0.131586835 0.569625974 0.811302066
vn -0.127379835 0.84348315 0.521833897
vn -0.106731415 0.547710896 0.829832077
vn -0.115717083 0.656236529 0.745629311
vn -0.533209503 -0.695354581 0.481839865
vn -0.500009656 -0.811110437 0.303463757
vn -0.583551288 -0.740896761 0.332475483
vn -0.402504653 -0.788835704 0.464465678
vn -0.0378423035 -0.991921782 0.121075518
vn -0.415919155 -0.602200091 0.681444228
vn -0.0295522828 -0.99022913 0.136282831
vn -0.321518421 -0.752040446 0.575379133
vn -0.0845690072 -0.986335039 0.141390264
vn -0.310466409 -0.553206503 0.773028612
vn -0.304695785 -0.943324685 0.131526023
vn -0.325749934 -0.696728587 0.639105856
vn -0.318013549 -0.566057324 0.760556638
vn -0.427508086 -0.665428817 0.611916065
vn -0.567239821 -0.811148465 0.142397508
vn -0.377385646 -0.568196416 0.731254399
vn -0.735665977 -0.634564996 0.236902595
vn -0.518189073 -0.616497338 0.592799306
g JieMao_0
f 3/3/3 2/2/2 1/1/1
f 4/4/4 3/3/3 1/1/1
f 5/5/5 3/3/3 4/4/4
f 6/6/6 5/5/5 4/4/4
f 4/4/4 1/1/1 7/7/7
f 6/6/6 4/4/4 8/8/8
f 9/9/9 4/4/4 7/7/7
f 4/4/4 9/9/9 8/8/8
f 9/9/9 7/7/7 10/10/10
f 8/8/8 9/9/9 11/11/11
f 11/11/11 9/9/9 10/10/10
f 12/12/12 8/8/8 11/11/11
f 11/11/11 10/10/10 13/13/13
f 12/12/12 11/11/11 14/14/14
f 15/15/15 11/11/11 13/13/13
f 11/11/11 15/15/15 14/14/14
f 18/18/18 17/17/17 16/16/16
f 19/19/19 18/18/18 16/16/16
f 20/20/20 18/18/18 19/19/19
f 19/19/19 16/16/16 21/21/21
f 22/22/22 20/20/20 19/19/19
f 23/23/23 19/19/19 21/21/21
f 22/22/22 19/19/19 23/23/23
f 24/24/24 22/22/22 23/23/23
f 23/23/23 21/21/21 25/25/25
f 24/24/24 23/23/23 26/26/26
f 27/27/27 23/23/23 25/25/25
f 23/23/23 27/27/27 26/26/26
f 27/27/27 25/25/25 28/28/28
f 26/26/26 27/27/27 29/29/29
f 29/29/29 27/27/27 28/28/28
f 30/30/30 26/26/26 29/29/29
f 29/29/29 28/28/28 31/31/31
f 30/30/30 29/29/29 32/32/32
f 33/33/33 29/29/29 31/31/31
f 29/29/29 33/33/33 32/32/32
f 36/36/36 35/35/35 34/34/34
f 35/35/35 37/37/37 34/34/34
f 35/35/35 38/38/38 37/37/37
f 38/38/38 39/39/39 37/37/37
f 40/40/40 34/34/34 37/37/37
f 39/39/39 41/41/41 37/37/37
f 42/42/42 40/40/40 37/37/37
f 41/41/41 42/42/42 37/37/37
f 43/43/43 40/40/40 42/42/42
f 42/42/42 41/41/41 44/44/44
f 44/44/44 43/43/43 42/42/42
f 41/41/41 45/45/45 44/44/44
f 46/46/46 43/43/43 44/44/44
f 45/45/45 47/47/47 44/44/44
f 48/48/48 46/46/46 44/44/44
f 47/47/47 48/48/48 44/44/44
f 51/51/51 50/50/50 49/49/49
f 50/50/50 52/52/52 49/49/49
f 50/50/50 53/53/53 52/52/52
f 49/49/49 52/52/52 54/54/54
f 53/53/53 55/55/55 52/52/52
f 52/52/52 56/56/56 54/54/54
f 52/52/52 55/55/55 56/56/56
f 55/55/55 57/57/57 56/56/56
f 58/58/58 54/54/54 56/56/56
f 57/57/57 59/59/59 56/56/56
f 60/60/60 58/58/58 56/56/56
f 59/59/59 60/60/60 56/56/56
f 58/58/58 60/60/60 61/61/61
f 60/60/60 59/59/59 62/62/62
f 60/60/60 62/62/62 61/61/61
f 59/59/59 63/63/63 62/62/62
f 64/64/64 61/61/61 62/62/62
f 63/63/63 65/65/65 62/62/62
f 66/66/66 64/64/64 62/62/62
f 65/65/65 66/66/66 62/62/62
