g YanJing
v -0.178953752 -0.293985546 6.77360964
v -0.168649614 -0.264730185 6.77540922
v -0.143667787 -0.274437338 6.79017019
v -0.197483033 -0.286043048 6.75059319
v -0.187178895 -0.256787688 6.75239325
v -0.15397194 -0.303692669 6.78837013
v -0.115246542 -0.284738332 6.79489374
v -0.207324877 -0.280823201 6.72209597
v -0.197020754 -0.251567841 6.7238965
v -0.125550687 -0.313993692 6.79309368
v -0.0868140608 -0.294390738 6.78901052
v -0.207292244 -0.278955549 6.69155645
v -0.196988136 -0.249700218 6.69335604
v -0.0971181914 -0.323646069 6.78721046
v -0.061799638 -0.302230209 6.77323055
v -0.197389096 -0.280665427 6.66265678
v -0.187084973 -0.251410097 6.66445684
v -0.072103776 -0.331485599 6.77143049
v -0.0432203934 -0.307311356 6.74945736
v -0.178809807 -0.285746545 6.63888311
v -0.168505698 -0.256491214 6.6406827
v -0.0535245165 -0.336566687 6.74765682
v -0.0333172083 -0.309021205 6.72055769
v -0.153795421 -0.293586105 6.62310362
v -0.143491238 -0.264330775 6.6249032
v -0.0436213724 -0.338276595 6.71875715
v -0.0332846008 -0.307153612 6.6900177
v -0.125362918 -0.303238451 6.6172204
v -0.115058795 -0.273983121 6.61902046
v -0.043588765 -0.336408943 6.68821764
v -0.04312649 -0.301933706 6.66152096
v -0.0969417766 -0.313539445 6.62194395
v -0.0866376311 -0.284284085 6.62374353
v -0.0534306616 -0.331189096 6.65972042
v -0.0616558157 -0.293991238 6.63850403
v -0.07195995 -0.323246598 6.63670397
v -0.0718833506 -0.360686481 6.74083948
v -0.0631746575 -0.362190127 6.71542549
v -0.06314601 -0.360547751 6.68856907
v -0.0718008205 -0.355957478 6.66350937
v -0.088095203 -0.348972946 6.64326906
v -0.110063843 -0.340436667 6.63028908
v -0.088221699 -0.356218219 6.76174545
v -0.135056973 -0.331378102 6.62613487
v -0.110219002 -0.349324256 6.77562189
v -0.160060078 -0.322889924 6.63130856
v -0.135222092 -0.340836108 6.78079557
v -0.182057396 -0.315995991 6.64518547
v -0.160215318 -0.331777573 6.77664185
v -0.198395744 -0.311527759 6.66609097
v -0.182183981 -0.323241234 6.76366186
v -0.207104445 -0.310024083 6.69150496
v -0.198478356 -0.316256732 6.74342108
v -0.207133114 -0.311666429 6.71836185
v -0.161644936 -0.35530448 6.75640011
v -0.177950665 -0.348968625 6.74676609
v -0.190044761 -0.343784481 6.73174286
v -0.196468621 -0.34037745 6.7131424
v -0.196447313 -0.339158475 6.69320917
v -0.189983442 -0.340274513 6.67434597
v -0.143094286 -0.362028003 6.75948286
v -0.177856684 -0.343591005 6.65882921
v -0.124536276 -0.368328124 6.75564337
v -0.161529705 -0.348707885 6.64853001
v -0.108209305 -0.373445004 6.74534369
v -0.142971709 -0.355008036 6.64468956
v -0.0960825533 -0.376761496 6.72982645
v -0.124421135 -0.361731529 6.64777327
v -0.0896187127 -0.377877504 6.71096373
v -0.108115397 -0.368067384 6.65740633
v -0.0895974338 -0.376658499 6.69102955
v -0.0960212722 -0.373251498 6.67243004
v -0.125644535 -0.379658639 6.72815704
v -0.118130736 -0.38171351 6.7185421
v -0.114125736 -0.382405043 6.7068553
v -0.114112563 -0.381649733 6.69450426
v -0.118092798 -0.379538745 6.68297958
v -0.125586376 -0.37632668 6.67367125
v -0.135760784 -0.376488179 6.73453856
v -0.135689482 -0.37240088 6.66770172
v -0.147259414 -0.372584552 6.73691797
v -0.158753499 -0.368418634 6.73500776
v -0.148895457 -0.37617892 6.71855164
v -0.143241674 -0.378098279 6.71738195
v -0.149974361 -0.378225803 6.70087385
v -0.138267606 -0.379657179 6.71424437
v -0.154547036 -0.374130577 6.71761274
v -0.134573117 -0.380667537 6.70951653
v -0.132603914 -0.381007522 6.70377016
v -0.132597432 -0.380636156 6.69769764
v -0.134554505 -0.37959823 6.69203043
v -0.138239026 -0.378018856 6.68745327
v -0.159514621 -0.37220031 6.71467781
v -0.143206626 -0.376088589 6.68451834
v -0.14885813 -0.374040276 6.68357944
v -0.147183478 -0.368235022 6.66579199
v -0.158682048 -0.364331424 6.66817045
v -0.168856576 -0.364492953 6.72903872
v -0.154511839 -0.372120887 6.68474913
v -0.168798342 -0.361160994 6.67455244
v -0.163199142 -0.370620936 6.71010065
v -0.176350132 -0.361280859 6.7197299
v -0.159485981 -0.370562017 6.68788671
v -0.176312163 -0.359106064 6.68416691
v -0.165156171 -0.369583011 6.70443344
v -0.180330411 -0.359169841 6.70820475
v -0.180317163 -0.358414561 6.69585419
v -0.163180426 -0.369551659 6.69261456
v -0.165149689 -0.369211614 6.69836092
v 0.178953812 -0.293985575 6.77360964
v 0.153972 -0.303692669 6.78837013
v 0.143667832 -0.274437368 6.79017019
v 0.168649629 -0.264730215 6.77540922
v 0.115246587 -0.284738362 6.79489374
v 0.197483122 -0.286043078 6.75059319
v 0.187178925 -0.256787747 6.75239325
v 0.125550747 -0.313993692 6.79309368
v 0.0868140981 -0.294390738 6.78901052
v 0.207324982 -0.280823201 6.72209597
v 0.197020814 -0.25156787 6.7238965
v 0.0971182585 -0.323646069 6.78721046
v 0.061799679 -0.302230269 6.77323055
v 0.207292348 -0.278955579 6.69155645
v 0.196988165 -0.249700248 6.69335604
v 0.0721038356 -0.331485599 6.77143049
v 0.0432204269 -0.307311356 6.74945736
v 0.197389156 -0.280665487 6.66265678
v 0.187084988 -0.251410127 6.66445684
v 0.0535245836 -0.336566687 6.74765682
v 0.0333172642 -0.309021205 6.72055769
v 0.178809881 -0.285746574 6.63888311
v 0.168505743 -0.256491244 6.6406827
v 0.0436214097 -0.338276595 6.71875715
v 0.033284653 -0.307153612 6.6900177
v 0.153795466 -0.293586105 6.62310362
v 0.143491298 -0.264330775 6.6249032
v 0.0435887985 -0.336408913 6.68821764
v 0.0431265384 -0.301933765 6.66152096
v 0.125362977 -0.303238451 6.6172204
v 0.115058817 -0.273983151 6.61902046
v 0.0534306951 -0.331189066 6.65972042
v 0.0616558455 -0.293991238 6.63850403
v 0.0969418213 -0.313539445 6.62194395
v 0.0866376683 -0.284284085 6.62374353
v 0.0719600022 -0.323246598 6.63670397
v 0.160060152 -0.322889984 6.63130856
v 0.135057047 -0.331378132 6.62613487
v 0.110063903 -0.340436667 6.63028908
v 0.0880952626 -0.348972946 6.64326906
v 0.0718008727 -0.355957478 6.66350937
v 0.0631460622 -0.360547751 6.68856907
v 0.18205747 -0.315996021 6.64518547
v 0.0631747246 -0.362190127 6.71542549
v 0.198395804 -0.311527759 6.66609097
v 0.0718834177 -0.360686481 6.74083948
v 0.207104504 -0.310024112 6.69150496
v 0.0882217512 -0.356218219 6.76174545
v 0.207133219 -0.311666459 6.71836185
v 0.110219054 -0.349324256 6.77562189
v 0.198478416 -0.316256732 6.74342108
v 0.135222167 -0.340836108 6.78079557
v 0.182184026 -0.323241234 6.76366186
v 0.160215393 -0.331777573 6.77664185
v 0.196447372 -0.339158505 6.69320917
v 0.196468666 -0.34037751 6.7131424
v 0.190044835 -0.343784511 6.73174286
v 0.177950695 -0.348968625 6.74676609
v 0.161644965 -0.35530448 6.75640011
v 0.143094346 -0.362028003 6.75948286
v 0.189983532 -0.340274543 6.67434597
v 0.124536343 -0.368328124 6.75564337
v 0.177856788 -0.343591005 6.65882921
v 0.108209349 -0.373445004 6.74534369
v 0.161529765 -0.348707914 6.64853001
v 0.096082598 -0.376761466 6.72982645
v 0.142971784 -0.355008036 6.64468956
v 0.0896187574 -0.377877504 6.71096373
v 0.124421187 -0.361731529 6.64777327
v 0.0895974785 -0.376658499 6.69102955
v 0.108115472 -0.368067384 6.65740633
v 0.0960213244 -0.373251498 6.67243004
v 0.147183567 -0.368235022 6.66579199
v 0.135689557 -0.37240088 6.66770172
v 0.125586465 -0.37632668 6.67367125
v 0.11809288 -0.379538745 6.68297958
v 0.114112623 -0.381649733 6.69450426
v 0.114125796 -0.382405043 6.7068553
v 0.158682153 -0.364331454 6.66817045
v 0.118130796 -0.38171351 6.7185421
v 0.168798447 -0.361161023 6.67455244
v 0.12564458 -0.379658639 6.72815704
v 0.176312238 -0.359106094 6.68416691
v 0.135760874 -0.376488179 6.73453856
v 0.180317268 -0.358414561 6.69585419
v 0.147259474 -0.372584611 6.73691797
v 0.158753559 -0.368418634 6.73500776
v 0.148895532 -0.37617895 6.71855164
v 0.143241748 -0.378098279 6.71738195
v 0.149974436 -0.378225803 6.70087385
v 0.138267651 -0.379657179 6.71424437
v 0.15454708 -0.374130636 6.71761274
v 0.134573191 -0.380667537 6.70951653
v 0.132603973 -0.381007582 6.70377016
v 0.132597491 -0.380636215 6.69769764
v 0.13455455 -0.37959823 6.69203043
v 0.138239086 -0.378018856 6.68745327
v 0.159514695 -0.37220031 6.71467781
v 0.143206701 -0.376088619 6.68451834
v 0.148858204 -0.374040276 6.68357944
v 0.154511958 -0.372120917 6.68474913
v 0.15948604 -0.370562047 6.68788671
v 0.163180515 -0.369551659 6.69261456
v 0.168856651 -0.364492953 6.72903872
v 0.165149763 -0.369211644 6.69836092
v 0.163199216 -0.370620996 6.71010065
v 0.176350221 -0.361280859 6.7197299
v 0.16515626 -0.36958304 6.70443344
v 0.180330485 -0.359169871 6.70820475
vt 0.757482171 0.813789427
vt 0.8055439 0.870826364
vt 0.659828246 0.955383718
vt 0.84888947 0.704377472
vt 0.913556218 0.741524935
vt 0.63416326 0.885341048
vt 0.49398914 0.985022604
vt 0.897339225 0.570295453
vt 0.970810652 0.583065867
vt 0.493810147 0.910421968
vt 0.328011543 0.956184268
vt 0.896974921 0.427729905
vt 0.970381975 0.414580911
vt 0.353339136 0.886015177
vt 0.181890666 0.872340202
vt 0.84784472 0.293895185
vt 0.912328959 0.25641793
vt 0.229675263 0.815062404
vt 0.0732448474 0.743579209
vt 0.755896688 0.184938103
vt 0.803681791 0.127659902
vt 0.137729645 0.706103027
vt 0.0151952449 0.58541429
vt 0.632234216 0.113986
vt 0.657562733 0.0438170768
vt 0.0886023194 0.572266519
vt 0.0147684496 0.416928619
vt 0.49176541 0.089577958
vt 0.491587698 0.0149774225
vt 0.0882393569 0.429699391
vt 0.0720230639 0.258469582
vt 0.351414561 0.114656761
vt 0.325750798 0.0446140319
vt 0.136689171 0.295616895
vt 0.180035397 0.129168615
vt 0.228096217 0.186205715
vt 0.215125158 0.661117733
vt 0.17670466 0.556481063
vt 0.176420823 0.445024401
vt 0.214300156 0.340202898
vt 0.285776913 0.254666448
vt 0.382214934 0.198726907
vt 0.287024915 0.746310472
vt 0.491982132 0.179113895
vt 0.383731991 0.801791012
vt 0.601840019 0.198209614
vt 0.493592232 0.820885599
vt 0.698547125 0.253689766
vt 0.603361487 0.801270783
vt 0.770449519 0.338880777
vt 0.699800491 0.745329022
vt 0.808872342 0.443515688
vt 0.771277428 0.659790874
vt 0.809157014 0.554970443
vt 0.570206523 0.710601926
vt 0.637653589 0.671453118
vt 0.687595844 0.611655951
vt 0.714031041 0.538447738
vt 0.713871062 0.460590094
vt 0.687010527 0.387444824
vt 0.493351102 0.724376798
vt 0.63674742 0.327869803
vt 0.416451693 0.710948944
vt 0.569119811 0.289050937
vt 0.348825604 0.672129631
vt 0.492221534 0.27562207
vt 0.298564494 0.612553477
vt 0.41536817 0.28939569
vt 0.271705061 0.53940618
vt 0.347922266 0.328542799
vt 0.27154547 0.461546332
vt 0.297980309 0.388338268
vt 0.409184188 0.599372506
vt 0.38027972 0.564795971
vt 0.364945233 0.522731662
vt 0.364811033 0.478083223
vt 0.379798681 0.435927689
vt 0.408414215 0.401191682
vt 0.448447227 0.622114539
vt 0.447499931 0.378182411
vt 0.493287325 0.630001426
vt 0.538073123 0.621815205
vt 0.49330759 0.556508064
vt 0.47434932 0.55337131
vt 0.492786378 0.499997288
vt 0.457414865 0.543874621
vt 0.512291074 0.553024888
vt 0.444559813 0.528956652
vt 0.437536985 0.510312676
vt 0.437418669 0.490460366
vt 0.44400537 0.47194609
vt 0.456473112 0.456854552
vt 0.529100478 0.543141007
vt 0.473281443 0.446971267
vt 0.492264152 0.443488628
vt 0.492284 0.369996786
vt 0.537124395 0.377884001
vt 0.577160001 0.598804593
vt 0.51122272 0.44662562
vt 0.576388955 0.400625706
vt 0.541568637 0.528048396
vt 0.60577625 0.564067245
vt 0.528158605 0.456122488
vt 0.605294526 0.435201198
vt 0.548155606 0.509533405
vt 0.620764196 0.521910548
vt 0.620629728 0.477263659
vt 0.541014314 0.4710401
vt 0.548037171 0.489682287
vt 0.757482171 0.813789427
vt 0.63416326 0.885341048
vt 0.659828246 0.955383718
vt 0.8055439 0.870826364
vt 0.49398914 0.985022604
vt 0.84888947 0.704377472
vt 0.913556218 0.741524935
vt 0.493810147 0.910421968
vt 0.328011543 0.956184268
vt 0.897339225 0.570295453
vt 0.970810652 0.583065867
vt 0.353339136 0.886015177
vt 0.181890666 0.872340202
vt 0.896974921 0.427729905
vt 0.970381975 0.414580911
vt 0.229675263 0.815062404
vt 0.0732448474 0.743579209
vt 0.84784472 0.293895185
vt 0.912328959 0.25641793
vt 0.137729645 0.706103027
vt 0.0151952449 0.58541429
vt 0.755896688 0.184938103
vt 0.803681791 0.127659902
vt 0.0886023194 0.572266519
vt 0.0147684496 0.416928619
vt 0.632234216 0.113986
vt 0.657562733 0.0438170768
vt 0.0882393569 0.429699391
vt 0.0720230639 0.258469582
vt 0.49176541 0.089577958
vt 0.491587698 0.0149774225
vt 0.136689171 0.295616895
vt 0.180035397 0.129168615
vt 0.351414561 0.114656761
vt 0.325750798 0.0446140319
vt 0.228096217 0.186205715
vt 0.601840019 0.198209614
vt 0.491982132 0.179113895
vt 0.382214934 0.198726907
vt 0.285776913 0.254666448
vt 0.214300156 0.340202898
vt 0.176420823 0.445024401
vt 0.698547125 0.253689766
vt 0.17670466 0.556481063
vt 0.770449519 0.338880777
vt 0.215125158 0.661117733
vt 0.808872342 0.443515688
vt 0.287024915 0.746310472
vt 0.809157014 0.554970443
vt 0.383731991 0.801791012
vt 0.771277428 0.659790874
vt 0.493592232 0.820885599
vt 0.699800491 0.745329022
vt 0.603361487 0.801270783
vt 0.713871062 0.460590094
vt 0.714031041 0.538447738
vt 0.687595844 0.611655951
vt 0.637653589 0.671453118
vt 0.570206523 0.710601926
vt 0.493351102 0.724376798
vt 0.687010527 0.387444824
vt 0.416451693 0.710948944
vt 0.63674742 0.327869803
vt 0.348825604 0.672129631
vt 0.569119811 0.289050937
vt 0.298564494 0.612553477
vt 0.492221534 0.27562207
vt 0.271705061 0.53940618
vt 0.41536817 0.28939569
vt 0.27154547 0.461546332
vt 0.347922266 0.328542799
vt 0.297980309 0.388338268
vt 0.492284 0.369996786
vt 0.447499931 0.378182411
vt 0.408414215 0.401191682
vt 0.379798681 0.435927689
vt 0.364811033 0.478083223
vt 0.364945233 0.522731662
vt 0.537124395 0.377884001
vt 0.38027972 0.564795971
vt 0.576388955 0.400625706
vt 0.409184188 0.599372506
vt 0.605294526 0.435201198
vt 0.448447227 0.622114539
vt 0.620629728 0.477263659
vt 0.493287325 0.630001426
vt 0.538073123 0.621815205
vt 0.49330759 0.556508064
vt 0.47434932 0.55337131
vt 0.492786378 0.499997288
vt 0.457414865 0.543874621
vt 0.512291074 0.553024888
vt 0.444559813 0.528956652
vt 0.437536985 0.510312676
vt 0.437418669 0.490460366
vt 0.44400537 0.47194609
vt 0.456473112 0.456854552
vt 0.529100478 0.543141007
vt 0.473281443 0.446971267
vt 0.492264152 0.443488628
vt 0.51122272 0.44662562
vt 0.528158605 0.456122488
vt 0.541014314 0.4710401
vt 0.577160001 0.598804593
vt 0.548037171 0.489682287
vt 0.541568637 0.528048396
vt 0.60577625 0.564067245
vt 0.548155606 0.509533405
vt 0.620764196 0.521910548
vn -0.654871106 0.00313672796 0.755734086
vn -0.607225895 0.166070074 0.776979744
vn -0.323669612 0.0558898598 0.94451797
vn -0.862108946 0.0919665173 0.498307467
vn -0.817541778 0.25621742 0.515730679
vn -0.375463516 -0.105432637 0.920820832
vn -0.00106179563 -0.061035946 0.998134971
vn -0.972186446 0.150347218 0.179580361
vn -0.929254293 0.315464318 0.192272514
vn -0.0575784817 -0.220649004 0.973652244
vn 0.321667284 -0.170597121 0.931357443
vn -0.971821189 0.171236351 -0.161992401
vn -0.928884089 0.336663157 -0.154377058
vn 0.260427177 -0.328606486 0.907852113
vn 0.605593085 -0.259583116 0.752245784
vn -0.861060381 0.152111337 -0.485218704
vn -0.816478848 0.317254364 -0.482402325
vn 0.540198624 -0.416285634 0.731362939
vn 0.816474676 -0.317260176 0.482405484
vn -0.653258204 0.0952800214 -0.751116157
vn -0.605589211 0.259578794 -0.752250314
vn 0.747998595 -0.473115563 0.465467334
vn 0.928882539 -0.33666712 0.154378012
vn -0.373483926 0.00760078058 -0.92760545
vn -0.321659297 0.170594662 -0.931360781
vn 0.858759284 -0.492240131 0.142239869
vn 0.929253995 -0.315465331 -0.192272365
vn -0.0554814376 -0.100355595 -0.993403494
vn 0.00106172881 0.0610360578 -0.998134971
vn 0.859124124 -0.471351266 -0.199333161
vn 0.817544162 -0.256215394 -0.515727758
vn 0.262395591 -0.215569273 -0.940573454
vn 0.323661864 -0.0558868088 -0.944520831
vn 0.749046862 -0.412969559 -0.518058777
vn 0.607222378 -0.166064993 -0.776983559
vn 0.541804135 -0.324137568 -0.775488973
vn 0.547764301 -0.739367247 0.391523212
vn 0.645633996 -0.756266594 0.10591317
vn 0.645955443 -0.737809718 -0.195904061
vn 0.548691154 -0.686223686 -0.477530241
vn 0.365568399 -0.607729256 -0.704999924
vn 0.118682154 -0.511796355 -0.850869536
vn 0.364148706 -0.689152718 0.626469731
vn -0.162195012 -0.409995645 -0.897550166
vn 0.116940953 -0.611680746 0.78241384
vn -0.443188667 -0.314602196 -0.839410126
vn -0.164050862 -0.516289115 0.840555191
vn -0.690398335 -0.237128034 -0.683462143
vn -0.444933385 -0.414484173 0.79387486
vn -0.874011993 -0.186911181 -0.448516726
vn -0.69182235 -0.318547457 0.648004115
vn -0.971882761 -0.170012698 -0.162909403
vn -0.87494266 -0.240055263 0.420533955
vn -0.972205043 -0.18847023 0.13891156
vn -0.462560594 -0.675944924 0.573703885
vn -0.647958636 -0.603904605 0.464164615
vn -0.78546983 -0.544960916 0.293350846
vn -0.858506322 -0.506225288 0.0818704814
vn -0.858264089 -0.49236539 -0.144772634
vn -0.784770072 -0.505054533 -0.359243423
vn -0.251641273 -0.752391994 0.608755171
vn -0.646888256 -0.542762339 -0.535672128
vn -0.0406380259 -0.824022114 0.565098345
vn -0.461253852 -0.600943625 -0.652772188
vn 0.14499557 -0.882201016 0.447992742
vn -0.250248492 -0.672575772 -0.696431994
vn 0.282876939 -0.919909596 0.271563709
vn -0.0393343605 -0.749019265 -0.661379635
vn 0.356370747 -0.932598531 0.0570944361
vn 0.146063522 -0.821056128 -0.551844478
vn 0.356612206 -0.918738008 -0.169552743
vn 0.283575416 -0.880001605 -0.381027848
vn -0.0633486584 -0.967167258 0.246118993
vn 0.0205490012 -0.990112603 0.138761505
vn 0.065268375 -0.99783355 0.00826344546
vn 0.0654152259 -0.98939997 -0.12964724
vn 0.0209746398 -0.965829432 -0.258328766
vn -0.0627000034 -0.929962337 -0.362268776
vn -0.176308468 -0.93176657 0.31737414
vn -0.175516337 -0.886124253 -0.428926378
vn -0.304697096 -0.888179064 0.343944192
vn -0.433040142 -0.841663361 0.322612822
vn -0.322990179 -0.930389524 0.173357174
vn -0.248714074 -0.955604613 0.157990873
vn -0.33165285 -0.941620946 -0.0579357073
vn -0.183358237 -0.976087451 0.116760775
vn -0.397242278 -0.90347743 0.161018878
vn -0.134818926 -0.989362061 0.0546499975
vn -0.108948343 -0.993828714 -0.0208493341
vn -0.10886158 -0.988950074 -0.100631967
vn -0.134572789 -0.975313842 -0.17508015
vn -0.182983294 -0.954562545 -0.23521772
vn -0.462514281 -0.87811482 0.122453243
vn -0.248257697 -0.929198623 -0.273785025
vn -0.322504759 -0.902288258 -0.286123365
vn -0.303852141 -0.839612007 -0.450250655
vn -0.432241529 -0.796023607 -0.423690587
vn -0.545853555 -0.797828019 0.255957633
vn -0.396778613 -0.877074063 -0.270754367
vn -0.545203269 -0.760623217 -0.352428347
vn -0.510922253 -0.857364893 0.0623213463
vn -0.629527748 -0.761961401 0.15201892
vn -0.462138057 -0.856590569 -0.229523063
vn -0.629102349 -0.737678111 -0.245073527
vn -0.536632955 -0.843728602 -0.0121300323
vn -0.67396909 -0.738390923 0.0233353563
vn -0.67382139 -0.729957402 -0.114572808
vn -0.51067704 -0.843316138 -0.167412102
vn -0.53654772 -0.838848948 -0.0919173136
vn 0.654871106 0.00313682016 0.755734086
vn 0.375463575 -0.105432406 0.920820951
vn 0.323669583 0.0558901019 0.94451797
vn 0.607225478 0.16607064 0.776979923
vn 0.00106168003 -0.0610360317 0.998134971
vn 0.862108707 0.0919666365 0.498308033
vn 0.817541063 0.256218284 0.515731394
vn 0.0575784855 -0.220649004 0.973652244
vn -0.321667254 -0.170597419 0.931357443
vn 0.972186446 0.150347874 0.179580495
vn 0.929253757 0.315465748 0.192272589
vn -0.260427028 -0.328606546 0.907852232
vn -0.605592906 -0.259583712 0.752245665
vn 0.971820951 0.171236902 -0.161993101
vn 0.928883433 0.336664796 -0.154377788
vn -0.540198505 -0.416285813 0.731362879
vn -0.816474617 -0.317260742 0.482405365
vn 0.861060321 0.152111739 -0.485218734
vn 0.816478431 0.317255497 -0.482402325
vn -0.747998357 -0.473115861 0.465467304
vn -0.928882539 -0.336666971 0.154378057
vn 0.653258324 0.0952803418 -0.751116037
vn 0.60558933 0.25957942 -0.752250016
vn -0.858759224 -0.49224031 0.142239958
vn -0.929254055 -0.315465182 -0.192272216
vn 0.373483807 0.00760111306 -0.927605569
vn 0.321659267 0.170594901 -0.931360662
vn -0.859124303 -0.471351147 -0.199333191
vn -0.817544162 -0.256215632 -0.515727758
vn 0.0554813892 -0.100355469 -0.993403494
vn -0.00106195931 0.0610360056 -0.998134971
vn -0.749046922 -0.41296944 -0.518058717
vn -0.607222199 -0.166065276 -0.776983619
vn -0.262395591 -0.215569302 -0.940573454
vn -0.323661864 -0.0558870099 -0.944520831
vn -0.541803896 -0.324137688 -0.775488973
vn 0.443188459 -0.314602226 -0.839410186
vn 0.162194788 -0.409995794 -0.897550166
vn -0.118682332 -0.511796415 -0.850869536
vn -0.365568399 -0.607729256 -0.704999924
vn -0.548691154 -0.686223626 -0.47753039
vn -0.645955443 -0.737809718 -0.195904031
vn 0.690398335 -0.23712796 -0.683462143
vn -0.645633817 -0.756266713 0.105913468
vn 0.874012053 -0.186910838 -0.448516756
vn -0.547764122 -0.739367306 0.391523153
vn 0.971882701 -0.170013025 -0.162909821
vn -0.364148915 -0.689152777 0.626469553
vn 0.972204924 -0.188470557 0.138911575
vn -0.11694093 -0.611680686 0.78241396
vn 0.874942303 -0.240055501 0.420534611
vn 0.164050892 -0.516289055 0.840555131
vn 0.691822112 -0.318547636 0.648004353
vn 0.444933683 -0.414484143 0.793874621
vn 0.858264089 -0.492365301 -0.144772485
vn 0.858506322 -0.506225348 0.0818703622
vn 0.785469353 -0.544961035 0.29335168
vn 0.647958219 -0.603904486 0.46416527
vn 0.462560922 -0.675944686 0.573703885
vn 0.251641363 -0.752391815 0.608755469
vn 0.784770429 -0.505054235 -0.359243125
vn 0.0406377837 -0.824022055 0.565098405
vn 0.646888435 -0.542761803 -0.535672367
vn -0.144995928 -0.882201135 0.447992504
vn 0.461253405 -0.600943863 -0.652772367
vn -0.282877296 -0.919909537 0.271563858
vn 0.250247717 -0.672575951 -0.696431994
vn -0.356370687 -0.932598531 0.0570949465
vn 0.0393341072 -0.749019325 -0.661379576
vn -0.356612265 -0.918738008 -0.169552758
vn -0.146063372 -0.821056128 -0.551844478
vn -0.283575267 -0.880001605 -0.381027907
vn 0.303850949 -0.839612007 -0.4502514
vn 0.175515994 -0.886124194 -0.428926647
vn 0.0626995564 -0.929962456 -0.362268656
vn -0.0209745467 -0.965829194 -0.258329242
vn -0.0654157549 -0.98939985 -0.129647762
vn -0.0652689785 -0.997833431 0.00826432649
vn 0.432240725 -0.796023905 -0.423690915
vn -0.0205494706 -0.990112484 0.138762265
vn 0.545203686 -0.760622978 -0.352428049
vn 0.0633482188 -0.967167258 0.246118844
vn 0.629102409 -0.737678349 -0.245072946
vn 0.176307321 -0.931766808 0.317373931
vn 0.673821867 -0.729956925 -0.11457295
vn 0.304696858 -0.888179064 0.34394443
vn 0.433041185 -0.841662586 0.32261318
vn 0.322988957 -0.930390179 0.17335619
vn 0.248711541 -0.955605388 0.157989994
vn 0.331652313 -0.941621006 -0.0579355173
vn 0.183358014 -0.976087451 0.11676082
vn 0.397244215 -0.903476715 0.161017939
vn 0.134819552 -0.989361823 0.0546519235
vn 0.108948737 -0.993828714 -0.020847464
vn 0.108862102 -0.988949835 -0.10063383
vn 0.134573251 -0.975313485 -0.175081998
vn 0.182981402 -0.9545632 -0.235216692
vn 0.462513953 -0.878114879 0.122454241
vn 0.248257518 -0.929198802 -0.27378425
vn 0.322503597 -0.902288496 -0.286123872
vn 0.396776885 -0.877075076 -0.270753503
vn 0.46213904 -0.856590688 -0.229520813
vn 0.51067692 -0.843316317 -0.167411894
vn 0.545853257 -0.797827899 0.255958676
vn 0.536546946 -0.838849366 -0.0919188336
vn 0.510920465 -0.857365847 0.0623235665
vn 0.629527271 -0.76196146 0.152020305
vn 0.536632299 -0.843729019 -0.0121301636
vn 0.673969209 -0.738390744 0.0233352613
g YanJing_0
f 3/3/3 2/2/2 1/1/1
f 1/1/1 2/2/2 4/4/4
f 2/2/2 5/5/5 4/4/4
f 6/6/6 3/3/3 1/1/1
f 7/7/7 3/3/3 6/6/6
f 4/4/4 5/5/5 8/8/8
f 5/5/5 9/9/9 8/8/8
f 10/10/10 7/7/7 6/6/6
f 11/11/11 7/7/7 10/10/10
f 8/8/8 9/9/9 12/12/12
f 9/9/9 13/13/13 12/12/12
f 14/14/14 11/11/11 10/10/10
f 15/15/15 11/11/11 14/14/14
f 12/12/12 13/13/13 16/16/16
f 13/13/13 17/17/17 16/16/16
f 18/18/18 15/15/15 14/14/14
f 19/19/19 15/15/15 18/18/18
f 16/16/16 17/17/17 20/20/20
f 17/17/17 21/21/21 20/20/20
f 22/22/22 19/19/19 18/18/18
f 23/23/23 19/19/19 22/22/22
f 20/20/20 21/21/21 24/24/24
f 21/21/21 25/25/25 24/24/24
f 26/26/26 23/23/23 22/22/22
f 27/27/27 23/23/23 26/26/26
f 24/24/24 25/25/25 28/28/28
f 25/25/25 29/29/29 28/28/28
f 30/30/30 27/27/27 26/26/26
f 31/31/31 27/27/27 30/30/30
f 28/28/28 29/29/29 32/32/32
f 29/29/29 33/33/33 32/32/32
f 34/34/34 31/31/31 30/30/30
f 35/35/35 31/31/31 34/34/34
f 33/33/33 35/35/35 36/36/36
f 32/32/32 33/33/33 36/36/36
f 36/36/36 35/35/35 34/34/34
f 26/26/26 22/22/22 37/37/37
f 30/30/30 26/26/26 38/38/38
f 38/38/38 26/26/26 37/37/37
f 34/34/34 30/30/30 39/39/39
f 39/39/39 30/30/30 38/38/38
f 36/36/36 34/34/34 40/40/40
f 40/40/40 34/34/34 39/39/39
f 32/32/32 36/36/36 41/41/41
f 41/41/41 36/36/36 40/40/40
f 28/28/28 32/32/32 42/42/42
f 42/42/42 32/32/32 41/41/41
f 37/37/37 22/22/22 43/43/43
f 22/22/22 18/18/18 43/43/43
f 44/44/44 28/28/28 42/42/42
f 24/24/24 28/28/28 44/44/44
f 43/43/43 18/18/18 45/45/45
f 18/18/18 14/14/14 45/45/45
f 46/46/46 24/24/24 44/44/44
f 20/20/20 24/24/24 46/46/46
f 45/45/45 14/14/14 47/47/47
f 14/14/14 10/10/10 47/47/47
f 48/48/48 20/20/20 46/46/46
f 16/16/16 20/20/20 48/48/48
f 47/47/47 10/10/10 49/49/49
f 10/10/10 6/6/6 49/49/49
f 50/50/50 16/16/16 48/48/48
f 12/12/12 16/16/16 50/50/50
f 49/49/49 6/6/6 51/51/51
f 6/6/6 1/1/1 51/51/51
f 52/52/52 12/12/12 50/50/50
f 8/8/8 12/12/12 52/52/52
f 51/51/51 1/1/1 53/53/53
f 1/1/1 4/4/4 53/53/53
f 4/4/4 8/8/8 54/54/54
f 54/54/54 8/8/8 52/52/52
f 53/53/53 4/4/4 54/54/54
f 47/47/47 49/49/49 55/55/55
f 49/49/49 51/51/51 56/56/56
f 55/55/55 49/49/49 56/56/56
f 51/51/51 53/53/53 57/57/57
f 56/56/56 51/51/51 57/57/57
f 53/53/53 54/54/54 58/58/58
f 57/57/57 53/53/53 58/58/58
f 54/54/54 52/52/52 59/59/59
f 58/58/58 54/54/54 59/59/59
f 52/52/52 50/50/50 60/60/60
f 59/59/59 52/52/52 60/60/60
f 61/61/61 47/47/47 55/55/55
f 45/45/45 47/47/47 61/61/61
f 60/60/60 50/50/50 62/62/62
f 50/50/50 48/48/48 62/62/62
f 63/63/63 45/45/45 61/61/61
f 43/43/43 45/45/45 63/63/63
f 62/62/62 48/48/48 64/64/64
f 48/48/48 46/46/46 64/64/64
f 65/65/65 43/43/43 63/63/63
f 37/37/37 43/43/43 65/65/65
f 64/64/64 46/46/46 66/66/66
f 46/46/46 44/44/44 66/66/66
f 67/67/67 37/37/37 65/65/65
f 38/38/38 37/37/37 67/67/67
f 66/66/66 44/44/44 68/68/68
f 44/44/44 42/42/42 68/68/68
f 69/69/69 38/38/38 67/67/67
f 39/39/39 38/38/38 69/69/69
f 68/68/68 42/42/42 70/70/70
f 42/42/42 41/41/41 70/70/70
f 71/71/71 39/39/39 69/69/69
f 40/40/40 39/39/39 71/71/71
f 41/41/41 40/40/40 72/72/72
f 70/70/70 41/41/41 72/72/72
f 72/72/72 40/40/40 71/71/71
f 67/67/67 65/65/65 73/73/73
f 69/69/69 67/67/67 74/74/74
f 74/74/74 67/67/67 73/73/73
f 71/71/71 69/69/69 75/75/75
f 75/75/75 69/69/69 74/74/74
f 72/72/72 71/71/71 76/76/76
f 76/76/76 71/71/71 75/75/75
f 70/70/70 72/72/72 77/77/77
f 77/77/77 72/72/72 76/76/76
f 68/68/68 70/70/70 78/78/78
f 78/78/78 70/70/70 77/77/77
f 73/73/73 65/65/65 79/79/79
f 65/65/65 63/63/63 79/79/79
f 80/80/80 68/68/68 78/78/78
f 66/66/66 68/68/68 80/80/80
f 79/79/79 63/63/63 81/81/81
f 63/63/63 61/61/61 81/81/81
f 81/81/81 61/61/61 82/82/82
f 61/61/61 55/55/55 82/82/82
f 79/79/79 81/81/81 83/83/83
f 81/81/81 82/82/82 83/83/83
f 73/73/73 79/79/79 84/84/84
f 84/84/84 79/79/79 83/83/83
f 84/84/84 83/83/83 85/85/85
f 86/86/86 84/84/84 85/85/85
f 86/86/86 73/73/73 84/84/84
f 83/83/83 87/87/87 85/85/85
f 82/82/82 87/87/87 83/83/83
f 74/74/74 73/73/73 86/86/86
f 88/88/88 74/74/74 86/86/86
f 88/88/88 86/86/86 85/85/85
f 75/75/75 74/74/74 88/88/88
f 89/89/89 75/75/75 88/88/88
f 89/89/89 88/88/88 85/85/85
f 76/76/76 75/75/75 89/89/89
f 90/90/90 76/76/76 89/89/89
f 90/90/90 89/89/89 85/85/85
f 77/77/77 76/76/76 90/90/90
f 91/91/91 77/77/77 90/90/90
f 91/91/91 90/90/90 85/85/85
f 78/78/78 77/77/77 91/91/91
f 92/92/92 78/78/78 91/91/91
f 92/92/92 91/91/91 85/85/85
f 80/80/80 78/78/78 92/92/92
f 87/87/87 93/93/93 85/85/85
f 94/94/94 92/92/92 85/85/85
f 94/94/94 80/80/80 92/92/92
f 95/95/95 94/94/94 85/85/85
f 87/87/87 82/82/82 93/93/93
f 96/96/96 80/80/80 94/94/94
f 95/95/95 96/96/96 94/94/94
f 96/96/96 66/66/66 80/80/80
f 64/64/64 66/66/66 96/96/96
f 97/97/97 64/64/64 96/96/96
f 97/97/97 96/96/96 95/95/95
f 62/62/62 64/64/64 97/97/97
f 82/82/82 98/98/98 93/93/93
f 82/82/82 55/55/55 98/98/98
f 55/55/55 56/56/56 98/98/98
f 99/99/99 97/97/97 95/95/95
f 99/99/99 95/95/95 85/85/85
f 100/100/100 62/62/62 97/97/97
f 100/100/100 97/97/97 99/99/99
f 60/60/60 62/62/62 100/100/100
f 93/93/93 98/98/98 101/101/101
f 93/93/93 101/101/101 85/85/85
f 98/98/98 56/56/56 102/102/102
f 98/98/98 102/102/102 101/101/101
f 56/56/56 57/57/57 102/102/102
f 103/103/103 100/100/100 99/99/99
f 103/103/103 99/99/99 85/85/85
f 104/104/104 60/60/60 100/100/100
f 104/104/104 100/100/100 103/103/103
f 59/59/59 60/60/60 104/104/104
f 101/101/101 102/102/102 105/105/105
f 101/101/101 105/105/105 85/85/85
f 102/102/102 57/57/57 106/106/106
f 102/102/102 106/106/106 105/105/105
f 57/57/57 58/58/58 106/106/106
f 58/58/58 59/59/59 107/107/107
f 107/107/107 59/59/59 104/104/104
f 106/106/106 58/58/58 107/107/107
f 108/108/108 104/104/104 103/103/103
f 108/108/108 103/103/103 85/85/85
f 107/107/107 104/104/104 108/108/108
f 105/105/105 109/109/109 85/85/85
f 105/105/105 106/106/106 109/109/109
f 109/109/109 108/108/108 85/85/85
f 109/109/109 107/107/107 108/108/108
f 106/106/106 107/107/107 109/109/109
f 112/112/112 111/111/111 110/110/110
f 113/113/113 112/112/112 110/110/110
f 112/112/112 114/114/114 111/111/111
f 113/113/113 110/110/110 115/115/115
f 116/116/116 113/113/113 115/115/115
f 114/114/114 117/117/117 111/111/111
f 114/114/114 118/118/118 117/117/117
f 116/116/116 115/115/115 119/119/119
f 120/120/120 116/116/116 119/119/119
f 118/118/118 121/121/121 117/117/117
f 118/118/118 122/122/122 121/121/121
f 120/120/120 119/119/119 123/123/123
f 124/124/124 120/120/120 123/123/123
f 122/122/122 125/125/125 121/121/121
f 122/122/122 126/126/126 125/125/125
f 124/124/124 123/123/123 127/127/127
f 128/128/128 124/124/124 127/127/127
f 126/126/126 129/129/129 125/125/125
f 126/126/126 130/130/130 129/129/129
f 128/128/128 127/127/127 131/131/131
f 132/132/132 128/128/128 131/131/131
f 130/130/130 133/133/133 129/129/129
f 130/130/130 134/134/134 133/133/133
f 132/132/132 131/131/131 135/135/135
f 136/136/136 132/132/132 135/135/135
f 134/134/134 137/137/137 133/133/133
f 134/134/134 138/138/138 137/137/137
f 136/136/136 135/135/135 139/139/139
f 140/140/140 136/136/136 139/139/139
f 138/138/138 141/141/141 137/137/137
f 138/138/138 142/142/142 141/141/141
f 140/140/140 139/139/139 143/143/143
f 144/144/144 140/140/140 143/143/143
f 142/142/142 144/144/144 145/145/145
f 142/142/142 145/145/145 141/141/141
f 144/144/144 143/143/143 145/145/145
f 135/135/135 131/131/131 146/146/146
f 139/139/139 135/135/135 147/147/147
f 135/135/135 146/146/146 147/147/147
f 143/143/143 139/139/139 148/148/148
f 139/139/139 147/147/147 148/148/148
f 145/145/145 143/143/143 149/149/149
f 143/143/143 148/148/148 149/149/149
f 141/141/141 145/145/145 150/150/150
f 145/145/145 149/149/149 150/150/150
f 137/137/137 141/141/141 151/151/151
f 141/141/141 150/150/150 151/151/151
f 131/131/131 152/152/152 146/146/146
f 131/131/131 127/127/127 152/152/152
f 137/137/137 151/151/151 153/153/153
f 133/133/133 137/137/137 153/153/153
f 127/127/127 154/154/154 152/152/152
f 127/127/127 123/123/123 154/154/154
f 133/133/133 153/153/153 155/155/155
f 129/129/129 133/133/133 155/155/155
f 123/123/123 156/156/156 154/154/154
f 123/123/123 119/119/119 156/156/156
f 129/129/129 155/155/155 157/157/157
f 125/125/125 129/129/129 157/157/157
f 119/119/119 158/158/158 156/156/156
f 119/119/119 115/115/115 158/158/158
f 125/125/125 157/157/157 159/159/159
f 121/121/121 125/125/125 159/159/159
f 115/115/115 160/160/160 158/158/158
f 115/115/115 110/110/110 160/160/160
f 121/121/121 159/159/159 161/161/161
f 117/117/117 121/121/121 161/161/161
f 110/110/110 162/162/162 160/160/160
f 110/110/110 111/111/111 162/162/162
f 111/111/111 117/117/117 163/163/163
f 117/117/117 161/161/161 163/163/163
f 111/111/111 163/163/163 162/162/162
f 156/156/156 158/158/158 164/164/164
f 158/158/158 160/160/160 165/165/165
f 158/158/158 165/165/165 164/164/164
f 160/160/160 162/162/162 166/166/166
f 160/160/160 166/166/166 165/165/165
f 162/162/162 163/163/163 167/167/167
f 162/162/162 167/167/167 166/166/166
f 163/163/163 161/161/161 168/168/168
f 163/163/163 168/168/168 167/167/167
f 161/161/161 159/159/159 169/169/169
f 161/161/161 169/169/169 168/168/168
f 156/156/156 164/164/164 170/170/170
f 154/154/154 156/156/156 170/170/170
f 159/159/159 171/171/171 169/169/169
f 159/159/159 157/157/157 171/171/171
f 154/154/154 170/170/170 172/172/172
f 152/152/152 154/154/154 172/172/172
f 157/157/157 173/173/173 171/171/171
f 157/157/157 155/155/155 173/173/173
f 152/152/152 172/172/172 174/174/174
f 146/146/146 152/152/152 174/174/174
f 155/155/155 175/175/175 173/173/173
f 155/155/155 153/153/153 175/175/175
f 146/146/146 174/174/174 176/176/176
f 147/147/147 146/146/146 176/176/176
f 153/153/153 177/177/177 175/175/175
f 153/153/153 151/151/151 177/177/177
f 147/147/147 176/176/176 178/178/178
f 148/148/148 147/147/147 178/178/178
f 151/151/151 179/179/179 177/177/177
f 151/151/151 150/150/150 179/179/179
f 148/148/148 178/178/178 180/180/180
f 149/149/149 148/148/148 180/180/180
f 150/150/150 149/149/149 181/181/181
f 150/150/150 181/181/181 179/179/179
f 149/149/149 180/180/180 181/181/181
f 176/176/176 174/174/174 182/182/182
f 178/178/178 176/176/176 183/183/183
f 176/176/176 182/182/182 183/183/183
f 180/180/180 178/178/178 184/184/184
f 178/178/178 183/183/183 184/184/184
f 181/181/181 180/180/180 185/185/185
f 180/180/180 184/184/184 185/185/185
f 179/179/179 181/181/181 186/186/186
f 181/181/181 185/185/185 186/186/186
f 177/177/177 179/179/179 187/187/187
f 179/179/179 186/186/186 187/187/187
f 174/174/174 188/188/188 182/182/182
f 174/174/174 172/172/172 188/188/188
f 177/177/177 187/187/187 189/189/189
f 175/175/175 177/177/177 189/189/189
f 172/172/172 190/190/190 188/188/188
f 172/172/172 170/170/170 190/190/190
f 175/175/175 189/189/189 191/191/191
f 173/173/173 175/175/175 191/191/191
f 170/170/170 192/192/192 190/190/190
f 170/170/170 164/164/164 192/192/192
f 173/173/173 191/191/191 193/193/193
f 171/171/171 173/173/173 193/193/193
f 164/164/164 194/194/194 192/192/192
f 164/164/164 165/165/165 194/194/194
f 171/171/171 193/193/193 195/195/195
f 169/169/169 171/171/171 195/195/195
f 169/169/169 195/195/195 196/196/196
f 168/168/168 169/169/169 196/196/196
f 195/195/195 193/193/193 197/197/197
f 195/195/195 197/197/197 196/196/196
f 193/193/193 191/191/191 198/198/198
f 193/193/193 198/198/198 197/197/197
f 197/197/197 198/198/198 199/199/199
f 198/198/198 200/200/200 199/199/199
f 191/191/191 200/200/200 198/198/198
f 201/201/201 197/197/197 199/199/199
f 197/197/197 201/201/201 196/196/196
f 191/191/191 189/189/189 200/200/200
f 189/189/189 202/202/202 200/200/200
f 200/200/200 202/202/202 199/199/199
f 189/189/189 187/187/187 202/202/202
f 187/187/187 203/203/203 202/202/202
f 202/202/202 203/203/203 199/199/199
f 187/187/187 186/186/186 203/203/203
f 186/186/186 204/204/204 203/203/203
f 203/203/203 204/204/204 199/199/199
f 186/186/186 185/185/185 204/204/204
f 185/185/185 205/205/205 204/204/204
f 204/204/204 205/205/205 199/199/199
f 185/185/185 184/184/184 205/205/205
f 184/184/184 206/206/206 205/205/205
f 205/205/205 206/206/206 199/199/199
f 184/184/184 183/183/183 206/206/206
f 207/207/207 201/201/201 199/199/199
f 206/206/206 208/208/208 199/199/199
f 183/183/183 208/208/208 206/206/206
f 208/208/208 209/209/209 199/199/199
f 183/183/183 182/182/182 208/208/208
f 182/182/182 209/209/209 208/208/208
f 182/182/182 188/188/188 209/209/209
f 196/196/196 201/201/201 207/207/207
f 188/188/188 210/210/210 209/209/209
f 209/209/209 210/210/210 199/199/199
f 188/188/188 190/190/190 210/210/210
f 190/190/190 211/211/211 210/210/210
f 210/210/210 211/211/211 199/199/199
f 190/190/190 192/192/192 211/211/211
f 192/192/192 212/212/212 211/211/211
f 211/211/211 212/212/212 199/199/199
f 192/192/192 194/194/194 212/212/212
f 213/213/213 196/196/196 207/207/207
f 168/168/168 196/196/196 213/213/213
f 167/167/167 168/168/168 213/213/213
f 194/194/194 214/214/214 212/212/212
f 212/212/212 214/214/214 199/199/199
f 215/215/215 207/207/207 199/199/199
f 213/213/213 207/207/207 215/215/215
f 167/167/167 213/213/213 216/216/216
f 216/216/216 213/213/213 215/215/215
f 166/166/166 167/167/167 216/216/216
f 217/217/217 215/215/215 199/199/199
f 214/214/214 217/217/217 199/199/199
f 216/216/216 215/215/215 217/217/217
f 194/194/194 218/218/218 214/214/214
f 218/218/218 217/217/217 214/214/214
f 218/218/218 216/216/216 217/217/217
f 166/166/166 216/216/216 218/218/218
f 165/165/165 218/218/218 194/194/194
f 165/165/165 166/166/166 218/218/218
