g jinbianfuyu_1
v 0.0225079991 0.160424992 -0.48617515
v 0.0288669989 0.160351977 -0.493426114
v 0.0243100002 0.160955012 -0.483449042
v 0.0242929999 0.159779996 -0.483430088
v 0.0288669989 0.160351977 -0.493426114
v 0.0225079991 0.160424992 -0.48617515
v 0.0280200001 0.160451978 -0.478830099
v 0.0288669989 0.160351977 -0.493426114
v 0.0242929999 0.159779996 -0.483430088
v 0.0243100002 0.160955012 -0.483449042
v 0.0288669989 0.160351977 -0.493426114
v 0.0280200001 0.160451978 -0.478830099
v -0.0225079991 0.160424992 -0.48617515
v -0.0243100002 0.160955012 -0.483449042
v -0.0288669989 0.160351977 -0.493426114
v -0.0242929999 0.159779996 -0.483430088
v -0.0225079991 0.160424992 -0.48617515
v -0.0288669989 0.160351977 -0.493426114
v -0.0280200001 0.160451978 -0.478830099
v -0.0242929999 0.159779996 -0.483430088
v -0.0288669989 0.160351977 -0.493426114
v -0.0243100002 0.160955012 -0.483449042
v -0.0280200001 0.160451978 -0.478830099
v -0.0288669989 0.160351977 -0.493426114
v 0.365369976 0.176774994 0.0138750002
v 0.351106972 0.170441002 0.0175439995
v 0.341948003 0.169078007 0.0321679972
v 0.333855957 0.176774994 0.0441609994
v 0.315401971 0.168341994 0.0462250002
v 0.272210985 0.166721985 0.0669490024
v 0.344075531 0.182662219 0.0288825631
v 0.271620959 0.176774994 0.076824002
v 0.22201401 0.162727997 0.0804629996
v 0.272237003 0.186763987 0.0669490024
v 0.169225499 0.176835001 0.1110356
v 0.168631002 0.157672003 0.0971070006
v 0.131459996 0.158863991 0.122967996
v 0.18013382 0.19350259 0.0925603732
v 0.111411162 0.198402241 0.123565875
v 0.136208996 0.176774994 0.129645005
v 0.0901685134 0.176448554 0.17072612
v 0.101406999 0.157518998 0.150439993
v 0.0726410002 0.154662997 0.171075001
v 0.0584293865 0.176792562 0.192174301
v 0.0399629995 0.15022999 0.19625099
v 0.188663512 0.197467491 0.035851635
v 0.0357139967 0.176774994 0.203513995
v 0.0302647483 0.212914079 0.195209324
v -0 0.148820981 0.203778982
v -0 0.177987993 0.210555986
v -0 0.203462005 0.207686007
v -0.0357139967 0.176774994 0.203513995
v -0.0302647483 0.212914079 0.195209324
v -0.0584293865 0.176792562 0.192174301
v -0.0399629995 0.15022999 0.19625099
v -0.0726410002 0.154662997 0.171075001
v -0.0901685134 0.176448554 0.17072612
v -0.101406999 0.157518998 0.150439993
v -0.131459996 0.158863991 0.122967996
v 0.0191569999 0.220224991 0.18889299
v -0.0191569999 0.220224991 0.18889299
v -0 0.237761989 0.169300005
v -0.136208996 0.176774994 0.129645005
v -0.111411162 0.198402241 0.123565875
v -0.169225499 0.176835001 0.1110356
v -0.168631002 0.157672003 0.0971070006
v -0.22201401 0.162727997 0.0804629996
v -0.271620959 0.176774994 0.076824002
v -0.272210985 0.166721985 0.0669490024
v -0.18013382 0.19350259 0.0925603732
v -0.333855957 0.176774994 0.0441609994
v -0.315401971 0.168341994 0.0462250002
v -0.341948003 0.169078007 0.0321679972
v -0.272237003 0.186763987 0.0669490024
v -0.365369976 0.176774994 0.0138750002
v -0.351106972 0.170441002 0.0175439995
v -0.344075531 0.182662219 0.0288825631
v -0.188663512 0.197467491 0.035851635
v -0.338786274 0.181279287 0.0110536618
v -0.346440017 0.176774994 0.00569899986
v -0.283675045 0.176901236 -0.00268223463
v -0.24329488 0.186493903 -0.00395674258
v -0.117426984 0.212918997 0.0356369987
v -0.166933 0.192858994 -0.0345329978
v -0.218126997 0.176774994 -0.0198519994
v -0.121201999 0.207014993 0.0895740017
v -0.340104967 0.170326993 0.0103139998
v -0.351106972 0.170441002 0.0175439995
v -0.365369976 0.176774994 0.0138750002
v -0.306961 0.168841988 0.00784199964
v -0.273819 0.167252973 0.00308399997
v -0.219075978 0.16476801 -0.0115699992
v -0.166412994 0.161727995 -0.0329679996
v -0.164782003 0.175176993 -0.0439219996
v -0.121196002 0.163173005 -0.0666499957
v -0.121196002 0.184850007 -0.0665169954
v -0.127021 0.173129007 -0.0739189982
v -0.0946687087 0.173621342 -0.0910333619
v -0.0873560011 0.158062994 -0.0779540017
v -0.0666730031 0.158655003 -0.105242997
v -0.110002004 0.205984995 -0.0351819992
v -0.0592259914 0.228882 -0.0366719998
v -0.0746922046 0.172778264 -0.108193032
v -0.0634539947 0.245824978 0.0352349989
v -0 0.250955999 -0.0375009999
v -0.076553002 0.169545993 -0.125897989
v -0.0655030012 0.158964992 -0.126229003
v -0.083563 0.15759699 -0.147868991
v -0.0413869992 0.200330004 -0.109039001
v -0.118938997 0.158949003 -0.170554996
v -0.113960996 0.151331991 -0.175340995
v -0.0663476661 0.17871359 -0.128702119
v -0.0419522561 0.184054062 -0.156971931
v -0.132493004 0.153225005 -0.205814987
v -0.128933996 0.147236004 -0.208667979
v -0.116103001 0.164568007 -0.176194966
v -0.132150993 0.150845006 -0.224561006
v -0.128655002 0.146741003 -0.219166979
v -0.129358649 0.157188565 -0.218102545
v -0 0.185081005 -0.199995995
v -0.0251430012 0.177443996 -0.202889994
v -0.0427629985 0.163830981 -0.203961998
v -0.067061998 0.169972003 -0.189682007
v -0.0657370016 0.162355006 -0.198295996
v -0.0440250002 0.155880004 -0.19094497
v -0.0650499985 0.154073 -0.190081999
v -0.0949029997 0.150696993 -0.204432994
v -0.132150993 0.150845006 -0.224561006
v -0.121841989 0.14740099 -0.218474999
v -0.128655002 0.146741003 -0.219166979
v 0.0413869992 0.200330004 -0.109039001
v 0.0419522561 0.184054062 -0.156971931
v 0.0251430012 0.177443996 -0.202889994
v 0.0427629985 0.163830981 -0.203961998
v 0.067061998 0.169972003 -0.189682007
v 0.0657370016 0.162355006 -0.198295996
v 0.0440250002 0.155880004 -0.19094497
v 0.0650499985 0.154073 -0.190081999
v 0.0949029997 0.150696993 -0.204432994
v 0.121841989 0.14740099 -0.218474999
v 0.132150993 0.150845006 -0.224561006
v 0.128655002 0.146741003 -0.219166979
v 0.129358649 0.157188565 -0.218102545
v 0.116103001 0.164568007 -0.176194966
v 0.0663476661 0.17871359 -0.128702119
v 0.132493004 0.153225005 -0.205814987
v 0.132150993 0.150845006 -0.224561006
v 0.128933996 0.147236004 -0.208667979
v 0.128655002 0.146741003 -0.219166979
v 0.113960996 0.151331991 -0.175340995
v 0.118938997 0.158949003 -0.170554996
v 0.083563 0.15759699 -0.147868991
v 0.076553002 0.169545993 -0.125897989
v 0.0655030012 0.158964992 -0.126229003
v 0.0666730031 0.158655003 -0.105242997
v 0.0746922046 0.172778264 -0.108193032
v 0.0946687087 0.173621342 -0.0910333619
v 0.0873560011 0.158062994 -0.0779540017
v 0.121196002 0.163173005 -0.0666499957
v 0.0592259914 0.228882 -0.0366719998
v 0.127021 0.173129007 -0.0739189982
v 0.164782003 0.175176993 -0.0439219996
v 0.166412994 0.161727995 -0.0329679996
v 0.121196002 0.184850007 -0.0665169954
v 0.218126997 0.176774994 -0.0198519994
v 0.219075978 0.16476801 -0.0115699992
v 0.283675045 0.176901236 -0.00268223463
v 0.273819 0.167252973 0.00308399997
v 0.306961 0.168841988 0.00784199964
v 0.340104967 0.170326993 0.0103139998
v 0.110002004 0.205984995 -0.0351819992
v 0.166933 0.192858994 -0.0345329978
v 0.117426984 0.212918997 0.0356369987
v 0.24329488 0.186493903 -0.00395674258
v 0.346440017 0.176774994 0.00569899986
v 0.351106972 0.170441002 0.0175439995
v 0.365369976 0.176774994 0.0138750002
v 0.338786274 0.181279287 0.0110536618
v 0.0634539947 0.245824978 0.0352349989
v 0.121201999 0.207014993 0.0895740017
v -0 0.266336977 0.0352279991
v 0.0782917216 0.231939629 0.101370044
v 0.101290986 0.212071985 0.104703985
v 0.0434709974 0.257000983 0.0904840007
v 0.0473929979 0.251255989 0.120232001
v -0 0.266088009 0.0902329981
v -0.0434709974 0.257000983 0.0904840007
v -0.0473929979 0.251255989 0.120232001
v -0.0782917216 0.231939629 0.101370044
v -0 0.258848995 0.124701992
v -0.101290986 0.212071985 0.104703985
v 0.0989229977 0.231746972 0.104227997
v 0.0891510025 0.251520008 0.106201999
v 0.115037002 0.213183969 0.118031994
v 0.109562986 0.237026989 0.115796
v 0.106191993 0.214948997 0.137054995
v 0.100180998 0.190846995 0.143794
v 0.0820180029 0.189685985 0.163439006
v 0.0678189993 0.193059996 0.162634999
v 0.0570520014 0.189050972 0.17750299
v 0.043860998 0.212711975 0.188418999
v 0.0872439966 0.197893009 0.147635996
v 0.0487849936 0.203701988 0.174543992
v 0.0469269976 0.240133986 0.177343994
v 0.0508890003 0.224852011 0.172968
v 0.0678049996 0.207017004 0.171217993
v 0.087902002 0.213316992 0.159201995
v 0.0906249955 0.222659484 0.140300989
v 0.0787669271 0.226326019 0.169348374
v 0.0268031061 0.230807528 0.180243298
v 0.0628289953 0.239710972 0.158548996
v 0.0865859985 0.233686 0.155772001
v 0.0821329951 0.244445965 0.143368989
v 0.106682993 0.238054991 0.135435998
v 0.0627909973 0.259662986 0.168584988
v 0.0841180012 0.264743 0.150776997
v 0.101513997 0.254646987 0.138862997
v 0.0977569968 0.260728002 0.119441994
v 0.0649689957 0.271764964 0.131200999
v 0.0432559997 0.261963993 0.157011002
v 0.0309539977 0.247803986 0.147614002
v 0.0166260004 0.249118969 0.147781998
v -0.0166260004 0.249118969 0.147781998
v -0.0309539977 0.247803986 0.147614002
v -0.0268031061 0.230807528 0.180243298
v -0.0432559997 0.261963993 0.157011002
v -0.0469269976 0.240133986 0.177343994
v -0.0627909973 0.259662986 0.168584988
v -0.0649689957 0.271764964 0.131200999
v -0.043860998 0.212711975 0.188418999
v -0.0891510025 0.251520008 0.106201999
v -0.0989229977 0.231746972 0.104227997
v -0.115037002 0.213183969 0.118031994
v -0.109562986 0.237026989 0.115796
v -0.0977569968 0.260728002 0.119441994
v -0.0841180012 0.264743 0.150776997
v -0.0628289953 0.239710972 0.158548996
v -0.106191993 0.214948997 0.137054995
v -0.101513997 0.254646987 0.138862997
v -0.0821329951 0.244445965 0.143368989
v -0.106682993 0.238054991 0.135435998
v -0.0508890003 0.224852011 0.172968
v -0.100180998 0.190846995 0.143794
v -0.0906249955 0.222659484 0.140300989
v -0.0787669271 0.226326019 0.169348374
v -0.0820180029 0.189685985 0.163439006
v -0.0570520014 0.189050972 0.17750299
v -0.0872439966 0.197893009 0.147635996
v -0.0678189993 0.193059996 0.162634999
v -0.0487849936 0.203701988 0.174543992
v -0.0678049996 0.207017004 0.171217993
v -0.087902002 0.213316992 0.159201995
v -0.0865859985 0.233686 0.155772001
v 0.351106972 0.170441002 0.0175439995
v 0.315401971 0.168341994 0.0462250002
v 0.341948003 0.169078007 0.0321679972
v 0.272210985 0.166721985 0.0669490024
v 0.19228828 0.156462908 0.035713166
v 0.22201401 0.162727997 0.0804629996
v 0.168631002 0.157672003 0.0971070006
v 0.273819 0.167252973 0.00308399997
v 0.306961 0.168841988 0.00784199964
v 0.340104967 0.170326993 0.0103139998
v 0.219075978 0.16476801 -0.0115699992
v 0.166412994 0.161727995 -0.0329679996
v 0.114735991 0.137211993 0.0356030017
v 0.115033999 0.140919 0.0934939831
v 0.131459996 0.158863991 0.122967996
v 0.101406999 0.157518998 0.150439993
v 0.0980829969 0.147206992 -0.0349470004
v 0.0647399947 0.114101 -0.0364399999
v 0.121196002 0.163173005 -0.0666499957
v 0.0873560011 0.158062994 -0.0779540017
v 0.0666730031 0.158655003 -0.105242997
v 0.0760859996 0.105117999 0.0350789987
v 0.0772169977 0.110445 0.0970479921
v 0.0386388525 0.0894389302 0.0326265693
v 0.0749490038 0.129618987 0.151363999
v 0.0726410002 0.154662997 0.171075001
v 0.0399629995 0.15022999 0.19625099
v 0.0354944468 0.0924721584 0.105138198
v 0.0311145633 0.114018507 0.165810928
v -0 0.148820981 0.203778982
v -0.0301389974 0.112904996 0.165324003
v -0.0399629995 0.15022999 0.19625099
v -0.0354609974 0.0921269953 0.104644991
v -0.0749490038 0.129618987 0.151363999
v -0.0726410002 0.154662997 0.171075001
v -0.101406999 0.157518998 0.150439993
v -0.0772169977 0.110445 0.0970479921
v -0.0358470008 0.0878029987 0.0350919999
v -0.115033999 0.140919 0.0934939831
v -0.131459996 0.158863991 0.122967996
v -0.168631002 0.157672003 0.0971070006
v -0.0760859996 0.105117999 0.0350789987
v -0.0647399947 0.114101 -0.0364399999
v -0.114735991 0.137211993 0.0356030017
v -0.19228828 0.156462908 0.035713166
v -0.22201401 0.162727997 0.0804629996
v -0.272210985 0.166721985 0.0669490024
v 0.0236683786 0.0990702584 -0.0379339494
v -0.0294379964 0.100359999 -0.0366929993
v 0.0427298062 0.129810423 -0.11810413
v -0 0.118142992 -0.109660998
v -0.351106972 0.170441002 0.0175439995
v -0.315401971 0.168341994 0.0462250002
v -0.341948003 0.169078007 0.0321679972
v -0.0427298062 0.129810423 -0.11810413
v 0.0512699969 0.146534994 -0.156582996
v 0.0655030012 0.158964992 -0.126229003
v 0.083563 0.15759699 -0.147868991
v 0.0779384822 0.149715468 -0.168312475
v 0.113960996 0.151331991 -0.175340995
v 0.128933996 0.147236004 -0.208667979
v 0.128655002 0.146741003 -0.219166979
v 0.0949029997 0.150696993 -0.204432994
v 0.121841989 0.14740099 -0.218474999
v 0.0650499985 0.154073 -0.190081999
v 0.0440250002 0.155880004 -0.19094497
v 0.0248089973 0.141955003 -0.202900007
v 0.0427629985 0.163830981 -0.203961998
v -0 0.133352995 -0.203194991
v -0.0248089973 0.141955003 -0.202900007
v -0.0440250002 0.155880004 -0.19094497
v -0.0427629985 0.163830981 -0.203961998
v -0.0512699969 0.146534994 -0.156582996
v -0.0650499985 0.154073 -0.190081999
v -0.0666730031 0.158655003 -0.105242997
v -0.0655030012 0.158964992 -0.126229003
v -0.0873560011 0.158062994 -0.0779540017
v -0.083563 0.15759699 -0.147868991
v -0.0779384822 0.149715468 -0.168312475
v -0.113960996 0.151331991 -0.175340995
v -0.128933996 0.147236004 -0.208667979
v -0.0949029997 0.150696993 -0.204432994
v -0.128655002 0.146741003 -0.219166979
v -0.121841989 0.14740099 -0.218474999
v -0.0980829969 0.147206992 -0.0349470004
v -0.121196002 0.163173005 -0.0666499957
v -0.166412994 0.161727995 -0.0329679996
v -0.219075978 0.16476801 -0.0115699992
v -0.273819 0.167252973 0.00308399997
v -0.306961 0.168841988 0.00784199964
v -0.340104967 0.170326993 0.0103139998
v 0.0100610005 0.160642996 -0.482275158
v 0.0148319993 0.160496995 -0.481689095
v 0.0166449994 0.161558002 -0.47540915
v 0.00675199972 0.162763998 -0.469628125
v 0.00665199989 0.15806599 -0.469630122
v 0.016601 0.159208983 -0.475385129
v 0.0148319993 0.160496995 -0.481689095
v 0.0100610005 0.160642996 -0.482275158
v 0.0109299989 0.160751 -0.457420111
v 0.0213779993 0.160550997 -0.467994153
v 0.016601 0.159208983 -0.475385129
v 0.00665199989 0.15806599 -0.469630122
v 0.0109299989 0.160751 -0.457420111
v 0.00675199972 0.162763998 -0.469628125
v 0.0166449994 0.161558002 -0.47540915
v 0.0213779993 0.160550997 -0.467994153
v 0.0148319993 0.160496995 -0.481689095
v 0.0225079991 0.160424992 -0.48617515
v 0.0243100002 0.160955012 -0.483449042
v 0.0166449994 0.161558002 -0.47540915
v 0.016601 0.159208983 -0.475385129
v 0.0242929999 0.159779996 -0.483430088
v 0.0225079991 0.160424992 -0.48617515
v 0.0148319993 0.160496995 -0.481689095
v 0.0213779993 0.160550997 -0.467994153
v 0.0280200001 0.160451978 -0.478830099
v 0.0242929999 0.159779996 -0.483430088
v 0.016601 0.159208983 -0.475385129
v 0.0213779993 0.160550997 -0.467994153
v 0.0166449994 0.161558002 -0.47540915
v 0.0243100002 0.160955012 -0.483449042
v 0.0280200001 0.160451978 -0.478830099
v -0.0100610005 0.160642996 -0.482275158
v -0.00675199972 0.162763998 -0.469628125
v -0.0166449994 0.161558002 -0.47540915
v -0.0148319993 0.160496995 -0.481689095
v -0.00665199989 0.15806599 -0.469630122
v -0.0100610005 0.160642996 -0.482275158
v -0.0148319993 0.160496995 -0.481689095
v -0.016601 0.159208983 -0.475385129
v -0.0109299989 0.160751 -0.457420111
v -0.00665199989 0.15806599 -0.469630122
v -0.016601 0.159208983 -0.475385129
v -0.0213779993 0.160550997 -0.467994153
v -0.0109299989 0.160751 -0.457420111
v -0.0213779993 0.160550997 -0.467994153
v -0.0166449994 0.161558002 -0.47540915
v -0.00675199972 0.162763998 -0.469628125
v -0.0148319993 0.160496995 -0.481689095
v -0.0166449994 0.161558002 -0.47540915
v -0.0243100002 0.160955012 -0.483449042
v -0.0225079991 0.160424992 -0.48617515
v -0.016601 0.159208983 -0.475385129
v -0.0148319993 0.160496995 -0.481689095
v -0.0225079991 0.160424992 -0.48617515
v -0.0242929999 0.159779996 -0.483430088
v -0.0213779993 0.160550997 -0.467994153
v -0.016601 0.159208983 -0.475385129
v -0.0242929999 0.159779996 -0.483430088
v -0.0280200001 0.160451978 -0.478830099
v -0.0213779993 0.160550997 -0.467994153
v -0.0280200001 0.160451978 -0.478830099
v -0.0243100002 0.160955012 -0.483449042
v -0.0166449994 0.161558002 -0.47540915
v -0 0.176883623 -0.250515759
v -0 0.185081005 -0.199995995
v -0.0251430012 0.177443996 -0.202889994
v 0.0251430012 0.177443996 -0.202889994
v -0.0284328926 0.164160147 -0.253998846
v -0.0427629985 0.163830981 -0.203961998
v -0.0248089973 0.141955003 -0.202900007
v 0.0284328926 0.164160147 -0.253998846
v 0.0427629985 0.163830981 -0.203961998
v 0.0248089973 0.141955003 -0.202900007
v -0 0.172085986 -0.324135572
v -0.0169299971 0.163735002 -0.324056536
v 0.0169299971 0.163735002 -0.324056536
v -0.0109299989 0.160751 -0.457420111
v -0.0127400002 0.149982005 -0.324134588
v -0 0.133352995 -0.203194991
v 0.0127400002 0.149982005 -0.324134588
v -0 0.149392992 -0.397351682
v 0.0109299989 0.160751 -0.457420111
v -0 0.153584003 -0.469770074
v -0.00665199989 0.15806599 -0.469630122
v -0.00675199972 0.162763998 -0.469628125
v -0.0100610005 0.160642996 -0.482275158
v 0.00665199989 0.15806599 -0.469630122
v 0.00675199972 0.162763998 -0.469628125
v 0.0100610005 0.160642996 -0.482275158
v -0.00738300011 0.16055797 -0.56065613
v -0 0.163691998 -0.56095612
v -0 0.156771004 -0.56095612
v 0.00738300011 0.16055797 -0.56065613
v 0.0191569999 0.220224991 0.18889299
v -0 0.203462005 0.207686007
v -0 0.22532697 0.218997985
v -0.0191569999 0.220224991 0.18889299
v 0.0197349992 0.235997975 0.199276
v -0 0.237761989 0.169300005
v -0.0197349992 0.235997975 0.199276
v -0 0.254467994 0.187265977
v -0 0.258781999 0.222115993
v 0.0122699998 0.262602001 0.209342003
v -0.0122699998 0.262602001 0.209342003
v -0 0.288578004 0.20798099
v 0.0166260004 0.249118969 0.147781998
v -0 0.271794498 0.141148508
v -0 0.258848995 0.124701992
v -0.0166260004 0.249118969 0.147781998
v 0.0136539992 0.263893992 0.154569998
v -0 0.237761989 0.169300005
v -0.0136539992 0.263893992 0.154569998
v -0 0.269478977 0.166555986
v -0 0.290901989 0.152255982
v -0 0.163691998 -0.56095612
v -0.00738300011 0.16055797 -0.56065613
v -0.0266041104 0.164753258 -0.565394402
v 0.0260851476 0.165006652 -0.565679967
v 0.00738300011 0.16055797 -0.56065613
v -0.0391124003 0.16055797 -0.5488469
v -0 0.16055797 -0.673265159
v -0.0266057104 0.156361848 -0.565387189
v -0 0.156771004 -0.56095612
v -0 0.153304994 -0.599087119
v 0.0266052857 0.156361848 -0.565387249
v 0.0391116031 0.16055797 -0.5488469
v -0 0.16509001 -0.651385128
v -0 0.167810991 -0.599087119
vt 0.812399983 0.394600004
vt 0.832700014 0.370200008
vt 0.819299996 0.400700003
vt 0.845000029 0.401199996
vt 0.832700014 0.370200008
vt 0.851999998 0.395300001
vt 0.831900001 0.4102
vt 0.832700014 0.370200008
vt 0.845000029 0.401199996
vt 0.819299996 0.400700003
vt 0.832700014 0.370200008
vt 0.831900001 0.4102
vt 0.812399983 0.394600004
vt 0.819299996 0.400700003
vt 0.832700014 0.370200008
vt 0.845000029 0.401199996
vt 0.851999998 0.395300001
vt 0.832700014 0.370200008
vt 0.831900001 0.4102
vt 0.845000029 0.401199996
vt 0.832700014 0.370200008
vt 0.819299996 0.400700003
vt 0.831900001 0.4102
vt 0.832700014 0.370200008
vt 0.520200014 0.35620001
vt 0.493600011 0.359600008
vt 0.474999994 0.3829
vt 0.47329998 0.410400003
vt 0.441000015 0.423500001
vt 0.403600007 0.496899992
vt 0.499845862 0.394428194
vt 0.419800013 0.512099981
vt 0.3662 0.574299991
vt 0.441199988 0.514699996
vt 0.344469458 0.675528347
vt 0.318599999 0.649200022
vt 0.275299996 0.707199991
vt 0.391844481 0.666484237
vt 0.325189292 0.77307862
vt 0.300099999 0.726700008
vt 0.209888101 0.803566694
vt 0.2139 0.754199982
vt 0.158700004 0.810400009
vt 0.167311698 0.865589499
vt 0.105599999 0.888400018
vt 0.493180424 0.654883623
vt 0.140499994 0.916999996
vt 0.200926661 0.933218539
vt 0.0667999983 0.982599974
vt 0.124700002 0.980599999
vt 0.161899999 0.982599974
vt 0.140499994 0.916999996
vt 0.200921133 0.933095217
vt 0.16953449 0.863602638
vt 0.105599999 0.888400018
vt 0.158700004 0.810400009
vt 0.209975272 0.803479612
vt 0.2139 0.754199982
vt 0.275299996 0.707199991
vt 0.211099997 0.950600028
vt 0.211099997 0.950600028
vt 0.257800013 0.982599974
vt 0.300099999 0.726700008
vt 0.325189292 0.77307862
vt 0.344469458 0.675528347
vt 0.318599999 0.649200022
vt 0.3662 0.574299991
vt 0.419800013 0.512099981
vt 0.403600007 0.496899992
vt 0.391844481 0.666484237
vt 0.47329998 0.410400003
vt 0.441000015 0.423500001
vt 0.474999994 0.3829
vt 0.441199988 0.514699996
vt 0.520200014 0.35620001
vt 0.493600011 0.359600008
vt 0.499842644 0.394428134
vt 0.49350968 0.654901803
vt 0.528397679 0.401855081
vt 0.537500024 0.388300002
vt 0.562158108 0.490257978
vt 0.560751319 0.5607723
vt 0.498600006 0.775200009
vt 0.6153 0.68870002
vt 0.595700026 0.598200023
vt 0.397300005 0.764299989
vt 0.552600026 0.392500013
vt 0.548900008 0.369800001
vt 0.525399983 0.356999993
vt 0.568099976 0.4463
vt 0.583400011 0.498299986
vt 0.613099992 0.583899975
vt 0.66049999 0.659699976
vt 0.646300018 0.682500005
vt 0.716400027 0.73180002
vt 0.682399988 0.757700026
vt 0.699199975 0.743399978
vt 0.739238739 0.792161167
vt 0.760800004 0.7676
vt 0.783599973 0.809199989
vt 0.625100017 0.786000013
vt 0.636900008 0.879000008
vt 0.778431594 0.826443315
vt 0.506200016 0.875500023
vt 0.640500009 0.982599974
vt 0.814100027 0.82889998
vt 0.805599988 0.805999994
vt 0.842499971 0.796899974
vt 0.774999976 0.901499987
vt 0.90109998 0.771899998
vt 0.898000002 0.757200003
vt 0.816198111 0.853003621
vt 0.863832116 0.903798342
vt 0.958400011 0.75
vt 0.960200012 0.739000022
vt 0.908999979 0.780600011
vt 0.989000022 0.747399986
vt 0.979399979 0.738399982
vt 0.977864921 0.758428812
vt 0.942399979 0.982599974
vt 0.940800011 0.937099993
vt 0.948199987 0.905900002
vt 0.927299976 0.863499999
vt 0.948000014 0.866299987
vt 0.970099986 0.901600003
vt 0.966400027 0.870500028
vt 0.978100002 0.82160002
vt 0.992900014 0.753899992
vt 0.997099996 0.774999976
vt 1.00119996 0.763700008
vt 0.774999976 0.901499987
vt 0.863242924 0.903395772
vt 0.940800011 0.937099993
vt 0.948199987 0.905900002
vt 0.927299976 0.863499999
vt 0.948000014 0.866299987
vt 0.970099986 0.901600003
vt 0.966400027 0.870500028
vt 0.978100002 0.82160002
vt 0.997099996 0.774999976
vt 0.992900014 0.753899992
vt 1.00119996 0.763700008
vt 0.978011191 0.758783937
vt 0.908999979 0.780600011
vt 0.816198111 0.853003621
vt 0.958400011 0.75
vt 0.989000022 0.747399986
vt 0.960200012 0.739000022
vt 0.979399979 0.738399982
vt 0.898000002 0.757200003
vt 0.90109998 0.771899998
vt 0.842499971 0.796899974
vt 0.814100027 0.82889998
vt 0.805599988 0.805999994
vt 0.783599973 0.809199989
vt 0.775938332 0.825462162
vt 0.738780558 0.791626215
vt 0.760800004 0.7676
vt 0.716400027 0.73180002
vt 0.636900008 0.879000008
vt 0.699199975 0.743399978
vt 0.646300018 0.682500005
vt 0.66049999 0.659699976
vt 0.682399988 0.757700026
vt 0.595700026 0.598200023
vt 0.613099992 0.583899975
vt 0.560591042 0.490751535
vt 0.583400011 0.498299986
vt 0.568099976 0.4463
vt 0.552600026 0.392500013
vt 0.625100017 0.786000013
vt 0.6153 0.68870002
vt 0.498600006 0.775200009
vt 0.559648097 0.561066628
vt 0.537500024 0.388300002
vt 0.548900008 0.369800001
vt 0.525399983 0.356999993
vt 0.52837646 0.401821196
vt 0.506200016 0.875500023
vt 0.397300005 0.764299989
vt 0.511799991 0.982599974
vt 0.392143399 0.845716655
vt 0.372500002 0.795700014
vt 0.414900005 0.913299978
vt 0.363900006 0.912
vt 0.416900009 0.982599974
vt 0.414900005 0.913299978
vt 0.363900006 0.912
vt 0.392078996 0.845740914
vt 0.352200001 0.982599974
vt 0.372500002 0.795700014
vt 0.369399995 0.816600025
vt 0.367199987 0.843500018
vt 0.336600006 0.787100017
vt 0.346500009 0.813799977
vt 0.3028 0.799300015
vt 0.269899994 0.783299983
vt 0.224099994 0.817600012
vt 0.221100003 0.838500023
vt 0.196799994 0.863099992
vt 0.2086 0.908299983
vt 0.254000008 0.805599988
vt 0.212099999 0.879800022
vt 0.253300011 0.912400007
vt 0.237000003 0.894200027
vt 0.229399994 0.855599999
vt 0.258899987 0.831200004
vt 0.287349999 0.820549965
vt 0.256624371 0.856375039
vt 0.240181267 0.938296497
vt 0.268700004 0.879800022
vt 0.279000014 0.847500026
vt 0.295700014 0.851999998
vt 0.319700003 0.824199975
vt 0.286599994 0.898899972
vt 0.309899986 0.870599985
vt 0.324600011 0.843900025
vt 0.350400001 0.844799995
vt 0.337599993 0.892799973
vt 0.299400002 0.923600018
vt 0.308800012 0.943199992
vt 0.307200015 0.963199973
vt 0.307200015 0.963199973
vt 0.308800012 0.943199992
vt 0.240179583 0.938258827
vt 0.299400002 0.923600018
vt 0.253300011 0.912400007
vt 0.286599994 0.898899972
vt 0.337599993 0.892799973
vt 0.2086 0.908299983
vt 0.367199987 0.843500018
vt 0.369399995 0.816600025
vt 0.336600006 0.787100017
vt 0.346500009 0.813799977
vt 0.350400001 0.844799995
vt 0.309899986 0.870599985
vt 0.268700004 0.879800022
vt 0.3028 0.799300015
vt 0.324600011 0.843900025
vt 0.295700014 0.851999998
vt 0.319700003 0.824199975
vt 0.237000003 0.894200027
vt 0.269899994 0.783299983
vt 0.287349999 0.820549965
vt 0.257919818 0.856777132
vt 0.224099994 0.817600012
vt 0.196799994 0.863099992
vt 0.254000008 0.805599988
vt 0.221100003 0.838500023
vt 0.212099999 0.879800022
vt 0.229399994 0.855599999
vt 0.258899987 0.831200004
vt 0.279000014 0.847500026
vt 0.656700015 0.616699994
vt 0.703100026 0.555999994
vt 0.680599988 0.600700021
vt 0.735800028 0.483099997
vt 0.680020392 0.349890172
vt 0.756200016 0.398900002
vt 0.783100009 0.309899986
vt 0.628899992 0.488499999
vt 0.638199985 0.543600023
vt 0.64410001 0.598800004
vt 0.602100015 0.398099989
vt 0.562900007 0.31220001
vt 0.676900029 0.216900006
vt 0.778400004 0.217299998
vt 0.832199991 0.2509
vt 0.883099973 0.202199996
vt 0.552900016 0.196500003
vt 0.554700017 0.121699996
vt 0.499599993 0.241899997
vt 0.475400001 0.185499996
vt 0.425999999 0.150900006
vt 0.675899982 0.137899995
vt 0.780099988 0.140300006
vt 0.671247184 0.073363252
vt 0.875999987 0.141599998
vt 0.924300015 0.153799996
vt 0.967100024 0.0922999978
vt 0.791759968 0.0682659224
vt 0.898659408 0.0633319169
vt 0.989899993 0.0137999998
vt 0.896899998 0.0617999993
vt 0.967100024 0.0922999978
vt 0.790799975 0.0681999996
vt 0.875999987 0.141599998
vt 0.924300015 0.153799996
vt 0.883099973 0.202199996
vt 0.780099988 0.140300006
vt 0.675000012 0.0692000017
vt 0.778400004 0.217299998
vt 0.832199991 0.2509
vt 0.783100009 0.309899986
vt 0.675899982 0.137899995
vt 0.554700017 0.121699996
vt 0.676900029 0.216900006
vt 0.680020452 0.349890172
vt 0.756200016 0.398900002
vt 0.735800028 0.483099997
vt 0.551117003 0.0513589643
vt 0.55339998 0.0606000014
vt 0.412210315 0.0895739719
vt 0.425700009 0.0137999998
vt 0.656700015 0.616699994
vt 0.703100026 0.555999994
vt 0.680599988 0.600700021
vt 0.412272692 0.0895730332
vt 0.343300015 0.110399999
vt 0.39230001 0.144299999
vt 0.353700012 0.168599993
vt 0.319474429 0.154782325
vt 0.302700013 0.214200005
vt 0.244900003 0.234300002
vt 0.227500007 0.232299998
vt 0.256799996 0.178100005
vt 0.229599997 0.221000001
vt 0.284399986 0.130700007
vt 0.283899993 0.0970999971
vt 0.269300014 0.057
vt 0.259299994 0.100400001
vt 0.270500004 0.0137999998
vt 0.269300014 0.057
vt 0.283899993 0.0970999971
vt 0.259299994 0.100400001
vt 0.343300015 0.110399999
vt 0.284399986 0.130700007
vt 0.425999999 0.150900006
vt 0.39230001 0.144299999
vt 0.475400001 0.185499996
vt 0.353700012 0.168599993
vt 0.319369555 0.154574081
vt 0.302700013 0.214200005
vt 0.244900003 0.234300002
vt 0.256799996 0.178100005
vt 0.227500007 0.232299998
vt 0.229599997 0.221000001
vt 0.552900016 0.196500003
vt 0.499599993 0.241899997
vt 0.562900007 0.31220001
vt 0.602100015 0.398099989
vt 0.628899992 0.488499999
vt 0.638199985 0.543600023
vt 0.64410001 0.598800004
vt 0.782999992 0.425700009
vt 0.796299994 0.41870001
vt 0.809400022 0.432799995
vt 0.795300007 0.4639
vt 0.866699994 0.46540001
vt 0.853600025 0.433699995
vt 0.867299974 0.419999987
vt 0.880400002 0.427399993
vt 0.830299973 0.485799998
vt 0.831200004 0.443899989
vt 0.853600025 0.433699995
vt 0.866699994 0.46540001
vt 0.830299973 0.485799998
vt 0.795300007 0.4639
vt 0.809400022 0.432799995
vt 0.831200004 0.443899989
vt 0.796299994 0.41870001
vt 0.812399983 0.394600004
vt 0.819299996 0.400700003
vt 0.809400022 0.432799995
vt 0.853600025 0.433699995
vt 0.845000029 0.401199996
vt 0.851999998 0.395300001
vt 0.867299974 0.419999987
vt 0.831200004 0.443899989
vt 0.831900001 0.4102
vt 0.845000029 0.401199996
vt 0.853600025 0.433699995
vt 0.831200004 0.443899989
vt 0.809400022 0.432799995
vt 0.819299996 0.400700003
vt 0.831900001 0.4102
vt 0.782999992 0.425700009
vt 0.795300007 0.4639
vt 0.809400022 0.432799995
vt 0.796299994 0.41870001
vt 0.866699994 0.46540001
vt 0.880400002 0.427399993
vt 0.867299974 0.419999987
vt 0.853600025 0.433699995
vt 0.830299973 0.485799998
vt 0.866699994 0.46540001
vt 0.853600025 0.433699995
vt 0.831200004 0.443899989
vt 0.830299973 0.485799998
vt 0.831200004 0.443899989
vt 0.809400022 0.432799995
vt 0.795300007 0.4639
vt 0.796299994 0.41870001
vt 0.809400022 0.432799995
vt 0.819299996 0.400700003
vt 0.812399983 0.394600004
vt 0.853600025 0.433699995
vt 0.867299974 0.419999987
vt 0.851999998 0.395300001
vt 0.845000029 0.401199996
vt 0.831200004 0.443899989
vt 0.853600025 0.433699995
vt 0.845000029 0.401199996
vt 0.831900001 0.4102
vt 0.831200004 0.443899989
vt 0.831900001 0.4102
vt 0.819299996 0.400700003
vt 0.809400022 0.432799995
vt 0.0807999969 0.62349999
vt 0.0807999969 0.742699981
vt 0.121200003 0.741699994
vt 0.121200003 0.741699994
vt 0.13163738 0.618159711
vt 0.155100003 0.741299987
vt 0.196999997 0.730599999
vt 0.13163738 0.618159711
vt 0.155100003 0.741299987
vt 0.196999997 0.730599999
vt 0.0807999969 0.484699994
vt 0.112099998 0.483999997
vt 0.112099998 0.483999997
vt 0.101099998 0.215299994
vt 0.133900002 0.48089999
vt 0.237100005 0.715499997
vt 0.133900002 0.48089999
vt 0.134399995 0.330799997
vt 0.101099998 0.215299994
vt 0.1206 0.192900002
vt 0.107699998 0.194299996
vt 0.0932999998 0.1954
vt 0.0992999971 0.173999995
vt 0.107699998 0.194299996
vt 0.0932999998 0.1954
vt 0.0992999971 0.173999995
vt 0.0938000008 0.0434000008
vt 0.0807999969 0.0434000008
vt 0.107699998 0.0417000018
vt 0.0938000008 0.0434000008
vt 0.295899987 0.620500028
vt 0.231199995 0.660399973
vt 0.221499994 0.600399971
vt 0.295899987 0.620500028
vt 0.279100001 0.587599993
vt 0.346399993 0.560699999
vt 0.279100001 0.587599993
vt 0.309599996 0.536149979
vt 0.229599997 0.536199987
vt 0.259200007 0.534699976
vt 0.259200007 0.534699976
vt 0.2579 0.48120001
vt 0.340900004 0.4278
vt 0.280300021 0.391900003
vt 0.326099992 0.350800008
vt 0.340900004 0.4278
vt 0.2949 0.427100003
vt 0.335299999 0.504299998
vt 0.2949 0.427100003
vt 0.270900011 0.448599994
vt 0.241999999 0.410299987
vt 0.855000019 0.544399977
vt 0.868499994 0.541199982
vt 0.904389381 0.552080572
vt 0.806572616 0.552384198
vt 0.841600001 0.541199982
vt 0.928843021 0.52222532
vt 0.854499996 0.751600027
vt 0.904154956 0.551998675
vt 0.855000019 0.544399977
vt 0.854900002 0.614199996
vt 0.805848122 0.551702559
vt 0.781286061 0.521822691
vt 0.854600012 0.710600019
vt 0.854900002 0.614199996
vn -0.118305467 0.986445606 -0.113705255
vn -0.118305467 0.986445606 -0.113705255
vn -0.118305467 0.986445606 -0.113705255
vn -0.156901658 -0.979310334 -0.127801344
vn -0.156901658 -0.979310334 -0.127801344
vn -0.156901658 -0.979310334 -0.127801344
vn 0.158099189 -0.98729521 0.0158999227
vn 0.158099189 -0.98729521 0.0158999227
vn 0.158099189 -0.98729521 0.0158999227
vn 0.133296728 0.991075635 0.000999975484
vn 0.133296728 0.991075635 0.000999975484
vn 0.133296728 0.991075635 0.000999975484
vn 0.118305467 0.986445606 -0.113705255
vn 0.118305467 0.986445606 -0.113705255
vn 0.118305467 0.986445606 -0.113705255
vn 0.156901658 -0.979310334 -0.127801344
vn 0.156901658 -0.979310334 -0.127801344
vn 0.156901658 -0.979310334 -0.127801344
vn -0.158099189 -0.98729521 0.0158999227
vn -0.158099189 -0.98729521 0.0158999227
vn -0.158099189 -0.98729521 0.0158999227
vn -0.133296728 0.991075635 0.000999975484
vn -0.133296728 0.991075635 0.000999975484
vn -0.133296728 0.991075635 0.000999975484
vn 0.962488055 0.0524993502 -0.266196698
vn 0.307286799 -0.940459669 -0.145293772
vn 0.320600241 -0.891200662 0.320900232
vn 0.596420765 0.0621745437 0.800260425
vn 0.220699012 -0.905795932 0.361698359
vn 0.203798354 -0.878792882 0.431496561
vn 0.283342957 0.943392158 0.172418341
vn 0.360517442 0.00370017928 0.932745159
vn 0.204494894 -0.878978074 0.430789232
vn 0.204305261 0.884222925 0.420010865
vn 0.432782471 0.0395732298 0.900629401
vn 0.301196337 -0.838389695 0.454294413
vn 0.456198096 -0.683697164 0.569597602
vn 0.240459546 0.860964 0.448241383
vn 0.758981347 0.491089046 0.427526504
vn 0.575596392 0.145999089 0.804595053
vn 0.615033209 0.139177293 0.776120961
vn 0.605099261 -0.523999393 0.599399269
vn 0.561213017 -0.436010092 0.703516245
vn 0.562412262 0.124821939 0.817381084
vn 0.363796055 -0.439095318 0.821491122
vn 0.155221924 0.987837791 -0.00908512808
vn 0.333300382 0.0061000064 0.942800939
vn 0.209069133 0.486712933 0.84817487
vn -0 -0.469316095 0.883030236
vn -0 -0.0533985645 0.998573303
vn -0 0.0971965939 0.995265245
vn -0.333300382 0.0061000064 0.942800939
vn -0.214244679 0.484045684 0.848409653
vn -0.589468002 0.104765087 0.800969243
vn -0.363796055 -0.439095318 0.821491122
vn -0.561213017 -0.436010092 0.703516245
vn -0.615033209 0.139177248 0.776120961
vn -0.605099261 -0.523999393 0.599399269
vn -0.456198096 -0.683697164 0.569597602
vn 0.593315601 0.616316199 0.517813623
vn -0.593315601 0.616316199 0.517813623
vn -0 0.879499555 0.475899756
vn -0.575596392 0.145999089 0.804595053
vn -0.758981347 0.491089046 0.427526504
vn -0.432782382 0.0395735502 0.900629401
vn -0.301196337 -0.838389695 0.454294413
vn -0.204494894 -0.878978074 0.430789232
vn -0.360517442 0.00370017928 0.932745159
vn -0.203798354 -0.878792882 0.431496561
vn -0.240459546 0.860964 0.448241383
vn -0.596420765 0.0621745437 0.800260425
vn -0.220699012 -0.905795932 0.361698359
vn -0.320600241 -0.891200662 0.320900232
vn -0.204305261 0.884222925 0.420010865
vn -0.962488055 0.0524993502 -0.266196698
vn -0.307286799 -0.940459669 -0.145293772
vn -0.283203512 0.94344306 0.17236881
vn -0.15277876 0.988202155 -0.0107317418
vn -0.111770034 0.945126474 -0.306990981
vn -0.358989686 0.104497008 -0.927473366
vn -0.222036272 -0.00180054433 -0.9750368
vn -0.170690835 0.89252454 -0.417450011
vn -0.368200958 0.928902447 -0.0396001078
vn -0.325894088 0.778785884 -0.535990298
vn -0.349284559 -0.025898857 -0.936658621
vn -0.364900231 0.907100737 0.209800169
vn -0.15549539 -0.863774478 -0.479285836
vn -0.307286799 -0.940459669 -0.145293772
vn -0.962488055 0.0524993502 -0.266196698
vn -0.0960999578 -0.8671996 -0.488599658
vn -0.124101214 -0.880608618 -0.457304507
vn -0.207505018 -0.843920469 -0.494712055
vn -0.310902089 -0.823405564 -0.474703223
vn -0.506706059 -0.0820009857 -0.858210266
vn -0.330805808 -0.805414021 -0.491808563
vn -0.316192806 0.727683425 -0.608686209
vn -0.543318987 -0.04090143 -0.838529408
vn -0.592538357 0.0101284459 -0.805478454
vn -0.483391464 -0.749086738 -0.452992022
vn -0.733678162 -0.626581371 -0.262892157
vn -0.304414809 0.894243538 -0.32811597
vn -0.394389778 0.856177688 -0.333791286
vn -0.89139241 0.136902571 -0.432061523
vn -0.436109573 0.892719626 -0.113402478
vn -0 0.947182775 -0.320694149
vn -0.912552297 0.0878050327 0.399422854
vn -0.624487996 -0.771885157 0.119197719
vn -0.328500152 -0.848300338 0.41530019
vn -0.47302255 0.812838674 -0.33991617
vn -0.815087318 -0.00739988452 0.579290926
vn -0.369197309 -0.849893808 0.375997245
vn -0.544862092 0.837856531 -0.0334909372
vn -0.315548509 0.922309518 -0.223101377
vn -0.973056614 -0.0211990513 0.22958976
vn -0.514804184 -0.842206717 0.160201281
vn -0.531803429 0.833405435 0.150400981
vn -0.594330907 -0.11440596 -0.796041489
vn -0.275595874 -0.908786535 -0.313295364
vn -0.435590863 0.83184582 -0.343937784
vn -0 0.975771129 -0.218793526
vn -0.415292114 0.88198334 -0.222795784
vn -0.784337163 0.109305181 -0.610628903
vn -0.0691985711 0.886981666 -0.456590533
vn 0.157806337 0.0678027272 -0.985139549
vn -0.369392753 -0.83428359 -0.409291923
vn 0.142397434 -0.891483963 -0.430092186
vn 0.305309802 -0.854127407 -0.421013474
vn -0.594330907 -0.11440596 -0.796041489
vn 0.229292139 -0.855870783 -0.463584155
vn -0.275595874 -0.908786535 -0.313295364
vn 0.47302255 0.812838674 -0.33991617
vn 0.322097123 0.917042255 -0.235131949
vn 0.415292114 0.88198334 -0.222795784
vn 0.784337163 0.109305181 -0.610628903
vn 0.0691985711 0.886981666 -0.456590533
vn -0.157806337 0.0678027272 -0.985139549
vn 0.369392753 -0.83428359 -0.409291923
vn -0.142397434 -0.891483963 -0.430092186
vn -0.305309802 -0.854127407 -0.421013474
vn -0.229292139 -0.855870783 -0.463584155
vn 0.594330907 -0.11440596 -0.796041489
vn 0.275595874 -0.908786535 -0.313295364
vn 0.424946487 0.83504492 -0.349457413
vn 0.531803429 0.833405435 0.150400981
vn 0.544862092 0.837856531 -0.0334909372
vn 0.973056614 -0.0211990513 0.22958976
vn 0.594330907 -0.11440596 -0.796041489
vn 0.514804184 -0.842206717 0.160201281
vn 0.275595874 -0.908786535 -0.313295364
vn 0.369197309 -0.849893808 0.375997245
vn 0.815087318 -0.00739988452 0.579290926
vn 0.328500152 -0.848300338 0.41530019
vn 0.912552297 0.0878050327 0.399422854
vn 0.624487996 -0.771885157 0.119197719
vn 0.733678162 -0.626581371 -0.262892157
vn 0.887247443 0.11469806 -0.446806699
vn 0.58860904 0.00286488933 -0.808412731
vn 0.483391464 -0.749086738 -0.452992022
vn 0.330805808 -0.805414021 -0.491808563
vn 0.394389778 0.856177688 -0.333791286
vn 0.543318987 -0.04090143 -0.838529408
vn 0.506706059 -0.0820009857 -0.858210266
vn 0.310902089 -0.823405564 -0.474703223
vn 0.316192806 0.727683425 -0.608686209
vn 0.349284559 -0.025898857 -0.936658621
vn 0.207505018 -0.843920469 -0.494712055
vn 0.222245499 0.0764878169 -0.971985936
vn 0.124101214 -0.880608618 -0.457304507
vn 0.0960999578 -0.8671996 -0.488599658
vn 0.15549539 -0.863774478 -0.479285836
vn 0.304414809 0.894243538 -0.32811597
vn 0.325894088 0.778785884 -0.535990298
vn 0.368200958 0.928902447 -0.0396001078
vn 0.181887329 0.869773149 -0.458706439
vn 0.358989686 0.104497008 -0.927473366
vn 0.307286799 -0.940459669 -0.145293772
vn 0.962488055 0.0524993502 -0.266196698
vn 0.122396588 0.923467278 -0.363630474
vn 0.436109573 0.892719626 -0.113402478
vn 0.364900231 0.907100737 0.209800169
vn -0 0.992194533 -0.124699302
vn 0.416678131 0.780148268 -0.46663487
vn 0.754208446 0.62420696 -0.203802288
vn 0.371683866 0.926359832 0.0608973615
vn -0.0511984751 0.977170825 -0.206193894
vn -0 0.995332658 0.0965031758
vn -0.371683866 0.926359832 0.0608973615
vn 0.0511984751 0.977170825 -0.206193894
vn -0.419178754 0.780571759 -0.463677615
vn -0 0.997911155 0.064600721
vn -0.754208446 0.62420696 -0.203802288
vn 0.431697041 0.149198979 -0.889593899
vn 0.151197135 0.505990386 -0.849183917
vn 0.977800488 -0.067700021 -0.198300093
vn 0.90475893 0.273887575 -0.326185197
vn 0.690111339 0.0710011721 0.720211864
vn 0.538704634 0.510904431 0.669905841
vn 0.367502511 0.808805406 0.459103078
vn 0.517598629 0.366199017 0.773298025
vn 0.636880994 0.620481491 0.457586318
vn 0.684608698 0.258303285 0.681608617
vn 0.622111976 0.120402299 0.773614883
vn 0.78374064 0.21891135 0.581230164
vn 0.385106534 0.283604741 0.878214836
vn 0.629116774 0.136003613 0.765320241
vn 0.33839041 -0.260692596 0.904174387
vn 0.856076121 -0.178395018 0.485086471
vn 0.654368401 0.073880285 0.752558112
vn 0.476080567 0.267694443 0.837667644
vn -0.298769653 0.67937839 0.670210063
vn 0.572883785 0.220293775 0.789477646
vn 0.734898508 0.498598993 0.459699064
vn 0.57160151 0.0832002237 0.81630218
vn 0.802372992 0.0926968902 0.589580238
vn 0.345400274 0.474600255 0.809600592
vn 0.541121662 0.55802232 0.629125118
vn 0.749701023 0.355000466 0.558500707
vn 0.5572173 0.757023335 -0.341210485
vn -0.170804173 0.952823222 -0.25090614
vn -0.497095585 0.842692435 0.206798136
vn -0.313699961 0.930399954 0.189600021
vn 0.49348852 0.79618144 0.350091875
vn -0.49348852 0.79618144 0.350091875
vn 0.313699961 0.930399954 0.189600021
vn 0.297375917 0.679214895 0.670995355
vn 0.497095585 0.842692435 0.206798136
vn -0.385106534 0.283604741 0.878214836
vn -0.345400274 0.474600255 0.809600592
vn 0.170804173 0.952823222 -0.25090614
vn -0.684608698 0.258303285 0.681608617
vn -0.151197135 0.505990386 -0.849183917
vn -0.431697041 0.149198979 -0.889593899
vn -0.977800488 -0.067700021 -0.198300093
vn -0.90475893 0.273887575 -0.326185197
vn -0.5572173 0.757023335 -0.341210485
vn -0.541121662 0.55802232 0.629125118
vn -0.572883785 0.220293775 0.789477646
vn -0.690111339 0.0710011721 0.720211864
vn -0.749701023 0.355000466 0.558500707
vn -0.57160151 0.0832002237 0.81630218
vn -0.802372992 0.0926968902 0.589580238
vn -0.629116774 0.136003613 0.765320241
vn -0.538704634 0.510904431 0.669905841
vn -0.654368401 0.073880285 0.752558112
vn -0.46416381 0.292565376 0.836036742
vn -0.367502511 0.808805406 0.459103078
vn -0.636880994 0.620481491 0.457586318
vn -0.622111976 0.120402299 0.773614883
vn -0.517598629 0.366199017 0.773298025
vn -0.78374064 0.21891135 0.581230164
vn -0.33839041 -0.260692596 0.904174387
vn -0.856076121 -0.178395018 0.485086471
vn -0.734898508 0.498598993 0.459699064
vn 0.307286769 -0.940459669 -0.145293757
vn 0.220699012 -0.905795932 0.361698359
vn 0.320600241 -0.891200662 0.320900232
vn 0.203798354 -0.878792882 0.431496561
vn 0.160216898 -0.986857116 -0.0210630801
vn 0.204494894 -0.878978074 0.430789232
vn 0.301196337 -0.838389695 0.454294413
vn 0.124101214 -0.880608618 -0.457304507
vn 0.0960999578 -0.8671996 -0.488599658
vn 0.15549539 -0.863774478 -0.479285836
vn 0.207505018 -0.843920469 -0.494712055
vn 0.310902089 -0.823405564 -0.474703223
vn 0.456120104 -0.887339175 -0.0677029863
vn 0.469013691 -0.859425008 0.203505963
vn 0.456198096 -0.683697164 0.569597602
vn 0.605099261 -0.523999393 0.599399269
vn 0.46848461 -0.836072505 -0.285490602
vn 0.530888498 -0.803482592 -0.269394159
vn 0.330805808 -0.805414021 -0.491808563
vn 0.483391464 -0.749086738 -0.452992022
vn 0.733678162 -0.626581371 -0.262892157
vn 0.52101922 -0.851231337 -0.0628023073
vn 0.529693246 -0.828389466 0.182197675
vn 0.195510358 -0.978996277 -0.0578095913
vn 0.547118247 -0.686722934 0.47861594
vn 0.561213017 -0.436010092 0.703516245
vn 0.363796055 -0.439095318 0.821491122
vn 0.209028065 -0.957291782 0.199749112
vn 0.208632186 -0.818863034 0.534729779
vn -0 -0.469316095 0.883030236
vn -0.201698869 -0.826795399 0.525097132
vn -0.363796055 -0.439095318 0.821491122
vn -0.208491713 -0.958061934 0.196592182
vn -0.547118247 -0.686722934 0.47861594
vn -0.561213017 -0.436010092 0.703516245
vn -0.605099261 -0.523999393 0.599399269
vn -0.529693246 -0.828389466 0.182197675
vn -0.183194384 -0.981869876 -0.0486985035
vn -0.469013691 -0.859425008 0.203505963
vn -0.456198096 -0.683697164 0.569597602
vn -0.301196337 -0.838389695 0.454294413
vn -0.52101922 -0.851231337 -0.0628023073
vn -0.530888498 -0.803482592 -0.269394159
vn -0.456120104 -0.887339175 -0.0677029863
vn -0.160216913 -0.986857116 -0.0210630745
vn -0.204494894 -0.878978074 0.430789232
vn -0.203798354 -0.878792882 0.431496561
vn 0.164366513 -0.959470689 -0.228909612
vn -0.203193143 -0.951767862 -0.229892254
vn 0.505626082 -0.828648865 -0.240173429
vn -0 -0.971583724 -0.236696035
vn -0.307286799 -0.940459669 -0.145293787
vn -0.220699012 -0.905795932 0.361698359
vn -0.320600241 -0.891200662 0.320900232
vn -0.516079009 -0.82074362 -0.24503544
vn 0.410706162 -0.90321362 -0.124601886
vn 0.624487996 -0.771885157 0.119197719
vn 0.328500152 -0.848300338 0.41530019
vn 0.099527128 -0.99021101 0.0978596956
vn 0.369197309 -0.849893808 0.375997245
vn 0.514804184 -0.842206717 0.160201281
vn 0.275595874 -0.908786535 -0.313295364
vn -0.305309802 -0.854127407 -0.421013474
vn -0.229292139 -0.855870783 -0.463584155
vn -0.142397434 -0.891483963 -0.430092186
vn 0.369392753 -0.83428359 -0.409291923
vn 0.537782431 -0.822873056 -0.183494017
vn 0.784337163 0.109305181 -0.610628903
vn -0 -0.991992295 -0.126299024
vn -0.537782431 -0.822873056 -0.183494017
vn -0.369392753 -0.83428359 -0.409291923
vn -0.784337163 0.109305181 -0.610628903
vn -0.410706162 -0.90321362 -0.124601886
vn 0.142397434 -0.891483963 -0.430092186
vn -0.733678162 -0.626581371 -0.262892157
vn -0.624487996 -0.771885157 0.119197719
vn -0.483391464 -0.749086738 -0.452992022
vn -0.328500152 -0.848300338 0.41530019
vn -0.071928896 -0.992691219 0.0969044715
vn -0.369197309 -0.849893808 0.375997245
vn -0.514804184 -0.842206717 0.160201281
vn 0.305309802 -0.854127407 -0.421013474
vn -0.275595874 -0.908786535 -0.313295364
vn 0.229292139 -0.855870783 -0.463584155
vn -0.46848461 -0.836072505 -0.285490602
vn -0.330805808 -0.805414021 -0.491808563
vn -0.310902089 -0.823405564 -0.474703223
vn -0.207505018 -0.843920469 -0.494712055
vn -0.124101214 -0.880608618 -0.457304507
vn -0.0960999578 -0.8671996 -0.488599658
vn -0.15549539 -0.863774478 -0.479285836
vn 0.0331012271 0.986036599 -0.163206041
vn 0.0331012271 0.986036599 -0.163206041
vn 0.0331012271 0.986036599 -0.163206041
vn 0.0331012271 0.986036599 -0.163206041
vn -0.00389979826 -0.979749322 -0.200189695
vn -0.00389979826 -0.979749322 -0.200189695
vn -0.00389979826 -0.979749322 -0.200189695
vn -0.00389979826 -0.979749322 -0.200189695
vn 0.15069522 -0.979768932 0.131695837
vn 0.15069522 -0.979768932 0.131695837
vn 0.15069522 -0.979768932 0.131695837
vn 0.15069522 -0.979768932 0.131695837
vn 0.13929832 0.986287951 0.0884989202
vn 0.13929832 0.986287951 0.0884989202
vn 0.13929832 0.986287951 0.0884989202
vn 0.13929832 0.986287951 0.0884989202
vn -0.0744013488 0.986717939 -0.144402623
vn -0.0744013488 0.986717939 -0.144402623
vn -0.0744013488 0.986717939 -0.144402623
vn -0.0744013488 0.986717939 -0.144402623
vn -0.105195627 -0.980159283 -0.167993009
vn -0.105195627 -0.980159283 -0.167993009
vn -0.105195627 -0.980159283 -0.167993009
vn -0.105195627 -0.980159283 -0.167993009
vn 0.129896045 -0.988770008 0.0738977641
vn 0.129896045 -0.988770008 0.0738977641
vn 0.129896045 -0.988770008 0.0738977641
vn 0.129896045 -0.988770008 0.0738977641
vn 0.110705115 0.992745936 0.0469021648
vn 0.110705115 0.992745936 0.0469021648
vn 0.110705115 0.992745936 0.0469021648
vn 0.110705115 0.992745936 0.0469021648
vn -0.0331012271 0.986036599 -0.163206041
vn -0.0331012271 0.986036599 -0.163206041
vn -0.0331012271 0.986036599 -0.163206041
vn -0.0331012271 0.986036599 -0.163206041
vn 0.00389979826 -0.979749322 -0.200189695
vn 0.00389979826 -0.979749322 -0.200189695
vn 0.00389979826 -0.979749322 -0.200189695
vn 0.00389979826 -0.979749322 -0.200189695
vn -0.15069522 -0.979768932 0.131695837
vn -0.15069522 -0.979768932 0.131695837
vn -0.15069522 -0.979768932 0.131695837
vn -0.15069522 -0.979768932 0.131695837
vn -0.13929832 0.986287951 0.0884989202
vn -0.13929832 0.986287951 0.0884989202
vn -0.13929832 0.986287951 0.0884989202
vn -0.13929832 0.986287951 0.0884989202
vn 0.0744013488 0.986717939 -0.144402623
vn 0.0744013488 0.986717939 -0.144402623
vn 0.0744013488 0.986717939 -0.144402623
vn 0.0744013488 0.986717939 -0.144402623
vn 0.105195627 -0.980159283 -0.167993009
vn 0.105195627 -0.980159283 -0.167993009
vn 0.105195627 -0.980159283 -0.167993009
vn 0.105195627 -0.980159283 -0.167993009
vn -0.129896045 -0.988770008 0.0738977641
vn -0.129896045 -0.988770008 0.0738977641
vn -0.129896045 -0.988770008 0.0738977641
vn -0.129896045 -0.988770008 0.0738977641
vn -0.110705115 0.992745936 0.0469021648
vn -0.110705115 0.992745936 0.0469021648
vn -0.110705115 0.992745936 0.0469021648
vn -0.110705115 0.992745936 0.0469021648
vn -0 0.995694041 -0.0926994383
vn -0 0.975771129 -0.218793526
vn -0.415292114 0.88198334 -0.222795784
vn 0.415292114 0.88198334 -0.222795784
vn -0.962195396 0.230105832 -0.145709425
vn -0.784337163 0.109305181 -0.610628903
vn -0.537782431 -0.822873056 -0.183494017
vn 0.962195396 0.230105832 -0.145709425
vn 0.784337163 0.109305181 -0.610628903
vn 0.537782431 -0.822873056 -0.183494017
vn -0 0.998345375 -0.0575026125
vn -0.914125919 0.399111331 -0.0713020265
vn 0.914125919 0.399111331 -0.0713020265
vn -0.996580899 0.062098816 -0.0544989556
vn -0.718292296 -0.693192601 -0.0594993643
vn -0 -0.991992295 -0.126299024
vn 0.718292296 -0.693192601 -0.0594993643
vn -0 -0.997582078 -0.0694987476
vn 0.996580899 0.062098816 -0.0544989556
vn -0 -0.999596655 -0.0283999071
vn -0.559007943 -0.829011738 -0.0158002228
vn -0.491611928 0.870521128 -0.0226005502
vn -0.998304486 0.0471002087 -0.034200158
vn 0.559007943 -0.829011738 -0.0158002228
vn 0.491611928 0.870521128 -0.0226005502
vn 0.998304486 0.0471002087 -0.034200158
vn -0.3726044 0.0355004221 0.927310944
vn -0 0.971070588 0.238792807
vn -0 -0.977008224 0.213201791
vn 0.3726044 0.0355004221 0.927310944
vn 0.593315601 0.616316199 0.517813623
vn -0 0.0971965939 0.995265245
vn -0 -0.319406062 0.947617948
vn -0.593315601 0.616316199 0.517813623
vn 0.990628004 0.0897025466 0.103002913
vn -0 0.879499555 0.475899756
vn -0.990628004 0.0897025466 0.103002913
vn -0 0.648649991 -0.761086762
vn -0 0.129497364 0.991579771
vn 0.936463535 0.311687827 0.160893738
vn -0.936463535 0.311687827 0.160893738
vn -0 0.999976873 0.0067998427
vn 0.49348852 0.79618144 0.350091875
vn -0 0.651847482 -0.758350015
vn -0 0.997911155 0.064600721
vn -0.49348852 0.79618144 0.350091875
vn 0.948775589 0.284992695 0.136396483
vn -0 0.879499555 0.475899756
vn -0.949228466 0.283908516 0.135504067
vn 0.00147377164 0.325244635 0.945628822
vn -0 0.987085044 -0.160197586
vn -0 0.971070588 0.238792807
vn -0.3726044 0.0355004221 0.927310944
vn -0.0744101629 0.994151533 0.0782676041
vn 0.0729715303 0.994421542 0.0761633962
vn 0.3726044 0.0355004221 0.927310944
vn -0.376560539 -0.777616143 0.503503025
vn -0 0 -1
vn -0.10395392 -0.991874993 0.0733315498
vn -0 -0.977008224 0.213201791
vn -0 -0.999646187 -0.026601227
vn 0.103967451 -0.99187392 0.0733285099
vn 0.376527727 -0.777646482 0.503480732
vn -0 0.982606292 -0.185701206
vn -0 0.999646187 -0.026601227
g jinbianfuyu_1_0
f 3/3/3 2/2/2 1/1/1
f 6/6/6 5/5/5 4/4/4
f 9/9/9 8/8/8 7/7/7
f 12/12/12 11/11/11 10/10/10
f 15/15/15 14/14/14 13/13/13
f 18/18/18 17/17/17 16/16/16
f 21/21/21 20/20/20 19/19/19
f 24/24/24 23/23/23 22/22/22
f 27/27/27 26/26/26 25/25/25
f 28/28/28 27/27/27 25/25/25
f 28/28/28 29/29/29 27/27/27
f 29/29/29 28/28/28 30/30/30
f 31/31/31 28/28/28 25/25/25
f 28/28/28 32/32/32 30/30/30
f 30/30/30 32/32/32 33/33/33
f 28/28/28 31/31/31 34/34/34
f 32/32/32 28/28/28 34/34/34
f 32/32/32 35/35/35 33/33/33
f 33/33/33 35/35/35 36/36/36
f 37/37/37 36/36/36 35/35/35
f 32/32/32 34/34/34 38/38/38
f 35/35/35 32/32/32 38/38/38
f 38/38/38 39/39/39 35/35/35
f 39/39/39 40/40/40 35/35/35
f 40/40/40 37/37/37 35/35/35
f 40/40/40 41/41/41 37/37/37
f 40/40/40 39/39/39 41/41/41
f 41/41/41 42/42/42 37/37/37
f 42/42/42 41/41/41 43/43/43
f 43/43/43 41/41/41 44/44/44
f 43/43/43 44/44/44 45/45/45
f 31/31/31 46/46/46 34/34/34
f 46/46/46 38/38/38 34/34/34
f 44/44/44 47/47/47 45/45/45
f 48/48/48 47/47/47 44/44/44
f 45/45/45 47/47/47 49/49/49
f 49/49/49 47/47/47 50/50/50
f 47/47/47 51/51/51 50/50/50
f 48/48/48 51/51/51 47/47/47
f 52/52/52 49/49/49 50/50/50
f 51/51/51 52/52/52 50/50/50
f 51/51/51 53/53/53 52/52/52
f 52/52/52 53/53/53 54/54/54
f 52/52/52 55/55/55 49/49/49
f 52/52/52 54/54/54 55/55/55
f 54/54/54 56/56/56 55/55/55
f 57/57/57 56/56/56 54/54/54
f 57/57/57 58/58/58 56/56/56
f 58/58/58 57/57/57 59/59/59
f 51/51/51 48/48/48 60/60/60
f 53/53/53 51/51/51 61/61/61
f 60/60/60 48/48/48 62/62/62
f 53/53/53 61/61/61 62/62/62
f 57/57/57 63/63/63 59/59/59
f 64/64/64 63/63/63 57/57/57
f 63/63/63 64/64/64 65/65/65
f 59/59/59 63/63/63 65/65/65
f 66/66/66 59/59/59 65/65/65
f 65/65/65 67/67/67 66/66/66
f 65/65/65 68/68/68 67/67/67
f 68/68/68 69/69/69 67/67/67
f 64/64/64 70/70/70 65/65/65
f 68/68/68 65/65/65 70/70/70
f 68/68/68 71/71/71 69/69/69
f 71/71/71 72/72/72 69/69/69
f 72/72/72 71/71/71 73/73/73
f 74/74/74 68/68/68 70/70/70
f 71/71/71 68/68/68 74/74/74
f 73/73/73 71/71/71 75/75/75
f 76/76/76 73/73/73 75/75/75
f 77/77/77 71/71/71 74/74/74
f 71/71/71 77/77/77 75/75/75
f 70/70/70 78/78/78 74/74/74
f 78/78/78 77/77/77 74/74/74
f 79/79/79 75/75/75 77/77/77
f 79/79/79 80/80/80 75/75/75
f 81/81/81 80/80/80 79/79/79
f 79/79/79 77/77/77 82/82/82
f 82/82/82 77/77/77 78/78/78
f 79/79/79 82/82/82 81/81/81
f 83/83/83 78/78/78 70/70/70
f 84/84/84 82/82/82 78/78/78
f 84/84/84 78/78/78 83/83/83
f 82/82/82 85/85/85 81/81/81
f 82/82/82 84/84/84 85/85/85
f 86/86/86 83/83/83 70/70/70
f 64/64/64 86/86/86 70/70/70
f 80/80/80 81/81/81 87/87/87
f 80/80/80 87/87/87 88/88/88
f 89/89/89 80/80/80 88/88/88
f 81/81/81 90/90/90 87/87/87
f 91/91/91 90/90/90 81/81/81
f 92/92/92 91/91/91 81/81/81
f 85/85/85 92/92/92 81/81/81
f 93/93/93 92/92/92 85/85/85
f 94/94/94 93/93/93 85/85/85
f 84/84/84 94/94/94 85/85/85
f 95/95/95 93/93/93 94/94/94
f 84/84/84 96/96/96 94/94/94
f 97/97/97 95/95/95 94/94/94
f 96/96/96 97/97/97 94/94/94
f 97/97/97 98/98/98 95/95/95
f 98/98/98 97/97/97 96/96/96
f 98/98/98 99/99/99 95/95/95
f 100/100/100 99/99/99 98/98/98
f 84/84/84 101/101/101 96/96/96
f 96/96/96 101/101/101 98/98/98
f 101/101/101 84/84/84 83/83/83
f 98/98/98 101/101/101 102/102/102
f 101/101/101 83/83/83 102/102/102
f 103/103/103 100/100/100 98/98/98
f 98/98/98 102/102/102 103/103/103
f 83/83/83 104/104/104 102/102/102
f 105/105/105 102/102/102 104/104/104
f 83/83/83 86/86/86 104/104/104
f 103/103/103 106/106/106 100/100/100
f 106/106/106 107/107/107 100/100/100
f 106/106/106 108/108/108 107/107/107
f 102/102/102 109/109/109 103/103/103
f 109/109/109 102/102/102 105/105/105
f 106/106/106 110/110/110 108/108/108
f 110/110/110 111/111/111 108/108/108
f 112/112/112 106/106/106 103/103/103
f 112/112/112 103/103/103 109/109/109
f 110/110/110 106/106/106 112/112/112
f 109/109/109 113/113/113 112/112/112
f 110/110/110 114/114/114 111/111/111
f 114/114/114 115/115/115 111/111/111
f 116/116/116 110/110/110 112/112/112
f 112/112/112 113/113/113 116/116/116
f 114/114/114 110/110/110 116/116/116
f 114/114/114 117/117/117 115/115/115
f 117/117/117 118/118/118 115/115/115
f 117/117/117 114/114/114 119/119/119
f 119/119/119 114/114/114 116/116/116
f 113/113/113 119/119/119 116/116/116
f 120/120/120 109/109/109 105/105/105
f 113/113/113 109/109/109 120/120/120
f 120/120/120 121/121/121 113/113/113
f 113/113/113 121/121/121 122/122/122
f 113/113/113 123/123/123 119/119/119
f 122/122/122 123/123/123 113/113/113
f 123/123/123 124/124/124 119/119/119
f 123/123/123 122/122/122 124/124/124
f 122/122/122 125/125/125 124/124/124
f 125/125/125 126/126/126 124/124/124
f 124/124/124 126/126/126 127/127/127
f 124/124/124 128/128/128 119/119/119
f 124/124/124 127/127/127 129/129/129
f 128/128/128 124/124/124 129/129/129
f 128/128/128 129/129/129 130/130/130
f 131/131/131 120/120/120 105/105/105
f 131/131/131 132/132/132 120/120/120
f 133/133/133 120/120/120 132/132/132
f 133/133/133 132/132/132 134/134/134
f 135/135/135 134/134/134 132/132/132
f 134/134/134 135/135/135 136/136/136
f 137/137/137 134/134/134 136/136/136
f 138/138/138 137/137/137 136/136/136
f 138/138/138 136/136/136 139/139/139
f 139/139/139 136/136/136 140/140/140
f 136/136/136 141/141/141 140/140/140
f 140/140/140 141/141/141 142/142/142
f 141/141/141 136/136/136 143/143/143
f 136/136/136 135/135/135 143/143/143
f 135/135/135 132/132/132 143/143/143
f 143/143/143 132/132/132 144/144/144
f 132/132/132 131/131/131 145/145/145
f 132/132/132 145/145/145 144/144/144
f 146/146/146 143/143/143 144/144/144
f 146/146/146 147/147/147 143/143/143
f 147/147/147 146/146/146 148/148/148
f 149/149/149 147/147/147 148/148/148
f 148/148/148 146/146/146 150/150/150
f 151/151/151 146/146/146 144/144/144
f 146/146/146 151/151/151 150/150/150
f 151/151/151 144/144/144 145/145/145
f 150/150/150 151/151/151 152/152/152
f 151/151/151 153/153/153 152/152/152
f 153/153/153 151/151/151 145/145/145
f 152/152/152 153/153/153 154/154/154
f 154/154/154 153/153/153 155/155/155
f 153/153/153 145/145/145 156/156/156
f 156/156/156 145/145/145 131/131/131
f 153/153/153 156/156/156 155/155/155
f 155/155/155 156/156/156 157/157/157
f 158/158/158 155/155/155 157/157/157
f 158/158/158 157/157/157 159/159/159
f 131/131/131 160/160/160 156/156/156
f 160/160/160 157/157/157 156/156/156
f 160/160/160 131/131/131 105/105/105
f 157/157/157 161/161/161 159/159/159
f 159/159/159 161/161/161 162/162/162
f 163/163/163 159/159/159 162/162/162
f 161/161/161 157/157/157 164/164/164
f 161/161/161 164/164/164 162/162/162
f 163/163/163 162/162/162 165/165/165
f 166/166/166 163/163/163 165/165/165
f 166/166/166 165/165/165 167/167/167
f 168/168/168 166/166/166 167/167/167
f 169/169/169 168/168/168 167/167/167
f 169/169/169 167/167/167 170/170/170
f 171/171/171 164/164/164 157/157/157
f 171/171/171 157/157/157 160/160/160
f 164/164/164 172/172/172 162/162/162
f 162/162/162 172/172/172 165/165/165
f 171/171/171 172/172/172 164/164/164
f 173/173/173 171/171/171 160/160/160
f 172/172/172 171/171/171 173/173/173
f 172/172/172 174/174/174 165/165/165
f 165/165/165 174/174/174 167/167/167
f 167/167/167 175/175/175 170/170/170
f 170/170/170 175/175/175 176/176/176
f 175/175/175 177/177/177 176/176/176
f 175/175/175 167/167/167 178/178/178
f 175/175/175 178/178/178 177/177/177
f 174/174/174 178/178/178 167/167/167
f 177/177/177 178/178/178 31/31/31
f 31/31/31 178/178/178 174/174/174
f 31/31/31 174/174/174 46/46/46
f 174/174/174 172/172/172 46/46/46
f 46/46/46 172/172/172 173/173/173
f 46/46/46 173/173/173 38/38/38
f 179/179/179 173/173/173 160/160/160
f 160/160/160 105/105/105 179/179/179
f 173/173/173 180/180/180 38/38/38
f 180/180/180 173/173/173 179/179/179
f 180/180/180 39/39/39 38/38/38
f 105/105/105 181/181/181 179/179/179
f 181/181/181 105/105/105 104/104/104
f 182/182/182 180/180/180 179/179/179
f 39/39/39 180/180/180 183/183/183
f 182/182/182 183/183/183 180/180/180
f 184/184/184 179/179/179 181/181/181
f 182/182/182 179/179/179 184/184/184
f 182/182/182 184/184/184 185/185/185
f 186/186/186 184/184/184 181/181/181
f 185/185/185 184/184/184 186/186/186
f 104/104/104 187/187/187 181/181/181
f 187/187/187 186/186/186 181/181/181
f 187/187/187 188/188/188 186/186/186
f 104/104/104 189/189/189 187/187/187
f 187/187/187 189/189/189 188/188/188
f 86/86/86 189/189/189 104/104/104
f 190/190/190 185/185/185 186/186/186
f 188/188/188 190/190/190 186/186/186
f 191/191/191 189/189/189 86/86/86
f 86/86/86 64/64/64 191/191/191
f 182/182/182 192/192/192 183/183/183
f 193/193/193 182/182/182 185/185/185
f 193/193/193 192/192/192 182/182/182
f 192/192/192 194/194/194 183/183/183
f 194/194/194 39/39/39 183/183/183
f 195/195/195 194/194/194 192/192/192
f 195/195/195 192/192/192 193/193/193
f 39/39/39 194/194/194 196/196/196
f 194/194/194 195/195/195 196/196/196
f 197/197/197 39/39/39 196/196/196
f 39/39/39 197/197/197 41/41/41
f 197/197/197 198/198/198 41/41/41
f 41/41/41 198/198/198 44/44/44
f 198/198/198 197/197/197 199/199/199
f 198/198/198 200/200/200 44/44/44
f 200/200/200 198/198/198 199/199/199
f 200/200/200 201/201/201 44/44/44
f 44/44/44 201/201/201 48/48/48
f 202/202/202 197/197/197 196/196/196
f 197/197/197 202/202/202 199/199/199
f 203/203/203 200/200/200 199/199/199
f 203/203/203 201/201/201 200/200/200
f 48/48/48 201/201/201 204/204/204
f 203/203/203 205/205/205 201/201/201
f 201/201/201 205/205/205 204/204/204
f 199/199/199 206/206/206 203/203/203
f 203/203/203 206/206/206 205/205/205
f 202/202/202 207/207/207 199/199/199
f 207/207/207 206/206/206 199/199/199
f 208/208/208 202/202/202 196/196/196
f 207/207/207 202/202/202 208/208/208
f 206/206/206 209/209/209 205/205/205
f 209/209/209 206/206/206 207/207/207
f 210/210/210 48/48/48 204/204/204
f 48/48/48 210/210/210 62/62/62
f 204/204/204 205/205/205 211/211/211
f 205/205/205 209/209/209 211/211/211
f 209/209/209 207/207/207 212/212/212
f 212/212/212 207/207/207 208/208/208
f 209/209/209 212/212/212 213/213/213
f 213/213/213 212/212/212 208/208/208
f 211/211/211 209/209/209 213/213/213
f 196/196/196 214/214/214 208/208/208
f 208/208/208 214/214/214 213/213/213
f 195/195/195 214/214/214 196/196/196
f 215/215/215 204/204/204 211/211/211
f 210/210/210 204/204/204 215/215/215
f 211/211/211 213/213/213 216/216/216
f 215/215/215 211/211/211 216/216/216
f 214/214/214 217/217/217 213/213/213
f 214/214/214 195/195/195 217/217/217
f 213/213/213 217/217/217 216/216/216
f 195/195/195 218/218/218 217/217/217
f 217/217/217 218/218/218 216/216/216
f 218/218/218 195/195/195 193/193/193
f 216/216/216 218/218/218 219/219/219
f 218/218/218 193/193/193 219/219/219
f 215/215/215 216/216/216 219/219/219
f 219/219/219 193/193/193 185/185/185
f 220/220/220 215/215/215 219/219/219
f 220/220/220 219/219/219 185/185/185
f 220/220/220 210/210/210 215/215/215
f 221/221/221 220/220/220 185/185/185
f 220/220/220 221/221/221 210/210/210
f 221/221/221 185/185/185 190/190/190
f 221/221/221 222/222/222 210/210/210
f 222/222/222 221/221/221 190/190/190
f 222/222/222 62/62/62 210/210/210
f 224/224/224 223/223/223 190/190/190
f 188/188/188 224/224/224 190/190/190
f 62/62/62 223/223/223 225/225/225
f 223/223/223 224/224/224 225/225/225
f 225/225/225 53/53/53 62/62/62
f 226/226/226 224/224/224 188/188/188
f 224/224/224 226/226/226 225/225/225
f 53/53/53 225/225/225 227/227/227
f 225/225/225 226/226/226 228/228/228
f 227/227/227 225/225/225 228/228/228
f 229/229/229 226/226/226 188/188/188
f 228/228/228 226/226/226 229/229/229
f 230/230/230 53/53/53 227/227/227
f 230/230/230 54/54/54 53/53/53
f 231/231/231 229/229/229 188/188/188
f 189/189/189 231/231/231 188/188/188
f 232/232/232 231/231/231 189/189/189
f 232/232/232 189/189/189 191/191/191
f 233/233/233 232/232/232 191/191/191
f 64/64/64 233/233/233 191/191/191
f 232/232/232 234/234/234 231/231/231
f 233/233/233 234/234/234 232/232/232
f 231/231/231 235/235/235 229/229/229
f 234/234/234 235/235/235 231/231/231
f 236/236/236 228/228/228 229/229/229
f 235/235/235 236/236/236 229/229/229
f 227/227/227 228/228/228 237/237/237
f 237/237/237 228/228/228 236/236/236
f 233/233/233 64/64/64 238/238/238
f 234/234/234 233/233/233 238/238/238
f 235/235/235 239/239/239 236/236/236
f 235/235/235 234/234/234 239/239/239
f 239/239/239 240/240/240 236/236/236
f 240/240/240 237/237/237 236/236/236
f 234/234/234 241/241/241 239/239/239
f 241/241/241 234/234/234 238/238/238
f 239/239/239 241/241/241 240/240/240
f 242/242/242 227/227/227 237/237/237
f 242/242/242 230/230/230 227/227/227
f 64/64/64 243/243/243 238/238/238
f 243/243/243 64/64/64 57/57/57
f 241/241/241 238/238/238 244/244/244
f 241/241/241 244/244/244 240/240/240
f 245/245/245 237/237/237 240/240/240
f 245/245/245 242/242/242 237/237/237
f 246/246/246 243/243/243 57/57/57
f 246/246/246 57/57/57 54/54/54
f 230/230/230 247/247/247 54/54/54
f 247/247/247 246/246/246 54/54/54
f 243/243/243 248/248/248 238/238/238
f 248/248/248 244/244/244 238/238/238
f 243/243/243 246/246/246 249/249/249
f 246/246/246 247/247/247 249/249/249
f 248/248/248 243/243/243 249/249/249
f 230/230/230 250/250/250 247/247/247
f 242/242/242 250/250/250 230/230/230
f 247/247/247 250/250/250 249/249/249
f 251/251/251 250/250/250 242/242/242
f 251/251/251 249/249/249 250/250/250
f 245/245/245 251/251/251 242/242/242
f 252/252/252 248/248/248 249/249/249
f 251/251/251 252/252/252 249/249/249
f 248/248/248 252/252/252 244/244/244
f 251/251/251 245/245/245 252/252/252
f 252/252/252 253/253/253 244/244/244
f 252/252/252 245/245/245 253/253/253
f 253/253/253 240/240/240 244/244/244
f 253/253/253 245/245/245 240/240/240
f 256/256/256 255/255/255 254/254/254
f 255/255/255 257/257/257 254/254/254
f 258/258/258 254/254/254 257/257/257
f 259/259/259 258/258/258 257/257/257
f 260/260/260 258/258/258 259/259/259
f 261/261/261 254/254/254 258/258/258
f 262/262/262 254/254/254 261/261/261
f 262/262/262 263/263/263 254/254/254
f 264/264/264 261/261/261 258/258/258
f 265/265/265 264/264/264 258/258/258
f 266/266/266 258/258/258 260/260/260
f 265/265/265 258/258/258 266/266/266
f 267/267/267 266/266/266 260/260/260
f 268/268/268 267/267/267 260/260/260
f 268/268/268 269/269/269 267/267/267
f 270/270/270 265/265/265 266/266/266
f 270/270/270 266/266/266 271/271/271
f 265/265/265 270/270/270 272/272/272
f 272/272/272 270/270/270 273/273/273
f 273/273/273 270/270/270 271/271/271
f 274/274/274 273/273/273 271/271/271
f 275/275/275 266/266/266 267/267/267
f 266/266/266 275/275/275 271/271/271
f 267/267/267 269/269/269 276/276/276
f 276/276/276 275/275/275 267/267/267
f 275/275/275 277/277/277 271/271/271
f 275/275/275 276/276/276 277/277/277
f 269/269/269 278/278/278 276/276/276
f 279/279/279 278/278/278 269/269/269
f 278/278/278 279/279/279 280/280/280
f 276/276/276 278/278/278 281/281/281
f 276/276/276 281/281/281 277/277/277
f 278/278/278 280/280/280 282/282/282
f 278/278/278 282/282/282 281/281/281
f 283/283/283 282/282/282 280/280/280
f 283/283/283 284/284/284 282/282/282
f 282/282/282 284/284/284 281/281/281
f 284/284/284 283/283/283 285/285/285
f 284/284/284 286/286/286 281/281/281
f 281/281/281 286/286/286 277/277/277
f 285/285/285 287/287/287 284/284/284
f 284/284/284 287/287/287 286/286/286
f 288/288/288 287/287/287 285/285/285
f 287/287/287 288/288/288 289/289/289
f 287/287/287 290/290/290 286/286/286
f 287/287/287 289/289/289 290/290/290
f 286/286/286 291/291/291 277/277/277
f 286/286/286 290/290/290 291/291/291
f 289/289/289 292/292/292 290/290/290
f 289/289/289 293/293/293 292/292/292
f 292/292/292 293/293/293 294/294/294
f 295/295/295 290/290/290 292/292/292
f 290/290/290 295/295/295 291/291/291
f 291/291/291 295/295/295 296/296/296
f 297/297/297 295/295/295 292/292/292
f 297/297/297 292/292/292 294/294/294
f 295/295/295 297/297/297 296/296/296
f 298/298/298 297/297/297 294/294/294
f 298/298/298 294/294/294 299/299/299
f 298/298/298 299/299/299 300/300/300
f 277/277/277 291/291/291 301/301/301
f 277/277/277 301/301/301 271/271/271
f 302/302/302 291/291/291 296/296/296
f 291/291/291 302/302/302 301/301/301
f 271/271/271 301/301/301 303/303/303
f 303/303/303 274/274/274 271/271/271
f 301/301/301 302/302/302 304/304/304
f 303/303/303 301/301/301 304/304/304
f 305/305/305 298/298/298 300/300/300
f 300/300/300 306/306/306 305/305/305
f 306/306/306 307/307/307 305/305/305
f 302/302/302 296/296/296 308/308/308
f 302/302/302 308/308/308 304/304/304
f 274/274/274 303/303/303 309/309/309
f 274/274/274 309/309/309 310/310/310
f 310/310/310 309/309/309 311/311/311
f 309/309/309 312/312/312 311/311/311
f 311/311/311 312/312/312 313/313/313
f 313/313/313 312/312/312 314/314/314
f 312/312/312 315/315/315 314/314/314
f 315/315/315 312/312/312 316/316/316
f 317/317/317 315/315/315 316/316/316
f 316/316/316 312/312/312 318/318/318
f 312/312/312 309/309/309 318/318/318
f 309/309/309 319/319/319 318/318/318
f 319/319/319 309/309/309 303/303/303
f 320/320/320 319/319/319 303/303/303
f 320/320/320 321/321/321 319/319/319
f 320/320/320 303/303/303 304/304/304
f 322/322/322 320/320/320 304/304/304
f 323/323/323 322/322/322 304/304/304
f 308/308/308 323/323/323 304/304/304
f 324/324/324 323/323/323 308/308/308
f 325/325/325 323/323/323 324/324/324
f 326/326/326 324/324/324 308/308/308
f 324/324/324 326/326/326 327/327/327
f 308/308/308 328/328/328 326/326/326
f 328/328/328 308/308/308 296/296/296
f 326/326/326 328/328/328 329/329/329
f 330/330/330 328/328/328 296/296/296
f 326/326/326 329/329/329 331/331/331
f 326/326/326 332/332/332 327/327/327
f 332/332/332 326/326/326 331/331/331
f 332/332/332 331/331/331 333/333/333
f 332/332/332 333/333/333 334/334/334
f 332/332/332 335/335/335 327/327/327
f 336/336/336 332/332/332 334/334/334
f 332/332/332 336/336/336 335/335/335
f 336/336/336 337/337/337 335/335/335
f 338/338/338 330/330/330 296/296/296
f 338/338/338 339/339/339 330/330/330
f 297/297/297 338/338/338 296/296/296
f 338/338/338 340/340/340 339/339/339
f 340/340/340 338/338/338 297/297/297
f 298/298/298 340/340/340 297/297/297
f 341/341/341 340/340/340 298/298/298
f 342/342/342 341/341/341 298/298/298
f 305/305/305 342/342/342 298/298/298
f 305/305/305 343/343/343 342/342/342
f 344/344/344 343/343/343 305/305/305
f 347/347/347 346/346/346 345/345/345
f 348/348/348 347/347/347 345/345/345
f 351/351/351 350/350/350 349/349/349
f 352/352/352 351/351/351 349/349/349
f 355/355/355 354/354/354 353/353/353
f 356/356/356 355/355/355 353/353/353
f 359/359/359 358/358/358 357/357/357
f 360/360/360 359/359/359 357/357/357
f 363/363/363 362/362/362 361/361/361
f 364/364/364 363/363/363 361/361/361
f 367/367/367 366/366/366 365/365/365
f 368/368/368 367/367/367 365/365/365
f 371/371/371 370/370/370 369/369/369
f 372/372/372 371/371/371 369/369/369
f 375/375/375 374/374/374 373/373/373
f 376/376/376 375/375/375 373/373/373
f 379/379/379 378/378/378 377/377/377
f 380/380/380 379/379/379 377/377/377
f 383/383/383 382/382/382 381/381/381
f 384/384/384 383/383/383 381/381/381
f 387/387/387 386/386/386 385/385/385
f 388/388/388 387/387/387 385/385/385
f 391/391/391 390/390/390 389/389/389
f 392/392/392 391/391/391 389/389/389
f 395/395/395 394/394/394 393/393/393
f 396/396/396 395/395/395 393/393/393
f 399/399/399 398/398/398 397/397/397
f 400/400/400 399/399/399 397/397/397
f 403/403/403 402/402/402 401/401/401
f 404/404/404 403/403/403 401/401/401
f 407/407/407 406/406/406 405/405/405
f 408/408/408 407/407/407 405/405/405
f 411/411/411 410/410/410 409/409/409
f 410/410/410 412/412/412 409/409/409
f 413/413/413 411/411/411 409/409/409
f 413/413/413 414/414/414 411/411/411
f 414/414/414 413/413/413 415/415/415
f 412/412/412 416/416/416 409/409/409
f 417/417/417 416/416/416 412/412/412
f 416/416/416 417/417/417 418/418/418
f 419/419/419 413/413/413 409/409/409
f 416/416/416 419/419/419 409/409/409
f 419/419/419 420/420/420 413/413/413
f 413/413/413 420/420/420 415/415/415
f 421/421/421 419/419/419 416/416/416
f 421/421/421 416/416/416 418/418/418
f 422/422/422 420/420/420 419/419/419
f 420/420/420 423/423/423 415/415/415
f 423/423/423 420/420/420 422/422/422
f 415/415/415 423/423/423 424/424/424
f 425/425/425 421/421/421 418/418/418
f 425/425/425 418/418/418 424/424/424
f 423/423/423 426/426/426 424/424/424
f 426/426/426 425/425/425 424/424/424
f 423/423/423 422/422/422 426/426/426
f 421/421/421 425/425/425 427/427/427
f 427/427/427 425/425/425 426/426/426
f 421/421/421 427/427/427 419/419/419
f 422/422/422 428/428/428 426/426/426
f 426/426/426 428/428/428 427/427/427
f 428/428/428 422/422/422 429/429/429
f 430/430/430 422/422/422 419/419/419
f 428/428/428 429/429/429 431/431/431
f 427/427/427 428/428/428 432/432/432
f 419/419/419 427/427/427 433/433/433
f 432/432/432 428/428/428 434/434/434
f 435/435/435 431/431/431 430/430/430
f 435/435/435 430/430/430 419/419/419
f 428/428/428 431/431/431 435/435/435
f 436/436/436 435/435/435 419/419/419
f 437/437/437 428/428/428 435/435/435
f 436/436/436 419/419/419 438/438/438
f 438/438/438 419/419/419 433/433/433
f 434/434/434 438/438/438 433/433/433
f 437/437/437 438/438/438 428/428/428
f 428/428/428 438/438/438 434/434/434
f 441/441/441 440/440/440 439/439/439
f 440/440/440 441/441/441 442/442/442
f 443/443/443 441/441/441 439/439/439
f 443/443/443 439/439/439 444/444/444
f 444/444/444 442/442/442 445/445/445
f 441/441/441 445/445/445 442/442/442
f 446/446/446 443/443/443 444/444/444
f 446/446/446 444/444/444 445/445/445
f 447/447/447 441/441/441 443/443/443
f 441/441/441 447/447/447 445/445/445
f 446/446/446 448/448/448 443/443/443
f 448/448/448 447/447/447 443/443/443
f 447/447/447 449/449/449 445/445/445
f 445/445/445 449/449/449 446/446/446
f 447/447/447 448/448/448 450/450/450
f 446/446/446 450/450/450 448/448/448
f 449/449/449 447/447/447 450/450/450
f 450/450/450 446/446/446 449/449/449
f 453/453/453 452/452/452 451/451/451
f 452/452/452 453/453/453 454/454/454
f 452/452/452 455/455/455 451/451/451
f 451/451/451 455/455/455 456/456/456
f 457/457/457 454/454/454 456/456/456
f 457/457/457 452/452/452 454/454/454
f 455/455/455 458/458/458 456/456/456
f 458/458/458 457/457/457 456/456/456
f 452/452/452 459/459/459 455/455/455
f 457/457/457 459/459/459 452/452/452
f 455/455/455 459/459/459 458/458/458
f 458/458/458 459/459/459 457/457/457
f 462/462/462 461/461/461 460/460/460
f 463/463/463 462/462/462 460/460/460
f 464/464/464 463/463/463 460/460/460
f 465/465/465 461/461/461 462/462/462
f 465/465/465 462/462/462 466/466/466
f 461/461/461 465/465/465 467/467/467
f 467/467/467 465/465/465 466/466/466
f 461/461/461 467/467/467 468/468/468
f 469/469/469 468/468/468 467/467/467
f 469/469/469 467/467/467 466/466/466
f 470/470/470 468/468/468 469/469/469
f 470/470/470 464/464/464 468/468/468
f 470/470/470 469/469/469 466/466/466
f 471/471/471 464/464/464 470/470/470
f 464/464/464 471/471/471 463/463/463
f 471/471/471 470/470/470 466/466/466
f 463/463/463 471/471/471 466/466/466
f 462/462/462 472/472/472 466/466/466
f 472/472/472 463/463/463 466/466/466
f 463/463/463 473/473/473 462/462/462
f 462/462/462 473/473/473 472/472/472
f 473/473/473 463/463/463 472/472/472
