g zuanshi
v 0.0116695222 -0.000187082289 -0.00809448212
v 0.00869380124 0.00505903224 -0.0191957094
v 0.00611796416 0.000400896068 -0.0167367551
v 0.00869380124 0.00505903224 -0.0191957094
v 0.0116695222 -0.000187082289 -0.00809448212
v 0.0162405372 0.00484394049 -0.00948638935
v 0.0181604978 0.00462136278 0.00214202865
v 0.0116695222 -0.000187082289 -0.00809448212
v 0.0130366944 -0.000477914757 0.00215286249
v 0.0116695222 -0.000187082289 -0.00809448212
v 0.0181604978 0.00462136278 0.00214202865
v 0.0162405372 0.00484394049 -0.00948638935
v 5.96729797E-06 0.0051914216 -0.0240057372
v -0.00517661497 0.000487327576 -0.0173849482
v 0.000916804885 0.00174634927 -0.0215246584
v -0.00517661497 0.000487327576 -0.0173849482
v 5.96729797E-06 0.0051914216 -0.0240057372
v -0.00872318633 0.00509813288 -0.0192663576
v 0.00869380124 0.00505903224 -0.0191957094
v 0.000916804885 0.00174634927 -0.0215246584
v 0.00611796416 0.000400896068 -0.0167367551
v 0.000916804885 0.00174634927 -0.0215246584
v 0.00869380124 0.00505903224 -0.0191957094
v 5.96729797E-06 0.0051914216 -0.0240057372
v 0.0131508494 0.00439147931 0.0116137695
v 0.0130366944 -0.000477914757 0.00215286249
v 0.00927318446 -0.000633525837 0.00990417413
v 0.0130366944 -0.000477914757 0.00215286249
v 0.0131508494 0.00439147931 0.0116137695
v 0.0181604978 0.00462136278 0.00214202865
v 0.00688742381 0.0041809273 0.0185357668
v 0.00927318446 -0.000633525837 0.00990417413
v 0.00494772475 -0.000714244845 0.0157749932
v 0.00927318446 -0.000633525837 0.00990417413
v 0.00688742381 0.0041809273 0.0185357668
v 0.0131508494 0.00439147931 0.0116137695
v -0.0115915155 -0.000155897142 -0.00816085842
v -0.0181604903 0.00462158211 0.00214233389
v -0.0130391549 -0.000450401305 0.00215148926
v -0.0181604903 0.00462158211 0.00214233389
v -0.0115915155 -0.000155897142 -0.00816085842
v -0.0162390284 0.00492790202 -0.00948852487
v -0.00872318633 0.00509813288 -0.0192663576
v -0.0115915155 -0.000155897142 -0.00816085842
v -0.00517661497 0.000487327576 -0.0173849482
v -0.0115915155 -0.000155897142 -0.00816085842
v -0.00872318633 0.00509813288 -0.0192663576
v -0.0162390284 0.00492790202 -0.00948852487
v -0.0130391549 -0.000450401305 0.00215148926
v -0.0131490445 0.00439244276 0.0116137695
v -0.00929321535 -0.000698003743 0.00989257824
v -0.0131490445 0.00439244276 0.0116137695
v -0.0130391549 -0.000450401305 0.00215148926
v -0.0181604903 0.00462158211 0.00214233389
v -0.00929321535 -0.000698003743 0.00989257824
v -0.00688472576 0.00418117503 0.0185348503
v -0.00502651511 -0.000776882167 0.0156091303
v -0.00688472576 0.00418117503 0.0185348503
v -0.00929321535 -0.000698003743 0.00989257824
v -0.0131490445 0.00439244276 0.0116137695
v 0.0059119449 -0.00334288599 -0.00648788456
v 0.00323773501 -0.0014318371 -0.0159008782
v 0.000213004794 -0.00452879909 -0.00716888346
v 7.46248843E-05 -0.00504750246 0.00222747796
v 0.00499504386 -0.00385303493 0.00841827411
v 0.00659051398 -0.00370524405 0.00211395253
v 0.00499504386 -0.00385303493 0.00841827411
v 7.46248843E-05 -0.00504750246 0.00222747796
v 0.00111373479 -0.0051914216 0.0095579531
v 0.00134726497 -0.00394570362 0.013656158
v 0.00499504386 -0.00385303493 0.00841827411
v 0.00111373479 -0.0051914216 0.0095579531
v -0.00371218473 -0.000840940455 -0.0156666562
v 0.000213004794 -0.00452879909 -0.00716888346
v 0.00323773501 -0.0014318371 -0.0159008782
v 0.000213004794 -0.00452879909 -0.00716888346
v -0.00371218473 -0.000840940455 -0.0156666562
v -0.00657302793 -0.00455266936 -0.0031504822
v -0.00657302793 -0.00455266936 -0.0031504822
v 7.46248843E-05 -0.00504750246 0.00222747796
v 0.000213004794 -0.00452879909 -0.00716888346
v 7.46248843E-05 -0.00504750246 0.00222747796
v -0.00657302793 -0.00455266936 -0.0031504822
v -0.00623605307 -0.0041473005 0.0026484679
v -0.00503088534 -0.00443813298 0.00704803457
v 0.00111373479 -0.0051914216 0.0095579531
v 7.46248843E-05 -0.00504750246 0.00222747796
v 0.00111373479 -0.0051914216 0.0095579531
v -0.00503088534 -0.00443813298 0.00704803457
v -0.0033088054 -0.00444728835 0.0107150264
v 0.00927318446 -0.000633525837 0.00990417413
v 0.00659051398 -0.00370524405 0.00211395253
v 0.00499504386 -0.00385303493 0.00841827411
v 0.00659051398 -0.00370524405 0.00211395253
v 0.00927318446 -0.000633525837 0.00990417413
v 0.0130366944 -0.000477914757 0.00215286249
v 0.00611796416 0.000400896068 -0.0167367551
v 0.0059119449 -0.00334288599 -0.00648788456
v 0.0116695222 -0.000187082289 -0.00809448212
v 0.0059119449 -0.00334288599 -0.00648788456
v 0.00611796416 0.000400896068 -0.0167367551
v 0.00323773501 -0.0014318371 -0.0159008782
v 0.000916804885 0.00174634927 -0.0215246584
v 0.00323773501 -0.0014318371 -0.0159008782
v 0.00611796416 0.000400896068 -0.0167367551
v 0.000916804885 0.00174634927 -0.0215246584
v -0.00371218473 -0.000840940455 -0.0156666562
v 0.00323773501 -0.0014318371 -0.0159008782
v -0.00371218473 -0.000840940455 -0.0156666562
v 0.000916804885 0.00174634927 -0.0215246584
v -0.00517661497 0.000487327576 -0.0173849482
v -0.0115915155 -0.000155897142 -0.00816085842
v -0.00371218473 -0.000840940455 -0.0156666562
v -0.00517661497 0.000487327576 -0.0173849482
v -0.00371218473 -0.000840940455 -0.0156666562
v -0.0115915155 -0.000155897142 -0.00816085842
v -0.00657302793 -0.00455266936 -0.0031504822
v -0.0130391549 -0.000450401305 0.00215148926
v -0.00657302793 -0.00455266936 -0.0031504822
v -0.0115915155 -0.000155897142 -0.00816085842
v -0.00657302793 -0.00455266936 -0.0031504822
v -0.0130391549 -0.000450401305 0.00215148926
v -0.00623605307 -0.0041473005 0.0026484679
v -0.00929321535 -0.000698003743 0.00989257824
v -0.00623605307 -0.0041473005 0.0026484679
v -0.0130391549 -0.000450401305 0.00215148926
v -0.00623605307 -0.0041473005 0.0026484679
v -0.00929321535 -0.000698003743 0.00989257824
v -0.00503088534 -0.00443813298 0.00704803457
v -0.00929321535 -0.000698003743 0.00989257824
v -0.0033088054 -0.00444728835 0.0107150264
v -0.00503088534 -0.00443813298 0.00704803457
v -0.0033088054 -0.00444728835 0.0107150264
v -0.00929321535 -0.000698003743 0.00989257824
v -0.00502651511 -0.000776882167 0.0156091303
v -0.00502651511 -0.000776882167 0.0156091303
v 0.00134726497 -0.00394570362 0.013656158
v -0.0033088054 -0.00444728835 0.0107150264
v 0.00134726497 -0.00394570362 0.013656158
v -0.00502651511 -0.000776882167 0.0156091303
v 0.000126244791 -0.00069011678 0.0198481753
v 0.00494772475 -0.000714244845 0.0157749932
v 0.00134726497 -0.00394570362 0.013656158
v 0.000126244791 -0.00069011678 0.0198481753
v 0.00494772475 -0.000714244845 0.0157749932
v 0.00499504386 -0.00385303493 0.00841827411
v 0.00134726497 -0.00394570362 0.013656158
v 0.00499504386 -0.00385303493 0.00841827411
v 0.00494772475 -0.000714244845 0.0157749932
v 0.00927318446 -0.000633525837 0.00990417413
v -0.00503088534 -0.00443813298 0.00704803457
v 7.46248843E-05 -0.00504750246 0.00222747796
v -0.00623605307 -0.0041473005 0.0026484679
v -0.0033088054 -0.00444728835 0.0107150264
v 0.00134726497 -0.00394570362 0.013656158
v 0.00111373479 -0.0051914216 0.0095579531
v 0.0116695222 0.0104387458 -0.00768920872
v 0.00869380124 0.00505903224 -0.0191957094
v 0.0162405372 0.00484394049 -0.00948638935
v 0.00869380124 0.00505903224 -0.0191957094
v 0.0116695222 0.0104387458 -0.00768920872
v 0.00611796416 0.0107793901 -0.0163508598
v 0.0181604978 0.00462136278 0.00214202865
v 0.0116695222 0.0104387458 -0.00768920872
v 0.0162405372 0.00484394049 -0.00948638935
v 0.0116695222 0.0104387458 -0.00768920872
v 0.0181604978 0.00462136278 0.00214202865
v 0.0130366944 0.0105939675 0.00254928577
v 5.96729797E-06 0.0051914216 -0.0240057372
v -0.00517661497 0.0108441543 -0.017003784
v -0.00872318633 0.00509813288 -0.0192663576
v -0.00517661497 0.0108441543 -0.017003784
v 5.96729797E-06 0.0051914216 -0.0240057372
v 0.000916804885 0.0102660749 -0.0212298576
v 0.00869380124 0.00505903224 -0.0191957094
v 0.000916804885 0.0102660749 -0.0212298576
v 5.96729797E-06 0.0051914216 -0.0240057372
v 0.000916804885 0.0102660749 -0.0212298576
v 0.00869380124 0.00505903224 -0.0191957094
v 0.00611796416 0.0107793901 -0.0163508598
v 0.0131508494 0.00439147931 0.0116137695
v 0.0130366944 0.0105939675 0.00254928577
v 0.0181604978 0.00462136278 0.00214202865
v 0.0130366944 0.0105939675 0.00254928577
v 0.0131508494 0.00439147931 0.0116137695
v 0.00927318446 0.0102556795 0.0102886958
v 0.00688742381 0.0041809273 0.0185357668
v 0.00927318446 0.0102556795 0.0102886958
v 0.0131508494 0.00439147931 0.0116137695
v 0.00927318446 0.0102556795 0.0102886958
v 0.00688742381 0.0041809273 0.0185357668
v 0.00494772475 0.00969552062 0.0161476135
v -0.0115915155 0.0111826612 -0.007757721
v -0.0181604903 0.00462158211 0.00214233389
v -0.0162390284 0.00492790202 -0.00948852487
v -0.0181604903 0.00462158211 0.00214233389
v -0.0115915155 0.0111826612 -0.007757721
v -0.0130391549 0.0106182573 0.00254577631
v -0.00872318633 0.00509813288 -0.0192663576
v -0.0115915155 0.0111826612 -0.007757721
v -0.0162390284 0.00492790202 -0.00948852487
v -0.0115915155 0.0111826612 -0.007757721
v -0.00872318633 0.00509813288 -0.0192663576
v -0.00517661497 0.0108441543 -0.017003784
v -0.0130391549 0.0106182573 0.00254577631
v -0.0131490445 0.00439244276 0.0116137695
v -0.0181604903 0.00462158211 0.00214233389
v -0.0131490445 0.00439244276 0.0116137695
v -0.0130391549 0.0106182573 0.00254577631
v -0.00929321535 0.0101546003 0.0102822874
v -0.00929321535 0.0101546003 0.0102822874
v -0.00688472576 0.00418117503 0.0185348503
v -0.0131490445 0.00439244276 0.0116137695
v -0.00688472576 0.00418117503 0.0185348503
v -0.00929321535 0.0101546003 0.0102822874
v -0.00502651511 0.00984320603 0.0159870908
v 7.46248625E-05 0.0143586444 0.00298431399
v 0.0059119449 0.0131329438 -0.00583847053
v 0.00659051398 0.0131363012 0.00276519777
v 7.46248625E-05 0.0143586444 0.00298431399
v 0.00499504386 0.0131007768 0.00906143151
v 0.00111373479 0.0142527279 0.0103031918
v 0.00499504386 0.0131007768 0.00906143151
v 7.46248625E-05 0.0143586444 0.00298431399
v 0.00659051398 0.0131363012 0.00276519777
v 0.00134726497 0.0128265666 0.0142903132
v 0.00111373479 0.0142527279 0.0103031918
v 0.00499504386 0.0131007768 0.00906143151
v -0.00371218496 0.0119326878 -0.0151860043
v 0.000213004794 0.0138259316 -0.00642364472
v -0.00657302793 0.0143008884 -0.0024160766
v 0.000213004794 0.0138259316 -0.00642364472
v -0.00371218496 0.0119326878 -0.0151860043
v 0.00323773501 0.0125347422 -0.0153729245
v -0.00657302793 0.0143008884 -0.0024160766
v 7.46248625E-05 0.0143586444 0.00298431399
v -0.00623605307 0.0132716559 0.00333282468
v 7.46248625E-05 0.0143586444 0.00298431399
v -0.00657302793 0.0143008884 -0.0024160766
v 0.000213004794 0.0138259316 -0.00642364472
v 0.00927318446 0.0102556795 0.0102886958
v 0.00659051398 0.0131363012 0.00276519777
v 0.0130366944 0.0105939675 0.00254928577
v 0.00659051398 0.0131363012 0.00276519777
v 0.00927318446 0.0102556795 0.0102886958
v 0.00499504386 0.0131007768 0.00906143151
v 0.0130366944 0.0105939675 0.00254928577
v 0.0059119449 0.0131329438 -0.00583847053
v 0.0116695222 0.0104387458 -0.00768920872
v 0.0059119449 0.0131329438 -0.00583847053
v 0.0130366944 0.0105939675 0.00254928577
v 0.00659051398 0.0131363012 0.00276519777
v 0.00611796416 0.0107793901 -0.0163508598
v 0.0059119449 0.0131329438 -0.00583847053
v 0.00323773501 0.0125347422 -0.0153729245
v 0.0059119449 0.0131329438 -0.00583847053
v 0.00611796416 0.0107793901 -0.0163508598
v 0.0116695222 0.0104387458 -0.00768920872
v 0.000916804885 0.0102660749 -0.0212298576
v 0.00611796416 0.0107793901 -0.0163508598
v 0.00323773501 0.0125347422 -0.0153729245
v 0.000916804885 0.0102660749 -0.0212298576
v -0.00371218496 0.0119326878 -0.0151860043
v -0.00517661497 0.0108441543 -0.017003784
v -0.00371218496 0.0119326878 -0.0151860043
v 0.000916804885 0.0102660749 -0.0212298576
v 0.00323773501 0.0125347422 -0.0153729245
v -0.0115915155 0.0111826612 -0.007757721
v -0.00371218496 0.0119326878 -0.0151860043
v -0.00657302793 0.0143008884 -0.0024160766
v -0.00371218496 0.0119326878 -0.0151860043
v -0.0115915155 0.0111826612 -0.007757721
v -0.00517661497 0.0108441543 -0.017003784
v -0.0130391549 0.0106182573 0.00254577631
v -0.00657302793 0.0143008884 -0.0024160766
v -0.00623605307 0.0132716559 0.00333282468
v -0.00657302793 0.0143008884 -0.0024160766
v -0.0130391549 0.0106182573 0.00254577631
v -0.0115915155 0.0111826612 -0.007757721
v -0.00929321535 0.0101546003 0.0102822874
v -0.00623605307 0.0132716559 0.00333282468
v -0.00503088534 0.013369387 0.007741699
v -0.00623605307 0.0132716559 0.00333282468
v -0.00929321535 0.0101546003 0.0102822874
v -0.0130391549 0.0106182573 0.00254577631
v -0.00929321535 0.0101546003 0.0102822874
v -0.0033088054 0.0135134794 0.01139801
v -0.00502651511 0.00984320603 0.0159870908
v -0.0033088054 0.0135134794 0.01139801
v -0.00929321535 0.0101546003 0.0102822874
v -0.00503088534 0.013369387 0.007741699
v -0.00502651511 0.00984320603 0.0159870908
v 0.00134726497 0.0128265666 0.0142903132
v 0.000126244791 0.00947092008 0.0202061459
v 0.00134726497 0.0128265666 0.0142903132
v -0.00502651511 0.00984320603 0.0159870908
v -0.0033088054 0.0135134794 0.01139801
v 0.00494772475 0.00969552062 0.0161476135
v 0.000126244791 0.00947092008 0.0202061459
v 0.00134726497 0.0128265666 0.0142903132
v 0.00494772475 0.00969552062 0.0161476135
v 0.00499504386 0.0131007768 0.00906143151
v 0.00927318446 0.0102556795 0.0102886958
v 0.00499504386 0.0131007768 0.00906143151
v 0.00494772475 0.00969552062 0.0161476135
v 0.00134726497 0.0128265666 0.0142903132
v -0.00503088534 0.013369387 0.007741699
v -0.00623605307 0.0132716559 0.00333282468
v 7.46248625E-05 0.0143586444 0.00298431399
v -0.0033088054 0.0135134794 0.01139801
v 0.00111373479 0.0142527279 0.0103031918
v 0.00134726497 0.0128265666 0.0142903132
v 0.000126244791 -0.00069011678 0.0198481753
v 0.00688742381 0.0041809273 0.0185357668
v 0.00494772475 -0.000714244845 0.0157749932
v -2.29454173E-07 0.00379759748 0.0240057372
v -0.00688472576 0.00418117503 0.0185348503
v 0.000126244791 -0.00069011678 0.0198481753
v -0.00502651511 -0.000776882167 0.0156091303
v -2.29454173E-07 0.00379759748 0.0240057372
v 0.0059119449 -0.00334288599 -0.00648788456
v 7.46248843E-05 -0.00504750246 0.00222747796
v 0.00659051398 -0.00370524405 0.00211395253
v 0.000213004794 -0.00452879909 -0.00716888346
v 0.0130366944 -0.000477914757 0.00215286249
v 0.0059119449 -0.00334288599 -0.00648788456
v 0.00659051398 -0.00370524405 0.00211395253
v 0.0116695222 -0.000187082289 -0.00809448212
v 0.000126244791 0.00947092008 0.0202061459
v 0.00688742381 0.0041809273 0.0185357668
v -2.29454173E-07 0.00379759748 0.0240057372
v 0.00494772475 0.00969552062 0.0161476135
v -0.00688472576 0.00418117503 0.0185348503
v 0.000126244791 0.00947092008 0.0202061459
v -2.29454173E-07 0.00379759748 0.0240057372
v -0.00502651511 0.00984320603 0.0159870908
v 0.0059119449 0.0131329438 -0.00583847053
v 0.000213004794 0.0138259316 -0.00642364472
v 0.00323773501 0.0125347422 -0.0153729245
v 7.46248625E-05 0.0143586444 0.00298431399
v -0.00503088534 0.013369387 0.007741699
v 0.00111373479 0.0142527279 0.0103031918
v -0.0033088054 0.0135134794 0.01139801
v 7.46248625E-05 0.0143586444 0.00298431399
vt 0.6328125 0.64453125
vt 0.62890625 0.637207031
vt 0.627441406 0.640625
vt 0.62890625 0.637207031
vt 0.6328125 0.64453125
vt 0.636230469 0.641601562
vt 0.640625 0.648925781
vt 0.6328125 0.64453125
vt 0.636230469 0.650878906
vt 0.6328125 0.64453125
vt 0.640625 0.648925781
vt 0.636230469 0.641601562
vt 0.621582031 0.63671875
vt 0.620117188 0.643066406
vt 0.623046875 0.639160156
vt 0.620117188 0.643066406
vt 0.621582031 0.63671875
vt 0.616210938 0.641601562
vt 0.62890625 0.637207031
vt 0.623046875 0.639160156
vt 0.627441406 0.640625
vt 0.623046875 0.639160156
vt 0.62890625 0.637207031
vt 0.621582031 0.63671875
vt 0.640136719 0.656738281
vt 0.636230469 0.650878906
vt 0.635742188 0.656738281
vt 0.636230469 0.650878906
vt 0.640136719 0.656738281
vt 0.640625 0.648925781
vt 0.637695312 0.663085938
vt 0.635742188 0.656738281
vt 0.634277344 0.661132812
vt 0.635742188 0.656738281
vt 0.637695312 0.663085938
vt 0.640136719 0.656738281
vt 0.617675781 0.649902344
vt 0.614746094 0.658691406
vt 0.619140625 0.656738281
vt 0.614746094 0.658691406
vt 0.617675781 0.649902344
vt 0.61328125 0.649902344
vt 0.616210938 0.641601562
vt 0.617675781 0.649902344
vt 0.620117188 0.643066406
vt 0.617675781 0.649902344
vt 0.616210938 0.641601562
vt 0.61328125 0.649902344
vt 0.619140625 0.656738281
vt 0.620117188 0.6640625
vt 0.623046875 0.661132812
vt 0.620117188 0.6640625
vt 0.619140625 0.656738281
vt 0.614746094 0.658691406
vt 0.623046875 0.661132812
vt 0.626464844 0.667480469
vt 0.627441406 0.663574219
vt 0.626464844 0.667480469
vt 0.623046875 0.661132812
vt 0.620117188 0.6640625
vt 0.629394531 0.647460938
vt 0.625976562 0.642578125
vt 0.625976562 0.6484375
vt 0.627929688 0.653808594
vt 0.632324219 0.656738281
vt 0.631835938 0.65234375
vt 0.632324219 0.656738281
vt 0.627929688 0.653808594
vt 0.629882812 0.658203125
vt 0.630859375 0.66015625
vt 0.632324219 0.656738281
vt 0.629882812 0.658203125
vt 0.621582031 0.644042969
vt 0.625976562 0.6484375
vt 0.625976562 0.642578125
vt 0.625976562 0.6484375
vt 0.621582031 0.644042969
vt 0.622070312 0.649902344
vt 0.622070312 0.649902344
vt 0.627929688 0.653808594
vt 0.625976562 0.6484375
vt 0.627929688 0.653808594
vt 0.622070312 0.649902344
vt 0.623535156 0.655273438
vt 0.625976562 0.658203125
vt 0.629882812 0.658203125
vt 0.627929688 0.653808594
vt 0.629882812 0.658203125
vt 0.625976562 0.658203125
vt 0.627929688 0.66015625
vt 0.635742188 0.656738281
vt 0.631835938 0.65234375
vt 0.632324219 0.656738281
vt 0.631835938 0.65234375
vt 0.635742188 0.656738281
vt 0.636230469 0.650878906
vt 0.627441406 0.640625
vt 0.629394531 0.647460938
vt 0.6328125 0.64453125
vt 0.629394531 0.647460938
vt 0.627441406 0.640625
vt 0.625976562 0.642578125
vt 0.623046875 0.639160156
vt 0.625976562 0.642578125
vt 0.627441406 0.640625
vt 0.623046875 0.639160156
vt 0.621582031 0.644042969
vt 0.625976562 0.642578125
vt 0.621582031 0.644042969
vt 0.623046875 0.639160156
vt 0.620117188 0.643066406
vt 0.617675781 0.649902344
vt 0.621582031 0.644042969
vt 0.620117188 0.643066406
vt 0.621582031 0.644042969
vt 0.617675781 0.649902344
vt 0.622070312 0.649902344
vt 0.619140625 0.656738281
vt 0.622070312 0.649902344
vt 0.617675781 0.649902344
vt 0.622070312 0.649902344
vt 0.619140625 0.656738281
vt 0.623535156 0.655273438
vt 0.623046875 0.661132812
vt 0.623535156 0.655273438
vt 0.619140625 0.656738281
vt 0.623535156 0.655273438
vt 0.623046875 0.661132812
vt 0.625976562 0.658203125
vt 0.623046875 0.661132812
vt 0.627929688 0.66015625
vt 0.625976562 0.658203125
vt 0.627929688 0.66015625
vt 0.623046875 0.661132812
vt 0.627441406 0.663574219
vt 0.627441406 0.663574219
vt 0.630859375 0.66015625
vt 0.627929688 0.66015625
vt 0.630859375 0.66015625
vt 0.627441406 0.663574219
vt 0.631835938 0.664550781
vt 0.634277344 0.661132812
vt 0.630859375 0.66015625
vt 0.631835938 0.664550781
vt 0.634277344 0.661132812
vt 0.632324219 0.656738281
vt 0.630859375 0.66015625
vt 0.632324219 0.656738281
vt 0.634277344 0.661132812
vt 0.635742188 0.656738281
vt 0.625976562 0.658203125
vt 0.627929688 0.653808594
vt 0.623535156 0.655273438
vt 0.627929688 0.66015625
vt 0.630859375 0.66015625
vt 0.629882812 0.658203125
vt 0.6328125 0.64453125
vt 0.62890625 0.637207031
vt 0.636230469 0.641601562
vt 0.62890625 0.637207031
vt 0.6328125 0.64453125
vt 0.627441406 0.640625
vt 0.640625 0.648925781
vt 0.6328125 0.64453125
vt 0.636230469 0.641601562
vt 0.6328125 0.64453125
vt 0.640625 0.648925781
vt 0.636230469 0.650878906
vt 0.621582031 0.63671875
vt 0.620117188 0.643066406
vt 0.616210938 0.641601562
vt 0.620117188 0.643066406
vt 0.621582031 0.63671875
vt 0.623046875 0.639160156
vt 0.62890625 0.637207031
vt 0.623046875 0.639160156
vt 0.621582031 0.63671875
vt 0.623046875 0.639160156
vt 0.62890625 0.637207031
vt 0.627441406 0.640625
vt 0.640136719 0.656738281
vt 0.636230469 0.650878906
vt 0.640625 0.648925781
vt 0.636230469 0.650878906
vt 0.640136719 0.656738281
vt 0.635742188 0.656738281
vt 0.637695312 0.663085938
vt 0.635742188 0.656738281
vt 0.640136719 0.656738281
vt 0.635742188 0.656738281
vt 0.637695312 0.663085938
vt 0.634277344 0.661132812
vt 0.617675781 0.649902344
vt 0.614746094 0.658691406
vt 0.61328125 0.649902344
vt 0.614746094 0.658691406
vt 0.617675781 0.649902344
vt 0.619140625 0.656738281
vt 0.616210938 0.641601562
vt 0.617675781 0.649902344
vt 0.61328125 0.649902344
vt 0.617675781 0.649902344
vt 0.616210938 0.641601562
vt 0.620117188 0.643066406
vt 0.619140625 0.656738281
vt 0.620117188 0.6640625
vt 0.614746094 0.658691406
vt 0.620117188 0.6640625
vt 0.619140625 0.656738281
vt 0.623046875 0.661132812
vt 0.623046875 0.661132812
vt 0.626464844 0.667480469
vt 0.620117188 0.6640625
vt 0.626464844 0.667480469
vt 0.623046875 0.661132812
vt 0.627441406 0.663574219
vt 0.627929688 0.653808594
vt 0.629394531 0.647460938
vt 0.631835938 0.65234375
vt 0.627929688 0.653808594
vt 0.632324219 0.656738281
vt 0.629882812 0.658203125
vt 0.632324219 0.656738281
vt 0.627929688 0.653808594
vt 0.631835938 0.65234375
vt 0.630859375 0.66015625
vt 0.629882812 0.658203125
vt 0.632324219 0.656738281
vt 0.621582031 0.644042969
vt 0.625976562 0.6484375
vt 0.622070312 0.649902344
vt 0.625976562 0.6484375
vt 0.621582031 0.644042969
vt 0.625976562 0.642578125
vt 0.622070312 0.649902344
vt 0.627929688 0.653808594
vt 0.623535156 0.655273438
vt 0.627929688 0.653808594
vt 0.622070312 0.649902344
vt 0.625976562 0.6484375
vt 0.635742188 0.656738281
vt 0.631835938 0.65234375
vt 0.636230469 0.650878906
vt 0.631835938 0.65234375
vt 0.635742188 0.656738281
vt 0.632324219 0.656738281
vt 0.636230469 0.650878906
vt 0.629394531 0.647460938
vt 0.6328125 0.64453125
vt 0.629394531 0.647460938
vt 0.636230469 0.650878906
vt 0.631835938 0.65234375
vt 0.627441406 0.640625
vt 0.629394531 0.647460938
vt 0.625976562 0.642578125
vt 0.629394531 0.647460938
vt 0.627441406 0.640625
vt 0.6328125 0.64453125
vt 0.623046875 0.639160156
vt 0.627441406 0.640625
vt 0.625976562 0.642578125
vt 0.623046875 0.639160156
vt 0.621582031 0.644042969
vt 0.620117188 0.643066406
vt 0.621582031 0.644042969
vt 0.623046875 0.639160156
vt 0.625976562 0.642578125
vt 0.617675781 0.649902344
vt 0.621582031 0.644042969
vt 0.622070312 0.649902344
vt 0.621582031 0.644042969
vt 0.617675781 0.649902344
vt 0.620117188 0.643066406
vt 0.619140625 0.656738281
vt 0.622070312 0.649902344
vt 0.623535156 0.655273438
vt 0.622070312 0.649902344
vt 0.619140625 0.656738281
vt 0.617675781 0.649902344
vt 0.623046875 0.661132812
vt 0.623535156 0.655273438
vt 0.625976562 0.658203125
vt 0.623535156 0.655273438
vt 0.623046875 0.661132812
vt 0.619140625 0.656738281
vt 0.623046875 0.661132812
vt 0.627929688 0.66015625
vt 0.627441406 0.663574219
vt 0.627929688 0.66015625
vt 0.623046875 0.661132812
vt 0.625976562 0.658203125
vt 0.627441406 0.663574219
vt 0.630859375 0.66015625
vt 0.631835938 0.664550781
vt 0.630859375 0.66015625
vt 0.627441406 0.663574219
vt 0.627929688 0.66015625
vt 0.634277344 0.661132812
vt 0.631835938 0.664550781
vt 0.630859375 0.66015625
vt 0.634277344 0.661132812
vt 0.632324219 0.656738281
vt 0.635742188 0.656738281
vt 0.632324219 0.656738281
vt 0.634277344 0.661132812
vt 0.630859375 0.66015625
vt 0.625976562 0.658203125
vt 0.623535156 0.655273438
vt 0.627929688 0.653808594
vt 0.627929688 0.66015625
vt 0.629882812 0.658203125
vt 0.630859375 0.66015625
vt 0.631835938 0.664550781
vt 0.637695312 0.663085938
vt 0.634277344 0.661132812
vt 0.633300781 0.668457031
vt 0.626464844 0.667480469
vt 0.631835938 0.664550781
vt 0.627441406 0.663574219
vt 0.633300781 0.668457031
vt 0.629394531 0.647460938
vt 0.627929688 0.653808594
vt 0.631835938 0.65234375
vt 0.625976562 0.6484375
vt 0.636230469 0.650878906
vt 0.629394531 0.647460938
vt 0.631835938 0.65234375
vt 0.6328125 0.64453125
vt 0.631835938 0.664550781
vt 0.637695312 0.663085938
vt 0.633300781 0.668457031
vt 0.634277344 0.661132812
vt 0.626464844 0.667480469
vt 0.631835938 0.664550781
vt 0.633300781 0.668457031
vt 0.627441406 0.663574219
vt 0.629394531 0.647460938
vt 0.625976562 0.6484375
vt 0.625976562 0.642578125
vt 0.627929688 0.653808594
vt 0.625976562 0.658203125
vt 0.629882812 0.658203125
vt 0.627929688 0.66015625
vt 0.627929688 0.653808594
vn 0.651818573 -0.603131413 -0.459744483
vn 0.651818573 -0.603131413 -0.459744513
vn 0.651818514 -0.603131473 -0.459744483
vn 0.585023701 -0.661390722 -0.469371557
vn 0.585023701 -0.661390722 -0.469371557
vn 0.585023701 -0.661390722 -0.469371527
vn 0.700731039 -0.704342544 -0.113479525
vn 0.700730979 -0.704342544 -0.113479525
vn 0.70073092 -0.704342604 -0.113479532
vn 0.715387523 -0.686289489 -0.131253421
vn 0.715387523 -0.686289489 -0.131253421
vn 0.715387523 -0.686289549 -0.131253421
vn -0.357435167 -0.606179237 -0.710483551
vn -0.357435167 -0.606179237 -0.710483551
vn -0.357435167 -0.606179297 -0.710483491
vn -0.381950438 -0.58554858 -0.715015233
vn -0.381950438 -0.58554852 -0.715015233
vn -0.381950438 -0.58554858 -0.715015233
vn 0.452908695 -0.599026859 -0.660333693
vn 0.452908695 -0.599026859 -0.660333693
vn 0.452908695 -0.599026859 -0.660333693
vn 0.42693311 -0.451420844 -0.783547878
vn 0.42693311 -0.451420844 -0.783547878
vn 0.42693311 -0.451420844 -0.783547878
vn 0.692744493 -0.644601941 0.323408872
vn 0.692744493 -0.64460206 0.323408872
vn 0.692744493 -0.644601941 0.323408872
vn 0.664888024 -0.6673733 0.335465074
vn 0.664888024 -0.6673733 0.335465074
vn 0.664888024 -0.667373359 0.335465103
vn 0.677984357 -0.546133697 0.492011487
vn 0.677984297 -0.546133637 0.492011517
vn 0.677984357 -0.546133637 0.492011487
vn 0.586954534 -0.627140462 0.512034297
vn 0.586954534 -0.627140462 0.512034297
vn 0.586954534 -0.627140462 0.512034297
vn -0.698633313 -0.705644429 -0.118225761
vn -0.698633313 -0.705644429 -0.118225761
vn -0.698633313 -0.705644429 -0.118225738
vn -0.713279366 -0.68756938 -0.135944828
vn -0.713279366 -0.68756938 -0.135944828
vn -0.713279426 -0.68756932 -0.135944843
vn -0.600938976 -0.651297331 -0.463340312
vn -0.600938976 -0.651297331 -0.463340312
vn -0.600938976 -0.651297331 -0.463340312
vn -0.589703262 -0.660476148 -0.464780897
vn -0.589703202 -0.660476148 -0.464780837
vn -0.589703262 -0.660476148 -0.464780837
vn -0.70063132 -0.63843447 0.318617344
vn -0.70063132 -0.63843447 0.318617344
vn -0.70063138 -0.63843447 0.318617374
vn -0.663366318 -0.669216692 0.334804595
vn -0.663366318 -0.669216692 0.334804565
vn -0.663366318 -0.669216692 0.334804595
vn -0.675054133 -0.545871794 0.496312261
vn -0.675054133 -0.545871794 0.496312261
vn -0.675054133 -0.545871854 0.49631229
vn -0.590268254 -0.621337473 0.515289426
vn -0.590268195 -0.621337473 0.515289426
vn -0.590268135 -0.621337473 0.515289426
vn 0.226113215 -0.940104485 -0.255100548
vn 0.226113215 -0.940104485 -0.255100548
vn 0.226113215 -0.940104485 -0.255100548
vn 0.202152491 -0.978947639 0.0282106102
vn 0.202152491 -0.978947639 0.0282106102
vn 0.202152491 -0.978947639 0.0282106083
vn 0.308925122 -0.949035704 -0.0624231696
vn 0.308925092 -0.949035704 -0.0624231696
vn 0.308925122 -0.949035704 -0.0624231696
vn 0.380276293 -0.890703022 0.249074534
vn 0.380276293 -0.890703022 0.249074534
vn 0.380276203 -0.890703022 0.249074534
vn -0.0910757408 -0.92820394 -0.360752851
vn -0.091075711 -0.92820394 -0.360752851
vn -0.0910757408 -0.92820394 -0.360752851
vn -0.185063705 -0.929837108 -0.318047822
vn -0.185063705 -0.929837108 -0.318047822
vn -0.185063705 -0.929837108 -0.318047822
vn -0.0293695629 -0.998025179 -0.0555260926
vn -0.0293695629 -0.998025179 -0.0555260926
vn -0.0293695629 -0.998025179 -0.0555260926
vn -0.135767311 -0.987748921 0.0769368187
vn -0.135767311 -0.987748921 0.0769368187
vn -0.135767311 -0.987748921 0.0769368187
vn -0.12072552 -0.992683113 -0.00237622787
vn -0.12072552 -0.992683113 -0.00237622787
vn -0.12072552 -0.992683113 -0.00237622787
vn -0.148419335 -0.986636221 0.0672368631
vn -0.148419335 -0.986636221 0.0672368631
vn -0.148419335 -0.986636221 0.0672368631
vn 0.568556368 -0.813118756 0.124826021
vn 0.568556488 -0.813118756 0.124826021
vn 0.568556368 -0.813118756 0.124826007
vn 0.438137859 -0.877476871 0.19511418
vn 0.438137859 -0.877476871 0.195114151
vn 0.438137859 -0.877476871 0.195114151
vn 0.389327139 -0.867678285 -0.309125692
vn 0.389327139 -0.867678404 -0.309125692
vn 0.389327139 -0.867678404 -0.309125692
vn 0.449177742 -0.842077613 -0.29857102
vn 0.449177712 -0.842077613 -0.29857102
vn 0.449177712 -0.842077613 -0.29857102
vn 0.321206868 -0.76153481 -0.562930703
vn 0.321206808 -0.761534691 -0.562930703
vn 0.321206808 -0.761534691 -0.562930703
vn -0.0905867442 -0.882564783 -0.461382002
vn -0.0905867442 -0.882564902 -0.461381972
vn -0.0905867442 -0.882564902 -0.461381972
vn -0.170379415 -0.844551623 -0.507644832
vn -0.170379445 -0.844551742 -0.507644892
vn -0.17037943 -0.844551742 -0.507644892
vn -0.390324444 -0.858983874 -0.331351042
vn -0.390324414 -0.858983874 -0.331351042
vn -0.390324414 -0.858983874 -0.331351042
vn -0.401054353 -0.849210441 -0.343506932
vn -0.401054293 -0.849210441 -0.343506932
vn -0.401054293 -0.849210441 -0.343506932
vn -0.593245268 -0.798003435 -0.106069081
vn -0.593245268 -0.798003376 -0.106069073
vn -0.593245268 -0.798003435 -0.106069081
vn -0.480585188 -0.872429073 0.0889127627
vn -0.480585188 -0.872429073 0.0889127627
vn -0.480585188 -0.872429073 0.0889127627
vn -0.4788737 -0.853751659 0.204420999
vn -0.4788737 -0.853751659 0.204421028
vn -0.4788737 -0.853751659 0.204421028
vn -0.610511303 -0.783549249 0.11544022
vn -0.610511303 -0.783549249 0.11544022
vn -0.610511243 -0.783549249 0.11544022
vn -0.538465083 -0.804439485 0.250863612
vn -0.538465083 -0.804439485 0.250863612
vn -0.538465142 -0.804439485 0.250863612
vn -0.527619362 -0.758067429 0.383342683
vn -0.527619362 -0.758067429 0.383342683
vn -0.527619362 -0.758067429 0.383342683
vn -0.244162455 -0.814992428 0.525520742
vn -0.24416247 -0.814992368 0.525520742
vn -0.244162455 -0.814992428 0.525520742
vn -0.309542745 -0.865427494 0.393977672
vn -0.309542745 -0.865427494 0.393977672
vn -0.309542745 -0.865427494 0.393977672
vn 0.407257706 -0.772857308 0.486654669
vn 0.407257766 -0.772857308 0.486654669
vn 0.407257766 -0.772857308 0.486654669
vn 0.509070635 -0.790492117 0.340542763
vn 0.509070635 -0.790492117 0.340542734
vn 0.509070635 -0.790491998 0.340542704
vn 0.484510779 -0.803482294 0.345927089
vn 0.48451075 -0.803482175 0.345927119
vn 0.48451075 -0.803482175 0.345927119
vn -0.142886013 -0.989390671 -0.0262629017
vn -0.142885998 -0.989390671 -0.0262628999
vn -0.142886013 -0.989390671 -0.0262628999
vn -0.0832429454 -0.952124894 0.294157773
vn -0.0832429454 -0.952124894 0.294157773
vn -0.0832429454 -0.952124894 0.294157773
vn 0.609708965 0.645772517 -0.459600776
vn 0.609708905 0.645772576 -0.459600866
vn 0.609708905 0.645772576 -0.459600866
vn 0.717476487 0.541185439 -0.438572556
vn 0.717476428 0.541185439 -0.438572496
vn 0.717476428 0.541185439 -0.438572496
vn 0.751682699 0.650002599 -0.111668333
vn 0.751682699 0.650002599 -0.111668333
vn 0.751682699 0.650002599 -0.111668326
vn 0.750640452 0.6514709 -0.110111319
vn 0.750640452 0.6514709 -0.110111319
vn 0.750640452 0.6514709 -0.110111319
vn -0.40585196 0.540653527 -0.736870348
vn -0.40585205 0.540653527 -0.736870289
vn -0.40585196 0.540653527 -0.736870348
vn -0.465876162 0.487540781 -0.738419592
vn -0.465876102 0.487540781 -0.738419592
vn -0.465876043 0.487540811 -0.738419473
vn 0.455579013 0.362879038 -0.812875509
vn 0.455578953 0.362879038 -0.812875509
vn 0.455579013 0.362879038 -0.81287545
vn 0.538327157 0.55694437 -0.632468879
vn 0.538327157 0.55694437 -0.632468879
vn 0.538327157 0.55694437 -0.632468879
vn 0.711683571 0.583909333 0.390584677
vn 0.711683631 0.583909333 0.390584618
vn 0.711683631 0.583909333 0.390584618
vn 0.729852021 0.568419576 0.379756808
vn 0.729851961 0.568419635 0.379756838
vn 0.729851961 0.568419635 0.379756749
vn 0.616941929 0.537786126 0.57460314
vn 0.616941929 0.537786067 0.57460314
vn 0.616941929 0.537786067 0.57460314
vn 0.683737874 0.478928685 0.550572217
vn 0.683737874 0.478928685 0.550572217
vn 0.683737874 0.478928685 0.550572217
vn -0.782286167 0.612564921 -0.113103591
vn -0.782286167 0.612564921 -0.113103613
vn -0.782286167 0.612564921 -0.113103613
vn -0.756176591 0.650547087 -0.0706071779
vn -0.756176591 0.650547087 -0.0706071928
vn -0.756176591 0.650547147 -0.0706071779
vn -0.636238933 0.605162799 -0.478516459
vn -0.636238933 0.60516274 -0.478516459
vn -0.636238933 0.605162799 -0.478516459
vn -0.653086364 0.590023339 -0.47471121
vn -0.653086364 0.590023398 -0.474711269
vn -0.653086364 0.590023398 -0.474711269
vn -0.7126652 0.582319915 0.391167223
vn -0.7126652 0.582319975 0.391167194
vn -0.7126652 0.582319975 0.391167223
vn -0.723584533 0.573090494 0.384698242
vn -0.723584533 0.573090434 0.384698242
vn -0.723584592 0.573090434 0.384698242
vn -0.614149868 0.54324609 0.572454035
vn -0.614149809 0.543246031 0.572454035
vn -0.614149868 0.54324609 0.572454035
vn -0.69324261 0.472421676 0.544272423
vn -0.69324261 0.472421676 0.544272423
vn -0.69324261 0.472421587 0.544272423
vn 0.183874041 0.982837081 -0.0148855736
vn 0.183874041 0.982837081 -0.0148855718
vn 0.183874071 0.982837081 -0.0148855746
vn 0.276952714 0.960547268 -0.0254202727
vn 0.276952714 0.960547268 -0.0254202709
vn 0.276952714 0.960547268 -0.0254202727
vn 0.185831755 0.98117125 0.0526258387
vn 0.18583177 0.98117125 0.0526258387
vn 0.18583177 0.98117125 0.0526258424
vn 0.357559562 0.885775805 0.295892596
vn 0.357559532 0.885775805 0.295892566
vn 0.357559532 0.885775805 0.295892566
vn -0.044664897 0.980412245 -0.191825151
vn -0.0446649007 0.980412245 -0.191825151
vn -0.044664897 0.980412245 -0.191825196
vn -0.0896067694 0.981042981 -0.171829313
vn -0.089606747 0.981042981 -0.171829283
vn -0.0896067619 0.981042981 -0.171829268
vn -0.157059878 0.970494509 0.182955116
vn -0.157059908 0.970494509 0.182955161
vn -0.157059908 0.970494509 0.182955161
vn 0.0367883705 0.997755349 -0.0559554398
vn 0.0367883667 0.997755349 -0.0559554286
vn 0.0367883667 0.997755349 -0.0559554286
vn 0.364439756 0.905637622 0.216804355
vn 0.364439756 0.905637622 0.2168044
vn 0.364439756 0.905637622 0.2168044
vn 0.52104646 0.842496276 0.136787042
vn 0.52104646 0.842496276 0.136787042
vn 0.52104646 0.842496276 0.136787042
vn 0.40486899 0.911851108 -0.0678871498
vn 0.40486899 0.911851108 -0.0678871498
vn 0.40486899 0.911851108 -0.0678871498
vn 0.365886688 0.930200517 -0.0292203296
vn 0.365886778 0.930200517 -0.0292203296
vn 0.365886688 0.930200517 -0.0292203296
vn 0.464962274 0.865842283 -0.184735805
vn 0.464962214 0.865842283 -0.184735835
vn 0.464962274 0.865842283 -0.184735849
vn 0.362936556 0.910794735 -0.196799442
vn 0.362936556 0.910794735 -0.196799427
vn 0.362936586 0.910794735 -0.196799412
vn 0.345721632 0.820699155 -0.454894871
vn 0.345721632 0.820699155 -0.454894871
vn 0.345721662 0.820699155 -0.4548949
vn -0.185370639 0.901694596 -0.390620738
vn -0.185370624 0.901694596 -0.390620738
vn -0.185370624 0.901694596 -0.390620738
vn -0.0902808234 0.940209985 -0.328412145
vn -0.0902808234 0.940209985 -0.328412145
vn -0.0902808309 0.940209985 -0.328412145
vn -0.314350605 0.918279588 -0.240720168
vn -0.314350605 0.918279588 -0.240720168
vn -0.314350605 0.918279707 -0.240720198
vn -0.338271976 0.902162671 -0.267721325
vn -0.338271946 0.902162671 -0.267721385
vn -0.338271976 0.902162671 -0.267721325
vn -0.37558648 0.908213794 0.184613988
vn -0.37558651 0.908213794 0.184614003
vn -0.37558648 0.908213794 0.184614018
vn -0.508786857 0.860548139 -0.0243455544
vn -0.508786857 0.860548139 -0.0243455544
vn -0.508786857 0.860548139 -0.0243455525
vn -0.546056449 0.827454984 0.130922377
vn -0.546056449 0.827454984 0.130922377
vn -0.54605639 0.827454984 0.130922362
vn -0.376681268 0.895758212 0.236068994
vn -0.376681268 0.895758212 0.236068994
vn -0.376681268 0.895758212 0.236068994
vn -0.502715051 0.757053018 0.417310804
vn -0.502714992 0.757053018 0.417310804
vn -0.502714992 0.757053018 0.417310804
vn -0.507883608 0.836371005 0.206246912
vn -0.507883668 0.836371005 0.206246912
vn -0.507883668 0.836371005 0.206246942
vn -0.287629187 0.857320189 0.426932663
vn -0.287629247 0.857320189 0.426932663
vn -0.287629247 0.857320189 0.426932663
vn -0.226784661 0.800244927 0.555136681
vn -0.226784661 0.800244927 0.555136681
vn -0.226784661 0.800244927 0.555136681
vn 0.396782249 0.760857761 0.513477802
vn 0.396782249 0.760857761 0.513477802
vn 0.396782249 0.760857761 0.513477802
vn 0.428024322 0.813473344 0.393771887
vn 0.428024262 0.813473344 0.393771857
vn 0.428024322 0.813473344 0.393771946
vn 0.486979276 0.78595984 0.380944014
vn 0.486979276 0.78595984 0.380943984
vn 0.486979276 0.78595984 0.380943984
vn -0.168399125 0.985422015 0.0241878945
vn -0.168399125 0.985422015 0.0241878945
vn -0.168399125 0.985422015 0.0241878964
vn -0.0726587027 0.9377321 0.339675248
vn -0.0726587027 0.9377321 0.339675248
vn -0.0726587027 0.9377321 0.339675248
vn 0.530331612 -0.566077352 0.631113946
vn 0.530331612 -0.566077352 0.631113946
vn 0.530331612 -0.566077352 0.631113946
vn 0.531107545 -0.567731619 0.628971756
vn -0.516051233 -0.570455849 0.638961017
vn -0.516051233 -0.570455909 0.638961017
vn -0.516051233 -0.570455909 0.638961077
vn -0.523502946 -0.586934686 0.617618203
vn 0.200480074 -0.978037238 -0.0570156649
vn 0.200480074 -0.978037238 -0.0570156649
vn 0.200480074 -0.978037238 -0.0570156649
vn 0.209283739 -0.976533234 -0.0508250408
vn 0.446847171 -0.891642392 -0.0728112757
vn 0.446847171 -0.891642392 -0.0728112757
vn 0.446847171 -0.891642392 -0.0728112906
vn 0.460184038 -0.883602202 -0.0864741057
vn 0.535803378 0.461565226 0.707016528
vn 0.535803378 0.461565226 0.707016528
vn 0.535803378 0.461565226 0.707016528
vn 0.548983991 0.487211436 0.67914772
vn -0.529132545 0.480290562 0.699528277
vn -0.529132545 0.480290502 0.699528217
vn -0.529132545 0.480290502 0.699528217
vn -0.532204032 0.486452997 0.692908585
vn 0.130073443 0.986611128 -0.0983838588
vn 0.130073428 0.986611128 -0.0983838588
vn 0.130073428 0.986611128 -0.0983838588
vn 0.12601839 0.9905442 -0.0542346351
vn -0.156391338 0.987083435 0.0347587764
vn -0.156391367 0.987083435 0.0347587839
vn -0.156391367 0.987083435 0.0347587839
vn -0.157128558 0.986900032 0.0365905054
g zuanshi_0
f 3/3/3 2/2/2 1/1/1
f 6/6/6 5/5/5 4/4/4
f 9/9/9 8/8/8 7/7/7
f 12/12/12 11/11/11 10/10/10
f 15/15/15 14/14/14 13/13/13
f 18/18/18 17/17/17 16/16/16
f 21/21/21 20/20/20 19/19/19
f 24/24/24 23/23/23 22/22/22
f 27/27/27 26/26/26 25/25/25
f 30/30/30 29/29/29 28/28/28
f 33/33/33 32/32/32 31/31/31
f 36/36/36 35/35/35 34/34/34
f 39/39/39 38/38/38 37/37/37
f 42/42/42 41/41/41 40/40/40
f 45/45/45 44/44/44 43/43/43
f 48/48/48 47/47/47 46/46/46
f 51/51/51 50/50/50 49/49/49
f 54/54/54 53/53/53 52/52/52
f 57/57/57 56/56/56 55/55/55
f 60/60/60 59/59/59 58/58/58
f 63/63/63 62/62/62 61/61/61
f 66/66/66 65/65/65 64/64/64
f 69/69/69 68/68/68 67/67/67
f 72/72/72 71/71/71 70/70/70
f 75/75/75 74/74/74 73/73/73
f 78/78/78 77/77/77 76/76/76
f 81/81/81 80/80/80 79/79/79
f 84/84/84 83/83/83 82/82/82
f 87/87/87 86/86/86 85/85/85
f 90/90/90 89/89/89 88/88/88
f 93/93/93 92/92/92 91/91/91
f 96/96/96 95/95/95 94/94/94
f 99/99/99 98/98/98 97/97/97
f 102/102/102 101/101/101 100/100/100
f 105/105/105 104/104/104 103/103/103
f 108/108/108 107/107/107 106/106/106
f 111/111/111 110/110/110 109/109/109
f 114/114/114 113/113/113 112/112/112
f 117/117/117 116/116/116 115/115/115
f 120/120/120 119/119/119 118/118/118
f 123/123/123 122/122/122 121/121/121
f 126/126/126 125/125/125 124/124/124
f 129/129/129 128/128/128 127/127/127
f 132/132/132 131/131/131 130/130/130
f 135/135/135 134/134/134 133/133/133
f 138/138/138 137/137/137 136/136/136
f 141/141/141 140/140/140 139/139/139
f 144/144/144 143/143/143 142/142/142
f 147/147/147 146/146/146 145/145/145
f 150/150/150 149/149/149 148/148/148
f 153/153/153 152/152/152 151/151/151
f 156/156/156 155/155/155 154/154/154
f 159/159/159 158/158/158 157/157/157
f 162/162/162 161/161/161 160/160/160
f 165/165/165 164/164/164 163/163/163
f 168/168/168 167/167/167 166/166/166
f 171/171/171 170/170/170 169/169/169
f 174/174/174 173/173/173 172/172/172
f 177/177/177 176/176/176 175/175/175
f 180/180/180 179/179/179 178/178/178
f 183/183/183 182/182/182 181/181/181
f 186/186/186 185/185/185 184/184/184
f 189/189/189 188/188/188 187/187/187
f 192/192/192 191/191/191 190/190/190
f 195/195/195 194/194/194 193/193/193
f 198/198/198 197/197/197 196/196/196
f 201/201/201 200/200/200 199/199/199
f 204/204/204 203/203/203 202/202/202
f 207/207/207 206/206/206 205/205/205
f 210/210/210 209/209/209 208/208/208
f 213/213/213 212/212/212 211/211/211
f 216/216/216 215/215/215 214/214/214
f 219/219/219 218/218/218 217/217/217
f 222/222/222 221/221/221 220/220/220
f 225/225/225 224/224/224 223/223/223
f 228/228/228 227/227/227 226/226/226
f 231/231/231 230/230/230 229/229/229
f 234/234/234 233/233/233 232/232/232
f 237/237/237 236/236/236 235/235/235
f 240/240/240 239/239/239 238/238/238
f 243/243/243 242/242/242 241/241/241
f 246/246/246 245/245/245 244/244/244
f 249/249/249 248/248/248 247/247/247
f 252/252/252 251/251/251 250/250/250
f 255/255/255 254/254/254 253/253/253
f 258/258/258 257/257/257 256/256/256
f 261/261/261 260/260/260 259/259/259
f 264/264/264 263/263/263 262/262/262
f 267/267/267 266/266/266 265/265/265
f 270/270/270 269/269/269 268/268/268
f 273/273/273 272/272/272 271/271/271
f 276/276/276 275/275/275 274/274/274
f 279/279/279 278/278/278 277/277/277
f 282/282/282 281/281/281 280/280/280
f 285/285/285 284/284/284 283/283/283
f 288/288/288 287/287/287 286/286/286
f 291/291/291 290/290/290 289/289/289
f 294/294/294 293/293/293 292/292/292
f 297/297/297 296/296/296 295/295/295
f 300/300/300 299/299/299 298/298/298
f 303/303/303 302/302/302 301/301/301
f 306/306/306 305/305/305 304/304/304
f 309/309/309 308/308/308 307/307/307
f 312/312/312 311/311/311 310/310/310
f 315/315/315 314/314/314 313/313/313
f 316/316/316 313/313/313 314/314/314
f 319/319/319 318/318/318 317/317/317
f 320/320/320 317/317/317 318/318/318
f 323/323/323 322/322/322 321/321/321
f 324/324/324 321/321/321 322/322/322
f 327/327/327 326/326/326 325/325/325
f 328/328/328 325/325/325 326/326/326
f 331/331/331 330/330/330 329/329/329
f 332/332/332 329/329/329 330/330/330
f 335/335/335 334/334/334 333/333/333
f 336/336/336 333/333/333 334/334/334
f 339/339/339 338/338/338 337/337/337
f 338/338/338 340/340/340 337/337/337
f 343/343/343 342/342/342 341/341/341
f 344/344/344 341/341/341 342/342/342
