g jiemao
v -0.0261317249 -0.0992098227 2.01075196
v -0.0330324061 -0.0997345895 2.00687408
v -0.0331930779 -0.0984232426 2.00963879
v -0.0400008336 -0.0973894373 2.00931478
v -0.0402436256 -0.0998389199 2.00559616
v -0.046401944 -0.0978635475 2.00836444
v -0.0469865203 -0.0981387571 2.00562215
v -0.0457053035 -0.0951173976 2.0100441
v -0.052053079 -0.0958869904 2.00635362
v -0.0512996279 -0.0963536426 2.00960851
v -0.0486457944 -0.093148753 2.01160097
v -0.0509651713 -0.0909791365 2.01341867
v -0.0548202805 -0.0939835235 2.01122332
v -0.0575883389 -0.0935415924 2.00860691
v -0.0531604514 -0.0882220715 2.01610661
v -0.0583371148 -0.0911085382 2.01498079
v -0.0636275113 -0.088567704 2.01354194
v -0.0547115617 -0.0875167921 2.01951766
v -0.061358843 -0.0880778953 2.01948786
v -0.067318216 -0.0843302235 2.02012396
v -0.0552296154 -0.0869528651 2.02124405
v -0.0630173013 -0.0865891725 2.02343583
v -0.0699942559 -0.0800609961 2.02787995
v -0.0634565502 -0.0917890221 2.02989292
v -0.0576045029 -0.0929870382 2.02431417
v -0.0527305789 -0.0915288255 2.02206635
v -0.0579316691 -0.0984551907 2.03109574
v -0.0531820245 -0.096953541 2.02477193
v -0.0497107916 -0.0946104527 2.02265596
v -0.0523882098 -0.102747336 2.03139758
v -0.0483418219 -0.100041218 2.02480435
v -0.0457985923 -0.0974649489 2.02294064
v -0.0455432497 -0.10520561 2.03062749
v -0.0424875244 -0.102313764 2.02420378
v -0.040361803 -0.0999081954 2.02232027
v -0.0370776318 -0.105927035 2.02889347
v -0.0356085263 -0.102725171 2.02233648
v -0.0344655849 -0.100157268 2.02052283
v -0.0300752725 -0.104120225 2.02520895
v -0.031307824 -0.102162845 2.0206697
v -0.0313860923 -0.100067034 2.01895881
v -0.0249672867 -0.102483079 2.02142859
v -0.0270323418 -0.101104632 2.01800299
v -0.0276002921 -0.099102594 2.01685476
v -0.0218606777 -0.100279815 2.01690841
v -0.0238333624 -0.0992174298 2.01522064
v -0.0243266597 -0.0976939276 2.01476121
v -0.0212412328 -0.0970147774 2.01168919
v -0.0209423918 -0.097894676 2.01191258
v -0.0201646797 -0.0983469263 2.01258874
v -0.0196343288 -0.09658207 2.00911903
v 0.0261317249 -0.0992098227 2.01075196
v 0.0331930779 -0.0984232426 2.00963879
v 0.0330324061 -0.0997345895 2.00687408
v 0.0400008336 -0.0973894373 2.00931478
v 0.0402436256 -0.0998389199 2.00559616
v 0.046401944 -0.0978635475 2.00836444
v 0.0469865203 -0.0981387571 2.00562215
v 0.0457053035 -0.0951173976 2.0100441
v 0.052053079 -0.0958869904 2.00635362
v 0.0512996279 -0.0963536426 2.00960851
v 0.0486457944 -0.093148753 2.01160097
v 0.0509651713 -0.0909791365 2.01341867
v 0.0548202805 -0.0939835235 2.01122332
v 0.0575883389 -0.0935415924 2.00860691
v 0.0531604514 -0.0882220715 2.01610661
v 0.0583371148 -0.0911085382 2.01498079
v 0.0636275113 -0.088567704 2.01354194
v 0.0547115617 -0.0875167921 2.01951766
v 0.061358843 -0.0880778953 2.01948786
v 0.067318216 -0.0843302235 2.02012396
v 0.0552296154 -0.0869528651 2.02124405
v 0.0630173013 -0.0865891725 2.02343583
v 0.0699942559 -0.0800609961 2.02787995
v 0.0634565502 -0.0917890221 2.02989292
v 0.0576045029 -0.0929870382 2.02431417
v 0.0527305789 -0.0915288255 2.02206635
v 0.0579316691 -0.0984551907 2.03109574
v 0.0531820245 -0.096953541 2.02477193
v 0.0497107916 -0.0946104527 2.02265596
v 0.0523882098 -0.102747336 2.03139758
v 0.0483418219 -0.100041218 2.02480435
v 0.0457985923 -0.0974649489 2.02294064
v 0.0455432497 -0.10520561 2.03062749
v 0.0424875244 -0.102313764 2.02420378
v 0.040361803 -0.0999081954 2.02232027
v 0.0370776318 -0.105927035 2.02889347
v 0.0356085263 -0.102725171 2.02233648
v 0.0344655849 -0.100157268 2.02052283
v 0.0300752725 -0.104120225 2.02520895
v 0.031307824 -0.102162845 2.0206697
v 0.0313860923 -0.100067034 2.01895881
v 0.0249672867 -0.102483079 2.02142859
v 0.0270323418 -0.101104632 2.01800299
v 0.0276002921 -0.099102594 2.01685476
v 0.0218606777 -0.100279815 2.01690841
v 0.0238333624 -0.0992174298 2.01522064
v 0.0243266597 -0.0976939276 2.01476121
v 0.0212412328 -0.0970147774 2.01168919
v 0.0209423918 -0.097894676 2.01191258
v 0.0201646797 -0.0983469263 2.01258874
v 0.0196343288 -0.09658207 2.00911903
v 0.043755956 -0.0980457738 2.01931763
v 0.0447907485 -0.0980241001 2.01865935
v 0.0435736701 -0.0980495885 2.01900554
v 0.0440375805 -0.0980398729 2.01956534
v 0.0435114466 -0.0980508998 2.01865935
v 0.0443945155 -0.0980324075 2.01972413
v 0.0435736701 -0.0980495885 2.01831365
v 0.0447907485 -0.0980241001 2.01977897
v 0.043755956 -0.0980457738 2.01800156
v 0.0451858938 -0.0980158225 2.01972413
v 0.0440375805 -0.0980398729 2.0177536
v 0.045542825 -0.0980083421 2.01956534
v 0.0443945155 -0.0980324075 2.01759481
v 0.0458255485 -0.0980024114 2.01931763
v 0.0447907485 -0.0980241001 2.01753998
v 0.0460078269 -0.0979985967 2.01900554
v 0.0451858938 -0.0980158225 2.01759481
v 0.0460700504 -0.0979973003 2.01865935
v 0.045542825 -0.0980083421 2.0177536
v 0.0460078269 -0.0979985967 2.01831365
v 0.0458255485 -0.0980024114 2.01800156
v -0.0344495662 -0.0996839404 2.01866722
v -0.0334147848 -0.0996622667 2.01800919
v -0.0346318632 -0.0996877626 2.01835513
v -0.0341668613 -0.0996780172 2.01891494
v -0.0346940868 -0.0996890515 2.01800919
v -0.0338099264 -0.0996705517 2.01907396
v -0.0346318632 -0.0996877626 2.01766324
v -0.0334147848 -0.0996622667 2.01912856
v -0.0344495662 -0.0996839404 2.01735139
v -0.0330196396 -0.0996539965 2.01907396
v -0.0341668613 -0.0996780172 2.01710343
v -0.0326627009 -0.0996465161 2.01891494
v -0.0338099264 -0.0996705517 2.01694465
v -0.0323799849 -0.0996405855 2.01866722
v -0.0334147848 -0.0996622667 2.01688981
v -0.032197699 -0.0996367708 2.01835513
v -0.0330196396 -0.0996539965 2.01694465
v -0.0321354754 -0.0996354744 2.01800919
v -0.0326627009 -0.0996465161 2.01710343
v -0.032197699 -0.0996367708 2.01766324
v -0.0323799849 -0.0996405855 2.01735139
vt 0.488922685 0.0339974575
vt 0.484053344 0.0246919505
vt 0.481389582 0.0279821139
vt 0.473472774 0.022788927
vt 0.477023691 0.017732922
vt 0.467287421 0.0164062735
vt 0.468806744 0.0128512084
vt 0.46494478 0.0206099488
vt 0.461856633 0.00993154198
vt 0.46022439 0.0145174796
vt 0.459417611 0.0207841173
vt 0.454378814 0.0212484244
vt 0.454423308 0.0134713575
vt 0.453544587 0.00825051311
vt 0.44841525 0.0228110738
vt 0.446229309 0.0145038785
vt 0.440992832 0.00797442533
vt 0.443714291 0.0236687977
vt 0.43761006 0.0166718587
vt 0.429466337 0.0106864199
vt 0.441743702 0.0246656369
vt 0.431422412 0.0201310497
vt 0.417686254 0.0143749276
vt 0.42376247 0.0312542543
vt 0.435258746 0.0318192206
vt 0.442689866 0.0317235924
vt 0.428711444 0.0423844233
vt 0.439346671 0.0391390398
vt 0.445342332 0.0370850153
vt 0.43447417 0.050269749
vt 0.444577068 0.0451825038
vt 0.449455529 0.0425244272
vt 0.44257772 0.0562628657
vt 0.451509774 0.0505727306
vt 0.455984652 0.0479890965
vt 0.453371763 0.0613287948
vt 0.460807353 0.0541211963
vt 0.464251459 0.0508715324
vt 0.464476198 0.0622214153
vt 0.467182606 0.0555713959
vt 0.469086021 0.0522120744
vt 0.472705901 0.0619783476
vt 0.473578334 0.056104783
vt 0.474329412 0.0534584709
vt 0.479145229 0.0595669039
vt 0.478664219 0.0556650497
vt 0.478742272 0.0541666448
vt 0.482566178 0.0543269925
vt 0.482593417 0.0551564656
vt 0.483186632 0.0570567362
vt 0.487655312 0.0544639826
vt 0.488922685 0.0339974575
vt 0.481389582 0.0279821139
vt 0.484053344 0.0246919505
vt 0.473472774 0.022788927
vt 0.477023691 0.017732922
vt 0.467287421 0.0164062735
vt 0.468806744 0.0128512084
vt 0.46494478 0.0206099488
vt 0.461856633 0.00993154198
vt 0.46022439 0.0145174796
vt 0.459417611 0.0207841173
vt 0.454378814 0.0212484244
vt 0.454423308 0.0134713575
vt 0.453544587 0.00825051311
vt 0.44841525 0.0228110738
vt 0.446229309 0.0145038785
vt 0.440992832 0.00797442533
vt 0.443714291 0.0236687977
vt 0.43761006 0.0166718587
vt 0.429466337 0.0106864199
vt 0.441743702 0.0246656369
vt 0.431422412 0.0201310497
vt 0.417686254 0.0143749276
vt 0.42376247 0.0312542543
vt 0.435258746 0.0318192206
vt 0.442689866 0.0317235924
vt 0.428711444 0.0423844233
vt 0.439346671 0.0391390398
vt 0.445342332 0.0370850153
vt 0.43447417 0.050269749
vt 0.444577068 0.0451825038
vt 0.449455529 0.0425244272
vt 0.44257772 0.0562628657
vt 0.451509774 0.0505727306
vt 0.455984652 0.0479890965
vt 0.453371763 0.0613287948
vt 0.460807353 0.0541211963
vt 0.464251459 0.0508715324
vt 0.464476198 0.0622214153
vt 0.467182606 0.0555713959
vt 0.469086021 0.0522120744
vt 0.472705901 0.0619783476
vt 0.473578334 0.056104783
vt 0.474329412 0.0534584709
vt 0.479145229 0.0595669039
vt 0.478664219 0.0556650497
vt 0.478742272 0.0541666448
vt 0.482566178 0.0543269925
vt 0.482593417 0.0551564656
vt 0.483186632 0.0570567362
vt 0.487655312 0.0544639826
vt 0.598038018 0.024478646
vt 0.607758045 0.017543992
vt 0.596330941 0.0213990714
vt 0.600695431 0.0269217975
vt 0.595743656 0.0179858636
vt 0.604044974 0.0284912903
vt 0.596330941 0.0145719871
vt 0.607758045 0.0290321615
vt 0.598038018 0.0114924107
vt 0.611470342 0.0284912903
vt 0.600695431 0.00904925913
vt 0.614819825 0.0269217975
vt 0.604044974 0.00747976266
vt 0.617477119 0.024478646
vt 0.607758045 0.00693965051
vt 0.619184017 0.0213990714
vt 0.611470342 0.00747976266
vt 0.619772375 0.0179858636
vt 0.614819825 0.00904925913
vt 0.619184017 0.0145719871
vt 0.617477119 0.0114924107
vt 0.598038018 0.024478646
vt 0.607758045 0.017543992
vt 0.596330941 0.0213990714
vt 0.600695431 0.0269217975
vt 0.595743656 0.0179858636
vt 0.604044974 0.0284912903
vt 0.596330941 0.0145719871
vt 0.607758045 0.0290321615
vt 0.598038018 0.0114924107
vt 0.611470342 0.0284912903
vt 0.600695431 0.00904925913
vt 0.614819825 0.0269217975
vt 0.604044974 0.00747976266
vt 0.617477119 0.024478646
vt 0.607758045 0.00693965051
vt 0.619184017 0.0213990714
vt 0.611470342 0.00747976266
vt 0.619772375 0.0179858636
vt 0.614819825 0.00904925913
vt 0.619184017 0.0145719871
vt 0.617477119 0.0114924107
vn -0.165076762 -0.894792855 0.414843887
vn -0.145066157 -0.883507788 0.445387155
vn -0.160422429 -0.895383716 0.415394694
vn -0.0701379031 -0.802963972 0.591886461
vn -0.0832061321 -0.861114204 0.501556635
vn -0.169898018 -0.835481465 0.522594869
vn -0.315639704 -0.93509829 0.161129087
vn -0.00362213305 -0.529431343 0.848345041
vn -0.400012434 -0.915286005 0.0473466069
vn -0.251107126 -0.865665436 0.433091938
vn 0.0779095888 -0.572086513 0.81648463
vn 0.065640375 -0.623963714 0.77869159
vn -0.200766116 -0.840944409 0.502499223
vn -0.390991539 -0.888655066 0.239620268
vn 0.28021735 -0.775324285 0.565995097
vn -0.155806094 -0.871793866 0.464435101
vn -0.481055766 -0.838236034 0.256798863
vn 0.179504752 -0.889831305 0.419497758
vn -0.243683666 -0.908006012 0.34079808
vn -0.547147155 -0.811143517 0.206582114
vn -0.146693259 -0.91578722 -0.373918295
vn -0.575728834 -0.786732614 -0.222683683
vn -0.722296059 -0.677533209 -0.138697714
vn -0.655099273 -0.568176925 -0.498016
vn -0.456226438 -0.514225125 -0.726243734
vn -0.286244214 -0.37785089 -0.880507231
vn -0.544012547 -0.648080409 -0.532955945
vn -0.393781394 -0.56680274 -0.723651111
vn -0.249591157 -0.411993593 -0.876336336
vn -0.423913062 -0.726864696 -0.540338218
vn -0.330929935 -0.607487261 -0.722111225
vn -0.247944012 -0.406428814 -0.879397154
vn -0.286131859 -0.812517047 -0.507882357
vn -0.263837695 -0.678581595 -0.685504735
vn -0.271865457 -0.439248025 -0.856241882
vn -0.120843604 -0.879639089 -0.460034668
vn -0.172267258 -0.73143363 -0.659794629
vn -0.287952006 -0.504512727 -0.813972116
vn -0.00735284435 -0.912363648 -0.409314632
vn -0.160013065 -0.792767107 -0.588146329
vn -0.321632564 -0.594696581 -0.736809731
vn 0.022387024 -0.9200176 -0.39123717
vn -0.141288906 -0.781348825 -0.607890904
vn -0.333467543 -0.519264817 -0.786869347
vn -0.0183387157 -0.881092072 -0.472589016
vn -0.271399349 -0.684525967 -0.676584482
vn -0.506098866 -0.395141214 -0.766633749
vn -0.689296842 -0.391415477 -0.609642386
vn -0.398545325 -0.709056437 -0.581722021
vn -0.1212672 -0.883874416 -0.451730311
vn -0.480487198 -0.685462534 -0.547058761
vn 0.165076762 -0.894792855 0.414843887
vn 0.160422429 -0.895383716 0.415394694
vn 0.145066157 -0.883507788 0.445387155
vn 0.0701379031 -0.802963972 0.591886461
vn 0.0832061321 -0.861114204 0.501556635
vn 0.169898018 -0.835481465 0.522594869
vn 0.315639704 -0.93509829 0.161129087
vn 0.00362213305 -0.529431343 0.848345041
vn 0.400012493 -0.915286005 0.0473466106
vn 0.251107126 -0.865665436 0.433091938
vn -0.0779095888 -0.572086513 0.81648463
vn -0.065640375 -0.623963594 0.77869159
vn 0.200766101 -0.840944409 0.502499163
vn 0.390991539 -0.888655066 0.239620268
vn -0.28021735 -0.775324285 0.565995097
vn 0.155806094 -0.871793866 0.464435101
vn 0.481055766 -0.838236034 0.256798863
vn -0.179504752 -0.889831305 0.419497758
vn 0.243683666 -0.908006012 0.34079808
vn 0.547147155 -0.811143517 0.206582114
vn 0.146693289 -0.91578722 -0.373918355
vn 0.575728834 -0.786732614 -0.222683683
vn 0.722296059 -0.677533209 -0.138697714
vn 0.655099273 -0.568176925 -0.498016
vn 0.456226438 -0.514225125 -0.726243734
vn 0.286244214 -0.37785089 -0.880507231
vn 0.544012547 -0.648080409 -0.532955945
vn 0.393781394 -0.56680274 -0.723651111
vn 0.249591157 -0.411993593 -0.876336336
vn 0.423913062 -0.726864696 -0.540338218
vn 0.330929935 -0.607487261 -0.722111225
vn 0.247944012 -0.406428844 -0.879397154
vn 0.286131859 -0.812517047 -0.507882416
vn 0.263837725 -0.678581536 -0.685504794
vn 0.271865457 -0.439248025 -0.856241882
vn 0.120843604 -0.879639089 -0.460034668
vn 0.172267258 -0.73143363 -0.659794629
vn 0.287952006 -0.504512727 -0.813972116
vn 0.00735284435 -0.912363648 -0.409314632
vn 0.160013065 -0.792767048 -0.588146448
vn 0.321632564 -0.594696581 -0.736809731
vn -0.022387024 -0.9200176 -0.39123717
vn 0.141288906 -0.781348825 -0.607890964
vn 0.333467543 -0.519264817 -0.786869347
vn 0.0183387157 -0.881092072 -0.472589076
vn 0.271399349 -0.684525967 -0.676584482
vn 0.506098866 -0.395141214 -0.766633749
vn 0.689296842 -0.391415387 -0.609642386
vn 0.398545325 -0.709056437 -0.581722021
vn 0.1212672 -0.883874416 -0.451730311
vn 0.480487287 -0.685462415 -0.547058702
vn 0.0209429879 -0.999780715 -8.95590176E-07
vn 0.0209449399 -0.999780595 0
vn 0.0209405459 -0.999780715 5.20830383E-07
vn 0.0209367406 -0.999780834 -1.55643727E-06
vn 0.0209429674 -0.999780715 0
vn 0.0209395401 -0.999780715 -7.28227133E-06
vn 0.0209405441 -0.999780715 -5.16959688E-07
vn 0.0209517423 -0.999780476 0
vn 0.0209429879 -0.999780715 8.99081499E-07
vn 0.0209435672 -0.999780715 3.04534723E-07
vn 0.020936735 -0.999780834 1.56235012E-06
vn 0.0209537409 -0.999780476 -8.48923355E-06
vn 0.0209395401 -0.999780715 7.28199666E-06
vn 0.0209528878 -0.999780476 -3.46392142E-07
vn 0.0209517423 -0.999780476 0
vn 0.0209436901 -0.999780715 1.57001523E-05
vn 0.0209435653 -0.999780715 -3.04739416E-07
vn 0.0209429637 -0.999780715 0
vn 0.0209537353 -0.999780476 8.48133095E-06
vn 0.0209436901 -0.999780715 -1.56980022E-05
vn 0.0209528841 -0.999780476 3.41072081E-07
vn 0.0209482387 -0.999780595 6.98506619E-06
vn 0.0209394805 -0.999780715 0
vn 0.0209471807 -0.999780595 -3.83392535E-06
vn 0.0209346246 -0.999780834 -7.56063446E-06
vn 0.0209429637 -0.999780715 0
vn 0.0209448934 -0.999780595 -8.81319102E-06
vn 0.0209471844 -0.999780595 3.82698772E-06
vn 0.0209444482 -0.999780715 0
vn 0.0209482387 -0.999780595 -6.98681788E-06
vn 0.0209302884 -0.999780953 -3.72236013E-06
vn 0.0209346153 -0.999780834 7.56201189E-06
vn 0.0209386572 -0.999780834 -6.53866937E-06
vn 0.0209448915 -0.999780595 8.81307096E-06
vn 0.0209342428 -0.999780834 0
vn 0.0209444501 -0.999780715 0
vn 0.0209333133 -0.999780834 -3.05775961E-06
vn 0.0209302902 -0.999780953 3.72221712E-06
vn 0.0209353976 -0.999780834 0
vn 0.0209386572 -0.999780834 6.53643065E-06
vn 0.0209333114 -0.999780834 3.05447361E-06
vn 0.0209342409 -0.999780834 0
g jiemao_0
f 3/3/3 2/2/2 1/1/1
f 3/3/3 4/4/4 2/2/2
f 5/5/5 2/2/2 4/4/4
f 5/5/5 4/4/4 6/6/6
f 6/6/6 7/7/7 5/5/5
f 8/8/8 6/6/6 4/4/4
f 7/7/7 6/6/6 9/9/9
f 6/6/6 8/8/8 10/10/10
f 10/10/10 9/9/9 6/6/6
f 11/11/11 10/10/10 8/8/8
f 11/11/11 12/12/12 10/10/10
f 10/10/10 13/13/13 9/9/9
f 13/13/13 10/10/10 12/12/12
f 14/14/14 9/9/9 13/13/13
f 12/12/12 15/15/15 13/13/13
f 13/13/13 16/16/16 14/14/14
f 16/16/16 13/13/13 15/15/15
f 17/17/17 14/14/14 16/16/16
f 15/15/15 18/18/18 16/16/16
f 16/16/16 19/19/19 17/17/17
f 19/19/19 16/16/16 18/18/18
f 20/20/20 17/17/17 19/19/19
f 18/18/18 21/21/21 19/19/19
f 19/19/19 22/22/22 20/20/20
f 22/22/22 19/19/19 21/21/21
f 23/23/23 20/20/20 22/22/22
f 23/23/23 22/22/22 24/24/24
f 22/22/22 21/21/21 25/25/25
f 25/25/25 24/24/24 22/22/22
f 26/26/26 25/25/25 21/21/21
f 24/24/24 25/25/25 27/27/27
f 25/25/25 26/26/26 28/28/28
f 28/28/28 27/27/27 25/25/25
f 29/29/29 28/28/28 26/26/26
f 27/27/27 28/28/28 30/30/30
f 28/28/28 29/29/29 31/31/31
f 31/31/31 30/30/30 28/28/28
f 32/32/32 31/31/31 29/29/29
f 30/30/30 31/31/31 33/33/33
f 31/31/31 32/32/32 34/34/34
f 34/34/34 33/33/33 31/31/31
f 35/35/35 34/34/34 32/32/32
f 33/33/33 34/34/34 36/36/36
f 34/34/34 35/35/35 37/37/37
f 37/37/37 36/36/36 34/34/34
f 38/38/38 37/37/37 35/35/35
f 36/36/36 37/37/37 39/39/39
f 37/37/37 38/38/38 40/40/40
f 40/40/40 39/39/39 37/37/37
f 41/41/41 40/40/40 38/38/38
f 39/39/39 40/40/40 42/42/42
f 40/40/40 41/41/41 43/43/43
f 43/43/43 42/42/42 40/40/40
f 44/44/44 43/43/43 41/41/41
f 42/42/42 43/43/43 45/45/45
f 43/43/43 44/44/44 46/46/46
f 46/46/46 45/45/45 43/43/43
f 47/47/47 46/46/46 44/44/44
f 47/47/47 48/48/48 46/46/46
f 46/46/46 49/49/49 45/45/45
f 49/49/49 46/46/46 48/48/48
f 50/50/50 45/45/45 49/49/49
f 51/51/51 49/49/49 48/48/48
f 51/51/51 50/50/50 49/49/49
f 54/54/54 53/53/53 52/52/52
f 53/53/53 54/54/54 55/55/55
f 56/56/56 55/55/55 54/54/54
f 56/56/56 57/57/57 55/55/55
f 58/58/58 57/57/57 56/56/56
f 59/59/59 55/55/55 57/57/57
f 58/58/58 60/60/60 57/57/57
f 57/57/57 61/61/61 59/59/59
f 61/61/61 57/57/57 60/60/60
f 62/62/62 59/59/59 61/61/61
f 62/62/62 61/61/61 63/63/63
f 61/61/61 60/60/60 64/64/64
f 64/64/64 63/63/63 61/61/61
f 65/65/65 64/64/64 60/60/60
f 63/63/63 64/64/64 66/66/66
f 64/64/64 65/65/65 67/67/67
f 67/67/67 66/66/66 64/64/64
f 68/68/68 67/67/67 65/65/65
f 66/66/66 67/67/67 69/69/69
f 67/67/67 68/68/68 70/70/70
f 70/70/70 69/69/69 67/67/67
f 71/71/71 70/70/70 68/68/68
f 69/69/69 70/70/70 72/72/72
f 70/70/70 71/71/71 73/73/73
f 73/73/73 72/72/72 70/70/70
f 74/74/74 73/73/73 71/71/71
f 74/74/74 75/75/75 73/73/73
f 73/73/73 76/76/76 72/72/72
f 76/76/76 73/73/73 75/75/75
f 77/77/77 72/72/72 76/76/76
f 75/75/75 78/78/78 76/76/76
f 76/76/76 79/79/79 77/77/77
f 79/79/79 76/76/76 78/78/78
f 80/80/80 77/77/77 79/79/79
f 78/78/78 81/81/81 79/79/79
f 79/79/79 82/82/82 80/80/80
f 82/82/82 79/79/79 81/81/81
f 83/83/83 80/80/80 82/82/82
f 81/81/81 84/84/84 82/82/82
f 82/82/82 85/85/85 83/83/83
f 85/85/85 82/82/82 84/84/84
f 86/86/86 83/83/83 85/85/85
f 84/84/84 87/87/87 85/85/85
f 85/85/85 88/88/88 86/86/86
f 88/88/88 85/85/85 87/87/87
f 89/89/89 86/86/86 88/88/88
f 87/87/87 90/90/90 88/88/88
f 88/88/88 91/91/91 89/89/89
f 91/91/91 88/88/88 90/90/90
f 92/92/92 89/89/89 91/91/91
f 90/90/90 93/93/93 91/91/91
f 91/91/91 94/94/94 92/92/92
f 94/94/94 91/91/91 93/93/93
f 95/95/95 92/92/92 94/94/94
f 93/93/93 96/96/96 94/94/94
f 94/94/94 97/97/97 95/95/95
f 97/97/97 94/94/94 96/96/96
f 98/98/98 95/95/95 97/97/97
f 98/98/98 97/97/97 99/99/99
f 97/97/97 96/96/96 100/100/100
f 100/100/100 99/99/99 97/97/97
f 101/101/101 100/100/100 96/96/96
f 100/100/100 102/102/102 99/99/99
f 101/101/101 102/102/102 100/100/100
f 105/105/105 104/104/104 103/103/103
f 103/103/103 104/104/104 106/106/106
f 107/107/107 104/104/104 105/105/105
f 106/106/106 104/104/104 108/108/108
f 109/109/109 104/104/104 107/107/107
f 108/108/108 104/104/104 110/110/110
f 111/111/111 104/104/104 109/109/109
f 110/110/110 104/104/104 112/112/112
f 113/113/113 104/104/104 111/111/111
f 112/112/112 104/104/104 114/114/114
f 115/115/115 104/104/104 113/113/113
f 114/114/114 104/104/104 116/116/116
f 117/117/117 104/104/104 115/115/115
f 116/116/116 104/104/104 118/118/118
f 119/119/119 104/104/104 117/117/117
f 118/118/118 104/104/104 120/120/120
f 121/121/121 104/104/104 119/119/119
f 120/120/120 104/104/104 122/122/122
f 123/123/123 104/104/104 121/121/121
f 122/122/122 104/104/104 123/123/123
f 126/126/126 125/125/125 124/124/124
f 124/124/124 125/125/125 127/127/127
f 128/128/128 125/125/125 126/126/126
f 127/127/127 125/125/125 129/129/129
f 130/130/130 125/125/125 128/128/128
f 129/129/129 125/125/125 131/131/131
f 132/132/132 125/125/125 130/130/130
f 131/131/131 125/125/125 133/133/133
f 134/134/134 125/125/125 132/132/132
f 133/133/133 125/125/125 135/135/135
f 136/136/136 125/125/125 134/134/134
f 135/135/135 125/125/125 137/137/137
f 138/138/138 125/125/125 136/136/136
f 137/137/137 125/125/125 139/139/139
f 140/140/140 125/125/125 138/138/138
f 139/139/139 125/125/125 141/141/141
f 142/142/142 125/125/125 140/140/140
f 141/141/141 125/125/125 143/143/143
f 144/144/144 125/125/125 142/142/142
f 143/143/143 125/125/125 144/144/144
