g Line001
v -0.596182287 0.559613228 0.076192379
v -0.632235944 0.64186132 0.076192379
v 0.693874896 0.643569529 0.076192379
v 0.662572026 0.561233103 0.076192379
v 0.72407347 0.616658092 0.076192379
v 0.668242514 0.556179821 0.076192379
v 0.742919445 0.598637938 0.076192379
v 0.683928668 0.541180968 0.076192379
v 0.761324763 0.578343928 0.076192379
v 0.697382033 0.526347041 0.076192379
v 0.778277099 0.555035472 0.076192379
v 0.708278477 0.511365533 0.076192379
v 0.792507768 0.528152347 0.076192379
v 0.716549337 0.495741427 0.076192379
v 0.80264461 0.497535169 0.076192379
v 0.722230494 0.478580415 0.076192379
v 0.806066334 0.473794669 0.076192379
v 0.72660625 0.448217273 0.076192379
v 0.812282026 0.461847007 0.076192379
v 0.747744083 0.407585293 0.076192379
v 0.836801708 0.443120271 0.076192379
v 0.789043784 0.376042604 0.076192379
v 0.882247388 0.413004279 0.076192379
v 0.833548248 0.346550405 0.076192379
v 0.936715186 0.368993878 0.076192379
v 0.878826678 0.309965163 0.076192379
v 0.990167737 0.305420786 0.076192379
v 0.920580506 0.260305703 0.076192379
v 1.03284156 0.217359111 0.076192379
v 0.954238474 0.190849304 0.076192379
v 1.05614388 0.102012523 0.076192379
v 0.974057794 0.092742987 0.076192379
v 1.05927813 -0.0206819847 0.076192379
v 0.976863801 -0.0171105769 0.076192379
v 1.04693902 -0.130160242 0.076192379
v 0.965861797 -0.114721693 0.076192379
v 1.02065957 -0.227313444 0.076192379
v 0.942990124 -0.19927524 0.076192379
v 0.982008278 -0.311874032 0.076192379
v 0.910153329 -0.271115035 0.076192379
v 0.932671845 -0.383496672 0.076192379
v 0.869135201 -0.330662429 0.076192379
v 0.874479055 -0.441836536 0.076192379
v 0.821579397 -0.378338546 0.076192379
v 0.815230668 -0.482589632 0.076192379
v 0.763156772 -0.41852349 0.076192379
v 0.790743947 -0.505981147 0.076192379
v 0.71320498 -0.466239423 0.076192379
v 0.78828156 -0.523595154 0.076192379
v 0.705467165 -0.521576583 0.076192379
v 0.791905522 -0.56366539 0.076192379
v 0.708130002 -0.551016569 0.076192379
v 0.769359469 -0.618535638 0.076192379
v 0.705699921 -0.556931734 0.076192379
v 0.696662784 -0.651234925 0.076192379
v 0.674405932 -0.571008086 0.076192379
v 0.572744906 -0.665992975 0.076192379
v 0.567567945 -0.58373189 0.076192379
v 0.367531717 -0.667463243 0.076192379
v 0.367509276 -0.585165262 0.076192379
v -0.626291633 -0.660878003 0.076192379
v -0.596869111 -0.578775465 0.076192379
v -0.658365905 -0.634857535 0.076192379
v -0.60515213 -0.572056174 0.076192379
v -0.679691911 -0.615992486 0.076192379
v -0.622489274 -0.556719959 0.076192379
v -0.700417161 -0.594180346 0.076192379
v -0.637039185 -0.541407287 0.076192379
v -0.719158471 -0.568415284 0.076192379
v -0.648491442 -0.525662959 0.076192379
v -0.734177053 -0.538044751 0.076192379
v -0.656890512 -0.508677542 0.076192379
v -0.743741572 -0.503068924 0.076192379
v -0.662273943 -0.488989323 0.076192379
v -0.745882034 -0.474690557 0.076192379
v -0.664917767 -0.453934073 0.076192379
v -0.749446094 -0.466850609 0.076192379
v -0.685375988 -0.408926725 0.076192379
v -0.769090474 -0.455413193 0.076192379
v -0.729915977 -0.382992983 0.076192379
v -0.816197872 -0.431813568 0.076192379
v -0.772745132 -0.361536592 0.076192379
v -0.87443459 -0.388169527 0.076192379
v -0.815788567 -0.329279035 0.076192379
v -0.930482924 -0.314032704 0.076192379
v -0.85795325 -0.273507178 0.076192379
v -0.974530637 -0.201057613 0.076192379
v -0.894642651 -0.179405749 0.076192379
v -1.0001775 -0.0396690145 0.076192379
v -0.917846859 -0.0333888754 0.076192379
v -0.999301374 0.124400459 0.076192379
v -0.917055249 0.114871427 0.076192379
v -0.971769452 0.244514793 0.076192379
v -0.894209623 0.214540437 0.076192379
v -0.924448192 0.328666002 0.076192379
v -0.858697593 0.27769047 0.076192379
v -0.867533267 0.383196384 0.076192379
v -0.816578627 0.318044126 0.076192379
v -0.814240396 0.416863978 0.076192379
v -0.770890296 0.346907496 0.076192379
v -0.778134406 0.438806593 0.076192379
v -0.724323094 0.375207484 0.076192379
v -0.76118964 0.458425492 0.076192379
v -0.691156387 0.413607359 0.076192379
v -0.748476446 0.486433089 0.076192379
v -0.674727082 0.44980073 0.076192379
v -0.731882155 0.517103612 0.076192379
v -0.660864949 0.47542128 0.076192379
v -0.714620352 0.544293642 0.076192379
v -0.646574557 0.497930497 0.076192379
v -0.696953773 0.5684973 0.076192379
v -0.631813765 0.518153608 0.076192379
v -0.679180741 0.590238333 0.076192379
v -0.616501868 0.536884129 0.076192379
v -0.661594152 0.610087335 0.076192379
v -0.600565791 0.554870367 0.076192379
v -0.632235944 0.64186132 0.076192379
v -0.596182287 0.559613228 0.076192379
vt 0.00817332882 0
vt 0.994098842 0
vt 0.994098842 0.233015493
vt 0.00817332882 0.233015493
vt 0.994098842 0.237346575
vt 0.00817332882 0.237346575
vt 0.994098842 0.241653562
vt 0.00817332882 0.241653562
vt 0.994098842 0.245928571
vt 0.00817332882 0.245928571
vt 0.994098842 0.250196636
vt 0.00817332882 0.250196636
vt 0.994098842 0.254532278
vt 0.00817332882 0.254532278
vt 0.994098842 0.259069175
vt 0.00817332882 0.259069175
vt 0.994098842 0.26399681
vt 0.00817332882 0.26399681
vt 0.994098842 0.269339681
vt 0.00817332882 0.269339681
vt 0.994098842 0.276805609
vt 0.00817332882 0.276805609
vt 0.994098842 0.286533087
vt 0.00817332882 0.286533087
vt 0.994098842 0.29809323
vt 0.00817332882 0.29809323
vt 0.994098842 0.311429322
vt 0.00817332882 0.311429322
vt 0.994098842 0.32720834
vt 0.00817332882 0.32720834
vt 0.994098842 0.346838981
vt 0.00817332882 0.346838981
vt 0.994098842 0.367809087
vt 0.00817332882 0.367809087
vt 0.994098842 0.386595577
vt 0.00817332882 0.386595577
vt 0.994098842 0.403564394
vt 0.00817332882 0.403564394
vt 0.994098842 0.41906625
vt 0.00817332882 0.41906625
vt 0.994098842 0.433424562
vt 0.00817332882 0.433424562
vt 0.994098842 0.446923047
vt 0.00817332882 0.446923047
vt 0.994098842 0.45979768
vt 0.00817332882 0.45979768
vt 0.994098842 0.469077617
vt 0.00817332882 0.469077617
vt 0.994098842 0.475717843
vt 0.00817332882 0.475717843
vt 0.994098842 0.4820095
vt 0.00817332882 0.4820095
vt 0.994098842 0.487933576
vt 0.00817332882 0.487933576
vt 0.994098842 0.498212606
vt 0.00817332882 0.498212606
vt 0.994098842 0.519161344
vt 0.00817332882 0.519161344
vt 0.994098842 0.555695891
vt 0.00817332882 0.555695891
vt 0.994098842 0.732223868
vt 0.00817332882 0.732223868
vt 0.994098842 0.736908555
vt 0.00817332882 0.736908555
vt 0.994098842 0.74156183
vt 0.00817332882 0.74156183
vt 0.994098842 0.746178269
vt 0.00817332882 0.746178269
vt 0.994098842 0.750805438
vt 0.00817332882 0.750805438
vt 0.994098842 0.755567789
vt 0.00817332882 0.755567789
vt 0.994098842 0.760676444
vt 0.00817332882 0.760676444
vt 0.994098842 0.766410947
vt 0.00817332882 0.766410947
vt 0.994098842 0.771643996
vt 0.00817332882 0.771643996
vt 0.994098842 0.778339267
vt 0.00817332882 0.778339267
vt 0.994098842 0.787407219
vt 0.00817332882 0.787407219
vt 0.994098842 0.798816562
vt 0.00817332882 0.798816562
vt 0.994098842 0.813497365
vt 0.00817332882 0.813497365
vt 0.994098842 0.833533168
vt 0.00817332882 0.833533168
vt 0.994098842 0.861592293
vt 0.00817332882 0.861592293
vt 0.994098842 0.889748037
vt 0.00817332882 0.889748037
vt 0.994098842 0.910074413
vt 0.00817332882 0.910074413
vt 0.994098842 0.925308585
vt 0.00817332882 0.925308585
vt 0.994098842 0.937672317
vt 0.00817332882 0.937672317
vt 0.994098842 0.948226511
vt 0.00817332882 0.948226511
vt 0.994098842 0.956947505
vt 0.00817332882 0.956947505
vt 0.994098842 0.963858426
vt 0.00817332882 0.963858426
vt 0.994098842 0.970214188
vt 0.00817332882 0.970214188
vt 0.994098842 0.975983799
vt 0.00817332882 0.975983799
vt 0.994098842 0.981290579
vt 0.00817332882 0.981290579
vt 0.994098842 0.98624891
vt 0.00817332882 0.98624891
vt 0.994098842 0.990961134
vt 0.00817332882 0.990961134
vt 0.994098842 0.995517969
vt 0.00817332882 0.995517969
vt 0.994098842 1
vt 0.00817332882 1
vn -0 0 1
vn -0 0 1
vn -0 0 1
vn -0 0 1
vn -0 0 1
vn -0 0 1
vn -0 0 1
vn -0 0 1
vn -0 0 1
vn -0 0 1
vn -0 0 1
vn -0 0 1
vn -0 0 1
vn -0 0 1
vn -0 0 1
vn -0 0 1
vn -0 0 1
vn -0 0 1
vn -0 0 1
vn -0 0 1
vn -0 0 1
vn -0 0 1
vn -0 0 1
vn -0 0 1
vn -0 0 1
vn -0 0 1
vn -0 0 1
vn -0 0 1
vn -0 0 1
vn -0 0 1
vn -0 0 1
vn -0 0 1
vn -0 0 1
vn -0 0 1
vn -0 0 1
vn -0 0 1
vn -0 0 1
vn -0 0 1
vn -0 0 1
vn -0 0 1
vn -0 0 1
vn -0 0 1
vn -0 0 1
vn -0 0 1
vn -0 0 1
vn -0 0 1
vn -0 0 1
vn -0 0 1
vn -0 0 1
vn -0 0 1
vn -0 0 1
vn -0 0 1
vn -0 0 1
vn -0 0 1
vn -0 0 1
vn -0 0 1
vn -0 0 1
vn -0 0 1
vn -0 0 1
vn -0 0 1
vn -0 0 1
vn -0 0 1
vn -0 0 1
vn -0 0 1
vn -0 0 1
vn -0 0 1
vn -0 0 1
vn -0 0 1
vn -0 0 1
vn -0 0 1
vn -0 0 1
vn -0 0 1
vn -0 0 1
vn -0 0 1
vn -0 0 1
vn -0 0 1
vn -0 0 1
vn -0 0 1
vn -0 0 1
vn -0 0 1
vn -0 0 1
vn -0 0 1
vn -0 0 1
vn -0 0 1
vn -0 0 1
vn -0 0 1
vn -0 0 1
vn -0 0 1
vn -0 0 1
vn -0 0 1
vn -0 0 1
vn -0 0 1
vn -0 0 1
vn -0 0 1
vn -0 0 1
vn -0 0 1
vn -0 0 1
vn -0 0 1
vn -0 0 1
vn -0 0 1
vn -0 0 1
vn -0 0 1
vn -0 0 1
vn -0 0 1
vn -0 0 1
vn -0 0 1
vn -0 0 1
vn -0 0 1
vn -0 0 1
vn -0 0 1
vn -0 0 1
vn -0 0 1
vn -0 0 1
vn -0 0 1
vn -0 0 1
vn -0 0 1
vn -0 0 1
vn -0 0 1
g Line001_0
f 3/3/3 2/2/2 1/1/1
f 4/4/4 3/3/3 1/1/1
f 5/5/5 3/3/3 4/4/4
f 6/6/6 5/5/5 4/4/4
f 7/7/7 5/5/5 6/6/6
f 8/8/8 7/7/7 6/6/6
f 9/9/9 7/7/7 8/8/8
f 10/10/10 9/9/9 8/8/8
f 11/11/11 9/9/9 10/10/10
f 12/12/12 11/11/11 10/10/10
f 13/13/13 11/11/11 12/12/12
f 14/14/14 13/13/13 12/12/12
f 15/15/15 13/13/13 14/14/14
f 16/16/16 15/15/15 14/14/14
f 17/17/17 15/15/15 16/16/16
f 18/18/18 17/17/17 16/16/16
f 19/19/19 17/17/17 18/18/18
f 20/20/20 19/19/19 18/18/18
f 21/21/21 19/19/19 20/20/20
f 22/22/22 21/21/21 20/20/20
f 23/23/23 21/21/21 22/22/22
f 24/24/24 23/23/23 22/22/22
f 25/25/25 23/23/23 24/24/24
f 26/26/26 25/25/25 24/24/24
f 27/27/27 25/25/25 26/26/26
f 28/28/28 27/27/27 26/26/26
f 29/29/29 27/27/27 28/28/28
f 30/30/30 29/29/29 28/28/28
f 31/31/31 29/29/29 30/30/30
f 32/32/32 31/31/31 30/30/30
f 33/33/33 31/31/31 32/32/32
f 34/34/34 33/33/33 32/32/32
f 35/35/35 33/33/33 34/34/34
f 36/36/36 35/35/35 34/34/34
f 37/37/37 35/35/35 36/36/36
f 38/38/38 37/37/37 36/36/36
f 39/39/39 37/37/37 38/38/38
f 40/40/40 39/39/39 38/38/38
f 41/41/41 39/39/39 40/40/40
f 42/42/42 41/41/41 40/40/40
f 43/43/43 41/41/41 42/42/42
f 44/44/44 43/43/43 42/42/42
f 45/45/45 43/43/43 44/44/44
f 46/46/46 45/45/45 44/44/44
f 47/47/47 45/45/45 46/46/46
f 48/48/48 47/47/47 46/46/46
f 49/49/49 47/47/47 48/48/48
f 50/50/50 49/49/49 48/48/48
f 51/51/51 49/49/49 50/50/50
f 52/52/52 51/51/51 50/50/50
f 53/53/53 51/51/51 52/52/52
f 54/54/54 53/53/53 52/52/52
f 55/55/55 53/53/53 54/54/54
f 56/56/56 55/55/55 54/54/54
f 57/57/57 55/55/55 56/56/56
f 58/58/58 57/57/57 56/56/56
f 59/59/59 57/57/57 58/58/58
f 60/60/60 59/59/59 58/58/58
f 61/61/61 59/59/59 60/60/60
f 62/62/62 61/61/61 60/60/60
f 63/63/63 61/61/61 62/62/62
f 64/64/64 63/63/63 62/62/62
f 65/65/65 63/63/63 64/64/64
f 66/66/66 65/65/65 64/64/64
f 67/67/67 65/65/65 66/66/66
f 68/68/68 67/67/67 66/66/66
f 69/69/69 67/67/67 68/68/68
f 70/70/70 69/69/69 68/68/68
f 71/71/71 69/69/69 70/70/70
f 72/72/72 71/71/71 70/70/70
f 73/73/73 71/71/71 72/72/72
f 74/74/74 73/73/73 72/72/72
f 75/75/75 73/73/73 74/74/74
f 76/76/76 75/75/75 74/74/74
f 77/77/77 75/75/75 76/76/76
f 78/78/78 77/77/77 76/76/76
f 79/79/79 77/77/77 78/78/78
f 80/80/80 79/79/79 78/78/78
f 81/81/81 79/79/79 80/80/80
f 82/82/82 81/81/81 80/80/80
f 83/83/83 81/81/81 82/82/82
f 84/84/84 83/83/83 82/82/82
f 85/85/85 83/83/83 84/84/84
f 86/86/86 85/85/85 84/84/84
f 87/87/87 85/85/85 86/86/86
f 88/88/88 87/87/87 86/86/86
f 89/89/89 87/87/87 88/88/88
f 90/90/90 89/89/89 88/88/88
f 91/91/91 89/89/89 90/90/90
f 92/92/92 91/91/91 90/90/90
f 93/93/93 91/91/91 92/92/92
f 94/94/94 93/93/93 92/92/92
f 95/95/95 93/93/93 94/94/94
f 96/96/96 95/95/95 94/94/94
f 97/97/97 95/95/95 96/96/96
f 98/98/98 97/97/97 96/96/96
f 99/99/99 97/97/97 98/98/98
f 100/100/100 99/99/99 98/98/98
f 101/101/101 99/99/99 100/100/100
f 102/102/102 101/101/101 100/100/100
f 103/103/103 101/101/101 102/102/102
f 104/104/104 103/103/103 102/102/102
f 105/105/105 103/103/103 104/104/104
f 106/106/106 105/105/105 104/104/104
f 107/107/107 105/105/105 106/106/106
f 108/108/108 107/107/107 106/106/106
f 109/109/109 107/107/107 108/108/108
f 110/110/110 109/109/109 108/108/108
f 111/111/111 109/109/109 110/110/110
f 112/112/112 111/111/111 110/110/110
f 113/113/113 111/111/111 112/112/112
f 114/114/114 113/113/113 112/112/112
f 115/115/115 113/113/113 114/114/114
f 116/116/116 115/115/115 114/114/114
f 117/117/117 115/115/115 116/116/116
f 118/118/118 117/117/117 116/116/116
