g Huowu_wuqi
v -0.352186471 -0.0051524369 -0.244695872
v -0.942375779 0.00608906336 -0.107704043
v -0.377246201 -0.00526506407 -0.318203926
v -0.895749629 0.0134662502 0.0235170797
v -0.328227788 -0.0182775613 -0.209162667
v -0.858084321 -0.01735048 0.117983595
v -0.785335958 0.0134648355 0.197111398
v -0.301422805 -0.00677015213 -0.17758733
v -0.281620115 -0.0148990201 -0.156599507
v -0.730052769 -0.0173515324 0.289452255
v -0.651381493 0.013464069 0.342304915
v -0.25125882 -0.00320850196 -0.131110832
v -0.223727182 -0.0132915676 -0.111749075
v -0.571950197 -0.0173522942 0.423406512
v -0.473079324 0.0134636471 0.453782022
v -0.196517065 -0.00226095878 -0.0960988179
v -0.155143991 -0.0104629518 -0.0784451738
v -0.395471066 -0.017352324 0.517114162
v -0.296143711 0.0134638725 0.537769794
v -0.125813514 0.00101439131 -0.0688084289
v -0.086974822 -0.00812058803 -0.060280785
v -0.206992939 -0.017352121 0.580142975
v -0.1028063 0.013464082 0.57756108
v -0.0409425907 0.00415875204 -0.0539873242
v 0.00138080679 -0.00370375952 -0.0518113822
v 0.00138080679 -0.0170125403 0.607936561
v 0.105719551 0.0134657221 0.57756108
v 0.060451325 0.00232990715 -0.0597217865
v 0.0886927098 -0.00579886883 -0.0656405762
v 0.214930937 -0.0113362409 0.569868088
v 0.301100373 0.0194795001 0.530403256
v 0.126289353 0.00589177245 -0.0782112554
v 0.157182962 -0.00419150479 -0.0915701762
v 0.411753029 -0.0113369711 0.505050242
v 0.489311248 0.019479027 0.436618209
v 0.184743509 0.00683911191 -0.106593616
v 0.22141248 -0.00136286742 -0.13264662
v 0.583860278 -0.0113369403 0.403535783
v 0.65336889 0.0194791704 0.329636186
v 0.244954243 0.0101144845 -0.152620509
v 0.27251789 0.000979515957 -0.181280822
v 0.73607856 -0.0113366516 0.27576068
v 0.788312674 0.019479854 0.185577109
v 0.301934212 0.0132588968 -0.217242509
v 0.325902879 0.0156836584 -0.252192259
v 0.868647575 -0.010997016 0.112612471
v 0.897263408 0.0194813814 0.00777766202
v 0.347012103 0.00623664865 -0.290970236
v 0.358760297 0.0169471949 -0.325062633
v 0.953900039 -0.0113338204 -0.0797087997
v 0.96434927 0.019482689 -0.177862138
v 0.362816006 0.00671325484 -0.363000542
v -0.352186471 -0.0235837623 -0.244695872
v -0.377246201 -0.0236963909 -0.318203926
v -0.942375779 -0.0123424027 -0.107704043
v -0.895749629 -0.00496518612 0.0235170722
v -0.328227788 -0.0367089994 -0.209162682
v -0.858084321 -0.0357819721 0.117983595
v -0.785335958 -0.00496662827 0.197111398
v -0.301422805 -0.025201479 -0.17758733
v -0.281620115 -0.0333303735 -0.156599522
v -0.730052769 -0.0357828885 0.289452225
v -0.651381493 -0.00496739475 0.342304915
v -0.25125882 -0.0216399673 -0.131110847
v -0.223727182 -0.0317228921 -0.111749083
v -0.571950197 -0.0357836485 0.423406512
v -0.473079324 -0.0049676788 0.453782022
v -0.196517065 -0.0206924248 -0.0960988328
v -0.155143991 -0.0288942754 -0.0784451813
v -0.395471066 -0.0357836746 0.517114162
v -0.296143711 -0.00496759266 0.537769794
v -0.125813514 -0.0174170732 -0.0688084364
v -0.086974822 -0.0265519135 -0.0602807887
v -0.206992939 -0.0357835554 0.580142975
v -0.1028063 -0.00496724341 0.57756108
v -0.0409425907 -0.0142727122 -0.0539873317
v 0.00138080679 -0.0221351944 -0.0518113896
v 0.00138080679 -0.0354438946 0.607936561
v 0.105719551 -0.00496574258 0.57756108
v 0.060451325 -0.0161015578 -0.059721794
v 0.0886927098 -0.0242303349 -0.0656405836
v 0.214930937 -0.0297675934 0.569868088
v 0.301100373 0.00104817457 0.530403256
v 0.126289353 -0.0125396643 -0.0782112628
v 0.157182962 -0.0226228312 -0.0915701836
v 0.411753029 -0.0297682974 0.505050242
v 0.489311248 0.00104756362 0.436618209
v 0.184743509 -0.0115923248 -0.106593616
v 0.22141248 -0.0197943319 -0.132646635
v 0.583860278 -0.0297682658 0.403535783
v 0.65336889 0.00104784616 0.329636186
v 0.244954243 -0.00831698067 -0.152620509
v 0.27251789 -0.0174519494 -0.181280822
v 0.73607856 -0.0297680888 0.27576068
v 0.788312674 0.00104838994 0.185577109
v 0.301934212 -0.00517259585 -0.217242509
v 0.325902879 -0.00274766819 -0.252192259
v 0.868647575 -0.0294283405 0.112612464
v 0.897263408 0.00104991661 0.00777765689
v 0.347012103 -0.0121946763 -0.290970236
v 0.358760297 -0.00148426916 -0.325062633
v 0.953900039 -0.0297651477 -0.0797088072
v 0.96434927 0.00105136249 -0.177862138
v 0.362816006 -0.0117180711 -0.363000542
v -0.895749629 -0.00496518612 0.0235170722
v -0.942375779 -0.0123424027 -0.107704043
v -0.942375779 0.00608906336 -0.107704043
v -0.895749629 0.0134662502 0.0235170797
v -0.858084321 -0.01735048 0.117983595
v -0.858084321 -0.0357819721 0.117983595
v -0.785335958 -0.00496662827 0.197111398
v -0.785335958 0.0134648355 0.197111398
v -0.730052769 -0.0173515324 0.289452255
v -0.730052769 -0.0357828885 0.289452225
v -0.651381493 -0.00496739475 0.342304915
v -0.651381493 0.013464069 0.342304915
v -0.571950197 -0.0173522942 0.423406512
v -0.571950197 -0.0357836485 0.423406512
v -0.473079324 -0.0049676788 0.453782022
v -0.473079324 0.0134636471 0.453782022
v -0.395471066 -0.017352324 0.517114162
v -0.395471066 -0.0357836746 0.517114162
v -0.296143711 -0.00496759266 0.537769794
v -0.296143711 0.0134638725 0.537769794
v -0.206992939 -0.017352121 0.580142975
v -0.206992939 -0.0357835554 0.580142975
v -0.1028063 -0.00496724341 0.57756108
v -0.1028063 0.013464082 0.57756108
v 0.00138080679 -0.0170125403 0.607936561
v 0.00138080679 -0.0354438946 0.607936561
v 0.105719551 -0.00496574258 0.57756108
v 0.105719551 0.0134657221 0.57756108
v 0.214930937 -0.0113362409 0.569868088
v 0.214930937 -0.0297675934 0.569868088
v 0.301100373 0.00104817457 0.530403256
v 0.301100373 0.0194795001 0.530403256
v 0.411753029 -0.0113369711 0.505050242
v 0.411753029 -0.0297682974 0.505050242
v 0.489311248 0.00104756362 0.436618209
v 0.489311248 0.019479027 0.436618209
v 0.583860278 -0.0113369403 0.403535783
v 0.583860278 -0.0297682658 0.403535783
v 0.65336889 0.00104784616 0.329636186
v 0.65336889 0.0194791704 0.329636186
v 0.73607856 -0.0113366516 0.27576068
v 0.73607856 -0.0297680888 0.27576068
v 0.788312674 0.00104838994 0.185577109
v 0.788312674 0.019479854 0.185577109
v 0.868647575 -0.010997016 0.112612471
v 0.868647575 -0.0294283405 0.112612464
v 0.897263408 0.00104991661 0.00777765689
v 0.897263408 0.0194813814 0.00777766202
v 0.953900039 -0.0113338204 -0.0797087997
v 0.953900039 -0.0297651477 -0.0797088072
v 0.96434927 0.00105136249 -0.177862138
v 0.96434927 0.019482689 -0.177862138
v -0.942375779 0.00608906336 -0.107704043
v -0.942375779 -0.0123424027 -0.107704043
v -0.377246201 -0.0236963909 -0.318203926
v -0.377246201 -0.00526506407 -0.318203926
v -0.377246201 -0.00526506407 -0.318203926
v -0.377246201 -0.0236963909 -0.318203926
v -0.352186471 -0.0235837623 -0.244695872
v -0.352186471 -0.0051524369 -0.244695872
v -0.328227788 -0.0182775613 -0.209162667
v -0.328227788 -0.0367089994 -0.209162682
v -0.301422805 -0.025201479 -0.17758733
v -0.301422805 -0.00677015213 -0.17758733
v -0.281620115 -0.0148990201 -0.156599507
v -0.281620115 -0.0333303735 -0.156599522
v -0.25125882 -0.0216399673 -0.131110847
v -0.25125882 -0.00320850196 -0.131110832
v -0.223727182 -0.0132915676 -0.111749075
v -0.223727182 -0.0317228921 -0.111749083
v -0.196517065 -0.0206924248 -0.0960988328
v -0.196517065 -0.00226095878 -0.0960988179
v -0.155143991 -0.0104629518 -0.0784451738
v -0.155143991 -0.0288942754 -0.0784451813
v -0.125813514 -0.0174170732 -0.0688084364
v -0.125813514 0.00101439131 -0.0688084289
v -0.086974822 -0.00812058803 -0.060280785
v -0.086974822 -0.0265519135 -0.0602807887
v -0.0409425907 -0.0142727122 -0.0539873317
v -0.0409425907 0.00415875204 -0.0539873242
v 0.00138080679 -0.00370375952 -0.0518113822
v 0.00138080679 -0.0221351944 -0.0518113896
v 0.060451325 -0.0161015578 -0.059721794
v 0.060451325 0.00232990715 -0.0597217865
v 0.0886927098 -0.00579886883 -0.0656405762
v 0.0886927098 -0.0242303349 -0.0656405836
v 0.126289353 -0.0125396643 -0.0782112628
v 0.126289353 0.00589177245 -0.0782112554
v 0.157182962 -0.00419150479 -0.0915701762
v 0.157182962 -0.0226228312 -0.0915701836
v 0.184743509 -0.0115923248 -0.106593616
v 0.184743509 0.00683911191 -0.106593616
v 0.22141248 -0.00136286742 -0.13264662
v 0.22141248 -0.0197943319 -0.132646635
v 0.244954243 -0.00831698067 -0.152620509
v 0.244954243 0.0101144845 -0.152620509
v 0.27251789 0.000979515957 -0.181280822
v 0.27251789 -0.0174519494 -0.181280822
v 0.301934212 -0.00517259585 -0.217242509
v 0.301934212 0.0132588968 -0.217242509
v 0.325902879 -0.00274766819 -0.252192259
v 0.325902879 0.0156836584 -0.252192259
v 0.347012103 0.00623664865 -0.290970236
v 0.347012103 -0.0121946763 -0.290970236
v 0.358760297 -0.00148426916 -0.325062633
v 0.358760297 0.0169471949 -0.325062633
v 0.362816006 0.00671325484 -0.363000542
v 0.362816006 -0.0117180711 -0.363000542
v 0.362816006 0.00671325484 -0.363000542
v 0.362816006 -0.0117180711 -0.363000542
v 0.96434927 0.00105136249 -0.177862138
v 0.96434927 0.019482689 -0.177862138
v -0.981739402 -0.0428793989 -0.150635585
v -0.922271788 -0.0434395485 0.00531487027
v 0.137098774 -0.0585641786 -0.498824149
v 0.115949087 -0.058167398 -0.569405138
v -0.921827495 -0.00477848807 0.00528797787
v -0.922271788 -0.0434395485 0.00531487027
v -0.981739402 -0.0428793989 -0.150635585
v -0.981284916 -0.00421833573 -0.150651798
v 0.137098774 -0.0585641786 -0.498824149
v 0.137519911 -0.0199030899 -0.498876423
v 0.116376892 -0.0195063092 -0.569450974
v 0.115949087 -0.058167398 -0.569405138
v 0.137519911 -0.0199030899 -0.498876423
v 0.137098774 -0.0585641786 -0.498824149
v -0.922271788 -0.0434395485 0.00531487027
v -0.921827495 -0.00477848807 0.00528797787
v 0.115949087 -0.058167398 -0.569405138
v 0.116376892 -0.0195063092 -0.569450974
v -0.981284916 -0.00421833573 -0.150651798
v -0.981739402 -0.0428793989 -0.150635585
v -0.981284916 -0.00421833573 -0.150651798
v 0.116376892 -0.0195063092 -0.569450974
v 0.137519911 -0.0199030899 -0.498876423
v -0.921827495 -0.00477848807 0.00528797787
v -0.230472907 -0.0140432296 -0.104668938
v -0.194506109 -0.0111516016 -0.083672449
v 0.0809392929 -0.0126978885 -0.563996255
v 0.0462852716 -0.0126979919 -0.586706579
v 0.0809392929 -0.0199350342 -0.563996255
v -0.194506109 -0.0183890257 -0.0836724564
v -0.230472907 -0.0212806817 -0.104668945
v 0.0462852716 -0.0199351646 -0.586706579
v -0.230472907 -0.0212806817 -0.104668945
v -0.194506109 -0.0183890257 -0.0836724564
v -0.194506109 -0.0111516016 -0.083672449
v -0.230472907 -0.0140432296 -0.104668938
v 0.0462852716 -0.0199351646 -0.586706579
v -0.230472907 -0.0212806817 -0.104668945
v -0.230472907 -0.0140432296 -0.104668938
v 0.0462852716 -0.0126979919 -0.586706579
v 0.0809392929 -0.0199350342 -0.563996255
v 0.0462852716 -0.0199351646 -0.586706579
v 0.0462852716 -0.0126979919 -0.586706579
v 0.0809392929 -0.0126978885 -0.563996255
v -0.194506109 -0.0183890257 -0.0836724564
v 0.0809392929 -0.0199350342 -0.563996255
v 0.0809392929 -0.0126978885 -0.563996255
v -0.194506109 -0.0111516016 -0.083672449
v 0.226108566 -0.00732105132 -0.10691981
v 0.256369799 0.00133181759 -0.130843118
v -0.0900125951 -0.00363723328 -0.562809765
v -0.121405609 -0.00368846441 -0.540721476
v -0.0899787992 -0.00969733018 -0.562794387
v 0.256402284 -0.00472836196 -0.13082777
v 0.226141036 -0.0133812595 -0.106904693
v -0.121373147 -0.00974889472 -0.540706396
v 0.226141036 -0.0133812595 -0.106904693
v 0.256402284 -0.00472836196 -0.13082777
v 0.256369799 0.00133181759 -0.130843118
v 0.226108566 -0.00732105132 -0.10691981
v -0.121373147 -0.00974889472 -0.540706396
v 0.226141036 -0.0133812595 -0.106904693
v 0.226108566 -0.00732105132 -0.10691981
v -0.121405609 -0.00368846441 -0.540721476
v -0.0899787992 -0.00969733018 -0.562794387
v -0.121373147 -0.00974889472 -0.540706396
v -0.121405609 -0.00368846441 -0.540721476
v -0.0900125951 -0.00363723328 -0.562809765
v 0.256402284 -0.00472836196 -0.13082777
v -0.0899787992 -0.00969733018 -0.562794387
v -0.0900125951 -0.00363723328 -0.562809765
v 0.256369799 0.00133181759 -0.130843118
v -0.00762756821 -0.00726181176 -0.0496307798
v 0.0309278499 -0.00726181129 -0.0509001873
v 0.00887318514 -0.00533543387 -0.607058287
v -0.0295025725 -0.00533557357 -0.607937932
v 0.00887318514 -0.0118773403 -0.607058287
v 0.0309278499 -0.0138037167 -0.0509001911
v -0.00762756821 -0.0138037167 -0.0496307835
v -0.0295025725 -0.0118775899 -0.607937932
v -0.00762756821 -0.0138037167 -0.0496307835
v 0.0309278499 -0.0138037167 -0.0509001911
v 0.0309278499 -0.00726181129 -0.0509001873
v -0.00762756821 -0.00726181176 -0.0496307798
v -0.0295025725 -0.0118775899 -0.607937932
v -0.00762756821 -0.0138037167 -0.0496307835
v -0.00762756821 -0.00726181176 -0.0496307798
v -0.0295025725 -0.00533557357 -0.607937932
v 0.00887318514 -0.0118773403 -0.607058287
v -0.0295025725 -0.0118775899 -0.607937932
v -0.0295025725 -0.00533557357 -0.607937932
v 0.00887318514 -0.00533543387 -0.607058287
v 0.0309278499 -0.0138037167 -0.0509001911
v 0.00887318514 -0.0118773403 -0.607058287
v 0.00887318514 -0.00533543387 -0.607058287
v 0.0309278499 -0.00726181129 -0.0509001873
v 0.98130852 0.0564921461 -0.170382217
v 0.928181529 0.0585643388 -0.012172428
v -0.15072675 0.0410053656 -0.472931892
v -0.132437393 0.0397964753 -0.54429853
v 0.98130852 0.0564921461 -0.170382217
v 0.981739402 0.0178364459 -0.169713601
v 0.928622663 0.0199087206 -0.0115142772
v 0.928181529 0.0585643388 -0.012172428
v -0.131980672 0.00114088634 -0.543659866
v -0.132437393 0.0397964753 -0.54429853
v -0.15072675 0.0410053656 -0.472931892
v -0.150263801 0.00234984909 -0.47230044
v 0.928181529 0.0585643388 -0.012172428
v 0.928622663 0.0199087206 -0.0115142772
v -0.150263801 0.00234984909 -0.47230044
v -0.15072675 0.0410053656 -0.472931892
v 0.981739402 0.0178364459 -0.169713601
v 0.98130852 0.0564921461 -0.170382217
v -0.132437393 0.0397964753 -0.54429853
v -0.131980672 0.00114088634 -0.543659866
v -0.150263801 0.00234984909 -0.47230044
v 0.928622663 0.0199087206 -0.0115142772
v 0.981739402 0.0178364459 -0.169713601
v -0.131980672 0.00114088634 -0.543659866
vt 0.564453125 0.723632812
vt 0.468505859 0.729492188
vt 0.5625 0.711425781
vt 0.472412109 0.751464844
vt 0.567382812 0.729980469
vt 0.476074219 0.768066406
vt 0.485839844 0.782714844
vt 0.571289062 0.735839844
vt 0.573730469 0.739746094
vt 0.492675781 0.799316406
vt 0.504394531 0.810058594
vt 0.578125 0.744628906
vt 0.58203125 0.748535156
vt 0.515625 0.825195312
vt 0.530761719 0.832519531
vt 0.586425781 0.751953125
vt 0.592773438 0.755371094
vt 0.542480469 0.844238281
vt 0.558105469 0.850097656
vt 0.597167969 0.7578125
vt 0.603515625 0.760253906
vt 0.572265625 0.858886719
vt 0.589355469 0.860351562
vt 0.610839844 0.762207031
vt 0.617675781 0.763183594
vt 0.605957031 0.8671875
vt 0.623535156 0.864257812
vt 0.626953125 0.762695312
vt 0.631835938 0.762207031
vt 0.641601562 0.864746094
vt 0.65625 0.859863281
vt 0.638183594 0.760742188
vt 0.643554688 0.759277344
vt 0.674804688 0.857421875
vt 0.688964844 0.847167969
vt 0.6484375 0.757324219
vt 0.654785156 0.753417969
vt 0.705078125 0.843261719
vt 0.717773438 0.83203125
vt 0.658691406 0.750488281
vt 0.663574219 0.74609375
vt 0.731933594 0.823730469
vt 0.741699219 0.809570312
vt 0.668945312 0.740722656
vt 0.673339844 0.735351562
vt 0.755859375 0.798339844
vt 0.76171875 0.781738281
vt 0.676757812 0.729003906
vt 0.679199219 0.723632812
vt 0.771484375 0.767578125
vt 0.774414062 0.751464844
vt 0.680175781 0.717285156
vt 0.564453125 0.723632812
vt 0.5625 0.711425781
vt 0.468505859 0.729492188
vt 0.472412109 0.751464844
vt 0.567382812 0.729980469
vt 0.476074219 0.768066406
vt 0.485839844 0.782714844
vt 0.571289062 0.735839844
vt 0.573730469 0.739746094
vt 0.492675781 0.799316406
vt 0.504394531 0.810058594
vt 0.578125 0.744628906
vt 0.58203125 0.748535156
vt 0.515625 0.825195312
vt 0.530761719 0.832519531
vt 0.586425781 0.751953125
vt 0.592773438 0.755371094
vt 0.542480469 0.844238281
vt 0.558105469 0.850097656
vt 0.597167969 0.7578125
vt 0.603515625 0.760253906
vt 0.572265625 0.858886719
vt 0.589355469 0.860351562
vt 0.610839844 0.762207031
vt 0.617675781 0.763183594
vt 0.605957031 0.8671875
vt 0.623535156 0.864257812
vt 0.626953125 0.762695312
vt 0.631835938 0.762207031
vt 0.641601562 0.864746094
vt 0.65625 0.859863281
vt 0.638183594 0.760742188
vt 0.643554688 0.759277344
vt 0.674804688 0.857421875
vt 0.688964844 0.847167969
vt 0.6484375 0.757324219
vt 0.654785156 0.753417969
vt 0.705078125 0.843261719
vt 0.717773438 0.83203125
vt 0.658691406 0.750488281
vt 0.663574219 0.74609375
vt 0.731933594 0.823730469
vt 0.741699219 0.809570312
vt 0.668945312 0.740722656
vt 0.673339844 0.735351562
vt 0.755859375 0.798339844
vt 0.76171875 0.781738281
vt 0.676757812 0.729003906
vt 0.679199219 0.723632812
vt 0.771484375 0.767578125
vt 0.774414062 0.751464844
vt 0.680175781 0.717285156
vt 0.470458984 0.75390625
vt 0.466552734 0.731933594
vt 0.461669922 0.730957031
vt 0.465820312 0.753417969
vt 0.469726562 0.770507812
vt 0.474365234 0.770507812
vt 0.484130859 0.78515625
vt 0.479980469 0.786132812
vt 0.487060547 0.803222656
vt 0.490966797 0.801757812
vt 0.502929688 0.8125
vt 0.499267578 0.814453125
vt 0.510742188 0.830078125
vt 0.514160156 0.827636719
vt 0.529785156 0.834960938
vt 0.526855469 0.837402344
vt 0.5390625 0.850097656
vt 0.541503906 0.847167969
vt 0.557617188 0.852539062
vt 0.555664062 0.855957031
vt 0.5703125 0.864746094
vt 0.571777344 0.861328125
vt 0.589355469 0.86328125
vt 0.588378906 0.866699219
vt 0.60546875 0.874023438
vt 0.605957031 0.869628906
vt 0.624023438 0.866699219
vt 0.624023438 0.870605469
vt 0.643066406 0.871582031
vt 0.642089844 0.8671875
vt 0.657714844 0.862304688
vt 0.658691406 0.866210938
vt 0.678222656 0.863769531
vt 0.676269531 0.859863281
vt 0.690429688 0.850097656
vt 0.692871094 0.853027344
vt 0.709472656 0.848632812
vt 0.70703125 0.845703125
vt 0.719726562 0.834472656
vt 0.72265625 0.836914062
vt 0.737792969 0.828613281
vt 0.734375 0.826660156
vt 0.744140625 0.8125
vt 0.748046875 0.813964844
vt 0.762695312 0.802246094
vt 0.758300781 0.801269531
vt 0.764160156 0.784179688
vt 0.768554688 0.784667969
vt 0.779296875 0.770507812
vt 0.774902344 0.770019531
vt 0.77734375 0.75390625
vt 0.782226562 0.753417969
vt 0.466308594 0.725097656
vt 0.467041016 0.727539062
vt 0.562011719 0.709472656
vt 0.561523438 0.706542969
vt 0.568359375 0.711425781
vt 0.56640625 0.711914062
vt 0.567871094 0.723144531
vt 0.5703125 0.722167969
vt 0.572753906 0.728027344
vt 0.570800781 0.729003906
vt 0.57421875 0.734863281
vt 0.576171875 0.733398438
vt 0.578613281 0.736816406
vt 0.576660156 0.73828125
vt 0.580566406 0.743164062
vt 0.582519531 0.741210938
vt 0.5859375 0.745117188
vt 0.584472656 0.746582031
vt 0.588378906 0.749511719
vt 0.58984375 0.747558594
vt 0.595703125 0.751464844
vt 0.594238281 0.752929688
vt 0.598632812 0.755371094
vt 0.599609375 0.752929688
vt 0.604980469 0.754882812
vt 0.604492188 0.757324219
vt 0.611328125 0.759277344
vt 0.611816406 0.756835938
vt 0.617675781 0.7578125
vt 0.617675781 0.760253906
vt 0.626464844 0.759765625
vt 0.626464844 0.757324219
vt 0.630859375 0.757324219
vt 0.630859375 0.759277344
vt 0.637207031 0.758300781
vt 0.636230469 0.755859375
vt 0.641113281 0.754394531
vt 0.642089844 0.756347656
vt 0.646484375 0.754394531
vt 0.645507812 0.752441406
vt 0.651367188 0.749023438
vt 0.65234375 0.750976562
vt 0.65625 0.748535156
vt 0.654785156 0.74609375
vt 0.659667969 0.742675781
vt 0.661132812 0.744140625
vt 0.666015625 0.739257812
vt 0.6640625 0.737304688
vt 0.669921875 0.733886719
vt 0.667480469 0.732910156
vt 0.671386719 0.727050781
vt 0.673339844 0.728515625
vt 0.67578125 0.723144531
vt 0.672851562 0.72265625
vt 0.674316406 0.717773438
vt 0.676269531 0.717285156
vt 0.682617188 0.713378906
vt 0.681640625 0.715332031
vt 0.775878906 0.749023438
vt 0.776367188 0.747070312
vt 0.421630859 0.812011719
vt 0.448730469 0.812011719
vt 0.433349609 0.621582031
vt 0.421386719 0.621582031
vt 0.44921875 0.823242188
vt 0.44921875 0.818359375
vt 0.422119141 0.818359375
vt 0.422119141 0.823242188
vt 0.438232422 0.614746094
vt 0.438232422 0.609375
vt 0.426269531 0.609375
vt 0.426269531 0.614746094
vt 0.456054688 0.621582031
vt 0.451171875 0.621582031
vt 0.451171875 0.811523438
vt 0.456054688 0.811523438
vt 0.415771484 0.620605469
vt 0.410644531 0.620605469
vt 0.410644531 0.811035156
vt 0.415771484 0.811035156
vt 0.413085938 0.541992188
vt 0.493164062 0.368652344
vt 0.481933594 0.364501953
vt 0.388427734 0.530273438
vt 0.00833892822 0.389160156
vt 0.0152282715 0.389160156
vt 0.0152282715 0.296875
vt 0.00833892822 0.296875
vt 0.0270233154 0.390136719
vt 0.0270233154 0.298095703
vt 0.0201263428 0.298095703
vt 0.0201263428 0.390136719
vt 0.0295562744 0.281494141
vt 0.0295562744 0.288818359
vt 0.0319824219 0.288818359
vt 0.0319824219 0.281494141
vt 0.0237121582 0.176513672
vt 0.0237121582 0.276611328
vt 0.0261535645 0.276611328
vt 0.0261535645 0.176513672
vt 0.0244598389 0.288330078
vt 0.0244598389 0.280761719
vt 0.0220031738 0.280761719
vt 0.0220031738 0.288330078
vt 0.0328369141 0.276611328
vt 0.0328369141 0.176635742
vt 0.0303955078 0.176635742
vt 0.0303955078 0.276611328
vt 0.00833892822 0.389160156
vt 0.0152282715 0.389160156
vt 0.0152282715 0.296875
vt 0.00833892822 0.296875
vt 0.0270233154 0.390136719
vt 0.0270233154 0.298095703
vt 0.0201263428 0.298095703
vt 0.0201263428 0.390136719
vt 0.0295562744 0.281494141
vt 0.0295562744 0.288818359
vt 0.0319824219 0.288818359
vt 0.0319824219 0.281494141
vt 0.0237121582 0.176513672
vt 0.0237121582 0.276611328
vt 0.0261535645 0.276611328
vt 0.0261535645 0.176513672
vt 0.0244598389 0.288330078
vt 0.0244598389 0.280761719
vt 0.0220031738 0.280761719
vt 0.0220031738 0.288330078
vt 0.0328369141 0.276611328
vt 0.0328369141 0.176635742
vt 0.0303955078 0.176635742
vt 0.0303955078 0.276611328
vt 0.00833892822 0.389160156
vt 0.0152282715 0.389160156
vt 0.0152282715 0.296875
vt 0.00833892822 0.296875
vt 0.0270233154 0.390136719
vt 0.0270233154 0.298095703
vt 0.0201263428 0.298095703
vt 0.0201263428 0.390136719
vt 0.0295562744 0.281494141
vt 0.0295562744 0.288818359
vt 0.0319824219 0.288818359
vt 0.0319824219 0.281494141
vt 0.0237121582 0.176513672
vt 0.0237121582 0.276611328
vt 0.0261535645 0.276611328
vt 0.0261535645 0.176513672
vt 0.0244598389 0.288330078
vt 0.0244598389 0.280761719
vt 0.0220031738 0.280761719
vt 0.0220031738 0.288330078
vt 0.0328369141 0.276611328
vt 0.0328369141 0.176635742
vt 0.0303955078 0.176635742
vt 0.0303955078 0.276611328
vt 0.421630859 0.812011719
vt 0.448730469 0.812011719
vt 0.433349609 0.621582031
vt 0.421386719 0.621582031
vt 0.422119141 0.818359375
vt 0.422119141 0.823242188
vt 0.44921875 0.823242188
vt 0.44921875 0.818359375
vt 0.426269531 0.609375
vt 0.426269531 0.614746094
vt 0.438232422 0.614746094
vt 0.438232422 0.609375
vt 0.451171875 0.811523438
vt 0.456054688 0.811523438
vt 0.456054688 0.621582031
vt 0.451171875 0.621582031
vt 0.410644531 0.811035156
vt 0.415771484 0.811035156
vt 0.415771484 0.620605469
vt 0.410644531 0.620605469
vt 0.481933594 0.364501953
vt 0.388427734 0.530273438
vt 0.413085938 0.541992188
vt 0.493164062 0.368652344
vn 0.0840162411 0.990763485 0.106437638
vn 0.00975389313 0.999153376 -0.0399683639
vn 0.0097538922 0.999153376 -0.0399683639
vn 0.0882638842 0.9894526 0.114860959
vn -0.00293433317 0.99996233 -0.00817642454
vn 0.00684727821 0.999946952 0.00769305928
vn 0.0281475782 0.999462426 -0.0168140903
vn 0.0339127406 0.999380946 -0.00936611183
vn -0.0154403439 0.999815285 -0.0114445649
vn -0.0151359504 0.999823511 -0.0111374166
vn 0.00261607976 0.999465406 -0.0325886123
vn 0.00975797139 0.999598324 -0.0266084895
vn -0.0194838047 0.999803841 -0.00355939521
vn -0.0128321666 0.999917388 0.000758668466
vn -0.00299217575 0.999628305 -0.0270965733
vn -0.00615764596 0.999567807 -0.0287449379
vn -0.0262614824 0.999654293 -0.00126144255
vn -0.0345745683 0.999392152 -0.00447387015
vn 0.00130660133 0.99981457 -0.0192159303
vn -0.00598145882 0.99975425 -0.021344468
vn -0.00141752919 0.999935389 0.011280505
vn -0.00465165963 0.999932051 0.0106867841
vn -0.00786911417 0.999895692 -0.0121141002
vn -0.0121422857 0.999847412 -0.0125565473
vn 0.0117091117 0.999855161 0.0123467287
vn 0.0174528118 0.999770582 0.012418475
vn -0.00694291759 0.999904275 -0.0119714029
vn 0.020830106 0.999674439 -0.0147380223
vn -0.0471940823 0.998719454 0.018223498
vn -0.0262874775 0.999553382 0.0142125357
vn -0.0321253575 0.999402046 -0.0127900383
vn -0.00982592441 0.999765337 -0.0193092264
vn -0.0202556085 0.99955231 0.0220204704
vn 0.00181703025 0.999919176 0.0125853261
vn -0.029831538 0.999548018 -0.00370841683
vn -0.0198993757 0.999760568 -0.00910281669
vn -0.0208497029 0.9993186 0.0304557364
vn -0.014319893 0.999561846 0.0259060506
vn -0.0192811973 0.999811947 -0.00210613967
vn -0.0128909927 0.999889493 -0.00740868459
vn 0.00562007446 0.999833822 0.0173396822
vn 0.0148757808 0.99985826 0.00789013598
vn -0.0325681269 0.998740256 0.038172923
vn -0.0269698408 0.999129832 0.0318156295
vn 0.0278996117 0.999602377 -0.00408715243
vn 0.0330167785 0.999390841 -0.0113097485
vn 0.00156312191 0.999984384 0.00536330231
vn 0.0077126543 0.999952674 -0.00593340164
vn 0.010663514 0.999641061 0.0245801341
vn 0.0182805508 0.999813974 0.00615730928
vn -0.0394597948 0.988598824 0.145310894
vn -0.0394597948 0.988598824 0.145310879
vn -0.0840163305 -0.990763485 -0.10643813
vn -0.00975364167 -0.999153376 0.0399684235
vn -0.0097536426 -0.999153376 0.0399684235
vn -0.0882639885 -0.989452481 -0.114861451
vn 0.0029344589 -0.99996233 0.00817622803
vn -0.00684716878 -0.999946952 -0.00769327302
vn -0.0281470474 -0.999462426 0.0168145504
vn -0.0339122042 -0.999380946 0.00936656538
vn 0.0154399956 -0.999815285 0.0114442091
vn 0.0151356012 -0.999823511 0.011137058
vn -0.00261602225 -0.999465406 0.0325885341
vn -0.00975786988 -0.999598324 0.026608441
vn 0.0194841046 -0.999803841 0.00355970603
vn 0.0128324879 -0.999917388 -0.000758340699
vn 0.0029921399 -0.999628305 0.0270966031
vn 0.00615761569 -0.999567807 0.0287449732
vn 0.0262609608 -0.999654412 0.00126132614
vn 0.0345739946 -0.999392152 0.00447372906
vn -0.00130680483 -0.99981457 0.0192157235
vn 0.00598123483 -0.99975425 0.0213442519
vn 0.00141798111 -0.999935389 -0.0112804165
vn 0.00465210946 -0.999932051 -0.0106866984
vn 0.00786899682 -0.999895692 0.0121141812
vn 0.0121421786 -0.999847412 0.0125566274
vn -0.0117095513 -0.999855161 -0.0123465993
vn -0.01745327 -0.999770582 -0.0124183437
vn 0.00694288826 -0.999904275 0.0119714402
vn -0.0208300557 -0.999674439 0.0147380559
vn 0.0471947119 -0.998719454 -0.0182234719
vn 0.0262881257 -0.999553382 -0.0142125124
vn 0.0321259312 -0.999402046 0.0127899982
vn 0.00982653722 -0.999765217 0.0193091668
vn 0.020255141 -0.99955231 -0.0220201574
vn -0.00181740441 -0.999919176 -0.0125850542
vn 0.0298310798 -0.999548018 0.00370861962
vn 0.0198989771 -0.999760568 0.00910300296
vn 0.0208501108 -0.9993186 -0.0304558128
vn 0.0143203083 -0.999561727 -0.0259061307
vn 0.0192810502 -0.999811947 0.00210653874
vn 0.0128908698 -0.999889493 0.00740906876
vn -0.00562041113 -0.999833822 -0.0173392352
vn -0.0148761254 -0.99985826 -0.00788968429
vn 0.0325686298 -0.998740256 -0.0381735787
vn 0.0269703604 -0.999129832 -0.0318163261
vn -0.0278993081 -0.999602377 0.00408673519
vn -0.0330164246 -0.999390841 0.0113092642
vn -0.00156342937 -0.999984384 -0.00536291953
vn -0.00771294441 -0.999952674 0.0059337616
vn -0.0106632644 -0.999640942 -0.0245806389
vn -0.0182803422 -0.999813974 -0.00615775073
vn 0.0394602567 -0.988598704 -0.145311818
vn 0.0394602492 -0.988598704 -0.145311818
vn -0.935290039 0 0.353882283
vn -0.942283273 0 0.334816635
vn -0.942283273 0 0.334816664
vn -0.936331272 0 0.3511177
vn -0.846901953 0 0.53174901
vn -0.845932126 0 0.533290505
vn -0.80123204 -1.44968823E-07 0.598353624
vn -0.801245272 -1.45000186E-07 0.598335862
vn -0.723823428 -3.72270193E-07 0.689985335
vn -0.727426529 -3.70489232E-07 0.686185539
vn -0.638327599 -2.22425058E-07 0.769764781
vn -0.640886247 -2.15294818E-07 0.767635942
vn -0.518634617 0 0.854996026
vn -0.522126555 0 0.852868021
vn -0.472148985 0 0.881518722
vn -0.471137583 0 0.882059693
vn -0.430434704 0 0.902621746
vn -0.429916888 0 0.902868509
vn -0.318938673 0 0.947775364
vn -0.318359882 0 0.947969973
vn -0.208873972 0 0.977942526
vn -0.206547022 0 0.978436649
vn -0.128521279 0 0.991706729
vn -0.129912347 0 0.991525471
vn -0.000221718496 0 1
vn -0.000157541072 0 1
vn 0.177354708 0 0.984146953
vn 0.173874125 0 0.984767854
vn 0.251685262 0 0.9678092
vn 0.241119161 0 0.970495522
vn 0.322826684 0 0.946458161
vn 0.319674611 0 0.947527409
vn 0.458036065 0 0.888933659
vn 0.454397589 0 0.890798986
vn 0.504936874 0 0.863156259
vn 0.505926728 0 0.862576365
vn 0.544726193 0 0.838613987
vn 0.545207143 0 0.838301301
vn 0.641482532 0 0.767137647
vn 0.641950727 0 0.766745865
vn 0.724710166 0 0.689053714
vn 0.726346731 0 0.687328458
vn 0.778430402 0 0.627730906
vn 0.777548969 0 0.628822327
vn 0.852534592 -1.48917081E-07 0.522670865
vn 0.852568328 -1.48906054E-07 0.52261585
vn 0.912644744 -1.99299251E-07 0.408753574
vn 0.913230062 -1.98352183E-07 0.407444477
vn 0.942978978 -1.59266193E-07 0.332852125
vn 0.942183673 -1.60727183E-07 0.335096896
vn 0.994381011 0 0.105859898
vn 0.994381011 0 0.105859898
vn -0.349052846 0 -0.937103033
vn -0.349052846 0 -0.937103033
vn -0.349052876 0 -0.937103033
vn -0.349052817 0 -0.937103033
vn 0.94650948 0 -0.322675854
vn 0.94650948 0 -0.322675854
vn 0.890505135 1.48794427E-07 -0.454973221
vn 0.901725709 1.22758749E-07 -0.432308614
vn 0.797193587 3.07813764E-07 -0.603723824
vn 0.796616852 3.08434323E-07 -0.604484499
vn 0.745083988 2.61437606E-07 -0.666970611
vn 0.745125294 2.61631527E-07 -0.666924477
vn 0.686175048 2.86272893E-07 -0.727436423
vn 0.686513543 2.85421464E-07 -0.727117002
vn 0.609627903 4.07550061E-07 -0.792687714
vn 0.609723747 4.07505922E-07 -0.792613983
vn 0.536991119 4.3866882E-07 -0.843587935
vn 0.538183808 4.38193467E-07 -0.842827499
vn 0.448590696 4.02227556E-07 -0.893737316
vn 0.44310835 3.96636921E-07 -0.896468103
vn 0.350706011 2.96274635E-07 -0.936485708
vn 0.355332851 3.01671918E-07 -0.934739769
vn 0.265345991 2.48134256E-07 -0.96415329
vn 0.261150718 2.47815393E-07 -0.965298057
vn 0.174743578 2.51021731E-07 -0.984614015
vn 0.175583318 2.50877605E-07 -0.984464586
vn 0.0943652093 2.57767454E-07 -0.995537639
vn 0.0923162401 2.57767368E-07 -0.995729744
vn -0.0386392511 2.54747789E-07 -0.999253213
vn -0.0435364991 2.54536388E-07 -0.999051869
vn -0.170828536 3.18784998E-07 -0.98530072
vn -0.166765019 3.11406751E-07 -0.985996664
vn -0.261736423 3.70577169E-07 -0.965139449
vn -0.261287302 3.70665902E-07 -0.965261042
vn -0.357372373 3.52723674E-07 -0.933962047
vn -0.357259333 3.52742092E-07 -0.934005201
vn -0.438719124 2.85824711E-07 -0.898624241
vn -0.437447757 2.87679399E-07 -0.899243832
vn -0.527664125 2.14899444E-07 -0.849453032
vn -0.532857239 2.13589161E-07 -0.846205115
vn -0.615257323 2.05779358E-07 -0.788326383
vn -0.61135149 2.05306989E-07 -0.791359246
vn -0.683446884 1.08544761E-07 -0.730000317
vn -0.686614752 0 -0.727021396
vn -0.748237789 0 -0.663430691
vn -0.747671485 0 -0.664068818
vn -0.797676146 0 -0.603086114
vn -0.802788556 0 -0.596263826
vn -0.853826225 0 -0.520558178
vn -0.851181149 0 -0.524872005
vn -0.915763617 0 -0.401717454
vn -0.914047718 0 -0.405606598
vn -0.975898623 0 -0.218224108
vn -0.976329207 0 -0.216289714
vn -0.99433434 0 -0.106298164
vn -0.99433434 0 -0.106298164
vn 0.294160247 0 -0.955756068
vn 0.294160217 0 -0.955756068
vn 0.294160247 0 -0.955756068
vn 0.294160217 0 -0.955756068
vn -0.0138032418 -0.999904513 0.000688383705
vn -0.0138032418 -0.999904513 0.000688383705
vn -0.0138032436 -0.999904513 0.000688383705
vn -0.0138032418 -0.999904513 0.000688383647
vn -0.934308052 0.0110584581 0.356295198
vn -0.934308052 0.0110584563 0.356295198
vn -0.934308052 0.0110584563 0.356295198
vn -0.934308052 0.0110584563 0.356295198
vn 0.957853496 -0.0108806407 -0.287050992
vn 0.957853496 -0.0108806398 -0.287050992
vn 0.957853496 -0.0108806398 -0.287050992
vn 0.957853496 -0.0108806398 -0.287050992
vn 0.429673254 -0.00388460327 0.902976096
vn 0.429673254 -0.00388460327 0.902976096
vn 0.429673284 -0.00388460374 0.902976096
vn 0.429673284 -0.00388460327 0.902976096
vn -0.356415659 0.00331700058 -0.934321582
vn -0.356415629 0.00331700034 -0.934321642
vn -0.356415629 0.00331700034 -0.934321642
vn -0.356415629 0.00331700081 -0.934321642
vn 0.0138038499 0.999904513 -0.000687614724
vn 0.0138038499 0.999904513 -0.000687614782
vn 0.0138038499 0.999904513 -0.000687614782
vn 0.013803849 0.999904513 -0.000687614724
vn 0.0301030111 -0.99939394 0.0174819101
vn 0.0301030073 -0.99939394 0.0174819101
vn 0.0301030092 -0.99939394 0.0174819101
vn 0.0301030055 -0.99939394 0.0174819101
vn -0.0301038586 0.99939394 -0.0174818169
vn -0.0301038586 0.99939394 -0.0174818169
vn -0.0301038604 0.99939394 -0.0174818188
vn -0.0301038604 0.99939394 -0.0174818188
vn 0.504155099 1.14694024E-06 -0.863613188
vn 0.504155099 1.14694012E-06 -0.863613069
vn 0.504155099 1.14694024E-06 -0.863613188
vn 0.504155099 1.14694024E-06 -0.863613188
vn 0.867227554 -7.58620956E-07 0.49791199
vn 0.867227554 -7.58620899E-07 0.49791196
vn 0.867227554 -7.58620956E-07 0.49791199
vn 0.867227554 -7.58620899E-07 0.49791196
vn -0.548128009 0 0.836394548
vn -0.548127949 0 0.836394548
vn -0.548128009 0 0.836394548
vn -0.548128009 0 0.836394548
vn -0.867483854 0 -0.497465372
vn -0.867483854 0 -0.497465372
vn -0.867483854 0 -0.497465372
vn -0.867483854 0 -0.497465372
vn 0.0884940475 -0.993656576 -0.0693923905
vn 0.0884940475 -0.993656576 -0.069392398
vn 0.0884940475 -0.993656576 -0.069392398
vn 0.0884940401 -0.993656576 -0.0693923831
vn -0.0884969234 0.993656218 0.0693943873
vn -0.0884969383 0.993656218 0.0693943948
vn -0.0884969309 0.993656218 0.0693943948
vn -0.0884969234 0.993656218 0.0693943873
vn -0.619226873 -0.00529037323 -0.785194278
vn -0.619226873 -0.00529037323 -0.785194278
vn -0.619226813 -0.00529037183 -0.785194278
vn -0.619226813 -0.0052903723 -0.785194278
vn 0.780461729 0.00262103276 -0.625198066
vn 0.780461729 0.00262103276 -0.625198126
vn 0.780461729 0.00262103323 -0.625198126
vn 0.780461669 0.00262103276 -0.625198126
vn 0.575415075 0.00519978581 0.817844987
vn 0.575415075 0.00519978534 0.817844987
vn 0.575415075 0.00519978534 0.817844987
vn 0.575415075 0.00519978488 0.817845047
vn -0.780138135 -0.00268104277 0.62560147
vn -0.780138135 -0.002681043 0.62560153
vn -0.780138135 -0.00268104277 0.62560153
vn -0.780138135 -0.00268104277 0.62560153
vn -1.5690548E-05 -0.99999404 -0.00345627987
vn -1.56905498E-05 -0.99999404 -0.00345627987
vn -1.5690548E-05 -0.99999404 -0.00345627964
vn -1.5690548E-05 -0.99999404 -0.00345628033
vn 1.42576118E-05 0.99999404 0.00345623493
vn 1.42576137E-05 0.99999404 0.00345623563
vn 1.42576137E-05 0.99999404 0.00345623563
vn 1.42576127E-05 0.99999404 0.0034562354
vn -0.0329063945 7.26273754E-07 -0.999458492
vn -0.0329063945 7.26273754E-07 -0.999458492
vn -0.0329063945 7.26273754E-07 -0.999458492
vn -0.0329063945 7.26273754E-07 -0.999458492
vn 0.999233246 0 -0.0391509086
vn 0.999233246 0 -0.0391509086
vn 0.999233246 0 -0.039150916
vn 0.999233246 0 -0.0391509123
vn -0.0229155105 0 0.999737442
vn -0.0229155105 0 0.999737442
vn -0.0229155086 0 0.999737442
vn -0.0229155123 0 0.999737442
vn -0.999214649 0 0.039624244
vn -0.999214649 0 0.0396242365
vn -0.999214649 0 0.039624244
vn -0.999214649 0 0.0396242402
vn -0.00910219271 0.999812067 -0.0171207134
vn -0.00910219271 0.999812067 -0.0171207115
vn -0.00910219178 0.999812067 -0.0171207115
vn -0.00910219364 0.999812067 -0.0171207134
vn 0.947925389 0.0161508881 0.318082511
vn 0.947925389 0.0161508881 0.318082511
vn 0.947925389 0.0161508881 0.318082511
vn 0.947925389 0.0161508862 0.318082482
vn -0.968648672 -0.0155958235 -0.247944742
vn -0.968648672 -0.0155958217 -0.247944772
vn -0.968648672 -0.0155958217 -0.247944742
vn -0.968648672 -0.0155958235 -0.247944772
vn -0.392883509 0.0107441274 0.919525445
vn -0.392883509 0.0107441274 0.919525445
vn -0.392883509 0.0107441265 0.919525445
vn -0.392883569 0.0107441274 0.919525445
vn 0.318427712 -0.0123710008 -0.94786638
vn 0.318427771 -0.0123710027 -0.94786638
vn 0.318427742 -0.0123710018 -0.94786638
vn 0.318427742 -0.0123710018 -0.94786638
vn 0.00910143275 -0.999812067 0.0171218049
vn 0.00910143275 -0.999812067 0.0171218049
vn 0.00910143461 -0.999812067 0.0171218049
vn 0.00910143368 -0.999812067 0.0171218049
g Huowu_wuqi_0
f 3/3/3 2/2/2 1/1/1
f 2/2/2 4/4/4 1/1/1
f 1/1/1 4/4/4 5/5/5
f 4/4/4 6/6/6 5/5/5
f 6/6/6 7/7/7 5/5/5
f 7/7/7 8/8/8 5/5/5
f 8/8/8 7/7/7 9/9/9
f 7/7/7 10/10/10 9/9/9
f 10/10/10 11/11/11 9/9/9
f 11/11/11 12/12/12 9/9/9
f 12/12/12 11/11/11 13/13/13
f 11/11/11 14/14/14 13/13/13
f 14/14/14 15/15/15 13/13/13
f 15/15/15 16/16/16 13/13/13
f 16/16/16 15/15/15 17/17/17
f 15/15/15 18/18/18 17/17/17
f 18/18/18 19/19/19 17/17/17
f 19/19/19 20/20/20 17/17/17
f 20/20/20 19/19/19 21/21/21
f 19/19/19 22/22/22 21/21/21
f 22/22/22 23/23/23 21/21/21
f 23/23/23 24/24/24 21/21/21
f 25/25/25 24/24/24 23/23/23
f 26/26/26 25/25/25 23/23/23
f 26/26/26 27/27/27 25/25/25
f 27/27/27 28/28/28 25/25/25
f 28/28/28 27/27/27 29/29/29
f 27/27/27 30/30/30 29/29/29
f 30/30/30 31/31/31 29/29/29
f 31/31/31 32/32/32 29/29/29
f 32/32/32 31/31/31 33/33/33
f 31/31/31 34/34/34 33/33/33
f 34/34/34 35/35/35 33/33/33
f 35/35/35 36/36/36 33/33/33
f 36/36/36 35/35/35 37/37/37
f 35/35/35 38/38/38 37/37/37
f 38/38/38 39/39/39 37/37/37
f 39/39/39 40/40/40 37/37/37
f 40/40/40 39/39/39 41/41/41
f 39/39/39 42/42/42 41/41/41
f 42/42/42 43/43/43 41/41/41
f 43/43/43 44/44/44 41/41/41
f 45/45/45 44/44/44 43/43/43
f 46/46/46 45/45/45 43/43/43
f 46/46/46 47/47/47 45/45/45
f 47/47/47 48/48/48 45/45/45
f 48/48/48 47/47/47 49/49/49
f 47/47/47 50/50/50 49/49/49
f 49/49/49 50/50/50 51/51/51
f 52/52/52 49/49/49 51/51/51
f 55/55/55 54/54/54 53/53/53
f 56/56/56 55/55/55 53/53/53
f 56/56/56 53/53/53 57/57/57
f 58/58/58 56/56/56 57/57/57
f 59/59/59 58/58/58 57/57/57
f 60/60/60 59/59/59 57/57/57
f 59/59/59 60/60/60 61/61/61
f 62/62/62 59/59/59 61/61/61
f 63/63/63 62/62/62 61/61/61
f 64/64/64 63/63/63 61/61/61
f 63/63/63 64/64/64 65/65/65
f 66/66/66 63/63/63 65/65/65
f 67/67/67 66/66/66 65/65/65
f 68/68/68 67/67/67 65/65/65
f 67/67/67 68/68/68 69/69/69
f 70/70/70 67/67/67 69/69/69
f 71/71/71 70/70/70 69/69/69
f 72/72/72 71/71/71 69/69/69
f 71/71/71 72/72/72 73/73/73
f 74/74/74 71/71/71 73/73/73
f 75/75/75 74/74/74 73/73/73
f 76/76/76 75/75/75 73/73/73
f 76/76/76 77/77/77 75/75/75
f 77/77/77 78/78/78 75/75/75
f 79/79/79 78/78/78 77/77/77
f 80/80/80 79/79/79 77/77/77
f 79/79/79 80/80/80 81/81/81
f 82/82/82 79/79/79 81/81/81
f 83/83/83 82/82/82 81/81/81
f 84/84/84 83/83/83 81/81/81
f 83/83/83 84/84/84 85/85/85
f 86/86/86 83/83/83 85/85/85
f 87/87/87 86/86/86 85/85/85
f 88/88/88 87/87/87 85/85/85
f 87/87/87 88/88/88 89/89/89
f 90/90/90 87/87/87 89/89/89
f 91/91/91 90/90/90 89/89/89
f 92/92/92 91/91/91 89/89/89
f 91/91/91 92/92/92 93/93/93
f 94/94/94 91/91/91 93/93/93
f 95/95/95 94/94/94 93/93/93
f 96/96/96 95/95/95 93/93/93
f 96/96/96 97/97/97 95/95/95
f 97/97/97 98/98/98 95/95/95
f 98/98/98 97/97/97 99/99/99
f 97/97/97 100/100/100 99/99/99
f 100/100/100 101/101/101 99/99/99
f 101/101/101 102/102/102 99/99/99
f 102/102/102 101/101/101 103/103/103
f 101/101/101 104/104/104 103/103/103
f 107/107/107 106/106/106 105/105/105
f 108/108/108 107/107/107 105/105/105
f 108/108/108 105/105/105 109/109/109
f 105/105/105 110/110/110 109/109/109
f 109/109/109 110/110/110 111/111/111
f 112/112/112 109/109/109 111/111/111
f 112/112/112 111/111/111 113/113/113
f 111/111/111 114/114/114 113/113/113
f 113/113/113 114/114/114 115/115/115
f 116/116/116 113/113/113 115/115/115
f 116/116/116 115/115/115 117/117/117
f 115/115/115 118/118/118 117/117/117
f 117/117/117 118/118/118 119/119/119
f 120/120/120 117/117/117 119/119/119
f 120/120/120 119/119/119 121/121/121
f 119/119/119 122/122/122 121/121/121
f 121/121/121 122/122/122 123/123/123
f 124/124/124 121/121/121 123/123/123
f 124/124/124 123/123/123 125/125/125
f 123/123/123 126/126/126 125/125/125
f 125/125/125 126/126/126 127/127/127
f 128/128/128 125/125/125 127/127/127
f 128/128/128 127/127/127 129/129/129
f 127/127/127 130/130/130 129/129/129
f 129/129/129 130/130/130 131/131/131
f 132/132/132 129/129/129 131/131/131
f 132/132/132 131/131/131 133/133/133
f 131/131/131 134/134/134 133/133/133
f 133/133/133 134/134/134 135/135/135
f 136/136/136 133/133/133 135/135/135
f 136/136/136 135/135/135 137/137/137
f 135/135/135 138/138/138 137/137/137
f 137/137/137 138/138/138 139/139/139
f 140/140/140 137/137/137 139/139/139
f 140/140/140 139/139/139 141/141/141
f 139/139/139 142/142/142 141/141/141
f 141/141/141 142/142/142 143/143/143
f 144/144/144 141/141/141 143/143/143
f 144/144/144 143/143/143 145/145/145
f 143/143/143 146/146/146 145/145/145
f 145/145/145 146/146/146 147/147/147
f 148/148/148 145/145/145 147/147/147
f 148/148/148 147/147/147 149/149/149
f 147/147/147 150/150/150 149/149/149
f 149/149/149 150/150/150 151/151/151
f 152/152/152 149/149/149 151/151/151
f 152/152/152 151/151/151 153/153/153
f 151/151/151 154/154/154 153/153/153
f 153/153/153 154/154/154 155/155/155
f 156/156/156 153/153/153 155/155/155
f 159/159/159 158/158/158 157/157/157
f 160/160/160 159/159/159 157/157/157
f 163/163/163 162/162/162 161/161/161
f 164/164/164 163/163/163 161/161/161
f 164/164/164 165/165/165 163/163/163
f 165/165/165 166/166/166 163/163/163
f 167/167/167 166/166/166 165/165/165
f 168/168/168 167/167/167 165/165/165
f 168/168/168 169/169/169 167/167/167
f 169/169/169 170/170/170 167/167/167
f 171/171/171 170/170/170 169/169/169
f 172/172/172 171/171/171 169/169/169
f 172/172/172 173/173/173 171/171/171
f 173/173/173 174/174/174 171/171/171
f 175/175/175 174/174/174 173/173/173
f 176/176/176 175/175/175 173/173/173
f 176/176/176 177/177/177 175/175/175
f 177/177/177 178/178/178 175/175/175
f 179/179/179 178/178/178 177/177/177
f 180/180/180 179/179/179 177/177/177
f 180/180/180 181/181/181 179/179/179
f 181/181/181 182/182/182 179/179/179
f 183/183/183 182/182/182 181/181/181
f 184/184/184 183/183/183 181/181/181
f 184/184/184 185/185/185 183/183/183
f 185/185/185 186/186/186 183/183/183
f 187/187/187 186/186/186 185/185/185
f 188/188/188 187/187/187 185/185/185
f 188/188/188 189/189/189 187/187/187
f 189/189/189 190/190/190 187/187/187
f 191/191/191 190/190/190 189/189/189
f 192/192/192 191/191/191 189/189/189
f 192/192/192 193/193/193 191/191/191
f 193/193/193 194/194/194 191/191/191
f 195/195/195 194/194/194 193/193/193
f 196/196/196 195/195/195 193/193/193
f 196/196/196 197/197/197 195/195/195
f 197/197/197 198/198/198 195/195/195
f 199/199/199 198/198/198 197/197/197
f 200/200/200 199/199/199 197/197/197
f 200/200/200 201/201/201 199/199/199
f 201/201/201 202/202/202 199/199/199
f 203/203/203 202/202/202 201/201/201
f 204/204/204 203/203/203 201/201/201
f 205/205/205 203/203/203 204/204/204
f 206/206/206 205/205/205 204/204/204
f 206/206/206 207/207/207 205/205/205
f 207/207/207 208/208/208 205/205/205
f 209/209/209 208/208/208 207/207/207
f 210/210/210 209/209/209 207/207/207
f 210/210/210 211/211/211 209/209/209
f 211/211/211 212/212/212 209/209/209
f 215/215/215 214/214/214 213/213/213
f 216/216/216 215/215/215 213/213/213
f 219/219/219 218/218/218 217/217/217
f 220/220/220 219/219/219 217/217/217
f 223/223/223 222/222/222 221/221/221
f 224/224/224 223/223/223 221/221/221
f 227/227/227 226/226/226 225/225/225
f 228/228/228 227/227/227 225/225/225
f 231/231/231 230/230/230 229/229/229
f 232/232/232 231/231/231 229/229/229
f 235/235/235 234/234/234 233/233/233
f 236/236/236 235/235/235 233/233/233
f 239/239/239 238/238/238 237/237/237
f 240/240/240 239/239/239 237/237/237
f 243/243/243 242/242/242 241/241/241
f 244/244/244 243/243/243 241/241/241
f 247/247/247 246/246/246 245/245/245
f 248/248/248 247/247/247 245/245/245
f 251/251/251 250/250/250 249/249/249
f 252/252/252 251/251/251 249/249/249
f 255/255/255 254/254/254 253/253/253
f 256/256/256 255/255/255 253/253/253
f 259/259/259 258/258/258 257/257/257
f 260/260/260 259/259/259 257/257/257
f 263/263/263 262/262/262 261/261/261
f 264/264/264 263/263/263 261/261/261
f 267/267/267 266/266/266 265/265/265
f 268/268/268 267/267/267 265/265/265
f 271/271/271 270/270/270 269/269/269
f 272/272/272 271/271/271 269/269/269
f 275/275/275 274/274/274 273/273/273
f 276/276/276 275/275/275 273/273/273
f 279/279/279 278/278/278 277/277/277
f 280/280/280 279/279/279 277/277/277
f 283/283/283 282/282/282 281/281/281
f 284/284/284 283/283/283 281/281/281
f 287/287/287 286/286/286 285/285/285
f 288/288/288 287/287/287 285/285/285
f 291/291/291 290/290/290 289/289/289
f 292/292/292 291/291/291 289/289/289
f 295/295/295 294/294/294 293/293/293
f 296/296/296 295/295/295 293/293/293
f 299/299/299 298/298/298 297/297/297
f 300/300/300 299/299/299 297/297/297
f 303/303/303 302/302/302 301/301/301
f 304/304/304 303/303/303 301/301/301
f 307/307/307 306/306/306 305/305/305
f 308/308/308 307/307/307 305/305/305
f 311/311/311 310/310/310 309/309/309
f 312/312/312 311/311/311 309/309/309
f 315/315/315 314/314/314 313/313/313
f 316/316/316 315/315/315 313/313/313
f 319/319/319 318/318/318 317/317/317
f 320/320/320 319/319/319 317/317/317
f 323/323/323 322/322/322 321/321/321
f 324/324/324 323/323/323 321/321/321
f 327/327/327 326/326/326 325/325/325
f 328/328/328 327/327/327 325/325/325
f 331/331/331 330/330/330 329/329/329
f 332/332/332 331/331/331 329/329/329
f 335/335/335 334/334/334 333/333/333
f 336/336/336 335/335/335 333/333/333
