g Cylinder001
v 0.0339061916 0.0742442086 0
v 0.029034419 0.20193918 0.253715366
v 0.011615715 0.0807893053 0
v 0.0847511515 0.185579315 0.253715396
v 0.0534498133 0.0616843626 0
v 0.0447825119 0.311469644 0.507430732
v 0.133601993 0.154184967 0.253715366
v 0.0686631799 0.0441271514 0
v 0.130719706 0.286236256 0.507430732
v 0.058901757 0.409671545 0.761146069
v 0.171628982 0.110299274 0.253715366
v 0.0783139914 0.0229950584 0
v 0.206066653 0.237813681 0.507430732
v 0.171933666 0.376482308 0.761146188
v 0.071433939 0.496835172 1.01486146
v 0.195751682 0.0574778393 0.253715366
v 0.0816200897 -4.84466547E-08 0
v 0.264719337 0.170124784 0.507430673
v 0.271036386 0.312792808 0.761146069
v 0.208514914 0.456584394 1.01486146
v 0.0824208632 0.573251367 1.26857686
v 0.204015821 -4.84466547E-08 0.253715366
v 0.0783138499 -0.0229952037 0
v 0.301926106 0.0886535496 0.507430732
v 0.348181278 0.223762646 0.761146128
v 0.328703344 0.379344046 1.01486146
v 0.24058567 0.526809812 1.26857686
v 0.0919043943 0.639210463 1.5222919
v 0.268267959 0.587425351 1.52229202
v 0.379259855 0.437689424 1.26857698
v 0.422898024 0.488050818 1.52229202
v 0.195751548 -0.0574782006 0.253715366
v 0.0686631799 -0.0441272967 0
v 0.31467247 -4.84466547E-08 0.507430732
v 0.397118896 0.116604656 0.761146128
v 0.422261924 0.271371454 1.01486146
v 0.487208426 0.313109994 1.26857686
v 0.54326731 0.349136978 1.5222919
v 0.171628788 -0.110299543 0.253715366
v 0.053449668 -0.0616844594 0
v 0.301925957 -0.0886539146 0.507430673
v 0.413884044 0 0.761146188
v 0.481611669 0.141413987 1.01486135
v 0.555686355 0.163164407 1.26857686
v 0.619624555 0.181938305 1.5222919
v 0.133601755 -0.154185086 0.253715336
v 0.0339061171 -0.0742443502 0
v 0.264719188 -0.170125216 0.507430673
v 0.397118658 -0.116605088 0.761146009
v 0.501943767 0 1.01486146
v 0.57914573 7.26699838E-08 1.26857686
v 0.645783246 4.84466547E-08 1.5222919
v 0.0847510546 -0.185579494 0.253715366
v 0.0116156666 -0.0807894021 0
v 0.206066415 -0.237813964 0.507430732
v 0.348181129 -0.223763078 0.761146069
v 0.481611401 -0.141414553 1.01486135
v 0.555686057 -0.163164899 1.26857674
v 0.619624078 -0.181938931 1.5222919
v 0.0290342495 -0.201939359 0.253715366
v -0.0116158361 -0.0807893723 0
v 0.130719364 -0.286236495 0.507430673
v 0.271036148 -0.312793076 0.761146128
v 0.422261626 -0.271371901 1.01486135
v 0.487208158 -0.313110471 1.26857686
v 0.543267012 -0.349137515 1.5222919
v -0.0290346853 -0.201939344 0.253715396
v -0.0339063369 -0.0742443502 0
v 0.0447822474 -0.311469853 0.507430732
v 0.171933323 -0.376482427 0.761146069
v 0.328703016 -0.379344314 1.01486146
v 0.379259318 -0.437689692 1.26857698
v 0.422897637 -0.488051027 1.52229202
v -0.0847514421 -0.185579389 0.253715366
v -0.0534498617 -0.0616843402 0
v -0.0447828509 -0.311469793 0.507430673
v 0.0589014664 -0.409671515 0.761146128
v 0.208514571 -0.456584573 1.01486135
v 0.240585282 -0.526809871 1.26857686
v 0.268267423 -0.58742559 1.52229202
v -0.133602038 -0.154184848 0.253715396
v -0.0686632469 -0.0441271514 0
v -0.130720004 -0.286236316 0.507430673
v -0.0589021929 -0.409671456 0.761146069
v 0.0714335516 -0.496835023 1.01486158
v 0.0824204758 -0.573251128 1.26857698
v 0.09190391 -0.639210403 1.5222919
v -0.171629161 -0.110299319 0.253715456
v -0.0783139691 -0.0229951069 0
v -0.206066921 -0.237813637 0.507430792
v -0.171933889 -0.376482219 0.761146069
v -0.0714344978 -0.496835023 1.01486146
v -0.0824215934 -0.573251128 1.26857698
v -0.091905117 -0.639210403 1.52229202
v -0.195751846 -0.0574779846 0.253715336
v -0.0816201344 -2.42233273E-08 0
v -0.264719605 -0.170124903 0.507430732
v -0.271036685 -0.312792689 0.761146367
v -0.208515376 -0.456584275 1.01486135
v -0.240586251 -0.526809573 1.26857698
v -0.268268555 -0.587425172 1.5222919
v -0.20401594 -2.42233273E-08 0.253715366
v -0.0783139691 0.0229950342 0
v -0.301926285 -0.0886535719 0.507430673
v -0.348181635 -0.223762527 0.761146188
v -0.328703672 -0.379343837 1.01486158
v -0.379260242 -0.437689126 1.26857698
v -0.422898561 -0.488050401 1.52229238
v -0.195751801 0.0574777424 0.253715366
v -0.0686632991 0.0441270545 0
v -0.314672709 0 0.507430732
v -0.397119015 -0.116604507 0.761145949
v -0.422262341 -0.271371305 1.01486158
v -0.487208724 -0.313109756 1.26857686
v -0.543267846 -0.34913671 1.52229238
v -0.171629161 0.110299222 0.253715396
v -0.0534498617 0.0616843142 0
v -0.301926255 0.0886536986 0.507430673
v -0.413884223 7.26699838E-08 0.761146188
v -0.481611818 -0.141413927 1.01486123
v -0.555686474 -0.163164124 1.26857638
v -0.619624794 -0.181938082 1.5222919
v -0.133602038 0.154184967 0.253715366
v -0.0339062884 0.0742442533 0
v -0.264719576 0.170124739 0.507430732
v -0.397119015 0.116604559 0.761146009
v -0.501944065 7.26699838E-08 1.01486146
v -0.579145968 1.21116642E-07 1.26857686
v -0.645783544 1.21116642E-07 1.5222919
v -0.0847513154 0.185579315 0.253715366
v -0.0116158361 0.0807893053 0
v -0.206066832 0.237813726 0.507430732
v -0.348181546 0.223762557 0.761146009
v -0.481611878 0.141413987 1.01486135
v -0.555686474 0.163164213 1.2685765
v -0.619624794 0.181938365 1.5222919
v -0.0290345885 0.201939225 0.253715366
v 0.011615715 0.0807893053 0
v 0.029034419 0.20193918 0.253715366
v -0.130719885 0.286236197 0.507430732
v -0.0447827056 0.311469704 0.507430673
v 0.0447825119 0.311469644 0.507430732
v -0.271036565 0.312792778 0.761146367
v -0.422262251 0.271371335 1.01486146
v -0.487208635 0.313110054 1.26857674
v -0.543267727 0.349136978 1.5222919
v -0.0589019991 0.409671456 0.761146188
v 0.058901757 0.409671545 0.761146069
v -0.17193377 0.376482308 0.761146188
v -0.328703552 0.379343837 1.01486135
v -0.379260033 0.437689215 1.26857638
v -0.422898352 0.48805064 1.5222919
v -0.208515182 0.456584275 1.01486146
v -0.071434252 0.496835083 1.01486146
v 0.071433939 0.496835172 1.01486146
v -0.240586042 0.526809812 1.2685771
v -0.268268287 0.587425351 1.5222919
v -0.0824212283 0.573251247 1.26857686
v 0.0824208632 0.573251367 1.26857686
v -0.0919048041 0.639210463 1.5222919
v 0.0919043943 0.639210463 1.5222919
vt 0.931818187 0
vt 0.977272689 0.166666687
vt 0.977272689 0
vt 0.931818187 0.166666687
vt 0.886363626 0
vt 0.977272689 0.333333343
vt 0.886363626 0.166666687
vt 0.840909064 0
vt 0.931818187 0.333333343
vt 0.977272689 0.5
vt 0.840909064 0.166666687
vt 0.795454562 0
vt 0.886363626 0.333333343
vt 0.931818187 0.5
vt 0.977272689 0.666666687
vt 0.795454562 0.166666687
vt 0.75 0
vt 0.840909064 0.333333343
vt 0.886363626 0.5
vt 0.931818187 0.666666687
vt 0.977272689 0.833333373
vt 0.75 0.166666687
vt 0.7045452 0
vt 0.795454562 0.333333343
vt 0.840909064 0.5
vt 0.886363626 0.666666687
vt 0.931818187 0.833333373
vt 0.977272689 1
vt 0.931818187 1
vt 0.886363626 0.833333373
vt 0.886363626 1
vt 0.7045452 0.166666687
vt 0.659090757 0
vt 0.75 0.333333343
vt 0.795454562 0.5
vt 0.840909064 0.666666687
vt 0.840909064 0.833333373
vt 0.840909064 1
vt 0.659090757 0.166666687
vt 0.613636196 0
vt 0.7045452 0.333333343
vt 0.75 0.5
vt 0.795454562 0.666666687
vt 0.795454562 0.833333373
vt 0.795454562 1
vt 0.613636196 0.166666687
vt 0.568181694 0
vt 0.659090757 0.333333343
vt 0.7045452 0.5
vt 0.75 0.666666687
vt 0.75 0.833333373
vt 0.75 1
vt 0.568181694 0.166666687
vt 0.522727132 0
vt 0.613636196 0.333333343
vt 0.659090757 0.5
vt 0.7045452 0.666666687
vt 0.7045452 0.833333373
vt 0.7045452 1
vt 0.522727132 0.166666687
vt 0.47727263 0
vt 0.568181694 0.333333343
vt 0.613636196 0.5
vt 0.659090757 0.666666687
vt 0.659090757 0.833333373
vt 0.659090757 1
vt 0.47727263 0.166666687
vt 0.431818098 0
vt 0.522727132 0.333333343
vt 0.568181694 0.5
vt 0.613636196 0.666666687
vt 0.613636196 0.833333373
vt 0.613636196 1
vt 0.431818098 0.166666687
vt 0.386363566 0
vt 0.47727263 0.333333343
vt 0.522727132 0.5
vt 0.568181694 0.666666687
vt 0.568181694 0.833333373
vt 0.568181694 1
vt 0.386363566 0.166666687
vt 0.340909034 0
vt 0.431818098 0.333333343
vt 0.47727263 0.5
vt 0.522727132 0.666666687
vt 0.522727132 0.833333373
vt 0.522727132 1
vt 0.340909034 0.166666687
vt 0.295454502 0
vt 0.386363566 0.333333343
vt 0.431818098 0.5
vt 0.47727263 0.666666687
vt 0.47727263 0.833333373
vt 0.47727263 1
vt 0.295454502 0.166666687
vt 0.249999985 0
vt 0.340909034 0.333333343
vt 0.386363566 0.5
vt 0.431818098 0.666666687
vt 0.431818098 0.833333373
vt 0.431818098 1
vt 0.249999985 0.166666687
vt 0.204545453 0
vt 0.295454502 0.333333343
vt 0.340909034 0.5
vt 0.386363566 0.666666687
vt 0.386363566 0.833333373
vt 0.386363566 1
vt 0.204545453 0.166666687
vt 0.159090921 0
vt 0.249999985 0.333333343
vt 0.295454502 0.5
vt 0.340909034 0.666666687
vt 0.340909034 0.833333373
vt 0.340909034 1
vt 0.159090921 0.166666687
vt 0.113636397 0
vt 0.204545453 0.333333343
vt 0.249999985 0.5
vt 0.295454502 0.666666687
vt 0.295454502 0.833333373
vt 0.295454502 1
vt 0.113636397 0.166666687
vt 0.0681818649 0
vt 0.159090921 0.333333343
vt 0.204545453 0.5
vt 0.249999985 0.666666687
vt 0.249999985 0.833333373
vt 0.249999985 1
vt 0.0681818649 0.166666687
vt 0.0227273013 0
vt 0.113636397 0.333333343
vt 0.159090921 0.5
vt 0.204545453 0.666666687
vt 0.204545453 0.833333373
vt 0.204545453 1
vt 0.0227273013 0.166666687
vt -0.0227273107 0
vt -0.0227273107 0.166666687
vt 0.0681818649 0.333333343
vt 0.0227273013 0.333333343
vt -0.0227273107 0.333333343
vt 0.113636397 0.5
vt 0.159090921 0.666666687
vt 0.159090921 0.833333373
vt 0.159090921 1
vt 0.0227273013 0.5
vt -0.0227273107 0.5
vt 0.0681818649 0.5
vt 0.113636397 0.666666687
vt 0.113636397 0.833333373
vt 0.113636397 1
vt 0.0681818649 0.666666687
vt 0.0227273013 0.666666687
vt -0.0227273107 0.666666687
vt 0.0681818649 0.833333373
vt 0.0681818649 1
vt 0.0227273013 0.833333373
vt -0.0227273107 0.833333373
vt 0.0227273013 1
vt -0.0227273107 1
vn 0.374151945 0.819281876 -0.434496939
vn 0.129379869 0.899855912 -0.41655755
vn 0.128179327 0.891505718 -0.43449685
vn 0.377656788 0.826955378 -0.41655755
vn 0.589815259 0.680683613 -0.434497178
vn 0.131555304 0.91498661 -0.381435066
vn 0.595340014 0.687059045 -0.41655758
vn 0.757695019 0.486940295 -0.43449679
vn 0.384007603 0.840860009 -0.381434917
vn 0.133549213 0.928854465 -0.345534414
vn 0.764791787 0.491501242 -0.416557431
vn 0.864189744 0.253749162 -0.43449676
vn 0.605350733 0.698611557 -0.381434828
vn 0.389828324 0.853604078 -0.345534235
vn 0.135348424 0.941367626 -0.309043318
vn 0.872283995 0.256125778 -0.416557431
vn 0.900673389 -1.43567934E-06 -0.43449682
vn 0.77765131 0.499766022 -0.381434709
vn 0.614525616 0.709199846 -0.345534146
vn 0.395079911 0.865103543 -0.309043169
vn 0.136942849 0.952456772 -0.272162825
vn 0.909109414 -9.51201059E-07 -0.416557461
vn 0.864189506 -0.253750205 -0.434496641
vn 0.886951208 0.260432482 -0.381434888
vn 0.789437532 0.507340908 -0.345534056
vn 0.622804224 0.718753934 -0.309043199
vn 0.399733782 0.875294387 -0.272162825
vn 0.137646705 0.957351327 -0.254031032
vn 0.401787937 0.879792333 -0.254031092
vn 0.630140662 0.727220774 -0.272162884
vn 0.633378744 0.730958045 -0.254031152
vn 0.872283757 -0.256126702 -0.416557521
vn 0.757694304 -0.486941278 -0.43449679
vn 0.9243958 -5.56047382E-07 -0.381434828
vn 0.900394082 0.26437974 -0.345534056
vn 0.800072432 0.514175475 -0.309043169
vn 0.809497237 0.52023232 -0.272162765
vn 0.813657045 0.522905767 -0.254030913
vn 0.764791012 -0.491502255 -0.416557521
vn 0.589814961 -0.68068397 -0.434496999
vn 0.886951029 -0.260433018 -0.381434888
vn 0.938406289 -5.65802623E-07 -0.345533907
vn 0.912523806 0.267941147 -0.30904308
vn 0.923273265 0.271097571 -0.272162884
vn 0.928017795 0.27249071 -0.254031032
vn 0.595339537 -0.687059343 -0.41655758
vn 0.37415266 -0.819281459 -0.434496999
vn 0.777650654 -0.499766797 -0.381434888
vn 0.900394082 -0.264380127 -0.345533937
vn 0.951048017 -6.25904761E-07 -0.30904302
vn 0.962251246 -6.52433243E-07 -0.272162825
vn 0.967196107 -7.00938472E-07 -0.254031003
vn 0.377657056 -0.82695514 -0.41655767
vn 0.128178477 -0.891505837 -0.434497058
vn 0.605349958 -0.698612094 -0.381434828
vn 0.789437056 -0.507341444 -0.345533907
vn 0.912523746 -0.267941833 -0.30904302
vn 0.923273087 -0.271098107 -0.272162706
vn 0.928017676 -0.272491336 -0.254030824
vn 0.129379079 -0.899856031 -0.41655767
vn -0.128179178 -0.891505718 -0.434497058
vn 0.384007126 -0.840860188 -0.381434858
vn 0.614524901 -0.709200561 -0.345533997
vn 0.800072134 -0.51417613 -0.30904305
vn 0.80949676 -0.520232916 -0.272162735
vn 0.813656747 -0.522906303 -0.254031003
vn -0.129379958 -0.899855793 -0.41655767
vn -0.374154478 -0.819280565 -0.434497118
vn 0.131554633 -0.914986789 -0.381434768
vn 0.389827251 -0.853604674 -0.345534027
vn 0.622803569 -0.71875453 -0.309042931
vn 0.630139887 -0.727221549 -0.272162735
vn 0.63337791 -0.730958641 -0.254031181
vn -0.377658874 -0.826954305 -0.416557848
vn -0.58981657 -0.68068254 -0.434496939
vn -0.131555662 -0.91498667 -0.381434917
vn 0.133548573 -0.928854644 -0.345534027
vn 0.395078689 -0.865104139 -0.309042901
vn 0.399732798 -0.875294864 -0.272162765
vn 0.401786894 -0.879792809 -0.254031211
vn -0.595340669 -0.68705833 -0.41655761
vn -0.757694185 -0.486941308 -0.434497088
vn -0.384008974 -0.840859413 -0.381434858
vn -0.133549541 -0.928854525 -0.345534086
vn 0.135347664 -0.941367865 -0.30904296
vn 0.136942148 -0.952457011 -0.272162795
vn 0.13764587 -0.957351446 -0.254031241
vn -0.764791071 -0.491502017 -0.416557699
vn -0.864189506 -0.253749192 -0.434497207
vn -0.605351031 -0.698611319 -0.381434739
vn -0.38982898 -0.85360384 -0.345534146
vn -0.135348678 -0.941367745 -0.30904308
vn -0.136943176 -0.952456772 -0.272162825
vn -0.137646914 -0.957351208 -0.25403136
vn -0.872283936 -0.256125748 -0.416557848
vn -0.900673211 4.92364336E-07 -0.434497118
vn -0.777650952 -0.499766469 -0.381434828
vn -0.614525974 -0.709199607 -0.345533997
vn -0.395080566 -0.865103364 -0.309043109
vn -0.399734527 -0.875294149 -0.272162825
vn -0.401788771 -0.879791975 -0.254031271
vn -0.909109235 4.09711305E-07 -0.416557699
vn -0.864189744 0.253748864 -0.434496939
vn -0.886951208 -0.260432303 -0.381434888
vn -0.789437532 -0.507340908 -0.345533997
vn -0.622804523 -0.718753695 -0.309043109
vn -0.630140901 -0.727220654 -0.272162676
vn -0.63337934 -0.730957508 -0.254031032
vn -0.872283995 0.256125569 -0.416557729
vn -0.757695138 0.486939728 -0.434496999
vn -0.92439568 0 -0.381434828
vn -0.900394201 -0.264379412 -0.345534116
vn -0.800072491 -0.514175355 -0.309043169
vn -0.809497237 -0.52023226 -0.272162706
vn -0.813657224 -0.522905648 -0.254030943
vn -0.764791787 0.491501004 -0.41655767
vn -0.589815736 0.680683136 -0.434497207
vn -0.886951089 0.260432571 -0.381434917
vn -0.938406169 0 -0.345534056
vn -0.912523925 -0.267941028 -0.309043139
vn -0.923273385 -0.271097332 -0.272162825
vn -0.928017795 -0.27249065 -0.254031122
vn -0.595340133 0.687058866 -0.416557729
vn -0.37415278 0.81928134 -0.434496999
vn -0.777651191 0.499766022 -0.381434768
vn -0.900394082 0.264379621 -0.345534116
vn -0.951048017 0 -0.30904302
vn -0.962251246 0 -0.272162825
vn -0.967195988 0 -0.254031271
vn -0.377657354 0.82695502 -0.41655758
vn -0.128178731 0.891505837 -0.434496969
vn -0.605350614 0.698611557 -0.381434709
vn -0.789437354 0.507340908 -0.345534027
vn -0.912523806 0.267941147 -0.309043139
vn -0.923273265 0.271097332 -0.272162944
vn -0.928017795 0.272490531 -0.25403133
vn -0.129379466 0.899855912 -0.41655755
vn 0.128179327 0.891505718 -0.43449685
vn 0.129379869 0.899855912 -0.41655755
vn -0.384007961 0.84085989 -0.381434828
vn -0.131555349 0.91498661 -0.381435037
vn 0.131555304 0.91498661 -0.381435066
vn -0.614525557 0.709199965 -0.345533967
vn -0.800072491 0.514175415 -0.309043318
vn -0.809497178 0.52023232 -0.272163033
vn -0.813657105 0.522905648 -0.254031241
vn -0.13354972 0.928854465 -0.345534265
vn 0.133549213 0.928854465 -0.345534414
vn -0.389828414 0.853604138 -0.345534116
vn -0.622804105 0.718753994 -0.309043348
vn -0.630140483 0.727220833 -0.272163123
vn -0.633378685 0.730957985 -0.254031241
vn -0.395080149 0.865103483 -0.309043318
vn -0.135349035 0.941367507 -0.309043318
vn 0.135348424 0.941367626 -0.309043318
vn -0.39973399 0.875294209 -0.272163033
vn -0.401788086 0.879792273 -0.254031271
vn -0.136943206 0.952456772 -0.272163004
vn 0.136942849 0.952456772 -0.272162825
vn -0.137646809 0.957351327 -0.254031181
vn 0.137646705 0.957351327 -0.254031032
g Cylinder001_0
f 3/3/3 2/2/2 1/1/1
f 2/2/2 4/4/4 1/1/1
f 1/1/1 4/4/4 5/5/5
f 2/2/2 6/6/6 4/4/4
f 4/4/4 7/7/7 5/5/5
f 5/5/5 7/7/7 8/8/8
f 6/6/6 9/9/9 4/4/4
f 4/4/4 9/9/9 7/7/7
f 6/6/6 10/10/10 9/9/9
f 7/7/7 11/11/11 8/8/8
f 8/8/8 11/11/11 12/12/12
f 9/9/9 13/13/13 7/7/7
f 7/7/7 13/13/13 11/11/11
f 10/10/10 14/14/14 9/9/9
f 9/9/9 14/14/14 13/13/13
f 10/10/10 15/15/15 14/14/14
f 11/11/11 16/16/16 12/12/12
f 12/12/12 16/16/16 17/17/17
f 13/13/13 18/18/18 11/11/11
f 11/11/11 18/18/18 16/16/16
f 14/14/14 19/19/19 13/13/13
f 13/13/13 19/19/19 18/18/18
f 15/15/15 20/20/20 14/14/14
f 14/14/14 20/20/20 19/19/19
f 15/15/15 21/21/21 20/20/20
f 16/16/16 22/22/22 17/17/17
f 17/17/17 22/22/22 23/23/23
f 18/18/18 24/24/24 16/16/16
f 16/16/16 24/24/24 22/22/22
f 19/19/19 25/25/25 18/18/18
f 18/18/18 25/25/25 24/24/24
f 20/20/20 26/26/26 19/19/19
f 19/19/19 26/26/26 25/25/25
f 21/21/21 27/27/27 20/20/20
f 20/20/20 27/27/27 26/26/26
f 21/21/21 28/28/28 27/27/27
f 28/28/28 29/29/29 27/27/27
f 27/27/27 29/29/29 30/30/30
f 27/27/27 30/30/30 26/26/26
f 29/29/29 31/31/31 30/30/30
f 22/22/22 32/32/32 23/23/23
f 23/23/23 32/32/32 33/33/33
f 24/24/24 34/34/34 22/22/22
f 22/22/22 34/34/34 32/32/32
f 25/25/25 35/35/35 24/24/24
f 24/24/24 35/35/35 34/34/34
f 26/26/26 36/36/36 25/25/25
f 26/26/26 30/30/30 36/36/36
f 25/25/25 36/36/36 35/35/35
f 30/30/30 31/31/31 37/37/37
f 30/30/30 37/37/37 36/36/36
f 31/31/31 38/38/38 37/37/37
f 32/32/32 39/39/39 33/33/33
f 33/33/33 39/39/39 40/40/40
f 34/34/34 41/41/41 32/32/32
f 32/32/32 41/41/41 39/39/39
f 35/35/35 42/42/42 34/34/34
f 34/34/34 42/42/42 41/41/41
f 36/36/36 43/43/43 35/35/35
f 36/36/36 37/37/37 43/43/43
f 35/35/35 43/43/43 42/42/42
f 37/37/37 38/38/38 44/44/44
f 37/37/37 44/44/44 43/43/43
f 38/38/38 45/45/45 44/44/44
f 39/39/39 46/46/46 40/40/40
f 40/40/40 46/46/46 47/47/47
f 41/41/41 48/48/48 39/39/39
f 39/39/39 48/48/48 46/46/46
f 42/42/42 49/49/49 41/41/41
f 41/41/41 49/49/49 48/48/48
f 43/43/43 50/50/50 42/42/42
f 43/43/43 44/44/44 50/50/50
f 42/42/42 50/50/50 49/49/49
f 44/44/44 45/45/45 51/51/51
f 44/44/44 51/51/51 50/50/50
f 45/45/45 52/52/52 51/51/51
f 46/46/46 53/53/53 47/47/47
f 47/47/47 53/53/53 54/54/54
f 48/48/48 55/55/55 46/46/46
f 46/46/46 55/55/55 53/53/53
f 49/49/49 56/56/56 48/48/48
f 48/48/48 56/56/56 55/55/55
f 50/50/50 57/57/57 49/49/49
f 50/50/50 51/51/51 57/57/57
f 49/49/49 57/57/57 56/56/56
f 51/51/51 52/52/52 58/58/58
f 51/51/51 58/58/58 57/57/57
f 52/52/52 59/59/59 58/58/58
f 53/53/53 60/60/60 54/54/54
f 54/54/54 60/60/60 61/61/61
f 55/55/55 62/62/62 53/53/53
f 53/53/53 62/62/62 60/60/60
f 56/56/56 63/63/63 55/55/55
f 55/55/55 63/63/63 62/62/62
f 57/57/57 64/64/64 56/56/56
f 57/57/57 58/58/58 64/64/64
f 56/56/56 64/64/64 63/63/63
f 58/58/58 59/59/59 65/65/65
f 58/58/58 65/65/65 64/64/64
f 59/59/59 66/66/66 65/65/65
f 60/60/60 67/67/67 61/61/61
f 61/61/61 67/67/67 68/68/68
f 62/62/62 69/69/69 60/60/60
f 60/60/60 69/69/69 67/67/67
f 63/63/63 70/70/70 62/62/62
f 62/62/62 70/70/70 69/69/69
f 64/64/64 71/71/71 63/63/63
f 64/64/64 65/65/65 71/71/71
f 63/63/63 71/71/71 70/70/70
f 65/65/65 66/66/66 72/72/72
f 65/65/65 72/72/72 71/71/71
f 66/66/66 73/73/73 72/72/72
f 67/67/67 74/74/74 68/68/68
f 68/68/68 74/74/74 75/75/75
f 69/69/69 76/76/76 67/67/67
f 67/67/67 76/76/76 74/74/74
f 70/70/70 77/77/77 69/69/69
f 69/69/69 77/77/77 76/76/76
f 71/71/71 78/78/78 70/70/70
f 71/71/71 72/72/72 78/78/78
f 70/70/70 78/78/78 77/77/77
f 72/72/72 73/73/73 79/79/79
f 72/72/72 79/79/79 78/78/78
f 73/73/73 80/80/80 79/79/79
f 74/74/74 81/81/81 75/75/75
f 75/75/75 81/81/81 82/82/82
f 76/76/76 83/83/83 74/74/74
f 74/74/74 83/83/83 81/81/81
f 77/77/77 84/84/84 76/76/76
f 76/76/76 84/84/84 83/83/83
f 78/78/78 85/85/85 77/77/77
f 78/78/78 79/79/79 85/85/85
f 77/77/77 85/85/85 84/84/84
f 79/79/79 80/80/80 86/86/86
f 79/79/79 86/86/86 85/85/85
f 80/80/80 87/87/87 86/86/86
f 81/81/81 88/88/88 82/82/82
f 82/82/82 88/88/88 89/89/89
f 83/83/83 90/90/90 81/81/81
f 81/81/81 90/90/90 88/88/88
f 84/84/84 91/91/91 83/83/83
f 83/83/83 91/91/91 90/90/90
f 85/85/85 92/92/92 84/84/84
f 85/85/85 86/86/86 92/92/92
f 84/84/84 92/92/92 91/91/91
f 86/86/86 87/87/87 93/93/93
f 86/86/86 93/93/93 92/92/92
f 87/87/87 94/94/94 93/93/93
f 88/88/88 95/95/95 89/89/89
f 89/89/89 95/95/95 96/96/96
f 90/90/90 97/97/97 88/88/88
f 88/88/88 97/97/97 95/95/95
f 91/91/91 98/98/98 90/90/90
f 90/90/90 98/98/98 97/97/97
f 92/92/92 99/99/99 91/91/91
f 92/92/92 93/93/93 99/99/99
f 91/91/91 99/99/99 98/98/98
f 93/93/93 94/94/94 100/100/100
f 93/93/93 100/100/100 99/99/99
f 94/94/94 101/101/101 100/100/100
f 95/95/95 102/102/102 96/96/96
f 96/96/96 102/102/102 103/103/103
f 97/97/97 104/104/104 95/95/95
f 95/95/95 104/104/104 102/102/102
f 98/98/98 105/105/105 97/97/97
f 97/97/97 105/105/105 104/104/104
f 99/99/99 106/106/106 98/98/98
f 99/99/99 100/100/100 106/106/106
f 98/98/98 106/106/106 105/105/105
f 100/100/100 101/101/101 107/107/107
f 100/100/100 107/107/107 106/106/106
f 101/101/101 108/108/108 107/107/107
f 102/102/102 109/109/109 103/103/103
f 103/103/103 109/109/109 110/110/110
f 104/104/104 111/111/111 102/102/102
f 102/102/102 111/111/111 109/109/109
f 105/105/105 112/112/112 104/104/104
f 104/104/104 112/112/112 111/111/111
f 106/106/106 113/113/113 105/105/105
f 106/106/106 107/107/107 113/113/113
f 105/105/105 113/113/113 112/112/112
f 107/107/107 108/108/108 114/114/114
f 107/107/107 114/114/114 113/113/113
f 108/108/108 115/115/115 114/114/114
f 109/109/109 116/116/116 110/110/110
f 110/110/110 116/116/116 117/117/117
f 111/111/111 118/118/118 109/109/109
f 109/109/109 118/118/118 116/116/116
f 112/112/112 119/119/119 111/111/111
f 111/111/111 119/119/119 118/118/118
f 113/113/113 120/120/120 112/112/112
f 113/113/113 114/114/114 120/120/120
f 112/112/112 120/120/120 119/119/119
f 114/114/114 115/115/115 121/121/121
f 114/114/114 121/121/121 120/120/120
f 115/115/115 122/122/122 121/121/121
f 116/116/116 123/123/123 117/117/117
f 117/117/117 123/123/123 124/124/124
f 118/118/118 125/125/125 116/116/116
f 116/116/116 125/125/125 123/123/123
f 119/119/119 126/126/126 118/118/118
f 118/118/118 126/126/126 125/125/125
f 120/120/120 127/127/127 119/119/119
f 120/120/120 121/121/121 127/127/127
f 119/119/119 127/127/127 126/126/126
f 121/121/121 122/122/122 128/128/128
f 121/121/121 128/128/128 127/127/127
f 122/122/122 129/129/129 128/128/128
f 123/123/123 130/130/130 124/124/124
f 124/124/124 130/130/130 131/131/131
f 125/125/125 132/132/132 123/123/123
f 123/123/123 132/132/132 130/130/130
f 126/126/126 133/133/133 125/125/125
f 125/125/125 133/133/133 132/132/132
f 127/127/127 134/134/134 126/126/126
f 127/127/127 128/128/128 134/134/134
f 126/126/126 134/134/134 133/133/133
f 128/128/128 129/129/129 135/135/135
f 128/128/128 135/135/135 134/134/134
f 129/129/129 136/136/136 135/135/135
f 130/130/130 137/137/137 131/131/131
f 131/131/131 137/137/137 138/138/138
f 137/137/137 139/139/139 138/138/138
f 132/132/132 140/140/140 130/130/130
f 130/130/130 140/140/140 137/137/137
f 137/137/137 141/141/141 139/139/139
f 140/140/140 141/141/141 137/137/137
f 141/141/141 142/142/142 139/139/139
f 133/133/133 143/143/143 132/132/132
f 132/132/132 143/143/143 140/140/140
f 134/134/134 144/144/144 133/133/133
f 134/134/134 135/135/135 144/144/144
f 133/133/133 144/144/144 143/143/143
f 135/135/135 136/136/136 145/145/145
f 135/135/135 145/145/145 144/144/144
f 136/136/136 146/146/146 145/145/145
f 141/141/141 147/147/147 142/142/142
f 147/147/147 148/148/148 142/142/142
f 140/140/140 149/149/149 141/141/141
f 143/143/143 149/149/149 140/140/140
f 149/149/149 147/147/147 141/141/141
f 144/144/144 150/150/150 143/143/143
f 144/144/144 145/145/145 150/150/150
f 143/143/143 150/150/150 149/149/149
f 145/145/145 146/146/146 151/151/151
f 145/145/145 151/151/151 150/150/150
f 146/146/146 152/152/152 151/151/151
f 150/150/150 153/153/153 149/149/149
f 149/149/149 153/153/153 147/147/147
f 150/150/150 151/151/151 153/153/153
f 147/147/147 154/154/154 148/148/148
f 153/153/153 154/154/154 147/147/147
f 154/154/154 155/155/155 148/148/148
f 151/151/151 152/152/152 156/156/156
f 151/151/151 156/156/156 153/153/153
f 153/153/153 156/156/156 154/154/154
f 152/152/152 157/157/157 156/156/156
f 154/154/154 158/158/158 155/155/155
f 156/156/156 158/158/158 154/154/154
f 156/156/156 157/157/157 158/158/158
f 158/158/158 159/159/159 155/155/155
f 157/157/157 160/160/160 158/158/158
f 158/158/158 160/160/160 159/159/159
f 160/160/160 161/161/161 159/159/159
