g Plane001
v 0.622431934 -0.0138498405 1.69631374
v 0.606353581 0.0645599812 1.66597366
v 0.633784652 -0.000251759542 1.73315096
v 0.620951176 0.0801525339 1.70742595
v 0.64513737 0.0133463237 1.7699883
v 0.58093828 0.137460157 1.63679469
v 0.63554883 0.0957450792 1.74887812
v 0.598390639 0.158163518 1.6815753
v 0.546611905 0.205489606 1.60828888
v 0.615842998 0.178866893 1.72635579
v 0.566255808 0.232615694 1.65559471
v 0.504147887 0.267541617 1.58054578
v 0.585899532 0.2597422 1.70289993
v 0.524881303 0.302317679 1.62947905
v 0.454467326 0.32262978 1.55364132
v 0.54561466 0.337093771 1.67841232
v 0.474767148 0.366059691 1.60322499
v 0.398612618 0.36991328 1.52763605
v 0.495066971 0.409489542 1.65280855
v 0.416594237 0.422646344 1.576828
v 0.329641223 0.412206084 1.499681
v 0.434575856 0.475379407 1.62601972
v 0.350629538 0.469917923 1.55026627
v 0.262734532 0.439572006 1.47514594
v 0.371617854 0.527629733 1.60085166
v 0.278695971 0.507190228 1.52354491
v 0.193896502 0.457189709 1.45158672
v 0.294657379 0.574808538 1.57194364
v 0.202465802 0.534198821 1.4966675
v 0.124439038 0.465024859 1.42899609
v 0.211034596 0.611208141 1.54174829
v 0.123318136 0.550297618 1.46962917
v 0.0556367375 0.463204384 1.40734684
v 0.122196756 0.635570467 1.51026213
v 0.0427659042 0.555016875 1.4424243
v -0.0112879006 0.451999784 1.38659072
v 0.0298950747 0.646829426 1.47750163
v -0.0375662483 0.548095822 1.41504741
v -0.0751761049 0.431809932 1.36665881
v -0.0638436079 0.64419204 1.44350433
v -0.115972921 0.529511333 1.3874929
v -0.1349345 0.403146297 1.34746158
v -0.156769261 0.627212882 1.40832734
v -0.190704241 0.499502361 1.35975468
v -0.189538106 0.366620719 1.32889009
v -0.246473998 0.595858514 1.37204778
v -0.260011196 0.458586782 1.33182609
v -0.238024548 0.322940409 1.31081653
v -0.330483884 0.550553143 1.33476233
v -0.322189599 0.407573611 1.30370104
v -0.279494166 0.272906601 1.29309642
v -0.406354994 0.492206484 1.29658532
v -0.375638813 0.347560406 1.27537215
v -0.313107491 0.217421606 1.27556992
v -0.471783757 0.422213852 1.25764775
v -0.41890949 0.279928207 1.24683237
v -0.338092387 0.157496825 1.25806403
v -0.524712026 0.3424339 1.21809459
v -0.450761497 0.206318066 1.21807432
v -0.353756011 0.0942669213 1.24039567
v -0.563430667 0.255138844 1.17808437
v -0.470213383 0.128603831 1.18909001
v -0.359505773 0.0289992765 1.22237337
v -0.586670756 0.162940726 1.13778424
v -0.476590574 0.0488471724 1.15987086
v -0.35487929 -0.0368949883 1.20380175
v -0.593675375 0.0686955601 1.09736848
v -0.469564646 -0.0307492074 1.13040876
v -0.339583397 -0.101863369 1.18448377
v -0.584250033 -0.0246029403 1.05701602
v -0.449185312 -0.107905269 1.10069454
v -0.313539177 -0.164218217 1.1642251
v -0.558786988 -0.113947637 1.01690495
v -0.415900528 -0.180328533 1.07071817
v -0.276930332 -0.222164676 1.14283681
v -0.51826185 -0.196438834 0.977211297
v -0.370566279 -0.245785385 1.04047024
v -0.230250433 -0.273837924 1.1201396
v -0.464202195 -0.26940608 0.938103676
v -0.314439684 -0.302177936 1.00993979
v -0.18139419 -0.312903941 1.09920979
v -0.39862898 -0.330517948 0.89974004
v -0.248951688 -0.347234458 0.979106963
v -0.11579819 -0.346351862 1.07271218
v -0.316509157 -0.381564975 0.859004259
v -0.175906539 -0.378207833 0.947935164
v -0.044002369 -0.367370158 1.04441226
v -0.236014873 -0.410063773 0.823158205
v -0.098579973 -0.395035535 0.916440189
v 0.0317044109 -0.374567419 1.01421642
v -0.153157339 -0.422701001 0.788468063
v -0.0196186844 -0.397013336 0.884608567
v 0.108677246 -0.366970658 0.9820593
v -0.0709415302 -0.419459224 0.75500083
v 0.0581944175 -0.38392663 0.852426529
v 0.184784412 -0.340993434 0.946976602
v 0.00771159632 -0.400882602 0.722793818
v 0.130938455 -0.353851229 0.81981796
v 0.254541367 -0.299414486 0.909980416
v 0.0770918876 -0.366709381 0.692659497
v 0.195902914 -0.309776425 0.786810935
v 0.315074176 -0.243727714 0.871037424
v 0.13726446 -0.320138365 0.663641453
v 0.250643045 -0.253692836 0.753397703
v 0.36427924 -0.167103201 0.826589167
v 0.186211973 -0.263657928 0.635757983
v 0.289999843 -0.186202556 0.719470501
v 0.393139839 -0.0870363563 0.783305764
v 0.2157204 -0.205301911 0.612351835
v 0.314120173 -0.112118639 0.685080588
v 0.401576966 0.00944950525 0.733278215
v 0.235100523 -0.137201175 0.58685559
v 0.319560379 -0.034720052 0.65013808
v 0.387511134 0.0952553079 0.686589777
v 0.237543836 -0.0788901001 0.566998184
v 0.306779444 0.0416310653 0.614641368
v 0.34527564 0.186141163 0.632586598
v 0.226047724 -0.0119931754 0.542692959
v 0.27462697 0.111624651 0.578493655
v 0.278704196 0.262324572 0.577216685
v 0.203978345 0.0371081382 0.524400651
v 0.226330608 0.171233907 0.541702569
v 0.204426497 0.308896005 0.527965367
v 0.17395702 0.0801432505 0.506188393
v 0.163569033 0.214866042 0.504151046
v 0.107858121 0.335935473 0.47209084
v 0.122711584 0.120836057 0.480336666
v 0.0914125368 0.238448456 0.465770155
v 0.00940241944 0.331319273 0.417021304
v 0.0749669373 0.140961394 0.45944947
v 0.0160671212 0.239705279 0.426490247
v -0.0798429698 0.295657277 0.363495857
v 0.0227318257 0.148091316 0.43595919
v -0.0553169288 0.217425346 0.386194229
v -0.149406523 0.233798862 0.312119007
v -0.0307908803 0.139193356 0.408892632
v -0.114676245 0.173013628 0.344747066
v -0.19313854 0.14882271 0.259801656
v -0.0799459517 0.112228371 0.377375156
v -0.15402098 0.111032598 0.301986843
v -0.198217183 0.0646263808 0.214645177
v -0.11490351 0.0732422695 0.344171911
v -0.165002063 0.0394967832 0.257615149
v -0.170160621 -0.0123938173 0.170884699
v -0.131786928 0.0143671827 0.300585091
v -0.145355135 -0.0287320577 0.211425826
v -0.115302071 -0.0636383519 0.130597293
v -0.120549619 -0.045070298 0.251966923
v -0.0963094383 -0.0776971281 0.162952214
v -0.0476595908 -0.0786586627 0.0910589397
v -0.0773167908 -0.0917559043 0.19530715
v -0.0305915978 -0.0904956982 0.111658081
v -0.0135235973 -0.102332741 0.132257238
vt 0.999999583 0
vt 0.979999602 0
vt 0.999999583 0.5
vt 0.979999602 0.5
vt 0.999999583 1
vt 0.959999621 0
vt 0.979999602 1
vt 0.959999621 0.5
vt 0.93999964 0
vt 0.959999621 1
vt 0.93999964 0.5
vt 0.919999659 0
vt 0.93999964 1
vt 0.919999659 0.5
vt 0.899999678 0
vt 0.919999659 1
vt 0.899999678 0.5
vt 0.879999697 0
vt 0.899999678 1
vt 0.879999697 0.5
vt 0.859999716 0
vt 0.879999697 1
vt 0.859999716 0.5
vt 0.839999735 0
vt 0.859999716 1
vt 0.839999735 0.5
vt 0.819999754 0
vt 0.839999735 1
vt 0.819999754 0.5
vt 0.799999774 0
vt 0.819999754 1
vt 0.799999774 0.5
vt 0.779999793 0
vt 0.799999774 1
vt 0.779999793 0.5
vt 0.759999812 0
vt 0.779999793 1
vt 0.759999812 0.5
vt 0.739999831 0
vt 0.759999812 1
vt 0.739999831 0.5
vt 0.71999985 0
vt 0.739999831 1
vt 0.71999985 0.5
vt 0.699999869 0
vt 0.71999985 1
vt 0.699999869 0.5
vt 0.679999888 0
vt 0.699999869 1
vt 0.679999888 0.5
vt 0.659999907 0
vt 0.679999888 1
vt 0.659999907 0.5
vt 0.639999926 0
vt 0.659999907 1
vt 0.639999926 0.5
vt 0.619999945 0
vt 0.639999926 1
vt 0.619999945 0.5
vt 0.599999964 0
vt 0.619999945 1
vt 0.599999964 0.5
vt 0.579999983 0
vt 0.599999964 1
vt 0.579999983 0.5
vt 0.560000002 0
vt 0.579999983 1
vt 0.560000002 0.5
vt 0.540000021 0
vt 0.560000002 1
vt 0.540000021 0.5
vt 0.520000041 0
vt 0.540000021 1
vt 0.520000041 0.5
vt 0.50000006 0
vt 0.520000041 1
vt 0.50000006 0.5
vt 0.480000079 0
vt 0.50000006 1
vt 0.480000079 0.5
vt 0.460000068 0
vt 0.480000079 1
vt 0.460000068 0.5
vt 0.440000057 0
vt 0.460000068 1
vt 0.440000057 0.5
vt 0.420000046 0
vt 0.440000057 1
vt 0.420000046 0.5
vt 0.400000036 0
vt 0.420000046 1
vt 0.400000036 0.5
vt 0.380000025 0
vt 0.400000036 1
vt 0.380000025 0.5
vt 0.360000014 0
vt 0.380000025 1
vt 0.360000014 0.5
vt 0.340000004 0
vt 0.360000014 1
vt 0.340000004 0.5
vt 0.319999993 0
vt 0.340000004 1
vt 0.319999993 0.5
vt 0.299999982 0
vt 0.319999993 1
vt 0.299999982 0.5
vt 0.279999971 0
vt 0.299999982 1
vt 0.279999971 0.5
vt 0.259999961 0
vt 0.279999971 1
vt 0.259999961 0.5
vt 0.239999965 0
vt 0.259999961 1
vt 0.239999965 0.5
vt 0.219999969 0
vt 0.239999965 1
vt 0.219999969 0.5
vt 0.199999973 0
vt 0.219999969 1
vt 0.199999973 0.5
vt 0.179999977 0
vt 0.199999973 1
vt 0.179999977 0.5
vt 0.159999982 0
vt 0.179999977 1
vt 0.159999982 0.5
vt 0.139999986 0
vt 0.159999982 1
vt 0.139999986 0.5
vt 0.11999999 0
vt 0.139999986 1
vt 0.11999999 0.5
vt 0.099999994 0
vt 0.11999999 1
vt 0.099999994 0.5
vt 0.0799999982 0
vt 0.099999994 1
vt 0.0799999982 0.5
vt 0.0599999987 0
vt 0.0799999982 1
vt 0.0599999987 0.5
vt 0.0399999991 0
vt 0.0599999987 1
vt 0.0399999991 0.5
vt 0.0199999996 0
vt 0.0399999991 1
vt 0.0199999996 0.5
vt 0 0
vt 0.0199999996 1
vt 0 0.5
vt 0 1
vn -0.945558548 -0.0709933043 0.317614585
vn -0.92582798 -0.109837055 0.361632913
vn -0.946086586 -0.0563488305 0.31897518
vn -0.927918136 -0.0902715698 0.36168921
vn -0.946331382 -0.0425762273 0.320381224
vn -0.883027196 -0.194938287 0.426921576
vn -0.928319633 -0.0771040916 0.363700032
vn -0.887536108 -0.173521116 0.426813722
vn -0.828227103 -0.270533234 0.490766436
vn -0.889456749 -0.158941641 0.428490609
vn -0.835335672 -0.248820543 0.490206778
vn -0.763487875 -0.334867984 0.552222431
vn -0.838944674 -0.233916208 0.491380721
vn -0.773224354 -0.313626349 0.551146746
vn -0.691142261 -0.386184871 0.610887468
vn -0.778559864 -0.299010277 0.551758409
vn -0.703432322 -0.366037488 0.609261334
vn -0.609114885 -0.426701367 0.668509603
vn -0.710448205 -0.352179766 0.609288812
vn -0.624672055 -0.407167882 0.666332543
vn -0.516215742 -0.457721084 0.723887265
vn -0.634674191 -0.39156571 0.66623193
vn -0.542858362 -0.432332218 0.719995558
vn -0.435509086 -0.462911278 0.772039473
vn -0.561159611 -0.412063032 0.717846692
vn -0.468031198 -0.438103795 0.767471075
vn -0.364177525 -0.449529111 0.815658152
vn -0.489410996 -0.419842452 0.764335752
vn -0.400380492 -0.428800136 0.809830785
vn -0.301789939 -0.423346162 0.854225338
vn -0.424093097 -0.413636684 0.805636287
vn -0.341293871 -0.407399684 0.847079754
vn -0.25111571 -0.386655897 0.887377083
vn -0.367027074 -0.395747811 0.841828227
vn -0.293527097 -0.376151264 0.878835618
vn -0.214458853 -0.342404783 0.914749324
vn -0.320979118 -0.36837703 0.872508287
vn -0.259331912 -0.338006914 0.904708982
vn -0.193501413 -0.294130206 0.935972512
vn -0.288180709 -0.334474415 0.897261798
vn -0.240262076 -0.296530128 0.924307406
vn -0.189125106 -0.24585925 0.950675964
vn -0.270115435 -0.297619343 0.915674865
vn -0.236984149 -0.255740851 0.937248647
vn -0.201254055 -0.201945528 0.958496153
vn -0.267323703 -0.261829734 0.927352786
vn -0.24912867 -0.219898775 0.943175197
vn -0.228711769 -0.166844442 0.959090114
vn -0.279261768 -0.231313854 0.931937099
vn -0.275197148 -0.193230599 0.941768825
vn -0.269142836 -0.144823581 0.952149332
vn -0.304243207 -0.21016781 0.929120898
vn -0.312548786 -0.179619282 0.932764828
vn -0.319005787 -0.139622584 0.937411845
vn -0.339461297 -0.202056825 0.918661535
vn -0.357472986 -0.182280079 0.915962398
vn -0.373674065 -0.154090002 0.91467154
vn -0.381103992 -0.209899873 0.90038985
vn -0.405361056 -0.203456283 0.891228378
vn -0.427660286 -0.189837009 0.883780837
vn -0.424559236 -0.235594705 0.874210835
vn -0.450964183 -0.24415718 0.858497918
vn -0.474945873 -0.24693808 0.844658434
vn -0.464693189 -0.279797018 0.840103507
vn -0.488723069 -0.303963691 0.817774892
vn -0.509421706 -0.323742956 0.79729557
vn -0.496184528 -0.341778487 0.798115492
vn -0.513158202 -0.380934447 0.769127846
vn -0.525397539 -0.416814804 0.741770148
vn -0.513890505 -0.419380486 0.748355925
vn -0.519284189 -0.471607238 0.71269244
vn -0.518142223 -0.521030545 0.678274155
vn -0.513221145 -0.509051621 0.690992296
vn -0.503032386 -0.571110547 0.648684204
vn -0.484396845 -0.629871011 0.607142687
vn -0.49050498 -0.605978906 0.62625432
vn -0.461649954 -0.67340523 0.577412128
vn -0.427545905 -0.731353819 0.531343579
vn -0.443323851 -0.704319775 0.554434359
vn -0.393512338 -0.772818327 0.49789542
vn -0.334620953 -0.83055979 0.445195794
vn -0.36902386 -0.799136877 0.474554002
vn -0.290901989 -0.864519775 0.409855545
vn -0.20945619 -0.912900031 0.350345165
vn -0.256751865 -0.887125969 0.383517981
vn -0.163927972 -0.933976471 0.317514569
vn -0.0723069981 -0.964421213 0.254289895
vn -0.124077998 -0.949363291 0.288641751
vn -0.0268331189 -0.974629998 0.222208321
vn 0.0760528967 -0.985063076 0.154488578
vn 0.0139750242 -0.981066704 0.193165436
vn 0.120166637 -0.985102654 0.123015337
vn 0.241049454 -0.969399095 0.0464809947
vn 0.160809308 -0.98253274 0.0936479345
vn 0.281867027 -0.959323287 0.015804505
vn 0.401288539 -0.913671017 -0.0645964146
vn 0.321029425 -0.946959734 -0.014397311
vn 0.436638832 -0.89467895 -0.0943200961
vn 0.531068444 -0.830120206 -0.169902235
vn 0.472153485 -0.872571826 -0.125257969
vn 0.560927987 -0.803468406 -0.199494883
vn 0.645708919 -0.710563838 -0.279569566
vn 0.591347098 -0.772601187 -0.231075555
vn 0.667949557 -0.677366018 -0.308250815
vn 0.726413012 -0.566529572 -0.389060915
vn 0.691793025 -0.635346293 -0.343158215
vn 0.737936556 -0.531627536 -0.415718466
vn 0.762480438 -0.421301633 -0.491048247
vn 0.750198424 -0.484391391 -0.450074613
vn 0.764774024 -0.38596943 -0.515895665
vn 0.759919643 -0.27638793 -0.588329732
vn 0.763942361 -0.33735761 -0.550074577
vn 0.752732992 -0.244841322 -0.611102104
vn 0.721117139 -0.155563369 -0.675122321
vn 0.73905313 -0.196708456 -0.644287348
vn 0.705681324 -0.125957057 -0.69724369
vn 0.654785872 -0.0587542169 -0.753527343
vn 0.678201199 -0.0827977359 -0.730197012
vn 0.635612547 -0.0388999544 -0.771027505
vn 0.582459688 -0.0090082977 -0.812809706
vn 0.594772995 -0.00259623374 -0.803889513
vn 0.559408009 0.00184217305 -0.828890383
vn 0.520355046 0.00131295202 -0.853948951
vn 0.517435968 0.0216419976 -0.855448306
vn 0.494112909 0.00633507082 -0.869374633
vn 0.486861706 -0.0166959353 -0.873319566
vn 0.448876143 0.0131042078 -0.893497944
vn 0.463989168 -0.0190203059 -0.885636687
vn 0.501063168 -0.0447218455 -0.864254415
vn 0.41395551 -0.0250487886 -0.909952402
vn 0.482837766 -0.0537274107 -0.874060094
vn 0.565463245 -0.0529457219 -0.823072374
vn 0.440908849 -0.0727208555 -0.894601047
vn 0.553562582 -0.0656997189 -0.830212057
vn 0.668285906 -0.00790656451 -0.74386251
vn 0.522655308 -0.0931964517 -0.847434878
vn 0.66364944 -0.0212304741 -0.747742355
vn 0.776440263 0.129755124 -0.616687953
vn 0.644300103 -0.0561951697 -0.762705386
vn 0.77561456 0.112388946 -0.621120572
vn 0.824799478 0.34741503 -0.446103901
vn 0.766393542 0.0650596172 -0.639068186
vn 0.828997254 0.339103281 -0.444716334
vn 0.753668368 0.619265556 -0.22021392
vn 0.834936023 0.30432114 -0.458552539
vn 0.756781995 0.616868734 -0.216226846
vn 0.51898706 0.852767467 0.0586515777
vn 0.774574578 0.588635743 -0.231391937
vn 0.517264605 0.853282273 0.0659289211
vn 0.346993566 0.911062002 0.222623974
vn 0.543273389 0.83810699 0.049300395
vn 0.356168121 0.908103824 0.220208496
vn 0.365137637 0.905166209 0.21759741
g Plane001_0
f 3/3/3 2/2/2 1/1/1
f 2/2/2 3/3/3 4/4/4
f 5/5/5 4/4/4 3/3/3
f 4/4/4 6/6/6 2/2/2
f 4/4/4 5/5/5 7/7/7
f 6/6/6 4/4/4 8/8/8
f 7/7/7 8/8/8 4/4/4
f 8/8/8 9/9/9 6/6/6
f 8/8/8 7/7/7 10/10/10
f 9/9/9 8/8/8 11/11/11
f 10/10/10 11/11/11 8/8/8
f 11/11/11 12/12/12 9/9/9
f 11/11/11 10/10/10 13/13/13
f 12/12/12 11/11/11 14/14/14
f 13/13/13 14/14/14 11/11/11
f 14/14/14 15/15/15 12/12/12
f 14/14/14 13/13/13 16/16/16
f 15/15/15 14/14/14 17/17/17
f 16/16/16 17/17/17 14/14/14
f 17/17/17 18/18/18 15/15/15
f 17/17/17 16/16/16 19/19/19
f 18/18/18 17/17/17 20/20/20
f 19/19/19 20/20/20 17/17/17
f 20/20/20 21/21/21 18/18/18
f 20/20/20 19/19/19 22/22/22
f 21/21/21 20/20/20 23/23/23
f 22/22/22 23/23/23 20/20/20
f 23/23/23 24/24/24 21/21/21
f 23/23/23 22/22/22 25/25/25
f 24/24/24 23/23/23 26/26/26
f 25/25/25 26/26/26 23/23/23
f 26/26/26 27/27/27 24/24/24
f 26/26/26 25/25/25 28/28/28
f 27/27/27 26/26/26 29/29/29
f 28/28/28 29/29/29 26/26/26
f 29/29/29 30/30/30 27/27/27
f 29/29/29 28/28/28 31/31/31
f 30/30/30 29/29/29 32/32/32
f 31/31/31 32/32/32 29/29/29
f 32/32/32 33/33/33 30/30/30
f 32/32/32 31/31/31 34/34/34
f 33/33/33 32/32/32 35/35/35
f 34/34/34 35/35/35 32/32/32
f 35/35/35 36/36/36 33/33/33
f 35/35/35 34/34/34 37/37/37
f 36/36/36 35/35/35 38/38/38
f 37/37/37 38/38/38 35/35/35
f 38/38/38 39/39/39 36/36/36
f 38/38/38 37/37/37 40/40/40
f 39/39/39 38/38/38 41/41/41
f 40/40/40 41/41/41 38/38/38
f 41/41/41 42/42/42 39/39/39
f 41/41/41 40/40/40 43/43/43
f 42/42/42 41/41/41 44/44/44
f 43/43/43 44/44/44 41/41/41
f 44/44/44 45/45/45 42/42/42
f 44/44/44 43/43/43 46/46/46
f 45/45/45 44/44/44 47/47/47
f 46/46/46 47/47/47 44/44/44
f 47/47/47 48/48/48 45/45/45
f 47/47/47 46/46/46 49/49/49
f 48/48/48 47/47/47 50/50/50
f 49/49/49 50/50/50 47/47/47
f 50/50/50 51/51/51 48/48/48
f 50/50/50 49/49/49 52/52/52
f 51/51/51 50/50/50 53/53/53
f 52/52/52 53/53/53 50/50/50
f 53/53/53 54/54/54 51/51/51
f 53/53/53 52/52/52 55/55/55
f 54/54/54 53/53/53 56/56/56
f 55/55/55 56/56/56 53/53/53
f 56/56/56 57/57/57 54/54/54
f 56/56/56 55/55/55 58/58/58
f 57/57/57 56/56/56 59/59/59
f 58/58/58 59/59/59 56/56/56
f 59/59/59 60/60/60 57/57/57
f 59/59/59 58/58/58 61/61/61
f 60/60/60 59/59/59 62/62/62
f 61/61/61 62/62/62 59/59/59
f 62/62/62 63/63/63 60/60/60
f 62/62/62 61/61/61 64/64/64
f 63/63/63 62/62/62 65/65/65
f 64/64/64 65/65/65 62/62/62
f 65/65/65 66/66/66 63/63/63
f 65/65/65 64/64/64 67/67/67
f 66/66/66 65/65/65 68/68/68
f 67/67/67 68/68/68 65/65/65
f 68/68/68 69/69/69 66/66/66
f 68/68/68 67/67/67 70/70/70
f 69/69/69 68/68/68 71/71/71
f 70/70/70 71/71/71 68/68/68
f 71/71/71 72/72/72 69/69/69
f 71/71/71 70/70/70 73/73/73
f 72/72/72 71/71/71 74/74/74
f 73/73/73 74/74/74 71/71/71
f 74/74/74 75/75/75 72/72/72
f 74/74/74 73/73/73 76/76/76
f 75/75/75 74/74/74 77/77/77
f 76/76/76 77/77/77 74/74/74
f 77/77/77 78/78/78 75/75/75
f 77/77/77 76/76/76 79/79/79
f 78/78/78 77/77/77 80/80/80
f 79/79/79 80/80/80 77/77/77
f 80/80/80 81/81/81 78/78/78
f 80/80/80 79/79/79 82/82/82
f 81/81/81 80/80/80 83/83/83
f 82/82/82 83/83/83 80/80/80
f 83/83/83 84/84/84 81/81/81
f 83/83/83 82/82/82 85/85/85
f 84/84/84 83/83/83 86/86/86
f 85/85/85 86/86/86 83/83/83
f 86/86/86 87/87/87 84/84/84
f 86/86/86 85/85/85 88/88/88
f 87/87/87 86/86/86 89/89/89
f 88/88/88 89/89/89 86/86/86
f 89/89/89 90/90/90 87/87/87
f 89/89/89 88/88/88 91/91/91
f 90/90/90 89/89/89 92/92/92
f 91/91/91 92/92/92 89/89/89
f 92/92/92 93/93/93 90/90/90
f 92/92/92 91/91/91 94/94/94
f 93/93/93 92/92/92 95/95/95
f 94/94/94 95/95/95 92/92/92
f 95/95/95 96/96/96 93/93/93
f 95/95/95 94/94/94 97/97/97
f 96/96/96 95/95/95 98/98/98
f 97/97/97 98/98/98 95/95/95
f 98/98/98 99/99/99 96/96/96
f 98/98/98 97/97/97 100/100/100
f 99/99/99 98/98/98 101/101/101
f 100/100/100 101/101/101 98/98/98
f 101/101/101 102/102/102 99/99/99
f 101/101/101 100/100/100 103/103/103
f 102/102/102 101/101/101 104/104/104
f 103/103/103 104/104/104 101/101/101
f 104/104/104 105/105/105 102/102/102
f 104/104/104 103/103/103 106/106/106
f 105/105/105 104/104/104 107/107/107
f 106/106/106 107/107/107 104/104/104
f 107/107/107 108/108/108 105/105/105
f 107/107/107 106/106/106 109/109/109
f 108/108/108 107/107/107 110/110/110
f 109/109/109 110/110/110 107/107/107
f 110/110/110 111/111/111 108/108/108
f 110/110/110 109/109/109 112/112/112
f 111/111/111 110/110/110 113/113/113
f 112/112/112 113/113/113 110/110/110
f 113/113/113 114/114/114 111/111/111
f 113/113/113 112/112/112 115/115/115
f 114/114/114 113/113/113 116/116/116
f 115/115/115 116/116/116 113/113/113
f 116/116/116 117/117/117 114/114/114
f 116/116/116 115/115/115 118/118/118
f 117/117/117 116/116/116 119/119/119
f 118/118/118 119/119/119 116/116/116
f 119/119/119 120/120/120 117/117/117
f 119/119/119 118/118/118 121/121/121
f 120/120/120 119/119/119 122/122/122
f 121/121/121 122/122/122 119/119/119
f 122/122/122 123/123/123 120/120/120
f 122/122/122 121/121/121 124/124/124
f 123/123/123 122/122/122 125/125/125
f 124/124/124 125/125/125 122/122/122
f 125/125/125 126/126/126 123/123/123
f 125/125/125 124/124/124 127/127/127
f 126/126/126 125/125/125 128/128/128
f 127/127/127 128/128/128 125/125/125
f 128/128/128 129/129/129 126/126/126
f 128/128/128 127/127/127 130/130/130
f 129/129/129 128/128/128 131/131/131
f 130/130/130 131/131/131 128/128/128
f 131/131/131 132/132/132 129/129/129
f 131/131/131 130/130/130 133/133/133
f 132/132/132 131/131/131 134/134/134
f 133/133/133 134/134/134 131/131/131
f 134/134/134 135/135/135 132/132/132
f 134/134/134 133/133/133 136/136/136
f 135/135/135 134/134/134 137/137/137
f 136/136/136 137/137/137 134/134/134
f 137/137/137 138/138/138 135/135/135
f 137/137/137 136/136/136 139/139/139
f 138/138/138 137/137/137 140/140/140
f 139/139/139 140/140/140 137/137/137
f 140/140/140 141/141/141 138/138/138
f 140/140/140 139/139/139 142/142/142
f 141/141/141 140/140/140 143/143/143
f 142/142/142 143/143/143 140/140/140
f 143/143/143 144/144/144 141/141/141
f 143/143/143 142/142/142 145/145/145
f 144/144/144 143/143/143 146/146/146
f 145/145/145 146/146/146 143/143/143
f 146/146/146 147/147/147 144/144/144
f 146/146/146 145/145/145 148/148/148
f 147/147/147 146/146/146 149/149/149
f 148/148/148 149/149/149 146/146/146
f 149/149/149 150/150/150 147/147/147
f 149/149/149 148/148/148 151/151/151
f 150/150/150 149/149/149 152/152/152
f 151/151/151 152/152/152 149/149/149
f 152/152/152 151/151/151 153/153/153
