g Plane001
v 0.807911575 -0.906212986 0
v 0.873482347 -0.755177498 6.2148402E-09
v 0.969493747 -0.906212986 0
v 0.728111625 -0.755177498 0.0260945242
v 0.646329165 -0.906212986 0
v 0.785600901 -0.60414201 4.97186967E-08
v 0.582626402 -0.755177498 0.0474445932
v 0.484746903 -0.906212986 0
v 0.655428827 -0.60414201 0.0474446341
v 0.704395235 -0.453106493 1.67800621E-07
v 0.437049717 -0.755177498 0.0640502051
v 0.323164612 -0.906212986 0
v 0.524841726 -0.60414201 0.0862629414
v 0.588538051 -0.453106493 0.0640503466
v 0.628413618 -0.302071035 3.97749574E-07
v 0.291404545 -0.755177498 0.0759113431
v 0.161582291 -0.906212986 0
v 0.393922031 -0.60414201 0.116454981
v 0.471840233 -0.453106493 0.116455063
v 0.526115 -0.302071095 0.0759117156
v 0.556203425 -0.151035443 7.76854677E-07
v 0.145713627 -0.755177498 0.0830280408
v -0 -0.906212986 0
v 0.262753189 -0.60414201 0.138020679
v 0.354468822 -0.453106493 0.157214299
v 0.42248714 -0.302071035 0.138020992
v 0.466834724 -0.151035443 0.0830288008
v 0.486311257 0 1.34240497E-06
v -4.84466547E-08 -0.755177498 0.0854002759
v -0.161582306 -0.906212986 0
v 0.131418332 -0.60414201 0.150960118
v 0.236592874 -0.453106493 0.186327994
v 0.317795873 -0.302071035 0.186328262
v 0.375648618 -0.151035443 0.150960848
v 0.409371763 0 0.0854015872
v 0.417284936 0.151035547 2.13168914E-06
v -0.145713732 -0.755177498 0.0830280483
v -0.323164582 -0.906212986 0
v 4.84466547E-08 -0.60414207 0.155273303
v 0.118380614 -0.453106493 0.203796253
v 0.212307051 -0.302071095 0.220833376
v 0.283008635 -0.151035443 0.203796878
v 0.330189288 9.68933094E-08 0.155274525
v 0.352402091 0.151035443 0.0830301568
v 0.347671747 0.302071005 3.18199727E-06
v 0.294600487 0.302071005 0.0759145096
v 0.276019037 0.453106552 4.53061693E-06
v 0.284974903 0.151035547 0.150962174
v 0.249212056 0 0.209620178
v 0.18927817 -0.151035443 0.241536871
v 0.106286392 -0.302071154 0.241536468
v 0.234642312 0.453106552 0.0640547052
v 0.200873971 0.604142189 6.21483969E-06
v 0.23887074 0.302071095 0.138023779
v 0.215512127 0.151035443 0.203798234
v 0.166889086 0 0.248438448
v 0.171202719 0.60414207 0.0474507846
v 0.120783903 0.755177438 8.27194799E-06
v 0.19074218 0.453106552 0.116459414
v 0.181013942 0.302071005 0.186331004
v 0.102956943 0.755177438 0.0261027999
v 0.0342960656 0.906212986 1.07392398E-05
v 0.0285800863 0.906212986 1.07392398E-05
v 0.139454663 0.604142308 0.0862690806
v 0.0838735104 0.755177617 0.0474528782
v 0.0228640605 0.906212986 1.07392407E-05
v 0.144823089 0.453106552 0.157218665
v 0.144522861 0.151035354 0.241538212
v 0.106044836 0.604142189 0.116461083
v 0.0637846738 0.755177438 0.064058505
v 0.0171479844 0.906212986 1.07392398E-05
v 0.121562101 0.302071005 0.220836148
v 0.0973898843 0.453106552 0.186332345
v 0.0713888109 0.60414207 0.138026804
v 0.0429419503 0.755177438 0.0759196505
v 0.0114319082 0.906212986 1.07392398E-05
v 0.0215965975 0.755177438 0.0830363408
v 0.0057159299 0.906212986 1.07392398E-05
v 0.0359021202 0.604142189 0.150966242
v 0.0489472523 0.453106344 0.203800619
v 0.0610469021 0.302070886 0.24153927
v 0.0725159198 0.151035443 0.26418224
v -4.84466547E-08 0.755177259 0.0854085833
v -4.84466547E-08 0.906212986 1.07392398E-05
v -0 0.604142189 0.155279398
v -4.84466547E-08 0.453106552 0.209623352
v -4.84466547E-08 0.302070886 0.248440281
v -0.0215967912 0.755177438 0.0830363408
v -0.00571617251 0.906212986 1.07392398E-05
v -0.035902217 0.604142189 0.150966242
v -0.0489473976 0.453106552 0.203800619
v -0.0429421924 0.755177438 0.0759196505
v -0.0114322482 0.906212807 1.0739238E-05
v -0.0713890046 0.60414201 0.138026804
v -0.0637847707 0.755177438 0.0640585124
v -0.0171482265 0.906212986 1.07392398E-05
v -0 0.151035443 0.271730274
v -0.0610470474 0.302070886 0.24153927
v -0.0973899812 0.453106344 0.18633236
v -0.106044933 0.60414207 0.116461098
v -0.0838735104 0.755177617 0.0474528819
v -0.0228642058 0.906213164 1.07392407E-05
v -0.0725158751 0.151035443 0.26418221
v -0.121562347 0.302070886 0.220836148
v -0.144823283 0.453106552 0.15721865
v -0.139454663 0.604142368 0.0862690955
v -0.102957137 0.755177438 0.0261028036
v -0.02858028 0.906212986 1.07392398E-05
v -0.120784096 0.755177438 8.27194799E-06
v -0.0342963077 0.906212986 1.07392398E-05
v -0.200874045 0.604142189 6.21483969E-06
v -0.171202987 0.604142308 0.0474507846
v -0.276019156 0.453106552 4.53061693E-06
v -0.234642476 0.453106642 0.0640547052
v -0.347671926 0.302071005 3.18199727E-06
v -0.190742224 0.453106642 0.116459444
v -0.294600666 0.302071095 0.0759145021
v -0.417285085 0.151035547 2.13168914E-06
v -0.238870785 0.302071095 0.138023809
v -0.35240221 0.151035547 0.0830301568
v -0.486311287 0 1.34240497E-06
v -0.181014135 0.302071005 0.186331019
v -0.409371853 9.68933094E-08 0.0854015797
v -0.556203306 -0.151035443 7.76854677E-07
v -0.284974903 0.151035637 0.150962204
v -0.215512261 0.151035354 0.203798234
v -0.466834575 -0.151035398 0.0830288008
v -0.628413737 -0.302071035 3.97749574E-07
v -0.330189288 1.93786619E-07 0.155274585
v -0.144522965 0.151035354 0.241538212
v -0.526115179 -0.302071035 0.0759117156
v -0.704395294 -0.453106493 1.67800621E-07
v -0.375648469 -0.151035354 0.150960863
v -0.249212205 0 0.209620193
v -0.166889176 -9.68933094E-08 0.248438463
v -0.588538289 -0.453106493 0.0640503615
v -0.785600781 -0.60414201 4.97186967E-08
v -0.422487229 -0.302070946 0.138021007
v -0.283008575 -0.151035503 0.203796878
v -0.0836689249 -9.68933094E-08 0.271729469
v -0.655428886 -0.60414201 0.0474446267
v -0.873482645 -0.755177498 6.2148402E-09
v -0.471840054 -0.453106433 0.116455086
v -0.317795962 -0.302071035 0.186328262
v -0.189278126 -0.151035503 0.2415369
v -4.84466547E-08 0 0.279493123
v -0.728111625 -0.755177498 0.0260945242
v -0.969493806 -0.906212986 0
v -0.807911575 -0.906212986 0
v -0.524841547 -0.60414201 0.0862629488
v -0.582626462 -0.755177438 0.0474446006
v -0.646329224 -0.906212986 0
v -0.354468852 -0.453106493 0.157214299
v -0.21230714 -0.302071154 0.220833391
v -0.437049776 -0.755177498 0.0640502051
v -0.484746903 -0.906212986 0
v -0.393921942 -0.60414201 0.116454981
v -0.291404575 -0.755177498 0.0759113431
v -0.236592963 -0.453106552 0.186328009
v -0.26275301 -0.60414207 0.138020679
v -0.131418049 -0.60414201 0.150960118
v -0.118380614 -0.453106493 0.203796253
v -0 -0.453106493 0.209619015
v -0.106286533 -0.302071154 0.241536483
v -0 -0.302071095 0.248437494
v -0.0948207602 -0.151035398 0.264180928
v 4.84466547E-08 -0.151035443 0.271728933
v 0.0948208123 -0.151035443 0.264180899
v 0.083668828 0 0.271729469
vt 0.916666567 0
vt 0.999999881 0.0833333358
vt 0.999999881 0
vt 0.916666567 0.0833333358
vt 0.833333254 0
vt 0.999999881 0.166666672
vt 0.833333254 0.0833333358
vt 0.74999994 0
vt 0.916666567 0.166666672
vt 0.999999881 0.25
vt 0.74999994 0.0833333358
vt 0.666666627 0
vt 0.833333254 0.166666672
vt 0.916666567 0.25
vt 0.999999881 0.333333343
vt 0.666666627 0.0833333358
vt 0.583333313 0
vt 0.74999994 0.166666672
vt 0.833333254 0.25
vt 0.916666567 0.333333343
vt 0.999999881 0.416666687
vt 0.583333313 0.0833333358
vt 0.5 0
vt 0.666666627 0.166666672
vt 0.74999994 0.25
vt 0.833333254 0.333333343
vt 0.916666567 0.416666687
vt 0.999999881 0.5
vt 0.5 0.0833333358
vt 0.416666687 0
vt 0.583333313 0.166666672
vt 0.666666627 0.25
vt 0.74999994 0.333333343
vt 0.833333254 0.416666687
vt 0.916666567 0.5
vt 0.999999881 0.583333313
vt 0.416666687 0.0833333358
vt 0.333333343 0
vt 0.5 0.166666672
vt 0.583333313 0.25
vt 0.666666627 0.333333343
vt 0.74999994 0.416666687
vt 0.833333254 0.5
vt 0.916666567 0.583333313
vt 0.999999881 0.666666627
vt 0.916666567 0.666666627
vt 0.999999881 0.74999994
vt 0.833333254 0.583333313
vt 0.74999994 0.5
vt 0.666666627 0.416666687
vt 0.583333313 0.333333343
vt 0.916666567 0.74999994
vt 0.999999881 0.833333254
vt 0.833333254 0.666666627
vt 0.74999994 0.583333313
vt 0.666666627 0.5
vt 0.916666567 0.833333254
vt 0.999999881 0.916666567
vt 0.833333254 0.74999994
vt 0.74999994 0.666666627
vt 0.916666567 0.916666567
vt 0.999999881 0.999999881
vt 0.916666567 0.999999881
vt 0.833333254 0.833333254
vt 0.833333254 0.916666567
vt 0.833333254 0.999999881
vt 0.74999994 0.74999994
vt 0.666666627 0.583333313
vt 0.74999994 0.833333254
vt 0.74999994 0.916666567
vt 0.74999994 0.999999881
vt 0.666666627 0.666666627
vt 0.666666627 0.74999994
vt 0.666666627 0.833333254
vt 0.666666627 0.916666567
vt 0.666666627 0.999999881
vt 0.583333313 0.916666567
vt 0.583333313 0.999999881
vt 0.583333313 0.833333254
vt 0.583333313 0.74999994
vt 0.583333313 0.666666627
vt 0.583333313 0.583333313
vt 0.5 0.916666567
vt 0.5 0.999999881
vt 0.5 0.833333254
vt 0.5 0.74999994
vt 0.5 0.666666627
vt 0.416666687 0.916666567
vt 0.416666687 0.999999881
vt 0.416666687 0.833333254
vt 0.416666687 0.74999994
vt 0.333333343 0.916666567
vt 0.333333343 0.999999881
vt 0.333333343 0.833333254
vt 0.25 0.916666567
vt 0.25 0.999999881
vt 0.5 0.583333313
vt 0.416666687 0.666666627
vt 0.333333343 0.74999994
vt 0.25 0.833333254
vt 0.166666672 0.916666567
vt 0.166666672 0.999999881
vt 0.416666687 0.583333313
vt 0.333333343 0.666666627
vt 0.25 0.74999994
vt 0.166666672 0.833333254
vt 0.0833333358 0.916666567
vt 0.0833333358 0.999999881
vt 0 0.916666567
vt 0 0.999999881
vt 0 0.833333254
vt 0.0833333358 0.833333254
vt 0 0.74999994
vt 0.0833333358 0.74999994
vt 0 0.666666627
vt 0.166666672 0.74999994
vt 0.0833333358 0.666666627
vt 0 0.583333313
vt 0.166666672 0.666666627
vt 0.0833333358 0.583333313
vt 0 0.5
vt 0.25 0.666666627
vt 0.0833333358 0.5
vt 0 0.416666687
vt 0.166666672 0.583333313
vt 0.25 0.583333313
vt 0.0833333358 0.416666687
vt 0 0.333333343
vt 0.166666672 0.5
vt 0.333333343 0.583333313
vt 0.0833333358 0.333333343
vt 0 0.25
vt 0.166666672 0.416666687
vt 0.25 0.5
vt 0.333333343 0.5
vt 0.0833333358 0.25
vt 0 0.166666672
vt 0.166666672 0.333333343
vt 0.25 0.416666687
vt 0.416666687 0.5
vt 0.0833333358 0.166666672
vt 0 0.0833333358
vt 0.166666672 0.25
vt 0.25 0.333333343
vt 0.333333343 0.416666687
vt 0.5 0.5
vt 0.0833333358 0.0833333358
vt 0 0
vt 0.0833333358 0
vt 0.166666672 0.166666672
vt 0.166666672 0.0833333358
vt 0.166666672 0
vt 0.25 0.25
vt 0.333333343 0.333333343
vt 0.25 0.0833333358
vt 0.25 0
vt 0.25 0.166666672
vt 0.333333343 0.0833333358
vt 0.333333343 0.25
vt 0.333333343 0.166666672
vt 0.416666687 0.166666672
vt 0.416666687 0.25
vt 0.5 0.25
vt 0.416666687 0.333333343
vt 0.5 0.333333343
vt 0.416666687 0.416666687
vt 0.5 0.416666687
vt 0.583333313 0.416666687
vt 0.583333313 0.5
vn 0.0790886134 -0.0956339389 0.992269635
vn 0.142463699 -0.0018708189 0.989798307
vn 0.0846487507 -0.0367495641 0.995732963
vn 0.159061909 -0.0705070943 0.984747708
vn 0.0616081394 -0.252750903 0.965567946
vn 0.311191171 0.0976496562 0.945317209
vn 0.126119122 -0.219448045 0.967438161
vn 0.0445285216 -0.36373046 0.930439293
vn 0.309517413 0.0256347191 0.950548232
vn 0.453534454 0.172805861 0.874325156
vn 0.092402488 -0.327394426 0.940358818
vn 0.028709108 -0.434959024 0.899992406
vn 0.251104861 -0.12296997 0.960117042
vn 0.438825995 0.104669534 0.892455041
vn 0.563686967 0.226135477 0.794430435
vn 0.0601060651 -0.398263633 0.915299594
vn 0.014037611 -0.474220753 0.880294144
vn 0.187528089 -0.236747593 0.953301489
vn 0.365303636 -0.0329643153 0.930304646
vn 0.54167223 0.16684325 0.823865592
vn 0.644478679 0.264128238 0.717553794
vn 0.0295320544 -0.437933594 0.898522139
vn -0 -0.486722291 0.873556733
vn 0.12363407 -0.314502299 0.94117111
vn 0.279321074 -0.144701675 0.949231863
vn 0.461810172 0.0473512299 0.885713935
vn 0.619104803 0.215713903 0.755100548
vn 0.70161438 0.293307155 0.649390638
vn -0 -0.450660974 0.892695129
vn -0.0140376175 -0.474220753 0.880294144
vn 0.0612162091 -0.3591232 0.931280315
vn 0.18749018 -0.224888399 0.956176043
vn 0.361761034 -0.0548921004 0.930653453
vn 0.538310707 0.117529698 0.834510803
vn 0.674932182 0.255787492 0.692126632
vn 0.740392327 0.318637431 0.591852486
vn -0.029532034 -0.437933594 0.898522139
vn -0.028709108 -0.434959024 0.899992406
vn -0 -0.373606831 0.927587211
vn 0.0938558877 -0.272480458 0.957572699
vn 0.247770026 -0.132000685 0.959784329
vn 0.431014568 0.0301837344 0.901839972
vn 0.595606267 0.179048687 0.783067465
vn 0.713176966 0.29106164 0.637700379
vn 0.76459223 0.343352884 0.545442581
vn 0.73685503 0.324477434 0.593092859
vn 0.776082397 0.369122475 0.511316657
vn 0.635759532 0.234183267 0.735505223
vn 0.485460401 0.109431639 0.867382765
vn 0.301099569 -0.0385419726 0.952813506
vn 0.125669003 -0.179516926 0.975695133
vn 0.747236907 0.357785344 0.560023844
vn 0.77323246 0.395684034 0.495525718
vn 0.660675347 0.28517127 0.694395721
vn 0.524965048 0.182892725 0.83124125
vn 0.345055431 0.0531231947 0.937077701
vn 0.741534352 0.391120672 0.545115948
vn 0.730815947 0.412823498 0.543585122
vn 0.670872211 0.333756059 0.662221551
vn 0.549879849 0.251256526 0.796556473
vn 0.686459303 0.415502965 0.596767068
vn 0.676253021 0.412827373 0.61012733
vn 0.620967746 0.424831301 0.658724189
vn 0.662352085 0.380857497 0.645164669
vn 0.597164273 0.423131526 0.681435585
vn 0.524781942 0.443053722 0.726847649
vn 0.559738159 0.315426737 0.766289234
vn 0.378171921 0.141235262 0.914898098
vn 0.549802482 0.37624225 0.745760679
vn 0.482816577 0.433231026 0.761051238
vn 0.412049294 0.461004823 0.785932481
vn 0.399554819 0.224684015 0.88874799
vn 0.407961696 0.302918285 0.861282647
vn 0.398868352 0.375840187 0.836449742
vn 0.342177361 0.443413347 0.828431845
vn 0.284405589 0.476212084 0.832067072
vn 0.178189203 0.451036125 0.874536991
vn 0.145322293 0.486417979 0.861556172
vn 0.21117793 0.377295375 0.901694
vn 0.216713622 0.295862198 0.930322886
vn 0.211690709 0.20756337 0.955041587
vn 0.19898133 0.113703407 0.973384798
vn -0 0.453874737 0.891065598
vn 3.3773E-07 0.490014821 0.871714056
vn 3.54509211E-07 0.378143996 0.925746739
vn 3.61967921E-07 0.29362002 0.955922186
vn -0 0.201628521 0.979462087
vn -0.178189516 0.451036125 0.874536991
vn -0.145322293 0.486418158 0.861556053
vn -0.211178005 0.377295494 0.901694
vn -0.216713846 0.295862406 0.930322766
vn -0.342178166 0.443413258 0.828431487
vn -0.284406811 0.476212084 0.832066536
vn -0.398868978 0.375840098 0.836449504
vn -0.482817054 0.433230847 0.761050999
vn -0.412050575 0.461004466 0.785932124
vn -0 0.104032315 0.994573891
vn -0.211690739 0.207563221 0.955041587
vn -0.407961965 0.302918285 0.861282587
vn -0.54980278 0.37624225 0.745760441
vn -0.597163379 0.423131257 0.681436658
vn -0.524781466 0.443053037 0.726848304
vn -0.198981062 0.113703333 0.973384798
vn -0.399554819 0.224683881 0.888748109
vn -0.55973804 0.315426975 0.766289234
vn -0.662350893 0.380857408 0.645165741
vn -0.686458528 0.415502965 0.596768022
vn -0.620966434 0.424830765 0.65872556
vn -0.730816543 0.412823737 0.543584168
vn -0.676252544 0.412827045 0.610128105
vn -0.773233652 0.395684332 0.495523572
vn -0.741534054 0.391120821 0.545116186
vn -0.776083052 0.369122744 0.511315405
vn -0.747236848 0.357785285 0.560023844
vn -0.764592409 0.343352973 0.545442164
vn -0.670871735 0.33375594 0.662221968
vn -0.736854792 0.324477345 0.593093038
vn -0.740392625 0.318637282 0.591852248
vn -0.660675168 0.285171092 0.694395959
vn -0.713176906 0.291061431 0.637700498
vn -0.701614738 0.293306619 0.649390519
vn -0.549879968 0.251256496 0.796556473
vn -0.674932301 0.255787075 0.692126691
vn -0.644478798 0.264128476 0.717553675
vn -0.635759473 0.234183192 0.735505342
vn -0.524965048 0.182892665 0.83124125
vn -0.619104862 0.215713903 0.755100369
vn -0.563687205 0.226135999 0.794430137
vn -0.595606387 0.179048315 0.783067465
vn -0.378171682 0.141235232 0.914898276
vn -0.541672111 0.166843638 0.823865592
vn -0.453534991 0.172805831 0.874324977
vn -0.538310707 0.117529683 0.834510803
vn -0.48546055 0.10943146 0.867382765
vn -0.345055342 0.0531231351 0.93707782
vn -0.438825876 0.10466931 0.892455161
vn -0.31119135 0.0976497978 0.945317149
vn -0.461810172 0.0473514944 0.885713935
vn -0.431014717 0.030183617 0.901839972
vn -0.179694265 0.0162277855 0.983588696
vn -0.309517413 0.0256345738 0.950548232
vn -0.14246352 -0.00187081774 0.989798307
vn -0.365303397 -0.0329647064 0.930304706
vn -0.361761272 -0.0548919179 0.930653393
vn -0.301099658 -0.0385420397 0.952813506
vn -0 0.00335190911 0.999994397
vn -0.159061849 -0.0705069676 0.984747708
vn -0.0846486539 -0.0367496833 0.995732963
vn -0.0790885687 -0.0956340358 0.992269635
vn -0.251104683 -0.122970141 0.960117042
vn -0.126119152 -0.219447955 0.967438161
vn -0.0616081618 -0.252750903 0.965567946
vn -0.279321313 -0.144701883 0.949231803
vn -0.247770131 -0.13200058 0.95978421
vn -0.0924025401 -0.327394366 0.940358818
vn -0.0445285402 -0.36373046 0.930439293
vn -0.187528193 -0.236747608 0.953301489
vn -0.0601060651 -0.398263633 0.915299594
vn -0.18749018 -0.224888578 0.956176043
vn -0.123633929 -0.314502358 0.94117099
vn -0.0612160712 -0.359123349 0.931280315
vn -0.0938557237 -0.272480577 0.957572579
vn -0 -0.288190722 0.957573056
vn -0.125668868 -0.179516941 0.975695133
vn -0 -0.195518389 0.980700016
vn -0.154826075 -0.0824118108 0.984498441
vn -0 -0.0974818617 0.99523735
vn 0.154826313 -0.0824118555 0.984498441
vn 0.179694384 0.0162277278 0.983588696
g Plane001_0
f 3/3/3 2/2/2 1/1/1
f 2/2/2 4/4/4 1/1/1
f 1/1/1 4/4/4 5/5/5
f 2/2/2 6/6/6 4/4/4
f 4/4/4 7/7/7 5/5/5
f 5/5/5 7/7/7 8/8/8
f 6/6/6 9/9/9 4/4/4
f 4/4/4 9/9/9 7/7/7
f 6/6/6 10/10/10 9/9/9
f 7/7/7 11/11/11 8/8/8
f 8/8/8 11/11/11 12/12/12
f 9/9/9 13/13/13 7/7/7
f 7/7/7 13/13/13 11/11/11
f 10/10/10 14/14/14 9/9/9
f 9/9/9 14/14/14 13/13/13
f 10/10/10 15/15/15 14/14/14
f 11/11/11 16/16/16 12/12/12
f 12/12/12 16/16/16 17/17/17
f 13/13/13 18/18/18 11/11/11
f 11/11/11 18/18/18 16/16/16
f 14/14/14 19/19/19 13/13/13
f 13/13/13 19/19/19 18/18/18
f 15/15/15 20/20/20 14/14/14
f 14/14/14 20/20/20 19/19/19
f 15/15/15 21/21/21 20/20/20
f 16/16/16 22/22/22 17/17/17
f 17/17/17 22/22/22 23/23/23
f 18/18/18 24/24/24 16/16/16
f 16/16/16 24/24/24 22/22/22
f 19/19/19 25/25/25 18/18/18
f 18/18/18 25/25/25 24/24/24
f 20/20/20 26/26/26 19/19/19
f 19/19/19 26/26/26 25/25/25
f 21/21/21 27/27/27 20/20/20
f 20/20/20 27/27/27 26/26/26
f 21/21/21 28/28/28 27/27/27
f 22/22/22 29/29/29 23/23/23
f 23/23/23 29/29/29 30/30/30
f 24/24/24 31/31/31 22/22/22
f 22/22/22 31/31/31 29/29/29
f 25/25/25 32/32/32 24/24/24
f 24/24/24 32/32/32 31/31/31
f 26/26/26 33/33/33 25/25/25
f 25/25/25 33/33/33 32/32/32
f 27/27/27 34/34/34 26/26/26
f 26/26/26 34/34/34 33/33/33
f 28/28/28 35/35/35 27/27/27
f 27/27/27 35/35/35 34/34/34
f 28/28/28 36/36/36 35/35/35
f 29/29/29 37/37/37 30/30/30
f 30/30/30 37/37/37 38/38/38
f 31/31/31 39/39/39 29/29/29
f 29/29/29 39/39/39 37/37/37
f 32/32/32 40/40/40 31/31/31
f 31/31/31 40/40/40 39/39/39
f 33/33/33 41/41/41 32/32/32
f 32/32/32 41/41/41 40/40/40
f 34/34/34 42/42/42 33/33/33
f 33/33/33 42/42/42 41/41/41
f 35/35/35 43/43/43 34/34/34
f 34/34/34 43/43/43 42/42/42
f 36/36/36 44/44/44 35/35/35
f 35/35/35 44/44/44 43/43/43
f 36/36/36 45/45/45 44/44/44
f 45/45/45 46/46/46 44/44/44
f 45/45/45 47/47/47 46/46/46
f 44/44/44 48/48/48 43/43/43
f 44/44/44 46/46/46 48/48/48
f 43/43/43 49/49/49 42/42/42
f 43/43/43 48/48/48 49/49/49
f 42/42/42 50/50/50 41/41/41
f 42/42/42 49/49/49 50/50/50
f 41/41/41 51/51/51 40/40/40
f 41/41/41 50/50/50 51/51/51
f 47/47/47 52/52/52 46/46/46
f 47/47/47 53/53/53 52/52/52
f 46/46/46 54/54/54 48/48/48
f 46/46/46 52/52/52 54/54/54
f 48/48/48 55/55/55 49/49/49
f 48/48/48 54/54/54 55/55/55
f 49/49/49 56/56/56 50/50/50
f 49/49/49 55/55/55 56/56/56
f 53/53/53 57/57/57 52/52/52
f 53/53/53 58/58/58 57/57/57
f 52/52/52 59/59/59 54/54/54
f 52/52/52 57/57/57 59/59/59
f 54/54/54 60/60/60 55/55/55
f 54/54/54 59/59/59 60/60/60
f 58/58/58 61/61/61 57/57/57
f 58/58/58 62/62/62 61/61/61
f 62/62/62 63/63/63 61/61/61
f 57/57/57 64/64/64 59/59/59
f 57/57/57 61/61/61 64/64/64
f 61/61/61 63/63/63 65/65/65
f 61/61/61 65/65/65 64/64/64
f 63/63/63 66/66/66 65/65/65
f 59/59/59 64/64/64 67/67/67
f 59/59/59 67/67/67 60/60/60
f 55/55/55 60/60/60 68/68/68
f 55/55/55 68/68/68 56/56/56
f 64/64/64 65/65/65 69/69/69
f 64/64/64 69/69/69 67/67/67
f 65/65/65 66/66/66 70/70/70
f 65/65/65 70/70/70 69/69/69
f 66/66/66 71/71/71 70/70/70
f 60/60/60 67/67/67 72/72/72
f 60/60/60 72/72/72 68/68/68
f 67/67/67 69/69/69 73/73/73
f 67/67/67 73/73/73 72/72/72
f 69/69/69 70/70/70 74/74/74
f 69/69/69 74/74/74 73/73/73
f 70/70/70 71/71/71 75/75/75
f 70/70/70 75/75/75 74/74/74
f 71/71/71 76/76/76 75/75/75
f 75/75/75 76/76/76 77/77/77
f 76/76/76 78/78/78 77/77/77
f 74/74/74 75/75/75 79/79/79
f 75/75/75 77/77/77 79/79/79
f 73/73/73 74/74/74 80/80/80
f 74/74/74 79/79/79 80/80/80
f 72/72/72 73/73/73 81/81/81
f 73/73/73 80/80/80 81/81/81
f 68/68/68 72/72/72 82/82/82
f 72/72/72 81/81/81 82/82/82
f 77/77/77 78/78/78 83/83/83
f 78/78/78 84/84/84 83/83/83
f 79/79/79 77/77/77 85/85/85
f 77/77/77 83/83/83 85/85/85
f 80/80/80 79/79/79 86/86/86
f 79/79/79 85/85/85 86/86/86
f 81/81/81 80/80/80 87/87/87
f 80/80/80 86/86/86 87/87/87
f 83/83/83 84/84/84 88/88/88
f 84/84/84 89/89/89 88/88/88
f 85/85/85 83/83/83 90/90/90
f 83/83/83 88/88/88 90/90/90
f 86/86/86 85/85/85 91/91/91
f 85/85/85 90/90/90 91/91/91
f 88/88/88 89/89/89 92/92/92
f 89/89/89 93/93/93 92/92/92
f 90/90/90 88/88/88 94/94/94
f 88/88/88 92/92/92 94/94/94
f 92/92/92 93/93/93 95/95/95
f 93/93/93 96/96/96 95/95/95
f 81/81/81 87/87/87 97/97/97
f 82/82/82 81/81/81 97/97/97
f 87/87/87 86/86/86 98/98/98
f 86/86/86 91/91/91 98/98/98
f 91/91/91 90/90/90 99/99/99
f 90/90/90 94/94/94 99/99/99
f 94/94/94 92/92/92 100/100/100
f 92/92/92 95/95/95 100/100/100
f 95/95/95 96/96/96 101/101/101
f 96/96/96 102/102/102 101/101/101
f 97/97/97 87/87/87 103/103/103
f 87/87/87 98/98/98 103/103/103
f 98/98/98 91/91/91 104/104/104
f 91/91/91 99/99/99 104/104/104
f 99/99/99 94/94/94 105/105/105
f 94/94/94 100/100/100 105/105/105
f 100/100/100 95/95/95 106/106/106
f 95/95/95 101/101/101 106/106/106
f 101/101/101 102/102/102 107/107/107
f 102/102/102 108/108/108 107/107/107
f 107/107/107 108/108/108 109/109/109
f 108/108/108 110/110/110 109/109/109
f 107/107/107 109/109/109 111/111/111
f 101/101/101 107/107/107 112/112/112
f 112/112/112 107/107/107 111/111/111
f 106/106/106 101/101/101 112/112/112
f 112/112/112 111/111/111 113/113/113
f 114/114/114 112/112/112 113/113/113
f 106/106/106 112/112/112 114/114/114
f 114/114/114 113/113/113 115/115/115
f 100/100/100 106/106/106 116/116/116
f 116/116/116 106/106/106 114/114/114
f 105/105/105 100/100/100 116/116/116
f 117/117/117 114/114/114 115/115/115
f 116/116/116 114/114/114 117/117/117
f 117/117/117 115/115/115 118/118/118
f 105/105/105 116/116/116 119/119/119
f 119/119/119 116/116/116 117/117/117
f 120/120/120 117/117/117 118/118/118
f 119/119/119 117/117/117 120/120/120
f 120/120/120 118/118/118 121/121/121
f 122/122/122 105/105/105 119/119/119
f 99/99/99 105/105/105 122/122/122
f 104/104/104 99/99/99 122/122/122
f 123/123/123 120/120/120 121/121/121
f 123/123/123 121/121/121 124/124/124
f 125/125/125 119/119/119 120/120/120
f 122/122/122 119/119/119 125/125/125
f 125/125/125 120/120/120 123/123/123
f 104/104/104 122/122/122 126/126/126
f 126/126/126 122/122/122 125/125/125
f 127/127/127 123/123/123 124/124/124
f 127/127/127 124/124/124 128/128/128
f 129/129/129 125/125/125 123/123/123
f 126/126/126 125/125/125 129/129/129
f 129/129/129 123/123/123 127/127/127
f 130/130/130 104/104/104 126/126/126
f 98/98/98 104/104/104 130/130/130
f 103/103/103 98/98/98 130/130/130
f 131/131/131 127/127/127 128/128/128
f 131/131/131 128/128/128 132/132/132
f 133/133/133 129/129/129 127/127/127
f 133/133/133 127/127/127 131/131/131
f 134/134/134 126/126/126 129/129/129
f 130/130/130 126/126/126 134/134/134
f 134/134/134 129/129/129 133/133/133
f 103/103/103 130/130/130 135/135/135
f 135/135/135 130/130/130 134/134/134
f 136/136/136 131/131/131 132/132/132
f 136/136/136 132/132/132 137/137/137
f 138/138/138 133/133/133 131/131/131
f 138/138/138 131/131/131 136/136/136
f 139/139/139 134/134/134 133/133/133
f 135/135/135 134/134/134 139/139/139
f 139/139/139 133/133/133 138/138/138
f 140/140/140 103/103/103 135/135/135
f 97/97/97 103/103/103 140/140/140
f 141/141/141 136/136/136 137/137/137
f 141/141/141 137/137/137 142/142/142
f 143/143/143 138/138/138 136/136/136
f 143/143/143 136/136/136 141/141/141
f 144/144/144 139/139/139 138/138/138
f 144/144/144 138/138/138 143/143/143
f 145/145/145 135/135/135 139/139/139
f 140/140/140 135/135/135 145/145/145
f 145/145/145 139/139/139 144/144/144
f 146/146/146 97/97/97 140/140/140
f 82/82/82 97/97/97 146/146/146
f 147/147/147 141/141/141 142/142/142
f 147/147/147 142/142/142 148/148/148
f 149/149/149 147/147/147 148/148/148
f 150/150/150 143/143/143 141/141/141
f 150/150/150 141/141/141 147/147/147
f 151/151/151 147/147/147 149/149/149
f 151/151/151 150/150/150 147/147/147
f 152/152/152 151/151/151 149/149/149
f 153/153/153 144/144/144 143/143/143
f 153/153/153 143/143/143 150/150/150
f 154/154/154 145/145/145 144/144/144
f 154/154/154 144/144/144 153/153/153
f 155/155/155 151/151/151 152/152/152
f 156/156/156 155/155/155 152/152/152
f 157/157/157 150/150/150 151/151/151
f 157/157/157 153/153/153 150/150/150
f 155/155/155 157/157/157 151/151/151
f 158/158/158 155/155/155 156/156/156
f 38/38/38 158/158/158 156/156/156
f 37/37/37 158/158/158 38/38/38
f 159/159/159 153/153/153 157/157/157
f 159/159/159 154/154/154 153/153/153
f 160/160/160 157/157/157 155/155/155
f 158/158/158 160/160/160 155/155/155
f 160/160/160 159/159/159 157/157/157
f 37/37/37 161/161/161 158/158/158
f 161/161/161 160/160/160 158/158/158
f 39/39/39 161/161/161 37/37/37
f 162/162/162 159/159/159 160/160/160
f 161/161/161 162/162/162 160/160/160
f 39/39/39 163/163/163 161/161/161
f 163/163/163 162/162/162 161/161/161
f 40/40/40 163/163/163 39/39/39
f 40/40/40 51/51/51 163/163/163
f 164/164/164 154/154/154 159/159/159
f 162/162/162 164/164/164 159/159/159
f 163/163/163 165/165/165 162/162/162
f 51/51/51 165/165/165 163/163/163
f 165/165/165 164/164/164 162/162/162
f 164/164/164 166/166/166 154/154/154
f 166/166/166 145/145/145 154/154/154
f 166/166/166 140/140/140 145/145/145
f 146/146/146 140/140/140 166/166/166
f 167/167/167 166/166/166 164/164/164
f 165/165/165 167/167/167 164/164/164
f 167/167/167 146/146/146 166/166/166
f 51/51/51 168/168/168 165/165/165
f 168/168/168 167/167/167 165/165/165
f 50/50/50 168/168/168 51/51/51
f 50/50/50 56/56/56 168/168/168
f 169/169/169 146/146/146 167/167/167
f 168/168/168 169/169/169 167/167/167
f 56/56/56 169/169/169 168/168/168
f 169/169/169 82/82/82 146/146/146
f 56/56/56 68/68/68 169/169/169
f 68/68/68 82/82/82 169/169/169
