g 平面
v -0.0301103927 0.0401471891 0
v -0.0399095602 0.0200735945 0
v -0.0401471891 0.0401471891 0
v -0.0299321692 0.0200735945 0
v -0.0200735945 0.0401471891 0
v -0.039671924 0 0
v -0.0199547801 0.0200735945 0
v -0.0100367973 0.0401471891 0
v -0.0297539439 0 0
v -0.0399095602 -0.0200735945 0
v -0.00997739006 0.0200735945 0
v -0 0.0401471891 0
v -0.0299321692 -0.0200735945 0
v -0.0401471891 -0.0401471891 0
v -0.0301103927 -0.0401471891 0
v -0.019835962 0 0
v -0.0199547801 -0.0200735945 0
v -0.0200735945 -0.0401471891 0
v -0 0.0200735945 0
v 0.0100367973 0.0401471891 0
v -0.00991798099 0 0
v -0.00997739006 -0.0200735945 0
v -0.0100367973 -0.0401471891 0
v 0.0148009583 0.0200735945 0
v 0.0200735945 0.0401471891 0
v -0 0 0
v -0 -0.0200735945 0
v -0 -0.0401471891 0
v 0.0296019167 0.0200735945 0
v 0.0301103927 0.0401471891 0
v 0.0195651185 0 0
v 0.0148009583 -0.0200735945 0
v 0.0100367973 -0.0401471891 0
v 0.044402875 0.0200735945 0
v 0.0401471891 0.0401471891 0
v 0.0592038333 0.0200735945 0
v 0.039130237 0 0
v 0.0296019167 -0.0200735945 0
v 0.0200735945 -0.0401471891 0
v 0.0586953573 0 0
v 0.0782604739 0 0
v 0.044402875 -0.0200735945 0
v 0.0301103927 -0.0401471891 0
v 0.0592038333 -0.0200735945 0
v 0.0401471891 -0.0401471891 0
vt 0.914450884 0.0184537768
vt 0.997208357 0.259227037
vt 0.999215364 0.0184537768
vt 0.912945509 0.259227037
vt 0.829685926 0.0184537768
vt 0.995201349 0.49999997
vt 0.828682184 0.259227037
vt 0.744920969 0.0184537768
vt 0.911440134 0.49999997
vt 0.997208357 0.740773261
vt 0.744419336 0.259227037
vt 0.660156488 0.0184537768
vt 0.912945509 0.740773261
vt 0.999215364 0.981546223
vt 0.914450884 0.981546223
vt 0.827678919 0.5
vt 0.828682184 0.740773261
vt 0.829685926 0.981546223
vt 0.660156488 0.259227037
vt 0.575391531 0.0184537768
vt 0.743917704 0.5
vt 0.744419336 0.740773261
vt 0.744920969 0.981546223
vt 0.535156488 0.259227037
vt 0.49062705 0.0184537768
vt 0.660156488 0.5
vt 0.660156488 0.740773261
vt 0.660156488 0.981546223
vt 0.410156488 0.259227037
vt 0.405862093 0.0184537768
vt 0.494920969 0.5
vt 0.535156488 0.740773261
vt 0.575391531 0.981546223
vt 0.285156488 0.259227037
vt 0.321097136 0.0184537768
vt 0.160156488 0.259227037
vt 0.329685926 0.5
vt 0.410156488 0.740773261
vt 0.49062705 0.981546223
vt 0.164450407 0.5
vt -0.000784635544 0.5
vt 0.285156488 0.740773261
vt 0.405862093 0.981546223
vt 0.160156488 0.740773261
vt 0.321097136 0.981546223
vn -0 0 1
vn -0 0 1
vn -0 0 1
vn -0 0 1
vn -0 0 1
vn -0 0 1
vn -0 0 1
vn -0 0 1
vn -0 0 1
vn -0 0 1
vn -0 0 1
vn -0 0 1
vn -0 0 1
vn -0 0 1
vn -0 0 1
vn -0 0 1
vn -0 0 1
vn -0 0 1
vn -0 0 1
vn -0 0 1
vn -0 0 1
vn -0 0 1
vn -0 0 1
vn -0 0 1
vn -0 0 1
vn -0 0 1
vn -0 0 1
vn -0 0 1
vn -0 0 1
vn -0 0 1
vn -0 0 1
vn -0 0 1
vn -0 0 1
vn -0 0 1
vn -0 0 1
vn -0 0 1
vn -0 0 1
vn -0 0 1
vn -0 0 1
vn -0 0 1
vn -0 0 1
vn -0 0 1
vn -0 0 1
vn -0 0 1
vn -0 0 1
g 平面_0
f 3/3/3 2/2/2 1/1/1
f 2/2/2 4/4/4 1/1/1
f 1/1/1 4/4/4 5/5/5
f 2/2/2 6/6/6 4/4/4
f 4/4/4 7/7/7 5/5/5
f 5/5/5 7/7/7 8/8/8
f 6/6/6 9/9/9 4/4/4
f 4/4/4 9/9/9 7/7/7
f 6/6/6 10/10/10 9/9/9
f 7/7/7 11/11/11 8/8/8
f 8/8/8 11/11/11 12/12/12
f 10/10/10 13/13/13 9/9/9
f 10/10/10 14/14/14 13/13/13
f 14/14/14 15/15/15 13/13/13
f 9/9/9 16/16/16 7/7/7
f 9/9/9 13/13/13 16/16/16
f 7/7/7 16/16/16 11/11/11
f 13/13/13 15/15/15 17/17/17
f 13/13/13 17/17/17 16/16/16
f 15/15/15 18/18/18 17/17/17
f 11/11/11 19/19/19 12/12/12
f 12/12/12 19/19/19 20/20/20
f 16/16/16 21/21/21 11/11/11
f 16/16/16 17/17/17 21/21/21
f 11/11/11 21/21/21 19/19/19
f 17/17/17 18/18/18 22/22/22
f 17/17/17 22/22/22 21/21/21
f 18/18/18 23/23/23 22/22/22
f 19/19/19 24/24/24 20/20/20
f 20/20/20 24/24/24 25/25/25
f 21/21/21 26/26/26 19/19/19
f 21/21/21 22/22/22 26/26/26
f 19/19/19 26/26/26 24/24/24
f 22/22/22 23/23/23 27/27/27
f 22/22/22 27/27/27 26/26/26
f 23/23/23 28/28/28 27/27/27
f 24/24/24 29/29/29 25/25/25
f 25/25/25 29/29/29 30/30/30
f 26/26/26 31/31/31 24/24/24
f 26/26/26 27/27/27 31/31/31
f 24/24/24 31/31/31 29/29/29
f 27/27/27 28/28/28 32/32/32
f 27/27/27 32/32/32 31/31/31
f 28/28/28 33/33/33 32/32/32
f 29/29/29 34/34/34 30/30/30
f 30/30/30 34/34/34 35/35/35
f 34/34/34 36/36/36 35/35/35
f 31/31/31 37/37/37 29/29/29
f 31/31/31 32/32/32 37/37/37
f 29/29/29 37/37/37 34/34/34
f 32/32/32 33/33/33 38/38/38
f 32/32/32 38/38/38 37/37/37
f 33/33/33 39/39/39 38/38/38
f 34/34/34 40/40/40 36/36/36
f 37/37/37 40/40/40 34/34/34
f 37/37/37 38/38/38 40/40/40
f 40/40/40 41/41/41 36/36/36
f 38/38/38 39/39/39 42/42/42
f 38/38/38 42/42/42 40/40/40
f 40/40/40 42/42/42 41/41/41
f 39/39/39 43/43/43 42/42/42
f 42/42/42 44/44/44 41/41/41
f 42/42/42 43/43/43 44/44/44
f 43/43/43 45/45/45 44/44/44
