g 平面
v -0.784852982 1.30694246 -3.5552423
v 2.57849884 -0.922584295 2.54930401
v 1.22023678 -0.504770041 3.22896481
v -0.987564087 1.38003767 -3.34162831
v 8.85199928 9.45230675 -25.1334076
v 14.4368649 9.71722412 -23.8451633
v 14.4839878 8.93140888 -23.4507484
v 8.71330452 8.58438778 -24.6703796
v 8.71330452 8.58438778 -24.6703796
v 14.4839878 8.93140888 -23.4507484
v 14.5023632 8.18746567 -22.9034367
v 8.55361938 7.84695578 -24.088335
v 8.55361938 7.84695578 -24.088335
v 14.5023632 8.18746567 -22.9034367
v 14.498971 7.4892869 -22.2689724
v 8.38046455 7.19146395 -23.4451065
v 8.38046455 7.19146395 -23.4451065
v 14.498971 7.4892869 -22.2689724
v 14.4773531 6.83074188 -21.5805359
v 8.19693851 6.59260845 -22.7642593
v 8.19693851 6.59260845 -22.7642593
v 14.4773531 6.83074188 -21.5805359
v 14.4390097 6.20531654 -20.8543644
v 8.00464058 6.03757381 -22.0580292
v 8.00464058 6.03757381 -22.0580292
v 14.4390097 6.20531654 -20.8543644
v 14.3843889 5.60842371 -20.0989132
v 7.80447054 5.51941252 -21.3335743
v 14.3133373 5.03719902 -19.3187695
v 7.59695911 5.03429794 -20.5955143
v 14.2252522 4.49007368 -18.5164108
v 7.38238811 4.58025599 -19.8471203
v 14.1191292 3.96649218 -17.6929893
v 7.16083765 4.15655661 -19.0909271
v 13.9891768 3.47342086 -16.8439693
v 6.92866802 3.77191305 -18.327877
v 13.834753 3.00862765 -15.9711723
v 6.68727589 3.42381883 -17.5631638
v 13.6541634 2.57435226 -15.0761166
v 6.43643713 3.11227036 -16.7983494
v 13.6541634 2.57435226 -15.0761166
v 13.4474602 2.17477727 -14.1693707
v 6.17287207 2.83304167 -16.0269241
v 13.2205572 1.80451071 -13.2640305
v 5.89737797 2.57475424 -15.2432404
v 12.9655285 1.456774 -12.350112
v 5.6103735 2.34114051 -14.4637957
v 12.6891651 1.12364018 -11.4304953
v 5.31886768 2.12283516 -13.6886005
v 12.3834639 0.811811268 -10.503088
v 5.01780415 1.92733002 -12.9205036
v 12.0427418 0.525212944 -9.56886959
v 4.7039032 1.75804758 -12.1626902
v 11.6727142 0.258212328 -8.63120937
v 4.38260937 1.60691953 -11.4134274
v 11.2705917 0.0127430558 -7.69130516
v 4.05270576 1.47497201 -10.6737108
v 10.8280401 -0.205457792 -6.75134087
v 3.70871043 1.36741376 -9.94769478
v 10.3446503 -0.397383481 -5.81545687
v 3.35075188 1.28161287 -9.23607063
v 9.82304668 -0.565911472 -4.88712358
v 2.98096728 1.21319342 -8.53723049
v 9.26173687 -0.710979879 -3.97024465
v 2.59793353 1.1613934 -7.85166073
v 8.65986252 -0.83324796 -3.06929827
v 2.20013523 1.12497234 -7.17960119
v 8.01733303 -0.93416965 -2.18916154
v 1.78593624 1.10222447 -6.52100086
v 7.33363008 -1.01548553 -1.33583963
v 1.35233688 1.0915432 -5.87650156
v 7.33363008 -1.01548553 -1.33583963
v 6.5979495 -1.08088005 -0.501759529
v 0.90809536 1.09067595 -5.26026917
v 6.5979495 -1.08088005 -0.501759529
v 5.6376071 -1.12477791 0.447290868
v 0.591210365 1.10648239 -4.84453487
v 0.591210365 1.10648239 -4.84453487
v 5.6376071 -1.12477791 0.447290868
v 4.64111042 -1.11856329 1.24439692
v 0.180830002 1.14308751 -4.41015625
v 0.180830002 1.14308751 -4.41015625
v 4.64111042 -1.11856329 1.24439692
v 3.63930511 -1.06125927 1.9249934
v -0.303791046 1.20682919 -3.96180987
v -0.303791046 1.20682919 -3.96180987
v 3.63930511 -1.06125927 1.9249934
v 2.57849884 -0.922584295 2.54930401
v -0.784852982 1.30694246 -3.5552423
vt 0.030303061 0
vt 0.0303030014 1
vt 0 1
vt 0 0
vt 1 0
vt 1 1
vt 0.969696999 1
vt 0.969696999 0
vt 0.969696999 0
vt 0.969696999 1
vt 0.939393938 1
vt 0.939393938 0
vt 0.939393938 0
vt 0.939393938 1
vt 0.909090936 1
vt 0.909090877 0
vt 0.909090877 0
vt 0.909090936 1
vt 0.878787875 1
vt 0.878787875 0
vt 0.878787875 0
vt 0.878787875 1
vt 0.848484874 1
vt 0.848484874 0
vt 0.848484874 0
vt 0.848484874 1
vt 0.818181872 1
vt 0.818181813 0
vt 0.787878811 1
vt 0.787878752 0
vt 0.75757575 1
vt 0.75757575 0
vt 0.727272749 1
vt 0.727272749 0
vt 0.696969748 1
vt 0.696969748 0
vt 0.666666687 1
vt 0.666666746 0
vt 0.636363626 1
vt 0.636363685 0
vt 0.636363626 1
vt 0.606060624 1
vt 0.606060624 0
vt 0.575757563 1
vt 0.575757623 0
vt 0.545454562 1
vt 0.545454562 0
vt 0.515151501 1
vt 0.51515156 0
vt 0.484848499 1
vt 0.484848499 0
vt 0.454545438 1
vt 0.454545498 0
vt 0.424242437 1
vt 0.424242437 0
vt 0.393939376 1
vt 0.393939376 0
vt 0.363636374 1
vt 0.363636374 0
vt 0.333333313 1
vt 0.333333373 0
vt 0.303030312 1
vt 0.303030372 0
vt 0.272727251 1
vt 0.272727311 0
vt 0.24242419 1
vt 0.24242425 0
vt 0.212121129 1
vt 0.212121248 0
vt 0.181818128 1
vt 0.181818187 0
vt 0.181818128 1
vt 0.151515126 1
vt 0.151515126 0
vt 0.151515126 1
vt 0.121212065 1
vt 0.121212125 0
vt 0.121212125 0
vt 0.121212065 1
vt 0.0909090042 1
vt 0.0909091234 0
vt 0.0909091234 0
vt 0.0909090042 1
vt 0.0606060028 1
vt 0.060606122 0
vt 0.060606122 0
vt 0.0606060028 1
vt 0.0303030014 1
vt 0.030303061 0
vn 0.367657274 0.91981864 0.136974156
vn 0.367657274 0.91981864 0.136974156
vn 0.367657274 0.91981864 0.136974156
vn 0.367657274 0.91981864 0.136974156
vn -0.215115577 0.458879679 0.862064183
vn -0.215115577 0.458879679 0.862064183
vn -0.215115577 0.458879679 0.862064183
vn -0.215115577 0.458879679 0.862064183
vn -0.193801135 0.606407881 0.771174848
vn -0.193801135 0.606407881 0.771174848
vn -0.193801135 0.606407881 0.771174848
vn -0.193801135 0.606407881 0.771174848
vn -0.174253657 0.687826037 0.704649568
vn -0.174253657 0.687826037 0.704649568
vn -0.174253657 0.687826037 0.704649568
vn -0.174253657 0.687826037 0.704649568
vn -0.156646997 0.739045382 0.655189693
vn -0.156646997 0.739045382 0.655189693
vn -0.156646997 0.739045382 0.655189693
vn -0.156646997 0.739045382 0.655189693
vn -0.140424445 0.775040984 0.616110802
vn -0.140424445 0.775040984 0.616110802
vn -0.140424445 0.775040984 0.616110802
vn -0.140424445 0.775040984 0.616110802
vn -0.125103787 0.802629054 0.583211422
vn -0.125103787 0.802629054 0.583211422
vn -0.125103787 0.802629054 0.583211422
vn -0.125103787 0.802629054 0.583211422
vn -0.110331014 0.825219691 0.553931057
vn -0.110331014 0.825219691 0.553931057
vn -0.0958329216 0.84468025 0.526622653
vn -0.0958329216 0.84468025 0.526622653
vn -0.0813743919 0.862120748 0.500126123
vn -0.0813743919 0.862120748 0.500126123
vn -0.0650140196 0.882463992 0.465865493
vn -0.0650140196 0.882463992 0.465865493
vn -0.0489146523 0.899293721 0.434601277
vn -0.0489146523 0.899293721 0.434601277
vn -0.0322052501 0.914780736 0.40266493
vn -0.0322052501 0.914780736 0.40266493
vn -0.0150865978 0.928391337 0.371297628
vn -0.0150865978 0.928391337 0.371297628
vn -0.0150865978 0.928391337 0.371297628
vn 4.12034715E-05 0.937203407 0.348783314
vn 4.12034715E-05 0.937203407 0.348783314
vn 0.0147335436 0.944253683 0.328889012
vn 0.0147335436 0.944253683 0.328889012
vn 0.0269968249 0.947887719 0.317458808
vn 0.0269968249 0.947887719 0.317458808
vn 0.0415662117 0.953020334 0.300040871
vn 0.0415662117 0.953020334 0.300040871
vn 0.057466235 0.958164752 0.280388951
vn 0.057466235 0.958164752 0.280388951
vn 0.0713058636 0.96094203 0.267405957
vn 0.0713058636 0.96094203 0.267405957
vn 0.0857895836 0.963424981 0.2538746
vn 0.0857895836 0.963424981 0.2538746
vn 0.102289058 0.966062307 0.237192944
vn 0.102289058 0.966062307 0.237192944
vn 0.11816825 0.967526853 0.223445818
vn 0.11816825 0.967526853 0.223445818
vn 0.132720634 0.967854083 0.213644058
vn 0.132720634 0.967854083 0.213644058
vn 0.146996155 0.967555463 0.20549573
vn 0.146996155 0.967555463 0.20549573
vn 0.160607308 0.96662885 0.199584797
vn 0.160607308 0.96662885 0.199584797
vn 0.173101217 0.965114236 0.196444407
vn 0.173101217 0.965114236 0.196444407
vn 0.184038162 0.963089943 0.196437046
vn 0.184038162 0.963089943 0.196437046
vn 0.192442998 0.960616529 0.200453252
vn 0.192442998 0.960616529 0.200453252
vn 0.192442998 0.960616529 0.200453252
vn 0.199548081 0.957890391 0.206462368
vn 0.199548081 0.957890391 0.206462368
vn 0.199548081 0.957890391 0.206462368
vn 0.211424395 0.954933107 0.208332449
vn 0.211424395 0.954933107 0.208332449
vn 0.211424395 0.954933107 0.208332449
vn 0.211424395 0.954933107 0.208332449
vn 0.232400551 0.950980127 0.204026535
vn 0.232400551 0.950980127 0.204026535
vn 0.232400551 0.950980127 0.204026535
vn 0.232400551 0.950980127 0.204026535
vn 0.271998584 0.943709373 0.188227147
vn 0.271998584 0.943709373 0.188227147
vn 0.271998584 0.943709373 0.188227147
vn 0.271998584 0.943709373 0.188227147
g 平面_0
f 3/3/3 2/2/2 1/1/1
f 4/4/4 3/3/3 1/1/1
f 7/7/7 6/6/6 5/5/5
f 8/8/8 7/7/7 5/5/5
f 11/11/11 10/10/10 9/9/9
f 12/12/12 11/11/11 9/9/9
f 15/15/15 14/14/14 13/13/13
f 16/16/16 15/15/15 13/13/13
f 19/19/19 18/18/18 17/17/17
f 20/20/20 19/19/19 17/17/17
f 23/23/23 22/22/22 21/21/21
f 24/24/24 23/23/23 21/21/21
f 27/27/27 26/26/26 25/25/25
f 28/28/28 27/27/27 25/25/25
f 29/29/29 27/27/27 28/28/28
f 30/30/30 29/29/29 28/28/28
f 31/31/31 29/29/29 30/30/30
f 32/32/32 31/31/31 30/30/30
f 33/33/33 31/31/31 32/32/32
f 34/34/34 33/33/33 32/32/32
f 35/35/35 33/33/33 34/34/34
f 36/36/36 35/35/35 34/34/34
f 37/37/37 35/35/35 36/36/36
f 38/38/38 37/37/37 36/36/36
f 39/39/39 37/37/37 38/38/38
f 40/40/40 39/39/39 38/38/38
f 42/42/42 41/41/41 40/40/40
f 43/43/43 42/42/42 40/40/40
f 44/44/44 42/42/42 43/43/43
f 45/45/45 44/44/44 43/43/43
f 46/46/46 44/44/44 45/45/45
f 47/47/47 46/46/46 45/45/45
f 48/48/48 46/46/46 47/47/47
f 49/49/49 48/48/48 47/47/47
f 50/50/50 48/48/48 49/49/49
f 51/51/51 50/50/50 49/49/49
f 52/52/52 50/50/50 51/51/51
f 53/53/53 52/52/52 51/51/51
f 54/54/54 52/52/52 53/53/53
f 55/55/55 54/54/54 53/53/53
f 56/56/56 54/54/54 55/55/55
f 57/57/57 56/56/56 55/55/55
f 58/58/58 56/56/56 57/57/57
f 59/59/59 58/58/58 57/57/57
f 60/60/60 58/58/58 59/59/59
f 61/61/61 60/60/60 59/59/59
f 62/62/62 60/60/60 61/61/61
f 63/63/63 62/62/62 61/61/61
f 64/64/64 62/62/62 63/63/63
f 65/65/65 64/64/64 63/63/63
f 66/66/66 64/64/64 65/65/65
f 67/67/67 66/66/66 65/65/65
f 68/68/68 66/66/66 67/67/67
f 69/69/69 68/68/68 67/67/67
f 70/70/70 68/68/68 69/69/69
f 71/71/71 70/70/70 69/69/69
f 73/73/73 72/72/72 71/71/71
f 74/74/74 73/73/73 71/71/71
f 76/76/76 75/75/75 74/74/74
f 77/77/77 76/76/76 74/74/74
f 80/80/80 79/79/79 78/78/78
f 81/81/81 80/80/80 78/78/78
f 84/84/84 83/83/83 82/82/82
f 85/85/85 84/84/84 82/82/82
f 88/88/88 87/87/87 86/86/86
f 89/89/89 88/88/88 86/86/86
