g sanjiaokuang
v -0.00382308755 -0.275872439 0.0762000009
v -0.00417883974 -0.376856804 0.0762000009
v -0.278422058 0.0981478691 0.0762000009
v -0.20740965 0.0767516196 0.0762000009
v -0.226036057 0.124225304 0.0762000009
v -0.204105616 0.0783960372 0.0762000009
v -0.196166679 0.137951687 0.0762000009
v -0.176305145 0.091171667 0.0762000009
v -0.163724616 0.15061833 0.0762000009
v -0.147118032 0.102567405 0.0762000009
v -0.12787953 0.161442235 0.0762000009
v -0.115394965 0.112146609 0.0762000009
v -0.0878541097 0.169673517 0.0762000009
v -0.0799335465 0.119439282 0.0762000009
v -0.0428730063 0.174638659 0.0762000009
v -0.0395294875 0.123899169 0.0762000009
v 0.00783604849 0.17573683 0.0762000009
v 0.0070246649 0.124907322 0.0762000009
v 0.0578805394 0.173052907 0.0762000009
v 0.0531767122 0.122432157 0.0762000009
v 0.101152904 0.167319223 0.0762000009
v 0.092303291 0.117247783 0.0762000009
v 0.138776943 0.15897876 0.0762000009
v 0.125580162 0.109870955 0.0762000009
v 0.171692923 0.148546085 0.0762000009
v 0.154366761 0.100747049 0.0762000009
v 0.200797036 0.136631161 0.0762000009
v 0.180066362 0.0902258754 0.0762000009
v 0.227014512 0.123912275 0.0762000009
v 0.204053506 0.0785889998 0.0762000009
v 0.274833232 0.0986419618 0.0762000009
v 0.204139739 0.0785437375 0.0762000009
v -0.00417883974 -0.376856804 0.0762000009
v -0.00382308755 -0.275872439 0.0762000009
vt 0.000500000024 0.00384115288
vt 0.000500000024 0.993078172
vt 0.326719165 0.993078172
vt 0.326719165 0.00384115288
vt 0.347954243 0.993078172
vt 0.347954243 0.00384115288
vt 0.36961922 0.993078172
vt 0.36961922 0.00384115288
vt 0.392203271 0.993078172
vt 0.392203271 0.00384115288
vt 0.416296512 0.993078172
vt 0.416296512 0.00384115288
vt 0.442603528 0.993078172
vt 0.442603528 0.00384115288
vt 0.471927106 0.993078172
vt 0.471927106 0.00384115288
vt 0.505136073 0.993078172
vt 0.505136073 0.00384115288
vt 0.538020372 0.993078172
vt 0.538020372 0.00384115288
vt 0.566393435 0.993078172
vt 0.566393435 0.00384115288
vt 0.591183245 0.993078172
vt 0.591183245 0.00384115288
vt 0.61327827 0.993078172
vt 0.61327827 0.00384115288
vt 0.633492768 0.993078172
vt 0.633492768 0.00384115288
vt 0.652540505 0.993078172
vt 0.652540505 0.00384115288
vt 0.671036005 0.993078172
vt 0.671036005 0.00384115288
vt 0.999500036 0.993078172
vt 0.999500036 0.00384115288
vn -0 0 1
vn -0 0 1
vn -0 0 1
vn -0 0 1
vn -0 0 1
vn -0 0 1
vn -0 0 1
vn -0 0 1
vn -0 0 1
vn -0 0 1
vn -0 0 1
vn -0 0 1
vn -0 0 1
vn -0 0 1
vn -0 0 1
vn -0 0 1
vn -0 0 1
vn -0 0 1
vn -0 0 1
vn -0 0 1
vn -0 0 1
vn -0 0 1
vn -0 0 1
vn -0 0 1
vn -0 0 1
vn -0 0 1
vn -0 0 1
vn -0 0 1
vn -0 0 1
vn -0 0 1
vn -0 0 1
vn -0 0 1
vn -0 0 1
vn -0 0 1
g sanjiaokuang_0
f 3/3/3 2/2/2 1/1/1
f 4/4/4 3/3/3 1/1/1
f 5/5/5 3/3/3 4/4/4
f 6/6/6 5/5/5 4/4/4
f 7/7/7 5/5/5 6/6/6
f 8/8/8 7/7/7 6/6/6
f 9/9/9 7/7/7 8/8/8
f 10/10/10 9/9/9 8/8/8
f 11/11/11 9/9/9 10/10/10
f 12/12/12 11/11/11 10/10/10
f 13/13/13 11/11/11 12/12/12
f 14/14/14 13/13/13 12/12/12
f 15/15/15 13/13/13 14/14/14
f 16/16/16 15/15/15 14/14/14
f 17/17/17 15/15/15 16/16/16
f 18/18/18 17/17/17 16/16/16
f 19/19/19 17/17/17 18/18/18
f 20/20/20 19/19/19 18/18/18
f 21/21/21 19/19/19 20/20/20
f 22/22/22 21/21/21 20/20/20
f 23/23/23 21/21/21 22/22/22
f 24/24/24 23/23/23 22/22/22
f 25/25/25 23/23/23 24/24/24
f 26/26/26 25/25/25 24/24/24
f 27/27/27 25/25/25 26/26/26
f 28/28/28 27/27/27 26/26/26
f 29/29/29 27/27/27 28/28/28
f 30/30/30 29/29/29 28/28/28
f 31/31/31 29/29/29 30/30/30
f 32/32/32 31/31/31 30/30/30
f 33/33/33 31/31/31 32/32/32
f 34/34/34 33/33/33 32/32/32
