g waikuang
v -0.253942519 -0.194191337 0.0762000009
v -0.273703218 -0.26248011 0.0762000009
v -0.475089222 0.0938905701 0.0762000009
v -0.424172938 0.107044861 0.0762000009
v -0.474942416 0.110766187 0.0762000009
v -0.424184769 0.105731808 0.0762000009
v -0.472275585 0.124719761 0.0762000009
v -0.423706055 0.108239479 0.0762000009
v -0.464676917 0.139854416 0.0762000009
v -0.422137648 0.111363366 0.0762000009
v -0.452035427 0.154410884 0.0762000009
v -0.416580528 0.117761582 0.0762000009
v -0.434093356 0.168976173 0.0762000009
v -0.404281437 0.127745658 0.0762000009
v -0.409477383 0.184760123 0.0762000009
v -0.383603305 0.141004533 0.0762000009
v -0.376098752 0.202901393 0.0762000009
v -0.353624135 0.157298177 0.0762000009
v -0.334322184 0.221455082 0.0762000009
v -0.31561628 0.174178109 0.0762000009
v -0.287005693 0.237957954 0.0762000009
v -0.271645188 0.189514175 0.0762000009
v -0.235389039 0.25271681 0.0762000009
v -0.222387925 0.203598395 0.0762000009
v -0.180302024 0.266138941 0.0762000009
v -0.168932274 0.216623008 0.0762000009
v -0.122620843 0.278578728 0.0762000009
v -0.112319134 0.228832439 0.0762000009
v -0.0632536635 0.290364355 0.0762000009
v -0.0535575412 0.240497872 0.0762000009
v 0.00167953386 0.302724987 0.0762000009
v 0.00155523967 0.250989109 0.0762000009
v 0.0773359314 0.287946194 0.0762000009
v 0.0673687831 0.238133043 0.0762000009
v 0.146788031 0.273718476 0.0762000009
v 0.136106387 0.224051699 0.0762000009
v 0.213252068 0.258743584 0.0762000009
v 0.201271459 0.209369466 0.0762000009
v 0.275187999 0.242633149 0.0762000009
v 0.261124074 0.193800941 0.0762000009
v 0.33114323 0.224932611 0.0762000009
v 0.313836277 0.177126274 0.0762000009
v 0.379818499 0.205019996 0.0762000009
v 0.357427269 0.159293622 0.0762000009
v 0.419194043 0.182350248 0.0762000009
v 0.390636593 0.140173942 0.0762000009
v 0.447588414 0.159946814 0.0762000009
v 0.413308233 0.122285791 0.0762000009
v 0.46693027 0.139675647 0.0762000009
v 0.425980061 0.109005578 0.0762000009
v 0.478949487 0.118868798 0.0762000009
v 0.430097282 0.101877891 0.0762000009
v 0.48219642 0.0967143327 0.0762000009
v 0.430285454 0.100591362 0.0762000009
v 0.476329595 0.0773828775 0.0762000009
v 0.430061102 0.0998518988 0.0762000009
v 0.46676448 0.0636804178 0.0762000009
v 0.427184254 0.095730193 0.0762000009
v 0.459819317 0.0562533252 0.0762000009
v 0.418512046 0.0864565 0.0762000009
v 0.282578886 -0.260052145 0.0762000009
v 0.261811525 -0.193194255 0.0762000009
v 0.236356795 -0.23728478 0.0762000009
v 0.258395553 -0.191512093 0.0762000009
v 0.21186246 -0.225762039 0.0762000009
v 0.232667744 -0.179409072 0.0762000009
v 0.187193349 -0.215211809 0.0762000009
v 0.205946252 -0.167981133 0.0762000009
v 0.162050724 -0.205982938 0.0762000009
v 0.177945912 -0.15770328 0.0762000009
v 0.136111766 -0.198403403 0.0762000009
v 0.148405269 -0.149071306 0.0762000009
v 0.109018028 -0.19279331 0.0762000009
v 0.117098704 -0.142588913 0.0762000009
v 0.0796125233 -0.189397201 0.0762000009
v 0.0845989436 -0.1388354 0.0762000009
v 0.0493973494 -0.186925814 0.0762000009
v 0.0537725911 -0.13631402 0.0762000009
v 0.02115741 -0.184352219 0.0762000009
v 0.0252548009 -0.133715123 0.0762000009
v -0.00517464103 -0.182489246 0.0762000009
v -0.00289419037 -0.131723613 0.0762000009
v -0.0306405835 -0.182001457 0.0762000009
v -0.0316396803 -0.131172985 0.0762000009
v -0.0564555936 -0.183512643 0.0762000009
v -0.0617735647 -0.132936984 0.0762000009
v -0.0839525312 -0.187698379 0.0762000009
v -0.09397012 -0.137838095 0.0762000009
v -0.1148123 -0.195429802 0.0762000009
v -0.128555506 -0.146502927 0.0762000009
v -0.145366222 -0.204954714 0.0762000009
v -0.161199957 -0.156679526 0.0762000009
v -0.170985743 -0.213777304 0.0762000009
v -0.188353986 -0.166030601 0.0762000009
v -0.192169845 -0.221898258 0.0762000009
v -0.211255908 -0.174810067 0.0762000009
v -0.209846765 -0.229458079 0.0762000009
v -0.230715245 -0.183132231 0.0762000009
v -0.225002378 -0.236635312 0.0762000009
v -0.247483313 -0.19107312 0.0762000009
v -0.23865363 -0.2436454 0.0762000009
v -0.262280822 -0.198671818 0.0762000009
v -0.273703218 -0.26248011 0.0762000009
v -0.253942519 -0.194191337 0.0762000009
vt 0.000500000024 0.00428338116
vt 0.000500000024 0.987486362
vt 0.163068086 0.987486362
vt 0.163068086 0.00428338116
vt 0.166417629 0.987486362
vt 0.166417629 0.00428338116
vt 0.170024574 0.987486362
vt 0.170024574 0.00428338116
vt 0.174421757 0.987486362
vt 0.174421757 0.00428338116
vt 0.180395111 0.987486362
vt 0.180395111 0.00428338116
vt 0.188778326 0.987486362
vt 0.188778326 0.00428338116
vt 0.20035857 0.987486362
vt 0.20035857 0.00428338116
vt 0.215878531 0.987486362
vt 0.215878531 0.00428338116
vt 0.234667316 0.987486362
vt 0.234667316 0.00428338116
vt 0.255475283 0.987486362
vt 0.255475283 0.00428338116
vt 0.278055787 0.987486362
vt 0.278055787 0.00428338116
vt 0.302100211 0.987486362
vt 0.302100211 0.00428338116
vt 0.327264577 0.987486362
vt 0.327264577 0.00428338116
vt 0.353184849 0.987486362
vt 0.353184849 0.00428338116
vt 0.379485548 0.987486362
vt 0.379485548 0.00428338116
vt 0.410508692 0.987486362
vt 0.410508692 0.00428338116
vt 0.44086805 0.987486362
vt 0.44086805 0.00428338116
vt 0.469907939 0.987486362
vt 0.469907939 0.00428338116
vt 0.496991932 0.987486362
vt 0.496991932 0.00428338116
vt 0.521522045 0.987486362
vt 0.521522045 0.00428338116
vt 0.542977333 0.987486362
vt 0.542977333 0.00428338116
vt 0.561003447 0.987486362
vt 0.561003447 0.00428338116
vt 0.575003147 0.987486362
vt 0.575003147 0.00428338116
vt 0.584984004 0.987486362
vt 0.584984004 0.00428338116
vt 0.59192723 0.987486362
vt 0.59192723 0.00428338116
vt 0.59702611 0.987486362
vt 0.59702611 0.00428338116
vt 0.601540387 0.987486362
vt 0.601540387 0.00428338116
vt 0.606218815 0.987486362
vt 0.606218815 0.00428338116
vt 0.611139953 0.987486362
vt 0.611139953 0.00428338116
vt 0.758167922 0.987486362
vt 0.758167922 0.00428338116
vt 0.770076871 0.987486362
vt 0.770076871 0.00428338116
vt 0.782022059 0.987486362
vt 0.782022059 0.00428338116
vt 0.794051647 0.987486362
vt 0.794051647 0.00428338116
vt 0.806235433 0.987486362
vt 0.806235433 0.00428338116
vt 0.81867528 0.987486362
vt 0.81867528 0.00428338116
vt 0.831510961 0.987486362
vt 0.831510961 0.00428338116
vt 0.844923139 0.987486362
vt 0.844923139 0.00428338116
vt 0.858104527 0.987486362
vt 0.858104527 0.00428338116
vt 0.870370865 0.987486362
vt 0.870370865 0.00428338116
vt 0.882125676 0.987486362
vt 0.882125676 0.00428338116
vt 0.893795431 0.987486362
vt 0.893795431 0.00428338116
vt 0.905857623 0.987486362
vt 0.905857623 0.00428338116
vt 0.918852925 0.987486362
vt 0.918852925 0.00428338116
vt 0.93337369 0.987486362
vt 0.93337369 0.00428338116
vt 0.947621107 0.987486362
vt 0.947621107 0.00428338116
vt 0.959633887 0.987486362
vt 0.959633887 0.00428338116
vt 0.969795465 0.987486362
vt 0.969795465 0.00428338116
vt 0.978488326 0.987486362
vt 0.978488326 0.00428338116
vt 0.98609072 0.987486362
vt 0.98609072 0.00428338116
vt 0.992973685 0.987486362
vt 0.992973685 0.00428338116
vt 0.999500036 0.987486362
vt 0.999500036 0.00428338116
vn -0 0 1
vn -0 0 1
vn -0 0 1
vn -0 0 1
vn -0 0 1
vn -0 0 1
vn -0 0 1
vn -0 0 1
vn -0 0 1
vn -0 0 1
vn -0 0 1
vn -0 0 1
vn -0 0 1
vn -0 0 1
vn -0 0 1
vn -0 0 1
vn -0 0 1
vn -0 0 1
vn -0 0 1
vn -0 0 1
vn -0 0 1
vn -0 0 1
vn -0 0 1
vn -0 0 1
vn -0 0 1
vn -0 0 1
vn -0 0 1
vn -0 0 1
vn -0 0 1
vn -0 0 1
vn -0 0 1
vn -0 0 1
vn -0 0 1
vn -0 0 1
vn -0 0 1
vn -0 0 1
vn -0 0 1
vn -0 0 1
vn -0 0 1
vn -0 0 1
vn -0 0 1
vn -0 0 1
vn -0 0 1
vn -0 0 1
vn -0 0 1
vn -0 0 1
vn -0 0 1
vn -0 0 1
vn -0 0 1
vn -0 0 1
vn -0 0 1
vn -0 0 1
vn -0 0 1
vn -0 0 1
vn -0 0 1
vn -0 0 1
vn -0 0 1
vn -0 0 1
vn -0 0 1
vn -0 0 1
vn -0 0 1
vn -0 0 1
vn -0 0 1
vn -0 0 1
vn -0 0 1
vn -0 0 1
vn -0 0 1
vn -0 0 1
vn -0 0 1
vn -0 0 1
vn -0 0 1
vn -0 0 1
vn -0 0 1
vn -0 0 1
vn -0 0 1
vn -0 0 1
vn -0 0 1
vn -0 0 1
vn -0 0 1
vn -0 0 1
vn -0 0 1
vn -0 0 1
vn -0 0 1
vn -0 0 1
vn -0 0 1
vn -0 0 1
vn -0 0 1
vn -0 0 1
vn -0 0 1
vn -0 0 1
vn -0 0 1
vn -0 0 1
vn -0 0 1
vn -0 0 1
vn -0 0 1
vn -0 0 1
vn -0 0 1
vn -0 0 1
vn -0 0 1
vn -0 0 1
vn -0 0 1
vn -0 0 1
vn -0 0 1
vn -0 0 1
g waikuang_0
f 3/3/3 2/2/2 1/1/1
f 4/4/4 3/3/3 1/1/1
f 5/5/5 3/3/3 4/4/4
f 6/6/6 5/5/5 4/4/4
f 7/7/7 5/5/5 6/6/6
f 8/8/8 7/7/7 6/6/6
f 9/9/9 7/7/7 8/8/8
f 10/10/10 9/9/9 8/8/8
f 11/11/11 9/9/9 10/10/10
f 12/12/12 11/11/11 10/10/10
f 13/13/13 11/11/11 12/12/12
f 14/14/14 13/13/13 12/12/12
f 15/15/15 13/13/13 14/14/14
f 16/16/16 15/15/15 14/14/14
f 17/17/17 15/15/15 16/16/16
f 18/18/18 17/17/17 16/16/16
f 19/19/19 17/17/17 18/18/18
f 20/20/20 19/19/19 18/18/18
f 21/21/21 19/19/19 20/20/20
f 22/22/22 21/21/21 20/20/20
f 23/23/23 21/21/21 22/22/22
f 24/24/24 23/23/23 22/22/22
f 25/25/25 23/23/23 24/24/24
f 26/26/26 25/25/25 24/24/24
f 27/27/27 25/25/25 26/26/26
f 28/28/28 27/27/27 26/26/26
f 29/29/29 27/27/27 28/28/28
f 30/30/30 29/29/29 28/28/28
f 31/31/31 29/29/29 30/30/30
f 32/32/32 31/31/31 30/30/30
f 33/33/33 31/31/31 32/32/32
f 34/34/34 33/33/33 32/32/32
f 35/35/35 33/33/33 34/34/34
f 36/36/36 35/35/35 34/34/34
f 37/37/37 35/35/35 36/36/36
f 38/38/38 37/37/37 36/36/36
f 39/39/39 37/37/37 38/38/38
f 40/40/40 39/39/39 38/38/38
f 41/41/41 39/39/39 40/40/40
f 42/42/42 41/41/41 40/40/40
f 43/43/43 41/41/41 42/42/42
f 44/44/44 43/43/43 42/42/42
f 45/45/45 43/43/43 44/44/44
f 46/46/46 45/45/45 44/44/44
f 47/47/47 45/45/45 46/46/46
f 48/48/48 47/47/47 46/46/46
f 49/49/49 47/47/47 48/48/48
f 50/50/50 49/49/49 48/48/48
f 51/51/51 49/49/49 50/50/50
f 52/52/52 51/51/51 50/50/50
f 53/53/53 51/51/51 52/52/52
f 54/54/54 53/53/53 52/52/52
f 55/55/55 53/53/53 54/54/54
f 56/56/56 55/55/55 54/54/54
f 57/57/57 55/55/55 56/56/56
f 58/58/58 57/57/57 56/56/56
f 59/59/59 57/57/57 58/58/58
f 60/60/60 59/59/59 58/58/58
f 61/61/61 59/59/59 60/60/60
f 62/62/62 61/61/61 60/60/60
f 63/63/63 61/61/61 62/62/62
f 64/64/64 63/63/63 62/62/62
f 65/65/65 63/63/63 64/64/64
f 66/66/66 65/65/65 64/64/64
f 67/67/67 65/65/65 66/66/66
f 68/68/68 67/67/67 66/66/66
f 69/69/69 67/67/67 68/68/68
f 70/70/70 69/69/69 68/68/68
f 71/71/71 69/69/69 70/70/70
f 72/72/72 71/71/71 70/70/70
f 73/73/73 71/71/71 72/72/72
f 74/74/74 73/73/73 72/72/72
f 75/75/75 73/73/73 74/74/74
f 76/76/76 75/75/75 74/74/74
f 77/77/77 75/75/75 76/76/76
f 78/78/78 77/77/77 76/76/76
f 79/79/79 77/77/77 78/78/78
f 80/80/80 79/79/79 78/78/78
f 81/81/81 79/79/79 80/80/80
f 82/82/82 81/81/81 80/80/80
f 83/83/83 81/81/81 82/82/82
f 84/84/84 83/83/83 82/82/82
f 85/85/85 83/83/83 84/84/84
f 86/86/86 85/85/85 84/84/84
f 87/87/87 85/85/85 86/86/86
f 88/88/88 87/87/87 86/86/86
f 89/89/89 87/87/87 88/88/88
f 90/90/90 89/89/89 88/88/88
f 91/91/91 89/89/89 90/90/90
f 92/92/92 91/91/91 90/90/90
f 93/93/93 91/91/91 92/92/92
f 94/94/94 93/93/93 92/92/92
f 95/95/95 93/93/93 94/94/94
f 96/96/96 95/95/95 94/94/94
f 97/97/97 95/95/95 96/96/96
f 98/98/98 97/97/97 96/96/96
f 99/99/99 97/97/97 98/98/98
f 100/100/100 99/99/99 98/98/98
f 101/101/101 99/99/99 100/100/100
f 102/102/102 101/101/101 100/100/100
f 103/103/103 101/101/101 102/102/102
f 104/104/104 103/103/103 102/102/102
