g Torus001
v -1.19643584E-08 0.290968597 -0.0163947996
v 0.0553454831 0.313879967 1.04406084E-09
v -1.58779141E-08 0.318722159 3.48020224E-10
v 0.0505261496 0.286548138 -0.0163947996
v -1.19441337E-08 0.290968597 0.0163947977
v 0.10900937 0.299500823 -6.96040614E-10
v 0.0505261496 0.286548138 0.0163947977
v -1.58779141E-08 0.318722159 3.48020224E-10
v 0.0553454831 0.313879967 1.04406084E-09
v 0.0995170772 0.273421019 -0.0163947996
v 0.159361035 0.276021421 -1.39208078E-09
v 0.0995170772 0.273421019 0.0163947977
v 0.10900937 0.299500823 -6.96040614E-10
v 0.145484254 0.251986235 -0.0163947996
v 0.204870626 0.244155347 -3.48020057E-10
v 0.145484254 0.251986235 0.0163947977
v 0.159361035 0.276021421 -1.39208078E-09
v 0.187030986 0.222894952 -0.0163947996
v 0.244155303 0.204870671 3.48020335E-10
v 0.187030986 0.222894952 0.0163947977
v 0.204870626 0.244155347 -3.48020057E-10
v 0.222894847 0.187031016 -0.0163947996
v 0.276021391 0.159361094 3.48020307E-10
v 0.222894847 0.187031016 0.0163947977
v 0.244155303 0.204870671 3.48020335E-10
v 0.251986206 0.145484313 -0.0163947996
v 0.299500793 0.109009415 3.48020057E-10
v 0.251986206 0.145484313 0.0163947977
v 0.276021391 0.159361094 3.48020307E-10
v 0.273421019 0.0995171219 -0.0163947996
v 0.313879937 0.0553455167 3.48020057E-10
v 0.273421019 0.0995171219 0.0163947977
v 0.299500793 0.109009415 3.48020057E-10
v 0.286548138 0.0505261831 -0.0163947996
v 0.318722159 9.2604715E-09 3.48020168E-10
v 0.286548138 0.0505261831 0.0163947977
v 0.313879937 0.0553455167 3.48020057E-10
v 0.290968597 8.69054428E-09 -0.0163947996
v 0.313879937 -0.0553454943 -3.48020057E-10
v 0.290968597 8.71077255E-09 0.0163947977
v 0.318722159 9.2604715E-09 3.48020168E-10
v 0.286548138 -0.0505261682 -0.0163947996
v 0.299500793 -0.1090094 3.48020057E-10
v 0.286548138 -0.0505261682 0.0163947977
v 0.313879937 -0.0553454943 -3.48020057E-10
v 0.273421019 -0.099517107 -0.0163947996
v 0.276021391 -0.159361079 -6.96040059E-10
v 0.273421019 -0.099517107 0.0163947977
v 0.299500793 -0.1090094 3.48020057E-10
v 0.251986206 -0.145484298 -0.0163947996
v 0.244155332 -0.204870656 -6.96040392E-10
v 0.251986206 -0.145484298 0.0163947977
v 0.276021391 -0.159361079 -6.96040059E-10
v 0.222894937 -0.187031001 -0.0163947996
v 0.204870641 -0.244155347 -1.38777875E-19
v 0.222894937 -0.187031001 0.0163947977
v 0.244155332 -0.204870656 -6.96040392E-10
v 0.187030986 -0.222894952 -0.0163947996
v 0.159361064 -0.276021391 -1.38777875E-19
v 0.187030986 -0.222894952 0.0163947977
v 0.204870641 -0.244155347 -1.38777875E-19
v 0.145484284 -0.251986235 -0.0163947996
v 0.109009407 -0.299500793 -3.48020057E-10
v 0.145484284 -0.251986235 0.0163947977
v 0.159361064 -0.276021391 -1.38777875E-19
v 0.0995171145 -0.273421019 -0.0163947996
v 0.0553455167 -0.313879937 -1.38777875E-19
v 0.0995171145 -0.273421019 0.0163947977
v 0.109009407 -0.299500793 -3.48020057E-10
v 0.0505261831 -0.286548138 -0.0163947996
v 2.49704453E-08 -0.318722159 1.3920809E-09
v 0.0505261831 -0.286548138 0.0163947977
v 0.0553455167 -0.313879937 -1.38777875E-19
v 2.15436646E-08 -0.290968597 -0.0163947996
v -0.0553454719 -0.313879967 6.96040448E-10
v 2.15436646E-08 -0.290968597 0.0163947977
v 2.49704453E-08 -0.318722159 1.3920809E-09
v -0.0505261421 -0.286548138 -0.0163947996
v -0.109009355 -0.299500823 -1.04406084E-09
v -0.0505261421 -0.286548138 0.0163947977
v -0.0553454719 -0.313879967 6.96040448E-10
v -0.0995170698 -0.273421019 -0.0163947996
v -0.15936102 -0.276021421 -1.04406106E-09
v -0.0995170698 -0.273421019 0.0163947977
v -0.109009355 -0.299500823 -1.04406084E-09
v -0.145484239 -0.251986235 -0.0163947996
v -0.204870597 -0.244155362 -6.96040448E-10
v -0.145484239 -0.251986235 0.0163947977
v -0.15936102 -0.276021421 -1.04406106E-09
v -0.187030956 -0.222894907 -0.0163947996
v -0.244155273 -0.204870716 -6.96040614E-10
v -0.187030956 -0.222894967 0.0163947977
v -0.204870597 -0.244155362 -6.96040448E-10
v -0.222894877 -0.18703106 -0.0163947996
v -0.276021332 -0.159361154 -1.04406073E-09
v -0.222894877 -0.18703106 0.0163947977
v -0.244155273 -0.204870716 -6.96040614E-10
v -0.251986176 -0.145484358 -0.0163947996
v -0.299500763 -0.109009504 -1.38777875E-19
v -0.251986176 -0.145484358 0.0163947977
v -0.276021332 -0.159361154 -1.04406073E-09
v -0.27342099 -0.0995172039 -0.0163947996
v -0.313879907 -0.0553456359 3.48020057E-10
v -0.27342099 -0.0995172039 0.0163947977
v -0.299500763 -0.109009504 -1.38777875E-19
v -0.286548108 -0.0505262762 -0.0163947996
v -0.318722159 -1.24329148E-07 3.4802014E-10
v -0.286548108 -0.0505262762 0.0163947977
v -0.313879907 -0.0553456359 3.48020057E-10
v -0.290968597 -1.11317057E-07 -0.0163947996
v -0.313879967 0.0553453714 3.48020057E-10
v -0.290968597 -1.11317057E-07 0.0163947977
v -0.318722159 -1.24329148E-07 3.4802014E-10
v -0.286548167 0.050526049 -0.0163947996
v -0.299500853 0.109009266 6.96040059E-10
v -0.286548167 0.050526049 0.0163947977
v -0.313879967 0.0553453714 3.48020057E-10
v -0.273421079 0.0995169804 -0.0163947996
v -0.27602151 0.159360945 -1.38777875E-19
v -0.273421079 0.0995169804 0.0163947977
v -0.299500853 0.109009266 6.96040059E-10
v -0.251986295 0.145484164 -0.0163947996
v -0.244155437 0.204870522 1.39208034E-09
v -0.251986295 0.145484164 0.0163947977
v -0.27602151 0.159360945 -1.38777875E-19
v -0.222895041 0.187030882 -0.0163947996
v -0.204870731 0.244155273 -1.38777875E-19
v -0.222895041 0.187030882 0.0163947977
v -0.244155437 0.204870522 1.39208034E-09
v -0.187031075 0.222894877 -0.0163947996
v -0.159361169 0.276021332 -6.96040614E-10
v -0.187031075 0.222894877 0.0163947977
v -0.204870731 0.244155273 -1.38777875E-19
v -0.145484373 0.251986146 -0.0163947996
v -0.109009519 0.299500763 -1.38777875E-19
v -0.145484373 0.251986146 0.0163947977
v -0.159361169 0.276021332 -6.96040614E-10
v -0.0995172188 0.27342099 -0.0163947996
v -0.0553456545 0.313879907 -3.48019946E-10
v -0.0995172188 0.27342099 0.0163947977
v -0.109009519 0.299500763 -1.38777875E-19
v -0.0505262949 0.286548108 -0.0163947996
v -1.58779141E-08 0.318722159 3.48020224E-10
v -1.19643584E-08 0.290968597 -0.0163947996
v -0.0505262949 0.286548108 0.0163947977
v -0.0553456545 0.313879907 -3.48019946E-10
v -1.19441337E-08 0.290968597 0.0163947977
v -1.58779141E-08 0.318722159 3.48020224E-10
vt 0.666666687 0
vt 1 0.027777778
vt 1 0
vt 0.666666687 0.027777778
vt 0.333333343 0
vt 1 0.055555556
vt 0.333333343 0.027777778
vt 0 0
vt 0 0.027777778
vt 0.666666687 0.055555556
vt 1 0.0833333358
vt 0.333333343 0.055555556
vt 0 0.055555556
vt 0.666666687 0.0833333358
vt 1 0.111111112
vt 0.333333343 0.0833333358
vt 0 0.0833333358
vt 0.666666687 0.111111112
vt 1 0.138888896
vt 0.333333343 0.111111112
vt 0 0.111111112
vt 0.666666687 0.138888896
vt 1 0.166666672
vt 0.333333343 0.138888896
vt 0 0.138888896
vt 0.666666687 0.166666672
vt 1 0.194444448
vt 0.333333343 0.166666672
vt 0 0.166666672
vt 0.666666687 0.194444448
vt 1 0.222222224
vt 0.333333343 0.194444448
vt 0 0.194444448
vt 0.666666687 0.222222224
vt 1 0.25
vt 0.333333343 0.222222224
vt 0 0.222222224
vt 0.666666687 0.25
vt 1 0.277777791
vt 0.333333343 0.25
vt 0 0.25
vt 0.666666687 0.277777791
vt 1 0.305555552
vt 0.333333343 0.277777791
vt 0 0.277777791
vt 0.666666687 0.305555552
vt 1 0.333333343
vt 0.333333343 0.305555552
vt 0 0.305555552
vt 0.666666687 0.333333343
vt 1 0.361111104
vt 0.333333343 0.333333343
vt 0 0.333333343
vt 0.666666687 0.361111104
vt 1 0.388888896
vt 0.333333343 0.361111104
vt 0 0.361111104
vt 0.666666687 0.388888896
vt 1 0.416666657
vt 0.333333343 0.388888896
vt 0 0.388888896
vt 0.666666687 0.416666657
vt 1 0.444444448
vt 0.333333343 0.416666657
vt 0 0.416666657
vt 0.666666687 0.444444448
vt 1 0.472222209
vt 0.333333343 0.444444448
vt 0 0.444444448
vt 0.666666687 0.472222209
vt 1 0.5
vt 0.333333343 0.472222209
vt 0 0.472222209
vt 0.666666687 0.5
vt 1 0.527777791
vt 0.333333343 0.5
vt 0 0.5
vt 0.666666687 0.527777791
vt 1 0.555555582
vt 0.333333343 0.527777791
vt 0 0.527777791
vt 0.666666687 0.555555582
vt 1 0.583333313
vt 0.333333343 0.555555582
vt 0 0.555555582
vt 0.666666687 0.583333313
vt 1 0.611111104
vt 0.333333343 0.583333313
vt 0 0.583333313
vt 0.666666687 0.611111104
vt 1 0.638888896
vt 0.333333343 0.611111104
vt 0 0.611111104
vt 0.666666687 0.638888896
vt 1 0.666666687
vt 0.333333343 0.638888896
vt 0 0.638888896
vt 0.666666687 0.666666687
vt 1 0.694444418
vt 0.333333343 0.666666687
vt 0 0.666666687
vt 0.666666687 0.694444418
vt 1 0.722222209
vt 0.333333343 0.694444418
vt 0 0.694444418
vt 0.666666687 0.722222209
vt 1 0.75
vt 0.333333343 0.722222209
vt 0 0.722222209
vt 0.666666687 0.75
vt 1 0.777777791
vt 0.333333343 0.75
vt 0 0.75
vt 0.666666687 0.777777791
vt 1 0.805555582
vt 0.333333343 0.777777791
vt 0 0.777777791
vt 0.666666687 0.805555582
vt 1 0.833333313
vt 0.333333343 0.805555582
vt 0 0.805555582
vt 0.666666687 0.833333313
vt 1 0.861111104
vt 0.333333343 0.833333313
vt 0 0.833333313
vt 0.666666687 0.861111104
vt 1 0.888888896
vt 0.333333343 0.861111104
vt 0 0.861111104
vt 0.666666687 0.888888896
vt 1 0.916666687
vt 0.333333343 0.888888896
vt 0 0.888888896
vt 0.666666687 0.916666687
vt 1 0.944444418
vt 0.333333343 0.916666687
vt 0 0.916666687
vt 0.666666687 0.944444418
vt 1 0.972222209
vt 0.333333343 0.944444418
vt 0 0.944444418
vt 0.666666687 0.972222209
vt 1 1
vt 0.666666687 1
vt 0.333333343 0.972222209
vt 0 0.972222209
vt 0.333333343 1
vt 0 1
vn -0 -0.462178051 -0.886787117
vn 0.173648238 0.98480773 0
vn -1.96074609E-07 1 0
vn -0.0802660361 -0.455211341 -0.886758149
vn -0 -0.462178051 0.886787117
vn 0.342020035 0.939692616 -1.56859599E-07
vn -0.0802558064 -0.455156147 0.886787415
vn -1.96074609E-07 1 0
vn 0.173648238 0.98480773 0
vn -0.158093408 -0.434358299 -0.886757791
vn 0.499999613 0.866025627 0
vn -0.158073753 -0.434305698 0.886787057
vn 0.342020035 0.939692616 -1.56859599E-07
vn -0.231116474 -0.400306255 -0.886758268
vn 0.642787337 0.766044676 0
vn -0.231087908 -0.400257826 0.886787474
vn 0.499999613 0.866025627 0
vn -0.297082305 -0.354048282 -0.886787415
vn 0.766044736 0.642787278 0
vn -0.297081888 -0.35404852 0.886787415
vn 0.642787337 0.766044676 0
vn -0.354049057 -0.297082633 -0.886787057
vn 0.866025448 0.49999997 0
vn -0.35404864 -0.29708302 0.886787057
vn 0.766044736 0.642787278 0
vn -0.400257409 -0.231088564 -0.886787474
vn 0.939692616 0.342020035 0
vn -0.400257111 -0.2310891 0.886787474
vn 0.866025448 0.49999997 0
vn -0.43430537 -0.158074081 -0.886787236
vn 0.98480773 0.173648477 0
vn -0.434305221 -0.158074513 0.886787117
vn 0.939692616 0.342020035 0
vn -0.455211222 -0.0802662075 -0.886758149
vn 1 0 0
vn -0.45515576 -0.080256924 0.886787474
vn 0.98480773 0.173648477 0
vn -0.46223411 1.13462484E-07 -0.886757851
vn 0.98480773 -0.173648447 0
vn -0.462177962 -6.1015794E-07 0.886787236
vn 1 0 0
vn -0.455155998 0.0802564621 -0.886787415
vn 0.939692616 -0.342020035 0
vn -0.455156118 0.0802559555 0.886787415
vn 0.98480773 -0.173648447 0
vn -0.43430534 0.158073977 -0.886787236
vn 0.866025507 -0.499999791 0
vn -0.434304506 0.158076525 0.886787236
vn 0.939692616 -0.342020035 0
vn -0.400257677 0.23108831 -0.886787415
vn 0.766044796 -0.642787278 -1.96074481E-07
vn -0.400257945 0.231087893 0.886787415
vn 0.866025507 -0.499999791 0
vn -0.35404852 0.297082245 -0.886787295
vn 0.642787397 -0.766044557 0
vn -0.354049534 0.297080964 0.886787415
vn 0.766044796 -0.642787278 -1.96074481E-07
vn -0.297082186 0.354048699 -0.886787295
vn 0.499999702 -0.866025627 0
vn -0.297081113 0.354049534 0.886787295
vn 0.642787397 -0.766044557 0
vn -0.231088474 0.400257766 -0.886787415
vn 0.342019945 -0.939692616 0
vn -0.231088892 0.400257468 0.886787415
vn 0.499999702 -0.866025627 0
vn -0.158074155 0.434305221 -0.886787236
vn 0.173648506 -0.98480773 0
vn -0.158074543 0.434305042 0.886787295
vn 0.342019945 -0.939692616 0
vn -0.0802562609 0.455155939 -0.886787415
vn 1.56859684E-07 -1 0
vn -0.0802567601 0.455155879 0.886787474
vn 0.173648506 -0.98480773 0
vn -1.18168352E-07 0.462178081 -0.886787236
vn -0.173648238 -0.98480773 0
vn -5.94785547E-07 0.462178051 0.886787117
vn 1.56859684E-07 -1 0
vn 0.0802660361 0.455211341 -0.886758149
vn -0.342019975 -0.939692616 0
vn 0.0802557841 0.455156147 0.886787415
vn -0.173648238 -0.98480773 0
vn 0.158093408 0.434358299 -0.886757791
vn -0.499999702 -0.866025627 -1.17644539E-07
vn 0.158072829 0.434305966 0.886787057
vn -0.342019975 -0.939692616 0
vn 0.2310884 0.400257617 -0.886787415
vn -0.642787158 -0.766044796 0
vn 0.231089771 0.400256902 0.886787415
vn -0.499999702 -0.866025627 -1.17644539E-07
vn 0.297082633 0.354049116 -0.886787057
vn -0.766044497 -0.642787457 -1.56859628E-07
vn 0.29708162 0.354048878 0.886787415
vn -0.642787158 -0.766044796 0
vn 0.354048669 0.297082365 -0.886787295
vn -0.866025507 -0.499999911 0
vn 0.354093164 0.297116458 0.88675797
vn -0.766044497 -0.642787457 -1.56859628E-07
vn 0.400306314 0.231116831 -0.886758089
vn -0.939692438 -0.342020631 0
vn 0.400257409 0.231089085 0.886787295
vn -0.866025507 -0.499999911 0
vn 0.43430534 0.158074364 -0.886787117
vn -0.984807611 -0.173648953 0
vn 0.434304863 0.15807575 0.886787117
vn -0.939692438 -0.342020631 0
vn 0.455211341 0.0802662671 -0.886758149
vn -1 -4.24011319E-07 0
vn 0.455211222 0.0802667663 0.886758149
vn -0.984807611 -0.173648953 0
vn 0.462178051 2.26883202E-07 -0.886787117
vn -0.98480773 0.173648089 0
vn 0.462178022 2.71917656E-06 0.886787236
vn -1 -4.24011319E-07 0
vn 0.455155939 -0.0802561417 -0.886787474
vn -0.939692855 0.342019528 0
vn 0.455156088 -0.0802554265 0.886787474
vn -0.98480773 0.173648089 0
vn 0.4343054 -0.158074319 -0.886787117
vn -0.866025865 0.499999136 0
vn 0.434305638 -0.158073649 0.886787117
vn -0.939692855 0.342019528 0
vn 0.400258094 -0.231088385 -0.886787295
vn -0.766044855 0.642787099 0
vn 0.400258332 -0.231088057 0.886787236
vn -0.866025865 0.499999136 0
vn 0.354048818 -0.297081798 -0.886787295
vn -0.642787457 0.766044497 0
vn 0.354047298 -0.297083706 0.886787295
vn -0.766044855 0.642787099 0
vn 0.297082245 -0.35404858 -0.886787295
vn -0.49999997 0.866025448 0
vn 0.297118783 -0.354091257 0.88675797
vn -0.642787457 0.766044497 0
vn 0.231088743 -0.400257856 -0.886787295
vn -0.342020601 0.939692557 0
vn 0.231118113 -0.400305748 0.88675797
vn -0.49999997 0.866025448 0
vn 0.158074379 -0.43430534 -0.886787117
vn -0.17364879 0.984807611 0
vn 0.158094108 -0.434357822 0.886757851
vn -0.342020601 0.939692557 0
vn 0.0802564621 -0.455156058 -0.886787415
vn -1.96074609E-07 1 0
vn -0 -0.462178051 -0.886787117
vn 0.0802569762 -0.455155998 0.886787415
vn -0.17364879 0.984807611 0
vn -0 -0.462178051 0.886787117
vn -1.96074609E-07 1 0
g Torus001_0
f 3/3/3 2/2/2 1/1/1
f 2/2/2 4/4/4 1/1/1
f 1/1/1 4/4/4 5/5/5
f 2/2/2 6/6/6 4/4/4
f 4/4/4 7/7/7 5/5/5
f 5/5/5 7/7/7 8/8/8
f 7/7/7 9/9/9 8/8/8
f 6/6/6 10/10/10 4/4/4
f 4/4/4 10/10/10 7/7/7
f 6/6/6 11/11/11 10/10/10
f 7/7/7 12/12/12 9/9/9
f 10/10/10 12/12/12 7/7/7
f 12/12/12 13/13/13 9/9/9
f 11/11/11 14/14/14 10/10/10
f 10/10/10 14/14/14 12/12/12
f 11/11/11 15/15/15 14/14/14
f 12/12/12 16/16/16 13/13/13
f 14/14/14 16/16/16 12/12/12
f 16/16/16 17/17/17 13/13/13
f 15/15/15 18/18/18 14/14/14
f 14/14/14 18/18/18 16/16/16
f 15/15/15 19/19/19 18/18/18
f 16/16/16 20/20/20 17/17/17
f 18/18/18 20/20/20 16/16/16
f 20/20/20 21/21/21 17/17/17
f 19/19/19 22/22/22 18/18/18
f 18/18/18 22/22/22 20/20/20
f 19/19/19 23/23/23 22/22/22
f 20/20/20 24/24/24 21/21/21
f 22/22/22 24/24/24 20/20/20
f 24/24/24 25/25/25 21/21/21
f 23/23/23 26/26/26 22/22/22
f 22/22/22 26/26/26 24/24/24
f 23/23/23 27/27/27 26/26/26
f 24/24/24 28/28/28 25/25/25
f 26/26/26 28/28/28 24/24/24
f 28/28/28 29/29/29 25/25/25
f 27/27/27 30/30/30 26/26/26
f 26/26/26 30/30/30 28/28/28
f 27/27/27 31/31/31 30/30/30
f 28/28/28 32/32/32 29/29/29
f 30/30/30 32/32/32 28/28/28
f 32/32/32 33/33/33 29/29/29
f 31/31/31 34/34/34 30/30/30
f 30/30/30 34/34/34 32/32/32
f 31/31/31 35/35/35 34/34/34
f 32/32/32 36/36/36 33/33/33
f 34/34/34 36/36/36 32/32/32
f 36/36/36 37/37/37 33/33/33
f 35/35/35 38/38/38 34/34/34
f 34/34/34 38/38/38 36/36/36
f 35/35/35 39/39/39 38/38/38
f 36/36/36 40/40/40 37/37/37
f 38/38/38 40/40/40 36/36/36
f 40/40/40 41/41/41 37/37/37
f 39/39/39 42/42/42 38/38/38
f 38/38/38 42/42/42 40/40/40
f 39/39/39 43/43/43 42/42/42
f 40/40/40 44/44/44 41/41/41
f 42/42/42 44/44/44 40/40/40
f 44/44/44 45/45/45 41/41/41
f 43/43/43 46/46/46 42/42/42
f 42/42/42 46/46/46 44/44/44
f 43/43/43 47/47/47 46/46/46
f 44/44/44 48/48/48 45/45/45
f 46/46/46 48/48/48 44/44/44
f 48/48/48 49/49/49 45/45/45
f 47/47/47 50/50/50 46/46/46
f 46/46/46 50/50/50 48/48/48
f 47/47/47 51/51/51 50/50/50
f 48/48/48 52/52/52 49/49/49
f 50/50/50 52/52/52 48/48/48
f 52/52/52 53/53/53 49/49/49
f 51/51/51 54/54/54 50/50/50
f 50/50/50 54/54/54 52/52/52
f 51/51/51 55/55/55 54/54/54
f 52/52/52 56/56/56 53/53/53
f 54/54/54 56/56/56 52/52/52
f 56/56/56 57/57/57 53/53/53
f 55/55/55 58/58/58 54/54/54
f 54/54/54 58/58/58 56/56/56
f 55/55/55 59/59/59 58/58/58
f 56/56/56 60/60/60 57/57/57
f 58/58/58 60/60/60 56/56/56
f 60/60/60 61/61/61 57/57/57
f 59/59/59 62/62/62 58/58/58
f 58/58/58 62/62/62 60/60/60
f 59/59/59 63/63/63 62/62/62
f 60/60/60 64/64/64 61/61/61
f 62/62/62 64/64/64 60/60/60
f 64/64/64 65/65/65 61/61/61
f 63/63/63 66/66/66 62/62/62
f 62/62/62 66/66/66 64/64/64
f 63/63/63 67/67/67 66/66/66
f 64/64/64 68/68/68 65/65/65
f 66/66/66 68/68/68 64/64/64
f 68/68/68 69/69/69 65/65/65
f 67/67/67 70/70/70 66/66/66
f 66/66/66 70/70/70 68/68/68
f 67/67/67 71/71/71 70/70/70
f 68/68/68 72/72/72 69/69/69
f 70/70/70 72/72/72 68/68/68
f 72/72/72 73/73/73 69/69/69
f 71/71/71 74/74/74 70/70/70
f 70/70/70 74/74/74 72/72/72
f 71/71/71 75/75/75 74/74/74
f 72/72/72 76/76/76 73/73/73
f 74/74/74 76/76/76 72/72/72
f 76/76/76 77/77/77 73/73/73
f 75/75/75 78/78/78 74/74/74
f 74/74/74 78/78/78 76/76/76
f 75/75/75 79/79/79 78/78/78
f 76/76/76 80/80/80 77/77/77
f 78/78/78 80/80/80 76/76/76
f 80/80/80 81/81/81 77/77/77
f 79/79/79 82/82/82 78/78/78
f 78/78/78 82/82/82 80/80/80
f 79/79/79 83/83/83 82/82/82
f 80/80/80 84/84/84 81/81/81
f 82/82/82 84/84/84 80/80/80
f 84/84/84 85/85/85 81/81/81
f 83/83/83 86/86/86 82/82/82
f 82/82/82 86/86/86 84/84/84
f 83/83/83 87/87/87 86/86/86
f 84/84/84 88/88/88 85/85/85
f 86/86/86 88/88/88 84/84/84
f 88/88/88 89/89/89 85/85/85
f 87/87/87 90/90/90 86/86/86
f 86/86/86 90/90/90 88/88/88
f 87/87/87 91/91/91 90/90/90
f 88/88/88 92/92/92 89/89/89
f 90/90/90 92/92/92 88/88/88
f 92/92/92 93/93/93 89/89/89
f 91/91/91 94/94/94 90/90/90
f 90/90/90 94/94/94 92/92/92
f 91/91/91 95/95/95 94/94/94
f 92/92/92 96/96/96 93/93/93
f 94/94/94 96/96/96 92/92/92
f 96/96/96 97/97/97 93/93/93
f 95/95/95 98/98/98 94/94/94
f 94/94/94 98/98/98 96/96/96
f 95/95/95 99/99/99 98/98/98
f 96/96/96 100/100/100 97/97/97
f 98/98/98 100/100/100 96/96/96
f 100/100/100 101/101/101 97/97/97
f 99/99/99 102/102/102 98/98/98
f 98/98/98 102/102/102 100/100/100
f 99/99/99 103/103/103 102/102/102
f 100/100/100 104/104/104 101/101/101
f 102/102/102 104/104/104 100/100/100
f 104/104/104 105/105/105 101/101/101
f 103/103/103 106/106/106 102/102/102
f 102/102/102 106/106/106 104/104/104
f 103/103/103 107/107/107 106/106/106
f 104/104/104 108/108/108 105/105/105
f 106/106/106 108/108/108 104/104/104
f 108/108/108 109/109/109 105/105/105
f 107/107/107 110/110/110 106/106/106
f 106/106/106 110/110/110 108/108/108
f 107/107/107 111/111/111 110/110/110
f 108/108/108 112/112/112 109/109/109
f 110/110/110 112/112/112 108/108/108
f 112/112/112 113/113/113 109/109/109
f 111/111/111 114/114/114 110/110/110
f 110/110/110 114/114/114 112/112/112
f 111/111/111 115/115/115 114/114/114
f 112/112/112 116/116/116 113/113/113
f 114/114/114 116/116/116 112/112/112
f 116/116/116 117/117/117 113/113/113
f 115/115/115 118/118/118 114/114/114
f 114/114/114 118/118/118 116/116/116
f 115/115/115 119/119/119 118/118/118
f 116/116/116 120/120/120 117/117/117
f 118/118/118 120/120/120 116/116/116
f 120/120/120 121/121/121 117/117/117
f 119/119/119 122/122/122 118/118/118
f 118/118/118 122/122/122 120/120/120
f 119/119/119 123/123/123 122/122/122
f 120/120/120 124/124/124 121/121/121
f 122/122/122 124/124/124 120/120/120
f 124/124/124 125/125/125 121/121/121
f 123/123/123 126/126/126 122/122/122
f 122/122/122 126/126/126 124/124/124
f 123/123/123 127/127/127 126/126/126
f 124/124/124 128/128/128 125/125/125
f 126/126/126 128/128/128 124/124/124
f 128/128/128 129/129/129 125/125/125
f 127/127/127 130/130/130 126/126/126
f 126/126/126 130/130/130 128/128/128
f 127/127/127 131/131/131 130/130/130
f 128/128/128 132/132/132 129/129/129
f 130/130/130 132/132/132 128/128/128
f 132/132/132 133/133/133 129/129/129
f 131/131/131 134/134/134 130/130/130
f 130/130/130 134/134/134 132/132/132
f 131/131/131 135/135/135 134/134/134
f 132/132/132 136/136/136 133/133/133
f 134/134/134 136/136/136 132/132/132
f 136/136/136 137/137/137 133/133/133
f 135/135/135 138/138/138 134/134/134
f 134/134/134 138/138/138 136/136/136
f 135/135/135 139/139/139 138/138/138
f 136/136/136 140/140/140 137/137/137
f 138/138/138 140/140/140 136/136/136
f 140/140/140 141/141/141 137/137/137
f 139/139/139 142/142/142 138/138/138
f 138/138/138 142/142/142 140/140/140
f 139/139/139 143/143/143 142/142/142
f 143/143/143 144/144/144 142/142/142
f 140/140/140 145/145/145 141/141/141
f 142/142/142 145/145/145 140/140/140
f 142/142/142 144/144/144 145/145/145
f 145/145/145 146/146/146 141/141/141
f 144/144/144 147/147/147 145/145/145
f 145/145/145 147/147/147 146/146/146
f 147/147/147 148/148/148 146/146/146
