g ui_biankuang_4
v 0.0819975287 -0.00413259491 0.00707106758
v 0.0643463284 4.01352587E-08 0.00707106711
v 0.0454997569 0.0454996862 0.00707106711
v 0.0602682009 0.056118235 0.00707106758
v -4.7666024E-08 0.0643463284 0.00707106711
v 0.00216578715 0.0799221694 0.00707106758
v -0.0454996862 0.0454997569 0.00707106711
v -0.0547596887 0.0571877472 0.00707106758
v -0.0643463284 -4.13815933E-08 0.00707106711
v -0.0816153735 0.00245745177 0.00707106758
v -0.0454997234 -0.0454997197 0.00707106711
v -0.0590694733 -0.05737333 0.00707106758
v -0.00119681121 -0.0612154528 0.00707106711
v -0.0018123769 -0.0831453055 0.00707106758
v 0.0443028808 -0.0423688404 0.00707106711
v 0.0567807741 -0.0596483015 0.00707106758
v 0.0643463284 4.01352587E-08 0.00707106711
v 0.0819975287 -0.00413259491 0.00707106758
vt 0.000500000024 0.000500000024
vt 0.999500036 0.000500000024
vt 0.999500036 0.125017568
vt 0.000500000024 0.125017568
vt 0.999500036 0.249535128
vt 0.000500000024 0.249535128
vt 0.999500036 0.374052584
vt 0.000500000024 0.374052584
vt 0.999500036 0.498570263
vt 0.000500000024 0.498570263
vt 0.999500036 0.623087823
vt 0.000500000024 0.623087823
vt 0.999500036 0.747605383
vt 0.000500000024 0.747605383
vt 0.999500036 0.872123122
vt 0.000500000024 0.872123122
vt 0.999500036 0.996640503
vt 0.000500000024 0.996640503
vn -0 0 1
vn -0 0 1
vn -0 0 1
vn -0 0 1
vn -0 0 1
vn -0 0 1
vn -0 0 1
vn -0 0 1
vn -0 0 1
vn -0 0 1
vn -0 0 1
vn -0 0 1
vn -0 0 1
vn -0 0 1
vn -0 0 1
vn -0 0 1
vn -0 0 1
vn -0 0 1
g ui_biankuang_4_0
f 3/3/3 2/2/2 1/1/1
f 4/4/4 3/3/3 1/1/1
f 5/5/5 3/3/3 4/4/4
f 6/6/6 5/5/5 4/4/4
f 7/7/7 5/5/5 6/6/6
f 8/8/8 7/7/7 6/6/6
f 9/9/9 7/7/7 8/8/8
f 10/10/10 9/9/9 8/8/8
f 11/11/11 9/9/9 10/10/10
f 12/12/12 11/11/11 10/10/10
f 13/13/13 11/11/11 12/12/12
f 14/14/14 13/13/13 12/12/12
f 15/15/15 13/13/13 14/14/14
f 16/16/16 15/15/15 14/14/14
f 17/17/17 15/15/15 16/16/16
f 18/18/18 17/17/17 16/16/16
