g loudo_dan
v 0.0324906893 0 -0.170323178
v 0.0173752196 0.25 -0.276174545
v 0.0108873248 0 -0.173052713
v 0.0518520251 0.25 -0.271818817
v 0.0535815842 0 -0.164907947
v 0.0238631144 0.5 -0.379296422
v 0.0855110362 0.25 -0.26317662
v 0.073828049 0 -0.156891495
v 0.0712133646 0.5 -0.37331444
v 0.0303510092 0.75 -0.482418269
v 0.117821984 0.25 -0.250383526
v 0.0929091796 0 -0.146401435
v 0.0905747041 0.75 -0.474810004
v 0.036838904 1 -0.585540175
v 0.117440477 0.5 -0.361445308
v 0.14827393 0.25 -0.23364234
v 0.1105261 0 -0.133602604
v 0.109936036 1 -0.576305628
v 0.0433267951 1.25 -0.688661993
v 0.149369925 0.75 -0.459713966
v 0.161815926 0.5 -0.343875587
v 0.176388398 0.25 -0.213216528
v 0.126399487 0 -0.118697368
v 0.129297361 1.25 -0.677801251
v 0.0498146899 1.5 -0.791783869
v 0.203638688 0.5 -0.320883244
v 0.205809861 0.75 -0.437367618
v 0.181299374 1 -0.557982624
v 0.201720715 0.25 -0.189428672
v 0.140278906 0 -0.101918563
v 0.148658708 1.5 -0.779296875
v 0.0563025847 1.75 -0.894905686
v 0.242250711 0.5 -0.292830437
v 0.259003431 0.75 -0.408124149
v 0.213228837 1.25 -0.656251311
v 0.249803811 1 -0.530859649
v 0.223871261 0.25 -0.162651971
v 0.151946753 0 -0.0835340321
v 0.168020055 1.75 -0.880792499
v 0.0627904832 2 -0.998027563
v 0.187381372 2 -0.982288122
v 0.24515827 1.5 -0.754519939
v 0.277087718 1.75 -0.852788687
v 0.309017181 2 -0.951057315
v 0.293797731 1.25 -0.62435174
v 0.337791651 1.5 -0.717843771
v 0.381785601 1.75 -0.811335802
v 0.425779551 2 -0.904827833
v 0.314368188 1 -0.495365083
v 0.369732976 1.25 -0.582606018
v 0.425097734 1.5 -0.669846952
v 0.480462492 1.75 -0.757087827
v 0.535827219 2 -0.844328761
v 0.308113009 0.75 -0.372444361
v 0.373975337 1 -0.452058285
v 0.439837635 1.25 -0.53167218
v 0.505699933 1.5 -0.611286163
v 0.571562231 1.75 -0.690900087
v 0.637424529 2 -0.770513952
v 0.277041912 0.5 -0.260159969
v 0.35236311 0.75 -0.330891252
v 0.427684367 1 -0.401622564
v 0.503005564 1.25 -0.472353876
v 0.578326762 1.5 -0.543085158
v 0.653648078 1.75 -0.6138165
v 0.728969276 2 -0.684547782
v 0.307463586 0.5 -0.223385394
v 0.391055971 0.75 -0.284118801
v 0.474648327 1 -0.344852209
v 0.558240652 1.25 -0.405585617
v 0.641833007 1.5 -0.466319025
v 0.725425422 1.75 -0.527052462
v 0.809017718 2 -0.58778584
v 0.242491856 0.25 -0.13331154
v 0.161217645 0 -0.0638312697
v 0.333036959 0.5 -0.183089063
v 0.257287621 0.25 -0.101867981
v 0.167947724 0 -0.0431216955
v 0.78576237 1.75 -0.431976676
v 0.876307487 2 -0.481754184
v 0.695217252 1.5 -0.382199168
v 0.423582017 0.75 -0.232866585
v 0.268027276 0.25 -0.0688177571
v 0.172028139 0 -0.0217324849
v 0.274539053 0.25 -0.0346826017
v 0.353357583 0.5 -0.139904693
v 0.368106842 0.5 -0.0945138112
v 0.377050012 0.5 -0.0476327166
v 0.514127135 1 -0.282644123
v 0.449427545 0.75 -0.177941412
v 0.468186378 0.75 -0.12020988
v 0.479560941 0.75 -0.0605828315
v 0.604672194 1.25 -0.332421631
v 0.545497477 1 -0.215978116
v 0.568265915 1 -0.145905942
v 0.5820719 1 -0.0735329464
v 0.641567528 1.25 -0.25401482
v 0.668345451 1.25 -0.171601996
v 0.684582829 1.25 -0.0864830688
v 0.73763746 1.5 -0.292051524
v 0.768424988 1.5 -0.197298065
v 0.787093818 1.5 -0.0994331837
v 0.833707392 1.75 -0.330088258
v 0.929777324 2 -0.368124962
v 0.868504524 1.75 -0.222994119
v 0.889604807 1.75 -0.112383299
v 0.96858412 2 -0.248690173
v 0.992115676 2 -0.125333413
v 0.173393339 0 -2.20727344E-07
v 0.274539053 0.25 -0.0346826017
v 0.172028139 0 -0.0217324849
v 0.276719153 0.25 -1.93136415E-07
v 0.172027886 0 0.021731982
v 0.377050012 0.5 -0.0476327166
v 0.274538726 0.25 0.034682136
v 0.167947724 0 0.0431211591
v 0.380044997 0.5 -1.65545501E-07
v 0.479560941 0.75 -0.0605828315
v 0.268027157 0.25 0.0688172504
v 0.161217645 0 0.0638308823
v 0.483370811 0.75 -1.37954586E-07
v 0.5820719 1 -0.0735329464
v 0.377049595 0.5 0.0476322919
v 0.257287502 0.25 0.101867579
v 0.151946455 0 0.0835334957
v 0.586696625 1 -1.10363672E-07
v 0.684582829 1.25 -0.0864830688
v 0.479560465 0.75 0.0605824515
v 0.368106604 0.5 0.0945133343
v 0.242491484 0.25 0.133311018
v 0.140278906 0 0.101918027
v 0.690022469 1.25 -8.27727504E-08
v 0.787093818 1.5 -0.0994331837
v 0.353357345 0.5 0.13990429
v 0.468186021 0.75 0.120209426
v 0.582071304 1 0.0735326111
v 0.223871186 0.25 0.162651435
v 0.126399487 0 0.118696831
v 0.793348312 1.5 -5.5181836E-08
v 0.889604807 1.75 -0.112383299
v 0.333036542 0.5 0.183088526
v 0.449427187 0.75 0.177940995
v 0.684582174 1.25 0.0864827707
v 0.568265438 1 0.145905524
v 0.20172064 0.25 0.189428121
v 0.1105261 0 0.133601829
v 0.896674156 1.75 -2.7590918E-08
v 0.992115676 2 -0.125333413
v 1 2 0
v 0.787093043 1.5 0.0994329229
v 0.889603853 1.75 0.112383075
v 0.992114723 2 0.125333235
v 0.668344855 1.25 0.171601623
v 0.768424273 1.5 0.197297707
v 0.86850369 1.75 0.222993791
v 0.968583107 2 0.248689875
v 0.54549706 1 0.215977699
v 0.641566932 1.25 0.254014403
v 0.737636685 1.5 0.292051107
v 0.833706558 1.75 0.330087811
v 0.92977643 2 0.368124545
v 0.423581541 0.75 0.232866049
v 0.514126599 1 0.282643586
v 0.604671597 1.25 0.332421094
v 0.695216656 1.5 0.382198632
v 0.785761714 1.75 0.431976169
v 0.876306653 2 0.481753647
v 0.307463437 0.5 0.223384827
v 0.391055703 0.75 0.284118235
v 0.474647969 1 0.344851643
v 0.558240235 1.25 0.405585021
v 0.641832471 1.5 0.466318429
v 0.725424767 1.75 0.527051866
v 0.809017003 2 0.587785244
v 0.277041793 0.5 0.260159403
v 0.352362931 0.75 0.330890685
v 0.427684098 1 0.401621968
v 0.503005266 1.25 0.47235328
v 0.578326404 1.5 0.543084562
v 0.653647602 1.75 0.613815844
v 0.72896874 2 0.684547126
v 0.176388353 0.25 0.213215768
v 0.0929091796 0 0.146400914
v 0.242250592 0.5 0.292829692
v 0.1482739 0.25 0.233641788
v 0.0738279298 0 0.156890959
v 0.571561873 1.75 0.690899312
v 0.637424111 2 0.770513296
v 0.505699575 1.5 0.611285448
v 0.30811283 0.75 0.372443616
v 0.117821865 0.25 0.25038299
v 0.0535815842 0 0.164907411
v 0.203638613 0.5 0.320882678
v 0.480462164 1.75 0.757087052
v 0.535826921 2 0.844327986
v 0.373975098 1 0.45205757
v 0.0855110213 0.25 0.263176054
v 0.0324906893 0 0.170322642
v 0.259003341 0.75 0.408123553
v 0.161815792 0.5 0.343874991
v 0.439837337 1.25 0.531671524
v 0.0518520325 0.25 0.271818221
v 0.0108873397 0 0.173052177
v 0.0173752494 0.25 0.276174039
v 0.11744047 0.5 0.361444682
v 0.0712133795 0.5 0.373313814
v 0.023863161 0.5 0.379295886
v 0.205809742 0.75 0.437367022
v 0.314368039 1 0.495364457
v 0.369732767 1.25 0.582605302
v 0.090574719 0.75 0.474809408
v 0.0303510707 0.75 0.482417703
v 0.14936991 0.75 0.45971334
v 0.249803677 1 0.530858994
v 0.425097495 1.5 0.669846177
v 0.109936066 1 0.576305032
v 0.0368389823 1 0.58553952
v 0.181299359 1 0.557982028
v 0.293797612 1.25 0.624351025
v 0.337791562 1.5 0.717843056
v 0.213228792 1.25 0.656250656
v 0.129297405 1.25 0.677800655
v 0.043326892 1.25 0.688661397
v 0.381785512 1.75 0.811335146
v 0.425779402 2 0.904827118
v 0.24515824 1.5 0.754519343
v 0.148658752 1.5 0.779296219
v 0.0498148017 1.5 0.791783273
v 0.277087688 1.75 0.852787971
v 0.309017122 2 0.951056659
v 0.168020099 1.75 0.880791843
v 0.0563027076 1.75 0.89490509
v 0.187381431 2 0.982287407
v 0.0627906248 2 0.998026967
vt 0.199999988 0
vt 0.219999999 0.125
vt 0.219999999 0
vt 0.199999988 0.125
vt 0.180000007 0
vt 0.219999999 0.25
vt 0.180000007 0.125
vt 0.159999996 0
vt 0.199999988 0.25
vt 0.219999999 0.375
vt 0.159999996 0.125
vt 0.139999986 0
vt 0.199999988 0.375
vt 0.219999999 0.5
vt 0.180000007 0.25
vt 0.139999986 0.125
vt 0.120000005 0
vt 0.199999988 0.5
vt 0.219999999 0.625
vt 0.180000007 0.375
vt 0.159999996 0.25
vt 0.120000005 0.125
vt 0.099999994 0
vt 0.199999988 0.625
vt 0.219999999 0.75
vt 0.139999986 0.25
vt 0.159999996 0.375
vt 0.180000007 0.5
vt 0.099999994 0.125
vt 0.0800000131 0
vt 0.199999988 0.75
vt 0.219999999 0.875
vt 0.120000005 0.25
vt 0.139999986 0.375
vt 0.180000007 0.625
vt 0.159999996 0.5
vt 0.0800000131 0.125
vt 0.0600000024 0
vt 0.199999988 0.875
vt 0.219999999 1
vt 0.199999988 1
vt 0.180000007 0.75
vt 0.180000007 0.875
vt 0.180000007 1
vt 0.159999996 0.625
vt 0.159999996 0.75
vt 0.159999996 0.875
vt 0.159999996 1
vt 0.139999986 0.5
vt 0.139999986 0.625
vt 0.139999986 0.75
vt 0.139999986 0.875
vt 0.139999986 1
vt 0.120000005 0.375
vt 0.120000005 0.5
vt 0.120000005 0.625
vt 0.120000005 0.75
vt 0.120000005 0.875
vt 0.120000005 1
vt 0.099999994 0.25
vt 0.099999994 0.375
vt 0.099999994 0.5
vt 0.099999994 0.625
vt 0.099999994 0.75
vt 0.099999994 0.875
vt 0.099999994 1
vt 0.0800000131 0.25
vt 0.0800000131 0.375
vt 0.0800000131 0.5
vt 0.0800000131 0.625
vt 0.0800000131 0.75
vt 0.0800000131 0.875
vt 0.0800000131 1
vt 0.0600000024 0.125
vt 0.0399999917 0
vt 0.0600000024 0.25
vt 0.0399999917 0.125
vt 0.0200000107 0
vt 0.0600000024 0.875
vt 0.0600000024 1
vt 0.0600000024 0.75
vt 0.0600000024 0.375
vt 0.0200000107 0.125
vt 0 0
vt 0 0.125
vt 0.0399999917 0.25
vt 0.0200000107 0.25
vt 0 0.25
vt 0.0600000024 0.5
vt 0.0399999917 0.375
vt 0.0200000107 0.375
vt 0 0.375
vt 0.0600000024 0.625
vt 0.0399999917 0.5
vt 0.0200000107 0.5
vt 0 0.5
vt 0.0399999917 0.625
vt 0.0200000107 0.625
vt 0 0.625
vt 0.0399999917 0.75
vt 0.0200000107 0.75
vt 0 0.75
vt 0.0399999917 0.875
vt 0.0399999917 1
vt 0.0200000107 0.875
vt 0 0.875
vt 0.0200000107 1
vt 0 1
vt 0.980000019 0
vt 1 0.125
vt 1 0
vt 0.980000019 0.125
vt 0.960000038 0
vt 1 0.25
vt 0.960000038 0.125
vt 0.939999998 0
vt 0.980000019 0.25
vt 1 0.375
vt 0.939999998 0.125
vt 0.919999957 0
vt 0.980000019 0.375
vt 1 0.5
vt 0.960000038 0.25
vt 0.919999957 0.125
vt 0.899999976 0
vt 0.980000019 0.5
vt 1 0.625
vt 0.960000038 0.375
vt 0.939999998 0.25
vt 0.899999976 0.125
vt 0.879999995 0
vt 0.980000019 0.625
vt 1 0.75
vt 0.919999957 0.25
vt 0.939999998 0.375
vt 0.960000038 0.5
vt 0.879999995 0.125
vt 0.860000014 0
vt 0.980000019 0.75
vt 1 0.875
vt 0.899999976 0.25
vt 0.919999957 0.375
vt 0.960000038 0.625
vt 0.939999998 0.5
vt 0.860000014 0.125
vt 0.840000033 0
vt 0.980000019 0.875
vt 1 1
vt 0.980000019 1
vt 0.960000038 0.75
vt 0.960000038 0.875
vt 0.960000038 1
vt 0.939999998 0.625
vt 0.939999998 0.75
vt 0.939999998 0.875
vt 0.939999998 1
vt 0.919999957 0.5
vt 0.919999957 0.625
vt 0.919999957 0.75
vt 0.919999957 0.875
vt 0.919999957 1
vt 0.899999976 0.375
vt 0.899999976 0.5
vt 0.899999976 0.625
vt 0.899999976 0.75
vt 0.899999976 0.875
vt 0.899999976 1
vt 0.879999995 0.25
vt 0.879999995 0.375
vt 0.879999995 0.5
vt 0.879999995 0.625
vt 0.879999995 0.75
vt 0.879999995 0.875
vt 0.879999995 1
vt 0.860000014 0.25
vt 0.860000014 0.375
vt 0.860000014 0.5
vt 0.860000014 0.625
vt 0.860000014 0.75
vt 0.860000014 0.875
vt 0.860000014 1
vt 0.840000033 0.125
vt 0.819999993 0
vt 0.840000033 0.25
vt 0.819999993 0.125
vt 0.800000012 0
vt 0.840000033 0.875
vt 0.840000033 1
vt 0.840000033 0.75
vt 0.840000033 0.375
vt 0.800000012 0.125
vt 0.779999971 0
vt 0.819999993 0.25
vt 0.819999993 0.875
vt 0.819999993 1
vt 0.840000033 0.5
vt 0.779999971 0.125
vt 0.75999999 0
vt 0.819999993 0.375
vt 0.800000012 0.25
vt 0.840000033 0.625
vt 0.75999999 0.125
vt 0.74000001 0
vt 0.74000001 0.125
vt 0.779999971 0.25
vt 0.75999999 0.25
vt 0.74000001 0.25
vt 0.800000012 0.375
vt 0.819999993 0.5
vt 0.819999993 0.625
vt 0.75999999 0.375
vt 0.74000001 0.375
vt 0.779999971 0.375
vt 0.800000012 0.5
vt 0.819999993 0.75
vt 0.75999999 0.5
vt 0.74000001 0.5
vt 0.779999971 0.5
vt 0.800000012 0.625
vt 0.800000012 0.75
vt 0.779999971 0.625
vt 0.75999999 0.625
vt 0.74000001 0.625
vt 0.800000012 0.875
vt 0.800000012 1
vt 0.779999971 0.75
vt 0.75999999 0.75
vt 0.74000001 0.75
vt 0.779999971 0.875
vt 0.779999971 1
vt 0.75999999 0.875
vt 0.74000001 0.875
vt 0.75999999 1
vt 0.74000001 1
vn 0.173179537 -0.381965041 -0.90780586
vn 0.0580338128 -0.38196519 -0.92235285
vn 0.0580355115 -0.38196519 -0.922352731
vn 0.1731776 -0.381965071 -0.907806218
vn 0.285591751 -0.381965339 -0.87894243
vn 0.0580318384 -0.381965131 -0.922353029
vn 0.285590202 -0.381965339 -0.878942966
vn 0.393499672 -0.38196525 -0.836217999
vn 0.17317602 -0.381965101 -0.907806516
vn 0.0580308959 -0.38196516 -0.922353029
vn 0.393498689 -0.38196522 -0.836218417
vn 0.495193809 -0.381965071 -0.780311286
vn 0.173175439 -0.38196516 -0.907806635
vn 0.058030352 -0.381965131 -0.922353029
vn 0.285588831 -0.38196528 -0.878943443
vn 0.49519518 -0.38196519 -0.780310452
vn 0.589078367 -0.381965071 -0.712101996
vn 0.173174843 -0.381965101 -0.907806695
vn 0.0580299683 -0.381965071 -0.922353029
vn 0.285587966 -0.38196522 -0.878943682
vn 0.393497378 -0.38196525 -0.836219013
vn 0.589081883 -0.381965131 -0.712099254
vn 0.673699439 -0.381965637 -0.632638454
vn 0.173174426 -0.381965011 -0.907806814
vn 0.0580295771 -0.381965101 -0.922353029
vn 0.495196491 -0.38196525 -0.780309558
vn 0.393496394 -0.38196522 -0.836219609
vn 0.285587281 -0.38196525 -0.87894392
vn 0.673698545 -0.381965399 -0.632639468
vn 0.747677624 -0.381964713 -0.543213665
vn 0.173174053 -0.38196519 -0.907806814
vn 0.0580290966 -0.381965131 -0.922353148
vn 0.589085758 -0.381965131 -0.712095916
vn 0.495196998 -0.38196528 -0.780309141
vn 0.285586894 -0.38196519 -0.878944099
vn 0.39349553 -0.38196528 -0.836219907
vn 0.747676909 -0.381964743 -0.543214679
vn 0.809861541 -0.381965637 -0.445226431
vn 0.173173681 -0.381965309 -0.907806933
vn 0.0580289178 -0.381965131 -0.922353148
vn 0.173173517 -0.38196519 -0.907806933
vn 0.285586625 -0.38196528 -0.878944159
vn 0.285586447 -0.38196525 -0.878944159
vn 0.285586476 -0.38196516 -0.878944278
vn 0.393495083 -0.38196528 -0.836220086
vn 0.393495083 -0.38196525 -0.836220205
vn 0.393495142 -0.38196525 -0.836220205
vn 0.393495113 -0.38196525 -0.836220086
vn 0.495197445 -0.381965339 -0.780308902
vn 0.495197654 -0.38196528 -0.780308783
vn 0.495197922 -0.38196528 -0.780308604
vn 0.495198131 -0.381965399 -0.780308485
vn 0.495198101 -0.381965429 -0.780308306
vn 0.589088023 -0.38196516 -0.712093949
vn 0.589089632 -0.38196516 -0.712092757
vn 0.589090824 -0.381965131 -0.712091744
vn 0.58909148 -0.38196519 -0.712091267
vn 0.589091957 -0.381965309 -0.71209079
vn 0.589092255 -0.38196522 -0.712090492
vn 0.673697352 -0.381965339 -0.632640779
vn 0.673696876 -0.38196522 -0.632641375
vn 0.673696518 -0.38196519 -0.632641733
vn 0.67369622 -0.381965101 -0.632642031
vn 0.673696101 -0.38196516 -0.63264215
vn 0.673695922 -0.381965041 -0.632642448
vn 0.673695803 -0.381964982 -0.632642627
vn 0.747675955 -0.381964833 -0.543215871
vn 0.747675538 -0.381964982 -0.543216348
vn 0.74767524 -0.381965011 -0.543216765
vn 0.747675002 -0.381964982 -0.543217063
vn 0.747674823 -0.38196516 -0.543217361
vn 0.747674584 -0.381965309 -0.543217599
vn 0.747674465 -0.38196525 -0.543217659
vn 0.809861779 -0.381965458 -0.445226222
vn 0.859274745 -0.381964743 -0.340220362
vn 0.809861839 -0.381965458 -0.445226014
vn 0.859275579 -0.381964803 -0.340218306
vn 0.895136774 -0.381965309 -0.229853332
vn 0.809862196 -0.38196519 -0.445225567
vn 0.809862196 -0.381965131 -0.445225537
vn 0.809862137 -0.38196519 -0.445225656
vn 0.809862018 -0.381965399 -0.445225775
vn 0.895138144 -0.38196525 -0.229848236
vn 0.916893005 -0.381965756 -0.115799621
vn 0.916892052 -0.381965637 -0.11580649
vn 0.859276354 -0.381965041 -0.340215981
vn 0.895139635 -0.381965131 -0.229842588
vn 0.916891158 -0.381965399 -0.11581406
vn 0.809862077 -0.38196528 -0.445225805
vn 0.859276772 -0.381965101 -0.340214729
vn 0.895140409 -0.381965101 -0.229839459
vn 0.916890681 -0.381965369 -0.115818329
vn 0.809862018 -0.38196516 -0.445225865
vn 0.859277129 -0.381965041 -0.340213805
vn 0.895141006 -0.381965101 -0.229837418
vn 0.916890383 -0.38196528 -0.115821108
vn 0.859277308 -0.381965131 -0.340213269
vn 0.895141482 -0.381965071 -0.229835838
vn 0.916890264 -0.381965101 -0.115823165
vn 0.859277606 -0.38196516 -0.340212733
vn 0.895141661 -0.381965101 -0.22983484
vn 0.916889966 -0.38196519 -0.115824685
vn 0.859277666 -0.381965101 -0.340212345
vn 0.859277785 -0.381964952 -0.340212375
vn 0.89514184 -0.381965101 -0.229834303
vn 0.916889787 -0.38196516 -0.115825787
vn 0.895141959 -0.381965011 -0.229834065
vn 0.916889846 -0.381964892 -0.115826219
vn 0.924177349 -0.38196367 4.82380528E-06
vn 0.916892052 -0.381965637 -0.11580649
vn 0.916893005 -0.381965756 -0.115799621
vn 0.924177229 -0.381963968 4.54118981E-06
vn 0.916892886 -0.381965429 0.115800753
vn 0.916891158 -0.381965399 -0.11581406
vn 0.916891992 -0.38196522 0.115808316
vn 0.895137966 -0.381965131 0.229849279
vn 0.924177051 -0.381964386 4.14842816E-06
vn 0.916890681 -0.381965369 -0.115818329
vn 0.895138979 -0.381965011 0.229845271
vn 0.859273255 -0.381964475 0.340224385
vn 0.924176931 -0.381964564 3.81882001E-06
vn 0.916890383 -0.38196528 -0.115821108
vn 0.916891098 -0.381965011 0.11581666
vn 0.859274387 -0.381964624 0.340221196
vn 0.809861362 -0.381965131 0.445227146
vn 0.924176931 -0.381964773 3.68669157E-06
vn 0.916890264 -0.381965101 -0.115823165
vn 0.916890562 -0.381964892 0.115821153
vn 0.895140111 -0.381964833 0.229841277
vn 0.80986166 -0.381965101 0.44522658
vn 0.747679949 -0.381964624 0.543210566
vn 0.924176931 -0.381964743 3.38930408E-06
vn 0.916889966 -0.38196519 -0.115824685
vn 0.859275639 -0.381964713 0.340218037
vn 0.895140827 -0.381964713 0.229838714
vn 0.916890085 -0.381965011 0.11582417
vn 0.747678697 -0.381964594 0.543212354
vn 0.67369777 -0.381965548 0.632640183
vn 0.924176812 -0.381964803 3.40719794E-06
vn 0.916889787 -0.38196516 -0.115825787
vn 0.809861898 -0.381965101 0.445226133
vn 0.859276414 -0.381964743 0.34021607
vn 0.916889846 -0.381964833 0.115826257
vn 0.895141304 -0.381964773 0.229836807
vn 0.673697233 -0.381965339 0.632640839
vn 0.589078546 -0.381964862 0.712101996
vn 0.924176812 -0.381964803 3.61252319E-06
vn 0.916889846 -0.381964892 -0.115826219
vn 0.924176931 -0.381964684 3.55131601E-06
vn 0.916889787 -0.381964892 0.115827918
vn 0.916889548 -0.381964743 0.115829237
vn 0.916889548 -0.381964594 0.115829706
vn 0.895141602 -0.381964773 0.229835898
vn 0.89514178 -0.381964803 0.229835004
vn 0.895141959 -0.381964743 0.229834244
vn 0.895141959 -0.381964713 0.229834095
vn 0.85927707 -0.381964803 0.340214401
vn 0.859277427 -0.381964862 0.340213537
vn 0.859277606 -0.381964982 0.340212733
vn 0.859277844 -0.381964773 0.340212286
vn 0.859277904 -0.381964624 0.340212494
vn 0.809862137 -0.381965041 0.445225775
vn 0.809862196 -0.381964982 0.445225567
vn 0.809862196 -0.381965071 0.445225537
vn 0.809862435 -0.381965131 0.445225179
vn 0.809862554 -0.381964952 0.445225239
vn 0.809862435 -0.381964773 0.445225477
vn 0.747677267 -0.381964713 0.543214202
vn 0.747676432 -0.381964922 0.543215215
vn 0.747675776 -0.381964922 0.54321605
vn 0.747675419 -0.381964922 0.543216586
vn 0.7476753 -0.381965011 0.543216705
vn 0.74767524 -0.381965011 0.543216765
vn 0.74767518 -0.381964982 0.543216944
vn 0.673696816 -0.38196519 0.632641494
vn 0.673696578 -0.381965101 0.632641673
vn 0.673696458 -0.381965041 0.632641912
vn 0.673696458 -0.381964982 0.632642031
vn 0.673696339 -0.381965131 0.632641971
vn 0.673696339 -0.381964922 0.63264209
vn 0.67369628 -0.381964654 0.632642329
vn 0.589082241 -0.381964922 0.712099016
vn 0.495195866 -0.381965131 0.780309975
vn 0.589085937 -0.381965011 0.712095857
vn 0.49519673 -0.381965131 0.780309498
vn 0.393499702 -0.381965131 0.836217999
vn 0.589092076 -0.381964952 0.71209085
vn 0.589092135 -0.381964803 0.712090909
vn 0.589091539 -0.381965101 0.712091148
vn 0.589088202 -0.381965011 0.71209389
vn 0.39349857 -0.381965131 0.836218596
vn 0.285591871 -0.38196525 0.87894243
vn 0.495197713 -0.381965131 0.780308843
vn 0.495198578 -0.38196519 0.780308187
vn 0.495198578 -0.381965011 0.780308306
vn 0.589089811 -0.381965011 0.712092638
vn 0.285590529 -0.38196525 0.878942907
vn 0.173179641 -0.381964982 0.90780592
vn 0.495197892 -0.38196519 0.780308723
vn 0.393497527 -0.381965101 0.836219013
vn 0.589090824 -0.381964982 0.712091863
vn 0.173178181 -0.381965041 0.907806158
vn 0.0580360033 -0.38196519 0.922352612
vn 0.0580342188 -0.38196522 0.922352731
vn 0.28558889 -0.38196528 0.878943443
vn 0.173176467 -0.381965071 0.907806516
vn 0.0580327325 -0.38196519 0.92235291
vn 0.393496871 -0.381965131 0.83621937
vn 0.495198071 -0.38196516 0.780308604
vn 0.495198369 -0.381965131 0.780308425
vn 0.173175588 -0.381965101 0.907806635
vn 0.0580320507 -0.381965011 0.922353029
vn 0.285588264 -0.38196522 0.878943622
vn 0.393496335 -0.38196516 0.836219609
vn 0.495198518 -0.38196528 0.780308247
vn 0.173174977 -0.381965101 0.907806695
vn 0.0580314733 -0.381965071 0.922353029
vn 0.285587728 -0.38196528 0.878943801
vn 0.393495917 -0.38196516 0.836219788
vn 0.393495858 -0.381965309 0.836219788
vn 0.285587162 -0.38196525 0.87894398
vn 0.173174575 -0.38196516 0.907806814
vn 0.0580309369 -0.38196516 0.922353029
vn 0.39349553 -0.381965131 0.836219907
vn 0.393495232 -0.381965101 0.836220086
vn 0.285587221 -0.381965101 0.878944099
vn 0.173174292 -0.38196516 0.907806814
vn 0.0580301806 -0.381965011 0.922353029
vn 0.285586983 -0.381965041 0.878944159
vn 0.285586625 -0.381965041 0.878944159
vn 0.173174039 -0.381965071 0.907806933
vn 0.0580296963 -0.381964952 0.922353148
vn 0.173173949 -0.381965041 0.907806993
vn 0.0580296107 -0.381964862 0.922353148
g loudo_dan_0
f 3/3/3 2/2/2 1/1/1
f 2/2/2 4/4/4 1/1/1
f 1/1/1 4/4/4 5/5/5
f 2/2/2 6/6/6 4/4/4
f 4/4/4 7/7/7 5/5/5
f 5/5/5 7/7/7 8/8/8
f 6/6/6 9/9/9 4/4/4
f 4/4/4 9/9/9 7/7/7
f 6/6/6 10/10/10 9/9/9
f 7/7/7 11/11/11 8/8/8
f 8/8/8 11/11/11 12/12/12
f 10/10/10 13/13/13 9/9/9
f 10/10/10 14/14/14 13/13/13
f 9/9/9 15/15/15 7/7/7
f 7/7/7 15/15/15 11/11/11
f 9/9/9 13/13/13 15/15/15
f 11/11/11 16/16/16 12/12/12
f 12/12/12 16/16/16 17/17/17
f 14/14/14 18/18/18 13/13/13
f 14/14/14 19/19/19 18/18/18
f 13/13/13 20/20/20 15/15/15
f 13/13/13 18/18/18 20/20/20
f 15/15/15 21/21/21 11/11/11
f 11/11/11 21/21/21 16/16/16
f 15/15/15 20/20/20 21/21/21
f 16/16/16 22/22/22 17/17/17
f 17/17/17 22/22/22 23/23/23
f 19/19/19 24/24/24 18/18/18
f 19/19/19 25/25/25 24/24/24
f 21/21/21 26/26/26 16/16/16
f 16/16/16 26/26/26 22/22/22
f 20/20/20 27/27/27 21/21/21
f 21/21/21 27/27/27 26/26/26
f 18/18/18 28/28/28 20/20/20
f 18/18/18 24/24/24 28/28/28
f 20/20/20 28/28/28 27/27/27
f 22/22/22 29/29/29 23/23/23
f 23/23/23 29/29/29 30/30/30
f 25/25/25 31/31/31 24/24/24
f 25/25/25 32/32/32 31/31/31
f 26/26/26 33/33/33 22/22/22
f 22/22/22 33/33/33 29/29/29
f 27/27/27 34/34/34 26/26/26
f 26/26/26 34/34/34 33/33/33
f 24/24/24 35/35/35 28/28/28
f 24/24/24 31/31/31 35/35/35
f 28/28/28 36/36/36 27/27/27
f 27/27/27 36/36/36 34/34/34
f 28/28/28 35/35/35 36/36/36
f 29/29/29 37/37/37 30/30/30
f 30/30/30 37/37/37 38/38/38
f 32/32/32 39/39/39 31/31/31
f 32/32/32 40/40/40 39/39/39
f 40/40/40 41/41/41 39/39/39
f 31/31/31 42/42/42 35/35/35
f 31/31/31 39/39/39 42/42/42
f 39/39/39 41/41/41 43/43/43
f 39/39/39 43/43/43 42/42/42
f 41/41/41 44/44/44 43/43/43
f 35/35/35 45/45/45 36/36/36
f 35/35/35 42/42/42 45/45/45
f 42/42/42 43/43/43 46/46/46
f 42/42/42 46/46/46 45/45/45
f 43/43/43 44/44/44 47/47/47
f 43/43/43 47/47/47 46/46/46
f 44/44/44 48/48/48 47/47/47
f 36/36/36 45/45/45 49/49/49
f 36/36/36 49/49/49 34/34/34
f 45/45/45 46/46/46 50/50/50
f 45/45/45 50/50/50 49/49/49
f 46/46/46 47/47/47 51/51/51
f 46/46/46 51/51/51 50/50/50
f 47/47/47 48/48/48 52/52/52
f 47/47/47 52/52/52 51/51/51
f 48/48/48 53/53/53 52/52/52
f 34/34/34 49/49/49 54/54/54
f 34/34/34 54/54/54 33/33/33
f 49/49/49 50/50/50 55/55/55
f 49/49/49 55/55/55 54/54/54
f 50/50/50 51/51/51 56/56/56
f 50/50/50 56/56/56 55/55/55
f 51/51/51 52/52/52 57/57/57
f 51/51/51 57/57/57 56/56/56
f 52/52/52 53/53/53 58/58/58
f 52/52/52 58/58/58 57/57/57
f 53/53/53 59/59/59 58/58/58
f 33/33/33 54/54/54 60/60/60
f 33/33/33 60/60/60 29/29/29
f 29/29/29 60/60/60 37/37/37
f 54/54/54 55/55/55 61/61/61
f 54/54/54 61/61/61 60/60/60
f 55/55/55 56/56/56 62/62/62
f 55/55/55 62/62/62 61/61/61
f 56/56/56 57/57/57 63/63/63
f 56/56/56 63/63/63 62/62/62
f 57/57/57 58/58/58 64/64/64
f 57/57/57 64/64/64 63/63/63
f 58/58/58 59/59/59 65/65/65
f 58/58/58 65/65/65 64/64/64
f 59/59/59 66/66/66 65/65/65
f 60/60/60 67/67/67 37/37/37
f 60/60/60 61/61/61 67/67/67
f 61/61/61 62/62/62 68/68/68
f 61/61/61 68/68/68 67/67/67
f 62/62/62 63/63/63 69/69/69
f 62/62/62 69/69/69 68/68/68
f 63/63/63 64/64/64 70/70/70
f 63/63/63 70/70/70 69/69/69
f 64/64/64 65/65/65 71/71/71
f 64/64/64 71/71/71 70/70/70
f 65/65/65 66/66/66 72/72/72
f 65/65/65 72/72/72 71/71/71
f 66/66/66 73/73/73 72/72/72
f 37/37/37 67/67/67 74/74/74
f 37/37/37 74/74/74 38/38/38
f 38/38/38 74/74/74 75/75/75
f 67/67/67 68/68/68 76/76/76
f 67/67/67 76/76/76 74/74/74
f 74/74/74 77/77/77 75/75/75
f 74/74/74 76/76/76 77/77/77
f 75/75/75 77/77/77 78/78/78
f 72/72/72 73/73/73 79/79/79
f 73/73/73 80/80/80 79/79/79
f 71/71/71 72/72/72 81/81/81
f 72/72/72 79/79/79 81/81/81
f 68/68/68 82/82/82 76/76/76
f 68/68/68 69/69/69 82/82/82
f 77/77/77 83/83/83 78/78/78
f 78/78/78 83/83/83 84/84/84
f 83/83/83 85/85/85 84/84/84
f 76/76/76 86/86/86 77/77/77
f 77/77/77 86/86/86 83/83/83
f 76/76/76 82/82/82 86/86/86
f 83/83/83 87/87/87 85/85/85
f 86/86/86 87/87/87 83/83/83
f 87/87/87 88/88/88 85/85/85
f 69/69/69 89/89/89 82/82/82
f 69/69/69 70/70/70 89/89/89
f 82/82/82 90/90/90 86/86/86
f 86/86/86 90/90/90 87/87/87
f 82/82/82 89/89/89 90/90/90
f 87/87/87 91/91/91 88/88/88
f 90/90/90 91/91/91 87/87/87
f 91/91/91 92/92/92 88/88/88
f 70/70/70 93/93/93 89/89/89
f 70/70/70 71/71/71 93/93/93
f 71/71/71 81/81/81 93/93/93
f 89/89/89 94/94/94 90/90/90
f 90/90/90 94/94/94 91/91/91
f 89/89/89 93/93/93 94/94/94
f 91/91/91 95/95/95 92/92/92
f 94/94/94 95/95/95 91/91/91
f 95/95/95 96/96/96 92/92/92
f 93/93/93 97/97/97 94/94/94
f 93/93/93 81/81/81 97/97/97
f 94/94/94 97/97/97 95/95/95
f 95/95/95 98/98/98 96/96/96
f 97/97/97 98/98/98 95/95/95
f 98/98/98 99/99/99 96/96/96
f 81/81/81 100/100/100 97/97/97
f 97/97/97 100/100/100 98/98/98
f 81/81/81 79/79/79 100/100/100
f 98/98/98 101/101/101 99/99/99
f 100/100/100 101/101/101 98/98/98
f 101/101/101 102/102/102 99/99/99
f 79/79/79 103/103/103 100/100/100
f 100/100/100 103/103/103 101/101/101
f 79/79/79 80/80/80 103/103/103
f 80/80/80 104/104/104 103/103/103
f 101/101/101 105/105/105 102/102/102
f 103/103/103 105/105/105 101/101/101
f 103/103/103 104/104/104 105/105/105
f 105/105/105 106/106/106 102/102/102
f 104/104/104 107/107/107 105/105/105
f 105/105/105 107/107/107 106/106/106
f 107/107/107 108/108/108 106/106/106
f 111/111/111 110/110/110 109/109/109
f 110/110/110 112/112/112 109/109/109
f 109/109/109 112/112/112 113/113/113
f 110/110/110 114/114/114 112/112/112
f 112/112/112 115/115/115 113/113/113
f 113/113/113 115/115/115 116/116/116
f 114/114/114 117/117/117 112/112/112
f 112/112/112 117/117/117 115/115/115
f 114/114/114 118/118/118 117/117/117
f 115/115/115 119/119/119 116/116/116
f 116/116/116 119/119/119 120/120/120
f 118/118/118 121/121/121 117/117/117
f 118/118/118 122/122/122 121/121/121
f 117/117/117 123/123/123 115/115/115
f 115/115/115 123/123/123 119/119/119
f 117/117/117 121/121/121 123/123/123
f 119/119/119 124/124/124 120/120/120
f 120/120/120 124/124/124 125/125/125
f 122/122/122 126/126/126 121/121/121
f 122/122/122 127/127/127 126/126/126
f 121/121/121 128/128/128 123/123/123
f 121/121/121 126/126/126 128/128/128
f 123/123/123 129/129/129 119/119/119
f 119/119/119 129/129/129 124/124/124
f 123/123/123 128/128/128 129/129/129
f 124/124/124 130/130/130 125/125/125
f 125/125/125 130/130/130 131/131/131
f 127/127/127 132/132/132 126/126/126
f 127/127/127 133/133/133 132/132/132
f 129/129/129 134/134/134 124/124/124
f 124/124/124 134/134/134 130/130/130
f 128/128/128 135/135/135 129/129/129
f 129/129/129 135/135/135 134/134/134
f 126/126/126 136/136/136 128/128/128
f 126/126/126 132/132/132 136/136/136
f 128/128/128 136/136/136 135/135/135
f 130/130/130 137/137/137 131/131/131
f 131/131/131 137/137/137 138/138/138
f 133/133/133 139/139/139 132/132/132
f 133/133/133 140/140/140 139/139/139
f 134/134/134 141/141/141 130/130/130
f 130/130/130 141/141/141 137/137/137
f 135/135/135 142/142/142 134/134/134
f 134/134/134 142/142/142 141/141/141
f 132/132/132 143/143/143 136/136/136
f 132/132/132 139/139/139 143/143/143
f 136/136/136 144/144/144 135/135/135
f 135/135/135 144/144/144 142/142/142
f 136/136/136 143/143/143 144/144/144
f 137/137/137 145/145/145 138/138/138
f 138/138/138 145/145/145 146/146/146
f 140/140/140 147/147/147 139/139/139
f 140/140/140 148/148/148 147/147/147
f 148/148/148 149/149/149 147/147/147
f 139/139/139 150/150/150 143/143/143
f 139/139/139 147/147/147 150/150/150
f 147/147/147 149/149/149 151/151/151
f 147/147/147 151/151/151 150/150/150
f 149/149/149 152/152/152 151/151/151
f 143/143/143 153/153/153 144/144/144
f 143/143/143 150/150/150 153/153/153
f 150/150/150 151/151/151 154/154/154
f 150/150/150 154/154/154 153/153/153
f 151/151/151 152/152/152 155/155/155
f 151/151/151 155/155/155 154/154/154
f 152/152/152 156/156/156 155/155/155
f 144/144/144 153/153/153 157/157/157
f 144/144/144 157/157/157 142/142/142
f 153/153/153 154/154/154 158/158/158
f 153/153/153 158/158/158 157/157/157
f 154/154/154 155/155/155 159/159/159
f 154/154/154 159/159/159 158/158/158
f 155/155/155 156/156/156 160/160/160
f 155/155/155 160/160/160 159/159/159
f 156/156/156 161/161/161 160/160/160
f 142/142/142 157/157/157 162/162/162
f 142/142/142 162/162/162 141/141/141
f 157/157/157 158/158/158 163/163/163
f 157/157/157 163/163/163 162/162/162
f 158/158/158 159/159/159 164/164/164
f 158/158/158 164/164/164 163/163/163
f 159/159/159 160/160/160 165/165/165
f 159/159/159 165/165/165 164/164/164
f 160/160/160 161/161/161 166/166/166
f 160/160/160 166/166/166 165/165/165
f 161/161/161 167/167/167 166/166/166
f 141/141/141 162/162/162 168/168/168
f 141/141/141 168/168/168 137/137/137
f 137/137/137 168/168/168 145/145/145
f 162/162/162 163/163/163 169/169/169
f 162/162/162 169/169/169 168/168/168
f 163/163/163 164/164/164 170/170/170
f 163/163/163 170/170/170 169/169/169
f 164/164/164 165/165/165 171/171/171
f 164/164/164 171/171/171 170/170/170
f 165/165/165 166/166/166 172/172/172
f 165/165/165 172/172/172 171/171/171
f 166/166/166 167/167/167 173/173/173
f 166/166/166 173/173/173 172/172/172
f 167/167/167 174/174/174 173/173/173
f 168/168/168 175/175/175 145/145/145
f 168/168/168 169/169/169 175/175/175
f 169/169/169 170/170/170 176/176/176
f 169/169/169 176/176/176 175/175/175
f 170/170/170 171/171/171 177/177/177
f 170/170/170 177/177/177 176/176/176
f 171/171/171 172/172/172 178/178/178
f 171/171/171 178/178/178 177/177/177
f 172/172/172 173/173/173 179/179/179
f 172/172/172 179/179/179 178/178/178
f 173/173/173 174/174/174 180/180/180
f 173/173/173 180/180/180 179/179/179
f 174/174/174 181/181/181 180/180/180
f 145/145/145 175/175/175 182/182/182
f 145/145/145 182/182/182 146/146/146
f 146/146/146 182/182/182 183/183/183
f 175/175/175 176/176/176 184/184/184
f 175/175/175 184/184/184 182/182/182
f 182/182/182 185/185/185 183/183/183
f 182/182/182 184/184/184 185/185/185
f 183/183/183 185/185/185 186/186/186
f 180/180/180 181/181/181 187/187/187
f 181/181/181 188/188/188 187/187/187
f 179/179/179 180/180/180 189/189/189
f 180/180/180 187/187/187 189/189/189
f 176/176/176 190/190/190 184/184/184
f 176/176/176 177/177/177 190/190/190
f 185/185/185 191/191/191 186/186/186
f 186/186/186 191/191/191 192/192/192
f 184/184/184 193/193/193 185/185/185
f 184/184/184 190/190/190 193/193/193
f 185/185/185 193/193/193 191/191/191
f 187/187/187 188/188/188 194/194/194
f 188/188/188 195/195/195 194/194/194
f 177/177/177 196/196/196 190/190/190
f 177/177/177 178/178/178 196/196/196
f 191/191/191 197/197/197 192/192/192
f 192/192/192 197/197/197 198/198/198
f 190/190/190 199/199/199 193/193/193
f 190/190/190 196/196/196 199/199/199
f 193/193/193 200/200/200 191/191/191
f 191/191/191 200/200/200 197/197/197
f 193/193/193 199/199/199 200/200/200
f 178/178/178 201/201/201 196/196/196
f 178/178/178 179/179/179 201/201/201
f 179/179/179 189/189/189 201/201/201
f 197/197/197 202/202/202 198/198/198
f 198/198/198 202/202/202 203/203/203
f 202/202/202 204/204/204 203/203/203
f 200/200/200 205/205/205 197/197/197
f 197/197/197 205/205/205 202/202/202
f 202/202/202 206/206/206 204/204/204
f 205/205/205 206/206/206 202/202/202
f 206/206/206 207/207/207 204/204/204
f 199/199/199 208/208/208 200/200/200
f 200/200/200 208/208/208 205/205/205
f 196/196/196 209/209/209 199/199/199
f 196/196/196 201/201/201 209/209/209
f 199/199/199 209/209/209 208/208/208
f 201/201/201 189/189/189 210/210/210
f 201/201/201 210/210/210 209/209/209
f 206/206/206 211/211/211 207/207/207
f 211/211/211 212/212/212 207/207/207
f 205/205/205 213/213/213 206/206/206
f 208/208/208 213/213/213 205/205/205
f 213/213/213 211/211/211 206/206/206
f 209/209/209 214/214/214 208/208/208
f 208/208/208 214/214/214 213/213/213
f 209/209/209 210/210/210 214/214/214
f 189/189/189 215/215/215 210/210/210
f 189/189/189 187/187/187 215/215/215
f 187/187/187 194/194/194 215/215/215
f 211/211/211 216/216/216 212/212/212
f 216/216/216 217/217/217 212/212/212
f 213/213/213 218/218/218 211/211/211
f 214/214/214 218/218/218 213/213/213
f 218/218/218 216/216/216 211/211/211
f 210/210/210 219/219/219 214/214/214
f 210/210/210 215/215/215 219/219/219
f 214/214/214 219/219/219 218/218/218
f 215/215/215 194/194/194 220/220/220
f 215/215/215 220/220/220 219/219/219
f 219/219/219 221/221/221 218/218/218
f 218/218/218 221/221/221 216/216/216
f 219/219/219 220/220/220 221/221/221
f 216/216/216 222/222/222 217/217/217
f 221/221/221 222/222/222 216/216/216
f 222/222/222 223/223/223 217/217/217
f 194/194/194 224/224/224 220/220/220
f 194/194/194 195/195/195 224/224/224
f 195/195/195 225/225/225 224/224/224
f 220/220/220 226/226/226 221/221/221
f 221/221/221 226/226/226 222/222/222
f 220/220/220 224/224/224 226/226/226
f 222/222/222 227/227/227 223/223/223
f 226/226/226 227/227/227 222/222/222
f 227/227/227 228/228/228 223/223/223
f 224/224/224 225/225/225 229/229/229
f 224/224/224 229/229/229 226/226/226
f 226/226/226 229/229/229 227/227/227
f 225/225/225 230/230/230 229/229/229
f 227/227/227 231/231/231 228/228/228
f 229/229/229 231/231/231 227/227/227
f 229/229/229 230/230/230 231/231/231
f 231/231/231 232/232/232 228/228/228
f 230/230/230 233/233/233 231/231/231
f 231/231/231 233/233/233 232/232/232
f 233/233/233 234/234/234 232/232/232
