g hyml_huan
v -0.143359885 0.0716799498 -1.08032348E-08
v -0.0794314146 0.0208797492 -0.0258088578
v -0.136343375 0.0716799498 -0.0443006903
v -0.0835190266 0.0208797492 -2.22169909E-08
v -0.0352229029 0 -0.0114446683
v -0.136343271 0.0716799498 0.0443006307
v -0.0370355248 0 -3.10830011E-08
v -0.0794313475 0.0208797492 0.0258087963
v -0.115980677 0.0716799498 0.0842648298
v -0.0352228917 0 0.0114445966
v -0.0675683469 0.0208797492 0.0490912721
v -0.0842648298 0.0716799498 0.1159807
v -0.0299623627 0 0.021768922
v -0.0490912907 0.0208797492 0.0675683469
v -0.0443006419 0.0716799498 0.136343271
v -0.0217689369 0 0.0299623478
v -0.0258088131 0.0208797492 0.0794313326
v 9.67407665E-09 0.0716799498 0.1433599
v -0.0114446133 0 0.0352228731
v 1.3597548E-08 0.0208797492 0.0835190192
v 0.0443006679 0.0716799498 0.136343285
v 1.66452416E-08 0 0.0370355062
v 0.0258088391 0.0208797492 0.0794313326
v 0.0842648521 0.0716799498 0.1159807
v 0.0114446497 0 0.0352228768
v 0.0490913279 0.0208797492 0.0675683469
v 0.115980715 0.0716799498 0.0842648298
v 0.0217689741 0 0.0299623478
v 0.0675683841 0.0208797492 0.0490912721
v 0.1363433 0.0716799498 0.0443006419
v 0.0299624 0 0.021768922
v 0.0794313923 0.0208797492 0.0258087963
v 0.143359929 0.0716799498 -1.08032348E-08
v 0.035222929 0 0.0114445994
v 0.0835190639 0.0208797492 -2.22169909E-08
v 0.1363433 0.0716799498 -0.0443006791
v 0.0370355658 0 -3.10830011E-08
v 0.0794313923 0.0208797492 -0.025808854
v 0.115980737 0.0716799498 -0.084264867
v 0.035222929 0 -0.011444659
v 0.067568399 0.0208797492 -0.0490913466
v 0.084264867 0.0716799498 -0.115980737
v 0.0299624 0 -0.0217689946
v 0.0490913279 0.0208797492 -0.0675684065
v 0.0443006791 0.0716799498 -0.136343345
v 0.0217689741 0 -0.0299624205
v 0.0258088503 0.0208797492 -0.0794314072
v 5.40161738E-09 0.0716799498 -0.143359989
v 0.0114446515 0 -0.0352229476
v 1.11084955E-08 0.0208797492 -0.0835190937
v -0.0443006605 0.0716799498 -0.13634336
v 1.55415005E-08 0 -0.0370355844
v -0.0258088149 0.0208797492 -0.0794314072
v -0.084264867 0.0716799498 -0.115980774
v -0.011444618 0 -0.035222955
v -0.0490913205 0.0208797492 -0.0675684214
v -0.115980759 0.0716799498 -0.0842649043
v -0.0217689462 0 -0.0299624242
v -0.0675683618 0.0208797492 -0.0490913466
v -0.136343375 0.0716799498 -0.0443006903
v -0.029962372 0 -0.0217689984
v -0.0794314146 0.0208797492 -0.0258088578
v -0.0352229029 0 -0.0114446683
vt 0.949999988 0
vt 1 0.5
vt 1 0
vt 0.949999988 0.5
vt 1 1
vt 0.899999976 0
vt 0.949999988 1
vt 0.899999976 0.5
vt 0.850000024 0
vt 0.899999976 1
vt 0.850000024 0.5
vt 0.800000012 0
vt 0.850000024 1
vt 0.800000012 0.5
vt 0.75 0
vt 0.800000012 1
vt 0.75 0.5
vt 0.699999988 0
vt 0.75 1
vt 0.699999988 0.5
vt 0.649999976 0
vt 0.699999988 1
vt 0.649999976 0.5
vt 0.600000024 0
vt 0.649999976 1
vt 0.600000024 0.5
vt 0.550000012 0
vt 0.600000024 1
vt 0.550000012 0.5
vt 0.5 0
vt 0.550000012 1
vt 0.5 0.5
vt 0.449999988 0
vt 0.5 1
vt 0.449999988 0.5
vt 0.400000006 0
vt 0.449999988 1
vt 0.400000006 0.5
vt 0.349999994 0
vt 0.400000006 1
vt 0.349999994 0.5
vt 0.300000012 0
vt 0.349999994 1
vt 0.300000012 0.5
vt 0.25 0
vt 0.300000012 1
vt 0.25 0.5
vt 0.199999988 0
vt 0.25 1
vt 0.199999988 0.5
vt 0.150000006 0
vt 0.199999988 1
vt 0.150000006 0.5
vt 0.099999994 0
vt 0.150000006 1
vt 0.099999994 0.5
vt 0.0500000119 0
vt 0.099999994 1
vt 0.0500000119 0.5
vt 0 0
vt 0.0500000119 1
vt 0 0.5
vt 0 1
vn -0.853665471 -0.52082181 7.77569028E-07
vn -0.846896768 -0.455022991 -0.275172472
vn -0.811884165 -0.520822048 -0.26379624
vn -0.890479803 -0.455022782 8.59084935E-07
vn -0.902700961 -0.314806998 -0.293304265
vn -0.811884105 -0.520821929 0.263797104
vn -0.949155748 -0.314806998 9.28138377E-07
vn -0.846896589 -0.455022901 0.275173396
vn -0.690629959 -0.520821869 0.501771808
vn -0.902700722 -0.314807057 0.293305248
vn -0.720413387 -0.455022991 0.523410618
vn -0.501771927 -0.52082181 0.6906299
vn -0.767883122 -0.314807296 0.557899594
vn -0.523410857 -0.455022961 0.720413208
vn -0.263796866 -0.520821929 0.811884105
vn -0.557899654 -0.314807415 0.767883003
vn -0.275173098 -0.455022901 0.846896589
vn -1.04210329E-07 -0.520821929 0.853665411
vn -0.293305069 -0.314807147 0.902700722
vn -1.60168412E-07 -0.455022961 0.890479803
vn 0.263796836 -0.52082181 0.811884165
vn -2.66157286E-07 -0.314807147 0.949155629
vn 0.275173128 -0.455022901 0.846896589
vn 0.501771867 -0.520821869 0.69062984
vn 0.293305129 -0.314807236 0.902700722
vn 0.523410797 -0.455022991 0.720413268
vn 0.69062984 -0.520821869 0.501771927
vn 0.557899654 -0.314807415 0.767883003
vn 0.720413268 -0.455022991 0.523410797
vn 0.811884105 -0.52082181 0.263797104
vn 0.767882943 -0.314807355 0.557899773
vn 0.846896589 -0.455022842 0.275173396
vn 0.853665411 -0.520821929 0
vn 0.902700722 -0.314807028 0.293305188
vn 0.890479803 -0.455022842 0
vn 0.811884105 -0.520821929 -0.263796836
vn 0.949155867 -0.314806789 0
vn 0.846896768 -0.455022722 -0.275173128
vn 0.690629959 -0.52082181 -0.501771808
vn 0.902700901 -0.314806759 -0.29330495
vn 0.720413327 -0.455022961 -0.523410678
vn 0.501771927 -0.52082175 -0.6906299
vn 0.767883122 -0.314807355 -0.557899475
vn 0.523410916 -0.455022961 -0.720413208
vn 0.263797164 -0.52082181 -0.811883986
vn 0.557899773 -0.314807564 -0.767882884
vn 0.275173485 -0.455022991 -0.84689647
vn -0 -0.520821929 -0.853665411
vn 0.293305337 -0.314807266 -0.902700603
vn 1.48034331E-07 -0.455022991 -0.890479684
vn -0.263796717 -0.520821869 -0.811884165
vn 2.66157173E-07 -0.314807177 -0.949155629
vn -0.275173038 -0.455022961 -0.846896648
vn -0.501771688 -0.520822227 -0.69062984
vn -0.29330498 -0.314807117 -0.902700782
vn -0.523410559 -0.45502308 -0.720413327
vn -0.690629721 -0.520822227 -0.501771808
vn -0.557899654 -0.314807177 -0.767883062
vn -0.720413148 -0.45502317 -0.523410797
vn -0.811884165 -0.520822048 -0.26379624
vn -0.767883062 -0.314807147 -0.557899714
vn -0.846896768 -0.455022991 -0.275172472
vn -0.902700961 -0.314806998 -0.293304265
g hyml_huan_0
f 3/3/3 2/2/2 1/1/1
f 2/2/2 4/4/4 1/1/1
f 2/2/2 5/5/5 4/4/4
f 1/1/1 4/4/4 6/6/6
f 5/5/5 7/7/7 4/4/4
f 4/4/4 8/8/8 6/6/6
f 4/4/4 7/7/7 8/8/8
f 6/6/6 8/8/8 9/9/9
f 7/7/7 10/10/10 8/8/8
f 8/8/8 11/11/11 9/9/9
f 8/8/8 10/10/10 11/11/11
f 9/9/9 11/11/11 12/12/12
f 10/10/10 13/13/13 11/11/11
f 11/11/11 14/14/14 12/12/12
f 11/11/11 13/13/13 14/14/14
f 12/12/12 14/14/14 15/15/15
f 13/13/13 16/16/16 14/14/14
f 14/14/14 17/17/17 15/15/15
f 14/14/14 16/16/16 17/17/17
f 15/15/15 17/17/17 18/18/18
f 16/16/16 19/19/19 17/17/17
f 17/17/17 20/20/20 18/18/18
f 17/17/17 19/19/19 20/20/20
f 18/18/18 20/20/20 21/21/21
f 19/19/19 22/22/22 20/20/20
f 20/20/20 23/23/23 21/21/21
f 20/20/20 22/22/22 23/23/23
f 21/21/21 23/23/23 24/24/24
f 22/22/22 25/25/25 23/23/23
f 23/23/23 26/26/26 24/24/24
f 23/23/23 25/25/25 26/26/26
f 24/24/24 26/26/26 27/27/27
f 25/25/25 28/28/28 26/26/26
f 26/26/26 29/29/29 27/27/27
f 26/26/26 28/28/28 29/29/29
f 27/27/27 29/29/29 30/30/30
f 28/28/28 31/31/31 29/29/29
f 29/29/29 32/32/32 30/30/30
f 29/29/29 31/31/31 32/32/32
f 30/30/30 32/32/32 33/33/33
f 31/31/31 34/34/34 32/32/32
f 32/32/32 35/35/35 33/33/33
f 32/32/32 34/34/34 35/35/35
f 33/33/33 35/35/35 36/36/36
f 34/34/34 37/37/37 35/35/35
f 35/35/35 38/38/38 36/36/36
f 35/35/35 37/37/37 38/38/38
f 36/36/36 38/38/38 39/39/39
f 37/37/37 40/40/40 38/38/38
f 38/38/38 41/41/41 39/39/39
f 38/38/38 40/40/40 41/41/41
f 39/39/39 41/41/41 42/42/42
f 40/40/40 43/43/43 41/41/41
f 41/41/41 44/44/44 42/42/42
f 41/41/41 43/43/43 44/44/44
f 42/42/42 44/44/44 45/45/45
f 43/43/43 46/46/46 44/44/44
f 44/44/44 47/47/47 45/45/45
f 44/44/44 46/46/46 47/47/47
f 45/45/45 47/47/47 48/48/48
f 46/46/46 49/49/49 47/47/47
f 47/47/47 50/50/50 48/48/48
f 47/47/47 49/49/49 50/50/50
f 48/48/48 50/50/50 51/51/51
f 49/49/49 52/52/52 50/50/50
f 50/50/50 53/53/53 51/51/51
f 50/50/50 52/52/52 53/53/53
f 51/51/51 53/53/53 54/54/54
f 52/52/52 55/55/55 53/53/53
f 53/53/53 56/56/56 54/54/54
f 53/53/53 55/55/55 56/56/56
f 54/54/54 56/56/56 57/57/57
f 55/55/55 58/58/58 56/56/56
f 56/56/56 59/59/59 57/57/57
f 56/56/56 58/58/58 59/59/59
f 57/57/57 59/59/59 60/60/60
f 58/58/58 61/61/61 59/59/59
f 59/59/59 62/62/62 60/60/60
f 59/59/59 61/61/61 62/62/62
f 61/61/61 63/63/63 62/62/62
