g zhurongskill2_ql01
v 0.299999982 0 -9.99999982E-15
v 0.190229252 0.0618092604 0
v 0.285317123 0.0927051529 0
v 0.200018764 1.78780333E-08 -3.41060506E-15
v 0.285316944 -0.0927050933 0
v 0.095141381 0.0309133716 0
v 0.190229148 -0.0618091896 0
v 0.242705092 -0.176335573 0
v 0.100037538 3.57560666E-08 2.2737367E-15
v 5.3483247E-05 1.74790621E-05 0
v 5.62906243E-05 5.36341034E-08 9.09494681E-15
v 0.0951413214 -0.030913284 0
v 5.3483247E-05 -1.73717726E-05 0
v 0.161818564 -0.117568083 0
v 0.176335558 -0.242705107 0
v 0.0809320211 -0.0588005632 0
v 4.54723813E-05 -3.30448129E-05 0
v 0.117568068 -0.161818564 0
v 0.0927050859 -0.285316974 0
v 0.0588005707 -0.0809320137 0
v 3.30626972E-05 -4.54545007E-05 0
v 0.0618091896 -0.190229148 0
v -8.94069618E-09 -0.300000042 0
v 0.0309132952 -0.095141314 0
v 1.73896551E-05 -5.34653664E-05 0
v -1.78797119E-08 -0.200018778 0
v -0.0927051157 -0.285317004 0
v -2.68187286E-08 -0.100037538 0
v -3.5757747E-08 -5.62727437E-05 0
v -0.0618092343 -0.190229163 0
v -0.176335603 -0.242705137 0
v -0.0309133492 -0.0951413214 0
v -1.74611796E-05 -5.34653664E-05 0
v -0.11756812 -0.161818579 0
v -0.242705151 -0.176335603 0
v -0.058800634 -0.0809320137 0
v -3.31342198E-05 -4.54545007E-05 0
v -0.161818609 -0.117568091 0
v -0.285317034 -0.0927051157 0
v -0.0809320882 -0.0588005707 0
v -4.55439076E-05 -3.30448129E-05 0
v -0.190229207 -0.0618092045 0
v -0.300000072 0 -9.99999982E-15
v -0.0951413885 -0.0309132896 0
v -5.35547733E-05 -1.73717726E-05 0
v -0.200018838 1.78780333E-08 -3.41060506E-15
v -0.285317034 0.0927051157 0
v -0.100037612 3.57560666E-08 2.2737367E-15
v -5.63621506E-05 5.36341034E-08 9.09494681E-15
v -0.190229207 0.061809238 0
v -0.242705166 0.176335618 0
v -0.0951413885 0.0309133623 0
v -5.35547733E-05 1.74790621E-05 0
v -0.161818638 0.117568135 0
v -0.176335633 0.242705181 0
v -0.0809321031 0.0588006489 0
v -4.55439076E-05 3.31521042E-05 0
v -0.117568135 0.161818653 0
v -0.0927051455 0.285317063 0
v -0.0588006377 0.0809321105 0
v -3.31342198E-05 4.55617883E-05 0
v -0.0618092529 0.190229252 0
v -0 0.300000131 0
v -0.0309133586 0.0951414183 0
v -1.74611796E-05 5.3572654E-05 0
v -1.191869E-08 0.200018883 0
v 0.0927051455 0.285317093 0
v -2.38373801E-08 0.100037642 0
v -3.57560701E-08 5.63800313E-05 0
v 0.0618092231 0.190229252 0
v 0.176335678 0.242705241 0
v 0.030913312 0.0951414257 0
v 1.73896551E-05 5.3572654E-05 0
v 0.117568135 0.161818698 0
v 0.242705271 0.176335678 0
v 0.0588006116 0.080932118 0
v 3.30626972E-05 4.55617883E-05 0
v 0.161818668 0.117568173 0
v 0.285317123 0.0927051529 0
v 0.190229252 0.0618092604 0
v 0.0809320807 0.0588006675 0
v 4.54723813E-05 3.31521042E-05 0
v 0.095141381 0.0309133716 0
v 5.3483247E-05 1.74790621E-05 0
vt 0.949999988 0
vt 1 0.333333313
vt 1 0
vt 0.949999988 0.333333313
vt 0.899999976 0
vt 1 0.666666687
vt 0.899999976 0.333333313
vt 0.850000024 0
vt 0.949999988 0.666666687
vt 1 1
vt 0.949999988 1
vt 0.899999976 0.666666687
vt 0.899999976 1
vt 0.850000024 0.333333313
vt 0.800000012 0
vt 0.850000024 0.666666687
vt 0.850000024 1
vt 0.800000012 0.333333313
vt 0.75 0
vt 0.800000012 0.666666687
vt 0.800000012 1
vt 0.75 0.333333313
vt 0.699999988 0
vt 0.75 0.666666687
vt 0.75 1
vt 0.699999988 0.333333313
vt 0.649999976 0
vt 0.699999988 0.666666687
vt 0.699999988 1
vt 0.649999976 0.333333313
vt 0.600000024 0
vt 0.649999976 0.666666687
vt 0.649999976 1
vt 0.600000024 0.333333313
vt 0.550000012 0
vt 0.600000024 0.666666687
vt 0.600000024 1
vt 0.550000012 0.333333313
vt 0.5 0
vt 0.550000012 0.666666687
vt 0.550000012 1
vt 0.5 0.333333313
vt 0.449999988 0
vt 0.5 0.666666687
vt 0.5 1
vt 0.449999988 0.333333313
vt 0.400000006 0
vt 0.449999988 0.666666687
vt 0.449999988 1
vt 0.400000006 0.333333313
vt 0.349999994 0
vt 0.400000006 0.666666687
vt 0.400000006 1
vt 0.349999994 0.333333313
vt 0.300000012 0
vt 0.349999994 0.666666687
vt 0.349999994 1
vt 0.300000012 0.333333313
vt 0.25 0
vt 0.300000012 0.666666687
vt 0.300000012 1
vt 0.25 0.333333313
vt 0.199999988 0
vt 0.25 0.666666687
vt 0.25 1
vt 0.199999988 0.333333313
vt 0.150000006 0
vt 0.199999988 0.666666687
vt 0.199999988 1
vt 0.150000006 0.333333313
vt 0.099999994 0
vt 0.150000006 0.666666687
vt 0.150000006 1
vt 0.099999994 0.333333313
vt 0.0500000119 0
vt 0.099999994 0.666666687
vt 0.099999994 1
vt 0.0500000119 0.333333313
vt 0 0
vt 0 0.333333313
vt 0.0500000119 0.666666687
vt 0.0500000119 1
vt 0 0.666666687
vt 0 1
vn -0 0 1
vn -0 0 1
vn -0 0 1
vn -0 0 1
vn -0 0 1
vn -0 0 1
vn -0 0 1
vn -0 0 1
vn -0 0 1
vn -0 0 1
vn -0 0 1
vn -0 0 1
vn -0 0 1
vn -0 0 1
vn -0 0 1
vn -0 0 1
vn -0 0 1
vn -0 0 1
vn -0 0 1
vn -0 0 1
vn -0 0 1
vn -0 0 1
vn -0 0 1
vn -0 0 1
vn -0 0 1
vn -0 0 1
vn -0 0 1
vn -0 0 1
vn -0 0 1
vn -0 0 1
vn -0 0 1
vn -0 0 1
vn -0 0 1
vn -0 0 1
vn -0 0 1
vn -0 0 1
vn -0 0 1
vn -0 0 1
vn -0 0 1
vn -0 0 1
vn -0 0 1
vn -0 0 1
vn -0 0 1
vn -0 0 1
vn -0 0 1
vn -0 0 1
vn -0 0 1
vn -0 0 1
vn -0 0 1
vn -0 0 1
vn -0 0 1
vn -0 0 1
vn -0 0 1
vn -0 0 1
vn -0 0 1
vn -0 0 1
vn -0 0 1
vn -0 0 1
vn -0 0 1
vn -0 0 1
vn -0 0 1
vn -0 0 1
vn -0 0 1
vn -0 0 1
vn -0 0 1
vn -0 0 1
vn -0 0 1
vn -0 0 1
vn -0 0 1
vn -0 0 1
vn -0 0 1
vn -0 0 1
vn -0 0 1
vn -0 0 1
vn -0 0 1
vn -0 0 1
vn -0 0 1
vn -0 0 1
vn -0 0 1
vn -0 0 1
vn -0 0 1
vn -0 0 1
vn -0 0 1
vn -0 0 1
g zhurongskill2_ql01_0
f 3/3/3 2/2/2 1/1/1
f 2/2/2 4/4/4 1/1/1
f 1/1/1 4/4/4 5/5/5
f 2/2/2 6/6/6 4/4/4
f 4/4/4 7/7/7 5/5/5
f 5/5/5 7/7/7 8/8/8
f 6/6/6 9/9/9 4/4/4
f 4/4/4 9/9/9 7/7/7
f 6/6/6 10/10/10 9/9/9
f 10/10/10 11/11/11 9/9/9
f 9/9/9 11/11/11 12/12/12
f 9/9/9 12/12/12 7/7/7
f 11/11/11 13/13/13 12/12/12
f 7/7/7 14/14/14 8/8/8
f 7/7/7 12/12/12 14/14/14
f 8/8/8 14/14/14 15/15/15
f 12/12/12 13/13/13 16/16/16
f 12/12/12 16/16/16 14/14/14
f 13/13/13 17/17/17 16/16/16
f 14/14/14 18/18/18 15/15/15
f 14/14/14 16/16/16 18/18/18
f 15/15/15 18/18/18 19/19/19
f 16/16/16 17/17/17 20/20/20
f 16/16/16 20/20/20 18/18/18
f 17/17/17 21/21/21 20/20/20
f 18/18/18 22/22/22 19/19/19
f 18/18/18 20/20/20 22/22/22
f 19/19/19 22/22/22 23/23/23
f 20/20/20 21/21/21 24/24/24
f 20/20/20 24/24/24 22/22/22
f 21/21/21 25/25/25 24/24/24
f 22/22/22 26/26/26 23/23/23
f 22/22/22 24/24/24 26/26/26
f 23/23/23 26/26/26 27/27/27
f 24/24/24 25/25/25 28/28/28
f 24/24/24 28/28/28 26/26/26
f 25/25/25 29/29/29 28/28/28
f 26/26/26 30/30/30 27/27/27
f 26/26/26 28/28/28 30/30/30
f 27/27/27 30/30/30 31/31/31
f 28/28/28 29/29/29 32/32/32
f 28/28/28 32/32/32 30/30/30
f 29/29/29 33/33/33 32/32/32
f 30/30/30 34/34/34 31/31/31
f 30/30/30 32/32/32 34/34/34
f 31/31/31 34/34/34 35/35/35
f 32/32/32 33/33/33 36/36/36
f 32/32/32 36/36/36 34/34/34
f 33/33/33 37/37/37 36/36/36
f 34/34/34 38/38/38 35/35/35
f 34/34/34 36/36/36 38/38/38
f 35/35/35 38/38/38 39/39/39
f 36/36/36 37/37/37 40/40/40
f 36/36/36 40/40/40 38/38/38
f 37/37/37 41/41/41 40/40/40
f 38/38/38 42/42/42 39/39/39
f 38/38/38 40/40/40 42/42/42
f 39/39/39 42/42/42 43/43/43
f 40/40/40 41/41/41 44/44/44
f 40/40/40 44/44/44 42/42/42
f 41/41/41 45/45/45 44/44/44
f 42/42/42 46/46/46 43/43/43
f 42/42/42 44/44/44 46/46/46
f 43/43/43 46/46/46 47/47/47
f 44/44/44 45/45/45 48/48/48
f 44/44/44 48/48/48 46/46/46
f 45/45/45 49/49/49 48/48/48
f 46/46/46 50/50/50 47/47/47
f 46/46/46 48/48/48 50/50/50
f 47/47/47 50/50/50 51/51/51
f 48/48/48 49/49/49 52/52/52
f 48/48/48 52/52/52 50/50/50
f 49/49/49 53/53/53 52/52/52
f 50/50/50 54/54/54 51/51/51
f 50/50/50 52/52/52 54/54/54
f 51/51/51 54/54/54 55/55/55
f 52/52/52 53/53/53 56/56/56
f 52/52/52 56/56/56 54/54/54
f 53/53/53 57/57/57 56/56/56
f 54/54/54 58/58/58 55/55/55
f 54/54/54 56/56/56 58/58/58
f 55/55/55 58/58/58 59/59/59
f 56/56/56 57/57/57 60/60/60
f 56/56/56 60/60/60 58/58/58
f 57/57/57 61/61/61 60/60/60
f 58/58/58 62/62/62 59/59/59
f 58/58/58 60/60/60 62/62/62
f 59/59/59 62/62/62 63/63/63
f 60/60/60 61/61/61 64/64/64
f 60/60/60 64/64/64 62/62/62
f 61/61/61 65/65/65 64/64/64
f 62/62/62 66/66/66 63/63/63
f 62/62/62 64/64/64 66/66/66
f 63/63/63 66/66/66 67/67/67
f 64/64/64 65/65/65 68/68/68
f 64/64/64 68/68/68 66/66/66
f 65/65/65 69/69/69 68/68/68
f 66/66/66 70/70/70 67/67/67
f 66/66/66 68/68/68 70/70/70
f 67/67/67 70/70/70 71/71/71
f 68/68/68 69/69/69 72/72/72
f 68/68/68 72/72/72 70/70/70
f 69/69/69 73/73/73 72/72/72
f 70/70/70 74/74/74 71/71/71
f 70/70/70 72/72/72 74/74/74
f 71/71/71 74/74/74 75/75/75
f 72/72/72 73/73/73 76/76/76
f 72/72/72 76/76/76 74/74/74
f 73/73/73 77/77/77 76/76/76
f 74/74/74 78/78/78 75/75/75
f 74/74/74 76/76/76 78/78/78
f 75/75/75 78/78/78 79/79/79
f 78/78/78 80/80/80 79/79/79
f 76/76/76 77/77/77 81/81/81
f 76/76/76 81/81/81 78/78/78
f 78/78/78 81/81/81 80/80/80
f 77/77/77 82/82/82 81/81/81
f 81/81/81 83/83/83 80/80/80
f 81/81/81 82/82/82 83/83/83
f 82/82/82 84/84/84 83/83/83
