g mod_zhuahen31
v 0.597011507 -0.490653336 4.24729387E-06
v 0.71172744 -0.45152849 3.80886922E-06
v 0.638788342 -0.52504158 4.24965901E-06
v 0.639253199 -0.405423105 3.80511483E-06
v 0.775110781 -0.36685279 3.40561496E-06
v 0.671240211 -0.317552209 3.40058932E-06
v 0.827219903 -0.271946222 3.04084574E-06
v 0.693018794 -0.227781519 3.03467004E-06
v 0.866361856 -0.167919174 2.71550698E-06
v 0.704609334 -0.136673108 2.70830606E-06
v 0.890904844 -0.0560913309 2.43055024E-06
v 0.705970824 -0.0445789434 2.42245096E-06
v 0.899380922 0.0611370467 2.18692207E-06
v 0.696977198 0.0475263111 2.17805473E-06
v 0.891348243 0.177279159 1.98557041E-06
v 0.678118587 0.13499859 1.97606846E-06
v 0.867390275 0.289807051 1.82744475E-06
v 0.650421739 0.217234492 1.8174444E-06
v 0.828343272 0.396964401 1.71349188E-06
v 0.614723384 0.294318169 1.70313206E-06
v 0.775221109 0.497083694 1.64466155E-06
v 0.571681261 0.3662453 1.63408492E-06
v 0.709174037 0.58860302 1.62190088E-06
v 0.521818221 0.43290484 1.61125229E-06
v 0.631459177 0.6700629 1.64615892E-06
v 0.46554932 0.494083405 1.63558695E-06
v 0.54343158 0.740095735 1.71838337E-06
v 0.403191775 0.54947716 1.70803901E-06
v 0.446551383 0.797419369 1.83952284E-06
v 0.334958225 0.598695159 1.82956035E-06
v 0.342398405 0.84084928 2.01052535E-06
v 0.260941297 0.641249478 2.0011023E-06
v 0.232682452 0.869329512 2.23233906E-06
v 0.181103706 0.676523745 2.22361496E-06
v 0.119232394 0.881981194 2.50591279E-06
v 0.0952878073 0.703724802 2.49805134E-06
v 0.00395325525 0.878155172 2.83219447E-06
v 0.00326255732 0.721828759 2.82536075E-06
v -0.108304642 0.857722521 3.21213247E-06
v -0.0922658965 0.729794681 3.20649679E-06
v -0.212419644 0.821927607 3.64667471E-06
v -0.188019693 0.727434039 3.64240873E-06
v 0.65653348 -0.456925154 0.0270548426
v 0.704729915 -0.378635406 -0.0429483019
v 0.65653348 -0.456925154 -0.0270548631
v 0.704729915 -0.378635406 0.0429482833
v 0.743841767 -0.294743568 -0.0574883446
v 0.743841767 -0.294743568 0.057488326
v 0.773185849 -0.205933094 -0.0706407726
v 0.773185849 -0.205933094 0.0706407279
v 0.792079508 -0.112886362 -0.082371369
v 0.792079508 -0.112886362 0.082371369
v 0.799839556 -0.0162868146 -0.0926459953
v 0.799839556 -0.0162868146 0.0926459655
v 0.79591465 0.0812630355 -0.101430431
v 0.79591465 0.0812630355 0.101430424
v 0.780631244 0.175561577 -0.108690508
v 0.780631244 0.175561577 0.108690508
v 0.754671156 0.265850127 -0.11439205
v 0.754671156 0.265850127 0.114392012
v 0.718717098 0.351445645 -0.118500762
v 0.718717098 0.351445645 0.118500762
v 0.673452675 0.431665361 -0.120982587
v 0.673452675 0.431665361 0.120982565
v 0.619560421 0.505826056 -0.121803246
v 0.619560421 0.505826056 0.121803246
v 0.557723939 0.573244452 -0.120928563
v 0.557723939 0.573244452 0.120928571
v 0.488625973 0.63323772 -0.118324414
v 0.488625973 0.63323772 0.118324399
v 0.412949711 0.685122669 -0.113956526
v 0.412949711 0.685122669 0.113956504
v 0.331378371 0.728216231 -0.107790753
v 0.331378371 0.728216231 0.107790716
v 0.244594872 0.761835337 -0.0997928604
v 0.244594872 0.761835337 0.0997928381
v 0.153281882 0.785296917 -0.0899286643
v 0.153281882 0.785296917 0.0899286643
v 0.0581232235 0.797918022 -0.0781640261
v 0.0581232235 0.797918022 0.0781640336
v -0.0397453196 0.799030364 -0.0644647032
v -0.0397453196 0.799030364 0.0644647032
v -0.135555178 0.788537681 -0.0487965196
v -0.135555178 0.788537681 0.0487965271
vt 0 0
vt 1 0.0500000007
vt 1 0
vt 0 0.0500000007
vt 1 0.100000001
vt 0 0.100000001
vt 1 0.150000006
vt 0 0.150000006
vt 1 0.200000003
vt 0 0.200000003
vt 1 0.25
vt 0 0.25
vt 1 0.300000012
vt 0 0.300000012
vt 1 0.350000024
vt 0 0.350000024
vt 1 0.400000036
vt 0 0.400000036
vt 1 0.450000048
vt 0 0.450000048
vt 1 0.50000006
vt 0 0.50000006
vt 1 0.550000072
vt 0 0.550000072
vt 1 0.600000083
vt 0 0.600000083
vt 1 0.650000095
vt 0 0.650000095
vt 1 0.700000107
vt 0 0.700000107
vt 1 0.750000119
vt 0 0.750000119
vt 1 0.800000131
vt 0 0.800000131
vt 1 0.850000143
vt 0 0.850000143
vt 1 0.900000155
vt 0 0.900000155
vt 1 0.950000167
vt 0 0.950000167
vt 1 1.00000012
vt 0 1.00000012
vt 0 0
vt 1 0.0500000007
vt 1 0
vt 0 0.0500000007
vt 1 0.100000001
vt 0 0.100000001
vt 1 0.150000006
vt 0 0.150000006
vt 1 0.200000003
vt 0 0.200000003
vt 1 0.25
vt 0 0.25
vt 1 0.300000012
vt 0 0.300000012
vt 1 0.350000024
vt 0 0.350000024
vt 1 0.400000036
vt 0 0.400000036
vt 1 0.450000048
vt 0 0.450000048
vt 1 0.50000006
vt 0 0.50000006
vt 1 0.550000072
vt 0 0.550000072
vt 1 0.600000083
vt 0 0.600000083
vt 1 0.650000095
vt 0 0.650000095
vt 1 0.700000107
vt 0 0.700000107
vt 1 0.750000119
vt 0 0.750000119
vt 1 0.800000131
vt 0 0.800000131
vt 1 0.850000143
vt 0 0.850000143
vt 1 0.900000155
vt 0 0.900000155
vt 1 0.950000167
vt 0 0.950000167
vt 1 1.00000012
vt 0 1.00000012
vn 2.55772807E-06 3.70640987E-06 1
vn 2.20327138E-06 3.66177778E-06 1
vn 2.55772784E-06 3.70640987E-06 1
vn 2.20239349E-06 3.66166751E-06 1
vn 1.58036551E-06 3.52223219E-06 1
vn 1.57857187E-06 3.52167558E-06 1
vn 1.00817374E-06 3.27847511E-06 1
vn 1.00598754E-06 3.27730459E-06 1
vn 5.11208555E-07 2.94001666E-06 1
vn 5.09128085E-07 2.93828748E-06 1
vn 1.10366379E-07 2.53458325E-06 1
vn 1.08792712E-07 2.53266444E-06 1
vn -1.86487853E-07 2.12694226E-06 1
vn -1.87490002E-07 2.12536884E-06 1
vn -3.79163168E-07 1.71594468E-06 1
vn -3.79679136E-07 1.71437841E-06 1
vn -4.60930636E-07 1.27061833E-06 1
vn -4.61007062E-07 1.2692376E-06 1
vn -4.25686892E-07 8.13528118E-07 1
vn -4.2548956E-07 8.12561041E-07 1
vn -2.75309588E-07 3.73235622E-07 1
vn -2.75091679E-07 3.72785905E-07 1
vn -0 0 1
vn -0 0 1
vn 3.36465774E-07 -3.57575345E-07 1
vn 3.35958646E-07 -3.57200747E-07 1
vn 7.71171926E-07 -6.05261789E-07 1
vn 7.70044608E-07 -6.04785612E-07 1
vn 1.26789314E-06 -7.49676644E-07 1
vn 1.26612838E-06 -7.49384299E-07 1
vn 1.80307495E-06 -7.75570356E-07 1
vn 1.80081736E-06 -7.75733213E-07 1
vn 2.34777508E-06 -6.72414444E-07 1
vn 2.34533422E-06 -6.731957E-07 1
vn 2.86816248E-06 -4.37394959E-07 1
vn 2.86595423E-06 -4.38747492E-07 1
vn 3.37446227E-06 0 1
vn 3.37227175E-06 0 1
vn 3.91074263E-06 4.12922248E-07 1
vn 3.90869673E-06 4.10857723E-07 1
vn 4.21725372E-06 7.22225877E-07 1
vn 4.21725372E-06 7.22225934E-07 1
vn 0.851570427 -0.524240196 0
vn 0.883276999 -0.468851417 0
vn 0.851570427 -0.524240196 0
vn 0.883276999 -0.468851417 0
vn 0.931549489 -0.36361441 0
vn 0.931549489 -0.36361444 0
vn 0.967731833 -0.251982242 0
vn 0.967731833 -0.251982242 0
vn 0.990787208 -0.135427505 0
vn 0.990787208 -0.13542752 0
vn 0.999868631 -0.0162064061 0
vn 0.999868631 -0.0162064098 0
vn 0.99463439 0.103452571 0
vn 0.99463439 0.103452571 0
vn 0.975253522 0.221089408 0
vn 0.975253522 0.221089408 0
vn 0.942488968 0.334237188 0
vn 0.942488968 0.334237218 0
vn 0.897372425 0.441273987 0
vn 0.897372425 0.441273957 0
vn 0.840966046 0.541087866 0
vn 0.840966046 0.541087866 0
vn 0.774217665 0.63291949 0
vn 0.774217665 0.63291949 0
vn 0.697901487 0.716193736 0
vn 0.697901487 0.716193795 0
vn 0.6126315 0.790368676 0
vn 0.6126315 0.790368676 0
vn 0.51895076 0.854804099 0
vn 0.51895076 0.854804099 0
vn 0.417463958 0.908693552 0
vn 0.417463958 0.908693552 0
vn 0.308997124 0.951062918 0
vn 0.308997124 0.951062918 0
vn 0.194762826 0.980850339 0
vn 0.194762826 0.980850339 0
vn 0.0765779689 0.997063577 0
vn 0.0765779614 0.997063577 0
vn -0.0430418476 0.999073267 0
vn -0.0430418476 0.999073267 0
vn -0.10886503 0.994056463 0
vn -0.10886503 0.994056463 0
g mod_zhuahen31_0
f 3/3/3 2/2/2 1/1/1
f 2/2/2 4/4/4 1/1/1
f 2/2/2 5/5/5 4/4/4
f 5/5/5 6/6/6 4/4/4
f 5/5/5 7/7/7 6/6/6
f 7/7/7 8/8/8 6/6/6
f 7/7/7 9/9/9 8/8/8
f 9/9/9 10/10/10 8/8/8
f 9/9/9 11/11/11 10/10/10
f 11/11/11 12/12/12 10/10/10
f 11/11/11 13/13/13 12/12/12
f 13/13/13 14/14/14 12/12/12
f 13/13/13 15/15/15 14/14/14
f 15/15/15 16/16/16 14/14/14
f 15/15/15 17/17/17 16/16/16
f 17/17/17 18/18/18 16/16/16
f 17/17/17 19/19/19 18/18/18
f 19/19/19 20/20/20 18/18/18
f 19/19/19 21/21/21 20/20/20
f 21/21/21 22/22/22 20/20/20
f 21/21/21 23/23/23 22/22/22
f 23/23/23 24/24/24 22/22/22
f 23/23/23 25/25/25 24/24/24
f 25/25/25 26/26/26 24/24/24
f 25/25/25 27/27/27 26/26/26
f 27/27/27 28/28/28 26/26/26
f 27/27/27 29/29/29 28/28/28
f 29/29/29 30/30/30 28/28/28
f 29/29/29 31/31/31 30/30/30
f 31/31/31 32/32/32 30/30/30
f 31/31/31 33/33/33 32/32/32
f 33/33/33 34/34/34 32/32/32
f 33/33/33 35/35/35 34/34/34
f 35/35/35 36/36/36 34/34/34
f 35/35/35 37/37/37 36/36/36
f 37/37/37 38/38/38 36/36/36
f 37/37/37 39/39/39 38/38/38
f 39/39/39 40/40/40 38/38/38
f 39/39/39 41/41/41 40/40/40
f 41/41/41 42/42/42 40/40/40
f 45/45/45 44/44/44 43/43/43
f 44/44/44 46/46/46 43/43/43
f 44/44/44 47/47/47 46/46/46
f 47/47/47 48/48/48 46/46/46
f 47/47/47 49/49/49 48/48/48
f 49/49/49 50/50/50 48/48/48
f 49/49/49 51/51/51 50/50/50
f 51/51/51 52/52/52 50/50/50
f 51/51/51 53/53/53 52/52/52
f 53/53/53 54/54/54 52/52/52
f 53/53/53 55/55/55 54/54/54
f 55/55/55 56/56/56 54/54/54
f 55/55/55 57/57/57 56/56/56
f 57/57/57 58/58/58 56/56/56
f 57/57/57 59/59/59 58/58/58
f 59/59/59 60/60/60 58/58/58
f 59/59/59 61/61/61 60/60/60
f 61/61/61 62/62/62 60/60/60
f 61/61/61 63/63/63 62/62/62
f 63/63/63 64/64/64 62/62/62
f 63/63/63 65/65/65 64/64/64
f 65/65/65 66/66/66 64/64/64
f 65/65/65 67/67/67 66/66/66
f 67/67/67 68/68/68 66/66/66
f 67/67/67 69/69/69 68/68/68
f 69/69/69 70/70/70 68/68/68
f 69/69/69 71/71/71 70/70/70
f 71/71/71 72/72/72 70/70/70
f 71/71/71 73/73/73 72/72/72
f 73/73/73 74/74/74 72/72/72
f 73/73/73 75/75/75 74/74/74
f 75/75/75 76/76/76 74/74/74
f 75/75/75 77/77/77 76/76/76
f 77/77/77 78/78/78 76/76/76
f 77/77/77 79/79/79 78/78/78
f 79/79/79 80/80/80 78/78/78
f 79/79/79 81/81/81 80/80/80
f 81/81/81 82/82/82 80/80/80
f 81/81/81 83/83/83 82/82/82
f 83/83/83 84/84/84 82/82/82
