g plane_liubianxing
v -0 -1 0
v 0.866025448 -0.49999994 -7.57103464E-08
v 0.866025448 0.49999994 -7.57103464E-08
v -0 1 0
v -0.866025448 -0.49999994 7.57103464E-08
v -0.866025448 0.49999994 7.57103464E-08
vt 0.25 0.0100000054
vt 0.0421538949 0.13000001
vt 0.0421538949 0.370000005
vt 0.25 0.49000001
vt 0.457846105 0.13000001
vt 0.457846105 0.370000005
vn -0 0 -1
vn -0 0 -1
vn -0 0 -1
vn -0 0 -1
vn -0 0 -1
vn -0 0 -1
g plane_liubianxing_0
f 3/3/3 2/2/2 1/1/1
f 1/1/1 4/4/4 3/3/3
f 1/1/1 5/5/5 4/4/4
f 5/5/5 6/6/6 4/4/4
