g DiZhu_Pai01
v -0.499173522 -0.826388061 0.612768471
v -0.502808213 -0.822164893 0.61569798
v -0.509533525 -0.827709556 0.617489696
v -0.494853973 -0.82231009 0.615559101
v -0.505588591 -0.83167702 0.614477575
v -0.509610593 -0.833592355 0.619229436
v -0.491586357 -0.826526701 0.61263603
v -0.347766906 -0.824996233 0.612991571
v -0.499253958 -0.832526922 0.61458385
v -0.505662024 -0.837288201 0.616136968
v -0.507021308 -0.941051662 0.646823049
v -0.511035621 -0.942375243 0.65139991
v -0.500740945 -0.946044683 0.648154616
v -0.5070948 -0.946662962 0.648482442
v -0.51111263 -0.948258042 0.653139532
v -0.504535794 -0.954045594 0.654699147
v -0.500821352 -0.952183485 0.649969995
v -0.496581525 -0.95419091 0.654560328
v -0.491666734 -0.832665443 0.614451468
v -0.493153721 -0.946183205 0.648022115
v -0.493234158 -0.952322066 0.649837554
v -0.351286262 -0.829088807 0.610186994
v -0.352934062 -0.954884231 0.647388518
v -0.349494427 -0.956876934 0.651992798
v -0.351366639 -0.835227668 0.612002432
v -0.343699098 -0.829227328 0.610054553
v -0.339812726 -0.82514149 0.612852752
v -0.33323577 -0.830929101 0.614412308
v -0.352853656 -0.94874543 0.64557308
v -0.345346898 -0.955022812 0.647256076
v -0.341540247 -0.95702213 0.651853919
v -0.334814876 -0.951477587 0.650062144
v -0.337425649 -0.83474791 0.611542165
v -0.333312869 -0.836811781 0.616152048
v -0.343779504 -0.835366189 0.611869991
v -0.345266491 -0.948883951 0.645440638
v -0.338931918 -0.949733913 0.645547032
v -0.334737808 -0.945594788 0.648322463
v -0.337499142 -0.840359271 0.613201559
v -0.338858366 -0.944122612 0.643887639
v -0.343527138 -0.827003539 0.617581844
v -0.339812726 -0.82514149 0.612852752
v -0.33323577 -0.830929101 0.614412308
v -0.347766906 -0.824996233 0.612991571
v -0.33725363 -0.83252418 0.619069457
v -0.333312869 -0.836811781 0.616152048
v -0.351114273 -0.826864958 0.617714286
v -0.494853973 -0.82231009 0.615559101
v -0.343607515 -0.8331424 0.619397283
v -0.337327123 -0.838135421 0.62072891
v -0.338686377 -0.941898882 0.651414931
v -0.334737808 -0.945594788 0.648322463
v -0.345094472 -0.946660161 0.652967989
v -0.338759899 -0.947510123 0.653074324
v -0.334814876 -0.951477587 0.650062144
v -0.345174938 -0.952798963 0.654783368
v -0.341540247 -0.95702213 0.651853919
v -0.349494427 -0.956876934 0.651992798
v -0.35119465 -0.833003819 0.619529724
v -0.352681637 -0.94652158 0.653100431
v -0.352762073 -0.952660441 0.65491581
v -0.491414368 -0.824302912 0.620163321
v -0.493062168 -0.950098217 0.657364845
v -0.496581525 -0.95419091 0.654560328
v -0.491494745 -0.830441654 0.62197876
v -0.499001533 -0.824164271 0.620295763
v -0.502808213 -0.822164893 0.61569798
v -0.509533525 -0.827709556 0.617489696
v -0.492981702 -0.943959415 0.655549467
v -0.500649333 -0.949959695 0.657497287
v -0.504535794 -0.954045594 0.654699147
v -0.505416572 -0.82945317 0.622004867
v -0.509610593 -0.833592355 0.619229436
v -0.499081939 -0.830303073 0.622111201
v -0.500568926 -0.943820834 0.655681908
v -0.506922781 -0.944439113 0.656009734
v -0.51111263 -0.948258042 0.653139532
v -0.511035621 -0.942375243 0.65139991
v -0.505490005 -0.835064471 0.62366426
v -0.506849289 -0.938827872 0.65435034
vt 0.0215483867 0.97464335
vt 0.0116298115 0.983688831
vt 0.0175696723 0.990104437
vt 0.00892664026 0.97552371
vt 0.0246372037 0.977273822
vt 0.0238286741 0.992519021
vt 0.0211796388 0.97105813
vt 0.00945853349 0.883443773
vt 0.0243537165 0.974552155
vt 0.0272625871 0.977492452
vt 0.0858898684 0.977450132
vt 0.0891530737 0.992469549
vt 0.0888313651 0.974504232
vt 0.0885166302 0.977228403
vt 0.0954443142 0.990040302
vt 0.101455428 0.983609915
vt 0.0916347951 0.974590421
vt 0.104248933 0.975443244
vt 0.0243343972 0.970991373
vt 0.0888911933 0.970941782
vt 0.0920456275 0.97100246
vt 0.0216618329 0.887884557
vt 0.0925277993 0.887828231
vt 0.104780771 0.88336271
vt 0.0248162188 0.887945175
vt 0.0220726877 0.884297073
vt 0.0122520356 0.875277519
vt 0.0182631537 0.86884737
vt 0.089373067 0.887894869
vt 0.0921590254 0.884242654
vt 0.10207767 0.875197113
vt 0.096137844 0.868781269
vt 0.025190901 0.88165921
vt 0.0245542638 0.866418064
vt 0.0248760916 0.884383202
vt 0.0893537924 0.884333909
vt 0.0890703052 0.881611824
vt 0.0898786411 0.866366565
vt 0.0278176405 0.88143754
vt 0.0864449739 0.881393313
vt 0.0186255015 0.777992368
vt 0.0133213466 0.768832803
vt 0.0095765423 0.774385393
vt 0.0181026272 0.766256213
vt 0.0170786157 0.780883729
vt 0.00816086866 0.780210674
vt 0.020719409 0.777624607
vt 0.0719838887 0.766277552
vt 0.0186712109 0.780604303
vt 0.0169467628 0.783327878
vt 0.016870033 0.837903142
vt 0.00807294808 0.840988219
vt 0.0185875557 0.840619922
vt 0.0169965886 0.840352118
vt 0.00947487541 0.846826792
vt 0.0185359605 0.843232393
vt 0.0132308668 0.852406502
vt 0.0180117302 0.854972959
vt 0.0207515657 0.780565202
vt 0.0206695125 0.840654194
vt 0.0206315145 0.843592942
vt 0.0693640485 0.777657568
vt 0.0692759082 0.843625844
vt 0.0718927905 0.854994059
vt 0.0693260059 0.780596256
vt 0.0714598075 0.778018117
vt 0.0767648295 0.768843949
vt 0.0805208907 0.774423778
vt 0.0692437068 0.840685248
vt 0.0713696256 0.843257904
vt 0.0766738281 0.85241729
vt 0.072999157 0.780898333
vt 0.081922695 0.780262291
vt 0.07140816 0.78063035
vt 0.0713238418 0.840645909
vt 0.0729163885 0.840366364
vt 0.0804184303 0.8468647
vt 0.0818339884 0.841039538
vt 0.0731256604 0.783347309
vt 0.0730481148 0.837922275
vn -0.146215186 0.148024887 -0.97811538
vn -0.460301936 0.8541888 -0.241834
vn -0.843107939 0.52064085 -0.134543404
vn 0.0125605408 0.95887053 -0.28356573
vn -0.390962839 -0.0682847276 -0.917870045
vn -0.999681115 0.0182557087 0.0174454488
vn -0.0139716305 0.175794393 -0.984327674
vn 0.0125612859 0.958871186 -0.283563465
vn -0.0219108071 -0.283258379 -0.958793283
vn -0.349363476 -0.26150769 -0.899754941
vn -0.349365354 -0.261507452 -0.899754286
vn -0.999681115 0.0182563812 0.0174484998
vn -0.0219099857 -0.283258349 -0.958793402
vn -0.395722479 -0.432444304 -0.810182452
vn -0.856341004 -0.489607334 0.164209336
vn -0.482456505 -0.836971581 0.258291095
vn -0.156698614 -0.652555168 -0.741361737
vn -0.0125606479 -0.958870649 0.283565104
vn -0.0219093878 -0.283257931 -0.958793521
vn -0.0219093841 -0.283257306 -0.9587937
vn -0.0252141878 -0.682419896 -0.730525374
vn -0.0139715709 0.175794408 -0.984327674
vn -0.0252138618 -0.682419121 -0.73052603
vn -0.0125603573 -0.958870888 0.283564746
vn -0.0219092201 -0.283257812 -0.958793521
vn 0.117305711 0.143208757 -0.982715845
vn 0.48245737 0.836973011 -0.258284777
vn 0.85634017 0.489608049 -0.164211899
vn -0.021909181 -0.283257127 -0.9587937
vn 0.106820412 -0.657365799 -0.745962262
vn 0.46029672 -0.854189575 0.241841182
vn 0.843105018 -0.520643353 0.134552717
vn 0.355938137 -0.0819251016 -0.930911541
vn 0.999680877 -0.0182572585 -0.0174560826
vn -0.021903269 -0.283257008 -0.958793819
vn -0.0219036024 -0.283256471 -0.958794057
vn 0.351171732 -0.446089983 -0.823214531
vn 0.999680996 -0.018256193 -0.0174503867
vn 0.307991266 -0.273511857 -0.911225915
vn 0.307991177 -0.273511767 -0.911225915
vn 0.156700522 0.652559102 0.741357863
vn 0.48245737 0.836973011 -0.258284777
vn 0.85634017 0.489608049 -0.164211899
vn 0.0125612859 0.958871186 -0.283563465
vn 0.395730168 0.432452142 0.810174465
vn 0.999680877 -0.0182572585 -0.0174560826
vn 0.0252138972 0.682415605 0.730529368
vn 0.0125605408 0.95887053 -0.28356573
vn 0.0219095275 0.283257812 0.958793521
vn 0.349378347 0.261507213 0.899749279
vn 0.349376976 0.261507094 0.899749815
vn 0.999680996 -0.018256193 -0.0174503867
vn 0.0219101794 0.283257425 0.958793581
vn 0.390953958 0.0682836175 0.917873859
vn 0.843105018 -0.520643353 0.134552717
vn 0.146207869 -0.148017511 0.978117645
vn 0.46029672 -0.854189575 0.241841182
vn -0.0125603573 -0.958870888 0.283564746
vn 0.021909114 0.283257842 0.958793521
vn 0.0219091121 0.283257484 0.958793581
vn 0.0139720105 -0.175796106 0.984327495
vn 0.0252141915 0.682415903 0.73052913
vn 0.0139722079 -0.175796464 0.984327376
vn -0.0125606479 -0.958870649 0.283565104
vn 0.0219090357 0.283257812 0.958793521
vn -0.106814697 0.657370746 0.745958567
vn -0.460301936 0.8541888 -0.241834
vn -0.843107939 0.52064085 -0.134543404
vn 0.021909019 0.283257484 0.958793581
vn -0.117303066 -0.143204182 0.982716918
vn -0.482456505 -0.836971581 0.258291095
vn -0.351177663 0.446086198 0.823214054
vn -0.999681115 0.0182557087 0.0174454488
vn 0.0219085421 0.283258051 0.958793521
vn 0.0219080914 0.283257544 0.958793581
vn -0.355942607 0.0819220394 0.93091011
vn -0.856341004 -0.489607334 0.164209336
vn -0.999681115 0.0182563812 0.0174484998
vn -0.30798313 0.27351293 0.911228359
vn -0.307984859 0.273512661 0.911227882
g DiZhu_Pai01_0
f 3/3/3 2/2/2 1/1/1
f 2/2/2 4/4/4 1/1/1
f 5/5/5 3/3/3 1/1/1
f 3/3/3 5/5/5 6/6/6
f 4/4/4 7/7/7 1/1/1
f 4/4/4 8/8/8 7/7/7
f 1/1/1 9/9/9 5/5/5
f 1/1/1 7/7/7 9/9/9
f 5/5/5 10/10/10 6/6/6
f 9/9/9 10/10/10 5/5/5
f 6/6/6 10/10/10 11/11/11
f 12/12/12 6/6/6 11/11/11
f 9/9/9 13/13/13 10/10/10
f 13/13/13 11/11/11 10/10/10
f 12/12/12 11/11/11 14/14/14
f 14/14/14 11/11/11 13/13/13
f 15/15/15 12/12/12 14/14/14
f 16/16/16 15/15/15 14/14/14
f 17/17/17 16/16/16 14/14/14
f 17/17/17 14/14/14 13/13/13
f 16/16/16 17/17/17 18/18/18
f 7/7/7 19/19/19 9/9/9
f 9/9/9 19/19/19 13/13/13
f 13/13/13 20/20/20 17/17/17
f 19/19/19 20/20/20 13/13/13
f 17/17/17 21/21/21 18/18/18
f 20/20/20 21/21/21 17/17/17
f 19/19/19 7/7/7 22/22/22
f 8/8/8 22/22/22 7/7/7
f 18/18/18 21/21/21 23/23/23
f 24/24/24 18/18/18 23/23/23
f 19/19/19 25/25/25 20/20/20
f 25/25/25 19/19/19 22/22/22
f 26/26/26 22/22/22 8/8/8
f 25/25/25 22/22/22 26/26/26
f 27/27/27 26/26/26 8/8/8
f 27/27/27 28/28/28 26/26/26
f 20/20/20 29/29/29 21/21/21
f 25/25/25 29/29/29 20/20/20
f 29/29/29 23/23/23 21/21/21
f 24/24/24 23/23/23 30/30/30
f 31/31/31 24/24/24 30/30/30
f 32/32/32 31/31/31 30/30/30
f 28/28/28 33/33/33 26/26/26
f 28/28/28 34/34/34 33/33/33
f 35/35/35 25/25/25 26/26/26
f 29/29/29 25/25/25 35/35/35
f 26/26/26 33/33/33 35/35/35
f 23/23/23 29/29/29 36/36/36
f 30/30/30 23/23/23 36/36/36
f 36/36/36 29/29/29 35/35/35
f 37/37/37 32/32/32 30/30/30
f 30/30/30 36/36/36 37/37/37
f 32/32/32 37/37/37 38/38/38
f 34/34/34 39/39/39 33/33/33
f 33/33/33 39/39/39 35/35/35
f 34/34/34 38/38/38 39/39/39
f 36/36/36 35/35/35 40/40/40
f 36/36/36 40/40/40 37/37/37
f 35/35/35 39/39/39 40/40/40
f 38/38/38 40/40/40 39/39/39
f 37/37/37 40/40/40 38/38/38
f 43/43/43 42/42/42 41/41/41
f 42/42/42 44/44/44 41/41/41
f 45/45/45 43/43/43 41/41/41
f 43/43/43 45/45/45 46/46/46
f 44/44/44 47/47/47 41/41/41
f 44/44/44 48/48/48 47/47/47
f 41/41/41 49/49/49 45/45/45
f 41/41/41 47/47/47 49/49/49
f 45/45/45 50/50/50 46/46/46
f 49/49/49 50/50/50 45/45/45
f 46/46/46 50/50/50 51/51/51
f 52/52/52 46/46/46 51/51/51
f 50/50/50 49/49/49 53/53/53
f 51/51/51 50/50/50 53/53/53
f 52/52/52 51/51/51 54/54/54
f 54/54/54 51/51/51 53/53/53
f 55/55/55 52/52/52 54/54/54
f 55/55/55 54/54/54 56/56/56
f 56/56/56 54/54/54 53/53/53
f 57/57/57 55/55/55 56/56/56
f 57/57/57 56/56/56 58/58/58
f 47/47/47 59/59/59 49/49/49
f 49/49/49 59/59/59 53/53/53
f 53/53/53 60/60/60 56/56/56
f 59/59/59 60/60/60 53/53/53
f 56/56/56 61/61/61 58/58/58
f 60/60/60 61/61/61 56/56/56
f 59/59/59 47/47/47 62/62/62
f 48/48/48 62/62/62 47/47/47
f 58/58/58 61/61/61 63/63/63
f 64/64/64 58/58/58 63/63/63
f 59/59/59 65/65/65 60/60/60
f 65/65/65 59/59/59 62/62/62
f 66/66/66 62/62/62 48/48/48
f 65/65/65 62/62/62 66/66/66
f 67/67/67 66/66/66 48/48/48
f 67/67/67 68/68/68 66/66/66
f 60/60/60 69/69/69 61/61/61
f 65/65/65 69/69/69 60/60/60
f 69/69/69 63/63/63 61/61/61
f 64/64/64 63/63/63 70/70/70
f 71/71/71 64/64/64 70/70/70
f 68/68/68 72/72/72 66/66/66
f 68/68/68 73/73/73 72/72/72
f 74/74/74 65/65/65 66/66/66
f 69/69/69 65/65/65 74/74/74
f 66/66/66 72/72/72 74/74/74
f 63/63/63 69/69/69 75/75/75
f 70/70/70 63/63/63 75/75/75
f 75/75/75 69/69/69 74/74/74
f 71/71/71 70/70/70 76/76/76
f 70/70/70 75/75/75 76/76/76
f 77/77/77 71/71/71 76/76/76
f 77/77/77 76/76/76 78/78/78
f 73/73/73 79/79/79 72/72/72
f 72/72/72 79/79/79 74/74/74
f 73/73/73 78/78/78 79/79/79
f 75/75/75 74/74/74 80/80/80
f 75/75/75 80/80/80 76/76/76
f 74/74/74 79/79/79 80/80/80
f 78/78/78 80/80/80 79/79/79
f 76/76/76 80/80/80 78/78/78
