g DiZhu_Pai14
v -0.38667345 -1.03501213 0.639128268
v -0.389277607 -1.03237355 0.644215941
v -0.395937562 -1.03821313 0.645069361
v -0.381555855 -1.03239524 0.642296493
v -0.393026203 -1.0405823 0.639942229
v -0.396148622 -1.04429483 0.644288898
v -0.379308075 -1.03503287 0.637297332
v -0.238767624 -1.03279519 0.606802523
v -0.38689366 -1.04135847 0.63831389
v -0.393227369 -1.04638326 0.639197886
v -0.396949559 -1.15365398 0.625433326
v -0.400050789 -1.15675461 0.629858494
v -0.390965641 -1.15871322 0.623255372
v -0.397150844 -1.15945494 0.624688923
v -0.400261819 -1.16283619 0.62907815
v -0.394008309 -1.1687119 0.626721501
v -0.39118588 -1.16505957 0.622441053
v -0.386286527 -1.1687336 0.624802053
v -0.379528224 -1.04137909 0.636483014
v -0.383600175 -1.15873384 0.621424496
v -0.383820444 -1.16508019 0.620610118
v -0.243108407 -1.03541434 0.603441119
v -0.247620791 -1.16546166 0.586753964
v -0.243498281 -1.16913354 0.589308023
v -0.243328586 -1.04176068 0.602626801
v -0.235743001 -1.03543496 0.601610303
v -0.231045887 -1.03281689 0.604883015
v -0.224792376 -1.03869259 0.602526367
v -0.247400567 -1.15911531 0.587568283
v -0.240255371 -1.16548228 0.584923089
v -0.235776588 -1.16915512 0.587388575
v -0.229116544 -1.16331565 0.586535215
v -0.229778022 -1.04103959 0.599362373
v -0.225003406 -1.04477417 0.601746023
v -0.23596321 -1.04178131 0.600795925
v -0.240035161 -1.15913606 0.585737407
v -0.233902723 -1.15991211 0.584109128
v -0.228905559 -1.15723407 0.587315559
v -0.229979306 -1.04684055 0.598617971
v -0.233701408 -1.15411127 0.584853411
v -0.233868346 -1.03646922 0.609163523
v -0.231045887 -1.03281689 0.604883015
v -0.224792376 -1.03869259 0.602526367
v -0.238767624 -1.03279519 0.606802523
v -0.227903336 -1.04207385 0.606915593
v -0.225003406 -1.04477417 0.601746023
v -0.241233721 -1.0364486 0.610994339
v -0.381555855 -1.03239524 0.642296493
v -0.234088555 -1.04281557 0.608349204
v -0.228104621 -1.04787493 0.60617125
v -0.231826738 -1.15514553 0.592406631
v -0.228905559 -1.15723407 0.587315559
v -0.238160506 -1.16017032 0.593290627
v -0.232028037 -1.16094649 0.591662288
v -0.229116544 -1.16331565 0.586535215
v -0.23838073 -1.16651666 0.592476308
v -0.235776588 -1.16915512 0.587388575
v -0.243498281 -1.16913354 0.589308023
v -0.241453931 -1.04279494 0.61018002
v -0.245525911 -1.16014957 0.595121503
v -0.245746106 -1.16649592 0.594307184
v -0.377433389 -1.03606713 0.644850612
v -0.381945759 -1.16611445 0.628163397
v -0.386286527 -1.1687336 0.624802053
v -0.377653569 -1.04241335 0.644036233
v -0.384798795 -1.03604639 0.646681488
v -0.389277607 -1.03237355 0.644215941
v -0.395937562 -1.03821313 0.645069361
v -0.38172552 -1.1597681 0.628977716
v -0.389311165 -1.16609383 0.629994273
v -0.394008309 -1.1687119 0.626721501
v -0.391151488 -1.04161656 0.647495508
v -0.396148622 -1.04429483 0.644288898
v -0.385018975 -1.04239273 0.645867169
v -0.389090955 -1.15974748 0.630808592
v -0.395276189 -1.1604892 0.632242203
v -0.400261819 -1.16283619 0.62907815
v -0.400050789 -1.15675461 0.629858494
v -0.391352713 -1.04741752 0.646751106
v -0.395074874 -1.15468824 0.632986486
vt 0.0215483867 0.97464335
vt 0.0116298115 0.983688831
vt 0.0175696723 0.990104437
vt 0.00892664026 0.97552371
vt 0.0246372037 0.977273822
vt 0.0238286741 0.992519021
vt 0.0211796388 0.97105813
vt 0.00945853349 0.883443773
vt 0.0243537165 0.974552155
vt 0.0272625871 0.977492452
vt 0.0858898684 0.977450132
vt 0.0891530737 0.992469549
vt 0.0888313651 0.974504232
vt 0.0885166302 0.977228403
vt 0.0954443142 0.990040302
vt 0.101455428 0.983609915
vt 0.0916347951 0.974590421
vt 0.104248933 0.975443244
vt 0.0243343972 0.970991373
vt 0.0888911933 0.970941782
vt 0.0920456275 0.97100246
vt 0.0216618329 0.887884557
vt 0.0925277993 0.887828231
vt 0.104780771 0.88336271
vt 0.0248162188 0.887945175
vt 0.0220726877 0.884297073
vt 0.0122520356 0.875277519
vt 0.0182631537 0.86884737
vt 0.089373067 0.887894869
vt 0.0921590254 0.884242654
vt 0.10207767 0.875197113
vt 0.096137844 0.868781269
vt 0.025190901 0.88165921
vt 0.0245542638 0.866418064
vt 0.0248760916 0.884383202
vt 0.0893537924 0.884333909
vt 0.0890703052 0.881611824
vt 0.0898786411 0.866366565
vt 0.0278176405 0.88143754
vt 0.0864449739 0.881393313
vt 0.0186255015 0.777992368
vt 0.0133213466 0.768832803
vt 0.0095765423 0.774385393
vt 0.0181026272 0.766256213
vt 0.0170786157 0.780883729
vt 0.00816086866 0.780210674
vt 0.020719409 0.777624607
vt 0.0719838887 0.766277552
vt 0.0186712109 0.780604303
vt 0.0169467628 0.783327878
vt 0.016870033 0.837903142
vt 0.00807294808 0.840988219
vt 0.0185875557 0.840619922
vt 0.0169965886 0.840352118
vt 0.00947487541 0.846826792
vt 0.0185359605 0.843232393
vt 0.0132308668 0.852406502
vt 0.0180117302 0.854972959
vt 0.0207515657 0.780565202
vt 0.0206695125 0.840654194
vt 0.0206315145 0.843592942
vt 0.0693640485 0.777657568
vt 0.0692759082 0.843625844
vt 0.0718927905 0.854994059
vt 0.0693260059 0.780596256
vt 0.0714598075 0.778018117
vt 0.0767648295 0.768843949
vt 0.0805208907 0.774423778
vt 0.0692437068 0.840685248
vt 0.0713696256 0.843257904
vt 0.0766738281 0.85241729
vt 0.072999157 0.780898333
vt 0.081922695 0.780262291
vt 0.07140816 0.78063035
vt 0.0713238418 0.840645909
vt 0.0729163885 0.840366364
vt 0.0804184303 0.8468647
vt 0.0818339884 0.841039538
vt 0.0731256604 0.783347309
vt 0.0730481148 0.837922275
vn -0.328235596 0.532621384 -0.780112684
vn -0.427265942 0.8754462 0.225915119
vn -0.806769907 0.524507821 0.272054762
vn 0.0343960039 0.991279781 0.127205729
vn -0.572813332 0.308861643 -0.759268999
vn -0.97046262 0.00271911523 0.241236448
vn -0.198146239 0.56142199 -0.803457201
vn 0.0343963727 0.991279423 0.127208173
vn -0.238787889 0.131737828 -0.962094307
vn -0.544582546 0.125307843 -0.829293489
vn -0.544585168 0.125307873 -0.829291821
vn -0.970462501 0.00271982607 0.241237015
vn -0.238788098 0.131737977 -0.962094188
vn -0.585872054 -0.0676069334 -0.807578683
vn -0.843006551 -0.519887507 0.138047159
vn -0.48792547 -0.872883916 0.00158617215
vn -0.356956184 -0.295021147 -0.886309624
vn -0.0343954563 -0.991281629 -0.127191424
vn -0.238786504 0.131737992 -0.962094665
vn -0.238786608 0.131737962 -0.962094665
vn -0.22893627 -0.325805157 -0.917299926
vn -0.19814612 0.561422288 -0.803456962
vn -0.228935659 -0.325803727 -0.917300522
vn -0.0343947485 -0.991281509 -0.127192006
vn -0.238786206 0.131737992 -0.962094724
vn -0.0724231526 0.531907916 -0.843699515
vn 0.487927347 0.872882783 -0.00157948758
vn 0.843006611 0.519888461 -0.138042718
vn -0.238786265 0.131737933 -0.962094724
vn -0.101135775 -0.295724124 -0.94990468
vn 0.427268595 -0.875444293 -0.225917682
vn 0.806771755 -0.524506748 -0.272051275
vn 0.15225628 0.30683738 -0.939504564
vn 0.97046113 -0.00271855015 -0.241241828
vn -0.238781527 0.131738082 -0.962095857
vn -0.238781258 0.13173762 -0.962095976
vn 0.139188156 -0.0696362033 -0.987814426
vn 0.970461845 -0.00271847588 -0.241239414
vn 0.0935629979 0.123519816 -0.987921476
vn 0.093562074 0.123519786 -0.987921596
vn 0.356953949 0.295019925 0.886310935
vn 0.487927347 0.872882783 -0.00157948758
vn 0.843006611 0.519888461 -0.138042718
vn 0.0343963727 0.991279423 0.127208173
vn 0.585872352 0.0676100478 0.807578146
vn 0.97046113 -0.00271855015 -0.241241828
vn 0.228932202 0.32579726 0.917303741
vn 0.0343960039 0.991279781 0.127205729
vn 0.238788515 -0.131737515 0.962094188
vn 0.544585586 -0.125307843 0.829291523
vn 0.544585168 -0.125307873 0.829291821
vn 0.970461845 -0.00271847588 -0.241239414
vn 0.238788605 -0.131737769 0.962094188
vn 0.572810531 -0.308863997 0.759270132
vn 0.806771755 -0.524506748 -0.272051275
vn 0.328236252 -0.532618463 0.780114532
vn 0.427268595 -0.875444293 -0.225917682
vn -0.0343947485 -0.991281509 -0.127192006
vn 0.238786682 -0.131737903 0.962094665
vn 0.238786399 -0.131737724 0.962094724
vn 0.198148891 -0.561424077 0.803455055
vn 0.228931919 0.32579729 0.917303741
vn 0.198148936 -0.561424494 0.803454697
vn -0.0343954563 -0.991281629 -0.127191424
vn 0.238786399 -0.131737918 0.962094724
vn 0.101136379 0.295736521 0.949900687
vn -0.427265942 0.8754462 0.225915119
vn -0.806769907 0.524507821 0.272054762
vn 0.238786176 -0.131737724 0.962094724
vn 0.0724298954 -0.531905949 0.843700111
vn -0.48792547 -0.872883916 0.00158617215
vn -0.139203101 0.0696391314 0.987812221
vn -0.97046262 0.00271911523 0.241236448
vn 0.238782644 -0.13173826 0.962095499
vn 0.238783494 -0.131738052 0.96209538
vn -0.152252764 -0.306831181 0.939507186
vn -0.843006551 -0.519887507 0.138047159
vn -0.970462501 0.00271982607 0.241237015
vn -0.0935508758 -0.12352033 0.98792249
vn -0.0935536474 -0.123520061 0.987922251
g DiZhu_Pai14_0
f 3/3/3 2/2/2 1/1/1
f 2/2/2 4/4/4 1/1/1
f 5/5/5 3/3/3 1/1/1
f 3/3/3 5/5/5 6/6/6
f 4/4/4 7/7/7 1/1/1
f 4/4/4 8/8/8 7/7/7
f 1/1/1 9/9/9 5/5/5
f 1/1/1 7/7/7 9/9/9
f 5/5/5 10/10/10 6/6/6
f 9/9/9 10/10/10 5/5/5
f 6/6/6 10/10/10 11/11/11
f 12/12/12 6/6/6 11/11/11
f 9/9/9 13/13/13 10/10/10
f 13/13/13 11/11/11 10/10/10
f 12/12/12 11/11/11 14/14/14
f 14/14/14 11/11/11 13/13/13
f 15/15/15 12/12/12 14/14/14
f 16/16/16 15/15/15 14/14/14
f 17/17/17 16/16/16 14/14/14
f 17/17/17 14/14/14 13/13/13
f 16/16/16 17/17/17 18/18/18
f 7/7/7 19/19/19 9/9/9
f 9/9/9 19/19/19 13/13/13
f 13/13/13 20/20/20 17/17/17
f 19/19/19 20/20/20 13/13/13
f 17/17/17 21/21/21 18/18/18
f 20/20/20 21/21/21 17/17/17
f 19/19/19 7/7/7 22/22/22
f 8/8/8 22/22/22 7/7/7
f 18/18/18 21/21/21 23/23/23
f 24/24/24 18/18/18 23/23/23
f 19/19/19 25/25/25 20/20/20
f 25/25/25 19/19/19 22/22/22
f 26/26/26 22/22/22 8/8/8
f 25/25/25 22/22/22 26/26/26
f 27/27/27 26/26/26 8/8/8
f 27/27/27 28/28/28 26/26/26
f 20/20/20 29/29/29 21/21/21
f 25/25/25 29/29/29 20/20/20
f 29/29/29 23/23/23 21/21/21
f 24/24/24 23/23/23 30/30/30
f 31/31/31 24/24/24 30/30/30
f 32/32/32 31/31/31 30/30/30
f 28/28/28 33/33/33 26/26/26
f 28/28/28 34/34/34 33/33/33
f 35/35/35 25/25/25 26/26/26
f 29/29/29 25/25/25 35/35/35
f 26/26/26 33/33/33 35/35/35
f 23/23/23 29/29/29 36/36/36
f 30/30/30 23/23/23 36/36/36
f 36/36/36 29/29/29 35/35/35
f 37/37/37 32/32/32 30/30/30
f 30/30/30 36/36/36 37/37/37
f 32/32/32 37/37/37 38/38/38
f 34/34/34 39/39/39 33/33/33
f 33/33/33 39/39/39 35/35/35
f 34/34/34 38/38/38 39/39/39
f 36/36/36 35/35/35 40/40/40
f 36/36/36 40/40/40 37/37/37
f 35/35/35 39/39/39 40/40/40
f 38/38/38 40/40/40 39/39/39
f 37/37/37 40/40/40 38/38/38
f 43/43/43 42/42/42 41/41/41
f 42/42/42 44/44/44 41/41/41
f 45/45/45 43/43/43 41/41/41
f 43/43/43 45/45/45 46/46/46
f 44/44/44 47/47/47 41/41/41
f 44/44/44 48/48/48 47/47/47
f 41/41/41 49/49/49 45/45/45
f 41/41/41 47/47/47 49/49/49
f 45/45/45 50/50/50 46/46/46
f 49/49/49 50/50/50 45/45/45
f 46/46/46 50/50/50 51/51/51
f 52/52/52 46/46/46 51/51/51
f 50/50/50 49/49/49 53/53/53
f 51/51/51 50/50/50 53/53/53
f 52/52/52 51/51/51 54/54/54
f 54/54/54 51/51/51 53/53/53
f 55/55/55 52/52/52 54/54/54
f 55/55/55 54/54/54 56/56/56
f 56/56/56 54/54/54 53/53/53
f 57/57/57 55/55/55 56/56/56
f 57/57/57 56/56/56 58/58/58
f 47/47/47 59/59/59 49/49/49
f 49/49/49 59/59/59 53/53/53
f 53/53/53 60/60/60 56/56/56
f 59/59/59 60/60/60 53/53/53
f 56/56/56 61/61/61 58/58/58
f 60/60/60 61/61/61 56/56/56
f 59/59/59 47/47/47 62/62/62
f 48/48/48 62/62/62 47/47/47
f 58/58/58 61/61/61 63/63/63
f 64/64/64 58/58/58 63/63/63
f 59/59/59 65/65/65 60/60/60
f 65/65/65 59/59/59 62/62/62
f 66/66/66 62/62/62 48/48/48
f 65/65/65 62/62/62 66/66/66
f 67/67/67 66/66/66 48/48/48
f 67/67/67 68/68/68 66/66/66
f 60/60/60 69/69/69 61/61/61
f 65/65/65 69/69/69 60/60/60
f 69/69/69 63/63/63 61/61/61
f 64/64/64 63/63/63 70/70/70
f 71/71/71 64/64/64 70/70/70
f 68/68/68 72/72/72 66/66/66
f 68/68/68 73/73/73 72/72/72
f 74/74/74 65/65/65 66/66/66
f 69/69/69 65/65/65 74/74/74
f 66/66/66 72/72/72 74/74/74
f 63/63/63 69/69/69 75/75/75
f 70/70/70 63/63/63 75/75/75
f 75/75/75 69/69/69 74/74/74
f 71/71/71 70/70/70 76/76/76
f 70/70/70 75/75/75 76/76/76
f 77/77/77 71/71/71 76/76/76
f 77/77/77 76/76/76 78/78/78
f 73/73/73 79/79/79 72/72/72
f 72/72/72 79/79/79 74/74/74
f 73/73/73 78/78/78 79/79/79
f 75/75/75 74/74/74 80/80/80
f 75/75/75 80/80/80 76/76/76
f 74/74/74 79/79/79 80/80/80
f 78/78/78 80/80/80 79/79/79
f 76/76/76 80/80/80 78/78/78
