g Pai009
v -0.0681659281 -0.952029765 0.618446887
v -0.0713551342 -0.955790281 0.622360349
v -0.065475747 -0.962469816 0.622337103
v -0.0713196322 -0.947833717 0.622386813
v -0.0625577495 -0.958401144 0.618424654
v -0.0593406893 -0.962497294 0.622335911
v -0.0681320131 -0.944440305 0.618472099
v -0.0706626549 -0.800701678 0.622875988
v -0.0617638677 -0.952058315 0.618445635
v -0.0567058884 -0.958427191 0.618423581
v 0.0515071377 -0.958910346 0.618402421
v 0.0541070625 -0.963003814 0.622313797
v 0.0566217303 -0.952586889 0.618422508
v 0.0573590398 -0.958936512 0.618401289
v 0.0602420568 -0.963031232 0.622312605
v 0.066180855 -0.956404388 0.622333527
v 0.0630238354 -0.952615499 0.618421316
v 0.0662163943 -0.948447704 0.622360051
v -0.0617299676 -0.944468796 0.618470848
v 0.0566556305 -0.94499737 0.618447781
v 0.0630577058 -0.94502598 0.618446529
v -0.0675053746 -0.804097354 0.618938684
v 0.063684389 -0.80468297 0.618913114
v 0.0668733642 -0.801315665 0.622849166
v -0.0611032844 -0.804125905 0.618937492
v -0.067471467 -0.796507835 0.618963957
v -0.0706270859 -0.792745054 0.622902453
v -0.0646883026 -0.786118209 0.622923434
v 0.0572822802 -0.804654419 0.618914366
v 0.0637182519 -0.797093511 0.618938327
v 0.0669088587 -0.793359101 0.622875631
v 0.061029505 -0.786679506 0.622898936
v -0.0618066639 -0.790186822 0.618983924
v -0.0585532896 -0.786145687 0.622922242
v -0.0610694401 -0.796536446 0.618962705
v 0.0573161915 -0.79706496 0.618939638
v 0.0581101105 -0.790722251 0.618960559
v 0.0548944809 -0.786652148 0.622900128
v -0.0559547655 -0.790212929 0.618982792
v 0.0522581935 -0.790696084 0.618961692
v -0.0674700812 -0.796533942 0.626814723
v -0.0706270859 -0.792745054 0.622902453
v -0.0646883026 -0.786118209 0.622923434
v -0.0706626549 -0.800701678 0.622875988
v -0.061805252 -0.790212929 0.62683475
v -0.0585532896 -0.786145687 0.622922242
v -0.0675039589 -0.804123461 0.62678951
v -0.0713196322 -0.947833717 0.622386813
v -0.0610680245 -0.796562552 0.626813471
v -0.0559533499 -0.790239036 0.626833618
v 0.0522596091 -0.790722191 0.626812458
v 0.0548944809 -0.786652148 0.622900128
v 0.0573176071 -0.797091067 0.626790404
v 0.0581115298 -0.790748358 0.626811385
v 0.061029505 -0.786679506 0.622898936
v 0.0637196824 -0.797119677 0.626789153
v 0.0669088587 -0.793359101 0.622875631
v 0.0668733642 -0.801315665 0.622849166
v -0.0611019023 -0.804151952 0.626788259
v 0.0572836958 -0.804680526 0.626765132
v 0.0636858046 -0.804709136 0.62676388
v -0.0681305975 -0.944466352 0.626322865
v 0.0630591139 -0.945052087 0.626297355
v 0.0662163943 -0.948447704 0.622360051
v -0.0617285557 -0.944494963 0.626321673
v -0.0681645125 -0.952055871 0.626297653
v -0.0713551342 -0.955790281 0.622360349
v -0.065475747 -0.962469816 0.622337103
v 0.0566570424 -0.945023477 0.626298547
v 0.063025251 -0.952641606 0.626272082
v 0.066180855 -0.956404388 0.622333527
v -0.0625563338 -0.95842725 0.62627548
v -0.0593406893 -0.962497294 0.622335911
v -0.0617624559 -0.952084482 0.626296401
v 0.0566231422 -0.952612996 0.626273334
v 0.0573604554 -0.958962619 0.626252055
v 0.0602420568 -0.963031232 0.622312605
v 0.0541070625 -0.963003814 0.622313797
v -0.0567044728 -0.958453298 0.626274347
v 0.0515085533 -0.958936512 0.626253247
vt 0.0215483867 0.97464335
vt 0.0116298115 0.983688831
vt 0.0175696723 0.990104437
vt 0.00892664026 0.97552371
vt 0.0246372037 0.977273822
vt 0.0238286741 0.992519021
vt 0.0211796388 0.97105813
vt 0.00945853349 0.883443773
vt 0.0243537165 0.974552155
vt 0.0272625871 0.977492452
vt 0.0858898684 0.977450132
vt 0.0891530737 0.992469549
vt 0.0888313651 0.974504232
vt 0.0885166302 0.977228403
vt 0.0954443142 0.990040302
vt 0.101455428 0.983609915
vt 0.0916347951 0.974590421
vt 0.104248933 0.975443244
vt 0.0243343972 0.970991373
vt 0.0888911933 0.970941782
vt 0.0920456275 0.97100246
vt 0.0216618329 0.887884557
vt 0.0925277993 0.887828231
vt 0.104780771 0.88336271
vt 0.0248162188 0.887945175
vt 0.0220726877 0.884297073
vt 0.0122520356 0.875277519
vt 0.0182631537 0.86884737
vt 0.089373067 0.887894869
vt 0.0921590254 0.884242654
vt 0.10207767 0.875197113
vt 0.096137844 0.868781269
vt 0.025190901 0.88165921
vt 0.0245542638 0.866418064
vt 0.0248760916 0.884383202
vt 0.0893537924 0.884333909
vt 0.0890703052 0.881611824
vt 0.0898786411 0.866366565
vt 0.0278176405 0.88143754
vt 0.0864449739 0.881393313
vt 0.0186255015 0.777992368
vt 0.0133213466 0.768832803
vt 0.0095765423 0.774385393
vt 0.0181026272 0.766256213
vt 0.0170786157 0.780883729
vt 0.00816086866 0.780210674
vt 0.020719409 0.777624607
vt 0.0719838887 0.766277552
vt 0.0186712109 0.780604303
vt 0.0169467628 0.783327878
vt 0.016870033 0.837903142
vt 0.00807294808 0.840988219
vt 0.0185875557 0.840619922
vt 0.0169965886 0.840352118
vt 0.00947487541 0.846826792
vt 0.0185359605 0.843232393
vt 0.0132308668 0.852406502
vt 0.0180117302 0.854972959
vt 0.0207515657 0.780565202
vt 0.0206695125 0.840654194
vt 0.0206315145 0.843592942
vt 0.0693640485 0.777657568
vt 0.0692759082 0.843625844
vt 0.0718927905 0.854994059
vt 0.0693260059 0.780596256
vt 0.0714598075 0.778018117
vt 0.0767648295 0.768843949
vt 0.0805208907 0.774423778
vt 0.0692437068 0.840685248
vt 0.0713696256 0.843257904
vt 0.0766738281 0.85241729
vt 0.072999157 0.780898333
vt 0.081922695 0.780262291
vt 0.07140816 0.78063035
vt 0.0713238418 0.840645909
vt 0.0729163885 0.840366364
vt 0.0804184303 0.8468647
vt 0.0818339884 0.841039538
vt 0.0731256604 0.783347309
vt 0.0730481148 0.837922275
vn -0.418207735 -0.126943395 -0.899437487
vn -0.883951604 -0.467576236 -0.00138981722
vn -0.5305866 -0.847626388 -0.00272214343
vn -0.999989986 0.00446452294 0.000193624423
vn -0.191718623 -0.369696647 -0.909157991
vn -0.00446525449 -0.999984503 -0.00332204602
vn -0.447669595 0.00497179572 -0.894185305
vn -0.999989986 0.00446484098 0.000193852378
vn -0.000179965064 0.00332559808 -0.999994516
vn -0.00163855671 -0.325634152 -0.945494413
vn -0.00163859606 -0.325635314 -0.945493996
vn -0.00446538441 -0.999984503 -0.00332323951
vn -0.000179761133 0.00332543347 -0.999994516
vn 0.188060254 -0.37138617 -0.909233451
vn 0.522990644 -0.852333486 -0.00291885016
vn 0.879739642 -0.475452542 -0.0017338373
vn 0.416708976 -0.130668998 -0.899599493
vn 0.999989986 -0.00446448056 -0.000197624657
vn -0.000180169256 0.00332547259 -0.999994516
vn -0.000180499832 0.00332547282 -0.999994516
vn 0.447347254 0.000975959818 -0.894359827
vn -0.447668821 0.00497183157 -0.894185662
vn 0.447348505 0.000975971809 -0.894359171
vn 0.999989986 -0.00446434924 -0.000199540926
vn -0.000180190022 0.00332547468 -0.999994516
vn -0.417029887 0.136651278 -0.898561418
vn -0.879738808 0.475454122 0.00173961557
vn -0.522995234 0.852330625 0.00292653195
vn -0.000180499919 0.00332547422 -0.999994516
vn 0.417880625 0.132926509 -0.898724794
vn 0.883947432 0.467584163 0.00139931275
vn 0.530576348 0.847632766 0.00273013115
vn -0.188386559 0.377427191 -0.906674802
vn 0.00446567358 0.999984503 0.00332899997
vn -0.000180236617 0.00332545233 -0.999994516
vn -0.000180455434 0.00332542439 -0.999994516
vn 0.19138886 0.37573263 -0.906749904
vn 0.00446550502 0.999984503 0.00332973595
vn 0.00129811408 0.331920773 -0.943306446
vn 0.00129786599 0.3319197 -0.943306744
vn -0.416705549 0.130671784 0.899600685
vn -0.879738808 0.475454122 0.00173961557
vn -0.522995234 0.852330625 0.00292653195
vn -0.999989986 0.00446484098 0.000193852378
vn -0.188060209 0.371386826 0.909233391
vn 0.00446567358 0.999984503 0.00332899997
vn -0.447345704 -0.000975972333 0.894360602
vn -0.999989986 0.00446452294 0.000193624423
vn 0.000180165822 -0.00332546653 0.999994516
vn 0.00163829618 0.325637072 0.94549346
vn 0.00163839618 0.325636208 0.945493758
vn 0.00446550502 0.999984503 0.00332973595
vn 0.000180342438 -0.00332563068 0.999994516
vn 0.191719145 0.369691104 0.909160137
vn 0.530576348 0.847632766 0.00273013115
vn 0.418204665 0.126944885 0.89943862
vn 0.883947432 0.467584163 0.00139931275
vn 0.999989986 -0.00446434924 -0.000199540926
vn 0.000180190022 -0.00332547375 0.999994516
vn 0.000180189934 -0.00332547398 0.999994516
vn 0.447672158 -0.00497181714 0.894183934
vn -0.447345853 -0.000975998933 0.894360542
vn 0.447671473 -0.00497182133 0.894184232
vn 0.999989986 -0.00446448056 -0.000197624657
vn 0.000180169154 -0.00332547049 0.999994516
vn -0.417886436 -0.132923886 0.898722529
vn -0.883951604 -0.467576236 -0.00138981722
vn -0.5305866 -0.847626388 -0.00272214343
vn 0.000180169081 -0.00332547026 0.999994516
vn 0.417026669 -0.136649117 0.898563206
vn 0.879739642 -0.475452542 -0.0017338373
vn -0.191394433 -0.375736356 0.906747162
vn -0.00446525449 -0.999984503 -0.00332204602
vn 0.000180389179 -0.00332538341 0.999994516
vn 0.000180266754 -0.00332541228 0.999994516
vn 0.188388288 -0.377422243 0.906676471
vn 0.522990644 -0.852333486 -0.00291885016
vn -0.00446538441 -0.999984503 -0.00332323951
vn -0.00129802083 -0.331919193 0.943306983
vn -0.0012980015 -0.331921995 0.943305969
g Pai009_0
f 3/3/3 2/2/2 1/1/1
f 2/2/2 4/4/4 1/1/1
f 5/5/5 3/3/3 1/1/1
f 3/3/3 5/5/5 6/6/6
f 4/4/4 7/7/7 1/1/1
f 4/4/4 8/8/8 7/7/7
f 1/1/1 9/9/9 5/5/5
f 1/1/1 7/7/7 9/9/9
f 5/5/5 10/10/10 6/6/6
f 9/9/9 10/10/10 5/5/5
f 6/6/6 10/10/10 11/11/11
f 12/12/12 6/6/6 11/11/11
f 9/9/9 13/13/13 10/10/10
f 13/13/13 11/11/11 10/10/10
f 12/12/12 11/11/11 14/14/14
f 14/14/14 11/11/11 13/13/13
f 15/15/15 12/12/12 14/14/14
f 16/16/16 15/15/15 14/14/14
f 17/17/17 16/16/16 14/14/14
f 17/17/17 14/14/14 13/13/13
f 16/16/16 17/17/17 18/18/18
f 7/7/7 19/19/19 9/9/9
f 9/9/9 19/19/19 13/13/13
f 13/13/13 20/20/20 17/17/17
f 19/19/19 20/20/20 13/13/13
f 17/17/17 21/21/21 18/18/18
f 20/20/20 21/21/21 17/17/17
f 19/19/19 7/7/7 22/22/22
f 8/8/8 22/22/22 7/7/7
f 18/18/18 21/21/21 23/23/23
f 24/24/24 18/18/18 23/23/23
f 19/19/19 25/25/25 20/20/20
f 25/25/25 19/19/19 22/22/22
f 26/26/26 22/22/22 8/8/8
f 25/25/25 22/22/22 26/26/26
f 27/27/27 26/26/26 8/8/8
f 27/27/27 28/28/28 26/26/26
f 20/20/20 29/29/29 21/21/21
f 25/25/25 29/29/29 20/20/20
f 29/29/29 23/23/23 21/21/21
f 24/24/24 23/23/23 30/30/30
f 31/31/31 24/24/24 30/30/30
f 32/32/32 31/31/31 30/30/30
f 28/28/28 33/33/33 26/26/26
f 28/28/28 34/34/34 33/33/33
f 35/35/35 25/25/25 26/26/26
f 29/29/29 25/25/25 35/35/35
f 26/26/26 33/33/33 35/35/35
f 23/23/23 29/29/29 36/36/36
f 30/30/30 23/23/23 36/36/36
f 36/36/36 29/29/29 35/35/35
f 37/37/37 32/32/32 30/30/30
f 30/30/30 36/36/36 37/37/37
f 32/32/32 37/37/37 38/38/38
f 34/34/34 39/39/39 33/33/33
f 33/33/33 39/39/39 35/35/35
f 34/34/34 38/38/38 39/39/39
f 36/36/36 35/35/35 40/40/40
f 36/36/36 40/40/40 37/37/37
f 35/35/35 39/39/39 40/40/40
f 38/38/38 40/40/40 39/39/39
f 37/37/37 40/40/40 38/38/38
f 43/43/43 42/42/42 41/41/41
f 42/42/42 44/44/44 41/41/41
f 45/45/45 43/43/43 41/41/41
f 43/43/43 45/45/45 46/46/46
f 44/44/44 47/47/47 41/41/41
f 44/44/44 48/48/48 47/47/47
f 41/41/41 49/49/49 45/45/45
f 41/41/41 47/47/47 49/49/49
f 45/45/45 50/50/50 46/46/46
f 49/49/49 50/50/50 45/45/45
f 46/46/46 50/50/50 51/51/51
f 52/52/52 46/46/46 51/51/51
f 50/50/50 49/49/49 53/53/53
f 51/51/51 50/50/50 53/53/53
f 52/52/52 51/51/51 54/54/54
f 54/54/54 51/51/51 53/53/53
f 55/55/55 52/52/52 54/54/54
f 55/55/55 54/54/54 56/56/56
f 56/56/56 54/54/54 53/53/53
f 57/57/57 55/55/55 56/56/56
f 57/57/57 56/56/56 58/58/58
f 47/47/47 59/59/59 49/49/49
f 49/49/49 59/59/59 53/53/53
f 53/53/53 60/60/60 56/56/56
f 59/59/59 60/60/60 53/53/53
f 56/56/56 61/61/61 58/58/58
f 60/60/60 61/61/61 56/56/56
f 59/59/59 47/47/47 62/62/62
f 48/48/48 62/62/62 47/47/47
f 58/58/58 61/61/61 63/63/63
f 64/64/64 58/58/58 63/63/63
f 59/59/59 65/65/65 60/60/60
f 65/65/65 59/59/59 62/62/62
f 66/66/66 62/62/62 48/48/48
f 65/65/65 62/62/62 66/66/66
f 67/67/67 66/66/66 48/48/48
f 67/67/67 68/68/68 66/66/66
f 60/60/60 69/69/69 61/61/61
f 65/65/65 69/69/69 60/60/60
f 69/69/69 63/63/63 61/61/61
f 64/64/64 63/63/63 70/70/70
f 71/71/71 64/64/64 70/70/70
f 68/68/68 72/72/72 66/66/66
f 68/68/68 73/73/73 72/72/72
f 74/74/74 65/65/65 66/66/66
f 69/69/69 65/65/65 74/74/74
f 66/66/66 72/72/72 74/74/74
f 63/63/63 69/69/69 75/75/75
f 70/70/70 63/63/63 75/75/75
f 75/75/75 69/69/69 74/74/74
f 71/71/71 70/70/70 76/76/76
f 70/70/70 75/75/75 76/76/76
f 77/77/77 71/71/71 76/76/76
f 77/77/77 76/76/76 78/78/78
f 73/73/73 79/79/79 72/72/72
f 72/72/72 79/79/79 74/74/74
f 73/73/73 78/78/78 79/79/79
f 75/75/75 74/74/74 80/80/80
f 75/75/75 80/80/80 76/76/76
f 74/74/74 79/79/79 80/80/80
f 78/78/78 80/80/80 79/79/79
f 76/76/76 80/80/80 78/78/78
