g DiZhu_Pai16
v -0.465391576 -1.09980166 0.647349179
v -0.468659997 -1.09775186 0.652323544
v -0.475472331 -1.10340834 0.651440024
v -0.460743099 -1.09780371 0.65152967
v -0.471889645 -1.10519707 0.646506488
v -0.475672185 -1.10932612 0.64983356
v -0.457840025 -1.09985101 0.646591961
v -0.314346343 -1.09876156 0.636849225
v -0.465600044 -1.10597694 0.645672798
v -0.472080141 -1.11084163 0.644974113
v -0.475604594 -1.21522081 0.616638362
v -0.479367107 -1.21875453 0.620127082
v -0.469455749 -1.22016823 0.614673316
v -0.47579515 -1.22086537 0.615106046
v -0.479566902 -1.22467208 0.618520617
v -0.473139435 -1.23041511 0.616309524
v -0.469664246 -1.22634351 0.612996876
v -0.465222508 -1.23046696 0.61551559
v -0.458048463 -1.10602629 0.644915521
v -0.461904168 -1.22021759 0.613916039
v -0.462112695 -1.22639287 0.612239659
v -0.318198353 -1.10076475 0.632588863
v -0.322471052 -1.2273066 0.598236561
v -0.318825722 -1.23142481 0.600835145
v -0.31840682 -1.10694003 0.630912483
v -0.310646802 -1.10081422 0.631831586
v -0.306429505 -1.09881341 0.63605535
v -0.300002009 -1.10455644 0.633844197
v -0.322262526 -1.22113121 0.599913001
v -0.314919472 -1.22735596 0.597479343
v -0.310908914 -1.23147655 0.60004127
v -0.30409649 -1.22582018 0.60092473
v -0.304515898 -1.10629225 0.629722476
v -0.300201833 -1.11047411 0.632237673
v -0.310855329 -1.10698938 0.630155206
v -0.314711004 -1.22118068 0.599155724
v -0.308421493 -1.22196054 0.598322034
v -0.303896695 -1.21990252 0.602531195
v -0.304706484 -1.11193681 0.62819016
v -0.308230877 -1.21631587 0.59985435
v -0.309904635 -1.10288501 0.639367878
v -0.306429505 -1.09881341 0.63605535
v -0.300002009 -1.10455644 0.633844197
v -0.314346343 -1.09876156 0.636849225
v -0.303773701 -1.10836315 0.637258768
v -0.300201833 -1.11047411 0.632237673
v -0.317456156 -1.10283566 0.640125155
v -0.460743099 -1.09780371 0.65152967
v -0.310113132 -1.10906029 0.637691498
v -0.303964287 -1.11400783 0.635726392
v -0.30748868 -1.21838677 0.607390642
v -0.303896695 -1.21990252 0.602531195
v -0.313968807 -1.22325158 0.606692016
v -0.307679296 -1.22403145 0.605858326
v -0.30409649 -1.22582018 0.60092473
v -0.314177334 -1.22942698 0.605015635
v -0.310908914 -1.23147655 0.60004127
v -0.318825722 -1.23142481 0.600835145
v -0.317664683 -1.10901093 0.638448775
v -0.321520329 -1.22320223 0.607449293
v -0.321728855 -1.22937751 0.605772853
v -0.457097858 -1.10192204 0.654128194
v -0.461370498 -1.22846377 0.619775951
v -0.465222508 -1.23046696 0.61551559
v -0.457306325 -1.10809731 0.652451873
v -0.464649379 -1.10187256 0.654885471
v -0.468659997 -1.09775186 0.652323544
v -0.475472331 -1.10340834 0.651440024
v -0.461161971 -1.22228861 0.621452332
v -0.468922079 -1.22841442 0.620533228
v -0.473139435 -1.23041511 0.616309524
v -0.471147448 -1.1072681 0.654042721
v -0.475672185 -1.10932612 0.64983356
v -0.464857846 -1.10804784 0.65320909
v -0.468713552 -1.22223914 0.622209609
v -0.475052983 -1.22293639 0.622642338
v -0.479566902 -1.22467208 0.618520617
v -0.479367107 -1.21875453 0.620127082
v -0.471337944 -1.11291265 0.652510464
v -0.474862397 -1.21729171 0.624174654
vt 0.0215483867 0.97464335
vt 0.0116298115 0.983688831
vt 0.0175696723 0.990104437
vt 0.00892664026 0.97552371
vt 0.0246372037 0.977273822
vt 0.0238286741 0.992519021
vt 0.0211796388 0.97105813
vt 0.00945853349 0.883443773
vt 0.0243537165 0.974552155
vt 0.0272625871 0.977492452
vt 0.0858898684 0.977450132
vt 0.0891530737 0.992469549
vt 0.0888313651 0.974504232
vt 0.0885166302 0.977228403
vt 0.0954443142 0.990040302
vt 0.101455428 0.983609915
vt 0.0916347951 0.974590421
vt 0.104248933 0.975443244
vt 0.0243343972 0.970991373
vt 0.0888911933 0.970941782
vt 0.0920456275 0.97100246
vt 0.0216618329 0.887884557
vt 0.0925277993 0.887828231
vt 0.104780771 0.88336271
vt 0.0248162188 0.887945175
vt 0.0220726877 0.884297073
vt 0.0122520356 0.875277519
vt 0.0182631537 0.86884737
vt 0.089373067 0.887894869
vt 0.0921590254 0.884242654
vt 0.10207767 0.875197113
vt 0.096137844 0.868781269
vt 0.025190901 0.88165921
vt 0.0245542638 0.866418064
vt 0.0248760916 0.884383202
vt 0.0893537924 0.884333909
vt 0.0890703052 0.881611824
vt 0.0898786411 0.866366565
vt 0.0278176405 0.88143754
vt 0.0864449739 0.881393313
vt 0.0186255015 0.777992368
vt 0.0133213466 0.768832803
vt 0.0095765423 0.774385393
vt 0.0181026272 0.766256213
vt 0.0170786157 0.780883729
vt 0.00816086866 0.780210674
vt 0.020719409 0.777624607
vt 0.0719838887 0.766277552
vt 0.0186712109 0.780604303
vt 0.0169467628 0.783327878
vt 0.016870033 0.837903142
vt 0.00807294808 0.840988219
vt 0.0185875557 0.840619922
vt 0.0169965886 0.840352118
vt 0.00947487541 0.846826792
vt 0.0185359605 0.843232393
vt 0.0132308668 0.852406502
vt 0.0180117302 0.854972959
vt 0.0207515657 0.780565202
vt 0.0206695125 0.840654194
vt 0.0206315145 0.843592942
vt 0.0693640485 0.777657568
vt 0.0692759082 0.843625844
vt 0.0718927905 0.854994059
vt 0.0693260059 0.780596256
vt 0.0714598075 0.778018117
vt 0.0767648295 0.768843949
vt 0.0805208907 0.774423778
vt 0.0692437068 0.840685248
vt 0.0713696256 0.843257904
vt 0.0766738281 0.85241729
vt 0.072999157 0.780898333
vt 0.081922695 0.780262291
vt 0.07140816 0.78063035
vt 0.0713238418 0.840645909
vt 0.0729163885 0.840366364
vt 0.0804184303 0.8468647
vt 0.0818339884 0.841039538
vt 0.0731256604 0.783347309
vt 0.0730481148 0.837922275
vn -0.202535033 0.640685678 -0.740608811
vn -0.440441281 0.853668034 0.277960926
vn -0.828576267 0.513656974 0.222750783
vn 0.0325692408 0.964560688 0.261843473
vn -0.451346159 0.425096214 -0.784588993
vn -0.994988382 0.00651256461 0.0997780189
vn -0.0699652508 0.667549253 -0.741271079
vn 0.0325695574 0.964560151 0.26184538
vn -0.0945357978 0.263785601 -0.959937513
vn -0.416411459 0.251261741 -0.873767197
vn -0.416413456 0.251261622 -0.873766303
vn -0.994988084 0.0065118554 0.0997814387
vn -0.0945359394 0.263786077 -0.959937394
vn -0.463715076 0.0587748475 -0.884032667
vn -0.86289376 -0.502584457 -0.053134162
vn -0.497884214 -0.847527862 -0.183869123
vn -0.229730487 -0.164638102 -0.95922786
vn -0.0325683057 -0.964560926 -0.26184234
vn -0.0945349485 0.263786077 -0.959937513
vn -0.0945349783 0.263786137 -0.959937513
vn -0.0991157591 -0.195753828 -0.975631356
vn -0.069965519 0.667548656 -0.741271675
vn -0.0991156474 -0.195754364 -0.975631237
vn -0.0325681716 -0.964560628 -0.261843711
vn -0.0945352316 0.263785988 -0.959937513
vn 0.0597404838 0.638976038 -0.766903341
vn 0.497880638 0.847530544 0.183866322
vn 0.862889051 0.502593279 0.0531251132
vn -0.0945352539 0.263786137 -0.959937513
vn 0.0325483605 -0.166354075 -0.985528767
vn 0.44044286 -0.853666425 -0.2779634
vn 0.828577876 -0.513652384 -0.222755238
vn 0.292047292 0.4202407 -0.859131038
vn 0.99498862 -0.00650985818 -0.0997760743
vn -0.0945368931 0.263786137 -0.959937334
vn -0.0945373923 0.263785899 -0.959937334
vn 0.279671848 0.0539140888 -0.958580732
vn 0.994988382 -0.00650948845 -0.0997779518
vn 0.237862766 0.246979952 -0.939373255
vn 0.237863183 0.246979922 -0.939373136
vn 0.229731828 0.164641902 0.959227026
vn 0.497880638 0.847530544 0.183866322
vn 0.862889051 0.502593279 0.0531251132
vn 0.0325695574 0.964560151 0.26184538
vn 0.463716358 -0.0587761402 0.884031892
vn 0.99498862 -0.00650985818 -0.0997760743
vn 0.0991151482 0.195754901 0.975631237
vn 0.0325692408 0.964560688 0.261843473
vn 0.0945408791 -0.263786256 0.959936857
vn 0.416414946 -0.251260847 0.873765707
vn 0.416415215 -0.251260936 0.873765647
vn 0.994988382 -0.00650948845 -0.0997779518
vn 0.0945403948 -0.263786197 0.959936976
vn 0.451343447 -0.425102085 0.784587264
vn 0.828577876 -0.513652384 -0.222755238
vn 0.202542022 -0.640690923 0.740602255
vn 0.44044286 -0.853666425 -0.2779634
vn -0.0325681716 -0.964560628 -0.261843711
vn 0.09453509 -0.26378575 0.959937513
vn 0.0945351273 -0.263785928 0.959937513
vn 0.0699653178 -0.667546153 0.74127388
vn 0.0991148576 0.195754811 0.975631237
vn 0.0699652061 -0.667545974 0.741274059
vn -0.0325683057 -0.964560926 -0.26184234
vn 0.0945349783 -0.263785839 0.959937513
vn -0.0325524956 0.166352779 0.985528767
vn -0.440441281 0.853668034 0.277960926
vn -0.828576267 0.513656974 0.222750783
vn 0.0945350304 -0.263785928 0.959937513
vn -0.0597345494 -0.638970077 0.766908705
vn -0.497884214 -0.847527862 -0.183869123
vn -0.279685646 -0.053914465 0.95857656
vn -0.994988382 0.00651256461 0.0997780189
vn 0.094536677 -0.263787717 0.959936857
vn 0.0945369825 -0.263787657 0.959936857
vn -0.292044431 -0.420235008 0.859134853
vn -0.86289376 -0.502584457 -0.053134162
vn -0.994988084 0.0065118554 0.0997814387
vn -0.237853199 -0.246980011 0.939375699
vn -0.237854972 -0.246979728 0.939375401
g DiZhu_Pai16_0
f 3/3/3 2/2/2 1/1/1
f 2/2/2 4/4/4 1/1/1
f 5/5/5 3/3/3 1/1/1
f 3/3/3 5/5/5 6/6/6
f 4/4/4 7/7/7 1/1/1
f 4/4/4 8/8/8 7/7/7
f 1/1/1 9/9/9 5/5/5
f 1/1/1 7/7/7 9/9/9
f 5/5/5 10/10/10 6/6/6
f 9/9/9 10/10/10 5/5/5
f 6/6/6 10/10/10 11/11/11
f 12/12/12 6/6/6 11/11/11
f 9/9/9 13/13/13 10/10/10
f 13/13/13 11/11/11 10/10/10
f 12/12/12 11/11/11 14/14/14
f 14/14/14 11/11/11 13/13/13
f 15/15/15 12/12/12 14/14/14
f 16/16/16 15/15/15 14/14/14
f 17/17/17 16/16/16 14/14/14
f 17/17/17 14/14/14 13/13/13
f 16/16/16 17/17/17 18/18/18
f 7/7/7 19/19/19 9/9/9
f 9/9/9 19/19/19 13/13/13
f 13/13/13 20/20/20 17/17/17
f 19/19/19 20/20/20 13/13/13
f 17/17/17 21/21/21 18/18/18
f 20/20/20 21/21/21 17/17/17
f 19/19/19 7/7/7 22/22/22
f 8/8/8 22/22/22 7/7/7
f 18/18/18 21/21/21 23/23/23
f 24/24/24 18/18/18 23/23/23
f 19/19/19 25/25/25 20/20/20
f 25/25/25 19/19/19 22/22/22
f 26/26/26 22/22/22 8/8/8
f 25/25/25 22/22/22 26/26/26
f 27/27/27 26/26/26 8/8/8
f 27/27/27 28/28/28 26/26/26
f 20/20/20 29/29/29 21/21/21
f 25/25/25 29/29/29 20/20/20
f 29/29/29 23/23/23 21/21/21
f 24/24/24 23/23/23 30/30/30
f 31/31/31 24/24/24 30/30/30
f 32/32/32 31/31/31 30/30/30
f 28/28/28 33/33/33 26/26/26
f 28/28/28 34/34/34 33/33/33
f 35/35/35 25/25/25 26/26/26
f 29/29/29 25/25/25 35/35/35
f 26/26/26 33/33/33 35/35/35
f 23/23/23 29/29/29 36/36/36
f 30/30/30 23/23/23 36/36/36
f 36/36/36 29/29/29 35/35/35
f 37/37/37 32/32/32 30/30/30
f 30/30/30 36/36/36 37/37/37
f 32/32/32 37/37/37 38/38/38
f 34/34/34 39/39/39 33/33/33
f 33/33/33 39/39/39 35/35/35
f 34/34/34 38/38/38 39/39/39
f 36/36/36 35/35/35 40/40/40
f 36/36/36 40/40/40 37/37/37
f 35/35/35 39/39/39 40/40/40
f 38/38/38 40/40/40 39/39/39
f 37/37/37 40/40/40 38/38/38
f 43/43/43 42/42/42 41/41/41
f 42/42/42 44/44/44 41/41/41
f 45/45/45 43/43/43 41/41/41
f 43/43/43 45/45/45 46/46/46
f 44/44/44 47/47/47 41/41/41
f 44/44/44 48/48/48 47/47/47
f 41/41/41 49/49/49 45/45/45
f 41/41/41 47/47/47 49/49/49
f 45/45/45 50/50/50 46/46/46
f 49/49/49 50/50/50 45/45/45
f 46/46/46 50/50/50 51/51/51
f 52/52/52 46/46/46 51/51/51
f 50/50/50 49/49/49 53/53/53
f 51/51/51 50/50/50 53/53/53
f 52/52/52 51/51/51 54/54/54
f 54/54/54 51/51/51 53/53/53
f 55/55/55 52/52/52 54/54/54
f 55/55/55 54/54/54 56/56/56
f 56/56/56 54/54/54 53/53/53
f 57/57/57 55/55/55 56/56/56
f 57/57/57 56/56/56 58/58/58
f 47/47/47 59/59/59 49/49/49
f 49/49/49 59/59/59 53/53/53
f 53/53/53 60/60/60 56/56/56
f 59/59/59 60/60/60 53/53/53
f 56/56/56 61/61/61 58/58/58
f 60/60/60 61/61/61 56/56/56
f 59/59/59 47/47/47 62/62/62
f 48/48/48 62/62/62 47/47/47
f 58/58/58 61/61/61 63/63/63
f 64/64/64 58/58/58 63/63/63
f 59/59/59 65/65/65 60/60/60
f 65/65/65 59/59/59 62/62/62
f 66/66/66 62/62/62 48/48/48
f 65/65/65 62/62/62 66/66/66
f 67/67/67 66/66/66 48/48/48
f 67/67/67 68/68/68 66/66/66
f 60/60/60 69/69/69 61/61/61
f 65/65/65 69/69/69 60/60/60
f 69/69/69 63/63/63 61/61/61
f 64/64/64 63/63/63 70/70/70
f 71/71/71 64/64/64 70/70/70
f 68/68/68 72/72/72 66/66/66
f 68/68/68 73/73/73 72/72/72
f 74/74/74 65/65/65 66/66/66
f 69/69/69 65/65/65 74/74/74
f 66/66/66 72/72/72 74/74/74
f 63/63/63 69/69/69 75/75/75
f 70/70/70 63/63/63 75/75/75
f 75/75/75 69/69/69 74/74/74
f 71/71/71 70/70/70 76/76/76
f 70/70/70 75/75/75 76/76/76
f 77/77/77 71/71/71 76/76/76
f 77/77/77 76/76/76 78/78/78
f 73/73/73 79/79/79 72/72/72
f 72/72/72 79/79/79 74/74/74
f 73/73/73 78/78/78 79/79/79
f 75/75/75 74/74/74 80/80/80
f 75/75/75 80/80/80 76/76/76
f 74/74/74 79/79/79 80/80/80
f 78/78/78 80/80/80 79/79/79
f 76/76/76 80/80/80 78/78/78
