g DiZhu_Pai05
v -0.451759934 -0.838133156 0.614723086
v -0.455035806 -0.833954513 0.618104875
v -0.461648077 -0.839464426 0.620363772
v -0.447133332 -0.834197462 0.617209256
v -0.458067149 -0.843388796 0.616877794
v -0.461652756 -0.845395863 0.621931612
v -0.444222122 -0.83836484 0.613868833
v -0.301003188 -0.83868897 0.600647926
v -0.451764733 -0.844322622 0.616359115
v -0.4580715 -0.849046469 0.618373215
v -0.458153248 -0.953667581 0.646026611
v -0.461738437 -0.955077946 0.650922656
v -0.45185408 -0.958778739 0.646611989
v -0.458157629 -0.959325254 0.647522032
v -0.461743027 -0.961009324 0.652490437
v -0.455139637 -0.966925383 0.653251648
v -0.451858938 -0.964968383 0.648248076
v -0.447237134 -0.967168331 0.652356029
v -0.44422695 -0.844554365 0.615504801
v -0.444316238 -0.959010422 0.645757735
v -0.444321126 -0.965200007 0.647393763
v -0.304834783 -0.842649043 0.598071635
v -0.304933786 -0.969484329 0.631596565
v -0.301106989 -0.97165978 0.63579464
v -0.304839611 -0.848838627 0.599707603
v -0.297297001 -0.842880785 0.597217381
v -0.293100744 -0.838931859 0.599752307
v -0.286497325 -0.844847858 0.600513458
v -0.304928958 -0.963294685 0.629960537
v -0.297395974 -0.969715953 0.630742311
v -0.293204576 -0.971902609 0.63489902
v -0.286592185 -0.966392815 0.632640123
v -0.29099825 -0.848523855 0.597943366
v -0.286501974 -0.850779235 0.602081239
v -0.297301829 -0.849070251 0.59885335
v -0.297391146 -0.963526368 0.629106283
v -0.29108879 -0.964460254 0.628587604
v -0.286587596 -0.960461378 0.631072283
v -0.291002661 -0.854181528 0.599438787
v -0.291084349 -0.95880264 0.627092183
v -0.296381444 -0.840888858 0.604755819
v -0.293100744 -0.838931859 0.599752307
v -0.286497325 -0.844847858 0.600513458
v -0.301003188 -0.83868897 0.600647926
v -0.290082663 -0.846531987 0.605481923
v -0.286501974 -0.850779235 0.602081239
v -0.303919226 -0.840657175 0.605610132
v -0.447133332 -0.834197462 0.617209256
v -0.296386242 -0.847078383 0.606391907
v -0.290087074 -0.8521896 0.606977344
v -0.290168762 -0.956810713 0.63463068
v -0.286587596 -0.960461378 0.631072283
v -0.296475589 -0.96153456 0.636644781
v -0.290173233 -0.962468386 0.636126101
v -0.286592185 -0.966392815 0.632640123
v -0.296480447 -0.967724144 0.638280809
v -0.293204576 -0.971902609 0.63489902
v -0.301106989 -0.97165978 0.63579464
v -0.303924024 -0.846846759 0.607246161
v -0.304013371 -0.961302876 0.637499094
v -0.304018199 -0.967492402 0.639135122
v -0.443306565 -0.836372972 0.62140733
v -0.443405509 -0.963208139 0.65493232
v -0.447237134 -0.967168331 0.652356029
v -0.443311334 -0.842562556 0.623043358
v -0.450844347 -0.836141288 0.622261584
v -0.455035806 -0.833954513 0.618104875
v -0.461648077 -0.839464426 0.620363772
v -0.443400681 -0.957018554 0.653296292
v -0.450943321 -0.962976515 0.655786574
v -0.455139637 -0.966925383 0.653251648
v -0.457151592 -0.841396928 0.624416351
v -0.461652756 -0.845395863 0.621931612
v -0.450849146 -0.842330813 0.623897612
v -0.450938493 -0.956786931 0.654150546
v -0.457242072 -0.957333446 0.655060589
v -0.461743027 -0.961009324 0.652490437
v -0.461738437 -0.955077946 0.650922656
v -0.457155943 -0.847054601 0.625911713
v -0.457237661 -0.951675773 0.653565109
vt 0.0215483867 0.97464335
vt 0.0116298115 0.983688831
vt 0.0175696723 0.990104437
vt 0.00892664026 0.97552371
vt 0.0246372037 0.977273822
vt 0.0238286741 0.992519021
vt 0.0211796388 0.97105813
vt 0.00945853349 0.883443773
vt 0.0243537165 0.974552155
vt 0.0272625871 0.977492452
vt 0.0858898684 0.977450132
vt 0.0891530737 0.992469549
vt 0.0888313651 0.974504232
vt 0.0885166302 0.977228403
vt 0.0954443142 0.990040302
vt 0.101455428 0.983609915
vt 0.0916347951 0.974590421
vt 0.104248933 0.975443244
vt 0.0243343972 0.970991373
vt 0.0888911933 0.970941782
vt 0.0920456275 0.97100246
vt 0.0216618329 0.887884557
vt 0.0925277993 0.887828231
vt 0.104780771 0.88336271
vt 0.0248162188 0.887945175
vt 0.0220726877 0.884297073
vt 0.0122520356 0.875277519
vt 0.0182631537 0.86884737
vt 0.089373067 0.887894869
vt 0.0921590254 0.884242654
vt 0.10207767 0.875197113
vt 0.096137844 0.868781269
vt 0.025190901 0.88165921
vt 0.0245542638 0.866418064
vt 0.0248760916 0.884383202
vt 0.0893537924 0.884333909
vt 0.0890703052 0.881611824
vt 0.0898786411 0.866366565
vt 0.0278176405 0.88143754
vt 0.0864449739 0.881393313
vt 0.0186255015 0.777992368
vt 0.0133213466 0.768832803
vt 0.0095765423 0.774385393
vt 0.0181026272 0.766256213
vt 0.0170786157 0.780883729
vt 0.00816086866 0.780210674
vt 0.020719409 0.777624607
vt 0.0719838887 0.766277552
vt 0.0186712109 0.780604303
vt 0.0169467628 0.783327878
vt 0.016870033 0.837903142
vt 0.00807294808 0.840988219
vt 0.0185875557 0.840619922
vt 0.0169965886 0.840352118
vt 0.00947487541 0.846826792
vt 0.0185359605 0.843232393
vt 0.0132308668 0.852406502
vt 0.0180117302 0.854972959
vt 0.0207515657 0.780565202
vt 0.0206695125 0.840654194
vt 0.0206315145 0.843592942
vt 0.0693640485 0.777657568
vt 0.0692759082 0.843625844
vt 0.0718927905 0.854994059
vt 0.0693260059 0.780596256
vt 0.0714598075 0.778018117
vt 0.0767648295 0.768843949
vt 0.0805208907 0.774423778
vt 0.0692437068 0.840685248
vt 0.0713696256 0.843257904
vt 0.0766738281 0.85241729
vt 0.072999157 0.780898333
vt 0.081922695 0.780262291
vt 0.07140816 0.78063035
vt 0.0713238418 0.840645909
vt 0.0729163885 0.840366364
vt 0.0804184303 0.8468647
vt 0.0818339884 0.841039538
vt 0.0731256604 0.783347309
vt 0.0730481148 0.837922275
vn -0.235440731 0.179511592 -0.955166578
vn -0.467646539 0.866964519 -0.172277078
vn -0.843797922 0.535245776 -0.0389494412
vn 0.000753970642 0.966796637 -0.255546182
vn -0.476762116 -0.0353727303 -0.878320396
vn -0.993176043 0.030527113 0.112558685
vn -0.103955992 0.205766261 -0.973063946
vn 0.000753905741 0.966796279 -0.255547166
vn -0.116627537 -0.253712863 -0.960222781
vn -0.436680883 -0.229572743 -0.869831145
vn -0.436683357 -0.22957243 -0.869829893
vn -0.993175685 0.0305275265 0.11256206
vn -0.116627797 -0.253712893 -0.960222781
vn -0.477051735 -0.402540833 -0.781269908
vn -0.844594598 -0.483353794 0.23028031
vn -0.468977571 -0.838178039 0.278419763
vn -0.236068696 -0.627684534 -0.741811156
vn -0.000753570988 -0.966795623 0.25554955
vn -0.116623163 -0.253714144 -0.960223019
vn -0.116623066 -0.253714055 -0.960223019
vn -0.104630284 -0.659543574 -0.744348645
vn -0.103955604 0.205766276 -0.973063946
vn -0.104630381 -0.659543037 -0.744349003
vn -0.000752911263 -0.966795921 0.255548626
vn -0.116622999 -0.253714323 -0.9602229
vn 0.0263624769 0.171463996 -0.984837651
vn 0.468971044 0.838180542 -0.278423131
vn 0.844588399 0.483359665 -0.230291128
vn -0.116622917 -0.253714204 -0.960223019
vn 0.0257346928 -0.635733187 -0.771479785
vn 0.467647403 -0.866964877 0.172272861
vn 0.843797624 -0.535246968 0.0389394462
vn 0.265272051 -0.0581787713 -0.962416708
vn 0.993175805 -0.0305270348 -0.112560749
vn -0.116621301 -0.253714442 -0.960223138
vn -0.1166206 -0.253714234 -0.960223198
vn 0.264986247 -0.425351888 -0.865365803
vn 0.993175566 -0.0305277016 -0.11256329
vn 0.21640107 -0.249644727 -0.943847477
vn 0.216400713 -0.249644637 -0.943847477
vn 0.2360688 0.627687097 0.741808951
vn 0.468971044 0.838180542 -0.278423131
vn 0.844588399 0.483359665 -0.230291128
vn 0.000753905741 0.966796279 -0.255547166
vn 0.477045536 0.402549148 0.781269372
vn 0.993175805 -0.0305270348 -0.112560749
vn 0.104631327 0.659548998 0.744343519
vn 0.000753970642 0.966796637 -0.255546182
vn 0.116621785 0.253714442 0.960223019
vn 0.436679214 0.229572073 0.869832158
vn 0.436678767 0.229571998 0.869832337
vn 0.993175566 -0.0305277016 -0.11256329
vn 0.116621412 0.253713965 0.960223198
vn 0.476767421 0.0353715941 0.878317535
vn 0.843797624 -0.535246968 0.0389394462
vn 0.235445052 -0.179513767 0.955165148
vn 0.467647403 -0.866964877 0.172272861
vn -0.000752911263 -0.966795921 0.255548626
vn 0.116623357 0.253713936 0.960223019
vn 0.116623335 0.253714204 0.9602229
vn 0.103956133 -0.205765292 0.973064065
vn 0.104630925 0.659549057 0.744343519
vn 0.10395582 -0.2057648 0.973064244
vn -0.000753570988 -0.966795623 0.25554955
vn 0.116623186 0.253713936 0.960223019
vn -0.025733931 0.635731041 0.771481514
vn -0.467646539 0.866964519 -0.172277078
vn -0.843797922 0.535245776 -0.0389494412
vn 0.116623178 0.253714234 0.9602229
vn -0.02635918 -0.171460703 0.984838247
vn -0.468977571 -0.838178039 0.278419763
vn -0.264990181 0.425351202 0.865365028
vn -0.993176043 0.030527113 0.112558685
vn 0.116622329 0.253714234 0.960223019
vn 0.116622046 0.253714681 0.960223019
vn -0.265270293 0.0581778698 0.962417305
vn -0.844594598 -0.483353794 0.23028031
vn -0.993175685 0.0305275265 0.11256206
vn -0.216396928 0.249646187 0.943848014
vn -0.216397971 0.249646112 0.943847835
g DiZhu_Pai05_0
f 3/3/3 2/2/2 1/1/1
f 2/2/2 4/4/4 1/1/1
f 5/5/5 3/3/3 1/1/1
f 3/3/3 5/5/5 6/6/6
f 4/4/4 7/7/7 1/1/1
f 4/4/4 8/8/8 7/7/7
f 1/1/1 9/9/9 5/5/5
f 1/1/1 7/7/7 9/9/9
f 5/5/5 10/10/10 6/6/6
f 9/9/9 10/10/10 5/5/5
f 6/6/6 10/10/10 11/11/11
f 12/12/12 6/6/6 11/11/11
f 9/9/9 13/13/13 10/10/10
f 13/13/13 11/11/11 10/10/10
f 12/12/12 11/11/11 14/14/14
f 14/14/14 11/11/11 13/13/13
f 15/15/15 12/12/12 14/14/14
f 16/16/16 15/15/15 14/14/14
f 17/17/17 16/16/16 14/14/14
f 17/17/17 14/14/14 13/13/13
f 16/16/16 17/17/17 18/18/18
f 7/7/7 19/19/19 9/9/9
f 9/9/9 19/19/19 13/13/13
f 13/13/13 20/20/20 17/17/17
f 19/19/19 20/20/20 13/13/13
f 17/17/17 21/21/21 18/18/18
f 20/20/20 21/21/21 17/17/17
f 19/19/19 7/7/7 22/22/22
f 8/8/8 22/22/22 7/7/7
f 18/18/18 21/21/21 23/23/23
f 24/24/24 18/18/18 23/23/23
f 19/19/19 25/25/25 20/20/20
f 25/25/25 19/19/19 22/22/22
f 26/26/26 22/22/22 8/8/8
f 25/25/25 22/22/22 26/26/26
f 27/27/27 26/26/26 8/8/8
f 27/27/27 28/28/28 26/26/26
f 20/20/20 29/29/29 21/21/21
f 25/25/25 29/29/29 20/20/20
f 29/29/29 23/23/23 21/21/21
f 24/24/24 23/23/23 30/30/30
f 31/31/31 24/24/24 30/30/30
f 32/32/32 31/31/31 30/30/30
f 28/28/28 33/33/33 26/26/26
f 28/28/28 34/34/34 33/33/33
f 35/35/35 25/25/25 26/26/26
f 29/29/29 25/25/25 35/35/35
f 26/26/26 33/33/33 35/35/35
f 23/23/23 29/29/29 36/36/36
f 30/30/30 23/23/23 36/36/36
f 36/36/36 29/29/29 35/35/35
f 37/37/37 32/32/32 30/30/30
f 30/30/30 36/36/36 37/37/37
f 32/32/32 37/37/37 38/38/38
f 34/34/34 39/39/39 33/33/33
f 33/33/33 39/39/39 35/35/35
f 34/34/34 38/38/38 39/39/39
f 36/36/36 35/35/35 40/40/40
f 36/36/36 40/40/40 37/37/37
f 35/35/35 39/39/39 40/40/40
f 38/38/38 40/40/40 39/39/39
f 37/37/37 40/40/40 38/38/38
f 43/43/43 42/42/42 41/41/41
f 42/42/42 44/44/44 41/41/41
f 45/45/45 43/43/43 41/41/41
f 43/43/43 45/45/45 46/46/46
f 44/44/44 47/47/47 41/41/41
f 44/44/44 48/48/48 47/47/47
f 41/41/41 49/49/49 45/45/45
f 41/41/41 47/47/47 49/49/49
f 45/45/45 50/50/50 46/46/46
f 49/49/49 50/50/50 45/45/45
f 46/46/46 50/50/50 51/51/51
f 52/52/52 46/46/46 51/51/51
f 50/50/50 49/49/49 53/53/53
f 51/51/51 50/50/50 53/53/53
f 52/52/52 51/51/51 54/54/54
f 54/54/54 51/51/51 53/53/53
f 55/55/55 52/52/52 54/54/54
f 55/55/55 54/54/54 56/56/56
f 56/56/56 54/54/54 53/53/53
f 57/57/57 55/55/55 56/56/56
f 57/57/57 56/56/56 58/58/58
f 47/47/47 59/59/59 49/49/49
f 49/49/49 59/59/59 53/53/53
f 53/53/53 60/60/60 56/56/56
f 59/59/59 60/60/60 53/53/53
f 56/56/56 61/61/61 58/58/58
f 60/60/60 61/61/61 56/56/56
f 59/59/59 47/47/47 62/62/62
f 48/48/48 62/62/62 47/47/47
f 58/58/58 61/61/61 63/63/63
f 64/64/64 58/58/58 63/63/63
f 59/59/59 65/65/65 60/60/60
f 65/65/65 59/59/59 62/62/62
f 66/66/66 62/62/62 48/48/48
f 65/65/65 62/62/62 66/66/66
f 67/67/67 66/66/66 48/48/48
f 67/67/67 68/68/68 66/66/66
f 60/60/60 69/69/69 61/61/61
f 65/65/65 69/69/69 60/60/60
f 69/69/69 63/63/63 61/61/61
f 64/64/64 63/63/63 70/70/70
f 71/71/71 64/64/64 70/70/70
f 68/68/68 72/72/72 66/66/66
f 68/68/68 73/73/73 72/72/72
f 74/74/74 65/65/65 66/66/66
f 69/69/69 65/65/65 74/74/74
f 66/66/66 72/72/72 74/74/74
f 63/63/63 69/69/69 75/75/75
f 70/70/70 63/63/63 75/75/75
f 75/75/75 69/69/69 74/74/74
f 71/71/71 70/70/70 76/76/76
f 70/70/70 75/75/75 76/76/76
f 77/77/77 71/71/71 76/76/76
f 77/77/77 76/76/76 78/78/78
f 73/73/73 79/79/79 72/72/72
f 72/72/72 79/79/79 74/74/74
f 73/73/73 78/78/78 79/79/79
f 75/75/75 74/74/74 80/80/80
f 75/75/75 80/80/80 76/76/76
f 74/74/74 79/79/79 80/80/80
f 78/78/78 80/80/80 79/79/79
f 76/76/76 80/80/80 78/78/78
