g Pai003
v -0.214606762 -0.567135155 0.781800985
v -0.214720488 -0.57321775 0.78317076
v -0.220265955 -0.572590113 0.789994121
v -0.213774681 -0.570014417 0.776031554
v -0.219896331 -0.566536486 0.788309455
v -0.225202262 -0.569157541 0.790880203
v -0.213704541 -0.564079702 0.774991155
v -0.196283922 -0.510780394 0.644013345
v -0.21975787 -0.563553214 0.782725632
v -0.224604845 -0.563262343 0.789154649
v -0.311674207 -0.502717018 0.804784477
v -0.316483617 -0.505683422 0.807266116
v -0.315012336 -0.49731636 0.799824953
v -0.316382736 -0.499442935 0.80562979
v -0.321419895 -0.50225091 0.808152318
v -0.325383574 -0.496266246 0.803036094
v -0.320163459 -0.493734419 0.80074954
v -0.324437678 -0.493062973 0.795896769
v -0.218855679 -0.560497701 0.775915802
v -0.31411007 -0.494260937 0.793015063
v -0.319261283 -0.490678966 0.793939829
v -0.197020888 -0.50757885 0.6490646
v -0.302577615 -0.434178114 0.668013275
v -0.306946963 -0.43382892 0.66387862
v -0.202172071 -0.503996849 0.649989307
v -0.196118653 -0.504523396 0.64225477
v -0.195338055 -0.507577121 0.63687408
v -0.19930169 -0.501592457 0.631757796
v -0.297426462 -0.437760085 0.667088628
v -0.301675379 -0.431122661 0.661203384
v -0.306001097 -0.430625647 0.656739354
v -0.30045563 -0.431253284 0.649916053
v -0.199899405 -0.498814881 0.63737464
v -0.204237998 -0.498159885 0.632643938
v -0.20126985 -0.500941455 0.643179536
v -0.296524227 -0.434704632 0.660278678
v -0.296385825 -0.431721359 0.654695034
v -0.295519352 -0.434685826 0.649029911
v -0.204607919 -0.495540708 0.638219833
v -0.291677266 -0.434995532 0.653849781
v -0.200558081 -0.510108948 0.639160514
v -0.195338055 -0.507577121 0.63687408
v -0.19930169 -0.501592457 0.631757796
v -0.196283922 -0.510780394 0.644013345
v -0.204338863 -0.504400432 0.634280324
v -0.204237998 -0.498159885 0.632643938
v -0.201460361 -0.513164401 0.645970345
v -0.213774681 -0.570014417 0.776031554
v -0.205709279 -0.506527007 0.64008522
v -0.209047392 -0.501126289 0.635125577
v -0.29611674 -0.440581053 0.650755465
v -0.295519352 -0.434685826 0.649029911
v -0.3009637 -0.440290123 0.657184422
v -0.300825268 -0.437306881 0.651600718
v -0.30045563 -0.431253284 0.649916053
v -0.306114852 -0.436708212 0.658109128
v -0.306001097 -0.430625647 0.656739354
v -0.306946963 -0.43382892 0.66387862
v -0.206611529 -0.50958246 0.646895051
v -0.301865906 -0.443345606 0.663994253
v -0.307017088 -0.439763665 0.664918959
v -0.218144 -0.569665194 0.77189678
v -0.323700756 -0.496264488 0.790845454
v -0.324437678 -0.493062973 0.795896769
v -0.223295152 -0.566083312 0.772821546
v -0.21904622 -0.572720647 0.778706729
v -0.214720488 -0.57321775 0.78317076
v -0.220265955 -0.572590113 0.789994121
v -0.318549544 -0.499846458 0.789920807
v -0.324602932 -0.499319941 0.797655225
v -0.325383574 -0.496266246 0.803036094
v -0.224335775 -0.572122037 0.785215139
v -0.225202262 -0.569157541 0.790880203
v -0.224197328 -0.569138765 0.779631317
v -0.319451809 -0.502901912 0.796730638
v -0.320822209 -0.505028427 0.802535474
v -0.321419895 -0.50225091 0.808152318
v -0.316483617 -0.505683422 0.807266116
v -0.229044318 -0.568847835 0.786060333
v -0.316113681 -0.508302629 0.801690221
vt 0.336480826 0.97464335
vt 0.326562196 0.983688831
vt 0.332502097 0.990104437
vt 0.323859066 0.97552371
vt 0.339569658 0.977273822
vt 0.338761061 0.992519021
vt 0.336112052 0.97105813
vt 0.324390978 0.883443773
vt 0.339286119 0.974552155
vt 0.342195004 0.977492452
vt 0.400822312 0.977450132
vt 0.404085547 0.992469549
vt 0.403763801 0.974504232
vt 0.403449029 0.977228403
vt 0.410376757 0.990040302
vt 0.416387886 0.983609915
vt 0.406567246 0.974590421
vt 0.419181317 0.975443244
vt 0.339266807 0.970991373
vt 0.403823644 0.970941782
vt 0.406978041 0.97100246
vt 0.336594313 0.887884557
vt 0.407460183 0.887828231
vt 0.419713169 0.88336271
vt 0.339748651 0.887945175
vt 0.337005109 0.884297073
vt 0.327184469 0.875277519
vt 0.333195537 0.86884737
vt 0.404305547 0.887894869
vt 0.407091469 0.884242654
vt 0.417010099 0.875197113
vt 0.411070257 0.868781269
vt 0.340123326 0.88165921
vt 0.339486688 0.866418064
vt 0.339808494 0.884383202
vt 0.404286176 0.884333909
vt 0.404002756 0.881611824
vt 0.404811054 0.866366565
vt 0.342750102 0.88143754
vt 0.40137741 0.881393313
vt 0.180752262 0.777992368
vt 0.175448135 0.768832803
vt 0.171703354 0.774385393
vt 0.18022944 0.766256213
vt 0.179205418 0.780883729
vt 0.170287699 0.780210674
vt 0.182846218 0.777624607
vt 0.234110698 0.766277552
vt 0.180797994 0.780604303
vt 0.179073602 0.783327878
vt 0.178996816 0.837903142
vt 0.170199782 0.840988219
vt 0.180714414 0.840619922
vt 0.179123417 0.840352118
vt 0.171601683 0.846826792
vt 0.180662766 0.843232393
vt 0.175357655 0.852406502
vt 0.180138513 0.854972959
vt 0.182878345 0.780565202
vt 0.182796344 0.840654194
vt 0.182758301 0.843592942
vt 0.231490865 0.777657568
vt 0.23140271 0.843625844
vt 0.234019592 0.854994059
vt 0.231452838 0.780596256
vt 0.233586505 0.778018117
vt 0.238891616 0.768843949
vt 0.242647678 0.774423778
vt 0.231370524 0.840685248
vt 0.233496442 0.843257904
vt 0.23880069 0.85241729
vt 0.235125944 0.780898333
vt 0.244049579 0.780262291
vt 0.233534887 0.78063035
vt 0.233450666 0.840645909
vt 0.235043153 0.840366364
vt 0.242545277 0.8468647
vt 0.243960768 0.841039538
vt 0.235252514 0.783347309
vt 0.235174969 0.837922275
vn 0.83650285 0.356386274 0.416235358
vn 0.659693062 -0.689706028 0.298514128
vn 0.325878173 -0.642979205 0.693095446
vn 0.812241077 -0.564805508 -0.145805523
vn 0.627711415 0.393036664 0.671937943
vn -0.120007955 -0.406405687 0.905777395
vn 0.873985291 0.389518172 0.290560275
vn 0.812241435 -0.564804912 -0.145805046
vn 0.570844829 0.718213439 0.397876441
vn 0.499653429 0.544662237 0.673564851
vn 0.499654025 0.54466337 0.67356348
vn -0.120005995 -0.406405121 0.905777872
vn 0.570844293 0.718213618 0.39787674
vn 0.319231898 0.607536793 0.727317035
vn -0.529880106 -0.0479113758 0.846718192
vn -0.772858441 0.306439698 0.555683851
vn 0.158348709 0.827952445 0.537978172
vn -0.812238872 0.564807832 0.145808682
vn 0.570845425 0.718212247 0.397877753
vn 0.570845127 0.718212545 0.397877812
vn 0.146998212 0.895040631 0.421062648
vn 0.873984218 0.389519989 0.29056114
vn 0.146998569 0.895040631 0.421062499
vn -0.812241137 0.56480521 0.145806253
vn 0.570845425 0.718212068 0.397878021
vn 0.868133128 0.463515282 0.177477941
vn 0.772860527 -0.306446165 -0.555677414
vn 0.529879272 0.047903914 -0.846719086
vn 0.570845127 0.718212247 0.397878051
vn 0.189980179 0.935082972 0.299211204
vn -0.659693599 0.689705133 -0.298515141
vn -0.32587871 0.642978311 -0.693095982
vn 0.717372 0.69667381 -0.00479455199
vn 0.120006256 0.406406164 -0.905777395
vn 0.570844173 0.718212008 0.397879779
vn 0.570843995 0.718212247 0.39787966
vn 0.40889585 0.911178589 0.0505755022
vn 0.120006412 0.406407416 -0.90577668
vn 0.578563452 0.811903596 0.0779544115
vn 0.578563511 0.811903596 0.0779546127
vn -0.158343673 -0.827954054 -0.53797704
vn 0.772860527 -0.306446165 -0.555677414
vn 0.529879272 0.047903914 -0.846719086
vn 0.812241435 -0.564804912 -0.145805046
vn -0.319237828 -0.607539117 -0.727312505
vn 0.120006256 0.406406164 -0.905777395
vn -0.147006646 -0.89503938 -0.42106241
vn 0.812241077 -0.564805508 -0.145805523
vn -0.570845425 -0.718212962 -0.39787659
vn -0.499651879 -0.544667363 -0.673561811
vn -0.499651849 -0.544666767 -0.673562229
vn 0.120006412 0.406407416 -0.90577668
vn -0.570845664 -0.718213081 -0.397875965
vn -0.62771517 -0.393035501 -0.671935081
vn -0.32587871 0.642978311 -0.693095982
vn -0.836501002 -0.356387883 -0.416237473
vn -0.659693599 0.689705133 -0.298515141
vn -0.812241137 0.56480521 0.145806253
vn -0.570845366 -0.718212247 -0.397877753
vn -0.570845068 -0.718212426 -0.397877783
vn -0.873982787 -0.389522642 -0.290561736
vn -0.147006646 -0.89503938 -0.42106241
vn -0.873983145 -0.389522165 -0.290561467
vn -0.812238872 0.564807832 0.145808682
vn -0.570845366 -0.718212008 -0.397878289
vn -0.189980477 -0.935082138 -0.299213648
vn 0.659693062 -0.689706028 0.298514128
vn 0.325878173 -0.642979205 0.693095446
vn -0.570845008 -0.718212187 -0.397878259
vn -0.868133664 -0.463514835 -0.17747654
vn -0.772858441 0.306439698 0.555683851
vn -0.408894718 -0.911179304 -0.0505713187
vn -0.120007955 -0.406405687 0.905777395
vn -0.570846796 -0.718209267 -0.39788118
vn -0.570846856 -0.718209028 -0.397881359
vn -0.717369676 -0.696676254 0.00479825772
vn -0.529880106 -0.0479113758 0.846718192
vn -0.120005995 -0.406405121 0.905777872
vn -0.578567266 -0.811900795 -0.0779547319
vn -0.578567147 -0.811900914 -0.0779552013
g Pai003_0
f 3/3/3 2/2/2 1/1/1
f 2/2/2 4/4/4 1/1/1
f 5/5/5 3/3/3 1/1/1
f 3/3/3 5/5/5 6/6/6
f 4/4/4 7/7/7 1/1/1
f 4/4/4 8/8/8 7/7/7
f 1/1/1 9/9/9 5/5/5
f 1/1/1 7/7/7 9/9/9
f 5/5/5 10/10/10 6/6/6
f 9/9/9 10/10/10 5/5/5
f 6/6/6 10/10/10 11/11/11
f 12/12/12 6/6/6 11/11/11
f 9/9/9 13/13/13 10/10/10
f 13/13/13 11/11/11 10/10/10
f 12/12/12 11/11/11 14/14/14
f 14/14/14 11/11/11 13/13/13
f 15/15/15 12/12/12 14/14/14
f 16/16/16 15/15/15 14/14/14
f 17/17/17 16/16/16 14/14/14
f 17/17/17 14/14/14 13/13/13
f 16/16/16 17/17/17 18/18/18
f 7/7/7 19/19/19 9/9/9
f 9/9/9 19/19/19 13/13/13
f 13/13/13 20/20/20 17/17/17
f 19/19/19 20/20/20 13/13/13
f 17/17/17 21/21/21 18/18/18
f 20/20/20 21/21/21 17/17/17
f 19/19/19 7/7/7 22/22/22
f 8/8/8 22/22/22 7/7/7
f 18/18/18 21/21/21 23/23/23
f 24/24/24 18/18/18 23/23/23
f 19/19/19 25/25/25 20/20/20
f 25/25/25 19/19/19 22/22/22
f 26/26/26 22/22/22 8/8/8
f 25/25/25 22/22/22 26/26/26
f 27/27/27 26/26/26 8/8/8
f 27/27/27 28/28/28 26/26/26
f 20/20/20 29/29/29 21/21/21
f 25/25/25 29/29/29 20/20/20
f 29/29/29 23/23/23 21/21/21
f 24/24/24 23/23/23 30/30/30
f 31/31/31 24/24/24 30/30/30
f 32/32/32 31/31/31 30/30/30
f 28/28/28 33/33/33 26/26/26
f 28/28/28 34/34/34 33/33/33
f 35/35/35 25/25/25 26/26/26
f 29/29/29 25/25/25 35/35/35
f 26/26/26 33/33/33 35/35/35
f 23/23/23 29/29/29 36/36/36
f 30/30/30 23/23/23 36/36/36
f 36/36/36 29/29/29 35/35/35
f 37/37/37 32/32/32 30/30/30
f 30/30/30 36/36/36 37/37/37
f 32/32/32 37/37/37 38/38/38
f 34/34/34 39/39/39 33/33/33
f 33/33/33 39/39/39 35/35/35
f 34/34/34 38/38/38 39/39/39
f 36/36/36 35/35/35 40/40/40
f 36/36/36 40/40/40 37/37/37
f 35/35/35 39/39/39 40/40/40
f 38/38/38 40/40/40 39/39/39
f 37/37/37 40/40/40 38/38/38
f 43/43/43 42/42/42 41/41/41
f 42/42/42 44/44/44 41/41/41
f 45/45/45 43/43/43 41/41/41
f 43/43/43 45/45/45 46/46/46
f 44/44/44 47/47/47 41/41/41
f 44/44/44 48/48/48 47/47/47
f 41/41/41 49/49/49 45/45/45
f 41/41/41 47/47/47 49/49/49
f 45/45/45 50/50/50 46/46/46
f 49/49/49 50/50/50 45/45/45
f 46/46/46 50/50/50 51/51/51
f 52/52/52 46/46/46 51/51/51
f 50/50/50 49/49/49 53/53/53
f 51/51/51 50/50/50 53/53/53
f 52/52/52 51/51/51 54/54/54
f 54/54/54 51/51/51 53/53/53
f 55/55/55 52/52/52 54/54/54
f 55/55/55 54/54/54 56/56/56
f 56/56/56 54/54/54 53/53/53
f 57/57/57 55/55/55 56/56/56
f 57/57/57 56/56/56 58/58/58
f 47/47/47 59/59/59 49/49/49
f 49/49/49 59/59/59 53/53/53
f 53/53/53 60/60/60 56/56/56
f 59/59/59 60/60/60 53/53/53
f 56/56/56 61/61/61 58/58/58
f 60/60/60 61/61/61 56/56/56
f 59/59/59 47/47/47 62/62/62
f 48/48/48 62/62/62 47/47/47
f 58/58/58 61/61/61 63/63/63
f 64/64/64 58/58/58 63/63/63
f 59/59/59 65/65/65 60/60/60
f 65/65/65 59/59/59 62/62/62
f 66/66/66 62/62/62 48/48/48
f 65/65/65 62/62/62 66/66/66
f 67/67/67 66/66/66 48/48/48
f 67/67/67 68/68/68 66/66/66
f 60/60/60 69/69/69 61/61/61
f 65/65/65 69/69/69 60/60/60
f 69/69/69 63/63/63 61/61/61
f 64/64/64 63/63/63 70/70/70
f 71/71/71 64/64/64 70/70/70
f 68/68/68 72/72/72 66/66/66
f 68/68/68 73/73/73 72/72/72
f 74/74/74 65/65/65 66/66/66
f 69/69/69 65/65/65 74/74/74
f 66/66/66 72/72/72 74/74/74
f 63/63/63 69/69/69 75/75/75
f 70/70/70 63/63/63 75/75/75
f 75/75/75 69/69/69 74/74/74
f 71/71/71 70/70/70 76/76/76
f 70/70/70 75/75/75 76/76/76
f 77/77/77 71/71/71 76/76/76
f 77/77/77 76/76/76 78/78/78
f 73/73/73 79/79/79 72/72/72
f 72/72/72 79/79/79 74/74/74
f 73/73/73 78/78/78 79/79/79
f 75/75/75 74/74/74 80/80/80
f 75/75/75 80/80/80 76/76/76
f 74/74/74 79/79/79 80/80/80
f 78/78/78 80/80/80 79/79/79
f 76/76/76 80/80/80 78/78/78
