g DiZhu_Pai11
v -0.420202404 -1.07501221 0.644048691
v -0.423079491 -1.07273674 0.649164617
v -0.429847658 -1.07851398 0.649154902
v -0.415256143 -1.07273638 0.647713542
v -0.426658362 -1.08052289 0.644039392
v -0.430082917 -1.08451152 0.647884965
v -0.412740111 -1.07501185 0.642664552
v -0.270589769 -1.0727284 0.62087971
v -0.420447826 -1.08127093 0.642723441
v -0.426882654 -1.08624375 0.642828047
v -0.431031793 -1.19203293 0.620428026
v -0.434432745 -1.19541824 0.624401331
v -0.424986959 -1.19700491 0.618217766
v -0.431256175 -1.19775379 0.61921674
v -0.434667945 -1.2014159 0.623131454
v -0.428352892 -1.2071923 0.620694816
v -0.42523241 -1.20326364 0.616892517
v -0.420529515 -1.20719182 0.619243741
v -0.412985533 -1.08127058 0.641339302
v -0.417524636 -1.19700456 0.616833568
v -0.417770118 -1.20326316 0.615508378
v -0.274748981 -1.07500422 0.617068887
v -0.279779017 -1.20325553 0.589912713
v -0.275863141 -1.20718384 0.592409849
v -0.274994433 -1.08126295 0.615743637
v -0.267286688 -1.07500386 0.615684748
v -0.26276648 -1.07272792 0.619428515
v -0.256451339 -1.07850432 0.616991997
v -0.279533535 -1.19699693 0.591237903
v -0.272316724 -1.20325518 0.588528514
v -0.268039882 -1.20718336 0.590958714
v -0.261271566 -1.20140624 0.59096849
v -0.261262953 -1.08051372 0.613360524
v -0.256686598 -1.08450198 0.61572206
v -0.26753217 -1.08126247 0.614359498
v -0.272071272 -1.19699645 0.589853764
v -0.265860796 -1.19774461 0.588537872
v -0.261036396 -1.1954087 0.592238426
v -0.261487335 -1.08623457 0.612149239
v -0.265636414 -1.19202375 0.589749217
v -0.265886903 -1.07665658 0.623230815
v -0.26276648 -1.07272792 0.619428515
v -0.256451339 -1.07850432 0.616991997
v -0.270589769 -1.0727284 0.62087971
v -0.259863138 -1.08216655 0.620906711
v -0.256686598 -1.08450198 0.61572206
v -0.273349166 -1.07665706 0.624615014
v -0.415256143 -1.07273638 0.647713542
v -0.266132355 -1.08291519 0.621905684
v -0.26008749 -1.08788729 0.619695365
v -0.264236599 -1.19367647 0.597295344
v -0.261036396 -1.1954087 0.592238426
v -0.270671427 -1.19864929 0.59739995
v -0.264461011 -1.19939733 0.596084058
v -0.261271566 -1.20140624 0.59096849
v -0.270916939 -1.20490801 0.5960747
v -0.268039882 -1.20718336 0.590958714
v -0.275863141 -1.20718384 0.592409849
v -0.273594618 -1.08291566 0.623289764
v -0.27813372 -1.19864964 0.598784089
v -0.278379202 -1.20490837 0.597458839
v -0.411340326 -1.07666469 0.650210738
v -0.416370302 -1.204916 0.623054504
v -0.420529515 -1.20719182 0.619243741
v -0.411585718 -1.08292329 0.648885489
v -0.418802589 -1.07666504 0.651594818
v -0.423079491 -1.07273674 0.649164617
v -0.429847658 -1.07851398 0.649154902
v -0.416124821 -1.19865727 0.624379754
v -0.423832625 -1.20491636 0.624438703
v -0.428352892 -1.2071923 0.620694816
v -0.425258547 -1.08217561 0.651585519
v -0.430082917 -1.08451152 0.647884965
v -0.419048041 -1.08292377 0.650269628
v -0.423587143 -1.19865763 0.625763893
v -0.42985636 -1.1994065 0.626762807
v -0.434667945 -1.2014159 0.623131454
v -0.434432745 -1.19541824 0.624401331
v -0.425482869 -1.08789635 0.650374115
v -0.429631978 -1.19368565 0.627974212
vt 0.0215483867 0.97464335
vt 0.0116298115 0.983688831
vt 0.0175696723 0.990104437
vt 0.00892664026 0.97552371
vt 0.0246372037 0.977273822
vt 0.0238286741 0.992519021
vt 0.0211796388 0.97105813
vt 0.00945853349 0.883443773
vt 0.0243537165 0.974552155
vt 0.0272625871 0.977492452
vt 0.0858898684 0.977450132
vt 0.0891530737 0.992469549
vt 0.0888313651 0.974504232
vt 0.0885166302 0.977228403
vt 0.0954443142 0.990040302
vt 0.101455428 0.983609915
vt 0.0916347951 0.974590421
vt 0.104248933 0.975443244
vt 0.0243343972 0.970991373
vt 0.0888911933 0.970941782
vt 0.0920456275 0.97100246
vt 0.0216618329 0.887884557
vt 0.0925277993 0.887828231
vt 0.104780771 0.88336271
vt 0.0248162188 0.887945175
vt 0.0220726877 0.884297073
vt 0.0122520356 0.875277519
vt 0.0182631537 0.86884737
vt 0.089373067 0.887894869
vt 0.0921590254 0.884242654
vt 0.10207767 0.875197113
vt 0.096137844 0.868781269
vt 0.025190901 0.88165921
vt 0.0245542638 0.866418064
vt 0.0248760916 0.884383202
vt 0.0893537924 0.884333909
vt 0.0890703052 0.881611824
vt 0.0898786411 0.866366565
vt 0.0278176405 0.88143754
vt 0.0864449739 0.881393313
vt 0.0186255015 0.777992368
vt 0.0133213466 0.768832803
vt 0.0095765423 0.774385393
vt 0.0181026272 0.766256213
vt 0.0170786157 0.780883729
vt 0.00816086866 0.780210674
vt 0.020719409 0.777624607
vt 0.0719838887 0.766277552
vt 0.0186712109 0.780604303
vt 0.0169467628 0.783327878
vt 0.016870033 0.837903142
vt 0.00807294808 0.840988219
vt 0.0185875557 0.840619922
vt 0.0169965886 0.840352118
vt 0.00947487541 0.846826792
vt 0.0185359605 0.843232393
vt 0.0132308668 0.852406502
vt 0.0180117302 0.854972959
vt 0.0207515657 0.780565202
vt 0.0206695125 0.840654194
vt 0.0206315145 0.843592942
vt 0.0693640485 0.777657568
vt 0.0692759082 0.843625844
vt 0.0718927905 0.854994059
vt 0.0693260059 0.780596256
vt 0.0714598075 0.778018117
vt 0.0767648295 0.768843949
vt 0.0805208907 0.774423778
vt 0.0692437068 0.840685248
vt 0.0713696256 0.843257904
vt 0.0766738281 0.85241729
vt 0.072999157 0.780898333
vt 0.081922695 0.780262291
vt 0.07140816 0.78063035
vt 0.0713238418 0.840645909
vt 0.0729163885 0.840366364
vt 0.0804184303 0.8468647
vt 0.0818339884 0.841039538
vt 0.0731256604 0.783347309
vt 0.0730481148 0.837922275
vn -0.273890942 0.59737432 -0.753742456
vn -0.42981115 0.862061262 0.268538326
vn -0.815543532 0.514937401 0.264061034
vn 0.0383424237 0.977588892 0.207002163
vn -0.521916926 0.376755744 -0.76528281
vn -0.983228683 -5.3418793E-05 0.18237707
vn -0.142292395 0.625747919 -0.766937077
vn 0.0383415334 0.977589428 0.206999436
vn -0.178297758 0.210517511 -0.961193204
vn -0.491659492 0.198796242 -0.847791851
vn -0.491660416 0.198796064 -0.847791374
vn -0.98322922 -5.26090262E-05 0.182373956
vn -0.178298473 0.210517138 -0.961193085
vn -0.536472201 0.00548293907 -0.843900144
vn -0.855931938 -0.515039027 0.045991879
vn -0.497423738 -0.862119496 -0.0965383798
vn -0.305902272 -0.218838915 -0.926570714
vn -0.0383418426 -0.97758913 -0.20700106
vn -0.178300634 0.210517675 -0.961192667
vn -0.178300664 0.210517794 -0.961192548
vn -0.176608801 -0.249225765 -0.952205777
vn -0.142292827 0.625747144 -0.766937613
vn -0.176608562 -0.249225736 -0.952205837
vn -0.038341634 -0.977589548 -0.206998989
vn -0.17830126 0.210517734 -0.961192429
vn -0.014714689 0.597381175 -0.801822484
vn 0.497431397 0.862114251 0.0965448245
vn 0.855937541 0.515031576 -0.0459716916
vn -0.17830129 0.210517853 -0.961192429
vn -0.0467228517 -0.218825653 -0.974644721
vn 0.429804623 -0.862065434 -0.268535137
vn 0.815538347 -0.51494354 -0.264065117
vn 0.212690443 0.376793653 -0.901548266
vn 0.983227849 5.46828996E-05 -0.182381019
vn -0.178306282 0.210517928 -0.961191416
vn -0.178305343 0.210518017 -0.961191654
vn 0.198132768 0.00552579761 -0.98015964
vn 0.983228683 5.46498704E-05 -0.182376817
vn 0.154880852 0.198831424 -0.967717946
vn 0.154881254 0.198831499 -0.967717826
vn 0.305901349 0.218837515 0.926571369
vn 0.497431397 0.862114251 0.0965448245
vn 0.855937541 0.515031576 -0.0459716916
vn 0.0383415334 0.977589428 0.206999436
vn 0.536471546 -0.00548464432 0.843900561
vn 0.983227849 5.46828996E-05 -0.182381019
vn 0.176609442 0.249226868 0.9522053
vn 0.0383424237 0.977588892 0.207002163
vn 0.178301066 -0.210517466 0.961192548
vn 0.491654932 -0.198797062 0.847794354
vn 0.491654038 -0.198797032 0.847794771
vn 0.983228683 5.46498704E-05 -0.182376817
vn 0.178301275 -0.210517615 0.961192548
vn 0.521911263 -0.376756817 0.765286088
vn 0.815538347 -0.51494354 -0.264065117
vn 0.273892194 -0.597371697 0.753744006
vn 0.429804623 -0.862065434 -0.268535137
vn -0.038341634 -0.977589548 -0.206998989
vn 0.17830117 -0.21051757 0.961192548
vn 0.178301156 -0.210517466 0.961192548
vn 0.142292067 -0.625748515 0.766936541
vn 0.176609471 0.249226958 0.9522053
vn 0.142291725 -0.625748813 0.766936481
vn -0.0383418426 -0.97758913 -0.20700106
vn 0.178300828 -0.21051757 0.961192548
vn 0.0467225052 0.218821451 0.974645734
vn -0.42981115 0.862061262 0.268538326
vn -0.815543532 0.514937401 0.264061034
vn 0.178300828 -0.210517481 0.961192667
vn 0.0147135668 -0.597382665 0.801821291
vn -0.497423738 -0.862119496 -0.0965383798
vn -0.198133856 -0.0055282875 0.980159402
vn -0.983228683 -5.3418793E-05 0.18237707
vn 0.17829971 -0.210517853 0.961192787
vn 0.178299427 -0.210517794 0.961192787
vn -0.212688431 -0.376798719 0.901546717
vn -0.855931938 -0.515039027 0.045991879
vn -0.98322922 -5.26090262E-05 0.182373956
vn -0.154879197 -0.198832124 0.967718065
vn -0.154880464 -0.198831946 0.967717946
g DiZhu_Pai11_0
f 3/3/3 2/2/2 1/1/1
f 2/2/2 4/4/4 1/1/1
f 5/5/5 3/3/3 1/1/1
f 3/3/3 5/5/5 6/6/6
f 4/4/4 7/7/7 1/1/1
f 4/4/4 8/8/8 7/7/7
f 1/1/1 9/9/9 5/5/5
f 1/1/1 7/7/7 9/9/9
f 5/5/5 10/10/10 6/6/6
f 9/9/9 10/10/10 5/5/5
f 6/6/6 10/10/10 11/11/11
f 12/12/12 6/6/6 11/11/11
f 9/9/9 13/13/13 10/10/10
f 13/13/13 11/11/11 10/10/10
f 12/12/12 11/11/11 14/14/14
f 14/14/14 11/11/11 13/13/13
f 15/15/15 12/12/12 14/14/14
f 16/16/16 15/15/15 14/14/14
f 17/17/17 16/16/16 14/14/14
f 17/17/17 14/14/14 13/13/13
f 16/16/16 17/17/17 18/18/18
f 7/7/7 19/19/19 9/9/9
f 9/9/9 19/19/19 13/13/13
f 13/13/13 20/20/20 17/17/17
f 19/19/19 20/20/20 13/13/13
f 17/17/17 21/21/21 18/18/18
f 20/20/20 21/21/21 17/17/17
f 19/19/19 7/7/7 22/22/22
f 8/8/8 22/22/22 7/7/7
f 18/18/18 21/21/21 23/23/23
f 24/24/24 18/18/18 23/23/23
f 19/19/19 25/25/25 20/20/20
f 25/25/25 19/19/19 22/22/22
f 26/26/26 22/22/22 8/8/8
f 25/25/25 22/22/22 26/26/26
f 27/27/27 26/26/26 8/8/8
f 27/27/27 28/28/28 26/26/26
f 20/20/20 29/29/29 21/21/21
f 25/25/25 29/29/29 20/20/20
f 29/29/29 23/23/23 21/21/21
f 24/24/24 23/23/23 30/30/30
f 31/31/31 24/24/24 30/30/30
f 32/32/32 31/31/31 30/30/30
f 28/28/28 33/33/33 26/26/26
f 28/28/28 34/34/34 33/33/33
f 35/35/35 25/25/25 26/26/26
f 29/29/29 25/25/25 35/35/35
f 26/26/26 33/33/33 35/35/35
f 23/23/23 29/29/29 36/36/36
f 30/30/30 23/23/23 36/36/36
f 36/36/36 29/29/29 35/35/35
f 37/37/37 32/32/32 30/30/30
f 30/30/30 36/36/36 37/37/37
f 32/32/32 37/37/37 38/38/38
f 34/34/34 39/39/39 33/33/33
f 33/33/33 39/39/39 35/35/35
f 34/34/34 38/38/38 39/39/39
f 36/36/36 35/35/35 40/40/40
f 36/36/36 40/40/40 37/37/37
f 35/35/35 39/39/39 40/40/40
f 38/38/38 40/40/40 39/39/39
f 37/37/37 40/40/40 38/38/38
f 43/43/43 42/42/42 41/41/41
f 42/42/42 44/44/44 41/41/41
f 45/45/45 43/43/43 41/41/41
f 43/43/43 45/45/45 46/46/46
f 44/44/44 47/47/47 41/41/41
f 44/44/44 48/48/48 47/47/47
f 41/41/41 49/49/49 45/45/45
f 41/41/41 47/47/47 49/49/49
f 45/45/45 50/50/50 46/46/46
f 49/49/49 50/50/50 45/45/45
f 46/46/46 50/50/50 51/51/51
f 52/52/52 46/46/46 51/51/51
f 50/50/50 49/49/49 53/53/53
f 51/51/51 50/50/50 53/53/53
f 52/52/52 51/51/51 54/54/54
f 54/54/54 51/51/51 53/53/53
f 55/55/55 52/52/52 54/54/54
f 55/55/55 54/54/54 56/56/56
f 56/56/56 54/54/54 53/53/53
f 57/57/57 55/55/55 56/56/56
f 57/57/57 56/56/56 58/58/58
f 47/47/47 59/59/59 49/49/49
f 49/49/49 59/59/59 53/53/53
f 53/53/53 60/60/60 56/56/56
f 59/59/59 60/60/60 53/53/53
f 56/56/56 61/61/61 58/58/58
f 60/60/60 61/61/61 56/56/56
f 59/59/59 47/47/47 62/62/62
f 48/48/48 62/62/62 47/47/47
f 58/58/58 61/61/61 63/63/63
f 64/64/64 58/58/58 63/63/63
f 59/59/59 65/65/65 60/60/60
f 65/65/65 59/59/59 62/62/62
f 66/66/66 62/62/62 48/48/48
f 65/65/65 62/62/62 66/66/66
f 67/67/67 66/66/66 48/48/48
f 67/67/67 68/68/68 66/66/66
f 60/60/60 69/69/69 61/61/61
f 65/65/65 69/69/69 60/60/60
f 69/69/69 63/63/63 61/61/61
f 64/64/64 63/63/63 70/70/70
f 71/71/71 64/64/64 70/70/70
f 68/68/68 72/72/72 66/66/66
f 68/68/68 73/73/73 72/72/72
f 74/74/74 65/65/65 66/66/66
f 69/69/69 65/65/65 74/74/74
f 66/66/66 72/72/72 74/74/74
f 63/63/63 69/69/69 75/75/75
f 70/70/70 63/63/63 75/75/75
f 75/75/75 69/69/69 74/74/74
f 71/71/71 70/70/70 76/76/76
f 70/70/70 75/75/75 76/76/76
f 77/77/77 71/71/71 76/76/76
f 77/77/77 76/76/76 78/78/78
f 73/73/73 79/79/79 72/72/72
f 72/72/72 79/79/79 74/74/74
f 73/73/73 78/78/78 79/79/79
f 75/75/75 74/74/74 80/80/80
f 75/75/75 80/80/80 76/76/76
f 74/74/74 79/79/79 80/80/80
f 78/78/78 80/80/80 79/79/79
f 76/76/76 80/80/80 78/78/78
