g DiZhu_Pai10
v -0.370001584 -0.985290289 0.633178949
v -0.372497976 -0.982215405 0.638071895
v -0.379038274 -0.988032758 0.639673769
v -0.364835739 -0.982319713 0.635929525
v -0.376240194 -0.990839362 0.634706914
v -0.379176825 -0.994163215 0.639477015
v -0.362692982 -0.985389829 0.631135404
v -0.223148629 -0.984249115 0.596312642
v -0.370146126 -0.991687536 0.632973552
v -0.376372218 -0.996686757 0.63451916
v -0.378815264 -1.10481775 0.631047904
v -0.381738007 -1.10752487 0.635837793
v -0.372818708 -1.10998344 0.629175961
v -0.378947377 -1.1106652 0.63086015
v -0.381876469 -1.11365533 0.635640979
v -0.375602931 -1.11964715 0.633660018
v -0.37296325 -1.11638069 0.628970563
v -0.367940694 -1.11975145 0.631517589
v -0.362837464 -0.991787016 0.630930007
v -0.365510106 -1.11008286 0.627132416
v -0.365654618 -1.11648011 0.626927018
v -0.227543652 -0.987230182 0.593346536
v -0.230505332 -1.11832047 0.58913821
v -0.226253584 -1.12168086 0.591900706
v -0.227688149 -0.993627429 0.593141139
v -0.22023505 -0.987329662 0.591302991
v -0.215486467 -0.984353483 0.594170272
v -0.209212884 -0.990345299 0.592189252
v -0.230360791 -1.11192322 0.589343548
v -0.223196715 -1.11842 0.587094665
v -0.218591437 -1.12178516 0.589758337
v -0.212051019 -1.11596787 0.588156402
v -0.214250937 -0.993045092 0.589413404
v -0.209351406 -0.996475637 0.591992438
v -0.220379591 -0.99372685 0.591097653
v -0.223052189 -1.11202288 0.587300003
v -0.21695818 -1.11287105 0.5855667
v -0.211912557 -1.10983741 0.588353276
v -0.214383051 -0.998892546 0.58922565
v -0.216826037 -1.1070236 0.585754395
v -0.218126118 -0.987619936 0.598859668
v -0.215486467 -0.984353483 0.594170272
v -0.209212884 -0.990345299 0.592189252
v -0.223148629 -0.984249115 0.596312642
v -0.212141991 -0.993335426 0.596970081
v -0.209351406 -0.996475637 0.591992438
v -0.225434706 -0.987520397 0.600903213
v -0.364835739 -0.982319713 0.635929525
v -0.218270645 -0.994017184 0.59865433
v -0.212274089 -0.99918288 0.596782386
v -0.214717075 -1.10731387 0.593311071
v -0.211912557 -1.10983741 0.588353276
v -0.220943242 -1.11231303 0.594856679
v -0.214849219 -1.11316133 0.593123317
v -0.212051019 -1.11596787 0.588156402
v -0.221087798 -1.11871028 0.594651341
v -0.218591437 -1.12178516 0.589758337
v -0.226253584 -1.12168086 0.591900706
v -0.225579217 -0.993917584 0.600697875
v -0.22825183 -1.11221349 0.596900225
v -0.228396371 -1.11861074 0.596694827
v -0.360584021 -0.985680044 0.638692081
v -0.363545686 -1.11677039 0.634483695
v -0.367940694 -1.11975145 0.631517589
v -0.360728532 -0.992077291 0.638486683
v -0.367892653 -0.985580564 0.640735626
v -0.372497976 -0.982215405 0.638071895
v -0.379038274 -0.988032758 0.639673769
v -0.363401145 -1.11037326 0.634689093
v -0.370854288 -1.11667085 0.6365273
v -0.375602931 -1.11964715 0.633660018
v -0.374131233 -0.991129577 0.642263532
v -0.379176825 -0.994163215 0.639477015
v -0.368037164 -0.991977751 0.640530229
v -0.370709747 -1.1102736 0.636732638
v -0.376838416 -1.11095548 0.638416827
v -0.381876469 -1.11365533 0.635640979
v -0.381738007 -1.10752487 0.635837793
v -0.374263257 -0.996976972 0.642075896
v -0.376706302 -1.10510802 0.638604581
vt 0.0215483867 0.97464335
vt 0.0116298115 0.983688831
vt 0.0175696723 0.990104437
vt 0.00892664026 0.97552371
vt 0.0246372037 0.977273822
vt 0.0238286741 0.992519021
vt 0.0211796388 0.97105813
vt 0.00945853349 0.883443773
vt 0.0243537165 0.974552155
vt 0.0272625871 0.977492452
vt 0.0858898684 0.977450132
vt 0.0891530737 0.992469549
vt 0.0888313651 0.974504232
vt 0.0885166302 0.977228403
vt 0.0954443142 0.990040302
vt 0.101455428 0.983609915
vt 0.0916347951 0.974590421
vt 0.104248933 0.975443244
vt 0.0243343972 0.970991373
vt 0.0888911933 0.970941782
vt 0.0920456275 0.97100246
vt 0.0216618329 0.887884557
vt 0.0925277993 0.887828231
vt 0.104780771 0.88336271
vt 0.0248162188 0.887945175
vt 0.0220726877 0.884297073
vt 0.0122520356 0.875277519
vt 0.0182631537 0.86884737
vt 0.089373067 0.887894869
vt 0.0921590254 0.884242654
vt 0.10207767 0.875197113
vt 0.096137844 0.868781269
vt 0.025190901 0.88165921
vt 0.0245542638 0.866418064
vt 0.0248760916 0.884383202
vt 0.0893537924 0.884333909
vt 0.0890703052 0.881611824
vt 0.0898786411 0.866366565
vt 0.0278176405 0.88143754
vt 0.0864449739 0.881393313
vt 0.0186255015 0.777992368
vt 0.0133213466 0.768832803
vt 0.0095765423 0.774385393
vt 0.0181026272 0.766256213
vt 0.0170786157 0.780883729
vt 0.00816086866 0.780210674
vt 0.020719409 0.777624607
vt 0.0719838887 0.766277552
vt 0.0186712109 0.780604303
vt 0.0169467628 0.783327878
vt 0.016870033 0.837903142
vt 0.00807294808 0.840988219
vt 0.0185875557 0.840619922
vt 0.0169965886 0.840352118
vt 0.00947487541 0.846826792
vt 0.0185359605 0.843232393
vt 0.0132308668 0.852406502
vt 0.0180117302 0.854972959
vt 0.0207515657 0.780565202
vt 0.0206695125 0.840654194
vt 0.0206315145 0.843592942
vt 0.0693640485 0.777657568
vt 0.0692759082 0.843625844
vt 0.0718927905 0.854994059
vt 0.0693260059 0.780596256
vt 0.0714598075 0.778018117
vt 0.0767648295 0.768843949
vt 0.0805208907 0.774423778
vt 0.0692437068 0.840685248
vt 0.0713696256 0.843257904
vt 0.0766738281 0.85241729
vt 0.072999157 0.780898333
vt 0.081922695 0.780262291
vt 0.07140816 0.78063035
vt 0.0713238418 0.840645909
vt 0.0729163885 0.840366364
vt 0.0804184303 0.8468647
vt 0.0818339884 0.841039538
vt 0.0731256604 0.783347309
vt 0.0730481148 0.837922275
vn -0.359017551 0.452104688 -0.816521645
vn -0.434164464 0.887356222 0.155241862
vn -0.806637108 0.537530601 0.245758906
vn 0.0225751251 0.999229908 0.0320930779
vn -0.599358857 0.228202999 -0.767262876
vn -0.962979317 0.0131119806 0.269256204
vn -0.230127364 0.480236471 -0.846412659
vn 0.0225752387 0.999229908 0.0320927128
vn -0.268628448 0.0369690061 -0.962534249
vn -0.570304811 0.0392249301 -0.820496023
vn -0.570306242 0.0392250828 -0.820495069
vn -0.962979972 0.0131125692 0.269254088
vn -0.268628776 0.0369689465 -0.96253413
vn -0.607929468 -0.151283845 -0.779445231
vn -0.830420911 -0.515241444 0.211960867
vn -0.473978817 -0.874990404 0.0986707732
vn -0.377864391 -0.382167816 -0.84330672
vn -0.0225743037 -0.999230623 -0.0320711695
vn -0.26862821 0.0369689427 -0.962534249
vn -0.268628269 0.0369689316 -0.962534249
vn -0.250331312 -0.414107144 -0.87512821
vn -0.230127439 0.480235517 -0.846413195
vn -0.250331193 -0.414107293 -0.87512821
vn -0.0225745011 -0.999230504 -0.0320735201
vn -0.268628269 0.036968939 -0.962534249
vn -0.10517709 0.448649287 -0.887497425
vn 0.473978788 0.874991119 -0.0986650661
vn 0.830420136 0.515244365 -0.211956501
vn -0.268628329 0.0369689353 -0.962534249
vn -0.124025673 -0.385622919 -0.914282501
vn 0.434161425 -0.887356341 -0.155250013
vn 0.806634486 -0.537532747 -0.245763034
vn 0.120122768 0.218416229 -0.968434215
vn 0.962977648 -0.0131123383 -0.269262195
vn -0.268628806 0.0369689986 -0.96253413
vn -0.268629462 0.036968831 -0.962533891
vn 0.111542992 -0.161077932 -0.980618179
vn 0.962977886 -0.0131125273 -0.26926142
vn 0.0629134029 0.0306024086 -0.997549713
vn 0.062913388 0.0306023546 -0.997549713
vn 0.377866477 0.382171303 0.843304276
vn 0.473978788 0.874991119 -0.0986650661
vn 0.830420136 0.515244365 -0.211956501
vn 0.0225752387 0.999229908 0.0320927128
vn 0.607928574 0.151280448 0.779446721
vn 0.962977648 -0.0131123383 -0.269262195
vn 0.250331938 0.414109886 0.875126839
vn 0.0225751251 0.999229908 0.0320930779
vn 0.268630803 -0.0369688943 0.962533474
vn 0.570307076 -0.0392248072 0.820494533
vn 0.570306838 -0.0392248258 0.820494711
vn 0.962977886 -0.0131125273 -0.26926142
vn 0.268630534 -0.0369689912 0.962533534
vn 0.599353492 -0.228212342 0.767264307
vn 0.806634486 -0.537532747 -0.245763034
vn 0.359018683 -0.452103525 0.816521823
vn 0.434161425 -0.887356341 -0.155250013
vn -0.0225745011 -0.999230504 -0.0320735201
vn 0.268628985 -0.036969021 0.96253401
vn 0.268628836 -0.036969047 0.96253413
vn 0.230123684 -0.480229139 0.846417785
vn 0.250331789 0.414110333 0.87512666
vn 0.230123714 -0.480229169 0.846417785
vn -0.0225743037 -0.999230623 -0.0320711695
vn 0.268628806 -0.0369690247 0.96253413
vn 0.124024235 0.385630816 0.914279461
vn -0.434164464 0.887356222 0.155241862
vn -0.806637108 0.537530601 0.245758906
vn 0.268628687 -0.0369690396 0.96253413
vn 0.105179667 -0.448647082 0.8874982
vn -0.473978817 -0.874990404 0.0986707732
vn -0.111548334 0.161080301 0.980617285
vn -0.962979317 0.0131119806 0.269256204
vn 0.268628955 -0.0369686894 0.96253401
vn 0.268629014 -0.0369688347 0.96253401
vn -0.120120548 -0.218414605 0.96843487
vn -0.830420911 -0.515241444 0.211960867
vn -0.962979972 0.0131125692 0.269254088
vn -0.0629149303 -0.0306024998 0.997549593
vn -0.0629172251 -0.0306025427 0.997549474
g DiZhu_Pai10_0
f 3/3/3 2/2/2 1/1/1
f 2/2/2 4/4/4 1/1/1
f 5/5/5 3/3/3 1/1/1
f 3/3/3 5/5/5 6/6/6
f 4/4/4 7/7/7 1/1/1
f 4/4/4 8/8/8 7/7/7
f 1/1/1 9/9/9 5/5/5
f 1/1/1 7/7/7 9/9/9
f 5/5/5 10/10/10 6/6/6
f 9/9/9 10/10/10 5/5/5
f 6/6/6 10/10/10 11/11/11
f 12/12/12 6/6/6 11/11/11
f 9/9/9 13/13/13 10/10/10
f 13/13/13 11/11/11 10/10/10
f 12/12/12 11/11/11 14/14/14
f 14/14/14 11/11/11 13/13/13
f 15/15/15 12/12/12 14/14/14
f 16/16/16 15/15/15 14/14/14
f 17/17/17 16/16/16 14/14/14
f 17/17/17 14/14/14 13/13/13
f 16/16/16 17/17/17 18/18/18
f 7/7/7 19/19/19 9/9/9
f 9/9/9 19/19/19 13/13/13
f 13/13/13 20/20/20 17/17/17
f 19/19/19 20/20/20 13/13/13
f 17/17/17 21/21/21 18/18/18
f 20/20/20 21/21/21 17/17/17
f 19/19/19 7/7/7 22/22/22
f 8/8/8 22/22/22 7/7/7
f 18/18/18 21/21/21 23/23/23
f 24/24/24 18/18/18 23/23/23
f 19/19/19 25/25/25 20/20/20
f 25/25/25 19/19/19 22/22/22
f 26/26/26 22/22/22 8/8/8
f 25/25/25 22/22/22 26/26/26
f 27/27/27 26/26/26 8/8/8
f 27/27/27 28/28/28 26/26/26
f 20/20/20 29/29/29 21/21/21
f 25/25/25 29/29/29 20/20/20
f 29/29/29 23/23/23 21/21/21
f 24/24/24 23/23/23 30/30/30
f 31/31/31 24/24/24 30/30/30
f 32/32/32 31/31/31 30/30/30
f 28/28/28 33/33/33 26/26/26
f 28/28/28 34/34/34 33/33/33
f 35/35/35 25/25/25 26/26/26
f 29/29/29 25/25/25 35/35/35
f 26/26/26 33/33/33 35/35/35
f 23/23/23 29/29/29 36/36/36
f 30/30/30 23/23/23 36/36/36
f 36/36/36 29/29/29 35/35/35
f 37/37/37 32/32/32 30/30/30
f 30/30/30 36/36/36 37/37/37
f 32/32/32 37/37/37 38/38/38
f 34/34/34 39/39/39 33/33/33
f 33/33/33 39/39/39 35/35/35
f 34/34/34 38/38/38 39/39/39
f 36/36/36 35/35/35 40/40/40
f 36/36/36 40/40/40 37/37/37
f 35/35/35 39/39/39 40/40/40
f 38/38/38 40/40/40 39/39/39
f 37/37/37 40/40/40 38/38/38
f 43/43/43 42/42/42 41/41/41
f 42/42/42 44/44/44 41/41/41
f 45/45/45 43/43/43 41/41/41
f 43/43/43 45/45/45 46/46/46
f 44/44/44 47/47/47 41/41/41
f 44/44/44 48/48/48 47/47/47
f 41/41/41 49/49/49 45/45/45
f 41/41/41 47/47/47 49/49/49
f 45/45/45 50/50/50 46/46/46
f 49/49/49 50/50/50 45/45/45
f 46/46/46 50/50/50 51/51/51
f 52/52/52 46/46/46 51/51/51
f 50/50/50 49/49/49 53/53/53
f 51/51/51 50/50/50 53/53/53
f 52/52/52 51/51/51 54/54/54
f 54/54/54 51/51/51 53/53/53
f 55/55/55 52/52/52 54/54/54
f 55/55/55 54/54/54 56/56/56
f 56/56/56 54/54/54 53/53/53
f 57/57/57 55/55/55 56/56/56
f 57/57/57 56/56/56 58/58/58
f 47/47/47 59/59/59 49/49/49
f 49/49/49 59/59/59 53/53/53
f 53/53/53 60/60/60 56/56/56
f 59/59/59 60/60/60 53/53/53
f 56/56/56 61/61/61 58/58/58
f 60/60/60 61/61/61 56/56/56
f 59/59/59 47/47/47 62/62/62
f 48/48/48 62/62/62 47/47/47
f 58/58/58 61/61/61 63/63/63
f 64/64/64 58/58/58 63/63/63
f 59/59/59 65/65/65 60/60/60
f 65/65/65 59/59/59 62/62/62
f 66/66/66 62/62/62 48/48/48
f 65/65/65 62/62/62 66/66/66
f 67/67/67 66/66/66 48/48/48
f 67/67/67 68/68/68 66/66/66
f 60/60/60 69/69/69 61/61/61
f 65/65/65 69/69/69 60/60/60
f 69/69/69 63/63/63 61/61/61
f 64/64/64 63/63/63 70/70/70
f 71/71/71 64/64/64 70/70/70
f 68/68/68 72/72/72 66/66/66
f 68/68/68 73/73/73 72/72/72
f 74/74/74 65/65/65 66/66/66
f 69/69/69 65/65/65 74/74/74
f 66/66/66 72/72/72 74/74/74
f 63/63/63 69/69/69 75/75/75
f 70/70/70 63/63/63 75/75/75
f 75/75/75 69/69/69 74/74/74
f 71/71/71 70/70/70 76/76/76
f 70/70/70 75/75/75 76/76/76
f 77/77/77 71/71/71 76/76/76
f 77/77/77 76/76/76 78/78/78
f 73/73/73 79/79/79 72/72/72
f 72/72/72 79/79/79 74/74/74
f 73/73/73 78/78/78 79/79/79
f 75/75/75 74/74/74 80/80/80
f 75/75/75 80/80/80 76/76/76
f 74/74/74 79/79/79 80/80/80
f 78/78/78 80/80/80 79/79/79
f 76/76/76 80/80/80 78/78/78
