g DiZhu_Pai18
v -0.498420566 -0.903047025 0.844121814
v -0.501687586 -0.900215209 0.848697424
v -0.509455085 -0.904209018 0.846994817
v -0.493949622 -0.902063966 0.848825037
v -0.505829751 -0.906856596 0.842497826
v -0.510801971 -0.909960687 0.845338106
v -0.491039723 -0.904810488 0.844243586
v -0.350861758 -0.936250865 0.851186454
v -0.499826014 -0.909048915 0.842392921
v -0.507114351 -0.912342727 0.840917587
v -0.530870616 -1.01379228 0.811694682
v -0.535707414 -1.01631773 0.814701676
v -0.525815427 -1.02003527 0.810423017
v -0.532155275 -1.01927841 0.810114443
v -0.537054241 -1.02206933 0.813044846
v -0.531881154 -1.0291549 0.811555922
v -0.527220905 -1.0260371 0.808694124
v -0.524143219 -1.03100371 0.811683655
v -0.492445141 -0.910812378 0.842514753
v -0.518434525 -1.02179873 0.810544848
v -0.519840002 -1.02780056 0.808815956
v -0.354554236 -0.937419891 0.846495926
v -0.383354574 -1.06041002 0.811068296
v -0.381055295 -1.06519067 0.814044952
v -0.355959684 -0.943421841 0.844767153
v -0.347173363 -0.939183414 0.846617818
v -0.343123853 -0.938099623 0.851314068
v -0.337950766 -0.945185304 0.849825144
v -0.381949067 -1.05440807 0.812797248
v -0.375973701 -1.06217349 0.811190188
v -0.373317391 -1.06703937 0.814172626
v -0.365549833 -1.0630455 0.815875173
v -0.342238992 -0.945942104 0.845197499
v -0.339297622 -0.950936854 0.848168373
v -0.34857884 -0.945185244 0.844888926
v -0.374568254 -1.05617154 0.812918961
v -0.368564606 -1.0583638 0.812814057
v -0.364203036 -1.05729401 0.817531943
v -0.343523681 -0.951428294 0.843617201
v -0.367279887 -1.05287766 0.814394414
v -0.347784102 -0.941217482 0.854175866
v -0.343123853 -0.938099623 0.851314068
v -0.337950766 -0.945185304 0.849825144
v -0.350861758 -0.936250865 0.851186454
v -0.342849731 -0.947976232 0.852755547
v -0.339297622 -0.950936854 0.848168373
v -0.355164975 -0.939454019 0.854054093
v -0.493949622 -0.902063966 0.848825037
v -0.34918955 -0.947219372 0.852447033
v -0.34413439 -0.953462362 0.851175308
v -0.367890626 -1.05491185 0.821952522
v -0.364203036 -1.05729401 0.817531943
v -0.375178963 -1.05820572 0.820477128
v -0.369175345 -1.06039798 0.820372224
v -0.365549833 -1.0630455 0.815875173
v -0.37658447 -1.06420755 0.818748236
v -0.373317391 -1.06703937 0.814172626
v -0.381055295 -1.06519067 0.814044952
v -0.356570423 -0.945455909 0.852325201
v -0.382559806 -1.05644226 0.820355296
v -0.383965284 -1.06244421 0.818626404
v -0.491650432 -0.906844556 0.851801634
v -0.520450711 -1.02983475 0.816374063
v -0.524143219 -1.03100371 0.811683655
v -0.49305582 -0.912846506 0.850072861
v -0.499031276 -0.905081093 0.851679921
v -0.501687586 -0.900215209 0.848697424
v -0.509455085 -0.904209018 0.846994817
v -0.519045234 -1.0238328 0.818102956
v -0.527831614 -1.02807128 0.816252291
v -0.531881154 -1.0291549 0.811555922
v -0.506440461 -0.908890724 0.850055933
v -0.510801971 -0.909960687 0.845338106
v -0.500436723 -0.911082983 0.849951029
v -0.526426136 -1.02206933 0.817981064
v -0.532765985 -1.02131259 0.817672491
v -0.537054241 -1.02206933 0.813044846
v -0.535707414 -1.01631773 0.814701676
v -0.50772506 -0.914376915 0.848475635
v -0.531481326 -1.01582634 0.819252849
vt 0.0215483867 0.97464335
vt 0.0116298115 0.983688831
vt 0.0175696723 0.990104437
vt 0.00892664026 0.97552371
vt 0.0246372037 0.977273822
vt 0.0238286741 0.992519021
vt 0.0211796388 0.97105813
vt 0.00945853349 0.883443773
vt 0.0243537165 0.974552155
vt 0.0272625871 0.977492452
vt 0.0858898684 0.977450132
vt 0.0891530737 0.992469549
vt 0.0888313651 0.974504232
vt 0.0885166302 0.977228403
vt 0.0954443142 0.990040302
vt 0.101455428 0.983609915
vt 0.0916347951 0.974590421
vt 0.104248933 0.975443244
vt 0.0243343972 0.970991373
vt 0.0888911933 0.970941782
vt 0.0920456275 0.97100246
vt 0.0216618329 0.887884557
vt 0.0925277993 0.887828231
vt 0.104780771 0.88336271
vt 0.0248162188 0.887945175
vt 0.0220726877 0.884297073
vt 0.0122520356 0.875277519
vt 0.0182631537 0.86884737
vt 0.089373067 0.887894869
vt 0.0921590254 0.884242654
vt 0.10207767 0.875197113
vt 0.096137844 0.868781269
vt 0.025190901 0.88165921
vt 0.0245542638 0.866418064
vt 0.0248760916 0.884383202
vt 0.0893537924 0.884333909
vt 0.0890703052 0.881611824
vt 0.0898786411 0.866366565
vt 0.0278176405 0.88143754
vt 0.0864449739 0.881393313
vt 0.0186255015 0.777992368
vt 0.0133213466 0.768832803
vt 0.0095765423 0.774385393
vt 0.0181026272 0.766256213
vt 0.0170786157 0.780883729
vt 0.00816086866 0.780210674
vt 0.020719409 0.777624607
vt 0.0719838887 0.766277552
vt 0.0186712109 0.780604303
vt 0.0169467628 0.783327878
vt 0.016870033 0.837903142
vt 0.00807294808 0.840988219
vt 0.0185875557 0.840619922
vt 0.0169965886 0.840352118
vt 0.00947487541 0.846826792
vt 0.0185359605 0.843232393
vt 0.0132308668 0.852406502
vt 0.0180117302 0.854972959
vt 0.0207515657 0.780565202
vt 0.0206695125 0.840654194
vt 0.0206315145 0.843592942
vt 0.0693640485 0.777657568
vt 0.0692759082 0.843625844
vt 0.0718927905 0.854994059
vt 0.0693260059 0.780596256
vt 0.0714598075 0.778018117
vt 0.0767648295 0.768843949
vt 0.0805208907 0.774423778
vt 0.0692437068 0.840685248
vt 0.0713696256 0.843257904
vt 0.0766738281 0.85241729
vt 0.072999157 0.780898333
vt 0.081922695 0.780262291
vt 0.07140816 0.78063035
vt 0.0713238418 0.840645909
vt 0.0729163885 0.840366364
vt 0.0804184303 0.8468647
vt 0.0818339884 0.841039538
vt 0.0731256604 0.783347309
vt 0.0730481148 0.837922275
vn 0.0334099568 0.654935837 -0.754945517
vn -0.264974266 0.93627882 0.230587348
vn -0.710971475 0.691357374 0.128625587
vn 0.219528809 0.937488735 0.270040929
vn -0.250982165 0.500069022 -0.828817785
vn -0.97249943 0.232351571 -0.0160495024
vn 0.167808518 0.651233077 -0.740091741
vn 0.219529584 0.937488198 0.270041913
vn 0.0777950734 0.259095043 -0.962713718
vn -0.246277094 0.321083456 -0.914468706
vn -0.246278435 0.321083695 -0.914468229
vn -0.972500026 0.232349634 -0.016046403
vn 0.0777952448 0.259095013 -0.962713718
vn -0.334350109 0.144025415 -0.931378841
vn -0.942265511 -0.296361476 -0.155902117
vn -0.652150452 -0.71716553 -0.245709985
vn -0.149870589 -0.127788901 -0.980412543
vn -0.219526887 -0.937487245 -0.270047396
vn 0.0777914077 0.259095818 -0.962713838
vn 0.0777916685 0.259096533 -0.962713599
vn -0.0286747012 -0.187833548 -0.981782258
vn 0.167808503 0.651233077 -0.74009186
vn -0.0286750421 -0.187833011 -0.981782258
vn -0.219525993 -0.937487364 -0.270047486
vn 0.0777909085 0.259095728 -0.962713838
vn 0.289758593 0.593684018 -0.75071919
vn 0.652151167 0.717166543 0.245705038
vn 0.942265928 0.296363175 0.155896813
vn 0.0777911171 0.259096503 -0.962713599
vn 0.106474243 -0.189035982 -0.976180613
vn 0.264974177 -0.936281443 -0.230577052
vn 0.710975528 -0.691354573 -0.128618419
vn 0.475613058 0.326469004 -0.816829443
vn 0.972498894 -0.232353956 0.0160529222
vn 0.077793844 0.259096354 -0.96271348
vn 0.0777927339 0.259096235 -0.962713599
vn 0.392239273 -0.0295679048 -0.919387996
vn 0.972498894 -0.232353672 0.0160539635
vn 0.393214971 0.16829811 -0.903912365
vn 0.393214971 0.168298066 -0.903912485
vn 0.149880975 0.127789855 0.980410874
vn 0.652151167 0.717166543 0.245705038
vn 0.942265928 0.296363175 0.155896813
vn 0.219529584 0.937488198 0.270041913
vn 0.334361881 -0.144023791 0.931374907
vn 0.972498894 -0.232353956 0.0160529222
vn 0.0286758952 0.187835127 0.98178196
vn 0.219528809 0.937488735 0.270040929
vn -0.0777936578 -0.259095579 0.962713718
vn 0.246275812 -0.321085423 0.914468288
vn 0.246275589 -0.321085513 0.914468408
vn 0.972498894 -0.232353672 0.0160539635
vn -0.0777946115 -0.259095877 0.96271348
vn 0.250977457 -0.500071824 0.828817546
vn 0.710975528 -0.691354573 -0.128618419
vn -0.033410348 -0.654938459 0.754943311
vn 0.264974177 -0.936281443 -0.230577052
vn -0.219525993 -0.937487364 -0.270047486
vn -0.0777916014 -0.259096205 0.962713718
vn -0.0777918696 -0.259096146 0.962713718
vn -0.167806894 -0.651239336 0.740086615
vn 0.0286759753 0.187835634 0.98178184
vn -0.167806447 -0.651239336 0.740086734
vn -0.219526887 -0.937487245 -0.270047396
vn -0.0777912587 -0.259096324 0.962713718
vn -0.106476083 0.189037338 0.976180136
vn -0.264974266 0.93627882 0.230587348
vn -0.710971475 0.691357374 0.128625587
vn -0.077791445 -0.259096205 0.962713718
vn -0.289756596 -0.593685627 0.750718653
vn -0.652150452 -0.71716553 -0.245709985
vn -0.392236084 0.0295711141 0.919389188
vn -0.97249943 0.232351571 -0.0160495024
vn -0.0777898282 -0.259096354 0.962713838
vn -0.0777889788 -0.259095967 0.962713957
vn -0.475614607 -0.32647258 0.816827059
vn -0.942265511 -0.296361476 -0.155902117
vn -0.972500026 0.232349634 -0.016046403
vn -0.393202841 -0.16829972 0.903917432
vn -0.393204272 -0.168299511 0.903916895
g DiZhu_Pai18_0
f 3/3/3 2/2/2 1/1/1
f 2/2/2 4/4/4 1/1/1
f 5/5/5 3/3/3 1/1/1
f 3/3/3 5/5/5 6/6/6
f 4/4/4 7/7/7 1/1/1
f 4/4/4 8/8/8 7/7/7
f 1/1/1 9/9/9 5/5/5
f 1/1/1 7/7/7 9/9/9
f 5/5/5 10/10/10 6/6/6
f 9/9/9 10/10/10 5/5/5
f 6/6/6 10/10/10 11/11/11
f 12/12/12 6/6/6 11/11/11
f 9/9/9 13/13/13 10/10/10
f 13/13/13 11/11/11 10/10/10
f 12/12/12 11/11/11 14/14/14
f 14/14/14 11/11/11 13/13/13
f 15/15/15 12/12/12 14/14/14
f 16/16/16 15/15/15 14/14/14
f 17/17/17 16/16/16 14/14/14
f 17/17/17 14/14/14 13/13/13
f 16/16/16 17/17/17 18/18/18
f 7/7/7 19/19/19 9/9/9
f 9/9/9 19/19/19 13/13/13
f 13/13/13 20/20/20 17/17/17
f 19/19/19 20/20/20 13/13/13
f 17/17/17 21/21/21 18/18/18
f 20/20/20 21/21/21 17/17/17
f 19/19/19 7/7/7 22/22/22
f 8/8/8 22/22/22 7/7/7
f 18/18/18 21/21/21 23/23/23
f 24/24/24 18/18/18 23/23/23
f 19/19/19 25/25/25 20/20/20
f 25/25/25 19/19/19 22/22/22
f 26/26/26 22/22/22 8/8/8
f 25/25/25 22/22/22 26/26/26
f 27/27/27 26/26/26 8/8/8
f 27/27/27 28/28/28 26/26/26
f 20/20/20 29/29/29 21/21/21
f 25/25/25 29/29/29 20/20/20
f 29/29/29 23/23/23 21/21/21
f 24/24/24 23/23/23 30/30/30
f 31/31/31 24/24/24 30/30/30
f 32/32/32 31/31/31 30/30/30
f 28/28/28 33/33/33 26/26/26
f 28/28/28 34/34/34 33/33/33
f 35/35/35 25/25/25 26/26/26
f 29/29/29 25/25/25 35/35/35
f 26/26/26 33/33/33 35/35/35
f 23/23/23 29/29/29 36/36/36
f 30/30/30 23/23/23 36/36/36
f 36/36/36 29/29/29 35/35/35
f 37/37/37 32/32/32 30/30/30
f 30/30/30 36/36/36 37/37/37
f 32/32/32 37/37/37 38/38/38
f 34/34/34 39/39/39 33/33/33
f 33/33/33 39/39/39 35/35/35
f 34/34/34 38/38/38 39/39/39
f 36/36/36 35/35/35 40/40/40
f 36/36/36 40/40/40 37/37/37
f 35/35/35 39/39/39 40/40/40
f 38/38/38 40/40/40 39/39/39
f 37/37/37 40/40/40 38/38/38
f 43/43/43 42/42/42 41/41/41
f 42/42/42 44/44/44 41/41/41
f 45/45/45 43/43/43 41/41/41
f 43/43/43 45/45/45 46/46/46
f 44/44/44 47/47/47 41/41/41
f 44/44/44 48/48/48 47/47/47
f 41/41/41 49/49/49 45/45/45
f 41/41/41 47/47/47 49/49/49
f 45/45/45 50/50/50 46/46/46
f 49/49/49 50/50/50 45/45/45
f 46/46/46 50/50/50 51/51/51
f 52/52/52 46/46/46 51/51/51
f 50/50/50 49/49/49 53/53/53
f 51/51/51 50/50/50 53/53/53
f 52/52/52 51/51/51 54/54/54
f 54/54/54 51/51/51 53/53/53
f 55/55/55 52/52/52 54/54/54
f 55/55/55 54/54/54 56/56/56
f 56/56/56 54/54/54 53/53/53
f 57/57/57 55/55/55 56/56/56
f 57/57/57 56/56/56 58/58/58
f 47/47/47 59/59/59 49/49/49
f 49/49/49 59/59/59 53/53/53
f 53/53/53 60/60/60 56/56/56
f 59/59/59 60/60/60 53/53/53
f 56/56/56 61/61/61 58/58/58
f 60/60/60 61/61/61 56/56/56
f 59/59/59 47/47/47 62/62/62
f 48/48/48 62/62/62 47/47/47
f 58/58/58 61/61/61 63/63/63
f 64/64/64 58/58/58 63/63/63
f 59/59/59 65/65/65 60/60/60
f 65/65/65 59/59/59 62/62/62
f 66/66/66 62/62/62 48/48/48
f 65/65/65 62/62/62 66/66/66
f 67/67/67 66/66/66 48/48/48
f 67/67/67 68/68/68 66/66/66
f 60/60/60 69/69/69 61/61/61
f 65/65/65 69/69/69 60/60/60
f 69/69/69 63/63/63 61/61/61
f 64/64/64 63/63/63 70/70/70
f 71/71/71 64/64/64 70/70/70
f 68/68/68 72/72/72 66/66/66
f 68/68/68 73/73/73 72/72/72
f 74/74/74 65/65/65 66/66/66
f 69/69/69 65/65/65 74/74/74
f 66/66/66 72/72/72 74/74/74
f 63/63/63 69/69/69 75/75/75
f 70/70/70 63/63/63 75/75/75
f 75/75/75 69/69/69 74/74/74
f 71/71/71 70/70/70 76/76/76
f 70/70/70 75/75/75 76/76/76
f 77/77/77 71/71/71 76/76/76
f 77/77/77 76/76/76 78/78/78
f 73/73/73 79/79/79 72/72/72
f 72/72/72 79/79/79 74/74/74
f 73/73/73 78/78/78 79/79/79
f 75/75/75 74/74/74 80/80/80
f 75/75/75 80/80/80 76/76/76
f 74/74/74 79/79/79 80/80/80
f 78/78/78 80/80/80 79/79/79
f 76/76/76 80/80/80 78/78/78
