g DiZhu_Pai08
v -0.372666299 -0.933098435 0.626921594
v -0.375230551 -0.92959094 0.631476939
v -0.38169688 -0.935315251 0.633622408
v -0.367556721 -0.92979598 0.629383862
v -0.378834367 -0.938558578 0.62896806
v -0.381748587 -0.94143635 0.634032786
v -0.36534667 -0.933294058 0.624925077
v -0.225655317 -0.933588326 0.590679049
v -0.372720212 -0.939485967 0.627349854
v -0.378883541 -0.944397151 0.629359484
v -0.379794568 -1.0523653 0.636598289
v -0.382703632 -1.0546273 0.641621709
v -0.373716772 -1.0576036 0.635269046
v -0.379843831 -1.05820394 0.636989713
v -0.38275522 -1.06074846 0.642032087
v -0.376388341 -1.06681561 0.640677154
v -0.373770654 -1.06399119 0.635697305
v -0.368714511 -1.06702065 0.638584077
v -0.365400523 -0.93968159 0.625353336
v -0.366397083 -1.05779922 0.633272529
v -0.366450995 -1.06418681 0.633700788
v -0.229992911 -0.936911285 0.588006198
v -0.231097236 -1.06780422 0.596781969
v -0.226813078 -1.07081294 0.599879265
v -0.230046779 -0.943298936 0.588434458
v -0.222673252 -0.937106967 0.586009741
v -0.217981562 -0.933793366 0.588585973
v -0.211614639 -0.939860582 0.58723104
v -0.231043339 -1.06141651 0.59635365
v -0.223777577 -1.06799972 0.594785452
v -0.219139338 -1.0710181 0.597786188
v -0.212672889 -1.06529391 0.595640719
v -0.216600105 -0.94289428 0.584717333
v -0.211666286 -0.945981741 0.587641418
v -0.222727165 -0.943494499 0.586438
v -0.223723695 -1.06161213 0.594357193
v -0.217609584 -1.06253958 0.592738986
v -0.212621287 -1.05917275 0.595230341
v -0.216649354 -0.948732913 0.585108757
v -0.217560306 -1.05670083 0.592347503
v -0.220599234 -0.936617792 0.593565822
v -0.217981562 -0.933793366 0.588585973
v -0.211614639 -0.939860582 0.58723104
v -0.225655317 -0.933588326 0.590679049
v -0.214526057 -0.942405164 0.592273414
v -0.211666286 -0.945981741 0.587641418
v -0.227918848 -0.936422229 0.595562339
v -0.367556721 -0.92979598 0.629383862
v -0.220653087 -0.943005323 0.593994021
v -0.214575306 -0.948243797 0.592664838
v -0.215486258 -1.05621183 0.599903584
v -0.212621287 -1.05917275 0.595230341
v -0.221649617 -1.06112301 0.601913273
v -0.215535536 -1.06205046 0.600295067
v -0.212672889 -1.06529391 0.595640719
v -0.221703544 -1.0675106 0.602341533
v -0.219139338 -1.0710181 0.597786188
v -0.226813078 -1.07081294 0.599879265
v -0.227972746 -0.94280982 0.595990539
v -0.228969276 -1.06092739 0.603909791
v -0.229023188 -1.06731498 0.60433805
v -0.363272607 -0.932804942 0.632481158
v -0.364376932 -1.0636977 0.641256928
v -0.368714511 -1.06702065 0.638584077
v -0.36332649 -0.939192474 0.632909417
v -0.370592266 -0.93260932 0.634477675
v -0.375230551 -0.92959094 0.631476939
v -0.38169688 -0.935315251 0.633622408
v -0.36432299 -1.0573101 0.640828609
v -0.371696621 -1.06350207 0.643253386
v -0.376388341 -1.06681561 0.640677154
v -0.376760334 -0.938069463 0.636524141
v -0.381748587 -0.94143635 0.634032786
v -0.370646149 -0.938996851 0.634905934
v -0.371642709 -1.05711448 0.642825127
v -0.377769768 -1.05771482 0.644545794
v -0.38275522 -1.06074846 0.642032087
v -0.382703632 -1.0546273 0.641621709
v -0.376809508 -0.943908155 0.636915565
v -0.377720505 -1.05187619 0.64415437
vt 0.0215483867 0.97464335
vt 0.0116298115 0.983688831
vt 0.0175696723 0.990104437
vt 0.00892664026 0.97552371
vt 0.0246372037 0.977273822
vt 0.0238286741 0.992519021
vt 0.0211796388 0.97105813
vt 0.00945853349 0.883443773
vt 0.0243537165 0.974552155
vt 0.0272625871 0.977492452
vt 0.0858898684 0.977450132
vt 0.0891530737 0.992469549
vt 0.0888313651 0.974504232
vt 0.0885166302 0.977228403
vt 0.0954443142 0.990040302
vt 0.101455428 0.983609915
vt 0.0916347951 0.974590421
vt 0.104248933 0.975443244
vt 0.0243343972 0.970991373
vt 0.0888911933 0.970941782
vt 0.0920456275 0.97100246
vt 0.0216618329 0.887884557
vt 0.0925277993 0.887828231
vt 0.104780771 0.88336271
vt 0.0248162188 0.887945175
vt 0.0220726877 0.884297073
vt 0.0122520356 0.875277519
vt 0.0182631537 0.86884737
vt 0.089373067 0.887894869
vt 0.0921590254 0.884242654
vt 0.10207767 0.875197113
vt 0.096137844 0.868781269
vt 0.025190901 0.88165921
vt 0.0245542638 0.866418064
vt 0.0248760916 0.884383202
vt 0.0893537924 0.884333909
vt 0.0890703052 0.881611824
vt 0.0898786411 0.866366565
vt 0.0278176405 0.88143754
vt 0.0864449739 0.881393313
vt 0.0186255015 0.777992368
vt 0.0133213466 0.768832803
vt 0.0095765423 0.774385393
vt 0.0181026272 0.766256213
vt 0.0170786157 0.780883729
vt 0.00816086866 0.780210674
vt 0.020719409 0.777624607
vt 0.0719838887 0.766277552
vt 0.0186712109 0.780604303
vt 0.0169467628 0.783327878
vt 0.016870033 0.837903142
vt 0.00807294808 0.840988219
vt 0.0185875557 0.840619922
vt 0.0169965886 0.840352118
vt 0.00947487541 0.846826792
vt 0.0185359605 0.843232393
vt 0.0132308668 0.852406502
vt 0.0180117302 0.854972959
vt 0.0207515657 0.780565202
vt 0.0206695125 0.840654194
vt 0.0206315145 0.843592942
vt 0.0693640485 0.777657568
vt 0.0692759082 0.843625844
vt 0.0718927905 0.854994059
vt 0.0693260059 0.780596256
vt 0.0714598075 0.778018117
vt 0.0767648295 0.768843949
vt 0.0805208907 0.774423778
vt 0.0692437068 0.840685248
vt 0.0713696256 0.843257904
vt 0.0766738281 0.85241729
vt 0.072999157 0.780898333
vt 0.081922695 0.780262291
vt 0.07140816 0.78063035
vt 0.0713238418 0.840645909
vt 0.0729163885 0.840366364
vt 0.0804184303 0.8468647
vt 0.0818339884 0.841039538
vt 0.0731256604 0.783347309
vt 0.0730481148 0.837922275
vn -0.361124396 0.363892406 -0.858586907
vn -0.447330803 0.892000556 0.0650391355
vn -0.815329194 0.547504127 0.188355014
vn 0.00841817167 0.99772507 -0.0668861344
vn -0.598556042 0.142524347 -0.788300395
vn -0.964436948 0.0257732347 0.263053298
vn -0.23248598 0.390781999 -0.89064002
vn 0.00841883291 0.997725189 -0.0668843538
vn -0.264180541 -0.0622993894 -0.962459028
vn -0.566583216 -0.0503619649 -0.822464049
vn -0.566585422 -0.050361868 -0.822462559
vn -0.964436293 0.0257733576 0.263055742
vn -0.264179885 -0.0622993819 -0.962459266
vn -0.601749539 -0.236396819 -0.762898445
vn -0.824200571 -0.503685355 0.258832991
vn -0.462180674 -0.867692471 0.183026612
vn -0.368151397 -0.469120353 -0.802739382
vn -0.00841694139 -0.997725666 0.0668781772
vn -0.264183849 -0.0622992367 -0.962458134
vn -0.264183909 -0.0622993149 -0.962458134
vn -0.240018785 -0.502208531 -0.830769181
vn -0.232485607 0.390782267 -0.89064002
vn -0.240018919 -0.502208948 -0.830768943
vn -0.00841719471 -0.997725904 0.0668750629
vn -0.264184117 -0.0622992367 -0.962458134
vn -0.106895335 0.357097268 -0.927930415
vn 0.462183028 0.86769104 -0.183027759
vn 0.824198782 0.503685713 -0.258837849
vn -0.264184177 -0.0622993298 -0.962458134
vn -0.113925323 -0.475918174 -0.872079611
vn 0.447330922 -0.892000079 -0.0650452524
vn 0.8153283 -0.547504306 -0.188358158
vn 0.122010283 0.123264685 -0.984844863
vn 0.964436293 -0.025773542 -0.26305598
vn -0.264185369 -0.0622991286 -0.962457776
vn -0.264185429 -0.0622994825 -0.962457716
vn 0.11881835 -0.255651593 -0.959439635
vn 0.96443671 -0.0257737543 -0.263054311
vn 0.0675905347 -0.0673097223 -0.995440125
vn 0.0675911829 -0.067309767 -0.995440006
vn 0.368148595 0.469127595 0.802736521
vn 0.462183028 0.86769104 -0.183027759
vn 0.824198782 0.503685713 -0.258837849
vn 0.00841883291 0.997725189 -0.0668843538
vn 0.601751983 0.236397237 0.762896359
vn 0.964436293 -0.025773542 -0.26305598
vn 0.24002178 0.5022071 0.830769181
vn 0.00841817167 0.99772507 -0.0668861344
vn 0.264181972 0.0622994639 0.96245867
vn 0.566589475 0.0503617972 0.822459817
vn 0.566589713 0.0503616668 0.822459638
vn 0.96443671 -0.0257737543 -0.263054311
vn 0.264182448 0.062299341 0.962458491
vn 0.598546267 -0.142524153 0.788307905
vn 0.8153283 -0.547504306 -0.188358158
vn 0.361121207 -0.363894969 0.858587205
vn 0.447330922 -0.892000079 -0.0650452524
vn -0.00841719471 -0.997725904 0.0668750629
vn 0.264184058 0.0622992814 0.962458134
vn 0.26418364 0.062299367 0.962458253
vn 0.232486188 -0.390786976 0.890637875
vn 0.24002178 0.502206922 0.83076936
vn 0.23248598 -0.390787333 0.890637755
vn -0.00841694139 -0.997725666 0.0668781772
vn 0.264184296 0.0622992665 0.962458014
vn 0.113925211 0.475918144 0.87207973
vn -0.447330803 0.892000556 0.0650391355
vn -0.815329194 0.547504127 0.188355014
vn 0.264183789 0.0622993447 0.962458134
vn 0.106900059 -0.357102394 0.927927971
vn -0.462180674 -0.867692471 0.183026612
vn -0.118814632 0.255653709 0.959439635
vn -0.964436948 0.0257732347 0.263053298
vn 0.264182687 0.0622990951 0.962458491
vn 0.264182508 0.0622992441 0.962458491
vn -0.122008219 -0.12326733 0.984844744
vn -0.824200571 -0.503685355 0.258832991
vn -0.964436293 0.0257733576 0.263055742
vn -0.0675938427 0.0673099235 0.995439768
vn -0.0675963908 0.0673099309 0.995439708
g DiZhu_Pai08_0
f 3/3/3 2/2/2 1/1/1
f 2/2/2 4/4/4 1/1/1
f 5/5/5 3/3/3 1/1/1
f 3/3/3 5/5/5 6/6/6
f 4/4/4 7/7/7 1/1/1
f 4/4/4 8/8/8 7/7/7
f 1/1/1 9/9/9 5/5/5
f 1/1/1 7/7/7 9/9/9
f 5/5/5 10/10/10 6/6/6
f 9/9/9 10/10/10 5/5/5
f 6/6/6 10/10/10 11/11/11
f 12/12/12 6/6/6 11/11/11
f 9/9/9 13/13/13 10/10/10
f 13/13/13 11/11/11 10/10/10
f 12/12/12 11/11/11 14/14/14
f 14/14/14 11/11/11 13/13/13
f 15/15/15 12/12/12 14/14/14
f 16/16/16 15/15/15 14/14/14
f 17/17/17 16/16/16 14/14/14
f 17/17/17 14/14/14 13/13/13
f 16/16/16 17/17/17 18/18/18
f 7/7/7 19/19/19 9/9/9
f 9/9/9 19/19/19 13/13/13
f 13/13/13 20/20/20 17/17/17
f 19/19/19 20/20/20 13/13/13
f 17/17/17 21/21/21 18/18/18
f 20/20/20 21/21/21 17/17/17
f 19/19/19 7/7/7 22/22/22
f 8/8/8 22/22/22 7/7/7
f 18/18/18 21/21/21 23/23/23
f 24/24/24 18/18/18 23/23/23
f 19/19/19 25/25/25 20/20/20
f 25/25/25 19/19/19 22/22/22
f 26/26/26 22/22/22 8/8/8
f 25/25/25 22/22/22 26/26/26
f 27/27/27 26/26/26 8/8/8
f 27/27/27 28/28/28 26/26/26
f 20/20/20 29/29/29 21/21/21
f 25/25/25 29/29/29 20/20/20
f 29/29/29 23/23/23 21/21/21
f 24/24/24 23/23/23 30/30/30
f 31/31/31 24/24/24 30/30/30
f 32/32/32 31/31/31 30/30/30
f 28/28/28 33/33/33 26/26/26
f 28/28/28 34/34/34 33/33/33
f 35/35/35 25/25/25 26/26/26
f 29/29/29 25/25/25 35/35/35
f 26/26/26 33/33/33 35/35/35
f 23/23/23 29/29/29 36/36/36
f 30/30/30 23/23/23 36/36/36
f 36/36/36 29/29/29 35/35/35
f 37/37/37 32/32/32 30/30/30
f 30/30/30 36/36/36 37/37/37
f 32/32/32 37/37/37 38/38/38
f 34/34/34 39/39/39 33/33/33
f 33/33/33 39/39/39 35/35/35
f 34/34/34 38/38/38 39/39/39
f 36/36/36 35/35/35 40/40/40
f 36/36/36 40/40/40 37/37/37
f 35/35/35 39/39/39 40/40/40
f 38/38/38 40/40/40 39/39/39
f 37/37/37 40/40/40 38/38/38
f 43/43/43 42/42/42 41/41/41
f 42/42/42 44/44/44 41/41/41
f 45/45/45 43/43/43 41/41/41
f 43/43/43 45/45/45 46/46/46
f 44/44/44 47/47/47 41/41/41
f 44/44/44 48/48/48 47/47/47
f 41/41/41 49/49/49 45/45/45
f 41/41/41 47/47/47 49/49/49
f 45/45/45 50/50/50 46/46/46
f 49/49/49 50/50/50 45/45/45
f 46/46/46 50/50/50 51/51/51
f 52/52/52 46/46/46 51/51/51
f 50/50/50 49/49/49 53/53/53
f 51/51/51 50/50/50 53/53/53
f 52/52/52 51/51/51 54/54/54
f 54/54/54 51/51/51 53/53/53
f 55/55/55 52/52/52 54/54/54
f 55/55/55 54/54/54 56/56/56
f 56/56/56 54/54/54 53/53/53
f 57/57/57 55/55/55 56/56/56
f 57/57/57 56/56/56 58/58/58
f 47/47/47 59/59/59 49/49/49
f 49/49/49 59/59/59 53/53/53
f 53/53/53 60/60/60 56/56/56
f 59/59/59 60/60/60 53/53/53
f 56/56/56 61/61/61 58/58/58
f 60/60/60 61/61/61 56/56/56
f 59/59/59 47/47/47 62/62/62
f 48/48/48 62/62/62 47/47/47
f 58/58/58 61/61/61 63/63/63
f 64/64/64 58/58/58 63/63/63
f 59/59/59 65/65/65 60/60/60
f 65/65/65 59/59/59 62/62/62
f 66/66/66 62/62/62 48/48/48
f 65/65/65 62/62/62 66/66/66
f 67/67/67 66/66/66 48/48/48
f 67/67/67 68/68/68 66/66/66
f 60/60/60 69/69/69 61/61/61
f 65/65/65 69/69/69 60/60/60
f 69/69/69 63/63/63 61/61/61
f 64/64/64 63/63/63 70/70/70
f 71/71/71 64/64/64 70/70/70
f 68/68/68 72/72/72 66/66/66
f 68/68/68 73/73/73 72/72/72
f 74/74/74 65/65/65 66/66/66
f 69/69/69 65/65/65 74/74/74
f 66/66/66 72/72/72 74/74/74
f 63/63/63 69/69/69 75/75/75
f 70/70/70 63/63/63 75/75/75
f 75/75/75 69/69/69 74/74/74
f 71/71/71 70/70/70 76/76/76
f 70/70/70 75/75/75 76/76/76
f 77/77/77 71/71/71 76/76/76
f 77/77/77 76/76/76 78/78/78
f 73/73/73 79/79/79 72/72/72
f 72/72/72 79/79/79 74/74/74
f 73/73/73 78/78/78 79/79/79
f 75/75/75 74/74/74 80/80/80
f 75/75/75 80/80/80 76/76/76
f 74/74/74 79/79/79 80/80/80
f 78/78/78 80/80/80 79/79/79
f 76/76/76 80/80/80 78/78/78
