g Pai003
v 0.411649048 0.00733812852 0.679878533
v 0.408192843 0.0112266252 0.683316708
v 0.413449764 0.0112266252 0.690392613
v 0.408879846 0.011226628 0.675464869
v 0.416663378 0.00733812712 0.686627865
v 0.419504076 0.0112266252 0.690922201
v 0.412304282 0.00733812992 0.672388911
v 0.421582818 0.0112266503 0.530268788
v 0.417966783 0.00733812805 0.680431187
v 0.422438294 0.00733812712 0.687133074
v 0.529227197 0.00733812666 0.696475804
v 0.531458855 0.0112266243 0.700716972
v 0.534794509 0.00733812805 0.69065237
v 0.535002112 0.00733812666 0.696981132
v 0.537513137 0.0112266243 0.701246679
v 0.543918967 0.0112266261 0.695191264
v 0.541112304 0.00733812805 0.691205025
v 0.544605851 0.0112266261 0.687339306
v 0.418622077 0.00733812992 0.672941625
v 0.535449743 0.00733812898 0.683162749
v 0.541767538 0.00733812898 0.683715522
v 0.424421161 0.0073381518 0.533892632
v 0.553884447 0.0073381518 0.545219243
v 0.557308853 0.0112266494 0.542143285
v 0.430738986 0.0073381518 0.534445345
v 0.425076395 0.00733815273 0.52640301
v 0.422269762 0.0112266513 0.52241689
v 0.428675562 0.0112266522 0.516361415
v 0.547566652 0.0073381518 0.544666469
v 0.55453968 0.00733815273 0.537729561
v 0.557995796 0.0112266513 0.534291387
v 0.552738905 0.0112266541 0.52721554
v 0.431186587 0.00733815553 0.520626962
v 0.434729844 0.0112266513 0.516891062
v 0.431394219 0.00733815273 0.526955783
v 0.548221886 0.00733815366 0.537176847
v 0.549525261 0.00733815413 0.530980289
v 0.546684623 0.0112266541 0.526685834
v 0.436961502 0.00733815553 0.521132231
v 0.543750346 0.00733815553 0.53047502
v 0.425076365 0.0151151484 0.52640301
v 0.422269762 0.0112266513 0.52241689
v 0.428675562 0.0112266522 0.516361415
v 0.421582818 0.0112266503 0.530268788
v 0.431186587 0.0151151475 0.520626962
v 0.434729844 0.0112266513 0.516891062
v 0.424421161 0.0151151465 0.533892632
v 0.408879846 0.011226628 0.675464869
v 0.43139419 0.0151151475 0.526955783
v 0.436961502 0.0151151475 0.521132231
v 0.543750346 0.0151151484 0.53047502
v 0.546684623 0.0112266541 0.526685834
v 0.548221886 0.0151151475 0.537176847
v 0.549525261 0.0151151484 0.530980289
v 0.552738905 0.0112266541 0.52721554
v 0.55453968 0.0151151475 0.537729561
v 0.557995796 0.0112266513 0.534291387
v 0.557308853 0.0112266494 0.542143285
v 0.430738986 0.0151151465 0.534445345
v 0.547566652 0.0151151447 0.544666409
v 0.553884447 0.0151151447 0.545219243
v 0.412304282 0.0151151251 0.672388911
v 0.541767538 0.0151151251 0.683715522
v 0.544605851 0.0112266261 0.687339306
v 0.418622077 0.0151151251 0.672941625
v 0.411649048 0.0151151223 0.679878533
v 0.408192843 0.0112266252 0.683316708
v 0.413449764 0.0112266252 0.690392613
v 0.535449743 0.0151151232 0.683162749
v 0.541112304 0.0151151251 0.691205025
v 0.543918967 0.0112266261 0.695191264
v 0.416663378 0.0151151204 0.686627865
v 0.419504076 0.0112266252 0.690922201
v 0.417966783 0.0151151223 0.680431187
v 0.534794509 0.0151151232 0.69065237
v 0.535002112 0.0151151223 0.696981132
v 0.537513137 0.0112266243 0.701246679
v 0.531458855 0.0112266243 0.700716972
v 0.422438294 0.0151151214 0.687133074
v 0.529227197 0.0151151223 0.696475804
vt 0.336480826 0.97464335
vt 0.326562196 0.983688831
vt 0.332502097 0.990104437
vt 0.323859066 0.97552371
vt 0.339569658 0.977273822
vt 0.338761061 0.992519021
vt 0.336112052 0.97105813
vt 0.324390978 0.883443773
vt 0.339286119 0.974552155
vt 0.342195004 0.977492452
vt 0.400822312 0.977450132
vt 0.404085547 0.992469549
vt 0.403763801 0.974504232
vt 0.403449029 0.977228403
vt 0.410376757 0.990040302
vt 0.416387886 0.983609915
vt 0.406567246 0.974590421
vt 0.419181317 0.975443244
vt 0.339266807 0.970991373
vt 0.403823644 0.970941782
vt 0.406978041 0.97100246
vt 0.336594313 0.887884557
vt 0.407460183 0.887828231
vt 0.419713169 0.88336271
vt 0.339748651 0.887945175
vt 0.337005109 0.884297073
vt 0.327184469 0.875277519
vt 0.333195537 0.86884737
vt 0.404305547 0.887894869
vt 0.407091469 0.884242654
vt 0.417010099 0.875197113
vt 0.411070257 0.868781269
vt 0.340123326 0.88165921
vt 0.339486688 0.866418064
vt 0.339808494 0.884383202
vt 0.404286176 0.884333909
vt 0.404002756 0.881611824
vt 0.404811054 0.866366565
vt 0.342750102 0.88143754
vt 0.40137741 0.881393313
vt 0.180752262 0.777992368
vt 0.175448135 0.768832803
vt 0.171703354 0.774385393
vt 0.18022944 0.766256213
vt 0.179205418 0.780883729
vt 0.170287699 0.780210674
vt 0.182846218 0.777624607
vt 0.234110698 0.766277552
vt 0.180797994 0.780604303
vt 0.179073602 0.783327878
vt 0.178996816 0.837903142
vt 0.170199782 0.840988219
vt 0.180714414 0.840619922
vt 0.179123417 0.840352118
vt 0.171601683 0.846826792
vt 0.180662766 0.843232393
vt 0.175357655 0.852406502
vt 0.180138513 0.854972959
vt 0.182878345 0.780565202
vt 0.182796344 0.840654194
vt 0.182758301 0.843592942
vt 0.231490865 0.777657568
vt 0.23140271 0.843625844
vt 0.234019592 0.854994059
vt 0.231452838 0.780596256
vt 0.233586505 0.778018117
vt 0.238891616 0.768843949
vt 0.242647678 0.774423778
vt 0.231370524 0.840685248
vt 0.233496442 0.843257904
vt 0.23880069 0.85241729
vt 0.235125944 0.780898333
vt 0.244049579 0.780262291
vt 0.233534887 0.78063035
vt 0.233450666 0.840645909
vt 0.235043153 0.840366364
vt 0.242545277 0.8468647
vt 0.243960768 0.841039538
vt 0.235252514 0.783347309
vt 0.235174969 0.837922275
vn -0.442768306 -0.893771172 0.0716188177
vn -0.940481961 0 0.33984375
vn -0.514714301 0 0.857361734
vn -0.996194601 0 -0.0871571451
vn -0.178603634 -0.912524641 0.36796692
vn -0.0871517882 1.09302697E-07 0.996195078
vn -0.429256827 -0.902401328 -0.0375555269
vn -0.996194839 -1.41499618E-06 -0.0871543065
vn -0 -1 -1.5742927E-07
vn -0.0326290093 -0.927272856 0.372961789
vn -0.0326306038 -0.927273571 0.372959733
vn -0.0871600658 0 0.996194363
vn -0 -1 -1.76663349E-07
vn 0.111992575 -0.912525594 0.393388718
vn 0.358011663 -1.19737265E-07 0.933717132
vn 0.86717844 0 0.497997671
vn 0.423603714 -0.893772006 0.147416338
vn 0.99619472 0 0.0871554986
vn -0 -1 -1.79405802E-07
vn -0 -1 -1.69577277E-07
vn 0.429257989 -0.902400851 0.0375550352
vn -0.429256529 -0.902401507 -0.0375550911
vn 0.42925787 -0.902400851 0.0375549123
vn 0.99619472 0 0.0871550888
vn -0 -1 -1.68398699E-07
vn -0.423605144 -0.893770933 -0.147418454
vn -0.867177904 -6.43287649E-07 -0.497998446
vn -0.358013332 -2.19516153E-07 -0.933716476
vn -0 -1 -1.8036242E-07
vn 0.442768991 -0.893770695 -0.0716213882
vn 0.940480173 1.0721444E-07 -0.339848578
vn 0.514715135 3.79164618E-07 -0.857361257
vn -0.111993887 -0.912524819 -0.393390179
vn 0.087156117 0 -0.99619472
vn -0 -1 -2.70936482E-07
vn -0 -1 -1.91444826E-07
vn 0.178604215 -0.912525296 -0.367964834
vn 0.0871581286 2.45932796E-07 -0.996194482
vn 0.0326299332 -0.927273035 -0.372961134
vn 0.0326303728 -0.927272916 -0.372961402
vn -0.423607618 0.893769801 -0.147417963
vn -0.867177904 -6.43287649E-07 -0.497998446
vn -0.358013332 -2.19516153E-07 -0.933716476
vn -0.996194839 -1.41499618E-06 -0.0871543065
vn -0.111993603 0.912524819 -0.393390149
vn 0.087156117 0 -0.99619472
vn -0.429256558 0.902401507 -0.0375544466
vn -0.996194601 0 -0.0871571451
vn -0 1 1.32857835E-07
vn 0.0326299369 0.927273154 -0.372960895
vn 0.0326303653 0.927273035 -0.372961134
vn 0.0871581286 2.45932796E-07 -0.996194482
vn -0 1 2.19252797E-07
vn 0.178604215 0.912525415 -0.367964387
vn 0.514715135 3.79164618E-07 -0.857361257
vn 0.442768991 0.893770695 -0.0716209486
vn 0.940480173 1.0721444E-07 -0.339848578
vn 0.99619472 0 0.0871550888
vn -0 1 1.97726138E-07
vn -0 1 2.12307569E-07
vn 0.42925781 0.902400851 0.0375552736
vn -0.429256737 0.902401388 -0.0375551581
vn 0.4292579 0.902400851 0.0375552401
vn 0.99619472 0 0.0871554986
vn -0 1 1.95567821E-07
vn -0.442768216 0.893771172 0.0716191605
vn -0.940481961 0 0.33984375
vn -0.514714301 0 0.857361734
vn -0 1 1.09378E-07
vn 0.423603654 0.893772006 0.147416547
vn 0.86717844 0 0.497997671
vn -0.178603619 0.912524641 0.36796695
vn -0.0871517882 1.09302697E-07 0.996195078
vn -0 1 2.73045373E-07
vn -0 1 1.30873389E-07
vn 0.111992426 0.912525535 0.393389046
vn 0.358011663 -1.19737265E-07 0.933717132
vn -0.0871600658 0 0.996194363
vn -0.0326290391 0.927272737 0.372961849
vn -0.032630641 0.927273452 0.372960001
g Pai003_0
f 3/3/3 2/2/2 1/1/1
f 2/2/2 4/4/4 1/1/1
f 5/5/5 3/3/3 1/1/1
f 3/3/3 5/5/5 6/6/6
f 4/4/4 7/7/7 1/1/1
f 4/4/4 8/8/8 7/7/7
f 1/1/1 9/9/9 5/5/5
f 1/1/1 7/7/7 9/9/9
f 5/5/5 10/10/10 6/6/6
f 9/9/9 10/10/10 5/5/5
f 6/6/6 10/10/10 11/11/11
f 12/12/12 6/6/6 11/11/11
f 9/9/9 13/13/13 10/10/10
f 13/13/13 11/11/11 10/10/10
f 12/12/12 11/11/11 14/14/14
f 14/14/14 11/11/11 13/13/13
f 15/15/15 12/12/12 14/14/14
f 16/16/16 15/15/15 14/14/14
f 17/17/17 16/16/16 14/14/14
f 17/17/17 14/14/14 13/13/13
f 16/16/16 17/17/17 18/18/18
f 7/7/7 19/19/19 9/9/9
f 9/9/9 19/19/19 13/13/13
f 13/13/13 20/20/20 17/17/17
f 19/19/19 20/20/20 13/13/13
f 17/17/17 21/21/21 18/18/18
f 20/20/20 21/21/21 17/17/17
f 19/19/19 7/7/7 22/22/22
f 8/8/8 22/22/22 7/7/7
f 18/18/18 21/21/21 23/23/23
f 24/24/24 18/18/18 23/23/23
f 19/19/19 25/25/25 20/20/20
f 25/25/25 19/19/19 22/22/22
f 26/26/26 22/22/22 8/8/8
f 25/25/25 22/22/22 26/26/26
f 27/27/27 26/26/26 8/8/8
f 27/27/27 28/28/28 26/26/26
f 20/20/20 29/29/29 21/21/21
f 25/25/25 29/29/29 20/20/20
f 29/29/29 23/23/23 21/21/21
f 24/24/24 23/23/23 30/30/30
f 31/31/31 24/24/24 30/30/30
f 32/32/32 31/31/31 30/30/30
f 28/28/28 33/33/33 26/26/26
f 28/28/28 34/34/34 33/33/33
f 35/35/35 25/25/25 26/26/26
f 29/29/29 25/25/25 35/35/35
f 26/26/26 33/33/33 35/35/35
f 23/23/23 29/29/29 36/36/36
f 30/30/30 23/23/23 36/36/36
f 36/36/36 29/29/29 35/35/35
f 37/37/37 32/32/32 30/30/30
f 30/30/30 36/36/36 37/37/37
f 32/32/32 37/37/37 38/38/38
f 34/34/34 39/39/39 33/33/33
f 33/33/33 39/39/39 35/35/35
f 34/34/34 38/38/38 39/39/39
f 36/36/36 35/35/35 40/40/40
f 36/36/36 40/40/40 37/37/37
f 35/35/35 39/39/39 40/40/40
f 38/38/38 40/40/40 39/39/39
f 37/37/37 40/40/40 38/38/38
f 43/43/43 42/42/42 41/41/41
f 42/42/42 44/44/44 41/41/41
f 45/45/45 43/43/43 41/41/41
f 43/43/43 45/45/45 46/46/46
f 44/44/44 47/47/47 41/41/41
f 44/44/44 48/48/48 47/47/47
f 41/41/41 49/49/49 45/45/45
f 41/41/41 47/47/47 49/49/49
f 45/45/45 50/50/50 46/46/46
f 49/49/49 50/50/50 45/45/45
f 46/46/46 50/50/50 51/51/51
f 52/52/52 46/46/46 51/51/51
f 50/50/50 49/49/49 53/53/53
f 51/51/51 50/50/50 53/53/53
f 52/52/52 51/51/51 54/54/54
f 54/54/54 51/51/51 53/53/53
f 55/55/55 52/52/52 54/54/54
f 55/55/55 54/54/54 56/56/56
f 56/56/56 54/54/54 53/53/53
f 57/57/57 55/55/55 56/56/56
f 57/57/57 56/56/56 58/58/58
f 47/47/47 59/59/59 49/49/49
f 49/49/49 59/59/59 53/53/53
f 53/53/53 60/60/60 56/56/56
f 59/59/59 60/60/60 53/53/53
f 56/56/56 61/61/61 58/58/58
f 60/60/60 61/61/61 56/56/56
f 59/59/59 47/47/47 62/62/62
f 48/48/48 62/62/62 47/47/47
f 58/58/58 61/61/61 63/63/63
f 64/64/64 58/58/58 63/63/63
f 59/59/59 65/65/65 60/60/60
f 65/65/65 59/59/59 62/62/62
f 66/66/66 62/62/62 48/48/48
f 65/65/65 62/62/62 66/66/66
f 67/67/67 66/66/66 48/48/48
f 67/67/67 68/68/68 66/66/66
f 60/60/60 69/69/69 61/61/61
f 65/65/65 69/69/69 60/60/60
f 69/69/69 63/63/63 61/61/61
f 64/64/64 63/63/63 70/70/70
f 71/71/71 64/64/64 70/70/70
f 68/68/68 72/72/72 66/66/66
f 68/68/68 73/73/73 72/72/72
f 74/74/74 65/65/65 66/66/66
f 69/69/69 65/65/65 74/74/74
f 66/66/66 72/72/72 74/74/74
f 63/63/63 69/69/69 75/75/75
f 70/70/70 63/63/63 75/75/75
f 75/75/75 69/69/69 74/74/74
f 71/71/71 70/70/70 76/76/76
f 70/70/70 75/75/75 76/76/76
f 77/77/77 71/71/71 76/76/76
f 77/77/77 76/76/76 78/78/78
f 73/73/73 79/79/79 72/72/72
f 72/72/72 79/79/79 74/74/74
f 73/73/73 78/78/78 79/79/79
f 75/75/75 74/74/74 80/80/80
f 75/75/75 80/80/80 76/76/76
f 74/74/74 79/79/79 80/80/80
f 78/78/78 80/80/80 79/79/79
f 76/76/76 80/80/80 78/78/78
