g ShouZhang
v -0.533549011 0.0227092505 0.0593900867
v -0.533549964 0.0227092505 0.0456360988
v -0.522254944 0.0196822491 0.0456360988
v -0.522254944 0.0196822491 0.0593900867
v -0.513987005 0.0114142364 0.0456360802
v -0.513987005 0.0114142364 0.0593900867
v -0.510959983 0.000119242664 0.0456360802
v -0.510959983 0.000120234487 0.0593900867
v -0.513987005 -0.0111747598 0.0456360802
v -0.513985991 -0.0111747598 0.0593900867
v -0.522254944 -0.0194437634 0.0456360802
v -0.522254944 -0.0194427539 0.0593900867
v -0.533549011 -0.0224697534 0.0456360802
v -0.533549964 -0.0224697534 0.0593900867
v -0.544844031 -0.0194437634 0.0456360802
v -0.544844031 -0.0194427539 0.0593900867
v -0.55311197 -0.0111747598 0.0456360802
v -0.55311197 -0.0111747598 0.0593900867
v -0.556138992 0.000119242664 0.0456360802
v -0.556138992 0.000119242664 0.0593900867
v -0.55311197 0.0114142364 0.0456360802
v -0.55311197 0.0114142364 0.0593900867
v -0.544844031 0.0196822491 0.0456360988
v -0.544844031 0.0196822491 0.0593900867
v -0.533549964 0.0227092505 0.0456360988
v -0.533549011 0.0227092505 0.0593900867
v -0.524658024 0.0155201666 0.204535097
v -0.533549011 0.0179021601 0.204535097
v -0.533549011 0.0179022364 0.0616781041
v -0.524658024 0.015520243 0.0616781041
v -0.518148959 0.00901116803 0.204535097
v -0.518148959 0.0090112444 0.0616780855
v -0.515766978 0.000119166369 0.204535097
v -0.515766978 0.000119242664 0.0616780855
v -0.518148959 -0.00877182465 0.204535097
v -0.518148959 -0.00877174828 0.0616780855
v -0.524658024 -0.0152808232 0.204535097
v -0.524658024 -0.0152807469 0.0616780855
v -0.533549011 -0.0176628344 0.204535097
v -0.533549011 -0.017662758 0.0616780855
v -0.542440951 -0.0152808232 0.204535097
v -0.542440951 -0.0152807469 0.0616780855
v -0.548950016 -0.00877182465 0.204535097
v -0.548950016 -0.00877174828 0.0616780855
v -0.551331997 0.000119166369 0.204535097
v -0.551331997 0.000119242664 0.0616780855
v -0.548950016 0.00901116803 0.204535097
v -0.548950016 0.0090112444 0.0616780855
v -0.542440951 0.0155201666 0.204535097
v -0.542440951 0.015520243 0.0616781041
v -0.533549011 0.0179021601 0.204535097
v -0.533549011 0.0179022364 0.0616781041
v -0.550409973 -0.00690277573 0.0478290841
v -0.557356 4.32346751E-05 0.0395000838
v -0.551791012 4.32156012E-05 0.0478290841
v -0.555550992 -0.00903274957 0.0395000838
v -0.546474993 -0.0127917714 0.0478290841
v -0.559309959 4.32346751E-05 0.0296760853
v -0.550409973 -0.0167267658 0.03950008
v -0.540584981 -0.0167267844 0.0478290804
v -0.557356 -0.00978075527 0.0296760835
v -0.557356 4.32346751E-05 0.0198520869
v -0.542715013 -0.0218687486 0.03950008
v -0.533638954 -0.0181087721 0.0478290804
v -0.551791012 -0.0181087535 0.0296760816
v -0.555550992 -0.00903274957 0.0198520832
v -0.551791012 4.32346751E-05 0.0115230866
v -0.533638954 -0.0236737486 0.03950008
v -0.526691973 -0.0167267844 0.0478290804
v -0.543462992 -0.0236737486 0.0296760798
v -0.550409973 -0.0167267658 0.0198520813
v -0.550409973 -0.00690275664 0.0115230847
v -0.543462992 4.32346751E-05 0.00595808728
v -0.524562001 -0.0218687486 0.03950008
v -0.520802975 -0.0127917714 0.0478290841
v -0.533638954 -0.0256277509 0.0296760798
v -0.542715013 -0.0218687486 0.0198520795
v -0.546474993 -0.0127917528 0.0115230819
v -0.542715013 -0.00371574867 0.00595808495
v -0.533638954 4.32346751E-05 0.0040040873
v -0.516867995 -0.0167267658 0.03950008
v -0.516867995 -0.00690277573 0.0478290841
v -0.523814976 -0.0236737486 0.0296760798
v -0.533638954 -0.0236737486 0.0198520776
v -0.540584981 -0.0167267658 0.011523081
v -0.540584981 -0.00690275664 0.00595808495
v -0.511726975 -0.00903274957 0.0395000838
v -0.515486002 4.32156012E-05 0.0478290841
v -0.509921014 4.32346751E-05 0.0395000838
v -0.515486002 -0.0181087535 0.0296760816
v -0.509921014 -0.00978075527 0.0296760835
v -0.507966995 4.32346751E-05 0.0296760853
v -0.524562001 -0.0218687486 0.0198520795
v -0.533638954 -0.0181087535 0.0115230801
v -0.537397981 -0.00903274957 0.00595808355
v -0.511726975 -0.00903274957 0.0198520832
v -0.509921014 4.32346751E-05 0.0198520869
v -0.516867995 -0.0167267658 0.0198520813
v -0.526691973 -0.0167267658 0.011523081
v -0.533638954 -0.00978075527 0.00595808262
v -0.516867995 -0.00690275664 0.0115230847
v -0.515486002 4.32346751E-05 0.0115230866
v -0.520802975 -0.0127917528 0.0115230819
v -0.529878974 -0.00903274957 0.00595808355
v -0.526691973 -0.00690275664 0.00595808495
v -0.524562001 -0.00371574867 0.00595808495
v -0.523814976 4.32346751E-05 0.00595808728
v -0.516867995 0.00699021807 0.0478290878
v -0.509921014 4.32346751E-05 0.0395000838
v -0.515486002 4.32156012E-05 0.0478290841
v -0.511726975 0.00912024919 0.0395000912
v -0.520802975 0.0128792329 0.0478290915
v -0.507966995 4.32346751E-05 0.0296760853
v -0.516867995 0.0168142449 0.0395000912
v -0.526691973 0.0168142263 0.0478290915
v -0.509921014 0.00986823533 0.0296760909
v -0.509921014 4.32346751E-05 0.0198520869
v -0.524562001 0.0219562482 0.0395000987
v -0.533638954 0.0181962159 0.0478290915
v -0.515486002 0.0181962345 0.0296760928
v -0.511726975 0.00912024919 0.0198520925
v -0.515486002 4.32346751E-05 0.0115230866
v -0.533638954 0.0237612482 0.0395000987
v -0.540584981 0.0168142263 0.0478290915
v -0.523814976 0.0237612482 0.0296760984
v -0.516867995 0.0168142449 0.0198520944
v -0.516867995 0.00699023716 0.0115230894
v -0.523814976 4.32346751E-05 0.00595808728
v -0.542715013 0.0219562482 0.0395000987
v -0.546474993 0.0128792329 0.0478290915
v -0.533638954 0.0257152505 0.0296760984
v -0.524562001 0.0219562482 0.0198520962
v -0.520802975 0.0128792524 0.0115230912
v -0.524562001 0.00380324828 0.00595808867
v -0.533638954 4.32346751E-05 0.0040040873
v -0.550409973 0.0168142449 0.0395000912
v -0.550409973 0.00699021807 0.0478290878
v -0.543462992 0.0237612482 0.0296760984
v -0.533638954 0.0237612482 0.0198520962
v -0.526691973 0.0168142449 0.011523094
v -0.526691973 0.00699023716 0.0059580896
v -0.555550992 0.00912024919 0.0395000912
v -0.551791012 4.32156012E-05 0.0478290841
v -0.557356 4.32346751E-05 0.0395000838
v -0.551791012 0.0181962345 0.0296760928
v -0.557356 0.00986823533 0.0296760909
v -0.559309959 4.32346751E-05 0.0296760853
v -0.542715013 0.0219562482 0.0198520962
v -0.533638954 0.0181962345 0.011523095
v -0.529878974 0.00912024919 0.0059580896
v -0.555550992 0.00912024919 0.0198520925
v -0.557356 4.32346751E-05 0.0198520869
v -0.550409973 0.0168142449 0.0198520944
v -0.540584981 0.0168142449 0.011523094
v -0.533638954 0.00986823533 0.005958091
v -0.550409973 0.00699023716 0.0115230894
v -0.551791012 4.32346751E-05 0.0115230866
v -0.546474993 0.0128792524 0.0115230912
v -0.537397981 0.00912024919 0.0059580896
v -0.540584981 0.00699023716 0.0059580896
v -0.542715013 0.00380324828 0.00595808867
v -0.543462992 4.32346751E-05 0.00595808728
v -0.533549011 0.0303231571 0.218752086
v -0.533549964 0.0303231571 0.206325084
v -0.518446982 0.0262771752 0.206325084
v -0.518446982 0.0262771752 0.218752086
v -0.507391989 0.0152211711 0.206325084
v -0.507391989 0.0152221629 0.218752086
v -0.503344953 0.000119166369 0.206325084
v -0.503344953 0.000120158191 0.218752086
v -0.507391989 -0.0149828382 0.206325084
v -0.507391989 -0.0149818277 0.218752086
v -0.518447995 -0.0260378309 0.206325069
v -0.518446982 -0.0260378309 0.218752071
v -0.533549011 -0.0300838314 0.206325069
v -0.533549011 -0.0300838314 0.218752071
v -0.54865098 -0.0260378309 0.206325069
v -0.548651993 -0.0260378309 0.218752071
v -0.559706986 -0.0149828382 0.206325084
v -0.559706986 -0.0149828382 0.218752086
v -0.563753009 0.000119166369 0.206325084
v -0.563753009 0.000120158191 0.218752086
v -0.559706986 0.0152211711 0.206325084
v -0.559706986 0.0152221629 0.218752086
v -0.54865098 0.0262771752 0.206325084
v -0.54865098 0.0262771752 0.218752086
v -0.533549964 0.0303231571 0.206325084
v -0.533549011 0.0303231571 0.218752086
v -0.556306005 0.000119166369 0.240700081
v -0.556492984 0.000119166369 0.221636102
v -0.553418994 0.0115911625 0.221636102
v -0.553326964 0.0118791722 0.241318092
v -0.55615598 0.000119166369 0.262571067
v -0.545020998 0.0199891608 0.221636102
v -0.553559959 0.0120081659 0.264094085
v -0.556158006 0.000119166369 0.267601073
v -0.544969976 0.0205261745 0.243005097
v -0.533549011 0.0230631586 0.221636102
v -0.553779006 0.0119381668 0.269335091
v -0.556159973 0.000119166369 0.272632092
v -0.533517003 0.0237351749 0.24531509
v -0.522077978 0.0199891608 0.221636102
v -0.545378983 0.0207101572 0.268261075
v -0.55399698 0.0118691586 0.274576098
v -0.560681999 0.000119166369 0.278161079
v -0.521921992 0.0205671638 0.24763608
v -0.513679981 0.0115911625 0.221636102
v -0.534359992 0.0238961745 0.274091095
v -0.546154976 0.0205901675 0.274827093
v -0.558950007 0.0117301513 0.280526102
v -0.566608012 0.000119147298 0.282235086
v -0.51335901 0.0119241662 0.249307096
v -0.510605991 0.000119166369 0.221636102
v -0.548132002 0.0204701554 0.280610085
v -0.522113979 0.0207101572 0.279843092
v -0.536197007 0.0237571467 0.281892091
v -0.565308988 0.011591143 0.285021096
v -0.572921991 0.000119147298 0.284601092
v -0.554243028 0.0202301554 0.287349075
v -0.540057957 0.0235951561 0.289066106
v -0.524586976 0.020590147 0.289095104
v -0.513821959 0.0120081473 0.283904076
v -0.572333992 0.011591143 0.28741309
v -0.579626977 0.000119147298 0.285513103
v -0.510257959 0.000119166369 0.249919087
v -0.51335901 -0.0116848415 0.249307096
v -0.513679981 -0.0113518378 0.221636102
v -0.521921992 -0.02032784 0.24763608
v -0.522077978 -0.019749837 0.221636102
v -0.533517003 -0.0234958306 0.24531509
v -0.533549011 -0.0228238348 0.221636102
v -0.544969976 -0.020286832 0.243005097
v -0.545020998 -0.019749837 0.221636102
v -0.553326964 -0.0116398288 0.241318092
v -0.553418994 -0.0113518378 0.221636102
v -0.556306005 0.000119166369 0.240700081
v -0.556492984 0.000119166369 0.221636102
v -0.55615598 0.000119166369 0.262571067
v -0.553559959 -0.0117688412 0.264094085
v -0.556158006 0.000119166369 0.267601073
v -0.545378983 -0.0204708334 0.268261075
v -0.553779006 -0.011698842 0.269335091
v -0.556159973 0.000119166369 0.272632092
v -0.534359992 -0.0236568302 0.274091095
v -0.546154976 -0.0203508418 0.274827093
v -0.55399698 -0.0116298338 0.274576098
v -0.560681999 0.000119166369 0.278161079
v -0.522113979 -0.0204708334 0.279843092
v -0.536197007 -0.0235178601 0.281892091
v -0.558950007 -0.0114908451 0.280526102
v -0.566608012 0.000119147298 0.282235086
v -0.548132002 -0.0202308502 0.280610085
v -0.513821959 -0.0117688607 0.283904076
v -0.565308988 -0.0113518573 0.285021096
v -0.572921991 0.000119147298 0.284601092
v -0.524586976 -0.0203508604 0.289095104
v -0.554243028 -0.0199908484 0.287349075
v -0.540057957 -0.0233558509 0.289066106
v -0.511213005 0.000119147298 0.285387099
v -0.517174959 -0.0116988607 0.293738097
v -0.530472994 -0.0201978534 0.298736095
v -0.547806025 -0.0230888594 0.296554089
v -0.517174959 0.0119381472 0.293738097
v -0.514889956 0.000119147298 0.295442104
v -0.530472994 0.02043714 0.298736095
v -0.561759949 -0.0197498556 0.292632103
v -0.524470985 -0.0116068507 0.304473102
v -0.524470985 0.0118461559 0.304473102
v -0.522678971 0.000119147298 0.306567103
v -0.535470009 -0.0114798592 0.313271105
v -0.535470009 0.0117191458 0.313271105
v -0.547806025 0.023328146 0.296554089
v -0.540802002 -0.019968858 0.306564093
v -0.533833981 0.000119147298 0.315643102
v -0.547214985 0.000119128228 0.322995067
v -0.540802002 0.0202081446 0.306564093
v -0.548513949 -0.011351876 0.320209086
v -0.552062988 -0.0197498556 0.312597096
v -0.548513949 0.0115911243 0.320209086
v -0.564149976 0.000119128228 0.327074081
v -0.552062988 0.0199891422 0.312597096
v -0.556912005 -0.0228238534 0.302200079
v -0.564737022 -0.011351876 0.324262083
v -0.581476986 0.000119128228 0.327867091
v -0.564737022 0.0115911243 0.324262083
v -0.566343009 -0.0197498742 0.3165811
v -0.568535984 -0.0228238534 0.305587083
v -0.581353009 -0.011351876 0.325030059
v -0.581013978 -0.0197498742 0.317278087
v -0.570728958 -0.0197498556 0.295094073
v -0.595937967 -0.011351876 0.323256075
v -0.572333992 -0.0113518573 0.28741309
v -0.579626977 0.000119147298 0.285513103
v -0.579751015 -0.0113518573 0.288350075
v -0.580089986 -0.0197498556 0.296101093
v -0.580551982 -0.0228238534 0.306690097
v -0.588185012 -0.0113518573 0.287028104
v -0.587563992 0.000119147298 0.284044087
v -0.59444195 -0.0197498556 0.315462083
v -0.589928985 -0.0197498556 0.294581085
v -0.592262983 -0.0228238534 0.304781079
v -0.595465004 -0.0113518573 0.284173071
v -0.594345987 0.000119147298 0.281043082
v -0.603396952 -0.0228238534 0.300820082
v -0.598757029 -0.0197498556 0.291299075
v -0.601477027 -0.0113518378 0.279651076
v -0.599725962 0.000119166369 0.277302086
v -0.606383026 -0.0197498556 0.285344094
v -0.605125964 -0.0113518378 0.274457097
v -0.602744997 0.000119166369 0.272890091
v -0.611791015 -0.019749837 0.2784881
v -0.607405007 -0.0113518378 0.269175082
v -0.604617953 0.000119166369 0.268376082
v -0.605354011 0.000119166369 0.263862103
v -0.613166988 -0.0228238534 0.293227106
v -0.621152997 -0.0228238534 0.284442097
v -0.615158975 -0.019749837 0.271246076
v -0.608546972 -0.0113518378 0.263892084
v -0.625585973 -0.0228238348 0.274316102
v -0.607379973 -0.0113518378 0.259295106
v -0.604533017 0.000119166369 0.26000309
v -0.61688 -0.019749837 0.264005095
v -0.604606986 -0.0113518378 0.254698098
v -0.602105975 0.000119166369 0.256143093
v -0.615218997 -0.019749837 0.257379085
v -0.595734 -0.0113518378 0.246181086
v -0.593560994 0.000119166369 0.248355091
v -0.601673007 -0.019749837 0.240243092
v -0.611441016 -0.019749837 0.250753105
v -0.609784007 -0.0228238348 0.232131094
v -0.620770991 -0.0228238348 0.245363101
v -0.617895961 -0.019749837 0.22401908
v -0.625149965 -0.0228238348 0.254702091
v -0.627575994 -0.0228238348 0.264139086
v -0.635349989 -0.019749837 0.251493096
v -0.63025701 -0.019749837 0.239787102
v -0.63706398 -0.0113518378 0.235786095
v -0.623834968 -0.0113518378 0.218081087
v -0.639477015 0.000119166369 0.234376088
v -0.626007974 0.000119166369 0.215907097
v -0.623834968 0.0115911625 0.218081087
v -0.636453032 -0.019749837 0.277463078
v -0.638669014 -0.019749837 0.264067084
v -0.642904937 -0.0113518378 0.249273092
v -0.630732 -0.0197498556 0.290443093
v -0.643799961 -0.0113518378 0.279637069
v -0.646187961 -0.0113518378 0.26406908
v -0.620582998 -0.0197498556 0.302184075
v -0.645558 0.000119166369 0.248546094
v -0.637108982 -0.0113518573 0.294726104
v -0.608599007 -0.0197498556 0.311166078
v -0.648826003 0.000119166369 0.264084071
v -0.625490963 -0.0113518573 0.308515072
v -0.611699939 -0.011351876 0.318525106
v -0.646272957 0.000119147298 0.280382097
v -0.639193952 0.000119147298 0.296237081
v -0.626958013 0.000119147298 0.310640067
v -0.61264801 0.000119128228 0.321387053
v -0.596473992 0.000119128228 0.326106071
v -0.595937967 0.0115911243 0.323256075
v -0.611699939 0.0115911243 0.318525106
v -0.625490963 0.011591143 0.308515072
v -0.637108982 0.011591143 0.294726104
v -0.643799961 0.0115911625 0.279637069
v -0.581353009 0.0115911243 0.325030059
v -0.566343009 0.0199891236 0.3165811
v -0.581013978 0.0199891236 0.317278087
v -0.59444195 0.0199891422 0.315462083
v -0.608599007 0.0199891422 0.311166078
v -0.620582998 0.0199891422 0.302184075
v -0.556912005 0.02306314 0.302200079
v -0.568535984 0.02306314 0.305587083
v -0.561759949 0.0199891422 0.292632103
v -0.570728958 0.0199891422 0.295094073
v -0.580551982 0.02306314 0.306690097
v -0.603396952 0.02306314 0.300820082
v -0.580089986 0.0199891422 0.296101093
v -0.579751015 0.011591143 0.288350075
v -0.592262983 0.02306314 0.304781079
v -0.589928985 0.0199891422 0.294581085
v -0.588185012 0.011591143 0.287028104
v -0.587563992 0.000119147298 0.284044087
v -0.598757029 0.0199891422 0.291299075
v -0.595465004 0.011591143 0.284173071
v -0.594345987 0.000119147298 0.281043082
v -0.613166988 0.02306314 0.293227106
v -0.606383026 0.0199891422 0.285344094
v -0.601477027 0.0115911625 0.279651076
v -0.599725962 0.000119166369 0.277302086
v -0.630732 0.0199891422 0.290442109
v -0.621152997 0.02306314 0.284442097
v -0.611791015 0.0199891608 0.2784881
v -0.605125964 0.0115911625 0.274457097
v -0.602744997 0.000119166369 0.272890091
v -0.607405007 0.0115911625 0.269175082
v -0.604617953 0.000119166369 0.268376082
v -0.605354011 0.000119166369 0.263862103
v -0.636453032 0.0199891608 0.277463078
v -0.625585973 0.0230631586 0.274316102
v -0.615158975 0.0199891608 0.271246076
v -0.608546972 0.0115911625 0.263892084
v -0.61688 0.0199891608 0.264005095
v -0.627575994 0.0230631586 0.264139086
v -0.638669014 0.0199891608 0.264067084
v -0.607379973 0.0115911625 0.259295106
v -0.604533017 0.000119166369 0.26000309
v -0.615218997 0.0199891608 0.257379085
v -0.625149965 0.0230631586 0.254701108
v -0.604606986 0.0115911625 0.254698098
v -0.602105975 0.000119166369 0.256143093
v -0.611441016 0.0199891608 0.250753105
v -0.595734 0.0115911625 0.246181086
v -0.593560994 0.000119166369 0.248355091
v -0.601673007 0.0199891608 0.240243092
v -0.609784007 0.0230631586 0.232131094
v -0.620770991 0.0230631586 0.245363101
v -0.617895961 0.0199891608 0.22401908
v -0.635349989 0.0199891608 0.251493096
v -0.63025701 0.0199891608 0.239787102
v -0.63706398 0.0115911625 0.235786095
v -0.642904937 0.0115911625 0.249273092
v -0.646187961 0.0115911625 0.26406908
v -0.533549011 0.000119242664 0.0456360802
v -0.522254944 -0.0194437634 0.0456360802
v -0.513987005 -0.0111747598 0.0456360802
v -0.533549011 -0.0224697534 0.0456360802
v -0.510959983 0.000119242664 0.0456360802
v -0.544844031 -0.0194437634 0.0456360802
v -0.513987005 0.0114142364 0.0456360802
v -0.55311197 -0.0111747598 0.0456360802
v -0.522254944 0.0196822491 0.0456360988
v -0.556138992 0.000119242664 0.0456360802
v -0.533549964 0.0227092505 0.0456360988
v -0.55311197 0.0114142364 0.0456360802
v -0.544844031 0.0196822491 0.0456360988
v -0.623834968 0.0115911625 0.218081087
v -0.626007974 0.000119166369 0.215907097
v -0.61828202 0.000119166369 0.217015088
v -0.623834968 -0.0113518378 0.218081087
v -0.616674006 0.00860415958 0.218623102
v -0.617895961 0.0199891608 0.22401908
v -0.616674006 -0.00836582668 0.218623102
v -0.617895961 -0.019749837 0.22401908
v -0.612281978 0.014816165 0.2230151
v -0.609784007 0.0230631586 0.232131094
v -0.604943991 0.000119166369 0.227149084
v -0.612281978 -0.0145768402 0.2230151
v -0.606281996 0.0170901623 0.229015097
v -0.609784007 -0.0228238348 0.232131094
v -0.601673007 0.0199891608 0.240243092
v -0.606281996 -0.0168508384 0.229015097
v -0.601673007 -0.019749837 0.240243092
v -0.600281954 0.014816165 0.235014096
v -0.595734 0.0115911625 0.246181086
v -0.600281954 -0.0145768402 0.235014096
v -0.595734 -0.0113518378 0.246181086
v -0.595889986 0.00860415958 0.239407092
v -0.593560994 0.000119166369 0.248355091
v -0.595889986 -0.00836582668 0.239407092
v -0.594281971 0.000119166369 0.241014093
v -0.522077978 0.0199891608 0.221636102
v -0.533549011 0.0303231571 0.218752086
v -0.518446982 0.0262771752 0.218752086
v -0.533549011 0.0230631586 0.221636102
v -0.513679981 0.0115911625 0.221636102
v -0.54865098 0.0262771752 0.218752086
v -0.507391989 0.0152221629 0.218752086
v -0.545020998 0.0199891608 0.221636102
v -0.510605991 0.000119166369 0.221636102
v -0.559706986 0.0152221629 0.218752086
v -0.503344953 0.000120158191 0.218752086
v -0.553418994 0.0115911625 0.221636102
v -0.513679981 -0.0113518378 0.221636102
v -0.563753009 0.000120158191 0.218752086
v -0.507391989 -0.0149818277 0.218752086
v -0.556492984 0.000119166369 0.221636102
v -0.522077978 -0.019749837 0.221636102
v -0.559706986 -0.0149828382 0.218752086
v -0.518446982 -0.0260378309 0.218752071
v -0.553418994 -0.0113518378 0.221636102
v -0.533549011 -0.0228238348 0.221636102
v -0.548651993 -0.0260378309 0.218752071
v -0.533549011 -0.0300838314 0.218752071
v -0.545020998 -0.019749837 0.221636102
v -0.518148959 -0.00877182465 0.204535097
v -0.518447995 -0.0260378309 0.206325069
v -0.507391989 -0.0149828382 0.206325084
v -0.524658024 -0.0152808232 0.204535097
v -0.515766978 0.000119166369 0.204535097
v -0.533549011 -0.0300838314 0.206325069
v -0.503344953 0.000119166369 0.206325084
v -0.533549011 -0.0176628344 0.204535097
v -0.518148959 0.00901116803 0.204535097
v -0.54865098 -0.0260378309 0.206325069
v -0.507391989 0.0152211711 0.206325084
v -0.542440951 -0.0152808232 0.204535097
v -0.524658024 0.0155201666 0.204535097
v -0.559706986 -0.0149828382 0.206325084
v -0.518446982 0.0262771752 0.206325084
v -0.548950016 -0.00877182465 0.204535097
v -0.533549011 0.0179021601 0.204535097
v -0.563753009 0.000119166369 0.206325084
v -0.533549964 0.0303231571 0.206325084
v -0.551331997 0.000119166369 0.204535097
v -0.542440951 0.0155201666 0.204535097
v -0.559706986 0.0152211711 0.206325084
v -0.54865098 0.0262771752 0.206325084
v -0.548950016 0.00901116803 0.204535097
v -0.524658024 0.015520243 0.0616781041
v -0.533549011 0.0227092505 0.0593900867
v -0.522254944 0.0196822491 0.0593900867
v -0.533549011 0.0179022364 0.0616781041
v -0.518148959 0.0090112444 0.0616780855
v -0.544844031 0.0196822491 0.0593900867
v -0.513987005 0.0114142364 0.0593900867
v -0.542440951 0.015520243 0.0616781041
v -0.515766978 0.000119242664 0.0616780855
v -0.55311197 0.0114142364 0.0593900867
v -0.510959983 0.000120234487 0.0593900867
v -0.548950016 0.0090112444 0.0616780855
v -0.518148959 -0.00877174828 0.0616780855
v -0.556138992 0.000119242664 0.0593900867
v -0.513985991 -0.0111747598 0.0593900867
v -0.551331997 0.000119242664 0.0616780855
v -0.524658024 -0.0152807469 0.0616780855
v -0.55311197 -0.0111747598 0.0593900867
v -0.522254944 -0.0194427539 0.0593900867
v -0.548950016 -0.00877174828 0.0616780855
v -0.533549011 -0.017662758 0.0616780855
v -0.544844031 -0.0194427539 0.0593900867
v -0.533549964 -0.0224697534 0.0593900867
v -0.542440951 -0.0152807469 0.0616780855
vt 0.772460938 0.0770874023
vt 0.772460938 0.0567626953
vt 0.755371094 0.0565490723
vt 0.755371094 0.0768432617
vt 0.73828125 0.0563354492
vt 0.737792969 0.0766601562
vt 0.720703125 0.0561218262
vt 0.720703125 0.0764160156
vt 0.703613281 0.0559082031
vt 0.703125 0.0762329102
vt 0.686523438 0.0556945801
vt 0.686035156 0.0759887695
vt 0.668945312 0.055480957
vt 0.668945312 0.0758056641
vt 0.651855469 0.055267334
vt 0.651367188 0.0755615234
vt 0.634277344 0.0550537109
vt 0.634277344 0.075378418
vt 0.6171875 0.0548706055
vt 0.6171875 0.0751953125
vt 0.600097656 0.0546569824
vt 0.599609375 0.0749511719
vt 0.582519531 0.0544433594
vt 0.582519531 0.0747680664
vt 0.565429688 0.0542297363
vt 0.564941406 0.0745239258
vt 0.984375 0.993164062
vt 0.9921875 0.993164062
vt 0.994140625 0.869628906
vt 0.985839844 0.869628906
vt 0.9765625 0.993164062
vt 0.978027344 0.869628906
vt 0.968261719 0.993164062
vt 0.970214844 0.869140625
vt 0.960449219 0.992675781
vt 0.961914062 0.869140625
vt 0.952636719 0.992675781
vt 0.954101562 0.869140625
vt 0.944335938 0.992675781
vt 0.946289062 0.869140625
vt 0.936523438 0.992675781
vt 0.937988281 0.868652344
vt 0.928710938 0.9921875
vt 0.930175781 0.868652344
vt 0.920410156 0.9921875
vt 0.922363281 0.868652344
vt 0.912597656 0.9921875
vt 0.914550781 0.868652344
vt 0.904785156 0.9921875
vt 0.90625 0.868652344
vt 0.896484375 0.9921875
vt 0.8984375 0.868164062
vt 0.882324219 0.522949219
vt 0.872070312 0.511230469
vt 0.874023438 0.522460938
vt 0.881835938 0.512207031
vt 0.891113281 0.523925781
vt 0.872558594 0.498535156
vt 0.891601562 0.513671875
vt 0.900390625 0.525390625
vt 0.8828125 0.500976562
vt 0.877441406 0.486328125
vt 0.900878906 0.515136719
vt 0.910644531 0.525878906
vt 0.892089844 0.503417969
vt 0.885742188 0.490722656
vt 0.885742188 0.475830078
vt 0.911132812 0.516113281
vt 0.920410156 0.525878906
vt 0.901855469 0.505371094
vt 0.894042969 0.493896484
vt 0.891601562 0.480957031
vt 0.897460938 0.469238281
vt 0.920898438 0.515625
vt 0.930664062 0.525390625
vt 0.911132812 0.506347656
vt 0.902832031 0.495849609
vt 0.897460938 0.484375
vt 0.899902344 0.47265625
vt 0.911132812 0.466796875
vt 0.931152344 0.514648438
vt 0.939941406 0.524414062
vt 0.920898438 0.505859375
vt 0.911621094 0.496582031
vt 0.904296875 0.486328125
vt 0.903320312 0.475097656
vt 0.940917969 0.513183594
vt 0.948242188 0.523925781
vt 0.950683594 0.51171875
vt 0.930664062 0.504394531
vt 0.939941406 0.501953125
vt 0.949707031 0.498535156
vt 0.919921875 0.49609375
vt 0.911132812 0.487060547
vt 0.906738281 0.476806641
vt 0.936523438 0.490966797
vt 0.944824219 0.486083984
vt 0.928222656 0.494384766
vt 0.91796875 0.486572266
vt 0.911132812 0.477294922
vt 0.930664062 0.481201172
vt 0.935546875 0.476074219
vt 0.924804688 0.484619141
vt 0.915039062 0.476806641
vt 0.918945312 0.475585938
vt 0.922363281 0.473144531
vt 0.924316406 0.469726562
vt 0.939941406 0.538085938
vt 0.950195312 0.549804688
vt 0.947753906 0.538574219
vt 0.940429688 0.548828125
vt 0.931152344 0.537109375
vt 0.949707031 0.562011719
vt 0.931152344 0.547363281
vt 0.921386719 0.536132812
vt 0.939941406 0.560058594
vt 0.9453125 0.574707031
vt 0.921386719 0.545898438
vt 0.911621094 0.53515625
vt 0.930175781 0.557617188
vt 0.937011719 0.5703125
vt 0.937011719 0.584960938
vt 0.911132812 0.545410156
vt 0.901367188 0.535644531
vt 0.920898438 0.555664062
vt 0.928222656 0.567382812
vt 0.931640625 0.580078125
vt 0.925292969 0.592285156
vt 0.901367188 0.545898438
vt 0.891601562 0.536621094
vt 0.911132812 0.555175781
vt 0.919921875 0.565429688
vt 0.925292969 0.577148438
vt 0.923339844 0.588867188
vt 0.912109375 0.594726562
vt 0.891113281 0.547363281
vt 0.882324219 0.537597656
vt 0.901367188 0.555664062
vt 0.911132812 0.564941406
vt 0.918457031 0.575195312
vt 0.919921875 0.5859375
vt 0.881347656 0.548828125
vt 0.874023438 0.538085938
vt 0.871582031 0.550292969
vt 0.892089844 0.557617188
vt 0.882324219 0.560058594
vt 0.872558594 0.563476562
vt 0.902832031 0.565429688
vt 0.911621094 0.57421875
vt 0.916015625 0.584472656
vt 0.885742188 0.570800781
vt 0.877929688 0.576171875
vt 0.894042969 0.567382812
vt 0.904785156 0.575195312
vt 0.911621094 0.583984375
vt 0.892089844 0.580566406
vt 0.887207031 0.5859375
vt 0.897949219 0.577148438
vt 0.907714844 0.584472656
vt 0.903808594 0.5859375
vt 0.900878906 0.588867188
vt 0.898925781 0.592285156
vt 0.451904297 0.121276855
vt 0.451904297 0.108581543
vt 0.435791016 0.108642578
vt 0.436035156 0.121337891
vt 0.419921875 0.108703613
vt 0.419921875 0.121398926
vt 0.404052734 0.108764648
vt 0.404052734 0.121459961
vt 0.387939453 0.108825684
vt 0.388183594 0.121520996
vt 0.372070312 0.108886719
vt 0.372070312 0.121582031
vt 0.356201172 0.109008789
vt 0.356201172 0.121643066
vt 0.340087891 0.109069824
vt 0.340087891 0.121765137
vt 0.32421875 0.109130859
vt 0.32421875 0.121826172
vt 0.308105469 0.109191895
vt 0.308349609 0.121887207
vt 0.292236328 0.10925293
vt 0.292236328 0.121948242
vt 0.276367188 0.109313965
vt 0.276367188 0.122009277
vt 0.260253906 0.109375
vt 0.260498047 0.122070312
vt 0.868652344 0.466064453
vt 0.873046875 0.451171875
vt 0.864257812 0.447753906
vt 0.859375 0.463134766
vt 0.863769531 0.484863281
vt 0.854492188 0.443847656
vt 0.854492188 0.481933594
vt 0.862304688 0.489501953
vt 0.850097656 0.460205078
vt 0.844238281 0.439941406
vt 0.853027344 0.486816406
vt 0.860839844 0.494140625
vt 0.840332031 0.457763672
vt 0.833007812 0.436523438
vt 0.845214844 0.479980469
vt 0.8515625 0.491699219
vt 0.859863281 0.501464844
vt 0.830078125 0.455810547
vt 0.821289062 0.434082031
vt 0.8359375 0.478759766
vt 0.84375 0.485351562
vt 0.851074219 0.499755859
vt 0.859375 0.509277344
vt 0.819824219 0.454345703
vt 0.809570312 0.433105469
vt 0.842773438 0.490722656
vt 0.826171875 0.477050781
vt 0.834960938 0.484375
vt 0.850097656 0.508300781
vt 0.858886719 0.517089844
vt 0.842285156 0.499023438
vt 0.833984375 0.490478516
vt 0.825195312 0.482910156
vt 0.817382812 0.476074219
vt 0.850097656 0.516113281
vt 0.858398438 0.524902344
vt 0.809082031 0.453613281
vt 0.798339844 0.453613281
vt 0.797363281 0.43359375
vt 0.787597656 0.454589844
vt 0.785644531 0.435302734
vt 0.77734375 0.456054688
vt 0.774414062 0.438232422
vt 0.767578125 0.458007812
vt 0.764160156 0.44140625
vt 0.758300781 0.460205078
vt 0.754394531 0.444824219
vt 0.748535156 0.462646484
vt 0.745117188 0.447509766
vt 0.752929688 0.481445312
vt 0.762207031 0.479248047
vt 0.75390625 0.486083984
vt 0.771484375 0.477783203
vt 0.763183594 0.484130859
vt 0.754882812 0.490722656
vt 0.780761719 0.477050781
vt 0.772460938 0.483154297
vt 0.764160156 0.489013672
vt 0.755371094 0.498291016
vt 0.790527344 0.475830078
vt 0.781738281 0.482666016
vt 0.764648438 0.497070312
vt 0.755371094 0.506347656
vt 0.7734375 0.488525391
vt 0.799804688 0.475341797
vt 0.764648438 0.505371094
vt 0.755371094 0.513671875
vt 0.791503906 0.481933594
vt 0.772949219 0.496826172
vt 0.781738281 0.488769531
vt 0.80859375 0.475341797
vt 0.799804688 0.481445312
vt 0.791503906 0.488769531
vt 0.781738281 0.496826172
vt 0.816894531 0.481933594
vt 0.808105469 0.481445312
vt 0.824707031 0.489990234
vt 0.7734375 0.504882812
vt 0.799804688 0.488769531
vt 0.81640625 0.489257812
vt 0.808105469 0.489013672
vt 0.799316406 0.496582031
vt 0.81640625 0.497070312
vt 0.833984375 0.498291016
vt 0.790527344 0.496826172
vt 0.807617188 0.496826172
vt 0.807617188 0.504882812
vt 0.824707031 0.497802734
vt 0.798828125 0.504394531
vt 0.790039062 0.504394531
vt 0.81640625 0.505371094
vt 0.807128906 0.513671875
vt 0.824707031 0.505859375
vt 0.781738281 0.504394531
vt 0.798339844 0.513671875
vt 0.807128906 0.522949219
vt 0.815917969 0.514160156
vt 0.789550781 0.513671875
vt 0.78125 0.513183594
vt 0.797851562 0.522460938
vt 0.7890625 0.522460938
vt 0.772949219 0.513183594
vt 0.797851562 0.530273438
vt 0.764160156 0.513671875
vt 0.755371094 0.521484375
vt 0.764160156 0.521484375
vt 0.772949219 0.521972656
vt 0.78125 0.521972656
vt 0.764160156 0.530761719
vt 0.754882812 0.530761719
vt 0.7890625 0.530273438
vt 0.772460938 0.530761719
vt 0.780761719 0.530761719
vt 0.764160156 0.5390625
vt 0.754882812 0.5390625
vt 0.780761719 0.5390625
vt 0.772460938 0.5390625
vt 0.763671875 0.547363281
vt 0.754882812 0.546386719
vt 0.771972656 0.547851562
vt 0.763671875 0.554199219
vt 0.754394531 0.552246094
vt 0.771972656 0.555664062
vt 0.762695312 0.560058594
vt 0.75390625 0.557128906
vt 0.753417969 0.562011719
vt 0.780273438 0.548339844
vt 0.780273438 0.557128906
vt 0.771484375 0.562988281
vt 0.762207031 0.565429688
vt 0.779785156 0.564941406
vt 0.761230469 0.569824219
vt 0.752441406 0.565429688
vt 0.771484375 0.569824219
vt 0.759277344 0.57421875
vt 0.750976562 0.568847656
vt 0.76953125 0.575195312
vt 0.753417969 0.582519531
vt 0.745605469 0.576660156
vt 0.761230469 0.58984375
vt 0.767089844 0.581054688
vt 0.76953125 0.598144531
vt 0.775390625 0.586914062
vt 0.779785156 0.60546875
vt 0.777832031 0.579589844
vt 0.779785156 0.572753906
vt 0.786132812 0.583496094
vt 0.784667969 0.591796875
vt 0.794433594 0.595214844
vt 0.791503906 0.610351562
vt 0.804199219 0.596191406
vt 0.803710938 0.612792969
vt 0.81640625 0.611328125
vt 0.788574219 0.566894531
vt 0.788085938 0.575195312
vt 0.795410156 0.5859375
vt 0.788574219 0.558105469
vt 0.796875 0.567871094
vt 0.796386719 0.576660156
vt 0.7890625 0.548339844
vt 0.8046875 0.586425781
vt 0.796875 0.55859375
vt 0.7890625 0.539550781
vt 0.805175781 0.577636719
vt 0.797363281 0.548339844
vt 0.797851562 0.539550781
vt 0.805175781 0.568359375
vt 0.805664062 0.55859375
vt 0.806152344 0.548828125
vt 0.806152344 0.539550781
vt 0.806640625 0.530761719
vt 0.815429688 0.53125
vt 0.814941406 0.540039062
vt 0.814453125 0.549316406
vt 0.814453125 0.559082031
vt 0.813964844 0.568359375
vt 0.815917969 0.522949219
vt 0.824707031 0.514648438
vt 0.824707031 0.5234375
vt 0.82421875 0.531738281
vt 0.823242188 0.540527344
vt 0.823242188 0.549804688
vt 0.833496094 0.506347656
vt 0.833496094 0.515136719
vt 0.841308594 0.507324219
vt 0.841308594 0.515625
vt 0.832519531 0.523925781
vt 0.83203125 0.541015625
vt 0.840820312 0.523925781
vt 0.849609375 0.524414062
vt 0.832519531 0.532226562
vt 0.840820312 0.533203125
vt 0.849121094 0.533691406
vt 0.857910156 0.534179688
vt 0.83984375 0.541503906
vt 0.848632812 0.541992188
vt 0.857421875 0.542480469
vt 0.83203125 0.549804688
vt 0.83984375 0.550292969
vt 0.848144531 0.550292969
vt 0.857421875 0.549804688
vt 0.822265625 0.559082031
vt 0.831054688 0.55859375
vt 0.839355469 0.558105469
vt 0.848144531 0.556640625
vt 0.857421875 0.555664062
vt 0.848144531 0.562988281
vt 0.857421875 0.561035156
vt 0.857421875 0.565429688
vt 0.822265625 0.567871094
vt 0.831054688 0.566894531
vt 0.839355469 0.565429688
vt 0.848144531 0.568359375
vt 0.838867188 0.571777344
vt 0.830566406 0.574707031
vt 0.821777344 0.576171875
vt 0.849121094 0.572753906
vt 0.858398438 0.568847656
vt 0.840332031 0.577636719
vt 0.83203125 0.581542969
vt 0.851074219 0.577636719
vt 0.859375 0.572753906
vt 0.842285156 0.583496094
vt 0.856445312 0.5859375
vt 0.864257812 0.580566406
vt 0.848144531 0.592773438
vt 0.838867188 0.600585938
vt 0.833496094 0.588867188
vt 0.828125 0.606933594
vt 0.823242188 0.584472656
vt 0.82421875 0.593261719
vt 0.814453125 0.595703125
vt 0.813964844 0.586425781
vt 0.813476562 0.577148438
vt 0.923828125 0.430419922
vt 0.931640625 0.445556641
vt 0.937988281 0.439697266
vt 0.922851562 0.447265625
vt 0.940429688 0.431152344
vt 0.914550781 0.444580078
vt 0.938476562 0.422607422
vt 0.908691406 0.438232422
vt 0.932617188 0.416259766
vt 0.906738281 0.4296875
vt 0.924316406 0.413574219
vt 0.909667969 0.421386719
vt 0.916015625 0.415527344
vt 0.270751953 0.6484375
vt 0.260742188 0.656738281
vt 0.267578125 0.661621094
vt 0.256103516 0.669433594
vt 0.274414062 0.655761719
vt 0.283935547 0.646484375
vt 0.264404297 0.669921875
vt 0.258056641 0.682128906
vt 0.283447266 0.654785156
vt 0.296386719 0.650878906
vt 0.28125 0.671875
vt 0.265625 0.679199219
vt 0.291748047 0.657714844
vt 0.266601562 0.692382812
vt 0.3046875 0.661132812
vt 0.271484375 0.686035156
vt 0.278808594 0.697265625
vt 0.297363281 0.665039062
vt 0.306640625 0.674316406
vt 0.279785156 0.688964844
vt 0.291992188 0.694824219
vt 0.298828125 0.673828125
vt 0.302001953 0.686523438
vt 0.288574219 0.6875
vt 0.295654297 0.682128906
vt 0.976074219 0.782226562
vt 0.96484375 0.793945312
vt 0.98046875 0.7890625
vt 0.964355469 0.785644531
vt 0.984375 0.7734375
vt 0.94921875 0.790039062
vt 0.991699219 0.776855469
vt 0.952636719 0.783203125
vt 0.986816406 0.76171875
vt 0.937011719 0.779296875
vt 0.995117188 0.761230469
vt 0.943847656 0.774902344
vt 0.983398438 0.75
vt 0.932617188 0.763671875
vt 0.990234375 0.745605469
vt 0.940429688 0.763183594
vt 0.974609375 0.741699219
vt 0.936035156 0.748046875
vt 0.978515625 0.734863281
vt 0.942871094 0.751464844
vt 0.962890625 0.739257812
vt 0.946777344 0.735839844
vt 0.962402344 0.730957031
vt 0.951171875 0.742675781
vt 0.978515625 0.83984375
vt 0.978515625 0.857421875
vt 0.989746094 0.846191406
vt 0.971679688 0.846679688
vt 0.980957031 0.830566406
vt 0.962890625 0.861816406
vt 0.993652344 0.830566406
vt 0.962890625 0.849121094
vt 0.978027344 0.821777344
vt 0.947753906 0.857910156
vt 0.989257812 0.814941406
vt 0.953613281 0.846679688
vt 0.971679688 0.815429688
vt 0.936035156 0.846679688
vt 0.977539062 0.804199219
vt 0.947265625 0.840332031
vt 0.962402344 0.812988281
vt 0.931640625 0.831542969
vt 0.962402344 0.800292969
vt 0.944335938 0.831054688
vt 0.953125 0.815429688
vt 0.935546875 0.815917969
vt 0.946777344 0.8046875
vt 0.946777344 0.822265625
vt 0.935058594 0.448974609
vt 0.924804688 0.458984375
vt 0.938964844 0.454345703
vt 0.924804688 0.452392578
vt 0.942871094 0.440673828
vt 0.910644531 0.455810547
vt 0.948730469 0.443603516
vt 0.913574219 0.449951172
vt 0.9453125 0.4296875
vt 0.899902344 0.445800781
vt 0.951660156 0.429443359
vt 0.905273438 0.442382812
vt 0.941894531 0.418945312
vt 0.895507812 0.431884766
vt 0.947265625 0.415283203
vt 0.901855469 0.431640625
vt 0.93359375 0.411376953
vt 0.8984375 0.417724609
vt 0.936523438 0.405517578
vt 0.904296875 0.420654297
vt 0.922851562 0.408935547
vt 0.908203125 0.406738281
vt 0.922363281 0.40234375
vt 0.912109375 0.412353516
vn 1.18836006E-05 1 0
vn -1.18836006E-05 1 0
vn 0.50002408 0.8660115 -4.83202939E-06
vn 0.500024021 0.86601156 -4.83203212E-06
vn 0.866012633 0.500022113 -4.83203212E-06
vn 0.866012573 0.500022292 -4.83202984E-06
vn 1 8.58364547E-06 -1.80291972E-05
vn 1 3.23605382E-05 -1.80284533E-05
vn 0.866019726 -0.500009835 -1.29468854E-05
vn 0.866025686 -0.499999583 -1.29474829E-05
vn 0.500000536 -0.86602509 2.34536074E-05
vn 0.500011027 -0.86601907 2.34525687E-05
vn 1.18932894E-05 -1 3.67473731E-05
vn -1.18932894E-05 -1 3.67465182E-05
vn -0.500013471 -0.86601764 2.69914726E-05
vn -0.500023901 -0.86601156 2.6991469E-05
vn -0.866017222 -0.500014186 1.34481215E-05
vn -0.866017222 -0.500014186 1.34481215E-05
vn -1 -1.09702323E-05 0
vn -1 -1.09702323E-05 0
vn -0.866015434 0.500017345 0
vn -0.866015434 0.500017464 0
vn -0.500024199 0.8660115 4.8320303E-06
vn -0.500024021 0.86601156 4.83203212E-06
vn -1.18836006E-05 1 0
vn 1.18836006E-05 1 0
vn 0.499983907 0.866034746 4.63110922E-07
vn 1.3945657E-05 1 5.34065066E-07
vn 1.39456588E-05 1 5.34065066E-07
vn 0.499983937 0.866034627 4.63110922E-07
vn 0.866040647 0.499973595 2.67325419E-07
vn 0.866040647 0.499973595 2.67325419E-07
vn 1 -1.42992176E-05 0
vn 1 -1.41126193E-05 0
vn 0.866033494 -0.499986082 -2.67478697E-07
vn 0.866033554 -0.499985904 -2.6747864E-07
vn 0.499984622 -0.866034269 -4.62817326E-07
vn 0.499984741 -0.86603421 -4.62817326E-07
vn 1.3945667E-05 -1 -5.34065009E-07
vn 1.39456643E-05 -1 -5.34064952E-07
vn -0.499972641 -0.866041243 -4.63084575E-07
vn -0.499972701 -0.866041183 -4.63084547E-07
vn -0.866033494 -0.499986082 -2.67478697E-07
vn -0.866033554 -0.499985904 -2.6747864E-07
vn -1 -1.42992176E-05 0
vn -1 -1.41126193E-05 0
vn -0.866040647 0.499973595 2.67325419E-07
vn -0.866040647 0.499973595 2.67325419E-07
vn -0.499971867 0.866041601 4.62791604E-07
vn -0.499971926 0.866041601 4.62791547E-07
vn 1.3945657E-05 1 5.34065066E-07
vn 1.39456588E-05 1 5.34065066E-07
vn -0.768204033 -0.318169743 0.55554539
vn -0.927291512 -1.01509731E-05 0.374340147
vn -0.831492722 -1.12331345E-05 0.555535614
vn -0.856709719 -0.35484916 0.374340117
vn -0.587937176 -0.587948322 0.555559814
vn -1 -1.0073938E-05 0
vn -0.655695498 -0.655688286 0.374347746
vn -0.318183094 -0.768178105 0.555573463
vn -0.923878789 -0.382685274 0
vn -0.927291512 -1.00001425E-05 -0.374340147
vn -0.354855627 -0.856699526 0.374357492
vn -1.05762028E-05 -0.831467748 0.555573046
vn -0.707105458 -0.70710808 0
vn -0.856709719 -0.354848981 -0.374340236
vn -0.718871474 -1.00551597E-05 -0.695143044
vn -7.12937526E-06 -0.927284598 0.374357164
vn 0.31820029 -0.76816839 0.55557698
vn -0.382691026 -0.923876345 0
vn -0.655695498 -0.655688047 -0.374348372
vn -0.664153993 -0.275085062 -0.695145667
vn -0.403099239 -8.20410696E-06 -0.915156305
vn 0.354866624 -0.85669595 0.374355197
vn 0.587959707 -0.587928236 0.555557132
vn -4.83246686E-06 -1 0
vn -0.354855537 -0.856699169 -0.374358177
vn -0.508307219 -0.508318722 -0.695151687
vn -0.372399986 -0.154265761 -0.915161371
vn -7.42847487E-06 -9.77897798E-06 -1
vn 0.655695498 -0.65567714 0.374367386
vn 0.76818645 -0.318220109 0.5555408
vn 0.382676095 -0.923882544 0
vn -7.12686415E-06 -0.9272843 -0.374357909
vn -0.275099039 -0.66413939 -0.695154071
vn -0.285013199 -0.285030305 -0.915164053
vn 0.856683612 -0.354879975 0.374370664
vn 0.831486702 -1.12328171E-05 0.555544674
vn 0.927281857 -1.01612441E-05 0.374364078
vn 0.70711112 -0.707102358 0
vn 0.92387116 -0.382703573 0
vn 1 -1.00791831E-05 0
vn 0.354866654 -0.856695592 -0.374355942
vn -1.00329189E-05 -0.718868434 -0.695146143
vn -0.154277951 -0.372414708 -0.915153265
vn 0.856683612 -0.354879767 -0.374370843
vn 0.927281857 -1.00003508E-05 -0.374363989
vn 0.655695438 -0.655676842 -0.374367923
vn 0.275111765 -0.664137065 -0.695151329
vn -8.32601927E-06 -0.403108954 -0.915152013
vn 0.664147496 -0.275115401 -0.695140123
vn 0.718875229 -1.00578673E-05 -0.69513917
vn 0.508328378 -0.508310735 -0.695141971
vn 0.154279634 -0.372415632 -0.915152669
vn 0.285030156 -0.285029531 -0.915158987
vn 0.372421741 -0.154260293 -0.915153384
vn 0.403072327 -8.20765672E-06 -0.915168166
vn 0.768189728 0.318208665 0.555542886
vn 0.927281857 -1.01612441E-05 0.374364078
vn 0.831486702 -1.12328171E-05 0.555544674
vn 0.856687188 0.354870737 0.37437126
vn 0.587959111 0.587926865 0.555559158
vn 1 -1.00791831E-05 0
vn 0.655695558 0.655676425 0.37436831
vn 0.318199843 0.768166304 0.555580318
vn 0.923875034 0.382694274 0
vn 0.927281857 -1.00003508E-05 -0.374363989
vn 0.354866803 0.856695116 0.374356955
vn -1.05941845E-05 0.831465006 0.555577219
vn 0.707111537 0.707102001 0
vn 0.856687248 0.354870975 -0.374370843
vn 0.718875229 -1.00578673E-05 -0.69513917
vn -7.13943655E-06 0.927283704 0.374359399
vn -0.318182707 0.76817584 0.555576682
vn 0.382676899 0.923882246 0
vn 0.655695558 0.655676782 -0.374367803
vn 0.664151251 0.275106102 -0.695140183
vn 0.403072327 -8.20765672E-06 -0.915168166
vn -0.354855746 0.856698632 0.37435925
vn -0.587936521 0.587947011 0.555561781
vn -4.84256589E-06 1 0
vn 0.354866862 0.856695414 -0.374356121
vn 0.508328259 0.508311331 -0.695141733
vn 0.372423649 0.154253587 -0.915153801
vn -7.42847487E-06 -9.77897798E-06 -1
vn -0.655695677 0.655687571 0.374348789
vn -0.768207252 0.318158329 0.555547416
vn -0.38269186 0.923876047 0
vn -7.14194948E-06 0.927284122 -0.374358535
vn 0.275111318 0.664137244 -0.695151389
vn 0.285025537 0.285026193 -0.91516149
vn -0.856713355 0.354839981 0.374340713
vn -0.831492722 -1.12331345E-05 0.555535614
vn -0.927291512 -1.01509731E-05 0.374340147
vn -0.707105875 0.707107663 0
vn -0.923882544 0.382676065 0
vn -1 -1.0073938E-05 0
vn -0.354855835 0.85669899 -0.374358445
vn -1.00378866E-05 0.718868375 -0.695146263
vn 0.154276118 0.372410119 -0.91515547
vn -0.856713355 0.354840219 -0.374340326
vn -0.927291512 -1.00001425E-05 -0.374340147
vn -0.655695677 0.655687809 -0.374348164
vn -0.275098681 0.664139569 -0.69515413
vn -8.33399463E-06 0.403101504 -0.915155292
vn -0.664157867 0.275075823 -0.695145786
vn -0.718871474 -1.00551597E-05 -0.695143044
vn -0.508307099 0.508319259 -0.695151389
vn -0.154274449 0.372409195 -0.915156066
vn -0.285008579 0.285026968 -0.915166438
vn -0.372401863 0.154259101 -0.915161788
vn -0.403099239 -8.20410696E-06 -0.915156305
vn 4.9399232E-06 1 0
vn -2.13506828E-05 1 0
vn 0.499990761 0.866030693 -1.99455244E-05
vn 0.499990761 0.866030693 -1.99455244E-05
vn 0.866030097 0.499991924 -2.52886439E-05
vn 0.866018713 0.500011683 -2.52889731E-05
vn 1 -1.32191853E-05 1.12220803E-07
vn 1 1.3071869E-05 1.10112005E-07
vn 0.866012812 -0.500021815 1.10796564E-05
vn 0.866024554 -0.50000155 1.10805759E-05
vn 0.499978632 -0.866037786 -5.06220931E-06
vn 0.49999851 -0.866026342 -5.06172637E-06
vn 8.23975552E-06 -1 -1.0691173E-05
vn 8.23975552E-06 -1 -1.0691173E-05
vn -0.499961615 -0.866047621 -1.99489841E-05
vn -0.499981523 -0.866036177 -1.99497772E-05
vn -0.866030276 -0.499991536 -9.25449876E-06
vn -0.866030455 -0.499991387 -9.25448421E-06
vn -1 -9.03524506E-06 -5.33900266E-06
vn -1 1.72455329E-05 -5.34057608E-06
vn -0.86603421 0.499984801 -2.5288522E-05
vn -0.866022825 0.50000453 -2.52888549E-05
vn -0.499978542 0.866037786 -9.25739096E-06
vn -0.499978542 0.866037786 -9.25739096E-06
vn -2.13506828E-05 1 0
vn 4.9399232E-06 1 0
vn -0.999998927 -1.00374127E-05 0.00148246484
vn -0.999986172 -1.05157496E-05 0.00526516326
vn -0.870919049 0.491415381 -0.0032959641
vn -0.873418868 0.486932158 -0.00604452426
vn -0.999943614 -9.06884998E-06 -0.0106259808
vn -0.506779492 0.861863792 -0.0191148669
vn -0.880312264 0.473931879 -0.0209506527
vn -0.999798357 -8.26032192E-06 -0.0200798567
vn -0.507380009 0.861555457 -0.0169647448
vn 0.000630739087 0.999655008 -0.0262583829
vn -0.888040006 0.456749767 -0.0525794402
vn -0.944758058 -9.67443248E-06 -0.327768475
vn -0.000143250872 0.99985981 -0.0167456921
vn 0.504429281 0.863159418 -0.0225128029
vn -0.507912397 0.86094147 -0.0283696018
vn -0.804359317 0.499744505 -0.321343154
vn -0.681452692 -1.0121591E-05 -0.731862247
vn 0.504201293 0.863529503 -0.00989715196
vn 0.867899597 0.496474922 -0.0162155051
vn 0.00195142988 0.999990702 0.00384726748
vn -0.504579961 0.85964334 -0.0800773874
vn -0.593337238 0.498052984 -0.632371783
vn -0.459993243 -1.08837285E-05 -0.887922406
vn 0.871575296 0.490259081 -0.00162185158
vn 0.999908447 -1.05674553E-05 -0.0135321552
vn -0.432362974 0.874102712 -0.221374556
vn 0.50105077 0.862377763 0.0724765435
vn -0.00896097999 0.999735296 0.0211887751
vn -0.393401742 0.502177119 -0.770099461
vn -0.234720513 -1.04847059E-05 -0.972062886
vn -0.342412293 0.868180752 -0.359187901
vn -0.0135087175 0.999563873 0.0262584388
vn 0.45424211 0.864462197 0.215335324
vn 0.863289297 0.481505215 0.151275977
vn -0.192225769 0.488782525 -0.850964725
vn 0.0187384766 -1.05651479E-05 -0.999824464
vn 0.999992967 -9.96177641E-06 0.00376596465
vn 0.87157023 -0.490268022 -0.00162208779
vn 0.867894411 -0.496484101 -0.0162154902
vn 0.504200578 -0.863529861 -0.00989717524
vn 0.504428983 -0.863159716 -0.0225126203
vn -0.000143580924 -0.99985981 -0.0167454965
vn 0.000630288967 -0.999655008 -0.0262577683
vn -0.50737983 -0.861555457 -0.0169645809
vn -0.506779611 -0.861863792 -0.0191141106
vn -0.873414099 -0.486940742 -0.00604450749
vn -0.870913744 -0.491424739 -0.00329565769
vn -0.999998927 -1.00374127E-05 0.00148246484
vn -0.999986172 -1.05157496E-05 0.00526516326
vn -0.999943614 -9.06884998E-06 -0.0106259808
vn -0.880307972 -0.473939806 -0.0209507886
vn -0.999798357 -8.26032192E-06 -0.0200798567
vn -0.507911861 -0.860941708 -0.0283705462
vn -0.888036251 -0.456757009 -0.0525794402
vn -0.944758058 -9.67443248E-06 -0.327768475
vn 0.00195191032 -0.999990702 0.00384501065
vn -0.504579842 -0.859643161 -0.0800790638
vn -0.804355025 -0.499751806 -0.321342826
vn -0.681452692 -1.0121591E-05 -0.731862247
vn 0.501050711 -0.862377822 0.0724746287
vn -0.00896077417 -0.999735415 0.0211864691
vn -0.593333304 -0.498061478 -0.632368863
vn -0.459993243 -1.08837285E-05 -0.887922406
vn -0.432363182 -0.874102354 -0.221375495
vn 0.863284528 -0.481514215 0.151274279
vn -0.393398821 -0.50218612 -0.77009511
vn -0.234720513 -1.04847059E-05 -0.972062886
vn 0.454242021 -0.864462435 0.215334117
vn -0.342411757 -0.868180454 -0.359189004
vn -0.0135092707 -0.999563873 0.0262578838
vn 0.98228097 -9.44742533E-06 0.187414333
vn 0.785195291 -0.479798645 0.391486496
vn 0.371990353 -0.859063923 0.35161379
vn -0.0228948407 -0.999455273 0.0237701256
vn 0.785199404 0.479789913 0.39148882
vn 0.888846338 -9.34442141E-06 0.458205551
vn 0.371990353 0.859063923 0.35161376
vn -0.219665349 -0.872503877 -0.436444968
vn 0.643439114 -0.477071255 0.598655939
vn 0.643442392 0.47706303 0.598659098
vn 0.730852127 -9.51104266E-06 0.682535887
vn 0.478401154 -0.484377384 0.732469082
vn 0.478403419 0.484368384 0.732473493
vn -0.022895027 0.999455273 0.0237709489
vn 0.265485287 -0.862816989 0.430191219
vn 0.553489327 -9.87107342E-06 0.832856238
vn 0.360671431 -1.03414095E-05 0.932693005
vn 0.265484959 0.862816811 0.430191785
vn 0.31481117 -0.483718604 0.816645682
vn 0.184175506 -0.855548382 0.483855784
vn 0.31481275 0.48370859 0.816651046
vn 0.143606439 -1.01400947E-05 0.989634931
vn 0.18417497 0.855547905 0.483856767
vn -0.00850719213 -0.999726355 0.0217901487
vn 0.129023924 -0.475075096 0.870434701
vn -0.0365590975 -1.00203333E-05 0.999331474
vn 0.12902455 0.475065708 0.870439768
vn 0.0817938149 -0.848227799 0.52327764
vn -0.000617448939 -0.999934912 0.0113978125
vn -0.033551462 -0.471016884 0.88148582
vn -0.0214090999 -0.846090138 0.53260982
vn -0.10118752 -0.859773159 -0.500550985
vn -0.179915324 -0.475427359 0.86116153
vn -0.192224607 -0.488791317 -0.850959897
vn 0.0187384766 -1.05651479E-05 -0.999824464
vn 0.0165795386 -0.487846941 -0.872771621
vn 0.0117911911 -0.861346662 -0.507880688
vn -0.00197002781 -0.999808013 0.019495083
vn 0.233760059 -0.4902713 -0.839637041
vn 0.279393375 -1.09836765E-05 -0.960176706
vn -0.112919316 -0.849234343 0.515800595
vn 0.130399585 -0.858166099 -0.496534884
vn 0.000193347674 -0.999943614 0.0106213698
vn 0.425413728 -0.49313727 -0.758840382
vn 0.492185712 -1.14020695E-05 -0.870490253
vn -0.00572306151 -0.999864459 0.0154350791
vn 0.246145278 -0.861844301 -0.443437666
vn 0.622877538 -0.486382753 -0.612743974
vn 0.717355072 -1.05732361E-05 -0.696707726
vn 0.361712158 -0.857614577 -0.365597486
vn 0.762001216 -0.480655015 -0.433964133
vn 0.876359642 -1.02497479E-05 -0.481657356
vn 0.435418755 -0.86089319 -0.263198525
vn 0.829646587 -0.491443038 -0.264896661
vn 0.956712782 -1.05997069E-05 -0.291033477
vn 0.999759972 -1.12058551E-05 0.0219083875
vn -0.00221330882 -0.999991417 0.00349530415
vn -0.0177853256 -0.999770701 0.0119301882
vn 0.478536218 -0.863577664 -0.158860549
vn 0.857484043 -0.514298499 0.0147645799
vn -0.0142660476 -0.999896407 0.0018972134
vn 0.802217901 -0.496392906 0.331723392
vn 0.923056483 -1.07686292E-05 0.384664476
vn 0.479806811 -0.877346754 0.00693809893
vn 0.681617737 -0.492144376 0.541471303
vn 0.772380054 -1.05247254E-05 0.635160744
vn 0.468651921 -0.863830447 0.184830502
vn 0.846788406 -0.449605435 0.284260839
vn 0.925698161 -8.16850115E-06 0.378263205
vn 0.617313147 -0.78603375 0.0327942483
vn 0.406306624 -0.864091218 0.297087997
vn 0.282272249 -0.912559092 -0.295902342
vn -0.0185599439 -0.999812305 -0.00556701748
vn -0.0639007688 -0.789835036 -0.609981477
vn -0.0119300364 -0.999926329 -0.00224629999
vn -0.0335515589 -0.999423981 -0.00510836998
vn -0.505385697 -0.845629454 -0.171744198
vn -0.455761671 -0.8481794 -0.269949824
vn -0.761992991 -0.4738864 -0.44135958
vn -0.319942147 -0.452805132 -0.832228661
vn -0.867118299 -9.94912625E-06 -0.498102307
vn -0.412866563 -8.23861865E-06 -0.910791576
vn -0.319939107 0.452797413 -0.832233965
vn -0.517100155 -0.842048705 0.15349704
vn -0.547200739 -0.836695611 -0.022623796
vn -0.842741609 -0.463013023 -0.274600744
vn -0.454716742 -0.843578577 0.285670847
vn -0.855530739 -0.452278614 0.252014279
vn -0.890289426 -0.454467624 -0.0290502198
vn -0.36082682 -0.849353194 0.385231137
vn -0.952579141 -9.55092401E-06 -0.304290891
vn -0.754446208 -0.454407305 0.473629594
vn -0.241473749 -0.847113609 0.473380238
vn -0.999595344 -9.28962345E-06 -0.0284467433
vn -0.605201006 -0.462092608 0.648230016
vn -0.394092917 -0.471806049 0.788726747
vn -0.959265947 -9.3558574E-06 0.282504618
vn -0.846306443 -9.11014831E-06 0.532696366
vn -0.681720376 -9.23976495E-06 0.731612802
vn -0.44233644 -1.00172811E-05 0.896849155
vn -0.201653212 -1.01942387E-05 0.97945708
vn -0.179916188 0.475417435 0.861166894
vn -0.394094825 0.471796006 0.788731873
vn -0.605204403 0.462088227 0.648229897
vn -0.75444603 0.454405308 0.47363162
vn -0.855532587 0.45227325 0.252017587
vn -0.0335514396 0.471007586 0.881490827
vn 0.081793502 0.848226905 0.523279011
vn -0.0214085393 0.846089184 0.532611251
vn -0.112918943 0.849233747 0.515801668
vn -0.241473913 0.847113132 0.473381191
vn -0.360830069 0.849353731 0.385227054
vn -0.0085075302 0.999726355 0.0217909813
vn -0.000617630954 0.999934912 0.0113991834
vn -0.21966584 0.872503936 -0.436444551
vn -0.101187535 0.859773159 -0.500550985
vn -0.0019696306 0.999808013 0.0194964167
vn -0.00572305592 0.999864459 0.0154350745
vn 0.0117911901 0.861346662 -0.507880688
vn 0.0165796354 0.487838238 -0.872776628
vn 0.000193670901 0.999943614 0.0106218159
vn 0.130399585 0.858166099 -0.496534884
vn 0.233761564 0.490262091 -0.839641988
vn 0.279393375 -1.09836765E-05 -0.960176706
vn 0.246145412 0.86184448 -0.443437189
vn 0.425417095 0.493128031 -0.758844614
vn 0.492185712 -1.14020695E-05 -0.870490253
vn -0.00221599382 0.999991417 0.00349587691
vn 0.361712575 0.857615054 -0.365596086
vn 0.62288183 0.486374587 -0.612746239
vn 0.717355072 -1.05732361E-05 -0.696707726
vn -0.454711884 0.843583941 0.28566283
vn -0.0177879501 0.999770582 0.0119344136
vn 0.435418516 0.860893846 -0.263196617
vn 0.762005627 0.48064658 -0.433965892
vn 0.876359642 -1.02497479E-05 -0.481657356
vn 0.829651356 0.491434187 -0.264898181
vn 0.956712782 -1.05997069E-05 -0.291033477
vn 0.999759972 -1.12058551E-05 0.0219083875
vn -0.517098069 0.842049301 0.153501391
vn -0.0142665189 0.999896407 0.00190010038
vn 0.478536099 0.863577843 -0.158859894
vn 0.857489526 0.514289677 0.0147647252
vn 0.479806006 0.877347112 0.00693662651
vn -0.0335509367 0.999423981 -0.00510821585
vn -0.547201335 0.836695194 -0.0226232782
vn 0.80222255 0.496383995 0.331725448
vn 0.923056483 -1.07686292E-05 0.384664476
vn 0.468649626 0.863831818 0.184829652
vn -0.0119396467 0.999926209 -0.00224971282
vn 0.681621492 0.492135644 0.54147464
vn 0.772380054 -1.05247254E-05 0.635160744
vn 0.406304717 0.864091754 0.29708907
vn 0.84679389 0.449597865 0.284256518
vn 0.925698161 -8.16850115E-06 0.378263205
vn 0.617319286 0.786029041 0.0327906124
vn 0.282272249 0.912559092 -0.295902401
vn -0.0185592696 0.999812305 -0.00556621887
vn -0.063897267 0.789830446 -0.609987736
vn -0.505387127 0.845628619 -0.171744511
vn -0.455761999 0.848178804 -0.269951314
vn -0.761997283 0.473877311 -0.441362023
vn -0.84274596 0.463004351 -0.274602205
vn -0.890293956 0.454458773 -0.0290502496
vn -0 3.84461714E-07 -1
vn -0 0 -1
vn -0 0 -1
vn -0 0 -1
vn -0 0 -1
vn -0 0 -1
vn -4.22217795E-07 7.31246246E-07 -1
vn -0 0 -1
vn -3.09054059E-07 1.15339878E-06 -1
vn -0 0 -1
vn -0 8.44332874E-07 -1
vn 4.22197104E-07 7.3124761E-07 -1
vn 3.0904431E-07 1.15340879E-06 -1
vn -0.319939107 0.452797413 -0.832233965
vn -0.412866563 -8.23861865E-06 -0.910791576
vn 0.350752443 -2.83836107E-06 -0.936468244
vn -0.319942147 -0.452805132 -0.832228661
vn 0.38925454 0.208916053 -0.897126019
vn -0.063897267 0.789830446 -0.609987736
vn 0.389247507 -0.20893988 -0.897123396
vn -0.0639007688 -0.789835036 -0.609981477
vn 0.495310962 0.364131063 -0.788717687
vn 0.282272249 0.912559092 -0.295902401
vn 0.704957902 -3.2167743E-06 -0.709249139
vn 0.495311856 -0.364139885 -0.788713098
vn 0.64235878 0.424141288 -0.63834101
vn 0.282272249 -0.912559092 -0.295902342
vn 0.617319286 0.786029041 0.0327906124
vn 0.642357826 -0.424144298 -0.638340116
vn 0.617313147 -0.78603375 0.0327942483
vn 0.791961074 0.370485485 -0.485322714
vn 0.84679389 0.449597865 0.284256518
vn 0.791956246 -0.370494634 -0.485323668
vn 0.846788406 -0.449605435 0.284260839
vn 0.903096735 0.215266347 -0.37158674
vn 0.925698161 -8.16850115E-06 0.378263205
vn 0.903093874 -0.215291157 -0.371579319
vn 0.944111168 -3.01879368E-06 -0.329627216
vn 0.184565112 0.319694102 0.929371536
vn 9.92310333E-07 0.369166762 0.929363191
vn 0.184573352 0.319689274 0.929371536
vn 1.5562274E-06 0.369166762 0.929363191
vn 0.319679111 0.184565827 0.929376483
vn -0.184569106 0.319705606 0.929366827
vn 0.319675207 0.184572577 0.929376483
vn -0.184571743 0.319704056 0.929366827
vn 0.369141936 -1.15210169E-05 0.929373085
vn -0.319690645 0.184579074 0.929369926
vn 0.369141936 5.33392767E-06 0.929373085
vn -0.319694877 0.184571832 0.929369926
vn 0.319693625 -0.184578821 0.929368973
vn -0.369164139 7.29570456E-06 0.929364264
vn 0.319696426 -0.184573933 0.929368973
vn -0.369164139 -8.98236067E-06 0.929364264
vn 0.184575245 -0.319698691 0.92936784
vn -0.319693089 -0.184573978 0.929370105
vn 0.184582248 -0.319694668 0.92936784
vn -0.319698066 -0.18456535 0.929370105
vn 4.04536559E-06 -0.369166762 0.929363191
vn -0.184571207 -0.319692433 0.929370821
vn 2.90362004E-06 -0.369166732 0.929363191
vn -0.1845624 -0.319697529 0.929370821
vn 0.123521931 -0.0713173822 -0.989775896
vn 0.0713143051 -0.123527251 -0.989775419
vn 0.123521484 -0.071318157 -0.989775896
vn 0.0713148117 -0.123526983 -0.989775419
vn 0.142630368 -8.43473401E-07 -0.989776015
vn 1.23768461E-06 -0.142636389 -0.989775181
vn 0.142630383 -5.4994706E-07 -0.989776015
vn 1.76232993E-06 -0.142636389 -0.989775181
vn 0.123525299 0.071315445 -0.989775538
vn -0.0713130534 -0.123527549 -0.989775419
vn 0.123525791 0.0713145658 -0.989775538
vn -0.0713130906 -0.123527527 -0.989775419
vn 0.0713151991 0.123526491 -0.989775419
vn -0.123524584 -0.0713169351 -0.989775538
vn 0.0713169649 0.12352547 -0.989775419
vn -0.123525485 -0.0713154003 -0.989775538
vn 1.40171574E-06 0.142637357 -0.989775062
vn -0.142637417 -5.48500225E-07 -0.989775062
vn -2.36593655E-06 0.142637357 -0.989775062
vn -0.142637432 -8.4143619E-07 -0.989775062
vn -0.071316734 0.123527929 -0.989775181
vn -0.123529248 0.0713157505 -0.989775062
vn -0.0713159442 0.123528384 -0.989775062
vn -0.12352889 0.0713164285 -0.989775062
vn 0.214924261 0.372244239 0.902907372
vn 4.42729788E-06 0.429814726 0.902917087
vn 0.214924976 0.372243851 0.902907372
vn 6.07747825E-06 0.429814756 0.902917087
vn 0.372240841 0.214919418 0.902909994
vn -0.214920565 0.372245073 0.902907968
vn 0.372240365 0.214920223 0.902909994
vn -0.21491845 0.372246265 0.902907968
vn 0.429798216 -5.56270493E-07 0.902924955
vn -0.37224564 0.214919746 0.902907968
vn 0.429798156 2.40011013E-05 0.902924955
vn -0.372246563 0.214918181 0.902907968
vn 0.372216433 -0.214908689 0.90292263
vn -0.4298141 -4.44415355E-06 0.902917385
vn 0.372222215 -0.214898616 0.90292263
vn -0.42981413 -6.11068299E-06 0.902917385
vn 0.214906752 -0.372243613 0.902911842
vn -0.372243136 -0.214924037 0.902907968
vn 0.214910194 -0.372241586 0.902911842
vn -0.372243345 -0.214923501 0.902907968
vn 1.51563163E-05 -0.429812461 0.90291822
vn -0.214919955 -0.372238338 0.902910888
vn -1.25571205E-05 -0.429812491 0.90291816
vn -0.214918554 -0.372239113 0.902910948
g ShouZhang_0
f 3/3/3 2/2/2 1/1/1
f 4/4/4 3/3/3 1/1/1
f 5/5/5 3/3/3 4/4/4
f 6/6/6 5/5/5 4/4/4
f 7/7/7 5/5/5 6/6/6
f 8/8/8 7/7/7 6/6/6
f 9/9/9 7/7/7 8/8/8
f 10/10/10 9/9/9 8/8/8
f 11/11/11 9/9/9 10/10/10
f 12/12/12 11/11/11 10/10/10
f 13/13/13 11/11/11 12/12/12
f 14/14/14 13/13/13 12/12/12
f 15/15/15 13/13/13 14/14/14
f 16/16/16 15/15/15 14/14/14
f 17/17/17 15/15/15 16/16/16
f 18/18/18 17/17/17 16/16/16
f 19/19/19 17/17/17 18/18/18
f 20/20/20 19/19/19 18/18/18
f 21/21/21 19/19/19 20/20/20
f 22/22/22 21/21/21 20/20/20
f 23/23/23 21/21/21 22/22/22
f 24/24/24 23/23/23 22/22/22
f 25/25/25 23/23/23 24/24/24
f 26/26/26 25/25/25 24/24/24
f 29/29/29 28/28/28 27/27/27
f 30/30/30 29/29/29 27/27/27
f 30/30/30 27/27/27 31/31/31
f 32/32/32 30/30/30 31/31/31
f 32/32/32 31/31/31 33/33/33
f 34/34/34 32/32/32 33/33/33
f 34/34/34 33/33/33 35/35/35
f 36/36/36 34/34/34 35/35/35
f 36/36/36 35/35/35 37/37/37
f 38/38/38 36/36/36 37/37/37
f 38/38/38 37/37/37 39/39/39
f 40/40/40 38/38/38 39/39/39
f 40/40/40 39/39/39 41/41/41
f 42/42/42 40/40/40 41/41/41
f 42/42/42 41/41/41 43/43/43
f 44/44/44 42/42/42 43/43/43
f 44/44/44 43/43/43 45/45/45
f 46/46/46 44/44/44 45/45/45
f 46/46/46 45/45/45 47/47/47
f 48/48/48 46/46/46 47/47/47
f 48/48/48 47/47/47 49/49/49
f 50/50/50 48/48/48 49/49/49
f 50/50/50 49/49/49 51/51/51
f 52/52/52 50/50/50 51/51/51
f 55/55/55 54/54/54 53/53/53
f 54/54/54 56/56/56 53/53/53
f 53/53/53 56/56/56 57/57/57
f 54/54/54 58/58/58 56/56/56
f 56/56/56 59/59/59 57/57/57
f 57/57/57 59/59/59 60/60/60
f 58/58/58 61/61/61 56/56/56
f 56/56/56 61/61/61 59/59/59
f 58/58/58 62/62/62 61/61/61
f 59/59/59 63/63/63 60/60/60
f 60/60/60 63/63/63 64/64/64
f 61/61/61 65/65/65 59/59/59
f 59/59/59 65/65/65 63/63/63
f 62/62/62 66/66/66 61/61/61
f 61/61/61 66/66/66 65/65/65
f 62/62/62 67/67/67 66/66/66
f 63/63/63 68/68/68 64/64/64
f 64/64/64 68/68/68 69/69/69
f 65/65/65 70/70/70 63/63/63
f 63/63/63 70/70/70 68/68/68
f 66/66/66 71/71/71 65/65/65
f 65/65/65 71/71/71 70/70/70
f 67/67/67 72/72/72 66/66/66
f 66/66/66 72/72/72 71/71/71
f 67/67/67 73/73/73 72/72/72
f 68/68/68 74/74/74 69/69/69
f 69/69/69 74/74/74 75/75/75
f 70/70/70 76/76/76 68/68/68
f 68/68/68 76/76/76 74/74/74
f 71/71/71 77/77/77 70/70/70
f 70/70/70 77/77/77 76/76/76
f 72/72/72 78/78/78 71/71/71
f 71/71/71 78/78/78 77/77/77
f 73/73/73 79/79/79 72/72/72
f 72/72/72 79/79/79 78/78/78
f 79/79/79 73/73/73 80/80/80
f 74/74/74 81/81/81 75/75/75
f 75/75/75 81/81/81 82/82/82
f 76/76/76 83/83/83 74/74/74
f 74/74/74 83/83/83 81/81/81
f 77/77/77 84/84/84 76/76/76
f 76/76/76 84/84/84 83/83/83
f 78/78/78 85/85/85 77/77/77
f 77/77/77 85/85/85 84/84/84
f 79/79/79 86/86/86 78/78/78
f 86/86/86 79/79/79 80/80/80
f 78/78/78 86/86/86 85/85/85
f 81/81/81 87/87/87 82/82/82
f 82/82/82 87/87/87 88/88/88
f 87/87/87 89/89/89 88/88/88
f 83/83/83 90/90/90 81/81/81
f 81/81/81 90/90/90 87/87/87
f 87/87/87 91/91/91 89/89/89
f 90/90/90 91/91/91 87/87/87
f 91/91/91 92/92/92 89/89/89
f 84/84/84 93/93/93 83/83/83
f 83/83/83 93/93/93 90/90/90
f 85/85/85 94/94/94 84/84/84
f 84/84/84 94/94/94 93/93/93
f 86/86/86 95/95/95 85/85/85
f 85/85/85 95/95/95 94/94/94
f 95/95/95 86/86/86 80/80/80
f 91/91/91 96/96/96 92/92/92
f 96/96/96 97/97/97 92/92/92
f 90/90/90 98/98/98 91/91/91
f 93/93/93 98/98/98 90/90/90
f 98/98/98 96/96/96 91/91/91
f 94/94/94 99/99/99 93/93/93
f 93/93/93 99/99/99 98/98/98
f 95/95/95 100/100/100 94/94/94
f 100/100/100 95/95/95 80/80/80
f 94/94/94 100/100/100 99/99/99
f 96/96/96 101/101/101 97/97/97
f 101/101/101 102/102/102 97/97/97
f 98/98/98 103/103/103 96/96/96
f 99/99/99 103/103/103 98/98/98
f 103/103/103 101/101/101 96/96/96
f 100/100/100 104/104/104 99/99/99
f 99/99/99 104/104/104 103/103/103
f 104/104/104 100/100/100 80/80/80
f 104/104/104 105/105/105 103/103/103
f 103/103/103 105/105/105 101/101/101
f 105/105/105 104/104/104 80/80/80
f 101/101/101 106/106/106 102/102/102
f 105/105/105 106/106/106 101/101/101
f 106/106/106 105/105/105 80/80/80
f 106/106/106 107/107/107 102/102/102
f 107/107/107 106/106/106 80/80/80
f 110/110/110 109/109/109 108/108/108
f 109/109/109 111/111/111 108/108/108
f 108/108/108 111/111/111 112/112/112
f 109/109/109 113/113/113 111/111/111
f 111/111/111 114/114/114 112/112/112
f 112/112/112 114/114/114 115/115/115
f 113/113/113 116/116/116 111/111/111
f 111/111/111 116/116/116 114/114/114
f 113/113/113 117/117/117 116/116/116
f 114/114/114 118/118/118 115/115/115
f 115/115/115 118/118/118 119/119/119
f 116/116/116 120/120/120 114/114/114
f 114/114/114 120/120/120 118/118/118
f 117/117/117 121/121/121 116/116/116
f 116/116/116 121/121/121 120/120/120
f 117/117/117 122/122/122 121/121/121
f 118/118/118 123/123/123 119/119/119
f 119/119/119 123/123/123 124/124/124
f 120/120/120 125/125/125 118/118/118
f 118/118/118 125/125/125 123/123/123
f 121/121/121 126/126/126 120/120/120
f 120/120/120 126/126/126 125/125/125
f 122/122/122 127/127/127 121/121/121
f 121/121/121 127/127/127 126/126/126
f 122/122/122 128/128/128 127/127/127
f 123/123/123 129/129/129 124/124/124
f 124/124/124 129/129/129 130/130/130
f 125/125/125 131/131/131 123/123/123
f 123/123/123 131/131/131 129/129/129
f 126/126/126 132/132/132 125/125/125
f 125/125/125 132/132/132 131/131/131
f 127/127/127 133/133/133 126/126/126
f 126/126/126 133/133/133 132/132/132
f 128/128/128 134/134/134 127/127/127
f 127/127/127 134/134/134 133/133/133
f 134/134/134 128/128/128 135/135/135
f 129/129/129 136/136/136 130/130/130
f 130/130/130 136/136/136 137/137/137
f 131/131/131 138/138/138 129/129/129
f 129/129/129 138/138/138 136/136/136
f 132/132/132 139/139/139 131/131/131
f 131/131/131 139/139/139 138/138/138
f 133/133/133 140/140/140 132/132/132
f 132/132/132 140/140/140 139/139/139
f 134/134/134 141/141/141 133/133/133
f 141/141/141 134/134/134 135/135/135
f 133/133/133 141/141/141 140/140/140
f 136/136/136 142/142/142 137/137/137
f 137/137/137 142/142/142 143/143/143
f 142/142/142 144/144/144 143/143/143
f 138/138/138 145/145/145 136/136/136
f 136/136/136 145/145/145 142/142/142
f 142/142/142 146/146/146 144/144/144
f 145/145/145 146/146/146 142/142/142
f 146/146/146 147/147/147 144/144/144
f 139/139/139 148/148/148 138/138/138
f 138/138/138 148/148/148 145/145/145
f 140/140/140 149/149/149 139/139/139
f 139/139/139 149/149/149 148/148/148
f 141/141/141 150/150/150 140/140/140
f 140/140/140 150/150/150 149/149/149
f 150/150/150 141/141/141 135/135/135
f 146/146/146 151/151/151 147/147/147
f 151/151/151 152/152/152 147/147/147
f 145/145/145 153/153/153 146/146/146
f 148/148/148 153/153/153 145/145/145
f 153/153/153 151/151/151 146/146/146
f 149/149/149 154/154/154 148/148/148
f 148/148/148 154/154/154 153/153/153
f 150/150/150 155/155/155 149/149/149
f 155/155/155 150/150/150 135/135/135
f 149/149/149 155/155/155 154/154/154
f 151/151/151 156/156/156 152/152/152
f 156/156/156 157/157/157 152/152/152
f 153/153/153 158/158/158 151/151/151
f 154/154/154 158/158/158 153/153/153
f 158/158/158 156/156/156 151/151/151
f 155/155/155 159/159/159 154/154/154
f 154/154/154 159/159/159 158/158/158
f 159/159/159 155/155/155 135/135/135
f 159/159/159 160/160/160 158/158/158
f 158/158/158 160/160/160 156/156/156
f 160/160/160 159/159/159 135/135/135
f 156/156/156 161/161/161 157/157/157
f 160/160/160 161/161/161 156/156/156
f 161/161/161 160/160/160 135/135/135
f 161/161/161 162/162/162 157/157/157
f 162/162/162 161/161/161 135/135/135
f 165/165/165 164/164/164 163/163/163
f 166/166/166 165/165/165 163/163/163
f 167/167/167 165/165/165 166/166/166
f 168/168/168 167/167/167 166/166/166
f 169/169/169 167/167/167 168/168/168
f 170/170/170 169/169/169 168/168/168
f 171/171/171 169/169/169 170/170/170
f 172/172/172 171/171/171 170/170/170
f 173/173/173 171/171/171 172/172/172
f 174/174/174 173/173/173 172/172/172
f 175/175/175 173/173/173 174/174/174
f 176/176/176 175/175/175 174/174/174
f 177/177/177 175/175/175 176/176/176
f 178/178/178 177/177/177 176/176/176
f 179/179/179 177/177/177 178/178/178
f 180/180/180 179/179/179 178/178/178
f 181/181/181 179/179/179 180/180/180
f 182/182/182 181/181/181 180/180/180
f 183/183/183 181/181/181 182/182/182
f 184/184/184 183/183/183 182/182/182
f 185/185/185 183/183/183 184/184/184
f 186/186/186 185/185/185 184/184/184
f 187/187/187 185/185/185 186/186/186
f 188/188/188 187/187/187 186/186/186
f 191/191/191 190/190/190 189/189/189
f 192/192/192 191/191/191 189/189/189
f 189/189/189 193/193/193 192/192/192
f 194/194/194 191/191/191 192/192/192
f 193/193/193 195/195/195 192/192/192
f 195/195/195 193/193/193 196/196/196
f 197/197/197 194/194/194 192/192/192
f 192/192/192 195/195/195 197/197/197
f 198/198/198 194/194/194 197/197/197
f 199/199/199 195/195/195 196/196/196
f 199/199/199 196/196/196 200/200/200
f 201/201/201 198/198/198 197/197/197
f 202/202/202 198/198/198 201/201/201
f 195/195/195 203/203/203 197/197/197
f 203/203/203 195/195/195 199/199/199
f 197/197/197 203/203/203 201/201/201
f 204/204/204 199/199/199 200/200/200
f 204/204/204 200/200/200 205/205/205
f 206/206/206 202/202/202 201/201/201
f 207/207/207 202/202/202 206/206/206
f 203/203/203 208/208/208 201/201/201
f 201/201/201 208/208/208 206/206/206
f 209/209/209 203/203/203 199/199/199
f 209/209/209 199/199/199 204/204/204
f 208/208/208 203/203/203 209/209/209
f 210/210/210 204/204/204 205/205/205
f 210/210/210 205/205/205 211/211/211
f 212/212/212 207/207/207 206/206/206
f 213/213/213 207/207/207 212/212/212
f 214/214/214 209/209/209 204/204/204
f 214/214/214 204/204/204 210/210/210
f 208/208/208 215/215/215 206/206/206
f 206/206/206 215/215/215 212/212/212
f 216/216/216 208/208/208 209/209/209
f 216/216/216 209/209/209 214/214/214
f 215/215/215 208/208/208 216/216/216
f 217/217/217 210/210/210 211/211/211
f 217/217/217 211/211/211 218/218/218
f 219/219/219 214/214/214 210/210/210
f 219/219/219 210/210/210 217/217/217
f 220/220/220 216/216/216 214/214/214
f 220/220/220 214/214/214 219/219/219
f 221/221/221 215/215/215 216/216/216
f 221/221/221 216/216/216 220/220/220
f 215/215/215 222/222/222 212/212/212
f 222/222/222 215/215/215 221/221/221
f 223/223/223 217/217/217 218/218/218
f 223/223/223 218/218/218 224/224/224
f 212/212/212 222/222/222 225/225/225
f 225/225/225 213/213/213 212/212/212
f 213/213/213 225/225/225 226/226/226
f 227/227/227 213/213/213 226/226/226
f 227/227/227 226/226/226 228/228/228
f 229/229/229 227/227/227 228/228/228
f 229/229/229 228/228/228 230/230/230
f 231/231/231 229/229/229 230/230/230
f 231/231/231 230/230/230 232/232/232
f 233/233/233 231/231/231 232/232/232
f 233/233/233 232/232/232 234/234/234
f 235/235/235 233/233/233 234/234/234
f 235/235/235 234/234/234 236/236/236
f 237/237/237 235/235/235 236/236/236
f 238/238/238 236/236/236 234/234/234
f 239/239/239 238/238/238 234/234/234
f 239/239/239 234/234/234 232/232/232
f 240/240/240 238/238/238 239/239/239
f 241/241/241 232/232/232 230/230/230
f 241/241/241 239/239/239 232/232/232
f 242/242/242 240/240/240 239/239/239
f 242/242/242 239/239/239 241/241/241
f 243/243/243 240/240/240 242/242/242
f 244/244/244 230/230/230 228/228/228
f 244/244/244 241/241/241 230/230/230
f 245/245/245 242/242/242 241/241/241
f 245/245/245 241/241/241 244/244/244
f 246/246/246 243/243/243 242/242/242
f 246/246/246 242/242/242 245/245/245
f 243/243/243 246/246/246 247/247/247
f 248/248/248 244/244/244 228/228/228
f 248/248/248 228/228/228 226/226/226
f 249/249/249 245/245/245 244/244/244
f 249/249/249 244/244/244 248/248/248
f 246/246/246 250/250/250 247/247/247
f 251/251/251 247/247/247 250/250/250
f 252/252/252 246/246/246 245/245/245
f 252/252/252 245/245/245 249/249/249
f 250/250/250 246/246/246 252/252/252
f 253/253/253 248/248/248 226/226/226
f 253/253/253 226/226/226 225/225/225
f 254/254/254 251/251/251 250/250/250
f 255/255/255 251/251/251 254/254/254
f 256/256/256 249/249/249 248/248/248
f 256/256/256 248/248/248 253/253/253
f 257/257/257 250/250/250 252/252/252
f 254/254/254 250/250/250 257/257/257
f 258/258/258 252/252/252 249/249/249
f 258/258/258 249/249/249 256/256/256
f 252/252/252 258/258/258 257/257/257
f 259/259/259 253/253/253 225/225/225
f 222/222/222 259/259/259 225/225/225
f 260/260/260 256/256/256 253/253/253
f 260/260/260 253/253/253 259/259/259
f 261/261/261 258/258/258 256/256/256
f 261/261/261 256/256/256 260/260/260
f 258/258/258 262/262/262 257/257/257
f 258/258/258 261/261/261 262/262/262
f 259/259/259 222/222/222 263/263/263
f 263/263/263 222/222/222 221/221/221
f 264/264/264 260/260/260 259/259/259
f 264/264/264 259/259/259 263/263/263
f 263/263/263 221/221/221 265/265/265
f 265/265/265 221/221/221 220/220/220
f 266/266/266 257/257/257 262/262/262
f 266/266/266 254/254/254 257/257/257
f 267/267/267 261/261/261 260/260/260
f 267/267/267 260/260/260 264/264/264
f 264/264/264 263/263/263 268/268/268
f 268/268/268 263/263/263 265/265/265
f 269/269/269 267/267/267 264/264/264
f 269/269/269 264/264/264 268/268/268
f 261/261/261 267/267/267 270/270/270
f 267/267/267 269/269/269 270/270/270
f 269/269/269 268/268/268 271/271/271
f 271/271/271 268/268/268 265/265/265
f 265/265/265 220/220/220 272/272/272
f 272/272/272 220/220/220 219/219/219
f 273/273/273 261/261/261 270/270/270
f 261/261/261 273/273/273 262/262/262
f 274/274/274 269/269/269 271/271/271
f 269/269/269 274/274/274 270/270/270
f 270/270/270 274/274/274 275/275/275
f 274/274/274 271/271/271 275/275/275
f 276/276/276 271/271/271 265/265/265
f 276/276/276 265/265/265 272/272/272
f 273/273/273 270/270/270 277/277/277
f 277/277/277 270/270/270 275/275/275
f 262/262/262 273/273/273 278/278/278
f 278/278/278 273/273/273 277/277/277
f 271/271/271 279/279/279 275/275/275
f 271/271/271 276/276/276 279/279/279
f 275/275/275 280/280/280 277/277/277
f 280/280/280 275/275/275 279/279/279
f 276/276/276 281/281/281 279/279/279
f 276/276/276 272/272/272 281/281/281
f 282/282/282 262/262/262 278/278/278
f 282/282/282 266/266/266 262/262/262
f 277/277/277 283/283/283 278/278/278
f 280/280/280 283/283/283 277/277/277
f 283/283/283 280/280/280 284/284/284
f 285/285/285 280/280/280 279/279/279
f 285/285/285 279/279/279 281/281/281
f 280/280/280 285/285/285 284/284/284
f 278/278/278 286/286/286 282/282/282
f 283/283/283 286/286/286 278/278/278
f 282/282/282 287/287/287 266/266/266
f 286/286/286 287/287/287 282/282/282
f 286/286/286 283/283/283 288/288/288
f 288/288/288 283/283/283 284/284/284
f 289/289/289 286/286/286 288/288/288
f 287/287/287 286/286/286 289/289/289
f 287/287/287 290/290/290 266/266/266
f 266/266/266 290/290/290 254/254/254
f 288/288/288 284/284/284 291/291/291
f 289/289/289 288/288/288 291/291/291
f 290/290/290 292/292/292 254/254/254
f 292/292/292 255/255/255 254/254/254
f 293/293/293 255/255/255 292/292/292
f 294/294/294 292/292/292 290/290/290
f 294/294/294 293/293/293 292/292/292
f 295/295/295 290/290/290 287/287/287
f 295/295/295 294/294/294 290/290/290
f 296/296/296 287/287/287 289/289/289
f 296/296/296 295/295/295 287/287/287
f 293/293/293 294/294/294 297/297/297
f 298/298/298 293/293/293 297/297/297
f 296/296/296 289/289/289 299/299/299
f 299/299/299 289/289/289 291/291/291
f 294/294/294 295/295/295 300/300/300
f 297/297/297 294/294/294 300/300/300
f 295/295/295 296/296/296 301/301/301
f 301/301/301 296/296/296 299/299/299
f 300/300/300 295/295/295 301/301/301
f 298/298/298 297/297/297 302/302/302
f 303/303/303 298/298/298 302/302/302
f 300/300/300 301/301/301 304/304/304
f 304/304/304 301/301/301 299/299/299
f 297/297/297 300/300/300 305/305/305
f 302/302/302 297/297/297 305/305/305
f 305/305/305 300/300/300 304/304/304
f 302/302/302 306/306/306 303/303/303
f 306/306/306 307/307/307 303/303/303
f 305/305/305 308/308/308 302/302/302
f 308/308/308 306/306/306 302/302/302
f 307/307/307 306/306/306 309/309/309
f 310/310/310 307/307/307 309/309/309
f 309/309/309 306/306/306 311/311/311
f 306/306/306 308/308/308 311/311/311
f 310/310/310 309/309/309 312/312/312
f 309/309/309 311/311/311 312/312/312
f 313/313/313 310/310/310 312/312/312
f 314/314/314 313/313/313 312/312/312
f 315/315/315 308/308/308 305/305/305
f 304/304/304 315/315/315 305/305/305
f 311/311/311 308/308/308 316/316/316
f 308/308/308 315/315/315 316/316/316
f 311/311/311 317/317/317 312/312/312
f 318/318/318 314/314/314 312/312/312
f 318/318/318 312/312/312 317/317/317
f 317/317/317 311/311/311 319/319/319
f 311/311/311 316/316/316 319/319/319
f 318/318/318 320/320/320 314/314/314
f 320/320/320 321/321/321 314/314/314
f 322/322/322 318/318/318 317/317/317
f 322/322/322 317/317/317 319/319/319
f 321/321/321 320/320/320 323/323/323
f 324/324/324 321/321/321 323/323/323
f 325/325/325 320/320/320 318/318/318
f 322/322/322 325/325/325 318/318/318
f 324/324/324 323/323/323 326/326/326
f 327/327/327 324/324/324 326/326/326
f 326/326/326 323/323/323 328/328/328
f 323/323/323 320/320/320 329/329/329
f 323/323/323 329/329/329 328/328/328
f 320/320/320 325/325/325 329/329/329
f 328/328/328 329/329/329 330/330/330
f 329/329/329 331/331/331 330/330/330
f 329/329/329 325/325/325 331/331/331
f 330/330/330 331/331/331 332/332/332
f 333/333/333 325/325/325 322/322/322
f 325/325/325 333/333/333 331/331/331
f 334/334/334 333/333/333 322/322/322
f 334/334/334 322/322/322 319/319/319
f 333/333/333 335/335/335 331/331/331
f 335/335/335 333/333/333 334/334/334
f 331/331/331 336/336/336 332/332/332
f 335/335/335 336/336/336 331/331/331
f 332/332/332 336/336/336 337/337/337
f 336/336/336 335/335/335 337/337/337
f 338/338/338 332/332/332 337/337/337
f 338/338/338 337/337/337 339/339/339
f 340/340/340 338/338/338 339/339/339
f 340/340/340 339/339/339 341/341/341
f 334/334/334 319/319/319 342/342/342
f 319/319/319 316/316/316 342/342/342
f 343/343/343 335/335/335 334/334/334
f 343/343/343 334/334/334 342/342/342
f 335/335/335 344/344/344 337/337/337
f 337/337/337 344/344/344 339/339/339
f 344/344/344 335/335/335 343/343/343
f 316/316/316 345/345/345 342/342/342
f 316/316/316 315/315/315 345/345/345
f 343/343/343 342/342/342 346/346/346
f 342/342/342 345/345/345 346/346/346
f 347/347/347 344/344/344 343/343/343
f 347/347/347 343/343/343 346/346/346
f 315/315/315 348/348/348 345/345/345
f 348/348/348 315/315/315 304/304/304
f 349/349/349 344/344/344 347/347/347
f 344/344/344 349/349/349 339/339/339
f 345/345/345 350/350/350 346/346/346
f 345/345/345 348/348/348 350/350/350
f 351/351/351 348/348/348 304/304/304
f 351/351/351 304/304/304 299/299/299
f 347/347/347 346/346/346 352/352/352
f 352/352/352 349/349/349 347/347/347
f 353/353/353 348/348/348 351/351/351
f 348/348/348 353/353/353 350/350/350
f 351/351/351 299/299/299 354/354/354
f 354/354/354 353/353/353 351/351/351
f 299/299/299 291/291/291 354/354/354
f 346/346/346 350/350/350 355/355/355
f 346/346/346 355/355/355 352/352/352
f 350/350/350 353/353/353 356/356/356
f 350/350/350 356/356/356 355/355/355
f 357/357/357 353/353/353 354/354/354
f 353/353/353 357/357/357 356/356/356
f 354/354/354 291/291/291 358/358/358
f 358/358/358 357/357/357 354/354/354
f 291/291/291 359/359/359 358/358/358
f 284/284/284 359/359/359 291/291/291
f 359/359/359 360/360/360 358/358/358
f 359/359/359 284/284/284 360/360/360
f 357/357/357 358/358/358 361/361/361
f 360/360/360 361/361/361 358/358/358
f 357/357/357 362/362/362 356/356/356
f 362/362/362 357/357/357 361/361/361
f 355/355/355 356/356/356 363/363/363
f 362/362/362 363/363/363 356/356/356
f 355/355/355 364/364/364 352/352/352
f 364/364/364 355/355/355 363/363/363
f 284/284/284 365/365/365 360/360/360
f 285/285/285 365/365/365 284/284/284
f 285/285/285 366/366/366 365/365/365
f 366/366/366 285/285/285 281/281/281
f 360/360/360 365/365/365 367/367/367
f 366/366/366 367/367/367 365/365/365
f 360/360/360 368/368/368 361/361/361
f 368/368/368 360/360/360 367/367/367
f 362/362/362 361/361/361 369/369/369
f 368/368/368 369/369/369 361/361/361
f 362/362/362 370/370/370 363/363/363
f 370/370/370 362/362/362 369/369/369
f 366/366/366 281/281/281 371/371/371
f 272/272/272 371/371/371 281/281/281
f 366/366/366 372/372/372 367/367/367
f 372/372/372 366/366/366 371/371/371
f 371/371/371 272/272/272 373/373/373
f 372/372/372 371/371/371 373/373/373
f 272/272/272 219/219/219 373/373/373
f 373/373/373 219/219/219 217/217/217
f 374/374/374 373/373/373 217/217/217
f 374/374/374 372/372/372 373/373/373
f 223/223/223 374/374/374 217/217/217
f 372/372/372 375/375/375 367/367/367
f 368/368/368 367/367/367 375/375/375
f 369/369/369 368/368/368 376/376/376
f 370/370/370 369/369/369 376/376/376
f 372/372/372 374/374/374 377/377/377
f 375/375/375 372/372/372 377/377/377
f 374/374/374 223/223/223 378/378/378
f 377/377/377 374/374/374 378/378/378
f 378/378/378 223/223/223 224/224/224
f 379/379/379 368/368/368 375/375/375
f 379/379/379 375/375/375 377/377/377
f 368/368/368 379/379/379 376/376/376
f 380/380/380 379/379/379 377/377/377
f 380/380/380 377/377/377 378/378/378
f 379/379/379 380/380/380 376/376/376
f 381/381/381 378/378/378 224/224/224
f 381/381/381 380/380/380 378/378/378
f 382/382/382 381/381/381 224/224/224
f 380/380/380 383/383/383 376/376/376
f 380/380/380 381/381/381 383/383/383
f 381/381/381 382/382/382 384/384/384
f 381/381/381 384/384/384 383/383/383
f 382/382/382 385/385/385 384/384/384
f 386/386/386 376/376/376 383/383/383
f 386/386/386 370/370/370 376/376/376
f 387/387/387 383/383/383 384/384/384
f 387/387/387 386/386/386 383/383/383
f 388/388/388 384/384/384 385/385/385
f 388/388/388 387/387/387 384/384/384
f 389/389/389 388/388/388 385/385/385
f 370/370/370 386/386/386 390/390/390
f 370/370/370 390/390/390 363/363/363
f 364/364/364 363/363/363 390/390/390
f 386/386/386 387/387/387 391/391/391
f 386/386/386 391/391/391 390/390/390
f 387/387/387 388/388/388 392/392/392
f 387/387/387 392/392/392 391/391/391
f 388/388/388 389/389/389 393/393/393
f 388/388/388 393/393/393 392/392/392
f 389/389/389 394/394/394 393/393/393
f 395/395/395 393/393/393 394/394/394
f 392/392/392 393/393/393 395/395/395
f 396/396/396 395/395/395 394/394/394
f 395/395/395 396/396/396 397/397/397
f 398/398/398 390/390/390 391/391/391
f 398/398/398 364/364/364 390/390/390
f 399/399/399 391/391/391 392/392/392
f 399/399/399 398/398/398 391/391/391
f 400/400/400 392/392/392 395/395/395
f 400/400/400 399/399/399 392/392/392
f 401/401/401 395/395/395 397/397/397
f 400/400/400 395/395/395 401/401/401
f 399/399/399 400/400/400 402/402/402
f 402/402/402 400/400/400 401/401/401
f 398/398/398 399/399/399 403/403/403
f 403/403/403 399/399/399 402/402/402
f 364/364/364 398/398/398 404/404/404
f 404/404/404 398/398/398 403/403/403
f 405/405/405 401/401/401 397/397/397
f 406/406/406 405/405/405 397/397/397
f 407/407/407 402/402/402 401/401/401
f 405/405/405 407/407/407 401/401/401
f 408/408/408 403/403/403 402/402/402
f 407/407/407 408/408/408 402/402/402
f 405/405/405 406/406/406 409/409/409
f 406/406/406 410/410/410 409/409/409
f 411/411/411 407/407/407 405/405/405
f 409/409/409 411/411/411 405/405/405
f 409/409/409 410/410/410 412/412/412
f 410/410/410 413/413/413 412/412/412
f 409/409/409 412/412/412 414/414/414
f 411/411/411 409/409/409 414/414/414
f 411/411/411 414/414/414 415/415/415
f 411/411/411 416/416/416 407/407/407
f 416/416/416 411/411/411 415/415/415
f 416/416/416 408/408/408 407/407/407
f 416/416/416 415/415/415 417/417/417
f 408/408/408 418/418/418 403/403/403
f 418/418/418 404/404/404 403/403/403
f 408/408/408 416/416/416 419/419/419
f 419/419/419 416/416/416 417/417/417
f 418/418/418 408/408/408 419/419/419
f 420/420/420 419/419/419 417/417/417
f 418/418/418 419/419/419 420/420/420
f 341/341/341 420/420/420 417/417/417
f 339/339/339 420/420/420 341/341/341
f 421/421/421 418/418/418 420/420/420
f 421/421/421 420/420/420 339/339/339
f 418/418/418 421/421/421 404/404/404
f 349/349/349 421/421/421 339/339/339
f 421/421/421 422/422/422 404/404/404
f 421/421/421 349/349/349 422/422/422
f 422/422/422 364/364/364 404/404/404
f 349/349/349 352/352/352 422/422/422
f 364/364/364 422/422/422 352/352/352
f 425/425/425 424/424/424 423/423/423
f 424/424/424 426/426/426 423/423/423
f 427/427/427 425/425/425 423/423/423
f 426/426/426 428/428/428 423/423/423
f 429/429/429 427/427/427 423/423/423
f 428/428/428 430/430/430 423/423/423
f 431/431/431 429/429/429 423/423/423
f 430/430/430 432/432/432 423/423/423
f 433/433/433 431/431/431 423/423/423
f 432/432/432 434/434/434 423/423/423
f 435/435/435 433/433/433 423/423/423
f 434/434/434 435/435/435 423/423/423
f 438/438/438 437/437/437 436/436/436
f 437/437/437 438/438/438 439/439/439
f 440/440/440 438/438/438 436/436/436
f 440/440/440 436/436/436 441/441/441
f 438/438/438 442/442/442 439/439/439
f 439/439/439 442/442/442 443/443/443
f 444/444/444 440/440/440 441/441/441
f 444/444/444 441/441/441 445/445/445
f 440/440/440 446/446/446 438/438/438
f 438/438/438 446/446/446 442/442/442
f 444/444/444 446/446/446 440/440/440
f 442/442/442 446/446/446 447/447/447
f 442/442/442 447/447/447 443/443/443
f 448/448/448 446/446/446 444/444/444
f 448/448/448 444/444/444 445/445/445
f 443/443/443 447/447/447 449/449/449
f 448/448/448 445/445/445 450/450/450
f 447/447/447 451/451/451 449/449/449
f 447/447/447 446/446/446 451/451/451
f 449/449/449 451/451/451 452/452/452
f 453/453/453 448/448/448 450/450/450
f 453/453/453 446/446/446 448/448/448
f 453/453/453 450/450/450 454/454/454
f 451/451/451 455/455/455 452/452/452
f 451/451/451 446/446/446 455/455/455
f 452/452/452 455/455/455 456/456/456
f 457/457/457 453/453/453 454/454/454
f 457/457/457 446/446/446 453/453/453
f 457/457/457 454/454/454 458/458/458
f 455/455/455 459/459/459 456/456/456
f 455/455/455 446/446/446 459/459/459
f 456/456/456 459/459/459 458/458/458
f 460/460/460 457/457/457 458/458/458
f 460/460/460 446/446/446 457/457/457
f 459/459/459 460/460/460 458/458/458
f 459/459/459 446/446/446 460/460/460
f 463/463/463 462/462/462 461/461/461
f 462/462/462 464/464/464 461/461/461
f 463/463/463 461/461/461 465/465/465
f 462/462/462 466/466/466 464/464/464
f 467/467/467 463/463/463 465/465/465
f 466/466/466 468/468/468 464/464/464
f 467/467/467 465/465/465 469/469/469
f 466/466/466 470/470/470 468/468/468
f 471/471/471 467/467/467 469/469/469
f 470/470/470 472/472/472 468/468/468
f 471/471/471 469/469/469 473/473/473
f 470/470/470 474/474/474 472/472/472
f 475/475/475 471/471/471 473/473/473
f 474/474/474 476/476/476 472/472/472
f 475/475/475 473/473/473 477/477/477
f 474/474/474 478/478/478 476/476/476
f 479/479/479 475/475/475 477/477/477
f 478/478/478 480/480/480 476/476/476
f 479/479/479 477/477/477 481/481/481
f 478/478/478 482/482/482 480/480/480
f 483/483/483 479/479/479 481/481/481
f 482/482/482 484/484/484 480/480/480
f 483/483/483 481/481/481 484/484/484
f 482/482/482 483/483/483 484/484/484
f 487/487/487 486/486/486 485/485/485
f 486/486/486 488/488/488 485/485/485
f 487/487/487 485/485/485 489/489/489
f 486/486/486 490/490/490 488/488/488
f 491/491/491 487/487/487 489/489/489
f 490/490/490 492/492/492 488/488/488
f 491/491/491 489/489/489 493/493/493
f 490/490/490 494/494/494 492/492/492
f 495/495/495 491/491/491 493/493/493
f 494/494/494 496/496/496 492/492/492
f 495/495/495 493/493/493 497/497/497
f 494/494/494 498/498/498 496/496/496
f 499/499/499 495/495/495 497/497/497
f 498/498/498 500/500/500 496/496/496
f 499/499/499 497/497/497 501/501/501
f 498/498/498 502/502/502 500/500/500
f 503/503/503 499/499/499 501/501/501
f 502/502/502 504/504/504 500/500/500
f 503/503/503 501/501/501 505/505/505
f 502/502/502 506/506/506 504/504/504
f 507/507/507 503/503/503 505/505/505
f 506/506/506 508/508/508 504/504/504
f 507/507/507 505/505/505 508/508/508
f 506/506/506 507/507/507 508/508/508
f 511/511/511 510/510/510 509/509/509
f 510/510/510 512/512/512 509/509/509
f 511/511/511 509/509/509 513/513/513
f 510/510/510 514/514/514 512/512/512
f 515/515/515 511/511/511 513/513/513
f 514/514/514 516/516/516 512/512/512
f 515/515/515 513/513/513 517/517/517
f 514/514/514 518/518/518 516/516/516
f 519/519/519 515/515/515 517/517/517
f 518/518/518 520/520/520 516/516/516
f 519/519/519 517/517/517 521/521/521
f 518/518/518 522/522/522 520/520/520
f 523/523/523 519/519/519 521/521/521
f 522/522/522 524/524/524 520/520/520
f 523/523/523 521/521/521 525/525/525
f 522/522/522 526/526/526 524/524/524
f 527/527/527 523/523/523 525/525/525
f 526/526/526 528/528/528 524/524/524
f 527/527/527 525/525/525 529/529/529
f 526/526/526 530/530/530 528/528/528
f 531/531/531 527/527/527 529/529/529
f 530/530/530 532/532/532 528/528/528
f 531/531/531 529/529/529 532/532/532
f 530/530/530 531/531/531 532/532/532
