g Jinya
v 0.054508999 -0.161137432 0.643294275
v 0.0534060374 -0.154837698 0.644209981
v 0.0550206564 -0.153297916 0.635199308
v 0.0561333746 -0.159795344 0.634299934
v 0.0566352643 -0.151758119 0.626188636
v 0.0427577011 -0.168211326 0.631181121
v 0.0439001657 -0.167157575 0.622057259
v 0.0416152366 -0.169265062 0.640304923
v 0.0277022924 -0.174573973 0.637610912
v 0.0577577576 -0.158453271 0.625305533
v 0.0581865497 -0.157240927 0.617785692
v 0.0574155785 -0.150659919 0.617301047
v 0.0548073277 -0.151760653 0.614102483
v 0.0282452777 -0.173784927 0.628528118
v 0.0555802509 -0.158340693 0.614587903
v 0.0420451686 -0.158120215 0.610918701
v 0.0244455878 -0.168633431 0.628846884
v 0.0240049604 -0.169574633 0.637976646
v 0.0248862151 -0.167692214 0.619717121
v 0.0445995033 -0.165852949 0.614575326
v 0.0448708609 -0.165337652 0.611603141
v 0.0329531506 -0.169746771 0.610616684
v 0.0293422341 -0.164594322 0.609594464
v 0.0263138525 -0.166309848 0.611482322
v 0.0299043022 -0.171474725 0.612527668
v 0.0287882593 -0.172995865 0.619445264
v 0.049717322 -0.149819106 0.644385993
v 0.0550206564 -0.153297916 0.635199308
v 0.0534060374 -0.154837698 0.644209981
v 0.0512026101 -0.148148507 0.635423303
v 0.0566352643 -0.151758119 0.626188636
v 0.0366303325 -0.153738022 0.632577062
v 0.0375999622 -0.152276024 0.623492658
v 0.0356607065 -0.155200005 0.641661525
v 0.0229106117 -0.163255647 0.638702631
v 0.0233145151 -0.16213809 0.629651487
v 0.0240049604 -0.169574633 0.637976646
v 0.0244455878 -0.168633431 0.628846884
v 0.0237184204 -0.161020547 0.620600343
v 0.0251126196 -0.160156399 0.613619387
v 0.0248862151 -0.167692214 0.619717121
v 0.0263138525 -0.166309848 0.611482322
v 0.0293422341 -0.164594322 0.609594464
v 0.0526879095 -0.146477923 0.626460612
v 0.053394869 -0.145922601 0.618877411
v 0.0574155785 -0.150659919 0.617301047
v 0.0385548435 -0.151548892 0.615885854
v 0.0507885739 -0.147022381 0.615679562
v 0.0548073277 -0.151760653 0.614102483
v 0.0420451686 -0.158120215 0.610918701
v 0.0389163271 -0.151272595 0.612959743
v 0.028161468 -0.15842846 0.611708462
vt 0.62070322 0.13587518
vt 0.642005324 0.132010773
vt 0.640415847 0.118434794
vt 0.619453907 0.123272486
vt 0.637950242 0.10311456
vt 0.594352186 0.126501232
vt 0.594315588 0.114878066
vt 0.594320714 0.138874948
vt 0.569205046 0.13536188
vt 0.618395507 0.111317597
vt 0.616900027 0.102225989
vt 0.630459309 0.0882263705
vt 0.621554255 0.0820552856
vt 0.570455134 0.123076357
vt 0.612544835 0.100046687
vt 0.595503032 0.0786170587
vt 0.5500018 0.118078046
vt 0.548280656 0.131546587
vt 0.552979887 0.102828391
vt 0.594218373 0.105720431
vt 0.594067812 0.102844343
vt 0.576666772 0.101694405
vt 0.569963157 0.0832960382
vt 0.561169744 0.0890600234
vt 0.572939157 0.103793614
vt 0.57145071 0.111741908
vt 0.564864218 0.0669715628
vt 0.546667218 0.0491517968
vt 0.544512153 0.0621158108
vt 0.56636399 0.0548193529
vt 0.549550176 0.0344585553
vt 0.589805067 0.0574691072
vt 0.589870453 0.0460173562
vt 0.589757681 0.0695707873
vt 0.615096629 0.0663962811
vt 0.614103734 0.05428496
vt 0.635830283 0.0625065714
vt 0.634470165 0.0493997335
vt 0.613284349 0.0428441055
vt 0.611957788 0.0345608108
vt 0.63218677 0.0346356072
vt 0.625268102 0.0209076703
vt 0.617218792 0.0151270619
vt 0.567466319 0.043513108
vt 0.568944693 0.0350874737
vt 0.557778239 0.0204801299
vt 0.590022027 0.0368551575
vt 0.57287848 0.032754004
vt 0.566746652 0.0146602103
vt 0.592344463 0.0106712198
vt 0.589959025 0.0341510698
vt 0.607920647 0.0324439108
vn 0.901183784 -0.421765149 0.0999093428
vn 0.903410673 0.365897894 0.223535299
vn 0.903461874 0.365771413 0.22353521
vn 0.901554763 -0.420925528 0.100104123
vn 0.911196887 0.375236869 0.17005156
vn 0.454417586 -0.889657199 -0.0448846705
vn 0.45911324 -0.884694993 -0.0808064714
vn 0.455620468 -0.889053643 -0.04465013
vn -0.260234714 -0.960363626 -0.0998982936
vn 0.910136998 -0.411328107 0.0495968014
vn 0.910772085 -0.33155641 -0.246098831
vn 0.858340859 0.406440437 -0.313140899
vn 0.462765425 0.277976245 -0.841770351
vn -0.275369942 -0.956081331 -0.100398317
vn 0.626302361 -0.416462421 -0.659017742
vn 0.103211522 0.138361081 -0.984989166
vn -0.918887436 -0.38548252 -0.083958298
vn -0.91959691 -0.383817464 -0.0838189349
vn -0.912885606 -0.377053112 -0.156431988
vn 0.464090109 -0.875355303 -0.135548398
vn 0.411700338 -0.578795195 -0.703916907
vn 0.138171598 -0.642705142 -0.753550708
vn -0.252552867 -0.0161758699 -0.967447877
vn -0.741691589 -0.267598748 -0.615048468
vn -0.236463234 -0.846976876 -0.476146281
vn -0.277040541 -0.945950985 -0.168598056
vn 0.256121665 0.941723228 0.218080506
vn 0.903461874 0.365771413 0.22353521
vn 0.903410673 0.365897894 0.223535299
vn 0.258900374 0.940891027 0.218390867
vn 0.911196887 0.375236869 0.17005156
vn -0.461422324 0.882219434 0.0936931223
vn -0.456648767 0.887759864 0.0579168461
vn -0.460409641 0.88272655 0.0938977525
vn -0.908098876 0.418628871 0.0103058489
vn -0.915410459 0.402441829 0.00801662449
vn -0.91959691 -0.383817464 -0.0838189349
vn -0.918887436 -0.38548252 -0.083958298
vn -0.91305542 0.4040941 -0.0551160164
vn -0.836731136 0.413822591 -0.358652711
vn -0.912885606 -0.377053112 -0.156431988
vn -0.741691589 -0.267598748 -0.615048468
vn -0.252552867 -0.0161758699 -0.967447877
vn 0.269010454 0.949128032 0.163674667
vn 0.307461888 0.940050364 -0.147554904
vn 0.858340859 0.406440437 -0.313140899
vn -0.449656755 0.893197894 0.00254046754
vn 0.00857286248 0.826162577 -0.563366652
vn 0.462765425 0.277976245 -0.841770351
vn 0.103211522 0.138361081 -0.984989166
vn -0.274125755 0.756470442 -0.593807757
vn -0.480634898 0.599002421 -0.640457869
g Jinya_0
f 3/3/3 2/2/2 1/1/1
f 4/4/4 3/3/3 1/1/1
f 5/5/5 3/3/3 4/4/4
f 6/6/6 4/4/4 1/1/1
f 6/6/6 7/7/7 4/4/4
f 8/8/8 6/6/6 1/1/1
f 6/6/6 8/8/8 9/9/9
f 10/10/10 5/5/5 4/4/4
f 7/7/7 10/10/10 4/4/4
f 5/5/5 10/10/10 11/11/11
f 10/10/10 7/7/7 11/11/11
f 12/12/12 5/5/5 11/11/11
f 12/12/12 11/11/11 13/13/13
f 14/14/14 6/6/6 9/9/9
f 7/7/7 6/6/6 14/14/14
f 11/11/11 15/15/15 13/13/13
f 16/16/16 13/13/13 15/15/15
f 17/17/17 14/14/14 9/9/9
f 18/18/18 17/17/17 9/9/9
f 17/17/17 19/19/19 14/14/14
f 15/15/15 11/11/11 20/20/20
f 7/7/7 20/20/20 11/11/11
f 21/21/21 16/16/16 15/15/15
f 21/21/21 15/15/15 20/20/20
f 16/16/16 21/21/21 22/22/22
f 21/21/21 20/20/20 22/22/22
f 23/23/23 16/16/16 22/22/22
f 24/24/24 23/23/23 22/22/22
f 20/20/20 25/25/25 22/22/22
f 25/25/25 24/24/24 22/22/22
f 19/19/19 24/24/24 25/25/25
f 20/20/20 7/7/7 25/25/25
f 19/19/19 26/26/26 14/14/14
f 26/26/26 19/19/19 25/25/25
f 7/7/7 26/26/26 25/25/25
f 26/26/26 7/7/7 14/14/14
f 29/29/29 28/28/28 27/27/27
f 28/28/28 30/30/30 27/27/27
f 28/28/28 31/31/31 30/30/30
f 30/30/30 32/32/32 27/27/27
f 33/33/33 32/32/32 30/30/30
f 32/32/32 34/34/34 27/27/27
f 34/34/34 32/32/32 35/35/35
f 32/32/32 36/36/36 35/35/35
f 32/32/32 33/33/33 36/36/36
f 37/37/37 35/35/35 36/36/36
f 38/38/38 37/37/37 36/36/36
f 38/38/38 36/36/36 39/39/39
f 33/33/33 39/39/39 36/36/36
f 39/39/39 33/33/33 40/40/40
f 41/41/41 38/38/38 39/39/39
f 41/41/41 39/39/39 40/40/40
f 42/42/42 41/41/41 40/40/40
f 42/42/42 40/40/40 43/43/43
f 31/31/31 44/44/44 30/30/30
f 44/44/44 33/33/33 30/30/30
f 44/44/44 31/31/31 45/45/45
f 44/44/44 45/45/45 33/33/33
f 31/31/31 46/46/46 45/45/45
f 45/45/45 47/47/47 33/33/33
f 33/33/33 47/47/47 40/40/40
f 45/45/45 46/46/46 48/48/48
f 47/47/47 45/45/45 48/48/48
f 46/46/46 49/49/49 48/48/48
f 49/49/49 50/50/50 48/48/48
f 51/51/51 47/47/47 48/48/48
f 40/40/40 47/47/47 51/51/51
f 50/50/50 51/51/51 48/48/48
f 50/50/50 43/43/43 52/52/52
f 40/40/40 52/52/52 43/43/43
f 51/51/51 50/50/50 52/52/52
f 52/52/52 40/40/40 51/51/51
