g DiZhu_Pai17
v -0.668814003 -1.12864578 0.619194388
v -0.664212108 -1.1319977 0.621880651
v -0.658637881 -1.12518263 0.623171687
v -0.672022939 -1.13345611 0.622299194
v -0.663496912 -1.12214518 0.62042588
v -0.659631312 -1.1193732 0.624875486
v -0.676264346 -1.13003695 0.61959368
v -0.816456795 -1.1604259 0.630039573
v -0.669850767 -1.12258351 0.620972335
v -0.664444625 -1.11660385 0.62205106
v -0.681968153 -1.01413369 0.652103305
v -0.678002536 -1.01194608 0.656381488
v -0.689021587 -1.01048076 0.653849721
v -0.682915807 -1.00859237 0.653728485
v -0.678996027 -1.00613666 0.658085227
v -0.686484039 -1.00176072 0.660076261
v -0.690058351 -1.00441825 0.655627668
v -0.69429487 -1.00321925 0.660494924
v -0.677301109 -1.12397468 0.621371627
v -0.69647193 -1.01187181 0.654248953
v -0.697508633 -1.00580955 0.6560269
v -0.814033806 -1.15576231 0.626976848
v -0.835278094 -1.03153491 0.663410068
v -0.838728845 -1.03018904 0.668235242
v -0.81507057 -1.14970005 0.628754795
v -0.821484029 -1.15715349 0.627376139
v -0.824267566 -1.16188431 0.630458117
v -0.831755638 -1.15750849 0.63244915
v -0.834241331 -1.03759718 0.661632121
v -0.842728376 -1.03292596 0.663809359
v -0.846539497 -1.03164756 0.668653786
v -0.852113843 -1.03846252 0.66736275
v -0.828626633 -1.15297937 0.629275262
v -0.832749069 -1.15169907 0.634152949
v -0.822520733 -1.1510911 0.629154027
v -0.841691673 -1.03898835 0.662031412
v -0.848045409 -1.03942668 0.662577868
v -0.851120353 -1.04427195 0.665658951
v -0.829574287 -1.14743805 0.630900443
v -0.847097754 -1.04496801 0.660952687
v -0.820693314 -1.15922678 0.634906769
v -0.824267566 -1.16188431 0.630458117
v -0.831755638 -1.15750849 0.63244915
v -0.816456795 -1.1604259 0.630039573
v -0.827835917 -1.15505278 0.636805952
v -0.832749069 -1.15169907 0.634152949
v -0.813243032 -1.15783572 0.634507537
v -0.672022939 -1.13345611 0.622299194
v -0.821730018 -1.15316451 0.636684775
v -0.828783572 -1.14951134 0.638431132
v -0.846307039 -1.04704142 0.668483436
v -0.851120353 -1.04427195 0.665658951
v -0.840900958 -1.04106164 0.669562042
v -0.847254694 -1.04149997 0.670108557
v -0.852113843 -1.03846252 0.66736275
v -0.841937602 -1.03499937 0.671339989
v -0.846539497 -1.03164756 0.668653786
v -0.838728845 -1.03018904 0.668235242
v -0.814279795 -1.15177333 0.636285484
v -0.833450615 -1.03967059 0.66916281
v -0.834487379 -1.0336082 0.670940757
v -0.67547363 -1.13211024 0.627124369
v -0.696717918 -1.00788295 0.663557589
v -0.69429487 -1.00321925 0.660494924
v -0.676510394 -1.12604797 0.628902316
v -0.668023288 -1.13071907 0.626725078
v -0.664212108 -1.1319977 0.621880651
v -0.658637881 -1.12518263 0.623171687
v -0.695681214 -1.01394522 0.661779642
v -0.689267635 -1.00649166 0.663158298
v -0.686484039 -1.00176072 0.660076261
v -0.662706196 -1.12421846 0.627956569
v -0.659631312 -1.1193732 0.624875486
v -0.669060051 -1.12465692 0.628503084
v -0.688230872 -1.01255405 0.661380351
v -0.682124972 -1.01066577 0.661259115
v -0.678996027 -1.00613666 0.658085227
v -0.678002536 -1.01194608 0.656381488
v -0.66365391 -1.11867714 0.62958169
v -0.681177378 -1.0162071 0.659633994
vt 0.0215483867 0.97464335
vt 0.0116298115 0.983688831
vt 0.0175696723 0.990104437
vt 0.00892664026 0.97552371
vt 0.0246372037 0.977273822
vt 0.0238286741 0.992519021
vt 0.0211796388 0.97105813
vt 0.00945853349 0.883443773
vt 0.0243537165 0.974552155
vt 0.0272625871 0.977492452
vt 0.0858898684 0.977450132
vt 0.0891530737 0.992469549
vt 0.0888313651 0.974504232
vt 0.0885166302 0.977228403
vt 0.0954443142 0.990040302
vt 0.101455428 0.983609915
vt 0.0916347951 0.974590421
vt 0.104248933 0.975443244
vt 0.0243343972 0.970991373
vt 0.0888911933 0.970941782
vt 0.0920456275 0.97100246
vt 0.0216618329 0.887884557
vt 0.0925277993 0.887828231
vt 0.104780771 0.88336271
vt 0.0248162188 0.887945175
vt 0.0220726877 0.884297073
vt 0.0122520356 0.875277519
vt 0.0182631537 0.86884737
vt 0.089373067 0.887894869
vt 0.0921590254 0.884242654
vt 0.10207767 0.875197113
vt 0.096137844 0.868781269
vt 0.025190901 0.88165921
vt 0.0245542638 0.866418064
vt 0.0248760916 0.884383202
vt 0.0893537924 0.884333909
vt 0.0890703052 0.881611824
vt 0.0898786411 0.866366565
vt 0.0278176405 0.88143754
vt 0.0864449739 0.881393313
vt 0.0186255015 0.777992368
vt 0.0133213466 0.768832803
vt 0.0095765423 0.774385393
vt 0.0181026272 0.766256213
vt 0.0170786157 0.780883729
vt 0.00816086866 0.780210674
vt 0.020719409 0.777624607
vt 0.0719838887 0.766277552
vt 0.0186712109 0.780604303
vt 0.0169467628 0.783327878
vt 0.016870033 0.837903142
vt 0.00807294808 0.840988219
vt 0.0185875557 0.840619922
vt 0.0169965886 0.840352118
vt 0.00947487541 0.846826792
vt 0.0185359605 0.843232393
vt 0.0132308668 0.852406502
vt 0.0180117302 0.854972959
vt 0.0207515657 0.780565202
vt 0.0206695125 0.840654194
vt 0.0206315145 0.843592942
vt 0.0693640485 0.777657568
vt 0.0692759082 0.843625844
vt 0.0718927905 0.854994059
vt 0.0693260059 0.780596256
vt 0.0714598075 0.778018117
vt 0.0767648295 0.768843949
vt 0.0805208907 0.774423778
vt 0.0692437068 0.840685248
vt 0.0713696256 0.843257904
vt 0.0766738281 0.85241729
vt 0.072999157 0.780898333
vt 0.081922695 0.780262291
vt 0.07140816 0.78063035
vt 0.0713238418 0.840645909
vt 0.0729163885 0.840366364
vt 0.0804184303 0.8468647
vt 0.0818339884 0.841039538
vt 0.0731256604 0.783347309
vt 0.0730481148 0.837922275
vn 0.106426373 -0.133698165 -0.985290885
vn 0.605675042 -0.748612642 -0.269697845
vn 0.91970247 -0.343023568 -0.191002995
vn 0.161933184 -0.946915925 -0.277718961
vn 0.306020826 0.128452897 -0.943319261
vn 0.981647611 0.18330346 -0.0526096635
vn -0.0176046323 -0.187580794 -0.982091367
vn 0.161932707 -0.946915746 -0.277720213
vn -0.100714654 0.264095455 -0.959223688
vn 0.227628216 0.309680104 -0.923192084
vn 0.22763063 0.309680164 -0.923191488
vn 0.981647313 0.183304742 -0.0526122004
vn -0.100714624 0.264094919 -0.959223807
vn 0.244512126 0.488070995 -0.837854803
vn 0.749086082 0.654638827 0.101577826
vn 0.320066661 0.921472669 0.220103085
vn -0.0287783071 0.656907022 -0.753422141
vn -0.161934003 0.946917951 0.27771157
vn -0.100718968 0.264095247 -0.95922339
vn -0.100719087 0.264095366 -0.95922327
vn -0.162539929 0.659938633 -0.733526945
vn -0.0176044777 -0.187579975 -0.982091606
vn -0.162539944 0.659939706 -0.733526051
vn -0.161933929 0.946918309 0.277710408
vn -0.100719109 0.264095396 -0.95922327
vn -0.152338803 -0.182015777 -0.971423268
vn -0.320068628 -0.921476126 -0.220086142
vn -0.749087572 -0.654636741 -0.101580247
vn -0.100719258 0.264095545 -0.95922327
vn -0.287534714 0.608586729 -0.739557981
vn -0.605673075 0.748611689 0.26970458
vn -0.919700563 0.343023241 0.191013083
vn -0.427408606 -0.00850095134 -0.904018581
vn -0.981648326 -0.183301181 0.0526035093
vn -0.100719027 0.264096528 -0.959222972
vn -0.100719132 0.264097184 -0.959222853
vn -0.488911062 0.351127297 -0.798545957
vn -0.98164773 -0.183303192 0.0526073463
vn -0.417867541 0.18914713 -0.888599992
vn -0.417866439 0.189147413 -0.888600469
vn 0.0287766941 -0.656903803 0.753424942
vn -0.320068628 -0.921476126 -0.220086142
vn -0.749087572 -0.654636741 -0.101580247
vn 0.161932707 -0.946915746 -0.277720213
vn -0.244516835 -0.488078862 0.837848783
vn -0.981648326 -0.183301181 0.0526035093
vn 0.162538916 -0.659934402 0.733530939
vn 0.161933184 -0.946915925 -0.277718961
vn 0.100715972 -0.264095932 0.959223509
vn -0.227630079 -0.309682548 0.923190773
vn -0.227628142 -0.309682369 0.923191369
vn -0.98164773 -0.183303192 0.0526073463
vn 0.100716449 -0.264095396 0.959223509
vn -0.306015462 -0.128451616 0.943321168
vn -0.919700563 0.343023241 0.191013083
vn -0.106426671 0.133697435 0.985291004
vn -0.605673075 0.748611689 0.26970458
vn -0.161933929 0.946918309 0.277710408
vn 0.100719139 -0.264095247 0.95922327
vn 0.100719266 -0.264095575 0.95922327
vn 0.0176027305 0.187585041 0.982090652
vn 0.162538737 -0.659934461 0.733530879
vn 0.0176032372 0.18758364 0.98209089
vn -0.161934003 0.946917951 0.27771157
vn 0.100719571 -0.264095306 0.95922327
vn 0.287538171 -0.608588457 0.73955524
vn 0.605675042 -0.748612642 -0.269697845
vn 0.91970247 -0.343023568 -0.191002995
vn 0.100719742 -0.264095575 0.959223151
vn 0.152332127 0.182016 0.971424282
vn 0.320066661 0.921472669 0.220103085
vn 0.488911539 -0.351121306 0.798548222
vn 0.981647611 0.18330346 -0.0526096635
vn 0.100717984 -0.264096022 0.95922327
vn 0.100717492 -0.264095962 0.95922327
vn 0.427399963 0.00850149058 0.904022634
vn 0.749086082 0.654638827 0.101577826
vn 0.981647313 0.183304742 -0.0526122004
vn 0.417867064 -0.189147323 0.88860029
vn 0.417869627 -0.189146399 0.888599277
g DiZhu_Pai17_0
f 3/3/3 2/2/2 1/1/1
f 2/2/2 4/4/4 1/1/1
f 5/5/5 3/3/3 1/1/1
f 3/3/3 5/5/5 6/6/6
f 4/4/4 7/7/7 1/1/1
f 4/4/4 8/8/8 7/7/7
f 1/1/1 9/9/9 5/5/5
f 1/1/1 7/7/7 9/9/9
f 5/5/5 10/10/10 6/6/6
f 9/9/9 10/10/10 5/5/5
f 6/6/6 10/10/10 11/11/11
f 12/12/12 6/6/6 11/11/11
f 9/9/9 13/13/13 10/10/10
f 13/13/13 11/11/11 10/10/10
f 12/12/12 11/11/11 14/14/14
f 14/14/14 11/11/11 13/13/13
f 15/15/15 12/12/12 14/14/14
f 16/16/16 15/15/15 14/14/14
f 17/17/17 16/16/16 14/14/14
f 17/17/17 14/14/14 13/13/13
f 16/16/16 17/17/17 18/18/18
f 7/7/7 19/19/19 9/9/9
f 9/9/9 19/19/19 13/13/13
f 13/13/13 20/20/20 17/17/17
f 19/19/19 20/20/20 13/13/13
f 17/17/17 21/21/21 18/18/18
f 20/20/20 21/21/21 17/17/17
f 19/19/19 7/7/7 22/22/22
f 8/8/8 22/22/22 7/7/7
f 18/18/18 21/21/21 23/23/23
f 24/24/24 18/18/18 23/23/23
f 19/19/19 25/25/25 20/20/20
f 25/25/25 19/19/19 22/22/22
f 26/26/26 22/22/22 8/8/8
f 25/25/25 22/22/22 26/26/26
f 27/27/27 26/26/26 8/8/8
f 27/27/27 28/28/28 26/26/26
f 20/20/20 29/29/29 21/21/21
f 25/25/25 29/29/29 20/20/20
f 29/29/29 23/23/23 21/21/21
f 24/24/24 23/23/23 30/30/30
f 31/31/31 24/24/24 30/30/30
f 32/32/32 31/31/31 30/30/30
f 28/28/28 33/33/33 26/26/26
f 28/28/28 34/34/34 33/33/33
f 35/35/35 25/25/25 26/26/26
f 29/29/29 25/25/25 35/35/35
f 26/26/26 33/33/33 35/35/35
f 23/23/23 29/29/29 36/36/36
f 30/30/30 23/23/23 36/36/36
f 36/36/36 29/29/29 35/35/35
f 37/37/37 32/32/32 30/30/30
f 30/30/30 36/36/36 37/37/37
f 32/32/32 37/37/37 38/38/38
f 34/34/34 39/39/39 33/33/33
f 33/33/33 39/39/39 35/35/35
f 34/34/34 38/38/38 39/39/39
f 36/36/36 35/35/35 40/40/40
f 36/36/36 40/40/40 37/37/37
f 35/35/35 39/39/39 40/40/40
f 38/38/38 40/40/40 39/39/39
f 37/37/37 40/40/40 38/38/38
f 43/43/43 42/42/42 41/41/41
f 42/42/42 44/44/44 41/41/41
f 45/45/45 43/43/43 41/41/41
f 43/43/43 45/45/45 46/46/46
f 44/44/44 47/47/47 41/41/41
f 44/44/44 48/48/48 47/47/47
f 41/41/41 49/49/49 45/45/45
f 41/41/41 47/47/47 49/49/49
f 45/45/45 50/50/50 46/46/46
f 49/49/49 50/50/50 45/45/45
f 46/46/46 50/50/50 51/51/51
f 52/52/52 46/46/46 51/51/51
f 50/50/50 49/49/49 53/53/53
f 51/51/51 50/50/50 53/53/53
f 52/52/52 51/51/51 54/54/54
f 54/54/54 51/51/51 53/53/53
f 55/55/55 52/52/52 54/54/54
f 55/55/55 54/54/54 56/56/56
f 56/56/56 54/54/54 53/53/53
f 57/57/57 55/55/55 56/56/56
f 57/57/57 56/56/56 58/58/58
f 47/47/47 59/59/59 49/49/49
f 49/49/49 59/59/59 53/53/53
f 53/53/53 60/60/60 56/56/56
f 59/59/59 60/60/60 53/53/53
f 56/56/56 61/61/61 58/58/58
f 60/60/60 61/61/61 56/56/56
f 59/59/59 47/47/47 62/62/62
f 48/48/48 62/62/62 47/47/47
f 58/58/58 61/61/61 63/63/63
f 64/64/64 58/58/58 63/63/63
f 59/59/59 65/65/65 60/60/60
f 65/65/65 59/59/59 62/62/62
f 66/66/66 62/62/62 48/48/48
f 65/65/65 62/62/62 66/66/66
f 67/67/67 66/66/66 48/48/48
f 67/67/67 68/68/68 66/66/66
f 60/60/60 69/69/69 61/61/61
f 65/65/65 69/69/69 60/60/60
f 69/69/69 63/63/63 61/61/61
f 64/64/64 63/63/63 70/70/70
f 71/71/71 64/64/64 70/70/70
f 68/68/68 72/72/72 66/66/66
f 68/68/68 73/73/73 72/72/72
f 74/74/74 65/65/65 66/66/66
f 69/69/69 65/65/65 74/74/74
f 66/66/66 72/72/72 74/74/74
f 63/63/63 69/69/69 75/75/75
f 70/70/70 63/63/63 75/75/75
f 75/75/75 69/69/69 74/74/74
f 71/71/71 70/70/70 76/76/76
f 70/70/70 75/75/75 76/76/76
f 77/77/77 71/71/71 76/76/76
f 77/77/77 76/76/76 78/78/78
f 73/73/73 79/79/79 72/72/72
f 72/72/72 79/79/79 74/74/74
f 73/73/73 78/78/78 79/79/79
f 75/75/75 74/74/74 80/80/80
f 75/75/75 80/80/80 76/76/76
f 74/74/74 79/79/79 80/80/80
f 78/78/78 80/80/80 79/79/79
f 76/76/76 80/80/80 78/78/78
