g DiZhu_Pai09
v -0.368893892 -0.959019125 0.630041659
v -0.371403039 -0.95572269 0.634781539
v -0.377897739 -0.961499989 0.63668555
v -0.363744467 -0.955878437 0.632629275
v -0.37508896 -0.964529932 0.631857872
v -0.377992004 -0.967633486 0.636794031
v -0.361588746 -0.959167659 0.627988756
v -0.222124174 -0.958758652 0.592831612
v -0.368992239 -0.965419531 0.630154848
v -0.375178784 -0.970380247 0.631961286
v -0.376841456 -1.07856476 0.633874357
v -0.379735112 -1.08105135 0.638799608
v -0.370811105 -1.08377397 0.632247746
v -0.376931369 -1.08441508 0.63397783
v -0.379829347 -1.08718479 0.638908088
v -0.373516232 -1.0932225 0.637212932
v -0.370909482 -1.09017432 0.632360876
v -0.365857571 -1.09337831 0.635060728
v -0.361687034 -0.965568066 0.628101945
v -0.36350593 -1.08392251 0.630194843
v -0.363604307 -1.09032285 0.630308032
v -0.226503119 -0.961914957 0.590027511
v -0.228518724 -1.09307015 0.592346728
v -0.224237278 -1.0962584 0.595263064
v -0.226601467 -0.968315423 0.590140641
v -0.219197974 -0.962063551 0.587974608
v -0.214465618 -0.958914459 0.590679467
v -0.208152458 -0.96495223 0.588984311
v -0.228420362 -1.0866698 0.592233539
v -0.221213564 -1.09321868 0.590293825
v -0.216578767 -1.09641421 0.593110919
v -0.210083976 -1.09063685 0.591206789
v -0.213176087 -0.96782279 0.586357653
v -0.208246723 -0.971085548 0.589092791
v -0.219296336 -0.968463898 0.588087797
v -0.221115202 -1.08681834 0.590180635
v -0.215018556 -1.087708 0.588477612
v -0.209989756 -1.08450341 0.591098368
v -0.213266 -0.973673165 0.586461127
v -0.214928627 -1.08185756 0.588374138
v -0.217072323 -0.961962581 0.595531464
v -0.214465618 -0.958914459 0.590679467
v -0.208152458 -0.96495223 0.588984311
v -0.222124174 -0.958758652 0.592831612
v -0.211050436 -0.96772182 0.593914568
v -0.208246723 -0.971085548 0.589092791
v -0.224377453 -0.961814046 0.597584367
v -0.363744467 -0.955878437 0.632629275
v -0.217170671 -0.968362927 0.595644653
v -0.211140335 -0.973572195 0.594017982
v -0.212802961 -1.08175659 0.595931053
v -0.209989756 -1.08450341 0.591098368
v -0.218989536 -1.08671749 0.597737551
v -0.21289289 -1.08760703 0.596034527
v -0.210083976 -1.09063685 0.591206789
v -0.219087914 -1.09311783 0.59785074
v -0.216578767 -1.09641421 0.593110919
v -0.224237278 -1.0962584 0.595263064
v -0.224475816 -0.968214393 0.597697556
v -0.226294681 -1.08656883 0.599790394
v -0.226393059 -1.0929693 0.599903584
v -0.359463036 -0.959066749 0.635545671
v -0.361478657 -1.09022188 0.637864888
v -0.365857571 -1.09337831 0.635060728
v -0.359561384 -0.965467155 0.63565886
v -0.366768211 -0.958918154 0.637598574
v -0.371403039 -0.95572269 0.634781539
v -0.377897739 -0.961499989 0.63668555
v -0.361380249 -1.08382154 0.637751698
v -0.368783832 -1.09007335 0.639917791
v -0.373516232 -1.0932225 0.637212932
v -0.372963279 -0.964428902 0.639414787
v -0.377992004 -0.967633486 0.636794031
v -0.366866559 -0.965318501 0.637711763
v -0.368685454 -1.08367288 0.639804602
v -0.374805659 -1.08431423 0.641534686
v -0.379829347 -1.08718479 0.638908088
v -0.379735112 -1.08105135 0.638799608
v -0.373053133 -0.970279276 0.639518201
v -0.374715805 -1.07846379 0.641431272
vt 0.0215483867 0.97464335
vt 0.0116298115 0.983688831
vt 0.0175696723 0.990104437
vt 0.00892664026 0.97552371
vt 0.0246372037 0.977273822
vt 0.0238286741 0.992519021
vt 0.0211796388 0.97105813
vt 0.00945853349 0.883443773
vt 0.0243537165 0.974552155
vt 0.0272625871 0.977492452
vt 0.0858898684 0.977450132
vt 0.0891530737 0.992469549
vt 0.0888313651 0.974504232
vt 0.0885166302 0.977228403
vt 0.0954443142 0.990040302
vt 0.101455428 0.983609915
vt 0.0916347951 0.974590421
vt 0.104248933 0.975443244
vt 0.0243343972 0.970991373
vt 0.0888911933 0.970941782
vt 0.0920456275 0.97100246
vt 0.0216618329 0.887884557
vt 0.0925277993 0.887828231
vt 0.104780771 0.88336271
vt 0.0248162188 0.887945175
vt 0.0220726877 0.884297073
vt 0.0122520356 0.875277519
vt 0.0182631537 0.86884737
vt 0.089373067 0.887894869
vt 0.0921590254 0.884242654
vt 0.10207767 0.875197113
vt 0.096137844 0.868781269
vt 0.025190901 0.88165921
vt 0.0245542638 0.866418064
vt 0.0248760916 0.884383202
vt 0.0893537924 0.884333909
vt 0.0890703052 0.881611824
vt 0.0898786411 0.866366565
vt 0.0278176405 0.88143754
vt 0.0864449739 0.881393313
vt 0.0186255015 0.777992368
vt 0.0133213466 0.768832803
vt 0.0095765423 0.774385393
vt 0.0181026272 0.766256213
vt 0.0170786157 0.780883729
vt 0.00816086866 0.780210674
vt 0.020719409 0.777624607
vt 0.0719838887 0.766277552
vt 0.0186712109 0.780604303
vt 0.0169467628 0.783327878
vt 0.016870033 0.837903142
vt 0.00807294808 0.840988219
vt 0.0185875557 0.840619922
vt 0.0169965886 0.840352118
vt 0.00947487541 0.846826792
vt 0.0185359605 0.843232393
vt 0.0132308668 0.852406502
vt 0.0180117302 0.854972959
vt 0.0207515657 0.780565202
vt 0.0206695125 0.840654194
vt 0.0206315145 0.843592942
vt 0.0693640485 0.777657568
vt 0.0692759082 0.843625844
vt 0.0718927905 0.854994059
vt 0.0693260059 0.780596256
vt 0.0714598075 0.778018117
vt 0.0767648295 0.768843949
vt 0.0805208907 0.774423778
vt 0.0692437068 0.840685248
vt 0.0713696256 0.843257904
vt 0.0766738281 0.85241729
vt 0.072999157 0.780898333
vt 0.081922695 0.780262291
vt 0.07140816 0.78063035
vt 0.0713238418 0.840645909
vt 0.0729163885 0.840366364
vt 0.0804184303 0.8468647
vt 0.0818339884 0.841039538
vt 0.0731256604 0.783347309
vt 0.0730481148 0.837922275
vn -0.363887638 0.408365577 -0.837151945
vn -0.440305769 0.890841007 0.111950889
vn -0.810044587 0.543288589 0.220602214
vn 0.0153632397 0.999725401 -0.0176908467
vn -0.602489173 0.185474575 -0.776276946
vn -0.962525189 0.0195750725 0.270484775
vn -0.235256106 0.435891032 -0.868707955
vn 0.0153640648 0.999725401 -0.0176890437
vn -0.270756155 -0.0128602916 -0.962562084
vn -0.572164893 -0.00570909539 -0.820118785
vn -0.572166681 -0.00570894685 -0.820117533
vn -0.962524414 0.0195757169 0.270487607
vn -0.270755887 -0.0128601994 -0.962562144
vn -0.608325243 -0.194201276 -0.769562483
vn -0.826231539 -0.510008097 0.23923485
vn -0.467402488 -0.872380733 0.143131807
vn -0.376708359 -0.426326156 -0.822396994
vn -0.0153651871 -0.999725878 0.01766406
vn -0.270757556 -0.0128601687 -0.962561727
vn -0.270757556 -0.0128602041 -0.962561727
vn -0.2490073 -0.458890736 -0.852886081
vn -0.235255569 0.435890824 -0.868708253
vn -0.249007121 -0.458891094 -0.852885902
vn -0.0153652132 -0.999725878 0.0176658984
vn -0.270757705 -0.0128601491 -0.962561607
vn -0.110157959 0.403201938 -0.908456564
vn 0.467408895 0.872377753 -0.143129125
vn 0.826236069 0.510009885 -0.239215314
vn -0.270757705 -0.0128601966 -0.962561607
vn -0.122985512 -0.431488305 -0.893695951
vn 0.44030419 -0.89084357 -0.111937366
vn 0.810050011 -0.543286622 -0.220587119
vn 0.116648771 0.170851603 -0.978367388
vn 0.96252352 -0.019575689 -0.270490527
vn -0.270756364 -0.0128599666 -0.962561965
vn -0.270755917 -0.0128600402 -0.962562144
vn 0.110813543 -0.208829984 -0.971653461
vn 0.962524295 -0.0195753258 -0.270488024
vn 0.0607615598 -0.0185810775 -0.997979343
vn 0.0607610196 -0.0185810439 -0.997979462
vn 0.376707166 0.426327348 0.822396934
vn 0.467408895 0.872377753 -0.143129125
vn 0.826236069 0.510009885 -0.239215314
vn 0.0153640648 0.999725401 -0.0176890437
vn 0.608316839 0.194204241 0.769568324
vn 0.96252352 -0.019575689 -0.270490527
vn 0.249005884 0.458888829 0.852887571
vn 0.0153632397 0.999725401 -0.0176908467
vn 0.270760745 0.0128601585 0.962560713
vn 0.572167397 0.00570892217 0.820116937
vn 0.5721668 0.00570903765 0.820117533
vn 0.962524295 -0.0195753258 -0.270488024
vn 0.270761222 0.0128602143 0.962560594
vn 0.602485061 -0.185473353 0.776280463
vn 0.810050011 -0.543286622 -0.220587119
vn 0.363879442 -0.40835923 0.83715862
vn 0.44030419 -0.89084357 -0.111937366
vn -0.0153652132 -0.999725878 0.0176658984
vn 0.270757377 0.012859948 0.962561727
vn 0.270757645 0.0128599126 0.962561607
vn 0.235256791 -0.435889035 0.868708789
vn 0.249006242 0.458888322 0.85288775
vn 0.235257104 -0.435888916 0.868708789
vn -0.0153651871 -0.999725878 0.01766406
vn 0.27075696 0.0128599368 0.962561846
vn 0.122991621 0.431486696 0.893695951
vn -0.440305769 0.890841007 0.111950889
vn -0.810044587 0.543288589 0.220602214
vn 0.270757258 0.0128599042 0.962561727
vn 0.110164389 -0.40320459 0.908454716
vn -0.467402488 -0.872380733 0.143131807
vn -0.110811129 0.208823502 0.971655071
vn -0.962525189 0.0195750725 0.270484775
vn 0.270751089 0.0128599415 0.962563515
vn 0.270750642 0.0128600793 0.962563574
vn -0.116655201 -0.170853093 0.978366375
vn -0.826231539 -0.510008097 0.23923485
vn -0.962524414 0.0195757169 0.270487607
vn -0.0607586391 0.0185811874 0.997979581
vn -0.060761489 0.0185813103 0.997979343
g DiZhu_Pai09_0
f 3/3/3 2/2/2 1/1/1
f 2/2/2 4/4/4 1/1/1
f 5/5/5 3/3/3 1/1/1
f 3/3/3 5/5/5 6/6/6
f 4/4/4 7/7/7 1/1/1
f 4/4/4 8/8/8 7/7/7
f 1/1/1 9/9/9 5/5/5
f 1/1/1 7/7/7 9/9/9
f 5/5/5 10/10/10 6/6/6
f 9/9/9 10/10/10 5/5/5
f 6/6/6 10/10/10 11/11/11
f 12/12/12 6/6/6 11/11/11
f 9/9/9 13/13/13 10/10/10
f 13/13/13 11/11/11 10/10/10
f 12/12/12 11/11/11 14/14/14
f 14/14/14 11/11/11 13/13/13
f 15/15/15 12/12/12 14/14/14
f 16/16/16 15/15/15 14/14/14
f 17/17/17 16/16/16 14/14/14
f 17/17/17 14/14/14 13/13/13
f 16/16/16 17/17/17 18/18/18
f 7/7/7 19/19/19 9/9/9
f 9/9/9 19/19/19 13/13/13
f 13/13/13 20/20/20 17/17/17
f 19/19/19 20/20/20 13/13/13
f 17/17/17 21/21/21 18/18/18
f 20/20/20 21/21/21 17/17/17
f 19/19/19 7/7/7 22/22/22
f 8/8/8 22/22/22 7/7/7
f 18/18/18 21/21/21 23/23/23
f 24/24/24 18/18/18 23/23/23
f 19/19/19 25/25/25 20/20/20
f 25/25/25 19/19/19 22/22/22
f 26/26/26 22/22/22 8/8/8
f 25/25/25 22/22/22 26/26/26
f 27/27/27 26/26/26 8/8/8
f 27/27/27 28/28/28 26/26/26
f 20/20/20 29/29/29 21/21/21
f 25/25/25 29/29/29 20/20/20
f 29/29/29 23/23/23 21/21/21
f 24/24/24 23/23/23 30/30/30
f 31/31/31 24/24/24 30/30/30
f 32/32/32 31/31/31 30/30/30
f 28/28/28 33/33/33 26/26/26
f 28/28/28 34/34/34 33/33/33
f 35/35/35 25/25/25 26/26/26
f 29/29/29 25/25/25 35/35/35
f 26/26/26 33/33/33 35/35/35
f 23/23/23 29/29/29 36/36/36
f 30/30/30 23/23/23 36/36/36
f 36/36/36 29/29/29 35/35/35
f 37/37/37 32/32/32 30/30/30
f 30/30/30 36/36/36 37/37/37
f 32/32/32 37/37/37 38/38/38
f 34/34/34 39/39/39 33/33/33
f 33/33/33 39/39/39 35/35/35
f 34/34/34 38/38/38 39/39/39
f 36/36/36 35/35/35 40/40/40
f 36/36/36 40/40/40 37/37/37
f 35/35/35 39/39/39 40/40/40
f 38/38/38 40/40/40 39/39/39
f 37/37/37 40/40/40 38/38/38
f 43/43/43 42/42/42 41/41/41
f 42/42/42 44/44/44 41/41/41
f 45/45/45 43/43/43 41/41/41
f 43/43/43 45/45/45 46/46/46
f 44/44/44 47/47/47 41/41/41
f 44/44/44 48/48/48 47/47/47
f 41/41/41 49/49/49 45/45/45
f 41/41/41 47/47/47 49/49/49
f 45/45/45 50/50/50 46/46/46
f 49/49/49 50/50/50 45/45/45
f 46/46/46 50/50/50 51/51/51
f 52/52/52 46/46/46 51/51/51
f 50/50/50 49/49/49 53/53/53
f 51/51/51 50/50/50 53/53/53
f 52/52/52 51/51/51 54/54/54
f 54/54/54 51/51/51 53/53/53
f 55/55/55 52/52/52 54/54/54
f 55/55/55 54/54/54 56/56/56
f 56/56/56 54/54/54 53/53/53
f 57/57/57 55/55/55 56/56/56
f 57/57/57 56/56/56 58/58/58
f 47/47/47 59/59/59 49/49/49
f 49/49/49 59/59/59 53/53/53
f 53/53/53 60/60/60 56/56/56
f 59/59/59 60/60/60 53/53/53
f 56/56/56 61/61/61 58/58/58
f 60/60/60 61/61/61 56/56/56
f 59/59/59 47/47/47 62/62/62
f 48/48/48 62/62/62 47/47/47
f 58/58/58 61/61/61 63/63/63
f 64/64/64 58/58/58 63/63/63
f 59/59/59 65/65/65 60/60/60
f 65/65/65 59/59/59 62/62/62
f 66/66/66 62/62/62 48/48/48
f 65/65/65 62/62/62 66/66/66
f 67/67/67 66/66/66 48/48/48
f 67/67/67 68/68/68 66/66/66
f 60/60/60 69/69/69 61/61/61
f 65/65/65 69/69/69 60/60/60
f 69/69/69 63/63/63 61/61/61
f 64/64/64 63/63/63 70/70/70
f 71/71/71 64/64/64 70/70/70
f 68/68/68 72/72/72 66/66/66
f 68/68/68 73/73/73 72/72/72
f 74/74/74 65/65/65 66/66/66
f 69/69/69 65/65/65 74/74/74
f 66/66/66 72/72/72 74/74/74
f 63/63/63 69/69/69 75/75/75
f 70/70/70 63/63/63 75/75/75
f 75/75/75 69/69/69 74/74/74
f 71/71/71 70/70/70 76/76/76
f 70/70/70 75/75/75 76/76/76
f 77/77/77 71/71/71 76/76/76
f 77/77/77 76/76/76 78/78/78
f 73/73/73 79/79/79 72/72/72
f 72/72/72 79/79/79 74/74/74
f 73/73/73 78/78/78 79/79/79
f 75/75/75 74/74/74 80/80/80
f 75/75/75 80/80/80 76/76/76
f 74/74/74 79/79/79 80/80/80
f 78/78/78 80/80/80 79/79/79
f 76/76/76 80/80/80 78/78/78
