g DiZhu_Pai13
v -0.375999779 -1.010939 0.636238873
v -0.37852782 -1.00808668 0.641249001
v -0.385125577 -1.01392579 0.642497063
v -0.370843619 -1.00814426 0.639184952
v -0.382293165 -1.01650882 0.637429357
v -0.38530463 -1.02003825 0.642000973
v -0.368670225 -1.01099396 0.634270072
v -0.228750154 -1.0092088 0.601017356
v -0.376186579 -1.01731753 0.635721147
v -0.382463872 -1.02233911 0.636956096
v -0.385622084 -1.13015282 0.628205419
v -0.388615608 -1.13306725 0.632826924
v -0.379641652 -1.13526618 0.626147807
v -0.385792881 -1.13598311 0.627732158
v -0.388794661 -1.13917971 0.632330835
v -0.382541806 -1.14511514 0.630127072
v -0.379828483 -1.1416446 0.62563014
v -0.374857545 -1.14517272 0.628063023
v -0.368856996 -1.01737237 0.633752406
v -0.372312039 -1.13532114 0.624179006
v -0.3724989 -1.14169955 0.623661339
v -0.233133242 -1.01200938 0.597863615
v -0.236961931 -1.14271498 0.587254882
v -0.23276405 -1.14623725 0.589895427
v -0.233320057 -1.01838791 0.597345889
v -0.225803673 -1.01206434 0.595894814
v -0.221065998 -1.00926638 0.598953366
v -0.214813098 -1.01520181 0.596749604
v -0.236775085 -1.13633645 0.587772608
v -0.229632348 -1.14276993 0.585286081
v -0.225079939 -1.14629471 0.587831378
v -0.218482092 -1.14045572 0.586583316
v -0.219839275 -1.01772583 0.593792737
v -0.214992151 -1.02131426 0.596253455
v -0.225990519 -1.01844275 0.595377147
v -0.229445532 -1.13639152 0.585803807
v -0.223339036 -1.13720012 0.584095657
v -0.218303084 -1.13434327 0.587079465
v -0.220010072 -1.02355623 0.593319535
v -0.223168239 -1.13136983 0.584568858
v -0.223779276 -1.01273692 0.603450239
v -0.221065998 -1.00926638 0.598953366
v -0.214813098 -1.01520181 0.596749604
v -0.228750154 -1.0092088 0.601017356
v -0.217814863 -1.0183984 0.601348221
v -0.214992151 -1.02131426 0.596253455
v -0.231108814 -1.01268196 0.60541904
v -0.370843619 -1.00814426 0.639184952
v -0.223966092 -1.01911533 0.602932572
v -0.217985645 -1.02422869 0.60087502
v -0.221143812 -1.13204241 0.592124283
v -0.218303084 -1.13434327 0.587079465
v -0.227421105 -1.13706398 0.593359232
v -0.221314609 -1.1378727 0.591651082
v -0.218482092 -1.14045572 0.586583316
v -0.227607965 -1.14344239 0.592841506
v -0.225079939 -1.14629471 0.587831378
v -0.23276405 -1.14623725 0.589895427
v -0.23129566 -1.01906037 0.604901373
v -0.234750673 -1.13700914 0.595328033
v -0.234937504 -1.14338756 0.594810307
v -0.366645813 -1.01166654 0.641825557
v -0.370474458 -1.14237213 0.631216824
v -0.374857545 -1.14517272 0.628063023
v -0.366832584 -1.01804495 0.641307831
v -0.373975366 -1.01161158 0.643794298
v -0.37852782 -1.00808668 0.641249001
v -0.385125577 -1.01392579 0.642497063
v -0.370287627 -1.1359936 0.63173449
v -0.377804071 -1.14231718 0.633185565
v -0.382541806 -1.14511514 0.630127072
v -0.380268723 -1.0171814 0.644984782
v -0.38530463 -1.02003825 0.642000973
v -0.374162167 -1.01798999 0.643276632
v -0.37761721 -1.13593864 0.633703291
v -0.383768469 -1.13665569 0.635287642
v -0.388794661 -1.13917971 0.632330835
v -0.388615608 -1.13306725 0.632826924
v -0.38043943 -1.02301157 0.64451158
v -0.383597672 -1.13082528 0.635760844
vt 0.0215483867 0.97464335
vt 0.0116298115 0.983688831
vt 0.0175696723 0.990104437
vt 0.00892664026 0.97552371
vt 0.0246372037 0.977273822
vt 0.0238286741 0.992519021
vt 0.0211796388 0.97105813
vt 0.00945853349 0.883443773
vt 0.0243537165 0.974552155
vt 0.0272625871 0.977492452
vt 0.0858898684 0.977450132
vt 0.0891530737 0.992469549
vt 0.0888313651 0.974504232
vt 0.0885166302 0.977228403
vt 0.0954443142 0.990040302
vt 0.101455428 0.983609915
vt 0.0916347951 0.974590421
vt 0.104248933 0.975443244
vt 0.0243343972 0.970991373
vt 0.0888911933 0.970941782
vt 0.0920456275 0.97100246
vt 0.0216618329 0.887884557
vt 0.0925277993 0.887828231
vt 0.104780771 0.88336271
vt 0.0248162188 0.887945175
vt 0.0220726877 0.884297073
vt 0.0122520356 0.875277519
vt 0.0182631537 0.86884737
vt 0.089373067 0.887894869
vt 0.0921590254 0.884242654
vt 0.10207767 0.875197113
vt 0.096137844 0.868781269
vt 0.025190901 0.88165921
vt 0.0245542638 0.866418064
vt 0.0248760916 0.884383202
vt 0.0893537924 0.884333909
vt 0.0890703052 0.881611824
vt 0.0898786411 0.866366565
vt 0.0278176405 0.88143754
vt 0.0864449739 0.881393313
vt 0.0186255015 0.777992368
vt 0.0133213466 0.768832803
vt 0.0095765423 0.774385393
vt 0.0181026272 0.766256213
vt 0.0170786157 0.780883729
vt 0.00816086866 0.780210674
vt 0.020719409 0.777624607
vt 0.0719838887 0.766277552
vt 0.0186712109 0.780604303
vt 0.0169467628 0.783327878
vt 0.016870033 0.837903142
vt 0.00807294808 0.840988219
vt 0.0185875557 0.840619922
vt 0.0169965886 0.840352118
vt 0.00947487541 0.846826792
vt 0.0185359605 0.843232393
vt 0.0132308668 0.852406502
vt 0.0180117302 0.854972959
vt 0.0207515657 0.780565202
vt 0.0206695125 0.840654194
vt 0.0206315145 0.843592942
vt 0.0693640485 0.777657568
vt 0.0692759082 0.843625844
vt 0.0718927905 0.854994059
vt 0.0693260059 0.780596256
vt 0.0714598075 0.778018117
vt 0.0767648295 0.768843949
vt 0.0805208907 0.774423778
vt 0.0692437068 0.840685248
vt 0.0713696256 0.843257904
vt 0.0766738281 0.85241729
vt 0.072999157 0.780898333
vt 0.081922695 0.780262291
vt 0.07140816 0.78063035
vt 0.0713238418 0.840645909
vt 0.0729163885 0.840366364
vt 0.0804184303 0.8468647
vt 0.0818339884 0.841039538
vt 0.0731256604 0.783347309
vt 0.0730481148 0.837922275
vn -0.346939862 0.493887842 -0.797312677
vn -0.429631591 0.882000625 0.193627819
vn -0.805496931 0.530994296 0.263096362
vn 0.0291844849 0.996298134 0.0808602944
vn -0.589352012 0.269670874 -0.761539161
vn -0.9657408 0.00723446207 0.259407789
vn -0.217539132 0.52246207 -0.824445307
vn 0.0291849785 0.996298134 0.0808593929
vn -0.257860065 0.0856649801 -0.962377071
vn -0.56104821 0.0832808614 -0.823583066
vn -0.561049581 0.0832807943 -0.823582292
vn -0.965741098 0.00723516569 0.259406418
vn -0.257860631 0.0856649205 -0.962376952
vn -0.600440025 -0.108708188 -0.792246342
vn -0.836245596 -0.518693209 0.17790626
vn -0.48110497 -0.875177503 0.0510141291
vn -0.371306926 -0.337942988 -0.864826858
vn -0.0291881878 -0.996297181 -0.0808703527
vn -0.257861286 0.0856651068 -0.962376773
vn -0.257861316 0.0856652483 -0.962376773
vn -0.243663132 -0.36925298 -0.89681685
vn -0.217539176 0.52246201 -0.824445367
vn -0.243663087 -0.369253576 -0.896816671
vn -0.0291868988 -0.996296942 -0.080873929
vn -0.257861376 0.0856651217 -0.962376773
vn -0.0923733413 0.491981685 -0.865691185
vn 0.481108695 0.875175953 -0.0510048717
vn 0.836250007 0.518691599 -0.17789042
vn -0.257861346 0.0856652409 -0.962376773
vn -0.116734818 -0.339847475 -0.93320775
vn 0.42964071 -0.88199538 -0.193630844
vn 0.805502057 -0.530989826 -0.263089716
vn 0.132187948 0.264271319 -0.955346584
vn 0.965740561 -0.00723447744 -0.259408414
vn -0.257858396 0.085665144 -0.962377548
vn -0.257858217 0.0856651813 -0.962377667
vn 0.121098585 -0.114110954 -0.986059666
vn 0.965740025 -0.00723428093 -0.25941062
vn 0.0739911422 0.0785238892 -0.994162619
vn 0.0739904121 0.0785238817 -0.994162738
vn 0.37130627 0.337940216 0.864828289
vn 0.481108695 0.875175953 -0.0510048717
vn 0.836250007 0.518691599 -0.17789042
vn 0.0291849785 0.996298134 0.0808593929
vn 0.600437522 0.108710036 0.79224807
vn 0.965740561 -0.00723447744 -0.259408414
vn 0.24365893 0.369246632 0.896820605
vn 0.0291844849 0.996298134 0.0808602944
vn 0.257867068 -0.0856645107 0.962375224
vn 0.561046958 -0.0832808018 0.82358408
vn 0.561047077 -0.0832808241 0.823583961
vn 0.965740025 -0.00723428093 -0.25941062
vn 0.257867724 -0.0856648609 0.962374985
vn 0.589358747 -0.269672722 0.76153326
vn 0.805502057 -0.530989826 -0.263089716
vn 0.34694761 -0.493889004 0.797308683
vn 0.42964071 -0.88199538 -0.193630844
vn -0.0291868988 -0.996296942 -0.080873929
vn 0.257861346 -0.0856650323 0.962376773
vn 0.257861674 -0.085664995 0.962376654
vn 0.217541784 -0.522471488 0.824438751
vn 0.243658915 0.3692469 0.896820545
vn 0.217541307 -0.522470534 0.824439406
vn -0.0291881878 -0.996297181 -0.0808703527
vn 0.257861078 -0.0856650397 0.962376893
vn 0.116738461 0.339849651 0.933206499
vn -0.429631591 0.882000625 0.193627819
vn -0.805496931 0.530994296 0.263096362
vn 0.257861406 -0.0856650248 0.962376773
vn 0.092370756 -0.491981059 0.865691781
vn -0.48110497 -0.875177503 0.0510141291
vn -0.121102348 0.114111334 0.986059248
vn -0.9657408 0.00723446207 0.259407789
vn 0.257864237 -0.0856646299 0.962376118
vn 0.25786373 -0.0856650248 0.962376118
vn -0.132187083 -0.264270782 0.955346823
vn -0.836245596 -0.518693209 0.17790626
vn -0.965741098 0.00723516569 0.259406418
vn -0.0739884153 -0.0785236582 0.994162858
vn -0.073990427 -0.0785234794 0.994162738
g DiZhu_Pai13_0
f 3/3/3 2/2/2 1/1/1
f 2/2/2 4/4/4 1/1/1
f 5/5/5 3/3/3 1/1/1
f 3/3/3 5/5/5 6/6/6
f 4/4/4 7/7/7 1/1/1
f 4/4/4 8/8/8 7/7/7
f 1/1/1 9/9/9 5/5/5
f 1/1/1 7/7/7 9/9/9
f 5/5/5 10/10/10 6/6/6
f 9/9/9 10/10/10 5/5/5
f 6/6/6 10/10/10 11/11/11
f 12/12/12 6/6/6 11/11/11
f 9/9/9 13/13/13 10/10/10
f 13/13/13 11/11/11 10/10/10
f 12/12/12 11/11/11 14/14/14
f 14/14/14 11/11/11 13/13/13
f 15/15/15 12/12/12 14/14/14
f 16/16/16 15/15/15 14/14/14
f 17/17/17 16/16/16 14/14/14
f 17/17/17 14/14/14 13/13/13
f 16/16/16 17/17/17 18/18/18
f 7/7/7 19/19/19 9/9/9
f 9/9/9 19/19/19 13/13/13
f 13/13/13 20/20/20 17/17/17
f 19/19/19 20/20/20 13/13/13
f 17/17/17 21/21/21 18/18/18
f 20/20/20 21/21/21 17/17/17
f 19/19/19 7/7/7 22/22/22
f 8/8/8 22/22/22 7/7/7
f 18/18/18 21/21/21 23/23/23
f 24/24/24 18/18/18 23/23/23
f 19/19/19 25/25/25 20/20/20
f 25/25/25 19/19/19 22/22/22
f 26/26/26 22/22/22 8/8/8
f 25/25/25 22/22/22 26/26/26
f 27/27/27 26/26/26 8/8/8
f 27/27/27 28/28/28 26/26/26
f 20/20/20 29/29/29 21/21/21
f 25/25/25 29/29/29 20/20/20
f 29/29/29 23/23/23 21/21/21
f 24/24/24 23/23/23 30/30/30
f 31/31/31 24/24/24 30/30/30
f 32/32/32 31/31/31 30/30/30
f 28/28/28 33/33/33 26/26/26
f 28/28/28 34/34/34 33/33/33
f 35/35/35 25/25/25 26/26/26
f 29/29/29 25/25/25 35/35/35
f 26/26/26 33/33/33 35/35/35
f 23/23/23 29/29/29 36/36/36
f 30/30/30 23/23/23 36/36/36
f 36/36/36 29/29/29 35/35/35
f 37/37/37 32/32/32 30/30/30
f 30/30/30 36/36/36 37/37/37
f 32/32/32 37/37/37 38/38/38
f 34/34/34 39/39/39 33/33/33
f 33/33/33 39/39/39 35/35/35
f 34/34/34 38/38/38 39/39/39
f 36/36/36 35/35/35 40/40/40
f 36/36/36 40/40/40 37/37/37
f 35/35/35 39/39/39 40/40/40
f 38/38/38 40/40/40 39/39/39
f 37/37/37 40/40/40 38/38/38
f 43/43/43 42/42/42 41/41/41
f 42/42/42 44/44/44 41/41/41
f 45/45/45 43/43/43 41/41/41
f 43/43/43 45/45/45 46/46/46
f 44/44/44 47/47/47 41/41/41
f 44/44/44 48/48/48 47/47/47
f 41/41/41 49/49/49 45/45/45
f 41/41/41 47/47/47 49/49/49
f 45/45/45 50/50/50 46/46/46
f 49/49/49 50/50/50 45/45/45
f 46/46/46 50/50/50 51/51/51
f 52/52/52 46/46/46 51/51/51
f 50/50/50 49/49/49 53/53/53
f 51/51/51 50/50/50 53/53/53
f 52/52/52 51/51/51 54/54/54
f 54/54/54 51/51/51 53/53/53
f 55/55/55 52/52/52 54/54/54
f 55/55/55 54/54/54 56/56/56
f 56/56/56 54/54/54 53/53/53
f 57/57/57 55/55/55 56/56/56
f 57/57/57 56/56/56 58/58/58
f 47/47/47 59/59/59 49/49/49
f 49/49/49 59/59/59 53/53/53
f 53/53/53 60/60/60 56/56/56
f 59/59/59 60/60/60 53/53/53
f 56/56/56 61/61/61 58/58/58
f 60/60/60 61/61/61 56/56/56
f 59/59/59 47/47/47 62/62/62
f 48/48/48 62/62/62 47/47/47
f 58/58/58 61/61/61 63/63/63
f 64/64/64 58/58/58 63/63/63
f 59/59/59 65/65/65 60/60/60
f 65/65/65 59/59/59 62/62/62
f 66/66/66 62/62/62 48/48/48
f 65/65/65 62/62/62 66/66/66
f 67/67/67 66/66/66 48/48/48
f 67/67/67 68/68/68 66/66/66
f 60/60/60 69/69/69 61/61/61
f 65/65/65 69/69/69 60/60/60
f 69/69/69 63/63/63 61/61/61
f 64/64/64 63/63/63 70/70/70
f 71/71/71 64/64/64 70/70/70
f 68/68/68 72/72/72 66/66/66
f 68/68/68 73/73/73 72/72/72
f 74/74/74 65/65/65 66/66/66
f 69/69/69 65/65/65 74/74/74
f 66/66/66 72/72/72 74/74/74
f 63/63/63 69/69/69 75/75/75
f 70/70/70 63/63/63 75/75/75
f 75/75/75 69/69/69 74/74/74
f 71/71/71 70/70/70 76/76/76
f 70/70/70 75/75/75 76/76/76
f 77/77/77 71/71/71 76/76/76
f 77/77/77 76/76/76 78/78/78
f 73/73/73 79/79/79 72/72/72
f 72/72/72 79/79/79 74/74/74
f 73/73/73 78/78/78 79/79/79
f 75/75/75 74/74/74 80/80/80
f 75/75/75 80/80/80 76/76/76
f 74/74/74 79/79/79 80/80/80
f 78/78/78 80/80/80 79/79/79
f 76/76/76 80/80/80 78/78/78
