g Pai007
v -0.0681663379 -0.952029765 0.618451416
v -0.0713552907 -0.955790401 0.622365117
v -0.0654759035 -0.962469816 0.622341454
v -0.0713197961 -0.947833717 0.622391582
v -0.0625581741 -0.958401144 0.618428826
v -0.0593408458 -0.962497294 0.622339845
v -0.0681324303 -0.944440305 0.618476629
v -0.0706627965 -0.800701678 0.622880697
v -0.061764285 -0.952058315 0.618449748
v -0.0567063019 -0.958427191 0.618427277
v 0.0515067242 -0.958910346 0.618399024
v 0.0541069023 -0.963003814 0.622310221
v 0.0566213131 -0.952586889 0.618418813
v 0.0573586226 -0.958936512 0.618397534
v 0.0602418929 -0.963031232 0.622308612
v 0.0661806986 -0.956404388 0.622329175
v 0.0630234182 -0.95261544 0.618417144
v 0.0662162304 -0.948447704 0.62235564
v -0.0617303886 -0.944468796 0.61847496
v 0.0566552095 -0.94499737 0.618444026
v 0.0630572811 -0.94502598 0.618442357
v -0.0675057769 -0.804097354 0.618943214
v 0.0636839792 -0.80468297 0.618908882
v 0.0668732151 -0.801315665 0.622844756
v -0.0611036867 -0.804125905 0.618941545
v -0.0674718618 -0.796507835 0.618968427
v -0.0706272274 -0.792745054 0.622907162
v -0.0646884367 -0.786118209 0.622927725
v 0.0572818741 -0.80465436 0.618910611
v 0.0637178421 -0.797093511 0.618934155
v 0.0669087172 -0.793359101 0.62287122
v 0.0610293597 -0.786679506 0.622894883
v -0.0618070699 -0.790186822 0.618988037
v -0.0585534312 -0.786145687 0.622926116
v -0.0610698462 -0.796536446 0.618966758
v 0.0573157854 -0.79706496 0.618935823
v 0.0581097081 -0.790722191 0.618956745
v 0.0548943356 -0.786652148 0.622896492
v -0.0559551641 -0.790212929 0.618986547
v 0.0522577912 -0.790696084 0.618958294
v -0.0674699619 -0.796533942 0.626819193
v -0.0706272274 -0.792745054 0.622907162
v -0.0646884367 -0.786118209 0.622927725
v -0.0706627965 -0.800701678 0.622880697
v -0.0618051328 -0.790212929 0.626838803
v -0.0585534312 -0.786145687 0.622926116
v -0.0675038472 -0.804123461 0.626793981
v -0.0713197961 -0.947833717 0.622391582
v -0.061067909 -0.796562552 0.626817524
v -0.0559532344 -0.790239036 0.626837313
v 0.0522597246 -0.790722191 0.626809001
v 0.0548943356 -0.786652148 0.622896492
v 0.0573177226 -0.797091067 0.62678659
v 0.0581116416 -0.790748358 0.626807511
v 0.0610293597 -0.786679506 0.622894883
v 0.0637197942 -0.797119677 0.626784921
v 0.0669087172 -0.793359101 0.62287122
v 0.0668732151 -0.801315665 0.622844756
v -0.0611017868 -0.804151952 0.626792312
v 0.0572838113 -0.804680526 0.626761377
v 0.0636859164 -0.804709077 0.626759708
v -0.0681304932 -0.944466472 0.626327395
v 0.0630592182 -0.945052087 0.626293123
v 0.0662162304 -0.948447704 0.62235564
v -0.0617284514 -0.944494963 0.626325727
v -0.0681644008 -0.952055871 0.626302183
v -0.0713552907 -0.955790401 0.622365117
v -0.0654759035 -0.962469816 0.622341454
v 0.0566571467 -0.945023477 0.626294792
v 0.0630253553 -0.952641606 0.62626791
v 0.0661806986 -0.956404388 0.622329175
v -0.062556237 -0.95842725 0.626279593
v -0.0593408458 -0.962497294 0.622339845
v -0.0617623515 -0.952084482 0.626300514
v 0.0566232465 -0.952612996 0.626269579
v 0.057360556 -0.958962619 0.62624824
v 0.0602418929 -0.963031232 0.622308612
v 0.0541069023 -0.963003814 0.622310221
v -0.0567043684 -0.958453298 0.626278043
v 0.0515086576 -0.958936512 0.62624979
vt 0.0215483867 0.97464335
vt 0.0116298115 0.983688831
vt 0.0175696723 0.990104437
vt 0.00892664026 0.97552371
vt 0.0246372037 0.977273822
vt 0.0238286741 0.992519021
vt 0.0211796388 0.97105813
vt 0.00945853349 0.883443773
vt 0.0243537165 0.974552155
vt 0.0272625871 0.977492452
vt 0.0858898684 0.977450132
vt 0.0891530737 0.992469549
vt 0.0888313651 0.974504232
vt 0.0885166302 0.977228403
vt 0.0954443142 0.990040302
vt 0.101455428 0.983609915
vt 0.0916347951 0.974590421
vt 0.104248933 0.975443244
vt 0.0243343972 0.970991373
vt 0.0888911933 0.970941782
vt 0.0920456275 0.97100246
vt 0.0216618329 0.887884557
vt 0.0925277993 0.887828231
vt 0.104780771 0.88336271
vt 0.0248162188 0.887945175
vt 0.0220726877 0.884297073
vt 0.0122520356 0.875277519
vt 0.0182631537 0.86884737
vt 0.089373067 0.887894869
vt 0.0921590254 0.884242654
vt 0.10207767 0.875197113
vt 0.096137844 0.868781269
vt 0.025190901 0.88165921
vt 0.0245542638 0.866418064
vt 0.0248760916 0.884383202
vt 0.0893537924 0.884333909
vt 0.0890703052 0.881611824
vt 0.0898786411 0.866366565
vt 0.0278176405 0.88143754
vt 0.0864449739 0.881393313
vt 0.0186255015 0.777992368
vt 0.0133213466 0.768832803
vt 0.0095765423 0.774385393
vt 0.0181026272 0.766256213
vt 0.0170786157 0.780883729
vt 0.00816086866 0.780210674
vt 0.020719409 0.777624607
vt 0.0719838887 0.766277552
vt 0.0186712109 0.780604303
vt 0.0169467628 0.783327878
vt 0.016870033 0.837903142
vt 0.00807294808 0.840988219
vt 0.0185875557 0.840619922
vt 0.0169965886 0.840352118
vt 0.00947487541 0.846826792
vt 0.0185359605 0.843232393
vt 0.0132308668 0.852406502
vt 0.0180117302 0.854972959
vt 0.0207515657 0.780565202
vt 0.0206695125 0.840654194
vt 0.0206315145 0.843592942
vt 0.0693640485 0.777657568
vt 0.0692759082 0.843625844
vt 0.0718927905 0.854994059
vt 0.0693260059 0.780596256
vt 0.0714598075 0.778018117
vt 0.0767648295 0.768843949
vt 0.0805208907 0.774423778
vt 0.0692437068 0.840685248
vt 0.0713696256 0.843257904
vt 0.0766738281 0.85241729
vt 0.072999157 0.780898333
vt 0.081922695 0.780262291
vt 0.07140816 0.78063035
vt 0.0713238418 0.840645909
vt 0.0729163885 0.840366364
vt 0.0804184303 0.8468647
vt 0.0818339884 0.841039538
vt 0.0731256604 0.783347309
vt 0.0730481148 0.837922275
vn -0.418269187 -0.126943931 -0.899408817
vn -0.883947134 -0.467584938 -0.0013327552
vn -0.530577898 -0.847631812 -0.0026844868
vn -0.999989986 0.00446430501 0.000265059323
vn -0.19178167 -0.369697958 -0.909144163
vn -0.00446495134 -0.999984503 -0.00332415127
vn -0.447728902 0.00497180456 -0.894155562
vn -0.999989986 0.00446463656 0.000263071473
vn -0.000247219199 0.00332407583 -0.999994516
vn -0.00170075311 -0.325635314 -0.945493877
vn -0.0017007537 -0.325636506 -0.94549346
vn -0.00446577091 -0.999984503 -0.00332510355
vn -0.000246256386 0.00332404301 -0.999994516
vn 0.187998056 -0.371384144 -0.909247279
vn 0.522990406 -0.852333367 -0.00296576321
vn 0.879737079 -0.475457042 -0.00179919007
vn 0.4166421 -0.130667493 -0.899630666
vn 0.999989986 -0.00446425844 -0.000259476772
vn -0.000246769137 0.00332550867 -0.999994516
vn -0.000246748445 0.00332550774 -0.999994516
vn 0.447292805 0.000976028154 -0.894387007
vn -0.447728246 0.00497186324 -0.89415586
vn 0.447292447 0.000976115582 -0.894387305
vn 0.999989986 -0.00446408289 -0.000259285036
vn -0.000246728014 0.00332563347 -0.999994516
vn -0.41708526 0.136651367 -0.898535728
vn -0.879737794 0.475455731 0.00179605116
vn -0.522991598 0.852332711 0.00296327565
vn -0.000246727956 0.00332563953 -0.999994516
vn 0.417822629 0.13292633 -0.898751795
vn 0.883950889 0.467577964 0.00134005246
vn 0.530584574 0.84762764 0.00269667921
vn -0.188449174 0.377428085 -0.90666151
vn 0.00446554506 0.999984503 0.00332772592
vn -0.00024667554 0.00332670705 -0.999994516
vn -0.000246406911 0.0033267606 -0.999994516
vn 0.191334888 0.375734419 -0.906760573
vn 0.0044653872 0.999984503 0.00332903839
vn 0.00123567414 0.331920594 -0.943306506
vn 0.00123571337 0.331919521 -0.943306983
vn -0.416646332 0.130670264 0.899628341
vn -0.879737794 0.475455731 0.00179605116
vn -0.522991598 0.852332711 0.00296327565
vn -0.999989986 0.00446463656 0.000263071473
vn -0.187999666 0.371387929 0.909245312
vn 0.00446554506 0.999984503 0.00332772592
vn -0.44728598 -0.00097617798 0.894390583
vn -0.999989986 0.00446430501 0.000265059323
vn 0.000246163167 -0.00332576013 0.999994516
vn 0.00170082843 0.32563591 0.945493758
vn 0.00170092098 0.325634837 0.945494115
vn 0.0044653872 0.999984503 0.00332903839
vn 0.000246442447 -0.00332570798 0.999994516
vn 0.191782117 0.369692296 0.909146488
vn 0.530584574 0.84762764 0.00269667921
vn 0.418267816 0.126945421 0.899409235
vn 0.883950889 0.467577964 0.00134005246
vn 0.999989986 -0.00446408289 -0.000259285036
vn 0.000246397452 -0.00332551776 0.999994516
vn 0.000246728014 -0.00332551147 0.999994516
vn 0.447730154 -0.00497182878 0.894154906
vn -0.447285861 -0.00097611628 0.894390583
vn 0.447729498 -0.00497191399 0.894155264
vn 0.999989986 -0.00446425844 -0.000259476772
vn 0.00024639719 -0.00332562998 0.999994516
vn -0.41781503 -0.132924289 0.89875567
vn -0.883947134 -0.467584938 -0.0013327552
vn -0.530577898 -0.847631812 -0.0026844868
vn 0.000246727723 -0.00332563673 0.999994516
vn 0.417088121 -0.136650071 0.898534477
vn 0.879737079 -0.475457042 -0.00179919007
vn -0.191329524 -0.375736982 0.906760573
vn -0.00446495134 -0.999984503 -0.00332415127
vn 0.000246381795 -0.0033273513 0.999994516
vn 0.000246549054 -0.00332724676 0.999994516
vn 0.188449457 -0.377423644 0.906663239
vn 0.522990406 -0.852333367 -0.00296576321
vn -0.00446577091 -0.999984503 -0.00332510355
vn -0.00123583735 -0.331920981 0.943306446
vn -0.00123576063 -0.331923693 0.943305492
g Pai007_0
f 3/3/3 2/2/2 1/1/1
f 2/2/2 4/4/4 1/1/1
f 5/5/5 3/3/3 1/1/1
f 3/3/3 5/5/5 6/6/6
f 4/4/4 7/7/7 1/1/1
f 4/4/4 8/8/8 7/7/7
f 1/1/1 9/9/9 5/5/5
f 1/1/1 7/7/7 9/9/9
f 5/5/5 10/10/10 6/6/6
f 9/9/9 10/10/10 5/5/5
f 6/6/6 10/10/10 11/11/11
f 12/12/12 6/6/6 11/11/11
f 9/9/9 13/13/13 10/10/10
f 13/13/13 11/11/11 10/10/10
f 12/12/12 11/11/11 14/14/14
f 14/14/14 11/11/11 13/13/13
f 15/15/15 12/12/12 14/14/14
f 16/16/16 15/15/15 14/14/14
f 17/17/17 16/16/16 14/14/14
f 17/17/17 14/14/14 13/13/13
f 16/16/16 17/17/17 18/18/18
f 7/7/7 19/19/19 9/9/9
f 9/9/9 19/19/19 13/13/13
f 13/13/13 20/20/20 17/17/17
f 19/19/19 20/20/20 13/13/13
f 17/17/17 21/21/21 18/18/18
f 20/20/20 21/21/21 17/17/17
f 19/19/19 7/7/7 22/22/22
f 8/8/8 22/22/22 7/7/7
f 18/18/18 21/21/21 23/23/23
f 24/24/24 18/18/18 23/23/23
f 19/19/19 25/25/25 20/20/20
f 25/25/25 19/19/19 22/22/22
f 26/26/26 22/22/22 8/8/8
f 25/25/25 22/22/22 26/26/26
f 27/27/27 26/26/26 8/8/8
f 27/27/27 28/28/28 26/26/26
f 20/20/20 29/29/29 21/21/21
f 25/25/25 29/29/29 20/20/20
f 29/29/29 23/23/23 21/21/21
f 24/24/24 23/23/23 30/30/30
f 31/31/31 24/24/24 30/30/30
f 32/32/32 31/31/31 30/30/30
f 28/28/28 33/33/33 26/26/26
f 28/28/28 34/34/34 33/33/33
f 35/35/35 25/25/25 26/26/26
f 29/29/29 25/25/25 35/35/35
f 26/26/26 33/33/33 35/35/35
f 23/23/23 29/29/29 36/36/36
f 30/30/30 23/23/23 36/36/36
f 36/36/36 29/29/29 35/35/35
f 37/37/37 32/32/32 30/30/30
f 30/30/30 36/36/36 37/37/37
f 32/32/32 37/37/37 38/38/38
f 34/34/34 39/39/39 33/33/33
f 33/33/33 39/39/39 35/35/35
f 34/34/34 38/38/38 39/39/39
f 36/36/36 35/35/35 40/40/40
f 36/36/36 40/40/40 37/37/37
f 35/35/35 39/39/39 40/40/40
f 38/38/38 40/40/40 39/39/39
f 37/37/37 40/40/40 38/38/38
f 43/43/43 42/42/42 41/41/41
f 42/42/42 44/44/44 41/41/41
f 45/45/45 43/43/43 41/41/41
f 43/43/43 45/45/45 46/46/46
f 44/44/44 47/47/47 41/41/41
f 44/44/44 48/48/48 47/47/47
f 41/41/41 49/49/49 45/45/45
f 41/41/41 47/47/47 49/49/49
f 45/45/45 50/50/50 46/46/46
f 49/49/49 50/50/50 45/45/45
f 46/46/46 50/50/50 51/51/51
f 52/52/52 46/46/46 51/51/51
f 50/50/50 49/49/49 53/53/53
f 51/51/51 50/50/50 53/53/53
f 52/52/52 51/51/51 54/54/54
f 54/54/54 51/51/51 53/53/53
f 55/55/55 52/52/52 54/54/54
f 55/55/55 54/54/54 56/56/56
f 56/56/56 54/54/54 53/53/53
f 57/57/57 55/55/55 56/56/56
f 57/57/57 56/56/56 58/58/58
f 47/47/47 59/59/59 49/49/49
f 49/49/49 59/59/59 53/53/53
f 53/53/53 60/60/60 56/56/56
f 59/59/59 60/60/60 53/53/53
f 56/56/56 61/61/61 58/58/58
f 60/60/60 61/61/61 56/56/56
f 59/59/59 47/47/47 62/62/62
f 48/48/48 62/62/62 47/47/47
f 58/58/58 61/61/61 63/63/63
f 64/64/64 58/58/58 63/63/63
f 59/59/59 65/65/65 60/60/60
f 65/65/65 59/59/59 62/62/62
f 66/66/66 62/62/62 48/48/48
f 65/65/65 62/62/62 66/66/66
f 67/67/67 66/66/66 48/48/48
f 67/67/67 68/68/68 66/66/66
f 60/60/60 69/69/69 61/61/61
f 65/65/65 69/69/69 60/60/60
f 69/69/69 63/63/63 61/61/61
f 64/64/64 63/63/63 70/70/70
f 71/71/71 64/64/64 70/70/70
f 68/68/68 72/72/72 66/66/66
f 68/68/68 73/73/73 72/72/72
f 74/74/74 65/65/65 66/66/66
f 69/69/69 65/65/65 74/74/74
f 66/66/66 72/72/72 74/74/74
f 63/63/63 69/69/69 75/75/75
f 70/70/70 63/63/63 75/75/75
f 75/75/75 69/69/69 74/74/74
f 71/71/71 70/70/70 76/76/76
f 70/70/70 75/75/75 76/76/76
f 77/77/77 71/71/71 76/76/76
f 77/77/77 76/76/76 78/78/78
f 73/73/73 79/79/79 72/72/72
f 72/72/72 79/79/79 74/74/74
f 73/73/73 78/78/78 79/79/79
f 75/75/75 74/74/74 80/80/80
f 75/75/75 80/80/80 76/76/76
f 74/74/74 79/79/79 80/80/80
f 78/78/78 80/80/80 79/79/79
f 76/76/76 80/80/80 78/78/78
