g DiZhu_Pai15
v -0.401602745 -1.05662656 0.641756952
v -0.404324889 -1.05418313 0.646880329
v -0.411044121 -1.06000137 0.647310078
v -0.396554679 -1.05418444 0.645167232
v -0.408012003 -1.06217623 0.642166972
v -0.411274672 -1.06604314 0.646269143
v -0.394191176 -1.05662775 0.64012295
v -0.252871007 -1.05420876 0.613489747
v -0.40184328 -1.0629313 0.640670657
v -0.408231795 -1.06793916 0.641174018
v -0.412297785 -1.17450702 0.622813106
v -0.415537298 -1.17776608 0.627020061
v -0.406291425 -1.17951691 0.620583773
v -0.412517667 -1.18026996 0.621820211
v -0.415767819 -1.18380785 0.625979125
v -0.409492612 -1.18962824 0.623544097
v -0.40653196 -1.18582177 0.619497538
v -0.401722401 -1.18962944 0.621831
v -0.39443168 -1.06293249 0.639036655
v -0.398879766 -1.17951822 0.618949771
v -0.399120361 -1.18582296 0.617863536
v -0.257137358 -1.056651 0.60990715
v -0.262066573 -1.18584609 0.587647676
v -0.25803867 -1.18965375 0.590153515
v -0.257377893 -1.06295574 0.608820856
v -0.249725774 -1.05665219 0.608273089
v -0.245100856 -1.05421007 0.61177671
v -0.238825619 -1.06003046 0.609341621
v -0.261826009 -1.17954135 0.588733971
v -0.254654944 -1.1858474 0.586013734
v -0.250268549 -1.18965507 0.588440478
v -0.243549228 -1.18383694 0.588010609
v -0.243740082 -1.062204 0.605950415
v -0.239056155 -1.06607223 0.608300686
v -0.249966323 -1.06295693 0.607186854
v -0.254414409 -1.17954266 0.58709991
v -0.248245761 -1.18029761 0.585603714
v -0.243318766 -1.17779517 0.589051604
v -0.243959934 -1.06796694 0.604957461
v -0.248025864 -1.17453468 0.586596608
v -0.248061463 -1.05801654 0.615823209
v -0.245100856 -1.05421007 0.61177671
v -0.238825619 -1.06003046 0.609341621
v -0.252871007 -1.05420876 0.613489747
v -0.242075756 -1.06356835 0.613500476
v -0.239056155 -1.06607223 0.608300686
v -0.255473047 -1.05801523 0.617457211
v -0.396554679 -1.05418444 0.645167232
v -0.248301998 -1.06432128 0.614736974
v -0.242295623 -1.06933129 0.612507582
v -0.246361554 -1.17589903 0.594146729
v -0.243318766 -1.17779517 0.589051604
v -0.252750099 -1.18090701 0.59465003
v -0.24658145 -1.18166196 0.593153834
v -0.243549228 -1.18383694 0.588010609
v -0.252990693 -1.18721175 0.593563795
v -0.250268549 -1.18965507 0.588440478
v -0.25803867 -1.18965375 0.590153515
v -0.255713582 -1.06431997 0.616370976
v -0.260161698 -1.1809057 0.596284032
v -0.260402262 -1.18721056 0.595197797
v -0.392526835 -1.0579921 0.647673011
v -0.39745605 -1.18718731 0.625413597
v -0.401722401 -1.18962944 0.621831
v -0.39276734 -1.06429684 0.646586776
v -0.399938434 -1.05799091 0.649307072
v -0.404324889 -1.05418313 0.646880329
v -0.411044121 -1.06000137 0.647310078
v -0.397215456 -1.18088257 0.626499832
v -0.404867649 -1.18718612 0.627047658
v -0.409492612 -1.18962824 0.623544097
v -0.406347692 -1.06354058 0.649717033
v -0.411274672 -1.06604314 0.646269143
v -0.400178969 -1.06429553 0.648220837
v -0.404627055 -1.18088126 0.628133893
v -0.410853326 -1.18163431 0.629370332
v -0.415767819 -1.18380785 0.625979125
v -0.415537298 -1.17776608 0.627020061
v -0.406567484 -1.06930351 0.648724139
v -0.410633445 -1.17587137 0.630363226
vt 0.0215483867 0.97464335
vt 0.0116298115 0.983688831
vt 0.0175696723 0.990104437
vt 0.00892664026 0.97552371
vt 0.0246372037 0.977273822
vt 0.0238286741 0.992519021
vt 0.0211796388 0.97105813
vt 0.00945853349 0.883443773
vt 0.0243537165 0.974552155
vt 0.0272625871 0.977492452
vt 0.0858898684 0.977450132
vt 0.0891530737 0.992469549
vt 0.0888313651 0.974504232
vt 0.0885166302 0.977228403
vt 0.0954443142 0.990040302
vt 0.101455428 0.983609915
vt 0.0916347951 0.974590421
vt 0.104248933 0.975443244
vt 0.0243343972 0.970991373
vt 0.0888911933 0.970941782
vt 0.0920456275 0.97100246
vt 0.0216618329 0.887884557
vt 0.0925277993 0.887828231
vt 0.104780771 0.88336271
vt 0.0248162188 0.887945175
vt 0.0220726877 0.884297073
vt 0.0122520356 0.875277519
vt 0.0182631537 0.86884737
vt 0.089373067 0.887894869
vt 0.0921590254 0.884242654
vt 0.10207767 0.875197113
vt 0.096137844 0.868781269
vt 0.025190901 0.88165921
vt 0.0245542638 0.866418064
vt 0.0248760916 0.884383202
vt 0.0893537924 0.884333909
vt 0.0890703052 0.881611824
vt 0.0898786411 0.866366565
vt 0.0278176405 0.88143754
vt 0.0864449739 0.881393313
vt 0.0186255015 0.777992368
vt 0.0133213466 0.768832803
vt 0.0095765423 0.774385393
vt 0.0181026272 0.766256213
vt 0.0170786157 0.780883729
vt 0.00816086866 0.780210674
vt 0.020719409 0.777624607
vt 0.0719838887 0.766277552
vt 0.0186712109 0.780604303
vt 0.0169467628 0.783327878
vt 0.016870033 0.837903142
vt 0.00807294808 0.840988219
vt 0.0185875557 0.840619922
vt 0.0169965886 0.840352118
vt 0.00947487541 0.846826792
vt 0.0185359605 0.843232393
vt 0.0132308668 0.852406502
vt 0.0180117302 0.854972959
vt 0.0207515657 0.780565202
vt 0.0206695125 0.840654194
vt 0.0206315145 0.843592942
vt 0.0693640485 0.777657568
vt 0.0692759082 0.843625844
vt 0.0718927905 0.854994059
vt 0.0693260059 0.780596256
vt 0.0714598075 0.778018117
vt 0.0767648295 0.768843949
vt 0.0805208907 0.774423778
vt 0.0692437068 0.840685248
vt 0.0713696256 0.843257904
vt 0.0766738281 0.85241729
vt 0.072999157 0.780898333
vt 0.081922695 0.780262291
vt 0.07140816 0.78063035
vt 0.0713238418 0.840645909
vt 0.0729163885 0.840366364
vt 0.0804184303 0.8468647
vt 0.0818339884 0.841039538
vt 0.0731256604 0.783347309
vt 0.0730481148 0.837922275
vn -0.303622693 0.567371488 -0.765442908
vn -0.427334785 0.868509829 0.251149058
vn -0.810266674 0.518915951 0.272386044
vn 0.0375742093 0.984782755 0.169679046
vn -0.550155759 0.344855398 -0.760528386
vn -0.976548135 0.000164546276 0.215298817
vn -0.172766626 0.596119821 -0.7840873
vn 0.0375726409 0.984783113 0.169677913
vn -0.211993605 0.1737822 -0.961695552
vn -0.521280348 0.164174512 -0.837444663
vn -0.521281958 0.164174333 -0.837443769
vn -0.976548672 0.000164739176 0.215296566
vn -0.211993381 0.173782021 -0.961695671
vn -0.564422131 -0.0291520618 -0.824971437
vn -0.849856436 -0.518633485 0.0936131924
vn -0.493603051 -0.868355155 -0.0481176265
vn -0.334988296 -0.254838973 -0.907105207
vn -0.0375735685 -0.984784365 -0.169670463
vn -0.211992592 0.173781946 -0.96169591
vn -0.211992636 0.173781767 -0.96169591
vn -0.20639573 -0.285295188 -0.935952723
vn -0.17276673 0.596119344 -0.784087598
vn -0.206395909 -0.285294622 -0.935952783
vn -0.0375740752 -0.984784245 -0.169670984
vn -0.21199289 0.173781872 -0.96169579
vn -0.0462051742 0.567332208 -0.822191715
vn 0.49360615 0.868353307 0.0481205434
vn 0.849856436 0.518634915 -0.093605049
vn -0.211992919 0.173781723 -0.96169579
vn -0.0775716603 -0.2548801 -0.963856161
vn 0.427337915 -0.868510067 -0.251142561
vn 0.810269833 -0.518915892 -0.272376508
vn 0.17946136 0.344729334 -0.921387732
vn 0.976548254 -0.000163520061 -0.215298742
vn -0.211995229 0.173781514 -0.961695373
vn -0.211994767 0.173781499 -0.961695492
vn 0.165189311 -0.0292783231 -0.985827208
vn 0.976548672 -0.000163093573 -0.215296343
vn 0.120871983 0.164066032 -0.979015946
vn 0.120871827 0.164066076 -0.979015946
vn 0.334990412 0.254835546 0.907105446
vn 0.49360615 0.868353307 0.0481205434
vn 0.849856436 0.518634915 -0.093605049
vn 0.0375726409 0.984783113 0.169677913
vn 0.564419806 0.0291538499 0.824972868
vn 0.976548254 -0.000163520061 -0.215298742
vn 0.206393898 0.285294026 0.935953438
vn 0.0375742093 0.984782755 0.169679046
vn 0.211991131 -0.173781991 0.961696267
vn 0.521282971 -0.16417402 0.837443113
vn 0.521282136 -0.16417399 0.83744359
vn 0.976548672 -0.000163093573 -0.215296343
vn 0.211990446 -0.173782036 0.961696327
vn 0.550149441 -0.344847172 0.760536611
vn 0.810269833 -0.518915892 -0.272376508
vn 0.303621829 -0.567370713 0.765443861
vn 0.427337915 -0.868510067 -0.251142561
vn -0.0375740752 -0.984784245 -0.169670984
vn 0.211992264 -0.173781723 0.961696029
vn 0.211992458 -0.173781738 0.96169591
vn 0.172765866 -0.596113563 0.784092188
vn 0.206394151 0.285294175 0.935953319
vn 0.172766253 -0.596114099 0.784091771
vn -0.0375735685 -0.984784365 -0.169670463
vn 0.211992458 -0.173781693 0.96169591
vn 0.0775772855 0.254884601 0.963854611
vn -0.427334785 0.868509829 0.251149058
vn -0.810266674 0.518915951 0.272386044
vn 0.211992756 -0.173781738 0.96169591
vn 0.0462086834 -0.567330718 0.82219255
vn -0.493603051 -0.868355155 -0.0481176265
vn -0.165202707 0.0292763766 0.985825062
vn -0.976548135 0.000164546276 0.215298817
vn 0.211996272 -0.173781767 0.961695135
vn 0.211996436 -0.173781499 0.961695135
vn -0.179467723 -0.344725549 0.921387851
vn -0.849856436 -0.518633485 0.0936131924
vn -0.976548672 0.000164739176 0.215296566
vn -0.120865427 -0.164066002 0.97901684
vn -0.120867848 -0.164065674 0.979016483
g DiZhu_Pai15_0
f 3/3/3 2/2/2 1/1/1
f 2/2/2 4/4/4 1/1/1
f 5/5/5 3/3/3 1/1/1
f 3/3/3 5/5/5 6/6/6
f 4/4/4 7/7/7 1/1/1
f 4/4/4 8/8/8 7/7/7
f 1/1/1 9/9/9 5/5/5
f 1/1/1 7/7/7 9/9/9
f 5/5/5 10/10/10 6/6/6
f 9/9/9 10/10/10 5/5/5
f 6/6/6 10/10/10 11/11/11
f 12/12/12 6/6/6 11/11/11
f 9/9/9 13/13/13 10/10/10
f 13/13/13 11/11/11 10/10/10
f 12/12/12 11/11/11 14/14/14
f 14/14/14 11/11/11 13/13/13
f 15/15/15 12/12/12 14/14/14
f 16/16/16 15/15/15 14/14/14
f 17/17/17 16/16/16 14/14/14
f 17/17/17 14/14/14 13/13/13
f 16/16/16 17/17/17 18/18/18
f 7/7/7 19/19/19 9/9/9
f 9/9/9 19/19/19 13/13/13
f 13/13/13 20/20/20 17/17/17
f 19/19/19 20/20/20 13/13/13
f 17/17/17 21/21/21 18/18/18
f 20/20/20 21/21/21 17/17/17
f 19/19/19 7/7/7 22/22/22
f 8/8/8 22/22/22 7/7/7
f 18/18/18 21/21/21 23/23/23
f 24/24/24 18/18/18 23/23/23
f 19/19/19 25/25/25 20/20/20
f 25/25/25 19/19/19 22/22/22
f 26/26/26 22/22/22 8/8/8
f 25/25/25 22/22/22 26/26/26
f 27/27/27 26/26/26 8/8/8
f 27/27/27 28/28/28 26/26/26
f 20/20/20 29/29/29 21/21/21
f 25/25/25 29/29/29 20/20/20
f 29/29/29 23/23/23 21/21/21
f 24/24/24 23/23/23 30/30/30
f 31/31/31 24/24/24 30/30/30
f 32/32/32 31/31/31 30/30/30
f 28/28/28 33/33/33 26/26/26
f 28/28/28 34/34/34 33/33/33
f 35/35/35 25/25/25 26/26/26
f 29/29/29 25/25/25 35/35/35
f 26/26/26 33/33/33 35/35/35
f 23/23/23 29/29/29 36/36/36
f 30/30/30 23/23/23 36/36/36
f 36/36/36 29/29/29 35/35/35
f 37/37/37 32/32/32 30/30/30
f 30/30/30 36/36/36 37/37/37
f 32/32/32 37/37/37 38/38/38
f 34/34/34 39/39/39 33/33/33
f 33/33/33 39/39/39 35/35/35
f 34/34/34 38/38/38 39/39/39
f 36/36/36 35/35/35 40/40/40
f 36/36/36 40/40/40 37/37/37
f 35/35/35 39/39/39 40/40/40
f 38/38/38 40/40/40 39/39/39
f 37/37/37 40/40/40 38/38/38
f 43/43/43 42/42/42 41/41/41
f 42/42/42 44/44/44 41/41/41
f 45/45/45 43/43/43 41/41/41
f 43/43/43 45/45/45 46/46/46
f 44/44/44 47/47/47 41/41/41
f 44/44/44 48/48/48 47/47/47
f 41/41/41 49/49/49 45/45/45
f 41/41/41 47/47/47 49/49/49
f 45/45/45 50/50/50 46/46/46
f 49/49/49 50/50/50 45/45/45
f 46/46/46 50/50/50 51/51/51
f 52/52/52 46/46/46 51/51/51
f 50/50/50 49/49/49 53/53/53
f 51/51/51 50/50/50 53/53/53
f 52/52/52 51/51/51 54/54/54
f 54/54/54 51/51/51 53/53/53
f 55/55/55 52/52/52 54/54/54
f 55/55/55 54/54/54 56/56/56
f 56/56/56 54/54/54 53/53/53
f 57/57/57 55/55/55 56/56/56
f 57/57/57 56/56/56 58/58/58
f 47/47/47 59/59/59 49/49/49
f 49/49/49 59/59/59 53/53/53
f 53/53/53 60/60/60 56/56/56
f 59/59/59 60/60/60 53/53/53
f 56/56/56 61/61/61 58/58/58
f 60/60/60 61/61/61 56/56/56
f 59/59/59 47/47/47 62/62/62
f 48/48/48 62/62/62 47/47/47
f 58/58/58 61/61/61 63/63/63
f 64/64/64 58/58/58 63/63/63
f 59/59/59 65/65/65 60/60/60
f 65/65/65 59/59/59 62/62/62
f 66/66/66 62/62/62 48/48/48
f 65/65/65 62/62/62 66/66/66
f 67/67/67 66/66/66 48/48/48
f 67/67/67 68/68/68 66/66/66
f 60/60/60 69/69/69 61/61/61
f 65/65/65 69/69/69 60/60/60
f 69/69/69 63/63/63 61/61/61
f 64/64/64 63/63/63 70/70/70
f 71/71/71 64/64/64 70/70/70
f 68/68/68 72/72/72 66/66/66
f 68/68/68 73/73/73 72/72/72
f 74/74/74 65/65/65 66/66/66
f 69/69/69 65/65/65 74/74/74
f 66/66/66 72/72/72 74/74/74
f 63/63/63 69/69/69 75/75/75
f 70/70/70 63/63/63 75/75/75
f 75/75/75 69/69/69 74/74/74
f 71/71/71 70/70/70 76/76/76
f 70/70/70 75/75/75 76/76/76
f 77/77/77 71/71/71 76/76/76
f 77/77/77 76/76/76 78/78/78
f 73/73/73 79/79/79 72/72/72
f 72/72/72 79/79/79 74/74/74
f 73/73/73 78/78/78 79/79/79
f 75/75/75 74/74/74 80/80/80
f 75/75/75 80/80/80 76/76/76
f 74/74/74 79/79/79 80/80/80
f 78/78/78 80/80/80 79/79/79
f 76/76/76 80/80/80 78/78/78
