g DiZhu_Pai02
v -0.475110799 -0.830122948 0.613485217
v -0.478567213 -0.825906634 0.616632342
v -0.485238969 -0.831423521 0.618690372
v -0.470630407 -0.826105773 0.616105318
v -0.481474757 -0.835385323 0.615448356
v -0.485275567 -0.837324262 0.620369732
v -0.467540264 -0.830312967 0.612982571
v -0.323865533 -0.829788327 0.606360555
v -0.475148916 -0.836280525 0.615237594
v -0.481509537 -0.84101367 0.617050111
v -0.48215431 -0.945093334 0.646670163
v -0.485951483 -0.94643873 0.65142256
v -0.475854218 -0.950144172 0.647642016
v -0.482189178 -0.950721741 0.648271918
v -0.485987991 -0.952339351 0.653101861
v -0.479386657 -0.958189309 0.654278636
v -0.475892365 -0.956301689 0.649394453
v -0.471449852 -0.958388448 0.653751671
v -0.467578351 -0.836470485 0.614734888
v -0.468283653 -0.950334132 0.64713937
v -0.4683218 -0.956491649 0.648891747
v -0.327547401 -0.833825529 0.603687406
v -0.328328997 -0.96000427 0.639596641
v -0.324684888 -0.962070882 0.644006848
v -0.327585548 -0.839983046 0.605439723
v -0.319976896 -0.834015489 0.6031847
v -0.315928757 -0.829987526 0.60583359
v -0.309327364 -0.835837364 0.607010365
v -0.32829085 -0.953846693 0.637844205
v -0.320758432 -0.96019423 0.639093935
v -0.316748142 -0.962270021 0.643479884
v -0.310076326 -0.956753194 0.641421795
v -0.313680112 -0.839595497 0.604307175
v -0.309363931 -0.841738105 0.608689666
v -0.320015073 -0.840173006 0.604937077
v -0.320720315 -0.954036713 0.637341559
v -0.314394563 -0.954931855 0.637130797
v -0.310039818 -0.950852573 0.639742553
v -0.313714951 -0.845223904 0.60590899
v -0.314359665 -0.949303508 0.635528982
v -0.31942305 -0.831875086 0.610717773
v -0.315928757 -0.829987526 0.60583359
v -0.309327364 -0.835837364 0.607010365
v -0.323865533 -0.829788327 0.606360555
v -0.313126206 -0.837455094 0.611840308
v -0.309363931 -0.841738105 0.608689666
v -0.326993555 -0.831685066 0.611220479
v -0.470630407 -0.826105773 0.616105318
v -0.319461167 -0.838032603 0.61247015
v -0.313161075 -0.843083501 0.613442063
v -0.313805789 -0.947163045 0.643062115
v -0.310039818 -0.950852573 0.639742553
v -0.320166439 -0.95189625 0.644874632
v -0.313840687 -0.952791393 0.64466393
v -0.310076326 -0.956753194 0.641421795
v -0.320204616 -0.958053768 0.646627009
v -0.316748142 -0.962270021 0.643479884
v -0.324684888 -0.962070882 0.644006848
v -0.327031672 -0.837842643 0.612972796
v -0.327736974 -0.95170629 0.645377338
v -0.327775121 -0.957863927 0.647129655
v -0.466986388 -0.828172505 0.620515645
v -0.467767924 -0.954351246 0.65642488
v -0.471449852 -0.958388448 0.653751671
v -0.467024475 -0.834330022 0.622267962
v -0.474556923 -0.827982545 0.621018291
v -0.478567213 -0.825906634 0.616632342
v -0.485238969 -0.831423521 0.618690372
v -0.467729747 -0.948193729 0.654672444
v -0.475338459 -0.954161286 0.656927466
v -0.479386657 -0.958189309 0.654278636
v -0.480920851 -0.83324492 0.622981429
v -0.485275567 -0.837324262 0.620369732
v -0.47459501 -0.834140062 0.622770667
v -0.475300312 -0.948003769 0.65517509
v -0.481635273 -0.948581278 0.655805051
v -0.485987991 -0.952339351 0.653101861
v -0.485951483 -0.94643873 0.65142256
v -0.48095566 -0.838873267 0.624583185
v -0.481600404 -0.942952931 0.654203236
vt 0.0215483867 0.97464335
vt 0.0116298115 0.983688831
vt 0.0175696723 0.990104437
vt 0.00892664026 0.97552371
vt 0.0246372037 0.977273822
vt 0.0238286741 0.992519021
vt 0.0211796388 0.97105813
vt 0.00945853349 0.883443773
vt 0.0243537165 0.974552155
vt 0.0272625871 0.977492452
vt 0.0858898684 0.977450132
vt 0.0891530737 0.992469549
vt 0.0888313651 0.974504232
vt 0.0885166302 0.977228403
vt 0.0954443142 0.990040302
vt 0.101455428 0.983609915
vt 0.0916347951 0.974590421
vt 0.104248933 0.975443244
vt 0.0243343972 0.970991373
vt 0.0888911933 0.970941782
vt 0.0920456275 0.97100246
vt 0.0216618329 0.887884557
vt 0.0925277993 0.887828231
vt 0.104780771 0.88336271
vt 0.0248162188 0.887945175
vt 0.0220726877 0.884297073
vt 0.0122520356 0.875277519
vt 0.0182631537 0.86884737
vt 0.089373067 0.887894869
vt 0.0921590254 0.884242654
vt 0.10207767 0.875197113
vt 0.096137844 0.868781269
vt 0.025190901 0.88165921
vt 0.0245542638 0.866418064
vt 0.0248760916 0.884383202
vt 0.0893537924 0.884333909
vt 0.0890703052 0.881611824
vt 0.0898786411 0.866366565
vt 0.0278176405 0.88143754
vt 0.0864449739 0.881393313
vt 0.0186255015 0.777992368
vt 0.0133213466 0.768832803
vt 0.0095765423 0.774385393
vt 0.0181026272 0.766256213
vt 0.0170786157 0.780883729
vt 0.00816086866 0.780210674
vt 0.020719409 0.777624607
vt 0.0719838887 0.766277552
vt 0.0186712109 0.780604303
vt 0.0169467628 0.783327878
vt 0.016870033 0.837903142
vt 0.00807294808 0.840988219
vt 0.0185875557 0.840619922
vt 0.0169965886 0.840352118
vt 0.00947487541 0.846826792
vt 0.0185359605 0.843232393
vt 0.0132308668 0.852406502
vt 0.0180117302 0.854972959
vt 0.0207515657 0.780565202
vt 0.0206695125 0.840654194
vt 0.0206315145 0.843592942
vt 0.0693640485 0.777657568
vt 0.0692759082 0.843625844
vt 0.0718927905 0.854994059
vt 0.0693260059 0.780596256
vt 0.0714598075 0.778018117
vt 0.0767648295 0.768843949
vt 0.0805208907 0.774423778
vt 0.0692437068 0.840685248
vt 0.0713696256 0.843257904
vt 0.0766738281 0.85241729
vt 0.072999157 0.780898333
vt 0.081922695 0.780262291
vt 0.07140816 0.78063035
vt 0.0713238418 0.840645909
vt 0.0729163885 0.840366364
vt 0.0804184303 0.8468647
vt 0.0818339884 0.841039538
vt 0.0731256604 0.783347309
vt 0.0730481148 0.837922275
vn -0.192414954 0.159684196 -0.968234241
vn -0.465088725 0.859959483 -0.210147902
vn -0.844723105 0.527936459 -0.0878972486
vn 0.00595840998 0.961791039 -0.273719668
vn -0.435555875 -0.0555559844 -0.898445725
vn -0.997490287 0.0250277966 0.0662321374
vn -0.0604256839 0.186602354 -0.980575562
vn 0.00595930498 0.961791039 -0.273719877
vn -0.0705546215 -0.272635281 -0.959526956
vn -0.394584835 -0.249250501 -0.884407699
vn -0.394586205 -0.249250442 -0.884407043
vn -0.997490525 0.0250272248 0.0662297904
vn -0.0705540627 -0.272635609 -0.959526896
vn -0.437819809 -0.420830905 -0.794490576
vn -0.850999773 -0.485390335 0.20048818
vn -0.475599438 -0.836356521 0.272604197
vn -0.197383583 -0.643332303 -0.739704788
vn -0.0059583243 -0.961792707 0.273713708
vn -0.070550926 -0.272634715 -0.959527433
vn -0.0705508813 -0.272634864 -0.959527433
vn -0.0657585189 -0.674233854 -0.735584497
vn -0.0604257323 0.186601937 -0.980575562
vn -0.0657588467 -0.674234092 -0.735584199
vn -0.0059585399 -0.961793184 0.273712248
vn -0.0705507845 -0.272634715 -0.959527433
vn 0.0705231205 0.153088287 -0.985692859
vn 0.475596458 0.836356938 -0.272607893
vn 0.850998878 0.485392869 -0.200486109
vn -0.0705507621 -0.272634894 -0.959527433
vn 0.0655509159 -0.64993751 -0.757155478
vn 0.465085834 -0.859959722 0.210153401
vn 0.844721794 -0.527939498 0.0878914446
vn 0.309704632 -0.0742526501 -0.947929144
vn 0.997490525 -0.0250284597 -0.0662296861
vn -0.0705529377 -0.272634774 -0.959527194
vn -0.0705524907 -0.272635221 -0.959527194
vn 0.307443798 -0.439529061 -0.843974173
vn 0.997490287 -0.0250286069 -0.0662318766
vn 0.261333287 -0.265706003 -0.927957535
vn 0.261333317 -0.265706122 -0.927957535
vn 0.19738631 0.643335402 0.73970139
vn 0.475596458 0.836356938 -0.272607893
vn 0.850998878 0.485392869 -0.200486109
vn 0.00595930498 0.961791039 -0.273719877
vn 0.437816739 0.420827061 0.794494271
vn 0.997490525 -0.0250284597 -0.0662296861
vn 0.0657579303 0.674223721 0.735593855
vn 0.00595840998 0.961791039 -0.273719668
vn 0.0705547556 0.27263546 0.959526896
vn 0.394590795 0.249248192 0.884405673
vn 0.394591451 0.249248341 0.884405375
vn 0.997490287 -0.0250286069 -0.0662318766
vn 0.0705547705 0.272635669 0.959526896
vn 0.435556144 0.055556573 0.898445427
vn 0.844721794 -0.527939498 0.0878914446
vn 0.192411184 -0.159687281 0.96823442
vn 0.465085834 -0.859959722 0.210153401
vn -0.0059585399 -0.961793184 0.273712248
vn 0.0705505237 0.272635132 0.959527314
vn 0.0705505535 0.272634983 0.959527433
vn 0.060426116 -0.186609417 0.980574191
vn 0.0657582209 0.674223959 0.735593617
vn 0.0604261234 -0.186608687 0.98057425
vn -0.0059583243 -0.961792707 0.273713708
vn 0.0705503896 0.272635132 0.959527314
vn -0.0655489489 0.649929762 0.757162213
vn -0.465088725 0.859959483 -0.210147902
vn -0.844723105 0.527936459 -0.0878972486
vn 0.0705503672 0.272634923 0.959527433
vn -0.0705278143 -0.153085813 0.985692978
vn -0.475599438 -0.836356521 0.272604197
vn -0.307442844 0.439524263 0.843977094
vn -0.997490287 0.0250277966 0.0662321374
vn 0.0705556944 0.272634655 0.959527075
vn 0.0705551803 0.272634864 0.959527075
vn -0.309705585 0.0742548853 0.947928607
vn -0.850999773 -0.485390335 0.20048818
vn -0.997490525 0.0250272248 0.0662297904
vn -0.261324733 0.265706599 0.9279598
vn -0.261326373 0.265706569 0.927959383
g DiZhu_Pai02_0
f 3/3/3 2/2/2 1/1/1
f 2/2/2 4/4/4 1/1/1
f 5/5/5 3/3/3 1/1/1
f 3/3/3 5/5/5 6/6/6
f 4/4/4 7/7/7 1/1/1
f 4/4/4 8/8/8 7/7/7
f 1/1/1 9/9/9 5/5/5
f 1/1/1 7/7/7 9/9/9
f 5/5/5 10/10/10 6/6/6
f 9/9/9 10/10/10 5/5/5
f 6/6/6 10/10/10 11/11/11
f 12/12/12 6/6/6 11/11/11
f 9/9/9 13/13/13 10/10/10
f 13/13/13 11/11/11 10/10/10
f 12/12/12 11/11/11 14/14/14
f 14/14/14 11/11/11 13/13/13
f 15/15/15 12/12/12 14/14/14
f 16/16/16 15/15/15 14/14/14
f 17/17/17 16/16/16 14/14/14
f 17/17/17 14/14/14 13/13/13
f 16/16/16 17/17/17 18/18/18
f 7/7/7 19/19/19 9/9/9
f 9/9/9 19/19/19 13/13/13
f 13/13/13 20/20/20 17/17/17
f 19/19/19 20/20/20 13/13/13
f 17/17/17 21/21/21 18/18/18
f 20/20/20 21/21/21 17/17/17
f 19/19/19 7/7/7 22/22/22
f 8/8/8 22/22/22 7/7/7
f 18/18/18 21/21/21 23/23/23
f 24/24/24 18/18/18 23/23/23
f 19/19/19 25/25/25 20/20/20
f 25/25/25 19/19/19 22/22/22
f 26/26/26 22/22/22 8/8/8
f 25/25/25 22/22/22 26/26/26
f 27/27/27 26/26/26 8/8/8
f 27/27/27 28/28/28 26/26/26
f 20/20/20 29/29/29 21/21/21
f 25/25/25 29/29/29 20/20/20
f 29/29/29 23/23/23 21/21/21
f 24/24/24 23/23/23 30/30/30
f 31/31/31 24/24/24 30/30/30
f 32/32/32 31/31/31 30/30/30
f 28/28/28 33/33/33 26/26/26
f 28/28/28 34/34/34 33/33/33
f 35/35/35 25/25/25 26/26/26
f 29/29/29 25/25/25 35/35/35
f 26/26/26 33/33/33 35/35/35
f 23/23/23 29/29/29 36/36/36
f 30/30/30 23/23/23 36/36/36
f 36/36/36 29/29/29 35/35/35
f 37/37/37 32/32/32 30/30/30
f 30/30/30 36/36/36 37/37/37
f 32/32/32 37/37/37 38/38/38
f 34/34/34 39/39/39 33/33/33
f 33/33/33 39/39/39 35/35/35
f 34/34/34 38/38/38 39/39/39
f 36/36/36 35/35/35 40/40/40
f 36/36/36 40/40/40 37/37/37
f 35/35/35 39/39/39 40/40/40
f 38/38/38 40/40/40 39/39/39
f 37/37/37 40/40/40 38/38/38
f 43/43/43 42/42/42 41/41/41
f 42/42/42 44/44/44 41/41/41
f 45/45/45 43/43/43 41/41/41
f 43/43/43 45/45/45 46/46/46
f 44/44/44 47/47/47 41/41/41
f 44/44/44 48/48/48 47/47/47
f 41/41/41 49/49/49 45/45/45
f 41/41/41 47/47/47 49/49/49
f 45/45/45 50/50/50 46/46/46
f 49/49/49 50/50/50 45/45/45
f 46/46/46 50/50/50 51/51/51
f 52/52/52 46/46/46 51/51/51
f 50/50/50 49/49/49 53/53/53
f 51/51/51 50/50/50 53/53/53
f 52/52/52 51/51/51 54/54/54
f 54/54/54 51/51/51 53/53/53
f 55/55/55 52/52/52 54/54/54
f 55/55/55 54/54/54 56/56/56
f 56/56/56 54/54/54 53/53/53
f 57/57/57 55/55/55 56/56/56
f 57/57/57 56/56/56 58/58/58
f 47/47/47 59/59/59 49/49/49
f 49/49/49 59/59/59 53/53/53
f 53/53/53 60/60/60 56/56/56
f 59/59/59 60/60/60 53/53/53
f 56/56/56 61/61/61 58/58/58
f 60/60/60 61/61/61 56/56/56
f 59/59/59 47/47/47 62/62/62
f 48/48/48 62/62/62 47/47/47
f 58/58/58 61/61/61 63/63/63
f 64/64/64 58/58/58 63/63/63
f 59/59/59 65/65/65 60/60/60
f 65/65/65 59/59/59 62/62/62
f 66/66/66 62/62/62 48/48/48
f 65/65/65 62/62/62 66/66/66
f 67/67/67 66/66/66 48/48/48
f 67/67/67 68/68/68 66/66/66
f 60/60/60 69/69/69 61/61/61
f 65/65/65 69/69/69 60/60/60
f 69/69/69 63/63/63 61/61/61
f 64/64/64 63/63/63 70/70/70
f 71/71/71 64/64/64 70/70/70
f 68/68/68 72/72/72 66/66/66
f 68/68/68 73/73/73 72/72/72
f 74/74/74 65/65/65 66/66/66
f 69/69/69 65/65/65 74/74/74
f 66/66/66 72/72/72 74/74/74
f 63/63/63 69/69/69 75/75/75
f 70/70/70 63/63/63 75/75/75
f 75/75/75 69/69/69 74/74/74
f 71/71/71 70/70/70 76/76/76
f 70/70/70 75/75/75 76/76/76
f 77/77/77 71/71/71 76/76/76
f 77/77/77 76/76/76 78/78/78
f 73/73/73 79/79/79 72/72/72
f 72/72/72 79/79/79 74/74/74
f 73/73/73 78/78/78 79/79/79
f 75/75/75 74/74/74 80/80/80
f 75/75/75 80/80/80 76/76/76
f 74/74/74 79/79/79 80/80/80
f 78/78/78 80/80/80 79/79/79
f 76/76/76 80/80/80 78/78/78
