g DiZhu_Pai07
v -0.410353243 -0.866402507 0.618592024
v -0.413284838 -0.862398684 0.622465432
v -0.419790685 -0.867956877 0.624907374
v -0.405481696 -0.862680256 0.620934963
v -0.416558981 -0.87170434 0.620921314
v -0.419771135 -0.873972178 0.626114011
v -0.402910233 -0.866671145 0.617132187
v -0.261189163 -0.867887735 0.592633784
v -0.410332799 -0.872679472 0.619851172
v -0.416540265 -0.877441943 0.62207222
v -0.416195035 -0.983542085 0.64335537
v -0.419409245 -0.985204816 0.648426831
v -0.409955055 -0.988753617 0.643135071
v -0.416176379 -0.989279687 0.644506335
v -0.419389635 -0.991219997 0.649633408
v -0.412846029 -0.997249186 0.649515808
v -0.40993464 -0.995030701 0.644394219
v -0.405042917 -0.997530818 0.647985339
v -0.402889788 -0.87294811 0.618391275
v -0.402512044 -0.989022195 0.641675234
v -0.402491629 -0.99529928 0.642934382
v -0.265275687 -0.871638298 0.590136886
v -0.264857084 -1.00026655 0.615939081
v -0.260750324 -1.00273836 0.61968416
v -0.265255213 -0.877915382 0.591396034
v -0.257832676 -0.871906936 0.588676989
v -0.25338608 -0.868169367 0.591103315
v -0.246842459 -0.874198616 0.590985715
v -0.264877498 -0.993989468 0.614679933
v -0.257414073 -1.00053513 0.614479244
v -0.252947301 -1.00301993 0.618153691
v -0.246441305 -0.997461677 0.615711749
v -0.251590937 -0.87765801 0.588564873
v -0.246822879 -0.880213737 0.592192352
v -0.257812262 -0.878183961 0.589936137
v -0.257434487 -0.994258106 0.613220096
v -0.251208395 -0.995233357 0.612149954
v -0.246460915 -0.991446435 0.614505112
v -0.251572281 -0.883395612 0.589715838
v -0.251227021 -0.989495695 0.610998988
v -0.256297439 -0.870387852 0.596224904
v -0.25338608 -0.868169367 0.591103315
v -0.246842459 -0.874198616 0.590985715
v -0.261189163 -0.867887735 0.592633784
v -0.250055701 -0.876138926 0.596112788
v -0.246822879 -0.880213737 0.592192352
v -0.26374045 -0.870119214 0.597684741
v -0.405481696 -0.862680256 0.620934963
v -0.256277025 -0.876664937 0.597484052
v -0.250037044 -0.881876588 0.597263694
v -0.249691784 -0.987976611 0.618546903
v -0.246460915 -0.991446435 0.614505112
v -0.255899251 -0.992739022 0.620767951
v -0.249673158 -0.993714273 0.619697809
v -0.246441305 -0.997461677 0.615711749
v -0.255878866 -0.999016106 0.622027099
v -0.252947301 -1.00301993 0.618153691
v -0.260750324 -1.00273836 0.61968416
v -0.263720006 -0.876396298 0.598943889
v -0.263342261 -0.992470384 0.622227788
v -0.263321847 -0.998747468 0.623486936
v -0.401374996 -0.865152061 0.624680042
v -0.400956362 -0.993780255 0.650482237
v -0.405042917 -0.997530818 0.647985339
v -0.401354522 -0.871429145 0.62593919
v -0.408817977 -0.864883423 0.626139879
v -0.413284838 -0.862398684 0.622465432
v -0.419790685 -0.867956877 0.624907374
v -0.400976777 -0.987503171 0.649223089
v -0.408399373 -0.993511617 0.651942134
v -0.412846029 -0.997249186 0.649515808
v -0.415023714 -0.870185196 0.628469169
v -0.419771135 -0.873972178 0.626114011
v -0.408797562 -0.871160507 0.627399027
v -0.408419818 -0.987234533 0.650682986
v -0.414641112 -0.987760603 0.65205425
v -0.419389635 -0.991219997 0.649633408
v -0.419409245 -0.985204816 0.648426831
v -0.415004998 -0.875922859 0.629620135
v -0.414659798 -0.982023001 0.650903285
vt 0.0215483867 0.97464335
vt 0.0116298115 0.983688831
vt 0.0175696723 0.990104437
vt 0.00892664026 0.97552371
vt 0.0246372037 0.977273822
vt 0.0238286741 0.992519021
vt 0.0211796388 0.97105813
vt 0.00945853349 0.883443773
vt 0.0243537165 0.974552155
vt 0.0272625871 0.977492452
vt 0.0858898684 0.977450132
vt 0.0891530737 0.992469549
vt 0.0888313651 0.974504232
vt 0.0885166302 0.977228403
vt 0.0954443142 0.990040302
vt 0.101455428 0.983609915
vt 0.0916347951 0.974590421
vt 0.104248933 0.975443244
vt 0.0243343972 0.970991373
vt 0.0888911933 0.970941782
vt 0.0920456275 0.97100246
vt 0.0216618329 0.887884557
vt 0.0925277993 0.887828231
vt 0.104780771 0.88336271
vt 0.0248162188 0.887945175
vt 0.0220726877 0.884297073
vt 0.0122520356 0.875277519
vt 0.0182631537 0.86884737
vt 0.089373067 0.887894869
vt 0.0921590254 0.884242654
vt 0.10207767 0.875197113
vt 0.096137844 0.868781269
vt 0.025190901 0.88165921
vt 0.0245542638 0.866418064
vt 0.0248760916 0.884383202
vt 0.0893537924 0.884333909
vt 0.0890703052 0.881611824
vt 0.0898786411 0.866366565
vt 0.0278176405 0.88143754
vt 0.0864449739 0.881393313
vt 0.0186255015 0.777992368
vt 0.0133213466 0.768832803
vt 0.0095765423 0.774385393
vt 0.0181026272 0.766256213
vt 0.0170786157 0.780883729
vt 0.00816086866 0.780210674
vt 0.020719409 0.777624607
vt 0.0719838887 0.766277552
vt 0.0186712109 0.780604303
vt 0.0169467628 0.783327878
vt 0.016870033 0.837903142
vt 0.00807294808 0.840988219
vt 0.0185875557 0.840619922
vt 0.0169965886 0.840352118
vt 0.00947487541 0.846826792
vt 0.0185359605 0.843232393
vt 0.0132308668 0.852406502
vt 0.0180117302 0.854972959
vt 0.0207515657 0.780565202
vt 0.0206695125 0.840654194
vt 0.0206315145 0.843592942
vt 0.0693640485 0.777657568
vt 0.0692759082 0.843625844
vt 0.0718927905 0.854994059
vt 0.0693260059 0.780596256
vt 0.0714598075 0.778018117
vt 0.0767648295 0.768843949
vt 0.0805208907 0.774423778
vt 0.0692437068 0.840685248
vt 0.0713696256 0.843257904
vt 0.0766738281 0.85241729
vt 0.072999157 0.780898333
vt 0.081922695 0.780262291
vt 0.07140816 0.78063035
vt 0.0713238418 0.840645909
vt 0.0729163885 0.840366364
vt 0.0804184303 0.8468647
vt 0.0818339884 0.841039538
vt 0.0731256604 0.783347309
vt 0.0730481148 0.837922275
vn -0.306406587 0.240001574 -0.921148241
vn -0.465234876 0.881311297 -0.0827465579
vn -0.83525914 0.546585023 0.059891317
vn -0.00319162407 0.980461836 -0.196683481
vn -0.544511378 0.0237193499 -0.838418007
vn -0.980687976 0.035392914 0.192349762
vn -0.176306814 0.265738338 -0.947786391
vn -0.0031909598 0.980462193 -0.196682081
vn -0.195552737 -0.193491906 -0.961415648
vn -0.507111907 -0.171099216 -0.844726324
vn -0.507113695 -0.171099052 -0.844725192
vn -0.980688572 0.0353920348 0.19234699
vn -0.195552751 -0.193492174 -0.961415648
vn -0.543301225 -0.348644316 -0.763721645
vn -0.831896305 -0.486420482 0.267102152
vn -0.459606588 -0.847937882 0.264127076
vn -0.303733677 -0.578604281 -0.756943047
vn 0.00318931811 -0.980463564 0.196675062
vn -0.1955529 -0.193491995 -0.961415648
vn -0.195552945 -0.193492055 -0.961415648
vn -0.173451394 -0.611808002 -0.771754801
vn -0.17630662 0.265737414 -0.947786689
vn -0.173451468 -0.611807764 -0.771755099
vn 0.00319006643 -0.980462968 0.196677476
vn -0.195552513 -0.193491951 -0.961415708
vn -0.0478947684 0.230671078 -0.971852243
vn 0.459608942 0.847933173 -0.264138162
vn 0.83190006 0.48641628 -0.267098278
vn -0.195552573 -0.193492025 -0.961415648
vn -0.0452298 -0.587932527 -0.807644546
vn 0.465233445 -0.881311893 0.0827467218
vn 0.835259318 -0.546585798 -0.0598815754
vn 0.188196003 -0.00272335601 -0.982127666
vn 0.980687737 -0.0353927501 -0.192350835
vn -0.19554767 -0.193491921 -0.961416602
vn -0.195548281 -0.193491966 -0.961416483
vn 0.189401209 -0.37509051 -0.907432795
vn 0.980687857 -0.0353921652 -0.192350611
vn 0.137757659 -0.194371119 -0.971206844
vn 0.137756541 -0.194370985 -0.971206963
vn 0.303746641 0.578603625 0.756938457
vn 0.459608942 0.847933173 -0.264138162
vn 0.83190006 0.48641628 -0.267098278
vn -0.0031909598 0.980462193 -0.196682081
vn 0.543297231 0.348640591 0.763726413
vn 0.980687737 -0.0353927501 -0.192350835
vn 0.173450917 0.611804783 0.771757543
vn -0.00319162407 0.980461836 -0.196683481
vn 0.195550293 0.193491712 0.961416185
vn 0.507113516 0.171098262 0.844725549
vn 0.507112503 0.171098456 0.844726145
vn 0.980687857 -0.0353921652 -0.192350611
vn 0.195550591 0.193491817 0.961416066
vn 0.544511974 -0.0237211678 0.83841753
vn 0.835259318 -0.546585798 -0.0598815754
vn 0.306406111 -0.239998937 0.921149194
vn 0.465233445 -0.881311893 0.0827467218
vn 0.00319006643 -0.980462968 0.196677476
vn 0.195552945 0.193491697 0.961415648
vn 0.195552915 0.193491802 0.961415648
vn 0.176305339 -0.265729576 0.947789192
vn 0.173450425 0.611805379 0.771757185
vn 0.176305279 -0.265731066 0.947788715
vn 0.00318931811 -0.980463564 0.196675062
vn 0.195553198 0.193491742 0.961415648
vn 0.0452316627 0.587934017 0.807643294
vn -0.465234876 0.881311297 -0.0827465579
vn -0.83525914 0.546585023 0.059891317
vn 0.195553198 0.193491772 0.961415648
vn 0.047894381 -0.230669886 0.971852601
vn -0.459606588 -0.847937882 0.264127076
vn -0.189409778 0.37508598 0.907432854
vn -0.980687976 0.035392914 0.192349762
vn 0.195548981 0.193491966 0.961416364
vn 0.195549503 0.193492174 0.961416304
vn -0.188188046 0.00272099185 0.982129276
vn -0.831896305 -0.486420482 0.267102152
vn -0.980688572 0.0353920348 0.19234699
vn -0.137755767 0.194371819 0.971206844
vn -0.137757808 0.19437179 0.971206784
g DiZhu_Pai07_0
f 3/3/3 2/2/2 1/1/1
f 2/2/2 4/4/4 1/1/1
f 5/5/5 3/3/3 1/1/1
f 3/3/3 5/5/5 6/6/6
f 4/4/4 7/7/7 1/1/1
f 4/4/4 8/8/8 7/7/7
f 1/1/1 9/9/9 5/5/5
f 1/1/1 7/7/7 9/9/9
f 5/5/5 10/10/10 6/6/6
f 9/9/9 10/10/10 5/5/5
f 6/6/6 10/10/10 11/11/11
f 12/12/12 6/6/6 11/11/11
f 9/9/9 13/13/13 10/10/10
f 13/13/13 11/11/11 10/10/10
f 12/12/12 11/11/11 14/14/14
f 14/14/14 11/11/11 13/13/13
f 15/15/15 12/12/12 14/14/14
f 16/16/16 15/15/15 14/14/14
f 17/17/17 16/16/16 14/14/14
f 17/17/17 14/14/14 13/13/13
f 16/16/16 17/17/17 18/18/18
f 7/7/7 19/19/19 9/9/9
f 9/9/9 19/19/19 13/13/13
f 13/13/13 20/20/20 17/17/17
f 19/19/19 20/20/20 13/13/13
f 17/17/17 21/21/21 18/18/18
f 20/20/20 21/21/21 17/17/17
f 19/19/19 7/7/7 22/22/22
f 8/8/8 22/22/22 7/7/7
f 18/18/18 21/21/21 23/23/23
f 24/24/24 18/18/18 23/23/23
f 19/19/19 25/25/25 20/20/20
f 25/25/25 19/19/19 22/22/22
f 26/26/26 22/22/22 8/8/8
f 25/25/25 22/22/22 26/26/26
f 27/27/27 26/26/26 8/8/8
f 27/27/27 28/28/28 26/26/26
f 20/20/20 29/29/29 21/21/21
f 25/25/25 29/29/29 20/20/20
f 29/29/29 23/23/23 21/21/21
f 24/24/24 23/23/23 30/30/30
f 31/31/31 24/24/24 30/30/30
f 32/32/32 31/31/31 30/30/30
f 28/28/28 33/33/33 26/26/26
f 28/28/28 34/34/34 33/33/33
f 35/35/35 25/25/25 26/26/26
f 29/29/29 25/25/25 35/35/35
f 26/26/26 33/33/33 35/35/35
f 23/23/23 29/29/29 36/36/36
f 30/30/30 23/23/23 36/36/36
f 36/36/36 29/29/29 35/35/35
f 37/37/37 32/32/32 30/30/30
f 30/30/30 36/36/36 37/37/37
f 32/32/32 37/37/37 38/38/38
f 34/34/34 39/39/39 33/33/33
f 33/33/33 39/39/39 35/35/35
f 34/34/34 38/38/38 39/39/39
f 36/36/36 35/35/35 40/40/40
f 36/36/36 40/40/40 37/37/37
f 35/35/35 39/39/39 40/40/40
f 38/38/38 40/40/40 39/39/39
f 37/37/37 40/40/40 38/38/38
f 43/43/43 42/42/42 41/41/41
f 42/42/42 44/44/44 41/41/41
f 45/45/45 43/43/43 41/41/41
f 43/43/43 45/45/45 46/46/46
f 44/44/44 47/47/47 41/41/41
f 44/44/44 48/48/48 47/47/47
f 41/41/41 49/49/49 45/45/45
f 41/41/41 47/47/47 49/49/49
f 45/45/45 50/50/50 46/46/46
f 49/49/49 50/50/50 45/45/45
f 46/46/46 50/50/50 51/51/51
f 52/52/52 46/46/46 51/51/51
f 50/50/50 49/49/49 53/53/53
f 51/51/51 50/50/50 53/53/53
f 52/52/52 51/51/51 54/54/54
f 54/54/54 51/51/51 53/53/53
f 55/55/55 52/52/52 54/54/54
f 55/55/55 54/54/54 56/56/56
f 56/56/56 54/54/54 53/53/53
f 57/57/57 55/55/55 56/56/56
f 57/57/57 56/56/56 58/58/58
f 47/47/47 59/59/59 49/49/49
f 49/49/49 59/59/59 53/53/53
f 53/53/53 60/60/60 56/56/56
f 59/59/59 60/60/60 53/53/53
f 56/56/56 61/61/61 58/58/58
f 60/60/60 61/61/61 56/56/56
f 59/59/59 47/47/47 62/62/62
f 48/48/48 62/62/62 47/47/47
f 58/58/58 61/61/61 63/63/63
f 64/64/64 58/58/58 63/63/63
f 59/59/59 65/65/65 60/60/60
f 65/65/65 59/59/59 62/62/62
f 66/66/66 62/62/62 48/48/48
f 65/65/65 62/62/62 66/66/66
f 67/67/67 66/66/66 48/48/48
f 67/67/67 68/68/68 66/66/66
f 60/60/60 69/69/69 61/61/61
f 65/65/65 69/69/69 60/60/60
f 69/69/69 63/63/63 61/61/61
f 64/64/64 63/63/63 70/70/70
f 71/71/71 64/64/64 70/70/70
f 68/68/68 72/72/72 66/66/66
f 68/68/68 73/73/73 72/72/72
f 74/74/74 65/65/65 66/66/66
f 69/69/69 65/65/65 74/74/74
f 66/66/66 72/72/72 74/74/74
f 63/63/63 69/69/69 75/75/75
f 70/70/70 63/63/63 75/75/75
f 75/75/75 69/69/69 74/74/74
f 71/71/71 70/70/70 76/76/76
f 70/70/70 75/75/75 76/76/76
f 77/77/77 71/71/71 76/76/76
f 77/77/77 76/76/76 78/78/78
f 73/73/73 79/79/79 72/72/72
f 72/72/72 79/79/79 74/74/74
f 73/73/73 78/78/78 79/79/79
f 75/75/75 74/74/74 80/80/80
f 75/75/75 80/80/80 76/76/76
f 74/74/74 79/79/79 80/80/80
f 78/78/78 80/80/80 79/79/79
f 76/76/76 80/80/80 78/78/78
