g DiZhu_Pai06
v -0.429908663 -0.850311041 0.616443396
v -0.43300736 -0.84620297 0.620069742
v -0.439561903 -0.851727366 0.622457922
v -0.425151438 -0.846474409 0.618836224
v -0.436160833 -0.855580509 0.618721426
v -0.439547062 -0.85769856 0.623866618
v -0.422415316 -0.850569963 0.6152668
v -0.279882848 -0.851493895 0.596026003
v -0.429893136 -0.85654211 0.617913306
v -0.436146587 -0.86127615 0.620064974
v -0.435884416 -0.966599107 0.64491111
v -0.439272225 -0.968116462 0.649914622
v -0.429606229 -0.971766055 0.64509511
v -0.43587023 -0.972294688 0.646254778
v -0.439257294 -0.974087596 0.651323199
v -0.43267408 -0.980065823 0.651648521
v -0.429590762 -0.977997124 0.64656508
v -0.424818188 -0.980337262 0.650415003
v -0.422399789 -0.856801033 0.61673671
v -0.422112882 -0.972024977 0.643918455
v -0.422097385 -0.978256047 0.645388424
v -0.283849716 -0.855357826 0.593509078
v -0.283531815 -0.983043849 0.623630762
v -0.279549539 -0.985356748 0.627604842
v -0.283834189 -0.861588895 0.594978988
v -0.276356399 -0.855616748 0.592332482
v -0.272026986 -0.851765335 0.594792485
v -0.265443742 -0.857743561 0.595117807
v -0.283547312 -0.97681272 0.622160792
v -0.276038438 -0.983302772 0.622454107
v -0.271693707 -0.985628128 0.626371264
v -0.265139073 -0.980103791 0.623983085
v -0.270076871 -0.861319184 0.592642784
v -0.265428871 -0.863714755 0.596526384
v -0.276340872 -0.861847758 0.593802392
v -0.276053965 -0.977071643 0.620984197
v -0.269786328 -0.978033364 0.620176136
v -0.265153974 -0.974132657 0.622574449
v -0.270062685 -0.867014766 0.593986392
v -0.269800484 -0.972337723 0.618832469
v -0.275110304 -0.853834033 0.599875987
v -0.272026986 -0.851765335 0.594792485
v -0.265443742 -0.857743561 0.595117807
v -0.279882848 -0.851493895 0.596026003
v -0.268830806 -0.859536469 0.600186229
v -0.265428871 -0.863714755 0.596526384
v -0.282603651 -0.85357511 0.601052642
v -0.425151438 -0.846474409 0.618836224
v -0.275094777 -0.860065162 0.601345897
v -0.26881662 -0.86523217 0.601529896
v -0.268554419 -0.970555007 0.626376033
v -0.265153974 -0.974132657 0.622574449
v -0.2748079 -0.975289047 0.628527701
v -0.268540263 -0.976250648 0.627719641
v -0.265139073 -0.980103791 0.623983085
v -0.274792403 -0.981520116 0.629997671
v -0.271693707 -0.985628128 0.626371264
v -0.279549539 -0.985356748 0.627604842
v -0.282588124 -0.85980618 0.602522552
v -0.282301217 -0.975030124 0.629704297
v -0.28228572 -0.981261194 0.631174266
v -0.421169221 -0.848787367 0.622810245
v -0.42085132 -0.976473391 0.652931988
v -0.424818188 -0.980337262 0.650415003
v -0.421153665 -0.855018377 0.624280214
v -0.428662598 -0.848528445 0.6239869
v -0.43300736 -0.84620297 0.620069742
v -0.439561903 -0.851727366 0.622457922
v -0.420866817 -0.970242262 0.651462018
v -0.428344667 -0.976214528 0.654108584
v -0.43267408 -0.980065823 0.651648521
v -0.434914768 -0.853797913 0.62626493
v -0.439547062 -0.85769856 0.623866618
v -0.428647071 -0.854759514 0.62545681
v -0.428360164 -0.969983339 0.652638614
v -0.434624165 -0.970512092 0.653798282
v -0.439257294 -0.974087596 0.651323199
v -0.439272225 -0.968116462 0.649914622
v -0.434900492 -0.859493494 0.627608538
v -0.434638351 -0.964816391 0.652454674
vt 0.0215483867 0.97464335
vt 0.0116298115 0.983688831
vt 0.0175696723 0.990104437
vt 0.00892664026 0.97552371
vt 0.0246372037 0.977273822
vt 0.0238286741 0.992519021
vt 0.0211796388 0.97105813
vt 0.00945853349 0.883443773
vt 0.0243537165 0.974552155
vt 0.0272625871 0.977492452
vt 0.0858898684 0.977450132
vt 0.0891530737 0.992469549
vt 0.0888313651 0.974504232
vt 0.0885166302 0.977228403
vt 0.0954443142 0.990040302
vt 0.101455428 0.983609915
vt 0.0916347951 0.974590421
vt 0.104248933 0.975443244
vt 0.0243343972 0.970991373
vt 0.0888911933 0.970941782
vt 0.0920456275 0.97100246
vt 0.0216618329 0.887884557
vt 0.0925277993 0.887828231
vt 0.104780771 0.88336271
vt 0.0248162188 0.887945175
vt 0.0220726877 0.884297073
vt 0.0122520356 0.875277519
vt 0.0182631537 0.86884737
vt 0.089373067 0.887894869
vt 0.0921590254 0.884242654
vt 0.10207767 0.875197113
vt 0.096137844 0.868781269
vt 0.025190901 0.88165921
vt 0.0245542638 0.866418064
vt 0.0248760916 0.884383202
vt 0.0893537924 0.884333909
vt 0.0890703052 0.881611824
vt 0.0898786411 0.866366565
vt 0.0278176405 0.88143754
vt 0.0864449739 0.881393313
vt 0.0186255015 0.777992368
vt 0.0133213466 0.768832803
vt 0.0095765423 0.774385393
vt 0.0181026272 0.766256213
vt 0.0170786157 0.780883729
vt 0.00816086866 0.780210674
vt 0.020719409 0.777624607
vt 0.0719838887 0.766277552
vt 0.0186712109 0.780604303
vt 0.0169467628 0.783327878
vt 0.016870033 0.837903142
vt 0.00807294808 0.840988219
vt 0.0185875557 0.840619922
vt 0.0169965886 0.840352118
vt 0.00947487541 0.846826792
vt 0.0185359605 0.843232393
vt 0.0132308668 0.852406502
vt 0.0180117302 0.854972959
vt 0.0207515657 0.780565202
vt 0.0206695125 0.840654194
vt 0.0206315145 0.843592942
vt 0.0693640485 0.777657568
vt 0.0692759082 0.843625844
vt 0.0718927905 0.854994059
vt 0.0693260059 0.780596256
vt 0.0714598075 0.778018117
vt 0.0767648295 0.768843949
vt 0.0805208907 0.774423778
vt 0.0692437068 0.840685248
vt 0.0713696256 0.843257904
vt 0.0766738281 0.85241729
vt 0.072999157 0.780898333
vt 0.081922695 0.780262291
vt 0.07140816 0.78063035
vt 0.0713238418 0.840645909
vt 0.0729163885 0.840366364
vt 0.0804184303 0.8468647
vt 0.0818339884 0.841039538
vt 0.0731256604 0.783347309
vt 0.0730481148 0.837922275
vn -0.273844779 0.206647545 -0.939311445
vn -0.467683285 0.874376833 -0.129373237
vn -0.840491593 0.541716635 0.0108165434
vn -0.00242298236 0.973284423 -0.229589909
vn -0.513401031 -0.00860501267 -0.8581056
vn -0.987320542 0.0341138169 0.155030251
vn -0.143025294 0.232500091 -0.962022603
vn -0.00242296676 0.973283768 -0.229592726
vn -0.158715919 -0.227065548 -0.960859299
vn -0.474505246 -0.203226253 -0.856471717
vn -0.474506974 -0.203226253 -0.856470764
vn -0.9873209 0.0341131873 0.155028343
vn -0.158715814 -0.227066159 -0.96085906
vn -0.51247853 -0.378242642 -0.770907402
vn -0.8379426 -0.48371926 0.25272125
vn -0.463415891 -0.84220469 0.275566757
vn -0.271818668 -0.605957627 -0.747616172
vn 0.00242269458 -0.973281026 0.229604512
vn -0.158720285 -0.227064982 -0.960858703
vn -0.158720359 -0.22706534 -0.960858643
vn -0.140857041 -0.638624966 -0.756516695
vn -0.143025175 0.232499644 -0.962022722
vn -0.140856966 -0.638624966 -0.756516695
vn 0.00242373766 -0.973280668 0.229605854
vn -0.158720389 -0.227064982 -0.960858643
vn -0.0135871479 0.197653949 -0.980177701
vn 0.463406861 0.84220469 -0.275581956
vn 0.837937415 0.483723462 -0.25273031
vn -0.158720449 -0.227065325 -0.960858643
vn -0.0115652652 -0.614953279 -0.788478732
vn 0.467682511 -0.874376059 0.129381761
vn 0.840494633 -0.541711986 -0.010814772
vn 0.22425288 -0.034092322 -0.973934531
vn 0.987320662 -0.0341137871 -0.155029893
vn -0.158717081 -0.227065176 -0.960859179
vn -0.158716917 -0.227065086 -0.960859179
vn 0.225176945 -0.403730184 -0.886734068
vn 0.987320781 -0.0341139436 -0.155029207
vn 0.174726486 -0.225656748 -0.958409965
vn 0.17472668 -0.225656793 -0.958409905
vn 0.27182132 0.605961323 0.747612238
vn 0.463406861 0.84220469 -0.275581956
vn 0.837937415 0.483723462 -0.25273031
vn -0.00242296676 0.973283768 -0.229592726
vn 0.512484848 0.378241003 0.770904064
vn 0.987320662 -0.0341137871 -0.155029893
vn 0.140856326 0.638619661 0.756521225
vn -0.00242298236 0.973284423 -0.229589909
vn 0.158723429 0.227065653 0.960857928
vn 0.474510312 0.203225449 0.856469214
vn 0.474509269 0.203225464 0.85646975
vn 0.987320781 -0.0341139436 -0.155029207
vn 0.158722818 0.227065474 0.960858047
vn 0.513399363 0.0086036725 0.858106732
vn 0.840494633 -0.541711986 -0.010814772
vn 0.273846298 -0.206648067 0.939310789
vn 0.467682511 -0.874376059 0.129381761
vn 0.00242373766 -0.973280668 0.229605854
vn 0.15872103 0.227065817 0.960858405
vn 0.158720836 0.227065533 0.960858524
vn 0.143025056 -0.232497841 0.962023139
vn 0.140856281 0.638619661 0.756521225
vn 0.143024862 -0.232498109 0.962023139
vn 0.00242269458 -0.973281026 0.229604512
vn 0.158720493 0.227065772 0.960858524
vn 0.0115626957 0.614955664 0.788476884
vn -0.467683285 0.874376833 -0.129373237
vn -0.840491593 0.541716635 0.0108165434
vn 0.15872027 0.227065504 0.960858524
vn 0.0135864262 -0.197659358 0.980176568
vn -0.463415891 -0.84220469 0.275566757
vn -0.225181252 0.403729737 0.886733234
vn -0.987320542 0.0341138169 0.155030251
vn 0.158715963 0.227065951 0.960859179
vn 0.158716425 0.227065325 0.960859179
vn -0.224258035 0.0340896957 0.973933399
vn -0.8379426 -0.48371926 0.25272125
vn -0.9873209 0.0341131873 0.155028343
vn -0.174715787 0.225657403 0.958411872
vn -0.174717978 0.225657225 0.958411396
g DiZhu_Pai06_0
f 3/3/3 2/2/2 1/1/1
f 2/2/2 4/4/4 1/1/1
f 5/5/5 3/3/3 1/1/1
f 3/3/3 5/5/5 6/6/6
f 4/4/4 7/7/7 1/1/1
f 4/4/4 8/8/8 7/7/7
f 1/1/1 9/9/9 5/5/5
f 1/1/1 7/7/7 9/9/9
f 5/5/5 10/10/10 6/6/6
f 9/9/9 10/10/10 5/5/5
f 6/6/6 10/10/10 11/11/11
f 12/12/12 6/6/6 11/11/11
f 9/9/9 13/13/13 10/10/10
f 13/13/13 11/11/11 10/10/10
f 12/12/12 11/11/11 14/14/14
f 14/14/14 11/11/11 13/13/13
f 15/15/15 12/12/12 14/14/14
f 16/16/16 15/15/15 14/14/14
f 17/17/17 16/16/16 14/14/14
f 17/17/17 14/14/14 13/13/13
f 16/16/16 17/17/17 18/18/18
f 7/7/7 19/19/19 9/9/9
f 9/9/9 19/19/19 13/13/13
f 13/13/13 20/20/20 17/17/17
f 19/19/19 20/20/20 13/13/13
f 17/17/17 21/21/21 18/18/18
f 20/20/20 21/21/21 17/17/17
f 19/19/19 7/7/7 22/22/22
f 8/8/8 22/22/22 7/7/7
f 18/18/18 21/21/21 23/23/23
f 24/24/24 18/18/18 23/23/23
f 19/19/19 25/25/25 20/20/20
f 25/25/25 19/19/19 22/22/22
f 26/26/26 22/22/22 8/8/8
f 25/25/25 22/22/22 26/26/26
f 27/27/27 26/26/26 8/8/8
f 27/27/27 28/28/28 26/26/26
f 20/20/20 29/29/29 21/21/21
f 25/25/25 29/29/29 20/20/20
f 29/29/29 23/23/23 21/21/21
f 24/24/24 23/23/23 30/30/30
f 31/31/31 24/24/24 30/30/30
f 32/32/32 31/31/31 30/30/30
f 28/28/28 33/33/33 26/26/26
f 28/28/28 34/34/34 33/33/33
f 35/35/35 25/25/25 26/26/26
f 29/29/29 25/25/25 35/35/35
f 26/26/26 33/33/33 35/35/35
f 23/23/23 29/29/29 36/36/36
f 30/30/30 23/23/23 36/36/36
f 36/36/36 29/29/29 35/35/35
f 37/37/37 32/32/32 30/30/30
f 30/30/30 36/36/36 37/37/37
f 32/32/32 37/37/37 38/38/38
f 34/34/34 39/39/39 33/33/33
f 33/33/33 39/39/39 35/35/35
f 34/34/34 38/38/38 39/39/39
f 36/36/36 35/35/35 40/40/40
f 36/36/36 40/40/40 37/37/37
f 35/35/35 39/39/39 40/40/40
f 38/38/38 40/40/40 39/39/39
f 37/37/37 40/40/40 38/38/38
f 43/43/43 42/42/42 41/41/41
f 42/42/42 44/44/44 41/41/41
f 45/45/45 43/43/43 41/41/41
f 43/43/43 45/45/45 46/46/46
f 44/44/44 47/47/47 41/41/41
f 44/44/44 48/48/48 47/47/47
f 41/41/41 49/49/49 45/45/45
f 41/41/41 47/47/47 49/49/49
f 45/45/45 50/50/50 46/46/46
f 49/49/49 50/50/50 45/45/45
f 46/46/46 50/50/50 51/51/51
f 52/52/52 46/46/46 51/51/51
f 50/50/50 49/49/49 53/53/53
f 51/51/51 50/50/50 53/53/53
f 52/52/52 51/51/51 54/54/54
f 54/54/54 51/51/51 53/53/53
f 55/55/55 52/52/52 54/54/54
f 55/55/55 54/54/54 56/56/56
f 56/56/56 54/54/54 53/53/53
f 57/57/57 55/55/55 56/56/56
f 57/57/57 56/56/56 58/58/58
f 47/47/47 59/59/59 49/49/49
f 49/49/49 59/59/59 53/53/53
f 53/53/53 60/60/60 56/56/56
f 59/59/59 60/60/60 53/53/53
f 56/56/56 61/61/61 58/58/58
f 60/60/60 61/61/61 56/56/56
f 59/59/59 47/47/47 62/62/62
f 48/48/48 62/62/62 47/47/47
f 58/58/58 61/61/61 63/63/63
f 64/64/64 58/58/58 63/63/63
f 59/59/59 65/65/65 60/60/60
f 65/65/65 59/59/59 62/62/62
f 66/66/66 62/62/62 48/48/48
f 65/65/65 62/62/62 66/66/66
f 67/67/67 66/66/66 48/48/48
f 67/67/67 68/68/68 66/66/66
f 60/60/60 69/69/69 61/61/61
f 65/65/65 69/69/69 60/60/60
f 69/69/69 63/63/63 61/61/61
f 64/64/64 63/63/63 70/70/70
f 71/71/71 64/64/64 70/70/70
f 68/68/68 72/72/72 66/66/66
f 68/68/68 73/73/73 72/72/72
f 74/74/74 65/65/65 66/66/66
f 69/69/69 65/65/65 74/74/74
f 66/66/66 72/72/72 74/74/74
f 63/63/63 69/69/69 75/75/75
f 70/70/70 63/63/63 75/75/75
f 75/75/75 69/69/69 74/74/74
f 71/71/71 70/70/70 76/76/76
f 70/70/70 75/75/75 76/76/76
f 77/77/77 71/71/71 76/76/76
f 77/77/77 76/76/76 78/78/78
f 73/73/73 79/79/79 72/72/72
f 72/72/72 79/79/79 74/74/74
f 73/73/73 78/78/78 79/79/79
f 75/75/75 74/74/74 80/80/80
f 75/75/75 80/80/80 76/76/76
f 74/74/74 79/79/79 80/80/80
f 78/78/78 80/80/80 79/79/79
f 76/76/76 80/80/80 78/78/78
