g DiZhu_Pai00
v -0.504878044 -1.01258099 0.653296411
v -0.50859201 -1.01052821 0.657946229
v -0.515359282 -1.01607907 0.656341553
v -0.500636816 -1.0106858 0.657932878
v -0.511333168 -1.01787579 0.651765704
v -0.515479088 -1.02197909 0.65466392
v -0.497289985 -1.01273143 0.653283656
v -0.353531778 -1.01360214 0.657685995
v -0.505003035 -1.01873779 0.651545763
v -0.51144731 -1.02350354 0.650165558
v -0.513560176 -1.12757218 0.620574892
v -0.517694175 -1.13108194 0.623641789
v -0.507314384 -1.13258934 0.619173408
v -0.513674438 -1.13319993 0.618974686
v -0.517813921 -1.13698196 0.621964157
v -0.511277378 -1.14279664 0.620337188
v -0.507439435 -1.13874626 0.61742276
v -0.503322124 -1.14295435 0.620323837
v -0.497414917 -1.01888835 0.651533008
v -0.499726325 -1.1327399 0.619160652
v -0.499851316 -1.1388967 0.617410064
v -0.356972724 -1.01551318 0.653048158
v -0.359534115 -1.14167845 0.617174566
v -0.356217116 -1.14587069 0.620076954
v -0.357097685 -1.0216701 0.65129751
v -0.349384636 -1.01566362 0.653035402
v -0.345576674 -1.01375985 0.657672644
v -0.339040071 -1.01957452 0.656045616
v -0.359409094 -1.13552165 0.618925214
v -0.351946026 -1.14182889 0.61716181
v -0.348261982 -1.1460284 0.620063603
v -0.34149459 -1.14047742 0.621668279
v -0.343149632 -1.02120996 0.651483536
v -0.339159846 -1.02547455 0.654368043
v -0.349509656 -1.02182043 0.651284754
v -0.351821005 -1.13567209 0.618912458
v -0.345490992 -1.13653409 0.618692458
v -0.341374844 -1.13457739 0.623345912
v -0.343263894 -1.02683771 0.64988333
v -0.3453767 -1.13090622 0.620292664
v -0.349414557 -1.01781023 0.660587072
v -0.345576674 -1.01375985 0.657672644
v -0.339040071 -1.01957452 0.656045616
v -0.353531778 -1.01360214 0.657685995
v -0.343179554 -1.02335656 0.659035087
v -0.339159846 -1.02547455 0.654368043
v -0.357002586 -1.01765978 0.660599709
v -0.500636816 -1.0106858 0.657932878
v -0.349539518 -1.02396703 0.658836424
v -0.343293786 -1.02898431 0.657434881
v -0.345406592 -1.13305283 0.627844214
v -0.341374844 -1.13457739 0.623345912
v -0.351850927 -1.13781869 0.626464009
v -0.345520884 -1.1386807 0.626244009
v -0.34149459 -1.14047742 0.621668279
v -0.351975918 -1.1439755 0.624713361
v -0.348261982 -1.1460284 0.620063603
v -0.356217116 -1.14587069 0.620076954
v -0.357127607 -1.0238167 0.65884918
v -0.359438956 -1.13766813 0.626476765
v -0.359563977 -1.14382505 0.624726117
v -0.497319847 -1.01487803 0.660835266
v -0.499881238 -1.14104331 0.624961615
v -0.503322124 -1.14295435 0.620323837
v -0.497444838 -1.02103496 0.659084618
v -0.504907966 -1.01472759 0.660848022
v -0.50859201 -1.01052821 0.657946229
v -0.515359282 -1.01607907 0.656341553
v -0.499756187 -1.1348865 0.626712263
v -0.507469296 -1.14089286 0.62497437
v -0.511277378 -1.14279664 0.620337188
v -0.511363029 -1.02002239 0.659317374
v -0.515479088 -1.02197909 0.65466392
v -0.505032897 -1.02088439 0.659097373
v -0.507344306 -1.13473594 0.626725018
v -0.5137043 -1.13534653 0.626526296
v -0.517813921 -1.13698196 0.621964157
v -0.517694175 -1.13108194 0.623641789
v -0.511477172 -1.02565014 0.657717168
v -0.513590097 -1.12971878 0.628126502
vt 0.0215483867 0.97464335
vt 0.0116298115 0.983688831
vt 0.0175696723 0.990104437
vt 0.00892664026 0.97552371
vt 0.0246372037 0.977273822
vt 0.0238286741 0.992519021
vt 0.0211796388 0.97105813
vt 0.00945853349 0.883443773
vt 0.0243537165 0.974552155
vt 0.0272625871 0.977492452
vt 0.0858898684 0.977450132
vt 0.0891530737 0.992469549
vt 0.0888313651 0.974504232
vt 0.0885166302 0.977228403
vt 0.0954443142 0.990040302
vt 0.101455428 0.983609915
vt 0.0916347951 0.974590421
vt 0.104248933 0.975443244
vt 0.0243343972 0.970991373
vt 0.0888911933 0.970941782
vt 0.0920456275 0.97100246
vt 0.0216618329 0.887884557
vt 0.0925277993 0.887828231
vt 0.104780771 0.88336271
vt 0.0248162188 0.887945175
vt 0.0220726877 0.884297073
vt 0.0122520356 0.875277519
vt 0.0182631537 0.86884737
vt 0.089373067 0.887894869
vt 0.0921590254 0.884242654
vt 0.10207767 0.875197113
vt 0.096137844 0.868781269
vt 0.025190901 0.88165921
vt 0.0245542638 0.866418064
vt 0.0248760916 0.884383202
vt 0.0893537924 0.884333909
vt 0.0890703052 0.881611824
vt 0.0898786411 0.866366565
vt 0.0278176405 0.88143754
vt 0.0864449739 0.881393313
vt 0.0186255015 0.777992368
vt 0.0133213466 0.768832803
vt 0.0095765423 0.774385393
vt 0.0181026272 0.766256213
vt 0.0170786157 0.780883729
vt 0.00816086866 0.780210674
vt 0.020719409 0.777624607
vt 0.0719838887 0.766277552
vt 0.0186712109 0.780604303
vt 0.0169467628 0.783327878
vt 0.016870033 0.837903142
vt 0.00807294808 0.840988219
vt 0.0185875557 0.840619922
vt 0.0169965886 0.840352118
vt 0.00947487541 0.846826792
vt 0.0185359605 0.843232393
vt 0.0132308668 0.852406502
vt 0.0180117302 0.854972959
vt 0.0207515657 0.780565202
vt 0.0206695125 0.840654194
vt 0.0206315145 0.843592942
vt 0.0693640485 0.777657568
vt 0.0692759082 0.843625844
vt 0.0718927905 0.854994059
vt 0.0693260059 0.780596256
vt 0.0714598075 0.778018117
vt 0.0767648295 0.768843949
vt 0.0805208907 0.774423778
vt 0.0692437068 0.840685248
vt 0.0713696256 0.843257904
vt 0.0766738281 0.85241729
vt 0.072999157 0.780898333
vt 0.081922695 0.780262291
vt 0.07140816 0.78063035
vt 0.0713238418 0.840645909
vt 0.0729163885 0.840366364
vt 0.0804184303 0.8468647
vt 0.0818339884 0.841039538
vt 0.0731256604 0.783347309
vt 0.0730481148 0.837922275
vn -0.120198719 0.649915278 -0.750441551
vn -0.454216868 0.857412696 0.241930649
vn -0.839540422 0.523459136 0.145472869
vn 0.0195238404 0.96169281 0.27343303
vn -0.366330713 0.438277692 -0.820801139
vn -0.999802172 0.0198211614 0.0016771995
vn 0.0121409865 0.674883366 -0.7378245
vn 0.0195244513 0.961693287 0.27343154
vn 0.00380457425 0.273424178 -0.961886048
vn -0.325120389 0.264739752 -0.907859981
vn -0.325122714 0.264739692 -0.907858968
vn -0.999802172 0.0198214408 0.00167719484
vn 0.0038041214 0.273424327 -0.961886048
vn -0.373737901 0.0730456933 -0.924653709
vn -0.860111296 -0.489761442 -0.142626435
vn -0.488653272 -0.838719904 -0.24034743
vn -0.136499181 -0.153020993 -0.978750467
vn -0.0195235871 -0.961689174 -0.273446143
vn 0.00380632933 0.27342388 -0.961886108
vn 0.00380631909 0.273423702 -0.961886108
vn -0.00533340639 -0.185850739 -0.982563436
vn 0.0121407751 0.67488265 -0.737825215
vn -0.00533313071 -0.185850069 -0.982563555
vn -0.0195240695 -0.961688876 -0.273447275
vn 0.00380652328 0.273423761 -0.961886108
vn 0.143344671 0.644685209 -0.750888288
vn 0.488647908 0.838721335 0.240353584
vn 0.860108137 0.489767432 0.142624691
vn 0.0038065596 0.273423612 -0.961886108
vn 0.127044871 -0.158247188 -0.979192138
vn 0.454216093 -0.857411683 -0.241936162
vn 0.839542449 -0.523455203 -0.14547573
vn 0.380659014 0.423472583 -0.822052062
vn 0.999802172 -0.0198218618 -0.00167605514
vn 0.00380748999 0.273423493 -0.961886227
vn 0.00380707602 0.273423553 -0.961886227
vn 0.373243779 0.0582373291 -0.925903618
vn 0.999802172 -0.0198225286 -0.00167410402
vn 0.33231619 0.251705706 -0.908961058
vn 0.332315415 0.251705796 -0.908961236
vn 0.136500359 0.153019652 0.978750587
vn 0.488647908 0.838721335 0.240353584
vn 0.860108137 0.489767432 0.142624691
vn 0.0195244513 0.961693287 0.27343154
vn 0.373748899 -0.0730455145 0.924649179
vn 0.999802172 -0.0198218618 -0.00167605514
vn 0.00533341337 0.185851261 0.982563317
vn 0.0195238404 0.96169281 0.27343303
vn -0.00380961364 -0.273424655 0.961885929
vn 0.325122982 -0.264740556 0.90785867
vn 0.325122148 -0.264740586 0.907858968
vn 0.999802172 -0.0198225286 -0.00167410402
vn -0.00380896521 -0.273424208 0.961886048
vn 0.366334289 -0.438281596 0.820797443
vn 0.839542449 -0.523455203 -0.14547573
vn 0.120205522 -0.649910748 0.750444353
vn 0.454216093 -0.857411683 -0.241936162
vn -0.0195240695 -0.961688876 -0.273447275
vn -0.00380641222 -0.273423672 0.961886108
vn -0.00380643271 -0.273424119 0.961886048
vn -0.0121414745 -0.674885273 0.737822831
vn 0.00533335935 0.185849562 0.982563674
vn -0.0121414484 -0.674886644 0.737821519
vn -0.0195235871 -0.961689174 -0.273446143
vn -0.00380571978 -0.273423642 0.961886108
vn -0.127051726 0.158243939 0.979191899
vn -0.454216868 0.857412696 0.241930649
vn -0.839540422 0.523459136 0.145472869
vn -0.00380575052 -0.273424089 0.961886048
vn -0.143346369 -0.644684792 0.750888467
vn -0.488653272 -0.838719904 -0.24034743
vn -0.373243541 -0.0582355745 0.925903797
vn -0.999802172 0.0198211614 0.0016771995
vn -0.00379770226 -0.273423642 0.961886227
vn -0.00379739585 -0.273423493 0.961886227
vn -0.380655169 -0.42347008 0.822055101
vn -0.860111296 -0.489761442 -0.142626435
vn -0.999802172 0.0198214408 0.00167719484
vn -0.332308739 -0.251706272 0.908963621
vn -0.332311243 -0.251705974 0.908962846
g DiZhu_Pai00_0
f 3/3/3 2/2/2 1/1/1
f 2/2/2 4/4/4 1/1/1
f 5/5/5 3/3/3 1/1/1
f 3/3/3 5/5/5 6/6/6
f 4/4/4 7/7/7 1/1/1
f 4/4/4 8/8/8 7/7/7
f 1/1/1 9/9/9 5/5/5
f 1/1/1 7/7/7 9/9/9
f 5/5/5 10/10/10 6/6/6
f 9/9/9 10/10/10 5/5/5
f 6/6/6 10/10/10 11/11/11
f 12/12/12 6/6/6 11/11/11
f 9/9/9 13/13/13 10/10/10
f 13/13/13 11/11/11 10/10/10
f 12/12/12 11/11/11 14/14/14
f 14/14/14 11/11/11 13/13/13
f 15/15/15 12/12/12 14/14/14
f 16/16/16 15/15/15 14/14/14
f 17/17/17 16/16/16 14/14/14
f 17/17/17 14/14/14 13/13/13
f 16/16/16 17/17/17 18/18/18
f 7/7/7 19/19/19 9/9/9
f 9/9/9 19/19/19 13/13/13
f 13/13/13 20/20/20 17/17/17
f 19/19/19 20/20/20 13/13/13
f 17/17/17 21/21/21 18/18/18
f 20/20/20 21/21/21 17/17/17
f 19/19/19 7/7/7 22/22/22
f 8/8/8 22/22/22 7/7/7
f 18/18/18 21/21/21 23/23/23
f 24/24/24 18/18/18 23/23/23
f 19/19/19 25/25/25 20/20/20
f 25/25/25 19/19/19 22/22/22
f 26/26/26 22/22/22 8/8/8
f 25/25/25 22/22/22 26/26/26
f 27/27/27 26/26/26 8/8/8
f 27/27/27 28/28/28 26/26/26
f 20/20/20 29/29/29 21/21/21
f 25/25/25 29/29/29 20/20/20
f 29/29/29 23/23/23 21/21/21
f 24/24/24 23/23/23 30/30/30
f 31/31/31 24/24/24 30/30/30
f 32/32/32 31/31/31 30/30/30
f 28/28/28 33/33/33 26/26/26
f 28/28/28 34/34/34 33/33/33
f 35/35/35 25/25/25 26/26/26
f 29/29/29 25/25/25 35/35/35
f 26/26/26 33/33/33 35/35/35
f 23/23/23 29/29/29 36/36/36
f 30/30/30 23/23/23 36/36/36
f 36/36/36 29/29/29 35/35/35
f 37/37/37 32/32/32 30/30/30
f 30/30/30 36/36/36 37/37/37
f 32/32/32 37/37/37 38/38/38
f 34/34/34 39/39/39 33/33/33
f 33/33/33 39/39/39 35/35/35
f 34/34/34 38/38/38 39/39/39
f 36/36/36 35/35/35 40/40/40
f 36/36/36 40/40/40 37/37/37
f 35/35/35 39/39/39 40/40/40
f 38/38/38 40/40/40 39/39/39
f 37/37/37 40/40/40 38/38/38
f 43/43/43 42/42/42 41/41/41
f 42/42/42 44/44/44 41/41/41
f 45/45/45 43/43/43 41/41/41
f 43/43/43 45/45/45 46/46/46
f 44/44/44 47/47/47 41/41/41
f 44/44/44 48/48/48 47/47/47
f 41/41/41 49/49/49 45/45/45
f 41/41/41 47/47/47 49/49/49
f 45/45/45 50/50/50 46/46/46
f 49/49/49 50/50/50 45/45/45
f 46/46/46 50/50/50 51/51/51
f 52/52/52 46/46/46 51/51/51
f 50/50/50 49/49/49 53/53/53
f 51/51/51 50/50/50 53/53/53
f 52/52/52 51/51/51 54/54/54
f 54/54/54 51/51/51 53/53/53
f 55/55/55 52/52/52 54/54/54
f 55/55/55 54/54/54 56/56/56
f 56/56/56 54/54/54 53/53/53
f 57/57/57 55/55/55 56/56/56
f 57/57/57 56/56/56 58/58/58
f 47/47/47 59/59/59 49/49/49
f 49/49/49 59/59/59 53/53/53
f 53/53/53 60/60/60 56/56/56
f 59/59/59 60/60/60 53/53/53
f 56/56/56 61/61/61 58/58/58
f 60/60/60 61/61/61 56/56/56
f 59/59/59 47/47/47 62/62/62
f 48/48/48 62/62/62 47/47/47
f 58/58/58 61/61/61 63/63/63
f 64/64/64 58/58/58 63/63/63
f 59/59/59 65/65/65 60/60/60
f 65/65/65 59/59/59 62/62/62
f 66/66/66 62/62/62 48/48/48
f 65/65/65 62/62/62 66/66/66
f 67/67/67 66/66/66 48/48/48
f 67/67/67 68/68/68 66/66/66
f 60/60/60 69/69/69 61/61/61
f 65/65/65 69/69/69 60/60/60
f 69/69/69 63/63/63 61/61/61
f 64/64/64 63/63/63 70/70/70
f 71/71/71 64/64/64 70/70/70
f 68/68/68 72/72/72 66/66/66
f 68/68/68 73/73/73 72/72/72
f 74/74/74 65/65/65 66/66/66
f 69/69/69 65/65/65 74/74/74
f 66/66/66 72/72/72 74/74/74
f 63/63/63 69/69/69 75/75/75
f 70/70/70 63/63/63 75/75/75
f 75/75/75 69/69/69 74/74/74
f 71/71/71 70/70/70 76/76/76
f 70/70/70 75/75/75 76/76/76
f 77/77/77 71/71/71 76/76/76
f 77/77/77 76/76/76 78/78/78
f 73/73/73 79/79/79 72/72/72
f 72/72/72 79/79/79 74/74/74
f 73/73/73 78/78/78 79/79/79
f 75/75/75 74/74/74 80/80/80
f 75/75/75 80/80/80 76/76/76
f 74/74/74 79/79/79 80/80/80
f 78/78/78 80/80/80 79/79/79
f 76/76/76 80/80/80 78/78/78
