g ShouZhang
v -0.53354907 0.0227092542 0.0593900532
v -0.533550084 0.0227092374 0.0456360653
v -0.522255063 0.0196822323 0.0456360728
v -0.522255063 0.0196822509 0.0593900569
v -0.513987064 0.0114142178 0.0456360616
v -0.513987064 0.0114142345 0.0593900681
v -0.510960042 0.000119222008 0.0456360765
v -0.510960042 0.000120230827 0.0593900792
v -0.513987064 -0.0111747785 0.0456360914
v -0.513986051 -0.0111747617 0.0593900941
v -0.522255063 -0.0194437802 0.0456360988
v -0.522255063 -0.019442752 0.0593901053
v -0.53354907 -0.0224697664 0.0456361063
v -0.533550084 -0.0224697497 0.059390109
v -0.544844091 -0.0194437709 0.0456360988
v -0.544844091 -0.0194427446 0.0593901053
v -0.55311203 -0.0111747636 0.0456360914
v -0.55311203 -0.0111747468 0.0593900941
v -0.556139052 0.00011924014 0.0456360765
v -0.556139052 0.000119257136 0.0593900792
v -0.55311203 0.0114142336 0.0456360616
v -0.55311203 0.0114142494 0.0593900681
v -0.544844091 0.0196822416 0.0456360728
v -0.544844091 0.0196822584 0.0593900569
v -0.533550084 0.0227092374 0.0456360653
v -0.53354907 0.0227092542 0.0593900532
v -0.524658084 0.0155203482 0.204535082
v -0.53354907 0.0179023445 0.204535082
v -0.53354907 0.0179022439 0.061678078
v -0.524658084 0.0155202476 0.061678078
v -0.518149078 0.00901134685 0.204535082
v -0.518149078 0.00901124626 0.0616780706
v -0.515767038 0.000119344011 0.204535097
v -0.515767038 0.000119243763 0.061678078
v -0.518149078 -0.00877164584 0.204535097
v -0.518149078 -0.00877174642 0.0616780892
v -0.524658084 -0.0152806425 0.204535112
v -0.524658084 -0.0152807422 0.0616780967
v -0.53354907 -0.01766265 0.204535112
v -0.53354907 -0.0176627506 0.0616781041
v -0.54244107 -0.0152806351 0.204535112
v -0.54244107 -0.0152807347 0.0616780967
v -0.548950076 -0.00877163373 0.204535097
v -0.548950076 -0.00877173431 0.0616780929
v -0.551332057 0.000119358279 0.204535097
v -0.551332057 0.000119258031 0.061678078
v -0.548950076 0.00901135895 0.204535082
v -0.548950076 0.0090112593 0.0616780706
v -0.54244107 0.0155203557 0.204535082
v -0.54244107 0.0155202551 0.061678078
v -0.53354907 0.0179023445 0.204535082
v -0.53354907 0.0179022439 0.061678078
v -0.550410092 -0.00690277806 0.0478290878
v -0.55735606 4.32250563E-05 0.0395000838
v -0.551791072 4.32140405E-05 0.0478290804
v -0.555551052 -0.00903275982 0.039500095
v -0.546475053 -0.0127917752 0.047829099
v -0.559310079 4.32136985E-05 0.0296760835
v -0.550410092 -0.016726777 0.0395000987
v -0.540585041 -0.01672679 0.047829099
v -0.55735606 -0.00978077669 0.0296760928
v -0.55735606 4.32007691E-05 0.019852085
v -0.542715073 -0.0218687654 0.0395001024
v -0.533639073 -0.0181087814 0.047829099
v -0.551791072 -0.0181087777 0.0296761002
v -0.555551052 -0.00903278496 0.0198520925
v -0.551791072 4.31882436E-05 0.0115230847
v -0.533639073 -0.0236737672 0.0395001061
v -0.526692092 -0.0167267956 0.0478290915
v -0.543463051 -0.0236737747 0.0296761058
v -0.550410092 -0.016726803 0.0198520981
v -0.550410092 -0.00690280367 0.0115230903
v -0.543463051 4.31780281E-05 0.00595808355
v -0.524562061 -0.0218687728 0.0395000987
v -0.520803034 -0.0127917863 0.0478290915
v -0.533639073 -0.0256277826 0.0296761077
v -0.542715073 -0.0218687896 0.0198521018
v -0.546475053 -0.0127918012 0.011523095
v -0.542715073 -0.00371580571 0.00595808635
v -0.533639073 4.31716726E-05 0.00400408311
v -0.516868055 -0.0167267919 0.039500095
v -0.516868055 -0.00690279109 0.0478290878
v -0.523815095 -0.023673784 0.0296761021
v -0.533639073 -0.0236737914 0.0198521018
v -0.540585041 -0.0167268161 0.0115230978
v -0.540585041 -0.00690281438 0.0059580896
v -0.511727035 -0.00903277751 0.0395000912
v -0.515486062 4.31994704E-05 0.0478290804
v -0.509921074 4.32060187E-05 0.03950008
v -0.515486062 -0.0181087926 0.0296760984
v -0.509921074 -0.00978079531 0.0296760909
v -0.507967055 4.3193093E-05 0.0296760816
v -0.524562061 -0.0218687952 0.0198521018
v -0.533639073 -0.0181088075 0.0115230978
v -0.53739804 -0.00903280918 0.005958091
v -0.511727035 -0.00903280266 0.0198520888
v -0.509921074 4.31817352E-05 0.0198520813
v -0.516868055 -0.0167268161 0.0198520962
v -0.526692092 -0.0167268217 0.0115230978
v -0.533639073 -0.0097808158 0.00595809007
v -0.516868055 -0.00690281671 0.0115230875
v -0.515486062 4.31736735E-05 0.011523081
v -0.520803034 -0.0127918106 0.0115230931
v -0.529879034 -0.00903281197 0.00595809007
v -0.526692092 -0.0069028195 0.00595808914
v -0.524562061 -0.00371581316 0.00595808495
v -0.523815095 4.31701374E-05 0.00595808262
v -0.516868055 0.0069902027 0.0478290729
v -0.509921074 4.32060187E-05 0.03950008
v -0.515486062 4.31994704E-05 0.0478290804
v -0.511727035 0.00912022125 0.0395000726
v -0.520803034 0.0128792189 0.0478290729
v -0.507967055 4.3193093E-05 0.0296760816
v -0.516868055 0.0168142188 0.0395000651
v -0.526692092 0.0168142151 0.0478290692
v -0.509921074 0.00986819528 0.0296760723
v -0.509921074 4.31817352E-05 0.0198520813
v -0.524562061 0.021956224 0.0395000651
v -0.533639073 0.0181962065 0.0478290655
v -0.515486062 0.0181961954 0.0296760648
v -0.511727035 0.00912019704 0.0198520757
v -0.515486062 4.31736735E-05 0.011523081
v -0.533639073 0.0237612296 0.0395000651
v -0.540585041 0.0168142207 0.0478290692
v -0.523815095 0.0237612128 0.0296760648
v -0.516868055 0.0168141965 0.0198520683
v -0.516868055 0.00699017709 0.0115230745
v -0.523815095 4.31701374E-05 0.00595808262
v -0.542715073 0.0219562314 0.0395000651
v -0.546475053 0.0128792292 0.0478290729
v -0.533639073 0.0257152189 0.029676063
v -0.524562061 0.0219561998 0.0198520627
v -0.520803034 0.0128791938 0.0115230698
v -0.524562061 0.00380318402 0.00595807889
v -0.533639073 4.31716726E-05 0.00400408311
v -0.550410092 0.0168142337 0.0395000689
v -0.550410092 0.00699021574 0.0478290804
v -0.543463051 0.0237612221 0.0296760648
v -0.533639073 0.0237612054 0.0198520627
v -0.526692092 0.016814189 0.0115230689
v -0.526692092 0.00699017383 0.00595807657
v -0.555551052 0.00912023988 0.0395000763
v -0.551791072 4.32140405E-05 0.0478290804
v -0.55735606 4.32250563E-05 0.0395000838
v -0.551791072 0.0181962103 0.0296760667
v -0.55735606 0.00986821298 0.029676076
v -0.559310079 4.32136985E-05 0.0296760835
v -0.542715073 0.0219562072 0.0198520645
v -0.533639073 0.0181961805 0.0115230689
v -0.529879034 0.00912018772 0.00595807424
v -0.555551052 0.00912021473 0.0198520776
v -0.55735606 4.32007691E-05 0.019852085
v -0.550410092 0.0168142095 0.0198520701
v -0.540585041 0.0168141946 0.0115230698
v -0.533639073 0.00986817479 0.0059580747
v -0.550410092 0.00699019013 0.0115230773
v -0.551791072 4.31882436E-05 0.0115230847
v -0.546475053 0.0128792031 0.0115230726
v -0.53739804 0.00912019052 0.0059580747
v -0.540585041 0.00699017942 0.00595807703
v -0.542715073 0.00380319147 0.00595808029
v -0.543463051 4.31780281E-05 0.00595808355
v -0.533549011 0.0303233601 0.218752056
v -0.533550084 0.0303233434 0.206325054
v -0.518447042 0.0262773558 0.206325054
v -0.518447042 0.0262773708 0.218752056
v -0.507392049 0.0152213471 0.206325069
v -0.507392049 0.0152223548 0.218752071
v -0.503345072 0.000119341239 0.206325084
v -0.503345072 0.000120348413 0.218752086
v -0.507392049 -0.0149826622 0.206325114
v -0.507392049 -0.0149816358 0.218752116
v -0.518448055 -0.0260376502 0.206325084
v -0.518447042 -0.0260376353 0.218752086
v -0.53354907 -0.030083647 0.206325114
v -0.53354907 -0.0300836302 0.218752116
v -0.548651099 -0.0260376371 0.206325114
v -0.548652053 -0.0260376241 0.218752116
v -0.559707046 -0.0149826407 0.206325114
v -0.559707046 -0.0149826249 0.218752116
v -0.563753068 0.000119365483 0.206325084
v -0.563753068 0.000120372657 0.218752086
v -0.559707046 0.0152213685 0.206325069
v -0.559707046 0.0152223762 0.218752071
v -0.548651099 0.026277367 0.206325054
v -0.548651099 0.0262773819 0.218752056
v -0.533550084 0.0303233434 0.206325054
v -0.533549011 0.0303233601 0.218752056
v -0.556306064 0.000119404976 0.240700081
v -0.556493044 0.00011938149 0.221636102
v -0.553419054 0.0115913758 0.221636087
v -0.553327024 0.0118794106 0.241318062
v -0.556156099 0.000119431941 0.262571067
v -0.545021057 0.0199893713 0.221636087
v -0.553560078 0.0120084323 0.264094085
v -0.556158066 0.000119438162 0.267601073
v -0.544970095 0.020526411 0.243005067
v -0.53354907 0.0230633635 0.221636057
v -0.553779066 0.0119384397 0.269335061
v -0.556160092 0.000119444368 0.272632092
v -0.533517063 0.0237354115 0.245315045
v -0.522078097 0.019989362 0.221636057
v -0.545379043 0.0207104273 0.268261045
v -0.55399704 0.0118694371 0.274576068
v -0.560682058 0.000119453027 0.278161079
v -0.521922052 0.0205673985 0.24763605
v -0.513680041 0.01159136 0.221636087
v -0.534360051 0.0238964465 0.274091035
v -0.546155035 0.0205904432 0.274827063
v -0.558950067 0.011730439 0.280526072
v -0.566608071 0.000119441363 0.282235086
v -0.51335907 0.0119243991 0.249307081
v -0.51060605 0.000119363074 0.221636102
v -0.548132062 0.0204704404 0.280610085
v -0.522114038 0.0207104329 0.279843062
v -0.536197066 0.0237574279 0.281892031
v -0.565309048 0.0115914401 0.285021067
v -0.572922051 0.00011944682 0.284601092
v -0.554243028 0.0202304497 0.287349075
v -0.540058017 0.0235954467 0.289066046
v -0.524587035 0.0205904339 0.289095044
v -0.513822019 0.0120084221 0.283904076
v -0.572334051 0.0115914466 0.28741309
v -0.579627037 0.00011945064 0.285513103
v -0.510258079 0.00011939789 0.249919087
v -0.51335907 -0.0116846096 0.249307096
v -0.513680041 -0.0113516403 0.221636102
v -0.521922052 -0.0203276053 0.24763611
v -0.522078097 -0.0197496358 0.221636117
v -0.533517063 -0.023495594 0.245315105
v -0.53354907 -0.022823628 0.221636117
v -0.544970095 -0.0202865954 0.243005112
v -0.545021057 -0.0197496247 0.221636117
v -0.553327024 -0.0116395904 0.241318107
v -0.553419054 -0.0113516245 0.221636117
v -0.556306064 0.000119404976 0.240700081
v -0.556493044 0.00011938149 0.221636102
v -0.556156099 0.000119431941 0.262571067
v -0.553560078 -0.0117685758 0.264094114
v -0.556158066 0.000119438162 0.267601073
v -0.545379043 -0.0204705633 0.268261105
v -0.553779066 -0.0116985692 0.269335121
v -0.556160092 0.000119444368 0.272632092
v -0.534360051 -0.0236565582 0.274091095
v -0.546155095 -0.0203505661 0.274827123
v -0.55399704 -0.0116295554 0.274576098
v -0.560682058 0.000119453027 0.278161079
v -0.522114038 -0.0204705596 0.279843122
v -0.536197066 -0.0235175788 0.281892091
v -0.558950067 -0.0114905573 0.280526131
v -0.566608071 0.000119441363 0.282235086
v -0.548132062 -0.0202305671 0.280610114
v -0.513822019 -0.0117685851 0.283904076
v -0.565309048 -0.0113515602 0.285021096
v -0.572922051 0.00011944682 0.284601092
v -0.524587035 -0.0203505754 0.289095104
v -0.554243088 -0.0199905541 0.287349105
v -0.540058076 -0.0233555604 0.289066106
v -0.511213064 0.000119423028 0.285387099
v -0.517175078 -0.011698572 0.293738097
v -0.530473053 -0.0201975536 0.298736095
v -0.547806084 -0.0230885539 0.296554089
v -0.517175078 0.011938436 0.293738067
v -0.514890075 0.000119436932 0.295442104
v -0.530472994 0.0204374399 0.298736036
v -0.561760068 -0.0197495501 0.292632103
v -0.524471104 -0.0116065452 0.304473102
v -0.524471104 0.0118464613 0.304473072
v -0.522679031 0.000119453805 0.306567103
v -0.535470068 -0.0114795398 0.313271105
v -0.535470068 0.0117194653 0.313271075
v -0.547806025 0.0233284514 0.296554029
v -0.540802062 -0.0199685432 0.306564122
v -0.53383404 0.0001194695 0.315643102
v -0.547215044 0.000119464879 0.322995067
v -0.540802002 0.0202084593 0.306564063
v -0.548514068 -0.0113515425 0.320209086
v -0.552063048 -0.0197495297 0.312597126
v -0.548514068 0.0115914578 0.320209086
v -0.564150095 0.000119476717 0.327074081
v -0.552062988 0.0199894682 0.312597066
v -0.556912065 -0.0228235386 0.302200109
v -0.564737082 -0.0113515304 0.324262083
v -0.581477106 0.000119484648 0.327867091
v -0.564737082 0.0115914699 0.324262083
v -0.566343069 -0.019749539 0.3165811
v -0.568536043 -0.0228235293 0.305587113
v -0.581353068 -0.011351523 0.325030059
v -0.581014037 -0.0197495315 0.317278117
v -0.570729077 -0.0197495446 0.295094103
v -0.595938087 -0.0113515193 0.323256075
v -0.572334051 -0.0113515537 0.28741312
v -0.579627037 0.00011945064 0.285513103
v -0.579751074 -0.0113515509 0.288350105
v -0.580090046 -0.019749539 0.296101093
v -0.580552042 -0.0228235237 0.306690127
v -0.588185072 -0.0113515481 0.287028104
v -0.587564051 0.000119452008 0.284044087
v -0.59444207 -0.0197495092 0.315462112
v -0.589929044 -0.0197495371 0.294581115
v -0.592263043 -0.0228235219 0.304781109
v -0.595465064 -0.0113515491 0.284173101
v -0.594346046 0.000119451019 0.281043082
v -0.603397071 -0.0228235219 0.300820142
v -0.598757088 -0.0197495371 0.291299105
v -0.601477087 -0.0113515323 0.279651105
v -0.599726081 0.000119467637 0.277302086
v -0.606383085 -0.0197495427 0.285344124
v -0.605126083 -0.0113515379 0.274457097
v -0.602745056 0.000119463388 0.272890091
v -0.611791074 -0.0197495297 0.278488129
v -0.607405066 -0.0113515435 0.269175112
v -0.604618073 0.000119458564 0.268376082
v -0.605354071 0.000119453282 0.263862103
v -0.613167048 -0.0228235256 0.293227136
v -0.621153057 -0.022823533 0.284442127
v -0.615159035 -0.0197495352 0.271246105
v -0.608547032 -0.0113515491 0.263892114
v -0.625586092 -0.0228235256 0.274316132
v -0.607380033 -0.0113515556 0.259295106
v -0.604533076 0.000119448181 0.26000309
v -0.616880059 -0.0197495446 0.264005095
v -0.604607046 -0.0113515621 0.254698128
v -0.602106094 0.000119442433 0.256143093
v -0.615219057 -0.0197495539 0.257379115
v -0.59573406 -0.011351577 0.246181101
v -0.593561053 0.000119429387 0.248355091
v -0.601673067 -0.01974958 0.240243107
v -0.611441076 -0.0197495632 0.250753105
v -0.609784067 -0.0228235833 0.232131138
v -0.62077105 -0.0228235647 0.245363131
v -0.61789608 -0.019749593 0.22401911
v -0.625150084 -0.0228235498 0.254702121
v -0.627576053 -0.0228235386 0.264139146
v -0.635350049 -0.019749552 0.251493096
v -0.63025707 -0.0197495688 0.239787117
v -0.637064099 -0.0113515733 0.23578611
v -0.623835027 -0.0113516003 0.218081102
v -0.639477074 0.000119430544 0.234376088
v -0.626008034 0.000119402306 0.215907097
v -0.623835027 0.0115914 0.218081072
v -0.636453092 -0.0197495203 0.277463108
v -0.638669074 -0.0197495352 0.264067113
v -0.642905056 -0.0113515537 0.249273106
v -0.630732059 -0.0197495259 0.290443122
v -0.64380002 -0.0113515155 0.279637098
v -0.646188021 -0.0113515342 0.26406911
v -0.620583057 -0.0197495148 0.302184105
v -0.645558059 0.000119450488 0.248546094
v -0.637109041 -0.0113515193 0.294726104
v -0.608599067 -0.0197495092 0.311166108
v -0.648826063 0.000119470998 0.264084071
v -0.625491023 -0.0113515062 0.308515102
v -0.611700058 -0.0113515193 0.318525106
v -0.646273017 0.000119471042 0.280382097
v -0.639194071 0.000119487799 0.296237081
v -0.626958072 0.000119500692 0.310640067
v -0.61264807 0.000119489152 0.321387053
v -0.596474051 0.00011948849 0.326106071
v -0.595938087 0.011591481 0.323256075
v -0.611700058 0.011591481 0.318525076
v -0.625491023 0.0115914941 0.308515072
v -0.637109041 0.011591481 0.294726074
v -0.64380002 0.0115914838 0.279637069
v -0.581353068 0.0115914773 0.325030059
v -0.566343009 0.0199894588 0.31658107
v -0.581014037 0.0199894663 0.317278087
v -0.59444201 0.0199894868 0.315462053
v -0.608599067 0.0199894886 0.311166078
v -0.620582998 0.0199894831 0.302184045
v -0.556912005 0.0230634548 0.302200049
v -0.568536043 0.0230634641 0.305587053
v -0.561760008 0.0199894477 0.292632073
v -0.570729017 0.0199894533 0.295094073
v -0.580552042 0.0230634678 0.306690067
v -0.603397012 0.0230634715 0.300820082
v -0.580089986 0.0199894588 0.296101063
v -0.579751074 0.0115914494 0.288350075
v -0.592263043 0.0230634715 0.304781079
v -0.589929044 0.0199894607 0.294581056
v -0.588185072 0.0115914522 0.287028074
v -0.587564051 0.000119452008 0.284044087
v -0.598757029 0.0199894607 0.291299075
v -0.595465064 0.0115914512 0.284173071
v -0.594346046 0.000119451019 0.281043082
v -0.613167048 0.023063466 0.293227077
v -0.606383026 0.0199894551 0.285344094
v -0.601477087 0.011591468 0.279651076
v -0.599726081 0.000119467637 0.277302086
v -0.630732 0.0199894719 0.290442079
v -0.621152997 0.0230634585 0.284442067
v -0.611791015 0.0199894682 0.27848807
v -0.605126083 0.0115914624 0.274457067
v -0.602745056 0.000119463388 0.272890091
v -0.607405066 0.0115914568 0.269175053
v -0.604618073 0.000119458564 0.268376082
v -0.605354071 0.000119453282 0.263862103
v -0.636453092 0.0199894775 0.277463078
v -0.625586033 0.023063466 0.274316072
v -0.615159035 0.0199894607 0.271246076
v -0.608547032 0.0115914512 0.263892084
v -0.616880059 0.0199894533 0.264005065
v -0.627575994 0.0230634548 0.264139086
v -0.638669074 0.0199894607 0.264067084
v -0.607380033 0.0115914447 0.259295076
v -0.604533076 0.000119448181 0.26000309
v -0.615219057 0.0199894439 0.257379055
v -0.625150084 0.0230634417 0.254701078
v -0.604607046 0.0115914382 0.254698068
v -0.602106094 0.000119442433 0.256143093
v -0.611441076 0.0199894346 0.250753075
v -0.59573406 0.0115914233 0.246181056
v -0.593561053 0.000119429387 0.248355091
v -0.601673067 0.0199894179 0.240243062
v -0.609784067 0.0230634082 0.232131079
v -0.62077105 0.0230634287 0.245363072
v -0.61789608 0.0199894048 0.224019065
v -0.635350049 0.0199894439 0.251493067
v -0.63025707 0.0199894272 0.239787072
v -0.637064099 0.011591427 0.235786065
v -0.642905056 0.0115914466 0.249273062
v -0.646188021 0.0115914661 0.26406908
v -0.53354907 0.000119231074 0.0456360765
v -0.522255063 -0.0194437802 0.0456360988
v -0.513987064 -0.0111747785 0.0456360914
v -0.53354907 -0.0224697664 0.0456361063
v -0.510960042 0.000119222008 0.0456360765
v -0.544844091 -0.0194437709 0.0456360988
v -0.513987064 0.0114142178 0.0456360616
v -0.55311203 -0.0111747636 0.0456360914
v -0.522255063 0.0196822323 0.0456360728
v -0.556139052 0.00011924014 0.0456360765
v -0.533550084 0.0227092374 0.0456360653
v -0.55311203 0.0114142336 0.0456360616
v -0.544844091 0.0196822416 0.0456360728
v -0.623835027 0.0115914 0.218081072
v -0.626008034 0.000119402306 0.215907097
v -0.61828208 0.000119400574 0.217015088
v -0.623835027 -0.0113516003 0.218081102
v -0.616674066 0.00860439427 0.218623102
v -0.61789608 0.0199894048 0.224019065
v -0.616674066 -0.00836559106 0.218623117
v -0.61789608 -0.019749593 0.22401911
v -0.612282038 0.0148164043 0.22301507
v -0.609784067 0.0230634082 0.232131079
v -0.60494405 0.000119407741 0.227149084
v -0.612282038 -0.0145766009 0.223015115
v -0.606282055 0.0170904081 0.229015082
v -0.609784067 -0.0228235833 0.232131138
v -0.601673067 0.0199894179 0.240243062
v -0.606282055 -0.0168505944 0.229015112
v -0.601673067 -0.01974958 0.240243107
v -0.600282073 0.0148164136 0.235014066
v -0.59573406 0.0115914233 0.246181056
v -0.600282073 -0.0145765906 0.235014111
v -0.59573406 -0.011351577 0.246181101
v -0.595890045 0.00860441197 0.239407077
v -0.593561053 0.000119429387 0.248355091
v -0.595890045 -0.00836557336 0.239407107
v -0.594282031 0.000119420605 0.241014093
v -0.522078097 0.019989362 0.221636057
v -0.533549011 0.0303233601 0.218752056
v -0.518447042 0.0262773708 0.218752056
v -0.53354907 0.0230633635 0.221636057
v -0.513680041 0.01159136 0.221636087
v -0.548651099 0.0262773819 0.218752056
v -0.507392049 0.0152223548 0.218752071
v -0.545021057 0.0199893713 0.221636087
v -0.51060605 0.000119363074 0.221636102
v -0.559707046 0.0152223762 0.218752071
v -0.503345072 0.000120348413 0.218752086
v -0.553419054 0.0115913758 0.221636087
v -0.513680041 -0.0113516403 0.221636102
v -0.563753068 0.000120372657 0.218752086
v -0.507392049 -0.0149816358 0.218752116
v -0.556493044 0.00011938149 0.221636102
v -0.522078097 -0.0197496358 0.221636117
v -0.559707046 -0.0149826249 0.218752116
v -0.518447042 -0.0260376353 0.218752086
v -0.553419054 -0.0113516245 0.221636117
v -0.53354907 -0.022823628 0.221636117
v -0.548652053 -0.0260376241 0.218752116
v -0.53354907 -0.0300836302 0.218752116
v -0.545021057 -0.0197496247 0.221636117
v -0.518149078 -0.00877164584 0.204535097
v -0.518448055 -0.0260376502 0.206325084
v -0.507392049 -0.0149826622 0.206325114
v -0.524658084 -0.0152806425 0.204535112
v -0.515767038 0.000119344011 0.204535097
v -0.53354907 -0.030083647 0.206325114
v -0.503345072 0.000119341239 0.206325084
v -0.53354907 -0.01766265 0.204535112
v -0.518149078 0.00901134685 0.204535082
v -0.548651099 -0.0260376371 0.206325114
v -0.507392049 0.0152213471 0.206325069
v -0.54244107 -0.0152806351 0.204535112
v -0.524658084 0.0155203482 0.204535082
v -0.559707046 -0.0149826407 0.206325114
v -0.518447042 0.0262773558 0.206325054
v -0.548950076 -0.00877163373 0.204535097
v -0.53354907 0.0179023445 0.204535082
v -0.563753068 0.000119365483 0.206325084
v -0.533550084 0.0303233434 0.206325054
v -0.551332057 0.000119358279 0.204535097
v -0.54244107 0.0155203557 0.204535082
v -0.559707046 0.0152213685 0.206325069
v -0.548651099 0.026277367 0.206325054
v -0.548950076 0.00901135895 0.204535082
v -0.524658084 0.0155202476 0.061678078
v -0.53354907 0.0227092542 0.0593900532
v -0.522255063 0.0196822509 0.0593900569
v -0.53354907 0.0179022439 0.061678078
v -0.518149078 0.00901124626 0.0616780706
v -0.544844091 0.0196822584 0.0593900569
v -0.513987064 0.0114142345 0.0593900681
v -0.54244107 0.0155202551 0.061678078
v -0.515767038 0.000119243763 0.061678078
v -0.55311203 0.0114142494 0.0593900681
v -0.510960042 0.000120230827 0.0593900792
v -0.548950076 0.0090112593 0.0616780706
v -0.518149078 -0.00877174642 0.0616780892
v -0.556139052 0.000119257136 0.0593900792
v -0.513986051 -0.0111747617 0.0593900941
v -0.551332057 0.000119258031 0.061678078
v -0.524658084 -0.0152807422 0.0616780967
v -0.55311203 -0.0111747468 0.0593900941
v -0.522255063 -0.019442752 0.0593901053
v -0.548950076 -0.00877173431 0.0616780929
v -0.53354907 -0.0176627506 0.0616781041
v -0.544844091 -0.0194427446 0.0593901053
v -0.533550084 -0.0224697497 0.059390109
v -0.54244107 -0.0152807347 0.0616780967
vt 0.772460938 0.0770874023
vt 0.772460938 0.0567626953
vt 0.755371094 0.0565490723
vt 0.755371094 0.0768432617
vt 0.73828125 0.0563354492
vt 0.737792969 0.0766601562
vt 0.720703125 0.0561218262
vt 0.720703125 0.0764160156
vt 0.703613281 0.0559082031
vt 0.703125 0.0762329102
vt 0.686523438 0.0556945801
vt 0.686035156 0.0759887695
vt 0.668945312 0.055480957
vt 0.668945312 0.0758056641
vt 0.651855469 0.055267334
vt 0.651367188 0.0755615234
vt 0.634277344 0.0550537109
vt 0.634277344 0.075378418
vt 0.6171875 0.0548706055
vt 0.6171875 0.0751953125
vt 0.600097656 0.0546569824
vt 0.599609375 0.0749511719
vt 0.582519531 0.0544433594
vt 0.582519531 0.0747680664
vt 0.565429688 0.0542297363
vt 0.564941406 0.0745239258
vt 0.984375 0.993164062
vt 0.9921875 0.993164062
vt 0.994140625 0.869628906
vt 0.985839844 0.869628906
vt 0.9765625 0.993164062
vt 0.978027344 0.869628906
vt 0.968261719 0.993164062
vt 0.970214844 0.869140625
vt 0.960449219 0.992675781
vt 0.961914062 0.869140625
vt 0.952636719 0.992675781
vt 0.954101562 0.869140625
vt 0.944335938 0.992675781
vt 0.946289062 0.869140625
vt 0.936523438 0.992675781
vt 0.937988281 0.868652344
vt 0.928710938 0.9921875
vt 0.930175781 0.868652344
vt 0.920410156 0.9921875
vt 0.922363281 0.868652344
vt 0.912597656 0.9921875
vt 0.914550781 0.868652344
vt 0.904785156 0.9921875
vt 0.90625 0.868652344
vt 0.896484375 0.9921875
vt 0.8984375 0.868164062
vt 0.882324219 0.522949219
vt 0.872070312 0.511230469
vt 0.874023438 0.522460938
vt 0.881835938 0.512207031
vt 0.891113281 0.523925781
vt 0.872558594 0.498535156
vt 0.891601562 0.513671875
vt 0.900390625 0.525390625
vt 0.8828125 0.500976562
vt 0.877441406 0.486328125
vt 0.900878906 0.515136719
vt 0.910644531 0.525878906
vt 0.892089844 0.503417969
vt 0.885742188 0.490722656
vt 0.885742188 0.475830078
vt 0.911132812 0.516113281
vt 0.920410156 0.525878906
vt 0.901855469 0.505371094
vt 0.894042969 0.493896484
vt 0.891601562 0.480957031
vt 0.897460938 0.469238281
vt 0.920898438 0.515625
vt 0.930664062 0.525390625
vt 0.911132812 0.506347656
vt 0.902832031 0.495849609
vt 0.897460938 0.484375
vt 0.899902344 0.47265625
vt 0.911132812 0.466796875
vt 0.931152344 0.514648438
vt 0.939941406 0.524414062
vt 0.920898438 0.505859375
vt 0.911621094 0.496582031
vt 0.904296875 0.486328125
vt 0.903320312 0.475097656
vt 0.940917969 0.513183594
vt 0.948242188 0.523925781
vt 0.950683594 0.51171875
vt 0.930664062 0.504394531
vt 0.939941406 0.501953125
vt 0.949707031 0.498535156
vt 0.919921875 0.49609375
vt 0.911132812 0.487060547
vt 0.906738281 0.476806641
vt 0.936523438 0.490966797
vt 0.944824219 0.486083984
vt 0.928222656 0.494384766
vt 0.91796875 0.486572266
vt 0.911132812 0.477294922
vt 0.930664062 0.481201172
vt 0.935546875 0.476074219
vt 0.924804688 0.484619141
vt 0.915039062 0.476806641
vt 0.918945312 0.475585938
vt 0.922363281 0.473144531
vt 0.924316406 0.469726562
vt 0.939941406 0.538085938
vt 0.950195312 0.549804688
vt 0.947753906 0.538574219
vt 0.940429688 0.548828125
vt 0.931152344 0.537109375
vt 0.949707031 0.562011719
vt 0.931152344 0.547363281
vt 0.921386719 0.536132812
vt 0.939941406 0.560058594
vt 0.9453125 0.574707031
vt 0.921386719 0.545898438
vt 0.911621094 0.53515625
vt 0.930175781 0.557617188
vt 0.937011719 0.5703125
vt 0.937011719 0.584960938
vt 0.911132812 0.545410156
vt 0.901367188 0.535644531
vt 0.920898438 0.555664062
vt 0.928222656 0.567382812
vt 0.931640625 0.580078125
vt 0.925292969 0.592285156
vt 0.901367188 0.545898438
vt 0.891601562 0.536621094
vt 0.911132812 0.555175781
vt 0.919921875 0.565429688
vt 0.925292969 0.577148438
vt 0.923339844 0.588867188
vt 0.912109375 0.594726562
vt 0.891113281 0.547363281
vt 0.882324219 0.537597656
vt 0.901367188 0.555664062
vt 0.911132812 0.564941406
vt 0.918457031 0.575195312
vt 0.919921875 0.5859375
vt 0.881347656 0.548828125
vt 0.874023438 0.538085938
vt 0.871582031 0.550292969
vt 0.892089844 0.557617188
vt 0.882324219 0.560058594
vt 0.872558594 0.563476562
vt 0.902832031 0.565429688
vt 0.911621094 0.57421875
vt 0.916015625 0.584472656
vt 0.885742188 0.570800781
vt 0.877929688 0.576171875
vt 0.894042969 0.567382812
vt 0.904785156 0.575195312
vt 0.911621094 0.583984375
vt 0.892089844 0.580566406
vt 0.887207031 0.5859375
vt 0.897949219 0.577148438
vt 0.907714844 0.584472656
vt 0.903808594 0.5859375
vt 0.900878906 0.588867188
vt 0.898925781 0.592285156
vt 0.451904297 0.121276855
vt 0.451904297 0.108581543
vt 0.435791016 0.108642578
vt 0.436035156 0.121337891
vt 0.419921875 0.108703613
vt 0.419921875 0.121398926
vt 0.404052734 0.108764648
vt 0.404052734 0.121459961
vt 0.387939453 0.108825684
vt 0.388183594 0.121520996
vt 0.372070312 0.108886719
vt 0.372070312 0.121582031
vt 0.356201172 0.109008789
vt 0.356201172 0.121643066
vt 0.340087891 0.109069824
vt 0.340087891 0.121765137
vt 0.32421875 0.109130859
vt 0.32421875 0.121826172
vt 0.308105469 0.109191895
vt 0.308349609 0.121887207
vt 0.292236328 0.10925293
vt 0.292236328 0.121948242
vt 0.276367188 0.109313965
vt 0.276367188 0.122009277
vt 0.260253906 0.109375
vt 0.260498047 0.122070312
vt 0.868652344 0.466064453
vt 0.873046875 0.451171875
vt 0.864257812 0.447753906
vt 0.859375 0.463134766
vt 0.863769531 0.484863281
vt 0.854492188 0.443847656
vt 0.854492188 0.481933594
vt 0.862304688 0.489501953
vt 0.850097656 0.460205078
vt 0.844238281 0.439941406
vt 0.853027344 0.486816406
vt 0.860839844 0.494140625
vt 0.840332031 0.457763672
vt 0.833007812 0.436523438
vt 0.845214844 0.479980469
vt 0.8515625 0.491699219
vt 0.859863281 0.501464844
vt 0.830078125 0.455810547
vt 0.821289062 0.434082031
vt 0.8359375 0.478759766
vt 0.84375 0.485351562
vt 0.851074219 0.499755859
vt 0.859375 0.509277344
vt 0.819824219 0.454345703
vt 0.809570312 0.433105469
vt 0.842773438 0.490722656
vt 0.826171875 0.477050781
vt 0.834960938 0.484375
vt 0.850097656 0.508300781
vt 0.858886719 0.517089844
vt 0.842285156 0.499023438
vt 0.833984375 0.490478516
vt 0.825195312 0.482910156
vt 0.817382812 0.476074219
vt 0.850097656 0.516113281
vt 0.858398438 0.524902344
vt 0.809082031 0.453613281
vt 0.798339844 0.453613281
vt 0.797363281 0.43359375
vt 0.787597656 0.454589844
vt 0.785644531 0.435302734
vt 0.77734375 0.456054688
vt 0.774414062 0.438232422
vt 0.767578125 0.458007812
vt 0.764160156 0.44140625
vt 0.758300781 0.460205078
vt 0.754394531 0.444824219
vt 0.748535156 0.462646484
vt 0.745117188 0.447509766
vt 0.752929688 0.481445312
vt 0.762207031 0.479248047
vt 0.75390625 0.486083984
vt 0.771484375 0.477783203
vt 0.763183594 0.484130859
vt 0.754882812 0.490722656
vt 0.780761719 0.477050781
vt 0.772460938 0.483154297
vt 0.764160156 0.489013672
vt 0.755371094 0.498291016
vt 0.790527344 0.475830078
vt 0.781738281 0.482666016
vt 0.764648438 0.497070312
vt 0.755371094 0.506347656
vt 0.7734375 0.488525391
vt 0.799804688 0.475341797
vt 0.764648438 0.505371094
vt 0.755371094 0.513671875
vt 0.791503906 0.481933594
vt 0.772949219 0.496826172
vt 0.781738281 0.488769531
vt 0.80859375 0.475341797
vt 0.799804688 0.481445312
vt 0.791503906 0.488769531
vt 0.781738281 0.496826172
vt 0.816894531 0.481933594
vt 0.808105469 0.481445312
vt 0.824707031 0.489990234
vt 0.7734375 0.504882812
vt 0.799804688 0.488769531
vt 0.81640625 0.489257812
vt 0.808105469 0.489013672
vt 0.799316406 0.496582031
vt 0.81640625 0.497070312
vt 0.833984375 0.498291016
vt 0.790527344 0.496826172
vt 0.807617188 0.496826172
vt 0.807617188 0.504882812
vt 0.824707031 0.497802734
vt 0.798828125 0.504394531
vt 0.790039062 0.504394531
vt 0.81640625 0.505371094
vt 0.807128906 0.513671875
vt 0.824707031 0.505859375
vt 0.781738281 0.504394531
vt 0.798339844 0.513671875
vt 0.807128906 0.522949219
vt 0.815917969 0.514160156
vt 0.789550781 0.513671875
vt 0.78125 0.513183594
vt 0.797851562 0.522460938
vt 0.7890625 0.522460938
vt 0.772949219 0.513183594
vt 0.797851562 0.530273438
vt 0.764160156 0.513671875
vt 0.755371094 0.521484375
vt 0.764160156 0.521484375
vt 0.772949219 0.521972656
vt 0.78125 0.521972656
vt 0.764160156 0.530761719
vt 0.754882812 0.530761719
vt 0.7890625 0.530273438
vt 0.772460938 0.530761719
vt 0.780761719 0.530761719
vt 0.764160156 0.5390625
vt 0.754882812 0.5390625
vt 0.780761719 0.5390625
vt 0.772460938 0.5390625
vt 0.763671875 0.547363281
vt 0.754882812 0.546386719
vt 0.771972656 0.547851562
vt 0.763671875 0.554199219
vt 0.754394531 0.552246094
vt 0.771972656 0.555664062
vt 0.762695312 0.560058594
vt 0.75390625 0.557128906
vt 0.753417969 0.562011719
vt 0.780273438 0.548339844
vt 0.780273438 0.557128906
vt 0.771484375 0.562988281
vt 0.762207031 0.565429688
vt 0.779785156 0.564941406
vt 0.761230469 0.569824219
vt 0.752441406 0.565429688
vt 0.771484375 0.569824219
vt 0.759277344 0.57421875
vt 0.750976562 0.568847656
vt 0.76953125 0.575195312
vt 0.753417969 0.582519531
vt 0.745605469 0.576660156
vt 0.761230469 0.58984375
vt 0.767089844 0.581054688
vt 0.76953125 0.598144531
vt 0.775390625 0.586914062
vt 0.779785156 0.60546875
vt 0.777832031 0.579589844
vt 0.779785156 0.572753906
vt 0.786132812 0.583496094
vt 0.784667969 0.591796875
vt 0.794433594 0.595214844
vt 0.791503906 0.610351562
vt 0.804199219 0.596191406
vt 0.803710938 0.612792969
vt 0.81640625 0.611328125
vt 0.788574219 0.566894531
vt 0.788085938 0.575195312
vt 0.795410156 0.5859375
vt 0.788574219 0.558105469
vt 0.796875 0.567871094
vt 0.796386719 0.576660156
vt 0.7890625 0.548339844
vt 0.8046875 0.586425781
vt 0.796875 0.55859375
vt 0.7890625 0.539550781
vt 0.805175781 0.577636719
vt 0.797363281 0.548339844
vt 0.797851562 0.539550781
vt 0.805175781 0.568359375
vt 0.805664062 0.55859375
vt 0.806152344 0.548828125
vt 0.806152344 0.539550781
vt 0.806640625 0.530761719
vt 0.815429688 0.53125
vt 0.814941406 0.540039062
vt 0.814453125 0.549316406
vt 0.814453125 0.559082031
vt 0.813964844 0.568359375
vt 0.815917969 0.522949219
vt 0.824707031 0.514648438
vt 0.824707031 0.5234375
vt 0.82421875 0.531738281
vt 0.823242188 0.540527344
vt 0.823242188 0.549804688
vt 0.833496094 0.506347656
vt 0.833496094 0.515136719
vt 0.841308594 0.507324219
vt 0.841308594 0.515625
vt 0.832519531 0.523925781
vt 0.83203125 0.541015625
vt 0.840820312 0.523925781
vt 0.849609375 0.524414062
vt 0.832519531 0.532226562
vt 0.840820312 0.533203125
vt 0.849121094 0.533691406
vt 0.857910156 0.534179688
vt 0.83984375 0.541503906
vt 0.848632812 0.541992188
vt 0.857421875 0.542480469
vt 0.83203125 0.549804688
vt 0.83984375 0.550292969
vt 0.848144531 0.550292969
vt 0.857421875 0.549804688
vt 0.822265625 0.559082031
vt 0.831054688 0.55859375
vt 0.839355469 0.558105469
vt 0.848144531 0.556640625
vt 0.857421875 0.555664062
vt 0.848144531 0.562988281
vt 0.857421875 0.561035156
vt 0.857421875 0.565429688
vt 0.822265625 0.567871094
vt 0.831054688 0.566894531
vt 0.839355469 0.565429688
vt 0.848144531 0.568359375
vt 0.838867188 0.571777344
vt 0.830566406 0.574707031
vt 0.821777344 0.576171875
vt 0.849121094 0.572753906
vt 0.858398438 0.568847656
vt 0.840332031 0.577636719
vt 0.83203125 0.581542969
vt 0.851074219 0.577636719
vt 0.859375 0.572753906
vt 0.842285156 0.583496094
vt 0.856445312 0.5859375
vt 0.864257812 0.580566406
vt 0.848144531 0.592773438
vt 0.838867188 0.600585938
vt 0.833496094 0.588867188
vt 0.828125 0.606933594
vt 0.823242188 0.584472656
vt 0.82421875 0.593261719
vt 0.814453125 0.595703125
vt 0.813964844 0.586425781
vt 0.813476562 0.577148438
vt 0.923828125 0.430419922
vt 0.931640625 0.445556641
vt 0.937988281 0.439697266
vt 0.922851562 0.447265625
vt 0.940429688 0.431152344
vt 0.914550781 0.444580078
vt 0.938476562 0.422607422
vt 0.908691406 0.438232422
vt 0.932617188 0.416259766
vt 0.906738281 0.4296875
vt 0.924316406 0.413574219
vt 0.909667969 0.421386719
vt 0.916015625 0.415527344
vt 0.270751953 0.6484375
vt 0.260742188 0.656738281
vt 0.267578125 0.661621094
vt 0.256103516 0.669433594
vt 0.274414062 0.655761719
vt 0.283935547 0.646484375
vt 0.264404297 0.669921875
vt 0.258056641 0.682128906
vt 0.283447266 0.654785156
vt 0.296386719 0.650878906
vt 0.28125 0.671875
vt 0.265625 0.679199219
vt 0.291748047 0.657714844
vt 0.266601562 0.692382812
vt 0.3046875 0.661132812
vt 0.271484375 0.686035156
vt 0.278808594 0.697265625
vt 0.297363281 0.665039062
vt 0.306640625 0.674316406
vt 0.279785156 0.688964844
vt 0.291992188 0.694824219
vt 0.298828125 0.673828125
vt 0.302001953 0.686523438
vt 0.288574219 0.6875
vt 0.295654297 0.682128906
vt 0.976074219 0.782226562
vt 0.96484375 0.793945312
vt 0.98046875 0.7890625
vt 0.964355469 0.785644531
vt 0.984375 0.7734375
vt 0.94921875 0.790039062
vt 0.991699219 0.776855469
vt 0.952636719 0.783203125
vt 0.986816406 0.76171875
vt 0.937011719 0.779296875
vt 0.995117188 0.761230469
vt 0.943847656 0.774902344
vt 0.983398438 0.75
vt 0.932617188 0.763671875
vt 0.990234375 0.745605469
vt 0.940429688 0.763183594
vt 0.974609375 0.741699219
vt 0.936035156 0.748046875
vt 0.978515625 0.734863281
vt 0.942871094 0.751464844
vt 0.962890625 0.739257812
vt 0.946777344 0.735839844
vt 0.962402344 0.730957031
vt 0.951171875 0.742675781
vt 0.978515625 0.83984375
vt 0.978515625 0.857421875
vt 0.989746094 0.846191406
vt 0.971679688 0.846679688
vt 0.980957031 0.830566406
vt 0.962890625 0.861816406
vt 0.993652344 0.830566406
vt 0.962890625 0.849121094
vt 0.978027344 0.821777344
vt 0.947753906 0.857910156
vt 0.989257812 0.814941406
vt 0.953613281 0.846679688
vt 0.971679688 0.815429688
vt 0.936035156 0.846679688
vt 0.977539062 0.804199219
vt 0.947265625 0.840332031
vt 0.962402344 0.812988281
vt 0.931640625 0.831542969
vt 0.962402344 0.800292969
vt 0.944335938 0.831054688
vt 0.953125 0.815429688
vt 0.935546875 0.815917969
vt 0.946777344 0.8046875
vt 0.946777344 0.822265625
vt 0.935058594 0.448974609
vt 0.924804688 0.458984375
vt 0.938964844 0.454345703
vt 0.924804688 0.452392578
vt 0.942871094 0.440673828
vt 0.910644531 0.455810547
vt 0.948730469 0.443603516
vt 0.913574219 0.449951172
vt 0.9453125 0.4296875
vt 0.899902344 0.445800781
vt 0.951660156 0.429443359
vt 0.905273438 0.442382812
vt 0.941894531 0.418945312
vt 0.895507812 0.431884766
vt 0.947265625 0.415283203
vt 0.901855469 0.431640625
vt 0.93359375 0.411376953
vt 0.8984375 0.417724609
vt 0.936523438 0.405517578
vt 0.904296875 0.420654297
vt 0.922851562 0.408935547
vt 0.908203125 0.406738281
vt 0.922363281 0.40234375
vt 0.912109375 0.412353516
vn 1.1895766E-05 1 -1.20556024E-06
vn -1.18591288E-05 1 -1.2047052E-06
vn 0.50002116 0.866013169 -5.88617195E-06
vn 0.5000211 0.866013288 -5.88617422E-06
vn 0.866016746 0.50001502 -5.45801777E-06
vn 0.866016686 0.50001508 -5.45801413E-06
vn 1 1.03691164E-05 -1.80339248E-05
vn 1 3.41240411E-05 -1.80332136E-05
vn 0.866017938 -0.500013053 -1.23162963E-05
vn 0.866023898 -0.500002623 -1.23169038E-05
vn 0.500004113 -0.866023004 2.45079627E-05
vn 0.500014544 -0.866017044 2.45069186E-05
vn 1.18957405E-05 -1 3.80057172E-05
vn -1.1871316E-05 -1 3.80048732E-05
vn -0.500014544 -0.866017044 2.81059765E-05
vn -0.500024974 -0.866010964 2.81059583E-05
vn -0.866015613 -0.500017107 1.405271E-05
vn -0.866015613 -0.500016987 1.40527081E-05
vn -1 1.70986624E-07 0
vn -1 1.5877329E-07 0
vn -0.866021216 0.500007272 -5.85118187E-07
vn -0.866021156 0.500007391 -5.85118414E-07
vn -0.500020206 0.866013706 3.79854873E-06
vn -0.500020146 0.866013825 3.79855169E-06
vn -1.18591288E-05 1 -1.2047052E-06
vn 1.1895766E-05 1 -1.20556024E-06
vn 0.499991357 0.866030455 -6.07701509E-07
vn 4.06277735E-07 1 -7.03874491E-07
vn 4.0627765E-07 1 -7.03874491E-07
vn 0.499991536 0.866030335 -6.07701452E-07
vn 0.866043746 0.499968261 -3.50173678E-07
vn 0.866043687 0.499968261 -3.50173678E-07
vn 1 -9.20099239E-07 0
vn 1 -8.00605335E-07 0
vn 0.866028547 -0.499994516 3.52243859E-07
vn 0.866028666 -0.499994427 3.52243774E-07
vn 0.499992043 -0.866029978 6.10048687E-07
vn 0.499992162 -0.866029918 6.1004863E-07
vn -4.06278645E-07 -1 7.03876196E-07
vn -4.18228012E-07 -1 7.03876196E-07
vn -0.499966502 -0.86604476 6.07669961E-07
vn -0.499966592 -0.866044641 6.07669904E-07
vn -0.86602819 -0.499995142 3.49604079E-07
vn -0.866028309 -0.499995023 3.49604022E-07
vn -1 5.49669892E-07 0
vn -1 7.16960415E-07 0
vn -0.866043925 0.499967992 -3.49587452E-07
vn -0.866043925 0.499967903 -3.49587395E-07
vn -0.49996683 0.866044581 -6.07672689E-07
vn -0.499967068 0.866044462 -6.07672519E-07
vn 4.06277735E-07 1 -7.03874491E-07
vn 4.0627765E-07 1 -7.03874491E-07
vn -0.76820147 -0.318176508 0.555544853
vn -0.933447063 3.94290851E-07 0.358715206
vn -0.831492722 -3.26179338E-06 0.555535674
vn -0.862396002 -0.357204884 0.358716846
vn -0.587927818 -0.587957084 0.55556035
vn -1 1.3089425E-06 0
vn -0.660040081 -0.660044909 0.358730763
vn -0.31819579 -0.768172085 0.555574656
vn -0.9238801 -0.382681817 5.02672833E-07
vn -0.933447063 1.22511778E-06 -0.358715206
vn -0.357218891 -0.862380862 0.358739257
vn -1.10008034E-06 -0.831468284 0.555572271
vn -0.707100213 -0.707113266 8.7440344E-07
vn -0.862396479 -0.357204229 -0.358716398
vn -0.745608032 1.37076199E-06 -0.666384697
vn -2.76005551E-07 -0.933438897 0.358736545
vn 0.318194866 -0.768170655 0.555577099
vn -0.382696152 -0.923874199 1.03148989E-06
vn -0.66004014 -0.660045624 -0.358729601
vn -0.688853145 -0.28531751 -0.666389585
vn -0.483226806 -9.57455313E-07 -0.875495315
vn 0.357219577 -0.862382174 0.358735561
vn 0.587956727 -0.587930322 0.555558085
vn -5.34064441E-07 -1 1.13095996E-06
vn -0.357218862 -0.862381399 -0.358738065
vn -0.527204156 -0.527229786 -0.666396677
vn -0.446425617 -0.184936866 -0.875501335
vn -3.69990539E-06 -4.37276458E-06 -1
vn 0.660043597 -0.66003263 0.358747154
vn 0.768185794 -0.318221509 0.555540979
vn 0.382676035 -0.923882544 1.22518225E-06
vn -3.6049758E-07 -0.933438957 -0.358736038
vn -0.285340637 -0.688837707 -0.666395783
vn -0.341672152 -0.341701537 -0.875499964
vn 0.862369955 -0.357234716 0.358749866
vn 0.831486702 -3.21186917E-06 0.555544674
vn 0.93343699 -7.43517774E-07 0.358741373
vn 0.707106292 -0.707107246 9.58189958E-07
vn 0.92387259 -0.382700175 4.18894587E-07
vn 1 2.51316948E-07 0
vn 0.357218653 -0.862383246 -0.358733863
vn -4.61723516E-07 -0.745604575 -0.666388571
vn -0.184953511 -0.44644621 -0.875487268
vn 0.862370729 -0.357232839 -0.358749658
vn 0.93343699 -9.18131889E-07 -0.358741373
vn 0.66004312 -0.660033524 -0.358746201
vn 0.285337269 -0.688838363 -0.666396499
vn -1.04874402E-06 -0.483238518 -0.875488818
vn 0.688846707 -0.285352081 -0.666381478
vn 0.745611548 -3.00664556E-06 -0.666380703
vn 0.527231634 -0.527213216 -0.666387975
vn 0.184942052 -0.446446598 -0.875489533
vn 0.341693342 -0.341693699 -0.875494719
vn 0.446445882 -0.184931219 -0.875492156
vn 0.483209074 -3.75344644E-06 -0.875504971
vn 0.768193722 0.318199098 0.555542767
vn 0.93343699 -7.43517774E-07 0.358741373
vn 0.831486702 -3.21186917E-06 0.555544674
vn 0.86237812 0.357214183 0.358750731
vn 0.587956429 0.587929904 0.555558801
vn 1 2.51316948E-07 0
vn 0.660043597 0.660033047 0.35874632
vn 0.318194538 0.768170357 0.555577695
vn 0.923880339 0.3826814 -4.55525338E-07
vn 0.93343699 -9.18131889E-07 -0.358741373
vn 0.357219458 0.86238271 0.358734369
vn -6.41250097E-07 0.831466794 0.555574477
vn 0.707106829 0.707106769 -1.00007605E-06
vn 0.862377763 0.357214898 -0.358750969
vn 0.745611548 -3.00664556E-06 -0.666380703
vn 3.09801692E-07 0.933438778 0.358736813
vn -0.318195045 0.768170357 0.555577338
vn 0.382677943 0.923881888 -1.21471021E-06
vn 0.660042763 0.660033524 -0.358746886
vn 0.688852906 0.285330445 -0.666384459
vn 0.483209074 -3.75344644E-06 -0.875504971
vn -0.357219189 0.862380505 0.358740032
vn -0.587927759 0.587955356 0.555562198
vn 4.08401462E-07 1 -1.09954237E-06
vn 0.357220352 0.862381399 -0.358736515
vn 0.527230561 0.527215242 -0.666387379
vn 0.446448684 0.184908926 -0.875495493
vn -3.69990539E-06 -4.37276458E-06 -1
vn -0.660040438 0.660044551 0.358730793
vn -0.768209934 0.31815207 0.555547297
vn -0.382695705 0.923874557 -7.85396878E-07
vn 6.53400662E-07 0.933438182 -0.358738422
vn 0.285337269 0.688837767 -0.666397095
vn 0.341688365 0.341688275 -0.875498831
vn -0.862403274 0.357186675 0.35871768
vn -0.831492722 -3.26179338E-06 0.555535674
vn -0.933447063 3.94290851E-07 0.358715206
vn -0.707100809 0.70711267 -7.95864423E-07
vn -0.923887968 0.38266319 -5.13120369E-07
vn -1 1.3089425E-06 0
vn -0.357218087 0.862380862 -0.35874024
vn -0 0.745603025 -0.666390419
vn 0.184938356 0.446437895 -0.875494719
vn -0.862403572 0.357185423 -0.358718157
vn -0.933447063 1.22511778E-06 -0.358715206
vn -0.660040438 0.660044074 -0.358731747
vn -0.285340607 0.688834786 -0.666398823
vn -8.71358395E-07 0.483227521 -0.875494838
vn -0.688858569 0.285298884 -0.666392148
vn -0.745608032 1.37076199E-06 -0.666384697
vn -0.527204275 0.527227163 -0.666398585
vn -0.184949249 0.446436316 -0.875493169
vn -0.341667086 0.341692448 -0.875505507
vn -0.446428239 0.18491517 -0.875504494
vn -0.483226806 -9.57455313E-07 -0.875495315
vn 1.38904297E-05 1 -1.26898726E-06
vn -1.34152806E-05 1 -1.26784744E-06
vn 0.499985665 0.866033673 -2.12137766E-05
vn 0.499985665 0.866033673 -2.12137784E-05
vn 0.866031766 0.499988914 -2.58523469E-05
vn 0.866020441 0.500008702 -2.58527034E-05
vn 1 -1.31625593E-05 1.04293633E-07
vn 1 1.31322313E-05 1.02150054E-07
vn 0.866012096 -0.500023007 1.16632591E-05
vn 0.866023898 -0.500002682 1.16641622E-05
vn 0.499982923 -0.866035283 -4.05504761E-06
vn 0.500002801 -0.866023839 -4.05458059E-06
vn -3.43722945E-07 -1 -9.45392367E-06
vn -5.66132087E-07 -1 -9.45392458E-06
vn -0.499957383 -0.866050124 -1.88754875E-05
vn -0.499977231 -0.866038561 -1.8876297E-05
vn -0.866032243 -0.499988198 -8.66513074E-06
vn -0.866032302 -0.499988019 -8.66511982E-06
vn -1 -1.32634259E-05 -5.35064282E-06
vn -1 1.30208009E-05 -5.35224945E-06
vn -0.86603117 0.499990106 -2.59158278E-05
vn -0.866019726 0.500009835 -2.59161807E-05
vn -0.499985188 0.866033912 -1.00997095E-05
vn -0.499985129 0.866033912 -1.00997095E-05
vn -1.34152806E-05 1 -1.26784744E-06
vn 1.38904297E-05 1 -1.26898726E-06
vn -0.999999285 7.11962116E-07 0.00118254765
vn -0.999986172 -2.61842445E-07 0.00526516838
vn -0.867449224 0.497513235 -0.00352336047
vn -0.870666981 0.491831303 -0.00641359994
vn -0.999985337 7.88316243E-07 -0.00542312302
vn -0.496489227 0.867825449 -0.0194294825
vn -0.862498701 0.505865753 -0.0139927762
vn -0.999798357 -7.8810757E-07 -0.020079745
vn -0.498856544 0.866520941 -0.016843684
vn 0.0148080019 0.999545634 -0.0262530781
vn -0.880737424 0.47058475 -0.0534006283
vn -0.92180258 -1.39505869E-06 -0.387659848
vn 0.0157907959 0.999754727 -0.0155295851
vn 0.514011562 0.857491791 -0.0223613027
vn -0.463484079 0.885897994 -0.0191647355
vn -0.779224873 0.508488417 -0.366398931
vn -0.68160069 -1.46426589E-06 -0.731724441
vn 0.510277152 0.859968662 -0.00842920039
vn 0.870730579 0.491494805 -0.0161582753
vn 0.0640259534 0.997947514 0.00117143092
vn -0.475722969 0.876285434 -0.0762324855
vn -0.58834523 0.511165023 -0.626546383
vn -0.463735968 -2.43408863E-06 -0.885973394
vn 0.87440604 0.485194921 0.000118734199
vn 0.999908447 7.44171814E-07 -0.013532158
vn -0.406150728 0.884004414 -0.231468543
vn 0.540218174 0.840750217 0.0361017138
vn 0.0352581106 0.99865061 0.03813041
vn -0.391712934 0.517443597 -0.760797679
vn -0.234558627 -2.11842485E-06 -0.972101927
vn -0.331707329 0.877267301 -0.346947342
vn 0.0203377642 0.998504519 0.050745286
vn 0.457788408 0.860570073 0.223268971
vn 0.884899676 0.459048688 0.0789113492
vn -0.189373627 0.504784584 -0.842217386
vn 0.0304425396 -1.6094383E-06 -0.999536514
vn 0.999983549 0 0.00573385553
vn 0.874396086 -0.485212803 0.000119586293
vn 0.870721102 -0.491511673 -0.0161571801
vn 0.510276675 -0.85996902 -0.00842691679
vn 0.514011681 -0.857491791 -0.0223590415
vn 0.0157896243 -0.999754727 -0.0155268386
vn 0.0148067288 -0.999545753 -0.0262500141
vn -0.498856246 -0.86652112 -0.0168413948
vn -0.49649033 -0.867824912 -0.0194266085
vn -0.870656848 -0.491849035 -0.00641268212
vn -0.867438495 -0.49753195 -0.00352219399
vn -0.999999285 7.11962116E-07 0.00118254765
vn -0.999986172 -2.61842445E-07 0.00526516838
vn -0.999985337 7.88316243E-07 -0.00542312302
vn -0.862488389 -0.505883276 -0.0139922583
vn -0.999798357 -7.8810757E-07 -0.020079745
vn -0.463482916 -0.88589853 -0.0191635098
vn -0.880727947 -0.470602423 -0.0534015521
vn -0.92180258 -1.39505869E-06 -0.387659848
vn 0.0640245825 -0.997947633 0.00117285235
vn -0.475725055 -0.876284301 -0.0762334168
vn -0.779215872 -0.508504689 -0.366395354
vn -0.68160069 -1.46426589E-06 -0.731724441
vn 0.540216863 -0.840750992 0.0361031182
vn 0.0352574922 -0.99865061 0.0381302834
vn -0.588338792 -0.511182249 -0.626538336
vn -0.463735968 -2.43408863E-06 -0.885973394
vn -0.406152189 -0.884004056 -0.2314675
vn 0.884889185 -0.459068924 0.078910999
vn -0.391707093 -0.51746279 -0.760787725
vn -0.234558627 -2.11842485E-06 -0.972101927
vn 0.457786232 -0.860571027 0.223269582
vn -0.331707448 -0.87726742 -0.346946836
vn 0.0203364529 -0.9985044 0.0507473461
vn 0.995045543 -2.98822869E-07 0.0994198844
vn 0.783628404 -0.471545964 0.404439062
vn 0.373539001 -0.854983509 0.359822035
vn -0.00143630826 -0.998711824 0.0507204905
vn 0.783638179 0.471526533 0.404442668
vn 0.882029831 8.43827479E-07 0.471193641
vn 0.373540878 0.854983151 0.359820753
vn -0.211752757 -0.88233757 -0.420287132
vn 0.643262565 -0.468455523 0.605609417
vn 0.643270612 0.468436867 0.605615258
vn 0.727795601 1.23144935E-06 0.685794115
vn 0.479995251 -0.476088971 0.736847222
vn 0.480001867 0.476069897 0.736855209
vn -0.00143577519 0.998711944 0.0507188141
vn 0.270942271 -0.8571105 0.438123077
vn 0.551703811 1.04215212E-06 0.834040046
vn 0.353387177 9.4360496E-07 0.935477138
vn 0.270943344 0.85711056 0.438122243
vn 0.311050355 -0.472496778 0.824617743
vn 0.187625438 -0.844724476 0.501235664
vn 0.311054736 0.472478569 0.824626505
vn 0.14394629 2.52529759E-07 0.989585578
vn 0.187625572 0.844725907 0.501233339
vn 0.00564000988 -0.998537779 0.0537633374
vn 0.130345777 -0.463007092 0.876717925
vn -0.0311629102 0 0.999514341
vn 0.130346194 0.462989956 0.876726985
vn 0.0851692483 -0.836171865 0.541814566
vn 0.00624475349 -0.998868465 0.0471459106
vn -0.0292942133 -0.4594841 0.887702763
vn -0.0198958162 -0.834445655 0.550730944
vn -0.0963066891 -0.873223662 -0.477708608
vn -0.184887812 -0.465690672 0.865418136
vn -0.189369962 -0.504802823 -0.842207313
vn 0.0304425396 -1.6094383E-06 -0.999536514
vn 0.0242323726 -0.499047995 -0.866235375
vn 0.0135290427 -0.872358024 -0.488680243
vn -0.00239147618 -0.998816013 0.0485885628
vn 0.228774354 -0.498254329 -0.836304307
vn 0.274953663 -1.93026654E-06 -0.961457491
vn -0.118570089 -0.83829397 0.53216958
vn 0.124757141 -0.867882729 -0.480848432
vn -0.0082574198 -0.999093413 0.0417638868
vn 0.41992864 -0.505383074 -0.753822207
vn 0.488042057 -2.71374302E-06 -0.872820139
vn -0.0252456404 -0.998397291 0.0506497137
vn 0.235824779 -0.87422657 -0.424399167
vn 0.607675731 -0.505135179 -0.612836659
vn 0.706012368 -1.27534838E-06 -0.708199501
vn 0.338529676 -0.87441206 -0.347564876
vn 0.747741878 -0.504351437 -0.431870073
vn 0.874013603 -1.61341347E-07 -0.485901505
vn 0.403016984 -0.881215811 -0.247054607
vn 0.814149737 -0.517055273 -0.264223725
vn 0.955768704 -1.00251532E-06 -0.294119447
vn 0.999974251 -9.18296962E-07 0.00718167145
vn -0.0329066664 -0.998816371 0.0358210616
vn -0.0540184043 -0.997892439 0.0359540768
vn 0.445165992 -0.882915854 -0.149288416
vn 0.840518475 -0.541776121 0.00269872858
vn -0.0558149032 -0.99832648 0.0151275275
vn 0.783771336 -0.524380982 0.332756788
vn 0.918983996 -1.43458681E-06 0.394295007
vn 0.448880196 -0.893590808 0.00139571226
vn 0.645901382 -0.512152553 0.566137135
vn 0.736421168 0 0.676523328
vn 0.438205391 -0.881545126 0.17565392
vn 0.773755908 -0.479378194 0.414123565
vn 0.860210001 2.31269769E-06 0.509939969
vn 0.515242815 -0.842320025 0.158182904
vn 0.372060865 -0.880037785 0.295134068
vn 0.126739129 -0.976976216 -0.171623796
vn -0.0450179838 -0.998704076 -0.0237379689
vn -0.27208668 -0.837094784 -0.474595755
vn -0.0547236055 -0.998351455 -0.0173083618
vn -0.0785187855 -0.99689424 -0.00606219098
vn -0.529065847 -0.829403281 -0.179386437
vn -0.462661922 -0.837270558 -0.291413605
vn -0.755576193 -0.464036465 -0.462357819
vn -0.562652171 -0.472142577 -0.678604364
vn -0.855490148 4.3731896E-07 -0.517819047
vn -0.665383458 3.53947172E-07 -0.746501744
vn -0.562654495 0.472125769 -0.67861414
vn -0.536817312 -0.828161955 0.161167622
vn -0.570800364 -0.820818961 -0.0210542213
vn -0.85036701 -0.448115587 -0.275804967
vn -0.469921649 -0.830247819 0.299770355
vn -0.862342715 -0.43624115 0.257019013
vn -0.89837116 -0.438466936 -0.0260004457
vn -0.373892337 -0.837860227 0.397737145
vn -0.952997088 -5.40503095E-07 -0.302979529
vn -0.757839441 -0.439085037 0.482580364
vn -0.25005728 -0.836552858 0.487494409
vn -0.999686718 3.92840889E-07 -0.0250301473
vn -0.612130046 -0.447767884 0.651767313
vn -0.399460644 -0.459974766 0.7930035
vn -0.958352268 7.45579598E-07 0.285588562
vn -0.843013048 1.12127429E-06 0.537892997
vn -0.683930278 2.13789099E-06 0.729547322
vn -0.445744932 1.40950965E-06 0.895160019
vn -0.206337422 3.03872497E-07 0.978480935
vn -0.184889957 0.465672761 0.865427315
vn -0.399464279 0.45995748 0.793011665
vn -0.612136066 0.447758526 0.651768148
vn -0.757842779 0.439075619 0.482583523
vn -0.862350106 0.43622449 0.257022351
vn -0.0292951129 0.459466636 0.887711763
vn 0.0851687565 0.836173117 0.541812479
vn -0.0198952667 0.834446251 0.550730109
vn -0.11856918 0.838294864 0.532168269
vn -0.250055909 0.83655417 0.487492651
vn -0.373896033 0.8378613 0.397731185
vn 0.00563997356 0.998537898 0.0537616983
vn 0.00624515535 0.998868585 0.0471447855
vn -0.211753085 0.882336915 -0.420288295
vn -0.096306622 0.873223186 -0.477709442
vn -0.00239017559 0.998816133 0.0485869758
vn -0.0252448302 0.998397529 0.0506472737
vn 0.0135290977 0.872357249 -0.488681674
vn 0.0242343582 0.499030292 -0.866245568
vn -0.00825628266 0.999093533 0.0417614691
vn 0.12475796 0.867881119 -0.480851263
vn 0.228779629 0.498233736 -0.836315155
vn 0.274953663 -1.93026654E-06 -0.961457491
vn 0.235826015 0.874224961 -0.42440179
vn 0.419935346 0.505362511 -0.753832221
vn 0.488042057 -2.71374302E-06 -0.872820139
vn -0.0329087116 0.998816371 0.0358191654
vn 0.33853063 0.874411285 -0.347565651
vn 0.607682288 0.505118847 -0.612843573
vn 0.706012368 -1.27534838E-06 -0.708199501
vn -0.469917446 0.830252647 0.299763501
vn -0.0540179051 0.997892439 0.0359549709
vn 0.403017998 0.881215096 -0.247055531
vn 0.747749925 0.504334867 -0.431875348
vn 0.874013603 -1.61341347E-07 -0.485901505
vn 0.814160764 0.517035961 -0.26422742
vn 0.955768704 -1.00251532E-06 -0.294119447
vn 0.999974251 -9.18296962E-07 0.00718167145
vn -0.53681618 0.828162134 0.161170393
vn -0.0558119342 0.998326719 0.0151268272
vn 0.445166409 0.88291508 -0.149290591
vn 0.84052968 0.541758835 0.00269723823
vn 0.448875934 0.893593013 0.00139293913
vn -0.0785149187 0.996894479 -0.00606387714
vn -0.570798814 0.820819974 -0.0210559443
vn 0.78378129 0.524364531 0.3327595
vn 0.918983996 -1.43458681E-06 0.394295007
vn 0.438202977 0.881547153 0.175649226
vn -0.0547272712 0.998351216 -0.0173128322
vn 0.645909607 0.51213634 0.56614244
vn 0.736421168 0 0.676523328
vn 0.372060806 0.880038142 0.295133144
vn 0.773765445 0.479365766 0.414120108
vn 0.860210001 2.31269769E-06 0.509939969
vn 0.515250981 0.842316508 0.158175215
vn 0.12674053 0.976975679 -0.171625987
vn -0.0450152457 0.998704195 -0.0237395037
vn -0.272081614 0.83709079 -0.474605799
vn -0.529068172 0.829401314 -0.179388851
vn -0.462663919 0.837267876 -0.291418105
vn -0.755584121 0.464017808 -0.46236375
vn -0.850375831 0.448096335 -0.27580896
vn -0.89838028 0.438448131 -0.0260016564
vn -0 -8.58169813E-07 -1
vn -0 -1.23066627E-06 -1
vn -1.8689839E-07 -1.23069742E-06 -1
vn -0 -1.26654913E-06 -1
vn -0 -1.26655675E-06 -1
vn -0 -1.23066525E-06 -1
vn -1.2571239E-07 -4.99445548E-07 -1
vn 1.27364402E-07 -1.23069412E-06 -1
vn -0 0 -1
vn -2.46403403E-07 -1.26655243E-06 -1
vn -0 -4.22167176E-07 -1
vn 3.73776686E-07 -4.99446799E-07 -1
vn 3.73786776E-07 0 -1
vn -0.562654495 0.472125769 -0.67861414
vn -0.665383458 3.53947172E-07 -0.746501744
vn 0.338530123 -2.26836119E-06 -0.940955639
vn -0.562652171 -0.472142577 -0.678604364
vn 0.378690809 0.214242518 -0.900385082
vn -0.272081614 0.83709079 -0.474605799
vn 0.378683358 -0.214267582 -0.90038228
vn -0.27208668 -0.837094784 -0.474595755
vn 0.488716304 0.371847332 -0.789231241
vn 0.12674053 0.976975679 -0.171625987
vn 0.706052482 -9.72912744E-07 -0.708159566
vn 0.488714039 -0.371866107 -0.78922385
vn 0.639775097 0.430610955 -0.636601985
vn 0.126739129 -0.976976216 -0.171623796
vn 0.515250981 0.842316508 0.158175215
vn 0.639772415 -0.430622369 -0.636596799
vn 0.515242815 -0.842320025 0.158182904
vn 0.791689873 0.373903811 -0.483138829
vn 0.773765445 0.479365766 0.414120108
vn 0.791684031 -0.373917937 -0.48313731
vn 0.773755908 -0.479378194 0.414123565
vn 0.903385401 0.21629639 -0.370284677
vn 0.860210001 2.31269769E-06 0.509939969
vn 0.903383613 -0.216316476 -0.370277226
vn 0.944361985 1.47908929E-06 -0.328907788
vn 0.18457143 0.31969133 0.929371119
vn 1.4432427E-06 0.369167536 0.929362893
vn 0.184579656 0.319686651 0.929371119
vn 1.44845831E-06 0.369167507 0.929362893
vn 0.319680572 0.184566215 0.929375887
vn -0.184572428 0.319705665 0.929366112
vn 0.319676697 0.184572935 0.929375887
vn -0.184575051 0.319704175 0.929366112
vn 0.369142294 -5.8527894E-06 0.929372907
vn -0.319690943 0.184581429 0.929369271
vn 0.369142294 1.09565408E-05 0.929372907
vn -0.319695145 0.184574112 0.929369271
vn 0.319693416 -0.184579611 0.929368854
vn -0.36916554 9.81050744E-06 0.929363608
vn 0.319696128 -0.184574768 0.929368854
vn -0.36916557 -6.52184917E-06 0.929363608
vn 0.184579983 -0.319695294 0.929368138
vn -0.319692075 -0.184576198 0.929369986
vn 0.184586987 -0.319691241 0.929368138
vn -0.319697052 -0.1845676 0.929369986
vn 7.75657895E-07 -0.369164675 0.929363906
vn -0.184572205 -0.31968978 0.929371536
vn -2.91883055E-07 -0.369164675 0.929364026
vn -0.184563413 -0.319694877 0.929371536
vn 0.123522177 -0.0713184178 -0.989775777
vn 0.0713162199 -0.123527572 -0.989775181
vn 0.12352173 -0.0713191926 -0.989775777
vn 0.0713167116 -0.123527281 -0.989775181
vn 0.142630488 -1.67812311E-06 -0.989776015
vn 2.45232712E-07 -0.142637551 -0.989774942
vn 0.142630503 -1.4015535E-06 -0.989776015
vn 7.55955114E-07 -0.142637551 -0.989774942
vn 0.123525783 0.0713137239 -0.989775658
vn -0.0713144317 -0.123529531 -0.989775062
vn 0.123526312 0.0713128671 -0.989775658
vn -0.0713144913 -0.123529509 -0.989775062
vn 0.0713151023 0.123525403 -0.989775538
vn -0.123526208 -0.0713190287 -0.989775181
vn 0.0713168606 0.123524383 -0.989775538
vn -0.12352711 -0.0713175014 -0.989775181
vn 1.47806736E-06 0.142635658 -0.9897753
vn -0.142638147 -9.31856221E-07 -0.989774942
vn -2.30700107E-06 0.142635673 -0.9897753
vn -0.142638162 -1.24546966E-06 -0.989774942
vn -0.071317561 0.123526268 -0.9897753
vn -0.123529278 0.071314685 -0.989775062
vn -0.0713167787 0.12352673 -0.9897753
vn -0.123528928 0.0713153258 -0.989775062
vn 0.214921251 0.372247398 0.902906775
vn -7.79137224E-07 0.429816097 0.902916491
vn 0.214921936 0.37224707 0.902906775
vn 9.21093715E-07 0.429816067 0.902916491
vn 0.37224403 0.214914277 0.902909875
vn -0.214912862 0.372250736 0.902907431
vn 0.372243553 0.214915082 0.902909875
vn -0.214910686 0.372252017 0.902907431
vn 0.429798037 -1.58883813E-06 0.902925074
vn -0.372249156 0.214914277 0.902907848
vn 0.429798007 2.29105244E-05 0.902925074
vn -0.372250021 0.214912713 0.902907848
vn 0.372217596 -0.214905173 0.902922928
vn -0.429813862 2.17121192E-06 0.902917445
vn 0.372223377 -0.214895129 0.902922928
vn -0.429813862 4.52873905E-07 0.902917445
vn 0.214906961 -0.372242153 0.902912319
vn -0.372244716 -0.214920953 0.902907968
vn 0.214910433 -0.372240186 0.902912319
vn -0.372244984 -0.214920461 0.902908027
vn 1.24846829E-05 -0.429810703 0.902918994
vn -0.214913607 -0.372240692 0.902911425
vn -1.5182839E-05 -0.429810733 0.902918994
vn -0.214912251 -0.372241467 0.902911425
g ShouZhang_0
f 3/3/3 2/2/2 1/1/1
f 4/4/4 3/3/3 1/1/1
f 5/5/5 3/3/3 4/4/4
f 6/6/6 5/5/5 4/4/4
f 7/7/7 5/5/5 6/6/6
f 8/8/8 7/7/7 6/6/6
f 9/9/9 7/7/7 8/8/8
f 10/10/10 9/9/9 8/8/8
f 11/11/11 9/9/9 10/10/10
f 12/12/12 11/11/11 10/10/10
f 13/13/13 11/11/11 12/12/12
f 14/14/14 13/13/13 12/12/12
f 15/15/15 13/13/13 14/14/14
f 16/16/16 15/15/15 14/14/14
f 17/17/17 15/15/15 16/16/16
f 18/18/18 17/17/17 16/16/16
f 19/19/19 17/17/17 18/18/18
f 20/20/20 19/19/19 18/18/18
f 21/21/21 19/19/19 20/20/20
f 22/22/22 21/21/21 20/20/20
f 23/23/23 21/21/21 22/22/22
f 24/24/24 23/23/23 22/22/22
f 25/25/25 23/23/23 24/24/24
f 26/26/26 25/25/25 24/24/24
f 29/29/29 28/28/28 27/27/27
f 30/30/30 29/29/29 27/27/27
f 30/30/30 27/27/27 31/31/31
f 32/32/32 30/30/30 31/31/31
f 32/32/32 31/31/31 33/33/33
f 34/34/34 32/32/32 33/33/33
f 34/34/34 33/33/33 35/35/35
f 36/36/36 34/34/34 35/35/35
f 36/36/36 35/35/35 37/37/37
f 38/38/38 36/36/36 37/37/37
f 38/38/38 37/37/37 39/39/39
f 40/40/40 38/38/38 39/39/39
f 40/40/40 39/39/39 41/41/41
f 42/42/42 40/40/40 41/41/41
f 42/42/42 41/41/41 43/43/43
f 44/44/44 42/42/42 43/43/43
f 44/44/44 43/43/43 45/45/45
f 46/46/46 44/44/44 45/45/45
f 46/46/46 45/45/45 47/47/47
f 48/48/48 46/46/46 47/47/47
f 48/48/48 47/47/47 49/49/49
f 50/50/50 48/48/48 49/49/49
f 50/50/50 49/49/49 51/51/51
f 52/52/52 50/50/50 51/51/51
f 55/55/55 54/54/54 53/53/53
f 54/54/54 56/56/56 53/53/53
f 53/53/53 56/56/56 57/57/57
f 54/54/54 58/58/58 56/56/56
f 56/56/56 59/59/59 57/57/57
f 57/57/57 59/59/59 60/60/60
f 58/58/58 61/61/61 56/56/56
f 56/56/56 61/61/61 59/59/59
f 58/58/58 62/62/62 61/61/61
f 59/59/59 63/63/63 60/60/60
f 60/60/60 63/63/63 64/64/64
f 61/61/61 65/65/65 59/59/59
f 59/59/59 65/65/65 63/63/63
f 62/62/62 66/66/66 61/61/61
f 61/61/61 66/66/66 65/65/65
f 62/62/62 67/67/67 66/66/66
f 63/63/63 68/68/68 64/64/64
f 64/64/64 68/68/68 69/69/69
f 65/65/65 70/70/70 63/63/63
f 63/63/63 70/70/70 68/68/68
f 66/66/66 71/71/71 65/65/65
f 65/65/65 71/71/71 70/70/70
f 67/67/67 72/72/72 66/66/66
f 66/66/66 72/72/72 71/71/71
f 67/67/67 73/73/73 72/72/72
f 68/68/68 74/74/74 69/69/69
f 69/69/69 74/74/74 75/75/75
f 70/70/70 76/76/76 68/68/68
f 68/68/68 76/76/76 74/74/74
f 71/71/71 77/77/77 70/70/70
f 70/70/70 77/77/77 76/76/76
f 72/72/72 78/78/78 71/71/71
f 71/71/71 78/78/78 77/77/77
f 73/73/73 79/79/79 72/72/72
f 72/72/72 79/79/79 78/78/78
f 79/79/79 73/73/73 80/80/80
f 74/74/74 81/81/81 75/75/75
f 75/75/75 81/81/81 82/82/82
f 76/76/76 83/83/83 74/74/74
f 74/74/74 83/83/83 81/81/81
f 77/77/77 84/84/84 76/76/76
f 76/76/76 84/84/84 83/83/83
f 78/78/78 85/85/85 77/77/77
f 77/77/77 85/85/85 84/84/84
f 79/79/79 86/86/86 78/78/78
f 86/86/86 79/79/79 80/80/80
f 78/78/78 86/86/86 85/85/85
f 81/81/81 87/87/87 82/82/82
f 82/82/82 87/87/87 88/88/88
f 87/87/87 89/89/89 88/88/88
f 83/83/83 90/90/90 81/81/81
f 81/81/81 90/90/90 87/87/87
f 87/87/87 91/91/91 89/89/89
f 90/90/90 91/91/91 87/87/87
f 91/91/91 92/92/92 89/89/89
f 84/84/84 93/93/93 83/83/83
f 83/83/83 93/93/93 90/90/90
f 85/85/85 94/94/94 84/84/84
f 84/84/84 94/94/94 93/93/93
f 86/86/86 95/95/95 85/85/85
f 85/85/85 95/95/95 94/94/94
f 95/95/95 86/86/86 80/80/80
f 91/91/91 96/96/96 92/92/92
f 96/96/96 97/97/97 92/92/92
f 90/90/90 98/98/98 91/91/91
f 93/93/93 98/98/98 90/90/90
f 98/98/98 96/96/96 91/91/91
f 94/94/94 99/99/99 93/93/93
f 93/93/93 99/99/99 98/98/98
f 95/95/95 100/100/100 94/94/94
f 100/100/100 95/95/95 80/80/80
f 94/94/94 100/100/100 99/99/99
f 96/96/96 101/101/101 97/97/97
f 101/101/101 102/102/102 97/97/97
f 98/98/98 103/103/103 96/96/96
f 99/99/99 103/103/103 98/98/98
f 103/103/103 101/101/101 96/96/96
f 100/100/100 104/104/104 99/99/99
f 99/99/99 104/104/104 103/103/103
f 104/104/104 100/100/100 80/80/80
f 104/104/104 105/105/105 103/103/103
f 103/103/103 105/105/105 101/101/101
f 105/105/105 104/104/104 80/80/80
f 101/101/101 106/106/106 102/102/102
f 105/105/105 106/106/106 101/101/101
f 106/106/106 105/105/105 80/80/80
f 106/106/106 107/107/107 102/102/102
f 107/107/107 106/106/106 80/80/80
f 110/110/110 109/109/109 108/108/108
f 109/109/109 111/111/111 108/108/108
f 108/108/108 111/111/111 112/112/112
f 109/109/109 113/113/113 111/111/111
f 111/111/111 114/114/114 112/112/112
f 112/112/112 114/114/114 115/115/115
f 113/113/113 116/116/116 111/111/111
f 111/111/111 116/116/116 114/114/114
f 113/113/113 117/117/117 116/116/116
f 114/114/114 118/118/118 115/115/115
f 115/115/115 118/118/118 119/119/119
f 116/116/116 120/120/120 114/114/114
f 114/114/114 120/120/120 118/118/118
f 117/117/117 121/121/121 116/116/116
f 116/116/116 121/121/121 120/120/120
f 117/117/117 122/122/122 121/121/121
f 118/118/118 123/123/123 119/119/119
f 119/119/119 123/123/123 124/124/124
f 120/120/120 125/125/125 118/118/118
f 118/118/118 125/125/125 123/123/123
f 121/121/121 126/126/126 120/120/120
f 120/120/120 126/126/126 125/125/125
f 122/122/122 127/127/127 121/121/121
f 121/121/121 127/127/127 126/126/126
f 122/122/122 128/128/128 127/127/127
f 123/123/123 129/129/129 124/124/124
f 124/124/124 129/129/129 130/130/130
f 125/125/125 131/131/131 123/123/123
f 123/123/123 131/131/131 129/129/129
f 126/126/126 132/132/132 125/125/125
f 125/125/125 132/132/132 131/131/131
f 127/127/127 133/133/133 126/126/126
f 126/126/126 133/133/133 132/132/132
f 128/128/128 134/134/134 127/127/127
f 127/127/127 134/134/134 133/133/133
f 134/134/134 128/128/128 135/135/135
f 129/129/129 136/136/136 130/130/130
f 130/130/130 136/136/136 137/137/137
f 131/131/131 138/138/138 129/129/129
f 129/129/129 138/138/138 136/136/136
f 132/132/132 139/139/139 131/131/131
f 131/131/131 139/139/139 138/138/138
f 133/133/133 140/140/140 132/132/132
f 132/132/132 140/140/140 139/139/139
f 134/134/134 141/141/141 133/133/133
f 141/141/141 134/134/134 135/135/135
f 133/133/133 141/141/141 140/140/140
f 136/136/136 142/142/142 137/137/137
f 137/137/137 142/142/142 143/143/143
f 142/142/142 144/144/144 143/143/143
f 138/138/138 145/145/145 136/136/136
f 136/136/136 145/145/145 142/142/142
f 142/142/142 146/146/146 144/144/144
f 145/145/145 146/146/146 142/142/142
f 146/146/146 147/147/147 144/144/144
f 139/139/139 148/148/148 138/138/138
f 138/138/138 148/148/148 145/145/145
f 140/140/140 149/149/149 139/139/139
f 139/139/139 149/149/149 148/148/148
f 141/141/141 150/150/150 140/140/140
f 140/140/140 150/150/150 149/149/149
f 150/150/150 141/141/141 135/135/135
f 146/146/146 151/151/151 147/147/147
f 151/151/151 152/152/152 147/147/147
f 145/145/145 153/153/153 146/146/146
f 148/148/148 153/153/153 145/145/145
f 153/153/153 151/151/151 146/146/146
f 149/149/149 154/154/154 148/148/148
f 148/148/148 154/154/154 153/153/153
f 150/150/150 155/155/155 149/149/149
f 155/155/155 150/150/150 135/135/135
f 149/149/149 155/155/155 154/154/154
f 151/151/151 156/156/156 152/152/152
f 156/156/156 157/157/157 152/152/152
f 153/153/153 158/158/158 151/151/151
f 154/154/154 158/158/158 153/153/153
f 158/158/158 156/156/156 151/151/151
f 155/155/155 159/159/159 154/154/154
f 154/154/154 159/159/159 158/158/158
f 159/159/159 155/155/155 135/135/135
f 159/159/159 160/160/160 158/158/158
f 158/158/158 160/160/160 156/156/156
f 160/160/160 159/159/159 135/135/135
f 156/156/156 161/161/161 157/157/157
f 160/160/160 161/161/161 156/156/156
f 161/161/161 160/160/160 135/135/135
f 161/161/161 162/162/162 157/157/157
f 162/162/162 161/161/161 135/135/135
f 165/165/165 164/164/164 163/163/163
f 166/166/166 165/165/165 163/163/163
f 167/167/167 165/165/165 166/166/166
f 168/168/168 167/167/167 166/166/166
f 169/169/169 167/167/167 168/168/168
f 170/170/170 169/169/169 168/168/168
f 171/171/171 169/169/169 170/170/170
f 172/172/172 171/171/171 170/170/170
f 173/173/173 171/171/171 172/172/172
f 174/174/174 173/173/173 172/172/172
f 175/175/175 173/173/173 174/174/174
f 176/176/176 175/175/175 174/174/174
f 177/177/177 175/175/175 176/176/176
f 178/178/178 177/177/177 176/176/176
f 179/179/179 177/177/177 178/178/178
f 180/180/180 179/179/179 178/178/178
f 181/181/181 179/179/179 180/180/180
f 182/182/182 181/181/181 180/180/180
f 183/183/183 181/181/181 182/182/182
f 184/184/184 183/183/183 182/182/182
f 185/185/185 183/183/183 184/184/184
f 186/186/186 185/185/185 184/184/184
f 187/187/187 185/185/185 186/186/186
f 188/188/188 187/187/187 186/186/186
f 191/191/191 190/190/190 189/189/189
f 192/192/192 191/191/191 189/189/189
f 189/189/189 193/193/193 192/192/192
f 194/194/194 191/191/191 192/192/192
f 193/193/193 195/195/195 192/192/192
f 195/195/195 193/193/193 196/196/196
f 197/197/197 194/194/194 192/192/192
f 192/192/192 195/195/195 197/197/197
f 198/198/198 194/194/194 197/197/197
f 199/199/199 195/195/195 196/196/196
f 199/199/199 196/196/196 200/200/200
f 201/201/201 198/198/198 197/197/197
f 202/202/202 198/198/198 201/201/201
f 195/195/195 203/203/203 197/197/197
f 203/203/203 195/195/195 199/199/199
f 197/197/197 203/203/203 201/201/201
f 204/204/204 199/199/199 200/200/200
f 204/204/204 200/200/200 205/205/205
f 206/206/206 202/202/202 201/201/201
f 207/207/207 202/202/202 206/206/206
f 203/203/203 208/208/208 201/201/201
f 201/201/201 208/208/208 206/206/206
f 209/209/209 203/203/203 199/199/199
f 209/209/209 199/199/199 204/204/204
f 208/208/208 203/203/203 209/209/209
f 210/210/210 204/204/204 205/205/205
f 210/210/210 205/205/205 211/211/211
f 212/212/212 207/207/207 206/206/206
f 213/213/213 207/207/207 212/212/212
f 214/214/214 209/209/209 204/204/204
f 214/214/214 204/204/204 210/210/210
f 208/208/208 215/215/215 206/206/206
f 206/206/206 215/215/215 212/212/212
f 216/216/216 208/208/208 209/209/209
f 216/216/216 209/209/209 214/214/214
f 215/215/215 208/208/208 216/216/216
f 217/217/217 210/210/210 211/211/211
f 217/217/217 211/211/211 218/218/218
f 219/219/219 214/214/214 210/210/210
f 219/219/219 210/210/210 217/217/217
f 220/220/220 216/216/216 214/214/214
f 220/220/220 214/214/214 219/219/219
f 221/221/221 215/215/215 216/216/216
f 221/221/221 216/216/216 220/220/220
f 215/215/215 222/222/222 212/212/212
f 222/222/222 215/215/215 221/221/221
f 223/223/223 217/217/217 218/218/218
f 223/223/223 218/218/218 224/224/224
f 212/212/212 222/222/222 225/225/225
f 225/225/225 213/213/213 212/212/212
f 213/213/213 225/225/225 226/226/226
f 227/227/227 213/213/213 226/226/226
f 227/227/227 226/226/226 228/228/228
f 229/229/229 227/227/227 228/228/228
f 229/229/229 228/228/228 230/230/230
f 231/231/231 229/229/229 230/230/230
f 231/231/231 230/230/230 232/232/232
f 233/233/233 231/231/231 232/232/232
f 233/233/233 232/232/232 234/234/234
f 235/235/235 233/233/233 234/234/234
f 235/235/235 234/234/234 236/236/236
f 237/237/237 235/235/235 236/236/236
f 238/238/238 236/236/236 234/234/234
f 239/239/239 238/238/238 234/234/234
f 239/239/239 234/234/234 232/232/232
f 240/240/240 238/238/238 239/239/239
f 241/241/241 232/232/232 230/230/230
f 241/241/241 239/239/239 232/232/232
f 242/242/242 240/240/240 239/239/239
f 242/242/242 239/239/239 241/241/241
f 243/243/243 240/240/240 242/242/242
f 244/244/244 230/230/230 228/228/228
f 244/244/244 241/241/241 230/230/230
f 245/245/245 242/242/242 241/241/241
f 245/245/245 241/241/241 244/244/244
f 246/246/246 243/243/243 242/242/242
f 246/246/246 242/242/242 245/245/245
f 243/243/243 246/246/246 247/247/247
f 248/248/248 244/244/244 228/228/228
f 248/248/248 228/228/228 226/226/226
f 249/249/249 245/245/245 244/244/244
f 249/249/249 244/244/244 248/248/248
f 246/246/246 250/250/250 247/247/247
f 251/251/251 247/247/247 250/250/250
f 252/252/252 246/246/246 245/245/245
f 252/252/252 245/245/245 249/249/249
f 250/250/250 246/246/246 252/252/252
f 253/253/253 248/248/248 226/226/226
f 253/253/253 226/226/226 225/225/225
f 254/254/254 251/251/251 250/250/250
f 255/255/255 251/251/251 254/254/254
f 256/256/256 249/249/249 248/248/248
f 256/256/256 248/248/248 253/253/253
f 257/257/257 250/250/250 252/252/252
f 254/254/254 250/250/250 257/257/257
f 258/258/258 252/252/252 249/249/249
f 258/258/258 249/249/249 256/256/256
f 252/252/252 258/258/258 257/257/257
f 259/259/259 253/253/253 225/225/225
f 222/222/222 259/259/259 225/225/225
f 260/260/260 256/256/256 253/253/253
f 260/260/260 253/253/253 259/259/259
f 261/261/261 258/258/258 256/256/256
f 261/261/261 256/256/256 260/260/260
f 258/258/258 262/262/262 257/257/257
f 258/258/258 261/261/261 262/262/262
f 259/259/259 222/222/222 263/263/263
f 263/263/263 222/222/222 221/221/221
f 264/264/264 260/260/260 259/259/259
f 264/264/264 259/259/259 263/263/263
f 263/263/263 221/221/221 265/265/265
f 265/265/265 221/221/221 220/220/220
f 266/266/266 257/257/257 262/262/262
f 266/266/266 254/254/254 257/257/257
f 267/267/267 261/261/261 260/260/260
f 267/267/267 260/260/260 264/264/264
f 264/264/264 263/263/263 268/268/268
f 268/268/268 263/263/263 265/265/265
f 269/269/269 267/267/267 264/264/264
f 269/269/269 264/264/264 268/268/268
f 261/261/261 267/267/267 270/270/270
f 267/267/267 269/269/269 270/270/270
f 269/269/269 268/268/268 271/271/271
f 271/271/271 268/268/268 265/265/265
f 265/265/265 220/220/220 272/272/272
f 272/272/272 220/220/220 219/219/219
f 273/273/273 261/261/261 270/270/270
f 261/261/261 273/273/273 262/262/262
f 274/274/274 269/269/269 271/271/271
f 269/269/269 274/274/274 270/270/270
f 270/270/270 274/274/274 275/275/275
f 274/274/274 271/271/271 275/275/275
f 276/276/276 271/271/271 265/265/265
f 276/276/276 265/265/265 272/272/272
f 273/273/273 270/270/270 277/277/277
f 277/277/277 270/270/270 275/275/275
f 262/262/262 273/273/273 278/278/278
f 278/278/278 273/273/273 277/277/277
f 271/271/271 279/279/279 275/275/275
f 271/271/271 276/276/276 279/279/279
f 275/275/275 280/280/280 277/277/277
f 280/280/280 275/275/275 279/279/279
f 276/276/276 281/281/281 279/279/279
f 276/276/276 272/272/272 281/281/281
f 282/282/282 262/262/262 278/278/278
f 282/282/282 266/266/266 262/262/262
f 277/277/277 283/283/283 278/278/278
f 280/280/280 283/283/283 277/277/277
f 283/283/283 280/280/280 284/284/284
f 285/285/285 280/280/280 279/279/279
f 285/285/285 279/279/279 281/281/281
f 280/280/280 285/285/285 284/284/284
f 278/278/278 286/286/286 282/282/282
f 283/283/283 286/286/286 278/278/278
f 282/282/282 287/287/287 266/266/266
f 286/286/286 287/287/287 282/282/282
f 286/286/286 283/283/283 288/288/288
f 288/288/288 283/283/283 284/284/284
f 289/289/289 286/286/286 288/288/288
f 287/287/287 286/286/286 289/289/289
f 287/287/287 290/290/290 266/266/266
f 266/266/266 290/290/290 254/254/254
f 288/288/288 284/284/284 291/291/291
f 289/289/289 288/288/288 291/291/291
f 290/290/290 292/292/292 254/254/254
f 292/292/292 255/255/255 254/254/254
f 293/293/293 255/255/255 292/292/292
f 294/294/294 292/292/292 290/290/290
f 294/294/294 293/293/293 292/292/292
f 295/295/295 290/290/290 287/287/287
f 295/295/295 294/294/294 290/290/290
f 296/296/296 287/287/287 289/289/289
f 296/296/296 295/295/295 287/287/287
f 293/293/293 294/294/294 297/297/297
f 298/298/298 293/293/293 297/297/297
f 296/296/296 289/289/289 299/299/299
f 299/299/299 289/289/289 291/291/291
f 294/294/294 295/295/295 300/300/300
f 297/297/297 294/294/294 300/300/300
f 295/295/295 296/296/296 301/301/301
f 301/301/301 296/296/296 299/299/299
f 300/300/300 295/295/295 301/301/301
f 298/298/298 297/297/297 302/302/302
f 303/303/303 298/298/298 302/302/302
f 300/300/300 301/301/301 304/304/304
f 304/304/304 301/301/301 299/299/299
f 297/297/297 300/300/300 305/305/305
f 302/302/302 297/297/297 305/305/305
f 305/305/305 300/300/300 304/304/304
f 302/302/302 306/306/306 303/303/303
f 306/306/306 307/307/307 303/303/303
f 305/305/305 308/308/308 302/302/302
f 308/308/308 306/306/306 302/302/302
f 307/307/307 306/306/306 309/309/309
f 310/310/310 307/307/307 309/309/309
f 309/309/309 306/306/306 311/311/311
f 306/306/306 308/308/308 311/311/311
f 310/310/310 309/309/309 312/312/312
f 309/309/309 311/311/311 312/312/312
f 313/313/313 310/310/310 312/312/312
f 314/314/314 313/313/313 312/312/312
f 315/315/315 308/308/308 305/305/305
f 304/304/304 315/315/315 305/305/305
f 311/311/311 308/308/308 316/316/316
f 308/308/308 315/315/315 316/316/316
f 311/311/311 317/317/317 312/312/312
f 318/318/318 314/314/314 312/312/312
f 318/318/318 312/312/312 317/317/317
f 317/317/317 311/311/311 319/319/319
f 311/311/311 316/316/316 319/319/319
f 318/318/318 320/320/320 314/314/314
f 320/320/320 321/321/321 314/314/314
f 322/322/322 318/318/318 317/317/317
f 322/322/322 317/317/317 319/319/319
f 321/321/321 320/320/320 323/323/323
f 324/324/324 321/321/321 323/323/323
f 325/325/325 320/320/320 318/318/318
f 322/322/322 325/325/325 318/318/318
f 324/324/324 323/323/323 326/326/326
f 327/327/327 324/324/324 326/326/326
f 326/326/326 323/323/323 328/328/328
f 323/323/323 320/320/320 329/329/329
f 323/323/323 329/329/329 328/328/328
f 320/320/320 325/325/325 329/329/329
f 328/328/328 329/329/329 330/330/330
f 329/329/329 331/331/331 330/330/330
f 329/329/329 325/325/325 331/331/331
f 330/330/330 331/331/331 332/332/332
f 333/333/333 325/325/325 322/322/322
f 325/325/325 333/333/333 331/331/331
f 334/334/334 333/333/333 322/322/322
f 334/334/334 322/322/322 319/319/319
f 333/333/333 335/335/335 331/331/331
f 335/335/335 333/333/333 334/334/334
f 331/331/331 336/336/336 332/332/332
f 335/335/335 336/336/336 331/331/331
f 332/332/332 336/336/336 337/337/337
f 336/336/336 335/335/335 337/337/337
f 338/338/338 332/332/332 337/337/337
f 338/338/338 337/337/337 339/339/339
f 340/340/340 338/338/338 339/339/339
f 340/340/340 339/339/339 341/341/341
f 334/334/334 319/319/319 342/342/342
f 319/319/319 316/316/316 342/342/342
f 343/343/343 335/335/335 334/334/334
f 343/343/343 334/334/334 342/342/342
f 335/335/335 344/344/344 337/337/337
f 337/337/337 344/344/344 339/339/339
f 344/344/344 335/335/335 343/343/343
f 316/316/316 345/345/345 342/342/342
f 316/316/316 315/315/315 345/345/345
f 343/343/343 342/342/342 346/346/346
f 342/342/342 345/345/345 346/346/346
f 347/347/347 344/344/344 343/343/343
f 347/347/347 343/343/343 346/346/346
f 315/315/315 348/348/348 345/345/345
f 348/348/348 315/315/315 304/304/304
f 349/349/349 344/344/344 347/347/347
f 344/344/344 349/349/349 339/339/339
f 345/345/345 350/350/350 346/346/346
f 345/345/345 348/348/348 350/350/350
f 351/351/351 348/348/348 304/304/304
f 351/351/351 304/304/304 299/299/299
f 347/347/347 346/346/346 352/352/352
f 352/352/352 349/349/349 347/347/347
f 353/353/353 348/348/348 351/351/351
f 348/348/348 353/353/353 350/350/350
f 351/351/351 299/299/299 354/354/354
f 354/354/354 353/353/353 351/351/351
f 299/299/299 291/291/291 354/354/354
f 346/346/346 350/350/350 355/355/355
f 346/346/346 355/355/355 352/352/352
f 350/350/350 353/353/353 356/356/356
f 350/350/350 356/356/356 355/355/355
f 357/357/357 353/353/353 354/354/354
f 353/353/353 357/357/357 356/356/356
f 354/354/354 291/291/291 358/358/358
f 358/358/358 357/357/357 354/354/354
f 291/291/291 359/359/359 358/358/358
f 284/284/284 359/359/359 291/291/291
f 359/359/359 360/360/360 358/358/358
f 359/359/359 284/284/284 360/360/360
f 357/357/357 358/358/358 361/361/361
f 360/360/360 361/361/361 358/358/358
f 357/357/357 362/362/362 356/356/356
f 362/362/362 357/357/357 361/361/361
f 355/355/355 356/356/356 363/363/363
f 362/362/362 363/363/363 356/356/356
f 355/355/355 364/364/364 352/352/352
f 364/364/364 355/355/355 363/363/363
f 284/284/284 365/365/365 360/360/360
f 285/285/285 365/365/365 284/284/284
f 285/285/285 366/366/366 365/365/365
f 366/366/366 285/285/285 281/281/281
f 360/360/360 365/365/365 367/367/367
f 366/366/366 367/367/367 365/365/365
f 360/360/360 368/368/368 361/361/361
f 368/368/368 360/360/360 367/367/367
f 362/362/362 361/361/361 369/369/369
f 368/368/368 369/369/369 361/361/361
f 362/362/362 370/370/370 363/363/363
f 370/370/370 362/362/362 369/369/369
f 366/366/366 281/281/281 371/371/371
f 272/272/272 371/371/371 281/281/281
f 366/366/366 372/372/372 367/367/367
f 372/372/372 366/366/366 371/371/371
f 371/371/371 272/272/272 373/373/373
f 372/372/372 371/371/371 373/373/373
f 272/272/272 219/219/219 373/373/373
f 373/373/373 219/219/219 217/217/217
f 374/374/374 373/373/373 217/217/217
f 374/374/374 372/372/372 373/373/373
f 223/223/223 374/374/374 217/217/217
f 372/372/372 375/375/375 367/367/367
f 368/368/368 367/367/367 375/375/375
f 369/369/369 368/368/368 376/376/376
f 370/370/370 369/369/369 376/376/376
f 372/372/372 374/374/374 377/377/377
f 375/375/375 372/372/372 377/377/377
f 374/374/374 223/223/223 378/378/378
f 377/377/377 374/374/374 378/378/378
f 378/378/378 223/223/223 224/224/224
f 379/379/379 368/368/368 375/375/375
f 379/379/379 375/375/375 377/377/377
f 368/368/368 379/379/379 376/376/376
f 380/380/380 379/379/379 377/377/377
f 380/380/380 377/377/377 378/378/378
f 379/379/379 380/380/380 376/376/376
f 381/381/381 378/378/378 224/224/224
f 381/381/381 380/380/380 378/378/378
f 382/382/382 381/381/381 224/224/224
f 380/380/380 383/383/383 376/376/376
f 380/380/380 381/381/381 383/383/383
f 381/381/381 382/382/382 384/384/384
f 381/381/381 384/384/384 383/383/383
f 382/382/382 385/385/385 384/384/384
f 386/386/386 376/376/376 383/383/383
f 386/386/386 370/370/370 376/376/376
f 387/387/387 383/383/383 384/384/384
f 387/387/387 386/386/386 383/383/383
f 388/388/388 384/384/384 385/385/385
f 388/388/388 387/387/387 384/384/384
f 389/389/389 388/388/388 385/385/385
f 370/370/370 386/386/386 390/390/390
f 370/370/370 390/390/390 363/363/363
f 364/364/364 363/363/363 390/390/390
f 386/386/386 387/387/387 391/391/391
f 386/386/386 391/391/391 390/390/390
f 387/387/387 388/388/388 392/392/392
f 387/387/387 392/392/392 391/391/391
f 388/388/388 389/389/389 393/393/393
f 388/388/388 393/393/393 392/392/392
f 389/389/389 394/394/394 393/393/393
f 395/395/395 393/393/393 394/394/394
f 392/392/392 393/393/393 395/395/395
f 396/396/396 395/395/395 394/394/394
f 395/395/395 396/396/396 397/397/397
f 398/398/398 390/390/390 391/391/391
f 398/398/398 364/364/364 390/390/390
f 399/399/399 391/391/391 392/392/392
f 399/399/399 398/398/398 391/391/391
f 400/400/400 392/392/392 395/395/395
f 400/400/400 399/399/399 392/392/392
f 401/401/401 395/395/395 397/397/397
f 400/400/400 395/395/395 401/401/401
f 399/399/399 400/400/400 402/402/402
f 402/402/402 400/400/400 401/401/401
f 398/398/398 399/399/399 403/403/403
f 403/403/403 399/399/399 402/402/402
f 364/364/364 398/398/398 404/404/404
f 404/404/404 398/398/398 403/403/403
f 405/405/405 401/401/401 397/397/397
f 406/406/406 405/405/405 397/397/397
f 407/407/407 402/402/402 401/401/401
f 405/405/405 407/407/407 401/401/401
f 408/408/408 403/403/403 402/402/402
f 407/407/407 408/408/408 402/402/402
f 405/405/405 406/406/406 409/409/409
f 406/406/406 410/410/410 409/409/409
f 411/411/411 407/407/407 405/405/405
f 409/409/409 411/411/411 405/405/405
f 409/409/409 410/410/410 412/412/412
f 410/410/410 413/413/413 412/412/412
f 409/409/409 412/412/412 414/414/414
f 411/411/411 409/409/409 414/414/414
f 411/411/411 414/414/414 415/415/415
f 411/411/411 416/416/416 407/407/407
f 416/416/416 411/411/411 415/415/415
f 416/416/416 408/408/408 407/407/407
f 416/416/416 415/415/415 417/417/417
f 408/408/408 418/418/418 403/403/403
f 418/418/418 404/404/404 403/403/403
f 408/408/408 416/416/416 419/419/419
f 419/419/419 416/416/416 417/417/417
f 418/418/418 408/408/408 419/419/419
f 420/420/420 419/419/419 417/417/417
f 418/418/418 419/419/419 420/420/420
f 341/341/341 420/420/420 417/417/417
f 339/339/339 420/420/420 341/341/341
f 421/421/421 418/418/418 420/420/420
f 421/421/421 420/420/420 339/339/339
f 418/418/418 421/421/421 404/404/404
f 349/349/349 421/421/421 339/339/339
f 421/421/421 422/422/422 404/404/404
f 421/421/421 349/349/349 422/422/422
f 422/422/422 364/364/364 404/404/404
f 349/349/349 352/352/352 422/422/422
f 364/364/364 422/422/422 352/352/352
f 425/425/425 424/424/424 423/423/423
f 424/424/424 426/426/426 423/423/423
f 427/427/427 425/425/425 423/423/423
f 426/426/426 428/428/428 423/423/423
f 429/429/429 427/427/427 423/423/423
f 428/428/428 430/430/430 423/423/423
f 431/431/431 429/429/429 423/423/423
f 430/430/430 432/432/432 423/423/423
f 433/433/433 431/431/431 423/423/423
f 432/432/432 434/434/434 423/423/423
f 435/435/435 433/433/433 423/423/423
f 434/434/434 435/435/435 423/423/423
f 438/438/438 437/437/437 436/436/436
f 437/437/437 438/438/438 439/439/439
f 440/440/440 438/438/438 436/436/436
f 440/440/440 436/436/436 441/441/441
f 438/438/438 442/442/442 439/439/439
f 439/439/439 442/442/442 443/443/443
f 444/444/444 440/440/440 441/441/441
f 444/444/444 441/441/441 445/445/445
f 440/440/440 446/446/446 438/438/438
f 438/438/438 446/446/446 442/442/442
f 444/444/444 446/446/446 440/440/440
f 442/442/442 446/446/446 447/447/447
f 442/442/442 447/447/447 443/443/443
f 448/448/448 446/446/446 444/444/444
f 448/448/448 444/444/444 445/445/445
f 443/443/443 447/447/447 449/449/449
f 448/448/448 445/445/445 450/450/450
f 447/447/447 451/451/451 449/449/449
f 447/447/447 446/446/446 451/451/451
f 449/449/449 451/451/451 452/452/452
f 453/453/453 448/448/448 450/450/450
f 453/453/453 446/446/446 448/448/448
f 453/453/453 450/450/450 454/454/454
f 451/451/451 455/455/455 452/452/452
f 451/451/451 446/446/446 455/455/455
f 452/452/452 455/455/455 456/456/456
f 457/457/457 453/453/453 454/454/454
f 457/457/457 446/446/446 453/453/453
f 457/457/457 454/454/454 458/458/458
f 455/455/455 459/459/459 456/456/456
f 455/455/455 446/446/446 459/459/459
f 456/456/456 459/459/459 458/458/458
f 460/460/460 457/457/457 458/458/458
f 460/460/460 446/446/446 457/457/457
f 459/459/459 460/460/460 458/458/458
f 459/459/459 446/446/446 460/460/460
f 463/463/463 462/462/462 461/461/461
f 462/462/462 464/464/464 461/461/461
f 463/463/463 461/461/461 465/465/465
f 462/462/462 466/466/466 464/464/464
f 467/467/467 463/463/463 465/465/465
f 466/466/466 468/468/468 464/464/464
f 467/467/467 465/465/465 469/469/469
f 466/466/466 470/470/470 468/468/468
f 471/471/471 467/467/467 469/469/469
f 470/470/470 472/472/472 468/468/468
f 471/471/471 469/469/469 473/473/473
f 470/470/470 474/474/474 472/472/472
f 475/475/475 471/471/471 473/473/473
f 474/474/474 476/476/476 472/472/472
f 475/475/475 473/473/473 477/477/477
f 474/474/474 478/478/478 476/476/476
f 479/479/479 475/475/475 477/477/477
f 478/478/478 480/480/480 476/476/476
f 479/479/479 477/477/477 481/481/481
f 478/478/478 482/482/482 480/480/480
f 483/483/483 479/479/479 481/481/481
f 482/482/482 484/484/484 480/480/480
f 483/483/483 481/481/481 484/484/484
f 482/482/482 483/483/483 484/484/484
f 487/487/487 486/486/486 485/485/485
f 486/486/486 488/488/488 485/485/485
f 487/487/487 485/485/485 489/489/489
f 486/486/486 490/490/490 488/488/488
f 491/491/491 487/487/487 489/489/489
f 490/490/490 492/492/492 488/488/488
f 491/491/491 489/489/489 493/493/493
f 490/490/490 494/494/494 492/492/492
f 495/495/495 491/491/491 493/493/493
f 494/494/494 496/496/496 492/492/492
f 495/495/495 493/493/493 497/497/497
f 494/494/494 498/498/498 496/496/496
f 499/499/499 495/495/495 497/497/497
f 498/498/498 500/500/500 496/496/496
f 499/499/499 497/497/497 501/501/501
f 498/498/498 502/502/502 500/500/500
f 503/503/503 499/499/499 501/501/501
f 502/502/502 504/504/504 500/500/500
f 503/503/503 501/501/501 505/505/505
f 502/502/502 506/506/506 504/504/504
f 507/507/507 503/503/503 505/505/505
f 506/506/506 508/508/508 504/504/504
f 507/507/507 505/505/505 508/508/508
f 506/506/506 507/507/507 508/508/508
f 511/511/511 510/510/510 509/509/509
f 510/510/510 512/512/512 509/509/509
f 511/511/511 509/509/509 513/513/513
f 510/510/510 514/514/514 512/512/512
f 515/515/515 511/511/511 513/513/513
f 514/514/514 516/516/516 512/512/512
f 515/515/515 513/513/513 517/517/517
f 514/514/514 518/518/518 516/516/516
f 519/519/519 515/515/515 517/517/517
f 518/518/518 520/520/520 516/516/516
f 519/519/519 517/517/517 521/521/521
f 518/518/518 522/522/522 520/520/520
f 523/523/523 519/519/519 521/521/521
f 522/522/522 524/524/524 520/520/520
f 523/523/523 521/521/521 525/525/525
f 522/522/522 526/526/526 524/524/524
f 527/527/527 523/523/523 525/525/525
f 526/526/526 528/528/528 524/524/524
f 527/527/527 525/525/525 529/529/529
f 526/526/526 530/530/530 528/528/528
f 531/531/531 527/527/527 529/529/529
f 530/530/530 532/532/532 528/528/528
f 531/531/531 529/529/529 532/532/532
f 530/530/530 531/531/531 532/532/532
