g DiZhu_Pai03
v -0.393870652 -0.885989845 0.621108115
v -0.39665255 -0.882122993 0.625223577
v -0.403125077 -0.887730241 0.627642095
v -0.388901621 -0.882395506 0.623446107
v -0.40004456 -0.891338408 0.623415112
v -0.403116167 -0.893788517 0.628610075
v -0.386477411 -0.88624984 0.61941272
v -0.245574147 -0.887435973 0.590578318
v -0.393861353 -0.892311752 0.622118175
v -0.400035977 -0.897117078 0.624338329
v -0.39987883 -1.00397587 0.641411483
v -0.40295139 -1.00581658 0.646509051
v -0.393689305 -1.00921595 0.640796244
v -0.399870336 -1.00975454 0.642334759
v -0.402942449 -1.01187479 0.647477031
v -0.396452755 -1.01793778 0.646923065
v -0.393680036 -1.01553786 0.641806304
v -0.388701826 -1.01821041 0.645145655
v -0.386468083 -0.892571747 0.620422781
v -0.386296064 -1.00947595 0.63910085
v -0.386286765 -1.01579785 0.64011091
v -0.249763384 -0.89105767 0.588061512
v -0.249572769 -1.0206058 0.608759701
v -0.245374292 -1.02325082 0.612277806
v -0.249754086 -0.897379637 0.589071572
v -0.242370173 -0.891317725 0.586366117
v -0.237823248 -0.887708545 0.588800848
v -0.231333524 -0.893771648 0.588246942
v -0.249582082 -1.01428378 0.607749641
v -0.242179543 -1.02086568 0.607064307
v -0.237623453 -1.02352333 0.610500395
v -0.231150851 -1.0179162 0.608081818
v -0.236179873 -0.897101045 0.585837722
v -0.231324628 -0.899829865 0.589214861
v -0.24236089 -0.897639573 0.587376177
v -0.242188856 -1.01454377 0.606054246
v -0.236005679 -1.01551712 0.604757369
v -0.231159791 -1.01185799 0.607113898
v -0.23617138 -0.902879715 0.586760938
v -0.236014172 -1.00973845 0.603834093
v -0.240595967 -0.890108526 0.593917608
v -0.237823248 -0.887708545 0.588800848
v -0.231333524 -0.893771648 0.588246942
v -0.245574147 -0.887435973 0.590578318
v -0.234405652 -0.895891905 0.593389213
v -0.231324628 -0.899829865 0.589214861
v -0.247989178 -0.88984853 0.595613003
v -0.388901621 -0.882395506 0.623446107
v -0.240586653 -0.896430492 0.594927669
v -0.234397143 -0.901670575 0.594312489
v -0.234239936 -1.00852931 0.611385584
v -0.231159791 -1.01185799 0.607113898
v -0.240414619 -1.01333463 0.613605738
v -0.234231472 -1.01430798 0.61230886
v -0.231150851 -1.0179162 0.608081818
v -0.240405351 -1.01965654 0.614615858
v -0.237623453 -1.02352333 0.610500395
v -0.245374292 -1.02325082 0.612277806
v -0.24797985 -0.896170497 0.596623063
v -0.247807845 -1.01307464 0.615301132
v -0.247798532 -1.01939654 0.616311252
v -0.384703159 -0.8850407 0.626964211
v -0.384512544 -1.01458871 0.647662401
v -0.388701826 -1.01821041 0.645145655
v -0.384693831 -0.891362667 0.627974272
v -0.3920964 -0.884780705 0.628659606
v -0.39665255 -0.882122993 0.625223577
v -0.403125077 -0.887730241 0.627642095
v -0.384521812 -1.00826669 0.646652341
v -0.391905785 -1.01432872 0.649357915
v -0.396452755 -1.01793778 0.646923065
v -0.398270339 -0.890129209 0.630966604
v -0.403116167 -0.893788517 0.628610075
v -0.392087102 -0.891102672 0.629669726
v -0.391915083 -1.00800669 0.648347735
v -0.398096085 -1.0085454 0.64988625
v -0.402942449 -1.01187479 0.647477031
v -0.40295139 -1.00581658 0.646509051
v -0.398261756 -0.895907879 0.63188982
v -0.398104578 -1.00276673 0.648962975
vt 0.0215483867 0.97464335
vt 0.0116298115 0.983688831
vt 0.0175696723 0.990104437
vt 0.00892664026 0.97552371
vt 0.0246372037 0.977273822
vt 0.0238286741 0.992519021
vt 0.0211796388 0.97105813
vt 0.00945853349 0.883443773
vt 0.0243537165 0.974552155
vt 0.0272625871 0.977492452
vt 0.0858898684 0.977450132
vt 0.0891530737 0.992469549
vt 0.0888313651 0.974504232
vt 0.0885166302 0.977228403
vt 0.0954443142 0.990040302
vt 0.101455428 0.983609915
vt 0.0916347951 0.974590421
vt 0.104248933 0.975443244
vt 0.0243343972 0.970991373
vt 0.0888911933 0.970941782
vt 0.0920456275 0.97100246
vt 0.0216618329 0.887884557
vt 0.0925277993 0.887828231
vt 0.104780771 0.88336271
vt 0.0248162188 0.887945175
vt 0.0220726877 0.884297073
vt 0.0122520356 0.875277519
vt 0.0182631537 0.86884737
vt 0.089373067 0.887894869
vt 0.0921590254 0.884242654
vt 0.10207767 0.875197113
vt 0.096137844 0.868781269
vt 0.025190901 0.88165921
vt 0.0245542638 0.866418064
vt 0.0248760916 0.884383202
vt 0.0893537924 0.884333909
vt 0.0890703052 0.881611824
vt 0.0898786411 0.866366565
vt 0.0278176405 0.88143754
vt 0.0864449739 0.881393313
vt 0.0186255015 0.777992368
vt 0.0133213466 0.768832803
vt 0.0095765423 0.774385393
vt 0.0181026272 0.766256213
vt 0.0170786157 0.780883729
vt 0.00816086866 0.780210674
vt 0.020719409 0.777624607
vt 0.0719838887 0.766277552
vt 0.0186712109 0.780604303
vt 0.0169467628 0.783327878
vt 0.016870033 0.837903142
vt 0.00807294808 0.840988219
vt 0.0185875557 0.840619922
vt 0.0169965886 0.840352118
vt 0.00947487541 0.846826792
vt 0.0185359605 0.843232393
vt 0.0132308668 0.852406502
vt 0.0180117302 0.854972959
vt 0.0207515657 0.780565202
vt 0.0206695125 0.840654194
vt 0.0206315145 0.843592942
vt 0.0693640485 0.777657568
vt 0.0692759082 0.843625844
vt 0.0718927905 0.854994059
vt 0.0693260059 0.780596256
vt 0.0714598075 0.778018117
vt 0.0767648295 0.768843949
vt 0.0805208907 0.774423778
vt 0.0692437068 0.840685248
vt 0.0713696256 0.843257904
vt 0.0766738281 0.85241729
vt 0.072999157 0.780898333
vt 0.081922695 0.780262291
vt 0.07140816 0.78063035
vt 0.0713238418 0.840645909
vt 0.0729163885 0.840366364
vt 0.0804184303 0.8468647
vt 0.0818339884 0.841039538
vt 0.0731256604 0.783347309
vt 0.0730481148 0.837922275
vn -0.332179099 0.27827388 -0.901232898
vn -0.460608661 0.886959672 -0.0337988026
vn -0.828769684 0.549311101 0.106761679
vn -0.00145276345 0.987474442 -0.157772824
vn -0.569368184 0.0604708642 -0.819855571
vn -0.974127471 0.0342579633 0.223387673
vn -0.20275192 0.304178357 -0.930788457
vn -0.00145275646 0.987474442 -0.157772258
vn -0.225995764 -0.154014155 -0.961875975
vn -0.533709168 -0.134188145 -0.834953904
vn -0.53371197 -0.134187803 -0.834952235
vn -0.974128008 0.0342578329 0.223385438
vn -0.225996494 -0.154014066 -0.961875975
vn -0.568820596 -0.314553201 -0.759933829
vn -0.827233851 -0.491077751 0.272995919
vn -0.458040297 -0.854655504 0.244464621
vn -0.3309654 -0.546188176 -0.769506633
vn 0.00145519769 -0.987474561 0.157771945
vn -0.225993007 -0.154013902 -0.96187675
vn -0.225993171 -0.154013947 -0.96187675
vn -0.201451719 -0.579645038 -0.7895751
vn -0.202752426 0.304178357 -0.930788338
vn -0.201451778 -0.579645097 -0.78957504
vn 0.00145491294 -0.98747462 0.157771096
vn -0.225993201 -0.154013932 -0.96187675
vn -0.0754064918 0.269237816 -0.960117042
vn 0.45804441 0.85465169 -0.244470567
vn 0.827234685 0.491077244 -0.272994488
vn -0.225993231 -0.154013917 -0.961876631
vn -0.0741877258 -0.55521667 -0.82839036
vn 0.460610986 -0.886958063 0.033806216
vn 0.828772306 -0.549308598 -0.106753975
vn 0.158440202 0.0348776504 -0.986752391
vn 0.974127233 -0.0342581831 -0.223388582
vn -0.225995272 -0.15401417 -0.961876094
vn -0.225995228 -0.154013947 -0.961876214
vn 0.158988371 -0.340150118 -0.92683363
vn 0.974128366 -0.0342573337 -0.223384127
vn 0.106851377 -0.156715497 -0.98184675
vn 0.106851079 -0.156715453 -0.98184675
vn 0.33097139 0.546189308 0.769503176
vn 0.45804441 0.85465169 -0.244470567
vn 0.827234685 0.491077244 -0.272994488
vn -0.00145275646 0.987474442 -0.157772258
vn 0.568813443 0.314554423 0.759938657
vn 0.974127233 -0.0342581831 -0.223388582
vn 0.201449975 0.579639316 0.789579749
vn -0.00145276345 0.987474442 -0.157772824
vn 0.225991547 0.154013991 0.961877108
vn 0.533705115 0.134188548 0.834956348
vn 0.533704281 0.134188682 0.834956944
vn 0.974128366 -0.0342573337 -0.223384127
vn 0.225991413 0.154014096 0.961877108
vn 0.56936723 -0.060472779 0.819856048
vn 0.828772306 -0.549308598 -0.106753975
vn 0.332185954 -0.278272688 0.901230752
vn 0.460610986 -0.886958063 0.033806216
vn 0.00145491294 -0.98747462 0.157771096
vn 0.225993171 0.154013991 0.961876631
vn 0.22599338 0.15401423 0.961876631
vn 0.202752456 -0.304179549 0.93078804
vn 0.201449692 0.579639792 0.789579511
vn 0.202752337 -0.304180264 0.930787742
vn 0.00145519769 -0.987474561 0.157771945
vn 0.225993574 0.154014021 0.961876512
vn 0.0741887018 0.555218935 0.82838881
vn -0.460608661 0.886959672 -0.0337988026
vn -0.828769684 0.549311101 0.106761679
vn 0.225993782 0.15401423 0.961876512
vn 0.0754045174 -0.269242883 0.96011585
vn -0.458040297 -0.854655504 0.244464621
vn -0.158992887 0.340151221 0.926832497
vn -0.974127471 0.0342579633 0.223387673
vn 0.225996718 0.154014334 0.961875856
vn 0.225996375 0.154014319 0.961875856
vn -0.158432901 -0.0348796509 0.986753404
vn -0.827233851 -0.491077751 0.272995919
vn -0.974128008 0.0342578329 0.223385438
vn -0.106844693 0.156714946 0.981847525
vn -0.106846862 0.156714886 0.981847346
g DiZhu_Pai03_0
f 3/3/3 2/2/2 1/1/1
f 2/2/2 4/4/4 1/1/1
f 5/5/5 3/3/3 1/1/1
f 3/3/3 5/5/5 6/6/6
f 4/4/4 7/7/7 1/1/1
f 4/4/4 8/8/8 7/7/7
f 1/1/1 9/9/9 5/5/5
f 1/1/1 7/7/7 9/9/9
f 5/5/5 10/10/10 6/6/6
f 9/9/9 10/10/10 5/5/5
f 6/6/6 10/10/10 11/11/11
f 12/12/12 6/6/6 11/11/11
f 9/9/9 13/13/13 10/10/10
f 13/13/13 11/11/11 10/10/10
f 12/12/12 11/11/11 14/14/14
f 14/14/14 11/11/11 13/13/13
f 15/15/15 12/12/12 14/14/14
f 16/16/16 15/15/15 14/14/14
f 17/17/17 16/16/16 14/14/14
f 17/17/17 14/14/14 13/13/13
f 16/16/16 17/17/17 18/18/18
f 7/7/7 19/19/19 9/9/9
f 9/9/9 19/19/19 13/13/13
f 13/13/13 20/20/20 17/17/17
f 19/19/19 20/20/20 13/13/13
f 17/17/17 21/21/21 18/18/18
f 20/20/20 21/21/21 17/17/17
f 19/19/19 7/7/7 22/22/22
f 8/8/8 22/22/22 7/7/7
f 18/18/18 21/21/21 23/23/23
f 24/24/24 18/18/18 23/23/23
f 19/19/19 25/25/25 20/20/20
f 25/25/25 19/19/19 22/22/22
f 26/26/26 22/22/22 8/8/8
f 25/25/25 22/22/22 26/26/26
f 27/27/27 26/26/26 8/8/8
f 27/27/27 28/28/28 26/26/26
f 20/20/20 29/29/29 21/21/21
f 25/25/25 29/29/29 20/20/20
f 29/29/29 23/23/23 21/21/21
f 24/24/24 23/23/23 30/30/30
f 31/31/31 24/24/24 30/30/30
f 32/32/32 31/31/31 30/30/30
f 28/28/28 33/33/33 26/26/26
f 28/28/28 34/34/34 33/33/33
f 35/35/35 25/25/25 26/26/26
f 29/29/29 25/25/25 35/35/35
f 26/26/26 33/33/33 35/35/35
f 23/23/23 29/29/29 36/36/36
f 30/30/30 23/23/23 36/36/36
f 36/36/36 29/29/29 35/35/35
f 37/37/37 32/32/32 30/30/30
f 30/30/30 36/36/36 37/37/37
f 32/32/32 37/37/37 38/38/38
f 34/34/34 39/39/39 33/33/33
f 33/33/33 39/39/39 35/35/35
f 34/34/34 38/38/38 39/39/39
f 36/36/36 35/35/35 40/40/40
f 36/36/36 40/40/40 37/37/37
f 35/35/35 39/39/39 40/40/40
f 38/38/38 40/40/40 39/39/39
f 37/37/37 40/40/40 38/38/38
f 43/43/43 42/42/42 41/41/41
f 42/42/42 44/44/44 41/41/41
f 45/45/45 43/43/43 41/41/41
f 43/43/43 45/45/45 46/46/46
f 44/44/44 47/47/47 41/41/41
f 44/44/44 48/48/48 47/47/47
f 41/41/41 49/49/49 45/45/45
f 41/41/41 47/47/47 49/49/49
f 45/45/45 50/50/50 46/46/46
f 49/49/49 50/50/50 45/45/45
f 46/46/46 50/50/50 51/51/51
f 52/52/52 46/46/46 51/51/51
f 50/50/50 49/49/49 53/53/53
f 51/51/51 50/50/50 53/53/53
f 52/52/52 51/51/51 54/54/54
f 54/54/54 51/51/51 53/53/53
f 55/55/55 52/52/52 54/54/54
f 55/55/55 54/54/54 56/56/56
f 56/56/56 54/54/54 53/53/53
f 57/57/57 55/55/55 56/56/56
f 57/57/57 56/56/56 58/58/58
f 47/47/47 59/59/59 49/49/49
f 49/49/49 59/59/59 53/53/53
f 53/53/53 60/60/60 56/56/56
f 59/59/59 60/60/60 53/53/53
f 56/56/56 61/61/61 58/58/58
f 60/60/60 61/61/61 56/56/56
f 59/59/59 47/47/47 62/62/62
f 48/48/48 62/62/62 47/47/47
f 58/58/58 61/61/61 63/63/63
f 64/64/64 58/58/58 63/63/63
f 59/59/59 65/65/65 60/60/60
f 65/65/65 59/59/59 62/62/62
f 66/66/66 62/62/62 48/48/48
f 65/65/65 62/62/62 66/66/66
f 67/67/67 66/66/66 48/48/48
f 67/67/67 68/68/68 66/66/66
f 60/60/60 69/69/69 61/61/61
f 65/65/65 69/69/69 60/60/60
f 69/69/69 63/63/63 61/61/61
f 64/64/64 63/63/63 70/70/70
f 71/71/71 64/64/64 70/70/70
f 68/68/68 72/72/72 66/66/66
f 68/68/68 73/73/73 72/72/72
f 74/74/74 65/65/65 66/66/66
f 69/69/69 65/65/65 74/74/74
f 66/66/66 72/72/72 74/74/74
f 63/63/63 69/69/69 75/75/75
f 70/70/70 63/63/63 75/75/75
f 75/75/75 69/69/69 74/74/74
f 71/71/71 70/70/70 76/76/76
f 70/70/70 75/75/75 76/76/76
f 77/77/77 71/71/71 76/76/76
f 77/77/77 76/76/76 78/78/78
f 73/73/73 79/79/79 72/72/72
f 72/72/72 79/79/79 74/74/74
f 73/73/73 78/78/78 79/79/79
f 75/75/75 74/74/74 80/80/80
f 75/75/75 80/80/80 76/76/76
f 74/74/74 79/79/79 80/80/80
f 78/78/78 80/80/80 79/79/79
f 76/76/76 80/80/80 78/78/78
