g Pai001
v -0.312301248 -0.490270376 0.805425942
v -0.315169543 -0.495153785 0.808036089
v -0.322180122 -0.490710616 0.811004758
v -0.310530782 -0.495269269 0.80166477
v -0.318988323 -0.486032337 0.808257759
v -0.325431585 -0.486197919 0.808555722
v -0.307876557 -0.490380585 0.799348712
v -0.224752441 -0.497405112 0.683848321
v -0.315694243 -0.485561311 0.802870452
v -0.322089761 -0.481727779 0.805921614
v -0.379440933 -0.402129591 0.762722969
v -0.385557115 -0.402749181 0.763267338
v -0.378436893 -0.398480266 0.755610764
v -0.382542461 -0.397825032 0.760386944
v -0.388808638 -0.398236394 0.760818303
v -0.388061643 -0.393986315 0.753131747
v -0.381829798 -0.393771172 0.753055096
v -0.383422881 -0.394101828 0.746760488
v -0.311269552 -0.485671461 0.796793044
v -0.374012142 -0.398590505 0.749533534
v -0.377405107 -0.393881321 0.746977806
v -0.226056203 -0.492417902 0.686968625
v -0.295584768 -0.395918608 0.634597659
v -0.297644466 -0.396237701 0.62894398
v -0.229449213 -0.487708718 0.684412897
v -0.221631527 -0.492528051 0.680891335
v -0.22011368 -0.497520655 0.677477002
v -0.21936658 -0.493270665 0.669790566
v -0.292191803 -0.400627762 0.637153387
v -0.291160107 -0.396028787 0.628520429
v -0.293005705 -0.396353215 0.62257266
v -0.285995126 -0.400796354 0.619603992
v -0.220918939 -0.48847416 0.673559487
v -0.222618118 -0.488757879 0.667341471
v -0.225024492 -0.487818927 0.678335607
v -0.287767142 -0.400737911 0.631076097
v -0.284473032 -0.400266916 0.625688732
v -0.282743663 -0.405309081 0.622053146
v -0.224020362 -0.484169632 0.671223462
v -0.281371593 -0.404571414 0.628024876
v -0.226345435 -0.497735858 0.677553713
v -0.22011368 -0.497520655 0.677477002
v -0.21936658 -0.493270665 0.669790566
v -0.224752441 -0.497405112 0.683848321
v -0.225632831 -0.493681937 0.670221865
v -0.222618118 -0.488757879 0.667341471
v -0.230770126 -0.497625649 0.683630943
v -0.310530782 -0.495269269 0.80166477
v -0.229738399 -0.493026674 0.674997985
v -0.228734255 -0.489377469 0.66788578
v -0.286085516 -0.409779191 0.624687195
v -0.282743663 -0.405309081 0.622053146
v -0.292481065 -0.405945688 0.627738476
v -0.289186954 -0.405474693 0.62235111
v -0.285995126 -0.400796354 0.619603992
v -0.295874029 -0.401236564 0.625182748
v -0.293005705 -0.396353215 0.62257266
v -0.297644466 -0.396237701 0.62894398
v -0.23416312 -0.492916524 0.681075275
v -0.296905726 -0.405835509 0.633815765
v -0.300298691 -0.401126385 0.631260037
v -0.31259048 -0.495588362 0.796011031
v -0.38211906 -0.399089128 0.743640184
v -0.383422881 -0.394101828 0.746760488
v -0.315983444 -0.490879238 0.793455422
v -0.317015141 -0.495478153 0.80208832
v -0.315169543 -0.495153785 0.808036089
v -0.322180122 -0.490710616 0.811004758
v -0.378726035 -0.403798282 0.746195912
v -0.386543721 -0.398978949 0.749717474
v -0.388061643 -0.393986315 0.753131747
v -0.323702246 -0.491240114 0.804920077
v -0.325431585 -0.486197919 0.808555722
v -0.320408165 -0.490769058 0.799532831
v -0.383150786 -0.403688043 0.752273142
v -0.387256354 -0.40303278 0.757049322
v -0.388808638 -0.398236394 0.760818303
v -0.385557115 -0.402749181 0.763267338
v -0.326803654 -0.486935556 0.802583992
v -0.384154916 -0.407337308 0.759385347
vt 0.127944484 0.97464335
vt 0.118025862 0.983688831
vt 0.123965777 0.990104437
vt 0.115322731 0.97552371
vt 0.131033286 0.977273822
vt 0.130224779 0.992519021
vt 0.12757571 0.97105813
vt 0.115854643 0.883443773
vt 0.130749807 0.974552155
vt 0.133658692 0.977492452
vt 0.19228597 0.977450132
vt 0.19554913 0.992469549
vt 0.195227414 0.974504232
vt 0.194912702 0.977228403
vt 0.201840356 0.990040302
vt 0.207851529 0.983609915
vt 0.198030874 0.974590421
vt 0.210645035 0.975443244
vt 0.130730495 0.970991373
vt 0.195287287 0.970941782
vt 0.198441729 0.97100246
vt 0.128057882 0.887884557
vt 0.198923901 0.887828231
vt 0.211176872 0.88336271
vt 0.131212279 0.887945175
vt 0.128468737 0.884297073
vt 0.118648119 0.875277519
vt 0.124659263 0.86884737
vt 0.195769116 0.887894869
vt 0.198555082 0.884242654
vt 0.208473742 0.875197113
vt 0.202533945 0.868781269
vt 0.131586954 0.88165921
vt 0.130950347 0.866418064
vt 0.131272197 0.884383202
vt 0.195749894 0.884333909
vt 0.195466384 0.881611824
vt 0.196274742 0.866366565
vt 0.134213701 0.88143754
vt 0.192841023 0.881393313
vt 0.0983750597 0.777992368
vt 0.093070887 0.768832803
vt 0.0893260986 0.774385393
vt 0.097852163 0.766256213
vt 0.0968281552 0.780883729
vt 0.0879103988 0.780210674
vt 0.100468941 0.777624607
vt 0.151733443 0.766277552
vt 0.0984207466 0.780604303
vt 0.0966962948 0.783327878
vt 0.0966195688 0.837903142
vt 0.087822482 0.840988219
vt 0.0983371064 0.840619922
vt 0.0967461392 0.840352118
vt 0.0892243832 0.846826792
vt 0.098285459 0.843232393
vt 0.0929804221 0.852406502
vt 0.0977612361 0.854972959
vt 0.100501098 0.780565202
vt 0.100419037 0.840654194
vt 0.100381069 0.843592942
vt 0.149113551 0.777657568
vt 0.14902544 0.843625844
vt 0.151642323 0.854994059
vt 0.149075508 0.780596256
vt 0.151209295 0.778018117
vt 0.156514362 0.768843949
vt 0.160270423 0.774423778
vt 0.148993209 0.840685248
vt 0.151119158 0.843257904
vt 0.15642333 0.85241729
vt 0.152748689 0.780898333
vt 0.16167222 0.780262291
vt 0.151157647 0.78063035
vt 0.151073366 0.840645909
vt 0.152665943 0.840366364
vt 0.160167918 0.8468647
vt 0.161583513 0.841039538
vt 0.152875185 0.783347309
vt 0.152797669 0.837922275
vn 0.690743446 0.294016093 0.660627007
vn 0.194295153 -0.647907436 0.736522555
vn -0.218406484 -0.378712982 0.899374902
vn 0.535007477 -0.742542684 0.402985513
vn 0.432081163 0.472469807 0.768165469
vn -0.588531256 0.0146541996 0.808341622
vn 0.781475842 0.266544551 0.564135969
vn 0.535006702 -0.742543519 0.402984947
vn 0.606134772 0.669638574 0.429167658
vn 0.378934681 0.637226999 0.671081424
vn 0.378935844 0.637227356 0.67108041
vn -0.588532567 0.0146518899 0.808340788
vn 0.606134772 0.669638753 0.4291673
vn 0.228898138 0.754479647 0.615114748
vn -0.782082856 0.403617293 0.47480461
vn -0.749307513 0.661720097 0.0257833805
vn 0.244060054 0.913974702 0.324168116
vn -0.535008669 0.742542028 -0.402985156
vn 0.60613519 0.669638216 0.429167658
vn 0.60613519 0.669638038 0.429167867
vn 0.302630156 0.931139708 0.203454569
vn 0.781475902 0.266544163 0.564136147
vn 0.302630067 0.931139708 0.203454688
vn -0.535007954 0.742543161 -0.402984142
vn 0.60613507 0.669638097 0.429167807
vn 0.845879078 0.290153116 0.447548658
vn 0.749304712 -0.661723256 -0.0257800072
vn 0.782089055 -0.403619289 -0.474792928
vn 0.60613507 0.669638097 0.429168046
vn 0.399190933 0.910112977 0.111089334
vn -0.194291189 0.647902369 -0.73652792
vn 0.218413159 0.378709882 -0.899374485
vn 0.871794581 0.461527824 0.164213911
vn 0.588533998 -0.0146516832 -0.808339775
vn 0.606132388 0.669639885 0.42916891
vn 0.606132567 0.669639885 0.429168701
vn 0.6686064 0.743532717 0.0111683682
vn 0.588534951 -0.0146508347 -0.808339059
vn 0.765935957 0.627591968 0.139536679
vn 0.765936196 0.627591848 0.139536038
vn -0.244060069 -0.913974345 -0.324169248
vn 0.749304712 -0.661723256 -0.0257800072
vn 0.782089055 -0.403619289 -0.474792928
vn 0.535006702 -0.742543519 0.402984947
vn -0.228905424 -0.754478633 -0.615113318
vn 0.588533998 -0.0146516832 -0.808339775
vn -0.302626967 -0.931141257 -0.203451917
vn 0.535007477 -0.742542684 0.402985513
vn -0.606134713 -0.669638276 -0.429168254
vn -0.378940046 -0.637229085 -0.671076536
vn -0.378939003 -0.637228966 -0.671077073
vn 0.588534951 -0.0146508347 -0.808339059
vn -0.606134236 -0.669638574 -0.429168254
vn -0.432084262 -0.472477764 -0.768158853
vn 0.218413159 0.378709882 -0.899374485
vn -0.690744042 -0.294014096 -0.660627186
vn -0.194291189 0.647902369 -0.73652792
vn -0.535007954 0.742543161 -0.402984142
vn -0.606134832 -0.669638395 -0.429167747
vn -0.606134772 -0.669638336 -0.429167777
vn -0.781475902 -0.266546428 -0.564135075
vn -0.302627861 -0.93114084 -0.203452677
vn -0.781476021 -0.266546696 -0.564134955
vn -0.535008669 0.742542028 -0.402985156
vn -0.606135249 -0.669638336 -0.42916742
vn -0.399189293 -0.910113096 -0.11109475
vn 0.194295153 -0.647907436 0.736522555
vn -0.218406484 -0.378712982 0.899374902
vn -0.606135249 -0.669638336 -0.42916742
vn -0.845879853 -0.290155083 -0.447546005
vn -0.749307513 0.661720097 0.0257833805
vn -0.668604374 -0.743534327 -0.0111687612
vn -0.588531256 0.0146541996 0.808341622
vn -0.606138468 -0.669636309 -0.42916581
vn -0.606138468 -0.669636548 -0.429165632
vn -0.871795475 -0.461525768 -0.164215237
vn -0.782082856 0.403617293 0.47480461
vn -0.588532567 0.0146518899 0.808340788
vn -0.765934885 -0.627591729 -0.139543429
vn -0.765934408 -0.627592087 -0.139544234
g Pai001_0
f 3/3/3 2/2/2 1/1/1
f 2/2/2 4/4/4 1/1/1
f 5/5/5 3/3/3 1/1/1
f 3/3/3 5/5/5 6/6/6
f 4/4/4 7/7/7 1/1/1
f 4/4/4 8/8/8 7/7/7
f 1/1/1 9/9/9 5/5/5
f 1/1/1 7/7/7 9/9/9
f 5/5/5 10/10/10 6/6/6
f 9/9/9 10/10/10 5/5/5
f 6/6/6 10/10/10 11/11/11
f 12/12/12 6/6/6 11/11/11
f 9/9/9 13/13/13 10/10/10
f 13/13/13 11/11/11 10/10/10
f 12/12/12 11/11/11 14/14/14
f 14/14/14 11/11/11 13/13/13
f 15/15/15 12/12/12 14/14/14
f 16/16/16 15/15/15 14/14/14
f 17/17/17 16/16/16 14/14/14
f 17/17/17 14/14/14 13/13/13
f 16/16/16 17/17/17 18/18/18
f 7/7/7 19/19/19 9/9/9
f 9/9/9 19/19/19 13/13/13
f 13/13/13 20/20/20 17/17/17
f 19/19/19 20/20/20 13/13/13
f 17/17/17 21/21/21 18/18/18
f 20/20/20 21/21/21 17/17/17
f 19/19/19 7/7/7 22/22/22
f 8/8/8 22/22/22 7/7/7
f 18/18/18 21/21/21 23/23/23
f 24/24/24 18/18/18 23/23/23
f 19/19/19 25/25/25 20/20/20
f 25/25/25 19/19/19 22/22/22
f 26/26/26 22/22/22 8/8/8
f 25/25/25 22/22/22 26/26/26
f 27/27/27 26/26/26 8/8/8
f 27/27/27 28/28/28 26/26/26
f 20/20/20 29/29/29 21/21/21
f 25/25/25 29/29/29 20/20/20
f 29/29/29 23/23/23 21/21/21
f 24/24/24 23/23/23 30/30/30
f 31/31/31 24/24/24 30/30/30
f 32/32/32 31/31/31 30/30/30
f 28/28/28 33/33/33 26/26/26
f 28/28/28 34/34/34 33/33/33
f 35/35/35 25/25/25 26/26/26
f 29/29/29 25/25/25 35/35/35
f 26/26/26 33/33/33 35/35/35
f 23/23/23 29/29/29 36/36/36
f 30/30/30 23/23/23 36/36/36
f 36/36/36 29/29/29 35/35/35
f 37/37/37 32/32/32 30/30/30
f 30/30/30 36/36/36 37/37/37
f 32/32/32 37/37/37 38/38/38
f 34/34/34 39/39/39 33/33/33
f 33/33/33 39/39/39 35/35/35
f 34/34/34 38/38/38 39/39/39
f 36/36/36 35/35/35 40/40/40
f 36/36/36 40/40/40 37/37/37
f 35/35/35 39/39/39 40/40/40
f 38/38/38 40/40/40 39/39/39
f 37/37/37 40/40/40 38/38/38
f 43/43/43 42/42/42 41/41/41
f 42/42/42 44/44/44 41/41/41
f 45/45/45 43/43/43 41/41/41
f 43/43/43 45/45/45 46/46/46
f 44/44/44 47/47/47 41/41/41
f 44/44/44 48/48/48 47/47/47
f 41/41/41 49/49/49 45/45/45
f 41/41/41 47/47/47 49/49/49
f 45/45/45 50/50/50 46/46/46
f 49/49/49 50/50/50 45/45/45
f 46/46/46 50/50/50 51/51/51
f 52/52/52 46/46/46 51/51/51
f 50/50/50 49/49/49 53/53/53
f 51/51/51 50/50/50 53/53/53
f 52/52/52 51/51/51 54/54/54
f 54/54/54 51/51/51 53/53/53
f 55/55/55 52/52/52 54/54/54
f 55/55/55 54/54/54 56/56/56
f 56/56/56 54/54/54 53/53/53
f 57/57/57 55/55/55 56/56/56
f 57/57/57 56/56/56 58/58/58
f 47/47/47 59/59/59 49/49/49
f 49/49/49 59/59/59 53/53/53
f 53/53/53 60/60/60 56/56/56
f 59/59/59 60/60/60 53/53/53
f 56/56/56 61/61/61 58/58/58
f 60/60/60 61/61/61 56/56/56
f 59/59/59 47/47/47 62/62/62
f 48/48/48 62/62/62 47/47/47
f 58/58/58 61/61/61 63/63/63
f 64/64/64 58/58/58 63/63/63
f 59/59/59 65/65/65 60/60/60
f 65/65/65 59/59/59 62/62/62
f 66/66/66 62/62/62 48/48/48
f 65/65/65 62/62/62 66/66/66
f 67/67/67 66/66/66 48/48/48
f 67/67/67 68/68/68 66/66/66
f 60/60/60 69/69/69 61/61/61
f 65/65/65 69/69/69 60/60/60
f 69/69/69 63/63/63 61/61/61
f 64/64/64 63/63/63 70/70/70
f 71/71/71 64/64/64 70/70/70
f 68/68/68 72/72/72 66/66/66
f 68/68/68 73/73/73 72/72/72
f 74/74/74 65/65/65 66/66/66
f 69/69/69 65/65/65 74/74/74
f 66/66/66 72/72/72 74/74/74
f 63/63/63 69/69/69 75/75/75
f 70/70/70 63/63/63 75/75/75
f 75/75/75 69/69/69 74/74/74
f 71/71/71 70/70/70 76/76/76
f 70/70/70 75/75/75 76/76/76
f 77/77/77 71/71/71 76/76/76
f 77/77/77 76/76/76 78/78/78
f 73/73/73 79/79/79 72/72/72
f 72/72/72 79/79/79 74/74/74
f 73/73/73 78/78/78 79/79/79
f 75/75/75 74/74/74 80/80/80
f 75/75/75 80/80/80 76/76/76
f 74/74/74 79/79/79 80/80/80
f 78/78/78 80/80/80 79/79/79
f 76/76/76 80/80/80 78/78/78
