g Pai002
v 0.474837154 -0.000944418192 0.698183298
v 0.472745687 0.00298098708 0.70263809
v 0.480175495 0.00298098638 0.707535207
v 0.470686316 0.00298098684 0.694952428
v 0.481924117 -0.000944418542 0.702854395
v 0.486101568 0.00298098684 0.70594722
v 0.472872794 -0.000944418192 0.690852284
v 0.432605267 0.00298097963 0.552831888
v 0.481021106 -0.000944418076 0.696526229
v 0.487576753 -0.000944418367 0.701339781
v 0.592103601 -0.00094442477 0.673331797
v 0.595684946 0.00298098032 0.676584601
v 0.595374167 -0.00094442477 0.665885389
v 0.597756207 -0.000944424595 0.671817303
v 0.601611018 0.00298097963 0.674996614
v 0.60559684 0.00298097893 0.667040706
v 0.601558149 -0.000944425352 0.664228439
v 0.6035375 0.00298097893 0.659355044
v 0.479056776 -0.000944418716 0.689195216
v 0.593409896 -0.000944425119 0.658554435
v 0.599593818 -0.000944425992 0.656897485
v 0.436548859 -0.000944424537 0.555289567
v 0.563269913 -0.000944431988 0.521334767
v 0.56545639 0.00298097217 0.517234564
v 0.44273293 -0.000944425061 0.553632557
v 0.434584558 -0.000944424479 0.547958612
v 0.430545926 0.00298097963 0.545146346
v 0.434531778 0.00298097869 0.537190378
v 0.557085931 -0.000944431755 0.522991717
v 0.561305583 -0.000944432279 0.514003813
v 0.56339705 0.00298097124 0.509549022
v 0.555967271 0.00298097217 0.504651845
v 0.4383865 -0.000944425236 0.540369749
v 0.440457791 0.00298097869 0.53560251
v 0.44076857 -0.000944425643 0.546301603
v 0.555121601 -0.000944432046 0.515660763
v 0.55421865 -0.000944431464 0.509332597
v 0.550041199 0.00298097241 0.506239712
v 0.444039106 -0.00094442477 0.538855135
v 0.548565984 -0.00094443158 0.510847211
v 0.434584558 0.00690638367 0.547958612
v 0.430545926 0.00298097963 0.545146346
v 0.434531778 0.00298097869 0.537190378
v 0.432605267 0.00298097963 0.552831888
v 0.4383865 0.00690638274 0.540369749
v 0.440457791 0.00298097869 0.53560251
v 0.436548859 0.00690638367 0.555289567
v 0.470686316 0.00298098684 0.694952428
v 0.44076857 0.00690638227 0.546301603
v 0.444039106 0.00690638227 0.538855135
v 0.548565984 0.00690637622 0.510847211
v 0.550041199 0.00298097241 0.506239712
v 0.555121601 0.00690637575 0.515660763
v 0.55421865 0.00690637575 0.509332597
v 0.555967271 0.00298097217 0.504651845
v 0.561305583 0.00690637622 0.514003813
v 0.56339705 0.00298097124 0.509549022
v 0.56545639 0.00298097217 0.517234564
v 0.442732871 0.00690638274 0.553632557
v 0.557085931 0.00690637622 0.522991717
v 0.563269913 0.00690637622 0.521334767
v 0.472872794 0.00690639019 0.690852284
v 0.599593818 0.00690638274 0.656897485
v 0.6035375 0.00298097893 0.659355044
v 0.479056776 0.00690638926 0.689195216
v 0.474837154 0.00690639112 0.698183298
v 0.472745687 0.00298098708 0.70263809
v 0.480175495 0.00298098638 0.707535207
v 0.593409896 0.00690638274 0.658554435
v 0.601558149 0.00690638367 0.664228439
v 0.60559684 0.00298097893 0.667040706
v 0.481924117 0.00690639019 0.702854395
v 0.486101568 0.00298098684 0.70594722
v 0.481021106 0.00690639019 0.696526229
v 0.595374167 0.00690638274 0.665885389
v 0.597756207 0.00690638367 0.671817303
v 0.601611018 0.00298097963 0.674996614
v 0.595684946 0.00298098032 0.676584601
v 0.487576753 0.00690639112 0.701339781
v 0.592103601 0.0069063846 0.673331797
vt 0.231885269 0.97464335
vt 0.221966699 0.983688831
vt 0.22790654 0.990104437
vt 0.219263509 0.97552371
vt 0.234974042 0.977273822
vt 0.234165564 0.992519021
vt 0.231516495 0.97105813
vt 0.219795421 0.883443773
vt 0.234690592 0.974552155
vt 0.237599447 0.977492452
vt 0.29622677 0.977450132
vt 0.299489886 0.992469549
vt 0.299168259 0.974504232
vt 0.298853487 0.977228403
vt 0.305781215 0.990040302
vt 0.311792284 0.983609915
vt 0.301971704 0.974590421
vt 0.314585835 0.975443244
vt 0.23467125 0.970991373
vt 0.299228102 0.970941782
vt 0.302382499 0.97100246
vt 0.231998697 0.887884557
vt 0.302864701 0.887828231
vt 0.315117627 0.88336271
vt 0.235153094 0.887945175
vt 0.232409552 0.884297073
vt 0.222588912 0.875277519
vt 0.22860004 0.86884737
vt 0.299709946 0.887894869
vt 0.302495927 0.884242654
vt 0.312414557 0.875197113
vt 0.306474715 0.868781269
vt 0.235527769 0.88165921
vt 0.234891161 0.866418064
vt 0.235212967 0.884383202
vt 0.299690694 0.884333909
vt 0.299407214 0.881611824
vt 0.300215513 0.866366565
vt 0.238154516 0.88143754
vt 0.296781868 0.881393313
vt 0.260882944 0.777992368
vt 0.255578786 0.768832803
vt 0.251834065 0.774385393
vt 0.260360092 0.766256213
vt 0.259336084 0.780883729
vt 0.250418276 0.780210674
vt 0.262976915 0.777624607
vt 0.31424132 0.766277552
vt 0.260928661 0.780604303
vt 0.259204239 0.783327878
vt 0.259127468 0.837903142
vt 0.250330359 0.840988219
vt 0.260845035 0.840619922
vt 0.259254009 0.840352118
vt 0.251732439 0.846826792
vt 0.260793418 0.843232393
vt 0.255488336 0.852406502
vt 0.260269135 0.854972959
vt 0.263009042 0.780565202
vt 0.262927026 0.840654194
vt 0.262889057 0.843592942
vt 0.311621517 0.777657568
vt 0.311533362 0.843625844
vt 0.314150184 0.854994059
vt 0.311583489 0.780596256
vt 0.313717216 0.778018117
vt 0.319022208 0.768843949
vt 0.322778314 0.774423778
vt 0.311501116 0.840685248
vt 0.313627034 0.843257904
vt 0.318931311 0.85241729
vt 0.315256625 0.780898333
vt 0.324180156 0.780262291
vt 0.313665599 0.78063035
vt 0.313581318 0.840645909
vt 0.315173835 0.840366364
vt 0.322675854 0.8468647
vt 0.324091405 0.841039538
vt 0.315382987 0.783347309
vt 0.315305501 0.837922275
vn -0.391571194 -0.893770456 0.218737841
vn -0.767526805 0 0.64101696
vn -0.190433696 0 0.981700003
vn -0.965925694 1.46378781E-07 0.258819431
vn -0.0419790633 -0.912525296 0.406860352
vn 0.25882256 0 0.965924919
vn -0.416215628 -0.902400553 0.111524716
vn -0.965925932 0 0.258818686
vn -0 -1 0
vn 0.0968990102 -0.927272856 0.361629367
vn 0.0968972072 -0.927274287 0.361625969
vn 0.258818805 0 0.965925813
vn -0 -1 0
vn 0.239786267 -0.912524819 0.331362098
vn 0.655775309 0 0.754956186
vn 0.985206187 0 0.171373546
vn 0.44847849 -0.893771052 -0.00635347795
vn 0.965925813 0 -0.258818775
vn -0 -1 0
vn -0 -1 0
vn 0.41621244 -0.902402103 -0.111523718
vn -0.416216433 -0.902400255 0.111524791
vn 0.416213363 -0.902401686 -0.111523807
vn 0.965926051 0 -0.25881803
vn -0 -1 0
vn -0.448480368 -0.893770099 0.00635380344
vn -0.985206187 0 -0.171373412
vn -0.655772269 0 -0.754958749
vn -0 -1 0
vn 0.391572803 -0.893770218 -0.21873644
vn 0.767529249 0 -0.64101392
vn 0.19043988 0 -0.981698871
vn -0.23978819 -0.9125247 -0.331361115
vn -0.258819401 0 -0.965925694
vn -0 -1 0
vn -0 -1 0
vn 0.0419824459 -0.912524402 -0.406861812
vn -0.258818835 0 -0.965925813
vn -0.0968986526 -0.927272439 -0.361630261
vn -0.0968984365 -0.927272618 -0.361629903
vn -0.448480248 0.893770218 0.0063537485
vn -0.985206187 0 -0.171373412
vn -0.655772269 0 -0.754958749
vn -0.965925932 0 0.258818686
vn -0.239788085 0.912524819 -0.331361175
vn -0.258819401 0 -0.965925694
vn -0.416216195 0.902400255 0.111524679
vn -0.965925694 1.46378781E-07 0.258819431
vn 1.06263229E-07 1 0
vn -0.0968985334 0.927272439 -0.361630201
vn -0.0968983322 0.927272618 -0.361629814
vn -0.258818835 0 -0.965925813
vn -0 1 0
vn 0.0419825539 0.912524521 -0.406861812
vn 0.19043988 0 -0.981698871
vn 0.391572803 0.893770099 -0.218736485
vn 0.767529249 0 -0.64101392
vn 0.965926051 0 -0.25881803
vn -0 1 0
vn -0 1 0
vn 0.416213363 0.902401686 -0.111523911
vn -0.416215539 0.902400613 0.111524589
vn 0.416212469 0.902402103 -0.111523814
vn 0.965925813 0 -0.258818775
vn -0 1 0
vn -0.391571164 0.893770576 0.218737736
vn -0.767526805 0 0.64101696
vn -0.190433696 0 0.981700003
vn -0 1 0
vn 0.44847849 0.893771052 -0.00635356456
vn 0.985206187 0 0.171373546
vn -0.0419790819 0.912525296 0.406860292
vn 0.25882256 0 0.965924919
vn -0 1 0
vn -0 1 0
vn 0.239786372 0.912524939 0.331362039
vn 0.655775309 0 0.754956186
vn 0.258818805 0 0.965925813
vn 0.0968990251 0.927272856 0.361629158
vn 0.0968972892 0.927274346 0.361625761
g Pai002_0
f 3/3/3 2/2/2 1/1/1
f 2/2/2 4/4/4 1/1/1
f 5/5/5 3/3/3 1/1/1
f 3/3/3 5/5/5 6/6/6
f 4/4/4 7/7/7 1/1/1
f 4/4/4 8/8/8 7/7/7
f 1/1/1 9/9/9 5/5/5
f 1/1/1 7/7/7 9/9/9
f 5/5/5 10/10/10 6/6/6
f 9/9/9 10/10/10 5/5/5
f 6/6/6 10/10/10 11/11/11
f 12/12/12 6/6/6 11/11/11
f 9/9/9 13/13/13 10/10/10
f 13/13/13 11/11/11 10/10/10
f 12/12/12 11/11/11 14/14/14
f 14/14/14 11/11/11 13/13/13
f 15/15/15 12/12/12 14/14/14
f 16/16/16 15/15/15 14/14/14
f 17/17/17 16/16/16 14/14/14
f 17/17/17 14/14/14 13/13/13
f 16/16/16 17/17/17 18/18/18
f 7/7/7 19/19/19 9/9/9
f 9/9/9 19/19/19 13/13/13
f 13/13/13 20/20/20 17/17/17
f 19/19/19 20/20/20 13/13/13
f 17/17/17 21/21/21 18/18/18
f 20/20/20 21/21/21 17/17/17
f 19/19/19 7/7/7 22/22/22
f 8/8/8 22/22/22 7/7/7
f 18/18/18 21/21/21 23/23/23
f 24/24/24 18/18/18 23/23/23
f 19/19/19 25/25/25 20/20/20
f 25/25/25 19/19/19 22/22/22
f 26/26/26 22/22/22 8/8/8
f 25/25/25 22/22/22 26/26/26
f 27/27/27 26/26/26 8/8/8
f 27/27/27 28/28/28 26/26/26
f 20/20/20 29/29/29 21/21/21
f 25/25/25 29/29/29 20/20/20
f 29/29/29 23/23/23 21/21/21
f 24/24/24 23/23/23 30/30/30
f 31/31/31 24/24/24 30/30/30
f 32/32/32 31/31/31 30/30/30
f 28/28/28 33/33/33 26/26/26
f 28/28/28 34/34/34 33/33/33
f 35/35/35 25/25/25 26/26/26
f 29/29/29 25/25/25 35/35/35
f 26/26/26 33/33/33 35/35/35
f 23/23/23 29/29/29 36/36/36
f 30/30/30 23/23/23 36/36/36
f 36/36/36 29/29/29 35/35/35
f 37/37/37 32/32/32 30/30/30
f 30/30/30 36/36/36 37/37/37
f 32/32/32 37/37/37 38/38/38
f 34/34/34 39/39/39 33/33/33
f 33/33/33 39/39/39 35/35/35
f 34/34/34 38/38/38 39/39/39
f 36/36/36 35/35/35 40/40/40
f 36/36/36 40/40/40 37/37/37
f 35/35/35 39/39/39 40/40/40
f 38/38/38 40/40/40 39/39/39
f 37/37/37 40/40/40 38/38/38
f 43/43/43 42/42/42 41/41/41
f 42/42/42 44/44/44 41/41/41
f 45/45/45 43/43/43 41/41/41
f 43/43/43 45/45/45 46/46/46
f 44/44/44 47/47/47 41/41/41
f 44/44/44 48/48/48 47/47/47
f 41/41/41 49/49/49 45/45/45
f 41/41/41 47/47/47 49/49/49
f 45/45/45 50/50/50 46/46/46
f 49/49/49 50/50/50 45/45/45
f 46/46/46 50/50/50 51/51/51
f 52/52/52 46/46/46 51/51/51
f 50/50/50 49/49/49 53/53/53
f 51/51/51 50/50/50 53/53/53
f 52/52/52 51/51/51 54/54/54
f 54/54/54 51/51/51 53/53/53
f 55/55/55 52/52/52 54/54/54
f 55/55/55 54/54/54 56/56/56
f 56/56/56 54/54/54 53/53/53
f 57/57/57 55/55/55 56/56/56
f 57/57/57 56/56/56 58/58/58
f 47/47/47 59/59/59 49/49/49
f 49/49/49 59/59/59 53/53/53
f 53/53/53 60/60/60 56/56/56
f 59/59/59 60/60/60 53/53/53
f 56/56/56 61/61/61 58/58/58
f 60/60/60 61/61/61 56/56/56
f 59/59/59 47/47/47 62/62/62
f 48/48/48 62/62/62 47/47/47
f 58/58/58 61/61/61 63/63/63
f 64/64/64 58/58/58 63/63/63
f 59/59/59 65/65/65 60/60/60
f 65/65/65 59/59/59 62/62/62
f 66/66/66 62/62/62 48/48/48
f 65/65/65 62/62/62 66/66/66
f 67/67/67 66/66/66 48/48/48
f 67/67/67 68/68/68 66/66/66
f 60/60/60 69/69/69 61/61/61
f 65/65/65 69/69/69 60/60/60
f 69/69/69 63/63/63 61/61/61
f 64/64/64 63/63/63 70/70/70
f 71/71/71 64/64/64 70/70/70
f 68/68/68 72/72/72 66/66/66
f 68/68/68 73/73/73 72/72/72
f 74/74/74 65/65/65 66/66/66
f 69/69/69 65/65/65 74/74/74
f 66/66/66 72/72/72 74/74/74
f 63/63/63 69/69/69 75/75/75
f 70/70/70 63/63/63 75/75/75
f 75/75/75 69/69/69 74/74/74
f 71/71/71 70/70/70 76/76/76
f 70/70/70 75/75/75 76/76/76
f 77/77/77 71/71/71 76/76/76
f 77/77/77 76/76/76 78/78/78
f 73/73/73 79/79/79 72/72/72
f 72/72/72 79/79/79 74/74/74
f 73/73/73 78/78/78 79/79/79
f 75/75/75 74/74/74 80/80/80
f 75/75/75 80/80/80 76/76/76
f 74/74/74 79/79/79 80/80/80
f 78/78/78 80/80/80 79/79/79
f 76/76/76 80/80/80 78/78/78
