g DiZhu_Pai04
v -0.381120831 -0.908468425 0.623913348
v -0.383777946 -0.904768646 0.628258467
v -0.390236646 -0.91043371 0.630577147
v -0.376072049 -0.905014455 0.626291573
v -0.387281597 -0.913872123 0.626125097
v -0.390252531 -0.916528761 0.631276965
v -0.373770565 -0.90870297 0.622037292
v -0.23357667 -0.909560382 0.589920521
v -0.381137341 -0.914828777 0.624643683
v -0.387296587 -0.9196859 0.62679261
v -0.387575746 -1.02719355 0.639136195
v -0.3905451 -1.02923691 0.64421773
v -0.381442636 -1.03244269 0.638147593
v -0.387590826 -1.03300726 0.639803767
v -0.390560895 -1.03533196 0.644917488
v -0.384132683 -1.04140818 0.643946886
v -0.381459147 -1.0388031 0.638877869
v -0.376426727 -1.04165399 0.641979992
v -0.373787045 -0.915063322 0.622767508
v -0.374092281 -1.03267717 0.636271477
v -0.374108851 -1.03903759 0.637001812
v -0.237850264 -0.913039088 0.587344468
v -0.238188565 -1.0433737 0.602308989
v -0.233931348 -1.0461998 0.60560894
v -0.237866744 -0.91939944 0.588074684
v -0.230499968 -0.913273573 0.585468352
v -0.225870788 -0.909806252 0.587953627
v -0.219442517 -0.915882409 0.586983025
v -0.238172024 -1.03701329 0.601578712
v -0.230838254 -1.04360819 0.600432873
v -0.22622551 -1.04644573 0.603642046
v -0.219766706 -1.04078066 0.601323366
v -0.224368274 -0.919069409 0.584542513
v -0.219458342 -0.921977341 0.587682843
v -0.230516478 -0.919633925 0.586198628
v -0.230821744 -1.03724778 0.599702597
v -0.224677563 -1.03820443 0.598221183
v -0.219750911 -1.03468561 0.600623548
v -0.224383369 -0.924883187 0.585210025
v -0.224662453 -1.03239071 0.597553611
v -0.22854428 -0.912411332 0.593022585
v -0.225870788 -0.909806252 0.587953627
v -0.219442517 -0.915882409 0.586983025
v -0.23357667 -0.909560382 0.589920521
v -0.222412601 -0.918207169 0.592096746
v -0.219458342 -0.921977341 0.587682843
v -0.235894576 -0.912176788 0.59489876
v -0.376072049 -0.905014455 0.626291573
v -0.22856079 -0.918771625 0.593752861
v -0.222427681 -0.924020886 0.592764258
v -0.22270675 -1.03152847 0.605107903
v -0.219750911 -1.03468561 0.600623548
v -0.228866056 -1.03638554 0.607256889
v -0.222721875 -1.03734219 0.605775416
v -0.219766706 -1.04078066 0.601323366
v -0.228882596 -1.04274583 0.607987165
v -0.22622551 -1.04644573 0.603642046
v -0.233931348 -1.0461998 0.60560894
v -0.235911071 -0.91853714 0.595628977
v -0.236216351 -1.03615105 0.609133005
v -0.236232862 -1.04251146 0.609863281
v -0.371814877 -0.907840729 0.629591525
v -0.372153163 -1.03817523 0.644556046
v -0.376426727 -1.04165399 0.641979992
v -0.371831328 -0.914201021 0.630321801
v -0.379165143 -0.907606184 0.63146764
v -0.383777946 -0.904768646 0.628258467
v -0.390236646 -0.91043371 0.630577147
v -0.372136593 -1.03181493 0.643825769
v -0.379503459 -1.03794086 0.646432161
v -0.384132683 -1.04140818 0.643946886
v -0.385325909 -0.913009822 0.63367939
v -0.390252531 -0.916528761 0.631276965
v -0.379181653 -0.913966477 0.632197917
v -0.379486918 -1.03158045 0.645701885
v -0.385635138 -1.03214502 0.647358
v -0.390560895 -1.03533196 0.644917488
v -0.3905451 -1.02923691 0.64421773
v -0.385340899 -0.9188236 0.634346843
v -0.385620028 -1.02633119 0.646690488
vt 0.0215483867 0.97464335
vt 0.0116298115 0.983688831
vt 0.0175696723 0.990104437
vt 0.00892664026 0.97552371
vt 0.0246372037 0.977273822
vt 0.0238286741 0.992519021
vt 0.0211796388 0.97105813
vt 0.00945853349 0.883443773
vt 0.0243537165 0.974552155
vt 0.0272625871 0.977492452
vt 0.0858898684 0.977450132
vt 0.0891530737 0.992469549
vt 0.0888313651 0.974504232
vt 0.0885166302 0.977228403
vt 0.0954443142 0.990040302
vt 0.101455428 0.983609915
vt 0.0916347951 0.974590421
vt 0.104248933 0.975443244
vt 0.0243343972 0.970991373
vt 0.0888911933 0.970941782
vt 0.0920456275 0.97100246
vt 0.0216618329 0.887884557
vt 0.0925277993 0.887828231
vt 0.104780771 0.88336271
vt 0.0248162188 0.887945175
vt 0.0220726877 0.884297073
vt 0.0122520356 0.875277519
vt 0.0182631537 0.86884737
vt 0.089373067 0.887894869
vt 0.0921590254 0.884242654
vt 0.10207767 0.875197113
vt 0.096137844 0.868781269
vt 0.025190901 0.88165921
vt 0.0245542638 0.866418064
vt 0.0248760916 0.884383202
vt 0.0893537924 0.884333909
vt 0.0890703052 0.881611824
vt 0.0898786411 0.866366565
vt 0.0278176405 0.88143754
vt 0.0864449739 0.881393313
vt 0.0186255015 0.777992368
vt 0.0133213466 0.768832803
vt 0.0095765423 0.774385393
vt 0.0181026272 0.766256213
vt 0.0170786157 0.780883729
vt 0.00816086866 0.780210674
vt 0.020719409 0.777624607
vt 0.0719838887 0.766277552
vt 0.0186712109 0.780604303
vt 0.0169467628 0.783327878
vt 0.016870033 0.837903142
vt 0.00807294808 0.840988219
vt 0.0185875557 0.840619922
vt 0.0169965886 0.840352118
vt 0.00947487541 0.846826792
vt 0.0185359605 0.843232393
vt 0.0132308668 0.852406502
vt 0.0180117302 0.854972959
vt 0.0207515657 0.780565202
vt 0.0206695125 0.840654194
vt 0.0206315145 0.843592942
vt 0.0693640485 0.777657568
vt 0.0692759082 0.843625844
vt 0.0718927905 0.854994059
vt 0.0693260059 0.780596256
vt 0.0714598075 0.778018117
vt 0.0767648295 0.768843949
vt 0.0805208907 0.774423778
vt 0.0692437068 0.840685248
vt 0.0713696256 0.843257904
vt 0.0766738281 0.85241729
vt 0.072999157 0.780898333
vt 0.081922695 0.780262291
vt 0.07140816 0.78063035
vt 0.0713238418 0.840645909
vt 0.0729163885 0.840366364
vt 0.0804184303 0.8468647
vt 0.0818339884 0.841039538
vt 0.0731256604 0.783347309
vt 0.0730481148 0.837922275
vn -0.350535601 0.320057362 -0.88016361
vn -0.454387069 0.89066112 0.0159719903
vn -0.821839094 0.549610496 0.150029182
vn 0.00257935701 0.993469596 -0.114067741
vn -0.587477744 0.100469328 -0.80297935
vn -0.968473077 0.0308953654 0.24719508
vn -0.221614122 0.346367836 -0.91154623
vn 0.00257985643 0.993469477 -0.114068516
vn -0.249108642 -0.109832555 -0.962227404
vn -0.553675771 -0.0935687199 -0.827458858
vn -0.553677976 -0.0935685858 -0.827457368
vn -0.968473077 0.0308952462 0.247194767
vn -0.249109194 -0.109832756 -0.962227285
vn -0.588462889 -0.27683267 -0.759654582
vn -0.824558496 -0.497086495 0.270200253
vn -0.458941132 -0.8615219 0.217147484
vn -0.35269022 -0.509410262 -0.784927249
vn -0.00257895654 -0.993469715 0.11406707
vn -0.249106377 -0.109832712 -0.96222806
vn -0.24910672 -0.109833054 -0.962227941
vn -0.223922879 -0.542809904 -0.809454143
vn -0.221614033 0.346367687 -0.91154629
vn -0.223922953 -0.54280889 -0.809454739
vn -0.00257940707 -0.993469834 0.114065588
vn -0.24910672 -0.109832719 -0.962227941
vn -0.0952439457 0.311913788 -0.945324481
vn 0.458940893 0.861522019 -0.217147484
vn 0.824554145 0.497088343 -0.270210624
vn -0.249107003 -0.109833047 -0.962227821
vn -0.0974006504 -0.517560542 -0.850084782
vn 0.45438394 -0.890662789 -0.0159636531
vn 0.821836114 -0.549617231 -0.150021031
vn 0.136096075 0.0773855522 -0.987668574
vn 0.968472302 -0.0308961757 -0.247197971
vn -0.249108762 -0.109832555 -0.962227404
vn -0.249109268 -0.109832987 -0.962227166
vn 0.135121197 -0.299919516 -0.944346607
vn 0.968472421 -0.0308961067 -0.247197449
vn 0.083171837 -0.113884509 -0.990006447
vn 0.0831713155 -0.113884546 -0.990006447
vn 0.352693647 0.50940913 0.784926474
vn 0.458940893 0.861522019 -0.217147484
vn 0.824554145 0.497088343 -0.270210624
vn 0.00257985643 0.993469477 -0.114068516
vn 0.588457406 0.276832312 0.759659052
vn 0.968472302 -0.0308961757 -0.247197971
vn 0.223924905 0.542812943 0.80945158
vn 0.00257935701 0.993469596 -0.114067741
vn 0.249105975 0.109833129 0.96222806
vn 0.553674042 0.0935688838 0.827459872
vn 0.553673506 0.0935689509 0.827460289
vn 0.968472421 -0.0308961067 -0.247197449
vn 0.249105886 0.109833255 0.96222806
vn 0.587476254 -0.100469872 0.802980363
vn 0.821836114 -0.549617231 -0.150021031
vn 0.350535959 -0.320052743 0.880165219
vn 0.45438394 -0.890662789 -0.0159636531
vn -0.00257940707 -0.993469834 0.114065588
vn 0.249106318 0.109832644 0.96222806
vn 0.249106407 0.109832771 0.96222806
vn 0.221614286 -0.346365243 0.911547124
vn 0.22392492 0.542813063 0.809451401
vn 0.221614391 -0.346366018 0.911546826
vn -0.00257895654 -0.993469715 0.11406707
vn 0.249106586 0.10983263 0.96222806
vn 0.0974046886 0.517550468 0.850090504
vn -0.454387069 0.89066112 0.0159719903
vn -0.821839094 0.549610496 0.150029182
vn 0.24910669 0.109832771 0.962227941
vn 0.0952484459 -0.311912268 0.9453246
vn -0.458941132 -0.8615219 0.217147484
vn -0.135127276 0.299913406 0.944347739
vn -0.968473077 0.0308953654 0.24719508
vn 0.249109671 0.109833032 0.962227046
vn 0.249109596 0.109833144 0.962227166
vn -0.136094868 -0.0773866624 0.987668693
vn -0.824558496 -0.497086495 0.270200253
vn -0.968473077 0.0308952462 0.247194767
vn -0.0831593052 0.11388512 0.990007401
vn -0.0831609964 0.113885082 0.990007281
g DiZhu_Pai04_0
f 3/3/3 2/2/2 1/1/1
f 2/2/2 4/4/4 1/1/1
f 5/5/5 3/3/3 1/1/1
f 3/3/3 5/5/5 6/6/6
f 4/4/4 7/7/7 1/1/1
f 4/4/4 8/8/8 7/7/7
f 1/1/1 9/9/9 5/5/5
f 1/1/1 7/7/7 9/9/9
f 5/5/5 10/10/10 6/6/6
f 9/9/9 10/10/10 5/5/5
f 6/6/6 10/10/10 11/11/11
f 12/12/12 6/6/6 11/11/11
f 9/9/9 13/13/13 10/10/10
f 13/13/13 11/11/11 10/10/10
f 12/12/12 11/11/11 14/14/14
f 14/14/14 11/11/11 13/13/13
f 15/15/15 12/12/12 14/14/14
f 16/16/16 15/15/15 14/14/14
f 17/17/17 16/16/16 14/14/14
f 17/17/17 14/14/14 13/13/13
f 16/16/16 17/17/17 18/18/18
f 7/7/7 19/19/19 9/9/9
f 9/9/9 19/19/19 13/13/13
f 13/13/13 20/20/20 17/17/17
f 19/19/19 20/20/20 13/13/13
f 17/17/17 21/21/21 18/18/18
f 20/20/20 21/21/21 17/17/17
f 19/19/19 7/7/7 22/22/22
f 8/8/8 22/22/22 7/7/7
f 18/18/18 21/21/21 23/23/23
f 24/24/24 18/18/18 23/23/23
f 19/19/19 25/25/25 20/20/20
f 25/25/25 19/19/19 22/22/22
f 26/26/26 22/22/22 8/8/8
f 25/25/25 22/22/22 26/26/26
f 27/27/27 26/26/26 8/8/8
f 27/27/27 28/28/28 26/26/26
f 20/20/20 29/29/29 21/21/21
f 25/25/25 29/29/29 20/20/20
f 29/29/29 23/23/23 21/21/21
f 24/24/24 23/23/23 30/30/30
f 31/31/31 24/24/24 30/30/30
f 32/32/32 31/31/31 30/30/30
f 28/28/28 33/33/33 26/26/26
f 28/28/28 34/34/34 33/33/33
f 35/35/35 25/25/25 26/26/26
f 29/29/29 25/25/25 35/35/35
f 26/26/26 33/33/33 35/35/35
f 23/23/23 29/29/29 36/36/36
f 30/30/30 23/23/23 36/36/36
f 36/36/36 29/29/29 35/35/35
f 37/37/37 32/32/32 30/30/30
f 30/30/30 36/36/36 37/37/37
f 32/32/32 37/37/37 38/38/38
f 34/34/34 39/39/39 33/33/33
f 33/33/33 39/39/39 35/35/35
f 34/34/34 38/38/38 39/39/39
f 36/36/36 35/35/35 40/40/40
f 36/36/36 40/40/40 37/37/37
f 35/35/35 39/39/39 40/40/40
f 38/38/38 40/40/40 39/39/39
f 37/37/37 40/40/40 38/38/38
f 43/43/43 42/42/42 41/41/41
f 42/42/42 44/44/44 41/41/41
f 45/45/45 43/43/43 41/41/41
f 43/43/43 45/45/45 46/46/46
f 44/44/44 47/47/47 41/41/41
f 44/44/44 48/48/48 47/47/47
f 41/41/41 49/49/49 45/45/45
f 41/41/41 47/47/47 49/49/49
f 45/45/45 50/50/50 46/46/46
f 49/49/49 50/50/50 45/45/45
f 46/46/46 50/50/50 51/51/51
f 52/52/52 46/46/46 51/51/51
f 50/50/50 49/49/49 53/53/53
f 51/51/51 50/50/50 53/53/53
f 52/52/52 51/51/51 54/54/54
f 54/54/54 51/51/51 53/53/53
f 55/55/55 52/52/52 54/54/54
f 55/55/55 54/54/54 56/56/56
f 56/56/56 54/54/54 53/53/53
f 57/57/57 55/55/55 56/56/56
f 57/57/57 56/56/56 58/58/58
f 47/47/47 59/59/59 49/49/49
f 49/49/49 59/59/59 53/53/53
f 53/53/53 60/60/60 56/56/56
f 59/59/59 60/60/60 53/53/53
f 56/56/56 61/61/61 58/58/58
f 60/60/60 61/61/61 56/56/56
f 59/59/59 47/47/47 62/62/62
f 48/48/48 62/62/62 47/47/47
f 58/58/58 61/61/61 63/63/63
f 64/64/64 58/58/58 63/63/63
f 59/59/59 65/65/65 60/60/60
f 65/65/65 59/59/59 62/62/62
f 66/66/66 62/62/62 48/48/48
f 65/65/65 62/62/62 66/66/66
f 67/67/67 66/66/66 48/48/48
f 67/67/67 68/68/68 66/66/66
f 60/60/60 69/69/69 61/61/61
f 65/65/65 69/69/69 60/60/60
f 69/69/69 63/63/63 61/61/61
f 64/64/64 63/63/63 70/70/70
f 71/71/71 64/64/64 70/70/70
f 68/68/68 72/72/72 66/66/66
f 68/68/68 73/73/73 72/72/72
f 74/74/74 65/65/65 66/66/66
f 69/69/69 65/65/65 74/74/74
f 66/66/66 72/72/72 74/74/74
f 63/63/63 69/69/69 75/75/75
f 70/70/70 63/63/63 75/75/75
f 75/75/75 69/69/69 74/74/74
f 71/71/71 70/70/70 76/76/76
f 70/70/70 75/75/75 76/76/76
f 77/77/77 71/71/71 76/76/76
f 77/77/77 76/76/76 78/78/78
f 73/73/73 79/79/79 72/72/72
f 72/72/72 79/79/79 74/74/74
f 73/73/73 78/78/78 79/79/79
f 75/75/75 74/74/74 80/80/80
f 75/75/75 80/80/80 76/76/76
f 74/74/74 79/79/79 80/80/80
f 78/78/78 80/80/80 79/79/79
f 76/76/76 80/80/80 78/78/78
