g Pai005
v -0.0681659728 -0.952029645 0.618445992
v -0.071355246 -0.955790162 0.622359455
v -0.0654758438 -0.962469697 0.622336209
v -0.071319744 -0.947833538 0.622385859
v -0.0625577942 -0.958400905 0.618423879
v -0.0593407713 -0.962497056 0.622335136
v -0.0681320578 -0.944440126 0.618471205
v -0.0706627667 -0.800701797 0.622875094
v -0.061763905 -0.952058136 0.6184448
v -0.0567059107 -0.958427012 0.618422806
v 0.0515073352 -0.958910167 0.618403137
v 0.0541072078 -0.963003695 0.622314453
v 0.0566219315 -0.95258671 0.618423283
v 0.0573592409 -0.958936393 0.618402064
v 0.0602422133 -0.963030994 0.62231338
v 0.0661810264 -0.956404269 0.622334421
v 0.0630240515 -0.952615321 0.618422091
v 0.0662165657 -0.948447526 0.622360885
v -0.0617300086 -0.944468677 0.618470073
v 0.0566558316 -0.944997251 0.618448496
v 0.0630579144 -0.945025861 0.618447363
v -0.0675054342 -0.804097414 0.61893785
v 0.0636845902 -0.804683149 0.618914008
v 0.0668735206 -0.801315844 0.62285012
v -0.0611033291 -0.804126024 0.618936658
v -0.0674715191 -0.796508014 0.618963063
v -0.0706272051 -0.792745173 0.622901559
v -0.0646884069 -0.786118448 0.622922599
v 0.0572824702 -0.804654539 0.618915141
v 0.063718453 -0.79709363 0.618939221
v 0.0669090152 -0.79335928 0.622876525
v 0.061029654 -0.786679685 0.622899711
v -0.0618067123 -0.790187001 0.61898315
v -0.0585533828 -0.786145866 0.622921467
v -0.0610694885 -0.796536624 0.61896193
v 0.0573163815 -0.797065079 0.618940353
v 0.0581103042 -0.79072243 0.618961334
v 0.0548946112 -0.786652386 0.622900844
v -0.0559548028 -0.790213048 0.618982136
v 0.052258376 -0.790696263 0.618962407
v -0.0674702451 -0.796534121 0.626813829
v -0.0706272051 -0.792745173 0.622901559
v -0.0646884069 -0.786118448 0.622922599
v -0.0706627667 -0.800701797 0.622875094
v -0.061805401 -0.790213048 0.626833916
v -0.0585533828 -0.786145866 0.622921467
v -0.0675041229 -0.80412358 0.626788616
v -0.071319744 -0.947833538 0.622385859
v -0.0610681698 -0.796562731 0.626812696
v -0.0559534878 -0.790239155 0.626832843
v 0.0522596873 -0.790722311 0.626813173
v 0.0548946112 -0.786652386 0.622900844
v 0.0573177002 -0.797091186 0.62679112
v 0.0581116155 -0.790748477 0.6268121
v 0.061029654 -0.786679685 0.622899711
v 0.0637197793 -0.797119796 0.626789987
v 0.0669090152 -0.79335928 0.622876525
v 0.0668735206 -0.801315844 0.62285012
v -0.0611020513 -0.804152131 0.626787424
v 0.0572837815 -0.804680705 0.626765907
v 0.0636859015 -0.804709196 0.626764715
v -0.0681307465 -0.944466293 0.626322031
v 0.0630592257 -0.945051908 0.62629813
v 0.0662165657 -0.948447526 0.622360885
v -0.0617286973 -0.944494843 0.626320839
v -0.0681646615 -0.952055693 0.626296759
v -0.071355246 -0.955790162 0.622359455
v -0.0654758438 -0.962469697 0.622336209
v 0.0566571429 -0.945023298 0.626299262
v 0.0630253628 -0.952641428 0.626272917
v 0.0661810264 -0.956404269 0.622334421
v -0.0625564829 -0.958427131 0.626274645
v -0.0593407713 -0.962497056 0.622335136
v -0.0617625937 -0.952084303 0.626295567
v 0.0566232428 -0.952612817 0.626274049
v 0.057360556 -0.95896244 0.62625283
v 0.0602422133 -0.963030994 0.62231338
v 0.0541072078 -0.963003695 0.622314453
v -0.0567045994 -0.958453119 0.626273572
v 0.0515086465 -0.958936274 0.626253903
vt 0.0215483867 0.97464335
vt 0.0116298115 0.983688831
vt 0.0175696723 0.990104437
vt 0.00892664026 0.97552371
vt 0.0246372037 0.977273822
vt 0.0238286741 0.992519021
vt 0.0211796388 0.97105813
vt 0.00945853349 0.883443773
vt 0.0243537165 0.974552155
vt 0.0272625871 0.977492452
vt 0.0858898684 0.977450132
vt 0.0891530737 0.992469549
vt 0.0888313651 0.974504232
vt 0.0885166302 0.977228403
vt 0.0954443142 0.990040302
vt 0.101455428 0.983609915
vt 0.0916347951 0.974590421
vt 0.104248933 0.975443244
vt 0.0243343972 0.970991373
vt 0.0888911933 0.970941782
vt 0.0920456275 0.97100246
vt 0.0216618329 0.887884557
vt 0.0925277993 0.887828231
vt 0.104780771 0.88336271
vt 0.0248162188 0.887945175
vt 0.0220726877 0.884297073
vt 0.0122520356 0.875277519
vt 0.0182631537 0.86884737
vt 0.089373067 0.887894869
vt 0.0921590254 0.884242654
vt 0.10207767 0.875197113
vt 0.096137844 0.868781269
vt 0.025190901 0.88165921
vt 0.0245542638 0.866418064
vt 0.0248760916 0.884383202
vt 0.0893537924 0.884333909
vt 0.0890703052 0.881611824
vt 0.0898786411 0.866366565
vt 0.0278176405 0.88143754
vt 0.0864449739 0.881393313
vt 0.0186255015 0.777992368
vt 0.0133213466 0.768832803
vt 0.0095765423 0.774385393
vt 0.0181026272 0.766256213
vt 0.0170786157 0.780883729
vt 0.00816086866 0.780210674
vt 0.020719409 0.777624607
vt 0.0719838887 0.766277552
vt 0.0186712109 0.780604303
vt 0.0169467628 0.783327878
vt 0.016870033 0.837903142
vt 0.00807294808 0.840988219
vt 0.0185875557 0.840619922
vt 0.0169965886 0.840352118
vt 0.00947487541 0.846826792
vt 0.0185359605 0.843232393
vt 0.0132308668 0.852406502
vt 0.0180117302 0.854972959
vt 0.0207515657 0.780565202
vt 0.0206695125 0.840654194
vt 0.0206315145 0.843592942
vt 0.0693640485 0.777657568
vt 0.0692759082 0.843625844
vt 0.0718927905 0.854994059
vt 0.0693260059 0.780596256
vt 0.0714598075 0.778018117
vt 0.0767648295 0.768843949
vt 0.0805208907 0.774423778
vt 0.0692437068 0.840685248
vt 0.0713696256 0.843257904
vt 0.0766738281 0.85241729
vt 0.072999157 0.780898333
vt 0.081922695 0.780262291
vt 0.07140816 0.78063035
vt 0.0713238418 0.840645909
vt 0.0729163885 0.840366364
vt 0.0804184303 0.8468647
vt 0.0818339884 0.841039538
vt 0.0731256604 0.783347309
vt 0.0730481148 0.837922275
vn -0.418191403 -0.126945421 -0.899444699
vn -0.883946776 -0.467585385 -0.00139821856
vn -0.530581355 -0.847629607 -0.00271991128
vn -0.999990106 0.00446438603 0.000183933953
vn -0.191707641 -0.369696528 -0.909160435
vn -0.00446524518 -0.999984503 -0.00333171478
vn -0.447657794 0.00497197872 -0.894191206
vn -0.999989986 0.00446485169 0.000179654875
vn -0.00016678113 0.00332526397 -0.999994516
vn -0.00162574905 -0.325631291 -0.945495367
vn -0.00162579189 -0.325632185 -0.945495069
vn -0.00446502492 -0.999984503 -0.0033313476
vn -0.000166836733 0.00332540926 -0.999994516
vn 0.188067794 -0.37138629 -0.90923202
vn 0.522990644 -0.852333486 -0.00292536803
vn 0.87973839 -0.475454956 -0.00173122098
vn 0.416713446 -0.130670041 -0.899597287
vn 0.999990106 -0.0044643674 -0.000180218864
vn -0.000166944243 0.00332567678 -0.999994516
vn -0.000167254126 0.00332567655 -0.999994516
vn 0.447358668 0.000976147479 -0.894354105
vn -0.447657943 0.00497204205 -0.894191086
vn 0.447357863 0.000976169598 -0.894354522
vn 0.999990106 -0.00446425844 -0.000182269112
vn -0.000166944272 0.00332567818 -0.999994516
vn -0.417015642 0.136652768 -0.898567736
vn -0.8797369 0.475457609 0.00173465593
vn -0.522991896 0.852332711 0.00292787259
vn -0.000167254213 0.00332567794 -0.999994516
vn 0.417891085 0.132925287 -0.898720145
vn 0.883947968 0.46758312 0.00140167354
vn 0.530579627 0.84763062 0.0027333186
vn -0.188375309 0.377429485 -0.906676292
vn 0.00446553668 0.999984503 0.0033252514
vn -0.000167079605 0.00332610519 -0.999994516
vn -0.000166892642 0.00332639017 -0.999994516
vn 0.191406488 0.375736833 -0.906744421
vn 0.00446501281 0.999984503 0.00332669751
vn 0.00131042453 0.331920564 -0.943306446
vn 0.00131038087 0.331920028 -0.943306625
vn -0.41671738 0.130670935 0.899595261
vn -0.8797369 0.475457609 0.00173465593
vn -0.522991896 0.852332711 0.00292787259
vn -0.999989986 0.00446485169 0.000179654875
vn -0.188069791 0.371390313 0.909229934
vn 0.00446553668 0.999984503 0.0033252514
vn -0.447356105 -0.000976052426 0.894355357
vn -0.999990106 0.00446438603 0.000183933953
vn 0.000167028862 -0.00332633592 0.999994516
vn 0.00162606547 0.325641662 0.94549185
vn 0.00162600935 0.325640857 0.945492089
vn 0.00446501281 0.999984503 0.00332669751
vn 0.000167456019 -0.00332639809 0.999994516
vn 0.191708624 0.369696319 0.909160376
vn 0.530579627 0.84763062 0.0027333186
vn 0.418192178 0.126946598 0.899444222
vn 0.883947968 0.46758312 0.00140167354
vn 0.999990106 -0.00446425844 -0.000182269112
vn 0.000167605584 -0.00332567282 0.999994516
vn 0.00016729557 -0.00332567841 0.999994516
vn 0.447657973 -0.00497201225 0.894191027
vn -0.447356105 -0.000976150215 0.894355476
vn 0.447656959 -0.0049719424 0.894191563
vn 0.999990106 -0.0044643674 -0.000180218864
vn 0.000167605409 -0.00332567655 0.999994516
vn -0.417887211 -0.132926807 0.898721755
vn -0.883946776 -0.467585385 -0.00139821856
vn -0.530581355 -0.847629607 -0.00271991128
vn 0.000167254082 -0.00332566933 0.999994516
vn 0.417021871 -0.136650056 0.898565233
vn 0.87973839 -0.475454956 -0.00173122098
vn -0.191399068 -0.375738591 0.906745195
vn -0.00446524518 -0.999984503 -0.00333171478
vn 0.000167454476 -0.00332534476 0.999994516
vn 0.000166404017 -0.003325328 0.999994516
vn 0.188371092 -0.377428353 0.906677544
vn 0.522990644 -0.852333486 -0.00292536803
vn -0.00446502492 -0.999984503 -0.0033313476
vn -0.00131040183 -0.331920207 0.943306506
vn -0.00131067669 -0.331921488 0.943306088
g Pai005_0
f 3/3/3 2/2/2 1/1/1
f 2/2/2 4/4/4 1/1/1
f 5/5/5 3/3/3 1/1/1
f 3/3/3 5/5/5 6/6/6
f 4/4/4 7/7/7 1/1/1
f 4/4/4 8/8/8 7/7/7
f 1/1/1 9/9/9 5/5/5
f 1/1/1 7/7/7 9/9/9
f 5/5/5 10/10/10 6/6/6
f 9/9/9 10/10/10 5/5/5
f 6/6/6 10/10/10 11/11/11
f 12/12/12 6/6/6 11/11/11
f 9/9/9 13/13/13 10/10/10
f 13/13/13 11/11/11 10/10/10
f 12/12/12 11/11/11 14/14/14
f 14/14/14 11/11/11 13/13/13
f 15/15/15 12/12/12 14/14/14
f 16/16/16 15/15/15 14/14/14
f 17/17/17 16/16/16 14/14/14
f 17/17/17 14/14/14 13/13/13
f 16/16/16 17/17/17 18/18/18
f 7/7/7 19/19/19 9/9/9
f 9/9/9 19/19/19 13/13/13
f 13/13/13 20/20/20 17/17/17
f 19/19/19 20/20/20 13/13/13
f 17/17/17 21/21/21 18/18/18
f 20/20/20 21/21/21 17/17/17
f 19/19/19 7/7/7 22/22/22
f 8/8/8 22/22/22 7/7/7
f 18/18/18 21/21/21 23/23/23
f 24/24/24 18/18/18 23/23/23
f 19/19/19 25/25/25 20/20/20
f 25/25/25 19/19/19 22/22/22
f 26/26/26 22/22/22 8/8/8
f 25/25/25 22/22/22 26/26/26
f 27/27/27 26/26/26 8/8/8
f 27/27/27 28/28/28 26/26/26
f 20/20/20 29/29/29 21/21/21
f 25/25/25 29/29/29 20/20/20
f 29/29/29 23/23/23 21/21/21
f 24/24/24 23/23/23 30/30/30
f 31/31/31 24/24/24 30/30/30
f 32/32/32 31/31/31 30/30/30
f 28/28/28 33/33/33 26/26/26
f 28/28/28 34/34/34 33/33/33
f 35/35/35 25/25/25 26/26/26
f 29/29/29 25/25/25 35/35/35
f 26/26/26 33/33/33 35/35/35
f 23/23/23 29/29/29 36/36/36
f 30/30/30 23/23/23 36/36/36
f 36/36/36 29/29/29 35/35/35
f 37/37/37 32/32/32 30/30/30
f 30/30/30 36/36/36 37/37/37
f 32/32/32 37/37/37 38/38/38
f 34/34/34 39/39/39 33/33/33
f 33/33/33 39/39/39 35/35/35
f 34/34/34 38/38/38 39/39/39
f 36/36/36 35/35/35 40/40/40
f 36/36/36 40/40/40 37/37/37
f 35/35/35 39/39/39 40/40/40
f 38/38/38 40/40/40 39/39/39
f 37/37/37 40/40/40 38/38/38
f 43/43/43 42/42/42 41/41/41
f 42/42/42 44/44/44 41/41/41
f 45/45/45 43/43/43 41/41/41
f 43/43/43 45/45/45 46/46/46
f 44/44/44 47/47/47 41/41/41
f 44/44/44 48/48/48 47/47/47
f 41/41/41 49/49/49 45/45/45
f 41/41/41 47/47/47 49/49/49
f 45/45/45 50/50/50 46/46/46
f 49/49/49 50/50/50 45/45/45
f 46/46/46 50/50/50 51/51/51
f 52/52/52 46/46/46 51/51/51
f 50/50/50 49/49/49 53/53/53
f 51/51/51 50/50/50 53/53/53
f 52/52/52 51/51/51 54/54/54
f 54/54/54 51/51/51 53/53/53
f 55/55/55 52/52/52 54/54/54
f 55/55/55 54/54/54 56/56/56
f 56/56/56 54/54/54 53/53/53
f 57/57/57 55/55/55 56/56/56
f 57/57/57 56/56/56 58/58/58
f 47/47/47 59/59/59 49/49/49
f 49/49/49 59/59/59 53/53/53
f 53/53/53 60/60/60 56/56/56
f 59/59/59 60/60/60 53/53/53
f 56/56/56 61/61/61 58/58/58
f 60/60/60 61/61/61 56/56/56
f 59/59/59 47/47/47 62/62/62
f 48/48/48 62/62/62 47/47/47
f 58/58/58 61/61/61 63/63/63
f 64/64/64 58/58/58 63/63/63
f 59/59/59 65/65/65 60/60/60
f 65/65/65 59/59/59 62/62/62
f 66/66/66 62/62/62 48/48/48
f 65/65/65 62/62/62 66/66/66
f 67/67/67 66/66/66 48/48/48
f 67/67/67 68/68/68 66/66/66
f 60/60/60 69/69/69 61/61/61
f 65/65/65 69/69/69 60/60/60
f 69/69/69 63/63/63 61/61/61
f 64/64/64 63/63/63 70/70/70
f 71/71/71 64/64/64 70/70/70
f 68/68/68 72/72/72 66/66/66
f 68/68/68 73/73/73 72/72/72
f 74/74/74 65/65/65 66/66/66
f 69/69/69 65/65/65 74/74/74
f 66/66/66 72/72/72 74/74/74
f 63/63/63 69/69/69 75/75/75
f 70/70/70 63/63/63 75/75/75
f 75/75/75 69/69/69 74/74/74
f 71/71/71 70/70/70 76/76/76
f 70/70/70 75/75/75 76/76/76
f 77/77/77 71/71/71 76/76/76
f 77/77/77 76/76/76 78/78/78
f 73/73/73 79/79/79 72/72/72
f 72/72/72 79/79/79 74/74/74
f 73/73/73 78/78/78 79/79/79
f 75/75/75 74/74/74 80/80/80
f 75/75/75 80/80/80 76/76/76
f 74/74/74 79/79/79 80/80/80
f 78/78/78 80/80/80 79/79/79
f 76/76/76 80/80/80 78/78/78
