g Pai002
v -0.268890709 -0.533181012 0.803641617
v -0.270584494 -0.538778841 0.80597049
v -0.277375311 -0.535799146 0.810888886
v -0.267337918 -0.53737992 0.798842251
v -0.275368184 -0.530338824 0.80833298
v -0.281607211 -0.531491041 0.809806824
v -0.26579392 -0.531846642 0.796842277
v -0.207302839 -0.511511445 0.66702801
v -0.273306817 -0.528685451 0.802512467
v -0.279404849 -0.526229501 0.807300925
v -0.354049861 -0.450241357 0.788216233
v -0.359863311 -0.45182699 0.789799035
v -0.354968965 -0.445553929 0.781633735
v -0.358086586 -0.446132064 0.787184298
v -0.364095211 -0.447518915 0.788716972
v -0.365456581 -0.442199737 0.78171438
v -0.359385133 -0.441058338 0.780504644
v -0.362210006 -0.440800816 0.774586082
v -0.270210028 -0.527351081 0.795713127
v -0.351872236 -0.44421953 0.774834454
v -0.356288373 -0.439723969 0.773705363
v -0.20852901 -0.507171869 0.671110272
v -0.29902342 -0.415049165 0.647973478
v -0.302174896 -0.4149324 0.6427719
v -0.212945163 -0.502676249 0.669981241
v -0.205432251 -0.50583744 0.664310992
v -0.204056233 -0.510112584 0.659899831
v -0.205417633 -0.504793406 0.652897179
v -0.294607341 -0.419544756 0.649102569
v -0.29592669 -0.413714767 0.641174138
v -0.29892832 -0.413533479 0.635643721
v -0.292137504 -0.416513115 0.630725324
v -0.206730798 -0.500763714 0.657631457
v -0.209649533 -0.500485361 0.651815176
v -0.209848404 -0.501341879 0.663181901
v -0.291510552 -0.418210357 0.642303169
v -0.289449215 -0.416556984 0.636482656
v -0.287905574 -0.42082122 0.631807268
v -0.210767448 -0.496654421 0.656599402
v -0.28541252 -0.420666277 0.63751477
v -0.210127667 -0.511254013 0.661109447
v -0.204056233 -0.510112584 0.659899831
v -0.205417633 -0.504793406 0.652897179
v -0.207302839 -0.511511445 0.66702801
v -0.211426213 -0.506180227 0.654429913
v -0.209649533 -0.500485361 0.651815176
v -0.213224426 -0.512588382 0.667908788
v -0.267337918 -0.53737992 0.798842251
v -0.214543819 -0.506758392 0.659980357
v -0.215462893 -0.502070963 0.653397918
v -0.290107965 -0.42608279 0.634313226
v -0.287905574 -0.42082122 0.631807268
v -0.296205938 -0.4236269 0.639101624
v -0.29414463 -0.421973497 0.633281171
v -0.292137504 -0.416513115 0.630725324
v -0.300622106 -0.419131309 0.637972593
v -0.29892832 -0.413533479 0.635643721
v -0.302174896 -0.4149324 0.6427719
v -0.217640564 -0.508092761 0.666779697
v -0.299302757 -0.424961239 0.645901024
v -0.303718865 -0.420465678 0.644771874
v -0.270489335 -0.537263155 0.793640733
v -0.360983759 -0.445140481 0.770503819
v -0.362210006 -0.440800816 0.774586082
v -0.274905443 -0.532767594 0.792511582
v -0.273586124 -0.538597524 0.800440133
v -0.270584494 -0.538778841 0.80597049
v -0.277375311 -0.535799146 0.810888886
v -0.356567651 -0.449636042 0.77163291
v -0.364080578 -0.44647482 0.777303159
v -0.365456581 -0.442199737 0.78171438
v -0.280063599 -0.535755277 0.805131435
v -0.281607211 -0.531491041 0.809806824
v -0.278002262 -0.534101903 0.799310982
v -0.35966441 -0.450970411 0.77843219
v -0.362781972 -0.451548606 0.783982694
v -0.364095211 -0.447518915 0.788716972
v -0.359863311 -0.45182699 0.789799035
v -0.284100264 -0.531646013 0.804099381
v -0.358745307 -0.45565787 0.785014689
vt 0.231885269 0.97464335
vt 0.221966699 0.983688831
vt 0.22790654 0.990104437
vt 0.219263509 0.97552371
vt 0.234974042 0.977273822
vt 0.234165564 0.992519021
vt 0.231516495 0.97105813
vt 0.219795421 0.883443773
vt 0.234690592 0.974552155
vt 0.237599447 0.977492452
vt 0.29622677 0.977450132
vt 0.299489886 0.992469549
vt 0.299168259 0.974504232
vt 0.298853487 0.977228403
vt 0.305781215 0.990040302
vt 0.311792284 0.983609915
vt 0.301971704 0.974590421
vt 0.314585835 0.975443244
vt 0.23467125 0.970991373
vt 0.299228102 0.970941782
vt 0.302382499 0.97100246
vt 0.231998697 0.887884557
vt 0.302864701 0.887828231
vt 0.315117627 0.88336271
vt 0.235153094 0.887945175
vt 0.232409552 0.884297073
vt 0.222588912 0.875277519
vt 0.22860004 0.86884737
vt 0.299709946 0.887894869
vt 0.302495927 0.884242654
vt 0.312414557 0.875197113
vt 0.306474715 0.868781269
vt 0.235527769 0.88165921
vt 0.234891161 0.866418064
vt 0.235212967 0.884383202
vt 0.299690694 0.884333909
vt 0.299407214 0.881611824
vt 0.300215513 0.866366565
vt 0.238154516 0.88143754
vt 0.296781868 0.881393313
vt 0.260882944 0.777992368
vt 0.255578786 0.768832803
vt 0.251834065 0.774385393
vt 0.260360092 0.766256213
vt 0.259336084 0.780883729
vt 0.250418276 0.780210674
vt 0.262976915 0.777624607
vt 0.31424132 0.766277552
vt 0.260928661 0.780604303
vt 0.259204239 0.783327878
vt 0.259127468 0.837903142
vt 0.250330359 0.840988219
vt 0.260845035 0.840619922
vt 0.259254009 0.840352118
vt 0.251732439 0.846826792
vt 0.260793418 0.843232393
vt 0.255488336 0.852406502
vt 0.260269135 0.854972959
vt 0.263009042 0.780565202
vt 0.262927026 0.840654194
vt 0.262889057 0.843592942
vt 0.311621517 0.777657568
vt 0.311533362 0.843625844
vt 0.314150184 0.854994059
vt 0.311583489 0.780596256
vt 0.313717216 0.778018117
vt 0.319022208 0.768843949
vt 0.322778314 0.774423778
vt 0.311501116 0.840685248
vt 0.313627034 0.843257904
vt 0.318931311 0.85241729
vt 0.315256625 0.780898333
vt 0.324180156 0.780262291
vt 0.313665599 0.78063035
vt 0.313581318 0.840645909
vt 0.315173835 0.840366364
vt 0.322675854 0.8468647
vt 0.324091405 0.841039538
vt 0.315382987 0.783347309
vt 0.315305501 0.837922275
vn 0.771905541 0.303995579 0.558344483
vn 0.415895581 -0.702141047 0.577952266
vn 0.0165554062 -0.519353151 0.854399323
vn 0.689794421 -0.702197611 0.176358044
vn 0.521594107 0.427408308 0.7384184
vn -0.408034116 -0.175815076 0.895877898
vn 0.84354043 0.302743971 0.443605155
vn 0.689793706 -0.702198267 0.176358044
vn 0.598083436 0.689927042 0.407795042
vn 0.430675834 0.593766391 0.679676294
vn 0.430675894 0.593766749 0.679675937
vn -0.408035696 -0.175813511 0.895877481
vn 0.598083913 0.689926624 0.407795012
vn 0.259620577 0.694086492 0.671447039
vn -0.710200787 0.220465407 0.668587923
vn -0.800687611 0.53633666 0.266912609
vn 0.195992485 0.890272498 0.411098301
vn -0.689791799 0.702199161 -0.176362365
vn 0.598080873 0.689929008 0.407795548
vn 0.598080873 0.689929008 0.407795519
vn 0.226157382 0.931233287 0.285757542
vn 0.84354043 0.302744478 0.443604857
vn 0.226157248 0.931233406 0.285757393
vn -0.68979311 0.702197671 -0.176363081
vn 0.598080814 0.689929187 0.407795459
vn 0.879465759 0.350337654 0.322185606
vn 0.800693274 -0.536332786 -0.26690343
vn 0.710202873 -0.220468149 -0.668584824
vn 0.598080873 0.689929128 0.407795459
vn 0.303546667 0.936618149 0.174944893
vn -0.415894359 0.702140152 -0.577954233
vn -0.0165514685 0.519355297 -0.854398012
vn 0.826446354 0.558761775 0.0690781102
vn 0.408031732 0.175814465 -0.89587909
vn 0.598082244 0.689927995 0.407795399
vn 0.598082006 0.689927995 0.407795578
vn 0.564475 0.8254475 0.00210005813
vn 0.408031464 0.175814793 -0.895879209
vn 0.698986888 0.709375978 0.0905703381
vn 0.698986769 0.709376037 0.0905707031
vn -0.195990369 -0.890273392 -0.411097318
vn 0.800693274 -0.536332786 -0.26690343
vn 0.710202873 -0.220468149 -0.668584824
vn 0.689793706 -0.702198267 0.176358044
vn -0.25962013 -0.694090545 -0.671442926
vn 0.408031732 0.175814465 -0.89587909
vn -0.226157293 -0.931232631 -0.285759807
vn 0.689794421 -0.702197611 0.176358044
vn -0.59808135 -0.689928412 -0.407795787
vn -0.430675715 -0.593768418 -0.679674625
vn -0.430675924 -0.593768537 -0.679674387
vn 0.408031464 0.175814793 -0.895879209
vn -0.598080993 -0.68992877 -0.407795876
vn -0.521591187 -0.427402735 -0.738423645
vn -0.0165514685 0.519355297 -0.854398012
vn -0.771904945 -0.303993791 -0.558346331
vn -0.415894359 0.702140152 -0.577954233
vn -0.68979311 0.702197671 -0.176363081
vn -0.59808147 -0.689928472 -0.407795429
vn -0.598081291 -0.68992883 -0.407795399
vn -0.843539894 -0.302745193 -0.443605363
vn -0.22615625 -0.931233048 -0.28575927
vn -0.843539476 -0.302746236 -0.443605393
vn -0.689791799 0.702199161 -0.176362365
vn -0.598081112 -0.689928889 -0.407795519
vn -0.303550005 -0.936616898 -0.174946338
vn 0.415895581 -0.702141047 0.577952266
vn 0.0165554062 -0.519353151 0.854399323
vn -0.598080754 -0.689929128 -0.407795548
vn -0.879462063 -0.350342691 -0.322190106
vn -0.800687611 0.53633666 0.266912609
vn -0.564477086 -0.825446069 -0.00210102089
vn -0.408034116 -0.175815076 0.895877898
vn -0.598076463 -0.689931095 -0.407798469
vn -0.598076224 -0.689931333 -0.407798499
vn -0.826442778 -0.558766961 -0.0690791085
vn -0.710200787 0.220465407 0.668587923
vn -0.408035696 -0.175813511 0.895877481
vn -0.698986471 -0.709375739 -0.0905750245
vn -0.69898653 -0.709375679 -0.0905754268
g Pai002_0
f 3/3/3 2/2/2 1/1/1
f 2/2/2 4/4/4 1/1/1
f 5/5/5 3/3/3 1/1/1
f 3/3/3 5/5/5 6/6/6
f 4/4/4 7/7/7 1/1/1
f 4/4/4 8/8/8 7/7/7
f 1/1/1 9/9/9 5/5/5
f 1/1/1 7/7/7 9/9/9
f 5/5/5 10/10/10 6/6/6
f 9/9/9 10/10/10 5/5/5
f 6/6/6 10/10/10 11/11/11
f 12/12/12 6/6/6 11/11/11
f 9/9/9 13/13/13 10/10/10
f 13/13/13 11/11/11 10/10/10
f 12/12/12 11/11/11 14/14/14
f 14/14/14 11/11/11 13/13/13
f 15/15/15 12/12/12 14/14/14
f 16/16/16 15/15/15 14/14/14
f 17/17/17 16/16/16 14/14/14
f 17/17/17 14/14/14 13/13/13
f 16/16/16 17/17/17 18/18/18
f 7/7/7 19/19/19 9/9/9
f 9/9/9 19/19/19 13/13/13
f 13/13/13 20/20/20 17/17/17
f 19/19/19 20/20/20 13/13/13
f 17/17/17 21/21/21 18/18/18
f 20/20/20 21/21/21 17/17/17
f 19/19/19 7/7/7 22/22/22
f 8/8/8 22/22/22 7/7/7
f 18/18/18 21/21/21 23/23/23
f 24/24/24 18/18/18 23/23/23
f 19/19/19 25/25/25 20/20/20
f 25/25/25 19/19/19 22/22/22
f 26/26/26 22/22/22 8/8/8
f 25/25/25 22/22/22 26/26/26
f 27/27/27 26/26/26 8/8/8
f 27/27/27 28/28/28 26/26/26
f 20/20/20 29/29/29 21/21/21
f 25/25/25 29/29/29 20/20/20
f 29/29/29 23/23/23 21/21/21
f 24/24/24 23/23/23 30/30/30
f 31/31/31 24/24/24 30/30/30
f 32/32/32 31/31/31 30/30/30
f 28/28/28 33/33/33 26/26/26
f 28/28/28 34/34/34 33/33/33
f 35/35/35 25/25/25 26/26/26
f 29/29/29 25/25/25 35/35/35
f 26/26/26 33/33/33 35/35/35
f 23/23/23 29/29/29 36/36/36
f 30/30/30 23/23/23 36/36/36
f 36/36/36 29/29/29 35/35/35
f 37/37/37 32/32/32 30/30/30
f 30/30/30 36/36/36 37/37/37
f 32/32/32 37/37/37 38/38/38
f 34/34/34 39/39/39 33/33/33
f 33/33/33 39/39/39 35/35/35
f 34/34/34 38/38/38 39/39/39
f 36/36/36 35/35/35 40/40/40
f 36/36/36 40/40/40 37/37/37
f 35/35/35 39/39/39 40/40/40
f 38/38/38 40/40/40 39/39/39
f 37/37/37 40/40/40 38/38/38
f 43/43/43 42/42/42 41/41/41
f 42/42/42 44/44/44 41/41/41
f 45/45/45 43/43/43 41/41/41
f 43/43/43 45/45/45 46/46/46
f 44/44/44 47/47/47 41/41/41
f 44/44/44 48/48/48 47/47/47
f 41/41/41 49/49/49 45/45/45
f 41/41/41 47/47/47 49/49/49
f 45/45/45 50/50/50 46/46/46
f 49/49/49 50/50/50 45/45/45
f 46/46/46 50/50/50 51/51/51
f 52/52/52 46/46/46 51/51/51
f 50/50/50 49/49/49 53/53/53
f 51/51/51 50/50/50 53/53/53
f 52/52/52 51/51/51 54/54/54
f 54/54/54 51/51/51 53/53/53
f 55/55/55 52/52/52 54/54/54
f 55/55/55 54/54/54 56/56/56
f 56/56/56 54/54/54 53/53/53
f 57/57/57 55/55/55 56/56/56
f 57/57/57 56/56/56 58/58/58
f 47/47/47 59/59/59 49/49/49
f 49/49/49 59/59/59 53/53/53
f 53/53/53 60/60/60 56/56/56
f 59/59/59 60/60/60 53/53/53
f 56/56/56 61/61/61 58/58/58
f 60/60/60 61/61/61 56/56/56
f 59/59/59 47/47/47 62/62/62
f 48/48/48 62/62/62 47/47/47
f 58/58/58 61/61/61 63/63/63
f 64/64/64 58/58/58 63/63/63
f 59/59/59 65/65/65 60/60/60
f 65/65/65 59/59/59 62/62/62
f 66/66/66 62/62/62 48/48/48
f 65/65/65 62/62/62 66/66/66
f 67/67/67 66/66/66 48/48/48
f 67/67/67 68/68/68 66/66/66
f 60/60/60 69/69/69 61/61/61
f 65/65/65 69/69/69 60/60/60
f 69/69/69 63/63/63 61/61/61
f 64/64/64 63/63/63 70/70/70
f 71/71/71 64/64/64 70/70/70
f 68/68/68 72/72/72 66/66/66
f 68/68/68 73/73/73 72/72/72
f 74/74/74 65/65/65 66/66/66
f 69/69/69 65/65/65 74/74/74
f 66/66/66 72/72/72 74/74/74
f 63/63/63 69/69/69 75/75/75
f 70/70/70 63/63/63 75/75/75
f 75/75/75 69/69/69 74/74/74
f 71/71/71 70/70/70 76/76/76
f 70/70/70 75/75/75 76/76/76
f 77/77/77 71/71/71 76/76/76
f 77/77/77 76/76/76 78/78/78
f 73/73/73 79/79/79 72/72/72
f 72/72/72 79/79/79 74/74/74
f 73/73/73 78/78/78 79/79/79
f 75/75/75 74/74/74 80/80/80
f 75/75/75 80/80/80 76/76/76
f 74/74/74 79/79/79 80/80/80
f 78/78/78 80/80/80 79/79/79
f 76/76/76 80/80/80 78/78/78
