g DiZhu_Pai12
v -0.441739649 -1.08955657 0.645931005
v -0.444801658 -1.08741415 0.650996745
v -0.45160231 -1.09313524 0.650544703
v -0.436927199 -1.08743119 0.649855196
v -0.448226571 -1.09501374 0.645499766
v -0.45182693 -1.09908974 0.64908433
v -0.434228629 -1.08957291 0.644842029
v -0.291315794 -1.08774531 0.628745139
v -0.441973984 -1.09577036 0.644407034
v -0.448440701 -1.10069346 0.644106805
v -0.452401787 -1.20572257 0.618347824
v -0.455979615 -1.20919955 0.622079313
v -0.446307331 -1.21067262 0.616226554
v -0.452616006 -1.2114023 0.616954803
v -0.456204176 -1.21515405 0.620618939
v -0.449836075 -1.2209034 0.618257761
v -0.446541697 -1.2168864 0.614702582
v -0.441961616 -1.22092044 0.617116153
v -0.434462905 -1.09578645 0.643318057
v -0.438796252 -1.21068895 0.615137637
v -0.439030647 -1.21690261 0.613613665
v -0.295336008 -1.08987236 0.624706089
v -0.300138056 -1.21720219 0.593477726
v -0.296350151 -1.22123456 0.596006095
v -0.295570314 -1.09608614 0.623182118
v -0.287824988 -1.08988869 0.623617172
v -0.283441395 -1.08776224 0.627603531
v -0.277073294 -1.0935117 0.625242352
v -0.299903721 -1.21098852 0.595001698
v -0.292627037 -1.2172184 0.592388809
v -0.288475782 -1.22125149 0.594864547
v -0.281675041 -1.21553051 0.595316529
v -0.281750679 -1.0953728 0.621364951
v -0.277297854 -1.0994662 0.623781979
v -0.288059354 -1.09610236 0.622093201
v -0.292392701 -1.21100473 0.59391278
v -0.286140144 -1.21176124 0.592819989
v -0.28145048 -1.20957601 0.596776962
v -0.281964898 -1.10105252 0.619971931
v -0.285925925 -1.20608163 0.594212949
v -0.286735743 -1.09177935 0.63115865
v -0.283441395 -1.08776224 0.627603531
v -0.277073294 -1.0935117 0.625242352
v -0.291315794 -1.08774531 0.628745139
v -0.280661434 -1.09726346 0.628906429
v -0.277297854 -1.0994662 0.623781979
v -0.294246763 -1.09176314 0.632247567
v -0.436927199 -1.08743119 0.649855196
v -0.286970079 -1.09799302 0.629634738
v -0.280875623 -1.1029433 0.627513468
v -0.28483668 -1.20797229 0.601754487
v -0.28145048 -1.20957601 0.596776962
v -0.291303426 -1.21289539 0.601454258
v -0.285050899 -1.21365201 0.600361526
v -0.281675041 -1.21553051 0.595316529
v -0.291537791 -1.21910906 0.599930346
v -0.288475782 -1.22125149 0.594864547
v -0.296350151 -1.22123456 0.596006095
v -0.294481099 -1.0979768 0.630723655
v -0.298814476 -1.21287918 0.602543175
v -0.299048811 -1.21909297 0.601019263
v -0.433139384 -1.09146357 0.652383566
v -0.437941402 -1.21879327 0.621155202
v -0.441961616 -1.22092044 0.617116153
v -0.43337366 -1.09767723 0.650859594
v -0.440650403 -1.09144723 0.653472424
v -0.444801658 -1.08741415 0.650996745
v -0.45160231 -1.09313524 0.650544703
v -0.437707007 -1.21257949 0.622679114
v -0.445452422 -1.21877706 0.62224412
v -0.449836075 -1.2209034 0.618257761
v -0.447137326 -1.0969044 0.653041303
v -0.45182693 -1.09908974 0.64908433
v -0.440884739 -1.0976609 0.651948512
v -0.445218086 -1.2125634 0.623768091
v -0.451526761 -1.21329284 0.624496341
v -0.456204176 -1.21515405 0.620618939
v -0.455979615 -1.20919955 0.622079313
v -0.447351456 -1.10258412 0.651648343
v -0.451312542 -1.20761323 0.625889301
vt 0.0215483867 0.97464335
vt 0.0116298115 0.983688831
vt 0.0175696723 0.990104437
vt 0.00892664026 0.97552371
vt 0.0246372037 0.977273822
vt 0.0238286741 0.992519021
vt 0.0211796388 0.97105813
vt 0.00945853349 0.883443773
vt 0.0243537165 0.974552155
vt 0.0272625871 0.977492452
vt 0.0858898684 0.977450132
vt 0.0891530737 0.992469549
vt 0.0888313651 0.974504232
vt 0.0885166302 0.977228403
vt 0.0954443142 0.990040302
vt 0.101455428 0.983609915
vt 0.0916347951 0.974590421
vt 0.104248933 0.975443244
vt 0.0243343972 0.970991373
vt 0.0888911933 0.970941782
vt 0.0920456275 0.97100246
vt 0.0216618329 0.887884557
vt 0.0925277993 0.887828231
vt 0.104780771 0.88336271
vt 0.0248162188 0.887945175
vt 0.0220726877 0.884297073
vt 0.0122520356 0.875277519
vt 0.0182631537 0.86884737
vt 0.089373067 0.887894869
vt 0.0921590254 0.884242654
vt 0.10207767 0.875197113
vt 0.096137844 0.868781269
vt 0.025190901 0.88165921
vt 0.0245542638 0.866418064
vt 0.0248760916 0.884383202
vt 0.0893537924 0.884333909
vt 0.0890703052 0.881611824
vt 0.0898786411 0.866366565
vt 0.0278176405 0.88143754
vt 0.0864449739 0.881393313
vt 0.0186255015 0.777992368
vt 0.0133213466 0.768832803
vt 0.0095765423 0.774385393
vt 0.0181026272 0.766256213
vt 0.0170786157 0.780883729
vt 0.00816086866 0.780210674
vt 0.020719409 0.777624607
vt 0.0719838887 0.766277552
vt 0.0186712109 0.780604303
vt 0.0169467628 0.783327878
vt 0.016870033 0.837903142
vt 0.00807294808 0.840988219
vt 0.0185875557 0.840619922
vt 0.0169965886 0.840352118
vt 0.00947487541 0.846826792
vt 0.0185359605 0.843232393
vt 0.0132308668 0.852406502
vt 0.0180117302 0.854972959
vt 0.0207515657 0.780565202
vt 0.0206695125 0.840654194
vt 0.0206315145 0.843592942
vt 0.0693640485 0.777657568
vt 0.0692759082 0.843625844
vt 0.0718927905 0.854994059
vt 0.0693260059 0.780596256
vt 0.0714598075 0.778018117
vt 0.0767648295 0.768843949
vt 0.0805208907 0.774423778
vt 0.0692437068 0.840685248
vt 0.0713696256 0.843257904
vt 0.0766738281 0.85241729
vt 0.072999157 0.780898333
vt 0.081922695 0.780262291
vt 0.07140816 0.78063035
vt 0.0713238418 0.840645909
vt 0.0729163885 0.840366364
vt 0.0804184303 0.8468647
vt 0.0818339884 0.841039538
vt 0.0731256604 0.783347309
vt 0.0730481148 0.837922275
vn -0.239902154 0.621979296 -0.745378196
vn -0.434364378 0.856901944 0.27757296
vn -0.821914494 0.513100624 0.247354597
vn 0.0366036333 0.970568299 0.238028198
vn -0.488722831 0.403757721 -0.773388445
vn -0.98965174 0.00213526073 0.143474072
vn -0.107694522 0.649703681 -0.752520382
vn 0.0366035253 0.970567822 0.238030285
vn -0.138742208 0.240824938 -0.960600793
vn -0.456409007 0.228138894 -0.860025227
vn -0.456411183 0.228139162 -0.860024035
vn -0.98965162 0.00213653781 0.143474862
vn -0.138741478 0.24082534 -0.960600793
vn -0.502624154 0.035161227 -0.863789678
vn -0.860480964 -0.509471059 -0.00343653746
vn -0.498923272 -0.854889989 -0.142262667
vn -0.270456076 -0.18836917 -0.944124222
vn -0.0366038829 -0.970562339 -0.238052592
vn -0.13874355 0.240825236 -0.960600615
vn -0.13874343 0.240825146 -0.960600615
vn -0.140455261 -0.218976706 -0.965568066
vn -0.107693985 0.649703741 -0.752520502
vn -0.140455216 -0.218975455 -0.965568244
vn -0.0366030484 -0.970561862 -0.238054231
vn -0.138743788 0.240825206 -0.960600495
vn 0.020976115 0.621413708 -0.783201873
vn 0.498924226 0.854888916 0.142265841
vn 0.860478342 0.50947535 0.00344521995
vn -0.138743743 0.240825146 -0.960600495
vn -0.00958595239 -0.188929856 -0.981943727
vn 0.434366047 -0.856903851 -0.277564198
vn 0.821917713 -0.513103187 -0.247338668
vn 0.250680596 0.402168304 -0.880579293
vn 0.989650965 -0.00213410286 -0.143480211
vn -0.138742834 0.240824983 -0.960600734
vn -0.138742968 0.240825027 -0.960600734
vn 0.23677972 0.0335588157 -0.970983624
vn 0.989651084 -0.00213398598 -0.143479154
vn 0.194353908 0.226734072 -0.954367936
vn 0.194353387 0.226734191 -0.954368055
vn 0.270456165 0.18836841 0.944124341
vn 0.498924226 0.854888916 0.142265841
vn 0.860478342 0.50947535 0.00344521995
vn 0.0366035253 0.970567822 0.238030285
vn 0.502629161 -0.0351500735 0.863787174
vn 0.989650965 -0.00213410286 -0.143480211
vn 0.14045611 0.218978077 0.965567589
vn 0.0366036333 0.970568299 0.238028198
vn 0.138742119 -0.240825802 0.960600615
vn 0.4564116 -0.228139132 0.860023856
vn 0.456410974 -0.228139177 0.860024214
vn 0.989651084 -0.00213398598 -0.143479154
vn 0.138742208 -0.240825698 0.960600615
vn 0.488725632 -0.403760433 0.773385286
vn 0.821917713 -0.513103187 -0.247338668
vn 0.239901021 -0.621977746 0.745379865
vn 0.434366047 -0.856903851 -0.277564198
vn -0.0366030484 -0.970561862 -0.238054231
vn 0.13874355 -0.240825549 0.960600495
vn 0.138743415 -0.240824997 0.960600615
vn 0.107694939 -0.649707556 0.752516985
vn 0.140456304 0.218977854 0.965567589
vn 0.107694514 -0.649708569 0.75251621
vn -0.0366038829 -0.970562339 -0.238052592
vn 0.138743803 -0.240825489 0.960600495
vn 0.00958928838 0.188929096 0.981943846
vn -0.434364378 0.856901944 0.27757296
vn -0.821914494 0.513100624 0.247354597
vn 0.138743579 -0.240824923 0.960600615
vn -0.0209757648 -0.621410847 0.783204079
vn -0.498923272 -0.854889989 -0.142262667
vn -0.236782894 -0.0335604735 0.97098285
vn -0.98965174 0.00213526073 0.143474072
vn 0.138750106 -0.24082461 0.96059984
vn 0.138748974 -0.240824863 0.960599959
vn -0.250686854 -0.40216729 0.880577981
vn -0.860480964 -0.509471059 -0.00343653746
vn -0.98965162 0.00213653781 0.143474862
vn -0.19434616 -0.226734757 0.954369366
vn -0.194349036 -0.226734623 0.95436883
g DiZhu_Pai12_0
f 3/3/3 2/2/2 1/1/1
f 2/2/2 4/4/4 1/1/1
f 5/5/5 3/3/3 1/1/1
f 3/3/3 5/5/5 6/6/6
f 4/4/4 7/7/7 1/1/1
f 4/4/4 8/8/8 7/7/7
f 1/1/1 9/9/9 5/5/5
f 1/1/1 7/7/7 9/9/9
f 5/5/5 10/10/10 6/6/6
f 9/9/9 10/10/10 5/5/5
f 6/6/6 10/10/10 11/11/11
f 12/12/12 6/6/6 11/11/11
f 9/9/9 13/13/13 10/10/10
f 13/13/13 11/11/11 10/10/10
f 12/12/12 11/11/11 14/14/14
f 14/14/14 11/11/11 13/13/13
f 15/15/15 12/12/12 14/14/14
f 16/16/16 15/15/15 14/14/14
f 17/17/17 16/16/16 14/14/14
f 17/17/17 14/14/14 13/13/13
f 16/16/16 17/17/17 18/18/18
f 7/7/7 19/19/19 9/9/9
f 9/9/9 19/19/19 13/13/13
f 13/13/13 20/20/20 17/17/17
f 19/19/19 20/20/20 13/13/13
f 17/17/17 21/21/21 18/18/18
f 20/20/20 21/21/21 17/17/17
f 19/19/19 7/7/7 22/22/22
f 8/8/8 22/22/22 7/7/7
f 18/18/18 21/21/21 23/23/23
f 24/24/24 18/18/18 23/23/23
f 19/19/19 25/25/25 20/20/20
f 25/25/25 19/19/19 22/22/22
f 26/26/26 22/22/22 8/8/8
f 25/25/25 22/22/22 26/26/26
f 27/27/27 26/26/26 8/8/8
f 27/27/27 28/28/28 26/26/26
f 20/20/20 29/29/29 21/21/21
f 25/25/25 29/29/29 20/20/20
f 29/29/29 23/23/23 21/21/21
f 24/24/24 23/23/23 30/30/30
f 31/31/31 24/24/24 30/30/30
f 32/32/32 31/31/31 30/30/30
f 28/28/28 33/33/33 26/26/26
f 28/28/28 34/34/34 33/33/33
f 35/35/35 25/25/25 26/26/26
f 29/29/29 25/25/25 35/35/35
f 26/26/26 33/33/33 35/35/35
f 23/23/23 29/29/29 36/36/36
f 30/30/30 23/23/23 36/36/36
f 36/36/36 29/29/29 35/35/35
f 37/37/37 32/32/32 30/30/30
f 30/30/30 36/36/36 37/37/37
f 32/32/32 37/37/37 38/38/38
f 34/34/34 39/39/39 33/33/33
f 33/33/33 39/39/39 35/35/35
f 34/34/34 38/38/38 39/39/39
f 36/36/36 35/35/35 40/40/40
f 36/36/36 40/40/40 37/37/37
f 35/35/35 39/39/39 40/40/40
f 38/38/38 40/40/40 39/39/39
f 37/37/37 40/40/40 38/38/38
f 43/43/43 42/42/42 41/41/41
f 42/42/42 44/44/44 41/41/41
f 45/45/45 43/43/43 41/41/41
f 43/43/43 45/45/45 46/46/46
f 44/44/44 47/47/47 41/41/41
f 44/44/44 48/48/48 47/47/47
f 41/41/41 49/49/49 45/45/45
f 41/41/41 47/47/47 49/49/49
f 45/45/45 50/50/50 46/46/46
f 49/49/49 50/50/50 45/45/45
f 46/46/46 50/50/50 51/51/51
f 52/52/52 46/46/46 51/51/51
f 50/50/50 49/49/49 53/53/53
f 51/51/51 50/50/50 53/53/53
f 52/52/52 51/51/51 54/54/54
f 54/54/54 51/51/51 53/53/53
f 55/55/55 52/52/52 54/54/54
f 55/55/55 54/54/54 56/56/56
f 56/56/56 54/54/54 53/53/53
f 57/57/57 55/55/55 56/56/56
f 57/57/57 56/56/56 58/58/58
f 47/47/47 59/59/59 49/49/49
f 49/49/49 59/59/59 53/53/53
f 53/53/53 60/60/60 56/56/56
f 59/59/59 60/60/60 53/53/53
f 56/56/56 61/61/61 58/58/58
f 60/60/60 61/61/61 56/56/56
f 59/59/59 47/47/47 62/62/62
f 48/48/48 62/62/62 47/47/47
f 58/58/58 61/61/61 63/63/63
f 64/64/64 58/58/58 63/63/63
f 59/59/59 65/65/65 60/60/60
f 65/65/65 59/59/59 62/62/62
f 66/66/66 62/62/62 48/48/48
f 65/65/65 62/62/62 66/66/66
f 67/67/67 66/66/66 48/48/48
f 67/67/67 68/68/68 66/66/66
f 60/60/60 69/69/69 61/61/61
f 65/65/65 69/69/69 60/60/60
f 69/69/69 63/63/63 61/61/61
f 64/64/64 63/63/63 70/70/70
f 71/71/71 64/64/64 70/70/70
f 68/68/68 72/72/72 66/66/66
f 68/68/68 73/73/73 72/72/72
f 74/74/74 65/65/65 66/66/66
f 69/69/69 65/65/65 74/74/74
f 66/66/66 72/72/72 74/74/74
f 63/63/63 69/69/69 75/75/75
f 70/70/70 63/63/63 75/75/75
f 75/75/75 69/69/69 74/74/74
f 71/71/71 70/70/70 76/76/76
f 70/70/70 75/75/75 76/76/76
f 77/77/77 71/71/71 76/76/76
f 77/77/77 76/76/76 78/78/78
f 73/73/73 79/79/79 72/72/72
f 72/72/72 79/79/79 74/74/74
f 73/73/73 78/78/78 79/79/79
f 75/75/75 74/74/74 80/80/80
f 75/75/75 80/80/80 76/76/76
f 74/74/74 79/79/79 80/80/80
f 78/78/78 80/80/80 79/79/79
f 76/76/76 80/80/80 78/78/78
