g Pai004
v -0.491130084 -1.09542918 0.475984216
v -0.496056408 -1.0934484 0.479366034
v -0.499027848 -1.10152626 0.481624931
v -0.489091188 -1.08970749 0.478470415
v -0.493964493 -1.10313439 0.478138924
v -0.496066183 -1.10666537 0.483192742
v -0.484486341 -1.09186089 0.475129932
v -0.360293061 -1.02053225 0.461909056
v -0.488039494 -1.10079193 0.477620214
v -0.491139442 -1.10803616 0.479634345
v -0.438899606 -1.19868171 0.507287741
v -0.44129923 -1.20169568 0.512183845
v -0.430888772 -1.19995844 0.507873178
v -0.436074585 -1.2035836 0.508783162
v -0.438337535 -1.20683467 0.513751566
v -0.429660827 -1.20865643 0.514512777
v -0.427798152 -1.20532119 0.509509206
v -0.422695607 -1.20491564 0.513617158
v -0.481395721 -1.09722364 0.476765931
v -0.424245 -1.19639027 0.507018864
v -0.42115438 -1.20175302 0.508654952
v -0.361631274 -1.02587759 0.459332764
v -0.298299313 -1.13576961 0.492857784
v -0.29389748 -1.13574028 0.497055799
v -0.358540654 -1.03124034 0.460968763
v -0.354987532 -1.0223093 0.45847851
v -0.3533279 -1.01679134 0.461013436
v -0.344651133 -1.0186131 0.461774617
v -0.301389933 -1.13040686 0.491221726
v -0.29165557 -1.13220131 0.492003471
v -0.286932349 -1.13199937 0.496160179
v -0.283960789 -1.12392151 0.493901283
v -0.346711069 -1.02404702 0.459204525
v -0.341689497 -1.02375209 0.463342398
v -0.351896912 -1.02767205 0.460114509
v -0.294746161 -1.12683868 0.490367472
v -0.28882122 -1.12449634 0.489848763
v -0.286922485 -1.11878252 0.492333472
v -0.343886077 -1.0289489 0.460699946
v -0.291646212 -1.11959434 0.488353342
v -0.355190575 -1.02012658 0.466017038
v -0.3533279 -1.01679134 0.461013436
v -0.344651133 -1.0186131 0.461774617
v -0.360293061 -1.02053225 0.461909056
v -0.346914083 -1.02186418 0.466743082
v -0.341689497 -1.02375209 0.463342398
v -0.361834288 -1.02369475 0.466871291
v -0.489091188 -1.08970749 0.478470415
v -0.352099955 -1.02548921 0.467653036
v -0.344089091 -1.02676606 0.468238473
v -0.291849226 -1.11741149 0.495891869
v -0.286922485 -1.11878252 0.492333472
v -0.294949174 -1.12465584 0.497905999
v -0.289024234 -1.12231338 0.49738729
v -0.283960789 -1.12392151 0.493901283
v -0.291858613 -1.13001859 0.499541998
v -0.286932349 -1.13199937 0.496160179
v -0.29389748 -1.13574028 0.497055799
v -0.358743697 -1.0290575 0.46850729
v -0.301592946 -1.12822413 0.498760253
v -0.298502356 -1.13358688 0.500396311
v -0.484689355 -1.08967817 0.482668489
v -0.421357423 -1.19957018 0.516193449
v -0.422695607 -1.20491564 0.513617158
v -0.481598735 -1.09504092 0.484304488
v -0.491333097 -1.09324646 0.483522743
v -0.496056408 -1.0934484 0.479366034
v -0.499027848 -1.10152626 0.481624931
v -0.424448013 -1.19420743 0.514557421
v -0.428001165 -1.20313847 0.517047763
v -0.429660827 -1.20865643 0.514512777
v -0.494167507 -1.10095155 0.485677481
v -0.496066183 -1.10666537 0.483192742
v -0.488242507 -1.09860909 0.485158771
v -0.431091756 -1.19777572 0.515411735
v -0.436277568 -1.20140076 0.516321719
v -0.438337535 -1.20683467 0.513751566
v -0.44129923 -1.20169568 0.512183845
v -0.491342455 -1.10585344 0.487172872
v -0.43910259 -1.19649887 0.514826238
vt 0.0215483867 0.97464335
vt 0.0116298115 0.983688831
vt 0.0175696723 0.990104437
vt 0.00892664026 0.97552371
vt 0.0246372037 0.977273822
vt 0.0238286741 0.992519021
vt 0.0211796388 0.97105813
vt 0.00945853349 0.883443773
vt 0.0243537165 0.974552155
vt 0.0272625871 0.977492452
vt 0.0858898684 0.977450132
vt 0.0891530737 0.992469549
vt 0.0888313651 0.974504232
vt 0.0885166302 0.977228403
vt 0.0954443142 0.990040302
vt 0.101455428 0.983609915
vt 0.0916347951 0.974590421
vt 0.104248933 0.975443244
vt 0.0243343972 0.970991373
vt 0.0888911933 0.970941782
vt 0.0920456275 0.97100246
vt 0.0216618329 0.887884557
vt 0.0925277993 0.887828231
vt 0.104780771 0.88336271
vt 0.0248162188 0.887945175
vt 0.0220726877 0.884297073
vt 0.0122520356 0.875277519
vt 0.0182631537 0.86884737
vt 0.089373067 0.887894869
vt 0.0921590254 0.884242654
vt 0.10207767 0.875197113
vt 0.096137844 0.868781269
vt 0.025190901 0.88165921
vt 0.0245542638 0.866418064
vt 0.0248760916 0.884383202
vt 0.0893537924 0.884333909
vt 0.0890703052 0.881611824
vt 0.0898786411 0.866366565
vt 0.0278176405 0.88143754
vt 0.0864449739 0.881393313
vt 0.0186255015 0.777992368
vt 0.0133213466 0.768832803
vt 0.0095765423 0.774385393
vt 0.0181026272 0.766256213
vt 0.0170786157 0.780883729
vt 0.00816086866 0.780210674
vt 0.020719409 0.777624607
vt 0.0719838887 0.766277552
vt 0.0186712109 0.780604303
vt 0.0169467628 0.783327878
vt 0.016870033 0.837903142
vt 0.00807294808 0.840988219
vt 0.0185875557 0.840619922
vt 0.0169965886 0.840352118
vt 0.00947487541 0.846826792
vt 0.0185359605 0.843232393
vt 0.0132308668 0.852406502
vt 0.0180117302 0.854972959
vt 0.0207515657 0.780565202
vt 0.0206695125 0.840654194
vt 0.0206315145 0.843592942
vt 0.0693640485 0.777657568
vt 0.0692759082 0.843625844
vt 0.0718927905 0.854994059
vt 0.0693260059 0.780596256
vt 0.0714598075 0.778018117
vt 0.0767648295 0.768843949
vt 0.0805208907 0.774423778
vt 0.0692437068 0.840685248
vt 0.0713696256 0.843257904
vt 0.0766738281 0.85241729
vt 0.072999157 0.780898333
vt 0.081922695 0.780262291
vt 0.07140816 0.78063035
vt 0.0713238418 0.840645909
vt 0.0729163885 0.840366364
vt 0.0804184303 0.8468647
vt 0.0818339884 0.841039538
vt 0.0731256604 0.783347309
vt 0.0730481148 0.837922275
vn -0.293649107 0.0377421156 -0.955167949
vn -0.838472784 0.516994476 -0.172279656
vn -0.99837327 0.0416373722 -0.0389497988
vn -0.482746333 0.837648749 -0.255539745
vn -0.395201921 -0.269018412 -0.878319204
vn -0.875378072 -0.470153898 0.112554982
vn -0.192913026 0.126223326 -0.97306335
vn -0.482745916 0.837648451 -0.255541325
vn 0.0258521587 -0.278035194 -0.9602229
vn -0.26338464 -0.41715467 -0.869833589
vn -0.263387024 -0.417155534 -0.869832516
vn -0.875378609 -0.47015205 0.112558521
vn 0.0258516986 -0.278035343 -0.9602229
vn -0.211862072 -0.587139428 -0.781269372
vn -0.489758134 -0.840894103 0.230291456
vn 0.0129477307 -0.960370541 0.278425664
vn 0.109402128 -0.66162616 -0.741809964
vn 0.482745916 -0.837650955 0.255533278
vn 0.0258583054 -0.278034538 -0.9602229
vn 0.0258586016 -0.278034717 -0.9602229
vn 0.239160448 -0.623498201 -0.744346857
vn -0.192912772 0.126222432 -0.973063469
vn 0.239160463 -0.623498082 -0.744346976
vn 0.482745618 -0.837651491 0.255532205
vn 0.0258587878 -0.278034508 -0.9602229
vn -0.0629023463 0.161674127 -0.984837472
vn -0.0129458085 0.960369408 -0.278429568
vn 0.489757568 0.840892255 -0.230299339
vn 0.0258591417 -0.278034717 -0.9602229
vn 0.340149581 -0.53769511 -0.77148056
vn 0.838472486 -0.516995072 0.172278702
vn 0.99837327 -0.0416377783 0.038950596
vn 0.25882265 0.082251884 -0.96241653
vn 0.875377178 0.47015363 -0.112562418
vn 0.0258596037 -0.278034627 -0.9602229
vn 0.0258597881 -0.278034657 -0.9602229
vn 0.442158222 -0.23587431 -0.865366638
vn 0.875377059 0.470154226 -0.11256098
vn 0.312231004 -0.107999273 -0.943847418
vn 0.312231302 -0.107999101 -0.943847418
vn -0.109403126 0.661624789 0.741811097
vn -0.0129458085 0.960369408 -0.278429568
vn 0.489757568 0.840892255 -0.230299339
vn -0.482745916 0.837648451 -0.255541325
vn 0.211858645 0.587137401 0.781271696
vn 0.875377178 0.47015363 -0.112562418
vn -0.239161402 0.623498082 0.744346797
vn -0.482746333 0.837648749 -0.255539745
vn -0.0258596279 0.27803418 0.960223019
vn 0.263391078 0.417156488 0.869830787
vn 0.263390601 0.417156398 0.869830966
vn 0.875377059 0.470154226 -0.11256098
vn -0.0258594491 0.278034389 0.960223019
vn 0.395204753 0.26901412 0.878319204
vn 0.99837327 -0.0416377783 0.038950596
vn 0.293654323 -0.0377435945 0.955166221
vn 0.838472486 -0.516995072 0.172278702
vn 0.482745618 -0.837651491 0.255532205
vn -0.0258586314 0.278034627 0.9602229
vn -0.0258586314 0.278034866 0.9602229
vn 0.192913219 -0.12622264 0.97306335
vn -0.239160985 0.623497128 0.744347572
vn 0.19291319 -0.12622264 0.97306335
vn 0.482745916 -0.837650955 0.255533278
vn -0.0258584693 0.278034508 0.9602229
vn -0.340150952 0.537691355 0.771482527
vn -0.838472784 0.516994476 -0.172279656
vn -0.99837327 0.0416373722 -0.0389497988
vn -0.0258584581 0.278034747 0.9602229
vn 0.0629027933 -0.161671951 0.98483777
vn 0.0129477307 -0.960370541 0.278425664
vn -0.442163378 0.235871941 0.865364671
vn -0.875378072 -0.470153898 0.112554982
vn -0.0258573815 0.278033286 0.960223317
vn -0.0258574318 0.278033584 0.960223198
vn -0.258822232 -0.0822532028 0.96241653
vn -0.489758134 -0.840894103 0.230291456
vn -0.875378609 -0.47015205 0.112558521
vn -0.312231749 0.107999608 0.943847179
vn -0.312233478 0.10799858 0.943846643
g Pai004_0
f 3/3/3 2/2/2 1/1/1
f 2/2/2 4/4/4 1/1/1
f 5/5/5 3/3/3 1/1/1
f 3/3/3 5/5/5 6/6/6
f 4/4/4 7/7/7 1/1/1
f 4/4/4 8/8/8 7/7/7
f 1/1/1 9/9/9 5/5/5
f 1/1/1 7/7/7 9/9/9
f 5/5/5 10/10/10 6/6/6
f 9/9/9 10/10/10 5/5/5
f 6/6/6 10/10/10 11/11/11
f 12/12/12 6/6/6 11/11/11
f 9/9/9 13/13/13 10/10/10
f 13/13/13 11/11/11 10/10/10
f 12/12/12 11/11/11 14/14/14
f 14/14/14 11/11/11 13/13/13
f 15/15/15 12/12/12 14/14/14
f 16/16/16 15/15/15 14/14/14
f 17/17/17 16/16/16 14/14/14
f 17/17/17 14/14/14 13/13/13
f 16/16/16 17/17/17 18/18/18
f 7/7/7 19/19/19 9/9/9
f 9/9/9 19/19/19 13/13/13
f 13/13/13 20/20/20 17/17/17
f 19/19/19 20/20/20 13/13/13
f 17/17/17 21/21/21 18/18/18
f 20/20/20 21/21/21 17/17/17
f 19/19/19 7/7/7 22/22/22
f 8/8/8 22/22/22 7/7/7
f 18/18/18 21/21/21 23/23/23
f 24/24/24 18/18/18 23/23/23
f 19/19/19 25/25/25 20/20/20
f 25/25/25 19/19/19 22/22/22
f 26/26/26 22/22/22 8/8/8
f 25/25/25 22/22/22 26/26/26
f 27/27/27 26/26/26 8/8/8
f 27/27/27 28/28/28 26/26/26
f 20/20/20 29/29/29 21/21/21
f 25/25/25 29/29/29 20/20/20
f 29/29/29 23/23/23 21/21/21
f 24/24/24 23/23/23 30/30/30
f 31/31/31 24/24/24 30/30/30
f 32/32/32 31/31/31 30/30/30
f 28/28/28 33/33/33 26/26/26
f 28/28/28 34/34/34 33/33/33
f 35/35/35 25/25/25 26/26/26
f 29/29/29 25/25/25 35/35/35
f 26/26/26 33/33/33 35/35/35
f 23/23/23 29/29/29 36/36/36
f 30/30/30 23/23/23 36/36/36
f 36/36/36 29/29/29 35/35/35
f 37/37/37 32/32/32 30/30/30
f 30/30/30 36/36/36 37/37/37
f 32/32/32 37/37/37 38/38/38
f 34/34/34 39/39/39 33/33/33
f 33/33/33 39/39/39 35/35/35
f 34/34/34 38/38/38 39/39/39
f 36/36/36 35/35/35 40/40/40
f 36/36/36 40/40/40 37/37/37
f 35/35/35 39/39/39 40/40/40
f 38/38/38 40/40/40 39/39/39
f 37/37/37 40/40/40 38/38/38
f 43/43/43 42/42/42 41/41/41
f 42/42/42 44/44/44 41/41/41
f 45/45/45 43/43/43 41/41/41
f 43/43/43 45/45/45 46/46/46
f 44/44/44 47/47/47 41/41/41
f 44/44/44 48/48/48 47/47/47
f 41/41/41 49/49/49 45/45/45
f 41/41/41 47/47/47 49/49/49
f 45/45/45 50/50/50 46/46/46
f 49/49/49 50/50/50 45/45/45
f 46/46/46 50/50/50 51/51/51
f 52/52/52 46/46/46 51/51/51
f 50/50/50 49/49/49 53/53/53
f 51/51/51 50/50/50 53/53/53
f 52/52/52 51/51/51 54/54/54
f 54/54/54 51/51/51 53/53/53
f 55/55/55 52/52/52 54/54/54
f 55/55/55 54/54/54 56/56/56
f 56/56/56 54/54/54 53/53/53
f 57/57/57 55/55/55 56/56/56
f 57/57/57 56/56/56 58/58/58
f 47/47/47 59/59/59 49/49/49
f 49/49/49 59/59/59 53/53/53
f 53/53/53 60/60/60 56/56/56
f 59/59/59 60/60/60 53/53/53
f 56/56/56 61/61/61 58/58/58
f 60/60/60 61/61/61 56/56/56
f 59/59/59 47/47/47 62/62/62
f 48/48/48 62/62/62 47/47/47
f 58/58/58 61/61/61 63/63/63
f 64/64/64 58/58/58 63/63/63
f 59/59/59 65/65/65 60/60/60
f 65/65/65 59/59/59 62/62/62
f 66/66/66 62/62/62 48/48/48
f 65/65/65 62/62/62 66/66/66
f 67/67/67 66/66/66 48/48/48
f 67/67/67 68/68/68 66/66/66
f 60/60/60 69/69/69 61/61/61
f 65/65/65 69/69/69 60/60/60
f 69/69/69 63/63/63 61/61/61
f 64/64/64 63/63/63 70/70/70
f 71/71/71 64/64/64 70/70/70
f 68/68/68 72/72/72 66/66/66
f 68/68/68 73/73/73 72/72/72
f 74/74/74 65/65/65 66/66/66
f 69/69/69 65/65/65 74/74/74
f 66/66/66 72/72/72 74/74/74
f 63/63/63 69/69/69 75/75/75
f 70/70/70 63/63/63 75/75/75
f 75/75/75 69/69/69 74/74/74
f 71/71/71 70/70/70 76/76/76
f 70/70/70 75/75/75 76/76/76
f 77/77/77 71/71/71 76/76/76
f 77/77/77 76/76/76 78/78/78
f 73/73/73 79/79/79 72/72/72
f 72/72/72 79/79/79 74/74/74
f 73/73/73 78/78/78 79/79/79
f 75/75/75 74/74/74 80/80/80
f 75/75/75 80/80/80 76/76/76
f 74/74/74 79/79/79 80/80/80
f 78/78/78 80/80/80 79/79/79
f 76/76/76 80/80/80 78/78/78
