g Pai001
v 0.533943236 -0.00716844434 0.692743957
v 0.533084154 -0.00327994721 0.697542846
v 0.541448951 -0.00327994931 0.700323761
v 0.529143214 -0.00327994581 0.690716863
v 0.541921973 -0.00716844527 0.695396721
v 0.546712101 -0.00327994884 0.697285116
v 0.53018415 -0.00716844341 0.686233044
v 0.456267923 -0.00327992276 0.564493179
v 0.539435506 -0.00716844527 0.689573169
v 0.546942294 -0.00716844527 0.692498147
v 0.639777422 -0.00716844527 0.638899744
v 0.644038081 -0.00327994884 0.64109391
v 0.640997767 -0.0071684448 0.630936086
v 0.644797802 -0.00716844527 0.636001289
v 0.649301291 -0.00327994931 0.638055205
v 0.651075423 -0.00327994698 0.629420638
v 0.646489918 -0.00716844434 0.627765119
v 0.647134483 -0.00327994605 0.622594655
v 0.53567636 -0.00716844434 0.683062136
v 0.637238562 -0.00716844294 0.624425173
v 0.642730832 -0.00716844341 0.621254206
v 0.460671455 -0.00716842106 0.565833628
v 0.573218167 -0.00716842059 0.500854731
v 0.574259102 -0.00327992323 0.496370912
v 0.466163725 -0.00716841966 0.562662661
v 0.456912339 -0.00716841919 0.559322715
v 0.452326924 -0.00327992183 0.557667255
v 0.454100937 -0.0032799202 0.549032688
v 0.567725956 -0.00716842059 0.504025698
v 0.569459081 -0.00716841873 0.494343787
v 0.570318162 -0.00327992183 0.489544958
v 0.561953366 -0.00327991974 0.486764044
v 0.458604544 -0.00716841873 0.551086545
v 0.459364206 -0.0032799202 0.545994043
v 0.462404579 -0.00716841919 0.556151748
v 0.56396687 -0.00716841966 0.497514755
v 0.561480343 -0.0071684178 0.491691202
v 0.556690216 -0.0032799202 0.489802778
v 0.463624865 -0.0071684178 0.54818809
v 0.556459963 -0.00716841733 0.494589686
v 0.456912339 0.000608574192 0.559322715
v 0.452326924 -0.00327992183 0.557667255
v 0.454100937 -0.0032799202 0.549032688
v 0.456267923 -0.00327992276 0.564493179
v 0.458604544 0.00060857553 0.551086545
v 0.459364206 -0.0032799202 0.545994043
v 0.460671455 0.000608572969 0.565833628
v 0.529143214 -0.00327994581 0.690716863
v 0.462404579 0.000608573901 0.556151748
v 0.463624835 0.00060857553 0.54818809
v 0.556459963 0.000608575647 0.494589686
v 0.556690216 -0.0032799202 0.489802778
v 0.56396687 0.000608574133 0.497514755
v 0.561480343 0.000608575705 0.491691202
v 0.561953366 -0.00327991974 0.486764044
v 0.569459081 0.000608574424 0.494343787
v 0.570318162 -0.00327992183 0.489544958
v 0.574259102 -0.00327992323 0.496370912
v 0.466163725 0.00060857326 0.562662661
v 0.567725956 0.000608572911 0.504025698
v 0.573218167 0.000608573202 0.500854731
v 0.53018415 0.000608550967 0.686233044
v 0.642730832 0.000608551258 0.621254206
v 0.647134483 -0.00327994605 0.622594655
v 0.53567636 0.000608551025 0.683062136
v 0.533943236 0.000608549803 0.692743957
v 0.533084154 -0.00327994721 0.697542846
v 0.541448951 -0.00327994931 0.700323761
v 0.637238562 0.000608550909 0.624425173
v 0.646489918 0.000608549744 0.627765119
v 0.651075423 -0.00327994698 0.629420638
v 0.541921973 0.000608548522 0.695396721
v 0.546712101 -0.00327994884 0.697285116
v 0.539435506 0.000608550094 0.689573169
v 0.640997767 0.000608550035 0.630936086
v 0.644797802 0.000608548697 0.636001289
v 0.649301291 -0.00327994931 0.638055205
v 0.644038081 -0.00327994884 0.64109391
v 0.546942294 0.000608548522 0.692498147
v 0.639777482 0.000608548638 0.638899744
vt 0.127944484 0.97464335
vt 0.118025862 0.983688831
vt 0.123965777 0.990104437
vt 0.115322731 0.97552371
vt 0.131033286 0.977273822
vt 0.130224779 0.992519021
vt 0.12757571 0.97105813
vt 0.115854643 0.883443773
vt 0.130749807 0.974552155
vt 0.133658692 0.977492452
vt 0.19228597 0.977450132
vt 0.19554913 0.992469549
vt 0.195227414 0.974504232
vt 0.194912702 0.977228403
vt 0.201840356 0.990040302
vt 0.207851529 0.983609915
vt 0.198030874 0.974590421
vt 0.210645035 0.975443244
vt 0.130730495 0.970991373
vt 0.195287287 0.970941782
vt 0.198441729 0.97100246
vt 0.128057882 0.887884557
vt 0.198923901 0.887828231
vt 0.211176872 0.88336271
vt 0.131212279 0.887945175
vt 0.128468737 0.884297073
vt 0.118648119 0.875277519
vt 0.124659263 0.86884737
vt 0.195769116 0.887894869
vt 0.198555082 0.884242654
vt 0.208473742 0.875197113
vt 0.202533945 0.868781269
vt 0.131586954 0.88165921
vt 0.130950347 0.866418064
vt 0.131272197 0.884383202
vt 0.195749894 0.884333909
vt 0.195466384 0.881611824
vt 0.196274742 0.866366565
vt 0.134213701 0.88143754
vt 0.192841023 0.881393313
vt 0.0983750597 0.777992368
vt 0.093070887 0.768832803
vt 0.0893260986 0.774385393
vt 0.097852163 0.766256213
vt 0.0968281552 0.780883729
vt 0.0879103988 0.780210674
vt 0.100468941 0.777624607
vt 0.151733443 0.766277552
vt 0.0984207466 0.780604303
vt 0.0966962948 0.783327878
vt 0.0966195688 0.837903142
vt 0.087822482 0.840988219
vt 0.0983371064 0.840619922
vt 0.0967461392 0.840352118
vt 0.0892243832 0.846826792
vt 0.098285459 0.843232393
vt 0.0929804221 0.852406502
vt 0.0977612361 0.854972959
vt 0.100501098 0.780565202
vt 0.100419037 0.840654194
vt 0.100381069 0.843592942
vt 0.149113551 0.777657568
vt 0.14902544 0.843625844
vt 0.151642323 0.854994059
vt 0.149075508 0.780596256
vt 0.151209295 0.778018117
vt 0.156514362 0.768843949
vt 0.160270423 0.774423778
vt 0.148993209 0.840685248
vt 0.151119158 0.843257904
vt 0.15642333 0.85241729
vt 0.152748689 0.780898333
vt 0.16167222 0.780262291
vt 0.151157647 0.78063035
vt 0.151073366 0.840645909
vt 0.152665943 0.840366364
vt 0.160167918 0.8468647
vt 0.161583513 0.841039538
vt 0.152875185 0.783347309
vt 0.152797669 0.837922275
vn -0.321614414 -0.893772483 0.312625766
vn -0.575470269 0 0.817822695
vn 0.070131056 0 0.997537851
vn -0.866025507 1.21982779E-07 0.499999791
vn 0.0647508428 -0.912524343 0.403864563
vn 0.500000477 -4.64540051E-07 0.86602515
vn -0.373167217 -0.902401507 0.215448037
vn -0.866023898 0 0.500002503
vn -1.04086254E-07 -1 0
vn 0.187192023 -0.92727387 0.324225694
vn 0.187191546 -0.92727375 0.324226201
vn 0.499998719 -9.01751605E-07 0.866026163
vn -0 -1 -1.24200668E-07
vn 0.317379206 -0.912524819 0.258009464
vn 0.82882303 -4.19076002E-07 0.559510827
vn 0.995990932 0 -0.0894542262
vn 0.431548834 -0.893773079 -0.122210294
vn 0.866025805 0 -0.499999255
vn -1.00124701E-07 -1 -1.31511271E-07
vn -0 -1 -1.45039323E-07
vn 0.373164773 -0.902402759 -0.2154468
vn -0.373167336 -0.902401209 0.215448841
vn 0.373165131 -0.90240258 -0.215447053
vn 0.866025805 0 -0.499999285
vn -0 -1 -1.42128954E-07
vn -0.431552529 -0.893770874 0.122213364
vn -0.995990455 0 0.0894592777
vn -0.828825355 0 -0.55950737
vn -0 -1 -1.29452516E-07
vn 0.321615547 -0.893770933 -0.312628984
vn 0.575467229 0 -0.8178249
vn -0.0701344162 1.79604925E-07 -0.997537613
vn -0.317377597 -0.912525117 -0.258010536
vn -0.499997586 -2.18605066E-07 -0.866026878
vn -0 -1 -1.37669772E-07
vn -0 -1 -1.92715149E-07
vn -0.0647526309 -0.912525237 -0.403862447
vn -0.500000417 -1.36628728E-07 -0.866025269
vn -0.187193319 -0.927272201 -0.324229687
vn -0.187193885 -0.92727232 -0.324229032
vn -0.43155241 0.893770874 0.122213602
vn -0.995990455 0 0.0894592777
vn -0.828825355 0 -0.55950737
vn -0.866023898 0 0.500002503
vn -0.317377716 0.912525237 -0.258009911
vn -0.499997586 -2.18605066E-07 -0.866026878
vn -0.373167276 0.902401209 0.215449065
vn -0.866025507 1.21982779E-07 0.499999791
vn 1.01782831E-07 1 1.61245424E-07
vn -0.187193707 0.927272022 -0.324229956
vn -0.187193841 0.92727232 -0.324228972
vn -0.500000417 -1.36628728E-07 -0.866025269
vn -0 1 1.80580486E-07
vn -0.0647524595 0.912525415 -0.403862149
vn -0.0701344162 1.79604925E-07 -0.997537613
vn 0.321615696 0.893771052 -0.312628716
vn 0.575467229 0 -0.8178249
vn 0.866025805 0 -0.499999285
vn -0 1 1.25548979E-07
vn -0 1 1.42710334E-07
vn 0.37316522 0.90240258 -0.215446785
vn -0.373167008 0.902401507 0.215448216
vn 0.373164862 0.902402759 -0.215446562
vn 0.866025805 0 -0.499999255
vn -0 1 1.32051554E-07
vn -0.321614116 0.893772602 0.312625885
vn -0.575470269 0 0.817822695
vn 0.070131056 0 0.997537851
vn -0 1 1.36110344E-07
vn 0.431548893 0.893773079 -0.122210056
vn 0.995990932 0 -0.0894542262
vn 0.0647509918 0.912524343 0.403864801
vn 0.500000477 -4.64540051E-07 0.86602515
vn -0 1 1.69962917E-07
vn -0 1 1.5242162E-07
vn 0.317379743 0.912524819 0.258008897
vn 0.82882303 -4.19076002E-07 0.559510827
vn 0.499998719 -9.01751605E-07 0.866026163
vn 0.18719241 0.927273571 0.324226528
vn 0.187192827 0.927273035 0.324227601
g Pai001_0
f 3/3/3 2/2/2 1/1/1
f 2/2/2 4/4/4 1/1/1
f 5/5/5 3/3/3 1/1/1
f 3/3/3 5/5/5 6/6/6
f 4/4/4 7/7/7 1/1/1
f 4/4/4 8/8/8 7/7/7
f 1/1/1 9/9/9 5/5/5
f 1/1/1 7/7/7 9/9/9
f 5/5/5 10/10/10 6/6/6
f 9/9/9 10/10/10 5/5/5
f 6/6/6 10/10/10 11/11/11
f 12/12/12 6/6/6 11/11/11
f 9/9/9 13/13/13 10/10/10
f 13/13/13 11/11/11 10/10/10
f 12/12/12 11/11/11 14/14/14
f 14/14/14 11/11/11 13/13/13
f 15/15/15 12/12/12 14/14/14
f 16/16/16 15/15/15 14/14/14
f 17/17/17 16/16/16 14/14/14
f 17/17/17 14/14/14 13/13/13
f 16/16/16 17/17/17 18/18/18
f 7/7/7 19/19/19 9/9/9
f 9/9/9 19/19/19 13/13/13
f 13/13/13 20/20/20 17/17/17
f 19/19/19 20/20/20 13/13/13
f 17/17/17 21/21/21 18/18/18
f 20/20/20 21/21/21 17/17/17
f 19/19/19 7/7/7 22/22/22
f 8/8/8 22/22/22 7/7/7
f 18/18/18 21/21/21 23/23/23
f 24/24/24 18/18/18 23/23/23
f 19/19/19 25/25/25 20/20/20
f 25/25/25 19/19/19 22/22/22
f 26/26/26 22/22/22 8/8/8
f 25/25/25 22/22/22 26/26/26
f 27/27/27 26/26/26 8/8/8
f 27/27/27 28/28/28 26/26/26
f 20/20/20 29/29/29 21/21/21
f 25/25/25 29/29/29 20/20/20
f 29/29/29 23/23/23 21/21/21
f 24/24/24 23/23/23 30/30/30
f 31/31/31 24/24/24 30/30/30
f 32/32/32 31/31/31 30/30/30
f 28/28/28 33/33/33 26/26/26
f 28/28/28 34/34/34 33/33/33
f 35/35/35 25/25/25 26/26/26
f 29/29/29 25/25/25 35/35/35
f 26/26/26 33/33/33 35/35/35
f 23/23/23 29/29/29 36/36/36
f 30/30/30 23/23/23 36/36/36
f 36/36/36 29/29/29 35/35/35
f 37/37/37 32/32/32 30/30/30
f 30/30/30 36/36/36 37/37/37
f 32/32/32 37/37/37 38/38/38
f 34/34/34 39/39/39 33/33/33
f 33/33/33 39/39/39 35/35/35
f 34/34/34 38/38/38 39/39/39
f 36/36/36 35/35/35 40/40/40
f 36/36/36 40/40/40 37/37/37
f 35/35/35 39/39/39 40/40/40
f 38/38/38 40/40/40 39/39/39
f 37/37/37 40/40/40 38/38/38
f 43/43/43 42/42/42 41/41/41
f 42/42/42 44/44/44 41/41/41
f 45/45/45 43/43/43 41/41/41
f 43/43/43 45/45/45 46/46/46
f 44/44/44 47/47/47 41/41/41
f 44/44/44 48/48/48 47/47/47
f 41/41/41 49/49/49 45/45/45
f 41/41/41 47/47/47 49/49/49
f 45/45/45 50/50/50 46/46/46
f 49/49/49 50/50/50 45/45/45
f 46/46/46 50/50/50 51/51/51
f 52/52/52 46/46/46 51/51/51
f 50/50/50 49/49/49 53/53/53
f 51/51/51 50/50/50 53/53/53
f 52/52/52 51/51/51 54/54/54
f 54/54/54 51/51/51 53/53/53
f 55/55/55 52/52/52 54/54/54
f 55/55/55 54/54/54 56/56/56
f 56/56/56 54/54/54 53/53/53
f 57/57/57 55/55/55 56/56/56
f 57/57/57 56/56/56 58/58/58
f 47/47/47 59/59/59 49/49/49
f 49/49/49 59/59/59 53/53/53
f 53/53/53 60/60/60 56/56/56
f 59/59/59 60/60/60 53/53/53
f 56/56/56 61/61/61 58/58/58
f 60/60/60 61/61/61 56/56/56
f 59/59/59 47/47/47 62/62/62
f 48/48/48 62/62/62 47/47/47
f 58/58/58 61/61/61 63/63/63
f 64/64/64 58/58/58 63/63/63
f 59/59/59 65/65/65 60/60/60
f 65/65/65 59/59/59 62/62/62
f 66/66/66 62/62/62 48/48/48
f 65/65/65 62/62/62 66/66/66
f 67/67/67 66/66/66 48/48/48
f 67/67/67 68/68/68 66/66/66
f 60/60/60 69/69/69 61/61/61
f 65/65/65 69/69/69 60/60/60
f 69/69/69 63/63/63 61/61/61
f 64/64/64 63/63/63 70/70/70
f 71/71/71 64/64/64 70/70/70
f 68/68/68 72/72/72 66/66/66
f 68/68/68 73/73/73 72/72/72
f 74/74/74 65/65/65 66/66/66
f 69/69/69 65/65/65 74/74/74
f 66/66/66 72/72/72 74/74/74
f 63/63/63 69/69/69 75/75/75
f 70/70/70 63/63/63 75/75/75
f 75/75/75 69/69/69 74/74/74
f 71/71/71 70/70/70 76/76/76
f 70/70/70 75/75/75 76/76/76
f 77/77/77 71/71/71 76/76/76
f 77/77/77 76/76/76 78/78/78
f 73/73/73 79/79/79 72/72/72
f 72/72/72 79/79/79 74/74/74
f 73/73/73 78/78/78 79/79/79
f 75/75/75 74/74/74 80/80/80
f 75/75/75 80/80/80 76/76/76
f 74/74/74 79/79/79 80/80/80
f 78/78/78 80/80/80 79/79/79
f 76/76/76 80/80/80 78/78/78
