g Jinya
v 0.0152613791 -0.309524894 0.858142972
v 0.0126267271 -0.304833561 0.856918395
v 0.0165283158 -0.304235041 0.847985804
v 0.0192042161 -0.309074134 0.849289536
v 0.0204298906 -0.303636551 0.839053273
v 0.00492304098 -0.318547487 0.847773671
v 0.0083529735 -0.318428367 0.838844538
v 0.00149310543 -0.318666607 0.856702685
v -0.0140727684 -0.325827479 0.854557872
v 0.0231470708 -0.308623374 0.840436101
v 0.0252857376 -0.30836609 0.832921207
v 0.0233500507 -0.303533137 0.830302417
v 0.0210997202 -0.305227786 0.827365875
v -0.0113454247 -0.326028585 0.845697522
v 0.0230374541 -0.310059547 0.829985261
v 0.00724339485 -0.313008726 0.825191498
v -0.0169591345 -0.322824061 0.844023705
v -0.0195464157 -0.322713912 0.852986336
v -0.014371857 -0.32293418 0.835061073
v 0.0107996529 -0.318041652 0.831361055
v 0.0117641576 -0.317891628 0.828388631
v -0.00191155716 -0.323786438 0.827767074
v -0.00696967309 -0.320677966 0.824831605
v -0.0108610112 -0.322415948 0.826901197
v -0.00583155919 -0.325535774 0.829860806
v -0.00861807354 -0.326229692 0.836837113
v 0.0072062253 -0.301722586 0.855160713
v 0.0165283158 -0.304235041 0.847985804
v 0.0126267271 -0.304833561 0.856918395
v 0.0109152542 -0.301045358 0.846220672
v 0.0204298906 -0.303636551 0.839053273
v -0.00537749287 -0.308570296 0.843960047
v -0.00223811297 -0.308169752 0.834923327
v -0.00851687323 -0.308970839 0.852996647
v -0.0221279338 -0.318025172 0.851575613
v -0.0196343735 -0.31799984 0.842628717
v -0.0195464157 -0.322713912 0.852986336
v -0.0169591345 -0.322824061 0.844023705
v -0.0171408243 -0.317974508 0.833681762
v -0.0138867181 -0.317733467 0.826878488
v -0.014371857 -0.32293418 0.835061073
v -0.0108610112 -0.322415948 0.826901197
v -0.00696967309 -0.320677966 0.824831605
v 0.0146242948 -0.30036816 0.837280631
v 0.017230574 -0.300563753 0.829938948
v 0.0233500507 -0.303533137 0.830302417
v 0.000649858848 -0.308185875 0.827527046
v 0.0149823017 -0.30225724 0.827002943
v 0.0210997202 -0.305227786 0.827365875
v 0.00724339485 -0.313008726 0.825191498
v 0.00175416376 -0.308195859 0.824682593
v -0.00996672455 -0.31598413 0.824784815
vt 0.62070322 0.13587518
vt 0.642005324 0.132010773
vt 0.640415847 0.118434794
vt 0.619453907 0.123272486
vt 0.637950242 0.10311456
vt 0.594352186 0.126501232
vt 0.594315588 0.114878066
vt 0.594320714 0.138874948
vt 0.569205046 0.13536188
vt 0.618395507 0.111317597
vt 0.616900027 0.102225989
vt 0.630459309 0.0882263705
vt 0.621554255 0.0820552856
vt 0.570455134 0.123076357
vt 0.612544835 0.100046687
vt 0.595503032 0.0786170587
vt 0.5500018 0.118078046
vt 0.548280656 0.131546587
vt 0.552979887 0.102828391
vt 0.594218373 0.105720431
vt 0.594067812 0.102844343
vt 0.576666772 0.101694405
vt 0.569963157 0.0832960382
vt 0.561169744 0.0890600234
vt 0.572939157 0.103793614
vt 0.57145071 0.111741908
vt 0.564864218 0.0669715628
vt 0.546667218 0.0491517968
vt 0.544512153 0.0621158108
vt 0.56636399 0.0548193529
vt 0.549550176 0.0344585553
vt 0.589805067 0.0574691072
vt 0.589870453 0.0460173562
vt 0.589757681 0.0695707873
vt 0.615096629 0.0663962811
vt 0.614103734 0.05428496
vt 0.635830283 0.0625065714
vt 0.634470165 0.0493997335
vt 0.613284349 0.0428441055
vt 0.611957788 0.0345608108
vt 0.63218677 0.0346356072
vt 0.625268102 0.0209076703
vt 0.617218792 0.0151270619
vt 0.567466319 0.043513108
vt 0.568944693 0.0350874737
vt 0.557778239 0.0204801299
vt 0.590022027 0.0368551575
vt 0.57287848 0.032754004
vt 0.566746652 0.0146602103
vt 0.592344463 0.0106712198
vt 0.589959025 0.0341510698
vt 0.607920647 0.0324439108
vn 0.709596276 -0.645364702 0.282802999
vn 0.600008011 0.737244725 0.310580939
vn 0.599582016 0.737652898 0.31043452
vn 0.738832593 -0.604431689 0.297974378
vn 0.621401548 0.73817879 0.262587249
vn 0.463428855 -0.870200455 0.167286888
vn 0.469809979 -0.871700525 0.139343843
vn 0.454330266 -0.875649929 0.163771927
vn 0.157974973 -0.984954953 0.0700543746
vn 0.759923458 -0.597387373 0.256212115
vn 0.841962099 -0.525135338 0.123825185
vn 0.725610077 0.680157006 -0.104290932
vn 0.355884224 -0.0221809205 -0.934266806
vn 0.179169878 -0.980840862 0.0764806941
vn 0.562924147 -0.547618866 -0.619055629
vn 0.185975939 -0.176139086 -0.966637433
vn -0.649649262 -0.739025533 -0.178317219
vn -0.643608034 -0.744725227 -0.176502272
vn -0.630895793 -0.737623513 -0.240586609
vn 0.479437083 -0.872134447 0.0975783318
vn 0.410093397 -0.604173839 -0.683225811
vn 0.293819577 -0.695853949 -0.655329943
vn 0.0382920653 -0.291465849 -0.955814421
vn -0.48876676 -0.687936902 -0.536516547
vn 0.185358122 -0.977302074 -0.102581777
vn 0.178966537 -0.983147621 0.0373057351
vn -0.221022025 0.975100458 -0.0181172751
vn 0.599582016 0.737652898 0.31043452
vn 0.600008011 0.737244725 0.310580939
vn -0.193433687 0.981094003 -0.00616354262
vn 0.621401548 0.73817879 0.262587249
vn -0.470235348 0.873819411 -0.123767003
vn -0.464817226 0.872202396 -0.152341455
vn -0.478731334 0.868743658 -0.126888826
vn -0.789940894 0.57247591 -0.219692439
vn -0.758732855 0.616328776 -0.210863382
vn -0.643608034 -0.744725227 -0.176502272
vn -0.649649262 -0.739025533 -0.178317219
vn -0.753034174 0.605332136 -0.257900387
vn -0.721941769 0.56090486 -0.405198604
vn -0.630895793 -0.737623513 -0.240586609
vn -0.48876676 -0.687936902 -0.536516547
vn 0.0382920653 -0.291465849 -0.955814421
vn -0.175136819 0.983753204 -0.039455153
vn -0.0799946412 0.983377337 -0.163002148
vn 0.725610077 0.680157006 -0.104290932
vn -0.452615261 0.870512068 -0.193256661
vn -0.0189424865 0.484976292 -0.874322057
vn 0.355884224 -0.0221809205 -0.934266806
vn 0.185975939 -0.176139086 -0.966637433
vn -0.119721539 0.354229689 -0.927463233
vn -0.291030169 0.302372694 -0.907674015
g Jinya_0
f 3/3/3 2/2/2 1/1/1
f 4/4/4 3/3/3 1/1/1
f 5/5/5 3/3/3 4/4/4
f 6/6/6 4/4/4 1/1/1
f 6/6/6 7/7/7 4/4/4
f 8/8/8 6/6/6 1/1/1
f 6/6/6 8/8/8 9/9/9
f 10/10/10 5/5/5 4/4/4
f 7/7/7 10/10/10 4/4/4
f 5/5/5 10/10/10 11/11/11
f 10/10/10 7/7/7 11/11/11
f 12/12/12 5/5/5 11/11/11
f 12/12/12 11/11/11 13/13/13
f 14/14/14 6/6/6 9/9/9
f 7/7/7 6/6/6 14/14/14
f 11/11/11 15/15/15 13/13/13
f 16/16/16 13/13/13 15/15/15
f 17/17/17 14/14/14 9/9/9
f 18/18/18 17/17/17 9/9/9
f 17/17/17 19/19/19 14/14/14
f 15/15/15 11/11/11 20/20/20
f 7/7/7 20/20/20 11/11/11
f 21/21/21 16/16/16 15/15/15
f 21/21/21 15/15/15 20/20/20
f 16/16/16 21/21/21 22/22/22
f 21/21/21 20/20/20 22/22/22
f 23/23/23 16/16/16 22/22/22
f 24/24/24 23/23/23 22/22/22
f 20/20/20 25/25/25 22/22/22
f 25/25/25 24/24/24 22/22/22
f 19/19/19 24/24/24 25/25/25
f 20/20/20 7/7/7 25/25/25
f 19/19/19 26/26/26 14/14/14
f 26/26/26 19/19/19 25/25/25
f 7/7/7 26/26/26 25/25/25
f 26/26/26 7/7/7 14/14/14
f 29/29/29 28/28/28 27/27/27
f 28/28/28 30/30/30 27/27/27
f 28/28/28 31/31/31 30/30/30
f 30/30/30 32/32/32 27/27/27
f 33/33/33 32/32/32 30/30/30
f 32/32/32 34/34/34 27/27/27
f 34/34/34 32/32/32 35/35/35
f 32/32/32 36/36/36 35/35/35
f 32/32/32 33/33/33 36/36/36
f 37/37/37 35/35/35 36/36/36
f 38/38/38 37/37/37 36/36/36
f 38/38/38 36/36/36 39/39/39
f 33/33/33 39/39/39 36/36/36
f 39/39/39 33/33/33 40/40/40
f 41/41/41 38/38/38 39/39/39
f 41/41/41 39/39/39 40/40/40
f 42/42/42 41/41/41 40/40/40
f 42/42/42 40/40/40 43/43/43
f 31/31/31 44/44/44 30/30/30
f 44/44/44 33/33/33 30/30/30
f 44/44/44 31/31/31 45/45/45
f 44/44/44 45/45/45 33/33/33
f 31/31/31 46/46/46 45/45/45
f 45/45/45 47/47/47 33/33/33
f 33/33/33 47/47/47 40/40/40
f 45/45/45 46/46/46 48/48/48
f 47/47/47 45/45/45 48/48/48
f 46/46/46 49/49/49 48/48/48
f 49/49/49 50/50/50 48/48/48
f 51/51/51 47/47/47 48/48/48
f 40/40/40 47/47/47 51/51/51
f 50/50/50 51/51/51 48/48/48
f 50/50/50 43/43/43 52/52/52
f 40/40/40 52/52/52 43/43/43
f 51/51/51 50/50/50 52/52/52
f 52/52/52 40/40/40 51/51/51
