g DiZhu_Pai03
v 0.353953391 0.0147894816 0.636868477
v 0.349487752 0.018714888 0.638936698
v 0.352031499 0.018714888 0.647463918
v 0.352850407 0.018714888 0.63172543
v 0.356379807 0.0147894844 0.645002246
v 0.357591808 0.018714888 0.65005672
v 0.357160896 0.0147894835 0.629989982
v 0.41503191 0.0187148843 0.498376757
v 0.359755695 0.0147894844 0.639574111
v 0.361683488 0.0147894854 0.647475362
v 0.459758937 0.0147894938 0.693208754
v 0.460411608 0.0187148973 0.698002458
v 0.467050761 0.0147894928 0.689606607
v 0.465062618 0.0147894938 0.69568187
v 0.465971857 0.0187148992 0.7005952
v 0.474139154 0.0187148992 0.697062671
v 0.472853124 0.0147894938 0.6923123
v 0.477501869 0.0187148992 0.689851344
v 0.3629632 0.0147894835 0.632695615
v 0.470258296 0.0147894938 0.682728112
v 0.476060599 0.0147894947 0.685433805
v 0.41647318 0.0147894798 0.502794325
v 0.535372913 0.01478949 0.558238149
v 0.539683342 0.0187148936 0.5565027
v 0.422275543 0.0147894789 0.505499959
v 0.419680715 0.0147894798 0.49591586
v 0.418394625 0.0187148824 0.491165519
v 0.426561922 0.0187148862 0.48763293
v 0.52957058 0.01478949 0.555532455
v 0.538580358 0.01478949 0.551359653
v 0.543045998 0.0187148955 0.549291432
v 0.54050231 0.0187148936 0.540764213
v 0.427471191 0.0147894789 0.49254626
v 0.432122171 0.0187148843 0.490225732
v 0.425482959 0.0147894789 0.498621523
v 0.532778084 0.0147894891 0.54865402
v 0.536153972 0.0147894919 0.543225944
v 0.534942031 0.0187148936 0.538171411
v 0.432774872 0.0147894807 0.495019406
v 0.530850291 0.0147894891 0.540752769
v 0.419680655 0.0226402823 0.49591586
v 0.418394625 0.0187148824 0.491165519
v 0.426561922 0.0187148862 0.48763293
v 0.41503191 0.0187148843 0.498376757
v 0.427471191 0.0226402842 0.49254626
v 0.432122171 0.0187148843 0.490225732
v 0.41647318 0.0226402842 0.502794325
v 0.352850407 0.018714888 0.63172543
v 0.425482959 0.0226402897 0.498621523
v 0.432774872 0.0226402879 0.495019406
v 0.530850291 0.0226402953 0.540752769
v 0.534942031 0.0187148936 0.538171411
v 0.532778084 0.0226402972 0.54865402
v 0.536153972 0.0226402953 0.543225944
v 0.54050231 0.0187148936 0.540764213
v 0.538580358 0.0226402972 0.551359713
v 0.543045998 0.0187148955 0.549291432
v 0.539683342 0.0187148936 0.5565027
v 0.422275484 0.0226402842 0.505499959
v 0.52957058 0.0226402972 0.555532455
v 0.535372913 0.0226402972 0.558238149
v 0.357160896 0.0226402953 0.629989982
v 0.476060599 0.0226403009 0.685433805
v 0.477501869 0.0187148992 0.689851344
v 0.3629632 0.0226402916 0.632695615
v 0.353953391 0.0226402916 0.636868477
v 0.349487752 0.018714888 0.638936698
v 0.352031499 0.018714888 0.647463918
v 0.470258296 0.0226403009 0.682728112
v 0.472853124 0.0226403065 0.6923123
v 0.474139154 0.0187148992 0.697062671
v 0.356379807 0.0226402953 0.645002246
v 0.357591808 0.018714888 0.65005672
v 0.359755695 0.0226402953 0.639574111
v 0.467050761 0.0226403046 0.689606607
v 0.465062618 0.0226403065 0.69568187
v 0.465971857 0.0187148992 0.7005952
v 0.460411608 0.0187148973 0.698002458
v 0.361683488 0.0226402897 0.647475362
v 0.459758937 0.0226403065 0.693208754
vt 0.0215483867 0.97464335
vt 0.0116298115 0.983688831
vt 0.0175696723 0.990104437
vt 0.00892664026 0.97552371
vt 0.0246372037 0.977273822
vt 0.0238286741 0.992519021
vt 0.0211796388 0.97105813
vt 0.00945853349 0.883443773
vt 0.0243537165 0.974552155
vt 0.0272625871 0.977492452
vt 0.0858898684 0.977450132
vt 0.0891530737 0.992469549
vt 0.0888313651 0.974504232
vt 0.0885166302 0.977228403
vt 0.0954443142 0.990040302
vt 0.101455428 0.983609915
vt 0.0916347951 0.974590421
vt 0.104248933 0.975443244
vt 0.0243343972 0.970991373
vt 0.0888911933 0.970941782
vt 0.0920456275 0.97100246
vt 0.0216618329 0.887884557
vt 0.0925277993 0.887828231
vt 0.104780771 0.88336271
vt 0.0248162188 0.887945175
vt 0.0220726877 0.884297073
vt 0.0122520356 0.875277519
vt 0.0182631537 0.86884737
vt 0.089373067 0.887894869
vt 0.0921590254 0.884242654
vt 0.10207767 0.875197113
vt 0.096137844 0.868781269
vt 0.025190901 0.88165921
vt 0.0245542638 0.866418064
vt 0.0248760916 0.884383202
vt 0.0893537924 0.884333909
vt 0.0890703052 0.881611824
vt 0.0898786411 0.866366565
vt 0.0278176405 0.88143754
vt 0.0864449739 0.881393313
vt 0.0186255015 0.777992368
vt 0.0133213466 0.768832803
vt 0.0095765423 0.774385393
vt 0.0181026272 0.766256213
vt 0.0170786157 0.780883729
vt 0.00816086866 0.780210674
vt 0.020719409 0.777624607
vt 0.0719838887 0.766277552
vt 0.0186712109 0.780604303
vt 0.0169467628 0.783327878
vt 0.016870033 0.837903142
vt 0.00807294808 0.840988219
vt 0.0185875557 0.840619922
vt 0.0169965886 0.840352118
vt 0.00947487541 0.846826792
vt 0.0185359605 0.843232393
vt 0.0132308668 0.852406502
vt 0.0180117302 0.854972959
vt 0.0207515657 0.780565202
vt 0.0206695125 0.840654194
vt 0.0206315145 0.843592942
vt 0.0693640485 0.777657568
vt 0.0692759082 0.843625844
vt 0.0718927905 0.854994059
vt 0.0693260059 0.780596256
vt 0.0714598075 0.778018117
vt 0.0767648295 0.768843949
vt 0.0805208907 0.774423778
vt 0.0692437068 0.840685248
vt 0.0713696256 0.843257904
vt 0.0766738281 0.85241729
vt 0.072999157 0.780898333
vt 0.081922695 0.780262291
vt 0.07140816 0.78063035
vt 0.0713238418 0.840645909
vt 0.0729163885 0.840366364
vt 0.0804184303 0.8468647
vt 0.0818339884 0.841039538
vt 0.0731256604 0.783347309
vt 0.0730481148 0.837922275
vn -0.440562814 -0.893770576 -0.084134683
vn -0.999997377 0 -0.00230807741
vn -0.77690798 0 0.629614174
vn -0.906307876 0 -0.422618151
vn -0.293684155 -0.912523806 0.284692496
vn -0.422616363 -2.18606061E-07 0.90630877
vn -0.390523821 -0.902401924 -0.1821042
vn -0.906306863 -1.07344715E-06 -0.422620147
vn 1.47889125E-07 -1 1.12378132E-07
vn -0.158221662 -0.927273273 0.339308441
vn -0.158222154 -0.927272916 0.339309037
vn -0.422617346 -3.2790993E-07 0.906308234
vn -0 -1 0
vn -0.0293061491 -0.912524998 0.407969683
vn 0.0170749016 -2.59428305E-07 0.999854207
vn 0.644554555 -1.60821656E-07 0.764558256
vn 0.347641557 -0.89376992 0.283409059
vn 0.906308174 -1.21982197E-07 0.422617435
vn -0 -1 0
vn 1.13522894E-07 -1 0
vn 0.390525937 -0.902400851 0.182105035
vn -0.390524387 -0.902401507 -0.182105049
vn 0.390526712 -0.902400434 0.182105109
vn 0.906308651 -6.34307469E-07 0.422616392
vn -0 -1 0
vn -0.347638458 -0.893770874 -0.283409745
vn -0.644554913 -4.46725494E-07 -0.764558017
vn -0.0170759298 1.59648465E-07 -0.999854207
vn -0 -1 0
vn 0.440564007 -0.893769979 0.0841342434
vn 0.999997377 3.75248476E-07 0.00231042271
vn 0.776908755 1.19737138E-07 -0.629613221
vn 0.0293076709 -0.912524343 -0.407970965
vn 0.422618836 1.36628202E-07 -0.906307578
vn -0 -1 0
vn 1.94364986E-07 -1 0
vn 0.293684065 -0.912525415 -0.28468737
vn 0.422618121 1.36628628E-07 -0.906307876
vn 0.158223689 -0.927271783 -0.339311302
vn 0.158223376 -0.927272141 -0.339310884
vn -0.347640812 0.89376992 -0.283410102
vn -0.644554913 -4.46725494E-07 -0.764558017
vn -0.0170759298 1.59648465E-07 -0.999854207
vn -0.906306863 -1.07344715E-06 -0.422620147
vn 0.0293074679 0.912524343 -0.407971114
vn 0.422618836 1.36628202E-07 -0.906307578
vn -0.390524387 0.902401626 -0.182104826
vn -0.906307876 0 -0.422618151
vn -3.32970899E-07 1 -3.43712685E-07
vn 0.15822348 0.927271903 -0.339311361
vn 0.158223197 0.927272141 -0.339310974
vn 0.422618121 1.36628628E-07 -0.906307876
vn -0 1 -1.11378064E-07
vn 0.293683797 0.912525594 -0.28468731
vn 0.776908755 1.19737138E-07 -0.629613221
vn 0.440564364 0.893769622 0.0841354877
vn 0.999997377 3.75248476E-07 0.00231042271
vn 0.906308651 -6.34307469E-07 0.422616392
vn -1.62180427E-07 1 0
vn -0 1 0
vn 0.390526652 0.902400434 0.182105213
vn -0.390523791 0.902401984 -0.182104215
vn 0.390525937 0.902400851 0.1821049
vn 0.906308174 -1.21982197E-07 0.422617435
vn -0 1 0
vn -0.440562934 0.893770456 -0.0841347054
vn -0.999997377 0 -0.00230807741
vn -0.77690798 0 0.629614174
vn -0 1 -2.33021069E-07
vn 0.347641617 0.89376992 0.28340894
vn 0.644554555 -1.60821656E-07 0.764558256
vn -0.293684214 0.912523806 0.284692526
vn -0.422616363 -2.18606061E-07 0.90630877
vn -0 1 0
vn -0 1 -3.32364067E-07
vn -0.0293062292 0.912524939 0.407969803
vn 0.0170749016 -2.59428305E-07 0.999854207
vn -0.422617346 -3.2790993E-07 0.906308234
vn -0.158221796 0.927273154 0.33930856
vn -0.158222392 0.927272916 0.339309067
g DiZhu_Pai03_0
f 3/3/3 2/2/2 1/1/1
f 2/2/2 4/4/4 1/1/1
f 5/5/5 3/3/3 1/1/1
f 3/3/3 5/5/5 6/6/6
f 4/4/4 7/7/7 1/1/1
f 4/4/4 8/8/8 7/7/7
f 1/1/1 9/9/9 5/5/5
f 1/1/1 7/7/7 9/9/9
f 5/5/5 10/10/10 6/6/6
f 9/9/9 10/10/10 5/5/5
f 6/6/6 10/10/10 11/11/11
f 12/12/12 6/6/6 11/11/11
f 9/9/9 13/13/13 10/10/10
f 13/13/13 11/11/11 10/10/10
f 12/12/12 11/11/11 14/14/14
f 14/14/14 11/11/11 13/13/13
f 15/15/15 12/12/12 14/14/14
f 16/16/16 15/15/15 14/14/14
f 17/17/17 16/16/16 14/14/14
f 17/17/17 14/14/14 13/13/13
f 16/16/16 17/17/17 18/18/18
f 7/7/7 19/19/19 9/9/9
f 9/9/9 19/19/19 13/13/13
f 13/13/13 20/20/20 17/17/17
f 19/19/19 20/20/20 13/13/13
f 17/17/17 21/21/21 18/18/18
f 20/20/20 21/21/21 17/17/17
f 19/19/19 7/7/7 22/22/22
f 8/8/8 22/22/22 7/7/7
f 18/18/18 21/21/21 23/23/23
f 24/24/24 18/18/18 23/23/23
f 19/19/19 25/25/25 20/20/20
f 25/25/25 19/19/19 22/22/22
f 26/26/26 22/22/22 8/8/8
f 25/25/25 22/22/22 26/26/26
f 27/27/27 26/26/26 8/8/8
f 27/27/27 28/28/28 26/26/26
f 20/20/20 29/29/29 21/21/21
f 25/25/25 29/29/29 20/20/20
f 29/29/29 23/23/23 21/21/21
f 24/24/24 23/23/23 30/30/30
f 31/31/31 24/24/24 30/30/30
f 32/32/32 31/31/31 30/30/30
f 28/28/28 33/33/33 26/26/26
f 28/28/28 34/34/34 33/33/33
f 35/35/35 25/25/25 26/26/26
f 29/29/29 25/25/25 35/35/35
f 26/26/26 33/33/33 35/35/35
f 23/23/23 29/29/29 36/36/36
f 30/30/30 23/23/23 36/36/36
f 36/36/36 29/29/29 35/35/35
f 37/37/37 32/32/32 30/30/30
f 30/30/30 36/36/36 37/37/37
f 32/32/32 37/37/37 38/38/38
f 34/34/34 39/39/39 33/33/33
f 33/33/33 39/39/39 35/35/35
f 34/34/34 38/38/38 39/39/39
f 36/36/36 35/35/35 40/40/40
f 36/36/36 40/40/40 37/37/37
f 35/35/35 39/39/39 40/40/40
f 38/38/38 40/40/40 39/39/39
f 37/37/37 40/40/40 38/38/38
f 43/43/43 42/42/42 41/41/41
f 42/42/42 44/44/44 41/41/41
f 45/45/45 43/43/43 41/41/41
f 43/43/43 45/45/45 46/46/46
f 44/44/44 47/47/47 41/41/41
f 44/44/44 48/48/48 47/47/47
f 41/41/41 49/49/49 45/45/45
f 41/41/41 47/47/47 49/49/49
f 45/45/45 50/50/50 46/46/46
f 49/49/49 50/50/50 45/45/45
f 46/46/46 50/50/50 51/51/51
f 52/52/52 46/46/46 51/51/51
f 50/50/50 49/49/49 53/53/53
f 51/51/51 50/50/50 53/53/53
f 52/52/52 51/51/51 54/54/54
f 54/54/54 51/51/51 53/53/53
f 55/55/55 52/52/52 54/54/54
f 55/55/55 54/54/54 56/56/56
f 56/56/56 54/54/54 53/53/53
f 57/57/57 55/55/55 56/56/56
f 57/57/57 56/56/56 58/58/58
f 47/47/47 59/59/59 49/49/49
f 49/49/49 59/59/59 53/53/53
f 53/53/53 60/60/60 56/56/56
f 59/59/59 60/60/60 53/53/53
f 56/56/56 61/61/61 58/58/58
f 60/60/60 61/61/61 56/56/56
f 59/59/59 47/47/47 62/62/62
f 48/48/48 62/62/62 47/47/47
f 58/58/58 61/61/61 63/63/63
f 64/64/64 58/58/58 63/63/63
f 59/59/59 65/65/65 60/60/60
f 65/65/65 59/59/59 62/62/62
f 66/66/66 62/62/62 48/48/48
f 65/65/65 62/62/62 66/66/66
f 67/67/67 66/66/66 48/48/48
f 67/67/67 68/68/68 66/66/66
f 60/60/60 69/69/69 61/61/61
f 65/65/65 69/69/69 60/60/60
f 69/69/69 63/63/63 61/61/61
f 64/64/64 63/63/63 70/70/70
f 71/71/71 64/64/64 70/70/70
f 68/68/68 72/72/72 66/66/66
f 68/68/68 73/73/73 72/72/72
f 74/74/74 65/65/65 66/66/66
f 69/69/69 65/65/65 74/74/74
f 66/66/66 72/72/72 74/74/74
f 63/63/63 69/69/69 75/75/75
f 70/70/70 63/63/63 75/75/75
f 75/75/75 69/69/69 74/74/74
f 71/71/71 70/70/70 76/76/76
f 70/70/70 75/75/75 76/76/76
f 77/77/77 71/71/71 76/76/76
f 77/77/77 76/76/76 78/78/78
f 73/73/73 79/79/79 72/72/72
f 72/72/72 79/79/79 74/74/74
f 73/73/73 78/78/78 79/79/79
f 75/75/75 74/74/74 80/80/80
f 75/75/75 80/80/80 76/76/76
f 74/74/74 79/79/79 80/80/80
f 78/78/78 80/80/80 79/79/79
f 76/76/76 80/80/80 78/78/78
