g Cylinder_1
v -0.293798715 0.0306888185 -0.936185598
v -0.450125724 -0.100485072 -0.561711311
v -0.450125694 -0.100485072 -0.936185598
v -0.293798745 0.0306888577 -0.561711311
v -0.102035284 0.100485034 -0.936185598
v -0.450125724 -0.100485072 -0.187237084
v -0.102035291 0.100485072 -0.561711311
v 0.102035165 0.100485072 -0.936185598
v -0.293798745 0.0306888577 -0.187237084
v -0.450125694 -0.100485072 0.187237158
v 0.10203518 0.100485116 -0.561711311
v 0.293798655 0.0306888577 -0.936185598
v -0.102035291 0.100485072 -0.187237084
v -0.293798715 0.0306888185 0.187237158
v -0.450125724 -0.100485072 0.561711431
v 0.293798685 0.0306888949 -0.561711311
v 0.450125694 -0.100485072 -0.936185598
v 0.450125724 -0.100485072 -0.561711311
v 0.10203518 0.100485116 -0.187237084
v 0.293798685 0.0306888949 -0.187237084
v 0.450125724 -0.100485072 -0.187237084
v -0.102035284 0.100485034 0.187237158
v -0.293798745 0.0306888577 0.561711431
v -0.450125694 -0.100485072 0.936185598
v -0.293798715 0.0306888185 0.936185598
v -0.102035291 0.100485072 0.561711431
v -0.102035284 0.100485034 0.936185598
v 0.102035165 0.100485072 0.187237158
v 0.293798655 0.0306888577 0.187237158
v 0.450125694 -0.100485072 0.187237158
v 0.10203518 0.100485116 0.561711431
v 0.102035165 0.100485072 0.936185598
v 0.293798685 0.0306888949 0.561711431
v 0.450125724 -0.100485072 0.561711431
v 0.293798655 0.0306888577 0.936185598
v 0.450125694 -0.100485072 0.936185598
vt 0.830475509 0.000999999931
vt 1.0033319 0.200600013
vt 1.0033319 0.000999999931
vt 0.830475509 0.200600013
vt 0.618435621 0.000999999931
vt 1.0033319 0.400200009
vt 0.618435621 0.200600013
vt 0.392787665 0.000999999931
vt 0.830475509 0.400200009
vt 1.0033319 0.59980005
vt 0.392787665 0.200600013
vt 0.180747852 0.000999999931
vt 0.618435621 0.400200009
vt 0.830475509 0.59980005
vt 1.0033319 0.799400032
vt 0.180747792 0.200600013
vt 0.0078914417 0.000999999931
vt 0.00789138116 0.200600013
vt 0.392787665 0.400200009
vt 0.180747792 0.400200009
vt 0.00789138116 0.400200009
vt 0.618435621 0.59980005
vt 0.830475509 0.799400032
vt 1.0033319 0.999000013
vt 0.830475509 0.999000013
vt 0.618435621 0.799400032
vt 0.618435621 0.999000013
vt 0.392787665 0.59980005
vt 0.180747852 0.59980005
vt 0.0078914417 0.59980005
vt 0.392787665 0.799400032
vt 0.392787665 0.999000013
vt 0.180747792 0.799400032
vt 0.00789138116 0.799400032
vt 0.180747852 0.999000013
vt 0.0078914417 0.999000013
vn -0.500000119 0.866025329 -1.00109141E-07
vn -0.642787635 0.766044438 0
vn -0.642787635 0.766044438 0
vn -0.500000119 0.866025329 0
vn -0.173648357 0.98480773 -1.07476765E-07
vn -0.642787635 0.766044438 0
vn -0.173648313 0.98480773 0
vn 0.173648104 0.98480773 -1.06209548E-07
vn -0.50000006 0.866025329 0
vn -0.642787635 0.766044438 0
vn 0.173648089 0.98480773 0
vn 0.50000006 0.866025329 0
vn -0.173648313 0.98480773 0
vn -0.50000006 0.866025329 0
vn -0.642787635 0.766044438 0
vn 0.50000006 0.866025329 0
vn 0.642787635 0.766044438 0
vn 0.642787635 0.766044438 0
vn 0.173648104 0.98480773 0
vn 0.50000006 0.866025329 0
vn 0.642787635 0.766044438 0
vn -0.173648313 0.98480773 0
vn -0.50000006 0.866025329 0
vn -0.642787635 0.766044438 0
vn -0.500000119 0.866025329 0
vn -0.173648328 0.98480773 0
vn -0.173648328 0.98480773 1.07476787E-07
vn 0.173648089 0.98480773 0
vn 0.50000006 0.866025329 0
vn 0.642787635 0.766044438 0
vn 0.173648104 0.98480773 0
vn 0.173648089 0.98480773 1.07476765E-07
vn 0.5 0.866025448 0
vn 0.642787635 0.766044438 0
vn 0.5 0.866025448 0
vn 0.642787635 0.766044438 0
g Cylinder_1_0
f 3/3/3 2/2/2 1/1/1
f 2/2/2 4/4/4 1/1/1
f 1/1/1 4/4/4 5/5/5
f 2/2/2 6/6/6 4/4/4
f 4/4/4 7/7/7 5/5/5
f 5/5/5 7/7/7 8/8/8
f 6/6/6 9/9/9 4/4/4
f 4/4/4 9/9/9 7/7/7
f 6/6/6 10/10/10 9/9/9
f 7/7/7 11/11/11 8/8/8
f 8/8/8 11/11/11 12/12/12
f 9/9/9 13/13/13 7/7/7
f 7/7/7 13/13/13 11/11/11
f 10/10/10 14/14/14 9/9/9
f 9/9/9 14/14/14 13/13/13
f 10/10/10 15/15/15 14/14/14
f 11/11/11 16/16/16 12/12/12
f 12/12/12 16/16/16 17/17/17
f 16/16/16 18/18/18 17/17/17
f 13/13/13 19/19/19 11/11/11
f 11/11/11 19/19/19 16/16/16
f 16/16/16 20/20/20 18/18/18
f 19/19/19 20/20/20 16/16/16
f 20/20/20 21/21/21 18/18/18
f 14/14/14 22/22/22 13/13/13
f 13/13/13 22/22/22 19/19/19
f 15/15/15 23/23/23 14/14/14
f 14/14/14 23/23/23 22/22/22
f 15/15/15 24/24/24 23/23/23
f 24/24/24 25/25/25 23/23/23
f 23/23/23 25/25/25 26/26/26
f 23/23/23 26/26/26 22/22/22
f 25/25/25 27/27/27 26/26/26
f 22/22/22 28/28/28 19/19/19
f 19/19/19 28/28/28 20/20/20
f 22/22/22 26/26/26 28/28/28
f 20/20/20 29/29/29 21/21/21
f 28/28/28 29/29/29 20/20/20
f 29/29/29 30/30/30 21/21/21
f 26/26/26 27/27/27 31/31/31
f 26/26/26 31/31/31 28/28/28
f 28/28/28 31/31/31 29/29/29
f 27/27/27 32/32/32 31/31/31
f 29/29/29 33/33/33 30/30/30
f 31/31/31 33/33/33 29/29/29
f 31/31/31 32/32/32 33/33/33
f 33/33/33 34/34/34 30/30/30
f 32/32/32 35/35/35 33/33/33
f 33/33/33 35/35/35 34/34/34
f 35/35/35 36/36/36 34/34/34
