g chibang_fx1:Plane003
v 12771.0371 10.3424072 1942.37842
v 12270.6436 4.69818115 3568.41162
v 13332.8389 3.84979248 3008.86255
v 11708.8398 11.1907959 2501.92896
v 12209.2363 16.8346405 875.895874
v 10646.6465 12.039566 3061.47949
v 11208.4492 5.54656982 4127.96045
v 10084.8447 18.5314178 1994.99683
v 11147.041 17.6830292 1435.44641
v 11157.9746 25.8083344 -667.687744
v 9988.24023 22.518158 1429.2467
v 10579.1729 24.1699219 374.87207
v 10105.2715 31.7630768 -1254.90698
v 8935.53613 28.4725189 842.027466
v 9520.4043 30.1177979 -206.440491
v 8611.78906 36.592865 -1947.02893
v 8299.59082 36.7580414 433.71759
v 8461.69629 36.3739014 -775.156921
v 7416.66699 49.5660782 -2103.75049
v 7104.46875 49.7312546 276.994568
v 7260.5752 49.671936 -913.57251
v 6052.19775 56.2351227 -2187.69214
v 6064.96143 49.3627548 213.392883
v 6058.58545 52.8079987 -987.225159
v 4846.80664 49.8456955 -2181.30176
v 4859.5708 42.9733276 219.781738
v 4853.15527 46.49086 -979.839905
v 3693.63354 42.9673195 -2205.12305
v 3602.18384 31.4815521 194.233932
v 3647.90869 37.2243881 -1005.44415
v 2743.78564 30.3888321 -2218.77344
v 2145.05322 22.1603394 106.492844
v 2443.91528 26.2149811 -1053.77332
v 1576.45068 25.7958889 -2519.36548
v 977.717773 17.5673962 -194.099197
v 1277.08423 21.6816425 -1356.73193
v 752.802917 23.5804081 -2681.48169
v -526.613342 10.5165596 -649.65033
v 111.421761 17.0685825 -1661.44543
v -267.209259 17.3566456 -3323.80933
v -1546.62561 4.29282188 -1291.97974
v -906.91748 10.824728 -2307.89478
v -906.15625 6.87363148 -3635.16577
v -2906.61548 2.80475616 -2307.17456
v -1916.65784 4.72006798 -2960.69629
v -1572.83716 4.76737022 -4639.44727
v -3573.29565 0.698471069 -3311.45508
v -2573.06665 2.73294449 -3975.45117
v -2024.34058 -4.25300598 -5097.79297
v -4415.16016 5.66616058 -4875.76953
v -3229.74902 0.666618347 -4983.25684
v -2135.802 -4.15420532 -6298.05322
v -4526.62158 5.76477051 -6076.02979
v -3331.21191 0.805282593 -6187.04199
v -2247.26392 -4.05550003 -7498.31299
v -4638.0835 5.86357117 -7276.29004
v -3443.84961 0.905036926 -7387.41992
v -2167.4563 -3.87639999 -8215.70117
v -4465.56641 5.50098419 -8911.40918
v -3316.71191 0.812530518 -8563.5752
v -1818.19177 -4.14700508 -9369.41602
v -4116.30225 5.23052216 -10065.125
v -2967.24731 0.541687012 -9717.27051
v -1559.15076 -1.09882355 -10260.5977
v -3636.93579 1.66034698 -11464.0146
v -2608.01294 0.27589798 -10866.6455
v -955.005737 -1.24988556 -11303.6963
v -3032.79077 1.50928497 -12507.1133
v -1993.89819 0.129699707 -11905.4043
v -394.158661 5.96046521E-05 -12252.124
v -2361.04761 -0.000286102295 -13629.3535
v -1383.6781 -0.0107288361 -12944.6211
v 297.244904 0.00011920929 -13239.5508
v -1669.64514 -0.000286102295 -14616.7812
v -686.200073 -7.15255665E-05 -13928.166
v 988.646973 0.000190734863 -14226.9775
v -978.242615 -0.000190734863 -15604.207
v 5.20237064 -8.56816314E-06 -14915.5928
v -686.200073 -1200.56409 -13928.166
v -1383.6781 -0.0107288361 -12944.6211
v -1377.60291 -1200.56396 -12940.7393
v -686.200073 -7.15255665E-05 -13928.166
v 5.20237064 -1200.56396 -14915.5928
v 5.20237064 -8.56816314E-06 -14915.5928
v 5.20237064 1200.56396 -14915.5928
v -686.200073 1200.56384 -13928.166
v -1377.60291 1200.56384 -12940.7393
v -1995.16748 -1200.43298 -11905.9658
v -2608.01294 0.27589798 -10866.6455
v -2599.3125 -1200.28186 -10862.8672
v -1993.89819 0.129699707 -11905.4043
v -1377.60291 -1200.56396 -12940.7393
v -1383.6781 -0.0107288361 -12944.6211
v -1377.60291 1200.56384 -12940.7393
v -1992.62891 1200.69238 -11904.8438
v -2596.77417 1200.84338 -10861.7451
v -2971.81274 -1200.0127 -9718.37109
v -3316.71191 0.812530518 -8563.5752
v -3321.0769 -1199.74207 -8564.65527
v -2967.24731 0.541687012 -9717.27051
v -2599.3125 -1200.28186 -10862.8672
v -2608.01294 0.27589798 -10866.6455
v -2596.77417 1200.84338 -10861.7451
v -2962.68164 1201.09619 -9716.1709
v -3311.9458 1201.3667 -8562.4541
v -3321.0769 -1199.74207 -8564.65527
v -3443.84961 0.905036926 -7387.41992
v -3447.62085 -1199.64929 -7386.94141
v -3316.71191 0.812530518 -8563.5752
v -3311.9458 1201.3667 -8562.4541
v -3437.72583 1201.4574 -7387.6626
v -3336.15918 -1199.74805 -6186.68115
v -3229.74902 0.666618347 -4983.25684
v -3224.69751 -1199.84692 -4986.4209
v -3331.21191 0.805282593 -6187.04199
v -3447.62085 -1199.64929 -7386.94141
v -3443.84961 0.905036926 -7387.41992
v -3437.72583 1201.4574 -7387.6626
v -3326.26416 1201.35864 -6187.40186
v -3214.80298 1201.25989 -4987.1416
v -2570.21118 -1197.8269 -3974.82861
v -1916.65784 4.72006798 -2960.69629
v -1903.53064 -1195.72058 -2970.54736
v -2573.06665 2.73294449 -3975.45117
v -3224.69751 -1199.84692 -4986.4209
v -3229.74902 0.666618347 -4983.25684
v -3214.80298 1201.25989 -4987.1416
v -2575.92188 1203.2926 -3976.07373
v -1909.24109 1205.39905 -2971.79321
v -898.191467 -1189.70496 -2310.11865
v 111.421761 17.0685825 -1661.44543
v 121.820724 -1183.48132 -1667.7915
v -906.91748 10.824728 -2307.89478
v -1903.53064 -1195.72058 -2970.54736
v -1916.65784 4.72006798 -2960.69629
v -1909.24109 1205.39905 -2971.79321
v -915.643311 1211.35461 -2305.66919
v 104.368866 1217.57837 -1663.34204
v 1282.53992 -1178.86621 -1359.57617
v 2443.91528 26.2149811 -1053.77332
v 2449.87524 -1174.27332 -1058.98267
v 1277.08423 21.6816425 -1356.73193
v 121.820724 -1183.48132 -1667.7915
v 111.421761 17.0685825 -1661.44543
v 104.368866 1217.57837 -1663.34204
v 1271.6283 1222.22961 -1353.8877
v 2438.96362 1226.82239 -1053.29565
v 4859.53418 -1154.13184 -984.229858
v 6058.58545 52.8079987 -987.225159
v 6064.9248 -1147.74255 -990.618713
v 4853.15527 46.49086 -979.839905
v 3659.1438 -1163.2749 -1010.76337
v 4846.84326 1246.95093 -977.290161
v 6052.2334 1253.34033 -983.680542
v 3636.67334 1237.72388 -1000.12494
v 3647.90869 37.2243881 -1005.44415
v 2449.87524 -1174.27332 -1058.98267
v 2438.96362 1226.82239 -1053.29565
v 2443.91528 26.2149811 -1053.77332
v 6064.9248 -1147.74255 -990.618713
v 7260.5752 49.671936 -913.57251
v 7247.74609 -1150.84534 -914.976318
v 6058.58545 52.8079987 -987.225159
v 6052.2334 1253.34033 -983.680542
v 7273.38965 1250.14246 -911.779602
v 7247.74609 -1150.84534 -914.976318
v 8461.69629 36.3739014 -775.156921
v 8442.86816 -1163.8186 -758.254761
v 7260.5752 49.671936 -913.57251
v 7273.38965 1250.14246 -911.779602
v 8468.51172 1237.16931 -755.056519
v 9516.02637 -1170.42957 -210.766357
v 10579.1729 24.1699219 374.87207
v 10568.7305 -1176.38416 376.454407
v 9520.4043 30.1177979 -206.440491
v 8442.86816 -1163.8186 -758.254761
v 8461.69629 36.3739014 -775.156921
v 8468.51172 1237.16931 -755.056519
v 9524.78223 1230.66516 -202.114624
v 10577.4854 1224.71082 385.104614
v 11705.0771 -1189.35474 2496.60205
v 12270.6436 4.69818115 3568.41162
v 12266.8789 -1195.84766 3563.08643
v 11708.8398 11.1907959 2501.92896
v 11143.2754 -1182.86243 1430.11951
v 11712.6064 1211.73706 2507.25586
v 12274.4082 1205.24402 3573.73706
v 11150.8037 1218.22852 1440.77319
v 11147.041 17.6830292 1435.44641
v 10568.7305 -1176.38416 376.454407
v 10577.4854 1224.71082 385.104614
v 10579.1729 24.1699219 374.87207
vt 0.959999621 0
vt 0.999999583 0.5
vt 0.999999583 0
vt 0.959999621 0.5
vt 0.919999659 0
vt 0.959999621 1
vt 0.999999583 1
vt 0.919999659 1
vt 0.919999659 0.5
vt 0.879999697 0
vt 0.879999697 1
vt 0.879999697 0.5
vt 0.839999735 0
vt 0.839999735 1
vt 0.839999735 0.5
vt 0.799999774 0
vt 0.799999774 1
vt 0.799999774 0.5
vt 0.759999812 0
vt 0.759999812 1
vt 0.759999812 0.5
vt 0.71999985 0
vt 0.71999985 1
vt 0.71999985 0.5
vt 0.679999888 0
vt 0.679999888 1
vt 0.679999888 0.5
vt 0.639999926 0
vt 0.639999926 1
vt 0.639999926 0.5
vt 0.599999964 0
vt 0.599999964 1
vt 0.599999964 0.5
vt 0.560000002 0
vt 0.560000002 1
vt 0.560000002 0.5
vt 0.520000041 0
vt 0.520000041 1
vt 0.520000041 0.5
vt 0.480000079 0
vt 0.480000079 1
vt 0.480000079 0.5
vt 0.440000057 0
vt 0.440000057 1
vt 0.440000057 0.5
vt 0.400000036 0
vt 0.400000036 1
vt 0.400000036 0.5
vt 0.360000014 0
vt 0.360000014 1
vt 0.360000014 0.5
vt 0.319999993 0
vt 0.319999993 1
vt 0.319999993 0.5
vt 0.279999971 0
vt 0.279999971 1
vt 0.279999971 0.5
vt 0.239999965 0
vt 0.239999965 1
vt 0.239999965 0.5
vt 0.199999973 0
vt 0.199999973 1
vt 0.199999973 0.5
vt 0.159999982 0
vt 0.159999982 1
vt 0.159999982 0.5
vt 0.11999999 0
vt 0.11999999 1
vt 0.11999999 0.5
vt 0.0799999982 0
vt 0.0799999982 1
vt 0.0799999982 0.5
vt 0.0399999991 0
vt 0.0399999991 1
vt 0.0399999991 0.5
vt 0 0
vt 0 1
vt 0 0.5
vt 0.0399999991 0
vt 0.0799999982 0.5
vt 0.0799999982 0
vt 0.0399999991 0.5
vt 0 0
vt 0 0.5
vt 0 1
vt 0.0399999991 1
vt 0.0799999982 1
vt 0.11999999 0
vt 0.159999982 0.5
vt 0.159999982 0
vt 0.11999999 0.5
vt 0.0799999982 0
vt 0.0799999982 0.5
vt 0.0799999982 1
vt 0.11999999 1
vt 0.159999982 1
vt 0.199999973 0
vt 0.239999965 0.5
vt 0.239999965 0
vt 0.199999973 0.5
vt 0.159999982 0
vt 0.159999982 0.5
vt 0.159999982 1
vt 0.199999973 1
vt 0.239999965 1
vt 0.239999965 0
vt 0.279999971 0.5
vt 0.279999971 0
vt 0.239999965 0.5
vt 0.239999965 1
vt 0.279999971 1
vt 0.319999993 0
vt 0.360000014 0.5
vt 0.360000014 0
vt 0.319999993 0.5
vt 0.279999971 0
vt 0.279999971 0.5
vt 0.279999971 1
vt 0.319999993 1
vt 0.360000014 1
vt 0.400000036 0
vt 0.440000057 0.5
vt 0.440000057 0
vt 0.400000036 0.5
vt 0.360000014 0
vt 0.360000014 0.5
vt 0.360000014 1
vt 0.400000036 1
vt 0.440000057 1
vt 0.480000079 0
vt 0.520000041 0.5
vt 0.520000041 0
vt 0.480000079 0.5
vt 0.440000057 0
vt 0.440000057 0.5
vt 0.440000057 1
vt 0.480000079 1
vt 0.520000041 1
vt 0.560000002 0
vt 0.599999964 0.5
vt 0.599999964 0
vt 0.560000002 0.5
vt 0.520000041 0
vt 0.520000041 0.5
vt 0.520000041 1
vt 0.560000002 1
vt 0.599999964 1
vt 0.679999888 0
vt 0.71999985 0.5
vt 0.71999985 0
vt 0.679999888 0.5
vt 0.639999926 0
vt 0.679999888 1
vt 0.71999985 1
vt 0.639999926 1
vt 0.639999926 0.5
vt 0.599999964 0
vt 0.599999964 1
vt 0.599999964 0.5
vt 0.71999985 0
vt 0.759999812 0.5
vt 0.759999812 0
vt 0.71999985 0.5
vt 0.71999985 1
vt 0.759999812 1
vt 0.759999812 0
vt 0.799999774 0.5
vt 0.799999774 0
vt 0.759999812 0.5
vt 0.759999812 1
vt 0.799999774 1
vt 0.839999735 0
vt 0.879999697 0.5
vt 0.879999697 0
vt 0.839999735 0.5
vt 0.799999774 0
vt 0.799999774 0.5
vt 0.799999774 1
vt 0.839999735 1
vt 0.879999697 1
vt 0.959999621 0
vt 0.999999583 0.5
vt 0.999999583 0
vt 0.959999621 0.5
vt 0.919999659 0
vt 0.959999621 1
vt 0.999999583 1
vt 0.919999659 1
vt 0.919999659 0.5
vt 0.879999697 0
vt 0.879999697 1
vt 0.879999697 0.5
vn -0.0031354744 -0.999985218 -0.00443590293
vn -0.00313565484 -0.999985218 -0.00443607336
vn -0.00313554751 -0.999985218 -0.00443603843
vn -0.00313554541 -0.999985218 -0.00443586567
vn -0.00322541851 -0.999986291 -0.00414482458
vn -0.00313561573 -0.999985218 -0.00443582842
vn -0.00313576078 -0.999985218 -0.00443610735
vn -0.00414706394 -0.999980211 -0.00474556396
vn -0.00319955242 -0.999985933 -0.00422842801
vn -0.00364530156 -0.999986887 -0.0035989855
vn -0.00364213181 -0.999986887 -0.00360436621
vn -0.00364530156 -0.999986887 -0.0035989855
vn -0.00337667554 -0.999992371 -0.00195733737
vn -0.0069354116 -0.999971867 -0.00285365176
vn -0.003376676 -0.999992371 -0.00195733807
vn -0.0107847974 -0.999940872 -0.00144588109
vn -0.0108090676 -0.999940872 -0.0012486804
vn -0.0107847955 -0.999940872 -0.00144588097
vn -0.00372082624 -0.999991775 -0.00162226451
vn -0.00114360102 -0.999998212 -0.00148761121
vn -0.00372082647 -0.999991775 -0.00162226439
vn 0.00525424909 -0.999982119 -0.00285135512
vn 0.00525381556 -0.99998188 -0.00292881601
vn 0.00525424862 -0.999982119 -0.00285135512
vn 0.00692244899 -0.999969363 -0.0036752983
vn 0.00850618072 -0.999956965 -0.00372008164
vn 0.00692244992 -0.999969363 -0.0036752983
vn 0.0110251578 -0.999935865 -0.00258212886
vn 0.00779366447 -0.999965072 -0.00301343272
vn 0.0110251587 -0.999935865 -0.00258212979
vn 0.00452903053 -0.999986887 -0.00239471951
vn 0.00451824255 -0.999987006 -0.0023530235
vn 0.00452903053 -0.999986887 -0.00239471975
vn 0.00415477995 -0.999986649 -0.00307757594
vn 0.00513485447 -0.999983191 -0.00269159162
vn 0.00415477995 -0.999986649 -0.00307757547
vn 0.00727333408 -0.999971867 -0.00182990229
vn 0.00729107577 -0.999971747 -0.00185797946
vn 0.00727333501 -0.999971867 -0.00182990218
vn 0.00831714179 -0.999961019 0.00298151141
vn 0.00401014974 -0.999991298 -0.00114526611
vn 0.00831714272 -0.999961019 0.00298151118
vn 0.00238987501 -0.999997139 0
vn 0.00232022232 -0.999997258 0.000506941578
vn 0.00238987501 -0.999997139 0
vn 0.00107433763 -0.999976635 0.00674955687
vn -0.00145545811 -0.999998927 0
vn 0.00107433763 -0.999976635 0.00674955593
vn -0.00409010379 -0.999991655 0
vn -0.00415824587 -0.999991417 0
vn -0.00409010379 -0.999991655 0
vn -0.00411913544 -0.999991536 0
vn -0.00412229868 -0.999991536 0
vn -0.00411913451 -0.999991536 0
vn -0.00406391639 -0.999991775 0
vn -0.00408949656 -0.999991655 0
vn -0.00406391732 -0.999991775 0
vn -0.00380264455 -0.999992371 -0.000916861289
vn -0.00380311953 -0.999992371 -0.000917066005
vn -0.00380288181 -0.999992371 -0.000916963618
vn -0.00292427 -0.999994755 -0.00139474706
vn -0.003393905 -0.999994278 0
vn -0.00316935731 -0.999994755 -0.000745317491
vn -0.00104732462 -0.999999523 0
vn -0.00105984998 -0.999999523 0
vn -0.00104732451 -0.999999523 0
vn -0 -0.999999762 -0.000694655871
vn -0.000853489677 -0.999999642 0
vn -0 -0.999999762 -0.000694655697
vn -0 -1 0
vn -0 -1 0
vn -0 -1 0
vn -0 -1 0
vn -0 -1 0
vn -0 -1 0
vn -0 -1 0
vn -0 -1 0
vn -0 -1 0
vn -0.819152415 0 -0.573575974
vn -0.817431569 -0.00299972948 -0.576017976
vn -0.817431569 -0.00299972924 -0.576017857
vn -0.819152415 0 -0.573575974
vn -0.819152415 0 -0.573575974
vn -0.819152415 0 -0.573575914
vn -0.819152474 0 -0.573575854
vn -0.819152474 0 -0.573575795
vn -0.817431569 0.00299969641 -0.576017976
vn -0.860515952 -0.00242698425 -0.509417653
vn -0.863080025 -0.00334769138 -0.505056143
vn -0.863080025 -0.00334769138 -0.505056024
vn -0.860515952 -0.00242698472 -0.509417713
vn -0.860515952 -0.00242698449 -0.509417713
vn -0.860515952 -0.00242698472 -0.509417713
vn -0.861094892 0.00357463001 -0.508431852
vn -0.861094892 0.00357463048 -0.508431852
vn -0.863070548 0.00564470096 -0.505051911
vn -0.952699721 -0.00197966048 -0.303906471
vn -0.957073212 0.00382282562 -0.289821178
vn -0.957073092 0.00382282515 -0.289821208
vn -0.952699721 -0.00197966048 -0.3039065
vn -0.952699721 -0.00197966071 -0.3039065
vn -0.952699721 -0.00197966071 -0.30390653
vn -0.953508437 0.00702939136 -0.301284283
vn -0.953508437 0.00702939183 -0.301284313
vn -0.957072437 0.00398779428 -0.289821237
vn -0.994236827 0.00339596625 -0.107151337
vn -0.994236827 0.00339596602 -0.107151337
vn -0.994236827 0.00339596602 -0.107151337
vn -0.994236827 0.00339596625 -0.107151352
vn -0.994252503 0.00454868423 -0.106963225
vn -0.994252503 0.00454868469 -0.10696324
vn -0.995664537 0.00364742288 0.0929455012
vn -0.996100664 0 0.0882238224
vn -0.996100664 0 0.088223815
vn -0.995664537 0.00364742335 0.0929455012
vn -0.995664537 0.00364742288 0.0929455087
vn -0.995664537 0.00364742288 0.0929455161
vn -0.995660484 0.00461455388 0.092945151
vn -0.995660484 0.00461455341 0.092945151
vn -0.996065319 0.00840867124 0.0882215276
vn -0.838708997 -0.00333834882 0.544569612
vn -0.836377442 -0.00767409848 0.548100233
vn -0.836377442 -0.00767409848 0.548100233
vn -0.838708937 -0.00333834835 0.544569671
vn -0.838708937 -0.00333834835 0.544569671
vn -0.838708937 -0.00333834835 0.544569671
vn -0.84160459 0.0052517755 0.540068626
vn -0.84160459 0.0052517755 0.540068626
vn -0.836405873 0.00426386856 0.548094034
vn -0.545928299 -0.00918231253 0.837781549
vn -0.534361899 -0.00727308728 0.8452245
vn -0.534361959 -0.00727308728 0.8452245
vn -0.545928299 -0.00918231253 0.837781549
vn -0.545928299 -0.00918231253 0.837781549
vn -0.545928299 -0.00918231346 0.837781549
vn -0.549898267 0.00278605451 0.835227072
vn -0.549898267 0.00278605428 0.835226953
vn -0.534388602 -0.00362755288 0.845231116
vn -0.25474903 -0.00538336765 0.966992199
vn -0.250321567 -0.00443750806 0.968152642
vn -0.250321567 -0.00443750713 0.968152642
vn -0.254749 -0.00538336858 0.966992199
vn -0.25474903 -0.00538336765 0.966992199
vn -0.254749 -0.00538336858 0.966992199
vn -0.254580289 -0.00170793035 0.967050195
vn -0.254580289 -0.00170793035 0.967050195
vn -0.250329852 -0.00242442917 0.968157589
vn -0.0216364842 -0.00420131208 0.999757111
vn 0.00572956493 -0.00321112317 0.999978423
vn 0.0057295654 -0.00321112317 0.999978423
vn -0.0216364861 -0.00420131208 0.999757111
vn -0.0399320535 -0.00466753729 0.999191463
vn -0.0200240891 -0.00342309708 0.999793708
vn 0.00572792254 -0.00250800955 0.99998045
vn -0.0421988852 -0.00269656139 0.999105513
vn -0.0399320573 -0.00466753775 0.999191463
vn -0.0399320573 -0.00466753729 0.999191463
vn -0.0421988778 -0.00269656116 0.999105513
vn -0.0399320535 -0.00466753775 0.999191463
vn -0.0624845475 -0.00182522798 0.998044252
vn -0.0624845549 -0.0018252281 0.998044252
vn -0.0624845549 -0.00182522833 0.998044252
vn -0.0624845549 -0.0018252281 0.998044252
vn -0.0599643886 -0.00205763127 0.99819845
vn -0.0599643886 -0.00205763127 0.99819845
vn -0.122152127 0.00801799726 0.992478967
vn -0.122152112 0.00801799633 0.992478967
vn -0.122152112 0.00801799633 0.992478967
vn -0.122152112 0.00801799633 0.992478967
vn -0.122327112 -0.00804868061 0.992457271
vn -0.122327112 -0.00804868061 0.992457271
vn -0.463786274 0.00912373792 0.88590014
vn -0.484204561 0.00198875554 0.874952614
vn -0.484204561 0.00198875577 0.874952614
vn -0.463786274 0.00912373699 0.88590014
vn -0.463786334 0.00912373886 0.88590014
vn -0.463786334 0.00912373699 0.88590014
vn -0.468548715 -0.00680203969 0.883411527
vn -0.468548775 -0.00680203969 0.883411527
vn -0.484229982 -0.00476264441 0.874927878
vn -0.884747028 0.000706164923 0.46607101
vn -0.88474685 0.000705790531 0.466071278
vn -0.88474685 0.000705790415 0.466071278
vn -0.884747028 0.000706164981 0.46607101
vn -0.879759133 0.0044643716 0.47539863
vn -0.884746969 0.000706853578 0.466071129
vn -0.884746313 0.00070769625 0.466072321
vn -0.880184472 -0.00231487583 0.474626005
vn -0.879759133 0.0044643716 0.47539863
vn -0.879759133 0.0044643716 0.47539863
vn -0.880184472 -0.00231487583 0.474626005
vn -0.879759133 0.0044643716 0.47539863
g chibang_fx1:Plane003_0
f 3/3/3 2/2/2 1/1/1
f 2/2/2 4/4/4 1/1/1
f 1/1/1 4/4/4 5/5/5
f 6/6/6 4/4/4 2/2/2
f 7/7/7 6/6/6 2/2/2
f 6/6/6 8/8/8 4/4/4
f 4/4/4 9/9/9 5/5/5
f 8/8/8 9/9/9 4/4/4
f 5/5/5 9/9/9 10/10/10
f 8/8/8 11/11/11 9/9/9
f 9/9/9 12/12/12 10/10/10
f 11/11/11 12/12/12 9/9/9
f 10/10/10 12/12/12 13/13/13
f 11/11/11 14/14/14 12/12/12
f 12/12/12 15/15/15 13/13/13
f 14/14/14 15/15/15 12/12/12
f 13/13/13 15/15/15 16/16/16
f 14/14/14 17/17/17 15/15/15
f 15/15/15 18/18/18 16/16/16
f 17/17/17 18/18/18 15/15/15
f 16/16/16 18/18/18 19/19/19
f 17/17/17 20/20/20 18/18/18
f 18/18/18 21/21/21 19/19/19
f 20/20/20 21/21/21 18/18/18
f 19/19/19 21/21/21 22/22/22
f 20/20/20 23/23/23 21/21/21
f 21/21/21 24/24/24 22/22/22
f 23/23/23 24/24/24 21/21/21
f 22/22/22 24/24/24 25/25/25
f 23/23/23 26/26/26 24/24/24
f 24/24/24 27/27/27 25/25/25
f 26/26/26 27/27/27 24/24/24
f 25/25/25 27/27/27 28/28/28
f 26/26/26 29/29/29 27/27/27
f 27/27/27 30/30/30 28/28/28
f 29/29/29 30/30/30 27/27/27
f 28/28/28 30/30/30 31/31/31
f 29/29/29 32/32/32 30/30/30
f 30/30/30 33/33/33 31/31/31
f 32/32/32 33/33/33 30/30/30
f 31/31/31 33/33/33 34/34/34
f 32/32/32 35/35/35 33/33/33
f 33/33/33 36/36/36 34/34/34
f 35/35/35 36/36/36 33/33/33
f 34/34/34 36/36/36 37/37/37
f 35/35/35 38/38/38 36/36/36
f 36/36/36 39/39/39 37/37/37
f 38/38/38 39/39/39 36/36/36
f 37/37/37 39/39/39 40/40/40
f 38/38/38 41/41/41 39/39/39
f 39/39/39 42/42/42 40/40/40
f 41/41/41 42/42/42 39/39/39
f 40/40/40 42/42/42 43/43/43
f 41/41/41 44/44/44 42/42/42
f 42/42/42 45/45/45 43/43/43
f 44/44/44 45/45/45 42/42/42
f 43/43/43 45/45/45 46/46/46
f 44/44/44 47/47/47 45/45/45
f 45/45/45 48/48/48 46/46/46
f 47/47/47 48/48/48 45/45/45
f 46/46/46 48/48/48 49/49/49
f 47/47/47 50/50/50 48/48/48
f 48/48/48 51/51/51 49/49/49
f 50/50/50 51/51/51 48/48/48
f 49/49/49 51/51/51 52/52/52
f 50/50/50 53/53/53 51/51/51
f 51/51/51 54/54/54 52/52/52
f 53/53/53 54/54/54 51/51/51
f 52/52/52 54/54/54 55/55/55
f 53/53/53 56/56/56 54/54/54
f 54/54/54 57/57/57 55/55/55
f 56/56/56 57/57/57 54/54/54
f 55/55/55 57/57/57 58/58/58
f 56/56/56 59/59/59 57/57/57
f 57/57/57 60/60/60 58/58/58
f 59/59/59 60/60/60 57/57/57
f 58/58/58 60/60/60 61/61/61
f 59/59/59 62/62/62 60/60/60
f 60/60/60 63/63/63 61/61/61
f 62/62/62 63/63/63 60/60/60
f 61/61/61 63/63/63 64/64/64
f 62/62/62 65/65/65 63/63/63
f 63/63/63 66/66/66 64/64/64
f 65/65/65 66/66/66 63/63/63
f 64/64/64 66/66/66 67/67/67
f 65/65/65 68/68/68 66/66/66
f 66/66/66 69/69/69 67/67/67
f 68/68/68 69/69/69 66/66/66
f 67/67/67 69/69/69 70/70/70
f 68/68/68 71/71/71 69/69/69
f 69/69/69 72/72/72 70/70/70
f 71/71/71 72/72/72 69/69/69
f 70/70/70 72/72/72 73/73/73
f 71/71/71 74/74/74 72/72/72
f 72/72/72 75/75/75 73/73/73
f 74/74/74 75/75/75 72/72/72
f 73/73/73 75/75/75 76/76/76
f 74/74/74 77/77/77 75/75/75
f 75/75/75 78/78/78 76/76/76
f 77/77/77 78/78/78 75/75/75
f 81/81/81 80/80/80 79/79/79
f 80/80/80 82/82/82 79/79/79
f 79/79/79 82/82/82 83/83/83
f 82/82/82 84/84/84 83/83/83
f 85/85/85 84/84/84 82/82/82
f 86/86/86 85/85/85 82/82/82
f 86/86/86 82/82/82 80/80/80
f 87/87/87 86/86/86 80/80/80
f 90/90/90 89/89/89 88/88/88
f 89/89/89 91/91/91 88/88/88
f 88/88/88 91/91/91 92/92/92
f 91/91/91 93/93/93 92/92/92
f 94/94/94 93/93/93 91/91/91
f 95/95/95 94/94/94 91/91/91
f 95/95/95 91/91/91 89/89/89
f 96/96/96 95/95/95 89/89/89
f 99/99/99 98/98/98 97/97/97
f 98/98/98 100/100/100 97/97/97
f 97/97/97 100/100/100 101/101/101
f 100/100/100 102/102/102 101/101/101
f 103/103/103 102/102/102 100/100/100
f 104/104/104 103/103/103 100/100/100
f 104/104/104 100/100/100 98/98/98
f 105/105/105 104/104/104 98/98/98
f 108/108/108 107/107/107 106/106/106
f 107/107/107 109/109/109 106/106/106
f 110/110/110 109/109/109 107/107/107
f 111/111/111 110/110/110 107/107/107
f 114/114/114 113/113/113 112/112/112
f 113/113/113 115/115/115 112/112/112
f 112/112/112 115/115/115 116/116/116
f 115/115/115 117/117/117 116/116/116
f 118/118/118 117/117/117 115/115/115
f 119/119/119 118/118/118 115/115/115
f 119/119/119 115/115/115 113/113/113
f 120/120/120 119/119/119 113/113/113
f 123/123/123 122/122/122 121/121/121
f 122/122/122 124/124/124 121/121/121
f 121/121/121 124/124/124 125/125/125
f 124/124/124 126/126/126 125/125/125
f 127/127/127 126/126/126 124/124/124
f 128/128/128 127/127/127 124/124/124
f 128/128/128 124/124/124 122/122/122
f 129/129/129 128/128/128 122/122/122
f 132/132/132 131/131/131 130/130/130
f 131/131/131 133/133/133 130/130/130
f 130/130/130 133/133/133 134/134/134
f 133/133/133 135/135/135 134/134/134
f 136/136/136 135/135/135 133/133/133
f 137/137/137 136/136/136 133/133/133
f 137/137/137 133/133/133 131/131/131
f 138/138/138 137/137/137 131/131/131
f 141/141/141 140/140/140 139/139/139
f 140/140/140 142/142/142 139/139/139
f 139/139/139 142/142/142 143/143/143
f 142/142/142 144/144/144 143/143/143
f 145/145/145 144/144/144 142/142/142
f 146/146/146 145/145/145 142/142/142
f 146/146/146 142/142/142 140/140/140
f 147/147/147 146/146/146 140/140/140
f 150/150/150 149/149/149 148/148/148
f 149/149/149 151/151/151 148/148/148
f 148/148/148 151/151/151 152/152/152
f 153/153/153 151/151/151 149/149/149
f 154/154/154 153/153/153 149/149/149
f 153/153/153 155/155/155 151/151/151
f 151/151/151 156/156/156 152/152/152
f 155/155/155 156/156/156 151/151/151
f 152/152/152 156/156/156 157/157/157
f 155/155/155 158/158/158 156/156/156
f 156/156/156 159/159/159 157/157/157
f 158/158/158 159/159/159 156/156/156
f 162/162/162 161/161/161 160/160/160
f 161/161/161 163/163/163 160/160/160
f 164/164/164 163/163/163 161/161/161
f 165/165/165 164/164/164 161/161/161
f 168/168/168 167/167/167 166/166/166
f 167/167/167 169/169/169 166/166/166
f 170/170/170 169/169/169 167/167/167
f 171/171/171 170/170/170 167/167/167
f 174/174/174 173/173/173 172/172/172
f 173/173/173 175/175/175 172/172/172
f 172/172/172 175/175/175 176/176/176
f 175/175/175 177/177/177 176/176/176
f 178/178/178 177/177/177 175/175/175
f 179/179/179 178/178/178 175/175/175
f 179/179/179 175/175/175 173/173/173
f 180/180/180 179/179/179 173/173/173
f 183/183/183 182/182/182 181/181/181
f 182/182/182 184/184/184 181/181/181
f 181/181/181 184/184/184 185/185/185
f 186/186/186 184/184/184 182/182/182
f 187/187/187 186/186/186 182/182/182
f 186/186/186 188/188/188 184/184/184
f 184/184/184 189/189/189 185/185/185
f 188/188/188 189/189/189 184/184/184
f 185/185/185 189/189/189 190/190/190
f 188/188/188 191/191/191 189/189/189
f 189/189/189 192/192/192 190/190/190
f 191/191/191 192/192/192 189/189/189
